<?xml version="1.0" encoding="utf-8" standalone="no"?>
<!DOCTYPE svg PUBLIC "-//W3C//DTD SVG 1.1//EN"
  "http://www.w3.org/Graphics/SVG/1.1/DTD/svg11.dtd">
<svg xmlns:xlink="http://www.w3.org/1999/xlink" width="344.941312pt" height="162.594406pt" viewBox="0 0 344.941312 162.594406" xmlns="http://www.w3.org/2000/svg" version="1.1">
 <metadata>
  <rdf:RDF xmlns:dc="http://purl.org/dc/elements/1.1/" xmlns:cc="http://creativecommons.org/ns#" xmlns:rdf="http://www.w3.org/1999/02/22-rdf-syntax-ns#">
   <cc:Work>
    <dc:type rdf:resource="http://purl.org/dc/dcmitype/StillImage"/>
    <dc:date>2025-07-28T17:36:03.390460</dc:date>
    <dc:format>image/svg+xml</dc:format>
    <dc:creator>
     <cc:Agent>
      <dc:title>Matplotlib v3.10.3, https://matplotlib.org/</dc:title>
     </cc:Agent>
    </dc:creator>
   </cc:Work>
  </rdf:RDF>
 </metadata>
 <defs>
  <style type="text/css">*{stroke-linejoin: round; stroke-linecap: butt}</style>
 </defs>
 <g id="figure_1">
  <g id="patch_1">
   <path d="M 0 162.594406 
L 344.941312 162.594406 
L 344.941312 0 
L 0 0 
z
" style="fill: #ffffff"/>
  </g>
  <g id="axes_1">
   <g id="patch_2">
    <path d="M 63.004594 124.2 
L 252.004594 124.2 
L 252.004594 7.2 
L 63.004594 7.2 
z
" style="fill: #ffffff"/>
   </g>
   <g id="matplotlib.axis_1">
    <g id="xtick_1">
     <g id="line2d_1">
      <defs>
       <path id="m734798fc39" d="M 0 0 
L 0 6 
" style="stroke: #262626; stroke-width: 1.25"/>
      </defs>
      <g>
       <use xlink:href="#m734798fc39" x="96.140957" y="124.2" style="fill: #262626; stroke: #262626; stroke-width: 1.25"/>
      </g>
     </g>
     <g id="text_1">
      <!-- NIL -->
      <g style="fill: #262626" transform="translate(87.582442 141.573594) scale(0.11 -0.11)">
       <defs>
        <path id="ArialMT-4e" d="M 488 0 
L 488 4581 
L 1109 4581 
L 3516 984 
L 3516 4581 
L 4097 4581 
L 4097 0 
L 3475 0 
L 1069 3600 
L 1069 0 
L 488 0 
z
" transform="scale(0.015625)"/>
        <path id="ArialMT-49" d="M 597 0 
L 597 4581 
L 1203 4581 
L 1203 0 
L 597 0 
z
" transform="scale(0.015625)"/>
        <path id="ArialMT-4c" d="M 469 0 
L 469 4581 
L 1075 4581 
L 1075 541 
L 3331 541 
L 3331 0 
L 469 0 
z
" transform="scale(0.015625)"/>
       </defs>
       <use xlink:href="#ArialMT-4e"/>
       <use xlink:href="#ArialMT-49" transform="translate(72.216797 0)"/>
       <use xlink:href="#ArialMT-4c" transform="translate(100 0)"/>
      </g>
     </g>
    </g>
    <g id="xtick_2">
     <g id="line2d_2">
      <g>
       <use xlink:href="#m734798fc39" x="157.504594" y="124.2" style="fill: #262626; stroke: #262626; stroke-width: 1.25"/>
      </g>
     </g>
     <g id="text_2">
      <!-- NIL -->
      <g style="fill: #262626" transform="translate(148.946078 141.573594) scale(0.11 -0.11)">
       <use xlink:href="#ArialMT-4e"/>
       <use xlink:href="#ArialMT-49" transform="translate(72.216797 0)"/>
       <use xlink:href="#ArialMT-4c" transform="translate(100 0)"/>
      </g>
      <!-- DD -->
      <g style="fill: #262626" transform="translate(149.560531 153.208156) scale(0.11 -0.11)">
       <defs>
        <path id="ArialMT-44" d="M 494 0 
L 494 4581 
L 2072 4581 
Q 2606 4581 2888 4516 
Q 3281 4425 3559 4188 
Q 3922 3881 4101 3404 
Q 4281 2928 4281 2316 
Q 4281 1794 4159 1391 
Q 4038 988 3847 723 
Q 3656 459 3429 307 
Q 3203 156 2883 78 
Q 2563 0 2147 0 
L 494 0 
z
M 1100 541 
L 2078 541 
Q 2531 541 2789 625 
Q 3047 709 3200 863 
Q 3416 1078 3536 1442 
Q 3656 1806 3656 2325 
Q 3656 3044 3420 3430 
Q 3184 3816 2847 3947 
Q 2603 4041 2063 4041 
L 1100 4041 
L 1100 541 
z
" transform="scale(0.015625)"/>
       </defs>
       <use xlink:href="#ArialMT-44"/>
       <use xlink:href="#ArialMT-44" transform="translate(72.216797 0)"/>
      </g>
     </g>
    </g>
    <g id="xtick_3">
     <g id="line2d_3">
      <g>
       <use xlink:href="#m734798fc39" x="218.86823" y="124.2" style="fill: #262626; stroke: #262626; stroke-width: 1.25"/>
      </g>
     </g>
     <g id="text_3">
      <!-- NIL -->
      <g style="fill: #262626" transform="translate(210.309714 141.573594) scale(0.11 -0.11)">
       <use xlink:href="#ArialMT-4e"/>
       <use xlink:href="#ArialMT-49" transform="translate(72.216797 0)"/>
       <use xlink:href="#ArialMT-4c" transform="translate(100 0)"/>
      </g>
      <!-- SNAP-DD -->
      <g style="fill: #262626" transform="translate(194.114793 153.208156) scale(0.11 -0.11)">
       <defs>
        <path id="ArialMT-53" d="M 288 1472 
L 859 1522 
Q 900 1178 1048 958 
Q 1197 738 1509 602 
Q 1822 466 2213 466 
Q 2559 466 2825 569 
Q 3091 672 3220 851 
Q 3350 1031 3350 1244 
Q 3350 1459 3225 1620 
Q 3100 1781 2813 1891 
Q 2628 1963 1997 2114 
Q 1366 2266 1113 2400 
Q 784 2572 623 2826 
Q 463 3081 463 3397 
Q 463 3744 659 4045 
Q 856 4347 1234 4503 
Q 1613 4659 2075 4659 
Q 2584 4659 2973 4495 
Q 3363 4331 3572 4012 
Q 3781 3694 3797 3291 
L 3216 3247 
Q 3169 3681 2898 3903 
Q 2628 4125 2100 4125 
Q 1550 4125 1298 3923 
Q 1047 3722 1047 3438 
Q 1047 3191 1225 3031 
Q 1400 2872 2139 2705 
Q 2878 2538 3153 2413 
Q 3553 2228 3743 1945 
Q 3934 1663 3934 1294 
Q 3934 928 3725 604 
Q 3516 281 3123 101 
Q 2731 -78 2241 -78 
Q 1619 -78 1198 103 
Q 778 284 539 648 
Q 300 1013 288 1472 
z
" transform="scale(0.015625)"/>
        <path id="ArialMT-41" d="M -9 0 
L 1750 4581 
L 2403 4581 
L 4278 0 
L 3588 0 
L 3053 1388 
L 1138 1388 
L 634 0 
L -9 0 
z
M 1313 1881 
L 2866 1881 
L 2388 3150 
Q 2169 3728 2063 4100 
Q 1975 3659 1816 3225 
L 1313 1881 
z
" transform="scale(0.015625)"/>
        <path id="ArialMT-50" d="M 494 0 
L 494 4581 
L 2222 4581 
Q 2678 4581 2919 4538 
Q 3256 4481 3484 4323 
Q 3713 4166 3852 3881 
Q 3991 3597 3991 3256 
Q 3991 2672 3619 2267 
Q 3247 1863 2275 1863 
L 1100 1863 
L 1100 0 
L 494 0 
z
M 1100 2403 
L 2284 2403 
Q 2872 2403 3119 2622 
Q 3366 2841 3366 3238 
Q 3366 3525 3220 3729 
Q 3075 3934 2838 4000 
Q 2684 4041 2272 4041 
L 1100 4041 
L 1100 2403 
z
" transform="scale(0.015625)"/>
        <path id="ArialMT-2d" d="M 203 1375 
L 203 1941 
L 1931 1941 
L 1931 1375 
L 203 1375 
z
" transform="scale(0.015625)"/>
       </defs>
       <use xlink:href="#ArialMT-53"/>
       <use xlink:href="#ArialMT-4e" transform="translate(66.699219 0)"/>
       <use xlink:href="#ArialMT-41" transform="translate(138.916016 0)"/>
       <use xlink:href="#ArialMT-50" transform="translate(205.615234 0)"/>
       <use xlink:href="#ArialMT-2d" transform="translate(272.314453 0)"/>
       <use xlink:href="#ArialMT-44" transform="translate(305.615234 0)"/>
       <use xlink:href="#ArialMT-44" transform="translate(377.832031 0)"/>
      </g>
     </g>
    </g>
   </g>
   <g id="matplotlib.axis_2">
    <g id="ytick_1">
     <g id="line2d_4">
      <defs>
       <path id="me16e51d03e" d="M 0 0 
L -6 0 
" style="stroke: #262626; stroke-width: 1.25"/>
      </defs>
      <g>
       <use xlink:href="#me16e51d03e" x="63.004594" y="124.2" style="fill: #262626; stroke: #262626; stroke-width: 1.25"/>
      </g>
     </g>
     <g id="text_4">
      <!-- 0 -->
      <g style="fill: #262626" transform="translate(47.387563 128.136797) scale(0.11 -0.11)">
       <defs>
        <path id="ArialMT-30" d="M 266 2259 
Q 266 3072 433 3567 
Q 600 4063 929 4331 
Q 1259 4600 1759 4600 
Q 2128 4600 2406 4451 
Q 2684 4303 2865 4023 
Q 3047 3744 3150 3342 
Q 3253 2941 3253 2259 
Q 3253 1453 3087 958 
Q 2922 463 2592 192 
Q 2263 -78 1759 -78 
Q 1097 -78 719 397 
Q 266 969 266 2259 
z
M 844 2259 
Q 844 1131 1108 757 
Q 1372 384 1759 384 
Q 2147 384 2411 759 
Q 2675 1134 2675 2259 
Q 2675 3391 2411 3762 
Q 2147 4134 1753 4134 
Q 1366 4134 1134 3806 
Q 844 3388 844 2259 
z
" transform="scale(0.015625)"/>
       </defs>
       <use xlink:href="#ArialMT-30"/>
      </g>
     </g>
    </g>
    <g id="ytick_2">
     <g id="line2d_5">
      <g>
       <use xlink:href="#me16e51d03e" x="63.004594" y="88.595617" style="fill: #262626; stroke: #262626; stroke-width: 1.25"/>
      </g>
     </g>
     <g id="text_5">
      <!-- 50 -->
      <g style="fill: #262626" transform="translate(41.270531 92.532414) scale(0.11 -0.11)">
       <defs>
        <path id="ArialMT-35" d="M 266 1200 
L 856 1250 
Q 922 819 1161 601 
Q 1400 384 1738 384 
Q 2144 384 2425 690 
Q 2706 997 2706 1503 
Q 2706 1984 2436 2262 
Q 2166 2541 1728 2541 
Q 1456 2541 1237 2417 
Q 1019 2294 894 2097 
L 366 2166 
L 809 4519 
L 3088 4519 
L 3088 3981 
L 1259 3981 
L 1013 2750 
Q 1425 3038 1878 3038 
Q 2478 3038 2890 2622 
Q 3303 2206 3303 1553 
Q 3303 931 2941 478 
Q 2500 -78 1738 -78 
Q 1113 -78 717 272 
Q 322 622 266 1200 
z
" transform="scale(0.015625)"/>
       </defs>
       <use xlink:href="#ArialMT-35"/>
       <use xlink:href="#ArialMT-30" transform="translate(55.615234 0)"/>
      </g>
     </g>
    </g>
    <g id="ytick_3">
     <g id="line2d_6">
      <g>
       <use xlink:href="#me16e51d03e" x="63.004594" y="52.991234" style="fill: #262626; stroke: #262626; stroke-width: 1.25"/>
      </g>
     </g>
     <g id="text_6">
      <!-- 100 -->
      <g style="fill: #262626" transform="translate(35.1535 56.928031) scale(0.11 -0.11)">
       <defs>
        <path id="ArialMT-31" d="M 2384 0 
L 1822 0 
L 1822 3584 
Q 1619 3391 1289 3197 
Q 959 3003 697 2906 
L 697 3450 
Q 1169 3672 1522 3987 
Q 1875 4303 2022 4600 
L 2384 4600 
L 2384 0 
z
" transform="scale(0.015625)"/>
       </defs>
       <use xlink:href="#ArialMT-31"/>
       <use xlink:href="#ArialMT-30" transform="translate(55.615234 0)"/>
       <use xlink:href="#ArialMT-30" transform="translate(111.230469 0)"/>
      </g>
     </g>
    </g>
    <g id="ytick_4">
     <g id="line2d_7">
      <g>
       <use xlink:href="#me16e51d03e" x="63.004594" y="17.386851" style="fill: #262626; stroke: #262626; stroke-width: 1.25"/>
      </g>
     </g>
     <g id="text_7">
      <!-- 150 -->
      <g style="fill: #262626" transform="translate(35.1535 21.323648) scale(0.11 -0.11)">
       <use xlink:href="#ArialMT-31"/>
       <use xlink:href="#ArialMT-35" transform="translate(55.615234 0)"/>
       <use xlink:href="#ArialMT-30" transform="translate(111.230469 0)"/>
      </g>
     </g>
    </g>
    <g id="text_8">
     <!-- (%) iMN yield -->
     <g style="fill: #262626" transform="translate(15.935625 101.368125) rotate(-90) scale(0.12 -0.12)">
      <defs>
       <path id="ArialMT-28" d="M 1497 -1347 
Q 1031 -759 709 28 
Q 388 816 388 1659 
Q 388 2403 628 3084 
Q 909 3875 1497 4659 
L 1900 4659 
Q 1522 4009 1400 3731 
Q 1209 3300 1100 2831 
Q 966 2247 966 1656 
Q 966 153 1900 -1347 
L 1497 -1347 
z
" transform="scale(0.015625)"/>
       <path id="ArialMT-25" d="M 372 3481 
Q 372 3972 619 4315 
Q 866 4659 1334 4659 
Q 1766 4659 2048 4351 
Q 2331 4044 2331 3447 
Q 2331 2866 2045 2552 
Q 1759 2238 1341 2238 
Q 925 2238 648 2547 
Q 372 2856 372 3481 
z
M 1350 4272 
Q 1141 4272 1002 4090 
Q 863 3909 863 3425 
Q 863 2984 1003 2804 
Q 1144 2625 1350 2625 
Q 1563 2625 1702 2806 
Q 1841 2988 1841 3469 
Q 1841 3913 1700 4092 
Q 1559 4272 1350 4272 
z
M 1353 -169 
L 3859 4659 
L 4316 4659 
L 1819 -169 
L 1353 -169 
z
M 3334 1075 
Q 3334 1569 3581 1911 
Q 3828 2253 4300 2253 
Q 4731 2253 5014 1945 
Q 5297 1638 5297 1041 
Q 5297 459 5011 145 
Q 4725 -169 4303 -169 
Q 3888 -169 3611 142 
Q 3334 453 3334 1075 
z
M 4316 1866 
Q 4103 1866 3964 1684 
Q 3825 1503 3825 1019 
Q 3825 581 3965 400 
Q 4106 219 4313 219 
Q 4528 219 4667 400 
Q 4806 581 4806 1063 
Q 4806 1506 4665 1686 
Q 4525 1866 4316 1866 
z
" transform="scale(0.015625)"/>
       <path id="ArialMT-29" d="M 791 -1347 
L 388 -1347 
Q 1322 153 1322 1656 
Q 1322 2244 1188 2822 
Q 1081 3291 891 3722 
Q 769 4003 388 4659 
L 791 4659 
Q 1378 3875 1659 3084 
Q 1900 2403 1900 1659 
Q 1900 816 1576 28 
Q 1253 -759 791 -1347 
z
" transform="scale(0.015625)"/>
       <path id="ArialMT-20" transform="scale(0.015625)"/>
       <path id="ArialMT-69" d="M 425 3934 
L 425 4581 
L 988 4581 
L 988 3934 
L 425 3934 
z
M 425 0 
L 425 3319 
L 988 3319 
L 988 0 
L 425 0 
z
" transform="scale(0.015625)"/>
       <path id="ArialMT-4d" d="M 475 0 
L 475 4581 
L 1388 4581 
L 2472 1338 
Q 2622 884 2691 659 
Q 2769 909 2934 1394 
L 4031 4581 
L 4847 4581 
L 4847 0 
L 4263 0 
L 4263 3834 
L 2931 0 
L 2384 0 
L 1059 3900 
L 1059 0 
L 475 0 
z
" transform="scale(0.015625)"/>
       <path id="ArialMT-79" d="M 397 -1278 
L 334 -750 
Q 519 -800 656 -800 
Q 844 -800 956 -737 
Q 1069 -675 1141 -563 
Q 1194 -478 1313 -144 
Q 1328 -97 1363 -6 
L 103 3319 
L 709 3319 
L 1400 1397 
Q 1534 1031 1641 628 
Q 1738 1016 1872 1384 
L 2581 3319 
L 3144 3319 
L 1881 -56 
Q 1678 -603 1566 -809 
Q 1416 -1088 1222 -1217 
Q 1028 -1347 759 -1347 
Q 597 -1347 397 -1278 
z
" transform="scale(0.015625)"/>
       <path id="ArialMT-65" d="M 2694 1069 
L 3275 997 
Q 3138 488 2766 206 
Q 2394 -75 1816 -75 
Q 1088 -75 661 373 
Q 234 822 234 1631 
Q 234 2469 665 2931 
Q 1097 3394 1784 3394 
Q 2450 3394 2872 2941 
Q 3294 2488 3294 1666 
Q 3294 1616 3291 1516 
L 816 1516 
Q 847 969 1125 678 
Q 1403 388 1819 388 
Q 2128 388 2347 550 
Q 2566 713 2694 1069 
z
M 847 1978 
L 2700 1978 
Q 2663 2397 2488 2606 
Q 2219 2931 1791 2931 
Q 1403 2931 1139 2672 
Q 875 2413 847 1978 
z
" transform="scale(0.015625)"/>
       <path id="ArialMT-6c" d="M 409 0 
L 409 4581 
L 972 4581 
L 972 0 
L 409 0 
z
" transform="scale(0.015625)"/>
       <path id="ArialMT-64" d="M 2575 0 
L 2575 419 
Q 2259 -75 1647 -75 
Q 1250 -75 917 144 
Q 584 363 401 755 
Q 219 1147 219 1656 
Q 219 2153 384 2558 
Q 550 2963 881 3178 
Q 1213 3394 1622 3394 
Q 1922 3394 2156 3267 
Q 2391 3141 2538 2938 
L 2538 4581 
L 3097 4581 
L 3097 0 
L 2575 0 
z
M 797 1656 
Q 797 1019 1065 703 
Q 1334 388 1700 388 
Q 2069 388 2326 689 
Q 2584 991 2584 1609 
Q 2584 2291 2321 2609 
Q 2059 2928 1675 2928 
Q 1300 2928 1048 2622 
Q 797 2316 797 1656 
z
" transform="scale(0.015625)"/>
      </defs>
      <use xlink:href="#ArialMT-28"/>
      <use xlink:href="#ArialMT-25" transform="translate(33.300781 0)"/>
      <use xlink:href="#ArialMT-29" transform="translate(122.216797 0)"/>
      <use xlink:href="#ArialMT-20" transform="translate(155.517578 0)"/>
      <use xlink:href="#ArialMT-69" transform="translate(183.300781 0)"/>
      <use xlink:href="#ArialMT-4d" transform="translate(205.517578 0)"/>
      <use xlink:href="#ArialMT-4e" transform="translate(288.818359 0)"/>
      <use xlink:href="#ArialMT-20" transform="translate(361.035156 0)"/>
      <use xlink:href="#ArialMT-79" transform="translate(388.818359 0)"/>
      <use xlink:href="#ArialMT-69" transform="translate(438.818359 0)"/>
      <use xlink:href="#ArialMT-65" transform="translate(461.035156 0)"/>
      <use xlink:href="#ArialMT-6c" transform="translate(516.650391 0)"/>
      <use xlink:href="#ArialMT-64" transform="translate(538.867188 0)"/>
     </g>
     <!-- per MEF plated -->
     <g style="fill: #262626" transform="translate(28.7685 106.715625) rotate(-90) scale(0.12 -0.12)">
      <defs>
       <path id="ArialMT-70" d="M 422 -1272 
L 422 3319 
L 934 3319 
L 934 2888 
Q 1116 3141 1344 3267 
Q 1572 3394 1897 3394 
Q 2322 3394 2647 3175 
Q 2972 2956 3137 2557 
Q 3303 2159 3303 1684 
Q 3303 1175 3120 767 
Q 2938 359 2589 142 
Q 2241 -75 1856 -75 
Q 1575 -75 1351 44 
Q 1128 163 984 344 
L 984 -1272 
L 422 -1272 
z
M 931 1641 
Q 931 1000 1190 694 
Q 1450 388 1819 388 
Q 2194 388 2461 705 
Q 2728 1022 2728 1688 
Q 2728 2322 2467 2637 
Q 2206 2953 1844 2953 
Q 1484 2953 1207 2617 
Q 931 2281 931 1641 
z
" transform="scale(0.015625)"/>
       <path id="ArialMT-72" d="M 416 0 
L 416 3319 
L 922 3319 
L 922 2816 
Q 1116 3169 1280 3281 
Q 1444 3394 1641 3394 
Q 1925 3394 2219 3213 
L 2025 2691 
Q 1819 2813 1613 2813 
Q 1428 2813 1281 2702 
Q 1134 2591 1072 2394 
Q 978 2094 978 1738 
L 978 0 
L 416 0 
z
" transform="scale(0.015625)"/>
       <path id="ArialMT-45" d="M 506 0 
L 506 4581 
L 3819 4581 
L 3819 4041 
L 1113 4041 
L 1113 2638 
L 3647 2638 
L 3647 2100 
L 1113 2100 
L 1113 541 
L 3925 541 
L 3925 0 
L 506 0 
z
" transform="scale(0.015625)"/>
       <path id="ArialMT-46" d="M 525 0 
L 525 4581 
L 3616 4581 
L 3616 4041 
L 1131 4041 
L 1131 2622 
L 3281 2622 
L 3281 2081 
L 1131 2081 
L 1131 0 
L 525 0 
z
" transform="scale(0.015625)"/>
       <path id="ArialMT-61" d="M 2588 409 
Q 2275 144 1986 34 
Q 1697 -75 1366 -75 
Q 819 -75 525 192 
Q 231 459 231 875 
Q 231 1119 342 1320 
Q 453 1522 633 1644 
Q 813 1766 1038 1828 
Q 1203 1872 1538 1913 
Q 2219 1994 2541 2106 
Q 2544 2222 2544 2253 
Q 2544 2597 2384 2738 
Q 2169 2928 1744 2928 
Q 1347 2928 1158 2789 
Q 969 2650 878 2297 
L 328 2372 
Q 403 2725 575 2942 
Q 747 3159 1072 3276 
Q 1397 3394 1825 3394 
Q 2250 3394 2515 3294 
Q 2781 3194 2906 3042 
Q 3031 2891 3081 2659 
Q 3109 2516 3109 2141 
L 3109 1391 
Q 3109 606 3145 398 
Q 3181 191 3288 0 
L 2700 0 
Q 2613 175 2588 409 
z
M 2541 1666 
Q 2234 1541 1622 1453 
Q 1275 1403 1131 1340 
Q 988 1278 909 1158 
Q 831 1038 831 891 
Q 831 666 1001 516 
Q 1172 366 1500 366 
Q 1825 366 2078 508 
Q 2331 650 2450 897 
Q 2541 1088 2541 1459 
L 2541 1666 
z
" transform="scale(0.015625)"/>
       <path id="ArialMT-74" d="M 1650 503 
L 1731 6 
Q 1494 -44 1306 -44 
Q 1000 -44 831 53 
Q 663 150 594 308 
Q 525 466 525 972 
L 525 2881 
L 113 2881 
L 113 3319 
L 525 3319 
L 525 4141 
L 1084 4478 
L 1084 3319 
L 1650 3319 
L 1650 2881 
L 1084 2881 
L 1084 941 
Q 1084 700 1114 631 
Q 1144 563 1211 522 
Q 1278 481 1403 481 
Q 1497 481 1650 503 
z
" transform="scale(0.015625)"/>
      </defs>
      <use xlink:href="#ArialMT-70"/>
      <use xlink:href="#ArialMT-65" transform="translate(55.615234 0)"/>
      <use xlink:href="#ArialMT-72" transform="translate(111.230469 0)"/>
      <use xlink:href="#ArialMT-20" transform="translate(144.53125 0)"/>
      <use xlink:href="#ArialMT-4d" transform="translate(172.314453 0)"/>
      <use xlink:href="#ArialMT-45" transform="translate(255.615234 0)"/>
      <use xlink:href="#ArialMT-46" transform="translate(322.314453 0)"/>
      <use xlink:href="#ArialMT-20" transform="translate(383.398438 0)"/>
      <use xlink:href="#ArialMT-70" transform="translate(411.181641 0)"/>
      <use xlink:href="#ArialMT-6c" transform="translate(466.796875 0)"/>
      <use xlink:href="#ArialMT-61" transform="translate(489.013672 0)"/>
      <use xlink:href="#ArialMT-74" transform="translate(544.628906 0)"/>
      <use xlink:href="#ArialMT-65" transform="translate(572.412109 0)"/>
      <use xlink:href="#ArialMT-64" transform="translate(628.027344 0)"/>
     </g>
    </g>
   </g>
   <g id="patch_3">
    <path d="M 71.595503 124.2 
L 96.140957 124.2 
L 96.140957 123.624396 
L 71.595503 123.624396 
z
" clip-path="url(#paac4712b0d)" style="fill: #808080; opacity: 0.8; stroke: #ffffff; stroke-linejoin: miter"/>
   </g>
   <g id="patch_4">
    <path d="M 132.959139 124.2 
L 157.504594 124.2 
L 157.504594 118.874178 
L 132.959139 118.874178 
z
" clip-path="url(#paac4712b0d)" style="fill: #808080; opacity: 0.8; stroke: #ffffff; stroke-linejoin: miter"/>
   </g>
   <g id="patch_5">
    <path d="M 194.322776 124.2 
L 218.86823 124.2 
L 218.86823 99.542303 
L 194.322776 99.542303 
z
" clip-path="url(#paac4712b0d)" style="fill: #808080; opacity: 0.8; stroke: #ffffff; stroke-linejoin: miter"/>
   </g>
   <g id="patch_6">
    <path d="M 96.140957 124.2 
L 120.686412 124.2 
L 120.686412 121.678023 
L 96.140957 121.678023 
z
" clip-path="url(#paac4712b0d)" style="fill: #c180a8; opacity: 0.8; stroke: #ffffff; stroke-linejoin: miter"/>
   </g>
   <g id="patch_7">
    <path d="M 157.504594 124.2 
L 182.050048 124.2 
L 182.050048 100.442975 
L 157.504594 100.442975 
z
" clip-path="url(#paac4712b0d)" style="fill: #c180a8; opacity: 0.8; stroke: #ffffff; stroke-linejoin: miter"/>
   </g>
   <g id="patch_8">
    <path d="M 218.86823 124.2 
L 243.413685 124.2 
L 243.413685 55.055695 
L 218.86823 55.055695 
z
" clip-path="url(#paac4712b0d)" style="fill: #c180a8; opacity: 0.8; stroke: #ffffff; stroke-linejoin: miter"/>
   </g>
   <g id="line2d_8">
    <path d="M 83.86823 123.801246 
L 83.86823 123.433868 
" clip-path="url(#paac4712b0d)" style="fill: none; stroke: #424242; stroke-width: 2.7; stroke-linecap: round"/>
   </g>
   <g id="line2d_9">
    <path d="M 145.231866 120.497159 
L 145.231866 117.230487 
" clip-path="url(#paac4712b0d)" style="fill: none; stroke: #424242; stroke-width: 2.7; stroke-linecap: round"/>
   </g>
   <g id="line2d_10">
    <path d="M 206.595503 105.258717 
L 206.595503 93.513401 
" clip-path="url(#paac4712b0d)" style="fill: none; stroke: #424242; stroke-width: 2.7; stroke-linecap: round"/>
   </g>
   <g id="line2d_11">
    <path d="M 108.413685 122.777071 
L 108.413685 120.503494 
" clip-path="url(#paac4712b0d)" style="fill: none; stroke: #424242; stroke-width: 2.7; stroke-linecap: round"/>
   </g>
   <g id="line2d_12">
    <path d="M 169.777321 107.171032 
L 169.777321 93.512464 
" clip-path="url(#paac4712b0d)" style="fill: none; stroke: #424242; stroke-width: 2.7; stroke-linecap: round"/>
   </g>
   <g id="line2d_13">
    <path d="M 231.140957 63.478683 
L 231.140957 45.674251 
" clip-path="url(#paac4712b0d)" style="fill: none; stroke: #424242; stroke-width: 2.7; stroke-linecap: round"/>
   </g>
   <g id="line2d_14">
    <path d="M 145.231866 75.826803 
L 145.231866 73.837344 
L 169.777321 73.837344 
L 169.777321 75.826803 
" clip-path="url(#paac4712b0d)" style="fill: none; stroke: #333333; stroke-width: 1.5; stroke-linecap: round"/>
   </g>
   <g id="line2d_15">
    <path d="M 83.86823 111.025296 
L 83.86823 109.035837 
L 108.413685 109.035837 
L 108.413685 111.025296 
" clip-path="url(#paac4712b0d)" style="fill: none; stroke: #333333; stroke-width: 1.5; stroke-linecap: round"/>
   </g>
   <g id="line2d_16">
    <path d="M 206.595503 23.495481 
L 206.595503 21.506022 
L 231.140957 21.506022 
L 231.140957 23.495481 
" clip-path="url(#paac4712b0d)" style="fill: none; stroke: #333333; stroke-width: 1.5; stroke-linecap: round"/>
   </g>
   <g id="patch_9">
    <path d="M 63.004594 124.2 
L 63.004594 7.2 
" style="fill: none; stroke: #262626; stroke-width: 1.25; stroke-linejoin: miter; stroke-linecap: square"/>
   </g>
   <g id="patch_10">
    <path d="M 252.004594 124.2 
L 252.004594 7.2 
" style="fill: none; stroke: #262626; stroke-width: 1.25; stroke-linejoin: miter; stroke-linecap: square"/>
   </g>
   <g id="patch_11">
    <path d="M 63.004594 124.2 
L 252.004594 124.2 
" style="fill: none; stroke: #262626; stroke-width: 1.25; stroke-linejoin: miter; stroke-linecap: square"/>
   </g>
   <g id="patch_12">
    <path d="M 63.004594 7.2 
L 252.004594 7.2 
" style="fill: none; stroke: #262626; stroke-width: 1.25; stroke-linejoin: miter; stroke-linecap: square"/>
   </g>
   <g id="PathCollection_1">
    <defs>
     <path id="C0_0_05b5133d1d" d="M 0 2.5 
C 0.663008 2.5 1.29895 2.236584 1.767767 1.767767 
C 2.236584 1.29895 2.5 0.663008 2.5 -0 
C 2.5 -0.663008 2.236584 -1.29895 1.767767 -1.767767 
C 1.29895 -2.236584 0.663008 -2.5 0 -2.5 
C -0.663008 -2.5 -1.29895 -2.236584 -1.767767 -1.767767 
C -2.236584 -1.29895 -2.5 -0.663008 -2.5 0 
C -2.5 0.663008 -2.236584 1.29895 -1.767767 1.767767 
C -1.29895 2.236584 -0.663008 2.5 0 2.5 
z
"/>
    </defs>
    <g clip-path="url(#paac4712b0d)">
     <use xlink:href="#C0_0_05b5133d1d" x="86.409955" y="123.95789" style="fill: #ffffff; stroke: #000000; stroke-width: 0.4"/>
    </g>
    <g clip-path="url(#paac4712b0d)">
     <use xlink:href="#C0_0_05b5133d1d" x="83.733191" y="123.95789" style="fill: #ffffff; stroke: #000000; stroke-width: 0.4"/>
    </g>
    <g clip-path="url(#paac4712b0d)">
     <use xlink:href="#C0_0_05b5133d1d" x="83.573547" y="123.779868" style="fill: #ffffff; stroke: #000000; stroke-width: 0.4"/>
    </g>
   </g>
   <g id="PathCollection_2">
    <defs>
     <path id="C1_0_2ffe79a9a8" d="M 0 2.5 
C 0.663008 2.5 1.29895 2.236584 1.767767 1.767767 
C 2.236584 1.29895 2.5 0.663008 2.5 -0 
C 2.5 -0.663008 2.236584 -1.29895 1.767767 -1.767767 
C 1.29895 -2.236584 0.663008 -2.5 0 -2.5 
C -0.663008 -2.5 -1.29895 -2.236584 -1.767767 -1.767767 
C -2.236584 -1.29895 -2.5 -0.663008 -2.5 0 
C -2.5 0.663008 -2.236584 1.29895 -1.767767 1.767767 
C -1.29895 2.236584 -0.663008 2.5 0 2.5 
z
"/>
    </defs>
    <g clip-path="url(#paac4712b0d)">
     <use xlink:href="#C1_0_2ffe79a9a8" x="108.434296" y="123.737143" style="fill: #ffffff; stroke: #000000; stroke-width: 0.4"/>
    </g>
    <g clip-path="url(#paac4712b0d)">
     <use xlink:href="#C1_0_2ffe79a9a8" x="107.674571" y="123.338374" style="fill: #ffffff; stroke: #000000; stroke-width: 0.4"/>
    </g>
    <g clip-path="url(#paac4712b0d)">
     <use xlink:href="#C1_0_2ffe79a9a8" x="110.150215" y="123.516396" style="fill: #ffffff; stroke: #000000; stroke-width: 0.4"/>
    </g>
   </g>
   <g id="PathCollection_3">
    <defs>
     <path id="C2_0_74b75b4c6a" d="M 0 2.5 
C 0.663008 2.5 1.29895 2.236584 1.767767 1.767767 
C 2.236584 1.29895 2.5 0.663008 2.5 -0 
C 2.5 -0.663008 2.236584 -1.29895 1.767767 -1.767767 
C 1.29895 -2.236584 0.663008 -2.5 0 -2.5 
C -0.663008 -2.5 -1.29895 -2.236584 -1.767767 -1.767767 
C -2.236584 -1.29895 -2.5 -0.663008 -2.5 0 
C -2.5 0.663008 -2.236584 1.29895 -1.767767 1.767767 
C -1.29895 2.236584 -0.663008 2.5 0 2.5 
z
"/>
    </defs>
    <g clip-path="url(#paac4712b0d)">
     <use xlink:href="#C2_0_74b75b4c6a" x="144.050423" y="123.238682" style="fill: #ffffff; stroke: #000000; stroke-width: 0.4"/>
    </g>
    <g clip-path="url(#paac4712b0d)">
     <use xlink:href="#C2_0_74b75b4c6a" x="143.886776" y="122.177671" style="fill: #ffffff; stroke: #000000; stroke-width: 0.4"/>
    </g>
    <g clip-path="url(#paac4712b0d)">
     <use xlink:href="#C2_0_74b75b4c6a" x="147.516345" y="122.647649" style="fill: #ffffff; stroke: #000000; stroke-width: 0.4"/>
    </g>
   </g>
   <g id="PathCollection_4">
    <defs>
     <path id="C3_0_471b645ab1" d="M 0 2.5 
C 0.663008 2.5 1.29895 2.236584 1.767767 1.767767 
C 2.236584 1.29895 2.5 0.663008 2.5 -0 
C 2.5 -0.663008 2.236584 -1.29895 1.767767 -1.767767 
C 1.29895 -2.236584 0.663008 -2.5 0 -2.5 
C -0.663008 -2.5 -1.29895 -2.236584 -1.767767 -1.767767 
C -2.236584 -1.29895 -2.5 -0.663008 -2.5 0 
C -2.5 0.663008 -2.236584 1.29895 -1.767767 1.767767 
C -1.29895 2.236584 -0.663008 2.5 0 2.5 
z
"/>
    </defs>
    <g clip-path="url(#paac4712b0d)">
     <use xlink:href="#C3_0_471b645ab1" x="170.337461" y="119.101452" style="fill: #ffffff; stroke: #000000; stroke-width: 0.4"/>
    </g>
    <g clip-path="url(#paac4712b0d)">
     <use xlink:href="#C3_0_471b645ab1" x="172.653001" y="118.631474" style="fill: #ffffff; stroke: #000000; stroke-width: 0.4"/>
    </g>
    <g clip-path="url(#paac4712b0d)">
     <use xlink:href="#C3_0_471b645ab1" x="167.407212" y="115.056794" style="fill: #ffffff; stroke: #000000; stroke-width: 0.4"/>
    </g>
   </g>
   <g id="PathCollection_5">
    <defs>
     <path id="C4_0_c0b7be0652" d="M 0 2.5 
C 0.663008 2.5 1.29895 2.236584 1.767767 1.767767 
C 2.236584 1.29895 2.5 0.663008 2.5 -0 
C 2.5 -0.663008 2.236584 -1.29895 1.767767 -1.767767 
C 1.29895 -2.236584 0.663008 -2.5 0 -2.5 
C -0.663008 -2.5 -1.29895 -2.236584 -1.767767 -1.767767 
C -2.236584 -1.29895 -2.5 -0.663008 -2.5 0 
C -2.5 0.663008 -2.236584 1.29895 -1.767767 1.767767 
C -1.29895 2.236584 -0.663008 2.5 0 2.5 
z
"/>
    </defs>
    <g clip-path="url(#paac4712b0d)">
     <use xlink:href="#C4_0_c0b7be0652" x="204.112878" y="110.542159" style="fill: #ffffff; stroke: #000000; stroke-width: 0.4"/>
    </g>
    <g clip-path="url(#paac4712b0d)">
     <use xlink:href="#C4_0_c0b7be0652" x="207.400493" y="108.719214" style="fill: #ffffff; stroke: #000000; stroke-width: 0.4"/>
    </g>
    <g clip-path="url(#paac4712b0d)">
     <use xlink:href="#C4_0_c0b7be0652" x="206.864598" y="109.709016" style="fill: #ffffff; stroke: #000000; stroke-width: 0.4"/>
    </g>
    <g clip-path="url(#paac4712b0d)">
     <use xlink:href="#C4_0_c0b7be0652" x="207.85921" y="112.685543" style="fill: #ffffff; stroke: #000000; stroke-width: 0.4"/>
    </g>
    <g clip-path="url(#paac4712b0d)">
     <use xlink:href="#C4_0_c0b7be0652" x="209.40573" y="107.238072" style="fill: #ffffff; stroke: #000000; stroke-width: 0.4"/>
    </g>
    <g clip-path="url(#paac4712b0d)">
     <use xlink:href="#C4_0_c0b7be0652" x="209.019816" y="110.705939" style="fill: #ffffff; stroke: #000000; stroke-width: 0.4"/>
    </g>
   </g>
   <g id="PathCollection_6">
    <defs>
     <path id="C5_0_d91aeac7d9" d="M 0 2.5 
C 0.663008 2.5 1.29895 2.236584 1.767767 1.767767 
C 2.236584 1.29895 2.5 0.663008 2.5 -0 
C 2.5 -0.663008 2.236584 -1.29895 1.767767 -1.767767 
C 1.29895 -2.236584 0.663008 -2.5 0 -2.5 
C -0.663008 -2.5 -1.29895 -2.236584 -1.767767 -1.767767 
C -2.236584 -1.29895 -2.5 -0.663008 -2.5 0 
C -2.5 0.663008 -2.236584 1.29895 -1.767767 1.767767 
C -1.29895 2.236584 -0.663008 2.5 0 2.5 
z
"/>
    </defs>
    <g clip-path="url(#paac4712b0d)">
     <use xlink:href="#C5_0_d91aeac7d9" x="229.598829" y="68.792459" style="fill: #ffffff; stroke: #000000; stroke-width: 0.4"/>
    </g>
    <g clip-path="url(#paac4712b0d)">
     <use xlink:href="#C5_0_d91aeac7d9" x="228.556353" y="73.862523" style="fill: #ffffff; stroke: #000000; stroke-width: 0.4"/>
    </g>
    <g clip-path="url(#paac4712b0d)">
     <use xlink:href="#C5_0_d91aeac7d9" x="233.452532" y="76.468764" style="fill: #ffffff; stroke: #000000; stroke-width: 0.4"/>
    </g>
   </g>
   <g id="PathCollection_7">
    <path d="M 83.442528 121.393802 
L 80.942528 126.393802 
L 85.942528 126.393802 
z
" clip-path="url(#paac4712b0d)" style="fill: #ffffff; stroke: #000000; stroke-width: 0.4"/>
    <path d="M 86.775954 120.247341 
L 84.275954 125.247341 
L 89.275954 125.247341 
z
" clip-path="url(#paac4712b0d)" style="fill: #ffffff; stroke: #000000; stroke-width: 0.4"/>
    <path d="M 81.329746 121.030638 
L 78.829746 126.030638 
L 83.829746 126.030638 
z
" clip-path="url(#paac4712b0d)" style="fill: #ffffff; stroke: #000000; stroke-width: 0.4"/>
   </g>
   <g id="PathCollection_8">
    <path d="M 106.62819 119.271781 
L 104.12819 124.271781 
L 109.12819 124.271781 
z
" clip-path="url(#paac4712b0d)" style="fill: #ffffff; stroke: #000000; stroke-width: 0.4"/>
    <path d="M 107.365423 118.524089 
L 104.865423 123.524089 
L 109.865423 123.524089 
z
" clip-path="url(#paac4712b0d)" style="fill: #ffffff; stroke: #000000; stroke-width: 0.4"/>
    <path d="M 109.168021 119.065276 
L 106.668021 124.065276 
L 111.668021 124.065276 
z
" clip-path="url(#paac4712b0d)" style="fill: #ffffff; stroke: #000000; stroke-width: 0.4"/>
   </g>
   <g id="PathCollection_9">
    <path d="M 144.25946 117.712309 
L 141.75946 122.712309 
L 146.75946 122.712309 
z
" clip-path="url(#paac4712b0d)" style="fill: #ffffff; stroke: #000000; stroke-width: 0.4"/>
    <path d="M 142.913682 118.225012 
L 140.413682 123.225012 
L 145.413682 123.225012 
z
" clip-path="url(#paac4712b0d)" style="fill: #ffffff; stroke: #000000; stroke-width: 0.4"/>
    <path d="M 147.237961 116.551606 
L 144.737961 121.551606 
L 149.737961 121.551606 
z
" clip-path="url(#paac4712b0d)" style="fill: #ffffff; stroke: #000000; stroke-width: 0.4"/>
   </g>
   <g id="PathCollection_10">
    <path d="M 167.825256 101.106425 
L 165.325256 106.106425 
L 170.325256 106.106425 
z
" clip-path="url(#paac4712b0d)" style="fill: #ffffff; stroke: #000000; stroke-width: 0.4"/>
    <path d="M 172.218583 103.513281 
L 169.718583 108.513281 
L 174.718583 108.513281 
z
" clip-path="url(#paac4712b0d)" style="fill: #ffffff; stroke: #000000; stroke-width: 0.4"/>
    <path d="M 171.435345 105.934379 
L 168.935345 110.934379 
L 173.935345 110.934379 
z
" clip-path="url(#paac4712b0d)" style="fill: #ffffff; stroke: #000000; stroke-width: 0.4"/>
   </g>
   <g id="PathCollection_11">
    <path d="M 203.702298 108.29851 
L 201.202298 113.29851 
L 206.202298 113.29851 
z
" clip-path="url(#paac4712b0d)" style="fill: #ffffff; stroke: #000000; stroke-width: 0.4"/>
    <path d="M 207.284897 102.843919 
L 204.784897 107.843919 
L 209.784897 107.843919 
z
" clip-path="url(#paac4712b0d)" style="fill: #ffffff; stroke: #000000; stroke-width: 0.4"/>
    <path d="M 204.217687 89.499396 
L 201.717687 94.499396 
L 206.717687 94.499396 
z
" clip-path="url(#paac4712b0d)" style="fill: #ffffff; stroke: #000000; stroke-width: 0.4"/>
   </g>
   <g id="PathCollection_12">
    <path d="M 228.624769 65.97202 
L 226.124769 70.97202 
L 231.124769 70.97202 
z
" clip-path="url(#paac4712b0d)" style="fill: #ffffff; stroke: #000000; stroke-width: 0.4"/>
    <path d="M 233.710424 55.881738 
L 231.210424 60.881738 
L 236.210424 60.881738 
z
" clip-path="url(#paac4712b0d)" style="fill: #ffffff; stroke: #000000; stroke-width: 0.4"/>
    <path d="M 229.913226 58.089209 
L 227.413226 63.089209 
L 232.413226 63.089209 
z
" clip-path="url(#paac4712b0d)" style="fill: #ffffff; stroke: #000000; stroke-width: 0.4"/>
   </g>
   <g id="PathCollection_13">
    <path d="M 82.610816 125.96655 
L 87.610816 125.96655 
L 87.610816 120.96655 
L 82.610816 120.96655 
z
" clip-path="url(#paac4712b0d)" style="fill: #ffffff; stroke: #000000; stroke-width: 0.4"/>
    <path d="M 78.943005 125.945187 
L 83.943005 125.945187 
L 83.943005 120.945187 
L 78.943005 120.945187 
z
" clip-path="url(#paac4712b0d)" style="fill: #ffffff; stroke: #000000; stroke-width: 0.4"/>
    <path d="M 82.947997 125.788528 
L 87.947997 125.788528 
L 87.947997 120.788528 
L 82.947997 120.788528 
z
" clip-path="url(#paac4712b0d)" style="fill: #ffffff; stroke: #000000; stroke-width: 0.4"/>
   </g>
   <g id="PathCollection_14">
    <path d="M 106.326471 119.493673 
L 111.326471 119.493673 
L 111.326471 114.493673 
L 106.326471 114.493673 
z
" clip-path="url(#paac4712b0d)" style="fill: #ffffff; stroke: #000000; stroke-width: 0.4"/>
    <path d="M 106.465825 123.410155 
L 111.465825 123.410155 
L 111.465825 118.410155 
L 106.465825 118.410155 
z
" clip-path="url(#paac4712b0d)" style="fill: #ffffff; stroke: #000000; stroke-width: 0.4"/>
    <path d="M 102.955071 120.540442 
L 107.955071 120.540442 
L 107.955071 115.540442 
L 102.955071 115.540442 
z
" clip-path="url(#paac4712b0d)" style="fill: #ffffff; stroke: #000000; stroke-width: 0.4"/>
   </g>
   <g id="PathCollection_15">
    <path d="M 144.27369 115.990202 
L 149.27369 115.990202 
L 149.27369 110.990202 
L 144.27369 110.990202 
z
" clip-path="url(#paac4712b0d)" style="fill: #ffffff; stroke: #000000; stroke-width: 0.4"/>
    <path d="M 142.136101 118.489629 
L 147.136101 118.489629 
L 147.136101 113.489629 
L 142.136101 113.489629 
z
" clip-path="url(#paac4712b0d)" style="fill: #ffffff; stroke: #000000; stroke-width: 0.4"/>
    <path d="M 140.657745 118.895519 
L 145.657745 118.895519 
L 145.657745 113.895519 
L 140.657745 113.895519 
z
" clip-path="url(#paac4712b0d)" style="fill: #ffffff; stroke: #000000; stroke-width: 0.4"/>
   </g>
   <g id="PathCollection_16">
    <path d="M 166.598293 84.29518 
L 171.598293 84.29518 
L 171.598293 79.29518 
L 166.598293 79.29518 
z
" clip-path="url(#paac4712b0d)" style="fill: #ffffff; stroke: #000000; stroke-width: 0.4"/>
    <path d="M 169.393292 91.173947 
L 174.393292 91.173947 
L 174.393292 86.173947 
L 169.393292 86.173947 
z
" clip-path="url(#paac4712b0d)" style="fill: #ffffff; stroke: #000000; stroke-width: 0.4"/>
    <path d="M 167.446267 87.22186 
L 172.446267 87.22186 
L 172.446267 82.22186 
L 167.446267 82.22186 
z
" clip-path="url(#paac4712b0d)" style="fill: #ffffff; stroke: #000000; stroke-width: 0.4"/>
   </g>
   <g id="PathCollection_17">
    <path d="M 201.125244 83.946257 
L 206.125244 83.946257 
L 206.125244 78.946257 
L 201.125244 78.946257 
z
" clip-path="url(#paac4712b0d)" style="fill: #ffffff; stroke: #000000; stroke-width: 0.4"/>
    <path d="M 206.183039 90.540189 
L 211.183039 90.540189 
L 211.183039 85.540189 
L 206.183039 85.540189 
z
" clip-path="url(#paac4712b0d)" style="fill: #ffffff; stroke: #000000; stroke-width: 0.4"/>
    <path d="M 201.803431 83.654301 
L 206.803431 83.654301 
L 206.803431 78.654301 
L 201.803431 78.654301 
z
" clip-path="url(#paac4712b0d)" style="fill: #ffffff; stroke: #000000; stroke-width: 0.4"/>
   </g>
   <g id="PathCollection_18">
    <path d="M 227.03396 31.963858 
L 232.03396 31.963858 
L 232.03396 26.963858 
L 227.03396 26.963858 
z
" clip-path="url(#paac4712b0d)" style="fill: #ffffff; stroke: #000000; stroke-width: 0.4"/>
    <path d="M 228.537783 31.992341 
L 233.537783 31.992341 
L 233.537783 26.992341 
L 228.537783 26.992341 
z
" clip-path="url(#paac4712b0d)" style="fill: #ffffff; stroke: #000000; stroke-width: 0.4"/>
    <path d="M 231.307298 56.538003 
L 236.307298 56.538003 
L 236.307298 51.538003 
L 231.307298 51.538003 
z
" clip-path="url(#paac4712b0d)" style="fill: #ffffff; stroke: #000000; stroke-width: 0.4"/>
   </g>
   <g id="PathCollection_19">
    <path d="M 84.748506 127.229952 
L 88.28404 123.694418 
L 84.748506 120.158884 
L 81.212972 123.694418 
z
" clip-path="url(#paac4712b0d)" style="fill: #ffffff; stroke: #000000; stroke-width: 0.4"/>
    <path d="M 80.960945 127.343886 
L 84.496479 123.808352 
L 80.960945 120.272818 
L 77.425412 123.808352 
z
" clip-path="url(#paac4712b0d)" style="fill: #ffffff; stroke: #000000; stroke-width: 0.4"/>
    <path d="M 81.880964 127.45782 
L 85.416497 123.922286 
L 81.880964 120.386752 
L 78.34543 123.922286 
z
" clip-path="url(#paac4712b0d)" style="fill: #ffffff; stroke: #000000; stroke-width: 0.4"/>
   </g>
   <g id="PathCollection_20">
    <path d="M 111.322505 126.375446 
L 114.858038 122.839913 
L 111.322505 119.304379 
L 107.786971 122.839913 
z
" clip-path="url(#paac4712b0d)" style="fill: #ffffff; stroke: #000000; stroke-width: 0.4"/>
    <path d="M 108.03167 126.610435 
L 111.567204 123.074901 
L 108.03167 119.539368 
L 104.496136 123.074901 
z
" clip-path="url(#paac4712b0d)" style="fill: #ffffff; stroke: #000000; stroke-width: 0.4"/>
    <path d="M 110.322536 126.859666 
L 113.85807 123.324132 
L 110.322536 119.788598 
L 106.787002 123.324132 
z
" clip-path="url(#paac4712b0d)" style="fill: #ffffff; stroke: #000000; stroke-width: 0.4"/>
   </g>
   <g id="PathCollection_21">
    <path d="M 147.477128 120.493602 
L 151.012662 116.958068 
L 147.477128 113.422535 
L 143.941594 116.958068 
z
" clip-path="url(#paac4712b0d)" style="fill: #ffffff; stroke: #000000; stroke-width: 0.4"/>
    <path d="M 148.249207 121.219932 
L 151.784741 117.684398 
L 148.249207 114.148864 
L 144.713673 117.684398 
z
" clip-path="url(#paac4712b0d)" style="fill: #ffffff; stroke: #000000; stroke-width: 0.4"/>
    <path d="M 147.643862 121.454921 
L 151.179396 117.919387 
L 147.643862 114.383853 
L 144.108329 117.919387 
z
" clip-path="url(#paac4712b0d)" style="fill: #ffffff; stroke: #000000; stroke-width: 0.4"/>
   </g>
   <g id="PathCollection_22">
    <path d="M 172.358048 98.881742 
L 175.893582 95.346208 
L 172.358048 91.810674 
L 168.822514 95.346208 
z
" clip-path="url(#paac4712b0d)" style="fill: #ffffff; stroke: #000000; stroke-width: 0.4"/>
    <path d="M 167.66285 91.298008 
L 171.198383 87.762474 
L 167.66285 84.226941 
L 164.127316 87.762474 
z
" clip-path="url(#paac4712b0d)" style="fill: #ffffff; stroke: #000000; stroke-width: 0.4"/>
    <path d="M 171.938684 99.707764 
L 175.474218 96.17223 
L 171.938684 92.636696 
L 168.403151 96.17223 
z
" clip-path="url(#paac4712b0d)" style="fill: #ffffff; stroke: #000000; stroke-width: 0.4"/>
   </g>
   <g id="PathCollection_23">
    <path d="M 207.343848 90.457745 
L 210.879382 86.922211 
L 207.343848 83.386677 
L 203.808314 86.922211 
z
" clip-path="url(#paac4712b0d)" style="fill: #ffffff; stroke: #000000; stroke-width: 0.4"/>
    <path d="M 205.873067 92.195239 
L 209.408601 88.659705 
L 205.873067 85.124171 
L 202.337533 88.659705 
z
" clip-path="url(#paac4712b0d)" style="fill: #ffffff; stroke: #000000; stroke-width: 0.4"/>
    <path d="M 206.193181 102.705653 
L 209.728715 99.170119 
L 206.193181 95.634585 
L 202.657648 99.170119 
z
" clip-path="url(#paac4712b0d)" style="fill: #ffffff; stroke: #000000; stroke-width: 0.4"/>
   </g>
   <g id="PathCollection_24">
    <path d="M 230.007933 39.792708 
L 233.543467 36.257174 
L 230.007933 32.72164 
L 226.472399 36.257174 
z
" clip-path="url(#paac4712b0d)" style="fill: #ffffff; stroke: #000000; stroke-width: 0.4"/>
    <path d="M 229.110931 51.698814 
L 232.646465 48.16328 
L 229.110931 44.627746 
L 225.575397 48.16328 
z
" clip-path="url(#paac4712b0d)" style="fill: #ffffff; stroke: #000000; stroke-width: 0.4"/>
    <path d="M 234.168466 60.222503 
L 237.704 56.686969 
L 234.168466 53.151435 
L 230.632932 56.686969 
z
" clip-path="url(#paac4712b0d)" style="fill: #ffffff; stroke: #000000; stroke-width: 0.4"/>
   </g>
   <g id="text_9">
    <!-- *** -->
    <g style="fill: #262626" transform="translate(150.498656 70.452344) scale(0.12 -0.12)">
     <defs>
      <path id="ArialMT-2a" d="M 200 3741 
L 344 4184 
Q 841 4009 1066 3881 
Q 1006 4447 1003 4659 
L 1456 4659 
Q 1447 4350 1384 3884 
Q 1706 4047 2122 4184 
L 2266 3741 
Q 1869 3609 1488 3566 
Q 1678 3400 2025 2975 
L 1650 2709 
Q 1469 2956 1222 3381 
Q 991 2941 816 2709 
L 447 2975 
Q 809 3422 966 3566 
Q 563 3644 200 3741 
z
" transform="scale(0.015625)"/>
     </defs>
     <use xlink:href="#ArialMT-2a"/>
     <use xlink:href="#ArialMT-2a" transform="translate(38.916016 0)"/>
     <use xlink:href="#ArialMT-2a" transform="translate(77.832031 0)"/>
    </g>
   </g>
   <g id="text_10">
    <!-- ** -->
    <g style="fill: #262626" transform="translate(91.470332 105.650837) scale(0.12 -0.12)">
     <use xlink:href="#ArialMT-2a"/>
     <use xlink:href="#ArialMT-2a" transform="translate(38.916016 0)"/>
    </g>
   </g>
   <g id="text_11">
    <!-- **** -->
    <g style="fill: #262626" transform="translate(209.52698 18.121022) scale(0.12 -0.12)">
     <use xlink:href="#ArialMT-2a"/>
     <use xlink:href="#ArialMT-2a" transform="translate(38.916016 0)"/>
     <use xlink:href="#ArialMT-2a" transform="translate(77.832031 0)"/>
     <use xlink:href="#ArialMT-2a" transform="translate(116.748047 0)"/>
    </g>
   </g>
   <g id="legend_1">
    <g id="patch_13">
     <path d="M 265.854594 19.473594 
L 287.854594 19.473594 
L 287.854594 11.773594 
L 265.854594 11.773594 
z
" style="fill: #808080; opacity: 0.8; stroke: #ffffff; stroke-linejoin: miter"/>
    </g>
    <g id="text_12">
     <!-- 0 nM -->
     <g style="fill: #262626" transform="translate(296.654594 19.473594) scale(0.11 -0.11)">
      <defs>
       <path id="ArialMT-6e" d="M 422 0 
L 422 3319 
L 928 3319 
L 928 2847 
Q 1294 3394 1984 3394 
Q 2284 3394 2536 3286 
Q 2788 3178 2913 3003 
Q 3038 2828 3088 2588 
Q 3119 2431 3119 2041 
L 3119 0 
L 2556 0 
L 2556 2019 
Q 2556 2363 2490 2533 
Q 2425 2703 2258 2804 
Q 2091 2906 1866 2906 
Q 1506 2906 1245 2678 
Q 984 2450 984 1813 
L 984 0 
L 422 0 
z
" transform="scale(0.015625)"/>
      </defs>
      <use xlink:href="#ArialMT-30"/>
      <use xlink:href="#ArialMT-20" transform="translate(55.615234 0)"/>
      <use xlink:href="#ArialMT-6e" transform="translate(83.398438 0)"/>
      <use xlink:href="#ArialMT-4d" transform="translate(139.013672 0)"/>
     </g>
    </g>
    <g id="patch_14">
     <path d="M 265.854594 35.033437 
L 287.854594 35.033437 
L 287.854594 27.333437 
L 265.854594 27.333437 
z
" style="fill: #c180a8; opacity: 0.8; stroke: #ffffff; stroke-linejoin: miter"/>
    </g>
    <g id="text_13">
     <!-- 100 nM -->
     <g style="fill: #262626" transform="translate(296.654594 35.033437) scale(0.11 -0.11)">
      <use xlink:href="#ArialMT-31"/>
      <use xlink:href="#ArialMT-30" transform="translate(55.615234 0)"/>
      <use xlink:href="#ArialMT-30" transform="translate(111.230469 0)"/>
      <use xlink:href="#ArialMT-20" transform="translate(166.845703 0)"/>
      <use xlink:href="#ArialMT-6e" transform="translate(194.628906 0)"/>
      <use xlink:href="#ArialMT-4d" transform="translate(250.244141 0)"/>
     </g>
    </g>
   </g>
  </g>
 </g>
 <defs>
  <clipPath id="paac4712b0d">
   <rect x="63.004594" y="7.2" width="189" height="117"/>
  </clipPath>
 </defs>
</svg>
