<?xml version="1.0" encoding="utf-8" standalone="no"?>
<!DOCTYPE svg PUBLIC "-//W3C//DTD SVG 1.1//EN"
  "http://www.w3.org/Graphics/SVG/1.1/DTD/svg11.dtd">
<svg xmlns:xlink="http://www.w3.org/1999/xlink" width="282.124281pt" height="162.594406pt" viewBox="0 0 282.124281 162.594406" xmlns="http://www.w3.org/2000/svg" version="1.1">
 <metadata>
  <rdf:RDF xmlns:dc="http://purl.org/dc/elements/1.1/" xmlns:cc="http://creativecommons.org/ns#" xmlns:rdf="http://www.w3.org/1999/02/22-rdf-syntax-ns#">
   <cc:Work>
    <dc:type rdf:resource="http://purl.org/dc/dcmitype/StillImage"/>
    <dc:date>2025-07-28T17:36:06.551349</dc:date>
    <dc:format>image/svg+xml</dc:format>
    <dc:creator>
     <cc:Agent>
      <dc:title>Matplotlib v3.10.3, https://matplotlib.org/</dc:title>
     </cc:Agent>
    </dc:creator>
   </cc:Work>
  </rdf:RDF>
 </metadata>
 <defs>
  <style type="text/css">*{stroke-linejoin: round; stroke-linecap: butt}</style>
 </defs>
 <g id="figure_1">
  <g id="patch_1">
   <path d="M 0 162.594406 
L 282.124281 162.594406 
L 282.124281 0 
L 0 0 
z
" style="fill: #ffffff"/>
  </g>
  <g id="axes_1">
   <g id="patch_2">
    <path d="M 56.887563 124.2 
L 191.887563 124.2 
L 191.887563 7.2 
L 56.887563 7.2 
z
" style="fill: #ffffff"/>
   </g>
   <g id="matplotlib.axis_1">
    <g id="xtick_1">
     <g id="line2d_1">
      <defs>
       <path id="m5a3bc16b43" d="M 0 0 
L 0 6 
" style="stroke: #262626; stroke-width: 1.25"/>
      </defs>
      <g>
       <use xlink:href="#m5a3bc16b43" x="90.296653" y="124.2" style="fill: #262626; stroke: #262626; stroke-width: 1.25"/>
      </g>
     </g>
     <g id="text_1">
      <!-- NIL -->
      <g style="fill: #262626" transform="translate(81.738138 141.573594) scale(0.11 -0.11)">
       <defs>
        <path id="ArialMT-4e" d="M 488 0 
L 488 4581 
L 1109 4581 
L 3516 984 
L 3516 4581 
L 4097 4581 
L 4097 0 
L 3475 0 
L 1069 3600 
L 1069 0 
L 488 0 
z
" transform="scale(0.015625)"/>
        <path id="ArialMT-49" d="M 597 0 
L 597 4581 
L 1203 4581 
L 1203 0 
L 597 0 
z
" transform="scale(0.015625)"/>
        <path id="ArialMT-4c" d="M 469 0 
L 469 4581 
L 1075 4581 
L 1075 541 
L 3331 541 
L 3331 0 
L 469 0 
z
" transform="scale(0.015625)"/>
       </defs>
       <use xlink:href="#ArialMT-4e"/>
       <use xlink:href="#ArialMT-49" transform="translate(72.216797 0)"/>
       <use xlink:href="#ArialMT-4c" transform="translate(100 0)"/>
      </g>
      <!-- RIDD -->
      <g style="fill: #262626" transform="translate(76.852591 153.208156) scale(0.11 -0.11)">
       <defs>
        <path id="ArialMT-52" d="M 503 0 
L 503 4581 
L 2534 4581 
Q 3147 4581 3465 4457 
Q 3784 4334 3975 4021 
Q 4166 3709 4166 3331 
Q 4166 2844 3850 2509 
Q 3534 2175 2875 2084 
Q 3116 1969 3241 1856 
Q 3506 1613 3744 1247 
L 4541 0 
L 3778 0 
L 3172 953 
Q 2906 1366 2734 1584 
Q 2563 1803 2427 1890 
Q 2291 1978 2150 2013 
Q 2047 2034 1813 2034 
L 1109 2034 
L 1109 0 
L 503 0 
z
M 1109 2559 
L 2413 2559 
Q 2828 2559 3062 2645 
Q 3297 2731 3419 2920 
Q 3541 3109 3541 3331 
Q 3541 3656 3305 3865 
Q 3069 4075 2559 4075 
L 1109 4075 
L 1109 2559 
z
" transform="scale(0.015625)"/>
        <path id="ArialMT-44" d="M 494 0 
L 494 4581 
L 2072 4581 
Q 2606 4581 2888 4516 
Q 3281 4425 3559 4188 
Q 3922 3881 4101 3404 
Q 4281 2928 4281 2316 
Q 4281 1794 4159 1391 
Q 4038 988 3847 723 
Q 3656 459 3429 307 
Q 3203 156 2883 78 
Q 2563 0 2147 0 
L 494 0 
z
M 1100 541 
L 2078 541 
Q 2531 541 2789 625 
Q 3047 709 3200 863 
Q 3416 1078 3536 1442 
Q 3656 1806 3656 2325 
Q 3656 3044 3420 3430 
Q 3184 3816 2847 3947 
Q 2603 4041 2063 4041 
L 1100 4041 
L 1100 541 
z
" transform="scale(0.015625)"/>
       </defs>
       <use xlink:href="#ArialMT-52"/>
       <use xlink:href="#ArialMT-49" transform="translate(72.216797 0)"/>
       <use xlink:href="#ArialMT-44" transform="translate(100 0)"/>
       <use xlink:href="#ArialMT-44" transform="translate(172.216797 0)"/>
      </g>
     </g>
    </g>
    <g id="xtick_2">
     <g id="line2d_2">
      <g>
       <use xlink:href="#m5a3bc16b43" x="158.478472" y="124.2" style="fill: #262626; stroke: #262626; stroke-width: 1.25"/>
      </g>
     </g>
     <g id="text_2">
      <!-- NIL -->
      <g style="fill: #262626" transform="translate(149.919956 141.573594) scale(0.11 -0.11)">
       <use xlink:href="#ArialMT-4e"/>
       <use xlink:href="#ArialMT-49" transform="translate(72.216797 0)"/>
       <use xlink:href="#ArialMT-4c" transform="translate(100 0)"/>
      </g>
      <!-- RISDD -->
      <g style="fill: #262626" transform="translate(141.365737 153.208156) scale(0.11 -0.11)">
       <defs>
        <path id="ArialMT-53" d="M 288 1472 
L 859 1522 
Q 900 1178 1048 958 
Q 1197 738 1509 602 
Q 1822 466 2213 466 
Q 2559 466 2825 569 
Q 3091 672 3220 851 
Q 3350 1031 3350 1244 
Q 3350 1459 3225 1620 
Q 3100 1781 2813 1891 
Q 2628 1963 1997 2114 
Q 1366 2266 1113 2400 
Q 784 2572 623 2826 
Q 463 3081 463 3397 
Q 463 3744 659 4045 
Q 856 4347 1234 4503 
Q 1613 4659 2075 4659 
Q 2584 4659 2973 4495 
Q 3363 4331 3572 4012 
Q 3781 3694 3797 3291 
L 3216 3247 
Q 3169 3681 2898 3903 
Q 2628 4125 2100 4125 
Q 1550 4125 1298 3923 
Q 1047 3722 1047 3438 
Q 1047 3191 1225 3031 
Q 1400 2872 2139 2705 
Q 2878 2538 3153 2413 
Q 3553 2228 3743 1945 
Q 3934 1663 3934 1294 
Q 3934 928 3725 604 
Q 3516 281 3123 101 
Q 2731 -78 2241 -78 
Q 1619 -78 1198 103 
Q 778 284 539 648 
Q 300 1013 288 1472 
z
" transform="scale(0.015625)"/>
       </defs>
       <use xlink:href="#ArialMT-52"/>
       <use xlink:href="#ArialMT-49" transform="translate(72.216797 0)"/>
       <use xlink:href="#ArialMT-53" transform="translate(100 0)"/>
       <use xlink:href="#ArialMT-44" transform="translate(166.699219 0)"/>
       <use xlink:href="#ArialMT-44" transform="translate(238.916016 0)"/>
      </g>
     </g>
    </g>
   </g>
   <g id="matplotlib.axis_2">
    <g id="ytick_1">
     <g id="line2d_3">
      <defs>
       <path id="m705d2f59e7" d="M 0 0 
L -6 0 
" style="stroke: #262626; stroke-width: 1.25"/>
      </defs>
      <g>
       <use xlink:href="#m705d2f59e7" x="56.887563" y="124.2" style="fill: #262626; stroke: #262626; stroke-width: 1.25"/>
      </g>
     </g>
     <g id="text_3">
      <!-- 0 -->
      <g style="fill: #262626" transform="translate(41.270531 128.136797) scale(0.11 -0.11)">
       <defs>
        <path id="ArialMT-30" d="M 266 2259 
Q 266 3072 433 3567 
Q 600 4063 929 4331 
Q 1259 4600 1759 4600 
Q 2128 4600 2406 4451 
Q 2684 4303 2865 4023 
Q 3047 3744 3150 3342 
Q 3253 2941 3253 2259 
Q 3253 1453 3087 958 
Q 2922 463 2592 192 
Q 2263 -78 1759 -78 
Q 1097 -78 719 397 
Q 266 969 266 2259 
z
M 844 2259 
Q 844 1131 1108 757 
Q 1372 384 1759 384 
Q 2147 384 2411 759 
Q 2675 1134 2675 2259 
Q 2675 3391 2411 3762 
Q 2147 4134 1753 4134 
Q 1366 4134 1134 3806 
Q 844 3388 844 2259 
z
" transform="scale(0.015625)"/>
       </defs>
       <use xlink:href="#ArialMT-30"/>
      </g>
     </g>
    </g>
    <g id="ytick_2">
     <g id="line2d_4">
      <g>
       <use xlink:href="#m705d2f59e7" x="56.887563" y="84.853564" style="fill: #262626; stroke: #262626; stroke-width: 1.25"/>
      </g>
     </g>
     <g id="text_4">
      <!-- 20 -->
      <g style="fill: #262626" transform="translate(35.1535 88.790361) scale(0.11 -0.11)">
       <defs>
        <path id="ArialMT-32" d="M 3222 541 
L 3222 0 
L 194 0 
Q 188 203 259 391 
Q 375 700 629 1000 
Q 884 1300 1366 1694 
Q 2113 2306 2375 2664 
Q 2638 3022 2638 3341 
Q 2638 3675 2398 3904 
Q 2159 4134 1775 4134 
Q 1369 4134 1125 3890 
Q 881 3647 878 3216 
L 300 3275 
Q 359 3922 746 4261 
Q 1134 4600 1788 4600 
Q 2447 4600 2831 4234 
Q 3216 3869 3216 3328 
Q 3216 3053 3103 2787 
Q 2991 2522 2730 2228 
Q 2469 1934 1863 1422 
Q 1356 997 1212 845 
Q 1069 694 975 541 
L 3222 541 
z
" transform="scale(0.015625)"/>
       </defs>
       <use xlink:href="#ArialMT-32"/>
       <use xlink:href="#ArialMT-30" transform="translate(55.615234 0)"/>
      </g>
     </g>
    </g>
    <g id="ytick_3">
     <g id="line2d_5">
      <g>
       <use xlink:href="#m705d2f59e7" x="56.887563" y="45.507129" style="fill: #262626; stroke: #262626; stroke-width: 1.25"/>
      </g>
     </g>
     <g id="text_5">
      <!-- 40 -->
      <g style="fill: #262626" transform="translate(35.1535 49.443926) scale(0.11 -0.11)">
       <defs>
        <path id="ArialMT-34" d="M 2069 0 
L 2069 1097 
L 81 1097 
L 81 1613 
L 2172 4581 
L 2631 4581 
L 2631 1613 
L 3250 1613 
L 3250 1097 
L 2631 1097 
L 2631 0 
L 2069 0 
z
M 2069 1613 
L 2069 3678 
L 634 1613 
L 2069 1613 
z
" transform="scale(0.015625)"/>
       </defs>
       <use xlink:href="#ArialMT-34"/>
       <use xlink:href="#ArialMT-30" transform="translate(55.615234 0)"/>
      </g>
     </g>
    </g>
    <g id="text_6">
     <!-- (%) iMN -->
     <g style="fill: #262626" transform="translate(15.935625 87.361875) rotate(-90) scale(0.12 -0.12)">
      <defs>
       <path id="ArialMT-28" d="M 1497 -1347 
Q 1031 -759 709 28 
Q 388 816 388 1659 
Q 388 2403 628 3084 
Q 909 3875 1497 4659 
L 1900 4659 
Q 1522 4009 1400 3731 
Q 1209 3300 1100 2831 
Q 966 2247 966 1656 
Q 966 153 1900 -1347 
L 1497 -1347 
z
" transform="scale(0.015625)"/>
       <path id="ArialMT-25" d="M 372 3481 
Q 372 3972 619 4315 
Q 866 4659 1334 4659 
Q 1766 4659 2048 4351 
Q 2331 4044 2331 3447 
Q 2331 2866 2045 2552 
Q 1759 2238 1341 2238 
Q 925 2238 648 2547 
Q 372 2856 372 3481 
z
M 1350 4272 
Q 1141 4272 1002 4090 
Q 863 3909 863 3425 
Q 863 2984 1003 2804 
Q 1144 2625 1350 2625 
Q 1563 2625 1702 2806 
Q 1841 2988 1841 3469 
Q 1841 3913 1700 4092 
Q 1559 4272 1350 4272 
z
M 1353 -169 
L 3859 4659 
L 4316 4659 
L 1819 -169 
L 1353 -169 
z
M 3334 1075 
Q 3334 1569 3581 1911 
Q 3828 2253 4300 2253 
Q 4731 2253 5014 1945 
Q 5297 1638 5297 1041 
Q 5297 459 5011 145 
Q 4725 -169 4303 -169 
Q 3888 -169 3611 142 
Q 3334 453 3334 1075 
z
M 4316 1866 
Q 4103 1866 3964 1684 
Q 3825 1503 3825 1019 
Q 3825 581 3965 400 
Q 4106 219 4313 219 
Q 4528 219 4667 400 
Q 4806 581 4806 1063 
Q 4806 1506 4665 1686 
Q 4525 1866 4316 1866 
z
" transform="scale(0.015625)"/>
       <path id="ArialMT-29" d="M 791 -1347 
L 388 -1347 
Q 1322 153 1322 1656 
Q 1322 2244 1188 2822 
Q 1081 3291 891 3722 
Q 769 4003 388 4659 
L 791 4659 
Q 1378 3875 1659 3084 
Q 1900 2403 1900 1659 
Q 1900 816 1576 28 
Q 1253 -759 791 -1347 
z
" transform="scale(0.015625)"/>
       <path id="ArialMT-20" transform="scale(0.015625)"/>
       <path id="ArialMT-69" d="M 425 3934 
L 425 4581 
L 988 4581 
L 988 3934 
L 425 3934 
z
M 425 0 
L 425 3319 
L 988 3319 
L 988 0 
L 425 0 
z
" transform="scale(0.015625)"/>
       <path id="ArialMT-4d" d="M 475 0 
L 475 4581 
L 1388 4581 
L 2472 1338 
Q 2622 884 2691 659 
Q 2769 909 2934 1394 
L 4031 4581 
L 4847 4581 
L 4847 0 
L 4263 0 
L 4263 3834 
L 2931 0 
L 2384 0 
L 1059 3900 
L 1059 0 
L 475 0 
z
" transform="scale(0.015625)"/>
      </defs>
      <use xlink:href="#ArialMT-28"/>
      <use xlink:href="#ArialMT-25" transform="translate(33.300781 0)"/>
      <use xlink:href="#ArialMT-29" transform="translate(122.216797 0)"/>
      <use xlink:href="#ArialMT-20" transform="translate(155.517578 0)"/>
      <use xlink:href="#ArialMT-69" transform="translate(183.300781 0)"/>
      <use xlink:href="#ArialMT-4d" transform="translate(205.517578 0)"/>
      <use xlink:href="#ArialMT-4e" transform="translate(288.818359 0)"/>
     </g>
     <!-- of all cells -->
     <g style="fill: #262626" transform="translate(28.7685 92.042812) rotate(-90) scale(0.12 -0.12)">
      <defs>
       <path id="ArialMT-6f" d="M 213 1659 
Q 213 2581 725 3025 
Q 1153 3394 1769 3394 
Q 2453 3394 2887 2945 
Q 3322 2497 3322 1706 
Q 3322 1066 3130 698 
Q 2938 331 2570 128 
Q 2203 -75 1769 -75 
Q 1072 -75 642 372 
Q 213 819 213 1659 
z
M 791 1659 
Q 791 1022 1069 705 
Q 1347 388 1769 388 
Q 2188 388 2466 706 
Q 2744 1025 2744 1678 
Q 2744 2294 2464 2611 
Q 2184 2928 1769 2928 
Q 1347 2928 1069 2612 
Q 791 2297 791 1659 
z
" transform="scale(0.015625)"/>
       <path id="ArialMT-66" d="M 556 0 
L 556 2881 
L 59 2881 
L 59 3319 
L 556 3319 
L 556 3672 
Q 556 4006 616 4169 
Q 697 4388 901 4523 
Q 1106 4659 1475 4659 
Q 1713 4659 2000 4603 
L 1916 4113 
Q 1741 4144 1584 4144 
Q 1328 4144 1222 4034 
Q 1116 3925 1116 3625 
L 1116 3319 
L 1763 3319 
L 1763 2881 
L 1116 2881 
L 1116 0 
L 556 0 
z
" transform="scale(0.015625)"/>
       <path id="ArialMT-61" d="M 2588 409 
Q 2275 144 1986 34 
Q 1697 -75 1366 -75 
Q 819 -75 525 192 
Q 231 459 231 875 
Q 231 1119 342 1320 
Q 453 1522 633 1644 
Q 813 1766 1038 1828 
Q 1203 1872 1538 1913 
Q 2219 1994 2541 2106 
Q 2544 2222 2544 2253 
Q 2544 2597 2384 2738 
Q 2169 2928 1744 2928 
Q 1347 2928 1158 2789 
Q 969 2650 878 2297 
L 328 2372 
Q 403 2725 575 2942 
Q 747 3159 1072 3276 
Q 1397 3394 1825 3394 
Q 2250 3394 2515 3294 
Q 2781 3194 2906 3042 
Q 3031 2891 3081 2659 
Q 3109 2516 3109 2141 
L 3109 1391 
Q 3109 606 3145 398 
Q 3181 191 3288 0 
L 2700 0 
Q 2613 175 2588 409 
z
M 2541 1666 
Q 2234 1541 1622 1453 
Q 1275 1403 1131 1340 
Q 988 1278 909 1158 
Q 831 1038 831 891 
Q 831 666 1001 516 
Q 1172 366 1500 366 
Q 1825 366 2078 508 
Q 2331 650 2450 897 
Q 2541 1088 2541 1459 
L 2541 1666 
z
" transform="scale(0.015625)"/>
       <path id="ArialMT-6c" d="M 409 0 
L 409 4581 
L 972 4581 
L 972 0 
L 409 0 
z
" transform="scale(0.015625)"/>
       <path id="ArialMT-63" d="M 2588 1216 
L 3141 1144 
Q 3050 572 2676 248 
Q 2303 -75 1759 -75 
Q 1078 -75 664 370 
Q 250 816 250 1647 
Q 250 2184 428 2587 
Q 606 2991 970 3192 
Q 1334 3394 1763 3394 
Q 2303 3394 2647 3120 
Q 2991 2847 3088 2344 
L 2541 2259 
Q 2463 2594 2264 2762 
Q 2066 2931 1784 2931 
Q 1359 2931 1093 2626 
Q 828 2322 828 1663 
Q 828 994 1084 691 
Q 1341 388 1753 388 
Q 2084 388 2306 591 
Q 2528 794 2588 1216 
z
" transform="scale(0.015625)"/>
       <path id="ArialMT-65" d="M 2694 1069 
L 3275 997 
Q 3138 488 2766 206 
Q 2394 -75 1816 -75 
Q 1088 -75 661 373 
Q 234 822 234 1631 
Q 234 2469 665 2931 
Q 1097 3394 1784 3394 
Q 2450 3394 2872 2941 
Q 3294 2488 3294 1666 
Q 3294 1616 3291 1516 
L 816 1516 
Q 847 969 1125 678 
Q 1403 388 1819 388 
Q 2128 388 2347 550 
Q 2566 713 2694 1069 
z
M 847 1978 
L 2700 1978 
Q 2663 2397 2488 2606 
Q 2219 2931 1791 2931 
Q 1403 2931 1139 2672 
Q 875 2413 847 1978 
z
" transform="scale(0.015625)"/>
       <path id="ArialMT-73" d="M 197 991 
L 753 1078 
Q 800 744 1014 566 
Q 1228 388 1613 388 
Q 2000 388 2187 545 
Q 2375 703 2375 916 
Q 2375 1106 2209 1216 
Q 2094 1291 1634 1406 
Q 1016 1563 777 1677 
Q 538 1791 414 1992 
Q 291 2194 291 2438 
Q 291 2659 392 2848 
Q 494 3038 669 3163 
Q 800 3259 1026 3326 
Q 1253 3394 1513 3394 
Q 1903 3394 2198 3281 
Q 2494 3169 2634 2976 
Q 2775 2784 2828 2463 
L 2278 2388 
Q 2241 2644 2061 2787 
Q 1881 2931 1553 2931 
Q 1166 2931 1000 2803 
Q 834 2675 834 2503 
Q 834 2394 903 2306 
Q 972 2216 1119 2156 
Q 1203 2125 1616 2013 
Q 2213 1853 2448 1751 
Q 2684 1650 2818 1456 
Q 2953 1263 2953 975 
Q 2953 694 2789 445 
Q 2625 197 2315 61 
Q 2006 -75 1616 -75 
Q 969 -75 630 194 
Q 291 463 197 991 
z
" transform="scale(0.015625)"/>
      </defs>
      <use xlink:href="#ArialMT-6f"/>
      <use xlink:href="#ArialMT-66" transform="translate(55.615234 0)"/>
      <use xlink:href="#ArialMT-20" transform="translate(83.398438 0)"/>
      <use xlink:href="#ArialMT-61" transform="translate(111.181641 0)"/>
      <use xlink:href="#ArialMT-6c" transform="translate(166.796875 0)"/>
      <use xlink:href="#ArialMT-6c" transform="translate(189.013672 0)"/>
      <use xlink:href="#ArialMT-20" transform="translate(211.230469 0)"/>
      <use xlink:href="#ArialMT-63" transform="translate(239.013672 0)"/>
      <use xlink:href="#ArialMT-65" transform="translate(289.013672 0)"/>
      <use xlink:href="#ArialMT-6c" transform="translate(344.628906 0)"/>
      <use xlink:href="#ArialMT-6c" transform="translate(366.845703 0)"/>
      <use xlink:href="#ArialMT-73" transform="translate(389.0625 0)"/>
     </g>
    </g>
   </g>
   <g id="patch_3">
    <path d="M 63.023926 124.2 
L 90.296653 124.2 
L 90.296653 47.815161 
L 63.023926 47.815161 
z
" clip-path="url(#ped6e335f70)" style="fill: #808080; opacity: 0.8; stroke: #ffffff; stroke-linejoin: miter"/>
   </g>
   <g id="patch_4">
    <path d="M 131.205744 124.2 
L 158.478472 124.2 
L 158.478472 69.745986 
L 131.205744 69.745986 
z
" clip-path="url(#ped6e335f70)" style="fill: #808080; opacity: 0.8; stroke: #ffffff; stroke-linejoin: miter"/>
   </g>
   <g id="patch_5">
    <path d="M 90.296653 124.2 
L 117.569381 124.2 
L 117.569381 72.289549 
L 90.296653 72.289549 
z
" clip-path="url(#ped6e335f70)" style="fill: #c180a8; opacity: 0.8; stroke: #ffffff; stroke-linejoin: miter"/>
   </g>
   <g id="patch_6">
    <path d="M 158.478472 124.2 
L 185.751199 124.2 
L 185.751199 80.631506 
L 158.478472 80.631506 
z
" clip-path="url(#ped6e335f70)" style="fill: #c180a8; opacity: 0.8; stroke: #ffffff; stroke-linejoin: miter"/>
   </g>
   <g id="line2d_6">
    <path d="M 76.66029 53.399256 
L 76.66029 41.396969 
" clip-path="url(#ped6e335f70)" style="fill: none; stroke: #424242; stroke-width: 2.7; stroke-linecap: round"/>
   </g>
   <g id="line2d_7">
    <path d="M 144.842108 77.882537 
L 144.842108 60.662425 
" clip-path="url(#ped6e335f70)" style="fill: none; stroke: #424242; stroke-width: 2.7; stroke-linecap: round"/>
   </g>
   <g id="line2d_8">
    <path d="M 103.933017 82.930475 
L 103.933017 59.597848 
" clip-path="url(#ped6e335f70)" style="fill: none; stroke: #424242; stroke-width: 2.7; stroke-linecap: round"/>
   </g>
   <g id="line2d_9">
    <path d="M 172.114835 90.549106 
L 172.114835 70.200894 
" clip-path="url(#ped6e335f70)" style="fill: none; stroke: #424242; stroke-width: 2.7; stroke-linecap: round"/>
   </g>
   <g id="line2d_10">
    <path d="M 144.842108 36.015935 
L 144.842108 34.026476 
L 172.114835 34.026476 
L 172.114835 36.015935 
" clip-path="url(#ped6e335f70)" style="fill: none; stroke: #333333; stroke-width: 1.5; stroke-linecap: round"/>
   </g>
   <g id="line2d_11">
    <path d="M 76.66029 23.495481 
L 76.66029 21.506022 
L 103.933017 21.506022 
L 103.933017 23.495481 
" clip-path="url(#ped6e335f70)" style="fill: none; stroke: #333333; stroke-width: 1.5; stroke-linecap: round"/>
   </g>
   <g id="patch_7">
    <path d="M 56.887563 124.2 
L 56.887563 7.2 
" style="fill: none; stroke: #262626; stroke-width: 1.25; stroke-linejoin: miter; stroke-linecap: square"/>
   </g>
   <g id="patch_8">
    <path d="M 191.887563 124.2 
L 191.887563 7.2 
" style="fill: none; stroke: #262626; stroke-width: 1.25; stroke-linejoin: miter; stroke-linecap: square"/>
   </g>
   <g id="patch_9">
    <path d="M 56.887562 124.2 
L 191.887563 124.2 
" style="fill: none; stroke: #262626; stroke-width: 1.25; stroke-linejoin: miter; stroke-linecap: square"/>
   </g>
   <g id="patch_10">
    <path d="M 56.887562 7.2 
L 191.887563 7.2 
" style="fill: none; stroke: #262626; stroke-width: 1.25; stroke-linejoin: miter; stroke-linecap: square"/>
   </g>
   <g id="PathCollection_1">
    <defs>
     <path id="C0_0_a376c3570a" d="M 0 2.5 
C 0.663008 2.5 1.29895 2.236584 1.767767 1.767767 
C 2.236584 1.29895 2.5 0.663008 2.5 -0 
C 2.5 -0.663008 2.236584 -1.29895 1.767767 -1.767767 
C 1.29895 -2.236584 0.663008 -2.5 0 -2.5 
C -0.663008 -2.5 -1.29895 -2.236584 -1.767767 -1.767767 
C -2.236584 -1.29895 -2.5 -0.663008 -2.5 0 
C -2.5 0.663008 -2.236584 1.29895 -1.767767 1.767767 
C -1.29895 2.236584 -0.663008 2.5 0 2.5 
z
"/>
    </defs>
    <g clip-path="url(#ped6e335f70)">
     <use xlink:href="#C0_0_a376c3570a" x="76.197982" y="59.657743" style="fill: #ffffff; stroke: #000000; stroke-width: 0.4"/>
    </g>
    <g clip-path="url(#ped6e335f70)">
     <use xlink:href="#C0_0_a376c3570a" x="76.791489" y="50.36101" style="fill: #ffffff; stroke: #000000; stroke-width: 0.4"/>
    </g>
    <g clip-path="url(#ped6e335f70)">
     <use xlink:href="#C0_0_a376c3570a" x="74.552768" y="45.827538" style="fill: #ffffff; stroke: #000000; stroke-width: 0.4"/>
    </g>
   </g>
   <g id="PathCollection_2">
    <defs>
     <path id="C1_0_ffe1283fd2" d="M 0 2.5 
C 0.663008 2.5 1.29895 2.236584 1.767767 1.767767 
C 2.236584 1.29895 2.5 0.663008 2.5 -0 
C 2.5 -0.663008 2.236584 -1.29895 1.767767 -1.767767 
C 1.29895 -2.236584 0.663008 -2.5 0 -2.5 
C -0.663008 -2.5 -1.29895 -2.236584 -1.767767 -1.767767 
C -2.236584 -1.29895 -2.5 -0.663008 -2.5 0 
C -2.5 0.663008 -2.236584 1.29895 -1.767767 1.767767 
C -1.29895 2.236584 -0.663008 2.5 0 2.5 
z
"/>
    </defs>
    <g clip-path="url(#ped6e335f70)">
     <use xlink:href="#C1_0_ffe1283fd2" x="104.323689" y="94.442725" style="fill: #ffffff; stroke: #000000; stroke-width: 0.4"/>
    </g>
    <g clip-path="url(#ped6e335f70)">
     <use xlink:href="#C1_0_ffe1283fd2" x="103.997005" y="86.655818" style="fill: #ffffff; stroke: #000000; stroke-width: 0.4"/>
    </g>
    <g clip-path="url(#ped6e335f70)">
     <use xlink:href="#C1_0_ffe1283fd2" x="101.740401" y="89.729983" style="fill: #ffffff; stroke: #000000; stroke-width: 0.4"/>
    </g>
   </g>
   <g id="PathCollection_3">
    <defs>
     <path id="C2_0_25a0cb0849" d="M 0 2.5 
C 0.663008 2.5 1.29895 2.236584 1.767767 1.767767 
C 2.236584 1.29895 2.5 0.663008 2.5 -0 
C 2.5 -0.663008 2.236584 -1.29895 1.767767 -1.767767 
C 1.29895 -2.236584 0.663008 -2.5 0 -2.5 
C -0.663008 -2.5 -1.29895 -2.236584 -1.767767 -1.767767 
C -2.236584 -1.29895 -2.5 -0.663008 -2.5 0 
C -2.5 0.663008 -2.236584 1.29895 -1.767767 1.767767 
C -1.29895 2.236584 -0.663008 2.5 0 2.5 
z
"/>
    </defs>
    <g clip-path="url(#ped6e335f70)">
     <use xlink:href="#C2_0_25a0cb0849" x="147.318262" y="57.601153" style="fill: #ffffff; stroke: #000000; stroke-width: 0.4"/>
    </g>
    <g clip-path="url(#ped6e335f70)">
     <use xlink:href="#C2_0_25a0cb0849" x="146.27238" y="41.984312" style="fill: #ffffff; stroke: #000000; stroke-width: 0.4"/>
    </g>
    <g clip-path="url(#ped6e335f70)">
     <use xlink:href="#C2_0_25a0cb0849" x="146.091725" y="47.450835" style="fill: #ffffff; stroke: #000000; stroke-width: 0.4"/>
    </g>
   </g>
   <g id="PathCollection_4">
    <defs>
     <path id="C3_0_b5538e7e3c" d="M 0 2.5 
C 0.663008 2.5 1.29895 2.236584 1.767767 1.767767 
C 2.236584 1.29895 2.5 0.663008 2.5 -0 
C 2.5 -0.663008 2.236584 -1.29895 1.767767 -1.767767 
C 1.29895 -2.236584 0.663008 -2.5 0 -2.5 
C -0.663008 -2.5 -1.29895 -2.236584 -1.767767 -1.767767 
C -2.236584 -1.29895 -2.5 -0.663008 -2.5 0 
C -2.5 0.663008 -2.236584 1.29895 -1.767767 1.767767 
C -1.29895 2.236584 -0.663008 2.5 0 2.5 
z
"/>
    </defs>
    <g clip-path="url(#ped6e335f70)">
     <use xlink:href="#C3_0_b5538e7e3c" x="173.58255" y="79.50043" style="fill: #ffffff; stroke: #000000; stroke-width: 0.4"/>
    </g>
    <g clip-path="url(#ped6e335f70)">
     <use xlink:href="#C3_0_b5538e7e3c" x="169.981853" y="72.047617" style="fill: #ffffff; stroke: #000000; stroke-width: 0.4"/>
    </g>
    <g clip-path="url(#ped6e335f70)">
     <use xlink:href="#C3_0_b5538e7e3c" x="170.570067" y="65.358385" style="fill: #ffffff; stroke: #000000; stroke-width: 0.4"/>
    </g>
   </g>
   <g id="PathCollection_5">
    <path d="M 77.962927 56.891349 
L 75.462927 61.891349 
L 80.462927 61.891349 
z
" clip-path="url(#ped6e335f70)" style="fill: #ffffff; stroke: #000000; stroke-width: 0.4"/>
    <path d="M 78.998241 40.815136 
L 76.498241 45.815136 
L 81.498241 45.815136 
z
" clip-path="url(#ped6e335f70)" style="fill: #ffffff; stroke: #000000; stroke-width: 0.4"/>
    <path d="M 76.339925 26.963858 
L 73.839925 31.963858 
L 78.839925 31.963858 
z
" clip-path="url(#ped6e335f70)" style="fill: #ffffff; stroke: #000000; stroke-width: 0.4"/>
   </g>
   <g id="PathCollection_6">
    <path d="M 101.837141 75.330919 
L 99.337141 80.330919 
L 104.337141 80.330919 
z
" clip-path="url(#ped6e335f70)" style="fill: #ffffff; stroke: #000000; stroke-width: 0.4"/>
    <path d="M 105.412273 75.434991 
L 102.912273 80.434991 
L 107.912273 80.434991 
z
" clip-path="url(#ped6e335f70)" style="fill: #ffffff; stroke: #000000; stroke-width: 0.4"/>
    <path d="M 102.508761 80.976932 
L 100.008761 85.976932 
L 105.008761 85.976932 
z
" clip-path="url(#ped6e335f70)" style="fill: #ffffff; stroke: #000000; stroke-width: 0.4"/>
   </g>
   <g id="PathCollection_7">
    <path d="M 146.430441 77.648217 
L 143.930441 82.648217 
L 148.930441 82.648217 
z
" clip-path="url(#ped6e335f70)" style="fill: #ffffff; stroke: #000000; stroke-width: 0.4"/>
    <path d="M 147.638896 91.756081 
L 145.138896 96.756081 
L 150.138896 96.756081 
z
" clip-path="url(#ped6e335f70)" style="fill: #ffffff; stroke: #000000; stroke-width: 0.4"/>
    <path d="M 146.399912 70.531903 
L 143.899912 75.531903 
L 148.899912 75.531903 
z
" clip-path="url(#ped6e335f70)" style="fill: #ffffff; stroke: #000000; stroke-width: 0.4"/>
   </g>
   <g id="PathCollection_8">
    <path d="M 171.6946 60.356865 
L 169.1946 65.356865 
L 174.1946 65.356865 
z
" clip-path="url(#ped6e335f70)" style="fill: #ffffff; stroke: #000000; stroke-width: 0.4"/>
    <path d="M 170.309356 88.828523 
L 167.809356 93.828523 
L 172.809356 93.828523 
z
" clip-path="url(#ped6e335f70)" style="fill: #ffffff; stroke: #000000; stroke-width: 0.4"/>
    <path d="M 168.989083 75.875398 
L 166.489083 80.875398 
L 171.489083 80.875398 
z
" clip-path="url(#ped6e335f70)" style="fill: #ffffff; stroke: #000000; stroke-width: 0.4"/>
   </g>
   <g id="PathCollection_9">
    <path d="M 76.370208 62.884487 
L 81.370208 62.884487 
L 81.370208 57.884487 
L 76.370208 57.884487 
z
" clip-path="url(#ped6e335f70)" style="fill: #ffffff; stroke: #000000; stroke-width: 0.4"/>
    <path d="M 74.546706 57.94935 
L 79.546706 57.94935 
L 79.546706 52.94935 
L 74.546706 52.94935 
z
" clip-path="url(#ped6e335f70)" style="fill: #ffffff; stroke: #000000; stroke-width: 0.4"/>
    <path d="M 77.349924 58.259947 
L 82.349924 58.259947 
L 82.349924 53.259947 
L 77.349924 53.259947 
z
" clip-path="url(#ped6e335f70)" style="fill: #ffffff; stroke: #000000; stroke-width: 0.4"/>
   </g>
   <g id="PathCollection_10">
    <path d="M 100.20969 89.691852 
L 105.20969 89.691852 
L 105.20969 84.691852 
L 100.20969 84.691852 
z
" clip-path="url(#ped6e335f70)" style="fill: #ffffff; stroke: #000000; stroke-width: 0.4"/>
    <path d="M 99.432344 83.048538 
L 104.432344 83.048538 
L 104.432344 78.048538 
L 99.432344 78.048538 
z
" clip-path="url(#ped6e335f70)" style="fill: #ffffff; stroke: #000000; stroke-width: 0.4"/>
    <path d="M 104.178988 83.038722 
L 109.178988 83.038722 
L 109.178988 78.038722 
L 104.178988 78.038722 
z
" clip-path="url(#ped6e335f70)" style="fill: #ffffff; stroke: #000000; stroke-width: 0.4"/>
   </g>
   <g id="PathCollection_11">
    <path d="M 143.214372 68.200882 
L 148.214372 68.200882 
L 148.214372 63.200882 
L 143.214372 63.200882 
z
" clip-path="url(#ped6e335f70)" style="fill: #ffffff; stroke: #000000; stroke-width: 0.4"/>
    <path d="M 140.28851 66.84693 
L 145.28851 66.84693 
L 145.28851 61.84693 
L 140.28851 61.84693 
z
" clip-path="url(#ped6e335f70)" style="fill: #ffffff; stroke: #000000; stroke-width: 0.4"/>
    <path d="M 141.119579 88.743777 
L 146.119579 88.743777 
L 146.119579 83.743777 
L 141.119579 83.743777 
z
" clip-path="url(#ped6e335f70)" style="fill: #ffffff; stroke: #000000; stroke-width: 0.4"/>
   </g>
   <g id="PathCollection_12">
    <path d="M 169.417454 69.106068 
L 174.417454 69.106068 
L 174.417454 64.106068 
L 169.417454 64.106068 
z
" clip-path="url(#ped6e335f70)" style="fill: #ffffff; stroke: #000000; stroke-width: 0.4"/>
    <path d="M 169.715077 90.335293 
L 174.715077 90.335293 
L 174.715077 85.335293 
L 169.715077 85.335293 
z
" clip-path="url(#ped6e335f70)" style="fill: #ffffff; stroke: #000000; stroke-width: 0.4"/>
    <path d="M 168.317075 50.08795 
L 173.317075 50.08795 
L 173.317075 45.08795 
L 168.317075 45.08795 
z
" clip-path="url(#ped6e335f70)" style="fill: #ffffff; stroke: #000000; stroke-width: 0.4"/>
   </g>
   <g id="PathCollection_13">
    <path d="M 75.840609 47.255449 
L 79.376143 43.719915 
L 75.840609 40.184381 
L 72.305075 43.719915 
z
" clip-path="url(#ped6e335f70)" style="fill: #ffffff; stroke: #000000; stroke-width: 0.4"/>
    <path d="M 76.679071 35.848909 
L 80.214605 32.313375 
L 76.679071 28.777841 
L 73.143537 32.313375 
z
" clip-path="url(#ped6e335f70)" style="fill: #ffffff; stroke: #000000; stroke-width: 0.4"/>
    <path d="M 74.420833 41.673759 
L 77.956367 38.138225 
L 74.420833 34.602691 
L 70.885299 38.138225 
z
" clip-path="url(#ped6e335f70)" style="fill: #ffffff; stroke: #000000; stroke-width: 0.4"/>
   </g>
   <g id="PathCollection_14">
    <path d="M 102.687145 45.35194 
L 106.222679 41.816406 
L 102.687145 38.280872 
L 99.151611 41.816406 
z
" clip-path="url(#ped6e335f70)" style="fill: #ffffff; stroke: #000000; stroke-width: 0.4"/>
    <path d="M 102.305856 36.717102 
L 105.84139 33.181568 
L 102.305856 29.646034 
L 98.770322 33.181568 
z
" clip-path="url(#ped6e335f70)" style="fill: #ffffff; stroke: #000000; stroke-width: 0.4"/>
    <path d="M 101.348072 37.661666 
L 104.883606 34.126132 
L 101.348072 30.590598 
L 97.812538 34.126132 
z
" clip-path="url(#ped6e335f70)" style="fill: #ffffff; stroke: #000000; stroke-width: 0.4"/>
   </g>
   <g id="PathCollection_15">
    <path d="M 147.543831 82.018914 
L 151.079365 78.48338 
L 147.543831 74.947847 
L 144.008297 78.48338 
z
" clip-path="url(#ped6e335f70)" style="fill: #ffffff; stroke: #000000; stroke-width: 0.4"/>
    <path d="M 148.249204 87.787292 
L 151.784738 84.251758 
L 148.249204 80.716224 
L 144.71367 84.251758 
z
" clip-path="url(#ped6e335f70)" style="fill: #ffffff; stroke: #000000; stroke-width: 0.4"/>
    <path d="M 146.695942 66.988133 
L 150.231476 63.452599 
L 146.695942 59.917065 
L 143.160408 63.452599 
z
" clip-path="url(#ped6e335f70)" style="fill: #ffffff; stroke: #000000; stroke-width: 0.4"/>
   </g>
   <g id="PathCollection_16">
    <path d="M 173.9334 103.532127 
L 177.468934 99.996593 
L 173.9334 96.461059 
L 170.397866 99.996593 
z
" clip-path="url(#ped6e335f70)" style="fill: #ffffff; stroke: #000000; stroke-width: 0.4"/>
    <path d="M 173.650504 105.192641 
L 177.186038 101.657107 
L 173.650504 98.121573 
L 170.11497 101.657107 
z
" clip-path="url(#ped6e335f70)" style="fill: #ffffff; stroke: #000000; stroke-width: 0.4"/>
    <path d="M 174.932673 117.96338 
L 178.468206 114.427846 
L 174.932673 110.892312 
L 171.397139 114.427846 
z
" clip-path="url(#ped6e335f70)" style="fill: #ffffff; stroke: #000000; stroke-width: 0.4"/>
   </g>
   <g id="text_7">
    <!-- ns -->
    <g style="fill: #262626" transform="translate(152.141909 30.641476) scale(0.12 -0.12)">
     <defs>
      <path id="ArialMT-6e" d="M 422 0 
L 422 3319 
L 928 3319 
L 928 2847 
Q 1294 3394 1984 3394 
Q 2284 3394 2536 3286 
Q 2788 3178 2913 3003 
Q 3038 2828 3088 2588 
Q 3119 2431 3119 2041 
L 3119 0 
L 2556 0 
L 2556 2019 
Q 2556 2363 2490 2533 
Q 2425 2703 2258 2804 
Q 2091 2906 1866 2906 
Q 1506 2906 1245 2678 
Q 984 2450 984 1813 
L 984 0 
L 422 0 
z
" transform="scale(0.015625)"/>
     </defs>
     <use xlink:href="#ArialMT-6e"/>
     <use xlink:href="#ArialMT-73" transform="translate(55.615234 0)"/>
    </g>
   </g>
   <g id="text_8">
    <!-- ** -->
    <g style="fill: #262626" transform="translate(85.626028 18.121022) scale(0.12 -0.12)">
     <defs>
      <path id="ArialMT-2a" d="M 200 3741 
L 344 4184 
Q 841 4009 1066 3881 
Q 1006 4447 1003 4659 
L 1456 4659 
Q 1447 4350 1384 3884 
Q 1706 4047 2122 4184 
L 2266 3741 
Q 1869 3609 1488 3566 
Q 1678 3400 2025 2975 
L 1650 2709 
Q 1469 2956 1222 3381 
Q 991 2941 816 2709 
L 447 2975 
Q 809 3422 966 3566 
Q 563 3644 200 3741 
z
" transform="scale(0.015625)"/>
     </defs>
     <use xlink:href="#ArialMT-2a"/>
     <use xlink:href="#ArialMT-2a" transform="translate(38.916016 0)"/>
    </g>
   </g>
   <g id="legend_1">
    <g id="patch_11">
     <path d="M 203.037563 19.473594 
L 225.037563 19.473594 
L 225.037563 11.773594 
L 203.037563 11.773594 
z
" style="fill: #808080; opacity: 0.8; stroke: #ffffff; stroke-linejoin: miter"/>
    </g>
    <g id="text_9">
     <!-- 0 nM -->
     <g style="fill: #262626" transform="translate(233.837563 19.473594) scale(0.11 -0.11)">
      <use xlink:href="#ArialMT-30"/>
      <use xlink:href="#ArialMT-20" transform="translate(55.615234 0)"/>
      <use xlink:href="#ArialMT-6e" transform="translate(83.398438 0)"/>
      <use xlink:href="#ArialMT-4d" transform="translate(139.013672 0)"/>
     </g>
    </g>
    <g id="patch_12">
     <path d="M 203.037563 35.033437 
L 225.037563 35.033437 
L 225.037563 27.333437 
L 203.037563 27.333437 
z
" style="fill: #c180a8; opacity: 0.8; stroke: #ffffff; stroke-linejoin: miter"/>
    </g>
    <g id="text_10">
     <!-- 100 nM -->
     <g style="fill: #262626" transform="translate(233.837563 35.033437) scale(0.11 -0.11)">
      <defs>
       <path id="ArialMT-31" d="M 2384 0 
L 1822 0 
L 1822 3584 
Q 1619 3391 1289 3197 
Q 959 3003 697 2906 
L 697 3450 
Q 1169 3672 1522 3987 
Q 1875 4303 2022 4600 
L 2384 4600 
L 2384 0 
z
" transform="scale(0.015625)"/>
      </defs>
      <use xlink:href="#ArialMT-31"/>
      <use xlink:href="#ArialMT-30" transform="translate(55.615234 0)"/>
      <use xlink:href="#ArialMT-30" transform="translate(111.230469 0)"/>
      <use xlink:href="#ArialMT-20" transform="translate(166.845703 0)"/>
      <use xlink:href="#ArialMT-6e" transform="translate(194.628906 0)"/>
      <use xlink:href="#ArialMT-4d" transform="translate(250.244141 0)"/>
     </g>
    </g>
   </g>
  </g>
 </g>
 <defs>
  <clipPath id="ped6e335f70">
   <rect x="56.887563" y="7.2" width="135" height="117"/>
  </clipPath>
 </defs>
</svg>
