<?xml version="1.0" encoding="utf-8" standalone="no"?>
<!DOCTYPE svg PUBLIC "-//W3C//DTD SVG 1.1//EN"
  "http://www.w3.org/Graphics/SVG/1.1/DTD/svg11.dtd">
<svg xmlns:xlink="http://www.w3.org/1999/xlink" width="331.632031pt" height="162.594406pt" viewBox="0 0 331.632031 162.594406" xmlns="http://www.w3.org/2000/svg" version="1.1">
 <metadata>
  <rdf:RDF xmlns:dc="http://purl.org/dc/elements/1.1/" xmlns:cc="http://creativecommons.org/ns#" xmlns:rdf="http://www.w3.org/1999/02/22-rdf-syntax-ns#">
   <cc:Work>
    <dc:type rdf:resource="http://purl.org/dc/dcmitype/StillImage"/>
    <dc:date>2025-07-28T17:36:05.534909</dc:date>
    <dc:format>image/svg+xml</dc:format>
    <dc:creator>
     <cc:Agent>
      <dc:title>Matplotlib v3.10.3, https://matplotlib.org/</dc:title>
     </cc:Agent>
    </dc:creator>
   </cc:Work>
  </rdf:RDF>
 </metadata>
 <defs>
  <style type="text/css">*{stroke-linejoin: round; stroke-linecap: butt}</style>
 </defs>
 <g id="figure_1">
  <g id="patch_1">
   <path d="M 0 162.594406 
L 331.632031 162.594406 
L 331.632031 0 
L 0 0 
z
" style="fill: #ffffff"/>
  </g>
  <g id="axes_1">
   <g id="patch_2">
    <path d="M 49.695313 124.2 
L 238.695312 124.2 
L 238.695312 7.2 
L 49.695313 7.2 
z
" style="fill: #ffffff"/>
   </g>
   <g id="matplotlib.axis_1">
    <g id="xtick_1">
     <g id="line2d_1">
      <defs>
       <path id="maf9fdb2967" d="M 0 0 
L 0 6 
" style="stroke: #262626; stroke-width: 1.25"/>
      </defs>
      <g>
       <use xlink:href="#maf9fdb2967" x="82.831676" y="124.2" style="fill: #262626; stroke: #262626; stroke-width: 1.25"/>
      </g>
     </g>
     <g id="text_1">
      <!-- NIL -->
      <g style="fill: #262626" transform="translate(74.273161 141.573594) scale(0.11 -0.11)">
       <defs>
        <path id="ArialMT-4e" d="M 488 0 
L 488 4581 
L 1109 4581 
L 3516 984 
L 3516 4581 
L 4097 4581 
L 4097 0 
L 3475 0 
L 1069 3600 
L 1069 0 
L 488 0 
z
" transform="scale(0.015625)"/>
        <path id="ArialMT-49" d="M 597 0 
L 597 4581 
L 1203 4581 
L 1203 0 
L 597 0 
z
" transform="scale(0.015625)"/>
        <path id="ArialMT-4c" d="M 469 0 
L 469 4581 
L 1075 4581 
L 1075 541 
L 3331 541 
L 3331 0 
L 469 0 
z
" transform="scale(0.015625)"/>
       </defs>
       <use xlink:href="#ArialMT-4e"/>
       <use xlink:href="#ArialMT-49" transform="translate(72.216797 0)"/>
       <use xlink:href="#ArialMT-4c" transform="translate(100 0)"/>
      </g>
     </g>
    </g>
    <g id="xtick_2">
     <g id="line2d_2">
      <g>
       <use xlink:href="#maf9fdb2967" x="144.195312" y="124.2" style="fill: #262626; stroke: #262626; stroke-width: 1.25"/>
      </g>
     </g>
     <g id="text_2">
      <!-- NIL -->
      <g style="fill: #262626" transform="translate(135.636797 141.573594) scale(0.11 -0.11)">
       <use xlink:href="#ArialMT-4e"/>
       <use xlink:href="#ArialMT-49" transform="translate(72.216797 0)"/>
       <use xlink:href="#ArialMT-4c" transform="translate(100 0)"/>
      </g>
      <!-- DD -->
      <g style="fill: #262626" transform="translate(136.25125 153.208156) scale(0.11 -0.11)">
       <defs>
        <path id="ArialMT-44" d="M 494 0 
L 494 4581 
L 2072 4581 
Q 2606 4581 2888 4516 
Q 3281 4425 3559 4188 
Q 3922 3881 4101 3404 
Q 4281 2928 4281 2316 
Q 4281 1794 4159 1391 
Q 4038 988 3847 723 
Q 3656 459 3429 307 
Q 3203 156 2883 78 
Q 2563 0 2147 0 
L 494 0 
z
M 1100 541 
L 2078 541 
Q 2531 541 2789 625 
Q 3047 709 3200 863 
Q 3416 1078 3536 1442 
Q 3656 1806 3656 2325 
Q 3656 3044 3420 3430 
Q 3184 3816 2847 3947 
Q 2603 4041 2063 4041 
L 1100 4041 
L 1100 541 
z
" transform="scale(0.015625)"/>
       </defs>
       <use xlink:href="#ArialMT-44"/>
       <use xlink:href="#ArialMT-44" transform="translate(72.216797 0)"/>
      </g>
     </g>
    </g>
    <g id="xtick_3">
     <g id="line2d_3">
      <g>
       <use xlink:href="#maf9fdb2967" x="205.558949" y="124.2" style="fill: #262626; stroke: #262626; stroke-width: 1.25"/>
      </g>
     </g>
     <g id="text_3">
      <!-- NIL -->
      <g style="fill: #262626" transform="translate(197.000433 141.573594) scale(0.11 -0.11)">
       <use xlink:href="#ArialMT-4e"/>
       <use xlink:href="#ArialMT-49" transform="translate(72.216797 0)"/>
       <use xlink:href="#ArialMT-4c" transform="translate(100 0)"/>
      </g>
      <!-- SNAP-DD -->
      <g style="fill: #262626" transform="translate(180.805511 153.208156) scale(0.11 -0.11)">
       <defs>
        <path id="ArialMT-53" d="M 288 1472 
L 859 1522 
Q 900 1178 1048 958 
Q 1197 738 1509 602 
Q 1822 466 2213 466 
Q 2559 466 2825 569 
Q 3091 672 3220 851 
Q 3350 1031 3350 1244 
Q 3350 1459 3225 1620 
Q 3100 1781 2813 1891 
Q 2628 1963 1997 2114 
Q 1366 2266 1113 2400 
Q 784 2572 623 2826 
Q 463 3081 463 3397 
Q 463 3744 659 4045 
Q 856 4347 1234 4503 
Q 1613 4659 2075 4659 
Q 2584 4659 2973 4495 
Q 3363 4331 3572 4012 
Q 3781 3694 3797 3291 
L 3216 3247 
Q 3169 3681 2898 3903 
Q 2628 4125 2100 4125 
Q 1550 4125 1298 3923 
Q 1047 3722 1047 3438 
Q 1047 3191 1225 3031 
Q 1400 2872 2139 2705 
Q 2878 2538 3153 2413 
Q 3553 2228 3743 1945 
Q 3934 1663 3934 1294 
Q 3934 928 3725 604 
Q 3516 281 3123 101 
Q 2731 -78 2241 -78 
Q 1619 -78 1198 103 
Q 778 284 539 648 
Q 300 1013 288 1472 
z
" transform="scale(0.015625)"/>
        <path id="ArialMT-41" d="M -9 0 
L 1750 4581 
L 2403 4581 
L 4278 0 
L 3588 0 
L 3053 1388 
L 1138 1388 
L 634 0 
L -9 0 
z
M 1313 1881 
L 2866 1881 
L 2388 3150 
Q 2169 3728 2063 4100 
Q 1975 3659 1816 3225 
L 1313 1881 
z
" transform="scale(0.015625)"/>
        <path id="ArialMT-50" d="M 494 0 
L 494 4581 
L 2222 4581 
Q 2678 4581 2919 4538 
Q 3256 4481 3484 4323 
Q 3713 4166 3852 3881 
Q 3991 3597 3991 3256 
Q 3991 2672 3619 2267 
Q 3247 1863 2275 1863 
L 1100 1863 
L 1100 0 
L 494 0 
z
M 1100 2403 
L 2284 2403 
Q 2872 2403 3119 2622 
Q 3366 2841 3366 3238 
Q 3366 3525 3220 3729 
Q 3075 3934 2838 4000 
Q 2684 4041 2272 4041 
L 1100 4041 
L 1100 2403 
z
" transform="scale(0.015625)"/>
        <path id="ArialMT-2d" d="M 203 1375 
L 203 1941 
L 1931 1941 
L 1931 1375 
L 203 1375 
z
" transform="scale(0.015625)"/>
       </defs>
       <use xlink:href="#ArialMT-53"/>
       <use xlink:href="#ArialMT-4e" transform="translate(66.699219 0)"/>
       <use xlink:href="#ArialMT-41" transform="translate(138.916016 0)"/>
       <use xlink:href="#ArialMT-50" transform="translate(205.615234 0)"/>
       <use xlink:href="#ArialMT-2d" transform="translate(272.314453 0)"/>
       <use xlink:href="#ArialMT-44" transform="translate(305.615234 0)"/>
       <use xlink:href="#ArialMT-44" transform="translate(377.832031 0)"/>
      </g>
     </g>
    </g>
   </g>
   <g id="matplotlib.axis_2">
    <g id="ytick_1">
     <g id="line2d_4">
      <defs>
       <path id="m47c397d101" d="M 0 0 
L -6 0 
" style="stroke: #262626; stroke-width: 1.25"/>
      </defs>
      <g>
       <use xlink:href="#m47c397d101" x="49.695313" y="124.2" style="fill: #262626; stroke: #262626; stroke-width: 1.25"/>
      </g>
     </g>
     <g id="text_4">
      <!-- 0 -->
      <g style="fill: #262626" transform="translate(34.078281 128.136797) scale(0.11 -0.11)">
       <defs>
        <path id="ArialMT-30" d="M 266 2259 
Q 266 3072 433 3567 
Q 600 4063 929 4331 
Q 1259 4600 1759 4600 
Q 2128 4600 2406 4451 
Q 2684 4303 2865 4023 
Q 3047 3744 3150 3342 
Q 3253 2941 3253 2259 
Q 3253 1453 3087 958 
Q 2922 463 2592 192 
Q 2263 -78 1759 -78 
Q 1097 -78 719 397 
Q 266 969 266 2259 
z
M 844 2259 
Q 844 1131 1108 757 
Q 1372 384 1759 384 
Q 2147 384 2411 759 
Q 2675 1134 2675 2259 
Q 2675 3391 2411 3762 
Q 2147 4134 1753 4134 
Q 1366 4134 1134 3806 
Q 844 3388 844 2259 
z
" transform="scale(0.015625)"/>
       </defs>
       <use xlink:href="#ArialMT-30"/>
      </g>
     </g>
    </g>
    <g id="ytick_2">
     <g id="line2d_5">
      <g>
       <use xlink:href="#m47c397d101" x="49.695313" y="92.789333" style="fill: #262626; stroke: #262626; stroke-width: 1.25"/>
      </g>
     </g>
     <g id="text_5">
      <!-- 20k -->
      <g style="fill: #262626" transform="translate(22.46125 96.72613) scale(0.11 -0.11)">
       <defs>
        <path id="ArialMT-32" d="M 3222 541 
L 3222 0 
L 194 0 
Q 188 203 259 391 
Q 375 700 629 1000 
Q 884 1300 1366 1694 
Q 2113 2306 2375 2664 
Q 2638 3022 2638 3341 
Q 2638 3675 2398 3904 
Q 2159 4134 1775 4134 
Q 1369 4134 1125 3890 
Q 881 3647 878 3216 
L 300 3275 
Q 359 3922 746 4261 
Q 1134 4600 1788 4600 
Q 2447 4600 2831 4234 
Q 3216 3869 3216 3328 
Q 3216 3053 3103 2787 
Q 2991 2522 2730 2228 
Q 2469 1934 1863 1422 
Q 1356 997 1212 845 
Q 1069 694 975 541 
L 3222 541 
z
" transform="scale(0.015625)"/>
        <path id="ArialMT-6b" d="M 425 0 
L 425 4581 
L 988 4581 
L 988 1969 
L 2319 3319 
L 3047 3319 
L 1778 2088 
L 3175 0 
L 2481 0 
L 1384 1697 
L 988 1316 
L 988 0 
L 425 0 
z
" transform="scale(0.015625)"/>
       </defs>
       <use xlink:href="#ArialMT-32"/>
       <use xlink:href="#ArialMT-30" transform="translate(55.615234 0)"/>
       <use xlink:href="#ArialMT-6b" transform="translate(111.230469 0)"/>
      </g>
     </g>
    </g>
    <g id="ytick_3">
     <g id="line2d_6">
      <g>
       <use xlink:href="#m47c397d101" x="49.695313" y="61.378666" style="fill: #262626; stroke: #262626; stroke-width: 1.25"/>
      </g>
     </g>
     <g id="text_6">
      <!-- 40k -->
      <g style="fill: #262626" transform="translate(22.46125 65.315463) scale(0.11 -0.11)">
       <defs>
        <path id="ArialMT-34" d="M 2069 0 
L 2069 1097 
L 81 1097 
L 81 1613 
L 2172 4581 
L 2631 4581 
L 2631 1613 
L 3250 1613 
L 3250 1097 
L 2631 1097 
L 2631 0 
L 2069 0 
z
M 2069 1613 
L 2069 3678 
L 634 1613 
L 2069 1613 
z
" transform="scale(0.015625)"/>
       </defs>
       <use xlink:href="#ArialMT-34"/>
       <use xlink:href="#ArialMT-30" transform="translate(55.615234 0)"/>
       <use xlink:href="#ArialMT-6b" transform="translate(111.230469 0)"/>
      </g>
     </g>
    </g>
    <g id="ytick_4">
     <g id="line2d_7">
      <g>
       <use xlink:href="#m47c397d101" x="49.695313" y="29.967999" style="fill: #262626; stroke: #262626; stroke-width: 1.25"/>
      </g>
     </g>
     <g id="text_7">
      <!-- 60k -->
      <g style="fill: #262626" transform="translate(22.46125 33.904796) scale(0.11 -0.11)">
       <defs>
        <path id="ArialMT-36" d="M 3184 3459 
L 2625 3416 
Q 2550 3747 2413 3897 
Q 2184 4138 1850 4138 
Q 1581 4138 1378 3988 
Q 1113 3794 959 3422 
Q 806 3050 800 2363 
Q 1003 2672 1297 2822 
Q 1591 2972 1913 2972 
Q 2475 2972 2870 2558 
Q 3266 2144 3266 1488 
Q 3266 1056 3080 686 
Q 2894 316 2569 119 
Q 2244 -78 1831 -78 
Q 1128 -78 684 439 
Q 241 956 241 2144 
Q 241 3472 731 4075 
Q 1159 4600 1884 4600 
Q 2425 4600 2770 4297 
Q 3116 3994 3184 3459 
z
M 888 1484 
Q 888 1194 1011 928 
Q 1134 663 1356 523 
Q 1578 384 1822 384 
Q 2178 384 2434 671 
Q 2691 959 2691 1453 
Q 2691 1928 2437 2201 
Q 2184 2475 1800 2475 
Q 1419 2475 1153 2201 
Q 888 1928 888 1484 
z
" transform="scale(0.015625)"/>
       </defs>
       <use xlink:href="#ArialMT-36"/>
       <use xlink:href="#ArialMT-30" transform="translate(55.615234 0)"/>
       <use xlink:href="#ArialMT-6b" transform="translate(111.230469 0)"/>
      </g>
     </g>
    </g>
    <g id="text_8">
     <!-- Single Cells Count -->
     <g style="fill: #262626" transform="translate(15.935625 115.0575) rotate(-90) scale(0.12 -0.12)">
      <defs>
       <path id="ArialMT-69" d="M 425 3934 
L 425 4581 
L 988 4581 
L 988 3934 
L 425 3934 
z
M 425 0 
L 425 3319 
L 988 3319 
L 988 0 
L 425 0 
z
" transform="scale(0.015625)"/>
       <path id="ArialMT-6e" d="M 422 0 
L 422 3319 
L 928 3319 
L 928 2847 
Q 1294 3394 1984 3394 
Q 2284 3394 2536 3286 
Q 2788 3178 2913 3003 
Q 3038 2828 3088 2588 
Q 3119 2431 3119 2041 
L 3119 0 
L 2556 0 
L 2556 2019 
Q 2556 2363 2490 2533 
Q 2425 2703 2258 2804 
Q 2091 2906 1866 2906 
Q 1506 2906 1245 2678 
Q 984 2450 984 1813 
L 984 0 
L 422 0 
z
" transform="scale(0.015625)"/>
       <path id="ArialMT-67" d="M 319 -275 
L 866 -356 
Q 900 -609 1056 -725 
Q 1266 -881 1628 -881 
Q 2019 -881 2231 -725 
Q 2444 -569 2519 -288 
Q 2563 -116 2559 434 
Q 2191 0 1641 0 
Q 956 0 581 494 
Q 206 988 206 1678 
Q 206 2153 378 2554 
Q 550 2956 876 3175 
Q 1203 3394 1644 3394 
Q 2231 3394 2613 2919 
L 2613 3319 
L 3131 3319 
L 3131 450 
Q 3131 -325 2973 -648 
Q 2816 -972 2473 -1159 
Q 2131 -1347 1631 -1347 
Q 1038 -1347 672 -1080 
Q 306 -813 319 -275 
z
M 784 1719 
Q 784 1066 1043 766 
Q 1303 466 1694 466 
Q 2081 466 2343 764 
Q 2606 1063 2606 1700 
Q 2606 2309 2336 2618 
Q 2066 2928 1684 2928 
Q 1309 2928 1046 2623 
Q 784 2319 784 1719 
z
" transform="scale(0.015625)"/>
       <path id="ArialMT-6c" d="M 409 0 
L 409 4581 
L 972 4581 
L 972 0 
L 409 0 
z
" transform="scale(0.015625)"/>
       <path id="ArialMT-65" d="M 2694 1069 
L 3275 997 
Q 3138 488 2766 206 
Q 2394 -75 1816 -75 
Q 1088 -75 661 373 
Q 234 822 234 1631 
Q 234 2469 665 2931 
Q 1097 3394 1784 3394 
Q 2450 3394 2872 2941 
Q 3294 2488 3294 1666 
Q 3294 1616 3291 1516 
L 816 1516 
Q 847 969 1125 678 
Q 1403 388 1819 388 
Q 2128 388 2347 550 
Q 2566 713 2694 1069 
z
M 847 1978 
L 2700 1978 
Q 2663 2397 2488 2606 
Q 2219 2931 1791 2931 
Q 1403 2931 1139 2672 
Q 875 2413 847 1978 
z
" transform="scale(0.015625)"/>
       <path id="ArialMT-20" transform="scale(0.015625)"/>
       <path id="ArialMT-43" d="M 3763 1606 
L 4369 1453 
Q 4178 706 3683 314 
Q 3188 -78 2472 -78 
Q 1731 -78 1267 223 
Q 803 525 561 1097 
Q 319 1669 319 2325 
Q 319 3041 592 3573 
Q 866 4106 1370 4382 
Q 1875 4659 2481 4659 
Q 3169 4659 3637 4309 
Q 4106 3959 4291 3325 
L 3694 3184 
Q 3534 3684 3231 3912 
Q 2928 4141 2469 4141 
Q 1941 4141 1586 3887 
Q 1231 3634 1087 3207 
Q 944 2781 944 2328 
Q 944 1744 1114 1308 
Q 1284 872 1643 656 
Q 2003 441 2422 441 
Q 2931 441 3284 734 
Q 3638 1028 3763 1606 
z
" transform="scale(0.015625)"/>
       <path id="ArialMT-73" d="M 197 991 
L 753 1078 
Q 800 744 1014 566 
Q 1228 388 1613 388 
Q 2000 388 2187 545 
Q 2375 703 2375 916 
Q 2375 1106 2209 1216 
Q 2094 1291 1634 1406 
Q 1016 1563 777 1677 
Q 538 1791 414 1992 
Q 291 2194 291 2438 
Q 291 2659 392 2848 
Q 494 3038 669 3163 
Q 800 3259 1026 3326 
Q 1253 3394 1513 3394 
Q 1903 3394 2198 3281 
Q 2494 3169 2634 2976 
Q 2775 2784 2828 2463 
L 2278 2388 
Q 2241 2644 2061 2787 
Q 1881 2931 1553 2931 
Q 1166 2931 1000 2803 
Q 834 2675 834 2503 
Q 834 2394 903 2306 
Q 972 2216 1119 2156 
Q 1203 2125 1616 2013 
Q 2213 1853 2448 1751 
Q 2684 1650 2818 1456 
Q 2953 1263 2953 975 
Q 2953 694 2789 445 
Q 2625 197 2315 61 
Q 2006 -75 1616 -75 
Q 969 -75 630 194 
Q 291 463 197 991 
z
" transform="scale(0.015625)"/>
       <path id="ArialMT-6f" d="M 213 1659 
Q 213 2581 725 3025 
Q 1153 3394 1769 3394 
Q 2453 3394 2887 2945 
Q 3322 2497 3322 1706 
Q 3322 1066 3130 698 
Q 2938 331 2570 128 
Q 2203 -75 1769 -75 
Q 1072 -75 642 372 
Q 213 819 213 1659 
z
M 791 1659 
Q 791 1022 1069 705 
Q 1347 388 1769 388 
Q 2188 388 2466 706 
Q 2744 1025 2744 1678 
Q 2744 2294 2464 2611 
Q 2184 2928 1769 2928 
Q 1347 2928 1069 2612 
Q 791 2297 791 1659 
z
" transform="scale(0.015625)"/>
       <path id="ArialMT-75" d="M 2597 0 
L 2597 488 
Q 2209 -75 1544 -75 
Q 1250 -75 995 37 
Q 741 150 617 320 
Q 494 491 444 738 
Q 409 903 409 1263 
L 409 3319 
L 972 3319 
L 972 1478 
Q 972 1038 1006 884 
Q 1059 663 1231 536 
Q 1403 409 1656 409 
Q 1909 409 2131 539 
Q 2353 669 2445 892 
Q 2538 1116 2538 1541 
L 2538 3319 
L 3100 3319 
L 3100 0 
L 2597 0 
z
" transform="scale(0.015625)"/>
       <path id="ArialMT-74" d="M 1650 503 
L 1731 6 
Q 1494 -44 1306 -44 
Q 1000 -44 831 53 
Q 663 150 594 308 
Q 525 466 525 972 
L 525 2881 
L 113 2881 
L 113 3319 
L 525 3319 
L 525 4141 
L 1084 4478 
L 1084 3319 
L 1650 3319 
L 1650 2881 
L 1084 2881 
L 1084 941 
Q 1084 700 1114 631 
Q 1144 563 1211 522 
Q 1278 481 1403 481 
Q 1497 481 1650 503 
z
" transform="scale(0.015625)"/>
      </defs>
      <use xlink:href="#ArialMT-53"/>
      <use xlink:href="#ArialMT-69" transform="translate(66.699219 0)"/>
      <use xlink:href="#ArialMT-6e" transform="translate(88.916016 0)"/>
      <use xlink:href="#ArialMT-67" transform="translate(144.53125 0)"/>
      <use xlink:href="#ArialMT-6c" transform="translate(200.146484 0)"/>
      <use xlink:href="#ArialMT-65" transform="translate(222.363281 0)"/>
      <use xlink:href="#ArialMT-20" transform="translate(277.978516 0)"/>
      <use xlink:href="#ArialMT-43" transform="translate(305.761719 0)"/>
      <use xlink:href="#ArialMT-65" transform="translate(377.978516 0)"/>
      <use xlink:href="#ArialMT-6c" transform="translate(433.59375 0)"/>
      <use xlink:href="#ArialMT-6c" transform="translate(455.810547 0)"/>
      <use xlink:href="#ArialMT-73" transform="translate(478.027344 0)"/>
      <use xlink:href="#ArialMT-20" transform="translate(528.027344 0)"/>
      <use xlink:href="#ArialMT-43" transform="translate(555.810547 0)"/>
      <use xlink:href="#ArialMT-6f" transform="translate(628.027344 0)"/>
      <use xlink:href="#ArialMT-75" transform="translate(683.642578 0)"/>
      <use xlink:href="#ArialMT-6e" transform="translate(739.257812 0)"/>
      <use xlink:href="#ArialMT-74" transform="translate(794.873047 0)"/>
     </g>
    </g>
   </g>
   <g id="patch_3">
    <path d="M 58.286222 124.2 
L 82.831676 124.2 
L 82.831676 119.264992 
L 58.286222 119.264992 
z
" clip-path="url(#pcddce20731)" style="fill: #808080; opacity: 0.8; stroke: #ffffff; stroke-linejoin: miter"/>
   </g>
   <g id="patch_4">
    <path d="M 119.649858 124.2 
L 144.195312 124.2 
L 144.195312 112.153224 
L 119.649858 112.153224 
z
" clip-path="url(#pcddce20731)" style="fill: #808080; opacity: 0.8; stroke: #ffffff; stroke-linejoin: miter"/>
   </g>
   <g id="patch_5">
    <path d="M 181.013494 124.2 
L 205.558949 124.2 
L 205.558949 87.18745 
L 181.013494 87.18745 
z
" clip-path="url(#pcddce20731)" style="fill: #808080; opacity: 0.8; stroke: #ffffff; stroke-linejoin: miter"/>
   </g>
   <g id="patch_6">
    <path d="M 82.831676 124.2 
L 107.377131 124.2 
L 107.377131 113.712109 
L 82.831676 113.712109 
z
" clip-path="url(#pcddce20731)" style="fill: #c180a8; opacity: 0.8; stroke: #ffffff; stroke-linejoin: miter"/>
   </g>
   <g id="patch_7">
    <path d="M 144.195312 124.2 
L 168.740767 124.2 
L 168.740767 100.144664 
L 144.195312 100.144664 
z
" clip-path="url(#pcddce20731)" style="fill: #c180a8; opacity: 0.8; stroke: #ffffff; stroke-linejoin: miter"/>
   </g>
   <g id="patch_8">
    <path d="M 205.558949 124.2 
L 230.104403 124.2 
L 230.104403 60.783041 
L 205.558949 60.783041 
z
" clip-path="url(#pcddce20731)" style="fill: #c180a8; opacity: 0.8; stroke: #ffffff; stroke-linejoin: miter"/>
   </g>
   <g id="line2d_8">
    <path d="M 70.558949 120.704991 
L 70.558949 117.757623 
" clip-path="url(#pcddce20731)" style="fill: none; stroke: #424242; stroke-width: 2.7; stroke-linecap: round"/>
   </g>
   <g id="line2d_9">
    <path d="M 131.922585 115.317695 
L 131.922585 108.560351 
" clip-path="url(#pcddce20731)" style="fill: none; stroke: #424242; stroke-width: 2.7; stroke-linecap: round"/>
   </g>
   <g id="line2d_10">
    <path d="M 193.286222 92.369469 
L 193.286222 81.764199 
" clip-path="url(#pcddce20731)" style="fill: none; stroke: #424242; stroke-width: 2.7; stroke-linecap: round"/>
   </g>
   <g id="line2d_11">
    <path d="M 95.104403 116.556757 
L 95.104403 111.114562 
" clip-path="url(#pcddce20731)" style="fill: none; stroke: #424242; stroke-width: 2.7; stroke-linecap: round"/>
   </g>
   <g id="line2d_12">
    <path d="M 156.46804 106.133 
L 156.46804 93.542741 
" clip-path="url(#pcddce20731)" style="fill: none; stroke: #424242; stroke-width: 2.7; stroke-linecap: round"/>
   </g>
   <g id="line2d_13">
    <path d="M 217.831676 69.350605 
L 217.831676 51.003831 
" clip-path="url(#pcddce20731)" style="fill: none; stroke: #424242; stroke-width: 2.7; stroke-linecap: round"/>
   </g>
   <g id="line2d_14">
    <path d="M 131.922585 73.647322 
L 131.922585 71.657863 
L 156.46804 71.657863 
L 156.46804 73.647322 
" clip-path="url(#pcddce20731)" style="fill: none; stroke: #333333; stroke-width: 1.5; stroke-linecap: round"/>
   </g>
   <g id="line2d_15">
    <path d="M 70.558949 100.935339 
L 70.558949 98.94588 
L 95.104403 98.94588 
L 95.104403 100.935339 
" clip-path="url(#pcddce20731)" style="fill: none; stroke: #333333; stroke-width: 1.5; stroke-linecap: round"/>
   </g>
   <g id="line2d_16">
    <path d="M 193.286222 23.495481 
L 193.286222 21.506022 
L 217.831676 21.506022 
L 217.831676 23.495481 
" clip-path="url(#pcddce20731)" style="fill: none; stroke: #333333; stroke-width: 1.5; stroke-linecap: round"/>
   </g>
   <g id="patch_9">
    <path d="M 49.695313 124.2 
L 49.695313 7.2 
" style="fill: none; stroke: #262626; stroke-width: 1.25; stroke-linejoin: miter; stroke-linecap: square"/>
   </g>
   <g id="patch_10">
    <path d="M 238.695312 124.2 
L 238.695312 7.2 
" style="fill: none; stroke: #262626; stroke-width: 1.25; stroke-linejoin: miter; stroke-linecap: square"/>
   </g>
   <g id="patch_11">
    <path d="M 49.695313 124.2 
L 238.695312 124.2 
" style="fill: none; stroke: #262626; stroke-width: 1.25; stroke-linejoin: miter; stroke-linecap: square"/>
   </g>
   <g id="patch_12">
    <path d="M 49.695313 7.2 
L 238.695312 7.2 
" style="fill: none; stroke: #262626; stroke-width: 1.25; stroke-linejoin: miter; stroke-linecap: square"/>
   </g>
   <g id="PathCollection_1">
    <defs>
     <path id="C0_0_dc44af5da1" d="M 0 2.5 
C 0.663008 2.5 1.29895 2.236584 1.767767 1.767767 
C 2.236584 1.29895 2.5 0.663008 2.5 -0 
C 2.5 -0.663008 2.236584 -1.29895 1.767767 -1.767767 
C 1.29895 -2.236584 0.663008 -2.5 0 -2.5 
C -0.663008 -2.5 -1.29895 -2.236584 -1.767767 -1.767767 
C -2.236584 -1.29895 -2.5 -0.663008 -2.5 0 
C -2.5 0.663008 -2.236584 1.29895 -1.767767 1.767767 
C -1.29895 2.236584 -0.663008 2.5 0 2.5 
z
"/>
    </defs>
    <g clip-path="url(#pcddce20731)">
     <use xlink:href="#C0_0_dc44af5da1" x="68.417398" y="121.738974" style="fill: #ffffff; stroke: #000000; stroke-width: 0.4"/>
    </g>
    <g clip-path="url(#pcddce20731)">
     <use xlink:href="#C0_0_dc44af5da1" x="70.122992" y="121.544228" style="fill: #ffffff; stroke: #000000; stroke-width: 0.4"/>
    </g>
    <g clip-path="url(#pcddce20731)">
     <use xlink:href="#C0_0_dc44af5da1" x="71.116662" y="121.738974" style="fill: #ffffff; stroke: #000000; stroke-width: 0.4"/>
    </g>
   </g>
   <g id="PathCollection_2">
    <defs>
     <path id="C1_0_b71b2545a9" d="M 0 2.5 
C 0.663008 2.5 1.29895 2.236584 1.767767 1.767767 
C 2.236584 1.29895 2.5 0.663008 2.5 -0 
C 2.5 -0.663008 2.236584 -1.29895 1.767767 -1.767767 
C 1.29895 -2.236584 0.663008 -2.5 0 -2.5 
C -0.663008 -2.5 -1.29895 -2.236584 -1.767767 -1.767767 
C -2.236584 -1.29895 -2.5 -0.663008 -2.5 0 
C -2.5 0.663008 -2.236584 1.29895 -1.767767 1.767767 
C -1.29895 2.236584 -0.663008 2.5 0 2.5 
z
"/>
    </defs>
    <g clip-path="url(#pcddce20731)">
     <use xlink:href="#C1_0_b71b2545a9" x="93.080184" y="119.521381" style="fill: #ffffff; stroke: #000000; stroke-width: 0.4"/>
    </g>
    <g clip-path="url(#pcddce20731)">
     <use xlink:href="#C1_0_b71b2545a9" x="93.713159" y="119.928149" style="fill: #ffffff; stroke: #000000; stroke-width: 0.4"/>
    </g>
    <g clip-path="url(#pcddce20731)">
     <use xlink:href="#C1_0_b71b2545a9" x="94.99943" y="119.888886" style="fill: #ffffff; stroke: #000000; stroke-width: 0.4"/>
    </g>
   </g>
   <g id="PathCollection_3">
    <defs>
     <path id="C2_0_935381db47" d="M 0 2.5 
C 0.663008 2.5 1.29895 2.236584 1.767767 1.767767 
C 2.236584 1.29895 2.5 0.663008 2.5 -0 
C 2.5 -0.663008 2.236584 -1.29895 1.767767 -1.767767 
C 1.29895 -2.236584 0.663008 -2.5 0 -2.5 
C -0.663008 -2.5 -1.29895 -2.236584 -1.767767 -1.767767 
C -2.236584 -1.29895 -2.5 -0.663008 -2.5 0 
C -2.5 0.663008 -2.236584 1.29895 -1.767767 1.767767 
C -1.29895 2.236584 -0.663008 2.5 0 2.5 
z
"/>
    </defs>
    <g clip-path="url(#pcddce20731)">
     <use xlink:href="#C2_0_935381db47" x="134.91251" y="118.712556" style="fill: #ffffff; stroke: #000000; stroke-width: 0.4"/>
    </g>
    <g clip-path="url(#pcddce20731)">
     <use xlink:href="#C2_0_935381db47" x="129.692756" y="118.732973" style="fill: #ffffff; stroke: #000000; stroke-width: 0.4"/>
    </g>
    <g clip-path="url(#pcddce20731)">
     <use xlink:href="#C2_0_935381db47" x="134.191136" y="118.253961" style="fill: #ffffff; stroke: #000000; stroke-width: 0.4"/>
    </g>
   </g>
   <g id="PathCollection_4">
    <defs>
     <path id="C3_0_012acf4cf5" d="M 0 2.5 
C 0.663008 2.5 1.29895 2.236584 1.767767 1.767767 
C 2.236584 1.29895 2.5 0.663008 2.5 -0 
C 2.5 -0.663008 2.236584 -1.29895 1.767767 -1.767767 
C 1.29895 -2.236584 0.663008 -2.5 0 -2.5 
C -0.663008 -2.5 -1.29895 -2.236584 -1.767767 -1.767767 
C -2.236584 -1.29895 -2.5 -0.663008 -2.5 0 
C -2.5 0.663008 -2.236584 1.29895 -1.767767 1.767767 
C -1.29895 2.236584 -0.663008 2.5 0 2.5 
z
"/>
    </defs>
    <g clip-path="url(#pcddce20731)">
     <use xlink:href="#C3_0_012acf4cf5" x="157.189095" y="111.835191" style="fill: #ffffff; stroke: #000000; stroke-width: 0.4"/>
    </g>
    <g clip-path="url(#pcddce20731)">
     <use xlink:href="#C3_0_012acf4cf5" x="157.161447" y="114.980969" style="fill: #ffffff; stroke: #000000; stroke-width: 0.4"/>
    </g>
    <g clip-path="url(#pcddce20731)">
     <use xlink:href="#C3_0_012acf4cf5" x="153.598859" y="112.446128" style="fill: #ffffff; stroke: #000000; stroke-width: 0.4"/>
    </g>
   </g>
   <g id="PathCollection_5">
    <defs>
     <path id="C4_0_7a581ab163" d="M 0 2.5 
C 0.663008 2.5 1.29895 2.236584 1.767767 1.767767 
C 2.236584 1.29895 2.5 0.663008 2.5 -0 
C 2.5 -0.663008 2.236584 -1.29895 1.767767 -1.767767 
C 1.29895 -2.236584 0.663008 -2.5 0 -2.5 
C -0.663008 -2.5 -1.29895 -2.236584 -1.767767 -1.767767 
C -2.236584 -1.29895 -2.5 -0.663008 -2.5 0 
C -2.5 0.663008 -2.236584 1.29895 -1.767767 1.767767 
C -1.29895 2.236584 -0.663008 2.5 0 2.5 
z
"/>
    </defs>
    <g clip-path="url(#pcddce20731)">
     <use xlink:href="#C4_0_7a581ab163" x="195.695614" y="96.635569" style="fill: #ffffff; stroke: #000000; stroke-width: 0.4"/>
    </g>
    <g clip-path="url(#pcddce20731)">
     <use xlink:href="#C4_0_7a581ab163" x="191.066097" y="92.197242" style="fill: #ffffff; stroke: #000000; stroke-width: 0.4"/>
    </g>
    <g clip-path="url(#pcddce20731)">
     <use xlink:href="#C4_0_7a581ab163" x="192.903152" y="93.717518" style="fill: #ffffff; stroke: #000000; stroke-width: 0.4"/>
    </g>
    <g clip-path="url(#pcddce20731)">
     <use xlink:href="#C4_0_7a581ab163" x="191.421975" y="96.635569" style="fill: #ffffff; stroke: #000000; stroke-width: 0.4"/>
    </g>
    <g clip-path="url(#pcddce20731)">
     <use xlink:href="#C4_0_7a581ab163" x="193.577111" y="90.942386" style="fill: #ffffff; stroke: #000000; stroke-width: 0.4"/>
    </g>
    <g clip-path="url(#pcddce20731)">
     <use xlink:href="#C4_0_7a581ab163" x="193.924878" y="100.144141" style="fill: #ffffff; stroke: #000000; stroke-width: 0.4"/>
    </g>
   </g>
   <g id="PathCollection_6">
    <defs>
     <path id="C5_0_14b595a57d" d="M 0 2.5 
C 0.663008 2.5 1.29895 2.236584 1.767767 1.767767 
C 2.236584 1.29895 2.5 0.663008 2.5 -0 
C 2.5 -0.663008 2.236584 -1.29895 1.767767 -1.767767 
C 1.29895 -2.236584 0.663008 -2.5 0 -2.5 
C -0.663008 -2.5 -1.29895 -2.236584 -1.767767 -1.767767 
C -2.236584 -1.29895 -2.5 -0.663008 -2.5 0 
C -2.5 0.663008 -2.236584 1.29895 -1.767767 1.767767 
C -1.29895 2.236584 -0.663008 2.5 0 2.5 
z
"/>
    </defs>
    <g clip-path="url(#pcddce20731)">
     <use xlink:href="#C5_0_14b595a57d" x="220.352203" y="70.81286" style="fill: #ffffff; stroke: #000000; stroke-width: 0.4"/>
    </g>
    <g clip-path="url(#pcddce20731)">
     <use xlink:href="#C5_0_14b595a57d" x="218.387569" y="80.584718" style="fill: #ffffff; stroke: #000000; stroke-width: 0.4"/>
    </g>
    <g clip-path="url(#pcddce20731)">
     <use xlink:href="#C5_0_14b595a57d" x="215.132904" y="75.722347" style="fill: #ffffff; stroke: #000000; stroke-width: 0.4"/>
    </g>
   </g>
   <g id="PathCollection_7">
    <path d="M 72.768883 117.500394 
L 70.268883 122.500394 
L 75.268883 122.500394 
z
" clip-path="url(#pcddce20731)" style="fill: #ffffff; stroke: #000000; stroke-width: 0.4"/>
    <path d="M 70.685834 114.585484 
L 68.185834 119.585484 
L 73.185834 119.585484 
z
" clip-path="url(#pcddce20731)" style="fill: #ffffff; stroke: #000000; stroke-width: 0.4"/>
    <path d="M 70.601474 115.706845 
L 68.101474 120.706845 
L 73.101474 120.706845 
z
" clip-path="url(#pcddce20731)" style="fill: #ffffff; stroke: #000000; stroke-width: 0.4"/>
   </g>
   <g id="PathCollection_8">
    <path d="M 94.220014 108.939417 
L 91.720014 113.939417 
L 96.720014 113.939417 
z
" clip-path="url(#pcddce20731)" style="fill: #ffffff; stroke: #000000; stroke-width: 0.4"/>
    <path d="M 93.776537 107.227535 
L 91.276537 112.227535 
L 96.276537 112.227535 
z
" clip-path="url(#pcddce20731)" style="fill: #ffffff; stroke: #000000; stroke-width: 0.4"/>
    <path d="M 96.520909 108.152579 
L 94.020909 113.152579 
L 99.020909 113.152579 
z
" clip-path="url(#pcddce20731)" style="fill: #ffffff; stroke: #000000; stroke-width: 0.4"/>
   </g>
   <g id="PathCollection_9">
    <path d="M 131.288891 108.281363 
L 128.788891 113.281363 
L 133.788891 113.281363 
z
" clip-path="url(#pcddce20731)" style="fill: #ffffff; stroke: #000000; stroke-width: 0.4"/>
    <path d="M 133.196274 109.281793 
L 130.696274 114.281793 
L 135.696274 114.281793 
z
" clip-path="url(#pcddce20731)" style="fill: #ffffff; stroke: #000000; stroke-width: 0.4"/>
    <path d="M 128.946285 106.096751 
L 126.446285 111.096751 
L 131.446285 111.096751 
z
" clip-path="url(#pcddce20731)" style="fill: #ffffff; stroke: #000000; stroke-width: 0.4"/>
   </g>
   <g id="PathCollection_10">
    <path d="M 156.361125 94.729231 
L 153.861125 99.729231 
L 158.861125 99.729231 
z
" clip-path="url(#pcddce20731)" style="fill: #ffffff; stroke: #000000; stroke-width: 0.4"/>
    <path d="M 156.347559 99.690546 
L 153.847559 104.690546 
L 158.847559 104.690546 
z
" clip-path="url(#pcddce20731)" style="fill: #ffffff; stroke: #000000; stroke-width: 0.4"/>
    <path d="M 155.062223 100.997229 
L 152.562223 105.997229 
L 157.562223 105.997229 
z
" clip-path="url(#pcddce20731)" style="fill: #ffffff; stroke: #000000; stroke-width: 0.4"/>
   </g>
   <g id="PathCollection_11">
    <path d="M 193.283732 92.629428 
L 190.783732 97.629428 
L 195.783732 97.629428 
z
" clip-path="url(#pcddce20731)" style="fill: #ffffff; stroke: #000000; stroke-width: 0.4"/>
    <path d="M 196.109256 90.187248 
L 193.609256 95.187248 
L 198.609256 95.187248 
z
" clip-path="url(#pcddce20731)" style="fill: #ffffff; stroke: #000000; stroke-width: 0.4"/>
    <path d="M 190.742365 72.294162 
L 188.242365 77.294162 
L 193.242365 77.294162 
z
" clip-path="url(#pcddce20731)" style="fill: #ffffff; stroke: #000000; stroke-width: 0.4"/>
   </g>
   <g id="PathCollection_12">
    <path d="M 216.857532 66.572709 
L 214.357532 71.572709 
L 219.357532 71.572709 
z
" clip-path="url(#pcddce20731)" style="fill: #ffffff; stroke: #000000; stroke-width: 0.4"/>
    <path d="M 216.063696 61.265877 
L 213.563696 66.265877 
L 218.563696 66.265877 
z
" clip-path="url(#pcddce20731)" style="fill: #ffffff; stroke: #000000; stroke-width: 0.4"/>
    <path d="M 216.627788 65.57385 
L 214.127788 70.57385 
L 219.127788 70.57385 
z
" clip-path="url(#pcddce20731)" style="fill: #ffffff; stroke: #000000; stroke-width: 0.4"/>
   </g>
   <g id="PathCollection_13">
    <path d="M 71.022193 118.184568 
L 76.022193 118.184568 
L 76.022193 113.184568 
L 71.022193 113.184568 
z
" clip-path="url(#pcddce20731)" style="fill: #ffffff; stroke: #000000; stroke-width: 0.4"/>
    <path d="M 70.430366 118.635311 
L 75.430366 118.635311 
L 75.430366 113.635311 
L 70.430366 113.635311 
z
" clip-path="url(#pcddce20731)" style="fill: #ffffff; stroke: #000000; stroke-width: 0.4"/>
    <path d="M 68.484107 117.441706 
L 73.484107 117.441706 
L 73.484107 112.441706 
L 68.484107 112.441706 
z
" clip-path="url(#pcddce20731)" style="fill: #ffffff; stroke: #000000; stroke-width: 0.4"/>
   </g>
   <g id="PathCollection_14">
    <path d="M 94.363921 109.403716 
L 99.363921 109.403716 
L 99.363921 104.403716 
L 94.363921 104.403716 
z
" clip-path="url(#pcddce20731)" style="fill: #ffffff; stroke: #000000; stroke-width: 0.4"/>
    <path d="M 92.96188 109.874876 
L 97.96188 109.874876 
L 97.96188 104.874876 
L 92.96188 104.874876 
z
" clip-path="url(#pcddce20731)" style="fill: #ffffff; stroke: #000000; stroke-width: 0.4"/>
    <path d="M 91.285405 111.032359 
L 96.285405 111.032359 
L 96.285405 106.032359 
L 91.285405 106.032359 
z
" clip-path="url(#pcddce20731)" style="fill: #ffffff; stroke: #000000; stroke-width: 0.4"/>
   </g>
   <g id="PathCollection_15">
    <path d="M 131.354047 104.274354 
L 136.354047 104.274354 
L 136.354047 99.274354 
L 131.354047 99.274354 
z
" clip-path="url(#pcddce20731)" style="fill: #ffffff; stroke: #000000; stroke-width: 0.4"/>
    <path d="M 129.450757 107.024358 
L 134.450757 107.024358 
L 134.450757 102.024358 
L 129.450757 102.024358 
z
" clip-path="url(#pcddce20731)" style="fill: #ffffff; stroke: #000000; stroke-width: 0.4"/>
    <path d="M 127.564349 105.138148 
L 132.564349 105.138148 
L 132.564349 100.138148 
L 127.564349 100.138148 
z
" clip-path="url(#pcddce20731)" style="fill: #ffffff; stroke: #000000; stroke-width: 0.4"/>
   </g>
   <g id="PathCollection_16">
    <path d="M 151.47091 82.115699 
L 156.47091 82.115699 
L 156.47091 77.115699 
L 151.47091 77.115699 
z
" clip-path="url(#pcddce20731)" style="fill: #ffffff; stroke: #000000; stroke-width: 0.4"/>
    <path d="M 154.734456 87.033039 
L 159.734456 87.033039 
L 159.734456 82.033039 
L 154.734456 82.033039 
z
" clip-path="url(#pcddce20731)" style="fill: #ffffff; stroke: #000000; stroke-width: 0.4"/>
    <path d="M 154.94394 85.665105 
L 159.94394 85.665105 
L 159.94394 80.665105 
L 154.94394 80.665105 
z
" clip-path="url(#pcddce20731)" style="fill: #ffffff; stroke: #000000; stroke-width: 0.4"/>
   </g>
   <g id="PathCollection_17">
    <path d="M 187.994591 72.515029 
L 192.994591 72.515029 
L 192.994591 67.515029 
L 187.994591 67.515029 
z
" clip-path="url(#pcddce20731)" style="fill: #ffffff; stroke: #000000; stroke-width: 0.4"/>
    <path d="M 190.657173 72.760032 
L 195.657173 72.760032 
L 195.657173 67.760032 
L 190.657173 67.760032 
z
" clip-path="url(#pcddce20731)" style="fill: #ffffff; stroke: #000000; stroke-width: 0.4"/>
    <path d="M 192.723466 71.688928 
L 197.723466 71.688928 
L 197.723466 66.688928 
L 192.723466 66.688928 
z
" clip-path="url(#pcddce20731)" style="fill: #ffffff; stroke: #000000; stroke-width: 0.4"/>
   </g>
   <g id="PathCollection_18">
    <path d="M 216.151099 31.963858 
L 221.151099 31.963858 
L 221.151099 26.963858 
L 216.151099 26.963858 
z
" clip-path="url(#pcddce20731)" style="fill: #ffffff; stroke: #000000; stroke-width: 0.4"/>
    <path d="M 217.33949 36.587508 
L 222.33949 36.587508 
L 222.33949 31.587508 
L 217.33949 31.587508 
z
" clip-path="url(#pcddce20731)" style="fill: #ffffff; stroke: #000000; stroke-width: 0.4"/>
    <path d="M 214.858519 43.061246 
L 219.858519 43.061246 
L 219.858519 38.061246 
L 214.858519 38.061246 
z
" clip-path="url(#pcddce20731)" style="fill: #ffffff; stroke: #000000; stroke-width: 0.4"/>
   </g>
   <g id="PathCollection_19">
    <path d="M 72.742629 124.377734 
L 76.278163 120.8422 
L 72.742629 117.306666 
L 69.207095 120.8422 
z
" clip-path="url(#pcddce20731)" style="fill: #ffffff; stroke: #000000; stroke-width: 0.4"/>
    <path d="M 72.493937 125.387587 
L 76.029471 121.852053 
L 72.493937 118.316519 
L 68.958403 121.852053 
z
" clip-path="url(#pcddce20731)" style="fill: #ffffff; stroke: #000000; stroke-width: 0.4"/>
    <path d="M 72.499502 124.944696 
L 76.035036 121.409162 
L 72.499502 117.873628 
L 68.963968 121.409162 
z
" clip-path="url(#pcddce20731)" style="fill: #ffffff; stroke: #000000; stroke-width: 0.4"/>
   </g>
   <g id="PathCollection_20">
    <path d="M 94.399739 120.588037 
L 97.935273 117.052503 
L 94.399739 113.516969 
L 90.864205 117.052503 
z
" clip-path="url(#pcddce20731)" style="fill: #ffffff; stroke: #000000; stroke-width: 0.4"/>
    <path d="M 98.161854 119.688121 
L 101.697388 116.152587 
L 98.161854 112.617053 
L 94.62632 116.152587 
z
" clip-path="url(#pcddce20731)" style="fill: #ffffff; stroke: #000000; stroke-width: 0.4"/>
    <path d="M 93.644725 120.906855 
L 97.180259 117.371321 
L 93.644725 113.835787 
L 90.109192 117.371321 
z
" clip-path="url(#pcddce20731)" style="fill: #ffffff; stroke: #000000; stroke-width: 0.4"/>
   </g>
   <g id="PathCollection_21">
    <path d="M 134.046561 120.019504 
L 137.582095 116.48397 
L 134.046561 112.948436 
L 130.511028 116.48397 
z
" clip-path="url(#pcddce20731)" style="fill: #ffffff; stroke: #000000; stroke-width: 0.4"/>
    <path d="M 132.880987 120.280212 
L 136.41652 116.744678 
L 132.880987 113.209144 
L 129.345453 116.744678 
z
" clip-path="url(#pcddce20731)" style="fill: #ffffff; stroke: #000000; stroke-width: 0.4"/>
    <path d="M 133.864301 120.349316 
L 137.399834 116.813782 
L 133.864301 113.278248 
L 130.328767 116.813782 
z
" clip-path="url(#pcddce20731)" style="fill: #ffffff; stroke: #000000; stroke-width: 0.4"/>
   </g>
   <g id="PathCollection_22">
    <path d="M 156.563903 105.8156 
L 160.099437 102.280066 
L 156.563903 98.744532 
L 153.028369 102.280066 
z
" clip-path="url(#pcddce20731)" style="fill: #ffffff; stroke: #000000; stroke-width: 0.4"/>
    <path d="M 154.420618 107.274625 
L 157.956152 103.739091 
L 154.420618 100.203558 
L 150.885084 103.739091 
z
" clip-path="url(#pcddce20731)" style="fill: #ffffff; stroke: #000000; stroke-width: 0.4"/>
    <path d="M 158.39591 109.759209 
L 161.931444 106.223675 
L 158.39591 102.688141 
L 154.860376 106.223675 
z
" clip-path="url(#pcddce20731)" style="fill: #ffffff; stroke: #000000; stroke-width: 0.4"/>
   </g>
   <g id="PathCollection_23">
    <path d="M 194.568213 86.17608 
L 198.103747 82.640546 
L 194.568213 79.105013 
L 191.032679 82.640546 
z
" clip-path="url(#pcddce20731)" style="fill: #ffffff; stroke: #000000; stroke-width: 0.4"/>
    <path d="M 196.010255 91.581856 
L 199.545789 88.046322 
L 196.010255 84.510788 
L 192.474721 88.046322 
z
" clip-path="url(#pcddce20731)" style="fill: #ffffff; stroke: #000000; stroke-width: 0.4"/>
    <path d="M 194.594939 98.313162 
L 198.130473 94.777628 
L 194.594939 91.242094 
L 191.059406 94.777628 
z
" clip-path="url(#pcddce20731)" style="fill: #ffffff; stroke: #000000; stroke-width: 0.4"/>
   </g>
   <g id="PathCollection_24">
    <path d="M 219.111174 65.864373 
L 222.646708 62.328839 
L 219.111174 58.793305 
L 215.57564 62.328839 
z
" clip-path="url(#pcddce20731)" style="fill: #ffffff; stroke: #000000; stroke-width: 0.4"/>
    <path d="M 220.499092 71.54028 
L 224.034626 68.004746 
L 220.499092 64.469212 
L 216.963558 68.004746 
z
" clip-path="url(#pcddce20731)" style="fill: #ffffff; stroke: #000000; stroke-width: 0.4"/>
    <path d="M 215.834851 70.453471 
L 219.370385 66.917937 
L 215.834851 63.382403 
L 212.299317 66.917937 
z
" clip-path="url(#pcddce20731)" style="fill: #ffffff; stroke: #000000; stroke-width: 0.4"/>
   </g>
   <g id="text_9">
    <!-- ** -->
    <g style="fill: #262626" transform="translate(139.524687 68.272863) scale(0.12 -0.12)">
     <defs>
      <path id="ArialMT-2a" d="M 200 3741 
L 344 4184 
Q 841 4009 1066 3881 
Q 1006 4447 1003 4659 
L 1456 4659 
Q 1447 4350 1384 3884 
Q 1706 4047 2122 4184 
L 2266 3741 
Q 1869 3609 1488 3566 
Q 1678 3400 2025 2975 
L 1650 2709 
Q 1469 2956 1222 3381 
Q 991 2941 816 2709 
L 447 2975 
Q 809 3422 966 3566 
Q 563 3644 200 3741 
z
" transform="scale(0.015625)"/>
     </defs>
     <use xlink:href="#ArialMT-2a"/>
     <use xlink:href="#ArialMT-2a" transform="translate(38.916016 0)"/>
    </g>
   </g>
   <g id="text_10">
    <!-- ** -->
    <g style="fill: #262626" transform="translate(78.161051 95.56088) scale(0.12 -0.12)">
     <use xlink:href="#ArialMT-2a"/>
     <use xlink:href="#ArialMT-2a" transform="translate(38.916016 0)"/>
    </g>
   </g>
   <g id="text_11">
    <!-- **** -->
    <g style="fill: #262626" transform="translate(196.217699 18.121022) scale(0.12 -0.12)">
     <use xlink:href="#ArialMT-2a"/>
     <use xlink:href="#ArialMT-2a" transform="translate(38.916016 0)"/>
     <use xlink:href="#ArialMT-2a" transform="translate(77.832031 0)"/>
     <use xlink:href="#ArialMT-2a" transform="translate(116.748047 0)"/>
    </g>
   </g>
   <g id="legend_1">
    <g id="patch_13">
     <path d="M 252.545312 19.473594 
L 274.545313 19.473594 
L 274.545313 11.773594 
L 252.545312 11.773594 
z
" style="fill: #808080; opacity: 0.8; stroke: #ffffff; stroke-linejoin: miter"/>
    </g>
    <g id="text_12">
     <!-- 0 nM -->
     <g style="fill: #262626" transform="translate(283.345312 19.473594) scale(0.11 -0.11)">
      <defs>
       <path id="ArialMT-4d" d="M 475 0 
L 475 4581 
L 1388 4581 
L 2472 1338 
Q 2622 884 2691 659 
Q 2769 909 2934 1394 
L 4031 4581 
L 4847 4581 
L 4847 0 
L 4263 0 
L 4263 3834 
L 2931 0 
L 2384 0 
L 1059 3900 
L 1059 0 
L 475 0 
z
" transform="scale(0.015625)"/>
      </defs>
      <use xlink:href="#ArialMT-30"/>
      <use xlink:href="#ArialMT-20" transform="translate(55.615234 0)"/>
      <use xlink:href="#ArialMT-6e" transform="translate(83.398438 0)"/>
      <use xlink:href="#ArialMT-4d" transform="translate(139.013672 0)"/>
     </g>
    </g>
    <g id="patch_14">
     <path d="M 252.545312 35.033437 
L 274.545313 35.033437 
L 274.545313 27.333437 
L 252.545312 27.333437 
z
" style="fill: #c180a8; opacity: 0.8; stroke: #ffffff; stroke-linejoin: miter"/>
    </g>
    <g id="text_13">
     <!-- 100 nM -->
     <g style="fill: #262626" transform="translate(283.345312 35.033437) scale(0.11 -0.11)">
      <defs>
       <path id="ArialMT-31" d="M 2384 0 
L 1822 0 
L 1822 3584 
Q 1619 3391 1289 3197 
Q 959 3003 697 2906 
L 697 3450 
Q 1169 3672 1522 3987 
Q 1875 4303 2022 4600 
L 2384 4600 
L 2384 0 
z
" transform="scale(0.015625)"/>
      </defs>
      <use xlink:href="#ArialMT-31"/>
      <use xlink:href="#ArialMT-30" transform="translate(55.615234 0)"/>
      <use xlink:href="#ArialMT-30" transform="translate(111.230469 0)"/>
      <use xlink:href="#ArialMT-20" transform="translate(166.845703 0)"/>
      <use xlink:href="#ArialMT-6e" transform="translate(194.628906 0)"/>
      <use xlink:href="#ArialMT-4d" transform="translate(250.244141 0)"/>
     </g>
    </g>
   </g>
  </g>
 </g>
 <defs>
  <clipPath id="pcddce20731">
   <rect x="49.695313" y="7.2" width="189" height="117"/>
  </clipPath>
 </defs>
</svg>
