<?xml version="1.0" encoding="utf-8" standalone="no"?>
<!DOCTYPE svg PUBLIC "-//W3C//DTD SVG 1.1//EN"
  "http://www.w3.org/Graphics/SVG/1.1/DTD/svg11.dtd">
<svg xmlns:xlink="http://www.w3.org/1999/xlink" width="371.322031pt" height="162.594406pt" viewBox="0 0 371.322031 162.594406" xmlns="http://www.w3.org/2000/svg" version="1.1">
 <metadata>
  <rdf:RDF xmlns:dc="http://purl.org/dc/elements/1.1/" xmlns:cc="http://creativecommons.org/ns#" xmlns:rdf="http://www.w3.org/1999/02/22-rdf-syntax-ns#">
   <cc:Work>
    <dc:type rdf:resource="http://purl.org/dc/dcmitype/StillImage"/>
    <dc:date>2025-07-28T17:36:13.349768</dc:date>
    <dc:format>image/svg+xml</dc:format>
    <dc:creator>
     <cc:Agent>
      <dc:title>Matplotlib v3.10.3, https://matplotlib.org/</dc:title>
     </cc:Agent>
    </dc:creator>
   </cc:Work>
  </rdf:RDF>
 </metadata>
 <defs>
  <style type="text/css">*{stroke-linejoin: round; stroke-linecap: butt}</style>
 </defs>
 <g id="figure_1">
  <g id="patch_1">
   <path d="M 0 162.594406 
L 371.322031 162.594406 
L 371.322031 0 
L 0 0 
z
" style="fill: #ffffff"/>
  </g>
  <g id="axes_1">
   <g id="patch_2">
    <path d="M 49.695313 124.2 
L 276.495313 124.2 
L 276.495313 7.2 
L 49.695313 7.2 
z
" style="fill: #ffffff"/>
   </g>
   <g id="matplotlib.axis_1">
    <g id="xtick_1">
     <g id="line2d_1">
      <defs>
       <path id="m24cd410328" d="M 0 0 
L 0 6 
" style="stroke: #262626; stroke-width: 1.25"/>
      </defs>
      <g>
       <use xlink:href="#m24cd410328" x="89.458949" y="124.2" style="fill: #262626; stroke: #262626; stroke-width: 1.25"/>
      </g>
     </g>
     <g id="text_1">
      <!-- NIL -->
      <g style="fill: #262626" transform="translate(80.900433 141.573594) scale(0.11 -0.11)">
       <defs>
        <path id="ArialMT-4e" d="M 488 0 
L 488 4581 
L 1109 4581 
L 3516 984 
L 3516 4581 
L 4097 4581 
L 4097 0 
L 3475 0 
L 1069 3600 
L 1069 0 
L 488 0 
z
" transform="scale(0.015625)"/>
        <path id="ArialMT-49" d="M 597 0 
L 597 4581 
L 1203 4581 
L 1203 0 
L 597 0 
z
" transform="scale(0.015625)"/>
        <path id="ArialMT-4c" d="M 469 0 
L 469 4581 
L 1075 4581 
L 1075 541 
L 3331 541 
L 3331 0 
L 469 0 
z
" transform="scale(0.015625)"/>
       </defs>
       <use xlink:href="#ArialMT-4e"/>
       <use xlink:href="#ArialMT-49" transform="translate(72.216797 0)"/>
       <use xlink:href="#ArialMT-4c" transform="translate(100 0)"/>
      </g>
     </g>
    </g>
    <g id="xtick_2">
     <g id="line2d_2">
      <g>
       <use xlink:href="#m24cd410328" x="163.095313" y="124.2" style="fill: #262626; stroke: #262626; stroke-width: 1.25"/>
      </g>
     </g>
     <g id="text_2">
      <!-- NIL -->
      <g style="fill: #262626" transform="translate(154.536797 141.573594) scale(0.11 -0.11)">
       <use xlink:href="#ArialMT-4e"/>
       <use xlink:href="#ArialMT-49" transform="translate(72.216797 0)"/>
       <use xlink:href="#ArialMT-4c" transform="translate(100 0)"/>
      </g>
      <!-- DD -->
      <g style="fill: #262626" transform="translate(155.15125 153.208156) scale(0.11 -0.11)">
       <defs>
        <path id="ArialMT-44" d="M 494 0 
L 494 4581 
L 2072 4581 
Q 2606 4581 2888 4516 
Q 3281 4425 3559 4188 
Q 3922 3881 4101 3404 
Q 4281 2928 4281 2316 
Q 4281 1794 4159 1391 
Q 4038 988 3847 723 
Q 3656 459 3429 307 
Q 3203 156 2883 78 
Q 2563 0 2147 0 
L 494 0 
z
M 1100 541 
L 2078 541 
Q 2531 541 2789 625 
Q 3047 709 3200 863 
Q 3416 1078 3536 1442 
Q 3656 1806 3656 2325 
Q 3656 3044 3420 3430 
Q 3184 3816 2847 3947 
Q 2603 4041 2063 4041 
L 1100 4041 
L 1100 541 
z
" transform="scale(0.015625)"/>
       </defs>
       <use xlink:href="#ArialMT-44"/>
       <use xlink:href="#ArialMT-44" transform="translate(72.216797 0)"/>
      </g>
     </g>
    </g>
    <g id="xtick_3">
     <g id="line2d_3">
      <g>
       <use xlink:href="#m24cd410328" x="236.731676" y="124.2" style="fill: #262626; stroke: #262626; stroke-width: 1.25"/>
      </g>
     </g>
     <g id="text_3">
      <!-- NIL -->
      <g style="fill: #262626" transform="translate(228.173161 141.573594) scale(0.11 -0.11)">
       <use xlink:href="#ArialMT-4e"/>
       <use xlink:href="#ArialMT-49" transform="translate(72.216797 0)"/>
       <use xlink:href="#ArialMT-4c" transform="translate(100 0)"/>
      </g>
      <!-- SNAP-DD -->
      <g style="fill: #262626" transform="translate(211.978239 153.208156) scale(0.11 -0.11)">
       <defs>
        <path id="ArialMT-53" d="M 288 1472 
L 859 1522 
Q 900 1178 1048 958 
Q 1197 738 1509 602 
Q 1822 466 2213 466 
Q 2559 466 2825 569 
Q 3091 672 3220 851 
Q 3350 1031 3350 1244 
Q 3350 1459 3225 1620 
Q 3100 1781 2813 1891 
Q 2628 1963 1997 2114 
Q 1366 2266 1113 2400 
Q 784 2572 623 2826 
Q 463 3081 463 3397 
Q 463 3744 659 4045 
Q 856 4347 1234 4503 
Q 1613 4659 2075 4659 
Q 2584 4659 2973 4495 
Q 3363 4331 3572 4012 
Q 3781 3694 3797 3291 
L 3216 3247 
Q 3169 3681 2898 3903 
Q 2628 4125 2100 4125 
Q 1550 4125 1298 3923 
Q 1047 3722 1047 3438 
Q 1047 3191 1225 3031 
Q 1400 2872 2139 2705 
Q 2878 2538 3153 2413 
Q 3553 2228 3743 1945 
Q 3934 1663 3934 1294 
Q 3934 928 3725 604 
Q 3516 281 3123 101 
Q 2731 -78 2241 -78 
Q 1619 -78 1198 103 
Q 778 284 539 648 
Q 300 1013 288 1472 
z
" transform="scale(0.015625)"/>
        <path id="ArialMT-41" d="M -9 0 
L 1750 4581 
L 2403 4581 
L 4278 0 
L 3588 0 
L 3053 1388 
L 1138 1388 
L 634 0 
L -9 0 
z
M 1313 1881 
L 2866 1881 
L 2388 3150 
Q 2169 3728 2063 4100 
Q 1975 3659 1816 3225 
L 1313 1881 
z
" transform="scale(0.015625)"/>
        <path id="ArialMT-50" d="M 494 0 
L 494 4581 
L 2222 4581 
Q 2678 4581 2919 4538 
Q 3256 4481 3484 4323 
Q 3713 4166 3852 3881 
Q 3991 3597 3991 3256 
Q 3991 2672 3619 2267 
Q 3247 1863 2275 1863 
L 1100 1863 
L 1100 0 
L 494 0 
z
M 1100 2403 
L 2284 2403 
Q 2872 2403 3119 2622 
Q 3366 2841 3366 3238 
Q 3366 3525 3220 3729 
Q 3075 3934 2838 4000 
Q 2684 4041 2272 4041 
L 1100 4041 
L 1100 2403 
z
" transform="scale(0.015625)"/>
        <path id="ArialMT-2d" d="M 203 1375 
L 203 1941 
L 1931 1941 
L 1931 1375 
L 203 1375 
z
" transform="scale(0.015625)"/>
       </defs>
       <use xlink:href="#ArialMT-53"/>
       <use xlink:href="#ArialMT-4e" transform="translate(66.699219 0)"/>
       <use xlink:href="#ArialMT-41" transform="translate(138.916016 0)"/>
       <use xlink:href="#ArialMT-50" transform="translate(205.615234 0)"/>
       <use xlink:href="#ArialMT-2d" transform="translate(272.314453 0)"/>
       <use xlink:href="#ArialMT-44" transform="translate(305.615234 0)"/>
       <use xlink:href="#ArialMT-44" transform="translate(377.832031 0)"/>
      </g>
     </g>
    </g>
   </g>
   <g id="matplotlib.axis_2">
    <g id="ytick_1">
     <g id="line2d_4">
      <defs>
       <path id="m97ddf9ffad" d="M 0 0 
L -6 0 
" style="stroke: #262626; stroke-width: 1.25"/>
      </defs>
      <g>
       <use xlink:href="#m97ddf9ffad" x="49.695313" y="124.2" style="fill: #262626; stroke: #262626; stroke-width: 1.25"/>
      </g>
     </g>
     <g id="text_4">
      <!-- 0 -->
      <g style="fill: #262626" transform="translate(34.078281 128.136797) scale(0.11 -0.11)">
       <defs>
        <path id="ArialMT-30" d="M 266 2259 
Q 266 3072 433 3567 
Q 600 4063 929 4331 
Q 1259 4600 1759 4600 
Q 2128 4600 2406 4451 
Q 2684 4303 2865 4023 
Q 3047 3744 3150 3342 
Q 3253 2941 3253 2259 
Q 3253 1453 3087 958 
Q 2922 463 2592 192 
Q 2263 -78 1759 -78 
Q 1097 -78 719 397 
Q 266 969 266 2259 
z
M 844 2259 
Q 844 1131 1108 757 
Q 1372 384 1759 384 
Q 2147 384 2411 759 
Q 2675 1134 2675 2259 
Q 2675 3391 2411 3762 
Q 2147 4134 1753 4134 
Q 1366 4134 1134 3806 
Q 844 3388 844 2259 
z
" transform="scale(0.015625)"/>
       </defs>
       <use xlink:href="#ArialMT-30"/>
      </g>
     </g>
    </g>
    <g id="ytick_2">
     <g id="line2d_5">
      <g>
       <use xlink:href="#m97ddf9ffad" x="49.695313" y="92.789333" style="fill: #262626; stroke: #262626; stroke-width: 1.25"/>
      </g>
     </g>
     <g id="text_5">
      <!-- 20k -->
      <g style="fill: #262626" transform="translate(22.46125 96.72613) scale(0.11 -0.11)">
       <defs>
        <path id="ArialMT-32" d="M 3222 541 
L 3222 0 
L 194 0 
Q 188 203 259 391 
Q 375 700 629 1000 
Q 884 1300 1366 1694 
Q 2113 2306 2375 2664 
Q 2638 3022 2638 3341 
Q 2638 3675 2398 3904 
Q 2159 4134 1775 4134 
Q 1369 4134 1125 3890 
Q 881 3647 878 3216 
L 300 3275 
Q 359 3922 746 4261 
Q 1134 4600 1788 4600 
Q 2447 4600 2831 4234 
Q 3216 3869 3216 3328 
Q 3216 3053 3103 2787 
Q 2991 2522 2730 2228 
Q 2469 1934 1863 1422 
Q 1356 997 1212 845 
Q 1069 694 975 541 
L 3222 541 
z
" transform="scale(0.015625)"/>
        <path id="ArialMT-6b" d="M 425 0 
L 425 4581 
L 988 4581 
L 988 1969 
L 2319 3319 
L 3047 3319 
L 1778 2088 
L 3175 0 
L 2481 0 
L 1384 1697 
L 988 1316 
L 988 0 
L 425 0 
z
" transform="scale(0.015625)"/>
       </defs>
       <use xlink:href="#ArialMT-32"/>
       <use xlink:href="#ArialMT-30" transform="translate(55.615234 0)"/>
       <use xlink:href="#ArialMT-6b" transform="translate(111.230469 0)"/>
      </g>
     </g>
    </g>
    <g id="ytick_3">
     <g id="line2d_6">
      <g>
       <use xlink:href="#m97ddf9ffad" x="49.695313" y="61.378666" style="fill: #262626; stroke: #262626; stroke-width: 1.25"/>
      </g>
     </g>
     <g id="text_6">
      <!-- 40k -->
      <g style="fill: #262626" transform="translate(22.46125 65.315463) scale(0.11 -0.11)">
       <defs>
        <path id="ArialMT-34" d="M 2069 0 
L 2069 1097 
L 81 1097 
L 81 1613 
L 2172 4581 
L 2631 4581 
L 2631 1613 
L 3250 1613 
L 3250 1097 
L 2631 1097 
L 2631 0 
L 2069 0 
z
M 2069 1613 
L 2069 3678 
L 634 1613 
L 2069 1613 
z
" transform="scale(0.015625)"/>
       </defs>
       <use xlink:href="#ArialMT-34"/>
       <use xlink:href="#ArialMT-30" transform="translate(55.615234 0)"/>
       <use xlink:href="#ArialMT-6b" transform="translate(111.230469 0)"/>
      </g>
     </g>
    </g>
    <g id="ytick_4">
     <g id="line2d_7">
      <g>
       <use xlink:href="#m97ddf9ffad" x="49.695313" y="29.967999" style="fill: #262626; stroke: #262626; stroke-width: 1.25"/>
      </g>
     </g>
     <g id="text_7">
      <!-- 60k -->
      <g style="fill: #262626" transform="translate(22.46125 33.904796) scale(0.11 -0.11)">
       <defs>
        <path id="ArialMT-36" d="M 3184 3459 
L 2625 3416 
Q 2550 3747 2413 3897 
Q 2184 4138 1850 4138 
Q 1581 4138 1378 3988 
Q 1113 3794 959 3422 
Q 806 3050 800 2363 
Q 1003 2672 1297 2822 
Q 1591 2972 1913 2972 
Q 2475 2972 2870 2558 
Q 3266 2144 3266 1488 
Q 3266 1056 3080 686 
Q 2894 316 2569 119 
Q 2244 -78 1831 -78 
Q 1128 -78 684 439 
Q 241 956 241 2144 
Q 241 3472 731 4075 
Q 1159 4600 1884 4600 
Q 2425 4600 2770 4297 
Q 3116 3994 3184 3459 
z
M 888 1484 
Q 888 1194 1011 928 
Q 1134 663 1356 523 
Q 1578 384 1822 384 
Q 2178 384 2434 671 
Q 2691 959 2691 1453 
Q 2691 1928 2437 2201 
Q 2184 2475 1800 2475 
Q 1419 2475 1153 2201 
Q 888 1928 888 1484 
z
" transform="scale(0.015625)"/>
       </defs>
       <use xlink:href="#ArialMT-36"/>
       <use xlink:href="#ArialMT-30" transform="translate(55.615234 0)"/>
       <use xlink:href="#ArialMT-6b" transform="translate(111.230469 0)"/>
      </g>
     </g>
    </g>
    <g id="text_8">
     <!-- Single Cells Count -->
     <g style="fill: #262626" transform="translate(15.935625 115.0575) rotate(-90) scale(0.12 -0.12)">
      <defs>
       <path id="ArialMT-69" d="M 425 3934 
L 425 4581 
L 988 4581 
L 988 3934 
L 425 3934 
z
M 425 0 
L 425 3319 
L 988 3319 
L 988 0 
L 425 0 
z
" transform="scale(0.015625)"/>
       <path id="ArialMT-6e" d="M 422 0 
L 422 3319 
L 928 3319 
L 928 2847 
Q 1294 3394 1984 3394 
Q 2284 3394 2536 3286 
Q 2788 3178 2913 3003 
Q 3038 2828 3088 2588 
Q 3119 2431 3119 2041 
L 3119 0 
L 2556 0 
L 2556 2019 
Q 2556 2363 2490 2533 
Q 2425 2703 2258 2804 
Q 2091 2906 1866 2906 
Q 1506 2906 1245 2678 
Q 984 2450 984 1813 
L 984 0 
L 422 0 
z
" transform="scale(0.015625)"/>
       <path id="ArialMT-67" d="M 319 -275 
L 866 -356 
Q 900 -609 1056 -725 
Q 1266 -881 1628 -881 
Q 2019 -881 2231 -725 
Q 2444 -569 2519 -288 
Q 2563 -116 2559 434 
Q 2191 0 1641 0 
Q 956 0 581 494 
Q 206 988 206 1678 
Q 206 2153 378 2554 
Q 550 2956 876 3175 
Q 1203 3394 1644 3394 
Q 2231 3394 2613 2919 
L 2613 3319 
L 3131 3319 
L 3131 450 
Q 3131 -325 2973 -648 
Q 2816 -972 2473 -1159 
Q 2131 -1347 1631 -1347 
Q 1038 -1347 672 -1080 
Q 306 -813 319 -275 
z
M 784 1719 
Q 784 1066 1043 766 
Q 1303 466 1694 466 
Q 2081 466 2343 764 
Q 2606 1063 2606 1700 
Q 2606 2309 2336 2618 
Q 2066 2928 1684 2928 
Q 1309 2928 1046 2623 
Q 784 2319 784 1719 
z
" transform="scale(0.015625)"/>
       <path id="ArialMT-6c" d="M 409 0 
L 409 4581 
L 972 4581 
L 972 0 
L 409 0 
z
" transform="scale(0.015625)"/>
       <path id="ArialMT-65" d="M 2694 1069 
L 3275 997 
Q 3138 488 2766 206 
Q 2394 -75 1816 -75 
Q 1088 -75 661 373 
Q 234 822 234 1631 
Q 234 2469 665 2931 
Q 1097 3394 1784 3394 
Q 2450 3394 2872 2941 
Q 3294 2488 3294 1666 
Q 3294 1616 3291 1516 
L 816 1516 
Q 847 969 1125 678 
Q 1403 388 1819 388 
Q 2128 388 2347 550 
Q 2566 713 2694 1069 
z
M 847 1978 
L 2700 1978 
Q 2663 2397 2488 2606 
Q 2219 2931 1791 2931 
Q 1403 2931 1139 2672 
Q 875 2413 847 1978 
z
" transform="scale(0.015625)"/>
       <path id="ArialMT-20" transform="scale(0.015625)"/>
       <path id="ArialMT-43" d="M 3763 1606 
L 4369 1453 
Q 4178 706 3683 314 
Q 3188 -78 2472 -78 
Q 1731 -78 1267 223 
Q 803 525 561 1097 
Q 319 1669 319 2325 
Q 319 3041 592 3573 
Q 866 4106 1370 4382 
Q 1875 4659 2481 4659 
Q 3169 4659 3637 4309 
Q 4106 3959 4291 3325 
L 3694 3184 
Q 3534 3684 3231 3912 
Q 2928 4141 2469 4141 
Q 1941 4141 1586 3887 
Q 1231 3634 1087 3207 
Q 944 2781 944 2328 
Q 944 1744 1114 1308 
Q 1284 872 1643 656 
Q 2003 441 2422 441 
Q 2931 441 3284 734 
Q 3638 1028 3763 1606 
z
" transform="scale(0.015625)"/>
       <path id="ArialMT-73" d="M 197 991 
L 753 1078 
Q 800 744 1014 566 
Q 1228 388 1613 388 
Q 2000 388 2187 545 
Q 2375 703 2375 916 
Q 2375 1106 2209 1216 
Q 2094 1291 1634 1406 
Q 1016 1563 777 1677 
Q 538 1791 414 1992 
Q 291 2194 291 2438 
Q 291 2659 392 2848 
Q 494 3038 669 3163 
Q 800 3259 1026 3326 
Q 1253 3394 1513 3394 
Q 1903 3394 2198 3281 
Q 2494 3169 2634 2976 
Q 2775 2784 2828 2463 
L 2278 2388 
Q 2241 2644 2061 2787 
Q 1881 2931 1553 2931 
Q 1166 2931 1000 2803 
Q 834 2675 834 2503 
Q 834 2394 903 2306 
Q 972 2216 1119 2156 
Q 1203 2125 1616 2013 
Q 2213 1853 2448 1751 
Q 2684 1650 2818 1456 
Q 2953 1263 2953 975 
Q 2953 694 2789 445 
Q 2625 197 2315 61 
Q 2006 -75 1616 -75 
Q 969 -75 630 194 
Q 291 463 197 991 
z
" transform="scale(0.015625)"/>
       <path id="ArialMT-6f" d="M 213 1659 
Q 213 2581 725 3025 
Q 1153 3394 1769 3394 
Q 2453 3394 2887 2945 
Q 3322 2497 3322 1706 
Q 3322 1066 3130 698 
Q 2938 331 2570 128 
Q 2203 -75 1769 -75 
Q 1072 -75 642 372 
Q 213 819 213 1659 
z
M 791 1659 
Q 791 1022 1069 705 
Q 1347 388 1769 388 
Q 2188 388 2466 706 
Q 2744 1025 2744 1678 
Q 2744 2294 2464 2611 
Q 2184 2928 1769 2928 
Q 1347 2928 1069 2612 
Q 791 2297 791 1659 
z
" transform="scale(0.015625)"/>
       <path id="ArialMT-75" d="M 2597 0 
L 2597 488 
Q 2209 -75 1544 -75 
Q 1250 -75 995 37 
Q 741 150 617 320 
Q 494 491 444 738 
Q 409 903 409 1263 
L 409 3319 
L 972 3319 
L 972 1478 
Q 972 1038 1006 884 
Q 1059 663 1231 536 
Q 1403 409 1656 409 
Q 1909 409 2131 539 
Q 2353 669 2445 892 
Q 2538 1116 2538 1541 
L 2538 3319 
L 3100 3319 
L 3100 0 
L 2597 0 
z
" transform="scale(0.015625)"/>
       <path id="ArialMT-74" d="M 1650 503 
L 1731 6 
Q 1494 -44 1306 -44 
Q 1000 -44 831 53 
Q 663 150 594 308 
Q 525 466 525 972 
L 525 2881 
L 113 2881 
L 113 3319 
L 525 3319 
L 525 4141 
L 1084 4478 
L 1084 3319 
L 1650 3319 
L 1650 2881 
L 1084 2881 
L 1084 941 
Q 1084 700 1114 631 
Q 1144 563 1211 522 
Q 1278 481 1403 481 
Q 1497 481 1650 503 
z
" transform="scale(0.015625)"/>
      </defs>
      <use xlink:href="#ArialMT-53"/>
      <use xlink:href="#ArialMT-69" transform="translate(66.699219 0)"/>
      <use xlink:href="#ArialMT-6e" transform="translate(88.916016 0)"/>
      <use xlink:href="#ArialMT-67" transform="translate(144.53125 0)"/>
      <use xlink:href="#ArialMT-6c" transform="translate(200.146484 0)"/>
      <use xlink:href="#ArialMT-65" transform="translate(222.363281 0)"/>
      <use xlink:href="#ArialMT-20" transform="translate(277.978516 0)"/>
      <use xlink:href="#ArialMT-43" transform="translate(305.761719 0)"/>
      <use xlink:href="#ArialMT-65" transform="translate(377.978516 0)"/>
      <use xlink:href="#ArialMT-6c" transform="translate(433.59375 0)"/>
      <use xlink:href="#ArialMT-6c" transform="translate(455.810547 0)"/>
      <use xlink:href="#ArialMT-73" transform="translate(478.027344 0)"/>
      <use xlink:href="#ArialMT-20" transform="translate(528.027344 0)"/>
      <use xlink:href="#ArialMT-43" transform="translate(555.810547 0)"/>
      <use xlink:href="#ArialMT-6f" transform="translate(628.027344 0)"/>
      <use xlink:href="#ArialMT-75" transform="translate(683.642578 0)"/>
      <use xlink:href="#ArialMT-6e" transform="translate(739.257812 0)"/>
      <use xlink:href="#ArialMT-74" transform="translate(794.873047 0)"/>
     </g>
    </g>
   </g>
   <g id="patch_3">
    <path d="M 60.004403 124.2 
L 71.786222 124.2 
L 71.786222 119.264992 
L 60.004403 119.264992 
z
" clip-path="url(#pc9cfa9dc9d)" style="fill: #4b4279; opacity: 0.8; stroke: #ffffff; stroke-linejoin: miter"/>
   </g>
   <g id="patch_4">
    <path d="M 133.640767 124.2 
L 145.422585 124.2 
L 145.422585 112.153224 
L 133.640767 112.153224 
z
" clip-path="url(#pc9cfa9dc9d)" style="fill: #4b4279; opacity: 0.8; stroke: #ffffff; stroke-linejoin: miter"/>
   </g>
   <g id="patch_5">
    <path d="M 207.277131 124.2 
L 219.058949 124.2 
L 219.058949 87.18745 
L 207.277131 87.18745 
z
" clip-path="url(#pc9cfa9dc9d)" style="fill: #4b4279; opacity: 0.8; stroke: #ffffff; stroke-linejoin: miter"/>
   </g>
   <g id="patch_6">
    <path d="M 71.786222 124.2 
L 83.56804 124.2 
L 83.56804 114.949166 
L 71.786222 114.949166 
z
" clip-path="url(#pc9cfa9dc9d)" style="fill: #3c6682; opacity: 0.8; stroke: #ffffff; stroke-linejoin: miter"/>
   </g>
   <g id="patch_7">
    <path d="M 145.422585 124.2 
L 157.204403 124.2 
L 157.204403 100.248581 
L 145.422585 100.248581 
z
" clip-path="url(#pc9cfa9dc9d)" style="fill: #3c6682; opacity: 0.8; stroke: #ffffff; stroke-linejoin: miter"/>
   </g>
   <g id="patch_8">
    <path d="M 219.058949 124.2 
L 230.840767 124.2 
L 230.840767 61.711357 
L 219.058949 61.711357 
z
" clip-path="url(#pc9cfa9dc9d)" style="fill: #3c6682; opacity: 0.8; stroke: #ffffff; stroke-linejoin: miter"/>
   </g>
   <g id="patch_9">
    <path d="M 83.56804 124.2 
L 95.349858 124.2 
L 95.349858 113.712109 
L 83.56804 113.712109 
z
" clip-path="url(#pc9cfa9dc9d)" style="fill: #2f837f; opacity: 0.8; stroke: #ffffff; stroke-linejoin: miter"/>
   </g>
   <g id="patch_10">
    <path d="M 157.204403 124.2 
L 168.986222 124.2 
L 168.986222 100.144664 
L 157.204403 100.144664 
z
" clip-path="url(#pc9cfa9dc9d)" style="fill: #2f837f; opacity: 0.8; stroke: #ffffff; stroke-linejoin: miter"/>
   </g>
   <g id="patch_11">
    <path d="M 230.840767 124.2 
L 242.622585 124.2 
L 242.622585 60.783041 
L 230.840767 60.783041 
z
" clip-path="url(#pc9cfa9dc9d)" style="fill: #2f837f; opacity: 0.8; stroke: #ffffff; stroke-linejoin: miter"/>
   </g>
   <g id="patch_12">
    <path d="M 95.349858 124.2 
L 107.131676 124.2 
L 107.131676 114.236885 
L 95.349858 114.236885 
z
" clip-path="url(#pc9cfa9dc9d)" style="fill: #45a778; opacity: 0.8; stroke: #ffffff; stroke-linejoin: miter"/>
   </g>
   <g id="patch_13">
    <path d="M 168.986222 124.2 
L 180.76804 124.2 
L 180.76804 100.347437 
L 168.986222 100.347437 
z
" clip-path="url(#pc9cfa9dc9d)" style="fill: #45a778; opacity: 0.8; stroke: #ffffff; stroke-linejoin: miter"/>
   </g>
   <g id="patch_14">
    <path d="M 242.622585 124.2 
L 254.404403 124.2 
L 254.404403 69.629201 
L 242.622585 69.629201 
z
" clip-path="url(#pc9cfa9dc9d)" style="fill: #45a778; opacity: 0.8; stroke: #ffffff; stroke-linejoin: miter"/>
   </g>
   <g id="patch_15">
    <path d="M 107.131676 124.2 
L 118.913494 124.2 
L 118.913494 116.55412 
L 107.131676 116.55412 
z
" clip-path="url(#pc9cfa9dc9d)" style="fill: #8fc456; opacity: 0.8; stroke: #ffffff; stroke-linejoin: miter"/>
   </g>
   <g id="patch_16">
    <path d="M 180.76804 124.2 
L 192.549858 124.2 
L 192.549858 106.885393 
L 180.76804 106.885393 
z
" clip-path="url(#pc9cfa9dc9d)" style="fill: #8fc456; opacity: 0.8; stroke: #ffffff; stroke-linejoin: miter"/>
   </g>
   <g id="patch_17">
    <path d="M 254.404403 124.2 
L 266.186222 124.2 
L 266.186222 83.181857 
L 254.404403 83.181857 
z
" clip-path="url(#pc9cfa9dc9d)" style="fill: #8fc456; opacity: 0.8; stroke: #ffffff; stroke-linejoin: miter"/>
   </g>
   <g id="line2d_8">
    <path d="M 65.895313 120.705714 
L 65.895313 117.746286 
" clip-path="url(#pc9cfa9dc9d)" style="fill: none; stroke: #424242; stroke-width: 2.7; stroke-linecap: round"/>
   </g>
   <g id="line2d_9">
    <path d="M 139.531676 115.38389 
L 139.531676 108.628041 
" clip-path="url(#pc9cfa9dc9d)" style="fill: none; stroke: #424242; stroke-width: 2.7; stroke-linecap: round"/>
   </g>
   <g id="line2d_10">
    <path d="M 213.16804 92.446991 
L 213.16804 82.091231 
" clip-path="url(#pc9cfa9dc9d)" style="fill: none; stroke: #424242; stroke-width: 2.7; stroke-linecap: round"/>
   </g>
   <g id="line2d_11">
    <path d="M 77.677131 117.582604 
L 77.677131 112.179887 
" clip-path="url(#pc9cfa9dc9d)" style="fill: none; stroke: #424242; stroke-width: 2.7; stroke-linecap: round"/>
   </g>
   <g id="line2d_12">
    <path d="M 151.313494 106.475451 
L 151.313494 93.939739 
" clip-path="url(#pc9cfa9dc9d)" style="fill: none; stroke: #424242; stroke-width: 2.7; stroke-linecap: round"/>
   </g>
   <g id="line2d_13">
    <path d="M 224.949858 68.097113 
L 224.949858 54.721293 
" clip-path="url(#pc9cfa9dc9d)" style="fill: none; stroke: #424242; stroke-width: 2.7; stroke-linecap: round"/>
   </g>
   <g id="line2d_14">
    <path d="M 89.458949 116.312798 
L 89.458949 111.060817 
" clip-path="url(#pc9cfa9dc9d)" style="fill: none; stroke: #424242; stroke-width: 2.7; stroke-linecap: round"/>
   </g>
   <g id="line2d_15">
    <path d="M 163.095313 105.918115 
L 163.095313 93.34697 
" clip-path="url(#pc9cfa9dc9d)" style="fill: none; stroke: #424242; stroke-width: 2.7; stroke-linecap: round"/>
   </g>
   <g id="line2d_16">
    <path d="M 236.731676 69.151517 
L 236.731676 51.444427 
" clip-path="url(#pc9cfa9dc9d)" style="fill: none; stroke: #424242; stroke-width: 2.7; stroke-linecap: round"/>
   </g>
   <g id="line2d_17">
    <path d="M 101.240767 116.337051 
L 101.240767 112.315922 
" clip-path="url(#pc9cfa9dc9d)" style="fill: none; stroke: #424242; stroke-width: 2.7; stroke-linecap: round"/>
   </g>
   <g id="line2d_18">
    <path d="M 174.877131 105.696417 
L 174.877131 94.883822 
" clip-path="url(#pc9cfa9dc9d)" style="fill: none; stroke: #424242; stroke-width: 2.7; stroke-linecap: round"/>
   </g>
   <g id="line2d_19">
    <path d="M 248.513494 76.972753 
L 248.513494 63.347513 
" clip-path="url(#pc9cfa9dc9d)" style="fill: none; stroke: #424242; stroke-width: 2.7; stroke-linecap: round"/>
   </g>
   <g id="line2d_20">
    <path d="M 113.022585 117.918426 
L 113.022585 115.30178 
" clip-path="url(#pc9cfa9dc9d)" style="fill: none; stroke: #424242; stroke-width: 2.7; stroke-linecap: round"/>
   </g>
   <g id="line2d_21">
    <path d="M 186.658949 111.237947 
L 186.658949 101.956975 
" clip-path="url(#pc9cfa9dc9d)" style="fill: none; stroke: #424242; stroke-width: 2.7; stroke-linecap: round"/>
   </g>
   <g id="line2d_22">
    <path d="M 260.295313 90.666502 
L 260.295313 76.555309 
" clip-path="url(#pc9cfa9dc9d)" style="fill: none; stroke: #424242; stroke-width: 2.7; stroke-linecap: round"/>
   </g>
   <g id="line2d_23">
    <path d="M 65.895313 100.935339 
L 65.895313 98.94588 
L 89.458949 98.94588 
L 89.458949 100.935339 
" clip-path="url(#pc9cfa9dc9d)" style="fill: none; stroke: #333333; stroke-width: 1.5; stroke-linecap: round"/>
   </g>
   <g id="line2d_24">
    <path d="M 139.531676 73.647322 
L 139.531676 71.657863 
L 163.095313 71.657863 
L 163.095313 73.647322 
" clip-path="url(#pc9cfa9dc9d)" style="fill: none; stroke: #333333; stroke-width: 1.5; stroke-linecap: round"/>
   </g>
   <g id="line2d_25">
    <path d="M 213.16804 23.495481 
L 213.16804 21.506022 
L 236.731676 21.506022 
L 236.731676 23.495481 
" clip-path="url(#pc9cfa9dc9d)" style="fill: none; stroke: #333333; stroke-width: 1.5; stroke-linecap: round"/>
   </g>
   <g id="patch_18">
    <path d="M 49.695313 124.2 
L 49.695313 7.2 
" style="fill: none; stroke: #262626; stroke-width: 1.25; stroke-linejoin: miter; stroke-linecap: square"/>
   </g>
   <g id="patch_19">
    <path d="M 276.495313 124.2 
L 276.495313 7.2 
" style="fill: none; stroke: #262626; stroke-width: 1.25; stroke-linejoin: miter; stroke-linecap: square"/>
   </g>
   <g id="patch_20">
    <path d="M 49.695313 124.2 
L 276.495313 124.2 
" style="fill: none; stroke: #262626; stroke-width: 1.25; stroke-linejoin: miter; stroke-linecap: square"/>
   </g>
   <g id="patch_21">
    <path d="M 49.695313 7.2 
L 276.495313 7.2 
" style="fill: none; stroke: #262626; stroke-width: 1.25; stroke-linejoin: miter; stroke-linecap: square"/>
   </g>
   <g id="PathCollection_1">
    <defs>
     <path id="C0_0_5881fb124b" d="M 0 2.5 
C 0.663008 2.5 1.29895 2.236584 1.767767 1.767767 
C 2.236584 1.29895 2.5 0.663008 2.5 -0 
C 2.5 -0.663008 2.236584 -1.29895 1.767767 -1.767767 
C 1.29895 -2.236584 0.663008 -2.5 0 -2.5 
C -0.663008 -2.5 -1.29895 -2.236584 -1.767767 -1.767767 
C -2.236584 -1.29895 -2.5 -0.663008 -2.5 0 
C -2.5 0.663008 -2.236584 1.29895 -1.767767 1.767767 
C -1.29895 2.236584 -0.663008 2.5 0 2.5 
z
"/>
    </defs>
    <g clip-path="url(#pc9cfa9dc9d)">
     <use xlink:href="#C0_0_5881fb124b" x="64.799702" y="121.738974" style="fill: #ffffff; stroke: #000000; stroke-width: 0.4"/>
    </g>
    <g clip-path="url(#pc9cfa9dc9d)">
     <use xlink:href="#C0_0_5881fb124b" x="65.609155" y="121.544228" style="fill: #ffffff; stroke: #000000; stroke-width: 0.4"/>
    </g>
    <g clip-path="url(#pc9cfa9dc9d)">
     <use xlink:href="#C0_0_5881fb124b" x="66.359633" y="121.738974" style="fill: #ffffff; stroke: #000000; stroke-width: 0.4"/>
    </g>
   </g>
   <g id="PathCollection_2">
    <defs>
     <path id="C1_0_e7ea25bd05" d="M 0 2.5 
C 0.663008 2.5 1.29895 2.236584 1.767767 1.767767 
C 2.236584 1.29895 2.5 0.663008 2.5 -0 
C 2.5 -0.663008 2.236584 -1.29895 1.767767 -1.767767 
C 1.29895 -2.236584 0.663008 -2.5 0 -2.5 
C -0.663008 -2.5 -1.29895 -2.236584 -1.767767 -1.767767 
C -2.236584 -1.29895 -2.5 -0.663008 -2.5 0 
C -2.5 0.663008 -2.236584 1.29895 -1.767767 1.767767 
C -1.29895 2.236584 -0.663008 2.5 0 2.5 
z
"/>
    </defs>
    <g clip-path="url(#pc9cfa9dc9d)">
     <use xlink:href="#C1_0_e7ea25bd05" x="76.524171" y="119.645453" style="fill: #ffffff; stroke: #000000; stroke-width: 0.4"/>
    </g>
    <g clip-path="url(#pc9cfa9dc9d)">
     <use xlink:href="#C1_0_e7ea25bd05" x="76.427094" y="120.633319" style="fill: #ffffff; stroke: #000000; stroke-width: 0.4"/>
    </g>
    <g clip-path="url(#pc9cfa9dc9d)">
     <use xlink:href="#C1_0_e7ea25bd05" x="79.138206" y="121.063645" style="fill: #ffffff; stroke: #000000; stroke-width: 0.4"/>
    </g>
   </g>
   <g id="PathCollection_3">
    <defs>
     <path id="C2_0_267a6c3b0f" d="M 0 2.5 
C 0.663008 2.5 1.29895 2.236584 1.767767 1.767767 
C 2.236584 1.29895 2.5 0.663008 2.5 -0 
C 2.5 -0.663008 2.236584 -1.29895 1.767767 -1.767767 
C 1.29895 -2.236584 0.663008 -2.5 0 -2.5 
C -0.663008 -2.5 -1.29895 -2.236584 -1.767767 -1.767767 
C -2.236584 -1.29895 -2.5 -0.663008 -2.5 0 
C -2.5 0.663008 -2.236584 1.29895 -1.767767 1.767767 
C -1.29895 2.236584 -0.663008 2.5 0 2.5 
z
"/>
    </defs>
    <g clip-path="url(#pc9cfa9dc9d)">
     <use xlink:href="#C2_0_267a6c3b0f" x="88.075893" y="119.521381" style="fill: #ffffff; stroke: #000000; stroke-width: 0.4"/>
    </g>
    <g clip-path="url(#pc9cfa9dc9d)">
     <use xlink:href="#C2_0_267a6c3b0f" x="90.356348" y="119.928149" style="fill: #ffffff; stroke: #000000; stroke-width: 0.4"/>
    </g>
    <g clip-path="url(#pc9cfa9dc9d)">
     <use xlink:href="#C2_0_267a6c3b0f" x="89.77382" y="119.888886" style="fill: #ffffff; stroke: #000000; stroke-width: 0.4"/>
    </g>
   </g>
   <g id="PathCollection_4">
    <path d="M 0 165.094406 
C 0.663008 165.094406 1.29895 164.83099 1.767767 164.362173 
C 2.236584 163.893356 2.5 163.257414 2.5 162.594406 
C 2.5 161.931399 2.236584 161.295457 1.767767 160.826639 
C 1.29895 160.357822 0.663008 160.094406 0 160.094406 
C -0.663008 160.094406 -1.29895 160.357822 -1.767767 160.826639 
C -2.236584 161.295457 -2.5 161.931399 -2.5 162.594406 
C -2.5 163.257414 -2.236584 163.893356 -1.767767 164.362173 
C -1.29895 164.83099 -0.663008 165.094406 0 165.094406 
" clip-path="url(#pc9cfa9dc9d)" style="fill: none; stroke: #000000; stroke-width: 0.4"/>
   </g>
   <g id="PathCollection_5">
    <defs>
     <path id="C3_0_c8bca12f0c" d="M 0 2.5 
C 0.663008 2.5 1.29895 2.236584 1.767767 1.767767 
C 2.236584 1.29895 2.5 0.663008 2.5 -0 
C 2.5 -0.663008 2.236584 -1.29895 1.767767 -1.767767 
C 1.29895 -2.236584 0.663008 -2.5 0 -2.5 
C -0.663008 -2.5 -1.29895 -2.236584 -1.767767 -1.767767 
C -2.236584 -1.29895 -2.5 -0.663008 -2.5 0 
C -2.5 0.663008 -2.236584 1.29895 -1.767767 1.767767 
C -1.29895 2.236584 -0.663008 2.5 0 2.5 
z
"/>
    </defs>
    <g clip-path="url(#pc9cfa9dc9d)">
     <use xlink:href="#C3_0_c8bca12f0c" x="111.612641" y="120.182576" style="fill: #ffffff; stroke: #000000; stroke-width: 0.4"/>
    </g>
    <g clip-path="url(#pc9cfa9dc9d)">
     <use xlink:href="#C3_0_c8bca12f0c" x="114.243748" y="118.392168" style="fill: #ffffff; stroke: #000000; stroke-width: 0.4"/>
    </g>
    <g clip-path="url(#pc9cfa9dc9d)">
     <use xlink:href="#C3_0_c8bca12f0c" x="113.836705" y="119.054933" style="fill: #ffffff; stroke: #000000; stroke-width: 0.4"/>
    </g>
   </g>
   <g id="PathCollection_6">
    <defs>
     <path id="C4_0_6aa125fb23" d="M 0 2.5 
C 0.663008 2.5 1.29895 2.236584 1.767767 1.767767 
C 2.236584 1.29895 2.5 0.663008 2.5 -0 
C 2.5 -0.663008 2.236584 -1.29895 1.767767 -1.767767 
C 1.29895 -2.236584 0.663008 -2.5 0 -2.5 
C -0.663008 -2.5 -1.29895 -2.236584 -1.767767 -1.767767 
C -2.236584 -1.29895 -2.5 -0.663008 -2.5 0 
C -2.5 0.663008 -2.236584 1.29895 -1.767767 1.767767 
C -1.29895 2.236584 -0.663008 2.5 0 2.5 
z
"/>
    </defs>
    <g clip-path="url(#pc9cfa9dc9d)">
     <use xlink:href="#C4_0_6aa125fb23" x="139.45087" y="118.712556" style="fill: #ffffff; stroke: #000000; stroke-width: 0.4"/>
    </g>
    <g clip-path="url(#pc9cfa9dc9d)">
     <use xlink:href="#C4_0_6aa125fb23" x="140.430609" y="118.732973" style="fill: #ffffff; stroke: #000000; stroke-width: 0.4"/>
    </g>
    <g clip-path="url(#pc9cfa9dc9d)">
     <use xlink:href="#C4_0_6aa125fb23" x="138.254527" y="118.253961" style="fill: #ffffff; stroke: #000000; stroke-width: 0.4"/>
    </g>
   </g>
   <g id="PathCollection_7">
    <defs>
     <path id="C5_0_22cc6a5d28" d="M 0 2.5 
C 0.663008 2.5 1.29895 2.236584 1.767767 1.767767 
C 2.236584 1.29895 2.5 0.663008 2.5 -0 
C 2.5 -0.663008 2.236584 -1.29895 1.767767 -1.767767 
C 1.29895 -2.236584 0.663008 -2.5 0 -2.5 
C -0.663008 -2.5 -1.29895 -2.236584 -1.767767 -1.767767 
C -2.236584 -1.29895 -2.5 -0.663008 -2.5 0 
C -2.5 0.663008 -2.236584 1.29895 -1.767767 1.767767 
C -1.29895 2.236584 -0.663008 2.5 0 2.5 
z
"/>
    </defs>
    <g clip-path="url(#pc9cfa9dc9d)">
     <use xlink:href="#C5_0_22cc6a5d28" x="151.692607" y="113.42143" style="fill: #ffffff; stroke: #000000; stroke-width: 0.4"/>
    </g>
    <g clip-path="url(#pc9cfa9dc9d)">
     <use xlink:href="#C5_0_22cc6a5d28" x="150.405435" y="115.339051" style="fill: #ffffff; stroke: #000000; stroke-width: 0.4"/>
    </g>
    <g clip-path="url(#pc9cfa9dc9d)">
     <use xlink:href="#C5_0_22cc6a5d28" x="150.606852" y="114.626029" style="fill: #ffffff; stroke: #000000; stroke-width: 0.4"/>
    </g>
   </g>
   <g id="PathCollection_8">
    <defs>
     <path id="C6_0_21c1c56fb4" d="M 0 2.5 
C 0.663008 2.5 1.29895 2.236584 1.767767 1.767767 
C 2.236584 1.29895 2.5 0.663008 2.5 -0 
C 2.5 -0.663008 2.236584 -1.29895 1.767767 -1.767767 
C 1.29895 -2.236584 0.663008 -2.5 0 -2.5 
C -0.663008 -2.5 -1.29895 -2.236584 -1.767767 -1.767767 
C -2.236584 -1.29895 -2.5 -0.663008 -2.5 0 
C -2.5 0.663008 -2.236584 1.29895 -1.767767 1.767767 
C -1.29895 2.236584 -0.663008 2.5 0 2.5 
z
"/>
    </defs>
    <g clip-path="url(#pc9cfa9dc9d)">
     <use xlink:href="#C6_0_21c1c56fb4" x="164.354207" y="111.835191" style="fill: #ffffff; stroke: #000000; stroke-width: 0.4"/>
    </g>
    <g clip-path="url(#pc9cfa9dc9d)">
     <use xlink:href="#C6_0_21c1c56fb4" x="161.882401" y="114.980969" style="fill: #ffffff; stroke: #000000; stroke-width: 0.4"/>
    </g>
    <g clip-path="url(#pc9cfa9dc9d)">
     <use xlink:href="#C6_0_21c1c56fb4" x="164.36271" y="112.446128" style="fill: #ffffff; stroke: #000000; stroke-width: 0.4"/>
    </g>
   </g>
   <g id="PathCollection_9">
    <path d="M 0 165.094406 
C 0.663008 165.094406 1.29895 164.83099 1.767767 164.362173 
C 2.236584 163.893356 2.5 163.257414 2.5 162.594406 
C 2.5 161.931399 2.236584 161.295457 1.767767 160.826639 
C 1.29895 160.357822 0.663008 160.094406 0 160.094406 
C -0.663008 160.094406 -1.29895 160.357822 -1.767767 160.826639 
C -2.236584 161.295457 -2.5 161.931399 -2.5 162.594406 
C -2.5 163.257414 -2.236584 163.893356 -1.767767 164.362173 
C -1.29895 164.83099 -0.663008 165.094406 0 165.094406 
" clip-path="url(#pc9cfa9dc9d)" style="fill: none; stroke: #000000; stroke-width: 0.4"/>
   </g>
   <g id="PathCollection_10">
    <defs>
     <path id="C7_0_ba0731fa66" d="M 0 2.5 
C 0.663008 2.5 1.29895 2.236584 1.767767 1.767767 
C 2.236584 1.29895 2.5 0.663008 2.5 -0 
C 2.5 -0.663008 2.236584 -1.29895 1.767767 -1.767767 
C 1.29895 -2.236584 0.663008 -2.5 0 -2.5 
C -0.663008 -2.5 -1.29895 -2.236584 -1.767767 -1.767767 
C -2.236584 -1.29895 -2.5 -0.663008 -2.5 0 
C -2.5 0.663008 -2.236584 1.29895 -1.767767 1.767767 
C -1.29895 2.236584 -0.663008 2.5 0 2.5 
z
"/>
    </defs>
    <g clip-path="url(#pc9cfa9dc9d)">
     <use xlink:href="#C7_0_ba0731fa66" x="187.324946" y="116.030086" style="fill: #ffffff; stroke: #000000; stroke-width: 0.4"/>
    </g>
    <g clip-path="url(#pc9cfa9dc9d)">
     <use xlink:href="#C7_0_ba0731fa66" x="187.881095" y="115.869891" style="fill: #ffffff; stroke: #000000; stroke-width: 0.4"/>
    </g>
    <g clip-path="url(#pc9cfa9dc9d)">
     <use xlink:href="#C7_0_ba0731fa66" x="186.744574" y="116.831058" style="fill: #ffffff; stroke: #000000; stroke-width: 0.4"/>
    </g>
   </g>
   <g id="PathCollection_11">
    <defs>
     <path id="C8_0_c9d9fc4c24" d="M 0 2.5 
C 0.663008 2.5 1.29895 2.236584 1.767767 1.767767 
C 2.236584 1.29895 2.5 0.663008 2.5 -0 
C 2.5 -0.663008 2.236584 -1.29895 1.767767 -1.767767 
C 1.29895 -2.236584 0.663008 -2.5 0 -2.5 
C -0.663008 -2.5 -1.29895 -2.236584 -1.767767 -1.767767 
C -2.236584 -1.29895 -2.5 -0.663008 -2.5 0 
C -2.5 0.663008 -2.236584 1.29895 -1.767767 1.767767 
C -1.29895 2.236584 -0.663008 2.5 0 2.5 
z
"/>
    </defs>
    <g clip-path="url(#pc9cfa9dc9d)">
     <use xlink:href="#C8_0_c9d9fc4c24" x="214.629702" y="96.635569" style="fill: #ffffff; stroke: #000000; stroke-width: 0.4"/>
    </g>
    <g clip-path="url(#pc9cfa9dc9d)">
     <use xlink:href="#C8_0_c9d9fc4c24" x="213.256718" y="92.197242" style="fill: #ffffff; stroke: #000000; stroke-width: 0.4"/>
    </g>
    <g clip-path="url(#pc9cfa9dc9d)">
     <use xlink:href="#C8_0_c9d9fc4c24" x="212.66733" y="93.717518" style="fill: #ffffff; stroke: #000000; stroke-width: 0.4"/>
    </g>
    <g clip-path="url(#pc9cfa9dc9d)">
     <use xlink:href="#C8_0_c9d9fc4c24" x="214.467927" y="96.635569" style="fill: #ffffff; stroke: #000000; stroke-width: 0.4"/>
    </g>
    <g clip-path="url(#pc9cfa9dc9d)">
     <use xlink:href="#C8_0_c9d9fc4c24" x="212.585016" y="90.942386" style="fill: #ffffff; stroke: #000000; stroke-width: 0.4"/>
    </g>
    <g clip-path="url(#pc9cfa9dc9d)">
     <use xlink:href="#C8_0_c9d9fc4c24" x="212.058119" y="100.144141" style="fill: #ffffff; stroke: #000000; stroke-width: 0.4"/>
    </g>
   </g>
   <g id="PathCollection_12">
    <defs>
     <path id="C9_0_8d132d862b" d="M 0 2.5 
C 0.663008 2.5 1.29895 2.236584 1.767767 1.767767 
C 2.236584 1.29895 2.5 0.663008 2.5 -0 
C 2.5 -0.663008 2.236584 -1.29895 1.767767 -1.767767 
C 1.29895 -2.236584 0.663008 -2.5 0 -2.5 
C -0.663008 -2.5 -1.29895 -2.236584 -1.767767 -1.767767 
C -2.236584 -1.29895 -2.5 -0.663008 -2.5 0 
C -2.5 0.663008 -2.236584 1.29895 -1.767767 1.767767 
C -1.29895 2.236584 -0.663008 2.5 0 2.5 
z
"/>
    </defs>
    <g clip-path="url(#pc9cfa9dc9d)">
     <use xlink:href="#C9_0_8d132d862b" x="223.636619" y="76.385112" style="fill: #ffffff; stroke: #000000; stroke-width: 0.4"/>
    </g>
    <g clip-path="url(#pc9cfa9dc9d)">
     <use xlink:href="#C9_0_8d132d862b" x="225.860093" y="73.432509" style="fill: #ffffff; stroke: #000000; stroke-width: 0.4"/>
    </g>
    <g clip-path="url(#pc9cfa9dc9d)">
     <use xlink:href="#C9_0_8d132d862b" x="223.528537" y="75.166378" style="fill: #ffffff; stroke: #000000; stroke-width: 0.4"/>
    </g>
   </g>
   <g id="PathCollection_13">
    <defs>
     <path id="Ca_0_5b05ac629d" d="M 0 2.5 
C 0.663008 2.5 1.29895 2.236584 1.767767 1.767767 
C 2.236584 1.29895 2.5 0.663008 2.5 -0 
C 2.5 -0.663008 2.236584 -1.29895 1.767767 -1.767767 
C 1.29895 -2.236584 0.663008 -2.5 0 -2.5 
C -0.663008 -2.5 -1.29895 -2.236584 -1.767767 -1.767767 
C -2.236584 -1.29895 -2.5 -0.663008 -2.5 0 
C -2.5 0.663008 -2.236584 1.29895 -1.767767 1.767767 
C -1.29895 2.236584 -0.663008 2.5 0 2.5 
z
"/>
    </defs>
    <g clip-path="url(#pc9cfa9dc9d)">
     <use xlink:href="#Ca_0_5b05ac629d" x="236.434392" y="70.81286" style="fill: #ffffff; stroke: #000000; stroke-width: 0.4"/>
    </g>
    <g clip-path="url(#pc9cfa9dc9d)">
     <use xlink:href="#Ca_0_5b05ac629d" x="236.356115" y="80.584718" style="fill: #ffffff; stroke: #000000; stroke-width: 0.4"/>
    </g>
    <g clip-path="url(#pc9cfa9dc9d)">
     <use xlink:href="#Ca_0_5b05ac629d" x="236.70428" y="75.722347" style="fill: #ffffff; stroke: #000000; stroke-width: 0.4"/>
    </g>
   </g>
   <g id="PathCollection_14">
    <path d="M 0 165.094406 
C 0.663008 165.094406 1.29895 164.83099 1.767767 164.362173 
C 2.236584 163.893356 2.5 163.257414 2.5 162.594406 
C 2.5 161.931399 2.236584 161.295457 1.767767 160.826639 
C 1.29895 160.357822 0.663008 160.094406 0 160.094406 
C -0.663008 160.094406 -1.29895 160.357822 -1.767767 160.826639 
C -2.236584 161.295457 -2.5 161.931399 -2.5 162.594406 
C -2.5 163.257414 -2.236584 163.893356 -1.767767 164.362173 
C -1.29895 164.83099 -0.663008 165.094406 0 165.094406 
" clip-path="url(#pc9cfa9dc9d)" style="fill: none; stroke: #000000; stroke-width: 0.4"/>
   </g>
   <g id="PathCollection_15">
    <defs>
     <path id="Cb_0_d6e650c5ad" d="M 0 2.5 
C 0.663008 2.5 1.29895 2.236584 1.767767 1.767767 
C 2.236584 1.29895 2.5 0.663008 2.5 -0 
C 2.5 -0.663008 2.236584 -1.29895 1.767767 -1.767767 
C 1.29895 -2.236584 0.663008 -2.5 0 -2.5 
C -0.663008 -2.5 -1.29895 -2.236584 -1.767767 -1.767767 
C -2.236584 -1.29895 -2.5 -0.663008 -2.5 0 
C -2.5 0.663008 -2.236584 1.29895 -1.767767 1.767767 
C -1.29895 2.236584 -0.663008 2.5 0 2.5 
z
"/>
    </defs>
    <g clip-path="url(#pc9cfa9dc9d)">
     <use xlink:href="#Cb_0_d6e650c5ad" x="260.016589" y="88.137413" style="fill: #ffffff; stroke: #000000; stroke-width: 0.4"/>
    </g>
    <g clip-path="url(#pc9cfa9dc9d)">
     <use xlink:href="#Cb_0_d6e650c5ad" x="261.13385" y="82.725355" style="fill: #ffffff; stroke: #000000; stroke-width: 0.4"/>
    </g>
    <g clip-path="url(#pc9cfa9dc9d)">
     <use xlink:href="#Cb_0_d6e650c5ad" x="258.926523" y="84.768619" style="fill: #ffffff; stroke: #000000; stroke-width: 0.4"/>
    </g>
   </g>
   <g id="PathCollection_16">
    <path d="M 66.22984 117.500394 
L 63.72984 122.500394 
L 68.72984 122.500394 
z
" clip-path="url(#pc9cfa9dc9d)" style="fill: #ffffff; stroke: #000000; stroke-width: 0.4"/>
    <path d="M 64.830914 114.585484 
L 62.330914 119.585484 
L 67.330914 119.585484 
z
" clip-path="url(#pc9cfa9dc9d)" style="fill: #ffffff; stroke: #000000; stroke-width: 0.4"/>
    <path d="M 65.816892 115.706845 
L 63.316892 120.706845 
L 68.316892 120.706845 
z
" clip-path="url(#pc9cfa9dc9d)" style="fill: #ffffff; stroke: #000000; stroke-width: 0.4"/>
   </g>
   <g id="PathCollection_17">
    <path d="M 76.538434 110.0969 
L 74.038434 115.0969 
L 79.038434 115.0969 
z
" clip-path="url(#pc9cfa9dc9d)" style="fill: #ffffff; stroke: #000000; stroke-width: 0.4"/>
    <path d="M 79.149588 107.312344 
L 76.649588 112.312344 
L 81.649588 112.312344 
z
" clip-path="url(#pc9cfa9dc9d)" style="fill: #ffffff; stroke: #000000; stroke-width: 0.4"/>
    <path d="M 79.050555 109.118457 
L 76.550555 114.118457 
L 81.550555 114.118457 
z
" clip-path="url(#pc9cfa9dc9d)" style="fill: #ffffff; stroke: #000000; stroke-width: 0.4"/>
   </g>
   <g id="PathCollection_18">
    <path d="M 90.384376 108.939417 
L 87.884376 113.939417 
L 92.884376 113.939417 
z
" clip-path="url(#pc9cfa9dc9d)" style="fill: #ffffff; stroke: #000000; stroke-width: 0.4"/>
    <path d="M 89.603777 107.227535 
L 87.103777 112.227535 
L 92.103777 112.227535 
z
" clip-path="url(#pc9cfa9dc9d)" style="fill: #ffffff; stroke: #000000; stroke-width: 0.4"/>
    <path d="M 89.61375 108.152579 
L 87.11375 113.152579 
L 92.11375 113.152579 
z
" clip-path="url(#pc9cfa9dc9d)" style="fill: #ffffff; stroke: #000000; stroke-width: 0.4"/>
   </g>
   <g id="PathCollection_19">
    <path d="M 100.162564 110.758094 
L 97.662564 115.758094 
L 102.662564 115.758094 
z
" clip-path="url(#pc9cfa9dc9d)" style="fill: #ffffff; stroke: #000000; stroke-width: 0.4"/>
    <path d="M 102.119116 110.577483 
L 99.619116 115.577483 
L 104.619116 115.577483 
z
" clip-path="url(#pc9cfa9dc9d)" style="fill: #ffffff; stroke: #000000; stroke-width: 0.4"/>
    <path d="M 102.289662 109.748241 
L 99.789662 114.748241 
L 104.789662 114.748241 
z
" clip-path="url(#pc9cfa9dc9d)" style="fill: #ffffff; stroke: #000000; stroke-width: 0.4"/>
   </g>
   <g id="PathCollection_20">
    <path d="M 112.020356 110.847615 
L 109.520356 115.847615 
L 114.520356 115.847615 
z
" clip-path="url(#pc9cfa9dc9d)" style="fill: #ffffff; stroke: #000000; stroke-width: 0.4"/>
    <path d="M 113.740964 111.091047 
L 111.240964 116.091047 
L 116.240964 116.091047 
z
" clip-path="url(#pc9cfa9dc9d)" style="fill: #ffffff; stroke: #000000; stroke-width: 0.4"/>
    <path d="M 112.952999 111.728684 
L 110.452999 116.728684 
L 115.452999 116.728684 
z
" clip-path="url(#pc9cfa9dc9d)" style="fill: #ffffff; stroke: #000000; stroke-width: 0.4"/>
   </g>
   <g id="PathCollection_21">
    <path d="M 139.86149 108.281363 
L 137.36149 113.281363 
L 142.36149 113.281363 
z
" clip-path="url(#pc9cfa9dc9d)" style="fill: #ffffff; stroke: #000000; stroke-width: 0.4"/>
    <path d="M 138.734428 109.281793 
L 136.234428 114.281793 
L 141.234428 114.281793 
z
" clip-path="url(#pc9cfa9dc9d)" style="fill: #ffffff; stroke: #000000; stroke-width: 0.4"/>
    <path d="M 140.152469 106.096751 
L 137.652469 111.096751 
L 142.652469 111.096751 
z
" clip-path="url(#pc9cfa9dc9d)" style="fill: #ffffff; stroke: #000000; stroke-width: 0.4"/>
   </g>
   <g id="PathCollection_22">
    <path d="M 151.84371 95.327604 
L 149.34371 100.327604 
L 154.34371 100.327604 
z
" clip-path="url(#pc9cfa9dc9d)" style="fill: #ffffff; stroke: #000000; stroke-width: 0.4"/>
    <path d="M 152.100222 94.033484 
L 149.600222 99.033484 
L 154.600222 99.033484 
z
" clip-path="url(#pc9cfa9dc9d)" style="fill: #ffffff; stroke: #000000; stroke-width: 0.4"/>
    <path d="M 150.435476 97.567185 
L 147.935476 102.567185 
L 152.935476 102.567185 
z
" clip-path="url(#pc9cfa9dc9d)" style="fill: #ffffff; stroke: #000000; stroke-width: 0.4"/>
   </g>
   <g id="PathCollection_23">
    <path d="M 163.037007 94.729231 
L 160.537007 99.729231 
L 165.537007 99.729231 
z
" clip-path="url(#pc9cfa9dc9d)" style="fill: #ffffff; stroke: #000000; stroke-width: 0.4"/>
    <path d="M 161.880226 99.690546 
L 159.380226 104.690546 
L 164.380226 104.690546 
z
" clip-path="url(#pc9cfa9dc9d)" style="fill: #ffffff; stroke: #000000; stroke-width: 0.4"/>
    <path d="M 162.753613 100.997229 
L 160.253613 105.997229 
L 165.253613 105.997229 
z
" clip-path="url(#pc9cfa9dc9d)" style="fill: #ffffff; stroke: #000000; stroke-width: 0.4"/>
   </g>
   <g id="PathCollection_24">
    <path d="M 174.54957 97.449395 
L 172.04957 102.449395 
L 177.04957 102.449395 
z
" clip-path="url(#pc9cfa9dc9d)" style="fill: #ffffff; stroke: #000000; stroke-width: 0.4"/>
    <path d="M 175.48058 104.779074 
L 172.98058 109.779074 
L 177.98058 109.779074 
z
" clip-path="url(#pc9cfa9dc9d)" style="fill: #ffffff; stroke: #000000; stroke-width: 0.4"/>
    <path d="M 174.274391 103.996948 
L 171.774391 108.996948 
L 176.774391 108.996948 
z
" clip-path="url(#pc9cfa9dc9d)" style="fill: #ffffff; stroke: #000000; stroke-width: 0.4"/>
   </g>
   <g id="PathCollection_25">
    <path d="M 185.293256 105.116738 
L 182.793256 110.116738 
L 187.793256 110.116738 
z
" clip-path="url(#pc9cfa9dc9d)" style="fill: #ffffff; stroke: #000000; stroke-width: 0.4"/>
    <path d="M 187.090959 108.2421 
L 184.590959 113.2421 
L 189.590959 113.2421 
z
" clip-path="url(#pc9cfa9dc9d)" style="fill: #ffffff; stroke: #000000; stroke-width: 0.4"/>
    <path d="M 186.653591 104.409998 
L 184.153591 109.409998 
L 189.153591 109.409998 
z
" clip-path="url(#pc9cfa9dc9d)" style="fill: #ffffff; stroke: #000000; stroke-width: 0.4"/>
   </g>
   <g id="PathCollection_26">
    <path d="M 211.792114 92.629428 
L 209.292114 97.629428 
L 214.292114 97.629428 
z
" clip-path="url(#pc9cfa9dc9d)" style="fill: #ffffff; stroke: #000000; stroke-width: 0.4"/>
    <path d="M 214.59001 90.187248 
L 212.09001 95.187248 
L 217.09001 95.187248 
z
" clip-path="url(#pc9cfa9dc9d)" style="fill: #ffffff; stroke: #000000; stroke-width: 0.4"/>
    <path d="M 213.908827 72.294162 
L 211.408827 77.294162 
L 216.408827 77.294162 
z
" clip-path="url(#pc9cfa9dc9d)" style="fill: #ffffff; stroke: #000000; stroke-width: 0.4"/>
   </g>
   <g id="PathCollection_27">
    <path d="M 224.491591 56.112957 
L 221.991591 61.112957 
L 226.991591 61.112957 
z
" clip-path="url(#pc9cfa9dc9d)" style="fill: #ffffff; stroke: #000000; stroke-width: 0.4"/>
    <path d="M 226.303102 60.257594 
L 223.803102 65.257594 
L 228.803102 65.257594 
z
" clip-path="url(#pc9cfa9dc9d)" style="fill: #ffffff; stroke: #000000; stroke-width: 0.4"/>
    <path d="M 226.224115 65.812571 
L 223.724115 70.812571 
L 228.724115 70.812571 
z
" clip-path="url(#pc9cfa9dc9d)" style="fill: #ffffff; stroke: #000000; stroke-width: 0.4"/>
   </g>
   <g id="PathCollection_28">
    <path d="M 237.377734 66.572709 
L 234.877734 71.572709 
L 239.877734 71.572709 
z
" clip-path="url(#pc9cfa9dc9d)" style="fill: #ffffff; stroke: #000000; stroke-width: 0.4"/>
    <path d="M 236.268586 61.265877 
L 233.768586 66.265877 
L 238.768586 66.265877 
z
" clip-path="url(#pc9cfa9dc9d)" style="fill: #ffffff; stroke: #000000; stroke-width: 0.4"/>
    <path d="M 236.767456 65.57385 
L 234.267456 70.57385 
L 239.267456 70.57385 
z
" clip-path="url(#pc9cfa9dc9d)" style="fill: #ffffff; stroke: #000000; stroke-width: 0.4"/>
   </g>
   <g id="PathCollection_29">
    <path d="M 248.096329 60.881096 
L 245.596329 65.881096 
L 250.596329 65.881096 
z
" clip-path="url(#pc9cfa9dc9d)" style="fill: #ffffff; stroke: #000000; stroke-width: 0.4"/>
    <path d="M 249.904618 69.886534 
L 247.404618 74.886534 
L 252.404618 74.886534 
z
" clip-path="url(#pc9cfa9dc9d)" style="fill: #ffffff; stroke: #000000; stroke-width: 0.4"/>
    <path d="M 248.587112 65.10426 
L 246.087112 70.10426 
L 251.087112 70.10426 
z
" clip-path="url(#pc9cfa9dc9d)" style="fill: #ffffff; stroke: #000000; stroke-width: 0.4"/>
   </g>
   <g id="PathCollection_30">
    <path d="M 259.77325 78.086289 
L 257.27325 83.086289 
L 262.27325 83.086289 
z
" clip-path="url(#pc9cfa9dc9d)" style="fill: #ffffff; stroke: #000000; stroke-width: 0.4"/>
    <path d="M 260.773668 78.290458 
L 258.273668 83.290458 
L 263.273668 83.290458 
z
" clip-path="url(#pc9cfa9dc9d)" style="fill: #ffffff; stroke: #000000; stroke-width: 0.4"/>
    <path d="M 260.201035 71.1995 
L 257.701035 76.1995 
L 262.701035 76.1995 
z
" clip-path="url(#pc9cfa9dc9d)" style="fill: #ffffff; stroke: #000000; stroke-width: 0.4"/>
   </g>
   <g id="PathCollection_31">
    <path d="M 62.086893 118.184568 
L 67.086893 118.184568 
L 67.086893 113.184568 
L 62.086893 113.184568 
z
" clip-path="url(#pc9cfa9dc9d)" style="fill: #ffffff; stroke: #000000; stroke-width: 0.4"/>
    <path d="M 63.865902 118.635311 
L 68.865902 118.635311 
L 68.865902 113.635311 
L 63.865902 113.635311 
z
" clip-path="url(#pc9cfa9dc9d)" style="fill: #ffffff; stroke: #000000; stroke-width: 0.4"/>
    <path d="M 62.247939 117.441706 
L 67.247939 117.441706 
L 67.247939 112.441706 
L 62.247939 112.441706 
z
" clip-path="url(#pc9cfa9dc9d)" style="fill: #ffffff; stroke: #000000; stroke-width: 0.4"/>
   </g>
   <g id="PathCollection_32">
    <path d="M 75.020291 110.204688 
L 80.020291 110.204688 
L 80.020291 105.204688 
L 75.020291 105.204688 
z
" clip-path="url(#pc9cfa9dc9d)" style="fill: #ffffff; stroke: #000000; stroke-width: 0.4"/>
    <path d="M 74.383001 111.566341 
L 79.383001 111.566341 
L 79.383001 106.566341 
L 74.383001 106.566341 
z
" clip-path="url(#pc9cfa9dc9d)" style="fill: #ffffff; stroke: #000000; stroke-width: 0.4"/>
    <path d="M 75.454811 112.670426 
L 80.454811 112.670426 
L 80.454811 107.670426 
L 75.454811 107.670426 
z
" clip-path="url(#pc9cfa9dc9d)" style="fill: #ffffff; stroke: #000000; stroke-width: 0.4"/>
   </g>
   <g id="PathCollection_33">
    <path d="M 85.549841 109.403716 
L 90.549841 109.403716 
L 90.549841 104.403716 
L 85.549841 104.403716 
z
" clip-path="url(#pc9cfa9dc9d)" style="fill: #ffffff; stroke: #000000; stroke-width: 0.4"/>
    <path d="M 85.701034 109.874876 
L 90.701034 109.874876 
L 90.701034 104.874876 
L 85.701034 104.874876 
z
" clip-path="url(#pc9cfa9dc9d)" style="fill: #ffffff; stroke: #000000; stroke-width: 0.4"/>
    <path d="M 86.588033 111.032359 
L 91.588033 111.032359 
L 91.588033 106.032359 
L 86.588033 106.032359 
z
" clip-path="url(#pc9cfa9dc9d)" style="fill: #ffffff; stroke: #000000; stroke-width: 0.4"/>
   </g>
   <g id="PathCollection_34">
    <path d="M 97.952641 113.304921 
L 102.952641 113.304921 
L 102.952641 108.304921 
L 97.952641 108.304921 
z
" clip-path="url(#pc9cfa9dc9d)" style="fill: #ffffff; stroke: #000000; stroke-width: 0.4"/>
    <path d="M 99.2171 114.752953 
L 104.2171 114.752953 
L 104.2171 109.752953 
L 99.2171 109.752953 
z
" clip-path="url(#pc9cfa9dc9d)" style="fill: #ffffff; stroke: #000000; stroke-width: 0.4"/>
    <path d="M 97.483714 113.689702 
L 102.483714 113.689702 
L 102.483714 108.689702 
L 97.483714 108.689702 
z
" clip-path="url(#pc9cfa9dc9d)" style="fill: #ffffff; stroke: #000000; stroke-width: 0.4"/>
   </g>
   <g id="PathCollection_35">
    <path d="M 109.177048 117.809211 
L 114.177048 117.809211 
L 114.177048 112.809211 
L 109.177048 112.809211 
z
" clip-path="url(#pc9cfa9dc9d)" style="fill: #ffffff; stroke: #000000; stroke-width: 0.4"/>
    <path d="M 111.446042 117.735396 
L 116.446042 117.735396 
L 116.446042 112.735396 
L 111.446042 112.735396 
z
" clip-path="url(#pc9cfa9dc9d)" style="fill: #ffffff; stroke: #000000; stroke-width: 0.4"/>
    <path d="M 110.695418 117.137022 
L 115.695418 117.137022 
L 115.695418 112.137022 
L 110.695418 112.137022 
z
" clip-path="url(#pc9cfa9dc9d)" style="fill: #ffffff; stroke: #000000; stroke-width: 0.4"/>
   </g>
   <g id="PathCollection_36">
    <path d="M 137.639762 104.274354 
L 142.639762 104.274354 
L 142.639762 99.274354 
L 137.639762 99.274354 
z
" clip-path="url(#pc9cfa9dc9d)" style="fill: #ffffff; stroke: #000000; stroke-width: 0.4"/>
    <path d="M 137.208966 107.024358 
L 142.208966 107.024358 
L 142.208966 102.024358 
L 137.208966 102.024358 
z
" clip-path="url(#pc9cfa9dc9d)" style="fill: #ffffff; stroke: #000000; stroke-width: 0.4"/>
    <path d="M 136.983629 105.138148 
L 141.983629 105.138148 
L 141.983629 100.138148 
L 136.983629 100.138148 
z
" clip-path="url(#pc9cfa9dc9d)" style="fill: #ffffff; stroke: #000000; stroke-width: 0.4"/>
   </g>
   <g id="PathCollection_37">
    <path d="M 148.767162 84.774612 
L 153.767162 84.774612 
L 153.767162 79.774612 
L 148.767162 79.774612 
z
" clip-path="url(#pc9cfa9dc9d)" style="fill: #ffffff; stroke: #000000; stroke-width: 0.4"/>
    <path d="M 147.365759 85.431095 
L 152.365759 85.431095 
L 152.365759 80.431095 
L 147.365759 80.431095 
z
" clip-path="url(#pc9cfa9dc9d)" style="fill: #ffffff; stroke: #000000; stroke-width: 0.4"/>
    <path d="M 149.029292 87.320447 
L 154.029292 87.320447 
L 154.029292 82.320447 
L 149.029292 82.320447 
z
" clip-path="url(#pc9cfa9dc9d)" style="fill: #ffffff; stroke: #000000; stroke-width: 0.4"/>
   </g>
   <g id="PathCollection_38">
    <path d="M 160.014948 82.115699 
L 165.014948 82.115699 
L 165.014948 77.115699 
L 160.014948 77.115699 
z
" clip-path="url(#pc9cfa9dc9d)" style="fill: #ffffff; stroke: #000000; stroke-width: 0.4"/>
    <path d="M 159.216063 87.033039 
L 164.216063 87.033039 
L 164.216063 82.033039 
L 159.216063 82.033039 
z
" clip-path="url(#pc9cfa9dc9d)" style="fill: #ffffff; stroke: #000000; stroke-width: 0.4"/>
    <path d="M 159.88971 85.665105 
L 164.88971 85.665105 
L 164.88971 80.665105 
L 159.88971 80.665105 
z
" clip-path="url(#pc9cfa9dc9d)" style="fill: #ffffff; stroke: #000000; stroke-width: 0.4"/>
   </g>
   <g id="PathCollection_39">
    <path d="M 173.70816 94.075311 
L 178.70816 94.075311 
L 178.70816 89.075311 
L 173.70816 89.075311 
z
" clip-path="url(#pc9cfa9dc9d)" style="fill: #ffffff; stroke: #000000; stroke-width: 0.4"/>
    <path d="M 171.704589 92.1891 
L 176.704589 92.1891 
L 176.704589 87.1891 
L 171.704589 87.1891 
z
" clip-path="url(#pc9cfa9dc9d)" style="fill: #ffffff; stroke: #000000; stroke-width: 0.4"/>
    <path d="M 171.090177 87.970648 
L 176.090177 87.970648 
L 176.090177 82.970648 
L 171.090177 82.970648 
z
" clip-path="url(#pc9cfa9dc9d)" style="fill: #ffffff; stroke: #000000; stroke-width: 0.4"/>
   </g>
   <g id="PathCollection_40">
    <path d="M 183.533724 98.100588 
L 188.533724 98.100588 
L 188.533724 93.100588 
L 183.533724 93.100588 
z
" clip-path="url(#pc9cfa9dc9d)" style="fill: #ffffff; stroke: #000000; stroke-width: 0.4"/>
    <path d="M 183.963854 93.148696 
L 188.963854 93.148696 
L 188.963854 88.148696 
L 183.963854 88.148696 
z
" clip-path="url(#pc9cfa9dc9d)" style="fill: #ffffff; stroke: #000000; stroke-width: 0.4"/>
    <path d="M 183.327287 96.319603 
L 188.327287 96.319603 
L 188.327287 91.319603 
L 183.327287 91.319603 
z
" clip-path="url(#pc9cfa9dc9d)" style="fill: #ffffff; stroke: #000000; stroke-width: 0.4"/>
   </g>
   <g id="PathCollection_41">
    <path d="M 210.722549 72.515029 
L 215.722549 72.515029 
L 215.722549 67.515029 
L 210.722549 67.515029 
z
" clip-path="url(#pc9cfa9dc9d)" style="fill: #ffffff; stroke: #000000; stroke-width: 0.4"/>
    <path d="M 211.40315 72.760032 
L 216.40315 72.760032 
L 216.40315 67.760032 
L 211.40315 67.760032 
z
" clip-path="url(#pc9cfa9dc9d)" style="fill: #ffffff; stroke: #000000; stroke-width: 0.4"/>
    <path d="M 210.00527 71.688928 
L 215.00527 71.688928 
L 215.00527 66.688928 
L 210.00527 66.688928 
z
" clip-path="url(#pc9cfa9dc9d)" style="fill: #ffffff; stroke: #000000; stroke-width: 0.4"/>
   </g>
   <g id="PathCollection_42">
    <path d="M 221.672931 47.276558 
L 226.672931 47.276558 
L 226.672931 42.276558 
L 221.672931 42.276558 
z
" clip-path="url(#pc9cfa9dc9d)" style="fill: #ffffff; stroke: #000000; stroke-width: 0.4"/>
    <path d="M 223.740469 45.54583 
L 228.740469 45.54583 
L 228.740469 40.54583 
L 223.740469 40.54583 
z
" clip-path="url(#pc9cfa9dc9d)" style="fill: #ffffff; stroke: #000000; stroke-width: 0.4"/>
    <path d="M 222.352033 48.231442 
L 227.352033 48.231442 
L 227.352033 43.231442 
L 222.352033 43.231442 
z
" clip-path="url(#pc9cfa9dc9d)" style="fill: #ffffff; stroke: #000000; stroke-width: 0.4"/>
   </g>
   <g id="PathCollection_43">
    <path d="M 235.6449 31.963858 
L 240.6449 31.963858 
L 240.6449 26.963858 
L 235.6449 26.963858 
z
" clip-path="url(#pc9cfa9dc9d)" style="fill: #ffffff; stroke: #000000; stroke-width: 0.4"/>
    <path d="M 234.934244 36.587508 
L 239.934244 36.587508 
L 239.934244 31.587508 
L 234.934244 31.587508 
z
" clip-path="url(#pc9cfa9dc9d)" style="fill: #ffffff; stroke: #000000; stroke-width: 0.4"/>
    <path d="M 235.502068 43.061246 
L 240.502068 43.061246 
L 240.502068 38.061246 
L 235.502068 38.061246 
z
" clip-path="url(#pc9cfa9dc9d)" style="fill: #ffffff; stroke: #000000; stroke-width: 0.4"/>
   </g>
   <g id="PathCollection_44">
    <path d="M 245.804932 67.186209 
L 250.804932 67.186209 
L 250.804932 62.186209 
L 245.804932 62.186209 
z
" clip-path="url(#pc9cfa9dc9d)" style="fill: #ffffff; stroke: #000000; stroke-width: 0.4"/>
    <path d="M 247.395375 57.038993 
L 252.395375 57.038993 
L 252.395375 52.038993 
L 247.395375 52.038993 
z
" clip-path="url(#pc9cfa9dc9d)" style="fill: #ffffff; stroke: #000000; stroke-width: 0.4"/>
    <path d="M 246.319247 61.568411 
L 251.319247 61.568411 
L 251.319247 56.568411 
L 246.319247 56.568411 
z
" clip-path="url(#pc9cfa9dc9d)" style="fill: #ffffff; stroke: #000000; stroke-width: 0.4"/>
   </g>
   <g id="PathCollection_45">
    <path d="M 256.797128 67.420219 
L 261.797128 67.420219 
L 261.797128 62.420219 
L 256.797128 62.420219 
z
" clip-path="url(#pc9cfa9dc9d)" style="fill: #ffffff; stroke: #000000; stroke-width: 0.4"/>
    <path d="M 257.769986 76.796303 
L 262.769986 76.796303 
L 262.769986 71.796303 
L 257.769986 71.796303 
z
" clip-path="url(#pc9cfa9dc9d)" style="fill: #ffffff; stroke: #000000; stroke-width: 0.4"/>
    <path d="M 257.179144 76.17123 
L 262.179144 76.17123 
L 262.179144 71.17123 
L 257.179144 71.17123 
z
" clip-path="url(#pc9cfa9dc9d)" style="fill: #ffffff; stroke: #000000; stroke-width: 0.4"/>
   </g>
   <g id="PathCollection_46">
    <path d="M 67.125433 124.377734 
L 70.660966 120.8422 
L 67.125433 117.306666 
L 63.589899 120.8422 
z
" clip-path="url(#pc9cfa9dc9d)" style="fill: #ffffff; stroke: #000000; stroke-width: 0.4"/>
    <path d="M 66.944253 125.387587 
L 70.479787 121.852053 
L 66.944253 118.316519 
L 63.408719 121.852053 
z
" clip-path="url(#pc9cfa9dc9d)" style="fill: #ffffff; stroke: #000000; stroke-width: 0.4"/>
    <path d="M 65.166623 124.944696 
L 68.702156 121.409162 
L 65.166623 117.873628 
L 61.631089 121.409162 
z
" clip-path="url(#pc9cfa9dc9d)" style="fill: #ffffff; stroke: #000000; stroke-width: 0.4"/>
   </g>
   <g id="PathCollection_47">
    <path d="M 76.289086 123.243809 
L 79.82462 119.708275 
L 76.289086 116.172741 
L 72.753552 119.708275 
z
" clip-path="url(#pc9cfa9dc9d)" style="fill: #ffffff; stroke: #000000; stroke-width: 0.4"/>
    <path d="M 76.603369 121.968535 
L 80.138903 118.433002 
L 76.603369 114.897468 
L 73.067835 118.433002 
z
" clip-path="url(#pc9cfa9dc9d)" style="fill: #ffffff; stroke: #000000; stroke-width: 0.4"/>
    <path d="M 76.304766 122.472677 
L 79.8403 118.937143 
L 76.304766 115.401609 
L 72.769232 118.937143 
z
" clip-path="url(#pc9cfa9dc9d)" style="fill: #ffffff; stroke: #000000; stroke-width: 0.4"/>
   </g>
   <g id="PathCollection_48">
    <path d="M 90.275985 120.588037 
L 93.811519 117.052503 
L 90.275985 113.516969 
L 86.740451 117.052503 
z
" clip-path="url(#pc9cfa9dc9d)" style="fill: #ffffff; stroke: #000000; stroke-width: 0.4"/>
    <path d="M 90.190449 119.688121 
L 93.725983 116.152587 
L 90.190449 112.617053 
L 86.654915 116.152587 
z
" clip-path="url(#pc9cfa9dc9d)" style="fill: #ffffff; stroke: #000000; stroke-width: 0.4"/>
    <path d="M 90.00007 120.906855 
L 93.535604 117.371321 
L 90.00007 113.835787 
L 86.464536 117.371321 
z
" clip-path="url(#pc9cfa9dc9d)" style="fill: #ffffff; stroke: #000000; stroke-width: 0.4"/>
   </g>
   <g id="PathCollection_49">
    <path d="M 100.984905 122.698833 
L 104.520439 119.1633 
L 100.984905 115.627766 
L 97.449371 119.1633 
z
" clip-path="url(#pc9cfa9dc9d)" style="fill: #ffffff; stroke: #000000; stroke-width: 0.4"/>
    <path d="M 101.512221 121.574332 
L 105.047754 118.038798 
L 101.512221 114.503264 
L 97.976687 118.038798 
z
" clip-path="url(#pc9cfa9dc9d)" style="fill: #ffffff; stroke: #000000; stroke-width: 0.4"/>
    <path d="M 100.942658 121.634012 
L 104.478192 118.098478 
L 100.942658 114.562944 
L 97.407124 118.098478 
z
" clip-path="url(#pc9cfa9dc9d)" style="fill: #ffffff; stroke: #000000; stroke-width: 0.4"/>
   </g>
   <g id="PathCollection_50">
    <path d="M 114.277272 121.520933 
L 117.812806 117.9854 
L 114.277272 114.449866 
L 110.741738 117.9854 
z
" clip-path="url(#pc9cfa9dc9d)" style="fill: #ffffff; stroke: #000000; stroke-width: 0.4"/>
    <path d="M 113.537106 121.464394 
L 117.07264 117.92886 
L 113.537106 114.393326 
L 110.001572 117.92886 
z
" clip-path="url(#pc9cfa9dc9d)" style="fill: #ffffff; stroke: #000000; stroke-width: 0.4"/>
    <path d="M 112.392044 122.292065 
L 115.927578 118.756531 
L 112.392044 115.220997 
L 108.85651 118.756531 
z
" clip-path="url(#pc9cfa9dc9d)" style="fill: #ffffff; stroke: #000000; stroke-width: 0.4"/>
   </g>
   <g id="PathCollection_51">
    <path d="M 140.16446 120.019504 
L 143.699994 116.48397 
L 140.16446 112.948436 
L 136.628926 116.48397 
z
" clip-path="url(#pc9cfa9dc9d)" style="fill: #ffffff; stroke: #000000; stroke-width: 0.4"/>
    <path d="M 139.635818 120.280212 
L 143.171352 116.744678 
L 139.635818 113.209144 
L 136.100284 116.744678 
z
" clip-path="url(#pc9cfa9dc9d)" style="fill: #ffffff; stroke: #000000; stroke-width: 0.4"/>
    <path d="M 140.656686 120.349316 
L 144.192219 116.813782 
L 140.656686 113.278248 
L 137.121152 116.813782 
z
" clip-path="url(#pc9cfa9dc9d)" style="fill: #ffffff; stroke: #000000; stroke-width: 0.4"/>
   </g>
   <g id="PathCollection_52">
    <path d="M 152.171925 109.412121 
L 155.707459 105.876587 
L 152.171925 102.341053 
L 148.636391 105.876587 
z
" clip-path="url(#pc9cfa9dc9d)" style="fill: #ffffff; stroke: #000000; stroke-width: 0.4"/>
    <path d="M 151.868092 108.091303 
L 155.403626 104.555769 
L 151.868092 101.020235 
L 148.332558 104.555769 
z
" clip-path="url(#pc9cfa9dc9d)" style="fill: #ffffff; stroke: #000000; stroke-width: 0.4"/>
    <path d="M 150.411433 108.245215 
L 153.946967 104.709681 
L 150.411433 101.174147 
L 146.8759 104.709681 
z
" clip-path="url(#pc9cfa9dc9d)" style="fill: #ffffff; stroke: #000000; stroke-width: 0.4"/>
   </g>
   <g id="PathCollection_53">
    <path d="M 164.4988 105.8156 
L 168.034334 102.280066 
L 164.4988 98.744532 
L 160.963266 102.280066 
z
" clip-path="url(#pc9cfa9dc9d)" style="fill: #ffffff; stroke: #000000; stroke-width: 0.4"/>
    <path d="M 163.097371 107.274625 
L 166.632905 103.739091 
L 163.097371 100.203558 
L 159.561837 103.739091 
z
" clip-path="url(#pc9cfa9dc9d)" style="fill: #ffffff; stroke: #000000; stroke-width: 0.4"/>
    <path d="M 163.267123 109.759209 
L 166.802657 106.223675 
L 163.267123 102.688141 
L 159.731589 106.223675 
z
" clip-path="url(#pc9cfa9dc9d)" style="fill: #ffffff; stroke: #000000; stroke-width: 0.4"/>
   </g>
   <g id="PathCollection_54">
    <path d="M 175.653381 112.639567 
L 179.188915 109.104033 
L 175.653381 105.5685 
L 172.117847 109.104033 
z
" clip-path="url(#pc9cfa9dc9d)" style="fill: #ffffff; stroke: #000000; stroke-width: 0.4"/>
    <path d="M 173.903315 110.863294 
L 177.438849 107.32776 
L 173.903315 103.792226 
L 170.367781 107.32776 
z
" clip-path="url(#pc9cfa9dc9d)" style="fill: #ffffff; stroke: #000000; stroke-width: 0.4"/>
    <path d="M 174.598029 109.770203 
L 178.133563 106.234669 
L 174.598029 102.699135 
L 171.062496 106.234669 
z
" clip-path="url(#pc9cfa9dc9d)" style="fill: #ffffff; stroke: #000000; stroke-width: 0.4"/>
   </g>
   <g id="PathCollection_55">
    <path d="M 188.005295 113.519066 
L 191.540829 109.983532 
L 188.005295 106.447998 
L 184.469761 109.983532 
z
" clip-path="url(#pc9cfa9dc9d)" style="fill: #ffffff; stroke: #000000; stroke-width: 0.4"/>
    <path d="M 187.930643 112.686683 
L 191.466177 109.151149 
L 187.930643 105.615616 
L 184.395109 109.151149 
z
" clip-path="url(#pc9cfa9dc9d)" style="fill: #ffffff; stroke: #000000; stroke-width: 0.4"/>
    <path d="M 187.127584 112.956815 
L 190.663118 109.421281 
L 187.127584 105.885747 
L 183.59205 109.421281 
z
" clip-path="url(#pc9cfa9dc9d)" style="fill: #ffffff; stroke: #000000; stroke-width: 0.4"/>
   </g>
   <g id="PathCollection_56">
    <path d="M 213.160913 86.17608 
L 216.696447 82.640546 
L 213.160913 79.105013 
L 209.625379 82.640546 
z
" clip-path="url(#pc9cfa9dc9d)" style="fill: #ffffff; stroke: #000000; stroke-width: 0.4"/>
    <path d="M 212.935734 91.581856 
L 216.471267 88.046322 
L 212.935734 84.510788 
L 209.4002 88.046322 
z
" clip-path="url(#pc9cfa9dc9d)" style="fill: #ffffff; stroke: #000000; stroke-width: 0.4"/>
    <path d="M 212.383155 98.313162 
L 215.918689 94.777628 
L 212.383155 91.242094 
L 208.847622 94.777628 
z
" clip-path="url(#pc9cfa9dc9d)" style="fill: #ffffff; stroke: #000000; stroke-width: 0.4"/>
   </g>
   <g id="PathCollection_57">
    <path d="M 224.882059 72.54228 
L 228.417593 69.006746 
L 224.882059 65.471213 
L 221.346525 69.006746 
z
" clip-path="url(#pc9cfa9dc9d)" style="fill: #ffffff; stroke: #000000; stroke-width: 0.4"/>
    <path d="M 223.796167 60.741293 
L 227.331701 57.205759 
L 223.796167 53.670225 
L 220.260633 57.205759 
z
" clip-path="url(#pc9cfa9dc9d)" style="fill: #ffffff; stroke: #000000; stroke-width: 0.4"/>
    <path d="M 225.881776 69.638364 
L 229.41731 66.10283 
L 225.881776 62.567296 
L 222.346242 66.10283 
z
" clip-path="url(#pc9cfa9dc9d)" style="fill: #ffffff; stroke: #000000; stroke-width: 0.4"/>
   </g>
   <g id="PathCollection_58">
    <path d="M 236.089762 65.864373 
L 239.625295 62.328839 
L 236.089762 58.793305 
L 232.554228 62.328839 
z
" clip-path="url(#pc9cfa9dc9d)" style="fill: #ffffff; stroke: #000000; stroke-width: 0.4"/>
    <path d="M 236.135871 71.54028 
L 239.671405 68.004746 
L 236.135871 64.469212 
L 232.600337 68.004746 
z
" clip-path="url(#pc9cfa9dc9d)" style="fill: #ffffff; stroke: #000000; stroke-width: 0.4"/>
    <path d="M 236.269866 70.453471 
L 239.8054 66.917937 
L 236.269866 63.382403 
L 232.734332 66.917937 
z
" clip-path="url(#pc9cfa9dc9d)" style="fill: #ffffff; stroke: #000000; stroke-width: 0.4"/>
   </g>
   <g id="PathCollection_59">
    <path d="M 247.348948 80.775016 
L 250.884482 77.239482 
L 247.348948 73.703948 
L 243.813414 77.239482 
z
" clip-path="url(#pc9cfa9dc9d)" style="fill: #ffffff; stroke: #000000; stroke-width: 0.4"/>
    <path d="M 247.826556 79.626956 
L 251.362089 76.091422 
L 247.826556 72.555888 
L 244.291022 76.091422 
z
" clip-path="url(#pc9cfa9dc9d)" style="fill: #ffffff; stroke: #000000; stroke-width: 0.4"/>
    <path d="M 249.496623 95.201936 
L 253.032157 91.666402 
L 249.496623 88.130868 
L 245.961089 91.666402 
z
" clip-path="url(#pc9cfa9dc9d)" style="fill: #ffffff; stroke: #000000; stroke-width: 0.4"/>
   </g>
   <g id="PathCollection_60">
    <path d="M 259.818188 88.209921 
L 263.353721 84.674387 
L 259.818188 81.138853 
L 256.282654 84.674387 
z
" clip-path="url(#pc9cfa9dc9d)" style="fill: #ffffff; stroke: #000000; stroke-width: 0.4"/>
    <path d="M 260.682175 98.531466 
L 264.217709 94.995932 
L 260.682175 91.460398 
L 257.146641 94.995932 
z
" clip-path="url(#pc9cfa9dc9d)" style="fill: #ffffff; stroke: #000000; stroke-width: 0.4"/>
    <path d="M 259.013876 118.452111 
L 262.54941 114.916577 
L 259.013876 111.381043 
L 255.478342 114.916577 
z
" clip-path="url(#pc9cfa9dc9d)" style="fill: #ffffff; stroke: #000000; stroke-width: 0.4"/>
   </g>
   <g id="text_9">
    <!-- ** -->
    <g style="fill: #262626" transform="translate(73.006506 95.56088) scale(0.12 -0.12)">
     <defs>
      <path id="ArialMT-2a" d="M 200 3741 
L 344 4184 
Q 841 4009 1066 3881 
Q 1006 4447 1003 4659 
L 1456 4659 
Q 1447 4350 1384 3884 
Q 1706 4047 2122 4184 
L 2266 3741 
Q 1869 3609 1488 3566 
Q 1678 3400 2025 2975 
L 1650 2709 
Q 1469 2956 1222 3381 
Q 991 2941 816 2709 
L 447 2975 
Q 809 3422 966 3566 
Q 563 3644 200 3741 
z
" transform="scale(0.015625)"/>
     </defs>
     <use xlink:href="#ArialMT-2a"/>
     <use xlink:href="#ArialMT-2a" transform="translate(38.916016 0)"/>
    </g>
   </g>
   <g id="text_10">
    <!-- ** -->
    <g style="fill: #262626" transform="translate(146.642869 68.272863) scale(0.12 -0.12)">
     <use xlink:href="#ArialMT-2a"/>
     <use xlink:href="#ArialMT-2a" transform="translate(38.916016 0)"/>
    </g>
   </g>
   <g id="text_11">
    <!-- **** -->
    <g style="fill: #262626" transform="translate(215.608608 18.121022) scale(0.12 -0.12)">
     <use xlink:href="#ArialMT-2a"/>
     <use xlink:href="#ArialMT-2a" transform="translate(38.916016 0)"/>
     <use xlink:href="#ArialMT-2a" transform="translate(77.832031 0)"/>
     <use xlink:href="#ArialMT-2a" transform="translate(116.748047 0)"/>
    </g>
   </g>
   <g id="legend_1">
    <g id="patch_22">
     <path d="M 292.235313 19.473594 
L 314.235313 19.473594 
L 314.235313 11.773594 
L 292.235313 11.773594 
z
" style="fill: #4b4279; opacity: 0.8; stroke: #ffffff; stroke-linejoin: miter"/>
    </g>
    <g id="text_12">
     <!-- 0 nM -->
     <g style="fill: #262626" transform="translate(323.035313 19.473594) scale(0.11 -0.11)">
      <defs>
       <path id="ArialMT-4d" d="M 475 0 
L 475 4581 
L 1388 4581 
L 2472 1338 
Q 2622 884 2691 659 
Q 2769 909 2934 1394 
L 4031 4581 
L 4847 4581 
L 4847 0 
L 4263 0 
L 4263 3834 
L 2931 0 
L 2384 0 
L 1059 3900 
L 1059 0 
L 475 0 
z
" transform="scale(0.015625)"/>
      </defs>
      <use xlink:href="#ArialMT-30"/>
      <use xlink:href="#ArialMT-20" transform="translate(55.615234 0)"/>
      <use xlink:href="#ArialMT-6e" transform="translate(83.398438 0)"/>
      <use xlink:href="#ArialMT-4d" transform="translate(139.013672 0)"/>
     </g>
    </g>
    <g id="patch_23">
     <path d="M 292.235313 35.033437 
L 314.235313 35.033437 
L 314.235313 27.333437 
L 292.235313 27.333437 
z
" style="fill: #3c6682; opacity: 0.8; stroke: #ffffff; stroke-linejoin: miter"/>
    </g>
    <g id="text_13">
     <!-- 10 nM -->
     <g style="fill: #262626" transform="translate(323.035313 35.033437) scale(0.11 -0.11)">
      <defs>
       <path id="ArialMT-31" d="M 2384 0 
L 1822 0 
L 1822 3584 
Q 1619 3391 1289 3197 
Q 959 3003 697 2906 
L 697 3450 
Q 1169 3672 1522 3987 
Q 1875 4303 2022 4600 
L 2384 4600 
L 2384 0 
z
" transform="scale(0.015625)"/>
      </defs>
      <use xlink:href="#ArialMT-31"/>
      <use xlink:href="#ArialMT-30" transform="translate(55.615234 0)"/>
      <use xlink:href="#ArialMT-20" transform="translate(111.230469 0)"/>
      <use xlink:href="#ArialMT-6e" transform="translate(139.013672 0)"/>
      <use xlink:href="#ArialMT-4d" transform="translate(194.628906 0)"/>
     </g>
    </g>
    <g id="patch_24">
     <path d="M 292.235313 50.593281 
L 314.235313 50.593281 
L 314.235313 42.893281 
L 292.235313 42.893281 
z
" style="fill: #2f837f; opacity: 0.8; stroke: #ffffff; stroke-linejoin: miter"/>
    </g>
    <g id="text_14">
     <!-- 100 nM -->
     <g style="fill: #262626" transform="translate(323.035313 50.593281) scale(0.11 -0.11)">
      <use xlink:href="#ArialMT-31"/>
      <use xlink:href="#ArialMT-30" transform="translate(55.615234 0)"/>
      <use xlink:href="#ArialMT-30" transform="translate(111.230469 0)"/>
      <use xlink:href="#ArialMT-20" transform="translate(166.845703 0)"/>
      <use xlink:href="#ArialMT-6e" transform="translate(194.628906 0)"/>
      <use xlink:href="#ArialMT-4d" transform="translate(250.244141 0)"/>
     </g>
    </g>
    <g id="patch_25">
     <path d="M 292.235313 66.153125 
L 314.235313 66.153125 
L 314.235313 58.453125 
L 292.235313 58.453125 
z
" style="fill: #45a778; opacity: 0.8; stroke: #ffffff; stroke-linejoin: miter"/>
    </g>
    <g id="text_15">
     <!-- 200 nM -->
     <g style="fill: #262626" transform="translate(323.035313 66.153125) scale(0.11 -0.11)">
      <use xlink:href="#ArialMT-32"/>
      <use xlink:href="#ArialMT-30" transform="translate(55.615234 0)"/>
      <use xlink:href="#ArialMT-30" transform="translate(111.230469 0)"/>
      <use xlink:href="#ArialMT-20" transform="translate(166.845703 0)"/>
      <use xlink:href="#ArialMT-6e" transform="translate(194.628906 0)"/>
      <use xlink:href="#ArialMT-4d" transform="translate(250.244141 0)"/>
     </g>
    </g>
    <g id="patch_26">
     <path d="M 292.235313 81.712969 
L 314.235313 81.712969 
L 314.235313 74.012969 
L 292.235313 74.012969 
z
" style="fill: #8fc456; opacity: 0.8; stroke: #ffffff; stroke-linejoin: miter"/>
    </g>
    <g id="text_16">
     <!-- 400 nM -->
     <g style="fill: #262626" transform="translate(323.035313 81.712969) scale(0.11 -0.11)">
      <use xlink:href="#ArialMT-34"/>
      <use xlink:href="#ArialMT-30" transform="translate(55.615234 0)"/>
      <use xlink:href="#ArialMT-30" transform="translate(111.230469 0)"/>
      <use xlink:href="#ArialMT-20" transform="translate(166.845703 0)"/>
      <use xlink:href="#ArialMT-6e" transform="translate(194.628906 0)"/>
      <use xlink:href="#ArialMT-4d" transform="translate(250.244141 0)"/>
     </g>
    </g>
   </g>
  </g>
 </g>
 <defs>
  <clipPath id="pc9cfa9dc9d">
   <rect x="49.695313" y="7.2" width="226.8" height="117"/>
  </clipPath>
 </defs>
</svg>
