<?xml version="1.0" encoding="utf-8" standalone="no"?>
<!DOCTYPE svg PUBLIC "-//W3C//DTD SVG 1.1//EN"
  "http://www.w3.org/Graphics/SVG/1.1/DTD/svg11.dtd">
<svg xmlns:xlink="http://www.w3.org/1999/xlink" width="297.612031pt" height="162.594406pt" viewBox="0 0 297.612031 162.594406" xmlns="http://www.w3.org/2000/svg" version="1.1">
 <metadata>
  <rdf:RDF xmlns:dc="http://purl.org/dc/elements/1.1/" xmlns:cc="http://creativecommons.org/ns#" xmlns:rdf="http://www.w3.org/1999/02/22-rdf-syntax-ns#">
   <cc:Work>
    <dc:type rdf:resource="http://purl.org/dc/dcmitype/StillImage"/>
    <dc:date>2025-07-28T17:36:18.060395</dc:date>
    <dc:format>image/svg+xml</dc:format>
    <dc:creator>
     <cc:Agent>
      <dc:title>Matplotlib v3.10.3, https://matplotlib.org/</dc:title>
     </cc:Agent>
    </dc:creator>
   </cc:Work>
  </rdf:RDF>
 </metadata>
 <defs>
  <style type="text/css">*{stroke-linejoin: round; stroke-linecap: butt}</style>
 </defs>
 <g id="figure_1">
  <g id="patch_1">
   <path d="M 0 162.594406 
L 297.612031 162.594406 
L 297.612031 0 
L 0 0 
z
" style="fill: #ffffff"/>
  </g>
  <g id="axes_1">
   <g id="patch_2">
    <path d="M 49.695313 124.2 
L 206.295312 124.2 
L 206.295312 7.2 
L 49.695313 7.2 
z
" style="fill: #ffffff"/>
   </g>
   <g id="matplotlib.axis_1">
    <g id="xtick_1">
     <g id="line2d_1">
      <defs>
       <path id="m7cf220172e" d="M 0 0 
L 0 6 
" style="stroke: #262626; stroke-width: 1.25"/>
      </defs>
      <g>
       <use xlink:href="#m7cf220172e" x="88.449858" y="124.2" style="fill: #262626; stroke: #262626; stroke-width: 1.25"/>
      </g>
     </g>
     <g id="text_1">
      <!-- NIL -->
      <g style="fill: #262626" transform="translate(79.891342 141.573594) scale(0.11 -0.11)">
       <defs>
        <path id="ArialMT-4e" d="M 488 0 
L 488 4581 
L 1109 4581 
L 3516 984 
L 3516 4581 
L 4097 4581 
L 4097 0 
L 3475 0 
L 1069 3600 
L 1069 0 
L 488 0 
z
" transform="scale(0.015625)"/>
        <path id="ArialMT-49" d="M 597 0 
L 597 4581 
L 1203 4581 
L 1203 0 
L 597 0 
z
" transform="scale(0.015625)"/>
        <path id="ArialMT-4c" d="M 469 0 
L 469 4581 
L 1075 4581 
L 1075 541 
L 3331 541 
L 3331 0 
L 469 0 
z
" transform="scale(0.015625)"/>
       </defs>
       <use xlink:href="#ArialMT-4e"/>
       <use xlink:href="#ArialMT-49" transform="translate(72.216797 0)"/>
       <use xlink:href="#ArialMT-4c" transform="translate(100 0)"/>
      </g>
      <!-- RIDD -->
      <g style="fill: #262626" transform="translate(75.005795 153.208156) scale(0.11 -0.11)">
       <defs>
        <path id="ArialMT-52" d="M 503 0 
L 503 4581 
L 2534 4581 
Q 3147 4581 3465 4457 
Q 3784 4334 3975 4021 
Q 4166 3709 4166 3331 
Q 4166 2844 3850 2509 
Q 3534 2175 2875 2084 
Q 3116 1969 3241 1856 
Q 3506 1613 3744 1247 
L 4541 0 
L 3778 0 
L 3172 953 
Q 2906 1366 2734 1584 
Q 2563 1803 2427 1890 
Q 2291 1978 2150 2013 
Q 2047 2034 1813 2034 
L 1109 2034 
L 1109 0 
L 503 0 
z
M 1109 2559 
L 2413 2559 
Q 2828 2559 3062 2645 
Q 3297 2731 3419 2920 
Q 3541 3109 3541 3331 
Q 3541 3656 3305 3865 
Q 3069 4075 2559 4075 
L 1109 4075 
L 1109 2559 
z
" transform="scale(0.015625)"/>
        <path id="ArialMT-44" d="M 494 0 
L 494 4581 
L 2072 4581 
Q 2606 4581 2888 4516 
Q 3281 4425 3559 4188 
Q 3922 3881 4101 3404 
Q 4281 2928 4281 2316 
Q 4281 1794 4159 1391 
Q 4038 988 3847 723 
Q 3656 459 3429 307 
Q 3203 156 2883 78 
Q 2563 0 2147 0 
L 494 0 
z
M 1100 541 
L 2078 541 
Q 2531 541 2789 625 
Q 3047 709 3200 863 
Q 3416 1078 3536 1442 
Q 3656 1806 3656 2325 
Q 3656 3044 3420 3430 
Q 3184 3816 2847 3947 
Q 2603 4041 2063 4041 
L 1100 4041 
L 1100 541 
z
" transform="scale(0.015625)"/>
       </defs>
       <use xlink:href="#ArialMT-52"/>
       <use xlink:href="#ArialMT-49" transform="translate(72.216797 0)"/>
       <use xlink:href="#ArialMT-44" transform="translate(100 0)"/>
       <use xlink:href="#ArialMT-44" transform="translate(172.216797 0)"/>
      </g>
     </g>
    </g>
    <g id="xtick_2">
     <g id="line2d_2">
      <g>
       <use xlink:href="#m7cf220172e" x="167.540767" y="124.2" style="fill: #262626; stroke: #262626; stroke-width: 1.25"/>
      </g>
     </g>
     <g id="text_2">
      <!-- NIL -->
      <g style="fill: #262626" transform="translate(158.982251 141.573594) scale(0.11 -0.11)">
       <use xlink:href="#ArialMT-4e"/>
       <use xlink:href="#ArialMT-49" transform="translate(72.216797 0)"/>
       <use xlink:href="#ArialMT-4c" transform="translate(100 0)"/>
      </g>
      <!-- RISDD -->
      <g style="fill: #262626" transform="translate(150.428033 153.208156) scale(0.11 -0.11)">
       <defs>
        <path id="ArialMT-53" d="M 288 1472 
L 859 1522 
Q 900 1178 1048 958 
Q 1197 738 1509 602 
Q 1822 466 2213 466 
Q 2559 466 2825 569 
Q 3091 672 3220 851 
Q 3350 1031 3350 1244 
Q 3350 1459 3225 1620 
Q 3100 1781 2813 1891 
Q 2628 1963 1997 2114 
Q 1366 2266 1113 2400 
Q 784 2572 623 2826 
Q 463 3081 463 3397 
Q 463 3744 659 4045 
Q 856 4347 1234 4503 
Q 1613 4659 2075 4659 
Q 2584 4659 2973 4495 
Q 3363 4331 3572 4012 
Q 3781 3694 3797 3291 
L 3216 3247 
Q 3169 3681 2898 3903 
Q 2628 4125 2100 4125 
Q 1550 4125 1298 3923 
Q 1047 3722 1047 3438 
Q 1047 3191 1225 3031 
Q 1400 2872 2139 2705 
Q 2878 2538 3153 2413 
Q 3553 2228 3743 1945 
Q 3934 1663 3934 1294 
Q 3934 928 3725 604 
Q 3516 281 3123 101 
Q 2731 -78 2241 -78 
Q 1619 -78 1198 103 
Q 778 284 539 648 
Q 300 1013 288 1472 
z
" transform="scale(0.015625)"/>
       </defs>
       <use xlink:href="#ArialMT-52"/>
       <use xlink:href="#ArialMT-49" transform="translate(72.216797 0)"/>
       <use xlink:href="#ArialMT-53" transform="translate(100 0)"/>
       <use xlink:href="#ArialMT-44" transform="translate(166.699219 0)"/>
       <use xlink:href="#ArialMT-44" transform="translate(238.916016 0)"/>
      </g>
     </g>
    </g>
   </g>
   <g id="matplotlib.axis_2">
    <g id="ytick_1">
     <g id="line2d_3">
      <defs>
       <path id="m37fc7ddf9c" d="M 0 0 
L -6 0 
" style="stroke: #262626; stroke-width: 1.25"/>
      </defs>
      <g>
       <use xlink:href="#m37fc7ddf9c" x="49.695313" y="124.2" style="fill: #262626; stroke: #262626; stroke-width: 1.25"/>
      </g>
     </g>
     <g id="text_3">
      <!-- 0 -->
      <g style="fill: #262626" transform="translate(34.078281 128.136797) scale(0.11 -0.11)">
       <defs>
        <path id="ArialMT-30" d="M 266 2259 
Q 266 3072 433 3567 
Q 600 4063 929 4331 
Q 1259 4600 1759 4600 
Q 2128 4600 2406 4451 
Q 2684 4303 2865 4023 
Q 3047 3744 3150 3342 
Q 3253 2941 3253 2259 
Q 3253 1453 3087 958 
Q 2922 463 2592 192 
Q 2263 -78 1759 -78 
Q 1097 -78 719 397 
Q 266 969 266 2259 
z
M 844 2259 
Q 844 1131 1108 757 
Q 1372 384 1759 384 
Q 2147 384 2411 759 
Q 2675 1134 2675 2259 
Q 2675 3391 2411 3762 
Q 2147 4134 1753 4134 
Q 1366 4134 1134 3806 
Q 844 3388 844 2259 
z
" transform="scale(0.015625)"/>
       </defs>
       <use xlink:href="#ArialMT-30"/>
      </g>
     </g>
    </g>
    <g id="ytick_2">
     <g id="line2d_4">
      <g>
       <use xlink:href="#m37fc7ddf9c" x="49.695313" y="99.254338" style="fill: #262626; stroke: #262626; stroke-width: 1.25"/>
      </g>
     </g>
     <g id="text_4">
      <!-- 20k -->
      <g style="fill: #262626" transform="translate(22.46125 103.191134) scale(0.11 -0.11)">
       <defs>
        <path id="ArialMT-32" d="M 3222 541 
L 3222 0 
L 194 0 
Q 188 203 259 391 
Q 375 700 629 1000 
Q 884 1300 1366 1694 
Q 2113 2306 2375 2664 
Q 2638 3022 2638 3341 
Q 2638 3675 2398 3904 
Q 2159 4134 1775 4134 
Q 1369 4134 1125 3890 
Q 881 3647 878 3216 
L 300 3275 
Q 359 3922 746 4261 
Q 1134 4600 1788 4600 
Q 2447 4600 2831 4234 
Q 3216 3869 3216 3328 
Q 3216 3053 3103 2787 
Q 2991 2522 2730 2228 
Q 2469 1934 1863 1422 
Q 1356 997 1212 845 
Q 1069 694 975 541 
L 3222 541 
z
" transform="scale(0.015625)"/>
        <path id="ArialMT-6b" d="M 425 0 
L 425 4581 
L 988 4581 
L 988 1969 
L 2319 3319 
L 3047 3319 
L 1778 2088 
L 3175 0 
L 2481 0 
L 1384 1697 
L 988 1316 
L 988 0 
L 425 0 
z
" transform="scale(0.015625)"/>
       </defs>
       <use xlink:href="#ArialMT-32"/>
       <use xlink:href="#ArialMT-30" transform="translate(55.615234 0)"/>
       <use xlink:href="#ArialMT-6b" transform="translate(111.230469 0)"/>
      </g>
     </g>
    </g>
    <g id="ytick_3">
     <g id="line2d_5">
      <g>
       <use xlink:href="#m37fc7ddf9c" x="49.695313" y="74.308675" style="fill: #262626; stroke: #262626; stroke-width: 1.25"/>
      </g>
     </g>
     <g id="text_5">
      <!-- 40k -->
      <g style="fill: #262626" transform="translate(22.46125 78.245472) scale(0.11 -0.11)">
       <defs>
        <path id="ArialMT-34" d="M 2069 0 
L 2069 1097 
L 81 1097 
L 81 1613 
L 2172 4581 
L 2631 4581 
L 2631 1613 
L 3250 1613 
L 3250 1097 
L 2631 1097 
L 2631 0 
L 2069 0 
z
M 2069 1613 
L 2069 3678 
L 634 1613 
L 2069 1613 
z
" transform="scale(0.015625)"/>
       </defs>
       <use xlink:href="#ArialMT-34"/>
       <use xlink:href="#ArialMT-30" transform="translate(55.615234 0)"/>
       <use xlink:href="#ArialMT-6b" transform="translate(111.230469 0)"/>
      </g>
     </g>
    </g>
    <g id="ytick_4">
     <g id="line2d_6">
      <g>
       <use xlink:href="#m37fc7ddf9c" x="49.695313" y="49.363013" style="fill: #262626; stroke: #262626; stroke-width: 1.25"/>
      </g>
     </g>
     <g id="text_6">
      <!-- 60k -->
      <g style="fill: #262626" transform="translate(22.46125 53.29981) scale(0.11 -0.11)">
       <defs>
        <path id="ArialMT-36" d="M 3184 3459 
L 2625 3416 
Q 2550 3747 2413 3897 
Q 2184 4138 1850 4138 
Q 1581 4138 1378 3988 
Q 1113 3794 959 3422 
Q 806 3050 800 2363 
Q 1003 2672 1297 2822 
Q 1591 2972 1913 2972 
Q 2475 2972 2870 2558 
Q 3266 2144 3266 1488 
Q 3266 1056 3080 686 
Q 2894 316 2569 119 
Q 2244 -78 1831 -78 
Q 1128 -78 684 439 
Q 241 956 241 2144 
Q 241 3472 731 4075 
Q 1159 4600 1884 4600 
Q 2425 4600 2770 4297 
Q 3116 3994 3184 3459 
z
M 888 1484 
Q 888 1194 1011 928 
Q 1134 663 1356 523 
Q 1578 384 1822 384 
Q 2178 384 2434 671 
Q 2691 959 2691 1453 
Q 2691 1928 2437 2201 
Q 2184 2475 1800 2475 
Q 1419 2475 1153 2201 
Q 888 1928 888 1484 
z
" transform="scale(0.015625)"/>
       </defs>
       <use xlink:href="#ArialMT-36"/>
       <use xlink:href="#ArialMT-30" transform="translate(55.615234 0)"/>
       <use xlink:href="#ArialMT-6b" transform="translate(111.230469 0)"/>
      </g>
     </g>
    </g>
    <g id="ytick_5">
     <g id="line2d_7">
      <g>
       <use xlink:href="#m37fc7ddf9c" x="49.695313" y="24.41735" style="fill: #262626; stroke: #262626; stroke-width: 1.25"/>
      </g>
     </g>
     <g id="text_7">
      <!-- 80k -->
      <g style="fill: #262626" transform="translate(22.46125 28.354147) scale(0.11 -0.11)">
       <defs>
        <path id="ArialMT-38" d="M 1131 2484 
Q 781 2613 612 2850 
Q 444 3088 444 3419 
Q 444 3919 803 4259 
Q 1163 4600 1759 4600 
Q 2359 4600 2725 4251 
Q 3091 3903 3091 3403 
Q 3091 3084 2923 2848 
Q 2756 2613 2416 2484 
Q 2838 2347 3058 2040 
Q 3278 1734 3278 1309 
Q 3278 722 2862 322 
Q 2447 -78 1769 -78 
Q 1091 -78 675 323 
Q 259 725 259 1325 
Q 259 1772 486 2073 
Q 713 2375 1131 2484 
z
M 1019 3438 
Q 1019 3113 1228 2906 
Q 1438 2700 1772 2700 
Q 2097 2700 2305 2904 
Q 2513 3109 2513 3406 
Q 2513 3716 2298 3927 
Q 2084 4138 1766 4138 
Q 1444 4138 1231 3931 
Q 1019 3725 1019 3438 
z
M 838 1322 
Q 838 1081 952 856 
Q 1066 631 1291 507 
Q 1516 384 1775 384 
Q 2178 384 2440 643 
Q 2703 903 2703 1303 
Q 2703 1709 2433 1975 
Q 2163 2241 1756 2241 
Q 1359 2241 1098 1978 
Q 838 1716 838 1322 
z
" transform="scale(0.015625)"/>
       </defs>
       <use xlink:href="#ArialMT-38"/>
       <use xlink:href="#ArialMT-30" transform="translate(55.615234 0)"/>
       <use xlink:href="#ArialMT-6b" transform="translate(111.230469 0)"/>
      </g>
     </g>
    </g>
    <g id="text_8">
     <!-- Single Cells Count -->
     <g style="fill: #262626" transform="translate(15.935625 115.0575) rotate(-90) scale(0.12 -0.12)">
      <defs>
       <path id="ArialMT-69" d="M 425 3934 
L 425 4581 
L 988 4581 
L 988 3934 
L 425 3934 
z
M 425 0 
L 425 3319 
L 988 3319 
L 988 0 
L 425 0 
z
" transform="scale(0.015625)"/>
       <path id="ArialMT-6e" d="M 422 0 
L 422 3319 
L 928 3319 
L 928 2847 
Q 1294 3394 1984 3394 
Q 2284 3394 2536 3286 
Q 2788 3178 2913 3003 
Q 3038 2828 3088 2588 
Q 3119 2431 3119 2041 
L 3119 0 
L 2556 0 
L 2556 2019 
Q 2556 2363 2490 2533 
Q 2425 2703 2258 2804 
Q 2091 2906 1866 2906 
Q 1506 2906 1245 2678 
Q 984 2450 984 1813 
L 984 0 
L 422 0 
z
" transform="scale(0.015625)"/>
       <path id="ArialMT-67" d="M 319 -275 
L 866 -356 
Q 900 -609 1056 -725 
Q 1266 -881 1628 -881 
Q 2019 -881 2231 -725 
Q 2444 -569 2519 -288 
Q 2563 -116 2559 434 
Q 2191 0 1641 0 
Q 956 0 581 494 
Q 206 988 206 1678 
Q 206 2153 378 2554 
Q 550 2956 876 3175 
Q 1203 3394 1644 3394 
Q 2231 3394 2613 2919 
L 2613 3319 
L 3131 3319 
L 3131 450 
Q 3131 -325 2973 -648 
Q 2816 -972 2473 -1159 
Q 2131 -1347 1631 -1347 
Q 1038 -1347 672 -1080 
Q 306 -813 319 -275 
z
M 784 1719 
Q 784 1066 1043 766 
Q 1303 466 1694 466 
Q 2081 466 2343 764 
Q 2606 1063 2606 1700 
Q 2606 2309 2336 2618 
Q 2066 2928 1684 2928 
Q 1309 2928 1046 2623 
Q 784 2319 784 1719 
z
" transform="scale(0.015625)"/>
       <path id="ArialMT-6c" d="M 409 0 
L 409 4581 
L 972 4581 
L 972 0 
L 409 0 
z
" transform="scale(0.015625)"/>
       <path id="ArialMT-65" d="M 2694 1069 
L 3275 997 
Q 3138 488 2766 206 
Q 2394 -75 1816 -75 
Q 1088 -75 661 373 
Q 234 822 234 1631 
Q 234 2469 665 2931 
Q 1097 3394 1784 3394 
Q 2450 3394 2872 2941 
Q 3294 2488 3294 1666 
Q 3294 1616 3291 1516 
L 816 1516 
Q 847 969 1125 678 
Q 1403 388 1819 388 
Q 2128 388 2347 550 
Q 2566 713 2694 1069 
z
M 847 1978 
L 2700 1978 
Q 2663 2397 2488 2606 
Q 2219 2931 1791 2931 
Q 1403 2931 1139 2672 
Q 875 2413 847 1978 
z
" transform="scale(0.015625)"/>
       <path id="ArialMT-20" transform="scale(0.015625)"/>
       <path id="ArialMT-43" d="M 3763 1606 
L 4369 1453 
Q 4178 706 3683 314 
Q 3188 -78 2472 -78 
Q 1731 -78 1267 223 
Q 803 525 561 1097 
Q 319 1669 319 2325 
Q 319 3041 592 3573 
Q 866 4106 1370 4382 
Q 1875 4659 2481 4659 
Q 3169 4659 3637 4309 
Q 4106 3959 4291 3325 
L 3694 3184 
Q 3534 3684 3231 3912 
Q 2928 4141 2469 4141 
Q 1941 4141 1586 3887 
Q 1231 3634 1087 3207 
Q 944 2781 944 2328 
Q 944 1744 1114 1308 
Q 1284 872 1643 656 
Q 2003 441 2422 441 
Q 2931 441 3284 734 
Q 3638 1028 3763 1606 
z
" transform="scale(0.015625)"/>
       <path id="ArialMT-73" d="M 197 991 
L 753 1078 
Q 800 744 1014 566 
Q 1228 388 1613 388 
Q 2000 388 2187 545 
Q 2375 703 2375 916 
Q 2375 1106 2209 1216 
Q 2094 1291 1634 1406 
Q 1016 1563 777 1677 
Q 538 1791 414 1992 
Q 291 2194 291 2438 
Q 291 2659 392 2848 
Q 494 3038 669 3163 
Q 800 3259 1026 3326 
Q 1253 3394 1513 3394 
Q 1903 3394 2198 3281 
Q 2494 3169 2634 2976 
Q 2775 2784 2828 2463 
L 2278 2388 
Q 2241 2644 2061 2787 
Q 1881 2931 1553 2931 
Q 1166 2931 1000 2803 
Q 834 2675 834 2503 
Q 834 2394 903 2306 
Q 972 2216 1119 2156 
Q 1203 2125 1616 2013 
Q 2213 1853 2448 1751 
Q 2684 1650 2818 1456 
Q 2953 1263 2953 975 
Q 2953 694 2789 445 
Q 2625 197 2315 61 
Q 2006 -75 1616 -75 
Q 969 -75 630 194 
Q 291 463 197 991 
z
" transform="scale(0.015625)"/>
       <path id="ArialMT-6f" d="M 213 1659 
Q 213 2581 725 3025 
Q 1153 3394 1769 3394 
Q 2453 3394 2887 2945 
Q 3322 2497 3322 1706 
Q 3322 1066 3130 698 
Q 2938 331 2570 128 
Q 2203 -75 1769 -75 
Q 1072 -75 642 372 
Q 213 819 213 1659 
z
M 791 1659 
Q 791 1022 1069 705 
Q 1347 388 1769 388 
Q 2188 388 2466 706 
Q 2744 1025 2744 1678 
Q 2744 2294 2464 2611 
Q 2184 2928 1769 2928 
Q 1347 2928 1069 2612 
Q 791 2297 791 1659 
z
" transform="scale(0.015625)"/>
       <path id="ArialMT-75" d="M 2597 0 
L 2597 488 
Q 2209 -75 1544 -75 
Q 1250 -75 995 37 
Q 741 150 617 320 
Q 494 491 444 738 
Q 409 903 409 1263 
L 409 3319 
L 972 3319 
L 972 1478 
Q 972 1038 1006 884 
Q 1059 663 1231 536 
Q 1403 409 1656 409 
Q 1909 409 2131 539 
Q 2353 669 2445 892 
Q 2538 1116 2538 1541 
L 2538 3319 
L 3100 3319 
L 3100 0 
L 2597 0 
z
" transform="scale(0.015625)"/>
       <path id="ArialMT-74" d="M 1650 503 
L 1731 6 
Q 1494 -44 1306 -44 
Q 1000 -44 831 53 
Q 663 150 594 308 
Q 525 466 525 972 
L 525 2881 
L 113 2881 
L 113 3319 
L 525 3319 
L 525 4141 
L 1084 4478 
L 1084 3319 
L 1650 3319 
L 1650 2881 
L 1084 2881 
L 1084 941 
Q 1084 700 1114 631 
Q 1144 563 1211 522 
Q 1278 481 1403 481 
Q 1497 481 1650 503 
z
" transform="scale(0.015625)"/>
      </defs>
      <use xlink:href="#ArialMT-53"/>
      <use xlink:href="#ArialMT-69" transform="translate(66.699219 0)"/>
      <use xlink:href="#ArialMT-6e" transform="translate(88.916016 0)"/>
      <use xlink:href="#ArialMT-67" transform="translate(144.53125 0)"/>
      <use xlink:href="#ArialMT-6c" transform="translate(200.146484 0)"/>
      <use xlink:href="#ArialMT-65" transform="translate(222.363281 0)"/>
      <use xlink:href="#ArialMT-20" transform="translate(277.978516 0)"/>
      <use xlink:href="#ArialMT-43" transform="translate(305.761719 0)"/>
      <use xlink:href="#ArialMT-65" transform="translate(377.978516 0)"/>
      <use xlink:href="#ArialMT-6c" transform="translate(433.59375 0)"/>
      <use xlink:href="#ArialMT-6c" transform="translate(455.810547 0)"/>
      <use xlink:href="#ArialMT-73" transform="translate(478.027344 0)"/>
      <use xlink:href="#ArialMT-20" transform="translate(528.027344 0)"/>
      <use xlink:href="#ArialMT-43" transform="translate(555.810547 0)"/>
      <use xlink:href="#ArialMT-6f" transform="translate(628.027344 0)"/>
      <use xlink:href="#ArialMT-75" transform="translate(683.642578 0)"/>
      <use xlink:href="#ArialMT-6e" transform="translate(739.257812 0)"/>
      <use xlink:href="#ArialMT-74" transform="translate(794.873047 0)"/>
     </g>
    </g>
   </g>
   <g id="patch_3">
    <path d="M 56.813494 124.2 
L 69.46804 124.2 
L 69.46804 60.380472 
L 56.813494 60.380472 
z
" clip-path="url(#p0034e4cc07)" style="fill: #4b4279; opacity: 0.8; stroke: #ffffff; stroke-linejoin: miter"/>
   </g>
   <g id="patch_4">
    <path d="M 135.904403 124.2 
L 148.558949 124.2 
L 148.558949 112.611077 
L 135.904403 112.611077 
z
" clip-path="url(#p0034e4cc07)" style="fill: #4b4279; opacity: 0.8; stroke: #ffffff; stroke-linejoin: miter"/>
   </g>
   <g id="patch_5">
    <path d="M 69.46804 124.2 
L 82.122585 124.2 
L 82.122585 57.158116 
L 69.46804 57.158116 
z
" clip-path="url(#p0034e4cc07)" style="fill: #3c6682; opacity: 0.8; stroke: #ffffff; stroke-linejoin: miter"/>
   </g>
   <g id="patch_6">
    <path d="M 148.558949 124.2 
L 161.213494 124.2 
L 161.213494 115.085271 
L 148.558949 115.085271 
z
" clip-path="url(#p0034e4cc07)" style="fill: #3c6682; opacity: 0.8; stroke: #ffffff; stroke-linejoin: miter"/>
   </g>
   <g id="patch_7">
    <path d="M 82.122585 124.2 
L 94.777131 124.2 
L 94.777131 71.150035 
L 82.122585 71.150035 
z
" clip-path="url(#p0034e4cc07)" style="fill: #2f837f; opacity: 0.8; stroke: #ffffff; stroke-linejoin: miter"/>
   </g>
   <g id="patch_8">
    <path d="M 161.213494 124.2 
L 173.86804 124.2 
L 173.86804 118.602401 
L 161.213494 118.602401 
z
" clip-path="url(#p0034e4cc07)" style="fill: #2f837f; opacity: 0.8; stroke: #ffffff; stroke-linejoin: miter"/>
   </g>
   <g id="patch_9">
    <path d="M 94.777131 124.2 
L 107.431676 124.2 
L 107.431676 74.378662 
L 94.777131 74.378662 
z
" clip-path="url(#p0034e4cc07)" style="fill: #45a778; opacity: 0.8; stroke: #ffffff; stroke-linejoin: miter"/>
   </g>
   <g id="patch_10">
    <path d="M 173.86804 124.2 
L 186.522585 124.2 
L 186.522585 118.58099 
L 173.86804 118.58099 
z
" clip-path="url(#p0034e4cc07)" style="fill: #45a778; opacity: 0.8; stroke: #ffffff; stroke-linejoin: miter"/>
   </g>
   <g id="patch_11">
    <path d="M 107.431676 124.2 
L 120.086222 124.2 
L 120.086222 70.928434 
L 107.431676 70.928434 
z
" clip-path="url(#p0034e4cc07)" style="fill: #8fc456; opacity: 0.8; stroke: #ffffff; stroke-linejoin: miter"/>
   </g>
   <g id="patch_12">
    <path d="M 186.522585 124.2 
L 199.177131 124.2 
L 199.177131 118.858198 
L 186.522585 118.858198 
z
" clip-path="url(#p0034e4cc07)" style="fill: #8fc456; opacity: 0.8; stroke: #ffffff; stroke-linejoin: miter"/>
   </g>
   <g id="line2d_8">
    <path d="M 63.140767 68.869203 
L 63.140767 52.222282 
" clip-path="url(#p0034e4cc07)" style="fill: none; stroke: #424242; stroke-width: 2.7; stroke-linecap: round"/>
   </g>
   <g id="line2d_9">
    <path d="M 142.231676 113.972502 
L 142.231676 111.254046 
" clip-path="url(#p0034e4cc07)" style="fill: none; stroke: #424242; stroke-width: 2.7; stroke-linecap: round"/>
   </g>
   <g id="line2d_10">
    <path d="M 75.795313 65.573858 
L 75.795313 48.13855 
" clip-path="url(#p0034e4cc07)" style="fill: none; stroke: #424242; stroke-width: 2.7; stroke-linecap: round"/>
   </g>
   <g id="line2d_11">
    <path d="M 154.886222 117.294014 
L 154.886222 112.184321 
" clip-path="url(#p0034e4cc07)" style="fill: none; stroke: #424242; stroke-width: 2.7; stroke-linecap: round"/>
   </g>
   <g id="line2d_12">
    <path d="M 88.449858 77.518389 
L 88.449858 65.606851 
" clip-path="url(#p0034e4cc07)" style="fill: none; stroke: #424242; stroke-width: 2.7; stroke-linecap: round"/>
   </g>
   <g id="line2d_13">
    <path d="M 167.540767 119.495926 
L 167.540767 117.851508 
" clip-path="url(#p0034e4cc07)" style="fill: none; stroke: #424242; stroke-width: 2.7; stroke-linecap: round"/>
   </g>
   <g id="line2d_14">
    <path d="M 101.104403 82.140653 
L 101.104403 67.645041 
" clip-path="url(#p0034e4cc07)" style="fill: none; stroke: #424242; stroke-width: 2.7; stroke-linecap: round"/>
   </g>
   <g id="line2d_15">
    <path d="M 180.195312 119.3845 
L 180.195312 117.818196 
" clip-path="url(#p0034e4cc07)" style="fill: none; stroke: #424242; stroke-width: 2.7; stroke-linecap: round"/>
   </g>
   <g id="line2d_16">
    <path d="M 113.758949 77.452185 
L 113.758949 64.926326 
" clip-path="url(#p0034e4cc07)" style="fill: none; stroke: #424242; stroke-width: 2.7; stroke-linecap: round"/>
   </g>
   <g id="line2d_17">
    <path d="M 192.849858 120.008009 
L 192.849858 117.629996 
" clip-path="url(#p0034e4cc07)" style="fill: none; stroke: #424242; stroke-width: 2.7; stroke-linecap: round"/>
   </g>
   <g id="line2d_18">
    <path d="M 63.140767 23.495481 
L 63.140767 21.506022 
L 88.449858 21.506022 
L 88.449858 23.495481 
" clip-path="url(#p0034e4cc07)" style="fill: none; stroke: #333333; stroke-width: 1.5; stroke-linecap: round"/>
   </g>
   <g id="line2d_19">
    <path d="M 142.231676 94.867516 
L 142.231676 92.878057 
L 167.540767 92.878057 
L 167.540767 94.867516 
" clip-path="url(#p0034e4cc07)" style="fill: none; stroke: #333333; stroke-width: 1.5; stroke-linecap: round"/>
   </g>
   <g id="patch_13">
    <path d="M 49.695313 124.2 
L 49.695313 7.2 
" style="fill: none; stroke: #262626; stroke-width: 1.25; stroke-linejoin: miter; stroke-linecap: square"/>
   </g>
   <g id="patch_14">
    <path d="M 206.295312 124.2 
L 206.295312 7.2 
" style="fill: none; stroke: #262626; stroke-width: 1.25; stroke-linejoin: miter; stroke-linecap: square"/>
   </g>
   <g id="patch_15">
    <path d="M 49.695313 124.2 
L 206.295313 124.2 
" style="fill: none; stroke: #262626; stroke-width: 1.25; stroke-linejoin: miter; stroke-linecap: square"/>
   </g>
   <g id="patch_16">
    <path d="M 49.695313 7.2 
L 206.295313 7.2 
" style="fill: none; stroke: #262626; stroke-width: 1.25; stroke-linejoin: miter; stroke-linecap: square"/>
   </g>
   <g id="PathCollection_1">
    <defs>
     <path id="C0_0_b75e5ace18" d="M 0 2.5 
C 0.663008 2.5 1.29895 2.236584 1.767767 1.767767 
C 2.236584 1.29895 2.5 0.663008 2.5 -0 
C 2.5 -0.663008 2.236584 -1.29895 1.767767 -1.767767 
C 1.29895 -2.236584 0.663008 -2.5 0 -2.5 
C -0.663008 -2.5 -1.29895 -2.236584 -1.767767 -1.767767 
C -2.236584 -1.29895 -2.5 -0.663008 -2.5 0 
C -2.5 0.663008 -2.236584 1.29895 -1.767767 1.767767 
C -1.29895 2.236584 -0.663008 2.5 0 2.5 
z
"/>
    </defs>
    <g clip-path="url(#p0034e4cc07)">
     <use xlink:href="#C0_0_b75e5ace18" x="63.857349" y="76.315554" style="fill: #ffffff; stroke: #000000; stroke-width: 0.4"/>
    </g>
    <g clip-path="url(#p0034e4cc07)">
     <use xlink:href="#C0_0_b75e5ace18" x="64.645093" y="60.401468" style="fill: #ffffff; stroke: #000000; stroke-width: 0.4"/>
    </g>
    <g clip-path="url(#p0034e4cc07)">
     <use xlink:href="#C0_0_b75e5ace18" x="63.413731" y="70.438356" style="fill: #ffffff; stroke: #000000; stroke-width: 0.4"/>
    </g>
   </g>
   <g id="PathCollection_2">
    <defs>
     <path id="C1_0_d98a97ddda" d="M 0 2.5 
C 0.663008 2.5 1.29895 2.236584 1.767767 1.767767 
C 2.236584 1.29895 2.5 0.663008 2.5 -0 
C 2.5 -0.663008 2.236584 -1.29895 1.767767 -1.767767 
C 1.29895 -2.236584 0.663008 -2.5 0 -2.5 
C -0.663008 -2.5 -1.29895 -2.236584 -1.767767 -1.767767 
C -2.236584 -1.29895 -2.5 -0.663008 -2.5 0 
C -2.5 0.663008 -2.236584 1.29895 -1.767767 1.767767 
C -1.29895 2.236584 -0.663008 2.5 0 2.5 
z
"/>
    </defs>
    <g clip-path="url(#p0034e4cc07)">
     <use xlink:href="#C1_0_d98a97ddda" x="74.592909" y="51.509587" style="fill: #ffffff; stroke: #000000; stroke-width: 0.4"/>
    </g>
    <g clip-path="url(#p0034e4cc07)">
     <use xlink:href="#C1_0_d98a97ddda" x="77.110733" y="50.731282" style="fill: #ffffff; stroke: #000000; stroke-width: 0.4"/>
    </g>
    <g clip-path="url(#p0034e4cc07)">
     <use xlink:href="#C1_0_d98a97ddda" x="75.945477" y="55.540806" style="fill: #ffffff; stroke: #000000; stroke-width: 0.4"/>
    </g>
   </g>
   <g id="PathCollection_3">
    <defs>
     <path id="C2_0_26e975a220" d="M 0 2.5 
C 0.663008 2.5 1.29895 2.236584 1.767767 1.767767 
C 2.236584 1.29895 2.5 0.663008 2.5 -0 
C 2.5 -0.663008 2.236584 -1.29895 1.767767 -1.767767 
C 1.29895 -2.236584 0.663008 -2.5 0 -2.5 
C -0.663008 -2.5 -1.29895 -2.236584 -1.767767 -1.767767 
C -2.236584 -1.29895 -2.5 -0.663008 -2.5 0 
C -2.5 0.663008 -2.236584 1.29895 -1.767767 1.767767 
C -1.29895 2.236584 -0.663008 2.5 0 2.5 
z
"/>
    </defs>
    <g clip-path="url(#p0034e4cc07)">
     <use xlink:href="#C2_0_26e975a220" x="87.214012" y="66.188862" style="fill: #ffffff; stroke: #000000; stroke-width: 0.4"/>
    </g>
    <g clip-path="url(#p0034e4cc07)">
     <use xlink:href="#C2_0_26e975a220" x="89.397079" y="65.273356" style="fill: #ffffff; stroke: #000000; stroke-width: 0.4"/>
    </g>
    <g clip-path="url(#p0034e4cc07)">
     <use xlink:href="#C2_0_26e975a220" x="88.068243" y="68.546227" style="fill: #ffffff; stroke: #000000; stroke-width: 0.4"/>
    </g>
   </g>
   <g id="PathCollection_4">
    <path d="M 0 165.094406 
C 0.663008 165.094406 1.29895 164.83099 1.767767 164.362173 
C 2.236584 163.893356 2.5 163.257414 2.5 162.594406 
C 2.5 161.931399 2.236584 161.295457 1.767767 160.826639 
C 1.29895 160.357822 0.663008 160.094406 0 160.094406 
C -0.663008 160.094406 -1.29895 160.357822 -1.767767 160.826639 
C -2.236584 161.295457 -2.5 161.931399 -2.5 162.594406 
C -2.5 163.257414 -2.236584 163.893356 -1.767767 164.362173 
C -1.29895 164.83099 -0.663008 165.094406 0 165.094406 
" clip-path="url(#p0034e4cc07)" style="fill: none; stroke: #000000; stroke-width: 0.4"/>
   </g>
   <g id="PathCollection_5">
    <defs>
     <path id="C3_0_cfad1aadf0" d="M 0 2.5 
C 0.663008 2.5 1.29895 2.236584 1.767767 1.767767 
C 2.236584 1.29895 2.5 0.663008 2.5 -0 
C 2.5 -0.663008 2.236584 -1.29895 1.767767 -1.767767 
C 1.29895 -2.236584 0.663008 -2.5 0 -2.5 
C -0.663008 -2.5 -1.29895 -2.236584 -1.767767 -1.767767 
C -2.236584 -1.29895 -2.5 -0.663008 -2.5 0 
C -2.5 0.663008 -2.236584 1.29895 -1.767767 1.767767 
C -1.29895 2.236584 -0.663008 2.5 0 2.5 
z
"/>
    </defs>
    <g clip-path="url(#p0034e4cc07)">
     <use xlink:href="#C3_0_cfad1aadf0" x="113.244146" y="82.005659" style="fill: #ffffff; stroke: #000000; stroke-width: 0.4"/>
    </g>
    <g clip-path="url(#p0034e4cc07)">
     <use xlink:href="#C3_0_cfad1aadf0" x="114.477301" y="61.664966" style="fill: #ffffff; stroke: #000000; stroke-width: 0.4"/>
    </g>
    <g clip-path="url(#p0034e4cc07)">
     <use xlink:href="#C3_0_cfad1aadf0" x="112.272575" y="64.60606" style="fill: #ffffff; stroke: #000000; stroke-width: 0.4"/>
    </g>
   </g>
   <g id="PathCollection_6">
    <defs>
     <path id="C4_0_20b3a0bf37" d="M 0 2.5 
C 0.663008 2.5 1.29895 2.236584 1.767767 1.767767 
C 2.236584 1.29895 2.5 0.663008 2.5 -0 
C 2.5 -0.663008 2.236584 -1.29895 1.767767 -1.767767 
C 1.29895 -2.236584 0.663008 -2.5 0 -2.5 
C -0.663008 -2.5 -1.29895 -2.236584 -1.767767 -1.767767 
C -2.236584 -1.29895 -2.5 -0.663008 -2.5 0 
C -2.5 0.663008 -2.236584 1.29895 -1.767767 1.767767 
C -1.29895 2.236584 -0.663008 2.5 0 2.5 
z
"/>
    </defs>
    <g clip-path="url(#p0034e4cc07)">
     <use xlink:href="#C4_0_20b3a0bf37" x="140.868223" y="116.993198" style="fill: #ffffff; stroke: #000000; stroke-width: 0.4"/>
    </g>
    <g clip-path="url(#p0034e4cc07)">
     <use xlink:href="#C4_0_20b3a0bf37" x="141.021883" y="109.447135" style="fill: #ffffff; stroke: #000000; stroke-width: 0.4"/>
    </g>
    <g clip-path="url(#p0034e4cc07)">
     <use xlink:href="#C4_0_20b3a0bf37" x="143.428351" y="116.095154" style="fill: #ffffff; stroke: #000000; stroke-width: 0.4"/>
    </g>
   </g>
   <g id="PathCollection_7">
    <defs>
     <path id="C5_0_cb848ba1f1" d="M 0 2.5 
C 0.663008 2.5 1.29895 2.236584 1.767767 1.767767 
C 2.236584 1.29895 2.5 0.663008 2.5 -0 
C 2.5 -0.663008 2.236584 -1.29895 1.767767 -1.767767 
C 1.29895 -2.236584 0.663008 -2.5 0 -2.5 
C -0.663008 -2.5 -1.29895 -2.236584 -1.767767 -1.767767 
C -2.236584 -1.29895 -2.5 -0.663008 -2.5 0 
C -2.5 0.663008 -2.236584 1.29895 -1.767767 1.767767 
C -1.29895 2.236584 -0.663008 2.5 0 2.5 
z
"/>
    </defs>
    <g clip-path="url(#p0034e4cc07)">
     <use xlink:href="#C5_0_cb848ba1f1" x="154.042929" y="117.332459" style="fill: #ffffff; stroke: #000000; stroke-width: 0.4"/>
    </g>
    <g clip-path="url(#p0034e4cc07)">
     <use xlink:href="#C5_0_cb848ba1f1" x="153.342986" y="118.131968" style="fill: #ffffff; stroke: #000000; stroke-width: 0.4"/>
    </g>
    <g clip-path="url(#p0034e4cc07)">
     <use xlink:href="#C5_0_cb848ba1f1" x="155.01886" y="118.408864" style="fill: #ffffff; stroke: #000000; stroke-width: 0.4"/>
    </g>
   </g>
   <g id="PathCollection_8">
    <defs>
     <path id="C6_0_ee5e913bd6" d="M 0 2.5 
C 0.663008 2.5 1.29895 2.236584 1.767767 1.767767 
C 2.236584 1.29895 2.5 0.663008 2.5 -0 
C 2.5 -0.663008 2.236584 -1.29895 1.767767 -1.767767 
C 1.29895 -2.236584 0.663008 -2.5 0 -2.5 
C -0.663008 -2.5 -1.29895 -2.236584 -1.767767 -1.767767 
C -2.236584 -1.29895 -2.5 -0.663008 -2.5 0 
C -2.5 0.663008 -2.236584 1.29895 -1.767767 1.767767 
C -1.29895 2.236584 -0.663008 2.5 0 2.5 
z
"/>
    </defs>
    <g clip-path="url(#p0034e4cc07)">
     <use xlink:href="#C6_0_ee5e913bd6" x="168.265136" y="121.477181" style="fill: #ffffff; stroke: #000000; stroke-width: 0.4"/>
    </g>
    <g clip-path="url(#p0034e4cc07)">
     <use xlink:href="#C6_0_ee5e913bd6" x="168.052458" y="117.38235" style="fill: #ffffff; stroke: #000000; stroke-width: 0.4"/>
    </g>
    <g clip-path="url(#p0034e4cc07)">
     <use xlink:href="#C6_0_ee5e913bd6" x="168.62465" y="121.443504" style="fill: #ffffff; stroke: #000000; stroke-width: 0.4"/>
    </g>
   </g>
   <g id="PathCollection_9">
    <path d="M 0 165.094406 
C 0.663008 165.094406 1.29895 164.83099 1.767767 164.362173 
C 2.236584 163.893356 2.5 163.257414 2.5 162.594406 
C 2.5 161.931399 2.236584 161.295457 1.767767 160.826639 
C 1.29895 160.357822 0.663008 160.094406 0 160.094406 
C -0.663008 160.094406 -1.29895 160.357822 -1.767767 160.826639 
C -2.236584 161.295457 -2.5 161.931399 -2.5 162.594406 
C -2.5 163.257414 -2.236584 163.893356 -1.767767 164.362173 
C -1.29895 164.83099 -0.663008 165.094406 0 165.094406 
" clip-path="url(#p0034e4cc07)" style="fill: none; stroke: #000000; stroke-width: 0.4"/>
   </g>
   <g id="PathCollection_10">
    <defs>
     <path id="C7_0_8be1ef659f" d="M 0 2.5 
C 0.663008 2.5 1.29895 2.236584 1.767767 1.767767 
C 2.236584 1.29895 2.5 0.663008 2.5 -0 
C 2.5 -0.663008 2.236584 -1.29895 1.767767 -1.767767 
C 1.29895 -2.236584 0.663008 -2.5 0 -2.5 
C -0.663008 -2.5 -1.29895 -2.236584 -1.767767 -1.767767 
C -2.236584 -1.29895 -2.5 -0.663008 -2.5 0 
C -2.5 0.663008 -2.236584 1.29895 -1.767767 1.767767 
C -1.29895 2.236584 -0.663008 2.5 0 2.5 
z
"/>
    </defs>
    <g clip-path="url(#p0034e4cc07)">
     <use xlink:href="#C7_0_8be1ef659f" x="192.914543" y="120.663952" style="fill: #ffffff; stroke: #000000; stroke-width: 0.4"/>
    </g>
    <g clip-path="url(#p0034e4cc07)">
     <use xlink:href="#C7_0_8be1ef659f" x="192.492188" y="121.5832" style="fill: #ffffff; stroke: #000000; stroke-width: 0.4"/>
    </g>
    <g clip-path="url(#p0034e4cc07)">
     <use xlink:href="#C7_0_8be1ef659f" x="193.675967" y="120.92214" style="fill: #ffffff; stroke: #000000; stroke-width: 0.4"/>
    </g>
   </g>
   <g id="PathCollection_11">
    <path d="M 62.295098 49.454867 
L 59.795098 54.454867 
L 64.795098 54.454867 
z
" clip-path="url(#p0034e4cc07)" style="fill: #ffffff; stroke: #000000; stroke-width: 0.4"/>
    <path d="M 63.845397 43.227182 
L 61.345397 48.227182 
L 66.345397 48.227182 
z
" clip-path="url(#p0034e4cc07)" style="fill: #ffffff; stroke: #000000; stroke-width: 0.4"/>
    <path d="M 62.755492 38.654642 
L 60.255492 43.654642 
L 65.255492 43.654642 
z
" clip-path="url(#p0034e4cc07)" style="fill: #ffffff; stroke: #000000; stroke-width: 0.4"/>
   </g>
   <g id="PathCollection_12">
    <path d="M 75.188824 61.557255 
L 72.688824 66.557255 
L 77.688824 66.557255 
z
" clip-path="url(#p0034e4cc07)" style="fill: #ffffff; stroke: #000000; stroke-width: 0.4"/>
    <path d="M 75.64333 68.991063 
L 73.14333 73.991063 
L 78.14333 73.991063 
z
" clip-path="url(#p0034e4cc07)" style="fill: #ffffff; stroke: #000000; stroke-width: 0.4"/>
    <path d="M 77.129952 62.561318 
L 74.629952 67.561318 
L 79.629952 67.561318 
z
" clip-path="url(#p0034e4cc07)" style="fill: #ffffff; stroke: #000000; stroke-width: 0.4"/>
   </g>
   <g id="PathCollection_13">
    <path d="M 89.260964 67.177513 
L 86.760964 72.177513 
L 91.760964 72.177513 
z
" clip-path="url(#p0034e4cc07)" style="fill: #ffffff; stroke: #000000; stroke-width: 0.4"/>
    <path d="M 88.257269 70.719797 
L 85.757269 75.719797 
L 90.757269 75.719797 
z
" clip-path="url(#p0034e4cc07)" style="fill: #ffffff; stroke: #000000; stroke-width: 0.4"/>
    <path d="M 88.172575 68.439763 
L 85.672575 73.439763 
L 90.672575 73.439763 
z
" clip-path="url(#p0034e4cc07)" style="fill: #ffffff; stroke: #000000; stroke-width: 0.4"/>
   </g>
   <g id="PathCollection_14">
    <path d="M 102.36898 66.99541 
L 99.86898 71.99541 
L 104.86898 71.99541 
z
" clip-path="url(#p0034e4cc07)" style="fill: #ffffff; stroke: #000000; stroke-width: 0.4"/>
    <path d="M 101.127642 71.464425 
L 98.627642 76.464425 
L 103.627642 76.464425 
z
" clip-path="url(#p0034e4cc07)" style="fill: #ffffff; stroke: #000000; stroke-width: 0.4"/>
    <path d="M 100.52514 66.845736 
L 98.02514 71.845736 
L 103.02514 71.845736 
z
" clip-path="url(#p0034e4cc07)" style="fill: #ffffff; stroke: #000000; stroke-width: 0.4"/>
   </g>
   <g id="PathCollection_15">
    <path d="M 113.534771 62.994125 
L 111.034771 67.994125 
L 116.034771 67.994125 
z
" clip-path="url(#p0034e4cc07)" style="fill: #ffffff; stroke: #000000; stroke-width: 0.4"/>
    <path d="M 114.750553 62.517663 
L 112.250553 67.517663 
L 117.250553 67.517663 
z
" clip-path="url(#p0034e4cc07)" style="fill: #ffffff; stroke: #000000; stroke-width: 0.4"/>
    <path d="M 112.525075 61.227972 
L 110.025075 66.227972 
L 115.025075 66.227972 
z
" clip-path="url(#p0034e4cc07)" style="fill: #ffffff; stroke: #000000; stroke-width: 0.4"/>
   </g>
   <g id="PathCollection_16">
    <path d="M 141.741253 109.601354 
L 139.241253 114.601354 
L 144.241253 114.601354 
z
" clip-path="url(#p0034e4cc07)" style="fill: #ffffff; stroke: #000000; stroke-width: 0.4"/>
    <path d="M 142.177655 110.055365 
L 139.677655 115.055365 
L 144.677655 115.055365 
z
" clip-path="url(#p0034e4cc07)" style="fill: #ffffff; stroke: #000000; stroke-width: 0.4"/>
    <path d="M 143.220458 108.967734 
L 140.720458 113.967734 
L 145.720458 113.967734 
z
" clip-path="url(#p0034e4cc07)" style="fill: #ffffff; stroke: #000000; stroke-width: 0.4"/>
   </g>
   <g id="PathCollection_17">
    <path d="M 153.775921 116.280555 
L 151.275921 121.280555 
L 156.275921 121.280555 
z
" clip-path="url(#p0034e4cc07)" style="fill: #ffffff; stroke: #000000; stroke-width: 0.4"/>
    <path d="M 153.489764 115.784136 
L 150.989764 120.784136 
L 155.989764 120.784136 
z
" clip-path="url(#p0034e4cc07)" style="fill: #ffffff; stroke: #000000; stroke-width: 0.4"/>
    <path d="M 154.158068 116.478873 
L 151.658068 121.478873 
L 156.658068 121.478873 
z
" clip-path="url(#p0034e4cc07)" style="fill: #ffffff; stroke: #000000; stroke-width: 0.4"/>
   </g>
   <g id="PathCollection_18">
    <path d="M 168.45525 115.595796 
L 165.95525 120.595796 
L 170.95525 120.595796 
z
" clip-path="url(#p0034e4cc07)" style="fill: #ffffff; stroke: #000000; stroke-width: 0.4"/>
    <path d="M 167.985076 116.265587 
L 165.485076 121.265587 
L 170.485076 121.265587 
z
" clip-path="url(#p0034e4cc07)" style="fill: #ffffff; stroke: #000000; stroke-width: 0.4"/>
    <path d="M 167.79867 116.457669 
L 165.29867 121.457669 
L 170.29867 121.457669 
z
" clip-path="url(#p0034e4cc07)" style="fill: #ffffff; stroke: #000000; stroke-width: 0.4"/>
   </g>
   <g id="PathCollection_19">
    <path d="M 179.959623 118.175178 
L 177.459623 123.175178 
L 182.459623 123.175178 
z
" clip-path="url(#p0034e4cc07)" style="fill: #ffffff; stroke: #000000; stroke-width: 0.4"/>
    <path d="M 179.004421 116.689664 
L 176.504421 121.689664 
L 181.504421 121.689664 
z
" clip-path="url(#p0034e4cc07)" style="fill: #ffffff; stroke: #000000; stroke-width: 0.4"/>
    <path d="M 180.30813 117.441775 
L 177.80813 122.441775 
L 182.80813 122.441775 
z
" clip-path="url(#p0034e4cc07)" style="fill: #ffffff; stroke: #000000; stroke-width: 0.4"/>
   </g>
   <g id="PathCollection_20">
    <path d="M 194.251456 114.069122 
L 191.751456 119.069122 
L 196.751456 119.069122 
z
" clip-path="url(#p0034e4cc07)" style="fill: #ffffff; stroke: #000000; stroke-width: 0.4"/>
    <path d="M 192.107529 117.361949 
L 189.607529 122.361949 
L 194.607529 122.361949 
z
" clip-path="url(#p0034e4cc07)" style="fill: #ffffff; stroke: #000000; stroke-width: 0.4"/>
    <path d="M 193.816275 118.316121 
L 191.316275 123.316121 
L 196.316275 123.316121 
z
" clip-path="url(#p0034e4cc07)" style="fill: #ffffff; stroke: #000000; stroke-width: 0.4"/>
   </g>
   <g id="PathCollection_21">
    <path d="M 59.585718 45.086523 
L 64.585718 45.086523 
L 64.585718 40.086523 
L 59.585718 40.086523 
z
" clip-path="url(#p0034e4cc07)" style="fill: #ffffff; stroke: #000000; stroke-width: 0.4"/>
    <path d="M 59.649418 51.305477 
L 64.649418 51.305477 
L 64.649418 46.305477 
L 59.649418 46.305477 
z
" clip-path="url(#p0034e4cc07)" style="fill: #ffffff; stroke: #000000; stroke-width: 0.4"/>
    <path d="M 59.5462 49.496917 
L 64.5462 49.496917 
L 64.5462 44.496917 
L 59.5462 44.496917 
z
" clip-path="url(#p0034e4cc07)" style="fill: #ffffff; stroke: #000000; stroke-width: 0.4"/>
   </g>
   <g id="PathCollection_22">
    <path d="M 73.586369 31.963858 
L 78.586369 31.963858 
L 78.586369 26.963858 
L 73.586369 26.963858 
z
" clip-path="url(#p0034e4cc07)" style="fill: #ffffff; stroke: #000000; stroke-width: 0.4"/>
    <path d="M 73.397863 34.756525 
L 78.397863 34.756525 
L 78.397863 29.756525 
L 73.397863 29.756525 
z
" clip-path="url(#p0034e4cc07)" style="fill: #ffffff; stroke: #000000; stroke-width: 0.4"/>
    <path d="M 72.49319 44.509031 
L 77.49319 44.509031 
L 77.49319 39.509031 
L 72.49319 39.509031 
z
" clip-path="url(#p0034e4cc07)" style="fill: #ffffff; stroke: #000000; stroke-width: 0.4"/>
   </g>
   <g id="PathCollection_23">
    <path d="M 85.139971 60.083856 
L 90.139971 60.083856 
L 90.139971 55.083856 
L 85.139971 55.083856 
z
" clip-path="url(#p0034e4cc07)" style="fill: #ffffff; stroke: #000000; stroke-width: 0.4"/>
    <path d="M 85.248324 60.171166 
L 90.248324 60.171166 
L 90.248324 55.171166 
L 85.248324 55.171166 
z
" clip-path="url(#p0034e4cc07)" style="fill: #ffffff; stroke: #000000; stroke-width: 0.4"/>
    <path d="M 85.418098 62.585906 
L 90.418098 62.585906 
L 90.418098 57.585906 
L 85.418098 57.585906 
z
" clip-path="url(#p0034e4cc07)" style="fill: #ffffff; stroke: #000000; stroke-width: 0.4"/>
   </g>
   <g id="PathCollection_24">
    <path d="M 99.78518 63.30933 
L 104.78518 63.30933 
L 104.78518 58.30933 
L 99.78518 58.30933 
z
" clip-path="url(#p0034e4cc07)" style="fill: #ffffff; stroke: #000000; stroke-width: 0.4"/>
    <path d="M 98.337906 65.019355 
L 103.337906 65.019355 
L 103.337906 60.019355 
L 98.337906 60.019355 
z
" clip-path="url(#p0034e4cc07)" style="fill: #ffffff; stroke: #000000; stroke-width: 0.4"/>
    <path d="M 99.979538 69.319987 
L 104.979538 69.319987 
L 104.979538 64.319987 
L 99.979538 64.319987 
z
" clip-path="url(#p0034e4cc07)" style="fill: #ffffff; stroke: #000000; stroke-width: 0.4"/>
   </g>
   <g id="PathCollection_25">
    <path d="M 111.921428 63.021207 
L 116.921428 63.021207 
L 116.921428 58.021207 
L 111.921428 58.021207 
z
" clip-path="url(#p0034e4cc07)" style="fill: #ffffff; stroke: #000000; stroke-width: 0.4"/>
    <path d="M 111.02576 64.242298 
L 116.02576 64.242298 
L 116.02576 59.242298 
L 111.02576 59.242298 
z
" clip-path="url(#p0034e4cc07)" style="fill: #ffffff; stroke: #000000; stroke-width: 0.4"/>
    <path d="M 112.718441 64.662632 
L 117.718441 64.662632 
L 117.718441 59.662632 
L 112.718441 59.662632 
z
" clip-path="url(#p0034e4cc07)" style="fill: #ffffff; stroke: #000000; stroke-width: 0.4"/>
   </g>
   <g id="PathCollection_26">
    <path d="M 141.301494 113.642193 
L 146.301494 113.642193 
L 146.301494 108.642193 
L 141.301494 108.642193 
z
" clip-path="url(#p0034e4cc07)" style="fill: #ffffff; stroke: #000000; stroke-width: 0.4"/>
    <path d="M 139.163828 110.653703 
L 144.163828 110.653703 
L 144.163828 105.653703 
L 139.163828 105.653703 
z
" clip-path="url(#p0034e4cc07)" style="fill: #ffffff; stroke: #000000; stroke-width: 0.4"/>
    <path d="M 140.693709 113.74447 
L 145.693709 113.74447 
L 145.693709 108.74447 
L 140.693709 108.74447 
z
" clip-path="url(#p0034e4cc07)" style="fill: #ffffff; stroke: #000000; stroke-width: 0.4"/>
   </g>
   <g id="PathCollection_27">
    <path d="M 152.56932 116.734208 
L 157.56932 116.734208 
L 157.56932 111.734208 
L 152.56932 111.734208 
z
" clip-path="url(#p0034e4cc07)" style="fill: #ffffff; stroke: #000000; stroke-width: 0.4"/>
    <path d="M 152.147484 115.379658 
L 157.147484 115.379658 
L 157.147484 110.379658 
L 152.147484 110.379658 
z
" clip-path="url(#p0034e4cc07)" style="fill: #ffffff; stroke: #000000; stroke-width: 0.4"/>
    <path d="M 153.731751 116.862678 
L 158.731751 116.862678 
L 158.731751 111.862678 
L 153.731751 111.862678 
z
" clip-path="url(#p0034e4cc07)" style="fill: #ffffff; stroke: #000000; stroke-width: 0.4"/>
   </g>
   <g id="PathCollection_28">
    <path d="M 164.437942 121.054797 
L 169.437942 121.054797 
L 169.437942 116.054797 
L 164.437942 116.054797 
z
" clip-path="url(#p0034e4cc07)" style="fill: #ffffff; stroke: #000000; stroke-width: 0.4"/>
    <path d="M 165.546945 121.153332 
L 170.546945 121.153332 
L 170.546945 116.153332 
L 165.546945 116.153332 
z
" clip-path="url(#p0034e4cc07)" style="fill: #ffffff; stroke: #000000; stroke-width: 0.4"/>
    <path d="M 164.022089 119.954693 
L 169.022089 119.954693 
L 169.022089 114.954693 
L 164.022089 114.954693 
z
" clip-path="url(#p0034e4cc07)" style="fill: #ffffff; stroke: #000000; stroke-width: 0.4"/>
   </g>
   <g id="PathCollection_29">
    <path d="M 178.454978 120.8465 
L 183.454978 120.8465 
L 183.454978 115.8465 
L 178.454978 115.8465 
z
" clip-path="url(#p0034e4cc07)" style="fill: #ffffff; stroke: #000000; stroke-width: 0.4"/>
    <path d="M 177.351765 118.758548 
L 182.351765 118.758548 
L 182.351765 113.758548 
L 177.351765 113.758548 
z
" clip-path="url(#p0034e4cc07)" style="fill: #ffffff; stroke: #000000; stroke-width: 0.4"/>
    <path d="M 177.863843 120.75046 
L 182.863843 120.75046 
L 182.863843 115.75046 
L 177.863843 115.75046 
z
" clip-path="url(#p0034e4cc07)" style="fill: #ffffff; stroke: #000000; stroke-width: 0.4"/>
   </g>
   <g id="PathCollection_30">
    <path d="M 189.595015 121.215696 
L 194.595015 121.215696 
L 194.595015 116.215696 
L 189.595015 116.215696 
z
" clip-path="url(#p0034e4cc07)" style="fill: #ffffff; stroke: #000000; stroke-width: 0.4"/>
    <path d="M 190.629481 118.865815 
L 195.629481 118.865815 
L 195.629481 113.865815 
L 190.629481 113.865815 
z
" clip-path="url(#p0034e4cc07)" style="fill: #ffffff; stroke: #000000; stroke-width: 0.4"/>
    <path d="M 189.711766 121.26434 
L 194.711766 121.26434 
L 194.711766 116.26434 
L 189.711766 116.26434 
z
" clip-path="url(#p0034e4cc07)" style="fill: #ffffff; stroke: #000000; stroke-width: 0.4"/>
   </g>
   <g id="PathCollection_31">
    <path d="M 64.452777 83.498143 
L 67.988311 79.962609 
L 64.452777 76.427076 
L 60.917243 79.962609 
z
" clip-path="url(#p0034e4cc07)" style="fill: #ffffff; stroke: #000000; stroke-width: 0.4"/>
    <path d="M 62.148204 82.593863 
L 65.683737 79.058329 
L 62.148204 75.522795 
L 58.61267 79.058329 
z
" clip-path="url(#p0034e4cc07)" style="fill: #ffffff; stroke: #000000; stroke-width: 0.4"/>
    <path d="M 63.417867 84.699277 
L 66.953401 81.163743 
L 63.417867 77.628209 
L 59.882333 81.163743 
z
" clip-path="url(#p0034e4cc07)" style="fill: #ffffff; stroke: #000000; stroke-width: 0.4"/>
   </g>
   <g id="PathCollection_32">
    <path d="M 75.995097 81.152004 
L 79.530631 77.61647 
L 75.995097 74.080936 
L 72.459563 77.61647 
z
" clip-path="url(#p0034e4cc07)" style="fill: #ffffff; stroke: #000000; stroke-width: 0.4"/>
    <path d="M 74.798387 77.688299 
L 78.333921 74.152765 
L 74.798387 70.617231 
L 71.262853 74.152765 
z
" clip-path="url(#p0034e4cc07)" style="fill: #ffffff; stroke: #000000; stroke-width: 0.4"/>
    <path d="M 75.323431 75.542972 
L 78.858965 72.007438 
L 75.323431 68.471904 
L 71.787897 72.007438 
z
" clip-path="url(#p0034e4cc07)" style="fill: #ffffff; stroke: #000000; stroke-width: 0.4"/>
   </g>
   <g id="PathCollection_33">
    <path d="M 87.723777 90.051369 
L 91.259311 86.515835 
L 87.723777 82.980301 
L 84.188243 86.515835 
z
" clip-path="url(#p0034e4cc07)" style="fill: #ffffff; stroke: #000000; stroke-width: 0.4"/>
    <path d="M 87.003715 93.254392 
L 90.539249 89.718858 
L 87.003715 86.183324 
L 83.468181 89.718858 
z
" clip-path="url(#p0034e4cc07)" style="fill: #ffffff; stroke: #000000; stroke-width: 0.4"/>
    <path d="M 88.302324 91.91481 
L 91.837858 88.379276 
L 88.302324 84.843742 
L 84.76679 88.379276 
z
" clip-path="url(#p0034e4cc07)" style="fill: #ffffff; stroke: #000000; stroke-width: 0.4"/>
   </g>
   <g id="PathCollection_34">
    <path d="M 102.037818 94.746143 
L 105.573352 91.210609 
L 102.037818 87.675075 
L 98.502284 91.210609 
z
" clip-path="url(#p0034e4cc07)" style="fill: #ffffff; stroke: #000000; stroke-width: 0.4"/>
    <path d="M 101.328461 88.291452 
L 104.863995 84.755919 
L 101.328461 81.220385 
L 97.792927 84.755919 
z
" clip-path="url(#p0034e4cc07)" style="fill: #ffffff; stroke: #000000; stroke-width: 0.4"/>
    <path d="M 99.998894 94.022718 
L 103.534428 90.487184 
L 99.998894 86.951651 
L 96.463361 90.487184 
z
" clip-path="url(#p0034e4cc07)" style="fill: #ffffff; stroke: #000000; stroke-width: 0.4"/>
   </g>
   <g id="PathCollection_35">
    <path d="M 114.263607 89.226915 
L 117.799141 85.691381 
L 114.263607 82.155847 
L 110.728073 85.691381 
z
" clip-path="url(#p0034e4cc07)" style="fill: #ffffff; stroke: #000000; stroke-width: 0.4"/>
    <path d="M 114.489235 90.021434 
L 118.024769 86.4859 
L 114.489235 82.950366 
L 110.953701 86.4859 
z
" clip-path="url(#p0034e4cc07)" style="fill: #ffffff; stroke: #000000; stroke-width: 0.4"/>
    <path d="M 113.608212 95.556877 
L 117.143745 92.021343 
L 113.608212 88.485809 
L 110.072678 92.021343 
z
" clip-path="url(#p0034e4cc07)" style="fill: #ffffff; stroke: #000000; stroke-width: 0.4"/>
   </g>
   <g id="PathCollection_36">
    <path d="M 140.739755 117.966812 
L 144.275289 114.431279 
L 140.739755 110.895745 
L 137.204221 114.431279 
z
" clip-path="url(#p0034e4cc07)" style="fill: #ffffff; stroke: #000000; stroke-width: 0.4"/>
    <path d="M 142.837414 116.808086 
L 146.372948 113.272553 
L 142.837414 109.737019 
L 139.30188 113.272553 
z
" clip-path="url(#p0034e4cc07)" style="fill: #ffffff; stroke: #000000; stroke-width: 0.4"/>
    <path d="M 142.087895 117.964318 
L 145.623429 114.428784 
L 142.087895 110.89325 
L 138.552361 114.428784 
z
" clip-path="url(#p0034e4cc07)" style="fill: #ffffff; stroke: #000000; stroke-width: 0.4"/>
   </g>
   <g id="PathCollection_37">
    <path d="M 156.41825 118.821201 
L 159.953784 115.285668 
L 156.41825 111.750134 
L 152.882716 115.285668 
z
" clip-path="url(#p0034e4cc07)" style="fill: #ffffff; stroke: #000000; stroke-width: 0.4"/>
    <path d="M 155.816185 117.043823 
L 159.351719 113.508289 
L 155.816185 109.972755 
L 152.280651 113.508289 
z
" clip-path="url(#p0034e4cc07)" style="fill: #ffffff; stroke: #000000; stroke-width: 0.4"/>
    <path d="M 153.864912 104.371426 
L 157.400445 100.835893 
L 153.864912 97.300359 
L 150.329378 100.835893 
z
" clip-path="url(#p0034e4cc07)" style="fill: #ffffff; stroke: #000000; stroke-width: 0.4"/>
   </g>
   <g id="PathCollection_38">
    <path d="M 166.469747 121.176072 
L 170.005281 117.640538 
L 166.469747 114.105004 
L 162.934213 117.640538 
z
" clip-path="url(#p0034e4cc07)" style="fill: #ffffff; stroke: #000000; stroke-width: 0.4"/>
    <path d="M 167.498262 120.039797 
L 171.033796 116.504263 
L 167.498262 112.968729 
L 163.962728 116.504263 
z
" clip-path="url(#p0034e4cc07)" style="fill: #ffffff; stroke: #000000; stroke-width: 0.4"/>
    <path d="M 166.575979 121.834637 
L 170.111513 118.299104 
L 166.575979 114.76357 
L 163.040446 118.299104 
z
" clip-path="url(#p0034e4cc07)" style="fill: #ffffff; stroke: #000000; stroke-width: 0.4"/>
   </g>
   <g id="PathCollection_39">
    <path d="M 180.450931 122.387184 
L 183.986465 118.85165 
L 180.450931 115.316116 
L 176.915397 118.85165 
z
" clip-path="url(#p0034e4cc07)" style="fill: #ffffff; stroke: #000000; stroke-width: 0.4"/>
    <path d="M 179.963181 121.661265 
L 183.498715 118.125731 
L 179.963181 114.590197 
L 176.427647 118.125731 
z
" clip-path="url(#p0034e4cc07)" style="fill: #ffffff; stroke: #000000; stroke-width: 0.4"/>
    <path d="M 178.979674 121.124933 
L 182.515208 117.589399 
L 178.979674 114.053866 
L 175.44414 117.589399 
z
" clip-path="url(#p0034e4cc07)" style="fill: #ffffff; stroke: #000000; stroke-width: 0.4"/>
   </g>
   <g id="PathCollection_40">
    <path d="M 192.882478 121.512838 
L 196.418012 117.977305 
L 192.882478 114.441771 
L 189.346945 117.977305 
z
" clip-path="url(#p0034e4cc07)" style="fill: #ffffff; stroke: #000000; stroke-width: 0.4"/>
    <path d="M 193.744353 118.417082 
L 197.279887 114.881548 
L 193.744353 111.346014 
L 190.208819 114.881548 
z
" clip-path="url(#p0034e4cc07)" style="fill: #ffffff; stroke: #000000; stroke-width: 0.4"/>
    <path d="M 192.705118 122.712725 
L 196.240652 119.177191 
L 192.705118 115.641657 
L 189.169584 119.177191 
z
" clip-path="url(#p0034e4cc07)" style="fill: #ffffff; stroke: #000000; stroke-width: 0.4"/>
   </g>
   <g id="text_9">
    <!-- ns -->
    <g style="fill: #262626" transform="translate(69.45875 18.121022) scale(0.12 -0.12)">
     <use xlink:href="#ArialMT-6e"/>
     <use xlink:href="#ArialMT-73" transform="translate(55.615234 0)"/>
    </g>
   </g>
   <g id="text_10">
    <!-- **** -->
    <g style="fill: #262626" transform="translate(145.544972 89.493057) scale(0.12 -0.12)">
     <defs>
      <path id="ArialMT-2a" d="M 200 3741 
L 344 4184 
Q 841 4009 1066 3881 
Q 1006 4447 1003 4659 
L 1456 4659 
Q 1447 4350 1384 3884 
Q 1706 4047 2122 4184 
L 2266 3741 
Q 1869 3609 1488 3566 
Q 1678 3400 2025 2975 
L 1650 2709 
Q 1469 2956 1222 3381 
Q 991 2941 816 2709 
L 447 2975 
Q 809 3422 966 3566 
Q 563 3644 200 3741 
z
" transform="scale(0.015625)"/>
     </defs>
     <use xlink:href="#ArialMT-2a"/>
     <use xlink:href="#ArialMT-2a" transform="translate(38.916016 0)"/>
     <use xlink:href="#ArialMT-2a" transform="translate(77.832031 0)"/>
     <use xlink:href="#ArialMT-2a" transform="translate(116.748047 0)"/>
    </g>
   </g>
   <g id="legend_1">
    <g id="patch_17">
     <path d="M 218.525313 19.473594 
L 240.525313 19.473594 
L 240.525313 11.773594 
L 218.525313 11.773594 
z
" style="fill: #4b4279; opacity: 0.8; stroke: #ffffff; stroke-linejoin: miter"/>
    </g>
    <g id="text_11">
     <!-- 0 nM -->
     <g style="fill: #262626" transform="translate(249.325313 19.473594) scale(0.11 -0.11)">
      <defs>
       <path id="ArialMT-4d" d="M 475 0 
L 475 4581 
L 1388 4581 
L 2472 1338 
Q 2622 884 2691 659 
Q 2769 909 2934 1394 
L 4031 4581 
L 4847 4581 
L 4847 0 
L 4263 0 
L 4263 3834 
L 2931 0 
L 2384 0 
L 1059 3900 
L 1059 0 
L 475 0 
z
" transform="scale(0.015625)"/>
      </defs>
      <use xlink:href="#ArialMT-30"/>
      <use xlink:href="#ArialMT-20" transform="translate(55.615234 0)"/>
      <use xlink:href="#ArialMT-6e" transform="translate(83.398438 0)"/>
      <use xlink:href="#ArialMT-4d" transform="translate(139.013672 0)"/>
     </g>
    </g>
    <g id="patch_18">
     <path d="M 218.525313 35.033437 
L 240.525313 35.033437 
L 240.525313 27.333437 
L 218.525313 27.333437 
z
" style="fill: #3c6682; opacity: 0.8; stroke: #ffffff; stroke-linejoin: miter"/>
    </g>
    <g id="text_12">
     <!-- 10 nM -->
     <g style="fill: #262626" transform="translate(249.325313 35.033437) scale(0.11 -0.11)">
      <defs>
       <path id="ArialMT-31" d="M 2384 0 
L 1822 0 
L 1822 3584 
Q 1619 3391 1289 3197 
Q 959 3003 697 2906 
L 697 3450 
Q 1169 3672 1522 3987 
Q 1875 4303 2022 4600 
L 2384 4600 
L 2384 0 
z
" transform="scale(0.015625)"/>
      </defs>
      <use xlink:href="#ArialMT-31"/>
      <use xlink:href="#ArialMT-30" transform="translate(55.615234 0)"/>
      <use xlink:href="#ArialMT-20" transform="translate(111.230469 0)"/>
      <use xlink:href="#ArialMT-6e" transform="translate(139.013672 0)"/>
      <use xlink:href="#ArialMT-4d" transform="translate(194.628906 0)"/>
     </g>
    </g>
    <g id="patch_19">
     <path d="M 218.525313 50.593281 
L 240.525313 50.593281 
L 240.525313 42.893281 
L 218.525313 42.893281 
z
" style="fill: #2f837f; opacity: 0.8; stroke: #ffffff; stroke-linejoin: miter"/>
    </g>
    <g id="text_13">
     <!-- 100 nM -->
     <g style="fill: #262626" transform="translate(249.325313 50.593281) scale(0.11 -0.11)">
      <use xlink:href="#ArialMT-31"/>
      <use xlink:href="#ArialMT-30" transform="translate(55.615234 0)"/>
      <use xlink:href="#ArialMT-30" transform="translate(111.230469 0)"/>
      <use xlink:href="#ArialMT-20" transform="translate(166.845703 0)"/>
      <use xlink:href="#ArialMT-6e" transform="translate(194.628906 0)"/>
      <use xlink:href="#ArialMT-4d" transform="translate(250.244141 0)"/>
     </g>
    </g>
    <g id="patch_20">
     <path d="M 218.525313 66.153125 
L 240.525313 66.153125 
L 240.525313 58.453125 
L 218.525313 58.453125 
z
" style="fill: #45a778; opacity: 0.8; stroke: #ffffff; stroke-linejoin: miter"/>
    </g>
    <g id="text_14">
     <!-- 200 nM -->
     <g style="fill: #262626" transform="translate(249.325313 66.153125) scale(0.11 -0.11)">
      <use xlink:href="#ArialMT-32"/>
      <use xlink:href="#ArialMT-30" transform="translate(55.615234 0)"/>
      <use xlink:href="#ArialMT-30" transform="translate(111.230469 0)"/>
      <use xlink:href="#ArialMT-20" transform="translate(166.845703 0)"/>
      <use xlink:href="#ArialMT-6e" transform="translate(194.628906 0)"/>
      <use xlink:href="#ArialMT-4d" transform="translate(250.244141 0)"/>
     </g>
    </g>
    <g id="patch_21">
     <path d="M 218.525313 81.712969 
L 240.525313 81.712969 
L 240.525313 74.012969 
L 218.525313 74.012969 
z
" style="fill: #8fc456; opacity: 0.8; stroke: #ffffff; stroke-linejoin: miter"/>
    </g>
    <g id="text_15">
     <!-- 400 nM -->
     <g style="fill: #262626" transform="translate(249.325313 81.712969) scale(0.11 -0.11)">
      <use xlink:href="#ArialMT-34"/>
      <use xlink:href="#ArialMT-30" transform="translate(55.615234 0)"/>
      <use xlink:href="#ArialMT-30" transform="translate(111.230469 0)"/>
      <use xlink:href="#ArialMT-20" transform="translate(166.845703 0)"/>
      <use xlink:href="#ArialMT-6e" transform="translate(194.628906 0)"/>
      <use xlink:href="#ArialMT-4d" transform="translate(250.244141 0)"/>
     </g>
    </g>
   </g>
  </g>
 </g>
 <defs>
  <clipPath id="p0034e4cc07">
   <rect x="49.695313" y="7.2" width="156.6" height="117"/>
  </clipPath>
 </defs>
</svg>
