<?xml version="1.0" encoding="utf-8" standalone="no"?>
<!DOCTYPE svg PUBLIC "-//W3C//DTD SVG 1.1//EN"
  "http://www.w3.org/Graphics/SVG/1.1/DTD/svg11.dtd">
<svg xmlns:xlink="http://www.w3.org/1999/xlink" width="310.921312pt" height="162.594406pt" viewBox="0 0 310.921312 162.594406" xmlns="http://www.w3.org/2000/svg" version="1.1">
 <metadata>
  <rdf:RDF xmlns:dc="http://purl.org/dc/elements/1.1/" xmlns:cc="http://creativecommons.org/ns#" xmlns:rdf="http://www.w3.org/1999/02/22-rdf-syntax-ns#">
   <cc:Work>
    <dc:type rdf:resource="http://purl.org/dc/dcmitype/StillImage"/>
    <dc:date>2025-07-28T17:36:15.350365</dc:date>
    <dc:format>image/svg+xml</dc:format>
    <dc:creator>
     <cc:Agent>
      <dc:title>Matplotlib v3.10.3, https://matplotlib.org/</dc:title>
     </cc:Agent>
    </dc:creator>
   </cc:Work>
  </rdf:RDF>
 </metadata>
 <defs>
  <style type="text/css">*{stroke-linejoin: round; stroke-linecap: butt}</style>
 </defs>
 <g id="figure_1">
  <g id="patch_1">
   <path d="M 0 162.594406 
L 310.921312 162.594406 
L 310.921312 0 
L 0 0 
z
" style="fill: #ffffff"/>
  </g>
  <g id="axes_1">
   <g id="patch_2">
    <path d="M 63.004594 124.2 
L 219.604594 124.2 
L 219.604594 7.2 
L 63.004594 7.2 
z
" style="fill: #ffffff"/>
   </g>
   <g id="matplotlib.axis_1">
    <g id="xtick_1">
     <g id="line2d_1">
      <defs>
       <path id="m81ac53ffad" d="M 0 0 
L 0 6 
" style="stroke: #262626; stroke-width: 1.25"/>
      </defs>
      <g>
       <use xlink:href="#m81ac53ffad" x="101.759139" y="124.2" style="fill: #262626; stroke: #262626; stroke-width: 1.25"/>
      </g>
     </g>
     <g id="text_1">
      <!-- NIL -->
      <g style="fill: #262626" transform="translate(93.200624 141.573594) scale(0.11 -0.11)">
       <defs>
        <path id="ArialMT-4e" d="M 488 0 
L 488 4581 
L 1109 4581 
L 3516 984 
L 3516 4581 
L 4097 4581 
L 4097 0 
L 3475 0 
L 1069 3600 
L 1069 0 
L 488 0 
z
" transform="scale(0.015625)"/>
        <path id="ArialMT-49" d="M 597 0 
L 597 4581 
L 1203 4581 
L 1203 0 
L 597 0 
z
" transform="scale(0.015625)"/>
        <path id="ArialMT-4c" d="M 469 0 
L 469 4581 
L 1075 4581 
L 1075 541 
L 3331 541 
L 3331 0 
L 469 0 
z
" transform="scale(0.015625)"/>
       </defs>
       <use xlink:href="#ArialMT-4e"/>
       <use xlink:href="#ArialMT-49" transform="translate(72.216797 0)"/>
       <use xlink:href="#ArialMT-4c" transform="translate(100 0)"/>
      </g>
      <!-- RIDD -->
      <g style="fill: #262626" transform="translate(88.315077 153.208156) scale(0.11 -0.11)">
       <defs>
        <path id="ArialMT-52" d="M 503 0 
L 503 4581 
L 2534 4581 
Q 3147 4581 3465 4457 
Q 3784 4334 3975 4021 
Q 4166 3709 4166 3331 
Q 4166 2844 3850 2509 
Q 3534 2175 2875 2084 
Q 3116 1969 3241 1856 
Q 3506 1613 3744 1247 
L 4541 0 
L 3778 0 
L 3172 953 
Q 2906 1366 2734 1584 
Q 2563 1803 2427 1890 
Q 2291 1978 2150 2013 
Q 2047 2034 1813 2034 
L 1109 2034 
L 1109 0 
L 503 0 
z
M 1109 2559 
L 2413 2559 
Q 2828 2559 3062 2645 
Q 3297 2731 3419 2920 
Q 3541 3109 3541 3331 
Q 3541 3656 3305 3865 
Q 3069 4075 2559 4075 
L 1109 4075 
L 1109 2559 
z
" transform="scale(0.015625)"/>
        <path id="ArialMT-44" d="M 494 0 
L 494 4581 
L 2072 4581 
Q 2606 4581 2888 4516 
Q 3281 4425 3559 4188 
Q 3922 3881 4101 3404 
Q 4281 2928 4281 2316 
Q 4281 1794 4159 1391 
Q 4038 988 3847 723 
Q 3656 459 3429 307 
Q 3203 156 2883 78 
Q 2563 0 2147 0 
L 494 0 
z
M 1100 541 
L 2078 541 
Q 2531 541 2789 625 
Q 3047 709 3200 863 
Q 3416 1078 3536 1442 
Q 3656 1806 3656 2325 
Q 3656 3044 3420 3430 
Q 3184 3816 2847 3947 
Q 2603 4041 2063 4041 
L 1100 4041 
L 1100 541 
z
" transform="scale(0.015625)"/>
       </defs>
       <use xlink:href="#ArialMT-52"/>
       <use xlink:href="#ArialMT-49" transform="translate(72.216797 0)"/>
       <use xlink:href="#ArialMT-44" transform="translate(100 0)"/>
       <use xlink:href="#ArialMT-44" transform="translate(172.216797 0)"/>
      </g>
     </g>
    </g>
    <g id="xtick_2">
     <g id="line2d_2">
      <g>
       <use xlink:href="#m81ac53ffad" x="180.850048" y="124.2" style="fill: #262626; stroke: #262626; stroke-width: 1.25"/>
      </g>
     </g>
     <g id="text_2">
      <!-- NIL -->
      <g style="fill: #262626" transform="translate(172.291533 141.573594) scale(0.11 -0.11)">
       <use xlink:href="#ArialMT-4e"/>
       <use xlink:href="#ArialMT-49" transform="translate(72.216797 0)"/>
       <use xlink:href="#ArialMT-4c" transform="translate(100 0)"/>
      </g>
      <!-- RISDD -->
      <g style="fill: #262626" transform="translate(163.737314 153.208156) scale(0.11 -0.11)">
       <defs>
        <path id="ArialMT-53" d="M 288 1472 
L 859 1522 
Q 900 1178 1048 958 
Q 1197 738 1509 602 
Q 1822 466 2213 466 
Q 2559 466 2825 569 
Q 3091 672 3220 851 
Q 3350 1031 3350 1244 
Q 3350 1459 3225 1620 
Q 3100 1781 2813 1891 
Q 2628 1963 1997 2114 
Q 1366 2266 1113 2400 
Q 784 2572 623 2826 
Q 463 3081 463 3397 
Q 463 3744 659 4045 
Q 856 4347 1234 4503 
Q 1613 4659 2075 4659 
Q 2584 4659 2973 4495 
Q 3363 4331 3572 4012 
Q 3781 3694 3797 3291 
L 3216 3247 
Q 3169 3681 2898 3903 
Q 2628 4125 2100 4125 
Q 1550 4125 1298 3923 
Q 1047 3722 1047 3438 
Q 1047 3191 1225 3031 
Q 1400 2872 2139 2705 
Q 2878 2538 3153 2413 
Q 3553 2228 3743 1945 
Q 3934 1663 3934 1294 
Q 3934 928 3725 604 
Q 3516 281 3123 101 
Q 2731 -78 2241 -78 
Q 1619 -78 1198 103 
Q 778 284 539 648 
Q 300 1013 288 1472 
z
" transform="scale(0.015625)"/>
       </defs>
       <use xlink:href="#ArialMT-52"/>
       <use xlink:href="#ArialMT-49" transform="translate(72.216797 0)"/>
       <use xlink:href="#ArialMT-53" transform="translate(100 0)"/>
       <use xlink:href="#ArialMT-44" transform="translate(166.699219 0)"/>
       <use xlink:href="#ArialMT-44" transform="translate(238.916016 0)"/>
      </g>
     </g>
    </g>
   </g>
   <g id="matplotlib.axis_2">
    <g id="ytick_1">
     <g id="line2d_3">
      <defs>
       <path id="mcad110d3de" d="M 0 0 
L -6 0 
" style="stroke: #262626; stroke-width: 1.25"/>
      </defs>
      <g>
       <use xlink:href="#mcad110d3de" x="63.004594" y="124.2" style="fill: #262626; stroke: #262626; stroke-width: 1.25"/>
      </g>
     </g>
     <g id="text_3">
      <!-- 0 -->
      <g style="fill: #262626" transform="translate(47.387563 128.136797) scale(0.11 -0.11)">
       <defs>
        <path id="ArialMT-30" d="M 266 2259 
Q 266 3072 433 3567 
Q 600 4063 929 4331 
Q 1259 4600 1759 4600 
Q 2128 4600 2406 4451 
Q 2684 4303 2865 4023 
Q 3047 3744 3150 3342 
Q 3253 2941 3253 2259 
Q 3253 1453 3087 958 
Q 2922 463 2592 192 
Q 2263 -78 1759 -78 
Q 1097 -78 719 397 
Q 266 969 266 2259 
z
M 844 2259 
Q 844 1131 1108 757 
Q 1372 384 1759 384 
Q 2147 384 2411 759 
Q 2675 1134 2675 2259 
Q 2675 3391 2411 3762 
Q 2147 4134 1753 4134 
Q 1366 4134 1134 3806 
Q 844 3388 844 2259 
z
" transform="scale(0.015625)"/>
       </defs>
       <use xlink:href="#ArialMT-30"/>
      </g>
     </g>
    </g>
    <g id="ytick_2">
     <g id="line2d_4">
      <g>
       <use xlink:href="#mcad110d3de" x="63.004594" y="94.652204" style="fill: #262626; stroke: #262626; stroke-width: 1.25"/>
      </g>
     </g>
     <g id="text_4">
      <!-- 100 -->
      <g style="fill: #262626" transform="translate(35.1535 98.589001) scale(0.11 -0.11)">
       <defs>
        <path id="ArialMT-31" d="M 2384 0 
L 1822 0 
L 1822 3584 
Q 1619 3391 1289 3197 
Q 959 3003 697 2906 
L 697 3450 
Q 1169 3672 1522 3987 
Q 1875 4303 2022 4600 
L 2384 4600 
L 2384 0 
z
" transform="scale(0.015625)"/>
       </defs>
       <use xlink:href="#ArialMT-31"/>
       <use xlink:href="#ArialMT-30" transform="translate(55.615234 0)"/>
       <use xlink:href="#ArialMT-30" transform="translate(111.230469 0)"/>
      </g>
     </g>
    </g>
    <g id="ytick_3">
     <g id="line2d_5">
      <g>
       <use xlink:href="#mcad110d3de" x="63.004594" y="65.104409" style="fill: #262626; stroke: #262626; stroke-width: 1.25"/>
      </g>
     </g>
     <g id="text_5">
      <!-- 200 -->
      <g style="fill: #262626" transform="translate(35.1535 69.041206) scale(0.11 -0.11)">
       <defs>
        <path id="ArialMT-32" d="M 3222 541 
L 3222 0 
L 194 0 
Q 188 203 259 391 
Q 375 700 629 1000 
Q 884 1300 1366 1694 
Q 2113 2306 2375 2664 
Q 2638 3022 2638 3341 
Q 2638 3675 2398 3904 
Q 2159 4134 1775 4134 
Q 1369 4134 1125 3890 
Q 881 3647 878 3216 
L 300 3275 
Q 359 3922 746 4261 
Q 1134 4600 1788 4600 
Q 2447 4600 2831 4234 
Q 3216 3869 3216 3328 
Q 3216 3053 3103 2787 
Q 2991 2522 2730 2228 
Q 2469 1934 1863 1422 
Q 1356 997 1212 845 
Q 1069 694 975 541 
L 3222 541 
z
" transform="scale(0.015625)"/>
       </defs>
       <use xlink:href="#ArialMT-32"/>
       <use xlink:href="#ArialMT-30" transform="translate(55.615234 0)"/>
       <use xlink:href="#ArialMT-30" transform="translate(111.230469 0)"/>
      </g>
     </g>
    </g>
    <g id="ytick_4">
     <g id="line2d_6">
      <g>
       <use xlink:href="#mcad110d3de" x="63.004594" y="35.556613" style="fill: #262626; stroke: #262626; stroke-width: 1.25"/>
      </g>
     </g>
     <g id="text_6">
      <!-- 300 -->
      <g style="fill: #262626" transform="translate(35.1535 39.49341) scale(0.11 -0.11)">
       <defs>
        <path id="ArialMT-33" d="M 269 1209 
L 831 1284 
Q 928 806 1161 595 
Q 1394 384 1728 384 
Q 2125 384 2398 659 
Q 2672 934 2672 1341 
Q 2672 1728 2419 1979 
Q 2166 2231 1775 2231 
Q 1616 2231 1378 2169 
L 1441 2663 
Q 1497 2656 1531 2656 
Q 1891 2656 2178 2843 
Q 2466 3031 2466 3422 
Q 2466 3731 2256 3934 
Q 2047 4138 1716 4138 
Q 1388 4138 1169 3931 
Q 950 3725 888 3313 
L 325 3413 
Q 428 3978 793 4289 
Q 1159 4600 1703 4600 
Q 2078 4600 2393 4439 
Q 2709 4278 2876 4000 
Q 3044 3722 3044 3409 
Q 3044 3113 2884 2869 
Q 2725 2625 2413 2481 
Q 2819 2388 3044 2092 
Q 3269 1797 3269 1353 
Q 3269 753 2831 336 
Q 2394 -81 1725 -81 
Q 1122 -81 723 278 
Q 325 638 269 1209 
z
" transform="scale(0.015625)"/>
       </defs>
       <use xlink:href="#ArialMT-33"/>
       <use xlink:href="#ArialMT-30" transform="translate(55.615234 0)"/>
       <use xlink:href="#ArialMT-30" transform="translate(111.230469 0)"/>
      </g>
     </g>
    </g>
    <g id="text_7">
     <!-- (%) iMN yield -->
     <g style="fill: #262626" transform="translate(15.935625 101.368125) rotate(-90) scale(0.12 -0.12)">
      <defs>
       <path id="ArialMT-28" d="M 1497 -1347 
Q 1031 -759 709 28 
Q 388 816 388 1659 
Q 388 2403 628 3084 
Q 909 3875 1497 4659 
L 1900 4659 
Q 1522 4009 1400 3731 
Q 1209 3300 1100 2831 
Q 966 2247 966 1656 
Q 966 153 1900 -1347 
L 1497 -1347 
z
" transform="scale(0.015625)"/>
       <path id="ArialMT-25" d="M 372 3481 
Q 372 3972 619 4315 
Q 866 4659 1334 4659 
Q 1766 4659 2048 4351 
Q 2331 4044 2331 3447 
Q 2331 2866 2045 2552 
Q 1759 2238 1341 2238 
Q 925 2238 648 2547 
Q 372 2856 372 3481 
z
M 1350 4272 
Q 1141 4272 1002 4090 
Q 863 3909 863 3425 
Q 863 2984 1003 2804 
Q 1144 2625 1350 2625 
Q 1563 2625 1702 2806 
Q 1841 2988 1841 3469 
Q 1841 3913 1700 4092 
Q 1559 4272 1350 4272 
z
M 1353 -169 
L 3859 4659 
L 4316 4659 
L 1819 -169 
L 1353 -169 
z
M 3334 1075 
Q 3334 1569 3581 1911 
Q 3828 2253 4300 2253 
Q 4731 2253 5014 1945 
Q 5297 1638 5297 1041 
Q 5297 459 5011 145 
Q 4725 -169 4303 -169 
Q 3888 -169 3611 142 
Q 3334 453 3334 1075 
z
M 4316 1866 
Q 4103 1866 3964 1684 
Q 3825 1503 3825 1019 
Q 3825 581 3965 400 
Q 4106 219 4313 219 
Q 4528 219 4667 400 
Q 4806 581 4806 1063 
Q 4806 1506 4665 1686 
Q 4525 1866 4316 1866 
z
" transform="scale(0.015625)"/>
       <path id="ArialMT-29" d="M 791 -1347 
L 388 -1347 
Q 1322 153 1322 1656 
Q 1322 2244 1188 2822 
Q 1081 3291 891 3722 
Q 769 4003 388 4659 
L 791 4659 
Q 1378 3875 1659 3084 
Q 1900 2403 1900 1659 
Q 1900 816 1576 28 
Q 1253 -759 791 -1347 
z
" transform="scale(0.015625)"/>
       <path id="ArialMT-20" transform="scale(0.015625)"/>
       <path id="ArialMT-69" d="M 425 3934 
L 425 4581 
L 988 4581 
L 988 3934 
L 425 3934 
z
M 425 0 
L 425 3319 
L 988 3319 
L 988 0 
L 425 0 
z
" transform="scale(0.015625)"/>
       <path id="ArialMT-4d" d="M 475 0 
L 475 4581 
L 1388 4581 
L 2472 1338 
Q 2622 884 2691 659 
Q 2769 909 2934 1394 
L 4031 4581 
L 4847 4581 
L 4847 0 
L 4263 0 
L 4263 3834 
L 2931 0 
L 2384 0 
L 1059 3900 
L 1059 0 
L 475 0 
z
" transform="scale(0.015625)"/>
       <path id="ArialMT-79" d="M 397 -1278 
L 334 -750 
Q 519 -800 656 -800 
Q 844 -800 956 -737 
Q 1069 -675 1141 -563 
Q 1194 -478 1313 -144 
Q 1328 -97 1363 -6 
L 103 3319 
L 709 3319 
L 1400 1397 
Q 1534 1031 1641 628 
Q 1738 1016 1872 1384 
L 2581 3319 
L 3144 3319 
L 1881 -56 
Q 1678 -603 1566 -809 
Q 1416 -1088 1222 -1217 
Q 1028 -1347 759 -1347 
Q 597 -1347 397 -1278 
z
" transform="scale(0.015625)"/>
       <path id="ArialMT-65" d="M 2694 1069 
L 3275 997 
Q 3138 488 2766 206 
Q 2394 -75 1816 -75 
Q 1088 -75 661 373 
Q 234 822 234 1631 
Q 234 2469 665 2931 
Q 1097 3394 1784 3394 
Q 2450 3394 2872 2941 
Q 3294 2488 3294 1666 
Q 3294 1616 3291 1516 
L 816 1516 
Q 847 969 1125 678 
Q 1403 388 1819 388 
Q 2128 388 2347 550 
Q 2566 713 2694 1069 
z
M 847 1978 
L 2700 1978 
Q 2663 2397 2488 2606 
Q 2219 2931 1791 2931 
Q 1403 2931 1139 2672 
Q 875 2413 847 1978 
z
" transform="scale(0.015625)"/>
       <path id="ArialMT-6c" d="M 409 0 
L 409 4581 
L 972 4581 
L 972 0 
L 409 0 
z
" transform="scale(0.015625)"/>
       <path id="ArialMT-64" d="M 2575 0 
L 2575 419 
Q 2259 -75 1647 -75 
Q 1250 -75 917 144 
Q 584 363 401 755 
Q 219 1147 219 1656 
Q 219 2153 384 2558 
Q 550 2963 881 3178 
Q 1213 3394 1622 3394 
Q 1922 3394 2156 3267 
Q 2391 3141 2538 2938 
L 2538 4581 
L 3097 4581 
L 3097 0 
L 2575 0 
z
M 797 1656 
Q 797 1019 1065 703 
Q 1334 388 1700 388 
Q 2069 388 2326 689 
Q 2584 991 2584 1609 
Q 2584 2291 2321 2609 
Q 2059 2928 1675 2928 
Q 1300 2928 1048 2622 
Q 797 2316 797 1656 
z
" transform="scale(0.015625)"/>
      </defs>
      <use xlink:href="#ArialMT-28"/>
      <use xlink:href="#ArialMT-25" transform="translate(33.300781 0)"/>
      <use xlink:href="#ArialMT-29" transform="translate(122.216797 0)"/>
      <use xlink:href="#ArialMT-20" transform="translate(155.517578 0)"/>
      <use xlink:href="#ArialMT-69" transform="translate(183.300781 0)"/>
      <use xlink:href="#ArialMT-4d" transform="translate(205.517578 0)"/>
      <use xlink:href="#ArialMT-4e" transform="translate(288.818359 0)"/>
      <use xlink:href="#ArialMT-20" transform="translate(361.035156 0)"/>
      <use xlink:href="#ArialMT-79" transform="translate(388.818359 0)"/>
      <use xlink:href="#ArialMT-69" transform="translate(438.818359 0)"/>
      <use xlink:href="#ArialMT-65" transform="translate(461.035156 0)"/>
      <use xlink:href="#ArialMT-6c" transform="translate(516.650391 0)"/>
      <use xlink:href="#ArialMT-64" transform="translate(538.867188 0)"/>
     </g>
     <!-- per MEF plated -->
     <g style="fill: #262626" transform="translate(28.7685 106.715625) rotate(-90) scale(0.12 -0.12)">
      <defs>
       <path id="ArialMT-70" d="M 422 -1272 
L 422 3319 
L 934 3319 
L 934 2888 
Q 1116 3141 1344 3267 
Q 1572 3394 1897 3394 
Q 2322 3394 2647 3175 
Q 2972 2956 3137 2557 
Q 3303 2159 3303 1684 
Q 3303 1175 3120 767 
Q 2938 359 2589 142 
Q 2241 -75 1856 -75 
Q 1575 -75 1351 44 
Q 1128 163 984 344 
L 984 -1272 
L 422 -1272 
z
M 931 1641 
Q 931 1000 1190 694 
Q 1450 388 1819 388 
Q 2194 388 2461 705 
Q 2728 1022 2728 1688 
Q 2728 2322 2467 2637 
Q 2206 2953 1844 2953 
Q 1484 2953 1207 2617 
Q 931 2281 931 1641 
z
" transform="scale(0.015625)"/>
       <path id="ArialMT-72" d="M 416 0 
L 416 3319 
L 922 3319 
L 922 2816 
Q 1116 3169 1280 3281 
Q 1444 3394 1641 3394 
Q 1925 3394 2219 3213 
L 2025 2691 
Q 1819 2813 1613 2813 
Q 1428 2813 1281 2702 
Q 1134 2591 1072 2394 
Q 978 2094 978 1738 
L 978 0 
L 416 0 
z
" transform="scale(0.015625)"/>
       <path id="ArialMT-45" d="M 506 0 
L 506 4581 
L 3819 4581 
L 3819 4041 
L 1113 4041 
L 1113 2638 
L 3647 2638 
L 3647 2100 
L 1113 2100 
L 1113 541 
L 3925 541 
L 3925 0 
L 506 0 
z
" transform="scale(0.015625)"/>
       <path id="ArialMT-46" d="M 525 0 
L 525 4581 
L 3616 4581 
L 3616 4041 
L 1131 4041 
L 1131 2622 
L 3281 2622 
L 3281 2081 
L 1131 2081 
L 1131 0 
L 525 0 
z
" transform="scale(0.015625)"/>
       <path id="ArialMT-61" d="M 2588 409 
Q 2275 144 1986 34 
Q 1697 -75 1366 -75 
Q 819 -75 525 192 
Q 231 459 231 875 
Q 231 1119 342 1320 
Q 453 1522 633 1644 
Q 813 1766 1038 1828 
Q 1203 1872 1538 1913 
Q 2219 1994 2541 2106 
Q 2544 2222 2544 2253 
Q 2544 2597 2384 2738 
Q 2169 2928 1744 2928 
Q 1347 2928 1158 2789 
Q 969 2650 878 2297 
L 328 2372 
Q 403 2725 575 2942 
Q 747 3159 1072 3276 
Q 1397 3394 1825 3394 
Q 2250 3394 2515 3294 
Q 2781 3194 2906 3042 
Q 3031 2891 3081 2659 
Q 3109 2516 3109 2141 
L 3109 1391 
Q 3109 606 3145 398 
Q 3181 191 3288 0 
L 2700 0 
Q 2613 175 2588 409 
z
M 2541 1666 
Q 2234 1541 1622 1453 
Q 1275 1403 1131 1340 
Q 988 1278 909 1158 
Q 831 1038 831 891 
Q 831 666 1001 516 
Q 1172 366 1500 366 
Q 1825 366 2078 508 
Q 2331 650 2450 897 
Q 2541 1088 2541 1459 
L 2541 1666 
z
" transform="scale(0.015625)"/>
       <path id="ArialMT-74" d="M 1650 503 
L 1731 6 
Q 1494 -44 1306 -44 
Q 1000 -44 831 53 
Q 663 150 594 308 
Q 525 466 525 972 
L 525 2881 
L 113 2881 
L 113 3319 
L 525 3319 
L 525 4141 
L 1084 4478 
L 1084 3319 
L 1650 3319 
L 1650 2881 
L 1084 2881 
L 1084 941 
Q 1084 700 1114 631 
Q 1144 563 1211 522 
Q 1278 481 1403 481 
Q 1497 481 1650 503 
z
" transform="scale(0.015625)"/>
      </defs>
      <use xlink:href="#ArialMT-70"/>
      <use xlink:href="#ArialMT-65" transform="translate(55.615234 0)"/>
      <use xlink:href="#ArialMT-72" transform="translate(111.230469 0)"/>
      <use xlink:href="#ArialMT-20" transform="translate(144.53125 0)"/>
      <use xlink:href="#ArialMT-4d" transform="translate(172.314453 0)"/>
      <use xlink:href="#ArialMT-45" transform="translate(255.615234 0)"/>
      <use xlink:href="#ArialMT-46" transform="translate(322.314453 0)"/>
      <use xlink:href="#ArialMT-20" transform="translate(383.398438 0)"/>
      <use xlink:href="#ArialMT-70" transform="translate(411.181641 0)"/>
      <use xlink:href="#ArialMT-6c" transform="translate(466.796875 0)"/>
      <use xlink:href="#ArialMT-61" transform="translate(489.013672 0)"/>
      <use xlink:href="#ArialMT-74" transform="translate(544.628906 0)"/>
      <use xlink:href="#ArialMT-65" transform="translate(572.412109 0)"/>
      <use xlink:href="#ArialMT-64" transform="translate(628.027344 0)"/>
     </g>
    </g>
   </g>
   <g id="patch_3">
    <path d="M 70.122776 124.2 
L 82.777321 124.2 
L 82.777321 65.999953 
L 70.122776 65.999953 
z
" clip-path="url(#p77620b3164)" style="fill: #4b4279; opacity: 0.8; stroke: #ffffff; stroke-linejoin: miter"/>
   </g>
   <g id="patch_4">
    <path d="M 149.213685 124.2 
L 161.86823 124.2 
L 161.86823 116.633056 
L 149.213685 116.633056 
z
" clip-path="url(#p77620b3164)" style="fill: #4b4279; opacity: 0.8; stroke: #ffffff; stroke-linejoin: miter"/>
   </g>
   <g id="patch_5">
    <path d="M 82.777321 124.2 
L 95.431866 124.2 
L 95.431866 91.344575 
L 82.777321 91.344575 
z
" clip-path="url(#p77620b3164)" style="fill: #3c6682; opacity: 0.8; stroke: #ffffff; stroke-linejoin: miter"/>
   </g>
   <g id="patch_6">
    <path d="M 161.86823 124.2 
L 174.522776 124.2 
L 174.522776 120.111078 
L 161.86823 120.111078 
z
" clip-path="url(#p77620b3164)" style="fill: #3c6682; opacity: 0.8; stroke: #ffffff; stroke-linejoin: miter"/>
   </g>
   <g id="patch_7">
    <path d="M 95.431866 124.2 
L 108.086412 124.2 
L 108.086412 93.543177 
L 95.431866 93.543177 
z
" clip-path="url(#p77620b3164)" style="fill: #2f837f; opacity: 0.8; stroke: #ffffff; stroke-linejoin: miter"/>
   </g>
   <g id="patch_8">
    <path d="M 174.522776 124.2 
L 187.177321 124.2 
L 187.177321 121.323768 
L 174.522776 121.323768 
z
" clip-path="url(#p77620b3164)" style="fill: #2f837f; opacity: 0.8; stroke: #ffffff; stroke-linejoin: miter"/>
   </g>
   <g id="patch_9">
    <path d="M 108.086412 124.2 
L 120.740957 124.2 
L 120.740957 84.803596 
L 108.086412 84.803596 
z
" clip-path="url(#p77620b3164)" style="fill: #45a778; opacity: 0.8; stroke: #ffffff; stroke-linejoin: miter"/>
   </g>
   <g id="patch_10">
    <path d="M 187.177321 124.2 
L 199.831866 124.2 
L 199.831866 121.855218 
L 187.177321 121.855218 
z
" clip-path="url(#p77620b3164)" style="fill: #45a778; opacity: 0.8; stroke: #ffffff; stroke-linejoin: miter"/>
   </g>
   <g id="patch_11">
    <path d="M 120.740957 124.2 
L 133.395503 124.2 
L 133.395503 75.65765 
L 120.740957 75.65765 
z
" clip-path="url(#p77620b3164)" style="fill: #8fc456; opacity: 0.8; stroke: #ffffff; stroke-linejoin: miter"/>
   </g>
   <g id="patch_12">
    <path d="M 199.831866 124.2 
L 212.486412 124.2 
L 212.486412 121.720201 
L 199.831866 121.720201 
z
" clip-path="url(#p77620b3164)" style="fill: #8fc456; opacity: 0.8; stroke: #ffffff; stroke-linejoin: miter"/>
   </g>
   <g id="line2d_7">
    <path d="M 76.450048 73.835782 
L 76.450048 56.798123 
" clip-path="url(#p77620b3164)" style="fill: none; stroke: #424242; stroke-width: 2.7; stroke-linecap: round"/>
   </g>
   <g id="line2d_8">
    <path d="M 155.540957 118.009632 
L 155.540957 114.913306 
" clip-path="url(#p77620b3164)" style="fill: none; stroke: #424242; stroke-width: 2.7; stroke-linecap: round"/>
   </g>
   <g id="line2d_9">
    <path d="M 89.104594 99.607961 
L 89.104594 81.873103 
" clip-path="url(#p77620b3164)" style="fill: none; stroke: #424242; stroke-width: 2.7; stroke-linecap: round"/>
   </g>
   <g id="line2d_10">
    <path d="M 168.195503 121.20048 
L 168.195503 118.643285 
" clip-path="url(#p77620b3164)" style="fill: none; stroke: #424242; stroke-width: 2.7; stroke-linecap: round"/>
   </g>
   <g id="line2d_11">
    <path d="M 101.759139 96.684674 
L 101.759139 90.289737 
" clip-path="url(#p77620b3164)" style="fill: none; stroke: #424242; stroke-width: 2.7; stroke-linecap: round"/>
   </g>
   <g id="line2d_12">
    <path d="M 180.850048 122.149463 
L 180.850048 120.418559 
" clip-path="url(#p77620b3164)" style="fill: none; stroke: #424242; stroke-width: 2.7; stroke-linecap: round"/>
   </g>
   <g id="line2d_13">
    <path d="M 114.413685 88.030264 
L 114.413685 81.691893 
" clip-path="url(#p77620b3164)" style="fill: none; stroke: #424242; stroke-width: 2.7; stroke-linecap: round"/>
   </g>
   <g id="line2d_14">
    <path d="M 193.504594 122.666174 
L 193.504594 120.857324 
" clip-path="url(#p77620b3164)" style="fill: none; stroke: #424242; stroke-width: 2.7; stroke-linecap: round"/>
   </g>
   <g id="line2d_15">
    <path d="M 127.06823 81.294846 
L 127.06823 70.430485 
" clip-path="url(#p77620b3164)" style="fill: none; stroke: #424242; stroke-width: 2.7; stroke-linecap: round"/>
   </g>
   <g id="line2d_16">
    <path d="M 206.159139 122.454476 
L 206.159139 120.880908 
" clip-path="url(#p77620b3164)" style="fill: none; stroke: #424242; stroke-width: 2.7; stroke-linecap: round"/>
   </g>
   <g id="line2d_17">
    <path d="M 76.450048 23.495481 
L 76.450048 21.506022 
L 101.759139 21.506022 
L 101.759139 23.495481 
" clip-path="url(#p77620b3164)" style="fill: none; stroke: #333333; stroke-width: 1.5; stroke-linecap: round"/>
   </g>
   <g id="line2d_18">
    <path d="M 155.540957 103.626148 
L 155.540957 101.636689 
L 180.850048 101.636689 
L 180.850048 103.626148 
" clip-path="url(#p77620b3164)" style="fill: none; stroke: #333333; stroke-width: 1.5; stroke-linecap: round"/>
   </g>
   <g id="patch_13">
    <path d="M 63.004594 124.2 
L 63.004594 7.2 
" style="fill: none; stroke: #262626; stroke-width: 1.25; stroke-linejoin: miter; stroke-linecap: square"/>
   </g>
   <g id="patch_14">
    <path d="M 219.604594 124.2 
L 219.604594 7.2 
" style="fill: none; stroke: #262626; stroke-width: 1.25; stroke-linejoin: miter; stroke-linecap: square"/>
   </g>
   <g id="patch_15">
    <path d="M 63.004594 124.2 
L 219.604594 124.2 
" style="fill: none; stroke: #262626; stroke-width: 1.25; stroke-linejoin: miter; stroke-linecap: square"/>
   </g>
   <g id="patch_16">
    <path d="M 63.004594 7.2 
L 219.604594 7.2 
" style="fill: none; stroke: #262626; stroke-width: 1.25; stroke-linejoin: miter; stroke-linecap: square"/>
   </g>
   <g id="PathCollection_1">
    <defs>
     <path id="C0_0_2c0b06d298" d="M 0 2.5 
C 0.663008 2.5 1.29895 2.236584 1.767767 1.767767 
C 2.236584 1.29895 2.5 0.663008 2.5 -0 
C 2.5 -0.663008 2.236584 -1.29895 1.767767 -1.767767 
C 1.29895 -2.236584 0.663008 -2.5 0 -2.5 
C -0.663008 -2.5 -1.29895 -2.236584 -1.767767 -1.767767 
C -2.236584 -1.29895 -2.5 -0.663008 -2.5 0 
C -2.5 0.663008 -2.236584 1.29895 -1.767767 1.767767 
C -1.29895 2.236584 -0.663008 2.5 0 2.5 
z
"/>
    </defs>
    <g clip-path="url(#p77620b3164)">
     <use xlink:href="#C0_0_2c0b06d298" x="76.943403" y="86.984551" style="fill: #ffffff; stroke: #000000; stroke-width: 0.4"/>
    </g>
    <g clip-path="url(#p77620b3164)">
     <use xlink:href="#C0_0_2c0b06d298" x="76.689709" y="67.474142" style="fill: #ffffff; stroke: #000000; stroke-width: 0.4"/>
    </g>
    <g clip-path="url(#p77620b3164)">
     <use xlink:href="#C0_0_2c0b06d298" x="77.959272" y="73.46348" style="fill: #ffffff; stroke: #000000; stroke-width: 0.4"/>
    </g>
   </g>
   <g id="PathCollection_2">
    <defs>
     <path id="C1_0_d59306bd63" d="M 0 2.5 
C 0.663008 2.5 1.29895 2.236584 1.767767 1.767767 
C 2.236584 1.29895 2.5 0.663008 2.5 -0 
C 2.5 -0.663008 2.236584 -1.29895 1.767767 -1.767767 
C 1.29895 -2.236584 0.663008 -2.5 0 -2.5 
C -0.663008 -2.5 -1.29895 -2.236584 -1.767767 -1.767767 
C -2.236584 -1.29895 -2.5 -0.663008 -2.5 0 
C -2.5 0.663008 -2.236584 1.29895 -1.767767 1.767767 
C -1.29895 2.236584 -0.663008 2.5 0 2.5 
z
"/>
    </defs>
    <g clip-path="url(#p77620b3164)">
     <use xlink:href="#C1_0_d59306bd63" x="90.021112" y="83.468364" style="fill: #ffffff; stroke: #000000; stroke-width: 0.4"/>
    </g>
    <g clip-path="url(#p77620b3164)">
     <use xlink:href="#C1_0_d59306bd63" x="89.204299" y="104.674817" style="fill: #ffffff; stroke: #000000; stroke-width: 0.4"/>
    </g>
    <g clip-path="url(#p77620b3164)">
     <use xlink:href="#C1_0_d59306bd63" x="89.484625" y="100.990207" style="fill: #ffffff; stroke: #000000; stroke-width: 0.4"/>
    </g>
   </g>
   <g id="PathCollection_3">
    <defs>
     <path id="C2_0_ada1d5d76c" d="M 0 2.5 
C 0.663008 2.5 1.29895 2.236584 1.767767 1.767767 
C 2.236584 1.29895 2.5 0.663008 2.5 -0 
C 2.5 -0.663008 2.236584 -1.29895 1.767767 -1.767767 
C 1.29895 -2.236584 0.663008 -2.5 0 -2.5 
C -0.663008 -2.5 -1.29895 -2.236584 -1.767767 -1.767767 
C -2.236584 -1.29895 -2.5 -0.663008 -2.5 0 
C -2.5 0.663008 -2.236584 1.29895 -1.767767 1.767767 
C -1.29895 2.236584 -0.663008 2.5 0 2.5 
z
"/>
    </defs>
    <g clip-path="url(#p77620b3164)">
     <use xlink:href="#C2_0_ada1d5d76c" x="102.480119" y="103.413126" style="fill: #ffffff; stroke: #000000; stroke-width: 0.4"/>
    </g>
    <g clip-path="url(#p77620b3164)">
     <use xlink:href="#C2_0_ada1d5d76c" x="103.137727" y="97.559707" style="fill: #ffffff; stroke: #000000; stroke-width: 0.4"/>
    </g>
    <g clip-path="url(#p77620b3164)">
     <use xlink:href="#C2_0_ada1d5d76c" x="101.886125" y="101.099533" style="fill: #ffffff; stroke: #000000; stroke-width: 0.4"/>
    </g>
   </g>
   <g id="PathCollection_4">
    <path d="M 0 165.094406 
C 0.663008 165.094406 1.29895 164.83099 1.767767 164.362173 
C 2.236584 163.893356 2.5 163.257414 2.5 162.594406 
C 2.5 161.931399 2.236584 161.295457 1.767767 160.826639 
C 1.29895 160.357822 0.663008 160.094406 0 160.094406 
C -0.663008 160.094406 -1.29895 160.357822 -1.767767 160.826639 
C -2.236584 161.295457 -2.5 161.931399 -2.5 162.594406 
C -2.5 163.257414 -2.236584 163.893356 -1.767767 164.362173 
C -1.29895 164.83099 -0.663008 165.094406 0 165.094406 
" clip-path="url(#p77620b3164)" style="fill: none; stroke: #000000; stroke-width: 0.4"/>
   </g>
   <g id="PathCollection_5">
    <defs>
     <path id="C3_0_c5934936f2" d="M 0 2.5 
C 0.663008 2.5 1.29895 2.236584 1.767767 1.767767 
C 2.236584 1.29895 2.5 0.663008 2.5 -0 
C 2.5 -0.663008 2.236584 -1.29895 1.767767 -1.767767 
C 1.29895 -2.236584 0.663008 -2.5 0 -2.5 
C -0.663008 -2.5 -1.29895 -2.236584 -1.767767 -1.767767 
C -2.236584 -1.29895 -2.5 -0.663008 -2.5 0 
C -2.5 0.663008 -2.236584 1.29895 -1.767767 1.767767 
C -1.29895 2.236584 -0.663008 2.5 0 2.5 
z
"/>
    </defs>
    <g clip-path="url(#p77620b3164)">
     <use xlink:href="#C3_0_c5934936f2" x="127.895373" y="96.209373" style="fill: #ffffff; stroke: #000000; stroke-width: 0.4"/>
    </g>
    <g clip-path="url(#p77620b3164)">
     <use xlink:href="#C3_0_c5934936f2" x="126.278572" y="81.326149" style="fill: #ffffff; stroke: #000000; stroke-width: 0.4"/>
    </g>
    <g clip-path="url(#p77620b3164)">
     <use xlink:href="#C3_0_c5934936f2" x="126.609275" y="75.712067" style="fill: #ffffff; stroke: #000000; stroke-width: 0.4"/>
    </g>
   </g>
   <g id="PathCollection_6">
    <defs>
     <path id="C4_0_62e8d5361d" d="M 0 2.5 
C 0.663008 2.5 1.29895 2.236584 1.767767 1.767767 
C 2.236584 1.29895 2.5 0.663008 2.5 -0 
C 2.5 -0.663008 2.236584 -1.29895 1.767767 -1.767767 
C 1.29895 -2.236584 0.663008 -2.5 0 -2.5 
C -0.663008 -2.5 -1.29895 -2.236584 -1.767767 -1.767767 
C -2.236584 -1.29895 -2.5 -0.663008 -2.5 0 
C -2.5 0.663008 -2.236584 1.29895 -1.767767 1.767767 
C -1.29895 2.236584 -0.663008 2.5 0 2.5 
z
"/>
    </defs>
    <g clip-path="url(#p77620b3164)">
     <use xlink:href="#C4_0_62e8d5361d" x="156.129579" y="118.420451" style="fill: #ffffff; stroke: #000000; stroke-width: 0.4"/>
    </g>
    <g clip-path="url(#p77620b3164)">
     <use xlink:href="#C4_0_62e8d5361d" x="154.529347" y="109.594525" style="fill: #ffffff; stroke: #000000; stroke-width: 0.4"/>
    </g>
    <g clip-path="url(#p77620b3164)">
     <use xlink:href="#C4_0_62e8d5361d" x="156.849923" y="116.709634" style="fill: #ffffff; stroke: #000000; stroke-width: 0.4"/>
    </g>
   </g>
   <g id="PathCollection_7">
    <defs>
     <path id="C5_0_e31b0420fc" d="M 0 2.5 
C 0.663008 2.5 1.29895 2.236584 1.767767 1.767767 
C 2.236584 1.29895 2.5 0.663008 2.5 -0 
C 2.5 -0.663008 2.236584 -1.29895 1.767767 -1.767767 
C 1.29895 -2.236584 0.663008 -2.5 0 -2.5 
C -0.663008 -2.5 -1.29895 -2.236584 -1.767767 -1.767767 
C -2.236584 -1.29895 -2.5 -0.663008 -2.5 0 
C -2.5 0.663008 -2.236584 1.29895 -1.767767 1.767767 
C -1.29895 2.236584 -0.663008 2.5 0 2.5 
z
"/>
    </defs>
    <g clip-path="url(#p77620b3164)">
     <use xlink:href="#C5_0_e31b0420fc" x="167.359548" y="119.150282" style="fill: #ffffff; stroke: #000000; stroke-width: 0.4"/>
    </g>
    <g clip-path="url(#p77620b3164)">
     <use xlink:href="#C5_0_e31b0420fc" x="166.770991" y="120.37356" style="fill: #ffffff; stroke: #000000; stroke-width: 0.4"/>
    </g>
    <g clip-path="url(#p77620b3164)">
     <use xlink:href="#C5_0_e31b0420fc" x="168.992568" y="119.040955" style="fill: #ffffff; stroke: #000000; stroke-width: 0.4"/>
    </g>
   </g>
   <g id="PathCollection_8">
    <defs>
     <path id="C6_0_35e98af76b" d="M 0 2.5 
C 0.663008 2.5 1.29895 2.236584 1.767767 1.767767 
C 2.236584 1.29895 2.5 0.663008 2.5 -0 
C 2.5 -0.663008 2.236584 -1.29895 1.767767 -1.767767 
C 1.29895 -2.236584 0.663008 -2.5 0 -2.5 
C -0.663008 -2.5 -1.29895 -2.236584 -1.767767 -1.767767 
C -2.236584 -1.29895 -2.5 -0.663008 -2.5 0 
C -2.5 0.663008 -2.236584 1.29895 -1.767767 1.767767 
C -1.29895 2.236584 -0.663008 2.5 0 2.5 
z
"/>
    </defs>
    <g clip-path="url(#p77620b3164)">
     <use xlink:href="#C6_0_35e98af76b" x="179.841041" y="122.734429" style="fill: #ffffff; stroke: #000000; stroke-width: 0.4"/>
    </g>
    <g clip-path="url(#p77620b3164)">
     <use xlink:href="#C6_0_35e98af76b" x="179.38544" y="119.918524" style="fill: #ffffff; stroke: #000000; stroke-width: 0.4"/>
    </g>
    <g clip-path="url(#p77620b3164)">
     <use xlink:href="#C6_0_35e98af76b" x="182.428367" y="122.246891" style="fill: #ffffff; stroke: #000000; stroke-width: 0.4"/>
    </g>
   </g>
   <g id="PathCollection_9">
    <path d="M 0 165.094406 
C 0.663008 165.094406 1.29895 164.83099 1.767767 164.362173 
C 2.236584 163.893356 2.5 163.257414 2.5 162.594406 
C 2.5 161.931399 2.236584 161.295457 1.767767 160.826639 
C 1.29895 160.357822 0.663008 160.094406 0 160.094406 
C -0.663008 160.094406 -1.29895 160.357822 -1.767767 160.826639 
C -2.236584 161.295457 -2.5 161.931399 -2.5 162.594406 
C -2.5 163.257414 -2.236584 163.893356 -1.767767 164.362173 
C -1.29895 164.83099 -0.663008 165.094406 0 165.094406 
" clip-path="url(#p77620b3164)" style="fill: none; stroke: #000000; stroke-width: 0.4"/>
   </g>
   <g id="PathCollection_10">
    <defs>
     <path id="C7_0_f91f656f24" d="M 0 2.5 
C 0.663008 2.5 1.29895 2.236584 1.767767 1.767767 
C 2.236584 1.29895 2.5 0.663008 2.5 -0 
C 2.5 -0.663008 2.236584 -1.29895 1.767767 -1.767767 
C 1.29895 -2.236584 0.663008 -2.5 0 -2.5 
C -0.663008 -2.5 -1.29895 -2.236584 -1.767767 -1.767767 
C -2.236584 -1.29895 -2.5 -0.663008 -2.5 0 
C -2.5 0.663008 -2.236584 1.29895 -1.767767 1.767767 
C -1.29895 2.236584 -0.663008 2.5 0 2.5 
z
"/>
    </defs>
    <g clip-path="url(#p77620b3164)">
     <use xlink:href="#C7_0_f91f656f24" x="205.803311" y="121.85095" style="fill: #ffffff; stroke: #000000; stroke-width: 0.4"/>
    </g>
    <g clip-path="url(#p77620b3164)">
     <use xlink:href="#C7_0_f91f656f24" x="207.269078" y="122.746248" style="fill: #ffffff; stroke: #000000; stroke-width: 0.4"/>
    </g>
    <g clip-path="url(#p77620b3164)">
     <use xlink:href="#C7_0_f91f656f24" x="206.558257" y="122.229162" style="fill: #ffffff; stroke: #000000; stroke-width: 0.4"/>
    </g>
   </g>
   <g id="PathCollection_11">
    <path d="M 75.740977 65.319851 
L 73.240977 70.319851 
L 78.240977 70.319851 
z
" clip-path="url(#p77620b3164)" style="fill: #ffffff; stroke: #000000; stroke-width: 0.4"/>
    <path d="M 77.867207 45.268717 
L 75.367207 50.268717 
L 80.367207 50.268717 
z
" clip-path="url(#p77620b3164)" style="fill: #ffffff; stroke: #000000; stroke-width: 0.4"/>
    <path d="M 76.936653 26.963858 
L 74.436653 31.963858 
L 79.436653 31.963858 
z
" clip-path="url(#p77620b3164)" style="fill: #ffffff; stroke: #000000; stroke-width: 0.4"/>
   </g>
   <g id="PathCollection_12">
    <path d="M 89.91267 94.170319 
L 87.41267 99.170319 
L 92.41267 99.170319 
z
" clip-path="url(#p77620b3164)" style="fill: #ffffff; stroke: #000000; stroke-width: 0.4"/>
    <path d="M 89.287809 96.587329 
L 86.787809 101.587329 
L 91.787809 101.587329 
z
" clip-path="url(#p77620b3164)" style="fill: #ffffff; stroke: #000000; stroke-width: 0.4"/>
    <path d="M 90.432668 100.809709 
L 87.932668 105.809709 
L 92.932668 105.809709 
z
" clip-path="url(#p77620b3164)" style="fill: #ffffff; stroke: #000000; stroke-width: 0.4"/>
   </g>
   <g id="PathCollection_13">
    <path d="M 102.593403 91.256906 
L 100.093403 96.256906 
L 105.093403 96.256906 
z
" clip-path="url(#p77620b3164)" style="fill: #ffffff; stroke: #000000; stroke-width: 0.4"/>
    <path d="M 100.228201 93.298659 
L 97.728201 98.298659 
L 102.728201 98.298659 
z
" clip-path="url(#p77620b3164)" style="fill: #ffffff; stroke: #000000; stroke-width: 0.4"/>
    <path d="M 102.906317 95.582703 
L 100.406317 100.582703 
L 105.406317 100.582703 
z
" clip-path="url(#p77620b3164)" style="fill: #ffffff; stroke: #000000; stroke-width: 0.4"/>
   </g>
   <g id="PathCollection_14">
    <path d="M 115.047167 75.032212 
L 112.547167 80.032212 
L 117.547167 80.032212 
z
" clip-path="url(#p77620b3164)" style="fill: #ffffff; stroke: #000000; stroke-width: 0.4"/>
    <path d="M 113.041329 91.448967 
L 110.541329 96.448967 
L 115.541329 96.448967 
z
" clip-path="url(#p77620b3164)" style="fill: #ffffff; stroke: #000000; stroke-width: 0.4"/>
    <path d="M 114.010756 80.146935 
L 111.510756 85.146935 
L 116.510756 85.146935 
z
" clip-path="url(#p77620b3164)" style="fill: #ffffff; stroke: #000000; stroke-width: 0.4"/>
   </g>
   <g id="PathCollection_15">
    <path d="M 128.020637 67.157724 
L 125.520637 72.157724 
L 130.520637 72.157724 
z
" clip-path="url(#p77620b3164)" style="fill: #ffffff; stroke: #000000; stroke-width: 0.4"/>
    <path d="M 128.193885 62.71669 
L 125.693885 67.71669 
L 130.693885 67.71669 
z
" clip-path="url(#p77620b3164)" style="fill: #ffffff; stroke: #000000; stroke-width: 0.4"/>
    <path d="M 128.225519 54.706283 
L 125.725519 59.706283 
L 130.725519 59.706283 
z
" clip-path="url(#p77620b3164)" style="fill: #ffffff; stroke: #000000; stroke-width: 0.4"/>
   </g>
   <g id="PathCollection_16">
    <path d="M 156.931271 115.282219 
L 154.431271 120.282219 
L 159.431271 120.282219 
z
" clip-path="url(#p77620b3164)" style="fill: #ffffff; stroke: #000000; stroke-width: 0.4"/>
    <path d="M 155.119704 117.501258 
L 152.619704 122.501258 
L 157.619704 122.501258 
z
" clip-path="url(#p77620b3164)" style="fill: #ffffff; stroke: #000000; stroke-width: 0.4"/>
    <path d="M 155.116069 113.85506 
L 152.616069 118.85506 
L 157.616069 118.85506 
z
" clip-path="url(#p77620b3164)" style="fill: #ffffff; stroke: #000000; stroke-width: 0.4"/>
   </g>
   <g id="PathCollection_17">
    <path d="M 167.534677 118.857502 
L 165.034677 123.857502 
L 170.034677 123.857502 
z
" clip-path="url(#p77620b3164)" style="fill: #ffffff; stroke: #000000; stroke-width: 0.4"/>
    <path d="M 169.034554 119.126387 
L 166.534554 124.126387 
L 171.534554 124.126387 
z
" clip-path="url(#p77620b3164)" style="fill: #ffffff; stroke: #000000; stroke-width: 0.4"/>
    <path d="M 167.216803 119.82667 
L 164.716803 124.82667 
L 169.716803 124.82667 
z
" clip-path="url(#p77620b3164)" style="fill: #ffffff; stroke: #000000; stroke-width: 0.4"/>
   </g>
   <g id="PathCollection_18">
    <path d="M 182.131256 117.191006 
L 179.631256 122.191006 
L 184.631256 122.191006 
z
" clip-path="url(#p77620b3164)" style="fill: #ffffff; stroke: #000000; stroke-width: 0.4"/>
    <path d="M 181.465488 119.54892 
L 178.965488 124.54892 
L 183.965488 124.54892 
z
" clip-path="url(#p77620b3164)" style="fill: #ffffff; stroke: #000000; stroke-width: 0.4"/>
    <path d="M 182.412199 118.807271 
L 179.912199 123.807271 
L 184.912199 123.807271 
z
" clip-path="url(#p77620b3164)" style="fill: #ffffff; stroke: #000000; stroke-width: 0.4"/>
   </g>
   <g id="PathCollection_19">
    <path d="M 193.581863 120.423535 
L 191.081863 125.423535 
L 196.081863 125.423535 
z
" clip-path="url(#p77620b3164)" style="fill: #ffffff; stroke: #000000; stroke-width: 0.4"/>
    <path d="M 194.456465 120.272841 
L 191.956465 125.272841 
L 196.956465 125.272841 
z
" clip-path="url(#p77620b3164)" style="fill: #ffffff; stroke: #000000; stroke-width: 0.4"/>
    <path d="M 194.828134 120.393987 
L 192.328134 125.393987 
L 197.328134 125.393987 
z
" clip-path="url(#p77620b3164)" style="fill: #ffffff; stroke: #000000; stroke-width: 0.4"/>
   </g>
   <g id="PathCollection_20">
    <path d="M 206.55987 118.632939 
L 204.05987 123.632939 
L 209.05987 123.632939 
z
" clip-path="url(#p77620b3164)" style="fill: #ffffff; stroke: #000000; stroke-width: 0.4"/>
    <path d="M 206.858904 120.82834 
L 204.358904 125.82834 
L 209.358904 125.82834 
z
" clip-path="url(#p77620b3164)" style="fill: #ffffff; stroke: #000000; stroke-width: 0.4"/>
    <path d="M 204.580799 120.512179 
L 202.080799 125.512179 
L 207.080799 125.512179 
z
" clip-path="url(#p77620b3164)" style="fill: #ffffff; stroke: #000000; stroke-width: 0.4"/>
   </g>
   <g id="PathCollection_21">
    <path d="M 75.101931 63.984804 
L 80.101931 63.984804 
L 80.101931 58.984804 
L 75.101931 58.984804 
z
" clip-path="url(#p77620b3164)" style="fill: #ffffff; stroke: #000000; stroke-width: 0.4"/>
    <path d="M 73.40464 64.283237 
L 78.40464 64.283237 
L 78.40464 59.283237 
L 73.40464 59.283237 
z
" clip-path="url(#p77620b3164)" style="fill: #ffffff; stroke: #000000; stroke-width: 0.4"/>
    <path d="M 72.726754 63.074732 
L 77.726754 63.074732 
L 77.726754 58.074732 
L 72.726754 58.074732 
z
" clip-path="url(#p77620b3164)" style="fill: #ffffff; stroke: #000000; stroke-width: 0.4"/>
   </g>
   <g id="PathCollection_22">
    <path d="M 86.28979 103.094266 
L 91.28979 103.094266 
L 91.28979 98.094266 
L 86.28979 98.094266 
z
" clip-path="url(#p77620b3164)" style="fill: #ffffff; stroke: #000000; stroke-width: 0.4"/>
    <path d="M 85.288329 109.792751 
L 90.288329 109.792751 
L 90.288329 104.792751 
L 85.288329 104.792751 
z
" clip-path="url(#p77620b3164)" style="fill: #ffffff; stroke: #000000; stroke-width: 0.4"/>
    <path d="M 87.100708 107.576667 
L 92.100708 107.576667 
L 92.100708 102.576667 
L 87.100708 102.576667 
z
" clip-path="url(#p77620b3164)" style="fill: #ffffff; stroke: #000000; stroke-width: 0.4"/>
   </g>
   <g id="PathCollection_23">
    <path d="M 98.238146 97.01333 
L 103.238146 97.01333 
L 103.238146 92.01333 
L 98.238146 92.01333 
z
" clip-path="url(#p77620b3164)" style="fill: #ffffff; stroke: #000000; stroke-width: 0.4"/>
    <path d="M 100.470003 91.730184 
L 105.470003 91.730184 
L 105.470003 86.730184 
L 100.470003 86.730184 
z
" clip-path="url(#p77620b3164)" style="fill: #ffffff; stroke: #000000; stroke-width: 0.4"/>
    <path d="M 98.062126 92.991875 
L 103.062126 92.991875 
L 103.062126 87.991875 
L 98.062126 87.991875 
z
" clip-path="url(#p77620b3164)" style="fill: #ffffff; stroke: #000000; stroke-width: 0.4"/>
   </g>
   <g id="PathCollection_24">
    <path d="M 111.074582 87.478256 
L 116.074582 87.478256 
L 116.074582 82.478256 
L 111.074582 82.478256 
z
" clip-path="url(#p77620b3164)" style="fill: #ffffff; stroke: #000000; stroke-width: 0.4"/>
    <path d="M 112.488449 87.989433 
L 117.488449 87.989433 
L 117.488449 82.989433 
L 112.488449 82.989433 
z
" clip-path="url(#p77620b3164)" style="fill: #ffffff; stroke: #000000; stroke-width: 0.4"/>
    <path d="M 112.412807 91.700636 
L 117.412807 91.700636 
L 117.412807 86.700636 
L 112.412807 86.700636 
z
" clip-path="url(#p77620b3164)" style="fill: #ffffff; stroke: #000000; stroke-width: 0.4"/>
   </g>
   <g id="PathCollection_25">
    <path d="M 125.03836 70.969903 
L 130.03836 70.969903 
L 130.03836 65.969903 
L 125.03836 65.969903 
z
" clip-path="url(#p77620b3164)" style="fill: #ffffff; stroke: #000000; stroke-width: 0.4"/>
    <path d="M 124.308352 79.3142 
L 129.308352 79.3142 
L 129.308352 74.3142 
L 124.308352 74.3142 
z
" clip-path="url(#p77620b3164)" style="fill: #ffffff; stroke: #000000; stroke-width: 0.4"/>
    <path d="M 125.643508 73.945366 
L 130.643508 73.945366 
L 130.643508 68.945366 
L 125.643508 68.945366 
z
" clip-path="url(#p77620b3164)" style="fill: #ffffff; stroke: #000000; stroke-width: 0.4"/>
   </g>
   <g id="PathCollection_26">
    <path d="M 154.247086 117.501771 
L 159.247086 117.501771 
L 159.247086 112.501771 
L 154.247086 112.501771 
z
" clip-path="url(#p77620b3164)" style="fill: #ffffff; stroke: #000000; stroke-width: 0.4"/>
    <path d="M 152.733393 115.134993 
L 157.733393 115.134993 
L 157.733393 110.134993 
L 152.733393 110.134993 
z
" clip-path="url(#p77620b3164)" style="fill: #ffffff; stroke: #000000; stroke-width: 0.4"/>
    <path d="M 152.110998 120.778622 
L 157.110998 120.778622 
L 157.110998 115.778622 
L 152.110998 115.778622 
z
" clip-path="url(#p77620b3164)" style="fill: #ffffff; stroke: #000000; stroke-width: 0.4"/>
   </g>
   <g id="PathCollection_27">
    <path d="M 166.168341 121.227748 
L 171.168341 121.227748 
L 171.168341 116.227748 
L 166.168341 116.227748 
z
" clip-path="url(#p77620b3164)" style="fill: #ffffff; stroke: #000000; stroke-width: 0.4"/>
    <path d="M 164.316682 124.182528 
L 169.316682 124.182528 
L 169.316682 119.182528 
L 164.316682 119.182528 
z
" clip-path="url(#p77620b3164)" style="fill: #ffffff; stroke: #000000; stroke-width: 0.4"/>
    <path d="M 166.358338 125.163515 
L 171.358338 125.163515 
L 171.358338 120.163515 
L 166.358338 120.163515 
z
" clip-path="url(#p77620b3164)" style="fill: #ffffff; stroke: #000000; stroke-width: 0.4"/>
   </g>
   <g id="PathCollection_28">
    <path d="M 177.617365 122.784917 
L 182.617365 122.784917 
L 182.617365 117.784917 
L 177.617365 117.784917 
z
" clip-path="url(#p77620b3164)" style="fill: #ffffff; stroke: #000000; stroke-width: 0.4"/>
    <path d="M 176.950846 124.271171 
L 181.950846 124.271171 
L 181.950846 119.271171 
L 176.950846 119.271171 
z
" clip-path="url(#p77620b3164)" style="fill: #ffffff; stroke: #000000; stroke-width: 0.4"/>
    <path d="M 178.402777 120.477234 
L 183.402777 120.477234 
L 183.402777 115.477234 
L 178.402777 115.477234 
z
" clip-path="url(#p77620b3164)" style="fill: #ffffff; stroke: #000000; stroke-width: 0.4"/>
   </g>
   <g id="PathCollection_29">
    <path d="M 191.44541 122.518987 
L 196.44541 122.518987 
L 196.44541 117.518987 
L 191.44541 117.518987 
z
" clip-path="url(#p77620b3164)" style="fill: #ffffff; stroke: #000000; stroke-width: 0.4"/>
    <path d="M 192.214247 120.923406 
L 197.214247 120.923406 
L 197.214247 115.923406 
L 192.214247 115.923406 
z
" clip-path="url(#p77620b3164)" style="fill: #ffffff; stroke: #000000; stroke-width: 0.4"/>
    <path d="M 190.279518 124.856218 
L 195.279518 124.856218 
L 195.279518 119.856218 
L 190.279518 119.856218 
z
" clip-path="url(#p77620b3164)" style="fill: #ffffff; stroke: #000000; stroke-width: 0.4"/>
   </g>
   <g id="PathCollection_30">
    <path d="M 203.956709 124.111613 
L 208.956709 124.111613 
L 208.956709 119.111613 
L 203.956709 119.111613 
z
" clip-path="url(#p77620b3164)" style="fill: #ffffff; stroke: #000000; stroke-width: 0.4"/>
    <path d="M 204.979415 120.884994 
L 209.979415 120.884994 
L 209.979415 115.884994 
L 204.979415 115.884994 
z
" clip-path="url(#p77620b3164)" style="fill: #ffffff; stroke: #000000; stroke-width: 0.4"/>
    <path d="M 202.562701 124.020015 
L 207.562701 124.020015 
L 207.562701 119.020015 
L 202.562701 119.020015 
z
" clip-path="url(#p77620b3164)" style="fill: #ffffff; stroke: #000000; stroke-width: 0.4"/>
   </g>
   <g id="PathCollection_31">
    <path d="M 77.781445 84.864637 
L 81.316979 81.329103 
L 77.781445 77.793569 
L 74.245912 81.329103 
z
" clip-path="url(#p77620b3164)" style="fill: #ffffff; stroke: #000000; stroke-width: 0.4"/>
    <path d="M 77.064172 77.78794 
L 80.599706 74.252406 
L 77.064172 70.716872 
L 73.528638 74.252406 
z
" clip-path="url(#p77620b3164)" style="fill: #ffffff; stroke: #000000; stroke-width: 0.4"/>
    <path d="M 75.234123 83.136091 
L 78.769657 79.600557 
L 75.234123 76.065023 
L 71.69859 79.600557 
z
" clip-path="url(#p77620b3164)" style="fill: #ffffff; stroke: #000000; stroke-width: 0.4"/>
   </g>
   <g id="PathCollection_32">
    <path d="M 88.043069 74.271753 
L 91.578603 70.736219 
L 88.043069 67.200685 
L 84.507535 70.736219 
z
" clip-path="url(#p77620b3164)" style="fill: #ffffff; stroke: #000000; stroke-width: 0.4"/>
    <path d="M 88.243475 67.268925 
L 91.779009 63.733391 
L 88.243475 60.197857 
L 84.707942 63.733391 
z
" clip-path="url(#p77620b3164)" style="fill: #ffffff; stroke: #000000; stroke-width: 0.4"/>
    <path d="M 88.323784 64.036396 
L 91.859318 60.500862 
L 88.323784 56.965328 
L 84.78825 60.500862 
z
" clip-path="url(#p77620b3164)" style="fill: #ffffff; stroke: #000000; stroke-width: 0.4"/>
   </g>
   <g id="PathCollection_33">
    <path d="M 102.687104 90.351663 
L 106.222638 86.816129 
L 102.687104 83.280595 
L 99.15157 86.816129 
z
" clip-path="url(#p77620b3164)" style="fill: #ffffff; stroke: #000000; stroke-width: 0.4"/>
    <path d="M 102.248153 89.943903 
L 105.783687 86.408369 
L 102.248153 82.872836 
L 98.71262 86.408369 
z
" clip-path="url(#p77620b3164)" style="fill: #ffffff; stroke: #000000; stroke-width: 0.4"/>
    <path d="M 102.240745 88.883137 
L 105.776279 85.347604 
L 102.240745 81.81207 
L 98.705211 85.347604 
z
" clip-path="url(#p77620b3164)" style="fill: #ffffff; stroke: #000000; stroke-width: 0.4"/>
   </g>
   <g id="PathCollection_34">
    <path d="M 113.298924 87.896241 
L 116.834458 84.360707 
L 113.298924 80.825173 
L 109.76339 84.360707 
z
" clip-path="url(#p77620b3164)" style="fill: #ffffff; stroke: #000000; stroke-width: 0.4"/>
    <path d="M 115.568119 80.627483 
L 119.103653 77.091949 
L 115.568119 73.556416 
L 112.032585 77.091949 
z
" clip-path="url(#p77620b3164)" style="fill: #ffffff; stroke: #000000; stroke-width: 0.4"/>
    <path d="M 114.208398 91.518801 
L 117.743932 87.983267 
L 114.208398 84.447733 
L 110.672864 87.983267 
z
" clip-path="url(#p77620b3164)" style="fill: #ffffff; stroke: #000000; stroke-width: 0.4"/>
   </g>
   <g id="PathCollection_35">
    <path d="M 125.669647 81.809395 
L 129.205181 78.273861 
L 125.669647 74.738327 
L 122.134114 78.273861 
z
" clip-path="url(#p77620b3164)" style="fill: #ffffff; stroke: #000000; stroke-width: 0.4"/>
    <path d="M 125.84619 83.100634 
L 129.381724 79.5651 
L 125.84619 76.029566 
L 122.310656 79.5651 
z
" clip-path="url(#p77620b3164)" style="fill: #ffffff; stroke: #000000; stroke-width: 0.4"/>
    <path d="M 125.634276 91.53062 
L 129.169809 87.995086 
L 125.634276 84.459552 
L 122.098742 87.995086 
z
" clip-path="url(#p77620b3164)" style="fill: #ffffff; stroke: #000000; stroke-width: 0.4"/>
   </g>
   <g id="PathCollection_36">
    <path d="M 156.647978 122.357835 
L 160.183512 118.822301 
L 156.647978 115.286767 
L 153.112444 118.822301 
z
" clip-path="url(#p77620b3164)" style="fill: #ffffff; stroke: #000000; stroke-width: 0.4"/>
    <path d="M 156.71286 122.478981 
L 160.248394 118.943447 
L 156.71286 115.407913 
L 153.177326 118.943447 
z
" clip-path="url(#p77620b3164)" style="fill: #ffffff; stroke: #000000; stroke-width: 0.4"/>
    <path d="M 156.637914 120.587922 
L 160.173448 117.052388 
L 156.637914 113.516854 
L 153.10238 117.052388 
z
" clip-path="url(#p77620b3164)" style="fill: #ffffff; stroke: #000000; stroke-width: 0.4"/>
   </g>
   <g id="PathCollection_37">
    <path d="M 168.253902 124.801438 
L 171.789436 121.265904 
L 168.253902 117.73037 
L 164.718368 121.265904 
z
" clip-path="url(#p77620b3164)" style="fill: #ffffff; stroke: #000000; stroke-width: 0.4"/>
    <path d="M 167.808376 122.993113 
L 171.34391 119.457579 
L 167.808376 115.922045 
L 164.272842 119.457579 
z
" clip-path="url(#p77620b3164)" style="fill: #ffffff; stroke: #000000; stroke-width: 0.4"/>
    <path d="M 169.375876 117.195835 
L 172.91141 113.660301 
L 169.375876 110.124767 
L 165.840342 113.660301 
z
" clip-path="url(#p77620b3164)" style="fill: #ffffff; stroke: #000000; stroke-width: 0.4"/>
   </g>
   <g id="PathCollection_38">
    <path d="M 180.757038 125.823792 
L 184.292572 122.288258 
L 180.757038 118.752724 
L 177.221504 122.288258 
z
" clip-path="url(#p77620b3164)" style="fill: #ffffff; stroke: #000000; stroke-width: 0.4"/>
    <path d="M 180.470064 125.646505 
L 184.005597 122.110971 
L 180.470064 118.575437 
L 176.93453 122.110971 
z
" clip-path="url(#p77620b3164)" style="fill: #ffffff; stroke: #000000; stroke-width: 0.4"/>
    <path d="M 181.019998 127.041161 
L 184.555532 123.505627 
L 181.019998 119.970093 
L 177.484464 123.505627 
z
" clip-path="url(#p77620b3164)" style="fill: #ffffff; stroke: #000000; stroke-width: 0.4"/>
   </g>
   <g id="PathCollection_39">
    <path d="M 192.118724 125.84743 
L 195.654258 122.311896 
L 192.118724 118.776362 
L 188.58319 122.311896 
z
" clip-path="url(#p77620b3164)" style="fill: #ffffff; stroke: #000000; stroke-width: 0.4"/>
    <path d="M 194.964784 125.844475 
L 198.500318 122.308941 
L 194.964784 118.773407 
L 191.42925 122.308941 
z
" clip-path="url(#p77620b3164)" style="fill: #ffffff; stroke: #000000; stroke-width: 0.4"/>
    <path d="M 194.392805 126.222687 
L 197.928339 122.687153 
L 194.392805 119.151619 
L 190.857271 122.687153 
z
" clip-path="url(#p77620b3164)" style="fill: #ffffff; stroke: #000000; stroke-width: 0.4"/>
   </g>
   <g id="PathCollection_40">
    <path d="M 206.586434 126.592034 
L 210.121968 123.0565 
L 206.586434 119.520966 
L 203.0509 123.0565 
z
" clip-path="url(#p77620b3164)" style="fill: #ffffff; stroke: #000000; stroke-width: 0.4"/>
    <path d="M 206.680675 122.996067 
L 210.216208 119.460534 
L 206.680675 115.925 
L 203.145141 119.460534 
z
" clip-path="url(#p77620b3164)" style="fill: #ffffff; stroke: #000000; stroke-width: 0.4"/>
    <path d="M 206.289953 125.844475 
L 209.825487 122.308941 
L 206.289953 118.773407 
L 202.754419 122.308941 
z
" clip-path="url(#p77620b3164)" style="fill: #ffffff; stroke: #000000; stroke-width: 0.4"/>
   </g>
   <g id="text_8">
    <!-- **** -->
    <g style="fill: #262626" transform="translate(79.763344 18.121022) scale(0.12 -0.12)">
     <defs>
      <path id="ArialMT-2a" d="M 200 3741 
L 344 4184 
Q 841 4009 1066 3881 
Q 1006 4447 1003 4659 
L 1456 4659 
Q 1447 4350 1384 3884 
Q 1706 4047 2122 4184 
L 2266 3741 
Q 1869 3609 1488 3566 
Q 1678 3400 2025 2975 
L 1650 2709 
Q 1469 2956 1222 3381 
Q 991 2941 816 2709 
L 447 2975 
Q 809 3422 966 3566 
Q 563 3644 200 3741 
z
" transform="scale(0.015625)"/>
     </defs>
     <use xlink:href="#ArialMT-2a"/>
     <use xlink:href="#ArialMT-2a" transform="translate(38.916016 0)"/>
     <use xlink:href="#ArialMT-2a" transform="translate(77.832031 0)"/>
     <use xlink:href="#ArialMT-2a" transform="translate(116.748047 0)"/>
    </g>
   </g>
   <g id="text_9">
    <!-- **** -->
    <g style="fill: #262626" transform="translate(158.854253 98.251689) scale(0.12 -0.12)">
     <use xlink:href="#ArialMT-2a"/>
     <use xlink:href="#ArialMT-2a" transform="translate(38.916016 0)"/>
     <use xlink:href="#ArialMT-2a" transform="translate(77.832031 0)"/>
     <use xlink:href="#ArialMT-2a" transform="translate(116.748047 0)"/>
    </g>
   </g>
   <g id="legend_1">
    <g id="patch_17">
     <path d="M 231.834594 19.473594 
L 253.834594 19.473594 
L 253.834594 11.773594 
L 231.834594 11.773594 
z
" style="fill: #4b4279; opacity: 0.8; stroke: #ffffff; stroke-linejoin: miter"/>
    </g>
    <g id="text_10">
     <!-- 0 nM -->
     <g style="fill: #262626" transform="translate(262.634594 19.473594) scale(0.11 -0.11)">
      <defs>
       <path id="ArialMT-6e" d="M 422 0 
L 422 3319 
L 928 3319 
L 928 2847 
Q 1294 3394 1984 3394 
Q 2284 3394 2536 3286 
Q 2788 3178 2913 3003 
Q 3038 2828 3088 2588 
Q 3119 2431 3119 2041 
L 3119 0 
L 2556 0 
L 2556 2019 
Q 2556 2363 2490 2533 
Q 2425 2703 2258 2804 
Q 2091 2906 1866 2906 
Q 1506 2906 1245 2678 
Q 984 2450 984 1813 
L 984 0 
L 422 0 
z
" transform="scale(0.015625)"/>
      </defs>
      <use xlink:href="#ArialMT-30"/>
      <use xlink:href="#ArialMT-20" transform="translate(55.615234 0)"/>
      <use xlink:href="#ArialMT-6e" transform="translate(83.398438 0)"/>
      <use xlink:href="#ArialMT-4d" transform="translate(139.013672 0)"/>
     </g>
    </g>
    <g id="patch_18">
     <path d="M 231.834594 35.033437 
L 253.834594 35.033437 
L 253.834594 27.333437 
L 231.834594 27.333437 
z
" style="fill: #3c6682; opacity: 0.8; stroke: #ffffff; stroke-linejoin: miter"/>
    </g>
    <g id="text_11">
     <!-- 10 nM -->
     <g style="fill: #262626" transform="translate(262.634594 35.033437) scale(0.11 -0.11)">
      <use xlink:href="#ArialMT-31"/>
      <use xlink:href="#ArialMT-30" transform="translate(55.615234 0)"/>
      <use xlink:href="#ArialMT-20" transform="translate(111.230469 0)"/>
      <use xlink:href="#ArialMT-6e" transform="translate(139.013672 0)"/>
      <use xlink:href="#ArialMT-4d" transform="translate(194.628906 0)"/>
     </g>
    </g>
    <g id="patch_19">
     <path d="M 231.834594 50.593281 
L 253.834594 50.593281 
L 253.834594 42.893281 
L 231.834594 42.893281 
z
" style="fill: #2f837f; opacity: 0.8; stroke: #ffffff; stroke-linejoin: miter"/>
    </g>
    <g id="text_12">
     <!-- 100 nM -->
     <g style="fill: #262626" transform="translate(262.634594 50.593281) scale(0.11 -0.11)">
      <use xlink:href="#ArialMT-31"/>
      <use xlink:href="#ArialMT-30" transform="translate(55.615234 0)"/>
      <use xlink:href="#ArialMT-30" transform="translate(111.230469 0)"/>
      <use xlink:href="#ArialMT-20" transform="translate(166.845703 0)"/>
      <use xlink:href="#ArialMT-6e" transform="translate(194.628906 0)"/>
      <use xlink:href="#ArialMT-4d" transform="translate(250.244141 0)"/>
     </g>
    </g>
    <g id="patch_20">
     <path d="M 231.834594 66.153125 
L 253.834594 66.153125 
L 253.834594 58.453125 
L 231.834594 58.453125 
z
" style="fill: #45a778; opacity: 0.8; stroke: #ffffff; stroke-linejoin: miter"/>
    </g>
    <g id="text_13">
     <!-- 200 nM -->
     <g style="fill: #262626" transform="translate(262.634594 66.153125) scale(0.11 -0.11)">
      <use xlink:href="#ArialMT-32"/>
      <use xlink:href="#ArialMT-30" transform="translate(55.615234 0)"/>
      <use xlink:href="#ArialMT-30" transform="translate(111.230469 0)"/>
      <use xlink:href="#ArialMT-20" transform="translate(166.845703 0)"/>
      <use xlink:href="#ArialMT-6e" transform="translate(194.628906 0)"/>
      <use xlink:href="#ArialMT-4d" transform="translate(250.244141 0)"/>
     </g>
    </g>
    <g id="patch_21">
     <path d="M 231.834594 81.712969 
L 253.834594 81.712969 
L 253.834594 74.012969 
L 231.834594 74.012969 
z
" style="fill: #8fc456; opacity: 0.8; stroke: #ffffff; stroke-linejoin: miter"/>
    </g>
    <g id="text_14">
     <!-- 400 nM -->
     <g style="fill: #262626" transform="translate(262.634594 81.712969) scale(0.11 -0.11)">
      <defs>
       <path id="ArialMT-34" d="M 2069 0 
L 2069 1097 
L 81 1097 
L 81 1613 
L 2172 4581 
L 2631 4581 
L 2631 1613 
L 3250 1613 
L 3250 1097 
L 2631 1097 
L 2631 0 
L 2069 0 
z
M 2069 1613 
L 2069 3678 
L 634 1613 
L 2069 1613 
z
" transform="scale(0.015625)"/>
      </defs>
      <use xlink:href="#ArialMT-34"/>
      <use xlink:href="#ArialMT-30" transform="translate(55.615234 0)"/>
      <use xlink:href="#ArialMT-30" transform="translate(111.230469 0)"/>
      <use xlink:href="#ArialMT-20" transform="translate(166.845703 0)"/>
      <use xlink:href="#ArialMT-6e" transform="translate(194.628906 0)"/>
      <use xlink:href="#ArialMT-4d" transform="translate(250.244141 0)"/>
     </g>
    </g>
   </g>
  </g>
 </g>
 <defs>
  <clipPath id="p77620b3164">
   <rect x="63.004594" y="7.2" width="156.6" height="117"/>
  </clipPath>
 </defs>
</svg>
