<?xml version="1.0" encoding="utf-8" standalone="no"?>
<!DOCTYPE svg PUBLIC "-//W3C//DTD SVG 1.1//EN"
  "http://www.w3.org/Graphics/SVG/1.1/DTD/svg11.dtd">
<svg xmlns:xlink="http://www.w3.org/1999/xlink" width="365.822031pt" height="162.594406pt" viewBox="0 0 365.822031 162.594406" xmlns="http://www.w3.org/2000/svg" version="1.1">
 <metadata>
  <rdf:RDF xmlns:dc="http://purl.org/dc/elements/1.1/" xmlns:cc="http://creativecommons.org/ns#" xmlns:rdf="http://www.w3.org/1999/02/22-rdf-syntax-ns#">
   <cc:Work>
    <dc:type rdf:resource="http://purl.org/dc/dcmitype/StillImage"/>
    <dc:date>2025-07-28T17:38:30.451394</dc:date>
    <dc:format>image/svg+xml</dc:format>
    <dc:creator>
     <cc:Agent>
      <dc:title>Matplotlib v3.10.3, https://matplotlib.org/</dc:title>
     </cc:Agent>
    </dc:creator>
   </cc:Work>
  </rdf:RDF>
 </metadata>
 <defs>
  <style type="text/css">*{stroke-linejoin: round; stroke-linecap: butt}</style>
 </defs>
 <g id="figure_1">
  <g id="patch_1">
   <path d="M 0 162.594406 
L 365.822031 162.594406 
L 365.822031 0 
L 0 0 
z
" style="fill: #ffffff"/>
  </g>
  <g id="axes_1">
   <g id="patch_2">
    <path d="M 44.195313 124.2 
L 270.995313 124.2 
L 270.995313 7.2 
L 44.195313 7.2 
z
" style="fill: #ffffff"/>
   </g>
   <g id="matplotlib.axis_1">
    <g id="xtick_1">
     <g id="line2d_1">
      <defs>
       <path id="m3f153aecb5" d="M 0 0 
L 0 6 
" style="stroke: #262626; stroke-width: 1.25"/>
      </defs>
      <g>
       <use xlink:href="#m3f153aecb5" x="83.958949" y="124.2" style="fill: #262626; stroke: #262626; stroke-width: 1.25"/>
      </g>
     </g>
     <g id="text_1">
      <!-- NIL -->
      <g style="fill: #262626" transform="translate(75.400433 141.573594) scale(0.11 -0.11)">
       <defs>
        <path id="ArialMT-4e" d="M 488 0 
L 488 4581 
L 1109 4581 
L 3516 984 
L 3516 4581 
L 4097 4581 
L 4097 0 
L 3475 0 
L 1069 3600 
L 1069 0 
L 488 0 
z
" transform="scale(0.015625)"/>
        <path id="ArialMT-49" d="M 597 0 
L 597 4581 
L 1203 4581 
L 1203 0 
L 597 0 
z
" transform="scale(0.015625)"/>
        <path id="ArialMT-4c" d="M 469 0 
L 469 4581 
L 1075 4581 
L 1075 541 
L 3331 541 
L 3331 0 
L 469 0 
z
" transform="scale(0.015625)"/>
       </defs>
       <use xlink:href="#ArialMT-4e"/>
       <use xlink:href="#ArialMT-49" transform="translate(72.216797 0)"/>
       <use xlink:href="#ArialMT-4c" transform="translate(100 0)"/>
      </g>
     </g>
    </g>
    <g id="xtick_2">
     <g id="line2d_2">
      <g>
       <use xlink:href="#m3f153aecb5" x="157.595313" y="124.2" style="fill: #262626; stroke: #262626; stroke-width: 1.25"/>
      </g>
     </g>
     <g id="text_2">
      <!-- NIL -->
      <g style="fill: #262626" transform="translate(149.036797 141.573594) scale(0.11 -0.11)">
       <use xlink:href="#ArialMT-4e"/>
       <use xlink:href="#ArialMT-49" transform="translate(72.216797 0)"/>
       <use xlink:href="#ArialMT-4c" transform="translate(100 0)"/>
      </g>
      <!-- DD -->
      <g style="fill: #262626" transform="translate(149.65125 153.208156) scale(0.11 -0.11)">
       <defs>
        <path id="ArialMT-44" d="M 494 0 
L 494 4581 
L 2072 4581 
Q 2606 4581 2888 4516 
Q 3281 4425 3559 4188 
Q 3922 3881 4101 3404 
Q 4281 2928 4281 2316 
Q 4281 1794 4159 1391 
Q 4038 988 3847 723 
Q 3656 459 3429 307 
Q 3203 156 2883 78 
Q 2563 0 2147 0 
L 494 0 
z
M 1100 541 
L 2078 541 
Q 2531 541 2789 625 
Q 3047 709 3200 863 
Q 3416 1078 3536 1442 
Q 3656 1806 3656 2325 
Q 3656 3044 3420 3430 
Q 3184 3816 2847 3947 
Q 2603 4041 2063 4041 
L 1100 4041 
L 1100 541 
z
" transform="scale(0.015625)"/>
       </defs>
       <use xlink:href="#ArialMT-44"/>
       <use xlink:href="#ArialMT-44" transform="translate(72.216797 0)"/>
      </g>
     </g>
    </g>
    <g id="xtick_3">
     <g id="line2d_3">
      <g>
       <use xlink:href="#m3f153aecb5" x="231.231676" y="124.2" style="fill: #262626; stroke: #262626; stroke-width: 1.25"/>
      </g>
     </g>
     <g id="text_3">
      <!-- NIL -->
      <g style="fill: #262626" transform="translate(222.673161 141.573594) scale(0.11 -0.11)">
       <use xlink:href="#ArialMT-4e"/>
       <use xlink:href="#ArialMT-49" transform="translate(72.216797 0)"/>
       <use xlink:href="#ArialMT-4c" transform="translate(100 0)"/>
      </g>
      <!-- SNAP-DD -->
      <g style="fill: #262626" transform="translate(206.478239 153.208156) scale(0.11 -0.11)">
       <defs>
        <path id="ArialMT-53" d="M 288 1472 
L 859 1522 
Q 900 1178 1048 958 
Q 1197 738 1509 602 
Q 1822 466 2213 466 
Q 2559 466 2825 569 
Q 3091 672 3220 851 
Q 3350 1031 3350 1244 
Q 3350 1459 3225 1620 
Q 3100 1781 2813 1891 
Q 2628 1963 1997 2114 
Q 1366 2266 1113 2400 
Q 784 2572 623 2826 
Q 463 3081 463 3397 
Q 463 3744 659 4045 
Q 856 4347 1234 4503 
Q 1613 4659 2075 4659 
Q 2584 4659 2973 4495 
Q 3363 4331 3572 4012 
Q 3781 3694 3797 3291 
L 3216 3247 
Q 3169 3681 2898 3903 
Q 2628 4125 2100 4125 
Q 1550 4125 1298 3923 
Q 1047 3722 1047 3438 
Q 1047 3191 1225 3031 
Q 1400 2872 2139 2705 
Q 2878 2538 3153 2413 
Q 3553 2228 3743 1945 
Q 3934 1663 3934 1294 
Q 3934 928 3725 604 
Q 3516 281 3123 101 
Q 2731 -78 2241 -78 
Q 1619 -78 1198 103 
Q 778 284 539 648 
Q 300 1013 288 1472 
z
" transform="scale(0.015625)"/>
        <path id="ArialMT-41" d="M -9 0 
L 1750 4581 
L 2403 4581 
L 4278 0 
L 3588 0 
L 3053 1388 
L 1138 1388 
L 634 0 
L -9 0 
z
M 1313 1881 
L 2866 1881 
L 2388 3150 
Q 2169 3728 2063 4100 
Q 1975 3659 1816 3225 
L 1313 1881 
z
" transform="scale(0.015625)"/>
        <path id="ArialMT-50" d="M 494 0 
L 494 4581 
L 2222 4581 
Q 2678 4581 2919 4538 
Q 3256 4481 3484 4323 
Q 3713 4166 3852 3881 
Q 3991 3597 3991 3256 
Q 3991 2672 3619 2267 
Q 3247 1863 2275 1863 
L 1100 1863 
L 1100 0 
L 494 0 
z
M 1100 2403 
L 2284 2403 
Q 2872 2403 3119 2622 
Q 3366 2841 3366 3238 
Q 3366 3525 3220 3729 
Q 3075 3934 2838 4000 
Q 2684 4041 2272 4041 
L 1100 4041 
L 1100 2403 
z
" transform="scale(0.015625)"/>
        <path id="ArialMT-2d" d="M 203 1375 
L 203 1941 
L 1931 1941 
L 1931 1375 
L 203 1375 
z
" transform="scale(0.015625)"/>
       </defs>
       <use xlink:href="#ArialMT-53"/>
       <use xlink:href="#ArialMT-4e" transform="translate(66.699219 0)"/>
       <use xlink:href="#ArialMT-41" transform="translate(138.916016 0)"/>
       <use xlink:href="#ArialMT-50" transform="translate(205.615234 0)"/>
       <use xlink:href="#ArialMT-2d" transform="translate(272.314453 0)"/>
       <use xlink:href="#ArialMT-44" transform="translate(305.615234 0)"/>
       <use xlink:href="#ArialMT-44" transform="translate(377.832031 0)"/>
      </g>
     </g>
    </g>
   </g>
   <g id="matplotlib.axis_2">
    <g id="ytick_1">
     <g id="line2d_4">
      <defs>
       <path id="m6b14a237c1" d="M 0 0 
L -6 0 
" style="stroke: #262626; stroke-width: 1.25"/>
      </defs>
      <g>
       <use xlink:href="#m6b14a237c1" x="44.195313" y="124.2" style="fill: #262626; stroke: #262626; stroke-width: 1.25"/>
      </g>
     </g>
     <g id="text_4">
      <!-- 0 -->
      <g style="fill: #262626" transform="translate(28.578281 128.136797) scale(0.11 -0.11)">
       <defs>
        <path id="ArialMT-30" d="M 266 2259 
Q 266 3072 433 3567 
Q 600 4063 929 4331 
Q 1259 4600 1759 4600 
Q 2128 4600 2406 4451 
Q 2684 4303 2865 4023 
Q 3047 3744 3150 3342 
Q 3253 2941 3253 2259 
Q 3253 1453 3087 958 
Q 2922 463 2592 192 
Q 2263 -78 1759 -78 
Q 1097 -78 719 397 
Q 266 969 266 2259 
z
M 844 2259 
Q 844 1131 1108 757 
Q 1372 384 1759 384 
Q 2147 384 2411 759 
Q 2675 1134 2675 2259 
Q 2675 3391 2411 3762 
Q 2147 4134 1753 4134 
Q 1366 4134 1134 3806 
Q 844 3388 844 2259 
z
" transform="scale(0.015625)"/>
       </defs>
       <use xlink:href="#ArialMT-30"/>
      </g>
     </g>
    </g>
    <g id="ytick_2">
     <g id="line2d_5">
      <g>
       <use xlink:href="#m6b14a237c1" x="44.195313" y="100.273012" style="fill: #262626; stroke: #262626; stroke-width: 1.25"/>
      </g>
     </g>
     <g id="text_5">
      <!-- 20 -->
      <g style="fill: #262626" transform="translate(22.46125 104.209809) scale(0.11 -0.11)">
       <defs>
        <path id="ArialMT-32" d="M 3222 541 
L 3222 0 
L 194 0 
Q 188 203 259 391 
Q 375 700 629 1000 
Q 884 1300 1366 1694 
Q 2113 2306 2375 2664 
Q 2638 3022 2638 3341 
Q 2638 3675 2398 3904 
Q 2159 4134 1775 4134 
Q 1369 4134 1125 3890 
Q 881 3647 878 3216 
L 300 3275 
Q 359 3922 746 4261 
Q 1134 4600 1788 4600 
Q 2447 4600 2831 4234 
Q 3216 3869 3216 3328 
Q 3216 3053 3103 2787 
Q 2991 2522 2730 2228 
Q 2469 1934 1863 1422 
Q 1356 997 1212 845 
Q 1069 694 975 541 
L 3222 541 
z
" transform="scale(0.015625)"/>
       </defs>
       <use xlink:href="#ArialMT-32"/>
       <use xlink:href="#ArialMT-30" transform="translate(55.615234 0)"/>
      </g>
     </g>
    </g>
    <g id="ytick_3">
     <g id="line2d_6">
      <g>
       <use xlink:href="#m6b14a237c1" x="44.195313" y="76.346024" style="fill: #262626; stroke: #262626; stroke-width: 1.25"/>
      </g>
     </g>
     <g id="text_6">
      <!-- 40 -->
      <g style="fill: #262626" transform="translate(22.46125 80.282821) scale(0.11 -0.11)">
       <defs>
        <path id="ArialMT-34" d="M 2069 0 
L 2069 1097 
L 81 1097 
L 81 1613 
L 2172 4581 
L 2631 4581 
L 2631 1613 
L 3250 1613 
L 3250 1097 
L 2631 1097 
L 2631 0 
L 2069 0 
z
M 2069 1613 
L 2069 3678 
L 634 1613 
L 2069 1613 
z
" transform="scale(0.015625)"/>
       </defs>
       <use xlink:href="#ArialMT-34"/>
       <use xlink:href="#ArialMT-30" transform="translate(55.615234 0)"/>
      </g>
     </g>
    </g>
    <g id="ytick_4">
     <g id="line2d_7">
      <g>
       <use xlink:href="#m6b14a237c1" x="44.195313" y="52.419036" style="fill: #262626; stroke: #262626; stroke-width: 1.25"/>
      </g>
     </g>
     <g id="text_7">
      <!-- 60 -->
      <g style="fill: #262626" transform="translate(22.46125 56.355833) scale(0.11 -0.11)">
       <defs>
        <path id="ArialMT-36" d="M 3184 3459 
L 2625 3416 
Q 2550 3747 2413 3897 
Q 2184 4138 1850 4138 
Q 1581 4138 1378 3988 
Q 1113 3794 959 3422 
Q 806 3050 800 2363 
Q 1003 2672 1297 2822 
Q 1591 2972 1913 2972 
Q 2475 2972 2870 2558 
Q 3266 2144 3266 1488 
Q 3266 1056 3080 686 
Q 2894 316 2569 119 
Q 2244 -78 1831 -78 
Q 1128 -78 684 439 
Q 241 956 241 2144 
Q 241 3472 731 4075 
Q 1159 4600 1884 4600 
Q 2425 4600 2770 4297 
Q 3116 3994 3184 3459 
z
M 888 1484 
Q 888 1194 1011 928 
Q 1134 663 1356 523 
Q 1578 384 1822 384 
Q 2178 384 2434 671 
Q 2691 959 2691 1453 
Q 2691 1928 2437 2201 
Q 2184 2475 1800 2475 
Q 1419 2475 1153 2201 
Q 888 1928 888 1484 
z
" transform="scale(0.015625)"/>
       </defs>
       <use xlink:href="#ArialMT-36"/>
       <use xlink:href="#ArialMT-30" transform="translate(55.615234 0)"/>
      </g>
     </g>
    </g>
    <g id="ytick_5">
     <g id="line2d_8">
      <g>
       <use xlink:href="#m6b14a237c1" x="44.195313" y="28.492048" style="fill: #262626; stroke: #262626; stroke-width: 1.25"/>
      </g>
     </g>
     <g id="text_8">
      <!-- 80 -->
      <g style="fill: #262626" transform="translate(22.46125 32.428845) scale(0.11 -0.11)">
       <defs>
        <path id="ArialMT-38" d="M 1131 2484 
Q 781 2613 612 2850 
Q 444 3088 444 3419 
Q 444 3919 803 4259 
Q 1163 4600 1759 4600 
Q 2359 4600 2725 4251 
Q 3091 3903 3091 3403 
Q 3091 3084 2923 2848 
Q 2756 2613 2416 2484 
Q 2838 2347 3058 2040 
Q 3278 1734 3278 1309 
Q 3278 722 2862 322 
Q 2447 -78 1769 -78 
Q 1091 -78 675 323 
Q 259 725 259 1325 
Q 259 1772 486 2073 
Q 713 2375 1131 2484 
z
M 1019 3438 
Q 1019 3113 1228 2906 
Q 1438 2700 1772 2700 
Q 2097 2700 2305 2904 
Q 2513 3109 2513 3406 
Q 2513 3716 2298 3927 
Q 2084 4138 1766 4138 
Q 1444 4138 1231 3931 
Q 1019 3725 1019 3438 
z
M 838 1322 
Q 838 1081 952 856 
Q 1066 631 1291 507 
Q 1516 384 1775 384 
Q 2178 384 2440 643 
Q 2703 903 2703 1303 
Q 2703 1709 2433 1975 
Q 2163 2241 1756 2241 
Q 1359 2241 1098 1978 
Q 838 1716 838 1322 
z
" transform="scale(0.015625)"/>
       </defs>
       <use xlink:href="#ArialMT-38"/>
       <use xlink:href="#ArialMT-30" transform="translate(55.615234 0)"/>
      </g>
     </g>
    </g>
    <g id="text_9">
     <!-- (%) HyperP -->
     <g style="fill: #262626" transform="translate(15.935625 96.704062) rotate(-90) scale(0.12 -0.12)">
      <defs>
       <path id="ArialMT-28" d="M 1497 -1347 
Q 1031 -759 709 28 
Q 388 816 388 1659 
Q 388 2403 628 3084 
Q 909 3875 1497 4659 
L 1900 4659 
Q 1522 4009 1400 3731 
Q 1209 3300 1100 2831 
Q 966 2247 966 1656 
Q 966 153 1900 -1347 
L 1497 -1347 
z
" transform="scale(0.015625)"/>
       <path id="ArialMT-25" d="M 372 3481 
Q 372 3972 619 4315 
Q 866 4659 1334 4659 
Q 1766 4659 2048 4351 
Q 2331 4044 2331 3447 
Q 2331 2866 2045 2552 
Q 1759 2238 1341 2238 
Q 925 2238 648 2547 
Q 372 2856 372 3481 
z
M 1350 4272 
Q 1141 4272 1002 4090 
Q 863 3909 863 3425 
Q 863 2984 1003 2804 
Q 1144 2625 1350 2625 
Q 1563 2625 1702 2806 
Q 1841 2988 1841 3469 
Q 1841 3913 1700 4092 
Q 1559 4272 1350 4272 
z
M 1353 -169 
L 3859 4659 
L 4316 4659 
L 1819 -169 
L 1353 -169 
z
M 3334 1075 
Q 3334 1569 3581 1911 
Q 3828 2253 4300 2253 
Q 4731 2253 5014 1945 
Q 5297 1638 5297 1041 
Q 5297 459 5011 145 
Q 4725 -169 4303 -169 
Q 3888 -169 3611 142 
Q 3334 453 3334 1075 
z
M 4316 1866 
Q 4103 1866 3964 1684 
Q 3825 1503 3825 1019 
Q 3825 581 3965 400 
Q 4106 219 4313 219 
Q 4528 219 4667 400 
Q 4806 581 4806 1063 
Q 4806 1506 4665 1686 
Q 4525 1866 4316 1866 
z
" transform="scale(0.015625)"/>
       <path id="ArialMT-29" d="M 791 -1347 
L 388 -1347 
Q 1322 153 1322 1656 
Q 1322 2244 1188 2822 
Q 1081 3291 891 3722 
Q 769 4003 388 4659 
L 791 4659 
Q 1378 3875 1659 3084 
Q 1900 2403 1900 1659 
Q 1900 816 1576 28 
Q 1253 -759 791 -1347 
z
" transform="scale(0.015625)"/>
       <path id="ArialMT-20" transform="scale(0.015625)"/>
       <path id="ArialMT-48" d="M 513 0 
L 513 4581 
L 1119 4581 
L 1119 2700 
L 3500 2700 
L 3500 4581 
L 4106 4581 
L 4106 0 
L 3500 0 
L 3500 2159 
L 1119 2159 
L 1119 0 
L 513 0 
z
" transform="scale(0.015625)"/>
       <path id="ArialMT-79" d="M 397 -1278 
L 334 -750 
Q 519 -800 656 -800 
Q 844 -800 956 -737 
Q 1069 -675 1141 -563 
Q 1194 -478 1313 -144 
Q 1328 -97 1363 -6 
L 103 3319 
L 709 3319 
L 1400 1397 
Q 1534 1031 1641 628 
Q 1738 1016 1872 1384 
L 2581 3319 
L 3144 3319 
L 1881 -56 
Q 1678 -603 1566 -809 
Q 1416 -1088 1222 -1217 
Q 1028 -1347 759 -1347 
Q 597 -1347 397 -1278 
z
" transform="scale(0.015625)"/>
       <path id="ArialMT-70" d="M 422 -1272 
L 422 3319 
L 934 3319 
L 934 2888 
Q 1116 3141 1344 3267 
Q 1572 3394 1897 3394 
Q 2322 3394 2647 3175 
Q 2972 2956 3137 2557 
Q 3303 2159 3303 1684 
Q 3303 1175 3120 767 
Q 2938 359 2589 142 
Q 2241 -75 1856 -75 
Q 1575 -75 1351 44 
Q 1128 163 984 344 
L 984 -1272 
L 422 -1272 
z
M 931 1641 
Q 931 1000 1190 694 
Q 1450 388 1819 388 
Q 2194 388 2461 705 
Q 2728 1022 2728 1688 
Q 2728 2322 2467 2637 
Q 2206 2953 1844 2953 
Q 1484 2953 1207 2617 
Q 931 2281 931 1641 
z
" transform="scale(0.015625)"/>
       <path id="ArialMT-65" d="M 2694 1069 
L 3275 997 
Q 3138 488 2766 206 
Q 2394 -75 1816 -75 
Q 1088 -75 661 373 
Q 234 822 234 1631 
Q 234 2469 665 2931 
Q 1097 3394 1784 3394 
Q 2450 3394 2872 2941 
Q 3294 2488 3294 1666 
Q 3294 1616 3291 1516 
L 816 1516 
Q 847 969 1125 678 
Q 1403 388 1819 388 
Q 2128 388 2347 550 
Q 2566 713 2694 1069 
z
M 847 1978 
L 2700 1978 
Q 2663 2397 2488 2606 
Q 2219 2931 1791 2931 
Q 1403 2931 1139 2672 
Q 875 2413 847 1978 
z
" transform="scale(0.015625)"/>
       <path id="ArialMT-72" d="M 416 0 
L 416 3319 
L 922 3319 
L 922 2816 
Q 1116 3169 1280 3281 
Q 1444 3394 1641 3394 
Q 1925 3394 2219 3213 
L 2025 2691 
Q 1819 2813 1613 2813 
Q 1428 2813 1281 2702 
Q 1134 2591 1072 2394 
Q 978 2094 978 1738 
L 978 0 
L 416 0 
z
" transform="scale(0.015625)"/>
      </defs>
      <use xlink:href="#ArialMT-28"/>
      <use xlink:href="#ArialMT-25" transform="translate(33.300781 0)"/>
      <use xlink:href="#ArialMT-29" transform="translate(122.216797 0)"/>
      <use xlink:href="#ArialMT-20" transform="translate(155.517578 0)"/>
      <use xlink:href="#ArialMT-48" transform="translate(183.300781 0)"/>
      <use xlink:href="#ArialMT-79" transform="translate(255.517578 0)"/>
      <use xlink:href="#ArialMT-70" transform="translate(305.517578 0)"/>
      <use xlink:href="#ArialMT-65" transform="translate(361.132812 0)"/>
      <use xlink:href="#ArialMT-72" transform="translate(416.748047 0)"/>
      <use xlink:href="#ArialMT-50" transform="translate(450.048828 0)"/>
     </g>
    </g>
   </g>
   <g id="patch_3">
    <path d="M 54.504403 124.2 
L 66.286222 124.2 
L 66.286222 85.278029 
L 54.504403 85.278029 
z
" clip-path="url(#p1ab9f845cd)" style="fill: #4b4279; opacity: 0.8; stroke: #ffffff; stroke-linejoin: miter"/>
   </g>
   <g id="patch_4">
    <path d="M 128.140767 124.2 
L 139.922585 124.2 
L 139.922585 74.523552 
L 128.140767 74.523552 
z
" clip-path="url(#p1ab9f845cd)" style="fill: #4b4279; opacity: 0.8; stroke: #ffffff; stroke-linejoin: miter"/>
   </g>
   <g id="patch_5">
    <path d="M 201.777131 124.2 
L 213.558949 124.2 
L 213.558949 77.502729 
L 201.777131 77.502729 
z
" clip-path="url(#p1ab9f845cd)" style="fill: #4b4279; opacity: 0.8; stroke: #ffffff; stroke-linejoin: miter"/>
   </g>
   <g id="patch_6">
    <path d="M 66.286222 124.2 
L 78.06804 124.2 
L 78.06804 77.081474 
L 66.286222 77.081474 
z
" clip-path="url(#p1ab9f845cd)" style="fill: #3c6682; opacity: 0.8; stroke: #ffffff; stroke-linejoin: miter"/>
   </g>
   <g id="patch_7">
    <path d="M 139.922585 124.2 
L 151.704403 124.2 
L 151.704403 59.104759 
L 139.922585 59.104759 
z
" clip-path="url(#p1ab9f845cd)" style="fill: #3c6682; opacity: 0.8; stroke: #ffffff; stroke-linejoin: miter"/>
   </g>
   <g id="patch_8">
    <path d="M 213.558949 124.2 
L 225.340767 124.2 
L 225.340767 55.341813 
L 213.558949 55.341813 
z
" clip-path="url(#p1ab9f845cd)" style="fill: #3c6682; opacity: 0.8; stroke: #ffffff; stroke-linejoin: miter"/>
   </g>
   <g id="patch_9">
    <path d="M 78.06804 124.2 
L 89.849858 124.2 
L 89.849858 69.63717 
L 78.06804 69.63717 
z
" clip-path="url(#p1ab9f845cd)" style="fill: #2f837f; opacity: 0.8; stroke: #ffffff; stroke-linejoin: miter"/>
   </g>
   <g id="patch_10">
    <path d="M 151.704403 124.2 
L 163.486222 124.2 
L 163.486222 52.293158 
L 151.704403 52.293158 
z
" clip-path="url(#p1ab9f845cd)" style="fill: #2f837f; opacity: 0.8; stroke: #ffffff; stroke-linejoin: miter"/>
   </g>
   <g id="patch_11">
    <path d="M 225.340767 124.2 
L 237.122585 124.2 
L 237.122585 42.788094 
L 225.340767 42.788094 
z
" clip-path="url(#p1ab9f845cd)" style="fill: #2f837f; opacity: 0.8; stroke: #ffffff; stroke-linejoin: miter"/>
   </g>
   <g id="patch_12">
    <path d="M 89.849858 124.2 
L 101.631676 124.2 
L 101.631676 69.189377 
L 89.849858 69.189377 
z
" clip-path="url(#p1ab9f845cd)" style="fill: #45a778; opacity: 0.8; stroke: #ffffff; stroke-linejoin: miter"/>
   </g>
   <g id="patch_13">
    <path d="M 163.486222 124.2 
L 175.26804 124.2 
L 175.26804 53.242547 
L 163.486222 53.242547 
z
" clip-path="url(#p1ab9f845cd)" style="fill: #45a778; opacity: 0.8; stroke: #ffffff; stroke-linejoin: miter"/>
   </g>
   <g id="patch_14">
    <path d="M 237.122585 124.2 
L 248.904403 124.2 
L 248.904403 42.631794 
L 237.122585 42.631794 
z
" clip-path="url(#p1ab9f845cd)" style="fill: #45a778; opacity: 0.8; stroke: #ffffff; stroke-linejoin: miter"/>
   </g>
   <g id="patch_15">
    <path d="M 101.631676 124.2 
L 113.413494 124.2 
L 113.413494 69.855736 
L 101.631676 69.855736 
z
" clip-path="url(#p1ab9f845cd)" style="fill: #8fc456; opacity: 0.8; stroke: #ffffff; stroke-linejoin: miter"/>
   </g>
   <g id="patch_16">
    <path d="M 175.26804 124.2 
L 187.049858 124.2 
L 187.049858 54.446031 
L 175.26804 54.446031 
z
" clip-path="url(#p1ab9f845cd)" style="fill: #8fc456; opacity: 0.8; stroke: #ffffff; stroke-linejoin: miter"/>
   </g>
   <g id="patch_17">
    <path d="M 248.904403 124.2 
L 260.686222 124.2 
L 260.686222 43.568558 
L 248.904403 43.568558 
z
" clip-path="url(#p1ab9f845cd)" style="fill: #8fc456; opacity: 0.8; stroke: #ffffff; stroke-linejoin: miter"/>
   </g>
   <g id="line2d_9">
    <path d="M 60.395313 89.480296 
L 60.395313 80.948535 
" clip-path="url(#p1ab9f845cd)" style="fill: none; stroke: #424242; stroke-width: 2.7; stroke-linecap: round"/>
   </g>
   <g id="line2d_10">
    <path d="M 134.031676 80.044937 
L 134.031676 68.444633 
" clip-path="url(#p1ab9f845cd)" style="fill: none; stroke: #424242; stroke-width: 2.7; stroke-linecap: round"/>
   </g>
   <g id="line2d_11">
    <path d="M 207.66804 82.80503 
L 207.66804 71.251803 
" clip-path="url(#p1ab9f845cd)" style="fill: none; stroke: #424242; stroke-width: 2.7; stroke-linecap: round"/>
   </g>
   <g id="line2d_12">
    <path d="M 72.177131 83.08476 
L 72.177131 72.076783 
" clip-path="url(#p1ab9f845cd)" style="fill: none; stroke: #424242; stroke-width: 2.7; stroke-linecap: round"/>
   </g>
   <g id="line2d_13">
    <path d="M 145.813494 65.084396 
L 145.813494 53.166274 
" clip-path="url(#p1ab9f845cd)" style="fill: none; stroke: #424242; stroke-width: 2.7; stroke-linecap: round"/>
   </g>
   <g id="line2d_14">
    <path d="M 219.449858 59.021265 
L 219.449858 51.231256 
" clip-path="url(#p1ab9f845cd)" style="fill: none; stroke: #424242; stroke-width: 2.7; stroke-linecap: round"/>
   </g>
   <g id="line2d_15">
    <path d="M 83.958949 81.003314 
L 83.958949 59.193975 
" clip-path="url(#p1ab9f845cd)" style="fill: none; stroke: #424242; stroke-width: 2.7; stroke-linecap: round"/>
   </g>
   <g id="line2d_16">
    <path d="M 157.595313 59.771716 
L 157.595313 44.413926 
" clip-path="url(#p1ab9f845cd)" style="fill: none; stroke: #424242; stroke-width: 2.7; stroke-linecap: round"/>
   </g>
   <g id="line2d_17">
    <path d="M 231.231676 49.260747 
L 231.231676 36.320774 
" clip-path="url(#p1ab9f845cd)" style="fill: none; stroke: #424242; stroke-width: 2.7; stroke-linecap: round"/>
   </g>
   <g id="line2d_18">
    <path d="M 95.740767 79.219464 
L 95.740767 60.904743 
" clip-path="url(#p1ab9f845cd)" style="fill: none; stroke: #424242; stroke-width: 2.7; stroke-linecap: round"/>
   </g>
   <g id="line2d_19">
    <path d="M 169.377131 60.854025 
L 169.377131 45.024689 
" clip-path="url(#p1ab9f845cd)" style="fill: none; stroke: #424242; stroke-width: 2.7; stroke-linecap: round"/>
   </g>
   <g id="line2d_20">
    <path d="M 243.013494 49.395952 
L 243.013494 35.867241 
" clip-path="url(#p1ab9f845cd)" style="fill: none; stroke: #424242; stroke-width: 2.7; stroke-linecap: round"/>
   </g>
   <g id="line2d_21">
    <path d="M 107.522585 78.297845 
L 107.522585 61.679291 
" clip-path="url(#p1ab9f845cd)" style="fill: none; stroke: #424242; stroke-width: 2.7; stroke-linecap: round"/>
   </g>
   <g id="line2d_22">
    <path d="M 181.158949 61.541393 
L 181.158949 47.911045 
" clip-path="url(#p1ab9f845cd)" style="fill: none; stroke: #424242; stroke-width: 2.7; stroke-linecap: round"/>
   </g>
   <g id="line2d_23">
    <path d="M 254.795313 50.177982 
L 254.795313 36.781481 
" clip-path="url(#p1ab9f845cd)" style="fill: none; stroke: #424242; stroke-width: 2.7; stroke-linecap: round"/>
   </g>
   <g id="line2d_24">
    <path d="M 60.395313 50.048508 
L 60.395313 48.059049 
L 83.958949 48.059049 
L 83.958949 50.048508 
" clip-path="url(#p1ab9f845cd)" style="fill: none; stroke: #333333; stroke-width: 1.5; stroke-linecap: round"/>
   </g>
   <g id="line2d_25">
    <path d="M 134.031676 32.819432 
L 134.031676 30.829973 
L 157.595313 30.829973 
L 157.595313 32.819432 
" clip-path="url(#p1ab9f845cd)" style="fill: none; stroke: #333333; stroke-width: 1.5; stroke-linecap: round"/>
   </g>
   <g id="line2d_26">
    <path d="M 207.66804 23.495481 
L 207.66804 21.506022 
L 231.231676 21.506022 
L 231.231676 23.495481 
" clip-path="url(#p1ab9f845cd)" style="fill: none; stroke: #333333; stroke-width: 1.5; stroke-linecap: round"/>
   </g>
   <g id="patch_18">
    <path d="M 44.195313 124.2 
L 44.195313 7.2 
" style="fill: none; stroke: #262626; stroke-width: 1.25; stroke-linejoin: miter; stroke-linecap: square"/>
   </g>
   <g id="patch_19">
    <path d="M 270.995313 124.2 
L 270.995313 7.2 
" style="fill: none; stroke: #262626; stroke-width: 1.25; stroke-linejoin: miter; stroke-linecap: square"/>
   </g>
   <g id="patch_20">
    <path d="M 44.195313 124.2 
L 270.995313 124.2 
" style="fill: none; stroke: #262626; stroke-width: 1.25; stroke-linejoin: miter; stroke-linecap: square"/>
   </g>
   <g id="patch_21">
    <path d="M 44.195313 7.2 
L 270.995313 7.2 
" style="fill: none; stroke: #262626; stroke-width: 1.25; stroke-linejoin: miter; stroke-linecap: square"/>
   </g>
   <g id="PathCollection_1">
    <defs>
     <path id="C0_0_97c9f977ec" d="M 0 2.5 
C 0.663008 2.5 1.29895 2.236584 1.767767 1.767767 
C 2.236584 1.29895 2.5 0.663008 2.5 -0 
C 2.5 -0.663008 2.236584 -1.29895 1.767767 -1.767767 
C 1.29895 -2.236584 0.663008 -2.5 0 -2.5 
C -0.663008 -2.5 -1.29895 -2.236584 -1.767767 -1.767767 
C -2.236584 -1.29895 -2.5 -0.663008 -2.5 0 
C -2.5 0.663008 -2.236584 1.29895 -1.767767 1.767767 
C -1.29895 2.236584 -0.663008 2.5 0 2.5 
z
"/>
    </defs>
    <g clip-path="url(#p1ab9f845cd)">
     <use xlink:href="#C0_0_97c9f977ec" x="59.586439" y="90.168919" style="fill: #ffffff; stroke: #000000; stroke-width: 0.4"/>
    </g>
    <g clip-path="url(#p1ab9f845cd)">
     <use xlink:href="#C0_0_97c9f977ec" x="59.127888" y="94.936691" style="fill: #ffffff; stroke: #000000; stroke-width: 0.4"/>
    </g>
    <g clip-path="url(#p1ab9f845cd)">
     <use xlink:href="#C0_0_97c9f977ec" x="60.319804" y="88.98416" style="fill: #ffffff; stroke: #000000; stroke-width: 0.4"/>
    </g>
   </g>
   <g id="PathCollection_2">
    <defs>
     <path id="C1_0_95c8acc3d2" d="M 0 2.5 
C 0.663008 2.5 1.29895 2.236584 1.767767 1.767767 
C 2.236584 1.29895 2.5 0.663008 2.5 -0 
C 2.5 -0.663008 2.236584 -1.29895 1.767767 -1.767767 
C 1.29895 -2.236584 0.663008 -2.5 0 -2.5 
C -0.663008 -2.5 -1.29895 -2.236584 -1.767767 -1.767767 
C -2.236584 -1.29895 -2.5 -0.663008 -2.5 0 
C -2.5 0.663008 -2.236584 1.29895 -1.767767 1.767767 
C -1.29895 2.236584 -0.663008 2.5 0 2.5 
z
"/>
    </defs>
    <g clip-path="url(#p1ab9f845cd)">
     <use xlink:href="#C1_0_95c8acc3d2" x="72.732008" y="80.016329" style="fill: #ffffff; stroke: #000000; stroke-width: 0.4"/>
    </g>
    <g clip-path="url(#p1ab9f845cd)">
     <use xlink:href="#C1_0_95c8acc3d2" x="71.119747" y="90.507874" style="fill: #ffffff; stroke: #000000; stroke-width: 0.4"/>
    </g>
    <g clip-path="url(#p1ab9f845cd)">
     <use xlink:href="#C1_0_95c8acc3d2" x="72.418052" y="92.812615" style="fill: #ffffff; stroke: #000000; stroke-width: 0.4"/>
    </g>
   </g>
   <g id="PathCollection_3">
    <defs>
     <path id="C2_0_a31f900fb5" d="M 0 2.5 
C 0.663008 2.5 1.29895 2.236584 1.767767 1.767767 
C 2.236584 1.29895 2.5 0.663008 2.5 -0 
C 2.5 -0.663008 2.236584 -1.29895 1.767767 -1.767767 
C 1.29895 -2.236584 0.663008 -2.5 0 -2.5 
C -0.663008 -2.5 -1.29895 -2.236584 -1.767767 -1.767767 
C -2.236584 -1.29895 -2.5 -0.663008 -2.5 0 
C -2.5 0.663008 -2.236584 1.29895 -1.767767 1.767767 
C -1.29895 2.236584 -0.663008 2.5 0 2.5 
z
"/>
    </defs>
    <g clip-path="url(#p1ab9f845cd)">
     <use xlink:href="#C2_0_a31f900fb5" x="82.891881" y="90.94566" style="fill: #ffffff; stroke: #000000; stroke-width: 0.4"/>
    </g>
    <g clip-path="url(#p1ab9f845cd)">
     <use xlink:href="#C2_0_a31f900fb5" x="84.240786" y="91.100969" style="fill: #ffffff; stroke: #000000; stroke-width: 0.4"/>
    </g>
    <g clip-path="url(#p1ab9f845cd)">
     <use xlink:href="#C2_0_a31f900fb5" x="84.554085" y="94.228938" style="fill: #ffffff; stroke: #000000; stroke-width: 0.4"/>
    </g>
   </g>
   <g id="PathCollection_4">
    <defs>
     <path id="C3_0_aa89a9a39c" d="M 0 2.5 
C 0.663008 2.5 1.29895 2.236584 1.767767 1.767767 
C 2.236584 1.29895 2.5 0.663008 2.5 -0 
C 2.5 -0.663008 2.236584 -1.29895 1.767767 -1.767767 
C 1.29895 -2.236584 0.663008 -2.5 0 -2.5 
C -0.663008 -2.5 -1.29895 -2.236584 -1.767767 -1.767767 
C -2.236584 -1.29895 -2.5 -0.663008 -2.5 0 
C -2.5 0.663008 -2.236584 1.29895 -1.767767 1.767767 
C -1.29895 2.236584 -0.663008 2.5 0 2.5 
z
"/>
    </defs>
    <g clip-path="url(#p1ab9f845cd)">
     <use xlink:href="#C3_0_aa89a9a39c" x="96.41652" y="88.680509" style="fill: #ffffff; stroke: #000000; stroke-width: 0.4"/>
    </g>
    <g clip-path="url(#p1ab9f845cd)">
     <use xlink:href="#C3_0_aa89a9a39c" x="96.293342" y="87.175099" style="fill: #ffffff; stroke: #000000; stroke-width: 0.4"/>
    </g>
    <g clip-path="url(#p1ab9f845cd)">
     <use xlink:href="#C3_0_aa89a9a39c" x="94.416649" y="83.180863" style="fill: #ffffff; stroke: #000000; stroke-width: 0.4"/>
    </g>
   </g>
   <g id="PathCollection_5">
    <defs>
     <path id="C4_0_293e5f989a" d="M 0 2.5 
C 0.663008 2.5 1.29895 2.236584 1.767767 1.767767 
C 2.236584 1.29895 2.5 0.663008 2.5 -0 
C 2.5 -0.663008 2.236584 -1.29895 1.767767 -1.767767 
C 1.29895 -2.236584 0.663008 -2.5 0 -2.5 
C -0.663008 -2.5 -1.29895 -2.236584 -1.767767 -1.767767 
C -2.236584 -1.29895 -2.5 -0.663008 -2.5 0 
C -2.5 0.663008 -2.236584 1.29895 -1.767767 1.767767 
C -1.29895 2.236584 -0.663008 2.5 0 2.5 
z
"/>
    </defs>
    <g clip-path="url(#p1ab9f845cd)">
     <use xlink:href="#C4_0_293e5f989a" x="108.355599" y="87.814284" style="fill: #ffffff; stroke: #000000; stroke-width: 0.4"/>
    </g>
    <g clip-path="url(#p1ab9f845cd)">
     <use xlink:href="#C4_0_293e5f989a" x="107.385063" y="88.953257" style="fill: #ffffff; stroke: #000000; stroke-width: 0.4"/>
    </g>
    <g clip-path="url(#p1ab9f845cd)">
     <use xlink:href="#C4_0_293e5f989a" x="108.788864" y="85.157981" style="fill: #ffffff; stroke: #000000; stroke-width: 0.4"/>
    </g>
   </g>
   <g id="PathCollection_6">
    <defs>
     <path id="C5_0_8298f7f83b" d="M 0 2.5 
C 0.663008 2.5 1.29895 2.236584 1.767767 1.767767 
C 2.236584 1.29895 2.5 0.663008 2.5 -0 
C 2.5 -0.663008 2.236584 -1.29895 1.767767 -1.767767 
C 1.29895 -2.236584 0.663008 -2.5 0 -2.5 
C -0.663008 -2.5 -1.29895 -2.236584 -1.767767 -1.767767 
C -2.236584 -1.29895 -2.5 -0.663008 -2.5 0 
C -2.5 0.663008 -2.236584 1.29895 -1.767767 1.767767 
C -1.29895 2.236584 -0.663008 2.5 0 2.5 
z
"/>
    </defs>
    <g clip-path="url(#p1ab9f845cd)">
     <use xlink:href="#C5_0_8298f7f83b" x="134.52767" y="83.372414" style="fill: #ffffff; stroke: #000000; stroke-width: 0.4"/>
    </g>
    <g clip-path="url(#p1ab9f845cd)">
     <use xlink:href="#C5_0_8298f7f83b" x="133.532953" y="82.478123" style="fill: #ffffff; stroke: #000000; stroke-width: 0.4"/>
    </g>
    <g clip-path="url(#p1ab9f845cd)">
     <use xlink:href="#C5_0_8298f7f83b" x="134.090727" y="74.606947" style="fill: #ffffff; stroke: #000000; stroke-width: 0.4"/>
    </g>
   </g>
   <g id="PathCollection_7">
    <defs>
     <path id="C6_0_992e261d65" d="M 0 2.5 
C 0.663008 2.5 1.29895 2.236584 1.767767 1.767767 
C 2.236584 1.29895 2.5 0.663008 2.5 -0 
C 2.5 -0.663008 2.236584 -1.29895 1.767767 -1.767767 
C 1.29895 -2.236584 0.663008 -2.5 0 -2.5 
C -0.663008 -2.5 -1.29895 -2.236584 -1.767767 -1.767767 
C -2.236584 -1.29895 -2.5 -0.663008 -2.5 0 
C -2.5 0.663008 -2.236584 1.29895 -1.767767 1.767767 
C -1.29895 2.236584 -0.663008 2.5 0 2.5 
z
"/>
    </defs>
    <g clip-path="url(#p1ab9f845cd)">
     <use xlink:href="#C6_0_992e261d65" x="145.074744" y="65.288994" style="fill: #ffffff; stroke: #000000; stroke-width: 0.4"/>
    </g>
    <g clip-path="url(#p1ab9f845cd)">
     <use xlink:href="#C6_0_992e261d65" x="146.102224" y="69.92302" style="fill: #ffffff; stroke: #000000; stroke-width: 0.4"/>
    </g>
    <g clip-path="url(#p1ab9f845cd)">
     <use xlink:href="#C6_0_992e261d65" x="144.765852" y="73.881762" style="fill: #ffffff; stroke: #000000; stroke-width: 0.4"/>
    </g>
   </g>
   <g id="PathCollection_8">
    <defs>
     <path id="C7_0_fbcb3e0fc4" d="M 0 2.5 
C 0.663008 2.5 1.29895 2.236584 1.767767 1.767767 
C 2.236584 1.29895 2.5 0.663008 2.5 -0 
C 2.5 -0.663008 2.236584 -1.29895 1.767767 -1.767767 
C 1.29895 -2.236584 0.663008 -2.5 0 -2.5 
C -0.663008 -2.5 -1.29895 -2.236584 -1.767767 -1.767767 
C -2.236584 -1.29895 -2.5 -0.663008 -2.5 0 
C -2.5 0.663008 -2.236584 1.29895 -1.767767 1.767767 
C -1.29895 2.236584 -0.663008 2.5 0 2.5 
z
"/>
    </defs>
    <g clip-path="url(#p1ab9f845cd)">
     <use xlink:href="#C7_0_fbcb3e0fc4" x="156.489898" y="65.00598" style="fill: #ffffff; stroke: #000000; stroke-width: 0.4"/>
    </g>
    <g clip-path="url(#p1ab9f845cd)">
     <use xlink:href="#C7_0_fbcb3e0fc4" x="157.92221" y="67.524757" style="fill: #ffffff; stroke: #000000; stroke-width: 0.4"/>
    </g>
    <g clip-path="url(#p1ab9f845cd)">
     <use xlink:href="#C7_0_fbcb3e0fc4" x="156.824988" y="70.499261" style="fill: #ffffff; stroke: #000000; stroke-width: 0.4"/>
    </g>
   </g>
   <g id="PathCollection_9">
    <defs>
     <path id="C8_0_ecee8e6902" d="M 0 2.5 
C 0.663008 2.5 1.29895 2.236584 1.767767 1.767767 
C 2.236584 1.29895 2.5 0.663008 2.5 -0 
C 2.5 -0.663008 2.236584 -1.29895 1.767767 -1.767767 
C 1.29895 -2.236584 0.663008 -2.5 0 -2.5 
C -0.663008 -2.5 -1.29895 -2.236584 -1.767767 -1.767767 
C -2.236584 -1.29895 -2.5 -0.663008 -2.5 0 
C -2.5 0.663008 -2.236584 1.29895 -1.767767 1.767767 
C -1.29895 2.236584 -0.663008 2.5 0 2.5 
z
"/>
    </defs>
    <g clip-path="url(#p1ab9f845cd)">
     <use xlink:href="#C8_0_ecee8e6902" x="168.763507" y="69.266493" style="fill: #ffffff; stroke: #000000; stroke-width: 0.4"/>
    </g>
    <g clip-path="url(#p1ab9f845cd)">
     <use xlink:href="#C8_0_ecee8e6902" x="170.044316" y="63.513523" style="fill: #ffffff; stroke: #000000; stroke-width: 0.4"/>
    </g>
    <g clip-path="url(#p1ab9f845cd)">
     <use xlink:href="#C8_0_ecee8e6902" x="169.431547" y="67.367186" style="fill: #ffffff; stroke: #000000; stroke-width: 0.4"/>
    </g>
   </g>
   <g id="PathCollection_10">
    <defs>
     <path id="C9_0_b407b43d8c" d="M 0 2.5 
C 0.663008 2.5 1.29895 2.236584 1.767767 1.767767 
C 2.236584 1.29895 2.5 0.663008 2.5 -0 
C 2.5 -0.663008 2.236584 -1.29895 1.767767 -1.767767 
C 1.29895 -2.236584 0.663008 -2.5 0 -2.5 
C -0.663008 -2.5 -1.29895 -2.236584 -1.767767 -1.767767 
C -2.236584 -1.29895 -2.5 -0.663008 -2.5 0 
C -2.5 0.663008 -2.236584 1.29895 -1.767767 1.767767 
C -1.29895 2.236584 -0.663008 2.5 0 2.5 
z
"/>
    </defs>
    <g clip-path="url(#p1ab9f845cd)">
     <use xlink:href="#C9_0_b407b43d8c" x="181.616332" y="68.923023" style="fill: #ffffff; stroke: #000000; stroke-width: 0.4"/>
    </g>
    <g clip-path="url(#p1ab9f845cd)">
     <use xlink:href="#C9_0_b407b43d8c" x="180.420899" y="66.878961" style="fill: #ffffff; stroke: #000000; stroke-width: 0.4"/>
    </g>
    <g clip-path="url(#p1ab9f845cd)">
     <use xlink:href="#C9_0_b407b43d8c" x="181.512075" y="67.819035" style="fill: #ffffff; stroke: #000000; stroke-width: 0.4"/>
    </g>
   </g>
   <g id="PathCollection_11">
    <defs>
     <path id="Ca_0_592541734d" d="M 0 2.5 
C 0.663008 2.5 1.29895 2.236584 1.767767 1.767767 
C 2.236584 1.29895 2.5 0.663008 2.5 -0 
C 2.5 -0.663008 2.236584 -1.29895 1.767767 -1.767767 
C 1.29895 -2.236584 0.663008 -2.5 0 -2.5 
C -0.663008 -2.5 -1.29895 -2.236584 -1.767767 -1.767767 
C -2.236584 -1.29895 -2.5 -0.663008 -2.5 0 
C -2.5 0.663008 -2.236584 1.29895 -1.767767 1.767767 
C -1.29895 2.236584 -0.663008 2.5 0 2.5 
z
"/>
    </defs>
    <g clip-path="url(#p1ab9f845cd)">
     <use xlink:href="#Ca_0_592541734d" x="208.725595" y="82.778764" style="fill: #ffffff; stroke: #000000; stroke-width: 0.4"/>
    </g>
    <g clip-path="url(#p1ab9f845cd)">
     <use xlink:href="#Ca_0_592541734d" x="208.460298" y="83.093953" style="fill: #ffffff; stroke: #000000; stroke-width: 0.4"/>
    </g>
    <g clip-path="url(#p1ab9f845cd)">
     <use xlink:href="#Ca_0_592541734d" x="207.23143" y="78.459682" style="fill: #ffffff; stroke: #000000; stroke-width: 0.4"/>
    </g>
   </g>
   <g id="PathCollection_12">
    <defs>
     <path id="Cb_0_4c49aec41a" d="M 0 2.5 
C 0.663008 2.5 1.29895 2.236584 1.767767 1.767767 
C 2.236584 1.29895 2.5 0.663008 2.5 -0 
C 2.5 -0.663008 2.236584 -1.29895 1.767767 -1.767767 
C 1.29895 -2.236584 0.663008 -2.5 0 -2.5 
C -0.663008 -2.5 -1.29895 -2.236584 -1.767767 -1.767767 
C -2.236584 -1.29895 -2.5 -0.663008 -2.5 0 
C -2.5 0.663008 -2.236584 1.29895 -1.767767 1.767767 
C -1.29895 2.236584 -0.663008 2.5 0 2.5 
z
"/>
    </defs>
    <g clip-path="url(#p1ab9f845cd)">
     <use xlink:href="#Cb_0_4c49aec41a" x="220.224257" y="54.198552" style="fill: #ffffff; stroke: #000000; stroke-width: 0.4"/>
    </g>
    <g clip-path="url(#p1ab9f845cd)">
     <use xlink:href="#Cb_0_4c49aec41a" x="219.515424" y="63.187738" style="fill: #ffffff; stroke: #000000; stroke-width: 0.4"/>
    </g>
    <g clip-path="url(#p1ab9f845cd)">
     <use xlink:href="#Cb_0_4c49aec41a" x="219.196937" y="52.198205" style="fill: #ffffff; stroke: #000000; stroke-width: 0.4"/>
    </g>
   </g>
   <g id="PathCollection_13">
    <defs>
     <path id="Cc_0_2578993aaf" d="M 0 2.5 
C 0.663008 2.5 1.29895 2.236584 1.767767 1.767767 
C 2.236584 1.29895 2.5 0.663008 2.5 -0 
C 2.5 -0.663008 2.236584 -1.29895 1.767767 -1.767767 
C 1.29895 -2.236584 0.663008 -2.5 0 -2.5 
C -0.663008 -2.5 -1.29895 -2.236584 -1.767767 -1.767767 
C -2.236584 -1.29895 -2.5 -0.663008 -2.5 0 
C -2.5 0.663008 -2.236584 1.29895 -1.767767 1.767767 
C -1.29895 2.236584 -0.663008 2.5 0 2.5 
z
"/>
    </defs>
    <g clip-path="url(#p1ab9f845cd)">
     <use xlink:href="#Cc_0_2578993aaf" x="231.142014" y="54.307789" style="fill: #ffffff; stroke: #000000; stroke-width: 0.4"/>
    </g>
    <g clip-path="url(#p1ab9f845cd)">
     <use xlink:href="#Cc_0_2578993aaf" x="230.318142" y="55.453307" style="fill: #ffffff; stroke: #000000; stroke-width: 0.4"/>
    </g>
    <g clip-path="url(#p1ab9f845cd)">
     <use xlink:href="#Cc_0_2578993aaf" x="229.977674" y="53.742145" style="fill: #ffffff; stroke: #000000; stroke-width: 0.4"/>
    </g>
   </g>
   <g id="PathCollection_14">
    <defs>
     <path id="Cd_0_ef9759af96" d="M 0 2.5 
C 0.663008 2.5 1.29895 2.236584 1.767767 1.767767 
C 2.236584 1.29895 2.5 0.663008 2.5 -0 
C 2.5 -0.663008 2.236584 -1.29895 1.767767 -1.767767 
C 1.29895 -2.236584 0.663008 -2.5 0 -2.5 
C -0.663008 -2.5 -1.29895 -2.236584 -1.767767 -1.767767 
C -2.236584 -1.29895 -2.5 -0.663008 -2.5 0 
C -2.5 0.663008 -2.236584 1.29895 -1.767767 1.767767 
C -1.29895 2.236584 -0.663008 2.5 0 2.5 
z
"/>
    </defs>
    <g clip-path="url(#p1ab9f845cd)">
     <use xlink:href="#Cd_0_ef9759af96" x="243.133073" y="53.776171" style="fill: #ffffff; stroke: #000000; stroke-width: 0.4"/>
    </g>
    <g clip-path="url(#p1ab9f845cd)">
     <use xlink:href="#Cd_0_ef9759af96" x="244.438796" y="52.49606" style="fill: #ffffff; stroke: #000000; stroke-width: 0.4"/>
    </g>
    <g clip-path="url(#p1ab9f845cd)">
     <use xlink:href="#Cd_0_ef9759af96" x="243.314613" y="52.893518" style="fill: #ffffff; stroke: #000000; stroke-width: 0.4"/>
    </g>
   </g>
   <g id="PathCollection_15">
    <defs>
     <path id="Ce_0_5e9269331b" d="M 0 2.5 
C 0.663008 2.5 1.29895 2.236584 1.767767 1.767767 
C 2.236584 1.29895 2.5 0.663008 2.5 -0 
C 2.5 -0.663008 2.236584 -1.29895 1.767767 -1.767767 
C 1.29895 -2.236584 0.663008 -2.5 0 -2.5 
C -0.663008 -2.5 -1.29895 -2.236584 -1.767767 -1.767767 
C -2.236584 -1.29895 -2.5 -0.663008 -2.5 0 
C -2.5 0.663008 -2.236584 1.29895 -1.767767 1.767767 
C -1.29895 2.236584 -0.663008 2.5 0 2.5 
z
"/>
    </defs>
    <g clip-path="url(#p1ab9f845cd)">
     <use xlink:href="#Ce_0_5e9269331b" x="255.09699" y="56.510185" style="fill: #ffffff; stroke: #000000; stroke-width: 0.4"/>
    </g>
    <g clip-path="url(#p1ab9f845cd)">
     <use xlink:href="#Ce_0_5e9269331b" x="255.699344" y="51.517545" style="fill: #ffffff; stroke: #000000; stroke-width: 0.4"/>
    </g>
   </g>
   <g id="PathCollection_16">
    <path d="M 61.525887 80.97735 
L 59.025887 85.97735 
L 64.025887 85.97735 
z
" clip-path="url(#p1ab9f845cd)" style="fill: #ffffff; stroke: #000000; stroke-width: 0.4"/>
    <path d="M 59.099457 82.633739 
L 56.599457 87.633739 
L 61.599457 87.633739 
z
" clip-path="url(#p1ab9f845cd)" style="fill: #ffffff; stroke: #000000; stroke-width: 0.4"/>
    <path d="M 59.777207 88.793683 
L 57.277207 93.793683 
L 62.277207 93.793683 
z
" clip-path="url(#p1ab9f845cd)" style="fill: #ffffff; stroke: #000000; stroke-width: 0.4"/>
   </g>
   <g id="PathCollection_17">
    <path d="M 73.505169 65.38904 
L 71.005169 70.38904 
L 76.005169 70.38904 
z
" clip-path="url(#p1ab9f845cd)" style="fill: #ffffff; stroke: #000000; stroke-width: 0.4"/>
    <path d="M 73.578793 68.217482 
L 71.078793 73.217482 
L 76.078793 73.217482 
z
" clip-path="url(#p1ab9f845cd)" style="fill: #ffffff; stroke: #000000; stroke-width: 0.4"/>
    <path d="M 72.537715 67.461746 
L 70.037715 72.461746 
L 75.037715 72.461746 
z
" clip-path="url(#p1ab9f845cd)" style="fill: #ffffff; stroke: #000000; stroke-width: 0.4"/>
   </g>
   <g id="PathCollection_18">
    <path d="M 83.800446 57.422381 
L 81.300446 62.422381 
L 86.300446 62.422381 
z
" clip-path="url(#p1ab9f845cd)" style="fill: #ffffff; stroke: #000000; stroke-width: 0.4"/>
    <path d="M 84.009074 58.641683 
L 81.509074 63.641683 
L 86.509074 63.641683 
z
" clip-path="url(#p1ab9f845cd)" style="fill: #ffffff; stroke: #000000; stroke-width: 0.4"/>
    <path d="M 83.580654 56.971711 
L 81.080654 61.971711 
L 86.080654 61.971711 
z
" clip-path="url(#p1ab9f845cd)" style="fill: #ffffff; stroke: #000000; stroke-width: 0.4"/>
   </g>
   <g id="PathCollection_19">
    <path d="M 96.941023 58.43511 
L 94.441023 63.43511 
L 99.441023 63.43511 
z
" clip-path="url(#p1ab9f845cd)" style="fill: #ffffff; stroke: #000000; stroke-width: 0.4"/>
    <path d="M 96.795391 59.696451 
L 94.295391 64.696451 
L 99.295391 64.696451 
z
" clip-path="url(#p1ab9f845cd)" style="fill: #ffffff; stroke: #000000; stroke-width: 0.4"/>
   </g>
   <g id="PathCollection_20">
    <path d="M 107.737734 61.520669 
L 105.237734 66.520669 
L 110.237734 66.520669 
z
" clip-path="url(#p1ab9f845cd)" style="fill: #ffffff; stroke: #000000; stroke-width: 0.4"/>
    <path d="M 108.91767 61.067457 
L 106.41767 66.067457 
L 111.41767 66.067457 
z
" clip-path="url(#p1ab9f845cd)" style="fill: #ffffff; stroke: #000000; stroke-width: 0.4"/>
    <path d="M 106.698069 60.757464 
L 104.198069 65.757464 
L 109.198069 65.757464 
z
" clip-path="url(#p1ab9f845cd)" style="fill: #ffffff; stroke: #000000; stroke-width: 0.4"/>
   </g>
   <g id="PathCollection_21">
    <path d="M 134.303465 77.618671 
L 131.803465 82.618671 
L 136.803465 82.618671 
z
" clip-path="url(#p1ab9f845cd)" style="fill: #ffffff; stroke: #000000; stroke-width: 0.4"/>
    <path d="M 134.377436 76.393436 
L 131.877436 81.393436 
L 136.877436 81.393436 
z
" clip-path="url(#p1ab9f845cd)" style="fill: #ffffff; stroke: #000000; stroke-width: 0.4"/>
    <path d="M 132.81016 81.955068 
L 130.31016 86.955068 
L 135.31016 86.955068 
z
" clip-path="url(#p1ab9f845cd)" style="fill: #ffffff; stroke: #000000; stroke-width: 0.4"/>
   </g>
   <g id="PathCollection_22">
    <path d="M 146.606341 56.497692 
L 144.106341 61.497692 
L 149.106341 61.497692 
z
" clip-path="url(#p1ab9f845cd)" style="fill: #ffffff; stroke: #000000; stroke-width: 0.4"/>
    <path d="M 146.435088 58.4649 
L 143.935088 63.4649 
L 148.935088 63.4649 
z
" clip-path="url(#p1ab9f845cd)" style="fill: #ffffff; stroke: #000000; stroke-width: 0.4"/>
    <path d="M 145.972717 56.279636 
L 143.472717 61.279636 
L 148.472717 61.279636 
z
" clip-path="url(#p1ab9f845cd)" style="fill: #ffffff; stroke: #000000; stroke-width: 0.4"/>
   </g>
   <g id="PathCollection_23">
    <path d="M 157.853186 48.824892 
L 155.353186 53.824892 
L 160.353186 53.824892 
z
" clip-path="url(#p1ab9f845cd)" style="fill: #ffffff; stroke: #000000; stroke-width: 0.4"/>
    <path d="M 156.974455 47.330243 
L 154.474455 52.330243 
L 159.474455 52.330243 
z
" clip-path="url(#p1ab9f845cd)" style="fill: #ffffff; stroke: #000000; stroke-width: 0.4"/>
    <path d="M 156.242625 42.318237 
L 153.742625 47.318237 
L 158.742625 47.318237 
z
" clip-path="url(#p1ab9f845cd)" style="fill: #ffffff; stroke: #000000; stroke-width: 0.4"/>
   </g>
   <g id="PathCollection_24">
    <path d="M 169.693072 49.230653 
L 167.193072 54.230653 
L 172.193072 54.230653 
z
" clip-path="url(#p1ab9f845cd)" style="fill: #ffffff; stroke: #000000; stroke-width: 0.4"/>
    <path d="M 168.477366 49.838653 
L 165.977366 54.838653 
L 170.977366 54.838653 
z
" clip-path="url(#p1ab9f845cd)" style="fill: #ffffff; stroke: #000000; stroke-width: 0.4"/>
   </g>
   <g id="PathCollection_25">
    <path d="M 179.687698 51.322684 
L 177.187698 56.322684 
L 182.187698 56.322684 
z
" clip-path="url(#p1ab9f845cd)" style="fill: #ffffff; stroke: #000000; stroke-width: 0.4"/>
    <path d="M 182.557752 49.768155 
L 180.057752 54.768155 
L 185.057752 54.768155 
z
" clip-path="url(#p1ab9f845cd)" style="fill: #ffffff; stroke: #000000; stroke-width: 0.4"/>
    <path d="M 181.06605 48.529637 
L 178.56605 53.529637 
L 183.56605 53.529637 
z
" clip-path="url(#p1ab9f845cd)" style="fill: #ffffff; stroke: #000000; stroke-width: 0.4"/>
   </g>
   <g id="PathCollection_26">
    <path d="M 206.488881 80.899937 
L 203.988881 85.899937 
L 208.988881 85.899937 
z
" clip-path="url(#p1ab9f845cd)" style="fill: #ffffff; stroke: #000000; stroke-width: 0.4"/>
    <path d="M 207.883942 81.462907 
L 205.383942 86.462907 
L 210.383942 86.462907 
z
" clip-path="url(#p1ab9f845cd)" style="fill: #ffffff; stroke: #000000; stroke-width: 0.4"/>
    <path d="M 206.90169 86.310143 
L 204.40169 91.310143 
L 209.40169 91.310143 
z
" clip-path="url(#p1ab9f845cd)" style="fill: #ffffff; stroke: #000000; stroke-width: 0.4"/>
   </g>
   <g id="PathCollection_27">
    <path d="M 220.519179 57.424502 
L 218.019179 62.424502 
L 223.019179 62.424502 
z
" clip-path="url(#p1ab9f845cd)" style="fill: #ffffff; stroke: #000000; stroke-width: 0.4"/>
    <path d="M 218.240138 56.755411 
L 215.740138 61.755411 
L 220.740138 61.755411 
z
" clip-path="url(#p1ab9f845cd)" style="fill: #ffffff; stroke: #000000; stroke-width: 0.4"/>
    <path d="M 218.68177 56.059295 
L 216.18177 61.059295 
L 221.18177 61.059295 
z
" clip-path="url(#p1ab9f845cd)" style="fill: #ffffff; stroke: #000000; stroke-width: 0.4"/>
   </g>
   <g id="PathCollection_28">
    <path d="M 229.799686 41.096539 
L 227.299686 46.096539 
L 232.299686 46.096539 
z
" clip-path="url(#p1ab9f845cd)" style="fill: #ffffff; stroke: #000000; stroke-width: 0.4"/>
    <path d="M 231.258655 40.663173 
L 228.758655 45.663173 
L 233.758655 45.663173 
z
" clip-path="url(#p1ab9f845cd)" style="fill: #ffffff; stroke: #000000; stroke-width: 0.4"/>
    <path d="M 230.915963 40.287523 
L 228.415963 45.287523 
L 233.415963 45.287523 
z
" clip-path="url(#p1ab9f845cd)" style="fill: #ffffff; stroke: #000000; stroke-width: 0.4"/>
   </g>
   <g id="PathCollection_29">
    <path d="M 242.635104 42.920242 
L 240.135104 47.920242 
L 245.135104 47.920242 
z
" clip-path="url(#p1ab9f845cd)" style="fill: #ffffff; stroke: #000000; stroke-width: 0.4"/>
    <path d="M 242.923795 40.270646 
L 240.423795 45.270646 
L 245.423795 45.270646 
z
" clip-path="url(#p1ab9f845cd)" style="fill: #ffffff; stroke: #000000; stroke-width: 0.4"/>
   </g>
   <g id="PathCollection_30">
    <path d="M 254.251259 45.740114 
L 251.751259 50.740114 
L 256.751259 50.740114 
z
" clip-path="url(#p1ab9f845cd)" style="fill: #ffffff; stroke: #000000; stroke-width: 0.4"/>
    <path d="M 255.13505 44.409571 
L 252.63505 49.409571 
L 257.63505 49.409571 
z
" clip-path="url(#p1ab9f845cd)" style="fill: #ffffff; stroke: #000000; stroke-width: 0.4"/>
    <path d="M 255.361429 47.113402 
L 252.861429 52.113402 
L 257.861429 52.113402 
z
" clip-path="url(#p1ab9f845cd)" style="fill: #ffffff; stroke: #000000; stroke-width: 0.4"/>
   </g>
   <g id="PathCollection_31">
    <path d="M 58.008882 78.337532 
L 63.008882 78.337532 
L 63.008882 73.337532 
L 58.008882 73.337532 
z
" clip-path="url(#p1ab9f845cd)" style="fill: #ffffff; stroke: #000000; stroke-width: 0.4"/>
    <path d="M 58.950119 79.295898 
L 63.950119 79.295898 
L 63.950119 74.295898 
L 58.950119 74.295898 
z
" clip-path="url(#p1ab9f845cd)" style="fill: #ffffff; stroke: #000000; stroke-width: 0.4"/>
    <path d="M 57.552231 83.374285 
L 62.552231 83.374285 
L 62.552231 78.374285 
L 57.552231 78.374285 
z
" clip-path="url(#p1ab9f845cd)" style="fill: #ffffff; stroke: #000000; stroke-width: 0.4"/>
   </g>
   <g id="PathCollection_32">
    <path d="M 70.450122 73.580977 
L 75.450122 73.580977 
L 75.450122 68.580977 
L 70.450122 68.580977 
z
" clip-path="url(#p1ab9f845cd)" style="fill: #ffffff; stroke: #000000; stroke-width: 0.4"/>
    <path d="M 68.851107 77.853553 
L 73.851107 77.853553 
L 73.851107 72.853553 
L 68.851107 72.853553 
z
" clip-path="url(#p1ab9f845cd)" style="fill: #ffffff; stroke: #000000; stroke-width: 0.4"/>
    <path d="M 69.723152 77.89365 
L 74.723152 77.89365 
L 74.723152 72.89365 
L 69.723152 72.89365 
z
" clip-path="url(#p1ab9f845cd)" style="fill: #ffffff; stroke: #000000; stroke-width: 0.4"/>
   </g>
   <g id="PathCollection_33">
    <path d="M 81.166516 59.913594 
L 86.166516 59.913594 
L 86.166516 54.913594 
L 81.166516 54.913594 
z
" clip-path="url(#p1ab9f845cd)" style="fill: #ffffff; stroke: #000000; stroke-width: 0.4"/>
    <path d="M 82.239757 58.992711 
L 87.239757 58.992711 
L 87.239757 53.992711 
L 82.239757 53.992711 
z
" clip-path="url(#p1ab9f845cd)" style="fill: #ffffff; stroke: #000000; stroke-width: 0.4"/>
    <path d="M 82.596904 58.516885 
L 87.596904 58.516885 
L 87.596904 53.516885 
L 82.596904 53.516885 
z
" clip-path="url(#p1ab9f845cd)" style="fill: #ffffff; stroke: #000000; stroke-width: 0.4"/>
   </g>
   <g id="PathCollection_34">
    <path d="M 92.246162 57.577481 
L 97.246162 57.577481 
L 97.246162 52.577481 
L 92.246162 52.577481 
z
" clip-path="url(#p1ab9f845cd)" style="fill: #ffffff; stroke: #000000; stroke-width: 0.4"/>
    <path d="M 93.732081 61.223394 
L 98.732081 61.223394 
L 98.732081 56.223394 
L 93.732081 56.223394 
z
" clip-path="url(#p1ab9f845cd)" style="fill: #ffffff; stroke: #000000; stroke-width: 0.4"/>
    <path d="M 93.838146 60.046112 
L 98.838146 60.046112 
L 98.838146 55.046112 
L 93.838146 55.046112 
z
" clip-path="url(#p1ab9f845cd)" style="fill: #ffffff; stroke: #000000; stroke-width: 0.4"/>
   </g>
   <g id="PathCollection_35">
    <path d="M 105.917213 61.707899 
L 110.917213 61.707899 
L 110.917213 56.707899 
L 105.917213 56.707899 
z
" clip-path="url(#p1ab9f845cd)" style="fill: #ffffff; stroke: #000000; stroke-width: 0.4"/>
    <path d="M 105.446246 61.406243 
L 110.446246 61.406243 
L 110.446246 56.406243 
L 105.446246 56.406243 
z
" clip-path="url(#p1ab9f845cd)" style="fill: #ffffff; stroke: #000000; stroke-width: 0.4"/>
    <path d="M 104.575902 60.316373 
L 109.575902 60.316373 
L 109.575902 55.316373 
L 104.575902 55.316373 
z
" clip-path="url(#p1ab9f845cd)" style="fill: #ffffff; stroke: #000000; stroke-width: 0.4"/>
   </g>
   <g id="PathCollection_36">
    <path d="M 131.165675 63.287478 
L 136.165675 63.287478 
L 136.165675 58.287478 
L 131.165675 58.287478 
z
" clip-path="url(#p1ab9f845cd)" style="fill: #ffffff; stroke: #000000; stroke-width: 0.4"/>
    <path d="M 132.281188 67.617349 
L 137.281188 67.617349 
L 137.281188 62.617349 
L 132.281188 62.617349 
z
" clip-path="url(#p1ab9f845cd)" style="fill: #ffffff; stroke: #000000; stroke-width: 0.4"/>
    <path d="M 130.529014 63.38248 
L 135.529014 63.38248 
L 135.529014 58.38248 
L 130.529014 58.38248 
z
" clip-path="url(#p1ab9f845cd)" style="fill: #ffffff; stroke: #000000; stroke-width: 0.4"/>
   </g>
   <g id="PathCollection_37">
    <path d="M 143.274599 47.656192 
L 148.274599 47.656192 
L 148.274599 42.656192 
L 143.274599 42.656192 
z
" clip-path="url(#p1ab9f845cd)" style="fill: #ffffff; stroke: #000000; stroke-width: 0.4"/>
    <path d="M 143.5169 51.215113 
L 148.5169 51.215113 
L 148.5169 46.215113 
L 143.5169 46.215113 
z
" clip-path="url(#p1ab9f845cd)" style="fill: #ffffff; stroke: #000000; stroke-width: 0.4"/>
    <path d="M 144.619587 52.735524 
L 149.619587 52.735524 
L 149.619587 47.735524 
L 144.619587 47.735524 
z
" clip-path="url(#p1ab9f845cd)" style="fill: #ffffff; stroke: #000000; stroke-width: 0.4"/>
   </g>
   <g id="PathCollection_38">
    <path d="M 154.819528 44.782761 
L 159.819528 44.782761 
L 159.819528 39.782761 
L 154.819528 39.782761 
z
" clip-path="url(#p1ab9f845cd)" style="fill: #ffffff; stroke: #000000; stroke-width: 0.4"/>
    <path d="M 154.84095 43.064485 
L 159.84095 43.064485 
L 159.84095 38.064485 
L 154.84095 38.064485 
z
" clip-path="url(#p1ab9f845cd)" style="fill: #ffffff; stroke: #000000; stroke-width: 0.4"/>
    <path d="M 154.99574 41.287809 
L 159.99574 41.287809 
L 159.99574 36.287809 
L 154.99574 36.287809 
z
" clip-path="url(#p1ab9f845cd)" style="fill: #ffffff; stroke: #000000; stroke-width: 0.4"/>
   </g>
   <g id="PathCollection_39">
    <path d="M 165.956601 42.582707 
L 170.956601 42.582707 
L 170.956601 37.582707 
L 165.956601 37.582707 
z
" clip-path="url(#p1ab9f845cd)" style="fill: #ffffff; stroke: #000000; stroke-width: 0.4"/>
    <path d="M 166.711603 43.412061 
L 171.711603 43.412061 
L 171.711603 38.412061 
L 166.711603 38.412061 
z
" clip-path="url(#p1ab9f845cd)" style="fill: #ffffff; stroke: #000000; stroke-width: 0.4"/>
    <path d="M 165.82378 43.229103 
L 170.82378 43.229103 
L 170.82378 38.229103 
L 165.82378 38.229103 
z
" clip-path="url(#p1ab9f845cd)" style="fill: #ffffff; stroke: #000000; stroke-width: 0.4"/>
   </g>
   <g id="PathCollection_40">
    <path d="M 178.239496 46.77946 
L 183.239496 46.77946 
L 183.239496 41.77946 
L 178.239496 41.77946 
z
" clip-path="url(#p1ab9f845cd)" style="fill: #ffffff; stroke: #000000; stroke-width: 0.4"/>
    <path d="M 178.06769 45.72739 
L 183.06769 45.72739 
L 183.06769 40.72739 
L 178.06769 40.72739 
z
" clip-path="url(#p1ab9f845cd)" style="fill: #ffffff; stroke: #000000; stroke-width: 0.4"/>
    <path d="M 178.090182 44.265937 
L 183.090182 44.265937 
L 183.090182 39.265937 
L 178.090182 39.265937 
z
" clip-path="url(#p1ab9f845cd)" style="fill: #ffffff; stroke: #000000; stroke-width: 0.4"/>
   </g>
   <g id="PathCollection_41">
    <path d="M 204.458639 70.5715 
L 209.458639 70.5715 
L 209.458639 65.5715 
L 204.458639 65.5715 
z
" clip-path="url(#p1ab9f845cd)" style="fill: #ffffff; stroke: #000000; stroke-width: 0.4"/>
    <path d="M 205.366886 66.103236 
L 210.366886 66.103236 
L 210.366886 61.103236 
L 205.366886 61.103236 
z
" clip-path="url(#p1ab9f845cd)" style="fill: #ffffff; stroke: #000000; stroke-width: 0.4"/>
    <path d="M 204.652919 67.844438 
L 209.652919 67.844438 
L 209.652919 62.844438 
L 204.652919 62.844438 
z
" clip-path="url(#p1ab9f845cd)" style="fill: #ffffff; stroke: #000000; stroke-width: 0.4"/>
   </g>
   <g id="PathCollection_42">
    <path d="M 217.599093 48.163039 
L 222.599093 48.163039 
L 222.599093 43.163039 
L 217.599093 43.163039 
z
" clip-path="url(#p1ab9f845cd)" style="fill: #ffffff; stroke: #000000; stroke-width: 0.4"/>
    <path d="M 217.103861 52.247758 
L 222.103861 52.247758 
L 222.103861 47.247758 
L 217.103861 47.247758 
z
" clip-path="url(#p1ab9f845cd)" style="fill: #ffffff; stroke: #000000; stroke-width: 0.4"/>
   </g>
   <g id="PathCollection_43">
    <path d="M 228.952117 34.379507 
L 233.952117 34.379507 
L 233.952117 29.379507 
L 228.952117 29.379507 
z
" clip-path="url(#p1ab9f845cd)" style="fill: #ffffff; stroke: #000000; stroke-width: 0.4"/>
    <path d="M 228.008591 31.963858 
L 233.008591 31.963858 
L 233.008591 26.963858 
L 228.008591 26.963858 
z
" clip-path="url(#p1ab9f845cd)" style="fill: #ffffff; stroke: #000000; stroke-width: 0.4"/>
    <path d="M 227.373276 33.199006 
L 232.373276 33.199006 
L 232.373276 28.199006 
L 227.373276 28.199006 
z
" clip-path="url(#p1ab9f845cd)" style="fill: #ffffff; stroke: #000000; stroke-width: 0.4"/>
   </g>
   <g id="PathCollection_44">
    <path d="M 239.976036 33.917114 
L 244.976036 33.917114 
L 244.976036 28.917114 
L 239.976036 28.917114 
z
" clip-path="url(#p1ab9f845cd)" style="fill: #ffffff; stroke: #000000; stroke-width: 0.4"/>
    <path d="M 240.239461 33.915847 
L 245.239461 33.915847 
L 245.239461 28.915847 
L 240.239461 28.915847 
z
" clip-path="url(#p1ab9f845cd)" style="fill: #ffffff; stroke: #000000; stroke-width: 0.4"/>
    <path d="M 241.664373 33.36475 
L 246.664373 33.36475 
L 246.664373 28.36475 
L 241.664373 28.36475 
z
" clip-path="url(#p1ab9f845cd)" style="fill: #ffffff; stroke: #000000; stroke-width: 0.4"/>
   </g>
   <g id="PathCollection_45">
    <path d="M 251.488504 35.618401 
L 256.488504 35.618401 
L 256.488504 30.618401 
L 251.488504 30.618401 
z
" clip-path="url(#p1ab9f845cd)" style="fill: #ffffff; stroke: #000000; stroke-width: 0.4"/>
    <path d="M 253.054965 32.689173 
L 258.054965 32.689173 
L 258.054965 27.689173 
L 253.054965 27.689173 
z
" clip-path="url(#p1ab9f845cd)" style="fill: #ffffff; stroke: #000000; stroke-width: 0.4"/>
    <path d="M 251.15113 34.950077 
L 256.15113 34.950077 
L 256.15113 29.950077 
L 251.15113 29.950077 
z
" clip-path="url(#p1ab9f845cd)" style="fill: #ffffff; stroke: #000000; stroke-width: 0.4"/>
   </g>
   <g id="text_10">
    <!-- * -->
    <g style="fill: #262626" transform="translate(69.841818 44.674049) scale(0.12 -0.12)">
     <defs>
      <path id="ArialMT-2a" d="M 200 3741 
L 344 4184 
Q 841 4009 1066 3881 
Q 1006 4447 1003 4659 
L 1456 4659 
Q 1447 4350 1384 3884 
Q 1706 4047 2122 4184 
L 2266 3741 
Q 1869 3609 1488 3566 
Q 1678 3400 2025 2975 
L 1650 2709 
Q 1469 2956 1222 3381 
Q 991 2941 816 2709 
L 447 2975 
Q 809 3422 966 3566 
Q 563 3644 200 3741 
z
" transform="scale(0.015625)"/>
     </defs>
     <use xlink:href="#ArialMT-2a"/>
    </g>
   </g>
   <g id="text_11">
    <!-- *** -->
    <g style="fill: #262626" transform="translate(138.807557 27.444973) scale(0.12 -0.12)">
     <use xlink:href="#ArialMT-2a"/>
     <use xlink:href="#ArialMT-2a" transform="translate(38.916016 0)"/>
     <use xlink:href="#ArialMT-2a" transform="translate(77.832031 0)"/>
    </g>
   </g>
   <g id="text_12">
    <!-- **** -->
    <g style="fill: #262626" transform="translate(210.108608 18.121022) scale(0.12 -0.12)">
     <use xlink:href="#ArialMT-2a"/>
     <use xlink:href="#ArialMT-2a" transform="translate(38.916016 0)"/>
     <use xlink:href="#ArialMT-2a" transform="translate(77.832031 0)"/>
     <use xlink:href="#ArialMT-2a" transform="translate(116.748047 0)"/>
    </g>
   </g>
   <g id="legend_1">
    <g id="patch_22">
     <path d="M 286.735313 19.473594 
L 308.735313 19.473594 
L 308.735313 11.773594 
L 286.735313 11.773594 
z
" style="fill: #4b4279; opacity: 0.8; stroke: #ffffff; stroke-linejoin: miter"/>
    </g>
    <g id="text_13">
     <!-- 0 nM -->
     <g style="fill: #262626" transform="translate(317.535313 19.473594) scale(0.11 -0.11)">
      <defs>
       <path id="ArialMT-6e" d="M 422 0 
L 422 3319 
L 928 3319 
L 928 2847 
Q 1294 3394 1984 3394 
Q 2284 3394 2536 3286 
Q 2788 3178 2913 3003 
Q 3038 2828 3088 2588 
Q 3119 2431 3119 2041 
L 3119 0 
L 2556 0 
L 2556 2019 
Q 2556 2363 2490 2533 
Q 2425 2703 2258 2804 
Q 2091 2906 1866 2906 
Q 1506 2906 1245 2678 
Q 984 2450 984 1813 
L 984 0 
L 422 0 
z
" transform="scale(0.015625)"/>
       <path id="ArialMT-4d" d="M 475 0 
L 475 4581 
L 1388 4581 
L 2472 1338 
Q 2622 884 2691 659 
Q 2769 909 2934 1394 
L 4031 4581 
L 4847 4581 
L 4847 0 
L 4263 0 
L 4263 3834 
L 2931 0 
L 2384 0 
L 1059 3900 
L 1059 0 
L 475 0 
z
" transform="scale(0.015625)"/>
      </defs>
      <use xlink:href="#ArialMT-30"/>
      <use xlink:href="#ArialMT-20" transform="translate(55.615234 0)"/>
      <use xlink:href="#ArialMT-6e" transform="translate(83.398438 0)"/>
      <use xlink:href="#ArialMT-4d" transform="translate(139.013672 0)"/>
     </g>
    </g>
    <g id="patch_23">
     <path d="M 286.735313 35.033437 
L 308.735313 35.033437 
L 308.735313 27.333437 
L 286.735313 27.333437 
z
" style="fill: #3c6682; opacity: 0.8; stroke: #ffffff; stroke-linejoin: miter"/>
    </g>
    <g id="text_14">
     <!-- 10 nM -->
     <g style="fill: #262626" transform="translate(317.535313 35.033437) scale(0.11 -0.11)">
      <defs>
       <path id="ArialMT-31" d="M 2384 0 
L 1822 0 
L 1822 3584 
Q 1619 3391 1289 3197 
Q 959 3003 697 2906 
L 697 3450 
Q 1169 3672 1522 3987 
Q 1875 4303 2022 4600 
L 2384 4600 
L 2384 0 
z
" transform="scale(0.015625)"/>
      </defs>
      <use xlink:href="#ArialMT-31"/>
      <use xlink:href="#ArialMT-30" transform="translate(55.615234 0)"/>
      <use xlink:href="#ArialMT-20" transform="translate(111.230469 0)"/>
      <use xlink:href="#ArialMT-6e" transform="translate(139.013672 0)"/>
      <use xlink:href="#ArialMT-4d" transform="translate(194.628906 0)"/>
     </g>
    </g>
    <g id="patch_24">
     <path d="M 286.735313 50.593281 
L 308.735313 50.593281 
L 308.735313 42.893281 
L 286.735313 42.893281 
z
" style="fill: #2f837f; opacity: 0.8; stroke: #ffffff; stroke-linejoin: miter"/>
    </g>
    <g id="text_15">
     <!-- 100 nM -->
     <g style="fill: #262626" transform="translate(317.535313 50.593281) scale(0.11 -0.11)">
      <use xlink:href="#ArialMT-31"/>
      <use xlink:href="#ArialMT-30" transform="translate(55.615234 0)"/>
      <use xlink:href="#ArialMT-30" transform="translate(111.230469 0)"/>
      <use xlink:href="#ArialMT-20" transform="translate(166.845703 0)"/>
      <use xlink:href="#ArialMT-6e" transform="translate(194.628906 0)"/>
      <use xlink:href="#ArialMT-4d" transform="translate(250.244141 0)"/>
     </g>
    </g>
    <g id="patch_25">
     <path d="M 286.735313 66.153125 
L 308.735313 66.153125 
L 308.735313 58.453125 
L 286.735313 58.453125 
z
" style="fill: #45a778; opacity: 0.8; stroke: #ffffff; stroke-linejoin: miter"/>
    </g>
    <g id="text_16">
     <!-- 200 nM -->
     <g style="fill: #262626" transform="translate(317.535313 66.153125) scale(0.11 -0.11)">
      <use xlink:href="#ArialMT-32"/>
      <use xlink:href="#ArialMT-30" transform="translate(55.615234 0)"/>
      <use xlink:href="#ArialMT-30" transform="translate(111.230469 0)"/>
      <use xlink:href="#ArialMT-20" transform="translate(166.845703 0)"/>
      <use xlink:href="#ArialMT-6e" transform="translate(194.628906 0)"/>
      <use xlink:href="#ArialMT-4d" transform="translate(250.244141 0)"/>
     </g>
    </g>
    <g id="patch_26">
     <path d="M 286.735313 81.712969 
L 308.735313 81.712969 
L 308.735313 74.012969 
L 286.735313 74.012969 
z
" style="fill: #8fc456; opacity: 0.8; stroke: #ffffff; stroke-linejoin: miter"/>
    </g>
    <g id="text_17">
     <!-- 400 nM -->
     <g style="fill: #262626" transform="translate(317.535313 81.712969) scale(0.11 -0.11)">
      <use xlink:href="#ArialMT-34"/>
      <use xlink:href="#ArialMT-30" transform="translate(55.615234 0)"/>
      <use xlink:href="#ArialMT-30" transform="translate(111.230469 0)"/>
      <use xlink:href="#ArialMT-20" transform="translate(166.845703 0)"/>
      <use xlink:href="#ArialMT-6e" transform="translate(194.628906 0)"/>
      <use xlink:href="#ArialMT-4d" transform="translate(250.244141 0)"/>
     </g>
    </g>
   </g>
  </g>
 </g>
 <defs>
  <clipPath id="p1ab9f845cd">
   <rect x="44.195313" y="7.2" width="226.8" height="117"/>
  </clipPath>
 </defs>
</svg>
