<?xml version="1.0" encoding="utf-8" standalone="no"?>
<!DOCTYPE svg PUBLIC "-//W3C//DTD SVG 1.1//EN"
  "http://www.w3.org/Graphics/SVG/1.1/DTD/svg11.dtd">
<svg xmlns:xlink="http://www.w3.org/1999/xlink" width="377.152187pt" height="162.594406pt" viewBox="0 0 377.152187 162.594406" xmlns="http://www.w3.org/2000/svg" version="1.1">
 <metadata>
  <rdf:RDF xmlns:dc="http://purl.org/dc/elements/1.1/" xmlns:cc="http://creativecommons.org/ns#" xmlns:rdf="http://www.w3.org/1999/02/22-rdf-syntax-ns#">
   <cc:Work>
    <dc:type rdf:resource="http://purl.org/dc/dcmitype/StillImage"/>
    <dc:date>2025-07-28T17:38:32.792600</dc:date>
    <dc:format>image/svg+xml</dc:format>
    <dc:creator>
     <cc:Agent>
      <dc:title>Matplotlib v3.10.3, https://matplotlib.org/</dc:title>
     </cc:Agent>
    </dc:creator>
   </cc:Work>
  </rdf:RDF>
 </metadata>
 <defs>
  <style type="text/css">*{stroke-linejoin: round; stroke-linecap: butt}</style>
 </defs>
 <g id="figure_1">
  <g id="patch_1">
   <path d="M 0 162.594406 
L 377.152187 162.594406 
L 377.152187 0 
L 0 0 
z
" style="fill: #ffffff"/>
  </g>
  <g id="axes_1">
   <g id="patch_2">
    <path d="M 55.525469 124.2 
L 282.325469 124.2 
L 282.325469 7.2 
L 55.525469 7.2 
z
" style="fill: #ffffff"/>
   </g>
   <g id="matplotlib.axis_1">
    <g id="xtick_1">
     <g id="line2d_1">
      <defs>
       <path id="m7cc4f762ef" d="M 0 0 
L 0 6 
" style="stroke: #262626; stroke-width: 1.25"/>
      </defs>
      <g>
       <use xlink:href="#m7cc4f762ef" x="95.289105" y="124.2" style="fill: #262626; stroke: #262626; stroke-width: 1.25"/>
      </g>
     </g>
     <g id="text_1">
      <!-- NIL -->
      <g style="fill: #262626" transform="translate(86.730589 141.573594) scale(0.11 -0.11)">
       <defs>
        <path id="ArialMT-4e" d="M 488 0 
L 488 4581 
L 1109 4581 
L 3516 984 
L 3516 4581 
L 4097 4581 
L 4097 0 
L 3475 0 
L 1069 3600 
L 1069 0 
L 488 0 
z
" transform="scale(0.015625)"/>
        <path id="ArialMT-49" d="M 597 0 
L 597 4581 
L 1203 4581 
L 1203 0 
L 597 0 
z
" transform="scale(0.015625)"/>
        <path id="ArialMT-4c" d="M 469 0 
L 469 4581 
L 1075 4581 
L 1075 541 
L 3331 541 
L 3331 0 
L 469 0 
z
" transform="scale(0.015625)"/>
       </defs>
       <use xlink:href="#ArialMT-4e"/>
       <use xlink:href="#ArialMT-49" transform="translate(72.216797 0)"/>
       <use xlink:href="#ArialMT-4c" transform="translate(100 0)"/>
      </g>
     </g>
    </g>
    <g id="xtick_2">
     <g id="line2d_2">
      <g>
       <use xlink:href="#m7cc4f762ef" x="168.925469" y="124.2" style="fill: #262626; stroke: #262626; stroke-width: 1.25"/>
      </g>
     </g>
     <g id="text_2">
      <!-- NIL -->
      <g style="fill: #262626" transform="translate(160.366953 141.573594) scale(0.11 -0.11)">
       <use xlink:href="#ArialMT-4e"/>
       <use xlink:href="#ArialMT-49" transform="translate(72.216797 0)"/>
       <use xlink:href="#ArialMT-4c" transform="translate(100 0)"/>
      </g>
      <!-- DD -->
      <g style="fill: #262626" transform="translate(160.981406 153.208156) scale(0.11 -0.11)">
       <defs>
        <path id="ArialMT-44" d="M 494 0 
L 494 4581 
L 2072 4581 
Q 2606 4581 2888 4516 
Q 3281 4425 3559 4188 
Q 3922 3881 4101 3404 
Q 4281 2928 4281 2316 
Q 4281 1794 4159 1391 
Q 4038 988 3847 723 
Q 3656 459 3429 307 
Q 3203 156 2883 78 
Q 2563 0 2147 0 
L 494 0 
z
M 1100 541 
L 2078 541 
Q 2531 541 2789 625 
Q 3047 709 3200 863 
Q 3416 1078 3536 1442 
Q 3656 1806 3656 2325 
Q 3656 3044 3420 3430 
Q 3184 3816 2847 3947 
Q 2603 4041 2063 4041 
L 1100 4041 
L 1100 541 
z
" transform="scale(0.015625)"/>
       </defs>
       <use xlink:href="#ArialMT-44"/>
       <use xlink:href="#ArialMT-44" transform="translate(72.216797 0)"/>
      </g>
     </g>
    </g>
    <g id="xtick_3">
     <g id="line2d_3">
      <g>
       <use xlink:href="#m7cc4f762ef" x="242.561832" y="124.2" style="fill: #262626; stroke: #262626; stroke-width: 1.25"/>
      </g>
     </g>
     <g id="text_3">
      <!-- NIL -->
      <g style="fill: #262626" transform="translate(234.003317 141.573594) scale(0.11 -0.11)">
       <use xlink:href="#ArialMT-4e"/>
       <use xlink:href="#ArialMT-49" transform="translate(72.216797 0)"/>
       <use xlink:href="#ArialMT-4c" transform="translate(100 0)"/>
      </g>
      <!-- SNAP-DD -->
      <g style="fill: #262626" transform="translate(217.808395 153.208156) scale(0.11 -0.11)">
       <defs>
        <path id="ArialMT-53" d="M 288 1472 
L 859 1522 
Q 900 1178 1048 958 
Q 1197 738 1509 602 
Q 1822 466 2213 466 
Q 2559 466 2825 569 
Q 3091 672 3220 851 
Q 3350 1031 3350 1244 
Q 3350 1459 3225 1620 
Q 3100 1781 2813 1891 
Q 2628 1963 1997 2114 
Q 1366 2266 1113 2400 
Q 784 2572 623 2826 
Q 463 3081 463 3397 
Q 463 3744 659 4045 
Q 856 4347 1234 4503 
Q 1613 4659 2075 4659 
Q 2584 4659 2973 4495 
Q 3363 4331 3572 4012 
Q 3781 3694 3797 3291 
L 3216 3247 
Q 3169 3681 2898 3903 
Q 2628 4125 2100 4125 
Q 1550 4125 1298 3923 
Q 1047 3722 1047 3438 
Q 1047 3191 1225 3031 
Q 1400 2872 2139 2705 
Q 2878 2538 3153 2413 
Q 3553 2228 3743 1945 
Q 3934 1663 3934 1294 
Q 3934 928 3725 604 
Q 3516 281 3123 101 
Q 2731 -78 2241 -78 
Q 1619 -78 1198 103 
Q 778 284 539 648 
Q 300 1013 288 1472 
z
" transform="scale(0.015625)"/>
        <path id="ArialMT-41" d="M -9 0 
L 1750 4581 
L 2403 4581 
L 4278 0 
L 3588 0 
L 3053 1388 
L 1138 1388 
L 634 0 
L -9 0 
z
M 1313 1881 
L 2866 1881 
L 2388 3150 
Q 2169 3728 2063 4100 
Q 1975 3659 1816 3225 
L 1313 1881 
z
" transform="scale(0.015625)"/>
        <path id="ArialMT-50" d="M 494 0 
L 494 4581 
L 2222 4581 
Q 2678 4581 2919 4538 
Q 3256 4481 3484 4323 
Q 3713 4166 3852 3881 
Q 3991 3597 3991 3256 
Q 3991 2672 3619 2267 
Q 3247 1863 2275 1863 
L 1100 1863 
L 1100 0 
L 494 0 
z
M 1100 2403 
L 2284 2403 
Q 2872 2403 3119 2622 
Q 3366 2841 3366 3238 
Q 3366 3525 3220 3729 
Q 3075 3934 2838 4000 
Q 2684 4041 2272 4041 
L 1100 4041 
L 1100 2403 
z
" transform="scale(0.015625)"/>
        <path id="ArialMT-2d" d="M 203 1375 
L 203 1941 
L 1931 1941 
L 1931 1375 
L 203 1375 
z
" transform="scale(0.015625)"/>
       </defs>
       <use xlink:href="#ArialMT-53"/>
       <use xlink:href="#ArialMT-4e" transform="translate(66.699219 0)"/>
       <use xlink:href="#ArialMT-41" transform="translate(138.916016 0)"/>
       <use xlink:href="#ArialMT-50" transform="translate(205.615234 0)"/>
       <use xlink:href="#ArialMT-2d" transform="translate(272.314453 0)"/>
       <use xlink:href="#ArialMT-44" transform="translate(305.615234 0)"/>
       <use xlink:href="#ArialMT-44" transform="translate(377.832031 0)"/>
      </g>
     </g>
    </g>
   </g>
   <g id="matplotlib.axis_2">
    <g id="ytick_1">
     <g id="line2d_4">
      <defs>
       <path id="m2d9c8a7618" d="M 0 0 
L -6 0 
" style="stroke: #262626; stroke-width: 1.25"/>
      </defs>
      <g>
       <use xlink:href="#m2d9c8a7618" x="55.525469" y="124.2" style="fill: #262626; stroke: #262626; stroke-width: 1.25"/>
      </g>
     </g>
     <g id="text_4">
      <!-- 0 -->
      <g style="fill: #262626" transform="translate(39.908438 128.136797) scale(0.11 -0.11)">
       <defs>
        <path id="ArialMT-30" d="M 266 2259 
Q 266 3072 433 3567 
Q 600 4063 929 4331 
Q 1259 4600 1759 4600 
Q 2128 4600 2406 4451 
Q 2684 4303 2865 4023 
Q 3047 3744 3150 3342 
Q 3253 2941 3253 2259 
Q 3253 1453 3087 958 
Q 2922 463 2592 192 
Q 2263 -78 1759 -78 
Q 1097 -78 719 397 
Q 266 969 266 2259 
z
M 844 2259 
Q 844 1131 1108 757 
Q 1372 384 1759 384 
Q 2147 384 2411 759 
Q 2675 1134 2675 2259 
Q 2675 3391 2411 3762 
Q 2147 4134 1753 4134 
Q 1366 4134 1134 3806 
Q 844 3388 844 2259 
z
" transform="scale(0.015625)"/>
       </defs>
       <use xlink:href="#ArialMT-30"/>
      </g>
     </g>
    </g>
    <g id="ytick_2">
     <g id="line2d_5">
      <g>
       <use xlink:href="#m2d9c8a7618" x="55.525469" y="98.4741" style="fill: #262626; stroke: #262626; stroke-width: 1.25"/>
      </g>
     </g>
     <g id="text_5">
      <!-- 25k -->
      <g style="fill: #262626" transform="translate(28.291406 102.410897) scale(0.11 -0.11)">
       <defs>
        <path id="ArialMT-32" d="M 3222 541 
L 3222 0 
L 194 0 
Q 188 203 259 391 
Q 375 700 629 1000 
Q 884 1300 1366 1694 
Q 2113 2306 2375 2664 
Q 2638 3022 2638 3341 
Q 2638 3675 2398 3904 
Q 2159 4134 1775 4134 
Q 1369 4134 1125 3890 
Q 881 3647 878 3216 
L 300 3275 
Q 359 3922 746 4261 
Q 1134 4600 1788 4600 
Q 2447 4600 2831 4234 
Q 3216 3869 3216 3328 
Q 3216 3053 3103 2787 
Q 2991 2522 2730 2228 
Q 2469 1934 1863 1422 
Q 1356 997 1212 845 
Q 1069 694 975 541 
L 3222 541 
z
" transform="scale(0.015625)"/>
        <path id="ArialMT-35" d="M 266 1200 
L 856 1250 
Q 922 819 1161 601 
Q 1400 384 1738 384 
Q 2144 384 2425 690 
Q 2706 997 2706 1503 
Q 2706 1984 2436 2262 
Q 2166 2541 1728 2541 
Q 1456 2541 1237 2417 
Q 1019 2294 894 2097 
L 366 2166 
L 809 4519 
L 3088 4519 
L 3088 3981 
L 1259 3981 
L 1013 2750 
Q 1425 3038 1878 3038 
Q 2478 3038 2890 2622 
Q 3303 2206 3303 1553 
Q 3303 931 2941 478 
Q 2500 -78 1738 -78 
Q 1113 -78 717 272 
Q 322 622 266 1200 
z
" transform="scale(0.015625)"/>
        <path id="ArialMT-6b" d="M 425 0 
L 425 4581 
L 988 4581 
L 988 1969 
L 2319 3319 
L 3047 3319 
L 1778 2088 
L 3175 0 
L 2481 0 
L 1384 1697 
L 988 1316 
L 988 0 
L 425 0 
z
" transform="scale(0.015625)"/>
       </defs>
       <use xlink:href="#ArialMT-32"/>
       <use xlink:href="#ArialMT-35" transform="translate(55.615234 0)"/>
       <use xlink:href="#ArialMT-6b" transform="translate(111.230469 0)"/>
      </g>
     </g>
    </g>
    <g id="ytick_3">
     <g id="line2d_6">
      <g>
       <use xlink:href="#m2d9c8a7618" x="55.525469" y="72.748199" style="fill: #262626; stroke: #262626; stroke-width: 1.25"/>
      </g>
     </g>
     <g id="text_6">
      <!-- 50k -->
      <g style="fill: #262626" transform="translate(28.291406 76.684996) scale(0.11 -0.11)">
       <use xlink:href="#ArialMT-35"/>
       <use xlink:href="#ArialMT-30" transform="translate(55.615234 0)"/>
       <use xlink:href="#ArialMT-6b" transform="translate(111.230469 0)"/>
      </g>
     </g>
    </g>
    <g id="ytick_4">
     <g id="line2d_7">
      <g>
       <use xlink:href="#m2d9c8a7618" x="55.525469" y="47.022299" style="fill: #262626; stroke: #262626; stroke-width: 1.25"/>
      </g>
     </g>
     <g id="text_7">
      <!-- 75k -->
      <g style="fill: #262626" transform="translate(28.291406 50.959096) scale(0.11 -0.11)">
       <defs>
        <path id="ArialMT-37" d="M 303 3981 
L 303 4522 
L 3269 4522 
L 3269 4084 
Q 2831 3619 2401 2847 
Q 1972 2075 1738 1259 
Q 1569 684 1522 0 
L 944 0 
Q 953 541 1156 1306 
Q 1359 2072 1739 2783 
Q 2119 3494 2547 3981 
L 303 3981 
z
" transform="scale(0.015625)"/>
       </defs>
       <use xlink:href="#ArialMT-37"/>
       <use xlink:href="#ArialMT-35" transform="translate(55.615234 0)"/>
       <use xlink:href="#ArialMT-6b" transform="translate(111.230469 0)"/>
      </g>
     </g>
    </g>
    <g id="ytick_5">
     <g id="line2d_8">
      <g>
       <use xlink:href="#m2d9c8a7618" x="55.525469" y="21.296399" style="fill: #262626; stroke: #262626; stroke-width: 1.25"/>
      </g>
     </g>
     <g id="text_8">
      <!-- 100k -->
      <g style="fill: #262626" transform="translate(22.174375 25.233196) scale(0.11 -0.11)">
       <defs>
        <path id="ArialMT-31" d="M 2384 0 
L 1822 0 
L 1822 3584 
Q 1619 3391 1289 3197 
Q 959 3003 697 2906 
L 697 3450 
Q 1169 3672 1522 3987 
Q 1875 4303 2022 4600 
L 2384 4600 
L 2384 0 
z
" transform="scale(0.015625)"/>
       </defs>
       <use xlink:href="#ArialMT-31"/>
       <use xlink:href="#ArialMT-30" transform="translate(55.615234 0)"/>
       <use xlink:href="#ArialMT-30" transform="translate(111.230469 0)"/>
       <use xlink:href="#ArialMT-6b" transform="translate(166.845703 0)"/>
      </g>
     </g>
    </g>
    <g id="text_9">
     <!-- Total Cell Count -->
     <g style="fill: #262626" transform="translate(15.789375 108.049687) rotate(-90) scale(0.12 -0.12)">
      <defs>
       <path id="ArialMT-54" d="M 1659 0 
L 1659 4041 
L 150 4041 
L 150 4581 
L 3781 4581 
L 3781 4041 
L 2266 4041 
L 2266 0 
L 1659 0 
z
" transform="scale(0.015625)"/>
       <path id="ArialMT-6f" d="M 213 1659 
Q 213 2581 725 3025 
Q 1153 3394 1769 3394 
Q 2453 3394 2887 2945 
Q 3322 2497 3322 1706 
Q 3322 1066 3130 698 
Q 2938 331 2570 128 
Q 2203 -75 1769 -75 
Q 1072 -75 642 372 
Q 213 819 213 1659 
z
M 791 1659 
Q 791 1022 1069 705 
Q 1347 388 1769 388 
Q 2188 388 2466 706 
Q 2744 1025 2744 1678 
Q 2744 2294 2464 2611 
Q 2184 2928 1769 2928 
Q 1347 2928 1069 2612 
Q 791 2297 791 1659 
z
" transform="scale(0.015625)"/>
       <path id="ArialMT-74" d="M 1650 503 
L 1731 6 
Q 1494 -44 1306 -44 
Q 1000 -44 831 53 
Q 663 150 594 308 
Q 525 466 525 972 
L 525 2881 
L 113 2881 
L 113 3319 
L 525 3319 
L 525 4141 
L 1084 4478 
L 1084 3319 
L 1650 3319 
L 1650 2881 
L 1084 2881 
L 1084 941 
Q 1084 700 1114 631 
Q 1144 563 1211 522 
Q 1278 481 1403 481 
Q 1497 481 1650 503 
z
" transform="scale(0.015625)"/>
       <path id="ArialMT-61" d="M 2588 409 
Q 2275 144 1986 34 
Q 1697 -75 1366 -75 
Q 819 -75 525 192 
Q 231 459 231 875 
Q 231 1119 342 1320 
Q 453 1522 633 1644 
Q 813 1766 1038 1828 
Q 1203 1872 1538 1913 
Q 2219 1994 2541 2106 
Q 2544 2222 2544 2253 
Q 2544 2597 2384 2738 
Q 2169 2928 1744 2928 
Q 1347 2928 1158 2789 
Q 969 2650 878 2297 
L 328 2372 
Q 403 2725 575 2942 
Q 747 3159 1072 3276 
Q 1397 3394 1825 3394 
Q 2250 3394 2515 3294 
Q 2781 3194 2906 3042 
Q 3031 2891 3081 2659 
Q 3109 2516 3109 2141 
L 3109 1391 
Q 3109 606 3145 398 
Q 3181 191 3288 0 
L 2700 0 
Q 2613 175 2588 409 
z
M 2541 1666 
Q 2234 1541 1622 1453 
Q 1275 1403 1131 1340 
Q 988 1278 909 1158 
Q 831 1038 831 891 
Q 831 666 1001 516 
Q 1172 366 1500 366 
Q 1825 366 2078 508 
Q 2331 650 2450 897 
Q 2541 1088 2541 1459 
L 2541 1666 
z
" transform="scale(0.015625)"/>
       <path id="ArialMT-6c" d="M 409 0 
L 409 4581 
L 972 4581 
L 972 0 
L 409 0 
z
" transform="scale(0.015625)"/>
       <path id="ArialMT-20" transform="scale(0.015625)"/>
       <path id="ArialMT-43" d="M 3763 1606 
L 4369 1453 
Q 4178 706 3683 314 
Q 3188 -78 2472 -78 
Q 1731 -78 1267 223 
Q 803 525 561 1097 
Q 319 1669 319 2325 
Q 319 3041 592 3573 
Q 866 4106 1370 4382 
Q 1875 4659 2481 4659 
Q 3169 4659 3637 4309 
Q 4106 3959 4291 3325 
L 3694 3184 
Q 3534 3684 3231 3912 
Q 2928 4141 2469 4141 
Q 1941 4141 1586 3887 
Q 1231 3634 1087 3207 
Q 944 2781 944 2328 
Q 944 1744 1114 1308 
Q 1284 872 1643 656 
Q 2003 441 2422 441 
Q 2931 441 3284 734 
Q 3638 1028 3763 1606 
z
" transform="scale(0.015625)"/>
       <path id="ArialMT-65" d="M 2694 1069 
L 3275 997 
Q 3138 488 2766 206 
Q 2394 -75 1816 -75 
Q 1088 -75 661 373 
Q 234 822 234 1631 
Q 234 2469 665 2931 
Q 1097 3394 1784 3394 
Q 2450 3394 2872 2941 
Q 3294 2488 3294 1666 
Q 3294 1616 3291 1516 
L 816 1516 
Q 847 969 1125 678 
Q 1403 388 1819 388 
Q 2128 388 2347 550 
Q 2566 713 2694 1069 
z
M 847 1978 
L 2700 1978 
Q 2663 2397 2488 2606 
Q 2219 2931 1791 2931 
Q 1403 2931 1139 2672 
Q 875 2413 847 1978 
z
" transform="scale(0.015625)"/>
       <path id="ArialMT-75" d="M 2597 0 
L 2597 488 
Q 2209 -75 1544 -75 
Q 1250 -75 995 37 
Q 741 150 617 320 
Q 494 491 444 738 
Q 409 903 409 1263 
L 409 3319 
L 972 3319 
L 972 1478 
Q 972 1038 1006 884 
Q 1059 663 1231 536 
Q 1403 409 1656 409 
Q 1909 409 2131 539 
Q 2353 669 2445 892 
Q 2538 1116 2538 1541 
L 2538 3319 
L 3100 3319 
L 3100 0 
L 2597 0 
z
" transform="scale(0.015625)"/>
       <path id="ArialMT-6e" d="M 422 0 
L 422 3319 
L 928 3319 
L 928 2847 
Q 1294 3394 1984 3394 
Q 2284 3394 2536 3286 
Q 2788 3178 2913 3003 
Q 3038 2828 3088 2588 
Q 3119 2431 3119 2041 
L 3119 0 
L 2556 0 
L 2556 2019 
Q 2556 2363 2490 2533 
Q 2425 2703 2258 2804 
Q 2091 2906 1866 2906 
Q 1506 2906 1245 2678 
Q 984 2450 984 1813 
L 984 0 
L 422 0 
z
" transform="scale(0.015625)"/>
      </defs>
      <use xlink:href="#ArialMT-54"/>
      <use xlink:href="#ArialMT-6f" transform="translate(49.958984 0)"/>
      <use xlink:href="#ArialMT-74" transform="translate(105.574219 0)"/>
      <use xlink:href="#ArialMT-61" transform="translate(133.357422 0)"/>
      <use xlink:href="#ArialMT-6c" transform="translate(188.972656 0)"/>
      <use xlink:href="#ArialMT-20" transform="translate(211.189453 0)"/>
      <use xlink:href="#ArialMT-43" transform="translate(238.972656 0)"/>
      <use xlink:href="#ArialMT-65" transform="translate(311.189453 0)"/>
      <use xlink:href="#ArialMT-6c" transform="translate(366.804688 0)"/>
      <use xlink:href="#ArialMT-6c" transform="translate(389.021484 0)"/>
      <use xlink:href="#ArialMT-20" transform="translate(411.238281 0)"/>
      <use xlink:href="#ArialMT-43" transform="translate(439.021484 0)"/>
      <use xlink:href="#ArialMT-6f" transform="translate(511.238281 0)"/>
      <use xlink:href="#ArialMT-75" transform="translate(566.853516 0)"/>
      <use xlink:href="#ArialMT-6e" transform="translate(622.46875 0)"/>
      <use xlink:href="#ArialMT-74" transform="translate(678.083984 0)"/>
     </g>
    </g>
   </g>
   <g id="patch_3">
    <path d="M 65.83456 124.2 
L 77.616378 124.2 
L 77.616378 107.143042 
L 65.83456 107.143042 
z
" clip-path="url(#p3f8d8a68d3)" style="fill: #4b4279; opacity: 0.8; stroke: #ffffff; stroke-linejoin: miter"/>
   </g>
   <g id="patch_4">
    <path d="M 139.470923 124.2 
L 151.252741 124.2 
L 151.252741 102.165595 
L 139.470923 102.165595 
z
" clip-path="url(#p3f8d8a68d3)" style="fill: #4b4279; opacity: 0.8; stroke: #ffffff; stroke-linejoin: miter"/>
   </g>
   <g id="patch_5">
    <path d="M 213.107287 124.2 
L 224.889105 124.2 
L 224.889105 85.354348 
L 213.107287 85.354348 
z
" clip-path="url(#p3f8d8a68d3)" style="fill: #4b4279; opacity: 0.8; stroke: #ffffff; stroke-linejoin: miter"/>
   </g>
   <g id="patch_6">
    <path d="M 77.616378 124.2 
L 89.398196 124.2 
L 89.398196 96.826842 
L 77.616378 96.826842 
z
" clip-path="url(#p3f8d8a68d3)" style="fill: #3c6682; opacity: 0.8; stroke: #ffffff; stroke-linejoin: miter"/>
   </g>
   <g id="patch_7">
    <path d="M 151.252741 124.2 
L 163.03456 124.2 
L 163.03456 88.251656 
L 151.252741 88.251656 
z
" clip-path="url(#p3f8d8a68d3)" style="fill: #3c6682; opacity: 0.8; stroke: #ffffff; stroke-linejoin: miter"/>
   </g>
   <g id="patch_8">
    <path d="M 224.889105 124.2 
L 236.670923 124.2 
L 236.670923 58.620307 
L 224.889105 58.620307 
z
" clip-path="url(#p3f8d8a68d3)" style="fill: #3c6682; opacity: 0.8; stroke: #ffffff; stroke-linejoin: miter"/>
   </g>
   <g id="patch_9">
    <path d="M 89.398196 124.2 
L 101.180014 124.2 
L 101.180014 92.961211 
L 89.398196 92.961211 
z
" clip-path="url(#p3f8d8a68d3)" style="fill: #2f837f; opacity: 0.8; stroke: #ffffff; stroke-linejoin: miter"/>
   </g>
   <g id="patch_10">
    <path d="M 163.03456 124.2 
L 174.816378 124.2 
L 174.816378 84.855608 
L 163.03456 84.855608 
z
" clip-path="url(#p3f8d8a68d3)" style="fill: #2f837f; opacity: 0.8; stroke: #ffffff; stroke-linejoin: miter"/>
   </g>
   <g id="patch_11">
    <path d="M 236.670923 124.2 
L 248.452741 124.2 
L 248.452741 48.35856 
L 236.670923 48.35856 
z
" clip-path="url(#p3f8d8a68d3)" style="fill: #2f837f; opacity: 0.8; stroke: #ffffff; stroke-linejoin: miter"/>
   </g>
   <g id="patch_12">
    <path d="M 101.180014 124.2 
L 112.961832 124.2 
L 112.961832 92.31995 
L 101.180014 92.31995 
z
" clip-path="url(#p3f8d8a68d3)" style="fill: #45a778; opacity: 0.8; stroke: #ffffff; stroke-linejoin: miter"/>
   </g>
   <g id="patch_13">
    <path d="M 174.816378 124.2 
L 186.598196 124.2 
L 186.598196 84.76361 
L 174.816378 84.76361 
z
" clip-path="url(#p3f8d8a68d3)" style="fill: #45a778; opacity: 0.8; stroke: #ffffff; stroke-linejoin: miter"/>
   </g>
   <g id="patch_14">
    <path d="M 248.452741 124.2 
L 260.23456 124.2 
L 260.23456 47.147713 
L 248.452741 47.147713 
z
" clip-path="url(#p3f8d8a68d3)" style="fill: #45a778; opacity: 0.8; stroke: #ffffff; stroke-linejoin: miter"/>
   </g>
   <g id="patch_15">
    <path d="M 112.961832 124.2 
L 124.743651 124.2 
L 124.743651 95.837138 
L 112.961832 95.837138 
z
" clip-path="url(#p3f8d8a68d3)" style="fill: #8fc456; opacity: 0.8; stroke: #ffffff; stroke-linejoin: miter"/>
   </g>
   <g id="patch_16">
    <path d="M 186.598196 124.2 
L 198.380014 124.2 
L 198.380014 89.66761 
L 186.598196 89.66761 
z
" clip-path="url(#p3f8d8a68d3)" style="fill: #8fc456; opacity: 0.8; stroke: #ffffff; stroke-linejoin: miter"/>
   </g>
   <g id="patch_17">
    <path d="M 260.23456 124.2 
L 272.016378 124.2 
L 272.016378 58.493349 
L 260.23456 58.493349 
z
" clip-path="url(#p3f8d8a68d3)" style="fill: #8fc456; opacity: 0.8; stroke: #ffffff; stroke-linejoin: miter"/>
   </g>
   <g id="line2d_9">
    <path d="M 71.725469 110.706148 
L 71.725469 102.980186 
" clip-path="url(#p3f8d8a68d3)" style="fill: none; stroke: #424242; stroke-width: 2.7; stroke-linecap: round"/>
   </g>
   <g id="line2d_10">
    <path d="M 145.361832 106.025206 
L 145.361832 97.681196 
" clip-path="url(#p3f8d8a68d3)" style="fill: none; stroke: #424242; stroke-width: 2.7; stroke-linecap: round"/>
   </g>
   <g id="line2d_11">
    <path d="M 218.998196 87.63506 
L 218.998196 82.964938 
" clip-path="url(#p3f8d8a68d3)" style="fill: none; stroke: #424242; stroke-width: 2.7; stroke-linecap: round"/>
   </g>
   <g id="line2d_12">
    <path d="M 83.507287 101.473408 
L 83.507287 91.678978 
" clip-path="url(#p3f8d8a68d3)" style="fill: none; stroke: #424242; stroke-width: 2.7; stroke-linecap: round"/>
   </g>
   <g id="line2d_13">
    <path d="M 157.143651 93.835597 
L 157.143651 82.562988 
" clip-path="url(#p3f8d8a68d3)" style="fill: none; stroke: #424242; stroke-width: 2.7; stroke-linecap: round"/>
   </g>
   <g id="line2d_14">
    <path d="M 230.780014 65.292953 
L 230.780014 52.767555 
" clip-path="url(#p3f8d8a68d3)" style="fill: none; stroke: #424242; stroke-width: 2.7; stroke-linecap: round"/>
   </g>
   <g id="line2d_15">
    <path d="M 95.289105 101.335546 
L 95.289105 84.411488 
" clip-path="url(#p3f8d8a68d3)" style="fill: none; stroke: #424242; stroke-width: 2.7; stroke-linecap: round"/>
   </g>
   <g id="line2d_16">
    <path d="M 168.925469 89.673538 
L 168.925469 78.674992 
" clip-path="url(#p3f8d8a68d3)" style="fill: none; stroke: #424242; stroke-width: 2.7; stroke-linecap: round"/>
   </g>
   <g id="line2d_17">
    <path d="M 242.561832 52.746461 
L 242.561832 42.84126 
" clip-path="url(#p3f8d8a68d3)" style="fill: none; stroke: #424242; stroke-width: 2.7; stroke-linecap: round"/>
   </g>
   <g id="line2d_18">
    <path d="M 107.070923 97.41972 
L 107.070923 86.437861 
" clip-path="url(#p3f8d8a68d3)" style="fill: none; stroke: #424242; stroke-width: 2.7; stroke-linecap: round"/>
   </g>
   <g id="line2d_19">
    <path d="M 180.707287 88.28537 
L 180.707287 80.660091 
" clip-path="url(#p3f8d8a68d3)" style="fill: none; stroke: #424242; stroke-width: 2.7; stroke-linecap: round"/>
   </g>
   <g id="line2d_20">
    <path d="M 254.343651 51.320197 
L 254.343651 42.672773 
" clip-path="url(#p3f8d8a68d3)" style="fill: none; stroke: #424242; stroke-width: 2.7; stroke-linecap: round"/>
   </g>
   <g id="line2d_21">
    <path d="M 118.852741 101.722558 
L 118.852741 89.652494 
" clip-path="url(#p3f8d8a68d3)" style="fill: none; stroke: #424242; stroke-width: 2.7; stroke-linecap: round"/>
   </g>
   <g id="line2d_22">
    <path d="M 192.489105 94.851564 
L 192.489105 84.184637 
" clip-path="url(#p3f8d8a68d3)" style="fill: none; stroke: #424242; stroke-width: 2.7; stroke-linecap: round"/>
   </g>
   <g id="line2d_23">
    <path d="M 266.125469 66.09452 
L 266.125469 50.534296 
" clip-path="url(#p3f8d8a68d3)" style="fill: none; stroke: #424242; stroke-width: 2.7; stroke-linecap: round"/>
   </g>
   <g id="line2d_24">
    <path d="M 71.725469 66.569899 
L 71.725469 64.58044 
L 95.289105 64.58044 
L 95.289105 66.569899 
" clip-path="url(#p3f8d8a68d3)" style="fill: none; stroke: #333333; stroke-width: 1.5; stroke-linecap: round"/>
   </g>
   <g id="line2d_25">
    <path d="M 145.361832 60.173411 
L 145.361832 58.183952 
L 168.925469 58.183952 
L 168.925469 60.173411 
" clip-path="url(#p3f8d8a68d3)" style="fill: none; stroke: #333333; stroke-width: 1.5; stroke-linecap: round"/>
   </g>
   <g id="line2d_26">
    <path d="M 218.998196 23.495481 
L 218.998196 21.506022 
L 242.561832 21.506022 
L 242.561832 23.495481 
" clip-path="url(#p3f8d8a68d3)" style="fill: none; stroke: #333333; stroke-width: 1.5; stroke-linecap: round"/>
   </g>
   <g id="patch_18">
    <path d="M 55.525469 124.2 
L 55.525469 7.2 
" style="fill: none; stroke: #262626; stroke-width: 1.25; stroke-linejoin: miter; stroke-linecap: square"/>
   </g>
   <g id="patch_19">
    <path d="M 282.325469 124.2 
L 282.325469 7.2 
" style="fill: none; stroke: #262626; stroke-width: 1.25; stroke-linejoin: miter; stroke-linecap: square"/>
   </g>
   <g id="patch_20">
    <path d="M 55.525469 124.2 
L 282.325469 124.2 
" style="fill: none; stroke: #262626; stroke-width: 1.25; stroke-linejoin: miter; stroke-linecap: square"/>
   </g>
   <g id="patch_21">
    <path d="M 55.525469 7.2 
L 282.325469 7.2 
" style="fill: none; stroke: #262626; stroke-width: 1.25; stroke-linejoin: miter; stroke-linecap: square"/>
   </g>
   <g id="PathCollection_1">
    <defs>
     <path id="C0_0_aaf2762785" d="M 0 2.5 
C 0.663008 2.5 1.29895 2.236584 1.767767 1.767767 
C 2.236584 1.29895 2.5 0.663008 2.5 -0 
C 2.5 -0.663008 2.236584 -1.29895 1.767767 -1.767767 
C 1.29895 -2.236584 0.663008 -2.5 0 -2.5 
C -0.663008 -2.5 -1.29895 -2.236584 -1.767767 -1.767767 
C -2.236584 -1.29895 -2.5 -0.663008 -2.5 0 
C -2.5 0.663008 -2.236584 1.29895 -1.767767 1.767767 
C -1.29895 2.236584 -0.663008 2.5 0 2.5 
z
"/>
    </defs>
    <g clip-path="url(#p3f8d8a68d3)">
     <use xlink:href="#C0_0_aaf2762785" x="73.152227" y="111.097284" style="fill: #ffffff; stroke: #000000; stroke-width: 0.4"/>
    </g>
    <g clip-path="url(#p3f8d8a68d3)">
     <use xlink:href="#C0_0_aaf2762785" x="72.328321" y="113.947714" style="fill: #ffffff; stroke: #000000; stroke-width: 0.4"/>
    </g>
    <g clip-path="url(#p3f8d8a68d3)">
     <use xlink:href="#C0_0_aaf2762785" x="72.075136" y="108.269494" style="fill: #ffffff; stroke: #000000; stroke-width: 0.4"/>
    </g>
   </g>
   <g id="PathCollection_2">
    <defs>
     <path id="C1_0_050680e96d" d="M 0 2.5 
C 0.663008 2.5 1.29895 2.236584 1.767767 1.767767 
C 2.236584 1.29895 2.5 0.663008 2.5 -0 
C 2.5 -0.663008 2.236584 -1.29895 1.767767 -1.767767 
C 1.29895 -2.236584 0.663008 -2.5 0 -2.5 
C -0.663008 -2.5 -1.29895 -2.236584 -1.767767 -1.767767 
C -2.236584 -1.29895 -2.5 -0.663008 -2.5 0 
C -2.5 0.663008 -2.236584 1.29895 -1.767767 1.767767 
C -1.29895 2.236584 -0.663008 2.5 0 2.5 
z
"/>
    </defs>
    <g clip-path="url(#p3f8d8a68d3)">
     <use xlink:href="#C1_0_050680e96d" x="83.156172" y="99.580313" style="fill: #ffffff; stroke: #000000; stroke-width: 0.4"/>
    </g>
    <g clip-path="url(#p3f8d8a68d3)">
     <use xlink:href="#C1_0_050680e96d" x="84.319619" y="102.130265" style="fill: #ffffff; stroke: #000000; stroke-width: 0.4"/>
    </g>
    <g clip-path="url(#p3f8d8a68d3)">
     <use xlink:href="#C1_0_050680e96d" x="84.114895" y="98.348557" style="fill: #ffffff; stroke: #000000; stroke-width: 0.4"/>
    </g>
   </g>
   <g id="PathCollection_3">
    <defs>
     <path id="C2_0_bb6163eea5" d="M 0 2.5 
C 0.663008 2.5 1.29895 2.236584 1.767767 1.767767 
C 2.236584 1.29895 2.5 0.663008 2.5 -0 
C 2.5 -0.663008 2.236584 -1.29895 1.767767 -1.767767 
C 1.29895 -2.236584 0.663008 -2.5 0 -2.5 
C -0.663008 -2.5 -1.29895 -2.236584 -1.767767 -1.767767 
C -2.236584 -1.29895 -2.5 -0.663008 -2.5 0 
C -2.5 0.663008 -2.236584 1.29895 -1.767767 1.767767 
C -1.29895 2.236584 -0.663008 2.5 0 2.5 
z
"/>
    </defs>
    <g clip-path="url(#p3f8d8a68d3)">
     <use xlink:href="#C2_0_bb6163eea5" x="94.121502" y="99.481526" style="fill: #ffffff; stroke: #000000; stroke-width: 0.4"/>
    </g>
    <g clip-path="url(#p3f8d8a68d3)">
     <use xlink:href="#C2_0_bb6163eea5" x="95.689088" y="97.438889" style="fill: #ffffff; stroke: #000000; stroke-width: 0.4"/>
    </g>
    <g clip-path="url(#p3f8d8a68d3)">
     <use xlink:href="#C2_0_bb6163eea5" x="96.317418" y="112.84253" style="fill: #ffffff; stroke: #000000; stroke-width: 0.4"/>
    </g>
   </g>
   <g id="PathCollection_4">
    <defs>
     <path id="C3_0_eec8c7dacc" d="M 0 2.5 
C 0.663008 2.5 1.29895 2.236584 1.767767 1.767767 
C 2.236584 1.29895 2.5 0.663008 2.5 -0 
C 2.5 -0.663008 2.236584 -1.29895 1.767767 -1.767767 
C 1.29895 -2.236584 0.663008 -2.5 0 -2.5 
C -0.663008 -2.5 -1.29895 -2.236584 -1.767767 -1.767767 
C -2.236584 -1.29895 -2.5 -0.663008 -2.5 0 
C -2.5 0.663008 -2.236584 1.29895 -1.767767 1.767767 
C -1.29895 2.236584 -0.663008 2.5 0 2.5 
z
"/>
    </defs>
    <g clip-path="url(#p3f8d8a68d3)">
     <use xlink:href="#C3_0_eec8c7dacc" x="107.96476" y="95.363324" style="fill: #ffffff; stroke: #000000; stroke-width: 0.4"/>
    </g>
    <g clip-path="url(#p3f8d8a68d3)">
     <use xlink:href="#C3_0_eec8c7dacc" x="106.092361" y="94.660492" style="fill: #ffffff; stroke: #000000; stroke-width: 0.4"/>
    </g>
    <g clip-path="url(#p3f8d8a68d3)">
     <use xlink:href="#C3_0_eec8c7dacc" x="108.116196" y="97.401844" style="fill: #ffffff; stroke: #000000; stroke-width: 0.4"/>
    </g>
   </g>
   <g id="PathCollection_5">
    <defs>
     <path id="C4_0_527d7ba194" d="M 0 2.5 
C 0.663008 2.5 1.29895 2.236584 1.767767 1.767767 
C 2.236584 1.29895 2.5 0.663008 2.5 -0 
C 2.5 -0.663008 2.236584 -1.29895 1.767767 -1.767767 
C 1.29895 -2.236584 0.663008 -2.5 0 -2.5 
C -0.663008 -2.5 -1.29895 -2.236584 -1.767767 -1.767767 
C -2.236584 -1.29895 -2.5 -0.663008 -2.5 0 
C -2.5 0.663008 -2.236584 1.29895 -1.767767 1.767767 
C -1.29895 2.236584 -0.663008 2.5 0 2.5 
z
"/>
    </defs>
    <g clip-path="url(#p3f8d8a68d3)">
     <use xlink:href="#C4_0_527d7ba194" x="118.769176" y="96.059981" style="fill: #ffffff; stroke: #000000; stroke-width: 0.4"/>
    </g>
    <g clip-path="url(#p3f8d8a68d3)">
     <use xlink:href="#C4_0_527d7ba194" x="118.901568" y="107.542994" style="fill: #ffffff; stroke: #000000; stroke-width: 0.4"/>
    </g>
    <g clip-path="url(#p3f8d8a68d3)">
     <use xlink:href="#C4_0_527d7ba194" x="118.875549" y="102.266097" style="fill: #ffffff; stroke: #000000; stroke-width: 0.4"/>
    </g>
   </g>
   <g id="PathCollection_6">
    <defs>
     <path id="C5_0_56051fc75f" d="M 0 2.5 
C 0.663008 2.5 1.29895 2.236584 1.767767 1.767767 
C 2.236584 1.29895 2.5 0.663008 2.5 -0 
C 2.5 -0.663008 2.236584 -1.29895 1.767767 -1.767767 
C 1.29895 -2.236584 0.663008 -2.5 0 -2.5 
C -0.663008 -2.5 -1.29895 -2.236584 -1.767767 -1.767767 
C -2.236584 -1.29895 -2.5 -0.663008 -2.5 0 
C -2.5 0.663008 -2.236584 1.29895 -1.767767 1.767767 
C -1.29895 2.236584 -0.663008 2.5 0 2.5 
z
"/>
    </defs>
    <g clip-path="url(#p3f8d8a68d3)">
     <use xlink:href="#C5_0_56051fc75f" x="145.344561" y="110.323449" style="fill: #ffffff; stroke: #000000; stroke-width: 0.4"/>
    </g>
    <g clip-path="url(#p3f8d8a68d3)">
     <use xlink:href="#C5_0_56051fc75f" x="145.364371" y="104.589661" style="fill: #ffffff; stroke: #000000; stroke-width: 0.4"/>
    </g>
    <g clip-path="url(#p3f8d8a68d3)">
     <use xlink:href="#C5_0_56051fc75f" x="146.779435" y="100.287261" style="fill: #ffffff; stroke: #000000; stroke-width: 0.4"/>
    </g>
   </g>
   <g id="PathCollection_7">
    <defs>
     <path id="C6_0_1d8bd0df24" d="M 0 2.5 
C 0.663008 2.5 1.29895 2.236584 1.767767 1.767767 
C 2.236584 1.29895 2.5 0.663008 2.5 -0 
C 2.5 -0.663008 2.236584 -1.29895 1.767767 -1.767767 
C 1.29895 -2.236584 0.663008 -2.5 0 -2.5 
C -0.663008 -2.5 -1.29895 -2.236584 -1.767767 -1.767767 
C -2.236584 -1.29895 -2.5 -0.663008 -2.5 0 
C -2.5 0.663008 -2.236584 1.29895 -1.767767 1.767767 
C -1.29895 2.236584 -0.663008 2.5 0 2.5 
z
"/>
    </defs>
    <g clip-path="url(#p3f8d8a68d3)">
     <use xlink:href="#C6_0_1d8bd0df24" x="157.430082" y="97.309231" style="fill: #ffffff; stroke: #000000; stroke-width: 0.4"/>
    </g>
    <g clip-path="url(#p3f8d8a68d3)">
     <use xlink:href="#C6_0_1d8bd0df24" x="156.437847" y="88.181682" style="fill: #ffffff; stroke: #000000; stroke-width: 0.4"/>
    </g>
    <g clip-path="url(#p3f8d8a68d3)">
     <use xlink:href="#C6_0_1d8bd0df24" x="157.080112" y="89.519428" style="fill: #ffffff; stroke: #000000; stroke-width: 0.4"/>
    </g>
   </g>
   <g id="PathCollection_8">
    <defs>
     <path id="C7_0_8cc95c69d7" d="M 0 2.5 
C 0.663008 2.5 1.29895 2.236584 1.767767 1.767767 
C 2.236584 1.29895 2.5 0.663008 2.5 -0 
C 2.5 -0.663008 2.236584 -1.29895 1.767767 -1.767767 
C 1.29895 -2.236584 0.663008 -2.5 0 -2.5 
C -0.663008 -2.5 -1.29895 -2.236584 -1.767767 -1.767767 
C -2.236584 -1.29895 -2.5 -0.663008 -2.5 0 
C -2.5 0.663008 -2.236584 1.29895 -1.767767 1.767767 
C -1.29895 2.236584 -0.663008 2.5 0 2.5 
z
"/>
    </defs>
    <g clip-path="url(#p3f8d8a68d3)">
     <use xlink:href="#C7_0_8cc95c69d7" x="168.777131" y="87.669222" style="fill: #ffffff; stroke: #000000; stroke-width: 0.4"/>
    </g>
    <g clip-path="url(#p3f8d8a68d3)">
     <use xlink:href="#C7_0_8cc95c69d7" x="168.985192" y="92.132151" style="fill: #ffffff; stroke: #000000; stroke-width: 0.4"/>
    </g>
    <g clip-path="url(#p3f8d8a68d3)">
     <use xlink:href="#C7_0_8cc95c69d7" x="168.735906" y="90.135821" style="fill: #ffffff; stroke: #000000; stroke-width: 0.4"/>
    </g>
   </g>
   <g id="PathCollection_9">
    <defs>
     <path id="C8_0_1a6e4994fe" d="M 0 2.5 
C 0.663008 2.5 1.29895 2.236584 1.767767 1.767767 
C 2.236584 1.29895 2.5 0.663008 2.5 -0 
C 2.5 -0.663008 2.236584 -1.29895 1.767767 -1.767767 
C 1.29895 -2.236584 0.663008 -2.5 0 -2.5 
C -0.663008 -2.5 -1.29895 -2.236584 -1.767767 -1.767767 
C -2.236584 -1.29895 -2.5 -0.663008 -2.5 0 
C -2.5 0.663008 -2.236584 1.29895 -1.767767 1.767767 
C -1.29895 2.236584 -0.663008 2.5 0 2.5 
z
"/>
    </defs>
    <g clip-path="url(#p3f8d8a68d3)">
     <use xlink:href="#C8_0_1a6e4994fe" x="181.211988" y="89.452541" style="fill: #ffffff; stroke: #000000; stroke-width: 0.4"/>
    </g>
    <g clip-path="url(#p3f8d8a68d3)">
     <use xlink:href="#C8_0_1a6e4994fe" x="180.021796" y="86.587705" style="fill: #ffffff; stroke: #000000; stroke-width: 0.4"/>
    </g>
    <g clip-path="url(#p3f8d8a68d3)">
     <use xlink:href="#C8_0_1a6e4994fe" x="181.130657" y="92.522155" style="fill: #ffffff; stroke: #000000; stroke-width: 0.4"/>
    </g>
   </g>
   <g id="PathCollection_10">
    <defs>
     <path id="C9_0_a05e7b2589" d="M 0 2.5 
C 0.663008 2.5 1.29895 2.236584 1.767767 1.767767 
C 2.236584 1.29895 2.5 0.663008 2.5 -0 
C 2.5 -0.663008 2.236584 -1.29895 1.767767 -1.767767 
C 1.29895 -2.236584 0.663008 -2.5 0 -2.5 
C -0.663008 -2.5 -1.29895 -2.236584 -1.767767 -1.767767 
C -2.236584 -1.29895 -2.5 -0.663008 -2.5 0 
C -2.5 0.663008 -2.236584 1.29895 -1.767767 1.767767 
C -1.29895 2.236584 -0.663008 2.5 0 2.5 
z
"/>
    </defs>
    <g clip-path="url(#p3f8d8a68d3)">
     <use xlink:href="#C9_0_a05e7b2589" x="191.812946" y="86.227542" style="fill: #ffffff; stroke: #000000; stroke-width: 0.4"/>
    </g>
    <g clip-path="url(#p3f8d8a68d3)">
     <use xlink:href="#C9_0_a05e7b2589" x="193.366847" y="99.419784" style="fill: #ffffff; stroke: #000000; stroke-width: 0.4"/>
    </g>
    <g clip-path="url(#p3f8d8a68d3)">
     <use xlink:href="#C9_0_a05e7b2589" x="193.135608" y="95.469315" style="fill: #ffffff; stroke: #000000; stroke-width: 0.4"/>
    </g>
   </g>
   <g id="PathCollection_11">
    <defs>
     <path id="Ca_0_28765d93cc" d="M 0 2.5 
C 0.663008 2.5 1.29895 2.236584 1.767767 1.767767 
C 2.236584 1.29895 2.5 0.663008 2.5 -0 
C 2.5 -0.663008 2.236584 -1.29895 1.767767 -1.767767 
C 1.29895 -2.236584 0.663008 -2.5 0 -2.5 
C -0.663008 -2.5 -1.29895 -2.236584 -1.767767 -1.767767 
C -2.236584 -1.29895 -2.5 -0.663008 -2.5 0 
C -2.5 0.663008 -2.236584 1.29895 -1.767767 1.767767 
C -1.29895 2.236584 -0.663008 2.5 0 2.5 
z
"/>
    </defs>
    <g clip-path="url(#p3f8d8a68d3)">
     <use xlink:href="#Ca_0_28765d93cc" x="217.828853" y="83.800046" style="fill: #ffffff; stroke: #000000; stroke-width: 0.4"/>
    </g>
    <g clip-path="url(#p3f8d8a68d3)">
     <use xlink:href="#Ca_0_28765d93cc" x="218.454409" y="85.026657" style="fill: #ffffff; stroke: #000000; stroke-width: 0.4"/>
    </g>
    <g clip-path="url(#p3f8d8a68d3)">
     <use xlink:href="#Ca_0_28765d93cc" x="220.373144" y="85.816957" style="fill: #ffffff; stroke: #000000; stroke-width: 0.4"/>
    </g>
   </g>
   <g id="PathCollection_12">
    <defs>
     <path id="Cb_0_e295bf549a" d="M 0 2.5 
C 0.663008 2.5 1.29895 2.236584 1.767767 1.767767 
C 2.236584 1.29895 2.5 0.663008 2.5 -0 
C 2.5 -0.663008 2.236584 -1.29895 1.767767 -1.767767 
C 1.29895 -2.236584 0.663008 -2.5 0 -2.5 
C -0.663008 -2.5 -1.29895 -2.236584 -1.767767 -1.767767 
C -2.236584 -1.29895 -2.5 -0.663008 -2.5 0 
C -2.5 0.663008 -2.236584 1.29895 -1.767767 1.767767 
C -1.29895 2.236584 -0.663008 2.5 0 2.5 
z
"/>
    </defs>
    <g clip-path="url(#p3f8d8a68d3)">
     <use xlink:href="#Cb_0_e295bf549a" x="232.205597" y="63.334578" style="fill: #ffffff; stroke: #000000; stroke-width: 0.4"/>
    </g>
    <g clip-path="url(#p3f8d8a68d3)">
     <use xlink:href="#Cb_0_e295bf549a" x="229.520453" y="60.16206" style="fill: #ffffff; stroke: #000000; stroke-width: 0.4"/>
    </g>
    <g clip-path="url(#p3f8d8a68d3)">
     <use xlink:href="#Cb_0_e295bf549a" x="229.517574" y="50.835907" style="fill: #ffffff; stroke: #000000; stroke-width: 0.4"/>
    </g>
   </g>
   <g id="PathCollection_13">
    <defs>
     <path id="Cc_0_94674fc167" d="M 0 2.5 
C 0.663008 2.5 1.29895 2.236584 1.767767 1.767767 
C 2.236584 1.29895 2.5 0.663008 2.5 -0 
C 2.5 -0.663008 2.236584 -1.29895 1.767767 -1.767767 
C 1.29895 -2.236584 0.663008 -2.5 0 -2.5 
C -0.663008 -2.5 -1.29895 -2.236584 -1.767767 -1.767767 
C -2.236584 -1.29895 -2.5 -0.663008 -2.5 0 
C -2.5 0.663008 -2.236584 1.29895 -1.767767 1.767767 
C -1.29895 2.236584 -0.663008 2.5 0 2.5 
z
"/>
    </defs>
    <g clip-path="url(#p3f8d8a68d3)">
     <use xlink:href="#Cc_0_94674fc167" x="243.30049" y="50.546747" style="fill: #ffffff; stroke: #000000; stroke-width: 0.4"/>
    </g>
    <g clip-path="url(#p3f8d8a68d3)">
     <use xlink:href="#Cc_0_94674fc167" x="242.611378" y="54.698908" style="fill: #ffffff; stroke: #000000; stroke-width: 0.4"/>
    </g>
    <g clip-path="url(#p3f8d8a68d3)">
     <use xlink:href="#Cc_0_94674fc167" x="243.625402" y="55.011735" style="fill: #ffffff; stroke: #000000; stroke-width: 0.4"/>
    </g>
   </g>
   <g id="PathCollection_14">
    <defs>
     <path id="Cd_0_d3d35011fb" d="M 0 2.5 
C 0.663008 2.5 1.29895 2.236584 1.767767 1.767767 
C 2.236584 1.29895 2.5 0.663008 2.5 -0 
C 2.5 -0.663008 2.236584 -1.29895 1.767767 -1.767767 
C 1.29895 -2.236584 0.663008 -2.5 0 -2.5 
C -0.663008 -2.5 -1.29895 -2.236584 -1.767767 -1.767767 
C -2.236584 -1.29895 -2.5 -0.663008 -2.5 0 
C -2.5 0.663008 -2.236584 1.29895 -1.767767 1.767767 
C -1.29895 2.236584 -0.663008 2.5 0 2.5 
z
"/>
    </defs>
    <g clip-path="url(#p3f8d8a68d3)">
     <use xlink:href="#Cd_0_d3d35011fb" x="253.010865" y="50.251414" style="fill: #ffffff; stroke: #000000; stroke-width: 0.4"/>
    </g>
    <g clip-path="url(#p3f8d8a68d3)">
     <use xlink:href="#Cd_0_d3d35011fb" x="254.980103" y="50.996436" style="fill: #ffffff; stroke: #000000; stroke-width: 0.4"/>
    </g>
    <g clip-path="url(#p3f8d8a68d3)">
     <use xlink:href="#Cd_0_d3d35011fb" x="254.435098" y="57.207698" style="fill: #ffffff; stroke: #000000; stroke-width: 0.4"/>
    </g>
   </g>
   <g id="PathCollection_15">
    <defs>
     <path id="Ce_0_e0615c9c5a" d="M 0 2.5 
C 0.663008 2.5 1.29895 2.236584 1.767767 1.767767 
C 2.236584 1.29895 2.5 0.663008 2.5 -0 
C 2.5 -0.663008 2.236584 -1.29895 1.767767 -1.767767 
C 1.29895 -2.236584 0.663008 -2.5 0 -2.5 
C -0.663008 -2.5 -1.29895 -2.236584 -1.767767 -1.767767 
C -2.236584 -1.29895 -2.5 -0.663008 -2.5 0 
C -2.5 0.663008 -2.236584 1.29895 -1.767767 1.767767 
C -1.29895 2.236584 -0.663008 2.5 0 2.5 
z
"/>
    </defs>
    <g clip-path="url(#p3f8d8a68d3)">
     <use xlink:href="#Ce_0_e0615c9c5a" x="265.18832" y="53.460977" style="fill: #ffffff; stroke: #000000; stroke-width: 0.4"/>
    </g>
    <g clip-path="url(#p3f8d8a68d3)">
     <use xlink:href="#Ce_0_e0615c9c5a" x="265.340843" y="64.74127" style="fill: #ffffff; stroke: #000000; stroke-width: 0.4"/>
    </g>
   </g>
   <g id="PathCollection_16">
    <path d="M 71.428018 97.010339 
L 68.928018 102.010339 
L 73.928018 102.010339 
z
" clip-path="url(#p3f8d8a68d3)" style="fill: #ffffff; stroke: #000000; stroke-width: 0.4"/>
    <path d="M 70.488947 97.847974 
L 67.988947 102.847974 
L 72.988947 102.847974 
z
" clip-path="url(#p3f8d8a68d3)" style="fill: #ffffff; stroke: #000000; stroke-width: 0.4"/>
    <path d="M 72.840345 95.549108 
L 70.340345 100.549108 
L 75.340345 100.549108 
z
" clip-path="url(#p3f8d8a68d3)" style="fill: #ffffff; stroke: #000000; stroke-width: 0.4"/>
   </g>
   <g id="PathCollection_17">
    <path d="M 84.862867 81.219781 
L 82.362867 86.219781 
L 87.362867 86.219781 
z
" clip-path="url(#p3f8d8a68d3)" style="fill: #ffffff; stroke: #000000; stroke-width: 0.4"/>
    <path d="M 84.126713 89.197898 
L 81.626713 94.197898 
L 86.626713 94.197898 
z
" clip-path="url(#p3f8d8a68d3)" style="fill: #ffffff; stroke: #000000; stroke-width: 0.4"/>
    <path d="M 82.271608 82.721145 
L 79.771608 87.721145 
L 84.771608 87.721145 
z
" clip-path="url(#p3f8d8a68d3)" style="fill: #ffffff; stroke: #000000; stroke-width: 0.4"/>
   </g>
   <g id="PathCollection_18">
    <path d="M 95.283952 70.99528 
L 92.783952 75.99528 
L 97.783952 75.99528 
z
" clip-path="url(#p3f8d8a68d3)" style="fill: #ffffff; stroke: #000000; stroke-width: 0.4"/>
    <path d="M 95.924144 70.038276 
L 93.424144 75.038276 
L 98.424144 75.038276 
z
" clip-path="url(#p3f8d8a68d3)" style="fill: #ffffff; stroke: #000000; stroke-width: 0.4"/>
    <path d="M 95.260799 81.063368 
L 92.760799 86.063368 
L 97.760799 86.063368 
z
" clip-path="url(#p3f8d8a68d3)" style="fill: #ffffff; stroke: #000000; stroke-width: 0.4"/>
   </g>
   <g id="PathCollection_19">
    <path d="M 106.432884 77.490555 
L 103.932884 82.490555 
L 108.932884 82.490555 
z
" clip-path="url(#p3f8d8a68d3)" style="fill: #ffffff; stroke: #000000; stroke-width: 0.4"/>
    <path d="M 107.93377 73.128471 
L 105.43377 78.128471 
L 110.43377 78.128471 
z
" clip-path="url(#p3f8d8a68d3)" style="fill: #ffffff; stroke: #000000; stroke-width: 0.4"/>
   </g>
   <g id="PathCollection_20">
    <path d="M 118.232787 83.766646 
L 115.732787 88.766646 
L 120.732787 88.766646 
z
" clip-path="url(#p3f8d8a68d3)" style="fill: #ffffff; stroke: #000000; stroke-width: 0.4"/>
    <path d="M 117.718438 80.16399 
L 115.218438 85.16399 
L 120.218438 85.16399 
z
" clip-path="url(#p3f8d8a68d3)" style="fill: #ffffff; stroke: #000000; stroke-width: 0.4"/>
    <path d="M 117.882381 79.35311 
L 115.382381 84.35311 
L 120.382381 84.35311 
z
" clip-path="url(#p3f8d8a68d3)" style="fill: #ffffff; stroke: #000000; stroke-width: 0.4"/>
   </g>
   <g id="PathCollection_21">
    <path d="M 144.397692 91.130427 
L 141.897692 96.130427 
L 146.897692 96.130427 
z
" clip-path="url(#p3f8d8a68d3)" style="fill: #ffffff; stroke: #000000; stroke-width: 0.4"/>
    <path d="M 144.689628 91.128369 
L 142.189628 96.128369 
L 147.189628 96.128369 
z
" clip-path="url(#p3f8d8a68d3)" style="fill: #ffffff; stroke: #000000; stroke-width: 0.4"/>
    <path d="M 146.459648 91.549245 
L 143.959648 96.549245 
L 148.959648 96.549245 
z
" clip-path="url(#p3f8d8a68d3)" style="fill: #ffffff; stroke: #000000; stroke-width: 0.4"/>
   </g>
   <g id="PathCollection_22">
    <path d="M 158.35327 71.129054 
L 155.85327 76.129054 
L 160.85327 76.129054 
z
" clip-path="url(#p3f8d8a68d3)" style="fill: #ffffff; stroke: #000000; stroke-width: 0.4"/>
    <path d="M 155.702084 76.907091 
L 153.202084 81.907091 
L 158.202084 81.907091 
z
" clip-path="url(#p3f8d8a68d3)" style="fill: #ffffff; stroke: #000000; stroke-width: 0.4"/>
    <path d="M 158.382455 75.085698 
L 155.882455 80.085698 
L 160.882455 80.085698 
z
" clip-path="url(#p3f8d8a68d3)" style="fill: #ffffff; stroke: #000000; stroke-width: 0.4"/>
   </g>
   <g id="PathCollection_23">
    <path d="M 169.633124 63.641788 
L 167.133124 68.641788 
L 172.133124 68.641788 
z
" clip-path="url(#p3f8d8a68d3)" style="fill: #ffffff; stroke: #000000; stroke-width: 0.4"/>
    <path d="M 169.593618 73.974339 
L 167.093618 78.974339 
L 172.093618 78.974339 
z
" clip-path="url(#p3f8d8a68d3)" style="fill: #ffffff; stroke: #000000; stroke-width: 0.4"/>
    <path d="M 169.729932 77.145828 
L 167.229932 82.145828 
L 172.229932 82.145828 
z
" clip-path="url(#p3f8d8a68d3)" style="fill: #ffffff; stroke: #000000; stroke-width: 0.4"/>
   </g>
   <g id="PathCollection_24">
    <path d="M 180.472569 76.132227 
L 177.972569 81.132227 
L 182.972569 81.132227 
z
" clip-path="url(#p3f8d8a68d3)" style="fill: #ffffff; stroke: #000000; stroke-width: 0.4"/>
    <path d="M 182.068696 72.078855 
L 179.568696 77.078855 
L 184.568696 77.078855 
z
" clip-path="url(#p3f8d8a68d3)" style="fill: #ffffff; stroke: #000000; stroke-width: 0.4"/>
   </g>
   <g id="PathCollection_25">
    <path d="M 192.032924 72.444162 
L 189.532924 77.444162 
L 194.532924 77.444162 
z
" clip-path="url(#p3f8d8a68d3)" style="fill: #ffffff; stroke: #000000; stroke-width: 0.4"/>
    <path d="M 193.767407 83.840736 
L 191.267407 88.840736 
L 196.267407 88.840736 
z
" clip-path="url(#p3f8d8a68d3)" style="fill: #ffffff; stroke: #000000; stroke-width: 0.4"/>
    <path d="M 191.848417 75.855417 
L 189.348417 80.855417 
L 194.348417 80.855417 
z
" clip-path="url(#p3f8d8a68d3)" style="fill: #ffffff; stroke: #000000; stroke-width: 0.4"/>
   </g>
   <g id="PathCollection_26">
    <path d="M 220.265706 82.700564 
L 217.765706 87.700564 
L 222.765706 87.700564 
z
" clip-path="url(#p3f8d8a68d3)" style="fill: #ffffff; stroke: #000000; stroke-width: 0.4"/>
    <path d="M 218.058754 76.635426 
L 215.558754 81.635426 
L 220.558754 81.635426 
z
" clip-path="url(#p3f8d8a68d3)" style="fill: #ffffff; stroke: #000000; stroke-width: 0.4"/>
    <path d="M 219.884925 77.952592 
L 217.384925 82.952592 
L 222.384925 82.952592 
z
" clip-path="url(#p3f8d8a68d3)" style="fill: #ffffff; stroke: #000000; stroke-width: 0.4"/>
   </g>
   <g id="PathCollection_27">
    <path d="M 231.530371 47.429326 
L 229.030371 52.429326 
L 234.030371 52.429326 
z
" clip-path="url(#p3f8d8a68d3)" style="fill: #ffffff; stroke: #000000; stroke-width: 0.4"/>
    <path d="M 231.448595 45.656297 
L 228.948595 50.656297 
L 233.948595 50.656297 
z
" clip-path="url(#p3f8d8a68d3)" style="fill: #ffffff; stroke: #000000; stroke-width: 0.4"/>
    <path d="M 231.808784 51.607212 
L 229.308784 56.607212 
L 234.308784 56.607212 
z
" clip-path="url(#p3f8d8a68d3)" style="fill: #ffffff; stroke: #000000; stroke-width: 0.4"/>
   </g>
   <g id="PathCollection_28">
    <path d="M 243.733241 26.963858 
L 241.233241 31.963858 
L 246.233241 31.963858 
z
" clip-path="url(#p3f8d8a68d3)" style="fill: #ffffff; stroke: #000000; stroke-width: 0.4"/>
    <path d="M 241.574527 42.8779 
L 239.074527 47.8779 
L 244.074527 47.8779 
z
" clip-path="url(#p3f8d8a68d3)" style="fill: #ffffff; stroke: #000000; stroke-width: 0.4"/>
    <path d="M 242.498314 46.113189 
L 239.998314 51.113189 
L 244.998314 51.113189 
z
" clip-path="url(#p3f8d8a68d3)" style="fill: #ffffff; stroke: #000000; stroke-width: 0.4"/>
   </g>
   <g id="PathCollection_29">
    <path d="M 255.100711 35.037674 
L 252.600711 40.037674 
L 257.600711 40.037674 
z
" clip-path="url(#p3f8d8a68d3)" style="fill: #ffffff; stroke: #000000; stroke-width: 0.4"/>
    <path d="M 255.52624 34.756747 
L 253.02624 39.756747 
L 258.02624 39.756747 
z
" clip-path="url(#p3f8d8a68d3)" style="fill: #ffffff; stroke: #000000; stroke-width: 0.4"/>
   </g>
   <g id="PathCollection_30">
    <path d="M 267.391397 39.902957 
L 264.891397 44.902957 
L 269.891397 44.902957 
z
" clip-path="url(#p3f8d8a68d3)" style="fill: #ffffff; stroke: #000000; stroke-width: 0.4"/>
    <path d="M 266.682609 45.923846 
L 264.182609 50.923846 
L 269.182609 50.923846 
z
" clip-path="url(#p3f8d8a68d3)" style="fill: #ffffff; stroke: #000000; stroke-width: 0.4"/>
    <path d="M 267.150509 44.191979 
L 264.650509 49.191979 
L 269.650509 49.191979 
z
" clip-path="url(#p3f8d8a68d3)" style="fill: #ffffff; stroke: #000000; stroke-width: 0.4"/>
   </g>
   <g id="PathCollection_31">
    <path d="M 69.318858 113.432639 
L 74.318858 113.432639 
L 74.318858 108.432639 
L 69.318858 108.432639 
z
" clip-path="url(#p3f8d8a68d3)" style="fill: #ffffff; stroke: #000000; stroke-width: 0.4"/>
    <path d="M 69.023266 113.455277 
L 74.023266 113.455277 
L 74.023266 108.455277 
L 69.023266 108.455277 
z
" clip-path="url(#p3f8d8a68d3)" style="fill: #ffffff; stroke: #000000; stroke-width: 0.4"/>
    <path d="M 69.048516 113.677549 
L 74.048516 113.677549 
L 74.048516 108.677549 
L 69.048516 108.677549 
z
" clip-path="url(#p3f8d8a68d3)" style="fill: #ffffff; stroke: #000000; stroke-width: 0.4"/>
   </g>
   <g id="PathCollection_32">
    <path d="M 80.183106 106.731556 
L 85.183106 106.731556 
L 85.183106 101.731556 
L 80.183106 101.731556 
z
" clip-path="url(#p3f8d8a68d3)" style="fill: #ffffff; stroke: #000000; stroke-width: 0.4"/>
    <path d="M 81.088866 106.580288 
L 86.088866 106.580288 
L 86.088866 101.580288 
L 81.088866 101.580288 
z
" clip-path="url(#p3f8d8a68d3)" style="fill: #ffffff; stroke: #000000; stroke-width: 0.4"/>
    <path d="M 80.35383 104.931772 
L 85.35383 104.931772 
L 85.35383 99.931772 
L 80.35383 99.931772 
z
" clip-path="url(#p3f8d8a68d3)" style="fill: #ffffff; stroke: #000000; stroke-width: 0.4"/>
   </g>
   <g id="PathCollection_33">
    <path d="M 92.249773 99.813347 
L 97.249773 99.813347 
L 97.249773 94.813347 
L 92.249773 94.813347 
z
" clip-path="url(#p3f8d8a68d3)" style="fill: #ffffff; stroke: #000000; stroke-width: 0.4"/>
    <path d="M 91.643386 103.037317 
L 96.643386 103.037317 
L 96.643386 98.037317 
L 91.643386 98.037317 
z
" clip-path="url(#p3f8d8a68d3)" style="fill: #ffffff; stroke: #000000; stroke-width: 0.4"/>
    <path d="M 93.954799 101.940365 
L 98.954799 101.940365 
L 98.954799 96.940365 
L 93.954799 96.940365 
z
" clip-path="url(#p3f8d8a68d3)" style="fill: #ffffff; stroke: #000000; stroke-width: 0.4"/>
   </g>
   <g id="PathCollection_34">
    <path d="M 104.032142 101.767486 
L 109.032142 101.767486 
L 109.032142 96.767486 
L 104.032142 96.767486 
z
" clip-path="url(#p3f8d8a68d3)" style="fill: #ffffff; stroke: #000000; stroke-width: 0.4"/>
    <path d="M 104.170159 100.388578 
L 109.170159 100.388578 
L 109.170159 95.388578 
L 104.170159 95.388578 
z
" clip-path="url(#p3f8d8a68d3)" style="fill: #ffffff; stroke: #000000; stroke-width: 0.4"/>
    <path d="M 105.755814 100.858848 
L 110.755814 100.858848 
L 110.755814 95.858848 
L 105.755814 95.858848 
z
" clip-path="url(#p3f8d8a68d3)" style="fill: #ffffff; stroke: #000000; stroke-width: 0.4"/>
   </g>
   <g id="PathCollection_35">
    <path d="M 117.524396 103.408799 
L 122.524396 103.408799 
L 122.524396 98.408799 
L 117.524396 98.408799 
z
" clip-path="url(#p3f8d8a68d3)" style="fill: #ffffff; stroke: #000000; stroke-width: 0.4"/>
    <path d="M 116.475682 105.096418 
L 121.475682 105.096418 
L 121.475682 100.096418 
L 116.475682 100.096418 
z
" clip-path="url(#p3f8d8a68d3)" style="fill: #ffffff; stroke: #000000; stroke-width: 0.4"/>
    <path d="M 115.854049 104.876204 
L 120.854049 104.876204 
L 120.854049 99.876204 
L 115.854049 99.876204 
z
" clip-path="url(#p3f8d8a68d3)" style="fill: #ffffff; stroke: #000000; stroke-width: 0.4"/>
   </g>
   <g id="PathCollection_36">
    <path d="M 144.148861 110.297166 
L 149.148861 110.297166 
L 149.148861 105.297166 
L 144.148861 105.297166 
z
" clip-path="url(#p3f8d8a68d3)" style="fill: #ffffff; stroke: #000000; stroke-width: 0.4"/>
    <path d="M 143.368789 111.370451 
L 148.368789 111.370451 
L 148.368789 106.370451 
L 143.368789 106.370451 
z
" clip-path="url(#p3f8d8a68d3)" style="fill: #ffffff; stroke: #000000; stroke-width: 0.4"/>
    <path d="M 143.560943 108.814325 
L 148.560943 108.814325 
L 148.560943 103.814325 
L 143.560943 103.814325 
z
" clip-path="url(#p3f8d8a68d3)" style="fill: #ffffff; stroke: #000000; stroke-width: 0.4"/>
   </g>
   <g id="PathCollection_37">
    <path d="M 154.299552 98.663914 
L 159.299552 98.663914 
L 159.299552 93.663914 
L 154.299552 93.663914 
z
" clip-path="url(#p3f8d8a68d3)" style="fill: #ffffff; stroke: #000000; stroke-width: 0.4"/>
    <path d="M 155.881443 101.665612 
L 160.881443 101.665612 
L 160.881443 96.665612 
L 155.881443 96.665612 
z
" clip-path="url(#p3f8d8a68d3)" style="fill: #ffffff; stroke: #000000; stroke-width: 0.4"/>
    <path d="M 155.856879 95.803194 
L 160.856879 95.803194 
L 160.856879 90.803194 
L 155.856879 90.803194 
z
" clip-path="url(#p3f8d8a68d3)" style="fill: #ffffff; stroke: #000000; stroke-width: 0.4"/>
   </g>
   <g id="PathCollection_38">
    <path d="M 167.773181 90.081754 
L 172.773181 90.081754 
L 172.773181 85.081754 
L 167.773181 85.081754 
z
" clip-path="url(#p3f8d8a68d3)" style="fill: #ffffff; stroke: #000000; stroke-width: 0.4"/>
    <path d="M 166.550151 93.702931 
L 171.550151 93.702931 
L 171.550151 88.702931 
L 166.550151 88.702931 
z
" clip-path="url(#p3f8d8a68d3)" style="fill: #ffffff; stroke: #000000; stroke-width: 0.4"/>
    <path d="M 165.526166 95.216643 
L 170.526166 95.216643 
L 170.526166 90.216643 
L 165.526166 90.216643 
z
" clip-path="url(#p3f8d8a68d3)" style="fill: #ffffff; stroke: #000000; stroke-width: 0.4"/>
   </g>
   <g id="PathCollection_39">
    <path d="M 177.43561 87.241614 
L 182.43561 87.241614 
L 182.43561 82.241614 
L 177.43561 82.241614 
z
" clip-path="url(#p3f8d8a68d3)" style="fill: #ffffff; stroke: #000000; stroke-width: 0.4"/>
    <path d="M 176.992519 88.595826 
L 181.992519 88.595826 
L 181.992519 83.595826 
L 176.992519 83.595826 
z
" clip-path="url(#p3f8d8a68d3)" style="fill: #ffffff; stroke: #000000; stroke-width: 0.4"/>
    <path d="M 179.6128 87.997956 
L 184.6128 87.997956 
L 184.6128 82.997956 
L 179.6128 82.997956 
z
" clip-path="url(#p3f8d8a68d3)" style="fill: #ffffff; stroke: #000000; stroke-width: 0.4"/>
   </g>
   <g id="PathCollection_40">
    <path d="M 191.094209 97.158434 
L 196.094209 97.158434 
L 196.094209 92.158434 
L 191.094209 92.158434 
z
" clip-path="url(#p3f8d8a68d3)" style="fill: #ffffff; stroke: #000000; stroke-width: 0.4"/>
    <path d="M 190.009492 97.711027 
L 195.009492 97.711027 
L 195.009492 92.711027 
L 190.009492 92.711027 
z
" clip-path="url(#p3f8d8a68d3)" style="fill: #ffffff; stroke: #000000; stroke-width: 0.4"/>
    <path d="M 191.338864 98.88207 
L 196.338864 98.88207 
L 196.338864 93.88207 
L 191.338864 93.88207 
z
" clip-path="url(#p3f8d8a68d3)" style="fill: #ffffff; stroke: #000000; stroke-width: 0.4"/>
   </g>
   <g id="PathCollection_41">
    <path d="M 215.405228 91.192083 
L 220.405228 91.192083 
L 220.405228 86.192083 
L 215.405228 86.192083 
z
" clip-path="url(#p3f8d8a68d3)" style="fill: #ffffff; stroke: #000000; stroke-width: 0.4"/>
    <path d="M 215.310398 92.024574 
L 220.310398 92.024574 
L 220.310398 87.024574 
L 215.310398 87.024574 
z
" clip-path="url(#p3f8d8a68d3)" style="fill: #ffffff; stroke: #000000; stroke-width: 0.4"/>
    <path d="M 216.414417 93.040232 
L 221.414417 93.040232 
L 221.414417 88.040232 
L 216.414417 88.040232 
z
" clip-path="url(#p3f8d8a68d3)" style="fill: #ffffff; stroke: #000000; stroke-width: 0.4"/>
   </g>
   <g id="PathCollection_42">
    <path d="M 227.628784 79.865484 
L 232.628784 79.865484 
L 232.628784 74.865484 
L 227.628784 74.865484 
z
" clip-path="url(#p3f8d8a68d3)" style="fill: #ffffff; stroke: #000000; stroke-width: 0.4"/>
    <path d="M 227.785348 67.571591 
L 232.785348 67.571591 
L 232.785348 62.571591 
L 227.785348 62.571591 
z
" clip-path="url(#p3f8d8a68d3)" style="fill: #ffffff; stroke: #000000; stroke-width: 0.4"/>
   </g>
   <g id="PathCollection_43">
    <path d="M 239.016669 51.841746 
L 244.016669 51.841746 
L 244.016669 46.841746 
L 239.016669 46.841746 
z
" clip-path="url(#p3f8d8a68d3)" style="fill: #ffffff; stroke: #000000; stroke-width: 0.4"/>
    <path d="M 239.637618 58.166202 
L 244.637618 58.166202 
L 244.637618 53.166202 
L 239.637618 53.166202 
z
" clip-path="url(#p3f8d8a68d3)" style="fill: #ffffff; stroke: #000000; stroke-width: 0.4"/>
    <path d="M 240.403084 49.006752 
L 245.403084 49.006752 
L 245.403084 44.006752 
L 240.403084 44.006752 
z
" clip-path="url(#p3f8d8a68d3)" style="fill: #ffffff; stroke: #000000; stroke-width: 0.4"/>
   </g>
   <g id="PathCollection_44">
    <path d="M 250.53689 48.737145 
L 255.53689 48.737145 
L 255.53689 43.737145 
L 250.53689 43.737145 
z
" clip-path="url(#p3f8d8a68d3)" style="fill: #ffffff; stroke: #000000; stroke-width: 0.4"/>
    <path d="M 251.147789 50.118111 
L 256.147789 50.118111 
L 256.147789 45.118111 
L 251.147789 45.118111 
z
" clip-path="url(#p3f8d8a68d3)" style="fill: #ffffff; stroke: #000000; stroke-width: 0.4"/>
    <path d="M 252.454756 52.576478 
L 257.454756 52.576478 
L 257.454756 47.576478 
L 252.454756 47.576478 
z
" clip-path="url(#p3f8d8a68d3)" style="fill: #ffffff; stroke: #000000; stroke-width: 0.4"/>
   </g>
   <g id="PathCollection_45">
    <path d="M 262.724003 71.339921 
L 267.724003 71.339921 
L 267.724003 66.339921 
L 262.724003 66.339921 
z
" clip-path="url(#p3f8d8a68d3)" style="fill: #ffffff; stroke: #000000; stroke-width: 0.4"/>
    <path d="M 263.704227 67.812385 
L 268.704227 67.812385 
L 268.704227 62.812385 
L 263.704227 62.812385 
z
" clip-path="url(#p3f8d8a68d3)" style="fill: #ffffff; stroke: #000000; stroke-width: 0.4"/>
    <path d="M 262.406857 80.573461 
L 267.406857 80.573461 
L 267.406857 75.573461 
L 262.406857 75.573461 
z
" clip-path="url(#p3f8d8a68d3)" style="fill: #ffffff; stroke: #000000; stroke-width: 0.4"/>
   </g>
   <g id="text_10">
    <!-- * -->
    <g style="fill: #262626" transform="translate(81.171974 61.19544) scale(0.12 -0.12)">
     <defs>
      <path id="ArialMT-2a" d="M 200 3741 
L 344 4184 
Q 841 4009 1066 3881 
Q 1006 4447 1003 4659 
L 1456 4659 
Q 1447 4350 1384 3884 
Q 1706 4047 2122 4184 
L 2266 3741 
Q 1869 3609 1488 3566 
Q 1678 3400 2025 2975 
L 1650 2709 
Q 1469 2956 1222 3381 
Q 991 2941 816 2709 
L 447 2975 
Q 809 3422 966 3566 
Q 563 3644 200 3741 
z
" transform="scale(0.015625)"/>
     </defs>
     <use xlink:href="#ArialMT-2a"/>
    </g>
   </g>
   <g id="text_11">
    <!-- *** -->
    <g style="fill: #262626" transform="translate(150.137713 54.798952) scale(0.12 -0.12)">
     <use xlink:href="#ArialMT-2a"/>
     <use xlink:href="#ArialMT-2a" transform="translate(38.916016 0)"/>
     <use xlink:href="#ArialMT-2a" transform="translate(77.832031 0)"/>
    </g>
   </g>
   <g id="text_12">
    <!-- **** -->
    <g style="fill: #262626" transform="translate(221.438764 18.121022) scale(0.12 -0.12)">
     <use xlink:href="#ArialMT-2a"/>
     <use xlink:href="#ArialMT-2a" transform="translate(38.916016 0)"/>
     <use xlink:href="#ArialMT-2a" transform="translate(77.832031 0)"/>
     <use xlink:href="#ArialMT-2a" transform="translate(116.748047 0)"/>
    </g>
   </g>
   <g id="legend_1">
    <g id="patch_22">
     <path d="M 298.065469 19.473594 
L 320.065469 19.473594 
L 320.065469 11.773594 
L 298.065469 11.773594 
z
" style="fill: #4b4279; opacity: 0.8; stroke: #ffffff; stroke-linejoin: miter"/>
    </g>
    <g id="text_13">
     <!-- 0 nM -->
     <g style="fill: #262626" transform="translate(328.865469 19.473594) scale(0.11 -0.11)">
      <defs>
       <path id="ArialMT-4d" d="M 475 0 
L 475 4581 
L 1388 4581 
L 2472 1338 
Q 2622 884 2691 659 
Q 2769 909 2934 1394 
L 4031 4581 
L 4847 4581 
L 4847 0 
L 4263 0 
L 4263 3834 
L 2931 0 
L 2384 0 
L 1059 3900 
L 1059 0 
L 475 0 
z
" transform="scale(0.015625)"/>
      </defs>
      <use xlink:href="#ArialMT-30"/>
      <use xlink:href="#ArialMT-20" transform="translate(55.615234 0)"/>
      <use xlink:href="#ArialMT-6e" transform="translate(83.398438 0)"/>
      <use xlink:href="#ArialMT-4d" transform="translate(139.013672 0)"/>
     </g>
    </g>
    <g id="patch_23">
     <path d="M 298.065469 35.033437 
L 320.065469 35.033437 
L 320.065469 27.333437 
L 298.065469 27.333437 
z
" style="fill: #3c6682; opacity: 0.8; stroke: #ffffff; stroke-linejoin: miter"/>
    </g>
    <g id="text_14">
     <!-- 10 nM -->
     <g style="fill: #262626" transform="translate(328.865469 35.033437) scale(0.11 -0.11)">
      <use xlink:href="#ArialMT-31"/>
      <use xlink:href="#ArialMT-30" transform="translate(55.615234 0)"/>
      <use xlink:href="#ArialMT-20" transform="translate(111.230469 0)"/>
      <use xlink:href="#ArialMT-6e" transform="translate(139.013672 0)"/>
      <use xlink:href="#ArialMT-4d" transform="translate(194.628906 0)"/>
     </g>
    </g>
    <g id="patch_24">
     <path d="M 298.065469 50.593281 
L 320.065469 50.593281 
L 320.065469 42.893281 
L 298.065469 42.893281 
z
" style="fill: #2f837f; opacity: 0.8; stroke: #ffffff; stroke-linejoin: miter"/>
    </g>
    <g id="text_15">
     <!-- 100 nM -->
     <g style="fill: #262626" transform="translate(328.865469 50.593281) scale(0.11 -0.11)">
      <use xlink:href="#ArialMT-31"/>
      <use xlink:href="#ArialMT-30" transform="translate(55.615234 0)"/>
      <use xlink:href="#ArialMT-30" transform="translate(111.230469 0)"/>
      <use xlink:href="#ArialMT-20" transform="translate(166.845703 0)"/>
      <use xlink:href="#ArialMT-6e" transform="translate(194.628906 0)"/>
      <use xlink:href="#ArialMT-4d" transform="translate(250.244141 0)"/>
     </g>
    </g>
    <g id="patch_25">
     <path d="M 298.065469 66.153125 
L 320.065469 66.153125 
L 320.065469 58.453125 
L 298.065469 58.453125 
z
" style="fill: #45a778; opacity: 0.8; stroke: #ffffff; stroke-linejoin: miter"/>
    </g>
    <g id="text_16">
     <!-- 200 nM -->
     <g style="fill: #262626" transform="translate(328.865469 66.153125) scale(0.11 -0.11)">
      <use xlink:href="#ArialMT-32"/>
      <use xlink:href="#ArialMT-30" transform="translate(55.615234 0)"/>
      <use xlink:href="#ArialMT-30" transform="translate(111.230469 0)"/>
      <use xlink:href="#ArialMT-20" transform="translate(166.845703 0)"/>
      <use xlink:href="#ArialMT-6e" transform="translate(194.628906 0)"/>
      <use xlink:href="#ArialMT-4d" transform="translate(250.244141 0)"/>
     </g>
    </g>
    <g id="patch_26">
     <path d="M 298.065469 81.712969 
L 320.065469 81.712969 
L 320.065469 74.012969 
L 298.065469 74.012969 
z
" style="fill: #8fc456; opacity: 0.8; stroke: #ffffff; stroke-linejoin: miter"/>
    </g>
    <g id="text_17">
     <!-- 400 nM -->
     <g style="fill: #262626" transform="translate(328.865469 81.712969) scale(0.11 -0.11)">
      <defs>
       <path id="ArialMT-34" d="M 2069 0 
L 2069 1097 
L 81 1097 
L 81 1613 
L 2172 4581 
L 2631 4581 
L 2631 1613 
L 3250 1613 
L 3250 1097 
L 2631 1097 
L 2631 0 
L 2069 0 
z
M 2069 1613 
L 2069 3678 
L 634 1613 
L 2069 1613 
z
" transform="scale(0.015625)"/>
      </defs>
      <use xlink:href="#ArialMT-34"/>
      <use xlink:href="#ArialMT-30" transform="translate(55.615234 0)"/>
      <use xlink:href="#ArialMT-30" transform="translate(111.230469 0)"/>
      <use xlink:href="#ArialMT-20" transform="translate(166.845703 0)"/>
      <use xlink:href="#ArialMT-6e" transform="translate(194.628906 0)"/>
      <use xlink:href="#ArialMT-4d" transform="translate(250.244141 0)"/>
     </g>
    </g>
   </g>
  </g>
 </g>
 <defs>
  <clipPath id="p3f8d8a68d3">
   <rect x="55.525469" y="7.2" width="226.8" height="117"/>
  </clipPath>
 </defs>
</svg>
