<?xml version="1.0" encoding="utf-8" standalone="no"?>
<!DOCTYPE svg PUBLIC "-//W3C//DTD SVG 1.1//EN"
  "http://www.w3.org/Graphics/SVG/1.1/DTD/svg11.dtd">
<svg xmlns:xlink="http://www.w3.org/1999/xlink" width="371.322031pt" height="162.594406pt" viewBox="0 0 371.322031 162.594406" xmlns="http://www.w3.org/2000/svg" version="1.1">
 <metadata>
  <rdf:RDF xmlns:dc="http://purl.org/dc/elements/1.1/" xmlns:cc="http://creativecommons.org/ns#" xmlns:rdf="http://www.w3.org/1999/02/22-rdf-syntax-ns#">
   <cc:Work>
    <dc:type rdf:resource="http://purl.org/dc/dcmitype/StillImage"/>
    <dc:date>2025-07-28T17:38:31.645222</dc:date>
    <dc:format>image/svg+xml</dc:format>
    <dc:creator>
     <cc:Agent>
      <dc:title>Matplotlib v3.10.3, https://matplotlib.org/</dc:title>
     </cc:Agent>
    </dc:creator>
   </cc:Work>
  </rdf:RDF>
 </metadata>
 <defs>
  <style type="text/css">*{stroke-linejoin: round; stroke-linecap: butt}</style>
 </defs>
 <g id="figure_1">
  <g id="patch_1">
   <path d="M 0 162.594406 
L 371.322031 162.594406 
L 371.322031 0 
L 0 0 
z
" style="fill: #ffffff"/>
  </g>
  <g id="axes_1">
   <g id="patch_2">
    <path d="M 49.695313 124.2 
L 276.495313 124.2 
L 276.495313 7.2 
L 49.695313 7.2 
z
" style="fill: #ffffff"/>
   </g>
   <g id="matplotlib.axis_1">
    <g id="xtick_1">
     <g id="line2d_1">
      <defs>
       <path id="m4265f4a964" d="M 0 0 
L 0 6 
" style="stroke: #262626; stroke-width: 1.25"/>
      </defs>
      <g>
       <use xlink:href="#m4265f4a964" x="89.458949" y="124.2" style="fill: #262626; stroke: #262626; stroke-width: 1.25"/>
      </g>
     </g>
     <g id="text_1">
      <!-- NIL -->
      <g style="fill: #262626" transform="translate(80.900433 141.573594) scale(0.11 -0.11)">
       <defs>
        <path id="ArialMT-4e" d="M 488 0 
L 488 4581 
L 1109 4581 
L 3516 984 
L 3516 4581 
L 4097 4581 
L 4097 0 
L 3475 0 
L 1069 3600 
L 1069 0 
L 488 0 
z
" transform="scale(0.015625)"/>
        <path id="ArialMT-49" d="M 597 0 
L 597 4581 
L 1203 4581 
L 1203 0 
L 597 0 
z
" transform="scale(0.015625)"/>
        <path id="ArialMT-4c" d="M 469 0 
L 469 4581 
L 1075 4581 
L 1075 541 
L 3331 541 
L 3331 0 
L 469 0 
z
" transform="scale(0.015625)"/>
       </defs>
       <use xlink:href="#ArialMT-4e"/>
       <use xlink:href="#ArialMT-49" transform="translate(72.216797 0)"/>
       <use xlink:href="#ArialMT-4c" transform="translate(100 0)"/>
      </g>
     </g>
    </g>
    <g id="xtick_2">
     <g id="line2d_2">
      <g>
       <use xlink:href="#m4265f4a964" x="163.095313" y="124.2" style="fill: #262626; stroke: #262626; stroke-width: 1.25"/>
      </g>
     </g>
     <g id="text_2">
      <!-- NIL -->
      <g style="fill: #262626" transform="translate(154.536797 141.573594) scale(0.11 -0.11)">
       <use xlink:href="#ArialMT-4e"/>
       <use xlink:href="#ArialMT-49" transform="translate(72.216797 0)"/>
       <use xlink:href="#ArialMT-4c" transform="translate(100 0)"/>
      </g>
      <!-- DD -->
      <g style="fill: #262626" transform="translate(155.15125 153.208156) scale(0.11 -0.11)">
       <defs>
        <path id="ArialMT-44" d="M 494 0 
L 494 4581 
L 2072 4581 
Q 2606 4581 2888 4516 
Q 3281 4425 3559 4188 
Q 3922 3881 4101 3404 
Q 4281 2928 4281 2316 
Q 4281 1794 4159 1391 
Q 4038 988 3847 723 
Q 3656 459 3429 307 
Q 3203 156 2883 78 
Q 2563 0 2147 0 
L 494 0 
z
M 1100 541 
L 2078 541 
Q 2531 541 2789 625 
Q 3047 709 3200 863 
Q 3416 1078 3536 1442 
Q 3656 1806 3656 2325 
Q 3656 3044 3420 3430 
Q 3184 3816 2847 3947 
Q 2603 4041 2063 4041 
L 1100 4041 
L 1100 541 
z
" transform="scale(0.015625)"/>
       </defs>
       <use xlink:href="#ArialMT-44"/>
       <use xlink:href="#ArialMT-44" transform="translate(72.216797 0)"/>
      </g>
     </g>
    </g>
    <g id="xtick_3">
     <g id="line2d_3">
      <g>
       <use xlink:href="#m4265f4a964" x="236.731676" y="124.2" style="fill: #262626; stroke: #262626; stroke-width: 1.25"/>
      </g>
     </g>
     <g id="text_3">
      <!-- NIL -->
      <g style="fill: #262626" transform="translate(228.173161 141.573594) scale(0.11 -0.11)">
       <use xlink:href="#ArialMT-4e"/>
       <use xlink:href="#ArialMT-49" transform="translate(72.216797 0)"/>
       <use xlink:href="#ArialMT-4c" transform="translate(100 0)"/>
      </g>
      <!-- SNAP-DD -->
      <g style="fill: #262626" transform="translate(211.978239 153.208156) scale(0.11 -0.11)">
       <defs>
        <path id="ArialMT-53" d="M 288 1472 
L 859 1522 
Q 900 1178 1048 958 
Q 1197 738 1509 602 
Q 1822 466 2213 466 
Q 2559 466 2825 569 
Q 3091 672 3220 851 
Q 3350 1031 3350 1244 
Q 3350 1459 3225 1620 
Q 3100 1781 2813 1891 
Q 2628 1963 1997 2114 
Q 1366 2266 1113 2400 
Q 784 2572 623 2826 
Q 463 3081 463 3397 
Q 463 3744 659 4045 
Q 856 4347 1234 4503 
Q 1613 4659 2075 4659 
Q 2584 4659 2973 4495 
Q 3363 4331 3572 4012 
Q 3781 3694 3797 3291 
L 3216 3247 
Q 3169 3681 2898 3903 
Q 2628 4125 2100 4125 
Q 1550 4125 1298 3923 
Q 1047 3722 1047 3438 
Q 1047 3191 1225 3031 
Q 1400 2872 2139 2705 
Q 2878 2538 3153 2413 
Q 3553 2228 3743 1945 
Q 3934 1663 3934 1294 
Q 3934 928 3725 604 
Q 3516 281 3123 101 
Q 2731 -78 2241 -78 
Q 1619 -78 1198 103 
Q 778 284 539 648 
Q 300 1013 288 1472 
z
" transform="scale(0.015625)"/>
        <path id="ArialMT-41" d="M -9 0 
L 1750 4581 
L 2403 4581 
L 4278 0 
L 3588 0 
L 3053 1388 
L 1138 1388 
L 634 0 
L -9 0 
z
M 1313 1881 
L 2866 1881 
L 2388 3150 
Q 2169 3728 2063 4100 
Q 1975 3659 1816 3225 
L 1313 1881 
z
" transform="scale(0.015625)"/>
        <path id="ArialMT-50" d="M 494 0 
L 494 4581 
L 2222 4581 
Q 2678 4581 2919 4538 
Q 3256 4481 3484 4323 
Q 3713 4166 3852 3881 
Q 3991 3597 3991 3256 
Q 3991 2672 3619 2267 
Q 3247 1863 2275 1863 
L 1100 1863 
L 1100 0 
L 494 0 
z
M 1100 2403 
L 2284 2403 
Q 2872 2403 3119 2622 
Q 3366 2841 3366 3238 
Q 3366 3525 3220 3729 
Q 3075 3934 2838 4000 
Q 2684 4041 2272 4041 
L 1100 4041 
L 1100 2403 
z
" transform="scale(0.015625)"/>
        <path id="ArialMT-2d" d="M 203 1375 
L 203 1941 
L 1931 1941 
L 1931 1375 
L 203 1375 
z
" transform="scale(0.015625)"/>
       </defs>
       <use xlink:href="#ArialMT-53"/>
       <use xlink:href="#ArialMT-4e" transform="translate(66.699219 0)"/>
       <use xlink:href="#ArialMT-41" transform="translate(138.916016 0)"/>
       <use xlink:href="#ArialMT-50" transform="translate(205.615234 0)"/>
       <use xlink:href="#ArialMT-2d" transform="translate(272.314453 0)"/>
       <use xlink:href="#ArialMT-44" transform="translate(305.615234 0)"/>
       <use xlink:href="#ArialMT-44" transform="translate(377.832031 0)"/>
      </g>
     </g>
    </g>
   </g>
   <g id="matplotlib.axis_2">
    <g id="ytick_1">
     <g id="line2d_4">
      <defs>
       <path id="m382d708a11" d="M 0 0 
L -6 0 
" style="stroke: #262626; stroke-width: 1.25"/>
      </defs>
      <g>
       <use xlink:href="#m382d708a11" x="49.695313" y="124.2" style="fill: #262626; stroke: #262626; stroke-width: 1.25"/>
      </g>
     </g>
     <g id="text_4">
      <!-- 0 -->
      <g style="fill: #262626" transform="translate(34.078281 128.136797) scale(0.11 -0.11)">
       <defs>
        <path id="ArialMT-30" d="M 266 2259 
Q 266 3072 433 3567 
Q 600 4063 929 4331 
Q 1259 4600 1759 4600 
Q 2128 4600 2406 4451 
Q 2684 4303 2865 4023 
Q 3047 3744 3150 3342 
Q 3253 2941 3253 2259 
Q 3253 1453 3087 958 
Q 2922 463 2592 192 
Q 2263 -78 1759 -78 
Q 1097 -78 719 397 
Q 266 969 266 2259 
z
M 844 2259 
Q 844 1131 1108 757 
Q 1372 384 1759 384 
Q 2147 384 2411 759 
Q 2675 1134 2675 2259 
Q 2675 3391 2411 3762 
Q 2147 4134 1753 4134 
Q 1366 4134 1134 3806 
Q 844 3388 844 2259 
z
" transform="scale(0.015625)"/>
       </defs>
       <use xlink:href="#ArialMT-30"/>
      </g>
     </g>
    </g>
    <g id="ytick_2">
     <g id="line2d_5">
      <g>
       <use xlink:href="#m382d708a11" x="49.695313" y="93.653257" style="fill: #262626; stroke: #262626; stroke-width: 1.25"/>
      </g>
     </g>
     <g id="text_5">
      <!-- 20k -->
      <g style="fill: #262626" transform="translate(22.46125 97.590054) scale(0.11 -0.11)">
       <defs>
        <path id="ArialMT-32" d="M 3222 541 
L 3222 0 
L 194 0 
Q 188 203 259 391 
Q 375 700 629 1000 
Q 884 1300 1366 1694 
Q 2113 2306 2375 2664 
Q 2638 3022 2638 3341 
Q 2638 3675 2398 3904 
Q 2159 4134 1775 4134 
Q 1369 4134 1125 3890 
Q 881 3647 878 3216 
L 300 3275 
Q 359 3922 746 4261 
Q 1134 4600 1788 4600 
Q 2447 4600 2831 4234 
Q 3216 3869 3216 3328 
Q 3216 3053 3103 2787 
Q 2991 2522 2730 2228 
Q 2469 1934 1863 1422 
Q 1356 997 1212 845 
Q 1069 694 975 541 
L 3222 541 
z
" transform="scale(0.015625)"/>
        <path id="ArialMT-6b" d="M 425 0 
L 425 4581 
L 988 4581 
L 988 1969 
L 2319 3319 
L 3047 3319 
L 1778 2088 
L 3175 0 
L 2481 0 
L 1384 1697 
L 988 1316 
L 988 0 
L 425 0 
z
" transform="scale(0.015625)"/>
       </defs>
       <use xlink:href="#ArialMT-32"/>
       <use xlink:href="#ArialMT-30" transform="translate(55.615234 0)"/>
       <use xlink:href="#ArialMT-6b" transform="translate(111.230469 0)"/>
      </g>
     </g>
    </g>
    <g id="ytick_3">
     <g id="line2d_6">
      <g>
       <use xlink:href="#m382d708a11" x="49.695313" y="63.106513" style="fill: #262626; stroke: #262626; stroke-width: 1.25"/>
      </g>
     </g>
     <g id="text_6">
      <!-- 40k -->
      <g style="fill: #262626" transform="translate(22.46125 67.04331) scale(0.11 -0.11)">
       <defs>
        <path id="ArialMT-34" d="M 2069 0 
L 2069 1097 
L 81 1097 
L 81 1613 
L 2172 4581 
L 2631 4581 
L 2631 1613 
L 3250 1613 
L 3250 1097 
L 2631 1097 
L 2631 0 
L 2069 0 
z
M 2069 1613 
L 2069 3678 
L 634 1613 
L 2069 1613 
z
" transform="scale(0.015625)"/>
       </defs>
       <use xlink:href="#ArialMT-34"/>
       <use xlink:href="#ArialMT-30" transform="translate(55.615234 0)"/>
       <use xlink:href="#ArialMT-6b" transform="translate(111.230469 0)"/>
      </g>
     </g>
    </g>
    <g id="ytick_4">
     <g id="line2d_7">
      <g>
       <use xlink:href="#m382d708a11" x="49.695313" y="32.55977" style="fill: #262626; stroke: #262626; stroke-width: 1.25"/>
      </g>
     </g>
     <g id="text_7">
      <!-- 60k -->
      <g style="fill: #262626" transform="translate(22.46125 36.496567) scale(0.11 -0.11)">
       <defs>
        <path id="ArialMT-36" d="M 3184 3459 
L 2625 3416 
Q 2550 3747 2413 3897 
Q 2184 4138 1850 4138 
Q 1581 4138 1378 3988 
Q 1113 3794 959 3422 
Q 806 3050 800 2363 
Q 1003 2672 1297 2822 
Q 1591 2972 1913 2972 
Q 2475 2972 2870 2558 
Q 3266 2144 3266 1488 
Q 3266 1056 3080 686 
Q 2894 316 2569 119 
Q 2244 -78 1831 -78 
Q 1128 -78 684 439 
Q 241 956 241 2144 
Q 241 3472 731 4075 
Q 1159 4600 1884 4600 
Q 2425 4600 2770 4297 
Q 3116 3994 3184 3459 
z
M 888 1484 
Q 888 1194 1011 928 
Q 1134 663 1356 523 
Q 1578 384 1822 384 
Q 2178 384 2434 671 
Q 2691 959 2691 1453 
Q 2691 1928 2437 2201 
Q 2184 2475 1800 2475 
Q 1419 2475 1153 2201 
Q 888 1928 888 1484 
z
" transform="scale(0.015625)"/>
       </defs>
       <use xlink:href="#ArialMT-36"/>
       <use xlink:href="#ArialMT-30" transform="translate(55.615234 0)"/>
       <use xlink:href="#ArialMT-6b" transform="translate(111.230469 0)"/>
      </g>
     </g>
    </g>
    <g id="text_8">
     <!-- (#) Total HyperP -->
     <g style="fill: #262626" transform="translate(15.935625 108.9375) rotate(-90) scale(0.12 -0.12)">
      <defs>
       <path id="ArialMT-28" d="M 1497 -1347 
Q 1031 -759 709 28 
Q 388 816 388 1659 
Q 388 2403 628 3084 
Q 909 3875 1497 4659 
L 1900 4659 
Q 1522 4009 1400 3731 
Q 1209 3300 1100 2831 
Q 966 2247 966 1656 
Q 966 153 1900 -1347 
L 1497 -1347 
z
" transform="scale(0.015625)"/>
       <path id="ArialMT-23" d="M 322 -78 
L 594 1253 
L 66 1253 
L 66 1719 
L 688 1719 
L 919 2853 
L 66 2853 
L 66 3319 
L 1013 3319 
L 1284 4659 
L 1753 4659 
L 1481 3319 
L 2466 3319 
L 2738 4659 
L 3209 4659 
L 2938 3319 
L 3478 3319 
L 3478 2853 
L 2844 2853 
L 2609 1719 
L 3478 1719 
L 3478 1253 
L 2516 1253 
L 2244 -78 
L 1775 -78 
L 2044 1253 
L 1063 1253 
L 791 -78 
L 322 -78 
z
M 1156 1719 
L 2138 1719 
L 2372 2853 
L 1388 2853 
L 1156 1719 
z
" transform="scale(0.015625)"/>
       <path id="ArialMT-29" d="M 791 -1347 
L 388 -1347 
Q 1322 153 1322 1656 
Q 1322 2244 1188 2822 
Q 1081 3291 891 3722 
Q 769 4003 388 4659 
L 791 4659 
Q 1378 3875 1659 3084 
Q 1900 2403 1900 1659 
Q 1900 816 1576 28 
Q 1253 -759 791 -1347 
z
" transform="scale(0.015625)"/>
       <path id="ArialMT-20" transform="scale(0.015625)"/>
       <path id="ArialMT-54" d="M 1659 0 
L 1659 4041 
L 150 4041 
L 150 4581 
L 3781 4581 
L 3781 4041 
L 2266 4041 
L 2266 0 
L 1659 0 
z
" transform="scale(0.015625)"/>
       <path id="ArialMT-6f" d="M 213 1659 
Q 213 2581 725 3025 
Q 1153 3394 1769 3394 
Q 2453 3394 2887 2945 
Q 3322 2497 3322 1706 
Q 3322 1066 3130 698 
Q 2938 331 2570 128 
Q 2203 -75 1769 -75 
Q 1072 -75 642 372 
Q 213 819 213 1659 
z
M 791 1659 
Q 791 1022 1069 705 
Q 1347 388 1769 388 
Q 2188 388 2466 706 
Q 2744 1025 2744 1678 
Q 2744 2294 2464 2611 
Q 2184 2928 1769 2928 
Q 1347 2928 1069 2612 
Q 791 2297 791 1659 
z
" transform="scale(0.015625)"/>
       <path id="ArialMT-74" d="M 1650 503 
L 1731 6 
Q 1494 -44 1306 -44 
Q 1000 -44 831 53 
Q 663 150 594 308 
Q 525 466 525 972 
L 525 2881 
L 113 2881 
L 113 3319 
L 525 3319 
L 525 4141 
L 1084 4478 
L 1084 3319 
L 1650 3319 
L 1650 2881 
L 1084 2881 
L 1084 941 
Q 1084 700 1114 631 
Q 1144 563 1211 522 
Q 1278 481 1403 481 
Q 1497 481 1650 503 
z
" transform="scale(0.015625)"/>
       <path id="ArialMT-61" d="M 2588 409 
Q 2275 144 1986 34 
Q 1697 -75 1366 -75 
Q 819 -75 525 192 
Q 231 459 231 875 
Q 231 1119 342 1320 
Q 453 1522 633 1644 
Q 813 1766 1038 1828 
Q 1203 1872 1538 1913 
Q 2219 1994 2541 2106 
Q 2544 2222 2544 2253 
Q 2544 2597 2384 2738 
Q 2169 2928 1744 2928 
Q 1347 2928 1158 2789 
Q 969 2650 878 2297 
L 328 2372 
Q 403 2725 575 2942 
Q 747 3159 1072 3276 
Q 1397 3394 1825 3394 
Q 2250 3394 2515 3294 
Q 2781 3194 2906 3042 
Q 3031 2891 3081 2659 
Q 3109 2516 3109 2141 
L 3109 1391 
Q 3109 606 3145 398 
Q 3181 191 3288 0 
L 2700 0 
Q 2613 175 2588 409 
z
M 2541 1666 
Q 2234 1541 1622 1453 
Q 1275 1403 1131 1340 
Q 988 1278 909 1158 
Q 831 1038 831 891 
Q 831 666 1001 516 
Q 1172 366 1500 366 
Q 1825 366 2078 508 
Q 2331 650 2450 897 
Q 2541 1088 2541 1459 
L 2541 1666 
z
" transform="scale(0.015625)"/>
       <path id="ArialMT-6c" d="M 409 0 
L 409 4581 
L 972 4581 
L 972 0 
L 409 0 
z
" transform="scale(0.015625)"/>
       <path id="ArialMT-48" d="M 513 0 
L 513 4581 
L 1119 4581 
L 1119 2700 
L 3500 2700 
L 3500 4581 
L 4106 4581 
L 4106 0 
L 3500 0 
L 3500 2159 
L 1119 2159 
L 1119 0 
L 513 0 
z
" transform="scale(0.015625)"/>
       <path id="ArialMT-79" d="M 397 -1278 
L 334 -750 
Q 519 -800 656 -800 
Q 844 -800 956 -737 
Q 1069 -675 1141 -563 
Q 1194 -478 1313 -144 
Q 1328 -97 1363 -6 
L 103 3319 
L 709 3319 
L 1400 1397 
Q 1534 1031 1641 628 
Q 1738 1016 1872 1384 
L 2581 3319 
L 3144 3319 
L 1881 -56 
Q 1678 -603 1566 -809 
Q 1416 -1088 1222 -1217 
Q 1028 -1347 759 -1347 
Q 597 -1347 397 -1278 
z
" transform="scale(0.015625)"/>
       <path id="ArialMT-70" d="M 422 -1272 
L 422 3319 
L 934 3319 
L 934 2888 
Q 1116 3141 1344 3267 
Q 1572 3394 1897 3394 
Q 2322 3394 2647 3175 
Q 2972 2956 3137 2557 
Q 3303 2159 3303 1684 
Q 3303 1175 3120 767 
Q 2938 359 2589 142 
Q 2241 -75 1856 -75 
Q 1575 -75 1351 44 
Q 1128 163 984 344 
L 984 -1272 
L 422 -1272 
z
M 931 1641 
Q 931 1000 1190 694 
Q 1450 388 1819 388 
Q 2194 388 2461 705 
Q 2728 1022 2728 1688 
Q 2728 2322 2467 2637 
Q 2206 2953 1844 2953 
Q 1484 2953 1207 2617 
Q 931 2281 931 1641 
z
" transform="scale(0.015625)"/>
       <path id="ArialMT-65" d="M 2694 1069 
L 3275 997 
Q 3138 488 2766 206 
Q 2394 -75 1816 -75 
Q 1088 -75 661 373 
Q 234 822 234 1631 
Q 234 2469 665 2931 
Q 1097 3394 1784 3394 
Q 2450 3394 2872 2941 
Q 3294 2488 3294 1666 
Q 3294 1616 3291 1516 
L 816 1516 
Q 847 969 1125 678 
Q 1403 388 1819 388 
Q 2128 388 2347 550 
Q 2566 713 2694 1069 
z
M 847 1978 
L 2700 1978 
Q 2663 2397 2488 2606 
Q 2219 2931 1791 2931 
Q 1403 2931 1139 2672 
Q 875 2413 847 1978 
z
" transform="scale(0.015625)"/>
       <path id="ArialMT-72" d="M 416 0 
L 416 3319 
L 922 3319 
L 922 2816 
Q 1116 3169 1280 3281 
Q 1444 3394 1641 3394 
Q 1925 3394 2219 3213 
L 2025 2691 
Q 1819 2813 1613 2813 
Q 1428 2813 1281 2702 
Q 1134 2591 1072 2394 
Q 978 2094 978 1738 
L 978 0 
L 416 0 
z
" transform="scale(0.015625)"/>
      </defs>
      <use xlink:href="#ArialMT-28"/>
      <use xlink:href="#ArialMT-23" transform="translate(33.300781 0)"/>
      <use xlink:href="#ArialMT-29" transform="translate(88.916016 0)"/>
      <use xlink:href="#ArialMT-20" transform="translate(122.216797 0)"/>
      <use xlink:href="#ArialMT-54" transform="translate(148.25 0)"/>
      <use xlink:href="#ArialMT-6f" transform="translate(198.208984 0)"/>
      <use xlink:href="#ArialMT-74" transform="translate(253.824219 0)"/>
      <use xlink:href="#ArialMT-61" transform="translate(281.607422 0)"/>
      <use xlink:href="#ArialMT-6c" transform="translate(337.222656 0)"/>
      <use xlink:href="#ArialMT-20" transform="translate(359.439453 0)"/>
      <use xlink:href="#ArialMT-48" transform="translate(387.222656 0)"/>
      <use xlink:href="#ArialMT-79" transform="translate(459.439453 0)"/>
      <use xlink:href="#ArialMT-70" transform="translate(509.439453 0)"/>
      <use xlink:href="#ArialMT-65" transform="translate(565.054688 0)"/>
      <use xlink:href="#ArialMT-72" transform="translate(620.669922 0)"/>
      <use xlink:href="#ArialMT-50" transform="translate(653.970703 0)"/>
     </g>
    </g>
   </g>
   <g id="patch_3">
    <path d="M 60.004403 124.2 
L 71.786222 124.2 
L 71.786222 116.013982 
L 60.004403 116.013982 
z
" clip-path="url(#p86b091c174)" style="fill: #4b4279; opacity: 0.8; stroke: #ffffff; stroke-linejoin: miter"/>
   </g>
   <g id="patch_4">
    <path d="M 133.640767 124.2 
L 145.422585 124.2 
L 145.422585 110.994134 
L 133.640767 110.994134 
z
" clip-path="url(#p86b091c174)" style="fill: #4b4279; opacity: 0.8; stroke: #ffffff; stroke-linejoin: miter"/>
   </g>
   <g id="patch_5">
    <path d="M 207.277131 124.2 
L 219.058949 124.2 
L 219.058949 102.051405 
L 207.277131 102.051405 
z
" clip-path="url(#p86b091c174)" style="fill: #4b4279; opacity: 0.8; stroke: #ffffff; stroke-linejoin: miter"/>
   </g>
   <g id="patch_6">
    <path d="M 71.786222 124.2 
L 83.56804 124.2 
L 83.56804 107.822703 
L 71.786222 107.822703 
z
" clip-path="url(#p86b091c174)" style="fill: #3c6682; opacity: 0.8; stroke: #ffffff; stroke-linejoin: miter"/>
   </g>
   <g id="patch_7">
    <path d="M 145.422585 124.2 
L 157.204403 124.2 
L 157.204403 95.45212 
L 145.422585 95.45212 
z
" clip-path="url(#p86b091c174)" style="fill: #3c6682; opacity: 0.8; stroke: #ffffff; stroke-linejoin: miter"/>
   </g>
   <g id="patch_8">
    <path d="M 219.058949 124.2 
L 230.840767 124.2 
L 230.840767 68.613137 
L 219.058949 68.613137 
z
" clip-path="url(#p86b091c174)" style="fill: #3c6682; opacity: 0.8; stroke: #ffffff; stroke-linejoin: miter"/>
   </g>
   <g id="patch_9">
    <path d="M 83.56804 124.2 
L 95.349858 124.2 
L 95.349858 101.756289 
L 83.56804 101.756289 
z
" clip-path="url(#p86b091c174)" style="fill: #2f837f; opacity: 0.8; stroke: #ffffff; stroke-linejoin: miter"/>
   </g>
   <g id="patch_10">
    <path d="M 157.204403 124.2 
L 168.986222 124.2 
L 168.986222 88.945494 
L 157.204403 88.945494 
z
" clip-path="url(#p86b091c174)" style="fill: #2f837f; opacity: 0.8; stroke: #ffffff; stroke-linejoin: miter"/>
   </g>
   <g id="patch_11">
    <path d="M 230.840767 124.2 
L 242.622585 124.2 
L 242.622585 47.492715 
L 230.840767 47.492715 
z
" clip-path="url(#p86b091c174)" style="fill: #2f837f; opacity: 0.8; stroke: #ffffff; stroke-linejoin: miter"/>
   </g>
   <g id="patch_12">
    <path d="M 95.349858 124.2 
L 107.131676 124.2 
L 107.131676 102.187444 
L 95.349858 102.187444 
z
" clip-path="url(#p86b091c174)" style="fill: #45a778; opacity: 0.8; stroke: #ffffff; stroke-linejoin: miter"/>
   </g>
   <g id="patch_13">
    <path d="M 168.986222 124.2 
L 180.76804 124.2 
L 180.76804 89.178159 
L 168.986222 89.178159 
z
" clip-path="url(#p86b091c174)" style="fill: #45a778; opacity: 0.8; stroke: #ffffff; stroke-linejoin: miter"/>
   </g>
   <g id="patch_14">
    <path d="M 242.622585 124.2 
L 254.404403 124.2 
L 254.404403 46.042339 
L 242.622585 46.042339 
z
" clip-path="url(#p86b091c174)" style="fill: #45a778; opacity: 0.8; stroke: #ffffff; stroke-linejoin: miter"/>
   </g>
   <g id="patch_15">
    <path d="M 107.131676 124.2 
L 118.913494 124.2 
L 118.913494 104.594591 
L 107.131676 104.594591 
z
" clip-path="url(#p86b091c174)" style="fill: #8fc456; opacity: 0.8; stroke: #ffffff; stroke-linejoin: miter"/>
   </g>
   <g id="patch_16">
    <path d="M 180.76804 124.2 
L 192.549858 124.2 
L 192.549858 94.307466 
L 180.76804 94.307466 
z
" clip-path="url(#p86b091c174)" style="fill: #8fc456; opacity: 0.8; stroke: #ffffff; stroke-linejoin: miter"/>
   </g>
   <g id="patch_17">
    <path d="M 254.404403 124.2 
L 266.186222 124.2 
L 266.186222 59.420667 
L 254.404403 59.420667 
z
" clip-path="url(#p86b091c174)" style="fill: #8fc456; opacity: 0.8; stroke: #ffffff; stroke-linejoin: miter"/>
   </g>
   <g id="line2d_8">
    <path d="M 65.895313 117.756971 
L 65.895313 114.205623 
" clip-path="url(#p86b091c174)" style="fill: none; stroke: #424242; stroke-width: 2.7; stroke-linecap: round"/>
   </g>
   <g id="line2d_9">
    <path d="M 139.531676 112.951162 
L 139.531676 108.907804 
" clip-path="url(#p86b091c174)" style="fill: none; stroke: #424242; stroke-width: 2.7; stroke-linecap: round"/>
   </g>
   <g id="line2d_10">
    <path d="M 213.16804 103.516312 
L 213.16804 100.622076 
" clip-path="url(#p86b091c174)" style="fill: none; stroke: #424242; stroke-width: 2.7; stroke-linecap: round"/>
   </g>
   <g id="line2d_11">
    <path d="M 77.677131 111.801259 
L 77.677131 102.845714 
" clip-path="url(#p86b091c174)" style="fill: none; stroke: #424242; stroke-width: 2.7; stroke-linecap: round"/>
   </g>
   <g id="line2d_12">
    <path d="M 151.313494 99.932276 
L 151.313494 90.498635 
" clip-path="url(#p86b091c174)" style="fill: none; stroke: #424242; stroke-width: 2.7; stroke-linecap: round"/>
   </g>
   <g id="line2d_13">
    <path d="M 224.949858 73.170229 
L 224.949858 64.604826 
" clip-path="url(#p86b091c174)" style="fill: none; stroke: #424242; stroke-width: 2.7; stroke-linecap: round"/>
   </g>
   <g id="line2d_14">
    <path d="M 89.458949 109.56878 
L 89.458949 93.223816 
" clip-path="url(#p86b091c174)" style="fill: none; stroke: #424242; stroke-width: 2.7; stroke-linecap: round"/>
   </g>
   <g id="line2d_15">
    <path d="M 163.095313 95.748602 
L 163.095313 81.712267 
" clip-path="url(#p86b091c174)" style="fill: none; stroke: #424242; stroke-width: 2.7; stroke-linecap: round"/>
   </g>
   <g id="line2d_16">
    <path d="M 236.731676 55.027078 
L 236.731676 39.970745 
" clip-path="url(#p86b091c174)" style="fill: none; stroke: #424242; stroke-width: 2.7; stroke-linecap: round"/>
   </g>
   <g id="line2d_17">
    <path d="M 101.240767 108.00784 
L 101.240767 95.879785 
" clip-path="url(#p86b091c174)" style="fill: none; stroke: #424242; stroke-width: 2.7; stroke-linecap: round"/>
   </g>
   <g id="line2d_18">
    <path d="M 174.877131 95.291803 
L 174.877131 84.097119 
" clip-path="url(#p86b091c174)" style="fill: none; stroke: #424242; stroke-width: 2.7; stroke-linecap: round"/>
   </g>
   <g id="line2d_19">
    <path d="M 248.513494 55.179466 
L 248.513494 38.783717 
" clip-path="url(#p86b091c174)" style="fill: none; stroke: #424242; stroke-width: 2.7; stroke-linecap: round"/>
   </g>
   <g id="line2d_20">
    <path d="M 113.022585 110.168676 
L 113.022585 98.921323 
" clip-path="url(#p86b091c174)" style="fill: none; stroke: #424242; stroke-width: 2.7; stroke-linecap: round"/>
   </g>
   <g id="line2d_21">
    <path d="M 186.658949 99.042313 
L 186.658949 89.148053 
" clip-path="url(#p86b091c174)" style="fill: none; stroke: #424242; stroke-width: 2.7; stroke-linecap: round"/>
   </g>
   <g id="line2d_22">
    <path d="M 260.295313 65.551709 
L 260.295313 53.583141 
" clip-path="url(#p86b091c174)" style="fill: none; stroke: #424242; stroke-width: 2.7; stroke-linecap: round"/>
   </g>
   <g id="line2d_23">
    <path d="M 65.895313 77.796899 
L 65.895313 75.80744 
L 89.458949 75.80744 
L 89.458949 77.796899 
" clip-path="url(#p86b091c174)" style="fill: none; stroke: #333333; stroke-width: 1.5; stroke-linecap: round"/>
   </g>
   <g id="line2d_24">
    <path d="M 139.531676 65.740099 
L 139.531676 63.75064 
L 163.095313 63.75064 
L 163.095313 65.740099 
" clip-path="url(#p86b091c174)" style="fill: none; stroke: #333333; stroke-width: 1.5; stroke-linecap: round"/>
   </g>
   <g id="line2d_25">
    <path d="M 213.16804 23.495481 
L 213.16804 21.506022 
L 236.731676 21.506022 
L 236.731676 23.495481 
" clip-path="url(#p86b091c174)" style="fill: none; stroke: #333333; stroke-width: 1.5; stroke-linecap: round"/>
   </g>
   <g id="patch_18">
    <path d="M 49.695313 124.2 
L 49.695313 7.2 
" style="fill: none; stroke: #262626; stroke-width: 1.25; stroke-linejoin: miter; stroke-linecap: square"/>
   </g>
   <g id="patch_19">
    <path d="M 276.495313 124.2 
L 276.495313 7.2 
" style="fill: none; stroke: #262626; stroke-width: 1.25; stroke-linejoin: miter; stroke-linecap: square"/>
   </g>
   <g id="patch_20">
    <path d="M 49.695313 124.2 
L 276.495313 124.2 
" style="fill: none; stroke: #262626; stroke-width: 1.25; stroke-linejoin: miter; stroke-linecap: square"/>
   </g>
   <g id="patch_21">
    <path d="M 49.695313 7.2 
L 276.495313 7.2 
" style="fill: none; stroke: #262626; stroke-width: 1.25; stroke-linejoin: miter; stroke-linecap: square"/>
   </g>
   <g id="PathCollection_1">
    <defs>
     <path id="C0_0_1c5486fbb9" d="M 0 2.5 
C 0.663008 2.5 1.29895 2.236584 1.767767 1.767767 
C 2.236584 1.29895 2.5 0.663008 2.5 -0 
C 2.5 -0.663008 2.236584 -1.29895 1.767767 -1.767767 
C 1.29895 -2.236584 0.663008 -2.5 0 -2.5 
C -0.663008 -2.5 -1.29895 -2.236584 -1.767767 -1.767767 
C -2.236584 -1.29895 -2.5 -0.663008 -2.5 0 
C -2.5 0.663008 -2.236584 1.29895 -1.767767 1.767767 
C -1.29895 2.236584 -0.663008 2.5 0 2.5 
z
"/>
    </defs>
    <g clip-path="url(#p86b091c174)">
     <use xlink:href="#C0_0_1c5486fbb9" x="66.4207" y="118.667985" style="fill: #ffffff; stroke: #000000; stroke-width: 0.4"/>
    </g>
    <g clip-path="url(#p86b091c174)">
     <use xlink:href="#C0_0_1c5486fbb9" x="66.949274" y="120.477879" style="fill: #ffffff; stroke: #000000; stroke-width: 0.4"/>
    </g>
    <g clip-path="url(#p86b091c174)">
     <use xlink:href="#C0_0_1c5486fbb9" x="66.102079" y="117.239925" style="fill: #ffffff; stroke: #000000; stroke-width: 0.4"/>
    </g>
   </g>
   <g id="PathCollection_2">
    <defs>
     <path id="C1_0_61aeec0670" d="M 0 2.5 
C 0.663008 2.5 1.29895 2.236584 1.767767 1.767767 
C 2.236584 1.29895 2.5 0.663008 2.5 -0 
C 2.5 -0.663008 2.236584 -1.29895 1.767767 -1.767767 
C 1.29895 -2.236584 0.663008 -2.5 0 -2.5 
C -0.663008 -2.5 -1.29895 -2.236584 -1.767767 -1.767767 
C -2.236584 -1.29895 -2.5 -0.663008 -2.5 0 
C -2.5 0.663008 -2.236584 1.29895 -1.767767 1.767767 
C -1.29895 2.236584 -0.663008 2.5 0 2.5 
z
"/>
    </defs>
    <g clip-path="url(#p86b091c174)">
     <use xlink:href="#C1_0_61aeec0670" x="78.527732" y="110.704449" style="fill: #ffffff; stroke: #000000; stroke-width: 0.4"/>
    </g>
    <g clip-path="url(#p86b091c174)">
     <use xlink:href="#C1_0_61aeec0670" x="76.689496" y="114.974884" style="fill: #ffffff; stroke: #000000; stroke-width: 0.4"/>
    </g>
    <g clip-path="url(#p86b091c174)">
     <use xlink:href="#C1_0_61aeec0670" x="77.2953" y="114.133321" style="fill: #ffffff; stroke: #000000; stroke-width: 0.4"/>
    </g>
   </g>
   <g id="PathCollection_3">
    <defs>
     <path id="C2_0_75c6a3363a" d="M 0 2.5 
C 0.663008 2.5 1.29895 2.236584 1.767767 1.767767 
C 2.236584 1.29895 2.5 0.663008 2.5 -0 
C 2.5 -0.663008 2.236584 -1.29895 1.767767 -1.767767 
C 1.29895 -2.236584 0.663008 -2.5 0 -2.5 
C -0.663008 -2.5 -1.29895 -2.236584 -1.767767 -1.767767 
C -2.236584 -1.29895 -2.5 -0.663008 -2.5 0 
C -2.5 0.663008 -2.236584 1.29895 -1.767767 1.767767 
C -1.29895 2.236584 -0.663008 2.5 0 2.5 
z
"/>
    </defs>
    <g clip-path="url(#p86b091c174)">
     <use xlink:href="#C2_0_75c6a3363a" x="88.931679" y="114.00197" style="fill: #ffffff; stroke: #000000; stroke-width: 0.4"/>
    </g>
    <g clip-path="url(#p86b091c174)">
     <use xlink:href="#C2_0_75c6a3363a" x="88.001003" y="113.210809" style="fill: #ffffff; stroke: #000000; stroke-width: 0.4"/>
    </g>
    <g clip-path="url(#p86b091c174)">
     <use xlink:href="#C2_0_75c6a3363a" x="89.590503" y="119.976913" style="fill: #ffffff; stroke: #000000; stroke-width: 0.4"/>
    </g>
   </g>
   <g id="PathCollection_4">
    <defs>
     <path id="C3_0_bab1e46f41" d="M 0 2.5 
C 0.663008 2.5 1.29895 2.236584 1.767767 1.767767 
C 2.236584 1.29895 2.5 0.663008 2.5 -0 
C 2.5 -0.663008 2.236584 -1.29895 1.767767 -1.767767 
C 1.29895 -2.236584 0.663008 -2.5 0 -2.5 
C -0.663008 -2.5 -1.29895 -2.236584 -1.767767 -1.767767 
C -2.236584 -1.29895 -2.5 -0.663008 -2.5 0 
C -2.5 0.663008 -2.236584 1.29895 -1.767767 1.767767 
C -1.29895 2.236584 -0.663008 2.5 0 2.5 
z
"/>
    </defs>
    <g clip-path="url(#p86b091c174)">
     <use xlink:href="#C3_0_bab1e46f41" x="100.30244" y="111.492555" style="fill: #ffffff; stroke: #000000; stroke-width: 0.4"/>
    </g>
    <g clip-path="url(#p86b091c174)">
     <use xlink:href="#C3_0_bab1e46f41" x="101.66683" y="110.631137" style="fill: #ffffff; stroke: #000000; stroke-width: 0.4"/>
    </g>
    <g clip-path="url(#p86b091c174)">
     <use xlink:href="#C3_0_bab1e46f41" x="100.412616" y="110.562406" style="fill: #ffffff; stroke: #000000; stroke-width: 0.4"/>
    </g>
   </g>
   <g id="PathCollection_5">
    <defs>
     <path id="C4_0_01301e5f72" d="M 0 2.5 
C 0.663008 2.5 1.29895 2.236584 1.767767 1.767767 
C 2.236584 1.29895 2.5 0.663008 2.5 -0 
C 2.5 -0.663008 2.236584 -1.29895 1.767767 -1.767767 
C 1.29895 -2.236584 0.663008 -2.5 0 -2.5 
C -0.663008 -2.5 -1.29895 -2.236584 -1.767767 -1.767767 
C -2.236584 -1.29895 -2.5 -0.663008 -2.5 0 
C -2.5 0.663008 -2.236584 1.29895 -1.767767 1.767767 
C -1.29895 2.236584 -0.663008 2.5 0 2.5 
z
"/>
    </defs>
    <g clip-path="url(#p86b091c174)">
     <use xlink:href="#C4_0_01301e5f72" x="112.447808" y="111.497137" style="fill: #ffffff; stroke: #000000; stroke-width: 0.4"/>
    </g>
    <g clip-path="url(#p86b091c174)">
     <use xlink:href="#C4_0_01301e5f72" x="114.193659" y="116.916129" style="fill: #ffffff; stroke: #000000; stroke-width: 0.4"/>
    </g>
    <g clip-path="url(#p86b091c174)">
     <use xlink:href="#C4_0_01301e5f72" x="112.952112" y="113.575843" style="fill: #ffffff; stroke: #000000; stroke-width: 0.4"/>
    </g>
   </g>
   <g id="PathCollection_6">
    <defs>
     <path id="C5_0_414b89ca6a" d="M 0 2.5 
C 0.663008 2.5 1.29895 2.236584 1.767767 1.767767 
C 2.236584 1.29895 2.5 0.663008 2.5 -0 
C 2.5 -0.663008 2.236584 -1.29895 1.767767 -1.767767 
C 1.29895 -2.236584 0.663008 -2.5 0 -2.5 
C -0.663008 -2.5 -1.29895 -2.236584 -1.767767 -1.767767 
C -2.236584 -1.29895 -2.5 -0.663008 -2.5 0 
C -2.5 0.663008 -2.236584 1.29895 -1.767767 1.767767 
C -1.29895 2.236584 -0.663008 2.5 0 2.5 
z
"/>
    </defs>
    <g clip-path="url(#p86b091c174)">
     <use xlink:href="#C5_0_414b89ca6a" x="138.719906" y="117.171194" style="fill: #ffffff; stroke: #000000; stroke-width: 0.4"/>
    </g>
    <g clip-path="url(#p86b091c174)">
     <use xlink:href="#C5_0_414b89ca6a" x="138.600355" y="114.049317" style="fill: #ffffff; stroke: #000000; stroke-width: 0.4"/>
    </g>
    <g clip-path="url(#p86b091c174)">
     <use xlink:href="#C5_0_414b89ca6a" x="138.850355" y="109.487161" style="fill: #ffffff; stroke: #000000; stroke-width: 0.4"/>
    </g>
   </g>
   <g id="PathCollection_7">
    <defs>
     <path id="C6_0_5028e1b054" d="M 0 2.5 
C 0.663008 2.5 1.29895 2.236584 1.767767 1.767767 
C 2.236584 1.29895 2.5 0.663008 2.5 -0 
C 2.5 -0.663008 2.236584 -1.29895 1.767767 -1.767767 
C 1.29895 -2.236584 0.663008 -2.5 0 -2.5 
C -0.663008 -2.5 -1.29895 -2.236584 -1.767767 -1.767767 
C -2.236584 -1.29895 -2.5 -0.663008 -2.5 0 
C -2.5 0.663008 -2.236584 1.29895 -1.767767 1.767767 
C -1.29895 2.236584 -0.663008 2.5 0 2.5 
z
"/>
    </defs>
    <g clip-path="url(#p86b091c174)">
     <use xlink:href="#C6_0_5028e1b054" x="152.579234" y="104.546225" style="fill: #ffffff; stroke: #000000; stroke-width: 0.4"/>
    </g>
    <g clip-path="url(#p86b091c174)">
     <use xlink:href="#C6_0_5028e1b054" x="151.001406" y="99.945886" style="fill: #ffffff; stroke: #000000; stroke-width: 0.4"/>
    </g>
    <g clip-path="url(#p86b091c174)">
     <use xlink:href="#C6_0_5028e1b054" x="152.644132" y="102.549996" style="fill: #ffffff; stroke: #000000; stroke-width: 0.4"/>
    </g>
   </g>
   <g id="PathCollection_8">
    <defs>
     <path id="C7_0_9cf194194b" d="M 0 2.5 
C 0.663008 2.5 1.29895 2.236584 1.767767 1.767767 
C 2.236584 1.29895 2.5 0.663008 2.5 -0 
C 2.5 -0.663008 2.236584 -1.29895 1.767767 -1.767767 
C 1.29895 -2.236584 0.663008 -2.5 0 -2.5 
C -0.663008 -2.5 -1.29895 -2.236584 -1.767767 -1.767767 
C -2.236584 -1.29895 -2.5 -0.663008 -2.5 0 
C -2.5 0.663008 -2.236584 1.29895 -1.767767 1.767767 
C -1.29895 2.236584 -0.663008 2.5 0 2.5 
z
"/>
    </defs>
    <g clip-path="url(#p86b091c174)">
     <use xlink:href="#C7_0_9cf194194b" x="162.129334" y="97.372323" style="fill: #ffffff; stroke: #000000; stroke-width: 0.4"/>
    </g>
    <g clip-path="url(#p86b091c174)">
     <use xlink:href="#C7_0_9cf194194b" x="162.417999" y="101.651921" style="fill: #ffffff; stroke: #000000; stroke-width: 0.4"/>
    </g>
    <g clip-path="url(#p86b091c174)">
     <use xlink:href="#C7_0_9cf194194b" x="161.939778" y="101.505297" style="fill: #ffffff; stroke: #000000; stroke-width: 0.4"/>
    </g>
   </g>
   <g id="PathCollection_9">
    <defs>
     <path id="C8_0_0f079c4351" d="M 0 2.5 
C 0.663008 2.5 1.29895 2.236584 1.767767 1.767767 
C 2.236584 1.29895 2.5 0.663008 2.5 -0 
C 2.5 -0.663008 2.236584 -1.29895 1.767767 -1.767767 
C 1.29895 -2.236584 0.663008 -2.5 0 -2.5 
C -0.663008 -2.5 -1.29895 -2.236584 -1.767767 -1.767767 
C -2.236584 -1.29895 -2.5 -0.663008 -2.5 0 
C -2.5 0.663008 -2.236584 1.29895 -1.767767 1.767767 
C -1.29895 2.236584 -0.663008 2.5 0 2.5 
z
"/>
    </defs>
    <g clip-path="url(#p86b091c174)">
     <use xlink:href="#C8_0_0f079c4351" x="174.136788" y="100.518637" style="fill: #ffffff; stroke: #000000; stroke-width: 0.4"/>
    </g>
    <g clip-path="url(#p86b091c174)">
     <use xlink:href="#C8_0_0f079c4351" x="173.407099" y="95.881642" style="fill: #ffffff; stroke: #000000; stroke-width: 0.4"/>
    </g>
    <g clip-path="url(#p86b091c174)">
     <use xlink:href="#C8_0_0f079c4351" x="174.628789" y="101.864221" style="fill: #ffffff; stroke: #000000; stroke-width: 0.4"/>
    </g>
   </g>
   <g id="PathCollection_10">
    <defs>
     <path id="C9_0_492fdd6c9d" d="M 0 2.5 
C 0.663008 2.5 1.29895 2.236584 1.767767 1.767767 
C 2.236584 1.29895 2.5 0.663008 2.5 -0 
C 2.5 -0.663008 2.236584 -1.29895 1.767767 -1.767767 
C 1.29895 -2.236584 0.663008 -2.5 0 -2.5 
C -0.663008 -2.5 -1.29895 -2.236584 -1.767767 -1.767767 
C -2.236584 -1.29895 -2.5 -0.663008 -2.5 0 
C -2.5 0.663008 -2.236584 1.29895 -1.767767 1.767767 
C -1.29895 2.236584 -0.663008 2.5 0 2.5 
z
"/>
    </defs>
    <g clip-path="url(#p86b091c174)">
     <use xlink:href="#C9_0_492fdd6c9d" x="185.880216" y="98.158901" style="fill: #ffffff; stroke: #000000; stroke-width: 0.4"/>
    </g>
    <g clip-path="url(#p86b091c174)">
     <use xlink:href="#C9_0_492fdd6c9d" x="186.512567" y="106.577584" style="fill: #ffffff; stroke: #000000; stroke-width: 0.4"/>
    </g>
    <g clip-path="url(#p86b091c174)">
     <use xlink:href="#C9_0_492fdd6c9d" x="186.538056" y="104.103298" style="fill: #ffffff; stroke: #000000; stroke-width: 0.4"/>
    </g>
   </g>
   <g id="PathCollection_11">
    <defs>
     <path id="Ca_0_de1d823558" d="M 0 2.5 
C 0.663008 2.5 1.29895 2.236584 1.767767 1.767767 
C 2.236584 1.29895 2.5 0.663008 2.5 -0 
C 2.5 -0.663008 2.236584 -1.29895 1.767767 -1.767767 
C 1.29895 -2.236584 0.663008 -2.5 0 -2.5 
C -0.663008 -2.5 -1.29895 -2.236584 -1.767767 -1.767767 
C -2.236584 -1.29895 -2.5 -0.663008 -2.5 0 
C -2.5 0.663008 -2.236584 1.29895 -1.767767 1.767767 
C -1.29895 2.236584 -0.663008 2.5 0 2.5 
z
"/>
    </defs>
    <g clip-path="url(#p86b091c174)">
     <use xlink:href="#Ca_0_de1d823558" x="211.959836" y="103.438906" style="fill: #ffffff; stroke: #000000; stroke-width: 0.4"/>
    </g>
    <g clip-path="url(#p86b091c174)">
     <use xlink:href="#Ca_0_de1d823558" x="214.066371" y="104.22243" style="fill: #ffffff; stroke: #000000; stroke-width: 0.4"/>
    </g>
    <g clip-path="url(#p86b091c174)">
     <use xlink:href="#Ca_0_de1d823558" x="211.84917" y="102.418645" style="fill: #ffffff; stroke: #000000; stroke-width: 0.4"/>
    </g>
   </g>
   <g id="PathCollection_12">
    <defs>
     <path id="Cb_0_96cb29dcb4" d="M 0 2.5 
C 0.663008 2.5 1.29895 2.236584 1.767767 1.767767 
C 2.236584 1.29895 2.5 0.663008 2.5 -0 
C 2.5 -0.663008 2.236584 -1.29895 1.767767 -1.767767 
C 1.29895 -2.236584 0.663008 -2.5 0 -2.5 
C -0.663008 -2.5 -1.29895 -2.236584 -1.767767 -1.767767 
C -2.236584 -1.29895 -2.5 -0.663008 -2.5 0 
C -2.5 0.663008 -2.236584 1.29895 -1.767767 1.767767 
C -1.29895 2.236584 -0.663008 2.5 0 2.5 
z
"/>
    </defs>
    <g clip-path="url(#p86b091c174)">
     <use xlink:href="#Cb_0_96cb29dcb4" x="224.355315" y="71.340388" style="fill: #ffffff; stroke: #000000; stroke-width: 0.4"/>
    </g>
    <g clip-path="url(#p86b091c174)">
     <use xlink:href="#Cb_0_96cb29dcb4" x="225.370201" y="75.7269" style="fill: #ffffff; stroke: #000000; stroke-width: 0.4"/>
    </g>
    <g clip-path="url(#p86b091c174)">
     <use xlink:href="#Cb_0_96cb29dcb4" x="225.826563" y="58.665017" style="fill: #ffffff; stroke: #000000; stroke-width: 0.4"/>
    </g>
   </g>
   <g id="PathCollection_13">
    <defs>
     <path id="Cc_0_dc0ffd758f" d="M 0 2.5 
C 0.663008 2.5 1.29895 2.236584 1.767767 1.767767 
C 2.236584 1.29895 2.5 0.663008 2.5 -0 
C 2.5 -0.663008 2.236584 -1.29895 1.767767 -1.767767 
C 1.29895 -2.236584 0.663008 -2.5 0 -2.5 
C -0.663008 -2.5 -1.29895 -2.236584 -1.767767 -1.767767 
C -2.236584 -1.29895 -2.5 -0.663008 -2.5 0 
C -2.5 0.663008 -2.236584 1.29895 -1.767767 1.767767 
C -1.29895 2.236584 -0.663008 2.5 0 2.5 
z
"/>
    </defs>
    <g clip-path="url(#p86b091c174)">
     <use xlink:href="#Cc_0_dc0ffd758f" x="235.966252" y="60.334396" style="fill: #ffffff; stroke: #000000; stroke-width: 0.4"/>
    </g>
    <g clip-path="url(#p86b091c174)">
     <use xlink:href="#Cc_0_dc0ffd758f" x="238.025568" y="64.922517" style="fill: #ffffff; stroke: #000000; stroke-width: 0.4"/>
    </g>
    <g clip-path="url(#p86b091c174)">
     <use xlink:href="#Cc_0_dc0ffd758f" x="237.681779" y="63.720503" style="fill: #ffffff; stroke: #000000; stroke-width: 0.4"/>
    </g>
   </g>
   <g id="PathCollection_14">
    <defs>
     <path id="Cd_0_7aac06d709" d="M 0 2.5 
C 0.663008 2.5 1.29895 2.236584 1.767767 1.767767 
C 2.236584 1.29895 2.5 0.663008 2.5 -0 
C 2.5 -0.663008 2.236584 -1.29895 1.767767 -1.767767 
C 1.29895 -2.236584 0.663008 -2.5 0 -2.5 
C -0.663008 -2.5 -1.29895 -2.236584 -1.767767 -1.767767 
C -2.236584 -1.29895 -2.5 -0.663008 -2.5 0 
C -2.5 0.663008 -2.236584 1.29895 -1.767767 1.767767 
C -1.29895 2.236584 -0.663008 2.5 0 2.5 
z
"/>
    </defs>
    <g clip-path="url(#p86b091c174)">
     <use xlink:href="#Cd_0_7aac06d709" x="248.102227" y="59.590583" style="fill: #ffffff; stroke: #000000; stroke-width: 0.4"/>
    </g>
    <g clip-path="url(#p86b091c174)">
     <use xlink:href="#Cd_0_7aac06d709" x="247.658124" y="59.078925" style="fill: #ffffff; stroke: #000000; stroke-width: 0.4"/>
    </g>
    <g clip-path="url(#p86b091c174)">
     <use xlink:href="#Cd_0_7aac06d709" x="248.073546" y="64.934736" style="fill: #ffffff; stroke: #000000; stroke-width: 0.4"/>
    </g>
   </g>
   <g id="PathCollection_15">
    <defs>
     <path id="Ce_0_d50163658b" d="M 0 2.5 
C 0.663008 2.5 1.29895 2.236584 1.767767 1.767767 
C 2.236584 1.29895 2.5 0.663008 2.5 -0 
C 2.5 -0.663008 2.236584 -1.29895 1.767767 -1.767767 
C 1.29895 -2.236584 0.663008 -2.5 0 -2.5 
C -0.663008 -2.5 -1.29895 -2.236584 -1.767767 -1.767767 
C -2.236584 -1.29895 -2.5 -0.663008 -2.5 0 
C -2.5 0.663008 -2.236584 1.29895 -1.767767 1.767767 
C -1.29895 2.236584 -0.663008 2.5 0 2.5 
z
"/>
    </defs>
    <g clip-path="url(#p86b091c174)">
     <use xlink:href="#Ce_0_d50163658b" x="259.623917" y="64.794221" style="fill: #ffffff; stroke: #000000; stroke-width: 0.4"/>
    </g>
    <g clip-path="url(#p86b091c174)">
     <use xlink:href="#Ce_0_d50163658b" x="259.822698" y="70.584356" style="fill: #ffffff; stroke: #000000; stroke-width: 0.4"/>
    </g>
   </g>
   <g id="PathCollection_16">
    <path d="M 65.167437 109.226237 
L 62.667437 114.226237 
L 67.667437 114.226237 
z
" clip-path="url(#p86b091c174)" style="fill: #ffffff; stroke: #000000; stroke-width: 0.4"/>
    <path d="M 64.545746 110.139585 
L 62.045746 115.139585 
L 67.045746 115.139585 
z
" clip-path="url(#p86b091c174)" style="fill: #ffffff; stroke: #000000; stroke-width: 0.4"/>
    <path d="M 66.295638 111.023913 
L 63.795638 116.023913 
L 68.795638 116.023913 
z
" clip-path="url(#p86b091c174)" style="fill: #ffffff; stroke: #000000; stroke-width: 0.4"/>
   </g>
   <g id="PathCollection_17">
    <path d="M 78.674125 93.419825 
L 76.174125 98.419825 
L 81.174125 98.419825 
z
" clip-path="url(#p86b091c174)" style="fill: #ffffff; stroke: #000000; stroke-width: 0.4"/>
    <path d="M 77.8515 100.133999 
L 75.3515 105.133999 
L 80.3515 105.133999 
z
" clip-path="url(#p86b091c174)" style="fill: #ffffff; stroke: #000000; stroke-width: 0.4"/>
    <path d="M 79.086014 95.471039 
L 76.586014 100.471039 
L 81.586014 100.471039 
z
" clip-path="url(#p86b091c174)" style="fill: #ffffff; stroke: #000000; stroke-width: 0.4"/>
   </g>
   <g id="PathCollection_18">
    <path d="M 88.870242 81.265276 
L 86.370242 86.265276 
L 91.370242 86.265276 
z
" clip-path="url(#p86b091c174)" style="fill: #ffffff; stroke: #000000; stroke-width: 0.4"/>
    <path d="M 90.853135 81.283604 
L 88.353135 86.283604 
L 93.353135 86.283604 
z
" clip-path="url(#p86b091c174)" style="fill: #ffffff; stroke: #000000; stroke-width: 0.4"/>
    <path d="M 89.320951 89.066914 
L 86.820951 94.066914 
L 91.820951 94.066914 
z
" clip-path="url(#p86b091c174)" style="fill: #ffffff; stroke: #000000; stroke-width: 0.4"/>
   </g>
   <g id="PathCollection_19">
    <path d="M 100.142936 87.000427 
L 97.642936 92.000427 
L 102.642936 92.000427 
z
" clip-path="url(#p86b091c174)" style="fill: #ffffff; stroke: #000000; stroke-width: 0.4"/>
    <path d="M 100.034642 84.336751 
L 97.534642 89.336751 
L 102.534642 89.336751 
z
" clip-path="url(#p86b091c174)" style="fill: #ffffff; stroke: #000000; stroke-width: 0.4"/>
   </g>
   <g id="PathCollection_20">
    <path d="M 113.834048 93.378587 
L 111.334048 98.378587 
L 116.334048 98.378587 
z
" clip-path="url(#p86b091c174)" style="fill: #ffffff; stroke: #000000; stroke-width: 0.4"/>
    <path d="M 113.565407 90.455264 
L 111.065407 95.455264 
L 116.065407 95.455264 
z
" clip-path="url(#p86b091c174)" style="fill: #ffffff; stroke: #000000; stroke-width: 0.4"/>
    <path d="M 111.667895 89.682431 
L 109.167895 94.682431 
L 114.167895 94.682431 
z
" clip-path="url(#p86b091c174)" style="fill: #ffffff; stroke: #000000; stroke-width: 0.4"/>
   </g>
   <g id="PathCollection_21">
    <path d="M 140.011317 104.981767 
L 137.511317 109.981767 
L 142.511317 109.981767 
z
" clip-path="url(#p86b091c174)" style="fill: #ffffff; stroke: #000000; stroke-width: 0.4"/>
    <path d="M 138.349634 104.51593 
L 135.849634 109.51593 
L 140.849634 109.51593 
z
" clip-path="url(#p86b091c174)" style="fill: #ffffff; stroke: #000000; stroke-width: 0.4"/>
    <path d="M 138.982364 106.8329 
L 136.482364 111.8329 
L 141.482364 111.8329 
z
" clip-path="url(#p86b091c174)" style="fill: #ffffff; stroke: #000000; stroke-width: 0.4"/>
   </g>
   <g id="PathCollection_22">
    <path d="M 150.233778 80.791801 
L 147.733778 85.791801 
L 152.733778 85.791801 
z
" clip-path="url(#p86b091c174)" style="fill: #ffffff; stroke: #000000; stroke-width: 0.4"/>
    <path d="M 151.524904 86.559027 
L 149.024904 91.559027 
L 154.024904 91.559027 
z
" clip-path="url(#p86b091c174)" style="fill: #ffffff; stroke: #000000; stroke-width: 0.4"/>
    <path d="M 150.555947 83.866331 
L 148.055947 88.866331 
L 153.055947 88.866331 
z
" clip-path="url(#p86b091c174)" style="fill: #ffffff; stroke: #000000; stroke-width: 0.4"/>
   </g>
   <g id="PathCollection_23">
    <path d="M 163.391502 69.208476 
L 160.891502 74.208476 
L 165.891502 74.208476 
z
" clip-path="url(#p86b091c174)" style="fill: #ffffff; stroke: #000000; stroke-width: 0.4"/>
    <path d="M 161.948054 77.665342 
L 159.448054 82.665342 
L 164.448054 82.665342 
z
" clip-path="url(#p86b091c174)" style="fill: #ffffff; stroke: #000000; stroke-width: 0.4"/>
    <path d="M 163.534762 77.821131 
L 161.034762 82.821131 
L 166.034762 82.821131 
z
" clip-path="url(#p86b091c174)" style="fill: #ffffff; stroke: #000000; stroke-width: 0.4"/>
   </g>
   <g id="PathCollection_24">
    <path d="M 174.747962 80.730708 
L 172.247962 85.730708 
L 177.247962 85.730708 
z
" clip-path="url(#p86b091c174)" style="fill: #ffffff; stroke: #000000; stroke-width: 0.4"/>
    <path d="M 174.919399 77.460679 
L 172.419399 82.460679 
L 177.419399 82.460679 
z
" clip-path="url(#p86b091c174)" style="fill: #ffffff; stroke: #000000; stroke-width: 0.4"/>
   </g>
   <g id="PathCollection_25">
    <path d="M 187.887224 78.69324 
L 185.387224 83.69324 
L 190.387224 83.69324 
z
" clip-path="url(#p86b091c174)" style="fill: #ffffff; stroke: #000000; stroke-width: 0.4"/>
    <path d="M 186.819589 87.913775 
L 184.319589 92.913775 
L 189.319589 92.913775 
z
" clip-path="url(#p86b091c174)" style="fill: #ffffff; stroke: #000000; stroke-width: 0.4"/>
    <path d="M 186.037403 80.083117 
L 183.537403 85.083117 
L 188.537403 85.083117 
z
" clip-path="url(#p86b091c174)" style="fill: #ffffff; stroke: #000000; stroke-width: 0.4"/>
   </g>
   <g id="PathCollection_26">
    <path d="M 212.849961 101.959167 
L 210.349961 106.959167 
L 215.349961 106.959167 
z
" clip-path="url(#p86b091c174)" style="fill: #ffffff; stroke: #000000; stroke-width: 0.4"/>
    <path d="M 214.209248 99.203851 
L 211.709248 104.203851 
L 216.709248 104.203851 
z
" clip-path="url(#p86b091c174)" style="fill: #ffffff; stroke: #000000; stroke-width: 0.4"/>
    <path d="M 212.793687 102.492208 
L 210.293687 107.492208 
L 215.293687 107.492208 
z
" clip-path="url(#p86b091c174)" style="fill: #ffffff; stroke: #000000; stroke-width: 0.4"/>
   </g>
   <g id="PathCollection_27">
    <path d="M 225.01014 62.474447 
L 222.51014 67.474447 
L 227.51014 67.474447 
z
" clip-path="url(#p86b091c174)" style="fill: #ffffff; stroke: #000000; stroke-width: 0.4"/>
    <path d="M 224.844966 60.429342 
L 222.344966 65.429342 
L 227.344966 65.429342 
z
" clip-path="url(#p86b091c174)" style="fill: #ffffff; stroke: #000000; stroke-width: 0.4"/>
    <path d="M 225.183776 64.618828 
L 222.683776 69.618828 
L 227.683776 69.618828 
z
" clip-path="url(#p86b091c174)" style="fill: #ffffff; stroke: #000000; stroke-width: 0.4"/>
   </g>
   <g id="PathCollection_28">
    <path d="M 236.527624 26.963858 
L 234.027624 31.963858 
L 239.027624 31.963858 
z
" clip-path="url(#p86b091c174)" style="fill: #ffffff; stroke: #000000; stroke-width: 0.4"/>
    <path d="M 236.523894 42.454111 
L 234.023894 47.454111 
L 239.023894 47.454111 
z
" clip-path="url(#p86b091c174)" style="fill: #ffffff; stroke: #000000; stroke-width: 0.4"/>
    <path d="M 237.722921 45.354524 
L 235.222921 50.354524 
L 240.222921 50.354524 
z
" clip-path="url(#p86b091c174)" style="fill: #ffffff; stroke: #000000; stroke-width: 0.4"/>
   </g>
   <g id="PathCollection_29">
    <path d="M 247.771958 36.998463 
L 245.271958 41.998463 
L 250.271958 41.998463 
z
" clip-path="url(#p86b091c174)" style="fill: #ffffff; stroke: #000000; stroke-width: 0.4"/>
    <path d="M 247.863045 33.865894 
L 245.363045 38.865894 
L 250.363045 38.865894 
z
" clip-path="url(#p86b091c174)" style="fill: #ffffff; stroke: #000000; stroke-width: 0.4"/>
   </g>
   <g id="PathCollection_30">
    <path d="M 260.544673 44.615293 
L 258.044673 49.615293 
L 263.044673 49.615293 
z
" clip-path="url(#p86b091c174)" style="fill: #ffffff; stroke: #000000; stroke-width: 0.4"/>
    <path d="M 260.644787 49.038462 
L 258.144787 54.038462 
L 263.144787 54.038462 
z
" clip-path="url(#p86b091c174)" style="fill: #ffffff; stroke: #000000; stroke-width: 0.4"/>
    <path d="M 259.111084 49.977774 
L 256.611084 54.977774 
L 261.611084 54.977774 
z
" clip-path="url(#p86b091c174)" style="fill: #ffffff; stroke: #000000; stroke-width: 0.4"/>
   </g>
   <g id="PathCollection_31">
    <path d="M 64.832509 118.739519 
L 69.832509 118.739519 
L 69.832509 113.739519 
L 64.832509 113.739519 
z
" clip-path="url(#p86b091c174)" style="fill: #ffffff; stroke: #000000; stroke-width: 0.4"/>
    <path d="M 62.675159 118.91058 
L 67.675159 118.91058 
L 67.675159 113.91058 
L 62.675159 113.91058 
z
" clip-path="url(#p86b091c174)" style="fill: #ffffff; stroke: #000000; stroke-width: 0.4"/>
    <path d="M 63.280227 119.700214 
L 68.280227 119.700214 
L 68.280227 114.700214 
L 63.280227 114.700214 
z
" clip-path="url(#p86b091c174)" style="fill: #ffffff; stroke: #000000; stroke-width: 0.4"/>
   </g>
   <g id="PathCollection_32">
    <path d="M 76.242443 113.540463 
L 81.242443 113.540463 
L 81.242443 108.540463 
L 76.242443 108.540463 
z
" clip-path="url(#p86b091c174)" style="fill: #ffffff; stroke: #000000; stroke-width: 0.4"/>
    <path d="M 76.375656 114.507267 
L 81.375656 114.507267 
L 81.375656 109.507267 
L 76.375656 109.507267 
z
" clip-path="url(#p86b091c174)" style="fill: #ffffff; stroke: #000000; stroke-width: 0.4"/>
    <path d="M 74.86343 113.51908 
L 79.86343 113.51908 
L 79.86343 108.51908 
L 74.86343 108.51908 
z
" clip-path="url(#p86b091c174)" style="fill: #ffffff; stroke: #000000; stroke-width: 0.4"/>
   </g>
   <g id="PathCollection_33">
    <path d="M 87.562252 104.42226 
L 92.562252 104.42226 
L 92.562252 99.42226 
L 87.562252 99.42226 
z
" clip-path="url(#p86b091c174)" style="fill: #ffffff; stroke: #000000; stroke-width: 0.4"/>
    <path d="M 86.237681 106.823234 
L 91.237681 106.823234 
L 91.237681 101.823234 
L 86.237681 101.823234 
z
" clip-path="url(#p86b091c174)" style="fill: #ffffff; stroke: #000000; stroke-width: 0.4"/>
    <path d="M 87.499184 105.755625 
L 92.499184 105.755625 
L 92.499184 100.755625 
L 87.499184 100.755625 
z
" clip-path="url(#p86b091c174)" style="fill: #ffffff; stroke: #000000; stroke-width: 0.4"/>
   </g>
   <g id="PathCollection_34">
    <path d="M 99.5124 105.318807 
L 104.5124 105.318807 
L 104.5124 100.318807 
L 99.5124 100.318807 
z
" clip-path="url(#p86b091c174)" style="fill: #ffffff; stroke: #000000; stroke-width: 0.4"/>
    <path d="M 98.032576 105.326444 
L 103.032576 105.326444 
L 103.032576 100.326444 
L 98.032576 100.326444 
z
" clip-path="url(#p86b091c174)" style="fill: #ffffff; stroke: #000000; stroke-width: 0.4"/>
    <path d="M 97.724631 105.331026 
L 102.724631 105.331026 
L 102.724631 100.331026 
L 97.724631 100.331026 
z
" clip-path="url(#p86b091c174)" style="fill: #ffffff; stroke: #000000; stroke-width: 0.4"/>
   </g>
   <g id="PathCollection_35">
    <path d="M 111.816952 107.919862 
L 116.816952 107.919862 
L 116.816952 102.919862 
L 111.816952 102.919862 
z
" clip-path="url(#p86b091c174)" style="fill: #ffffff; stroke: #000000; stroke-width: 0.4"/>
    <path d="M 110.073982 109.199771 
L 115.073982 109.199771 
L 115.073982 104.199771 
L 110.073982 104.199771 
z
" clip-path="url(#p86b091c174)" style="fill: #ffffff; stroke: #000000; stroke-width: 0.4"/>
    <path d="M 109.423152 108.726296 
L 114.423152 108.726296 
L 114.423152 103.726296 
L 109.423152 103.726296 
z
" clip-path="url(#p86b091c174)" style="fill: #ffffff; stroke: #000000; stroke-width: 0.4"/>
   </g>
   <g id="PathCollection_36">
    <path d="M 136.796348 113.795528 
L 141.796348 113.795528 
L 141.796348 108.795528 
L 136.796348 108.795528 
z
" clip-path="url(#p86b091c174)" style="fill: #ffffff; stroke: #000000; stroke-width: 0.4"/>
    <path d="M 136.345244 115.46338 
L 141.345244 115.46338 
L 141.345244 110.46338 
L 136.345244 110.46338 
z
" clip-path="url(#p86b091c174)" style="fill: #ffffff; stroke: #000000; stroke-width: 0.4"/>
    <path d="M 137.919933 112.650025 
L 142.919933 112.650025 
L 142.919933 107.650025 
L 137.919933 107.650025 
z
" clip-path="url(#p86b091c174)" style="fill: #ffffff; stroke: #000000; stroke-width: 0.4"/>
   </g>
   <g id="PathCollection_37">
    <path d="M 149.773663 99.206404 
L 154.773663 99.206404 
L 154.773663 94.206404 
L 149.773663 94.206404 
z
" clip-path="url(#p86b091c174)" style="fill: #ffffff; stroke: #000000; stroke-width: 0.4"/>
    <path d="M 148.581661 103.255375 
L 153.581661 103.255375 
L 153.581661 98.255375 
L 148.581661 98.255375 
z
" clip-path="url(#p86b091c174)" style="fill: #ffffff; stroke: #000000; stroke-width: 0.4"/>
    <path d="M 147.484626 98.34804 
L 152.484626 98.34804 
L 152.484626 93.34804 
L 147.484626 93.34804 
z
" clip-path="url(#p86b091c174)" style="fill: #ffffff; stroke: #000000; stroke-width: 0.4"/>
   </g>
   <g id="PathCollection_38">
    <path d="M 161.844646 89.484903 
L 166.844646 89.484903 
L 166.844646 84.484903 
L 161.844646 84.484903 
z
" clip-path="url(#p86b091c174)" style="fill: #ffffff; stroke: #000000; stroke-width: 0.4"/>
    <path d="M 161.354566 92.461683 
L 166.354566 92.461683 
L 166.354566 87.461683 
L 161.354566 87.461683 
z
" clip-path="url(#p86b091c174)" style="fill: #ffffff; stroke: #000000; stroke-width: 0.4"/>
    <path d="M 160.571904 93.338374 
L 165.571904 93.338374 
L 165.571904 88.338374 
L 160.571904 88.338374 
z
" clip-path="url(#p86b091c174)" style="fill: #ffffff; stroke: #000000; stroke-width: 0.4"/>
   </g>
   <g id="PathCollection_39">
    <path d="M 172.597886 85.521463 
L 177.597886 85.521463 
L 177.597886 80.521463 
L 172.597886 80.521463 
z
" clip-path="url(#p86b091c174)" style="fill: #ffffff; stroke: #000000; stroke-width: 0.4"/>
    <path d="M 173.166431 87.326775 
L 178.166431 87.326775 
L 178.166431 82.326775 
L 173.166431 82.326775 
z
" clip-path="url(#p86b091c174)" style="fill: #ffffff; stroke: #000000; stroke-width: 0.4"/>
    <path d="M 172.140445 86.621145 
L 177.140445 86.621145 
L 177.140445 81.621145 
L 172.140445 81.621145 
z
" clip-path="url(#p86b091c174)" style="fill: #ffffff; stroke: #000000; stroke-width: 0.4"/>
   </g>
   <g id="PathCollection_40">
    <path d="M 185.144788 97.408728 
L 190.144788 97.408728 
L 190.144788 92.408728 
L 185.144788 92.408728 
z
" clip-path="url(#p86b091c174)" style="fill: #ffffff; stroke: #000000; stroke-width: 0.4"/>
    <path d="M 183.946625 97.578262 
L 188.946625 97.578262 
L 188.946625 92.578262 
L 183.946625 92.578262 
z
" clip-path="url(#p86b091c174)" style="fill: #ffffff; stroke: #000000; stroke-width: 0.4"/>
    <path d="M 182.789704 98.250291 
L 187.789704 98.250291 
L 187.789704 93.250291 
L 182.789704 93.250291 
z
" clip-path="url(#p86b091c174)" style="fill: #ffffff; stroke: #000000; stroke-width: 0.4"/>
   </g>
   <g id="PathCollection_41">
    <path d="M 210.946882 101.973939 
L 215.946882 101.973939 
L 215.946882 96.973939 
L 210.946882 96.973939 
z
" clip-path="url(#p86b091c174)" style="fill: #ffffff; stroke: #000000; stroke-width: 0.4"/>
    <path d="M 211.474189 100.631409 
L 216.474189 100.631409 
L 216.474189 95.631409 
L 211.474189 95.631409 
z
" clip-path="url(#p86b091c174)" style="fill: #ffffff; stroke: #000000; stroke-width: 0.4"/>
    <path d="M 209.436592 102.12209 
L 214.436592 102.12209 
L 214.436592 97.12209 
L 209.436592 97.12209 
z
" clip-path="url(#p86b091c174)" style="fill: #ffffff; stroke: #000000; stroke-width: 0.4"/>
   </g>
   <g id="PathCollection_42">
    <path d="M 221.465136 81.06622 
L 226.465136 81.06622 
L 226.465136 76.06622 
L 221.465136 76.06622 
z
" clip-path="url(#p86b091c174)" style="fill: #ffffff; stroke: #000000; stroke-width: 0.4"/>
    <path d="M 221.870219 72.08395 
L 226.870219 72.08395 
L 226.870219 67.08395 
L 221.870219 67.08395 
z
" clip-path="url(#p86b091c174)" style="fill: #ffffff; stroke: #000000; stroke-width: 0.4"/>
   </g>
   <g id="PathCollection_43">
    <path d="M 234.965386 40.959874 
L 239.965386 40.959874 
L 239.965386 35.959874 
L 234.965386 35.959874 
z
" clip-path="url(#p86b091c174)" style="fill: #ffffff; stroke: #000000; stroke-width: 0.4"/>
    <path d="M 234.903896 46.149765 
L 239.903896 46.149765 
L 239.903896 41.149765 
L 234.903896 41.149765 
z
" clip-path="url(#p86b091c174)" style="fill: #ffffff; stroke: #000000; stroke-width: 0.4"/>
    <path d="M 235.177857 36.574889 
L 240.177857 36.574889 
L 240.177857 31.574889 
L 235.177857 31.574889 
z
" clip-path="url(#p86b091c174)" style="fill: #ffffff; stroke: #000000; stroke-width: 0.4"/>
   </g>
   <g id="PathCollection_44">
    <path d="M 246.576282 36.956723 
L 251.576282 36.956723 
L 251.576282 31.956723 
L 246.576282 31.956723 
z
" clip-path="url(#p86b091c174)" style="fill: #ffffff; stroke: #000000; stroke-width: 0.4"/>
    <path d="M 245.95489 38.545154 
L 250.95489 38.545154 
L 250.95489 33.545154 
L 245.95489 33.545154 
z
" clip-path="url(#p86b091c174)" style="fill: #ffffff; stroke: #000000; stroke-width: 0.4"/>
    <path d="M 246.40157 40.868233 
L 251.40157 40.868233 
L 251.40157 35.868233 
L 246.40157 35.868233 
z
" clip-path="url(#p86b091c174)" style="fill: #ffffff; stroke: #000000; stroke-width: 0.4"/>
   </g>
   <g id="PathCollection_45">
    <path d="M 257.371931 64.143324 
L 262.371931 64.143324 
L 262.371931 59.143324 
L 257.371931 59.143324 
z
" clip-path="url(#p86b091c174)" style="fill: #ffffff; stroke: #000000; stroke-width: 0.4"/>
    <path d="M 256.527444 58.017175 
L 261.527444 58.017175 
L 261.527444 53.017175 
L 256.527444 53.017175 
z
" clip-path="url(#p86b091c174)" style="fill: #ffffff; stroke: #000000; stroke-width: 0.4"/>
    <path d="M 258.696421 74.19473 
L 263.696421 74.19473 
L 263.696421 69.19473 
L 258.696421 69.19473 
z
" clip-path="url(#p86b091c174)" style="fill: #ffffff; stroke: #000000; stroke-width: 0.4"/>
   </g>
   <g id="text_9">
    <!-- ** -->
    <g style="fill: #262626" transform="translate(73.006506 72.42244) scale(0.12 -0.12)">
     <defs>
      <path id="ArialMT-2a" d="M 200 3741 
L 344 4184 
Q 841 4009 1066 3881 
Q 1006 4447 1003 4659 
L 1456 4659 
Q 1447 4350 1384 3884 
Q 1706 4047 2122 4184 
L 2266 3741 
Q 1869 3609 1488 3566 
Q 1678 3400 2025 2975 
L 1650 2709 
Q 1469 2956 1222 3381 
Q 991 2941 816 2709 
L 447 2975 
Q 809 3422 966 3566 
Q 563 3644 200 3741 
z
" transform="scale(0.015625)"/>
     </defs>
     <use xlink:href="#ArialMT-2a"/>
     <use xlink:href="#ArialMT-2a" transform="translate(38.916016 0)"/>
    </g>
   </g>
   <g id="text_10">
    <!-- **** -->
    <g style="fill: #262626" transform="translate(141.972244 60.36564) scale(0.12 -0.12)">
     <use xlink:href="#ArialMT-2a"/>
     <use xlink:href="#ArialMT-2a" transform="translate(38.916016 0)"/>
     <use xlink:href="#ArialMT-2a" transform="translate(77.832031 0)"/>
     <use xlink:href="#ArialMT-2a" transform="translate(116.748047 0)"/>
    </g>
   </g>
   <g id="text_11">
    <!-- **** -->
    <g style="fill: #262626" transform="translate(215.608608 18.121022) scale(0.12 -0.12)">
     <use xlink:href="#ArialMT-2a"/>
     <use xlink:href="#ArialMT-2a" transform="translate(38.916016 0)"/>
     <use xlink:href="#ArialMT-2a" transform="translate(77.832031 0)"/>
     <use xlink:href="#ArialMT-2a" transform="translate(116.748047 0)"/>
    </g>
   </g>
   <g id="legend_1">
    <g id="patch_22">
     <path d="M 292.235313 19.473594 
L 314.235313 19.473594 
L 314.235313 11.773594 
L 292.235313 11.773594 
z
" style="fill: #4b4279; opacity: 0.8; stroke: #ffffff; stroke-linejoin: miter"/>
    </g>
    <g id="text_12">
     <!-- 0 nM -->
     <g style="fill: #262626" transform="translate(323.035313 19.473594) scale(0.11 -0.11)">
      <defs>
       <path id="ArialMT-6e" d="M 422 0 
L 422 3319 
L 928 3319 
L 928 2847 
Q 1294 3394 1984 3394 
Q 2284 3394 2536 3286 
Q 2788 3178 2913 3003 
Q 3038 2828 3088 2588 
Q 3119 2431 3119 2041 
L 3119 0 
L 2556 0 
L 2556 2019 
Q 2556 2363 2490 2533 
Q 2425 2703 2258 2804 
Q 2091 2906 1866 2906 
Q 1506 2906 1245 2678 
Q 984 2450 984 1813 
L 984 0 
L 422 0 
z
" transform="scale(0.015625)"/>
       <path id="ArialMT-4d" d="M 475 0 
L 475 4581 
L 1388 4581 
L 2472 1338 
Q 2622 884 2691 659 
Q 2769 909 2934 1394 
L 4031 4581 
L 4847 4581 
L 4847 0 
L 4263 0 
L 4263 3834 
L 2931 0 
L 2384 0 
L 1059 3900 
L 1059 0 
L 475 0 
z
" transform="scale(0.015625)"/>
      </defs>
      <use xlink:href="#ArialMT-30"/>
      <use xlink:href="#ArialMT-20" transform="translate(55.615234 0)"/>
      <use xlink:href="#ArialMT-6e" transform="translate(83.398438 0)"/>
      <use xlink:href="#ArialMT-4d" transform="translate(139.013672 0)"/>
     </g>
    </g>
    <g id="patch_23">
     <path d="M 292.235313 35.033437 
L 314.235313 35.033437 
L 314.235313 27.333437 
L 292.235313 27.333437 
z
" style="fill: #3c6682; opacity: 0.8; stroke: #ffffff; stroke-linejoin: miter"/>
    </g>
    <g id="text_13">
     <!-- 10 nM -->
     <g style="fill: #262626" transform="translate(323.035313 35.033437) scale(0.11 -0.11)">
      <defs>
       <path id="ArialMT-31" d="M 2384 0 
L 1822 0 
L 1822 3584 
Q 1619 3391 1289 3197 
Q 959 3003 697 2906 
L 697 3450 
Q 1169 3672 1522 3987 
Q 1875 4303 2022 4600 
L 2384 4600 
L 2384 0 
z
" transform="scale(0.015625)"/>
      </defs>
      <use xlink:href="#ArialMT-31"/>
      <use xlink:href="#ArialMT-30" transform="translate(55.615234 0)"/>
      <use xlink:href="#ArialMT-20" transform="translate(111.230469 0)"/>
      <use xlink:href="#ArialMT-6e" transform="translate(139.013672 0)"/>
      <use xlink:href="#ArialMT-4d" transform="translate(194.628906 0)"/>
     </g>
    </g>
    <g id="patch_24">
     <path d="M 292.235313 50.593281 
L 314.235313 50.593281 
L 314.235313 42.893281 
L 292.235313 42.893281 
z
" style="fill: #2f837f; opacity: 0.8; stroke: #ffffff; stroke-linejoin: miter"/>
    </g>
    <g id="text_14">
     <!-- 100 nM -->
     <g style="fill: #262626" transform="translate(323.035313 50.593281) scale(0.11 -0.11)">
      <use xlink:href="#ArialMT-31"/>
      <use xlink:href="#ArialMT-30" transform="translate(55.615234 0)"/>
      <use xlink:href="#ArialMT-30" transform="translate(111.230469 0)"/>
      <use xlink:href="#ArialMT-20" transform="translate(166.845703 0)"/>
      <use xlink:href="#ArialMT-6e" transform="translate(194.628906 0)"/>
      <use xlink:href="#ArialMT-4d" transform="translate(250.244141 0)"/>
     </g>
    </g>
    <g id="patch_25">
     <path d="M 292.235313 66.153125 
L 314.235313 66.153125 
L 314.235313 58.453125 
L 292.235313 58.453125 
z
" style="fill: #45a778; opacity: 0.8; stroke: #ffffff; stroke-linejoin: miter"/>
    </g>
    <g id="text_15">
     <!-- 200 nM -->
     <g style="fill: #262626" transform="translate(323.035313 66.153125) scale(0.11 -0.11)">
      <use xlink:href="#ArialMT-32"/>
      <use xlink:href="#ArialMT-30" transform="translate(55.615234 0)"/>
      <use xlink:href="#ArialMT-30" transform="translate(111.230469 0)"/>
      <use xlink:href="#ArialMT-20" transform="translate(166.845703 0)"/>
      <use xlink:href="#ArialMT-6e" transform="translate(194.628906 0)"/>
      <use xlink:href="#ArialMT-4d" transform="translate(250.244141 0)"/>
     </g>
    </g>
    <g id="patch_26">
     <path d="M 292.235313 81.712969 
L 314.235313 81.712969 
L 314.235313 74.012969 
L 292.235313 74.012969 
z
" style="fill: #8fc456; opacity: 0.8; stroke: #ffffff; stroke-linejoin: miter"/>
    </g>
    <g id="text_16">
     <!-- 400 nM -->
     <g style="fill: #262626" transform="translate(323.035313 81.712969) scale(0.11 -0.11)">
      <use xlink:href="#ArialMT-34"/>
      <use xlink:href="#ArialMT-30" transform="translate(55.615234 0)"/>
      <use xlink:href="#ArialMT-30" transform="translate(111.230469 0)"/>
      <use xlink:href="#ArialMT-20" transform="translate(166.845703 0)"/>
      <use xlink:href="#ArialMT-6e" transform="translate(194.628906 0)"/>
      <use xlink:href="#ArialMT-4d" transform="translate(250.244141 0)"/>
     </g>
    </g>
   </g>
  </g>
 </g>
 <defs>
  <clipPath id="p86b091c174">
   <rect x="49.695313" y="7.2" width="226.8" height="117"/>
  </clipPath>
 </defs>
</svg>
