<?xml version="1.0" encoding="utf-8" standalone="no"?>
<!DOCTYPE svg PUBLIC "-//W3C//DTD SVG 1.1//EN"
  "http://www.w3.org/Graphics/SVG/1.1/DTD/svg11.dtd">
<svg xmlns:xlink="http://www.w3.org/1999/xlink" width="241.082031pt" height="153.610743pt" viewBox="0 0 241.082031 153.610743" xmlns="http://www.w3.org/2000/svg" version="1.1">
 <metadata>
  <rdf:RDF xmlns:dc="http://purl.org/dc/elements/1.1/" xmlns:cc="http://creativecommons.org/ns#" xmlns:rdf="http://www.w3.org/1999/02/22-rdf-syntax-ns#">
   <cc:Work>
    <dc:type rdf:resource="http://purl.org/dc/dcmitype/StillImage"/>
    <dc:date>2025-07-28T17:38:33.808278</dc:date>
    <dc:format>image/svg+xml</dc:format>
    <dc:creator>
     <cc:Agent>
      <dc:title>Matplotlib v3.10.3, https://matplotlib.org/</dc:title>
     </cc:Agent>
    </dc:creator>
   </cc:Work>
  </rdf:RDF>
 </metadata>
 <defs>
  <style type="text/css">*{stroke-linejoin: round; stroke-linecap: butt}</style>
 </defs>
 <g id="figure_1">
  <g id="patch_1">
   <path d="M 0 153.610743 
L 241.082031 153.610743 
L 241.082031 0 
L 0 0 
z
" style="fill: #ffffff"/>
  </g>
  <g id="axes_1">
   <g id="patch_2">
    <path d="M 44.195312 126.850899 
L 152.195312 126.850899 
L 152.195312 9.850899 
L 44.195312 9.850899 
z
" style="fill: #ffffff"/>
   </g>
   <g id="matplotlib.axis_1">
    <g id="xtick_1">
     <g id="line2d_1">
      <defs>
       <path id="mdf7ba5a460" d="M 0 0 
L 0 6 
" style="stroke: #262626; stroke-width: 1.25"/>
      </defs>
      <g>
       <use xlink:href="#mdf7ba5a460" x="98.195312" y="126.850899" style="fill: #262626; stroke: #262626; stroke-width: 1.25"/>
      </g>
     </g>
     <g id="text_1">
      <!-- NIL -->
      <g style="fill: #262626" transform="translate(89.636797 144.224493) scale(0.11 -0.11)">
       <defs>
        <path id="ArialMT-4e" d="M 488 0 
L 488 4581 
L 1109 4581 
L 3516 984 
L 3516 4581 
L 4097 4581 
L 4097 0 
L 3475 0 
L 1069 3600 
L 1069 0 
L 488 0 
z
" transform="scale(0.015625)"/>
        <path id="ArialMT-49" d="M 597 0 
L 597 4581 
L 1203 4581 
L 1203 0 
L 597 0 
z
" transform="scale(0.015625)"/>
        <path id="ArialMT-4c" d="M 469 0 
L 469 4581 
L 1075 4581 
L 1075 541 
L 3331 541 
L 3331 0 
L 469 0 
z
" transform="scale(0.015625)"/>
       </defs>
       <use xlink:href="#ArialMT-4e"/>
       <use xlink:href="#ArialMT-49" transform="translate(72.216797 0)"/>
       <use xlink:href="#ArialMT-4c" transform="translate(100 0)"/>
      </g>
     </g>
    </g>
   </g>
   <g id="matplotlib.axis_2">
    <g id="ytick_1">
     <g id="line2d_2">
      <defs>
       <path id="mdacbae1e55" d="M 0 0 
L -6 0 
" style="stroke: #262626; stroke-width: 1.25"/>
      </defs>
      <g>
       <use xlink:href="#mdacbae1e55" x="44.195312" y="126.850899" style="fill: #262626; stroke: #262626; stroke-width: 1.25"/>
      </g>
     </g>
     <g id="text_2">
      <!-- 0 -->
      <g style="fill: #262626" transform="translate(28.578281 130.787696) scale(0.11 -0.11)">
       <defs>
        <path id="ArialMT-30" d="M 266 2259 
Q 266 3072 433 3567 
Q 600 4063 929 4331 
Q 1259 4600 1759 4600 
Q 2128 4600 2406 4451 
Q 2684 4303 2865 4023 
Q 3047 3744 3150 3342 
Q 3253 2941 3253 2259 
Q 3253 1453 3087 958 
Q 2922 463 2592 192 
Q 2263 -78 1759 -78 
Q 1097 -78 719 397 
Q 266 969 266 2259 
z
M 844 2259 
Q 844 1131 1108 757 
Q 1372 384 1759 384 
Q 2147 384 2411 759 
Q 2675 1134 2675 2259 
Q 2675 3391 2411 3762 
Q 2147 4134 1753 4134 
Q 1366 4134 1134 3806 
Q 844 3388 844 2259 
z
" transform="scale(0.015625)"/>
       </defs>
       <use xlink:href="#ArialMT-30"/>
      </g>
     </g>
    </g>
    <g id="ytick_2">
     <g id="line2d_3">
      <g>
       <use xlink:href="#mdacbae1e55" x="44.195312" y="88.279532" style="fill: #262626; stroke: #262626; stroke-width: 1.25"/>
      </g>
     </g>
     <g id="text_3">
      <!-- 20 -->
      <g style="fill: #262626" transform="translate(22.46125 92.216328) scale(0.11 -0.11)">
       <defs>
        <path id="ArialMT-32" d="M 3222 541 
L 3222 0 
L 194 0 
Q 188 203 259 391 
Q 375 700 629 1000 
Q 884 1300 1366 1694 
Q 2113 2306 2375 2664 
Q 2638 3022 2638 3341 
Q 2638 3675 2398 3904 
Q 2159 4134 1775 4134 
Q 1369 4134 1125 3890 
Q 881 3647 878 3216 
L 300 3275 
Q 359 3922 746 4261 
Q 1134 4600 1788 4600 
Q 2447 4600 2831 4234 
Q 3216 3869 3216 3328 
Q 3216 3053 3103 2787 
Q 2991 2522 2730 2228 
Q 2469 1934 1863 1422 
Q 1356 997 1212 845 
Q 1069 694 975 541 
L 3222 541 
z
" transform="scale(0.015625)"/>
       </defs>
       <use xlink:href="#ArialMT-32"/>
       <use xlink:href="#ArialMT-30" transform="translate(55.615234 0)"/>
      </g>
     </g>
    </g>
    <g id="ytick_3">
     <g id="line2d_4">
      <g>
       <use xlink:href="#mdacbae1e55" x="44.195312" y="49.708164" style="fill: #262626; stroke: #262626; stroke-width: 1.25"/>
      </g>
     </g>
     <g id="text_4">
      <!-- 40 -->
      <g style="fill: #262626" transform="translate(22.46125 53.644961) scale(0.11 -0.11)">
       <defs>
        <path id="ArialMT-34" d="M 2069 0 
L 2069 1097 
L 81 1097 
L 81 1613 
L 2172 4581 
L 2631 4581 
L 2631 1613 
L 3250 1613 
L 3250 1097 
L 2631 1097 
L 2631 0 
L 2069 0 
z
M 2069 1613 
L 2069 3678 
L 634 1613 
L 2069 1613 
z
" transform="scale(0.015625)"/>
       </defs>
       <use xlink:href="#ArialMT-34"/>
       <use xlink:href="#ArialMT-30" transform="translate(55.615234 0)"/>
      </g>
     </g>
    </g>
    <g id="ytick_4">
     <g id="line2d_5">
      <g>
       <use xlink:href="#mdacbae1e55" x="44.195312" y="11.136797" style="fill: #262626; stroke: #262626; stroke-width: 1.25"/>
      </g>
     </g>
     <g id="text_5">
      <!-- 60 -->
      <g style="fill: #262626" transform="translate(22.46125 15.073594) scale(0.11 -0.11)">
       <defs>
        <path id="ArialMT-36" d="M 3184 3459 
L 2625 3416 
Q 2550 3747 2413 3897 
Q 2184 4138 1850 4138 
Q 1581 4138 1378 3988 
Q 1113 3794 959 3422 
Q 806 3050 800 2363 
Q 1003 2672 1297 2822 
Q 1591 2972 1913 2972 
Q 2475 2972 2870 2558 
Q 3266 2144 3266 1488 
Q 3266 1056 3080 686 
Q 2894 316 2569 119 
Q 2244 -78 1831 -78 
Q 1128 -78 684 439 
Q 241 956 241 2144 
Q 241 3472 731 4075 
Q 1159 4600 1884 4600 
Q 2425 4600 2770 4297 
Q 3116 3994 3184 3459 
z
M 888 1484 
Q 888 1194 1011 928 
Q 1134 663 1356 523 
Q 1578 384 1822 384 
Q 2178 384 2434 671 
Q 2691 959 2691 1453 
Q 2691 1928 2437 2201 
Q 2184 2475 1800 2475 
Q 1419 2475 1153 2201 
Q 888 1928 888 1484 
z
" transform="scale(0.015625)"/>
       </defs>
       <use xlink:href="#ArialMT-36"/>
       <use xlink:href="#ArialMT-30" transform="translate(55.615234 0)"/>
      </g>
     </g>
    </g>
    <g id="text_6">
     <!-- (%) HyperP -->
     <g style="fill: #262626" transform="translate(15.935625 99.354961) rotate(-90) scale(0.12 -0.12)">
      <defs>
       <path id="ArialMT-28" d="M 1497 -1347 
Q 1031 -759 709 28 
Q 388 816 388 1659 
Q 388 2403 628 3084 
Q 909 3875 1497 4659 
L 1900 4659 
Q 1522 4009 1400 3731 
Q 1209 3300 1100 2831 
Q 966 2247 966 1656 
Q 966 153 1900 -1347 
L 1497 -1347 
z
" transform="scale(0.015625)"/>
       <path id="ArialMT-25" d="M 372 3481 
Q 372 3972 619 4315 
Q 866 4659 1334 4659 
Q 1766 4659 2048 4351 
Q 2331 4044 2331 3447 
Q 2331 2866 2045 2552 
Q 1759 2238 1341 2238 
Q 925 2238 648 2547 
Q 372 2856 372 3481 
z
M 1350 4272 
Q 1141 4272 1002 4090 
Q 863 3909 863 3425 
Q 863 2984 1003 2804 
Q 1144 2625 1350 2625 
Q 1563 2625 1702 2806 
Q 1841 2988 1841 3469 
Q 1841 3913 1700 4092 
Q 1559 4272 1350 4272 
z
M 1353 -169 
L 3859 4659 
L 4316 4659 
L 1819 -169 
L 1353 -169 
z
M 3334 1075 
Q 3334 1569 3581 1911 
Q 3828 2253 4300 2253 
Q 4731 2253 5014 1945 
Q 5297 1638 5297 1041 
Q 5297 459 5011 145 
Q 4725 -169 4303 -169 
Q 3888 -169 3611 142 
Q 3334 453 3334 1075 
z
M 4316 1866 
Q 4103 1866 3964 1684 
Q 3825 1503 3825 1019 
Q 3825 581 3965 400 
Q 4106 219 4313 219 
Q 4528 219 4667 400 
Q 4806 581 4806 1063 
Q 4806 1506 4665 1686 
Q 4525 1866 4316 1866 
z
" transform="scale(0.015625)"/>
       <path id="ArialMT-29" d="M 791 -1347 
L 388 -1347 
Q 1322 153 1322 1656 
Q 1322 2244 1188 2822 
Q 1081 3291 891 3722 
Q 769 4003 388 4659 
L 791 4659 
Q 1378 3875 1659 3084 
Q 1900 2403 1900 1659 
Q 1900 816 1576 28 
Q 1253 -759 791 -1347 
z
" transform="scale(0.015625)"/>
       <path id="ArialMT-20" transform="scale(0.015625)"/>
       <path id="ArialMT-48" d="M 513 0 
L 513 4581 
L 1119 4581 
L 1119 2700 
L 3500 2700 
L 3500 4581 
L 4106 4581 
L 4106 0 
L 3500 0 
L 3500 2159 
L 1119 2159 
L 1119 0 
L 513 0 
z
" transform="scale(0.015625)"/>
       <path id="ArialMT-79" d="M 397 -1278 
L 334 -750 
Q 519 -800 656 -800 
Q 844 -800 956 -737 
Q 1069 -675 1141 -563 
Q 1194 -478 1313 -144 
Q 1328 -97 1363 -6 
L 103 3319 
L 709 3319 
L 1400 1397 
Q 1534 1031 1641 628 
Q 1738 1016 1872 1384 
L 2581 3319 
L 3144 3319 
L 1881 -56 
Q 1678 -603 1566 -809 
Q 1416 -1088 1222 -1217 
Q 1028 -1347 759 -1347 
Q 597 -1347 397 -1278 
z
" transform="scale(0.015625)"/>
       <path id="ArialMT-70" d="M 422 -1272 
L 422 3319 
L 934 3319 
L 934 2888 
Q 1116 3141 1344 3267 
Q 1572 3394 1897 3394 
Q 2322 3394 2647 3175 
Q 2972 2956 3137 2557 
Q 3303 2159 3303 1684 
Q 3303 1175 3120 767 
Q 2938 359 2589 142 
Q 2241 -75 1856 -75 
Q 1575 -75 1351 44 
Q 1128 163 984 344 
L 984 -1272 
L 422 -1272 
z
M 931 1641 
Q 931 1000 1190 694 
Q 1450 388 1819 388 
Q 2194 388 2461 705 
Q 2728 1022 2728 1688 
Q 2728 2322 2467 2637 
Q 2206 2953 1844 2953 
Q 1484 2953 1207 2617 
Q 931 2281 931 1641 
z
" transform="scale(0.015625)"/>
       <path id="ArialMT-65" d="M 2694 1069 
L 3275 997 
Q 3138 488 2766 206 
Q 2394 -75 1816 -75 
Q 1088 -75 661 373 
Q 234 822 234 1631 
Q 234 2469 665 2931 
Q 1097 3394 1784 3394 
Q 2450 3394 2872 2941 
Q 3294 2488 3294 1666 
Q 3294 1616 3291 1516 
L 816 1516 
Q 847 969 1125 678 
Q 1403 388 1819 388 
Q 2128 388 2347 550 
Q 2566 713 2694 1069 
z
M 847 1978 
L 2700 1978 
Q 2663 2397 2488 2606 
Q 2219 2931 1791 2931 
Q 1403 2931 1139 2672 
Q 875 2413 847 1978 
z
" transform="scale(0.015625)"/>
       <path id="ArialMT-72" d="M 416 0 
L 416 3319 
L 922 3319 
L 922 2816 
Q 1116 3169 1280 3281 
Q 1444 3394 1641 3394 
Q 1925 3394 2219 3213 
L 2025 2691 
Q 1819 2813 1613 2813 
Q 1428 2813 1281 2702 
Q 1134 2591 1072 2394 
Q 978 2094 978 1738 
L 978 0 
L 416 0 
z
" transform="scale(0.015625)"/>
       <path id="ArialMT-50" d="M 494 0 
L 494 4581 
L 2222 4581 
Q 2678 4581 2919 4538 
Q 3256 4481 3484 4323 
Q 3713 4166 3852 3881 
Q 3991 3597 3991 3256 
Q 3991 2672 3619 2267 
Q 3247 1863 2275 1863 
L 1100 1863 
L 1100 0 
L 494 0 
z
M 1100 2403 
L 2284 2403 
Q 2872 2403 3119 2622 
Q 3366 2841 3366 3238 
Q 3366 3525 3220 3729 
Q 3075 3934 2838 4000 
Q 2684 4041 2272 4041 
L 1100 4041 
L 1100 2403 
z
" transform="scale(0.015625)"/>
      </defs>
      <use xlink:href="#ArialMT-28"/>
      <use xlink:href="#ArialMT-25" transform="translate(33.300781 0)"/>
      <use xlink:href="#ArialMT-29" transform="translate(122.216797 0)"/>
      <use xlink:href="#ArialMT-20" transform="translate(155.517578 0)"/>
      <use xlink:href="#ArialMT-48" transform="translate(183.300781 0)"/>
      <use xlink:href="#ArialMT-79" transform="translate(255.517578 0)"/>
      <use xlink:href="#ArialMT-70" transform="translate(305.517578 0)"/>
      <use xlink:href="#ArialMT-65" transform="translate(361.132812 0)"/>
      <use xlink:href="#ArialMT-72" transform="translate(416.748047 0)"/>
      <use xlink:href="#ArialMT-50" transform="translate(450.048828 0)"/>
     </g>
    </g>
   </g>
   <g id="patch_3">
    <path d="M 54.995312 126.850899 
L 72.275312 126.850899 
L 72.275312 64.106952 
L 54.995312 64.106952 
z
" clip-path="url(#p424531316d)" style="fill: #4b4279; opacity: 0.8; stroke: #ffffff; stroke-linejoin: miter"/>
   </g>
   <g id="patch_4">
    <path d="M 72.275312 126.850899 
L 89.555312 126.850899 
L 89.555312 50.893742 
L 72.275312 50.893742 
z
" clip-path="url(#p424531316d)" style="fill: #3c6682; opacity: 0.8; stroke: #ffffff; stroke-linejoin: miter"/>
   </g>
   <g id="patch_5">
    <path d="M 89.555312 126.850899 
L 106.835312 126.850899 
L 106.835312 38.893194 
L 89.555312 38.893194 
z
" clip-path="url(#p424531316d)" style="fill: #2f837f; opacity: 0.8; stroke: #ffffff; stroke-linejoin: miter"/>
   </g>
   <g id="patch_6">
    <path d="M 106.835312 126.850899 
L 124.115312 126.850899 
L 124.115312 38.171332 
L 106.835312 38.171332 
z
" clip-path="url(#p424531316d)" style="fill: #45a778; opacity: 0.8; stroke: #ffffff; stroke-linejoin: miter"/>
   </g>
   <g id="patch_7">
    <path d="M 124.115312 126.850899 
L 141.395312 126.850899 
L 141.395312 39.245532 
L 124.115312 39.245532 
z
" clip-path="url(#p424531316d)" style="fill: #8fc456; opacity: 0.8; stroke: #ffffff; stroke-linejoin: miter"/>
   </g>
   <g id="line2d_6">
    <path d="M 63.635312 70.873528 
L 63.635312 57.660712 
" clip-path="url(#p424531316d)" style="fill: none; stroke: #424242; stroke-width: 2.7; stroke-linecap: round"/>
   </g>
   <g id="line2d_7">
    <path d="M 80.915312 60.705361 
L 80.915312 42.917498 
" clip-path="url(#p424531316d)" style="fill: none; stroke: #424242; stroke-width: 2.7; stroke-linecap: round"/>
   </g>
   <g id="line2d_8">
    <path d="M 98.195312 56.740241 
L 98.195312 22.279591 
" clip-path="url(#p424531316d)" style="fill: none; stroke: #424242; stroke-width: 2.7; stroke-linecap: round"/>
   </g>
   <g id="line2d_9">
    <path d="M 115.475312 54.556185 
L 115.475312 24.346878 
" clip-path="url(#p424531316d)" style="fill: none; stroke: #424242; stroke-width: 2.7; stroke-linecap: round"/>
   </g>
   <g id="line2d_10">
    <path d="M 132.755312 53.645273 
L 132.755312 27.376291 
" clip-path="url(#p424531316d)" style="fill: none; stroke: #424242; stroke-width: 2.7; stroke-linecap: round"/>
   </g>
   <g id="patch_8">
    <path d="M 44.195312 126.850899 
L 44.195312 9.850899 
" style="fill: none; stroke: #262626; stroke-width: 1.25; stroke-linejoin: miter; stroke-linecap: square"/>
   </g>
   <g id="patch_9">
    <path d="M 152.195312 126.850899 
L 152.195312 9.850899 
" style="fill: none; stroke: #262626; stroke-width: 1.25; stroke-linejoin: miter; stroke-linecap: square"/>
   </g>
   <g id="patch_10">
    <path d="M 44.195312 126.850899 
L 152.195312 126.850899 
" style="fill: none; stroke: #262626; stroke-width: 1.25; stroke-linejoin: miter; stroke-linecap: square"/>
   </g>
   <g id="patch_11">
    <path d="M 44.195312 9.850899 
L 152.195312 9.850899 
" style="fill: none; stroke: #262626; stroke-width: 1.25; stroke-linejoin: miter; stroke-linecap: square"/>
   </g>
   <g id="PathCollection_1">
    <defs>
     <path id="C0_0_4df454a1c6" d="M 0 2.5 
C 0.663008 2.5 1.29895 2.236584 1.767767 1.767767 
C 2.236584 1.29895 2.5 0.663008 2.5 -0 
C 2.5 -0.663008 2.236584 -1.29895 1.767767 -1.767767 
C 1.29895 -2.236584 0.663008 -2.5 0 -2.5 
C -0.663008 -2.5 -1.29895 -2.236584 -1.767767 -1.767767 
C -2.236584 -1.29895 -2.5 -0.663008 -2.5 0 
C -2.5 0.663008 -2.236584 1.29895 -1.767767 1.767767 
C -1.29895 2.236584 -0.663008 2.5 0 2.5 
z
"/>
    </defs>
    <g clip-path="url(#p424531316d)">
     <use xlink:href="#C0_0_4df454a1c6" x="65.640544" y="71.991285" style="fill: #ffffff; stroke: #000000; stroke-width: 0.4"/>
    </g>
    <g clip-path="url(#p424531316d)">
     <use xlink:href="#C0_0_4df454a1c6" x="63.784533" y="79.677145" style="fill: #ffffff; stroke: #000000; stroke-width: 0.4"/>
    </g>
    <g clip-path="url(#p424531316d)">
     <use xlink:href="#C0_0_4df454a1c6" x="63.227914" y="70.0814" style="fill: #ffffff; stroke: #000000; stroke-width: 0.4"/>
    </g>
   </g>
   <g id="PathCollection_2">
    <defs>
     <path id="C1_0_fb11143942" d="M 0 2.5 
C 0.663008 2.5 1.29895 2.236584 1.767767 1.767767 
C 2.236584 1.29895 2.5 0.663008 2.5 -0 
C 2.5 -0.663008 2.236584 -1.29895 1.767767 -1.767767 
C 1.29895 -2.236584 0.663008 -2.5 0 -2.5 
C -0.663008 -2.5 -1.29895 -2.236584 -1.767767 -1.767767 
C -2.236584 -1.29895 -2.5 -0.663008 -2.5 0 
C -2.5 0.663008 -2.236584 1.29895 -1.767767 1.767767 
C -1.29895 2.236584 -0.663008 2.5 0 2.5 
z
"/>
    </defs>
    <g clip-path="url(#p424531316d)">
     <use xlink:href="#C1_0_fb11143942" x="79.123688" y="55.624859" style="fill: #ffffff; stroke: #000000; stroke-width: 0.4"/>
    </g>
    <g clip-path="url(#p424531316d)">
     <use xlink:href="#C1_0_fb11143942" x="81.946008" y="72.537695" style="fill: #ffffff; stroke: #000000; stroke-width: 0.4"/>
    </g>
    <g clip-path="url(#p424531316d)">
     <use xlink:href="#C1_0_fb11143942" x="82.537586" y="76.25304" style="fill: #ffffff; stroke: #000000; stroke-width: 0.4"/>
    </g>
   </g>
   <g id="PathCollection_3">
    <defs>
     <path id="C2_0_4ddd2e85b8" d="M 0 2.5 
C 0.663008 2.5 1.29895 2.236584 1.767767 1.767767 
C 2.236584 1.29895 2.5 0.663008 2.5 -0 
C 2.5 -0.663008 2.236584 -1.29895 1.767767 -1.767767 
C 1.29895 -2.236584 0.663008 -2.5 0 -2.5 
C -0.663008 -2.5 -1.29895 -2.236584 -1.767767 -1.767767 
C -2.236584 -1.29895 -2.5 -0.663008 -2.5 0 
C -2.5 0.663008 -2.236584 1.29895 -1.767767 1.767767 
C -1.29895 2.236584 -0.663008 2.5 0 2.5 
z
"/>
    </defs>
    <g clip-path="url(#p424531316d)">
     <use xlink:href="#C2_0_4ddd2e85b8" x="96.370491" y="73.243426" style="fill: #ffffff; stroke: #000000; stroke-width: 0.4"/>
    </g>
    <g clip-path="url(#p424531316d)">
     <use xlink:href="#C2_0_4ddd2e85b8" x="96.889369" y="73.493791" style="fill: #ffffff; stroke: #000000; stroke-width: 0.4"/>
    </g>
    <g clip-path="url(#p424531316d)">
     <use xlink:href="#C2_0_4ddd2e85b8" x="96.234272" y="78.536216" style="fill: #ffffff; stroke: #000000; stroke-width: 0.4"/>
    </g>
   </g>
   <g id="PathCollection_4">
    <defs>
     <path id="C3_0_a0753072be" d="M 0 2.5 
C 0.663008 2.5 1.29895 2.236584 1.767767 1.767767 
C 2.236584 1.29895 2.5 0.663008 2.5 -0 
C 2.5 -0.663008 2.236584 -1.29895 1.767767 -1.767767 
C 1.29895 -2.236584 0.663008 -2.5 0 -2.5 
C -0.663008 -2.5 -1.29895 -2.236584 -1.767767 -1.767767 
C -2.236584 -1.29895 -2.5 -0.663008 -2.5 0 
C -2.5 0.663008 -2.236584 1.29895 -1.767767 1.767767 
C -1.29895 2.236584 -0.663008 2.5 0 2.5 
z
"/>
    </defs>
    <g clip-path="url(#p424531316d)">
     <use xlink:href="#C3_0_a0753072be" x="114.876372" y="69.591902" style="fill: #ffffff; stroke: #000000; stroke-width: 0.4"/>
    </g>
    <g clip-path="url(#p424531316d)">
     <use xlink:href="#C3_0_a0753072be" x="114.553562" y="67.165114" style="fill: #ffffff; stroke: #000000; stroke-width: 0.4"/>
    </g>
    <g clip-path="url(#p424531316d)">
     <use xlink:href="#C3_0_a0753072be" x="115.483466" y="60.726227" style="fill: #ffffff; stroke: #000000; stroke-width: 0.4"/>
    </g>
   </g>
   <g id="PathCollection_5">
    <defs>
     <path id="C4_0_7b5e784e50" d="M 0 2.5 
C 0.663008 2.5 1.29895 2.236584 1.767767 1.767767 
C 2.236584 1.29895 2.5 0.663008 2.5 -0 
C 2.5 -0.663008 2.236584 -1.29895 1.767767 -1.767767 
C 1.29895 -2.236584 0.663008 -2.5 0 -2.5 
C -0.663008 -2.5 -1.29895 -2.236584 -1.767767 -1.767767 
C -2.236584 -1.29895 -2.5 -0.663008 -2.5 0 
C -2.5 0.663008 -2.236584 1.29895 -1.767767 1.767767 
C -1.29895 2.236584 -0.663008 2.5 0 2.5 
z
"/>
    </defs>
    <g clip-path="url(#p424531316d)">
     <use xlink:href="#C4_0_7b5e784e50" x="132.375789" y="68.195508" style="fill: #ffffff; stroke: #000000; stroke-width: 0.4"/>
    </g>
    <g clip-path="url(#p424531316d)">
     <use xlink:href="#C4_0_7b5e784e50" x="131.776609" y="70.031584" style="fill: #ffffff; stroke: #000000; stroke-width: 0.4"/>
    </g>
    <g clip-path="url(#p424531316d)">
     <use xlink:href="#C4_0_7b5e784e50" x="134.543554" y="63.91343" style="fill: #ffffff; stroke: #000000; stroke-width: 0.4"/>
    </g>
   </g>
   <g id="PathCollection_6">
    <path d="M 62.194782 58.704178 
L 59.694782 63.704178 
L 64.694782 63.704178 
z
" clip-path="url(#p424531316d)" style="fill: #ffffff; stroke: #000000; stroke-width: 0.4"/>
    <path d="M 61.754985 61.374351 
L 59.254985 66.374351 
L 64.254985 66.374351 
z
" clip-path="url(#p424531316d)" style="fill: #ffffff; stroke: #000000; stroke-width: 0.4"/>
    <path d="M 62.805889 71.304455 
L 60.305889 76.304455 
L 65.305889 76.304455 
z
" clip-path="url(#p424531316d)" style="fill: #ffffff; stroke: #000000; stroke-width: 0.4"/>
   </g>
   <g id="PathCollection_7">
    <path d="M 81.008597 33.57513 
L 78.508597 38.57513 
L 83.508597 38.57513 
z
" clip-path="url(#p424531316d)" style="fill: #ffffff; stroke: #000000; stroke-width: 0.4"/>
    <path d="M 80.756182 38.134703 
L 78.256182 43.134703 
L 83.256182 43.134703 
z
" clip-path="url(#p424531316d)" style="fill: #ffffff; stroke: #000000; stroke-width: 0.4"/>
    <path d="M 79.631383 36.916424 
L 77.131383 41.916424 
L 82.131383 41.916424 
z
" clip-path="url(#p424531316d)" style="fill: #ffffff; stroke: #000000; stroke-width: 0.4"/>
   </g>
   <g id="PathCollection_8">
    <path d="M 96.754538 20.732522 
L 94.254538 25.732522 
L 99.254538 25.732522 
z
" clip-path="url(#p424531316d)" style="fill: #ffffff; stroke: #000000; stroke-width: 0.4"/>
    <path d="M 99.77644 22.69809 
L 97.27644 27.69809 
L 102.27644 27.69809 
z
" clip-path="url(#p424531316d)" style="fill: #ffffff; stroke: #000000; stroke-width: 0.4"/>
    <path d="M 97.536273 20.006022 
L 95.036273 25.006022 
L 100.036273 25.006022 
z
" clip-path="url(#p424531316d)" style="fill: #ffffff; stroke: #000000; stroke-width: 0.4"/>
   </g>
   <g id="PathCollection_9">
    <path d="M 116.550535 22.365086 
L 114.050535 27.365086 
L 119.050535 27.365086 
z
" clip-path="url(#p424531316d)" style="fill: #ffffff; stroke: #000000; stroke-width: 0.4"/>
    <path d="M 113.967744 24.398423 
L 111.467744 29.398423 
L 116.467744 29.398423 
z
" clip-path="url(#p424531316d)" style="fill: #ffffff; stroke: #000000; stroke-width: 0.4"/>
   </g>
   <g id="PathCollection_10">
    <path d="M 131.199985 27.339144 
L 128.699985 32.339144 
L 133.699985 32.339144 
z
" clip-path="url(#p424531316d)" style="fill: #ffffff; stroke: #000000; stroke-width: 0.4"/>
    <path d="M 131.285863 26.608547 
L 128.785863 31.608547 
L 133.785863 31.608547 
z
" clip-path="url(#p424531316d)" style="fill: #ffffff; stroke: #000000; stroke-width: 0.4"/>
    <path d="M 131.285883 26.108824 
L 128.785883 31.108824 
L 133.785883 31.108824 
z
" clip-path="url(#p424531316d)" style="fill: #ffffff; stroke: #000000; stroke-width: 0.4"/>
   </g>
   <g id="PathCollection_11">
    <path d="M 60.298219 51.388452 
L 65.298219 51.388452 
L 65.298219 46.388452 
L 60.298219 46.388452 
z
" clip-path="url(#p424531316d)" style="fill: #ffffff; stroke: #000000; stroke-width: 0.4"/>
    <path d="M 61.100171 52.933381 
L 66.100171 52.933381 
L 66.100171 47.933381 
L 61.100171 47.933381 
z
" clip-path="url(#p424531316d)" style="fill: #ffffff; stroke: #000000; stroke-width: 0.4"/>
    <path d="M 62.749043 59.507921 
L 67.749043 59.507921 
L 67.749043 54.507921 
L 62.749043 54.507921 
z
" clip-path="url(#p424531316d)" style="fill: #ffffff; stroke: #000000; stroke-width: 0.4"/>
   </g>
   <g id="PathCollection_12">
    <path d="M 76.646736 43.720674 
L 81.646736 43.720674 
L 81.646736 38.720674 
L 76.646736 38.720674 
z
" clip-path="url(#p424531316d)" style="fill: #ffffff; stroke: #000000; stroke-width: 0.4"/>
    <path d="M 79.962374 50.608257 
L 84.962374 50.608257 
L 84.962374 45.608257 
L 79.962374 45.608257 
z
" clip-path="url(#p424531316d)" style="fill: #ffffff; stroke: #000000; stroke-width: 0.4"/>
    <path d="M 78.331854 50.672895 
L 83.331854 50.672895 
L 83.331854 45.672895 
L 78.331854 45.672895 
z
" clip-path="url(#p424531316d)" style="fill: #ffffff; stroke: #000000; stroke-width: 0.4"/>
   </g>
   <g id="PathCollection_13">
    <path d="M 95.700902 21.688245 
L 100.700902 21.688245 
L 100.700902 16.688245 
L 95.700902 16.688245 
z
" clip-path="url(#p424531316d)" style="fill: #ffffff; stroke: #000000; stroke-width: 0.4"/>
    <path d="M 94.326379 20.203742 
L 99.326379 20.203742 
L 99.326379 15.203742 
L 94.326379 15.203742 
z
" clip-path="url(#p424531316d)" style="fill: #ffffff; stroke: #000000; stroke-width: 0.4"/>
    <path d="M 96.32366 19.436689 
L 101.32366 19.436689 
L 101.32366 14.436689 
L 96.32366 14.436689 
z
" clip-path="url(#p424531316d)" style="fill: #ffffff; stroke: #000000; stroke-width: 0.4"/>
   </g>
   <g id="PathCollection_14">
    <path d="M 112.554149 17.922327 
L 117.554149 17.922327 
L 117.554149 12.922327 
L 112.554149 12.922327 
z
" clip-path="url(#p424531316d)" style="fill: #ffffff; stroke: #000000; stroke-width: 0.4"/>
    <path d="M 112.033005 23.799701 
L 117.033005 23.799701 
L 117.033005 18.799701 
L 112.033005 18.799701 
z
" clip-path="url(#p424531316d)" style="fill: #ffffff; stroke: #000000; stroke-width: 0.4"/>
    <path d="M 113.264772 21.90187 
L 118.264772 21.90187 
L 118.264772 16.90187 
L 113.264772 16.90187 
z
" clip-path="url(#p424531316d)" style="fill: #ffffff; stroke: #000000; stroke-width: 0.4"/>
   </g>
   <g id="PathCollection_15">
    <path d="M 131.465827 24.580745 
L 136.465827 24.580745 
L 136.465827 19.580745 
L 131.465827 19.580745 
z
" clip-path="url(#p424531316d)" style="fill: #ffffff; stroke: #000000; stroke-width: 0.4"/>
    <path d="M 129.647903 24.094462 
L 134.647903 24.094462 
L 134.647903 19.094462 
L 129.647903 19.094462 
z
" clip-path="url(#p424531316d)" style="fill: #ffffff; stroke: #000000; stroke-width: 0.4"/>
    <path d="M 132.168264 22.337543 
L 137.168264 22.337543 
L 137.168264 17.337543 
L 132.168264 17.337543 
z
" clip-path="url(#p424531316d)" style="fill: #ffffff; stroke: #000000; stroke-width: 0.4"/>
   </g>
   <g id="legend_1">
    <g id="patch_12">
     <path d="M 161.995312 22.124493 
L 183.995312 22.124493 
L 183.995312 14.424493 
L 161.995312 14.424493 
z
" style="fill: #4b4279; opacity: 0.8; stroke: #ffffff; stroke-linejoin: miter"/>
    </g>
    <g id="text_7">
     <!-- 0 nM -->
     <g style="fill: #262626" transform="translate(192.795312 22.124493) scale(0.11 -0.11)">
      <defs>
       <path id="ArialMT-6e" d="M 422 0 
L 422 3319 
L 928 3319 
L 928 2847 
Q 1294 3394 1984 3394 
Q 2284 3394 2536 3286 
Q 2788 3178 2913 3003 
Q 3038 2828 3088 2588 
Q 3119 2431 3119 2041 
L 3119 0 
L 2556 0 
L 2556 2019 
Q 2556 2363 2490 2533 
Q 2425 2703 2258 2804 
Q 2091 2906 1866 2906 
Q 1506 2906 1245 2678 
Q 984 2450 984 1813 
L 984 0 
L 422 0 
z
" transform="scale(0.015625)"/>
       <path id="ArialMT-4d" d="M 475 0 
L 475 4581 
L 1388 4581 
L 2472 1338 
Q 2622 884 2691 659 
Q 2769 909 2934 1394 
L 4031 4581 
L 4847 4581 
L 4847 0 
L 4263 0 
L 4263 3834 
L 2931 0 
L 2384 0 
L 1059 3900 
L 1059 0 
L 475 0 
z
" transform="scale(0.015625)"/>
      </defs>
      <use xlink:href="#ArialMT-30"/>
      <use xlink:href="#ArialMT-20" transform="translate(55.615234 0)"/>
      <use xlink:href="#ArialMT-6e" transform="translate(83.398438 0)"/>
      <use xlink:href="#ArialMT-4d" transform="translate(139.013672 0)"/>
     </g>
    </g>
    <g id="patch_13">
     <path d="M 161.995312 37.684336 
L 183.995312 37.684336 
L 183.995312 29.984336 
L 161.995312 29.984336 
z
" style="fill: #3c6682; opacity: 0.8; stroke: #ffffff; stroke-linejoin: miter"/>
    </g>
    <g id="text_8">
     <!-- 10 nM -->
     <g style="fill: #262626" transform="translate(192.795312 37.684336) scale(0.11 -0.11)">
      <defs>
       <path id="ArialMT-31" d="M 2384 0 
L 1822 0 
L 1822 3584 
Q 1619 3391 1289 3197 
Q 959 3003 697 2906 
L 697 3450 
Q 1169 3672 1522 3987 
Q 1875 4303 2022 4600 
L 2384 4600 
L 2384 0 
z
" transform="scale(0.015625)"/>
      </defs>
      <use xlink:href="#ArialMT-31"/>
      <use xlink:href="#ArialMT-30" transform="translate(55.615234 0)"/>
      <use xlink:href="#ArialMT-20" transform="translate(111.230469 0)"/>
      <use xlink:href="#ArialMT-6e" transform="translate(139.013672 0)"/>
      <use xlink:href="#ArialMT-4d" transform="translate(194.628906 0)"/>
     </g>
    </g>
    <g id="patch_14">
     <path d="M 161.995312 53.24418 
L 183.995312 53.24418 
L 183.995312 45.54418 
L 161.995312 45.54418 
z
" style="fill: #2f837f; opacity: 0.8; stroke: #ffffff; stroke-linejoin: miter"/>
    </g>
    <g id="text_9">
     <!-- 100 nM -->
     <g style="fill: #262626" transform="translate(192.795312 53.24418) scale(0.11 -0.11)">
      <use xlink:href="#ArialMT-31"/>
      <use xlink:href="#ArialMT-30" transform="translate(55.615234 0)"/>
      <use xlink:href="#ArialMT-30" transform="translate(111.230469 0)"/>
      <use xlink:href="#ArialMT-20" transform="translate(166.845703 0)"/>
      <use xlink:href="#ArialMT-6e" transform="translate(194.628906 0)"/>
      <use xlink:href="#ArialMT-4d" transform="translate(250.244141 0)"/>
     </g>
    </g>
    <g id="patch_15">
     <path d="M 161.995312 68.804024 
L 183.995312 68.804024 
L 183.995312 61.104024 
L 161.995312 61.104024 
z
" style="fill: #45a778; opacity: 0.8; stroke: #ffffff; stroke-linejoin: miter"/>
    </g>
    <g id="text_10">
     <!-- 200 nM -->
     <g style="fill: #262626" transform="translate(192.795312 68.804024) scale(0.11 -0.11)">
      <use xlink:href="#ArialMT-32"/>
      <use xlink:href="#ArialMT-30" transform="translate(55.615234 0)"/>
      <use xlink:href="#ArialMT-30" transform="translate(111.230469 0)"/>
      <use xlink:href="#ArialMT-20" transform="translate(166.845703 0)"/>
      <use xlink:href="#ArialMT-6e" transform="translate(194.628906 0)"/>
      <use xlink:href="#ArialMT-4d" transform="translate(250.244141 0)"/>
     </g>
    </g>
    <g id="patch_16">
     <path d="M 161.995312 84.363868 
L 183.995312 84.363868 
L 183.995312 76.663868 
L 161.995312 76.663868 
z
" style="fill: #8fc456; opacity: 0.8; stroke: #ffffff; stroke-linejoin: miter"/>
    </g>
    <g id="text_11">
     <!-- 400 nM -->
     <g style="fill: #262626" transform="translate(192.795312 84.363868) scale(0.11 -0.11)">
      <use xlink:href="#ArialMT-34"/>
      <use xlink:href="#ArialMT-30" transform="translate(55.615234 0)"/>
      <use xlink:href="#ArialMT-30" transform="translate(111.230469 0)"/>
      <use xlink:href="#ArialMT-20" transform="translate(166.845703 0)"/>
      <use xlink:href="#ArialMT-6e" transform="translate(194.628906 0)"/>
      <use xlink:href="#ArialMT-4d" transform="translate(250.244141 0)"/>
     </g>
    </g>
   </g>
  </g>
 </g>
 <defs>
  <clipPath id="p424531316d">
   <rect x="44.195312" y="9.850899" width="108" height="117"/>
  </clipPath>
 </defs>
</svg>
