<?xml version="1.0" encoding="utf-8" standalone="no"?>
<!DOCTYPE svg PUBLIC "-//W3C//DTD SVG 1.1//EN"
  "http://www.w3.org/Graphics/SVG/1.1/DTD/svg11.dtd">
<svg xmlns:xlink="http://www.w3.org/1999/xlink" width="292.112031pt" height="162.594406pt" viewBox="0 0 292.112031 162.594406" xmlns="http://www.w3.org/2000/svg" version="1.1">
 <metadata>
  <rdf:RDF xmlns:dc="http://purl.org/dc/elements/1.1/" xmlns:cc="http://creativecommons.org/ns#" xmlns:rdf="http://www.w3.org/1999/02/22-rdf-syntax-ns#">
   <cc:Work>
    <dc:type rdf:resource="http://purl.org/dc/dcmitype/StillImage"/>
    <dc:date>2025-07-28T17:38:27.508563</dc:date>
    <dc:format>image/svg+xml</dc:format>
    <dc:creator>
     <cc:Agent>
      <dc:title>Matplotlib v3.10.3, https://matplotlib.org/</dc:title>
     </cc:Agent>
    </dc:creator>
   </cc:Work>
  </rdf:RDF>
 </metadata>
 <defs>
  <style type="text/css">*{stroke-linejoin: round; stroke-linecap: butt}</style>
 </defs>
 <g id="figure_1">
  <g id="patch_1">
   <path d="M 0 162.594406 
L 292.112031 162.594406 
L 292.112031 0 
L 0 0 
z
" style="fill: #ffffff"/>
  </g>
  <g id="axes_1">
   <g id="patch_2">
    <path d="M 44.195312 124.2 
L 200.795312 124.2 
L 200.795312 7.2 
L 44.195312 7.2 
z
" style="fill: #ffffff"/>
   </g>
   <g id="matplotlib.axis_1">
    <g id="xtick_1">
     <g id="line2d_1">
      <defs>
       <path id="me96da54c39" d="M 0 0 
L 0 6 
" style="stroke: #262626; stroke-width: 1.25"/>
      </defs>
      <g>
       <use xlink:href="#me96da54c39" x="82.949858" y="124.2" style="fill: #262626; stroke: #262626; stroke-width: 1.25"/>
      </g>
     </g>
     <g id="text_1">
      <!-- NIL -->
      <g style="fill: #262626" transform="translate(74.391342 141.573594) scale(0.11 -0.11)">
       <defs>
        <path id="ArialMT-4e" d="M 488 0 
L 488 4581 
L 1109 4581 
L 3516 984 
L 3516 4581 
L 4097 4581 
L 4097 0 
L 3475 0 
L 1069 3600 
L 1069 0 
L 488 0 
z
" transform="scale(0.015625)"/>
        <path id="ArialMT-49" d="M 597 0 
L 597 4581 
L 1203 4581 
L 1203 0 
L 597 0 
z
" transform="scale(0.015625)"/>
        <path id="ArialMT-4c" d="M 469 0 
L 469 4581 
L 1075 4581 
L 1075 541 
L 3331 541 
L 3331 0 
L 469 0 
z
" transform="scale(0.015625)"/>
       </defs>
       <use xlink:href="#ArialMT-4e"/>
       <use xlink:href="#ArialMT-49" transform="translate(72.216797 0)"/>
       <use xlink:href="#ArialMT-4c" transform="translate(100 0)"/>
      </g>
      <!-- RIDD -->
      <g style="fill: #262626" transform="translate(69.505795 153.208156) scale(0.11 -0.11)">
       <defs>
        <path id="ArialMT-52" d="M 503 0 
L 503 4581 
L 2534 4581 
Q 3147 4581 3465 4457 
Q 3784 4334 3975 4021 
Q 4166 3709 4166 3331 
Q 4166 2844 3850 2509 
Q 3534 2175 2875 2084 
Q 3116 1969 3241 1856 
Q 3506 1613 3744 1247 
L 4541 0 
L 3778 0 
L 3172 953 
Q 2906 1366 2734 1584 
Q 2563 1803 2427 1890 
Q 2291 1978 2150 2013 
Q 2047 2034 1813 2034 
L 1109 2034 
L 1109 0 
L 503 0 
z
M 1109 2559 
L 2413 2559 
Q 2828 2559 3062 2645 
Q 3297 2731 3419 2920 
Q 3541 3109 3541 3331 
Q 3541 3656 3305 3865 
Q 3069 4075 2559 4075 
L 1109 4075 
L 1109 2559 
z
" transform="scale(0.015625)"/>
        <path id="ArialMT-44" d="M 494 0 
L 494 4581 
L 2072 4581 
Q 2606 4581 2888 4516 
Q 3281 4425 3559 4188 
Q 3922 3881 4101 3404 
Q 4281 2928 4281 2316 
Q 4281 1794 4159 1391 
Q 4038 988 3847 723 
Q 3656 459 3429 307 
Q 3203 156 2883 78 
Q 2563 0 2147 0 
L 494 0 
z
M 1100 541 
L 2078 541 
Q 2531 541 2789 625 
Q 3047 709 3200 863 
Q 3416 1078 3536 1442 
Q 3656 1806 3656 2325 
Q 3656 3044 3420 3430 
Q 3184 3816 2847 3947 
Q 2603 4041 2063 4041 
L 1100 4041 
L 1100 541 
z
" transform="scale(0.015625)"/>
       </defs>
       <use xlink:href="#ArialMT-52"/>
       <use xlink:href="#ArialMT-49" transform="translate(72.216797 0)"/>
       <use xlink:href="#ArialMT-44" transform="translate(100 0)"/>
       <use xlink:href="#ArialMT-44" transform="translate(172.216797 0)"/>
      </g>
     </g>
    </g>
    <g id="xtick_2">
     <g id="line2d_2">
      <g>
       <use xlink:href="#me96da54c39" x="162.040767" y="124.2" style="fill: #262626; stroke: #262626; stroke-width: 1.25"/>
      </g>
     </g>
     <g id="text_2">
      <!-- NIL -->
      <g style="fill: #262626" transform="translate(153.482251 141.573594) scale(0.11 -0.11)">
       <use xlink:href="#ArialMT-4e"/>
       <use xlink:href="#ArialMT-49" transform="translate(72.216797 0)"/>
       <use xlink:href="#ArialMT-4c" transform="translate(100 0)"/>
      </g>
      <!-- RISDD -->
      <g style="fill: #262626" transform="translate(144.928033 153.208156) scale(0.11 -0.11)">
       <defs>
        <path id="ArialMT-53" d="M 288 1472 
L 859 1522 
Q 900 1178 1048 958 
Q 1197 738 1509 602 
Q 1822 466 2213 466 
Q 2559 466 2825 569 
Q 3091 672 3220 851 
Q 3350 1031 3350 1244 
Q 3350 1459 3225 1620 
Q 3100 1781 2813 1891 
Q 2628 1963 1997 2114 
Q 1366 2266 1113 2400 
Q 784 2572 623 2826 
Q 463 3081 463 3397 
Q 463 3744 659 4045 
Q 856 4347 1234 4503 
Q 1613 4659 2075 4659 
Q 2584 4659 2973 4495 
Q 3363 4331 3572 4012 
Q 3781 3694 3797 3291 
L 3216 3247 
Q 3169 3681 2898 3903 
Q 2628 4125 2100 4125 
Q 1550 4125 1298 3923 
Q 1047 3722 1047 3438 
Q 1047 3191 1225 3031 
Q 1400 2872 2139 2705 
Q 2878 2538 3153 2413 
Q 3553 2228 3743 1945 
Q 3934 1663 3934 1294 
Q 3934 928 3725 604 
Q 3516 281 3123 101 
Q 2731 -78 2241 -78 
Q 1619 -78 1198 103 
Q 778 284 539 648 
Q 300 1013 288 1472 
z
" transform="scale(0.015625)"/>
       </defs>
       <use xlink:href="#ArialMT-52"/>
       <use xlink:href="#ArialMT-49" transform="translate(72.216797 0)"/>
       <use xlink:href="#ArialMT-53" transform="translate(100 0)"/>
       <use xlink:href="#ArialMT-44" transform="translate(166.699219 0)"/>
       <use xlink:href="#ArialMT-44" transform="translate(238.916016 0)"/>
      </g>
     </g>
    </g>
   </g>
   <g id="matplotlib.axis_2">
    <g id="ytick_1">
     <g id="line2d_3">
      <defs>
       <path id="ma76c9751e1" d="M 0 0 
L -6 0 
" style="stroke: #262626; stroke-width: 1.25"/>
      </defs>
      <g>
       <use xlink:href="#ma76c9751e1" x="44.195312" y="124.2" style="fill: #262626; stroke: #262626; stroke-width: 1.25"/>
      </g>
     </g>
     <g id="text_3">
      <!-- 0 -->
      <g style="fill: #262626" transform="translate(28.578281 128.136797) scale(0.11 -0.11)">
       <defs>
        <path id="ArialMT-30" d="M 266 2259 
Q 266 3072 433 3567 
Q 600 4063 929 4331 
Q 1259 4600 1759 4600 
Q 2128 4600 2406 4451 
Q 2684 4303 2865 4023 
Q 3047 3744 3150 3342 
Q 3253 2941 3253 2259 
Q 3253 1453 3087 958 
Q 2922 463 2592 192 
Q 2263 -78 1759 -78 
Q 1097 -78 719 397 
Q 266 969 266 2259 
z
M 844 2259 
Q 844 1131 1108 757 
Q 1372 384 1759 384 
Q 2147 384 2411 759 
Q 2675 1134 2675 2259 
Q 2675 3391 2411 3762 
Q 2147 4134 1753 4134 
Q 1366 4134 1134 3806 
Q 844 3388 844 2259 
z
" transform="scale(0.015625)"/>
       </defs>
       <use xlink:href="#ArialMT-30"/>
      </g>
     </g>
    </g>
    <g id="ytick_2">
     <g id="line2d_4">
      <g>
       <use xlink:href="#ma76c9751e1" x="44.195312" y="99.902938" style="fill: #262626; stroke: #262626; stroke-width: 1.25"/>
      </g>
     </g>
     <g id="text_4">
      <!-- 20 -->
      <g style="fill: #262626" transform="translate(22.46125 103.839735) scale(0.11 -0.11)">
       <defs>
        <path id="ArialMT-32" d="M 3222 541 
L 3222 0 
L 194 0 
Q 188 203 259 391 
Q 375 700 629 1000 
Q 884 1300 1366 1694 
Q 2113 2306 2375 2664 
Q 2638 3022 2638 3341 
Q 2638 3675 2398 3904 
Q 2159 4134 1775 4134 
Q 1369 4134 1125 3890 
Q 881 3647 878 3216 
L 300 3275 
Q 359 3922 746 4261 
Q 1134 4600 1788 4600 
Q 2447 4600 2831 4234 
Q 3216 3869 3216 3328 
Q 3216 3053 3103 2787 
Q 2991 2522 2730 2228 
Q 2469 1934 1863 1422 
Q 1356 997 1212 845 
Q 1069 694 975 541 
L 3222 541 
z
" transform="scale(0.015625)"/>
       </defs>
       <use xlink:href="#ArialMT-32"/>
       <use xlink:href="#ArialMT-30" transform="translate(55.615234 0)"/>
      </g>
     </g>
    </g>
    <g id="ytick_3">
     <g id="line2d_5">
      <g>
       <use xlink:href="#ma76c9751e1" x="44.195312" y="75.605877" style="fill: #262626; stroke: #262626; stroke-width: 1.25"/>
      </g>
     </g>
     <g id="text_5">
      <!-- 40 -->
      <g style="fill: #262626" transform="translate(22.46125 79.542674) scale(0.11 -0.11)">
       <defs>
        <path id="ArialMT-34" d="M 2069 0 
L 2069 1097 
L 81 1097 
L 81 1613 
L 2172 4581 
L 2631 4581 
L 2631 1613 
L 3250 1613 
L 3250 1097 
L 2631 1097 
L 2631 0 
L 2069 0 
z
M 2069 1613 
L 2069 3678 
L 634 1613 
L 2069 1613 
z
" transform="scale(0.015625)"/>
       </defs>
       <use xlink:href="#ArialMT-34"/>
       <use xlink:href="#ArialMT-30" transform="translate(55.615234 0)"/>
      </g>
     </g>
    </g>
    <g id="ytick_4">
     <g id="line2d_6">
      <g>
       <use xlink:href="#ma76c9751e1" x="44.195312" y="51.308815" style="fill: #262626; stroke: #262626; stroke-width: 1.25"/>
      </g>
     </g>
     <g id="text_6">
      <!-- 60 -->
      <g style="fill: #262626" transform="translate(22.46125 55.245612) scale(0.11 -0.11)">
       <defs>
        <path id="ArialMT-36" d="M 3184 3459 
L 2625 3416 
Q 2550 3747 2413 3897 
Q 2184 4138 1850 4138 
Q 1581 4138 1378 3988 
Q 1113 3794 959 3422 
Q 806 3050 800 2363 
Q 1003 2672 1297 2822 
Q 1591 2972 1913 2972 
Q 2475 2972 2870 2558 
Q 3266 2144 3266 1488 
Q 3266 1056 3080 686 
Q 2894 316 2569 119 
Q 2244 -78 1831 -78 
Q 1128 -78 684 439 
Q 241 956 241 2144 
Q 241 3472 731 4075 
Q 1159 4600 1884 4600 
Q 2425 4600 2770 4297 
Q 3116 3994 3184 3459 
z
M 888 1484 
Q 888 1194 1011 928 
Q 1134 663 1356 523 
Q 1578 384 1822 384 
Q 2178 384 2434 671 
Q 2691 959 2691 1453 
Q 2691 1928 2437 2201 
Q 2184 2475 1800 2475 
Q 1419 2475 1153 2201 
Q 888 1928 888 1484 
z
" transform="scale(0.015625)"/>
       </defs>
       <use xlink:href="#ArialMT-36"/>
       <use xlink:href="#ArialMT-30" transform="translate(55.615234 0)"/>
      </g>
     </g>
    </g>
    <g id="ytick_5">
     <g id="line2d_7">
      <g>
       <use xlink:href="#ma76c9751e1" x="44.195312" y="27.011754" style="fill: #262626; stroke: #262626; stroke-width: 1.25"/>
      </g>
     </g>
     <g id="text_7">
      <!-- 80 -->
      <g style="fill: #262626" transform="translate(22.46125 30.948551) scale(0.11 -0.11)">
       <defs>
        <path id="ArialMT-38" d="M 1131 2484 
Q 781 2613 612 2850 
Q 444 3088 444 3419 
Q 444 3919 803 4259 
Q 1163 4600 1759 4600 
Q 2359 4600 2725 4251 
Q 3091 3903 3091 3403 
Q 3091 3084 2923 2848 
Q 2756 2613 2416 2484 
Q 2838 2347 3058 2040 
Q 3278 1734 3278 1309 
Q 3278 722 2862 322 
Q 2447 -78 1769 -78 
Q 1091 -78 675 323 
Q 259 725 259 1325 
Q 259 1772 486 2073 
Q 713 2375 1131 2484 
z
M 1019 3438 
Q 1019 3113 1228 2906 
Q 1438 2700 1772 2700 
Q 2097 2700 2305 2904 
Q 2513 3109 2513 3406 
Q 2513 3716 2298 3927 
Q 2084 4138 1766 4138 
Q 1444 4138 1231 3931 
Q 1019 3725 1019 3438 
z
M 838 1322 
Q 838 1081 952 856 
Q 1066 631 1291 507 
Q 1516 384 1775 384 
Q 2178 384 2440 643 
Q 2703 903 2703 1303 
Q 2703 1709 2433 1975 
Q 2163 2241 1756 2241 
Q 1359 2241 1098 1978 
Q 838 1716 838 1322 
z
" transform="scale(0.015625)"/>
       </defs>
       <use xlink:href="#ArialMT-38"/>
       <use xlink:href="#ArialMT-30" transform="translate(55.615234 0)"/>
      </g>
     </g>
    </g>
    <g id="text_8">
     <!-- (%) HyperP -->
     <g style="fill: #262626" transform="translate(15.935625 96.704062) rotate(-90) scale(0.12 -0.12)">
      <defs>
       <path id="ArialMT-28" d="M 1497 -1347 
Q 1031 -759 709 28 
Q 388 816 388 1659 
Q 388 2403 628 3084 
Q 909 3875 1497 4659 
L 1900 4659 
Q 1522 4009 1400 3731 
Q 1209 3300 1100 2831 
Q 966 2247 966 1656 
Q 966 153 1900 -1347 
L 1497 -1347 
z
" transform="scale(0.015625)"/>
       <path id="ArialMT-25" d="M 372 3481 
Q 372 3972 619 4315 
Q 866 4659 1334 4659 
Q 1766 4659 2048 4351 
Q 2331 4044 2331 3447 
Q 2331 2866 2045 2552 
Q 1759 2238 1341 2238 
Q 925 2238 648 2547 
Q 372 2856 372 3481 
z
M 1350 4272 
Q 1141 4272 1002 4090 
Q 863 3909 863 3425 
Q 863 2984 1003 2804 
Q 1144 2625 1350 2625 
Q 1563 2625 1702 2806 
Q 1841 2988 1841 3469 
Q 1841 3913 1700 4092 
Q 1559 4272 1350 4272 
z
M 1353 -169 
L 3859 4659 
L 4316 4659 
L 1819 -169 
L 1353 -169 
z
M 3334 1075 
Q 3334 1569 3581 1911 
Q 3828 2253 4300 2253 
Q 4731 2253 5014 1945 
Q 5297 1638 5297 1041 
Q 5297 459 5011 145 
Q 4725 -169 4303 -169 
Q 3888 -169 3611 142 
Q 3334 453 3334 1075 
z
M 4316 1866 
Q 4103 1866 3964 1684 
Q 3825 1503 3825 1019 
Q 3825 581 3965 400 
Q 4106 219 4313 219 
Q 4528 219 4667 400 
Q 4806 581 4806 1063 
Q 4806 1506 4665 1686 
Q 4525 1866 4316 1866 
z
" transform="scale(0.015625)"/>
       <path id="ArialMT-29" d="M 791 -1347 
L 388 -1347 
Q 1322 153 1322 1656 
Q 1322 2244 1188 2822 
Q 1081 3291 891 3722 
Q 769 4003 388 4659 
L 791 4659 
Q 1378 3875 1659 3084 
Q 1900 2403 1900 1659 
Q 1900 816 1576 28 
Q 1253 -759 791 -1347 
z
" transform="scale(0.015625)"/>
       <path id="ArialMT-20" transform="scale(0.015625)"/>
       <path id="ArialMT-48" d="M 513 0 
L 513 4581 
L 1119 4581 
L 1119 2700 
L 3500 2700 
L 3500 4581 
L 4106 4581 
L 4106 0 
L 3500 0 
L 3500 2159 
L 1119 2159 
L 1119 0 
L 513 0 
z
" transform="scale(0.015625)"/>
       <path id="ArialMT-79" d="M 397 -1278 
L 334 -750 
Q 519 -800 656 -800 
Q 844 -800 956 -737 
Q 1069 -675 1141 -563 
Q 1194 -478 1313 -144 
Q 1328 -97 1363 -6 
L 103 3319 
L 709 3319 
L 1400 1397 
Q 1534 1031 1641 628 
Q 1738 1016 1872 1384 
L 2581 3319 
L 3144 3319 
L 1881 -56 
Q 1678 -603 1566 -809 
Q 1416 -1088 1222 -1217 
Q 1028 -1347 759 -1347 
Q 597 -1347 397 -1278 
z
" transform="scale(0.015625)"/>
       <path id="ArialMT-70" d="M 422 -1272 
L 422 3319 
L 934 3319 
L 934 2888 
Q 1116 3141 1344 3267 
Q 1572 3394 1897 3394 
Q 2322 3394 2647 3175 
Q 2972 2956 3137 2557 
Q 3303 2159 3303 1684 
Q 3303 1175 3120 767 
Q 2938 359 2589 142 
Q 2241 -75 1856 -75 
Q 1575 -75 1351 44 
Q 1128 163 984 344 
L 984 -1272 
L 422 -1272 
z
M 931 1641 
Q 931 1000 1190 694 
Q 1450 388 1819 388 
Q 2194 388 2461 705 
Q 2728 1022 2728 1688 
Q 2728 2322 2467 2637 
Q 2206 2953 1844 2953 
Q 1484 2953 1207 2617 
Q 931 2281 931 1641 
z
" transform="scale(0.015625)"/>
       <path id="ArialMT-65" d="M 2694 1069 
L 3275 997 
Q 3138 488 2766 206 
Q 2394 -75 1816 -75 
Q 1088 -75 661 373 
Q 234 822 234 1631 
Q 234 2469 665 2931 
Q 1097 3394 1784 3394 
Q 2450 3394 2872 2941 
Q 3294 2488 3294 1666 
Q 3294 1616 3291 1516 
L 816 1516 
Q 847 969 1125 678 
Q 1403 388 1819 388 
Q 2128 388 2347 550 
Q 2566 713 2694 1069 
z
M 847 1978 
L 2700 1978 
Q 2663 2397 2488 2606 
Q 2219 2931 1791 2931 
Q 1403 2931 1139 2672 
Q 875 2413 847 1978 
z
" transform="scale(0.015625)"/>
       <path id="ArialMT-72" d="M 416 0 
L 416 3319 
L 922 3319 
L 922 2816 
Q 1116 3169 1280 3281 
Q 1444 3394 1641 3394 
Q 1925 3394 2219 3213 
L 2025 2691 
Q 1819 2813 1613 2813 
Q 1428 2813 1281 2702 
Q 1134 2591 1072 2394 
Q 978 2094 978 1738 
L 978 0 
L 416 0 
z
" transform="scale(0.015625)"/>
       <path id="ArialMT-50" d="M 494 0 
L 494 4581 
L 2222 4581 
Q 2678 4581 2919 4538 
Q 3256 4481 3484 4323 
Q 3713 4166 3852 3881 
Q 3991 3597 3991 3256 
Q 3991 2672 3619 2267 
Q 3247 1863 2275 1863 
L 1100 1863 
L 1100 0 
L 494 0 
z
M 1100 2403 
L 2284 2403 
Q 2872 2403 3119 2622 
Q 3366 2841 3366 3238 
Q 3366 3525 3220 3729 
Q 3075 3934 2838 4000 
Q 2684 4041 2272 4041 
L 1100 4041 
L 1100 2403 
z
" transform="scale(0.015625)"/>
      </defs>
      <use xlink:href="#ArialMT-28"/>
      <use xlink:href="#ArialMT-25" transform="translate(33.300781 0)"/>
      <use xlink:href="#ArialMT-29" transform="translate(122.216797 0)"/>
      <use xlink:href="#ArialMT-20" transform="translate(155.517578 0)"/>
      <use xlink:href="#ArialMT-48" transform="translate(183.300781 0)"/>
      <use xlink:href="#ArialMT-79" transform="translate(255.517578 0)"/>
      <use xlink:href="#ArialMT-70" transform="translate(305.517578 0)"/>
      <use xlink:href="#ArialMT-65" transform="translate(361.132812 0)"/>
      <use xlink:href="#ArialMT-72" transform="translate(416.748047 0)"/>
      <use xlink:href="#ArialMT-50" transform="translate(450.048828 0)"/>
     </g>
    </g>
   </g>
   <g id="patch_3">
    <path d="M 51.313494 124.2 
L 63.96804 124.2 
L 63.96804 39.38662 
L 51.313494 39.38662 
z
" clip-path="url(#pc4e9558bf0)" style="fill: #4b4279; opacity: 0.8; stroke: #ffffff; stroke-linejoin: miter"/>
   </g>
   <g id="patch_4">
    <path d="M 130.404403 124.2 
L 143.058949 124.2 
L 143.058949 44.418214 
L 130.404403 44.418214 
z
" clip-path="url(#pc4e9558bf0)" style="fill: #4b4279; opacity: 0.8; stroke: #ffffff; stroke-linejoin: miter"/>
   </g>
   <g id="patch_5">
    <path d="M 63.96804 124.2 
L 76.622585 124.2 
L 76.622585 40.18241 
L 63.96804 40.18241 
z
" clip-path="url(#pc4e9558bf0)" style="fill: #3c6682; opacity: 0.8; stroke: #ffffff; stroke-linejoin: miter"/>
   </g>
   <g id="patch_6">
    <path d="M 143.058949 124.2 
L 155.713494 124.2 
L 155.713494 48.446676 
L 143.058949 48.446676 
z
" clip-path="url(#pc4e9558bf0)" style="fill: #3c6682; opacity: 0.8; stroke: #ffffff; stroke-linejoin: miter"/>
   </g>
   <g id="patch_7">
    <path d="M 76.622585 124.2 
L 89.277131 124.2 
L 89.277131 49.059495 
L 76.622585 49.059495 
z
" clip-path="url(#pc4e9558bf0)" style="fill: #2f837f; opacity: 0.8; stroke: #ffffff; stroke-linejoin: miter"/>
   </g>
   <g id="patch_8">
    <path d="M 155.713494 124.2 
L 168.36804 124.2 
L 168.36804 53.060531 
L 155.713494 53.060531 
z
" clip-path="url(#pc4e9558bf0)" style="fill: #2f837f; opacity: 0.8; stroke: #ffffff; stroke-linejoin: miter"/>
   </g>
   <g id="patch_9">
    <path d="M 89.277131 124.2 
L 101.931676 124.2 
L 101.931676 44.317254 
L 89.277131 44.317254 
z
" clip-path="url(#pc4e9558bf0)" style="fill: #45a778; opacity: 0.8; stroke: #ffffff; stroke-linejoin: miter"/>
   </g>
   <g id="patch_10">
    <path d="M 168.36804 124.2 
L 181.022585 124.2 
L 181.022585 52.948817 
L 168.36804 52.948817 
z
" clip-path="url(#pc4e9558bf0)" style="fill: #45a778; opacity: 0.8; stroke: #ffffff; stroke-linejoin: miter"/>
   </g>
   <g id="patch_11">
    <path d="M 101.931676 124.2 
L 114.586222 124.2 
L 114.586222 40.853703 
L 101.931676 40.853703 
z
" clip-path="url(#pc4e9558bf0)" style="fill: #8fc456; opacity: 0.8; stroke: #ffffff; stroke-linejoin: miter"/>
   </g>
   <g id="patch_12">
    <path d="M 181.022585 124.2 
L 193.677131 124.2 
L 193.677131 50.837518 
L 181.022585 50.837518 
z
" clip-path="url(#pc4e9558bf0)" style="fill: #8fc456; opacity: 0.8; stroke: #ffffff; stroke-linejoin: miter"/>
   </g>
   <g id="line2d_8">
    <path d="M 57.640767 40.8346 
L 57.640767 37.991244 
" clip-path="url(#pc4e9558bf0)" style="fill: none; stroke: #424242; stroke-width: 2.7; stroke-linecap: round"/>
   </g>
   <g id="line2d_9">
    <path d="M 136.731676 50.525313 
L 136.731676 37.998773 
" clip-path="url(#pc4e9558bf0)" style="fill: none; stroke: #424242; stroke-width: 2.7; stroke-linecap: round"/>
   </g>
   <g id="line2d_10">
    <path d="M 70.295312 44.646667 
L 70.295312 35.323233 
" clip-path="url(#pc4e9558bf0)" style="fill: none; stroke: #424242; stroke-width: 2.7; stroke-linecap: round"/>
   </g>
   <g id="line2d_11">
    <path d="M 149.386222 56.164497 
L 149.386222 40.193537 
" clip-path="url(#pc4e9558bf0)" style="fill: none; stroke: #424242; stroke-width: 2.7; stroke-linecap: round"/>
   </g>
   <g id="line2d_12">
    <path d="M 82.949858 54.844839 
L 82.949858 42.615831 
" clip-path="url(#pc4e9558bf0)" style="fill: none; stroke: #424242; stroke-width: 2.7; stroke-linecap: round"/>
   </g>
   <g id="line2d_13">
    <path d="M 162.040767 62.07522 
L 162.040767 44.624163 
" clip-path="url(#pc4e9558bf0)" style="fill: none; stroke: #424242; stroke-width: 2.7; stroke-linecap: round"/>
   </g>
   <g id="line2d_14">
    <path d="M 95.604403 50.669556 
L 95.604403 37.41245 
" clip-path="url(#pc4e9558bf0)" style="fill: none; stroke: #424242; stroke-width: 2.7; stroke-linecap: round"/>
   </g>
   <g id="line2d_15">
    <path d="M 174.695312 64.184108 
L 174.695312 42.68752 
" clip-path="url(#pc4e9558bf0)" style="fill: none; stroke: #424242; stroke-width: 2.7; stroke-linecap: round"/>
   </g>
   <g id="line2d_16">
    <path d="M 108.258949 45.966074 
L 108.258949 35.80631 
" clip-path="url(#pc4e9558bf0)" style="fill: none; stroke: #424242; stroke-width: 2.7; stroke-linecap: round"/>
   </g>
   <g id="line2d_17">
    <path d="M 187.349858 60.012364 
L 187.349858 42.097689 
" clip-path="url(#pc4e9558bf0)" style="fill: none; stroke: #424242; stroke-width: 2.7; stroke-linecap: round"/>
   </g>
   <g id="line2d_18">
    <path d="M 57.640767 23.495481 
L 57.640767 21.506022 
L 82.949858 21.506022 
L 82.949858 23.495481 
" clip-path="url(#pc4e9558bf0)" style="fill: none; stroke: #333333; stroke-width: 1.5; stroke-linecap: round"/>
   </g>
   <g id="line2d_19">
    <path d="M 136.731676 24.971427 
L 136.731676 22.981968 
L 162.040767 22.981968 
L 162.040767 24.971427 
" clip-path="url(#pc4e9558bf0)" style="fill: none; stroke: #333333; stroke-width: 1.5; stroke-linecap: round"/>
   </g>
   <g id="patch_13">
    <path d="M 44.195312 124.2 
L 44.195312 7.2 
" style="fill: none; stroke: #262626; stroke-width: 1.25; stroke-linejoin: miter; stroke-linecap: square"/>
   </g>
   <g id="patch_14">
    <path d="M 200.795312 124.2 
L 200.795312 7.2 
" style="fill: none; stroke: #262626; stroke-width: 1.25; stroke-linejoin: miter; stroke-linecap: square"/>
   </g>
   <g id="patch_15">
    <path d="M 44.195312 124.2 
L 200.795312 124.2 
" style="fill: none; stroke: #262626; stroke-width: 1.25; stroke-linejoin: miter; stroke-linecap: square"/>
   </g>
   <g id="patch_16">
    <path d="M 44.195312 7.2 
L 200.795312 7.2 
" style="fill: none; stroke: #262626; stroke-width: 1.25; stroke-linejoin: miter; stroke-linecap: square"/>
   </g>
   <g id="PathCollection_1">
    <defs>
     <path id="C0_0_5882117641" d="M 0 2.5 
C 0.663008 2.5 1.29895 2.236584 1.767767 1.767767 
C 2.236584 1.29895 2.5 0.663008 2.5 -0 
C 2.5 -0.663008 2.236584 -1.29895 1.767767 -1.767767 
C 1.29895 -2.236584 0.663008 -2.5 0 -2.5 
C -0.663008 -2.5 -1.29895 -2.236584 -1.767767 -1.767767 
C -2.236584 -1.29895 -2.5 -0.663008 -2.5 0 
C -2.5 0.663008 -2.236584 1.29895 -1.767767 1.767767 
C -1.29895 2.236584 -0.663008 2.5 0 2.5 
z
"/>
    </defs>
    <g clip-path="url(#pc4e9558bf0)">
     <use xlink:href="#C0_0_5882117641" x="56.172805" y="37.577866" style="fill: #ffffff; stroke: #000000; stroke-width: 0.4"/>
    </g>
    <g clip-path="url(#pc4e9558bf0)">
     <use xlink:href="#C0_0_5882117641" x="58.165903" y="41.05992" style="fill: #ffffff; stroke: #000000; stroke-width: 0.4"/>
    </g>
    <g clip-path="url(#pc4e9558bf0)">
     <use xlink:href="#C0_0_5882117641" x="56.793916" y="39.588224" style="fill: #ffffff; stroke: #000000; stroke-width: 0.4"/>
    </g>
   </g>
   <g id="PathCollection_2">
    <defs>
     <path id="C1_0_3cb303dcaf" d="M 0 2.5 
C 0.663008 2.5 1.29895 2.236584 1.767767 1.767767 
C 2.236584 1.29895 2.5 0.663008 2.5 -0 
C 2.5 -0.663008 2.236584 -1.29895 1.767767 -1.767767 
C 1.29895 -2.236584 0.663008 -2.5 0 -2.5 
C -0.663008 -2.5 -1.29895 -2.236584 -1.767767 -1.767767 
C -2.236584 -1.29895 -2.5 -0.663008 -2.5 0 
C -2.5 0.663008 -2.236584 1.29895 -1.767767 1.767767 
C -1.29895 2.236584 -0.663008 2.5 0 2.5 
z
"/>
    </defs>
    <g clip-path="url(#pc4e9558bf0)">
     <use xlink:href="#C1_0_3cb303dcaf" x="70.08069" y="50.404708" style="fill: #ffffff; stroke: #000000; stroke-width: 0.4"/>
    </g>
    <g clip-path="url(#pc4e9558bf0)">
     <use xlink:href="#C1_0_3cb303dcaf" x="70.011795" y="47.385733" style="fill: #ffffff; stroke: #000000; stroke-width: 0.4"/>
    </g>
    <g clip-path="url(#pc4e9558bf0)">
     <use xlink:href="#C1_0_3cb303dcaf" x="69.292055" y="47.647648" style="fill: #ffffff; stroke: #000000; stroke-width: 0.4"/>
    </g>
   </g>
   <g id="PathCollection_3">
    <defs>
     <path id="C2_0_721ebab4c9" d="M 0 2.5 
C 0.663008 2.5 1.29895 2.236584 1.767767 1.767767 
C 2.236584 1.29895 2.5 0.663008 2.5 -0 
C 2.5 -0.663008 2.236584 -1.29895 1.767767 -1.767767 
C 1.29895 -2.236584 0.663008 -2.5 0 -2.5 
C -0.663008 -2.5 -1.29895 -2.236584 -1.767767 -1.767767 
C -2.236584 -1.29895 -2.5 -0.663008 -2.5 0 
C -2.5 0.663008 -2.236584 1.29895 -1.767767 1.767767 
C -1.29895 2.236584 -0.663008 2.5 0 2.5 
z
"/>
    </defs>
    <g clip-path="url(#pc4e9558bf0)">
     <use xlink:href="#C2_0_721ebab4c9" x="83.564555" y="59.872203" style="fill: #ffffff; stroke: #000000; stroke-width: 0.4"/>
    </g>
    <g clip-path="url(#pc4e9558bf0)">
     <use xlink:href="#C2_0_721ebab4c9" x="81.602332" y="61.526118" style="fill: #ffffff; stroke: #000000; stroke-width: 0.4"/>
    </g>
    <g clip-path="url(#pc4e9558bf0)">
     <use xlink:href="#C2_0_721ebab4c9" x="81.625847" y="60.012977" style="fill: #ffffff; stroke: #000000; stroke-width: 0.4"/>
    </g>
   </g>
   <g id="PathCollection_4">
    <defs>
     <path id="C3_0_2defa065dd" d="M 0 2.5 
C 0.663008 2.5 1.29895 2.236584 1.767767 1.767767 
C 2.236584 1.29895 2.5 0.663008 2.5 -0 
C 2.5 -0.663008 2.236584 -1.29895 1.767767 -1.767767 
C 1.29895 -2.236584 0.663008 -2.5 0 -2.5 
C -0.663008 -2.5 -1.29895 -2.236584 -1.767767 -1.767767 
C -2.236584 -1.29895 -2.5 -0.663008 -2.5 0 
C -2.5 0.663008 -2.236584 1.29895 -1.767767 1.767767 
C -1.29895 2.236584 -0.663008 2.5 0 2.5 
z
"/>
    </defs>
    <g clip-path="url(#pc4e9558bf0)">
     <use xlink:href="#C3_0_2defa065dd" x="96.20025" y="53.095793" style="fill: #ffffff; stroke: #000000; stroke-width: 0.4"/>
    </g>
    <g clip-path="url(#pc4e9558bf0)">
     <use xlink:href="#C3_0_2defa065dd" x="96.697055" y="55.045706" style="fill: #ffffff; stroke: #000000; stroke-width: 0.4"/>
    </g>
    <g clip-path="url(#pc4e9558bf0)">
     <use xlink:href="#C3_0_2defa065dd" x="96.830494" y="53.776937" style="fill: #ffffff; stroke: #000000; stroke-width: 0.4"/>
    </g>
   </g>
   <g id="PathCollection_5">
    <defs>
     <path id="C4_0_81525913fb" d="M 0 2.5 
C 0.663008 2.5 1.29895 2.236584 1.767767 1.767767 
C 2.236584 1.29895 2.5 0.663008 2.5 -0 
C 2.5 -0.663008 2.236584 -1.29895 1.767767 -1.767767 
C 1.29895 -2.236584 0.663008 -2.5 0 -2.5 
C -0.663008 -2.5 -1.29895 -2.236584 -1.767767 -1.767767 
C -2.236584 -1.29895 -2.5 -0.663008 -2.5 0 
C -2.5 0.663008 -2.236584 1.29895 -1.767767 1.767767 
C -1.29895 2.236584 -0.663008 2.5 0 2.5 
z
"/>
    </defs>
    <g clip-path="url(#pc4e9558bf0)">
     <use xlink:href="#C4_0_81525913fb" x="108.279695" y="49.35675" style="fill: #ffffff; stroke: #000000; stroke-width: 0.4"/>
    </g>
    <g clip-path="url(#pc4e9558bf0)">
     <use xlink:href="#C4_0_81525913fb" x="107.222623" y="48.305655" style="fill: #ffffff; stroke: #000000; stroke-width: 0.4"/>
    </g>
    <g clip-path="url(#pc4e9558bf0)">
     <use xlink:href="#C4_0_81525913fb" x="107.186593" y="48.321843" style="fill: #ffffff; stroke: #000000; stroke-width: 0.4"/>
    </g>
   </g>
   <g id="PathCollection_6">
    <defs>
     <path id="C5_0_7d9cce317b" d="M 0 2.5 
C 0.663008 2.5 1.29895 2.236584 1.767767 1.767767 
C 2.236584 1.29895 2.5 0.663008 2.5 -0 
C 2.5 -0.663008 2.236584 -1.29895 1.767767 -1.767767 
C 1.29895 -2.236584 0.663008 -2.5 0 -2.5 
C -0.663008 -2.5 -1.29895 -2.236584 -1.767767 -1.767767 
C -2.236584 -1.29895 -2.5 -0.663008 -2.5 0 
C -2.5 0.663008 -2.236584 1.29895 -1.767767 1.767767 
C -1.29895 2.236584 -0.663008 2.5 0 2.5 
z
"/>
    </defs>
    <g clip-path="url(#pc4e9558bf0)">
     <use xlink:href="#C5_0_7d9cce317b" x="137.686523" y="54.883807" style="fill: #ffffff; stroke: #000000; stroke-width: 0.4"/>
    </g>
    <g clip-path="url(#pc4e9558bf0)">
     <use xlink:href="#C5_0_7d9cce317b" x="138.194834" y="57.211764" style="fill: #ffffff; stroke: #000000; stroke-width: 0.4"/>
    </g>
    <g clip-path="url(#pc4e9558bf0)">
     <use xlink:href="#C5_0_7d9cce317b" x="135.174834" y="54.852407" style="fill: #ffffff; stroke: #000000; stroke-width: 0.4"/>
    </g>
   </g>
   <g id="PathCollection_7">
    <defs>
     <path id="C6_0_a8fc690e2b" d="M 0 2.5 
C 0.663008 2.5 1.29895 2.236584 1.767767 1.767767 
C 2.236584 1.29895 2.5 0.663008 2.5 -0 
C 2.5 -0.663008 2.236584 -1.29895 1.767767 -1.767767 
C 1.29895 -2.236584 0.663008 -2.5 0 -2.5 
C -0.663008 -2.5 -1.29895 -2.236584 -1.767767 -1.767767 
C -2.236584 -1.29895 -2.5 -0.663008 -2.5 0 
C -2.5 0.663008 -2.236584 1.29895 -1.767767 1.767767 
C -1.29895 2.236584 -0.663008 2.5 0 2.5 
z
"/>
    </defs>
    <g clip-path="url(#pc4e9558bf0)">
     <use xlink:href="#C6_0_a8fc690e2b" x="150.036757" y="60.107985" style="fill: #ffffff; stroke: #000000; stroke-width: 0.4"/>
    </g>
    <g clip-path="url(#pc4e9558bf0)">
     <use xlink:href="#C6_0_a8fc690e2b" x="150.584266" y="64.954213" style="fill: #ffffff; stroke: #000000; stroke-width: 0.4"/>
    </g>
    <g clip-path="url(#pc4e9558bf0)">
     <use xlink:href="#C6_0_a8fc690e2b" x="148.984202" y="65.418882" style="fill: #ffffff; stroke: #000000; stroke-width: 0.4"/>
    </g>
   </g>
   <g id="PathCollection_8">
    <defs>
     <path id="C7_0_4c39226948" d="M 0 2.5 
C 0.663008 2.5 1.29895 2.236584 1.767767 1.767767 
C 2.236584 1.29895 2.5 0.663008 2.5 -0 
C 2.5 -0.663008 2.236584 -1.29895 1.767767 -1.767767 
C 1.29895 -2.236584 0.663008 -2.5 0 -2.5 
C -0.663008 -2.5 -1.29895 -2.236584 -1.767767 -1.767767 
C -2.236584 -1.29895 -2.5 -0.663008 -2.5 0 
C -2.5 0.663008 -2.236584 1.29895 -1.767767 1.767767 
C -1.29895 2.236584 -0.663008 2.5 0 2.5 
z
"/>
    </defs>
    <g clip-path="url(#pc4e9558bf0)">
     <use xlink:href="#C7_0_4c39226948" x="161.38068" y="69.298253" style="fill: #ffffff; stroke: #000000; stroke-width: 0.4"/>
    </g>
    <g clip-path="url(#pc4e9558bf0)">
     <use xlink:href="#C7_0_4c39226948" x="161.19052" y="71.123308" style="fill: #ffffff; stroke: #000000; stroke-width: 0.4"/>
    </g>
    <g clip-path="url(#pc4e9558bf0)">
     <use xlink:href="#C7_0_4c39226948" x="162.216218" y="70.325446" style="fill: #ffffff; stroke: #000000; stroke-width: 0.4"/>
    </g>
   </g>
   <g id="PathCollection_9">
    <defs>
     <path id="C8_0_1a52b50fd8" d="M 0 2.5 
C 0.663008 2.5 1.29895 2.236584 1.767767 1.767767 
C 2.236584 1.29895 2.5 0.663008 2.5 -0 
C 2.5 -0.663008 2.236584 -1.29895 1.767767 -1.767767 
C 1.29895 -2.236584 0.663008 -2.5 0 -2.5 
C -0.663008 -2.5 -1.29895 -2.236584 -1.767767 -1.767767 
C -2.236584 -1.29895 -2.5 -0.663008 -2.5 0 
C -2.5 0.663008 -2.236584 1.29895 -1.767767 1.767767 
C -1.29895 2.236584 -0.663008 2.5 0 2.5 
z
"/>
    </defs>
    <g clip-path="url(#pc4e9558bf0)">
     <use xlink:href="#C8_0_1a52b50fd8" x="173.97567" y="69.11467" style="fill: #ffffff; stroke: #000000; stroke-width: 0.4"/>
    </g>
    <g clip-path="url(#pc4e9558bf0)">
     <use xlink:href="#C8_0_1a52b50fd8" x="175.972374" y="74.209072" style="fill: #ffffff; stroke: #000000; stroke-width: 0.4"/>
    </g>
    <g clip-path="url(#pc4e9558bf0)">
     <use xlink:href="#C8_0_1a52b50fd8" x="173.444252" y="70.746465" style="fill: #ffffff; stroke: #000000; stroke-width: 0.4"/>
    </g>
   </g>
   <g id="PathCollection_10">
    <defs>
     <path id="C9_0_d38dd48c60" d="M 0 2.5 
C 0.663008 2.5 1.29895 2.236584 1.767767 1.767767 
C 2.236584 1.29895 2.5 0.663008 2.5 -0 
C 2.5 -0.663008 2.236584 -1.29895 1.767767 -1.767767 
C 1.29895 -2.236584 0.663008 -2.5 0 -2.5 
C -0.663008 -2.5 -1.29895 -2.236584 -1.767767 -1.767767 
C -2.236584 -1.29895 -2.5 -0.663008 -2.5 0 
C -2.5 0.663008 -2.236584 1.29895 -1.767767 1.767767 
C -1.29895 2.236584 -0.663008 2.5 0 2.5 
z
"/>
    </defs>
    <g clip-path="url(#pc4e9558bf0)">
     <use xlink:href="#C9_0_d38dd48c60" x="187.547491" y="72.473922" style="fill: #ffffff; stroke: #000000; stroke-width: 0.4"/>
    </g>
    <g clip-path="url(#pc4e9558bf0)">
     <use xlink:href="#C9_0_d38dd48c60" x="186.976412" y="66.808876" style="fill: #ffffff; stroke: #000000; stroke-width: 0.4"/>
    </g>
    <g clip-path="url(#pc4e9558bf0)">
     <use xlink:href="#C9_0_d38dd48c60" x="186.965713" y="68.475176" style="fill: #ffffff; stroke: #000000; stroke-width: 0.4"/>
    </g>
   </g>
   <g id="PathCollection_11">
    <path d="M 58.076152 38.62425 
L 55.576152 43.62425 
L 60.576152 43.62425 
z
" clip-path="url(#pc4e9558bf0)" style="fill: #ffffff; stroke: #000000; stroke-width: 0.4"/>
    <path d="M 58.206932 40.628828 
L 55.706932 45.628828 
L 60.706932 45.628828 
z
" clip-path="url(#pc4e9558bf0)" style="fill: #ffffff; stroke: #000000; stroke-width: 0.4"/>
    <path d="M 56.274324 38.690239 
L 53.774324 43.690239 
L 58.774324 43.690239 
z
" clip-path="url(#pc4e9558bf0)" style="fill: #ffffff; stroke: #000000; stroke-width: 0.4"/>
   </g>
   <g id="PathCollection_12">
    <path d="M 70.883987 36.423555 
L 68.383987 41.423555 
L 73.383987 41.423555 
z
" clip-path="url(#pc4e9558bf0)" style="fill: #ffffff; stroke: #000000; stroke-width: 0.4"/>
    <path d="M 70.146923 39.199042 
L 67.646923 44.199042 
L 72.646923 44.199042 
z
" clip-path="url(#pc4e9558bf0)" style="fill: #ffffff; stroke: #000000; stroke-width: 0.4"/>
    <path d="M 70.267688 39.450893 
L 67.767688 44.450893 
L 72.767688 44.450893 
z
" clip-path="url(#pc4e9558bf0)" style="fill: #ffffff; stroke: #000000; stroke-width: 0.4"/>
   </g>
   <g id="PathCollection_13">
    <path d="M 81.953616 47.350629 
L 79.453616 52.350629 
L 84.453616 52.350629 
z
" clip-path="url(#pc4e9558bf0)" style="fill: #ffffff; stroke: #000000; stroke-width: 0.4"/>
    <path d="M 81.494421 49.399148 
L 78.994421 54.399148 
L 83.994421 54.399148 
z
" clip-path="url(#pc4e9558bf0)" style="fill: #ffffff; stroke: #000000; stroke-width: 0.4"/>
    <path d="M 81.890668 44.654492 
L 79.390668 49.654492 
L 84.390668 49.654492 
z
" clip-path="url(#pc4e9558bf0)" style="fill: #ffffff; stroke: #000000; stroke-width: 0.4"/>
   </g>
   <g id="PathCollection_14">
    <path d="M 95.706382 44.879906 
L 93.206382 49.879906 
L 98.206382 49.879906 
z
" clip-path="url(#pc4e9558bf0)" style="fill: #ffffff; stroke: #000000; stroke-width: 0.4"/>
    <path d="M 96.315429 45.737655 
L 93.815429 50.737655 
L 98.815429 50.737655 
z
" clip-path="url(#pc4e9558bf0)" style="fill: #ffffff; stroke: #000000; stroke-width: 0.4"/>
   </g>
   <g id="PathCollection_15">
    <path d="M 109.733649 43.851249 
L 107.233649 48.851249 
L 112.233649 48.851249 
z
" clip-path="url(#pc4e9558bf0)" style="fill: #ffffff; stroke: #000000; stroke-width: 0.4"/>
    <path d="M 108.40079 41.375283 
L 105.90079 46.375283 
L 110.90079 46.375283 
z
" clip-path="url(#pc4e9558bf0)" style="fill: #ffffff; stroke: #000000; stroke-width: 0.4"/>
    <path d="M 109.536918 36.360835 
L 107.036918 41.360835 
L 112.036918 41.360835 
z
" clip-path="url(#pc4e9558bf0)" style="fill: #ffffff; stroke: #000000; stroke-width: 0.4"/>
   </g>
   <g id="PathCollection_16">
    <path d="M 137.91686 43.348155 
L 135.41686 48.348155 
L 140.41686 48.348155 
z
" clip-path="url(#pc4e9558bf0)" style="fill: #ffffff; stroke: #000000; stroke-width: 0.4"/>
    <path d="M 137.080645 40.427136 
L 134.580645 45.427136 
L 139.580645 45.427136 
z
" clip-path="url(#pc4e9558bf0)" style="fill: #ffffff; stroke: #000000; stroke-width: 0.4"/>
    <path d="M 137.61973 41.834092 
L 135.11973 46.834092 
L 140.11973 46.834092 
z
" clip-path="url(#pc4e9558bf0)" style="fill: #ffffff; stroke: #000000; stroke-width: 0.4"/>
   </g>
   <g id="PathCollection_17">
    <path d="M 150.78962 45.11772 
L 148.28962 50.11772 
L 153.28962 50.11772 
z
" clip-path="url(#pc4e9558bf0)" style="fill: #ffffff; stroke: #000000; stroke-width: 0.4"/>
    <path d="M 148.665076 47.188873 
L 146.165076 52.188873 
L 151.165076 52.188873 
z
" clip-path="url(#pc4e9558bf0)" style="fill: #ffffff; stroke: #000000; stroke-width: 0.4"/>
    <path d="M 149.82277 47.498579 
L 147.32277 52.498579 
L 152.32277 52.498579 
z
" clip-path="url(#pc4e9558bf0)" style="fill: #ffffff; stroke: #000000; stroke-width: 0.4"/>
   </g>
   <g id="PathCollection_18">
    <path d="M 161.908056 49.315913 
L 159.408056 54.315913 
L 164.408056 54.315913 
z
" clip-path="url(#pc4e9558bf0)" style="fill: #ffffff; stroke: #000000; stroke-width: 0.4"/>
    <path d="M 161.761691 47.497597 
L 159.261691 52.497597 
L 164.261691 52.497597 
z
" clip-path="url(#pc4e9558bf0)" style="fill: #ffffff; stroke: #000000; stroke-width: 0.4"/>
    <path d="M 162.934441 46.723144 
L 160.434441 51.723144 
L 165.434441 51.723144 
z
" clip-path="url(#pc4e9558bf0)" style="fill: #ffffff; stroke: #000000; stroke-width: 0.4"/>
   </g>
   <g id="PathCollection_19">
    <path d="M 173.143219 47.454131 
L 170.643219 52.454131 
L 175.643219 52.454131 
z
" clip-path="url(#pc4e9558bf0)" style="fill: #ffffff; stroke: #000000; stroke-width: 0.4"/>
    <path d="M 174.521418 48.382419 
L 172.021418 53.382419 
L 177.021418 53.382419 
z
" clip-path="url(#pc4e9558bf0)" style="fill: #ffffff; stroke: #000000; stroke-width: 0.4"/>
   </g>
   <g id="PathCollection_20">
    <path d="M 186.338945 50.210423 
L 183.838945 55.210423 
L 188.838945 55.210423 
z
" clip-path="url(#pc4e9558bf0)" style="fill: #ffffff; stroke: #000000; stroke-width: 0.4"/>
    <path d="M 187.928007 48.355301 
L 185.428007 53.355301 
L 190.428007 53.355301 
z
" clip-path="url(#pc4e9558bf0)" style="fill: #ffffff; stroke: #000000; stroke-width: 0.4"/>
    <path d="M 188.50116 42.477313 
L 186.00116 47.477313 
L 191.00116 47.477313 
z
" clip-path="url(#pc4e9558bf0)" style="fill: #ffffff; stroke: #000000; stroke-width: 0.4"/>
   </g>
   <g id="PathCollection_21">
    <path d="M 55.060802 39.327152 
L 60.060802 39.327152 
L 60.060802 34.327152 
L 55.060802 34.327152 
z
" clip-path="url(#pc4e9558bf0)" style="fill: #ffffff; stroke: #000000; stroke-width: 0.4"/>
    <path d="M 56.719658 40.12255 
L 61.719658 40.12255 
L 61.719658 35.12255 
L 56.719658 35.12255 
z
" clip-path="url(#pc4e9558bf0)" style="fill: #ffffff; stroke: #000000; stroke-width: 0.4"/>
    <path d="M 54.424297 38.860548 
L 59.424297 38.860548 
L 59.424297 33.860548 
L 54.424297 33.860548 
z
" clip-path="url(#pc4e9558bf0)" style="fill: #ffffff; stroke: #000000; stroke-width: 0.4"/>
   </g>
   <g id="PathCollection_22">
    <path d="M 67.884244 31.963858 
L 72.884244 31.963858 
L 72.884244 26.963858 
L 67.884244 26.963858 
z
" clip-path="url(#pc4e9558bf0)" style="fill: #ffffff; stroke: #000000; stroke-width: 0.4"/>
    <path d="M 67.729862 34.170062 
L 72.729862 34.170062 
L 72.729862 29.170062 
L 67.729862 29.170062 
z
" clip-path="url(#pc4e9558bf0)" style="fill: #ffffff; stroke: #000000; stroke-width: 0.4"/>
    <path d="M 67.335597 34.996188 
L 72.335597 34.996188 
L 72.335597 29.996188 
L 67.335597 29.996188 
z
" clip-path="url(#pc4e9558bf0)" style="fill: #ffffff; stroke: #000000; stroke-width: 0.4"/>
   </g>
   <g id="PathCollection_23">
    <path d="M 79.157649 38.607483 
L 84.157649 38.607483 
L 84.157649 33.607483 
L 79.157649 33.607483 
z
" clip-path="url(#pc4e9558bf0)" style="fill: #ffffff; stroke: #000000; stroke-width: 0.4"/>
    <path d="M 80.330561 37.033144 
L 85.330561 37.033144 
L 85.330561 32.033144 
L 80.330561 32.033144 
z
" clip-path="url(#pc4e9558bf0)" style="fill: #ffffff; stroke: #000000; stroke-width: 0.4"/>
    <path d="M 81.704958 43.07926 
L 86.704958 43.07926 
L 86.704958 38.07926 
L 81.704958 38.07926 
z
" clip-path="url(#pc4e9558bf0)" style="fill: #ffffff; stroke: #000000; stroke-width: 0.4"/>
   </g>
   <g id="PathCollection_24">
    <path d="M 92.551196 33.364184 
L 97.551196 33.364184 
L 97.551196 28.364184 
L 92.551196 28.364184 
z
" clip-path="url(#pc4e9558bf0)" style="fill: #ffffff; stroke: #000000; stroke-width: 0.4"/>
    <path d="M 92.090368 35.770018 
L 97.090368 35.770018 
L 97.090368 30.770018 
L 92.090368 30.770018 
z
" clip-path="url(#pc4e9558bf0)" style="fill: #ffffff; stroke: #000000; stroke-width: 0.4"/>
    <path d="M 91.643444 35.367831 
L 96.643444 35.367831 
L 96.643444 30.367831 
L 91.643444 30.367831 
z
" clip-path="url(#pc4e9558bf0)" style="fill: #ffffff; stroke: #000000; stroke-width: 0.4"/>
   </g>
   <g id="PathCollection_25">
    <path d="M 106.829409 33.045569 
L 111.829409 33.045569 
L 111.829409 28.045569 
L 106.829409 28.045569 
z
" clip-path="url(#pc4e9558bf0)" style="fill: #ffffff; stroke: #000000; stroke-width: 0.4"/>
    <path d="M 104.46061 33.556899 
L 109.46061 33.556899 
L 109.46061 28.556899 
L 104.46061 28.556899 
z
" clip-path="url(#pc4e9558bf0)" style="fill: #ffffff; stroke: #000000; stroke-width: 0.4"/>
    <path d="M 105.634255 33.50924 
L 110.634255 33.50924 
L 110.634255 28.50924 
L 105.634255 28.50924 
z
" clip-path="url(#pc4e9558bf0)" style="fill: #ffffff; stroke: #000000; stroke-width: 0.4"/>
   </g>
   <g id="PathCollection_26">
    <path d="M 132.98364 37.363039 
L 137.98364 37.363039 
L 137.98364 32.363039 
L 132.98364 32.363039 
z
" clip-path="url(#pc4e9558bf0)" style="fill: #ffffff; stroke: #000000; stroke-width: 0.4"/>
    <path d="M 135.438745 34.072045 
L 140.438745 34.072045 
L 140.438745 29.072045 
L 135.438745 29.072045 
z
" clip-path="url(#pc4e9558bf0)" style="fill: #ffffff; stroke: #000000; stroke-width: 0.4"/>
    <path d="M 133.703094 35.771485 
L 138.703094 35.771485 
L 138.703094 30.771485 
L 133.703094 30.771485 
z
" clip-path="url(#pc4e9558bf0)" style="fill: #ffffff; stroke: #000000; stroke-width: 0.4"/>
   </g>
   <g id="PathCollection_27">
    <path d="M 147.174707 33.439804 
L 152.174707 33.439804 
L 152.174707 28.439804 
L 147.174707 28.439804 
z
" clip-path="url(#pc4e9558bf0)" style="fill: #ffffff; stroke: #000000; stroke-width: 0.4"/>
    <path d="M 148.219294 36.510415 
L 153.219294 36.510415 
L 153.219294 31.510415 
L 148.219294 31.510415 
z
" clip-path="url(#pc4e9558bf0)" style="fill: #ffffff; stroke: #000000; stroke-width: 0.4"/>
    <path d="M 145.359686 35.783612 
L 150.359686 35.783612 
L 150.359686 30.783612 
L 145.359686 30.783612 
z
" clip-path="url(#pc4e9558bf0)" style="fill: #ffffff; stroke: #000000; stroke-width: 0.4"/>
   </g>
   <g id="PathCollection_28">
    <path d="M 160.36644 41.486037 
L 165.36644 41.486037 
L 165.36644 36.486037 
L 160.36644 36.486037 
z
" clip-path="url(#pc4e9558bf0)" style="fill: #ffffff; stroke: #000000; stroke-width: 0.4"/>
    <path d="M 159.422901 39.673808 
L 164.422901 39.673808 
L 164.422901 34.673808 
L 159.422901 34.673808 
z
" clip-path="url(#pc4e9558bf0)" style="fill: #ffffff; stroke: #000000; stroke-width: 0.4"/>
    <path d="M 158.90059 42.101268 
L 163.90059 42.101268 
L 163.90059 37.101268 
L 158.90059 37.101268 
z
" clip-path="url(#pc4e9558bf0)" style="fill: #ffffff; stroke: #000000; stroke-width: 0.4"/>
   </g>
   <g id="PathCollection_29">
    <path d="M 173.68599 38.857207 
L 178.68599 38.857207 
L 178.68599 33.857207 
L 173.68599 33.857207 
z
" clip-path="url(#pc4e9558bf0)" style="fill: #ffffff; stroke: #000000; stroke-width: 0.4"/>
    <path d="M 171.113947 37.781089 
L 176.113947 37.781089 
L 176.113947 32.781089 
L 171.113947 32.781089 
z
" clip-path="url(#pc4e9558bf0)" style="fill: #ffffff; stroke: #000000; stroke-width: 0.4"/>
    <path d="M 172.66233 39.545481 
L 177.66233 39.545481 
L 177.66233 34.545481 
L 172.66233 34.545481 
z
" clip-path="url(#pc4e9558bf0)" style="fill: #ffffff; stroke: #000000; stroke-width: 0.4"/>
   </g>
   <g id="PathCollection_30">
    <path d="M 183.604417 35.771646 
L 188.604417 35.771646 
L 188.604417 30.771646 
L 183.604417 30.771646 
z
" clip-path="url(#pc4e9558bf0)" style="fill: #ffffff; stroke: #000000; stroke-width: 0.4"/>
    <path d="M 185.525005 37.430335 
L 190.525005 37.430335 
L 190.525005 32.430335 
L 185.525005 32.430335 
z
" clip-path="url(#pc4e9558bf0)" style="fill: #ffffff; stroke: #000000; stroke-width: 0.4"/>
    <path d="M 185.284242 35.534668 
L 190.284242 35.534668 
L 190.284242 30.534668 
L 185.284242 30.534668 
z
" clip-path="url(#pc4e9558bf0)" style="fill: #ffffff; stroke: #000000; stroke-width: 0.4"/>
   </g>
   <g id="text_9">
    <!-- * -->
    <g style="fill: #262626" transform="translate(67.96 18.121022) scale(0.12 -0.12)">
     <defs>
      <path id="ArialMT-2a" d="M 200 3741 
L 344 4184 
Q 841 4009 1066 3881 
Q 1006 4447 1003 4659 
L 1456 4659 
Q 1447 4350 1384 3884 
Q 1706 4047 2122 4184 
L 2266 3741 
Q 1869 3609 1488 3566 
Q 1678 3400 2025 2975 
L 1650 2709 
Q 1469 2956 1222 3381 
Q 991 2941 816 2709 
L 447 2975 
Q 809 3422 966 3566 
Q 563 3644 200 3741 
z
" transform="scale(0.015625)"/>
     </defs>
     <use xlink:href="#ArialMT-2a"/>
    </g>
   </g>
   <g id="text_10">
    <!-- ns -->
    <g style="fill: #262626" transform="translate(143.049659 19.596968) scale(0.12 -0.12)">
     <defs>
      <path id="ArialMT-6e" d="M 422 0 
L 422 3319 
L 928 3319 
L 928 2847 
Q 1294 3394 1984 3394 
Q 2284 3394 2536 3286 
Q 2788 3178 2913 3003 
Q 3038 2828 3088 2588 
Q 3119 2431 3119 2041 
L 3119 0 
L 2556 0 
L 2556 2019 
Q 2556 2363 2490 2533 
Q 2425 2703 2258 2804 
Q 2091 2906 1866 2906 
Q 1506 2906 1245 2678 
Q 984 2450 984 1813 
L 984 0 
L 422 0 
z
" transform="scale(0.015625)"/>
      <path id="ArialMT-73" d="M 197 991 
L 753 1078 
Q 800 744 1014 566 
Q 1228 388 1613 388 
Q 2000 388 2187 545 
Q 2375 703 2375 916 
Q 2375 1106 2209 1216 
Q 2094 1291 1634 1406 
Q 1016 1563 777 1677 
Q 538 1791 414 1992 
Q 291 2194 291 2438 
Q 291 2659 392 2848 
Q 494 3038 669 3163 
Q 800 3259 1026 3326 
Q 1253 3394 1513 3394 
Q 1903 3394 2198 3281 
Q 2494 3169 2634 2976 
Q 2775 2784 2828 2463 
L 2278 2388 
Q 2241 2644 2061 2787 
Q 1881 2931 1553 2931 
Q 1166 2931 1000 2803 
Q 834 2675 834 2503 
Q 834 2394 903 2306 
Q 972 2216 1119 2156 
Q 1203 2125 1616 2013 
Q 2213 1853 2448 1751 
Q 2684 1650 2818 1456 
Q 2953 1263 2953 975 
Q 2953 694 2789 445 
Q 2625 197 2315 61 
Q 2006 -75 1616 -75 
Q 969 -75 630 194 
Q 291 463 197 991 
z
" transform="scale(0.015625)"/>
     </defs>
     <use xlink:href="#ArialMT-6e"/>
     <use xlink:href="#ArialMT-73" transform="translate(55.615234 0)"/>
    </g>
   </g>
   <g id="legend_1">
    <g id="patch_17">
     <path d="M 213.025313 19.473594 
L 235.025313 19.473594 
L 235.025313 11.773594 
L 213.025313 11.773594 
z
" style="fill: #4b4279; opacity: 0.8; stroke: #ffffff; stroke-linejoin: miter"/>
    </g>
    <g id="text_11">
     <!-- 0 nM -->
     <g style="fill: #262626" transform="translate(243.825313 19.473594) scale(0.11 -0.11)">
      <defs>
       <path id="ArialMT-4d" d="M 475 0 
L 475 4581 
L 1388 4581 
L 2472 1338 
Q 2622 884 2691 659 
Q 2769 909 2934 1394 
L 4031 4581 
L 4847 4581 
L 4847 0 
L 4263 0 
L 4263 3834 
L 2931 0 
L 2384 0 
L 1059 3900 
L 1059 0 
L 475 0 
z
" transform="scale(0.015625)"/>
      </defs>
      <use xlink:href="#ArialMT-30"/>
      <use xlink:href="#ArialMT-20" transform="translate(55.615234 0)"/>
      <use xlink:href="#ArialMT-6e" transform="translate(83.398438 0)"/>
      <use xlink:href="#ArialMT-4d" transform="translate(139.013672 0)"/>
     </g>
    </g>
    <g id="patch_18">
     <path d="M 213.025313 35.033437 
L 235.025313 35.033437 
L 235.025313 27.333437 
L 213.025313 27.333437 
z
" style="fill: #3c6682; opacity: 0.8; stroke: #ffffff; stroke-linejoin: miter"/>
    </g>
    <g id="text_12">
     <!-- 10 nM -->
     <g style="fill: #262626" transform="translate(243.825313 35.033437) scale(0.11 -0.11)">
      <defs>
       <path id="ArialMT-31" d="M 2384 0 
L 1822 0 
L 1822 3584 
Q 1619 3391 1289 3197 
Q 959 3003 697 2906 
L 697 3450 
Q 1169 3672 1522 3987 
Q 1875 4303 2022 4600 
L 2384 4600 
L 2384 0 
z
" transform="scale(0.015625)"/>
      </defs>
      <use xlink:href="#ArialMT-31"/>
      <use xlink:href="#ArialMT-30" transform="translate(55.615234 0)"/>
      <use xlink:href="#ArialMT-20" transform="translate(111.230469 0)"/>
      <use xlink:href="#ArialMT-6e" transform="translate(139.013672 0)"/>
      <use xlink:href="#ArialMT-4d" transform="translate(194.628906 0)"/>
     </g>
    </g>
    <g id="patch_19">
     <path d="M 213.025313 50.593281 
L 235.025313 50.593281 
L 235.025313 42.893281 
L 213.025313 42.893281 
z
" style="fill: #2f837f; opacity: 0.8; stroke: #ffffff; stroke-linejoin: miter"/>
    </g>
    <g id="text_13">
     <!-- 100 nM -->
     <g style="fill: #262626" transform="translate(243.825313 50.593281) scale(0.11 -0.11)">
      <use xlink:href="#ArialMT-31"/>
      <use xlink:href="#ArialMT-30" transform="translate(55.615234 0)"/>
      <use xlink:href="#ArialMT-30" transform="translate(111.230469 0)"/>
      <use xlink:href="#ArialMT-20" transform="translate(166.845703 0)"/>
      <use xlink:href="#ArialMT-6e" transform="translate(194.628906 0)"/>
      <use xlink:href="#ArialMT-4d" transform="translate(250.244141 0)"/>
     </g>
    </g>
    <g id="patch_20">
     <path d="M 213.025313 66.153125 
L 235.025313 66.153125 
L 235.025313 58.453125 
L 213.025313 58.453125 
z
" style="fill: #45a778; opacity: 0.8; stroke: #ffffff; stroke-linejoin: miter"/>
    </g>
    <g id="text_14">
     <!-- 200 nM -->
     <g style="fill: #262626" transform="translate(243.825313 66.153125) scale(0.11 -0.11)">
      <use xlink:href="#ArialMT-32"/>
      <use xlink:href="#ArialMT-30" transform="translate(55.615234 0)"/>
      <use xlink:href="#ArialMT-30" transform="translate(111.230469 0)"/>
      <use xlink:href="#ArialMT-20" transform="translate(166.845703 0)"/>
      <use xlink:href="#ArialMT-6e" transform="translate(194.628906 0)"/>
      <use xlink:href="#ArialMT-4d" transform="translate(250.244141 0)"/>
     </g>
    </g>
    <g id="patch_21">
     <path d="M 213.025313 81.712969 
L 235.025313 81.712969 
L 235.025313 74.012969 
L 213.025313 74.012969 
z
" style="fill: #8fc456; opacity: 0.8; stroke: #ffffff; stroke-linejoin: miter"/>
    </g>
    <g id="text_15">
     <!-- 400 nM -->
     <g style="fill: #262626" transform="translate(243.825313 81.712969) scale(0.11 -0.11)">
      <use xlink:href="#ArialMT-34"/>
      <use xlink:href="#ArialMT-30" transform="translate(55.615234 0)"/>
      <use xlink:href="#ArialMT-30" transform="translate(111.230469 0)"/>
      <use xlink:href="#ArialMT-20" transform="translate(166.845703 0)"/>
      <use xlink:href="#ArialMT-6e" transform="translate(194.628906 0)"/>
      <use xlink:href="#ArialMT-4d" transform="translate(250.244141 0)"/>
     </g>
    </g>
   </g>
  </g>
 </g>
 <defs>
  <clipPath id="pc4e9558bf0">
   <rect x="44.195312" y="7.2" width="156.6" height="117"/>
  </clipPath>
 </defs>
</svg>
