<?xml version="1.0" encoding="utf-8" standalone="no"?>
<!DOCTYPE svg PUBLIC "-//W3C//DTD SVG 1.1//EN"
  "http://www.w3.org/Graphics/SVG/1.1/DTD/svg11.dtd">
<svg xmlns:xlink="http://www.w3.org/1999/xlink" width="365.22475pt" height="174.228969pt" viewBox="0 0 365.22475 174.228969" xmlns="http://www.w3.org/2000/svg" version="1.1">
 <metadata>
  <rdf:RDF xmlns:dc="http://purl.org/dc/elements/1.1/" xmlns:cc="http://creativecommons.org/ns#" xmlns:rdf="http://www.w3.org/1999/02/22-rdf-syntax-ns#">
   <cc:Work>
    <dc:type rdf:resource="http://purl.org/dc/dcmitype/StillImage"/>
    <dc:date>2025-07-28T17:21:59.531048</dc:date>
    <dc:format>image/svg+xml</dc:format>
    <dc:creator>
     <cc:Agent>
      <dc:title>Matplotlib v3.10.3, https://matplotlib.org/</dc:title>
     </cc:Agent>
    </dc:creator>
   </cc:Work>
  </rdf:RDF>
 </metadata>
 <defs>
  <style type="text/css">*{stroke-linejoin: round; stroke-linecap: butt}</style>
 </defs>
 <g id="figure_1">
  <g id="patch_1">
   <path d="M 0 174.228969 
L 365.22475 174.228969 
L 365.22475 0 
L 0 0 
z
" style="fill: #ffffff"/>
  </g>
  <g id="axes_1">
   <g id="patch_2">
    <path d="M 56.887563 124.2 
L 229.687562 124.2 
L 229.687562 7.2 
L 56.887563 7.2 
z
" style="fill: #ffffff"/>
   </g>
   <g id="matplotlib.axis_1">
    <g id="xtick_1">
     <g id="line2d_1">
      <defs>
       <path id="md052f8d9f4" d="M 0 0 
L 0 6 
" style="stroke: #262626; stroke-width: 1.25"/>
      </defs>
      <g>
       <use xlink:href="#md052f8d9f4" x="81.277993" y="124.2" style="fill: #262626; stroke: #262626; stroke-width: 1.25"/>
      </g>
     </g>
     <g id="text_1">
      <!-- NIL -->
      <g style="fill: #262626" transform="translate(72.719477 141.573594) scale(0.11 -0.11)">
       <defs>
        <path id="ArialMT-4e" d="M 488 0 
L 488 4581 
L 1109 4581 
L 3516 984 
L 3516 4581 
L 4097 4581 
L 4097 0 
L 3475 0 
L 1069 3600 
L 1069 0 
L 488 0 
z
" transform="scale(0.015625)"/>
        <path id="ArialMT-49" d="M 597 0 
L 597 4581 
L 1203 4581 
L 1203 0 
L 597 0 
z
" transform="scale(0.015625)"/>
        <path id="ArialMT-4c" d="M 469 0 
L 469 4581 
L 1075 4581 
L 1075 541 
L 3331 541 
L 3331 0 
L 469 0 
z
" transform="scale(0.015625)"/>
       </defs>
       <use xlink:href="#ArialMT-4e"/>
       <use xlink:href="#ArialMT-49" transform="translate(72.216797 0)"/>
       <use xlink:href="#ArialMT-4c" transform="translate(100 0)"/>
      </g>
      <!-- RIDD, -->
      <g style="fill: #262626" transform="translate(66.305962 153.208156) scale(0.11 -0.11)">
       <defs>
        <path id="ArialMT-52" d="M 503 0 
L 503 4581 
L 2534 4581 
Q 3147 4581 3465 4457 
Q 3784 4334 3975 4021 
Q 4166 3709 4166 3331 
Q 4166 2844 3850 2509 
Q 3534 2175 2875 2084 
Q 3116 1969 3241 1856 
Q 3506 1613 3744 1247 
L 4541 0 
L 3778 0 
L 3172 953 
Q 2906 1366 2734 1584 
Q 2563 1803 2427 1890 
Q 2291 1978 2150 2013 
Q 2047 2034 1813 2034 
L 1109 2034 
L 1109 0 
L 503 0 
z
M 1109 2559 
L 2413 2559 
Q 2828 2559 3062 2645 
Q 3297 2731 3419 2920 
Q 3541 3109 3541 3331 
Q 3541 3656 3305 3865 
Q 3069 4075 2559 4075 
L 1109 4075 
L 1109 2559 
z
" transform="scale(0.015625)"/>
        <path id="ArialMT-44" d="M 494 0 
L 494 4581 
L 2072 4581 
Q 2606 4581 2888 4516 
Q 3281 4425 3559 4188 
Q 3922 3881 4101 3404 
Q 4281 2928 4281 2316 
Q 4281 1794 4159 1391 
Q 4038 988 3847 723 
Q 3656 459 3429 307 
Q 3203 156 2883 78 
Q 2563 0 2147 0 
L 494 0 
z
M 1100 541 
L 2078 541 
Q 2531 541 2789 625 
Q 3047 709 3200 863 
Q 3416 1078 3536 1442 
Q 3656 1806 3656 2325 
Q 3656 3044 3420 3430 
Q 3184 3816 2847 3947 
Q 2603 4041 2063 4041 
L 1100 4041 
L 1100 541 
z
" transform="scale(0.015625)"/>
        <path id="ArialMT-2c" d="M 569 0 
L 569 641 
L 1209 641 
L 1209 0 
Q 1209 -353 1084 -570 
Q 959 -788 688 -906 
L 531 -666 
Q 709 -588 793 -436 
Q 878 -284 888 0 
L 569 0 
z
" transform="scale(0.015625)"/>
       </defs>
       <use xlink:href="#ArialMT-52"/>
       <use xlink:href="#ArialMT-49" transform="translate(72.216797 0)"/>
       <use xlink:href="#ArialMT-44" transform="translate(100 0)"/>
       <use xlink:href="#ArialMT-44" transform="translate(172.216797 0)"/>
       <use xlink:href="#ArialMT-2c" transform="translate(244.433594 0)"/>
      </g>
      <!-- none -->
      <g style="fill: #262626" transform="translate(69.043931 164.842719) scale(0.11 -0.11)">
       <defs>
        <path id="ArialMT-6e" d="M 422 0 
L 422 3319 
L 928 3319 
L 928 2847 
Q 1294 3394 1984 3394 
Q 2284 3394 2536 3286 
Q 2788 3178 2913 3003 
Q 3038 2828 3088 2588 
Q 3119 2431 3119 2041 
L 3119 0 
L 2556 0 
L 2556 2019 
Q 2556 2363 2490 2533 
Q 2425 2703 2258 2804 
Q 2091 2906 1866 2906 
Q 1506 2906 1245 2678 
Q 984 2450 984 1813 
L 984 0 
L 422 0 
z
" transform="scale(0.015625)"/>
        <path id="ArialMT-6f" d="M 213 1659 
Q 213 2581 725 3025 
Q 1153 3394 1769 3394 
Q 2453 3394 2887 2945 
Q 3322 2497 3322 1706 
Q 3322 1066 3130 698 
Q 2938 331 2570 128 
Q 2203 -75 1769 -75 
Q 1072 -75 642 372 
Q 213 819 213 1659 
z
M 791 1659 
Q 791 1022 1069 705 
Q 1347 388 1769 388 
Q 2188 388 2466 706 
Q 2744 1025 2744 1678 
Q 2744 2294 2464 2611 
Q 2184 2928 1769 2928 
Q 1347 2928 1069 2612 
Q 791 2297 791 1659 
z
" transform="scale(0.015625)"/>
        <path id="ArialMT-65" d="M 2694 1069 
L 3275 997 
Q 3138 488 2766 206 
Q 2394 -75 1816 -75 
Q 1088 -75 661 373 
Q 234 822 234 1631 
Q 234 2469 665 2931 
Q 1097 3394 1784 3394 
Q 2450 3394 2872 2941 
Q 3294 2488 3294 1666 
Q 3294 1616 3291 1516 
L 816 1516 
Q 847 969 1125 678 
Q 1403 388 1819 388 
Q 2128 388 2347 550 
Q 2566 713 2694 1069 
z
M 847 1978 
L 2700 1978 
Q 2663 2397 2488 2606 
Q 2219 2931 1791 2931 
Q 1403 2931 1139 2672 
Q 875 2413 847 1978 
z
" transform="scale(0.015625)"/>
       </defs>
       <use xlink:href="#ArialMT-6e"/>
       <use xlink:href="#ArialMT-6f" transform="translate(55.615234 0)"/>
       <use xlink:href="#ArialMT-6e" transform="translate(111.230469 0)"/>
       <use xlink:href="#ArialMT-65" transform="translate(166.845703 0)"/>
      </g>
     </g>
    </g>
    <g id="xtick_2">
     <g id="line2d_2">
      <g>
       <use xlink:href="#md052f8d9f4" x="122.617706" y="124.2" style="fill: #262626; stroke: #262626; stroke-width: 1.25"/>
      </g>
     </g>
     <g id="text_2">
      <!-- NIL -->
      <g style="fill: #262626" transform="translate(114.05919 141.573594) scale(0.11 -0.11)">
       <use xlink:href="#ArialMT-4e"/>
       <use xlink:href="#ArialMT-49" transform="translate(72.216797 0)"/>
       <use xlink:href="#ArialMT-4c" transform="translate(100 0)"/>
      </g>
      <!-- RIDD, -->
      <g style="fill: #262626" transform="translate(107.645675 153.208156) scale(0.11 -0.11)">
       <use xlink:href="#ArialMT-52"/>
       <use xlink:href="#ArialMT-49" transform="translate(72.216797 0)"/>
       <use xlink:href="#ArialMT-44" transform="translate(100 0)"/>
       <use xlink:href="#ArialMT-44" transform="translate(172.216797 0)"/>
       <use xlink:href="#ArialMT-2c" transform="translate(244.433594 0)"/>
      </g>
      <!-- MEKi -->
      <g style="fill: #262626" transform="translate(109.477003 164.842719) scale(0.11 -0.11)">
       <defs>
        <path id="ArialMT-4d" d="M 475 0 
L 475 4581 
L 1388 4581 
L 2472 1338 
Q 2622 884 2691 659 
Q 2769 909 2934 1394 
L 4031 4581 
L 4847 4581 
L 4847 0 
L 4263 0 
L 4263 3834 
L 2931 0 
L 2384 0 
L 1059 3900 
L 1059 0 
L 475 0 
z
" transform="scale(0.015625)"/>
        <path id="ArialMT-45" d="M 506 0 
L 506 4581 
L 3819 4581 
L 3819 4041 
L 1113 4041 
L 1113 2638 
L 3647 2638 
L 3647 2100 
L 1113 2100 
L 1113 541 
L 3925 541 
L 3925 0 
L 506 0 
z
" transform="scale(0.015625)"/>
        <path id="ArialMT-4b" d="M 469 0 
L 469 4581 
L 1075 4581 
L 1075 2309 
L 3350 4581 
L 4172 4581 
L 2250 2725 
L 4256 0 
L 3456 0 
L 1825 2319 
L 1075 1588 
L 1075 0 
L 469 0 
z
" transform="scale(0.015625)"/>
        <path id="ArialMT-69" d="M 425 3934 
L 425 4581 
L 988 4581 
L 988 3934 
L 425 3934 
z
M 425 0 
L 425 3319 
L 988 3319 
L 988 0 
L 425 0 
z
" transform="scale(0.015625)"/>
       </defs>
       <use xlink:href="#ArialMT-4d"/>
       <use xlink:href="#ArialMT-45" transform="translate(83.300781 0)"/>
       <use xlink:href="#ArialMT-4b" transform="translate(150 0)"/>
       <use xlink:href="#ArialMT-69" transform="translate(216.699219 0)"/>
      </g>
     </g>
    </g>
    <g id="xtick_3">
     <g id="line2d_3">
      <g>
       <use xlink:href="#md052f8d9f4" x="163.957419" y="124.2" style="fill: #262626; stroke: #262626; stroke-width: 1.25"/>
      </g>
     </g>
     <g id="text_3">
      <!-- NIL -->
      <g style="fill: #262626" transform="translate(155.398903 141.573594) scale(0.11 -0.11)">
       <use xlink:href="#ArialMT-4e"/>
       <use xlink:href="#ArialMT-49" transform="translate(72.216797 0)"/>
       <use xlink:href="#ArialMT-4c" transform="translate(100 0)"/>
      </g>
      <!-- SDDIR, -->
      <g style="fill: #262626" transform="translate(145.316716 153.208156) scale(0.11 -0.11)">
       <defs>
        <path id="ArialMT-53" d="M 288 1472 
L 859 1522 
Q 900 1178 1048 958 
Q 1197 738 1509 602 
Q 1822 466 2213 466 
Q 2559 466 2825 569 
Q 3091 672 3220 851 
Q 3350 1031 3350 1244 
Q 3350 1459 3225 1620 
Q 3100 1781 2813 1891 
Q 2628 1963 1997 2114 
Q 1366 2266 1113 2400 
Q 784 2572 623 2826 
Q 463 3081 463 3397 
Q 463 3744 659 4045 
Q 856 4347 1234 4503 
Q 1613 4659 2075 4659 
Q 2584 4659 2973 4495 
Q 3363 4331 3572 4012 
Q 3781 3694 3797 3291 
L 3216 3247 
Q 3169 3681 2898 3903 
Q 2628 4125 2100 4125 
Q 1550 4125 1298 3923 
Q 1047 3722 1047 3438 
Q 1047 3191 1225 3031 
Q 1400 2872 2139 2705 
Q 2878 2538 3153 2413 
Q 3553 2228 3743 1945 
Q 3934 1663 3934 1294 
Q 3934 928 3725 604 
Q 3516 281 3123 101 
Q 2731 -78 2241 -78 
Q 1619 -78 1198 103 
Q 778 284 539 648 
Q 300 1013 288 1472 
z
" transform="scale(0.015625)"/>
       </defs>
       <use xlink:href="#ArialMT-53"/>
       <use xlink:href="#ArialMT-44" transform="translate(66.699219 0)"/>
       <use xlink:href="#ArialMT-44" transform="translate(138.916016 0)"/>
       <use xlink:href="#ArialMT-49" transform="translate(211.132812 0)"/>
       <use xlink:href="#ArialMT-52" transform="translate(238.916016 0)"/>
       <use xlink:href="#ArialMT-2c" transform="translate(311.132812 0)"/>
      </g>
      <!-- none -->
      <g style="fill: #262626" transform="translate(151.723356 164.842719) scale(0.11 -0.11)">
       <use xlink:href="#ArialMT-6e"/>
       <use xlink:href="#ArialMT-6f" transform="translate(55.615234 0)"/>
       <use xlink:href="#ArialMT-6e" transform="translate(111.230469 0)"/>
       <use xlink:href="#ArialMT-65" transform="translate(166.845703 0)"/>
      </g>
     </g>
    </g>
    <g id="xtick_4">
     <g id="line2d_4">
      <g>
       <use xlink:href="#md052f8d9f4" x="205.297132" y="124.2" style="fill: #262626; stroke: #262626; stroke-width: 1.25"/>
      </g>
     </g>
     <g id="text_4">
      <!-- NIL -->
      <g style="fill: #262626" transform="translate(196.738616 141.573594) scale(0.11 -0.11)">
       <use xlink:href="#ArialMT-4e"/>
       <use xlink:href="#ArialMT-49" transform="translate(72.216797 0)"/>
       <use xlink:href="#ArialMT-4c" transform="translate(100 0)"/>
      </g>
      <!-- SDDIR, -->
      <g style="fill: #262626" transform="translate(186.656429 153.208156) scale(0.11 -0.11)">
       <use xlink:href="#ArialMT-53"/>
       <use xlink:href="#ArialMT-44" transform="translate(66.699219 0)"/>
       <use xlink:href="#ArialMT-44" transform="translate(138.916016 0)"/>
       <use xlink:href="#ArialMT-49" transform="translate(211.132812 0)"/>
       <use xlink:href="#ArialMT-52" transform="translate(238.916016 0)"/>
       <use xlink:href="#ArialMT-2c" transform="translate(311.132812 0)"/>
      </g>
      <!-- MEKi -->
      <g style="fill: #262626" transform="translate(192.156429 164.842719) scale(0.11 -0.11)">
       <use xlink:href="#ArialMT-4d"/>
       <use xlink:href="#ArialMT-45" transform="translate(83.300781 0)"/>
       <use xlink:href="#ArialMT-4b" transform="translate(150 0)"/>
       <use xlink:href="#ArialMT-69" transform="translate(216.699219 0)"/>
      </g>
     </g>
    </g>
   </g>
   <g id="matplotlib.axis_2">
    <g id="ytick_1">
     <g id="line2d_5">
      <defs>
       <path id="mfb5b6d2342" d="M 0 0 
L -6 0 
" style="stroke: #262626; stroke-width: 1.25"/>
      </defs>
      <g>
       <use xlink:href="#mfb5b6d2342" x="56.887563" y="124.2" style="fill: #262626; stroke: #262626; stroke-width: 1.25"/>
      </g>
     </g>
     <g id="text_5">
      <!-- 0 -->
      <g style="fill: #262626" transform="translate(41.270531 128.136797) scale(0.11 -0.11)">
       <defs>
        <path id="ArialMT-30" d="M 266 2259 
Q 266 3072 433 3567 
Q 600 4063 929 4331 
Q 1259 4600 1759 4600 
Q 2128 4600 2406 4451 
Q 2684 4303 2865 4023 
Q 3047 3744 3150 3342 
Q 3253 2941 3253 2259 
Q 3253 1453 3087 958 
Q 2922 463 2592 192 
Q 2263 -78 1759 -78 
Q 1097 -78 719 397 
Q 266 969 266 2259 
z
M 844 2259 
Q 844 1131 1108 757 
Q 1372 384 1759 384 
Q 2147 384 2411 759 
Q 2675 1134 2675 2259 
Q 2675 3391 2411 3762 
Q 2147 4134 1753 4134 
Q 1366 4134 1134 3806 
Q 844 3388 844 2259 
z
" transform="scale(0.015625)"/>
       </defs>
       <use xlink:href="#ArialMT-30"/>
      </g>
     </g>
    </g>
    <g id="ytick_2">
     <g id="line2d_6">
      <g>
       <use xlink:href="#mfb5b6d2342" x="56.887563" y="94.009082" style="fill: #262626; stroke: #262626; stroke-width: 1.25"/>
      </g>
     </g>
     <g id="text_6">
      <!-- 20 -->
      <g style="fill: #262626" transform="translate(35.1535 97.945879) scale(0.11 -0.11)">
       <defs>
        <path id="ArialMT-32" d="M 3222 541 
L 3222 0 
L 194 0 
Q 188 203 259 391 
Q 375 700 629 1000 
Q 884 1300 1366 1694 
Q 2113 2306 2375 2664 
Q 2638 3022 2638 3341 
Q 2638 3675 2398 3904 
Q 2159 4134 1775 4134 
Q 1369 4134 1125 3890 
Q 881 3647 878 3216 
L 300 3275 
Q 359 3922 746 4261 
Q 1134 4600 1788 4600 
Q 2447 4600 2831 4234 
Q 3216 3869 3216 3328 
Q 3216 3053 3103 2787 
Q 2991 2522 2730 2228 
Q 2469 1934 1863 1422 
Q 1356 997 1212 845 
Q 1069 694 975 541 
L 3222 541 
z
" transform="scale(0.015625)"/>
       </defs>
       <use xlink:href="#ArialMT-32"/>
       <use xlink:href="#ArialMT-30" transform="translate(55.615234 0)"/>
      </g>
     </g>
    </g>
    <g id="ytick_3">
     <g id="line2d_7">
      <g>
       <use xlink:href="#mfb5b6d2342" x="56.887563" y="63.818164" style="fill: #262626; stroke: #262626; stroke-width: 1.25"/>
      </g>
     </g>
     <g id="text_7">
      <!-- 40 -->
      <g style="fill: #262626" transform="translate(35.1535 67.754961) scale(0.11 -0.11)">
       <defs>
        <path id="ArialMT-34" d="M 2069 0 
L 2069 1097 
L 81 1097 
L 81 1613 
L 2172 4581 
L 2631 4581 
L 2631 1613 
L 3250 1613 
L 3250 1097 
L 2631 1097 
L 2631 0 
L 2069 0 
z
M 2069 1613 
L 2069 3678 
L 634 1613 
L 2069 1613 
z
" transform="scale(0.015625)"/>
       </defs>
       <use xlink:href="#ArialMT-34"/>
       <use xlink:href="#ArialMT-30" transform="translate(55.615234 0)"/>
      </g>
     </g>
    </g>
    <g id="ytick_4">
     <g id="line2d_8">
      <g>
       <use xlink:href="#mfb5b6d2342" x="56.887563" y="33.627246" style="fill: #262626; stroke: #262626; stroke-width: 1.25"/>
      </g>
     </g>
     <g id="text_8">
      <!-- 60 -->
      <g style="fill: #262626" transform="translate(35.1535 37.564043) scale(0.11 -0.11)">
       <defs>
        <path id="ArialMT-36" d="M 3184 3459 
L 2625 3416 
Q 2550 3747 2413 3897 
Q 2184 4138 1850 4138 
Q 1581 4138 1378 3988 
Q 1113 3794 959 3422 
Q 806 3050 800 2363 
Q 1003 2672 1297 2822 
Q 1591 2972 1913 2972 
Q 2475 2972 2870 2558 
Q 3266 2144 3266 1488 
Q 3266 1056 3080 686 
Q 2894 316 2569 119 
Q 2244 -78 1831 -78 
Q 1128 -78 684 439 
Q 241 956 241 2144 
Q 241 3472 731 4075 
Q 1159 4600 1884 4600 
Q 2425 4600 2770 4297 
Q 3116 3994 3184 3459 
z
M 888 1484 
Q 888 1194 1011 928 
Q 1134 663 1356 523 
Q 1578 384 1822 384 
Q 2178 384 2434 671 
Q 2691 959 2691 1453 
Q 2691 1928 2437 2201 
Q 2184 2475 1800 2475 
Q 1419 2475 1153 2201 
Q 888 1928 888 1484 
z
" transform="scale(0.015625)"/>
       </defs>
       <use xlink:href="#ArialMT-36"/>
       <use xlink:href="#ArialMT-30" transform="translate(55.615234 0)"/>
      </g>
     </g>
    </g>
    <g id="text_9">
     <!-- (%) iMN -->
     <g style="fill: #262626" transform="translate(15.935625 87.361875) rotate(-90) scale(0.12 -0.12)">
      <defs>
       <path id="ArialMT-28" d="M 1497 -1347 
Q 1031 -759 709 28 
Q 388 816 388 1659 
Q 388 2403 628 3084 
Q 909 3875 1497 4659 
L 1900 4659 
Q 1522 4009 1400 3731 
Q 1209 3300 1100 2831 
Q 966 2247 966 1656 
Q 966 153 1900 -1347 
L 1497 -1347 
z
" transform="scale(0.015625)"/>
       <path id="ArialMT-25" d="M 372 3481 
Q 372 3972 619 4315 
Q 866 4659 1334 4659 
Q 1766 4659 2048 4351 
Q 2331 4044 2331 3447 
Q 2331 2866 2045 2552 
Q 1759 2238 1341 2238 
Q 925 2238 648 2547 
Q 372 2856 372 3481 
z
M 1350 4272 
Q 1141 4272 1002 4090 
Q 863 3909 863 3425 
Q 863 2984 1003 2804 
Q 1144 2625 1350 2625 
Q 1563 2625 1702 2806 
Q 1841 2988 1841 3469 
Q 1841 3913 1700 4092 
Q 1559 4272 1350 4272 
z
M 1353 -169 
L 3859 4659 
L 4316 4659 
L 1819 -169 
L 1353 -169 
z
M 3334 1075 
Q 3334 1569 3581 1911 
Q 3828 2253 4300 2253 
Q 4731 2253 5014 1945 
Q 5297 1638 5297 1041 
Q 5297 459 5011 145 
Q 4725 -169 4303 -169 
Q 3888 -169 3611 142 
Q 3334 453 3334 1075 
z
M 4316 1866 
Q 4103 1866 3964 1684 
Q 3825 1503 3825 1019 
Q 3825 581 3965 400 
Q 4106 219 4313 219 
Q 4528 219 4667 400 
Q 4806 581 4806 1063 
Q 4806 1506 4665 1686 
Q 4525 1866 4316 1866 
z
" transform="scale(0.015625)"/>
       <path id="ArialMT-29" d="M 791 -1347 
L 388 -1347 
Q 1322 153 1322 1656 
Q 1322 2244 1188 2822 
Q 1081 3291 891 3722 
Q 769 4003 388 4659 
L 791 4659 
Q 1378 3875 1659 3084 
Q 1900 2403 1900 1659 
Q 1900 816 1576 28 
Q 1253 -759 791 -1347 
z
" transform="scale(0.015625)"/>
       <path id="ArialMT-20" transform="scale(0.015625)"/>
      </defs>
      <use xlink:href="#ArialMT-28"/>
      <use xlink:href="#ArialMT-25" transform="translate(33.300781 0)"/>
      <use xlink:href="#ArialMT-29" transform="translate(122.216797 0)"/>
      <use xlink:href="#ArialMT-20" transform="translate(155.517578 0)"/>
      <use xlink:href="#ArialMT-69" transform="translate(183.300781 0)"/>
      <use xlink:href="#ArialMT-4d" transform="translate(205.517578 0)"/>
      <use xlink:href="#ArialMT-4e" transform="translate(288.818359 0)"/>
     </g>
     <!-- of all cells -->
     <g style="fill: #262626" transform="translate(28.7685 92.042812) rotate(-90) scale(0.12 -0.12)">
      <defs>
       <path id="ArialMT-66" d="M 556 0 
L 556 2881 
L 59 2881 
L 59 3319 
L 556 3319 
L 556 3672 
Q 556 4006 616 4169 
Q 697 4388 901 4523 
Q 1106 4659 1475 4659 
Q 1713 4659 2000 4603 
L 1916 4113 
Q 1741 4144 1584 4144 
Q 1328 4144 1222 4034 
Q 1116 3925 1116 3625 
L 1116 3319 
L 1763 3319 
L 1763 2881 
L 1116 2881 
L 1116 0 
L 556 0 
z
" transform="scale(0.015625)"/>
       <path id="ArialMT-61" d="M 2588 409 
Q 2275 144 1986 34 
Q 1697 -75 1366 -75 
Q 819 -75 525 192 
Q 231 459 231 875 
Q 231 1119 342 1320 
Q 453 1522 633 1644 
Q 813 1766 1038 1828 
Q 1203 1872 1538 1913 
Q 2219 1994 2541 2106 
Q 2544 2222 2544 2253 
Q 2544 2597 2384 2738 
Q 2169 2928 1744 2928 
Q 1347 2928 1158 2789 
Q 969 2650 878 2297 
L 328 2372 
Q 403 2725 575 2942 
Q 747 3159 1072 3276 
Q 1397 3394 1825 3394 
Q 2250 3394 2515 3294 
Q 2781 3194 2906 3042 
Q 3031 2891 3081 2659 
Q 3109 2516 3109 2141 
L 3109 1391 
Q 3109 606 3145 398 
Q 3181 191 3288 0 
L 2700 0 
Q 2613 175 2588 409 
z
M 2541 1666 
Q 2234 1541 1622 1453 
Q 1275 1403 1131 1340 
Q 988 1278 909 1158 
Q 831 1038 831 891 
Q 831 666 1001 516 
Q 1172 366 1500 366 
Q 1825 366 2078 508 
Q 2331 650 2450 897 
Q 2541 1088 2541 1459 
L 2541 1666 
z
" transform="scale(0.015625)"/>
       <path id="ArialMT-6c" d="M 409 0 
L 409 4581 
L 972 4581 
L 972 0 
L 409 0 
z
" transform="scale(0.015625)"/>
       <path id="ArialMT-63" d="M 2588 1216 
L 3141 1144 
Q 3050 572 2676 248 
Q 2303 -75 1759 -75 
Q 1078 -75 664 370 
Q 250 816 250 1647 
Q 250 2184 428 2587 
Q 606 2991 970 3192 
Q 1334 3394 1763 3394 
Q 2303 3394 2647 3120 
Q 2991 2847 3088 2344 
L 2541 2259 
Q 2463 2594 2264 2762 
Q 2066 2931 1784 2931 
Q 1359 2931 1093 2626 
Q 828 2322 828 1663 
Q 828 994 1084 691 
Q 1341 388 1753 388 
Q 2084 388 2306 591 
Q 2528 794 2588 1216 
z
" transform="scale(0.015625)"/>
       <path id="ArialMT-73" d="M 197 991 
L 753 1078 
Q 800 744 1014 566 
Q 1228 388 1613 388 
Q 2000 388 2187 545 
Q 2375 703 2375 916 
Q 2375 1106 2209 1216 
Q 2094 1291 1634 1406 
Q 1016 1563 777 1677 
Q 538 1791 414 1992 
Q 291 2194 291 2438 
Q 291 2659 392 2848 
Q 494 3038 669 3163 
Q 800 3259 1026 3326 
Q 1253 3394 1513 3394 
Q 1903 3394 2198 3281 
Q 2494 3169 2634 2976 
Q 2775 2784 2828 2463 
L 2278 2388 
Q 2241 2644 2061 2787 
Q 1881 2931 1553 2931 
Q 1166 2931 1000 2803 
Q 834 2675 834 2503 
Q 834 2394 903 2306 
Q 972 2216 1119 2156 
Q 1203 2125 1616 2013 
Q 2213 1853 2448 1751 
Q 2684 1650 2818 1456 
Q 2953 1263 2953 975 
Q 2953 694 2789 445 
Q 2625 197 2315 61 
Q 2006 -75 1616 -75 
Q 969 -75 630 194 
Q 291 463 197 991 
z
" transform="scale(0.015625)"/>
      </defs>
      <use xlink:href="#ArialMT-6f"/>
      <use xlink:href="#ArialMT-66" transform="translate(55.615234 0)"/>
      <use xlink:href="#ArialMT-20" transform="translate(83.398438 0)"/>
      <use xlink:href="#ArialMT-61" transform="translate(111.181641 0)"/>
      <use xlink:href="#ArialMT-6c" transform="translate(166.796875 0)"/>
      <use xlink:href="#ArialMT-6c" transform="translate(189.013672 0)"/>
      <use xlink:href="#ArialMT-20" transform="translate(211.230469 0)"/>
      <use xlink:href="#ArialMT-63" transform="translate(239.013672 0)"/>
      <use xlink:href="#ArialMT-65" transform="translate(289.013672 0)"/>
      <use xlink:href="#ArialMT-6c" transform="translate(344.628906 0)"/>
      <use xlink:href="#ArialMT-6c" transform="translate(366.845703 0)"/>
      <use xlink:href="#ArialMT-73" transform="translate(389.0625 0)"/>
     </g>
    </g>
   </g>
   <g id="patch_3">
    <path d="M 64.742108 124.2 
L 81.277993 124.2 
L 81.277993 68.5473 
L 64.742108 68.5473 
z
" clip-path="url(#p0e23c7a46d)" style="fill: #db8484; stroke: #ffffff; stroke-linejoin: miter"/>
   </g>
   <g id="patch_4">
    <path d="M 106.081821 124.2 
L 122.617706 124.2 
L 122.617706 99.750553 
L 106.081821 99.750553 
z
" clip-path="url(#p0e23c7a46d)" style="fill: #db8484; stroke: #ffffff; stroke-linejoin: miter"/>
   </g>
   <g id="patch_5">
    <path d="M 147.421534 124.2 
L 163.957419 124.2 
L 163.957419 46.153809 
L 147.421534 46.153809 
z
" clip-path="url(#p0e23c7a46d)" style="fill: #db8484; stroke: #ffffff; stroke-linejoin: miter"/>
   </g>
   <g id="patch_6">
    <path d="M 188.761247 124.2 
L 205.297132 124.2 
L 205.297132 92.306382 
L 188.761247 92.306382 
z
" clip-path="url(#p0e23c7a46d)" style="fill: #db8484; stroke: #ffffff; stroke-linejoin: miter"/>
   </g>
   <g id="patch_7">
    <path d="M 81.277993 124.2 
L 97.813878 124.2 
L 97.813878 65.361804 
L 81.277993 65.361804 
z
" clip-path="url(#p0e23c7a46d)" style="fill: #4b94a2; stroke: #ffffff; stroke-linejoin: miter"/>
   </g>
   <g id="patch_8">
    <path d="M 122.617706 124.2 
L 139.153591 124.2 
L 139.153591 88.166461 
L 122.617706 88.166461 
z
" clip-path="url(#p0e23c7a46d)" style="fill: #4b94a2; stroke: #ffffff; stroke-linejoin: miter"/>
   </g>
   <g id="patch_9">
    <path d="M 163.957419 124.2 
L 180.493304 124.2 
L 180.493304 59.681828 
L 163.957419 59.681828 
z
" clip-path="url(#p0e23c7a46d)" style="fill: #4b94a2; stroke: #ffffff; stroke-linejoin: miter"/>
   </g>
   <g id="patch_10">
    <path d="M 205.297132 124.2 
L 221.833017 124.2 
L 221.833017 86.822084 
L 205.297132 86.822084 
z
" clip-path="url(#p0e23c7a46d)" style="fill: #4b94a2; stroke: #ffffff; stroke-linejoin: miter"/>
   </g>
   <g id="line2d_9">
    <path d="M 73.010051 73.543635 
L 73.010051 64.110102 
" clip-path="url(#p0e23c7a46d)" style="fill: none; stroke: #424242; stroke-width: 2.7; stroke-linecap: round"/>
   </g>
   <g id="line2d_10">
    <path d="M 114.349763 102.29265 
L 114.349763 97.039637 
" clip-path="url(#p0e23c7a46d)" style="fill: none; stroke: #424242; stroke-width: 2.7; stroke-linecap: round"/>
   </g>
   <g id="line2d_11">
    <path d="M 155.689476 50.601367 
L 155.689476 41.686517 
" clip-path="url(#p0e23c7a46d)" style="fill: none; stroke: #424242; stroke-width: 2.7; stroke-linecap: round"/>
   </g>
   <g id="line2d_12">
    <path d="M 197.029189 95.485403 
L 197.029189 89.154964 
" clip-path="url(#p0e23c7a46d)" style="fill: none; stroke: #424242; stroke-width: 2.7; stroke-linecap: round"/>
   </g>
   <g id="line2d_13">
    <path d="M 89.545936 73.056638 
L 89.545936 57.628275 
" clip-path="url(#p0e23c7a46d)" style="fill: none; stroke: #424242; stroke-width: 2.7; stroke-linecap: round"/>
   </g>
   <g id="line2d_14">
    <path d="M 130.885649 93.205784 
L 130.885649 83.141227 
" clip-path="url(#p0e23c7a46d)" style="fill: none; stroke: #424242; stroke-width: 2.7; stroke-linecap: round"/>
   </g>
   <g id="line2d_15">
    <path d="M 172.225362 67.679439 
L 172.225362 52.461169 
" clip-path="url(#p0e23c7a46d)" style="fill: none; stroke: #424242; stroke-width: 2.7; stroke-linecap: round"/>
   </g>
   <g id="line2d_16">
    <path d="M 213.565074 91.020814 
L 213.565074 82.884376 
" clip-path="url(#p0e23c7a46d)" style="fill: none; stroke: #424242; stroke-width: 2.7; stroke-linecap: round"/>
   </g>
   <g id="line2d_17">
    <path d="M 114.349763 60.174735 
L 114.349763 58.185276 
L 130.885649 58.185276 
L 130.885649 60.174735 
" clip-path="url(#p0e23c7a46d)" style="fill: none; stroke: #333333; stroke-width: 1.5; stroke-linecap: round"/>
   </g>
   <g id="line2d_18">
    <path d="M 73.010051 30.996208 
L 73.010051 29.006749 
L 89.545936 29.006749 
L 89.545936 30.996208 
" clip-path="url(#p0e23c7a46d)" style="fill: none; stroke: #333333; stroke-width: 1.5; stroke-linecap: round"/>
   </g>
   <g id="line2d_19">
    <path d="M 155.689476 23.495481 
L 155.689476 21.506022 
L 172.225362 21.506022 
L 172.225362 23.495481 
" clip-path="url(#p0e23c7a46d)" style="fill: none; stroke: #333333; stroke-width: 1.5; stroke-linecap: round"/>
   </g>
   <g id="line2d_20">
    <path d="M 197.029189 63.554555 
L 197.029189 61.565096 
L 213.565074 61.565096 
L 213.565074 63.554555 
" clip-path="url(#p0e23c7a46d)" style="fill: none; stroke: #333333; stroke-width: 1.5; stroke-linecap: round"/>
   </g>
   <g id="patch_11">
    <path d="M 56.887563 124.2 
L 56.887563 7.2 
" style="fill: none; stroke: #262626; stroke-width: 1.25; stroke-linejoin: miter; stroke-linecap: square"/>
   </g>
   <g id="patch_12">
    <path d="M 229.687562 124.2 
L 229.687562 7.2 
" style="fill: none; stroke: #262626; stroke-width: 1.25; stroke-linejoin: miter; stroke-linecap: square"/>
   </g>
   <g id="patch_13">
    <path d="M 56.887563 124.2 
L 229.687563 124.2 
" style="fill: none; stroke: #262626; stroke-width: 1.25; stroke-linejoin: miter; stroke-linecap: square"/>
   </g>
   <g id="patch_14">
    <path d="M 56.887563 7.2 
L 229.687563 7.2 
" style="fill: none; stroke: #262626; stroke-width: 1.25; stroke-linejoin: miter; stroke-linecap: square"/>
   </g>
   <g id="PathCollection_1">
    <defs>
     <path id="C0_0_2bfe072366" d="M 0 2.5 
C 0.663008 2.5 1.29895 2.236584 1.767767 1.767767 
C 2.236584 1.29895 2.5 0.663008 2.5 -0 
C 2.5 -0.663008 2.236584 -1.29895 1.767767 -1.767767 
C 1.29895 -2.236584 0.663008 -2.5 0 -2.5 
C -0.663008 -2.5 -1.29895 -2.236584 -1.767767 -1.767767 
C -2.236584 -1.29895 -2.5 -0.663008 -2.5 0 
C -2.5 0.663008 -2.236584 1.29895 -1.767767 1.767767 
C -1.29895 2.236584 -0.663008 2.5 0 2.5 
z
"/>
    </defs>
    <g clip-path="url(#p0e23c7a46d)">
     <use xlink:href="#C0_0_2bfe072366" x="72.936065" y="85.720148" style="fill: #ffffff; stroke: #000000; stroke-width: 0.4"/>
    </g>
    <g clip-path="url(#p0e23c7a46d)">
     <use xlink:href="#C0_0_2bfe072366" x="74.38089" y="84.605632" style="fill: #ffffff; stroke: #000000; stroke-width: 0.4"/>
    </g>
    <g clip-path="url(#p0e23c7a46d)">
     <use xlink:href="#C0_0_2bfe072366" x="71.942496" y="84.054649" style="fill: #ffffff; stroke: #000000; stroke-width: 0.4"/>
    </g>
   </g>
   <g id="PathCollection_2">
    <defs>
     <path id="C1_0_3a54efd0f9" d="M 0 2.5 
C 0.663008 2.5 1.29895 2.236584 1.767767 1.767767 
C 2.236584 1.29895 2.5 0.663008 2.5 -0 
C 2.5 -0.663008 2.236584 -1.29895 1.767767 -1.767767 
C 1.29895 -2.236584 0.663008 -2.5 0 -2.5 
C -0.663008 -2.5 -1.29895 -2.236584 -1.767767 -1.767767 
C -2.236584 -1.29895 -2.5 -0.663008 -2.5 0 
C -2.5 0.663008 -2.236584 1.29895 -1.767767 1.767767 
C -1.29895 2.236584 -0.663008 2.5 0 2.5 
z
"/>
    </defs>
    <g clip-path="url(#p0e23c7a46d)">
     <use xlink:href="#C1_0_3a54efd0f9" x="89.515697" y="44.695527" style="fill: #ffffff; stroke: #000000; stroke-width: 0.4"/>
    </g>
    <g clip-path="url(#p0e23c7a46d)">
     <use xlink:href="#C1_0_3a54efd0f9" x="90.100977" y="49.046015" style="fill: #ffffff; stroke: #000000; stroke-width: 0.4"/>
    </g>
    <g clip-path="url(#p0e23c7a46d)">
     <use xlink:href="#C1_0_3a54efd0f9" x="91.458558" y="52.561236" style="fill: #ffffff; stroke: #000000; stroke-width: 0.4"/>
    </g>
   </g>
   <g id="PathCollection_3">
    <defs>
     <path id="C2_0_224fa45b5f" d="M 0 2.5 
C 0.663008 2.5 1.29895 2.236584 1.767767 1.767767 
C 2.236584 1.29895 2.5 0.663008 2.5 -0 
C 2.5 -0.663008 2.236584 -1.29895 1.767767 -1.767767 
C 1.29895 -2.236584 0.663008 -2.5 0 -2.5 
C -0.663008 -2.5 -1.29895 -2.236584 -1.767767 -1.767767 
C -2.236584 -1.29895 -2.5 -0.663008 -2.5 0 
C -2.5 0.663008 -2.236584 1.29895 -1.767767 1.767767 
C -1.29895 2.236584 -0.663008 2.5 0 2.5 
z
"/>
    </defs>
    <g clip-path="url(#p0e23c7a46d)">
     <use xlink:href="#C2_0_224fa45b5f" x="112.652315" y="100.233212" style="fill: #ffffff; stroke: #000000; stroke-width: 0.4"/>
    </g>
    <g clip-path="url(#p0e23c7a46d)">
     <use xlink:href="#C2_0_224fa45b5f" x="112.713991" y="98.495122" style="fill: #ffffff; stroke: #000000; stroke-width: 0.4"/>
    </g>
    <g clip-path="url(#p0e23c7a46d)">
     <use xlink:href="#C2_0_224fa45b5f" x="115.966521" y="99.313827" style="fill: #ffffff; stroke: #000000; stroke-width: 0.4"/>
    </g>
   </g>
   <g id="PathCollection_4">
    <defs>
     <path id="C3_0_2728d9d476" d="M 0 2.5 
C 0.663008 2.5 1.29895 2.236584 1.767767 1.767767 
C 2.236584 1.29895 2.5 0.663008 2.5 -0 
C 2.5 -0.663008 2.236584 -1.29895 1.767767 -1.767767 
C 1.29895 -2.236584 0.663008 -2.5 0 -2.5 
C -0.663008 -2.5 -1.29895 -2.236584 -1.767767 -1.767767 
C -2.236584 -1.29895 -2.5 -0.663008 -2.5 0 
C -2.5 0.663008 -2.236584 1.29895 -1.767767 1.767767 
C -1.29895 2.236584 -0.663008 2.5 0 2.5 
z
"/>
    </defs>
    <g clip-path="url(#p0e23c7a46d)">
     <use xlink:href="#C3_0_2728d9d476" x="129.475795" y="93.0306" style="fill: #ffffff; stroke: #000000; stroke-width: 0.4"/>
    </g>
    <g clip-path="url(#p0e23c7a46d)">
     <use xlink:href="#C3_0_2728d9d476" x="130.720562" y="96.138436" style="fill: #ffffff; stroke: #000000; stroke-width: 0.4"/>
    </g>
    <g clip-path="url(#p0e23c7a46d)">
     <use xlink:href="#C3_0_2728d9d476" x="132.016203" y="85.491363" style="fill: #ffffff; stroke: #000000; stroke-width: 0.4"/>
    </g>
   </g>
   <g id="PathCollection_5">
    <defs>
     <path id="C4_0_e9bf374cbf" d="M 0 2.5 
C 0.663008 2.5 1.29895 2.236584 1.767767 1.767767 
C 2.236584 1.29895 2.5 0.663008 2.5 -0 
C 2.5 -0.663008 2.236584 -1.29895 1.767767 -1.767767 
C 1.29895 -2.236584 0.663008 -2.5 0 -2.5 
C -0.663008 -2.5 -1.29895 -2.236584 -1.767767 -1.767767 
C -2.236584 -1.29895 -2.5 -0.663008 -2.5 0 
C -2.5 0.663008 -2.236584 1.29895 -1.767767 1.767767 
C -1.29895 2.236584 -0.663008 2.5 0 2.5 
z
"/>
    </defs>
    <g clip-path="url(#p0e23c7a46d)">
     <use xlink:href="#C4_0_e9bf374cbf" x="154.351477" y="55.436649" style="fill: #ffffff; stroke: #000000; stroke-width: 0.4"/>
    </g>
    <g clip-path="url(#p0e23c7a46d)">
     <use xlink:href="#C4_0_e9bf374cbf" x="157.454253" y="52.399917" style="fill: #ffffff; stroke: #000000; stroke-width: 0.4"/>
    </g>
    <g clip-path="url(#p0e23c7a46d)">
     <use xlink:href="#C4_0_e9bf374cbf" x="154.999806" y="56.141576" style="fill: #ffffff; stroke: #000000; stroke-width: 0.4"/>
    </g>
   </g>
   <g id="PathCollection_6">
    <defs>
     <path id="C5_0_979bfcb11c" d="M 0 2.5 
C 0.663008 2.5 1.29895 2.236584 1.767767 1.767767 
C 2.236584 1.29895 2.5 0.663008 2.5 -0 
C 2.5 -0.663008 2.236584 -1.29895 1.767767 -1.767767 
C 1.29895 -2.236584 0.663008 -2.5 0 -2.5 
C -0.663008 -2.5 -1.29895 -2.236584 -1.767767 -1.767767 
C -2.236584 -1.29895 -2.5 -0.663008 -2.5 0 
C -2.5 0.663008 -2.236584 1.29895 -1.767767 1.767767 
C -1.29895 2.236584 -0.663008 2.5 0 2.5 
z
"/>
    </defs>
    <g clip-path="url(#p0e23c7a46d)">
     <use xlink:href="#C5_0_979bfcb11c" x="171.453813" y="58.837207" style="fill: #ffffff; stroke: #000000; stroke-width: 0.4"/>
    </g>
    <g clip-path="url(#p0e23c7a46d)">
     <use xlink:href="#C5_0_979bfcb11c" x="172.002232" y="45.872" style="fill: #ffffff; stroke: #000000; stroke-width: 0.4"/>
    </g>
    <g clip-path="url(#p0e23c7a46d)">
     <use xlink:href="#C5_0_979bfcb11c" x="170.793493" y="42.638534" style="fill: #ffffff; stroke: #000000; stroke-width: 0.4"/>
    </g>
   </g>
   <g id="PathCollection_7">
    <defs>
     <path id="C6_0_7801098fd0" d="M 0 2.5 
C 0.663008 2.5 1.29895 2.236584 1.767767 1.767767 
C 2.236584 1.29895 2.5 0.663008 2.5 -0 
C 2.5 -0.663008 2.236584 -1.29895 1.767767 -1.767767 
C 1.29895 -2.236584 0.663008 -2.5 0 -2.5 
C -0.663008 -2.5 -1.29895 -2.236584 -1.767767 -1.767767 
C -2.236584 -1.29895 -2.5 -0.663008 -2.5 0 
C -2.5 0.663008 -2.236584 1.29895 -1.767767 1.767767 
C -1.29895 2.236584 -0.663008 2.5 0 2.5 
z
"/>
    </defs>
    <g clip-path="url(#p0e23c7a46d)">
     <use xlink:href="#C6_0_7801098fd0" x="194.966842" y="96.182828" style="fill: #ffffff; stroke: #000000; stroke-width: 0.4"/>
    </g>
    <g clip-path="url(#p0e23c7a46d)">
     <use xlink:href="#C6_0_7801098fd0" x="198.348277" y="92.953371" style="fill: #ffffff; stroke: #000000; stroke-width: 0.4"/>
    </g>
    <g clip-path="url(#p0e23c7a46d)">
     <use xlink:href="#C6_0_7801098fd0" x="197.846509" y="94.474144" style="fill: #ffffff; stroke: #000000; stroke-width: 0.4"/>
    </g>
   </g>
   <g id="PathCollection_8">
    <defs>
     <path id="C7_0_cbeca8bf6a" d="M 0 2.5 
C 0.663008 2.5 1.29895 2.236584 1.767767 1.767767 
C 2.236584 1.29895 2.5 0.663008 2.5 -0 
C 2.5 -0.663008 2.236584 -1.29895 1.767767 -1.767767 
C 1.29895 -2.236584 0.663008 -2.5 0 -2.5 
C -0.663008 -2.5 -1.29895 -2.236584 -1.767767 -1.767767 
C -2.236584 -1.29895 -2.5 -0.663008 -2.5 0 
C -2.5 0.663008 -2.236584 1.29895 -1.767767 1.767767 
C -1.29895 2.236584 -0.663008 2.5 0 2.5 
z
"/>
    </defs>
    <g clip-path="url(#p0e23c7a46d)">
     <use xlink:href="#C7_0_cbeca8bf6a" x="212.412975" y="96.717502" style="fill: #ffffff; stroke: #000000; stroke-width: 0.4"/>
    </g>
    <g clip-path="url(#p0e23c7a46d)">
     <use xlink:href="#C7_0_cbeca8bf6a" x="212.725555" y="87.010511" style="fill: #ffffff; stroke: #000000; stroke-width: 0.4"/>
    </g>
    <g clip-path="url(#p0e23c7a46d)">
     <use xlink:href="#C7_0_cbeca8bf6a" x="212.510506" y="87.27811" style="fill: #ffffff; stroke: #000000; stroke-width: 0.4"/>
    </g>
   </g>
   <g id="PathCollection_9">
    <path d="M 72.115077 56.798129 
L 69.615077 61.798129 
L 74.615077 61.798129 
z
" clip-path="url(#p0e23c7a46d)" style="fill: #ffffff; stroke: #000000; stroke-width: 0.4"/>
    <path d="M 71.958968 59.909652 
L 69.458968 64.909652 
L 74.458968 64.909652 
z
" clip-path="url(#p0e23c7a46d)" style="fill: #ffffff; stroke: #000000; stroke-width: 0.4"/>
    <path d="M 74.055213 58.219783 
L 71.555213 63.219783 
L 76.555213 63.219783 
z
" clip-path="url(#p0e23c7a46d)" style="fill: #ffffff; stroke: #000000; stroke-width: 0.4"/>
   </g>
   <g id="PathCollection_10">
    <path d="M 87.635475 37.607936 
L 85.135475 42.607936 
L 90.135475 42.607936 
z
" clip-path="url(#p0e23c7a46d)" style="fill: #ffffff; stroke: #000000; stroke-width: 0.4"/>
    <path d="M 88.764412 39.143712 
L 86.264412 44.143712 
L 91.264412 44.143712 
z
" clip-path="url(#p0e23c7a46d)" style="fill: #ffffff; stroke: #000000; stroke-width: 0.4"/>
    <path d="M 87.516905 34.464585 
L 85.016905 39.464585 
L 90.016905 39.464585 
z
" clip-path="url(#p0e23c7a46d)" style="fill: #ffffff; stroke: #000000; stroke-width: 0.4"/>
   </g>
   <g id="PathCollection_11">
    <path d="M 115.029641 89.292425 
L 112.529641 94.292425 
L 117.529641 94.292425 
z
" clip-path="url(#p0e23c7a46d)" style="fill: #ffffff; stroke: #000000; stroke-width: 0.4"/>
    <path d="M 115.935244 90.627082 
L 113.435244 95.627082 
L 118.435244 95.627082 
z
" clip-path="url(#p0e23c7a46d)" style="fill: #ffffff; stroke: #000000; stroke-width: 0.4"/>
    <path d="M 114.2421 88.522944 
L 111.7421 93.522944 
L 116.7421 93.522944 
z
" clip-path="url(#p0e23c7a46d)" style="fill: #ffffff; stroke: #000000; stroke-width: 0.4"/>
   </g>
   <g id="PathCollection_12">
    <path d="M 131.191756 80.93836 
L 128.691756 85.93836 
L 133.691756 85.93836 
z
" clip-path="url(#p0e23c7a46d)" style="fill: #ffffff; stroke: #000000; stroke-width: 0.4"/>
    <path d="M 130.936076 66.336707 
L 128.436076 71.336707 
L 133.436076 71.336707 
z
" clip-path="url(#p0e23c7a46d)" style="fill: #ffffff; stroke: #000000; stroke-width: 0.4"/>
    <path d="M 132.06889 67.900416 
L 129.56889 72.900416 
L 134.56889 72.900416 
z
" clip-path="url(#p0e23c7a46d)" style="fill: #ffffff; stroke: #000000; stroke-width: 0.4"/>
   </g>
   <g id="PathCollection_13">
    <path d="M 157.113317 34.622311 
L 154.613317 39.622311 
L 159.613317 39.622311 
z
" clip-path="url(#p0e23c7a46d)" style="fill: #ffffff; stroke: #000000; stroke-width: 0.4"/>
    <path d="M 154.782413 30.659328 
L 152.282413 35.659328 
L 157.282413 35.659328 
z
" clip-path="url(#p0e23c7a46d)" style="fill: #ffffff; stroke: #000000; stroke-width: 0.4"/>
    <path d="M 157.708 34.184729 
L 155.208 39.184729 
L 160.208 39.184729 
z
" clip-path="url(#p0e23c7a46d)" style="fill: #ffffff; stroke: #000000; stroke-width: 0.4"/>
   </g>
   <g id="PathCollection_14">
    <path d="M 172.04103 59.027503 
L 169.54103 64.027503 
L 174.54103 64.027503 
z
" clip-path="url(#p0e23c7a46d)" style="fill: #ffffff; stroke: #000000; stroke-width: 0.4"/>
    <path d="M 170.492686 51.735052 
L 167.992686 56.735052 
L 172.992686 56.735052 
z
" clip-path="url(#p0e23c7a46d)" style="fill: #ffffff; stroke: #000000; stroke-width: 0.4"/>
    <path d="M 172.341121 36.433229 
L 169.841121 41.433229 
L 174.841121 41.433229 
z
" clip-path="url(#p0e23c7a46d)" style="fill: #ffffff; stroke: #000000; stroke-width: 0.4"/>
   </g>
   <g id="PathCollection_15">
    <path d="M 195.527883 90.301719 
L 193.027883 95.301719 
L 198.027883 95.301719 
z
" clip-path="url(#p0e23c7a46d)" style="fill: #ffffff; stroke: #000000; stroke-width: 0.4"/>
    <path d="M 195.774785 90.924742 
L 193.274785 95.924742 
L 198.274785 95.924742 
z
" clip-path="url(#p0e23c7a46d)" style="fill: #ffffff; stroke: #000000; stroke-width: 0.4"/>
    <path d="M 195.814192 91.940276 
L 193.314192 96.940276 
L 198.314192 96.940276 
z
" clip-path="url(#p0e23c7a46d)" style="fill: #ffffff; stroke: #000000; stroke-width: 0.4"/>
   </g>
   <g id="PathCollection_16">
    <path d="M 213.940935 81.640223 
L 211.440935 86.640223 
L 216.440935 86.640223 
z
" clip-path="url(#p0e23c7a46d)" style="fill: #ffffff; stroke: #000000; stroke-width: 0.4"/>
    <path d="M 212.16579 81.272923 
L 209.66579 86.272923 
L 214.66579 86.272923 
z
" clip-path="url(#p0e23c7a46d)" style="fill: #ffffff; stroke: #000000; stroke-width: 0.4"/>
    <path d="M 213.033179 77.185336 
L 210.533179 82.185336 
L 215.533179 82.185336 
z
" clip-path="url(#p0e23c7a46d)" style="fill: #ffffff; stroke: #000000; stroke-width: 0.4"/>
   </g>
   <g id="PathCollection_17">
    <path d="M 69.732435 82.027305 
L 74.732435 82.027305 
L 74.732435 77.027305 
L 69.732435 77.027305 
z
" clip-path="url(#p0e23c7a46d)" style="fill: #ffffff; stroke: #000000; stroke-width: 0.4"/>
    <path d="M 70.930388 87.655688 
L 75.930388 87.655688 
L 75.930388 82.655688 
L 70.930388 82.655688 
z
" clip-path="url(#p0e23c7a46d)" style="fill: #ffffff; stroke: #000000; stroke-width: 0.4"/>
    <path d="M 69.970818 82.297609 
L 74.970818 82.297609 
L 74.970818 77.297609 
L 69.970818 77.297609 
z
" clip-path="url(#p0e23c7a46d)" style="fill: #ffffff; stroke: #000000; stroke-width: 0.4"/>
   </g>
   <g id="PathCollection_18">
    <path d="M 88.356784 56.254157 
L 93.356784 56.254157 
L 93.356784 51.254157 
L 88.356784 51.254157 
z
" clip-path="url(#p0e23c7a46d)" style="fill: #ffffff; stroke: #000000; stroke-width: 0.4"/>
    <path d="M 88.169167 52.299196 
L 93.169167 52.299196 
L 93.169167 47.299196 
L 88.169167 47.299196 
z
" clip-path="url(#p0e23c7a46d)" style="fill: #ffffff; stroke: #000000; stroke-width: 0.4"/>
    <path d="M 85.675887 48.755573 
L 90.675887 48.755573 
L 90.675887 43.755573 
L 85.675887 43.755573 
z
" clip-path="url(#p0e23c7a46d)" style="fill: #ffffff; stroke: #000000; stroke-width: 0.4"/>
   </g>
   <g id="PathCollection_19">
    <path d="M 110.775091 96.126919 
L 115.775091 96.126919 
L 115.775091 91.126919 
L 110.775091 91.126919 
z
" clip-path="url(#p0e23c7a46d)" style="fill: #ffffff; stroke: #000000; stroke-width: 0.4"/>
    <path d="M 110.933784 98.656076 
L 115.933784 98.656076 
L 115.933784 93.656076 
L 110.933784 93.656076 
z
" clip-path="url(#p0e23c7a46d)" style="fill: #ffffff; stroke: #000000; stroke-width: 0.4"/>
    <path d="M 113.154669 91.130607 
L 118.154669 91.130607 
L 118.154669 86.130607 
L 113.154669 86.130607 
z
" clip-path="url(#p0e23c7a46d)" style="fill: #ffffff; stroke: #000000; stroke-width: 0.4"/>
   </g>
   <g id="PathCollection_20">
    <path d="M 127.172178 75.588113 
L 132.172178 75.588113 
L 132.172178 70.588113 
L 127.172178 70.588113 
z
" clip-path="url(#p0e23c7a46d)" style="fill: #ffffff; stroke: #000000; stroke-width: 0.4"/>
    <path d="M 130.160311 76.921409 
L 135.160311 76.921409 
L 135.160311 71.921409 
L 130.160311 71.921409 
z
" clip-path="url(#p0e23c7a46d)" style="fill: #ffffff; stroke: #000000; stroke-width: 0.4"/>
    <path d="M 126.59196 68.643112 
L 131.59196 68.643112 
L 131.59196 63.643112 
L 126.59196 63.643112 
z
" clip-path="url(#p0e23c7a46d)" style="fill: #ffffff; stroke: #000000; stroke-width: 0.4"/>
   </g>
   <g id="PathCollection_21">
    <path d="M 151.462805 56.896004 
L 156.462805 56.896004 
L 156.462805 51.896004 
L 151.462805 51.896004 
z
" clip-path="url(#p0e23c7a46d)" style="fill: #ffffff; stroke: #000000; stroke-width: 0.4"/>
    <path d="M 155.111042 54.381299 
L 160.111042 54.381299 
L 160.111042 49.381299 
L 155.111042 49.381299 
z
" clip-path="url(#p0e23c7a46d)" style="fill: #ffffff; stroke: #000000; stroke-width: 0.4"/>
    <path d="M 151.899139 51.025087 
L 156.899139 51.025087 
L 156.899139 46.025087 
L 151.899139 46.025087 
z
" clip-path="url(#p0e23c7a46d)" style="fill: #ffffff; stroke: #000000; stroke-width: 0.4"/>
   </g>
   <g id="PathCollection_22">
    <path d="M 168.18618 58.933914 
L 173.18618 58.933914 
L 173.18618 53.933914 
L 168.18618 53.933914 
z
" clip-path="url(#p0e23c7a46d)" style="fill: #ffffff; stroke: #000000; stroke-width: 0.4"/>
    <path d="M 170.864643 40.894463 
L 175.864643 40.894463 
L 175.864643 35.894463 
L 170.864643 35.894463 
z
" clip-path="url(#p0e23c7a46d)" style="fill: #ffffff; stroke: #000000; stroke-width: 0.4"/>
    <path d="M 169.368168 64.053845 
L 174.368168 64.053845 
L 174.368168 59.053845 
L 169.368168 59.053845 
z
" clip-path="url(#p0e23c7a46d)" style="fill: #ffffff; stroke: #000000; stroke-width: 0.4"/>
   </g>
   <g id="PathCollection_23">
    <path d="M 193.708698 89.98468 
L 198.708698 89.98468 
L 198.708698 84.98468 
L 193.708698 84.98468 
z
" clip-path="url(#p0e23c7a46d)" style="fill: #ffffff; stroke: #000000; stroke-width: 0.4"/>
    <path d="M 193.655353 95.478149 
L 198.655353 95.478149 
L 198.655353 90.478149 
L 193.655353 90.478149 
z
" clip-path="url(#p0e23c7a46d)" style="fill: #ffffff; stroke: #000000; stroke-width: 0.4"/>
    <path d="M 194.044976 93.545948 
L 199.044976 93.545948 
L 199.044976 88.545948 
L 194.044976 88.545948 
z
" clip-path="url(#p0e23c7a46d)" style="fill: #ffffff; stroke: #000000; stroke-width: 0.4"/>
   </g>
   <g id="PathCollection_24">
    <path d="M 212.785731 89.14308 
L 217.785731 89.14308 
L 217.785731 84.14308 
L 212.785731 84.14308 
z
" clip-path="url(#p0e23c7a46d)" style="fill: #ffffff; stroke: #000000; stroke-width: 0.4"/>
    <path d="M 212.398209 82.193337 
L 217.398209 82.193337 
L 217.398209 77.193337 
L 212.398209 77.193337 
z
" clip-path="url(#p0e23c7a46d)" style="fill: #ffffff; stroke: #000000; stroke-width: 0.4"/>
    <path d="M 209.087806 88.592571 
L 214.087806 88.592571 
L 214.087806 83.592571 
L 209.087806 83.592571 
z
" clip-path="url(#p0e23c7a46d)" style="fill: #ffffff; stroke: #000000; stroke-width: 0.4"/>
   </g>
   <g id="PathCollection_25">
    <path d="M 74.821905 64.385758 
L 78.357438 60.850224 
L 74.821905 57.31469 
L 71.286371 60.850224 
z
" clip-path="url(#p0e23c7a46d)" style="fill: #ffffff; stroke: #000000; stroke-width: 0.4"/>
    <path d="M 73.978497 68.645598 
L 77.514031 65.110064 
L 73.978497 61.57453 
L 70.442963 65.110064 
z
" clip-path="url(#p0e23c7a46d)" style="fill: #ffffff; stroke: #000000; stroke-width: 0.4"/>
    <path d="M 71.369771 69.072995 
L 74.905305 65.537461 
L 71.369771 62.001927 
L 67.834238 65.537461 
z
" clip-path="url(#p0e23c7a46d)" style="fill: #ffffff; stroke: #000000; stroke-width: 0.4"/>
   </g>
   <g id="PathCollection_26">
    <path d="M 91.526712 92.801149 
L 95.062246 89.265615 
L 91.526712 85.730081 
L 87.991179 89.265615 
z
" clip-path="url(#p0e23c7a46d)" style="fill: #ffffff; stroke: #000000; stroke-width: 0.4"/>
    <path d="M 90.728261 94.13226 
L 94.263795 90.596726 
L 90.728261 87.061192 
L 87.192727 90.596726 
z
" clip-path="url(#p0e23c7a46d)" style="fill: #ffffff; stroke: #000000; stroke-width: 0.4"/>
    <path d="M 91.102531 91.504341 
L 94.638065 87.968807 
L 91.102531 84.433273 
L 87.566997 87.968807 
z
" clip-path="url(#p0e23c7a46d)" style="fill: #ffffff; stroke: #000000; stroke-width: 0.4"/>
   </g>
   <g id="PathCollection_27">
    <path d="M 113.020488 113.058709 
L 116.556022 109.523175 
L 113.020488 105.987641 
L 109.484954 109.523175 
z
" clip-path="url(#p0e23c7a46d)" style="fill: #ffffff; stroke: #000000; stroke-width: 0.4"/>
    <path d="M 112.646177 114.087542 
L 116.181711 110.552008 
L 112.646177 107.016474 
L 109.110643 110.552008 
z
" clip-path="url(#p0e23c7a46d)" style="fill: #ffffff; stroke: #000000; stroke-width: 0.4"/>
    <path d="M 116.238708 114.748782 
L 119.774242 111.213248 
L 116.238708 107.677715 
L 112.703174 111.213248 
z
" clip-path="url(#p0e23c7a46d)" style="fill: #ffffff; stroke: #000000; stroke-width: 0.4"/>
   </g>
   <g id="PathCollection_28">
    <path d="M 131.753929 109.345546 
L 135.289463 105.810012 
L 131.753929 102.274478 
L 128.218395 105.810012 
z
" clip-path="url(#p0e23c7a46d)" style="fill: #ffffff; stroke: #000000; stroke-width: 0.4"/>
    <path d="M 129.161214 108.544251 
L 132.696748 105.008717 
L 129.161214 101.473183 
L 125.62568 105.008717 
z
" clip-path="url(#p0e23c7a46d)" style="fill: #ffffff; stroke: #000000; stroke-width: 0.4"/>
    <path d="M 130.905969 108.987948 
L 134.441503 105.452414 
L 130.905969 101.91688 
L 127.370435 105.452414 
z
" clip-path="url(#p0e23c7a46d)" style="fill: #ffffff; stroke: #000000; stroke-width: 0.4"/>
   </g>
   <g id="PathCollection_29">
    <path d="M 155.042086 54.467425 
L 158.57762 50.931891 
L 155.042086 47.396357 
L 151.506552 50.931891 
z
" clip-path="url(#p0e23c7a46d)" style="fill: #ffffff; stroke: #000000; stroke-width: 0.4"/>
    <path d="M 156.273753 44.126848 
L 159.809287 40.591314 
L 156.273753 37.05578 
L 152.738219 40.591314 
z
" clip-path="url(#p0e23c7a46d)" style="fill: #ffffff; stroke: #000000; stroke-width: 0.4"/>
    <path d="M 154.53025 42.682667 
L 158.065783 39.147133 
L 154.53025 35.6116 
L 150.994716 39.147133 
z
" clip-path="url(#p0e23c7a46d)" style="fill: #ffffff; stroke: #000000; stroke-width: 0.4"/>
   </g>
   <g id="PathCollection_30">
    <path d="M 171.888955 97.378226 
L 175.424489 93.842692 
L 171.888955 90.307158 
L 168.353421 93.842692 
z
" clip-path="url(#p0e23c7a46d)" style="fill: #ffffff; stroke: #000000; stroke-width: 0.4"/>
    <path d="M 174.231136 100.772277 
L 177.76667 97.236743 
L 174.231136 93.701209 
L 170.695603 97.236743 
z
" clip-path="url(#p0e23c7a46d)" style="fill: #ffffff; stroke: #000000; stroke-width: 0.4"/>
    <path d="M 172.26916 99.616075 
L 175.804694 96.080541 
L 172.26916 92.545007 
L 168.733626 96.080541 
z
" clip-path="url(#p0e23c7a46d)" style="fill: #ffffff; stroke: #000000; stroke-width: 0.4"/>
   </g>
   <g id="PathCollection_31">
    <path d="M 195.941449 107.071066 
L 199.476983 103.535532 
L 195.941449 99.999998 
L 192.405915 103.535532 
z
" clip-path="url(#p0e23c7a46d)" style="fill: #ffffff; stroke: #000000; stroke-width: 0.4"/>
    <path d="M 198.545445 107.985333 
L 202.080979 104.449799 
L 198.545445 100.914265 
L 195.009911 104.449799 
z
" clip-path="url(#p0e23c7a46d)" style="fill: #ffffff; stroke: #000000; stroke-width: 0.4"/>
    <path d="M 195.188318 111.620628 
L 198.723851 108.085095 
L 195.188318 104.549561 
L 191.652784 108.085095 
z
" clip-path="url(#p0e23c7a46d)" style="fill: #ffffff; stroke: #000000; stroke-width: 0.4"/>
   </g>
   <g id="PathCollection_32">
    <path d="M 214.448533 109.905577 
L 217.984067 106.370043 
L 214.448533 102.834509 
L 210.912999 106.370043 
z
" clip-path="url(#p0e23c7a46d)" style="fill: #ffffff; stroke: #000000; stroke-width: 0.4"/>
    <path d="M 213.130285 108.433144 
L 216.665818 104.89761 
L 213.130285 101.362076 
L 209.594751 104.89761 
z
" clip-path="url(#p0e23c7a46d)" style="fill: #ffffff; stroke: #000000; stroke-width: 0.4"/>
    <path d="M 213.191465 111.098411 
L 216.726999 107.562877 
L 213.191465 104.027343 
L 209.655931 107.562877 
z
" clip-path="url(#p0e23c7a46d)" style="fill: #ffffff; stroke: #000000; stroke-width: 0.4"/>
   </g>
   <g id="PathCollection_33">
    <defs>
     <path id="C8_0_deb2b2282a" d="M -0.833333 2.5 
L 0.833333 2.5 
L 0.833333 0.833333 
L 2.5 0.833333 
L 2.5 -0.833333 
L 0.833333 -0.833333 
L 0.833333 -2.5 
L -0.833333 -2.5 
L -0.833333 -0.833333 
L -2.5 -0.833333 
L -2.5 0.833333 
L -0.833333 0.833333 
z
"/>
    </defs>
    <g clip-path="url(#p0e23c7a46d)">
     <use xlink:href="#C8_0_deb2b2282a" x="70.947205" y="50.134204" style="fill: #ffffff; stroke: #000000; stroke-width: 0.4"/>
    </g>
    <g clip-path="url(#p0e23c7a46d)">
     <use xlink:href="#C8_0_deb2b2282a" x="74.029471" y="48.020971" style="fill: #ffffff; stroke: #000000; stroke-width: 0.4"/>
    </g>
   </g>
   <g id="PathCollection_34">
    <defs>
     <path id="C9_0_ba10a0d0d7" d="M -0.833333 2.5 
L 0.833333 2.5 
L 0.833333 0.833333 
L 2.5 0.833333 
L 2.5 -0.833333 
L 0.833333 -0.833333 
L 0.833333 -2.5 
L -0.833333 -2.5 
L -0.833333 -0.833333 
L -2.5 -0.833333 
L -2.5 0.833333 
L -0.833333 0.833333 
z
"/>
    </defs>
    <g clip-path="url(#p0e23c7a46d)">
     <use xlink:href="#C9_0_ba10a0d0d7" x="87.983625" y="66.236283" style="fill: #ffffff; stroke: #000000; stroke-width: 0.4"/>
    </g>
    <g clip-path="url(#p0e23c7a46d)">
     <use xlink:href="#C9_0_ba10a0d0d7" x="89.397619" y="72.324086" style="fill: #ffffff; stroke: #000000; stroke-width: 0.4"/>
    </g>
    <g clip-path="url(#p0e23c7a46d)">
     <use xlink:href="#C9_0_ba10a0d0d7" x="88.926952" y="70.903315" style="fill: #ffffff; stroke: #000000; stroke-width: 0.4"/>
    </g>
   </g>
   <g id="PathCollection_35">
    <defs>
     <path id="Ca_0_9191fead11" d="M -0.833333 2.5 
L 0.833333 2.5 
L 0.833333 0.833333 
L 2.5 0.833333 
L 2.5 -0.833333 
L 0.833333 -0.833333 
L 0.833333 -2.5 
L -0.833333 -2.5 
L -0.833333 -0.833333 
L -2.5 -0.833333 
L -2.5 0.833333 
L -0.833333 0.833333 
z
"/>
    </defs>
    <g clip-path="url(#p0e23c7a46d)">
     <use xlink:href="#Ca_0_9191fead11" x="114.998087" y="104.622941" style="fill: #ffffff; stroke: #000000; stroke-width: 0.4"/>
    </g>
    <g clip-path="url(#p0e23c7a46d)">
     <use xlink:href="#Ca_0_9191fead11" x="114.826412" y="101.261141" style="fill: #ffffff; stroke: #000000; stroke-width: 0.4"/>
    </g>
    <g clip-path="url(#p0e23c7a46d)">
     <use xlink:href="#Ca_0_9191fead11" x="113.728774" y="100.462602" style="fill: #ffffff; stroke: #000000; stroke-width: 0.4"/>
    </g>
   </g>
   <g id="PathCollection_36">
    <defs>
     <path id="Cb_0_152fbe085d" d="M -0.833333 2.5 
L 0.833333 2.5 
L 0.833333 0.833333 
L 2.5 0.833333 
L 2.5 -0.833333 
L 0.833333 -0.833333 
L 0.833333 -2.5 
L -0.833333 -2.5 
L -0.833333 -0.833333 
L -2.5 -0.833333 
L -2.5 0.833333 
L -0.833333 0.833333 
z
"/>
    </defs>
    <g clip-path="url(#p0e23c7a46d)">
     <use xlink:href="#Cb_0_152fbe085d" x="129.624041" y="90.591599" style="fill: #ffffff; stroke: #000000; stroke-width: 0.4"/>
    </g>
    <g clip-path="url(#p0e23c7a46d)">
     <use xlink:href="#Cb_0_152fbe085d" x="132.488071" y="95.457036" style="fill: #ffffff; stroke: #000000; stroke-width: 0.4"/>
    </g>
    <g clip-path="url(#p0e23c7a46d)">
     <use xlink:href="#Cb_0_152fbe085d" x="131.685892" y="85.353898" style="fill: #ffffff; stroke: #000000; stroke-width: 0.4"/>
    </g>
   </g>
   <g id="PathCollection_37">
    <defs>
     <path id="Cc_0_e91d3f4ec0" d="M -0.833333 2.5 
L 0.833333 2.5 
L 0.833333 0.833333 
L 2.5 0.833333 
L 2.5 -0.833333 
L 0.833333 -0.833333 
L 0.833333 -2.5 
L -0.833333 -2.5 
L -0.833333 -0.833333 
L -2.5 -0.833333 
L -2.5 0.833333 
L -0.833333 0.833333 
z
"/>
    </defs>
    <g clip-path="url(#p0e23c7a46d)">
     <use xlink:href="#Cc_0_e91d3f4ec0" x="155.874942" y="29.463858" style="fill: #ffffff; stroke: #000000; stroke-width: 0.4"/>
    </g>
    <g clip-path="url(#p0e23c7a46d)">
     <use xlink:href="#Cc_0_e91d3f4ec0" x="157.13965" y="30.364345" style="fill: #ffffff; stroke: #000000; stroke-width: 0.4"/>
    </g>
    <g clip-path="url(#p0e23c7a46d)">
     <use xlink:href="#Cc_0_e91d3f4ec0" x="157.167847" y="31.272165" style="fill: #ffffff; stroke: #000000; stroke-width: 0.4"/>
    </g>
   </g>
   <g id="PathCollection_38">
    <defs>
     <path id="Cd_0_8447147832" d="M -0.833333 2.5 
L 0.833333 2.5 
L 0.833333 0.833333 
L 2.5 0.833333 
L 2.5 -0.833333 
L 0.833333 -0.833333 
L 0.833333 -2.5 
L -0.833333 -2.5 
L -0.833333 -0.833333 
L -2.5 -0.833333 
L -2.5 0.833333 
L -0.833333 0.833333 
z
"/>
    </defs>
    <g clip-path="url(#p0e23c7a46d)">
     <use xlink:href="#Cd_0_8447147832" x="170.75429" y="72.078101" style="fill: #ffffff; stroke: #000000; stroke-width: 0.4"/>
    </g>
    <g clip-path="url(#p0e23c7a46d)">
     <use xlink:href="#Cd_0_8447147832" x="170.215105" y="69.344239" style="fill: #ffffff; stroke: #000000; stroke-width: 0.4"/>
    </g>
    <g clip-path="url(#p0e23c7a46d)">
     <use xlink:href="#Cd_0_8447147832" x="172.852764" y="87.797287" style="fill: #ffffff; stroke: #000000; stroke-width: 0.4"/>
    </g>
   </g>
   <g id="PathCollection_39">
    <defs>
     <path id="Ce_0_6e65e47a81" d="M -0.833333 2.5 
L 0.833333 2.5 
L 0.833333 0.833333 
L 2.5 0.833333 
L 2.5 -0.833333 
L 0.833333 -0.833333 
L 0.833333 -2.5 
L -0.833333 -2.5 
L -0.833333 -0.833333 
L -2.5 -0.833333 
L -2.5 0.833333 
L -0.833333 0.833333 
z
"/>
    </defs>
    <g clip-path="url(#p0e23c7a46d)">
     <use xlink:href="#Ce_0_6e65e47a81" x="196.394272" y="98.28941" style="fill: #ffffff; stroke: #000000; stroke-width: 0.4"/>
    </g>
    <g clip-path="url(#p0e23c7a46d)">
     <use xlink:href="#Ce_0_6e65e47a81" x="198.009995" y="95.790724" style="fill: #ffffff; stroke: #000000; stroke-width: 0.4"/>
    </g>
    <g clip-path="url(#p0e23c7a46d)">
     <use xlink:href="#Ce_0_6e65e47a81" x="197.869753" y="97.851563" style="fill: #ffffff; stroke: #000000; stroke-width: 0.4"/>
    </g>
   </g>
   <g id="PathCollection_40">
    <defs>
     <path id="Cf_0_06c63ef31d" d="M -0.833333 2.5 
L 0.833333 2.5 
L 0.833333 0.833333 
L 2.5 0.833333 
L 2.5 -0.833333 
L 0.833333 -0.833333 
L 0.833333 -2.5 
L -0.833333 -2.5 
L -0.833333 -0.833333 
L -2.5 -0.833333 
L -2.5 0.833333 
L -0.833333 0.833333 
z
"/>
    </defs>
    <g clip-path="url(#p0e23c7a46d)">
     <use xlink:href="#Cf_0_06c63ef31d" x="213.806337" y="88.255433" style="fill: #ffffff; stroke: #000000; stroke-width: 0.4"/>
    </g>
    <g clip-path="url(#p0e23c7a46d)">
     <use xlink:href="#Cf_0_06c63ef31d" x="214.142804" y="89.880185" style="fill: #ffffff; stroke: #000000; stroke-width: 0.4"/>
    </g>
    <g clip-path="url(#p0e23c7a46d)">
     <use xlink:href="#Cf_0_06c63ef31d" x="214.290043" y="84.892754" style="fill: #ffffff; stroke: #000000; stroke-width: 0.4"/>
    </g>
   </g>
   <g id="PathCollection_41">
    <defs>
     <path id="C10_0_342937e389" d="M -1.25 2.5 
L 0 1.25 
L 1.25 2.5 
L 2.5 1.25 
L 1.25 -0 
L 2.5 -1.25 
L 1.25 -2.5 
L 0 -1.25 
L -1.25 -2.5 
L -2.5 -1.25 
L -1.25 0 
L -2.5 1.25 
z
"/>
    </defs>
    <g clip-path="url(#p0e23c7a46d)">
     <use xlink:href="#C10_0_342937e389" x="71.275117" y="63.510791" style="fill: #ffffff; stroke: #000000; stroke-width: 0.4"/>
    </g>
    <g clip-path="url(#p0e23c7a46d)">
     <use xlink:href="#C10_0_342937e389" x="73.219574" y="70.190907" style="fill: #ffffff; stroke: #000000; stroke-width: 0.4"/>
    </g>
    <g clip-path="url(#p0e23c7a46d)">
     <use xlink:href="#C10_0_342937e389" x="74.992432" y="61.751785" style="fill: #ffffff; stroke: #000000; stroke-width: 0.4"/>
    </g>
   </g>
   <g id="PathCollection_42">
    <defs>
     <path id="C11_0_695cf71c35" d="M -1.25 2.5 
L 0 1.25 
L 1.25 2.5 
L 2.5 1.25 
L 1.25 -0 
L 2.5 -1.25 
L 1.25 -2.5 
L 0 -1.25 
L -1.25 -2.5 
L -2.5 -1.25 
L -1.25 0 
L -2.5 1.25 
z
"/>
    </defs>
    <g clip-path="url(#p0e23c7a46d)">
     <use xlink:href="#C11_0_695cf71c35" x="88.590434" y="77.395484" style="fill: #ffffff; stroke: #000000; stroke-width: 0.4"/>
    </g>
    <g clip-path="url(#p0e23c7a46d)">
     <use xlink:href="#C11_0_695cf71c35" x="91.030381" y="73.061703" style="fill: #ffffff; stroke: #000000; stroke-width: 0.4"/>
    </g>
    <g clip-path="url(#p0e23c7a46d)">
     <use xlink:href="#C11_0_695cf71c35" x="89.882218" y="77.965076" style="fill: #ffffff; stroke: #000000; stroke-width: 0.4"/>
    </g>
   </g>
   <g id="PathCollection_43">
    <defs>
     <path id="C12_0_8a64e56f22" d="M -1.25 2.5 
L 0 1.25 
L 1.25 2.5 
L 2.5 1.25 
L 1.25 -0 
L 2.5 -1.25 
L 1.25 -2.5 
L 0 -1.25 
L -1.25 -2.5 
L -2.5 -1.25 
L -1.25 0 
L -2.5 1.25 
z
"/>
    </defs>
    <g clip-path="url(#p0e23c7a46d)">
     <use xlink:href="#C12_0_8a64e56f22" x="114.263017" y="100.343264" style="fill: #ffffff; stroke: #000000; stroke-width: 0.4"/>
    </g>
    <g clip-path="url(#p0e23c7a46d)">
     <use xlink:href="#C12_0_8a64e56f22" x="113.978514" y="99.345071" style="fill: #ffffff; stroke: #000000; stroke-width: 0.4"/>
    </g>
    <g clip-path="url(#p0e23c7a46d)">
     <use xlink:href="#C12_0_8a64e56f22" x="112.357207" y="99.229493" style="fill: #ffffff; stroke: #000000; stroke-width: 0.4"/>
    </g>
   </g>
   <g id="PathCollection_44">
    <defs>
     <path id="C13_0_d07aae15b1" d="M -1.25 2.5 
L 0 1.25 
L 1.25 2.5 
L 2.5 1.25 
L 1.25 -0 
L 2.5 -1.25 
L 1.25 -2.5 
L 0 -1.25 
L -1.25 -2.5 
L -2.5 -1.25 
L -1.25 0 
L -2.5 1.25 
z
"/>
    </defs>
    <g clip-path="url(#p0e23c7a46d)">
     <use xlink:href="#C13_0_d07aae15b1" x="130.838436" y="91.837578" style="fill: #ffffff; stroke: #000000; stroke-width: 0.4"/>
    </g>
    <g clip-path="url(#p0e23c7a46d)">
     <use xlink:href="#C13_0_d07aae15b1" x="131.734468" y="94.645425" style="fill: #ffffff; stroke: #000000; stroke-width: 0.4"/>
    </g>
    <g clip-path="url(#p0e23c7a46d)">
     <use xlink:href="#C13_0_d07aae15b1" x="130.645459" y="80.345922" style="fill: #ffffff; stroke: #000000; stroke-width: 0.4"/>
    </g>
   </g>
   <g id="PathCollection_45">
    <defs>
     <path id="C14_0_7743284f0f" d="M -1.25 2.5 
L 0 1.25 
L 1.25 2.5 
L 2.5 1.25 
L 1.25 -0 
L 2.5 -1.25 
L 1.25 -2.5 
L 0 -1.25 
L -1.25 -2.5 
L -2.5 -1.25 
L -1.25 0 
L -2.5 1.25 
z
"/>
    </defs>
    <g clip-path="url(#p0e23c7a46d)">
     <use xlink:href="#C14_0_7743284f0f" x="156.167346" y="52.10159" style="fill: #ffffff; stroke: #000000; stroke-width: 0.4"/>
    </g>
    <g clip-path="url(#p0e23c7a46d)">
     <use xlink:href="#C14_0_7743284f0f" x="156.453789" y="41.926447" style="fill: #ffffff; stroke: #000000; stroke-width: 0.4"/>
    </g>
    <g clip-path="url(#p0e23c7a46d)">
     <use xlink:href="#C14_0_7743284f0f" x="154.899519" y="48.794085" style="fill: #ffffff; stroke: #000000; stroke-width: 0.4"/>
    </g>
   </g>
   <g id="PathCollection_46">
    <defs>
     <path id="C15_0_b874fd59fc" d="M -1.25 2.5 
L 0 1.25 
L 1.25 2.5 
L 2.5 1.25 
L 1.25 -0 
L 2.5 -1.25 
L 1.25 -2.5 
L 0 -1.25 
L -1.25 -2.5 
L -2.5 -1.25 
L -1.25 0 
L -2.5 1.25 
z
"/>
    </defs>
    <g clip-path="url(#p0e23c7a46d)">
     <use xlink:href="#C15_0_b874fd59fc" x="174.119348" y="53.629593" style="fill: #ffffff; stroke: #000000; stroke-width: 0.4"/>
    </g>
    <g clip-path="url(#p0e23c7a46d)">
     <use xlink:href="#C15_0_b874fd59fc" x="171.711928" y="44.602368" style="fill: #ffffff; stroke: #000000; stroke-width: 0.4"/>
    </g>
    <g clip-path="url(#p0e23c7a46d)">
     <use xlink:href="#C15_0_b874fd59fc" x="174.184523" y="42.805747" style="fill: #ffffff; stroke: #000000; stroke-width: 0.4"/>
    </g>
   </g>
   <g id="PathCollection_47">
    <defs>
     <path id="C16_0_75fd76e87c" d="M -1.25 2.5 
L 0 1.25 
L 1.25 2.5 
L 2.5 1.25 
L 1.25 -0 
L 2.5 -1.25 
L 1.25 -2.5 
L 0 -1.25 
L -1.25 -2.5 
L -2.5 -1.25 
L -1.25 0 
L -2.5 1.25 
z
"/>
    </defs>
    <g clip-path="url(#p0e23c7a46d)">
     <use xlink:href="#C16_0_75fd76e87c" x="198.608667" y="77.135707" style="fill: #ffffff; stroke: #000000; stroke-width: 0.4"/>
    </g>
    <g clip-path="url(#p0e23c7a46d)">
     <use xlink:href="#C16_0_75fd76e87c" x="198.936088" y="80.670906" style="fill: #ffffff; stroke: #000000; stroke-width: 0.4"/>
    </g>
    <g clip-path="url(#p0e23c7a46d)">
     <use xlink:href="#C16_0_75fd76e87c" x="198.334124" y="84.932898" style="fill: #ffffff; stroke: #000000; stroke-width: 0.4"/>
    </g>
   </g>
   <g id="PathCollection_48">
    <defs>
     <path id="C17_0_3fac628145" d="M -1.25 2.5 
L 0 1.25 
L 1.25 2.5 
L 2.5 1.25 
L 1.25 -0 
L 2.5 -1.25 
L 1.25 -2.5 
L 0 -1.25 
L -1.25 -2.5 
L -2.5 -1.25 
L -1.25 0 
L -2.5 1.25 
z
"/>
    </defs>
    <g clip-path="url(#p0e23c7a46d)">
     <use xlink:href="#C17_0_3fac628145" x="212.220411" y="71.894929" style="fill: #ffffff; stroke: #000000; stroke-width: 0.4"/>
    </g>
    <g clip-path="url(#p0e23c7a46d)">
     <use xlink:href="#C17_0_3fac628145" x="212.373642" y="75.931774" style="fill: #ffffff; stroke: #000000; stroke-width: 0.4"/>
    </g>
    <g clip-path="url(#p0e23c7a46d)">
     <use xlink:href="#C17_0_3fac628145" x="212.396979" y="69.522932" style="fill: #ffffff; stroke: #000000; stroke-width: 0.4"/>
    </g>
   </g>
   <g id="PathCollection_49">
    <defs>
     <path id="C18_0_0d52bc8186" d="M 0 -2.5 
L -0.561285 -0.772542 
L -2.377641 -0.772542 
L -0.908178 0.295085 
L -1.469463 2.022542 
L -0 0.954915 
L 1.469463 2.022542 
L 0.908178 0.295085 
L 2.377641 -0.772542 
L 0.561285 -0.772542 
z
"/>
    </defs>
    <g clip-path="url(#p0e23c7a46d)">
     <use xlink:href="#C18_0_0d52bc8186" x="70.992917" y="69.330163" style="fill: #ffffff; stroke: #000000; stroke-width: 0.4"/>
    </g>
    <g clip-path="url(#p0e23c7a46d)">
     <use xlink:href="#C18_0_0d52bc8186" x="74.724561" y="63.404599" style="fill: #ffffff; stroke: #000000; stroke-width: 0.4"/>
    </g>
    <g clip-path="url(#p0e23c7a46d)">
     <use xlink:href="#C18_0_0d52bc8186" x="73.283253" y="71.816245" style="fill: #ffffff; stroke: #000000; stroke-width: 0.4"/>
    </g>
   </g>
   <g id="PathCollection_50">
    <defs>
     <path id="C19_0_aa34dfe44c" d="M 0 -2.5 
L -0.561285 -0.772542 
L -2.377641 -0.772542 
L -0.908178 0.295085 
L -1.469463 2.022542 
L -0 0.954915 
L 1.469463 2.022542 
L 0.908178 0.295085 
L 2.377641 -0.772542 
L 0.561285 -0.772542 
z
"/>
    </defs>
    <g clip-path="url(#p0e23c7a46d)">
     <use xlink:href="#C19_0_aa34dfe44c" x="91.500055" y="76.575311" style="fill: #ffffff; stroke: #000000; stroke-width: 0.4"/>
    </g>
    <g clip-path="url(#p0e23c7a46d)">
     <use xlink:href="#C19_0_aa34dfe44c" x="90.34771" y="92.540479" style="fill: #ffffff; stroke: #000000; stroke-width: 0.4"/>
    </g>
    <g clip-path="url(#p0e23c7a46d)">
     <use xlink:href="#C19_0_aa34dfe44c" x="88.926094" y="82.937066" style="fill: #ffffff; stroke: #000000; stroke-width: 0.4"/>
    </g>
   </g>
   <g id="PathCollection_51">
    <defs>
     <path id="C1a_0_cb02ec6ce8" d="M 0 -2.5 
L -0.561285 -0.772542 
L -2.377641 -0.772542 
L -0.908178 0.295085 
L -1.469463 2.022542 
L -0 0.954915 
L 1.469463 2.022542 
L 0.908178 0.295085 
L 2.377641 -0.772542 
L 0.561285 -0.772542 
z
"/>
    </defs>
    <g clip-path="url(#p0e23c7a46d)">
     <use xlink:href="#C1a_0_cb02ec6ce8" x="114.022241" y="103.090139" style="fill: #ffffff; stroke: #000000; stroke-width: 0.4"/>
    </g>
    <g clip-path="url(#p0e23c7a46d)">
     <use xlink:href="#C1a_0_cb02ec6ce8" x="115.544454" y="98.312948" style="fill: #ffffff; stroke: #000000; stroke-width: 0.4"/>
    </g>
    <g clip-path="url(#p0e23c7a46d)">
     <use xlink:href="#C1a_0_cb02ec6ce8" x="113.470318" y="104.407374" style="fill: #ffffff; stroke: #000000; stroke-width: 0.4"/>
    </g>
   </g>
   <g id="PathCollection_52">
    <defs>
     <path id="C1b_0_f17c6a0fc9" d="M 0 -2.5 
L -0.561285 -0.772542 
L -2.377641 -0.772542 
L -0.908178 0.295085 
L -1.469463 2.022542 
L -0 0.954915 
L 1.469463 2.022542 
L 0.908178 0.295085 
L 2.377641 -0.772542 
L 0.561285 -0.772542 
z
"/>
    </defs>
    <g clip-path="url(#p0e23c7a46d)">
     <use xlink:href="#C1b_0_f17c6a0fc9" x="131.84547" y="100.939619" style="fill: #ffffff; stroke: #000000; stroke-width: 0.4"/>
    </g>
    <g clip-path="url(#p0e23c7a46d)">
     <use xlink:href="#C1b_0_f17c6a0fc9" x="129.329818" y="98.655369" style="fill: #ffffff; stroke: #000000; stroke-width: 0.4"/>
    </g>
    <g clip-path="url(#p0e23c7a46d)">
     <use xlink:href="#C1b_0_f17c6a0fc9" x="130.717598" y="86.409569" style="fill: #ffffff; stroke: #000000; stroke-width: 0.4"/>
    </g>
   </g>
   <g id="PathCollection_53">
    <defs>
     <path id="C1c_0_7529b5f61e" d="M 0 -2.5 
L -0.561285 -0.772542 
L -2.377641 -0.772542 
L -0.908178 0.295085 
L -1.469463 2.022542 
L -0 0.954915 
L 1.469463 2.022542 
L 0.908178 0.295085 
L 2.377641 -0.772542 
L 0.561285 -0.772542 
z
"/>
    </defs>
    <g clip-path="url(#p0e23c7a46d)">
     <use xlink:href="#C1c_0_7529b5f61e" x="156.772553" y="55.422978" style="fill: #ffffff; stroke: #000000; stroke-width: 0.4"/>
    </g>
    <g clip-path="url(#p0e23c7a46d)">
     <use xlink:href="#C1c_0_7529b5f61e" x="156.512869" y="58.559214" style="fill: #ffffff; stroke: #000000; stroke-width: 0.4"/>
    </g>
    <g clip-path="url(#p0e23c7a46d)">
     <use xlink:href="#C1c_0_7529b5f61e" x="155.145476" y="64.908061" style="fill: #ffffff; stroke: #000000; stroke-width: 0.4"/>
    </g>
   </g>
   <g id="PathCollection_54">
    <defs>
     <path id="C1d_0_f5d3fa5266" d="M 0 -2.5 
L -0.561285 -0.772542 
L -2.377641 -0.772542 
L -0.908178 0.295085 
L -1.469463 2.022542 
L -0 0.954915 
L 1.469463 2.022542 
L 0.908178 0.295085 
L 2.377641 -0.772542 
L 0.561285 -0.772542 
z
"/>
    </defs>
    <g clip-path="url(#p0e23c7a46d)">
     <use xlink:href="#C1d_0_f5d3fa5266" x="172.080472" y="45.90494" style="fill: #ffffff; stroke: #000000; stroke-width: 0.4"/>
    </g>
    <g clip-path="url(#p0e23c7a46d)">
     <use xlink:href="#C1d_0_f5d3fa5266" x="174.192512" y="46.179875" style="fill: #ffffff; stroke: #000000; stroke-width: 0.4"/>
    </g>
    <g clip-path="url(#p0e23c7a46d)">
     <use xlink:href="#C1d_0_f5d3fa5266" x="171.36876" y="45.390521" style="fill: #ffffff; stroke: #000000; stroke-width: 0.4"/>
    </g>
   </g>
   <g id="PathCollection_55">
    <defs>
     <path id="C1e_0_b274f18364" d="M 0 -2.5 
L -0.561285 -0.772542 
L -2.377641 -0.772542 
L -0.908178 0.295085 
L -1.469463 2.022542 
L -0 0.954915 
L 1.469463 2.022542 
L 0.908178 0.295085 
L 2.377641 -0.772542 
L 0.561285 -0.772542 
z
"/>
    </defs>
    <g clip-path="url(#p0e23c7a46d)">
     <use xlink:href="#C1e_0_b274f18364" x="195.327472" y="83.068409" style="fill: #ffffff; stroke: #000000; stroke-width: 0.4"/>
    </g>
    <g clip-path="url(#p0e23c7a46d)">
     <use xlink:href="#C1e_0_b274f18364" x="197.050699" y="84.923664" style="fill: #ffffff; stroke: #000000; stroke-width: 0.4"/>
    </g>
    <g clip-path="url(#p0e23c7a46d)">
     <use xlink:href="#C1e_0_b274f18364" x="198.269876" y="83.914461" style="fill: #ffffff; stroke: #000000; stroke-width: 0.4"/>
    </g>
   </g>
   <g id="PathCollection_56">
    <defs>
     <path id="C1f_0_c640fe8e12" d="M 0 -2.5 
L -0.561285 -0.772542 
L -2.377641 -0.772542 
L -0.908178 0.295085 
L -1.469463 2.022542 
L -0 0.954915 
L 1.469463 2.022542 
L 0.908178 0.295085 
L 2.377641 -0.772542 
L 0.561285 -0.772542 
z
"/>
    </defs>
    <g clip-path="url(#p0e23c7a46d)">
     <use xlink:href="#C1f_0_c640fe8e12" x="215.622837" y="84.32036" style="fill: #ffffff; stroke: #000000; stroke-width: 0.4"/>
    </g>
    <g clip-path="url(#p0e23c7a46d)">
     <use xlink:href="#C1f_0_c640fe8e12" x="213.624711" y="85.608089" style="fill: #ffffff; stroke: #000000; stroke-width: 0.4"/>
    </g>
    <g clip-path="url(#p0e23c7a46d)">
     <use xlink:href="#C1f_0_c640fe8e12" x="215.427584" y="83.093187" style="fill: #ffffff; stroke: #000000; stroke-width: 0.4"/>
    </g>
   </g>
   <g id="text_10">
    <!-- *** -->
    <g style="fill: #262626" transform="translate(115.611769 54.800276) scale(0.12 -0.12)">
     <defs>
      <path id="ArialMT-2a" d="M 200 3741 
L 344 4184 
Q 841 4009 1066 3881 
Q 1006 4447 1003 4659 
L 1456 4659 
Q 1447 4350 1384 3884 
Q 1706 4047 2122 4184 
L 2266 3741 
Q 1869 3609 1488 3566 
Q 1678 3400 2025 2975 
L 1650 2709 
Q 1469 2956 1222 3381 
Q 991 2941 816 2709 
L 447 2975 
Q 809 3422 966 3566 
Q 563 3644 200 3741 
z
" transform="scale(0.015625)"/>
     </defs>
     <use xlink:href="#ArialMT-2a"/>
     <use xlink:href="#ArialMT-2a" transform="translate(38.916016 0)"/>
     <use xlink:href="#ArialMT-2a" transform="translate(77.832031 0)"/>
    </g>
   </g>
   <g id="text_11">
    <!-- ns -->
    <g style="fill: #262626" transform="translate(74.941431 25.621749) scale(0.12 -0.12)">
     <use xlink:href="#ArialMT-6e"/>
     <use xlink:href="#ArialMT-73" transform="translate(55.615234 0)"/>
    </g>
   </g>
   <g id="text_12">
    <!-- ** -->
    <g style="fill: #262626" transform="translate(159.286794 18.121022) scale(0.12 -0.12)">
     <use xlink:href="#ArialMT-2a"/>
     <use xlink:href="#ArialMT-2a" transform="translate(38.916016 0)"/>
    </g>
   </g>
   <g id="text_13">
    <!-- ns -->
    <g style="fill: #262626" transform="translate(198.960569 58.180096) scale(0.12 -0.12)">
     <use xlink:href="#ArialMT-6e"/>
     <use xlink:href="#ArialMT-73" transform="translate(55.615234 0)"/>
    </g>
   </g>
   <g id="legend_1">
    <g id="patch_15">
     <path d="M 242.727563 19.50625 
L 264.727562 19.50625 
L 264.727562 11.80625 
L 242.727563 11.80625 
z
" style="fill: #db8484; stroke: #ffffff; stroke-linejoin: miter"/>
    </g>
    <g id="text_14">
     <!-- WT.Ngn2.x3HA -->
     <g style="fill: #262626" transform="translate(273.527562 19.50625) scale(0.11 -0.11)">
      <defs>
       <path id="ArialMT-57" d="M 1294 0 
L 78 4581 
L 700 4581 
L 1397 1578 
Q 1509 1106 1591 641 
Q 1766 1375 1797 1488 
L 2669 4581 
L 3400 4581 
L 4056 2263 
Q 4303 1400 4413 641 
Q 4500 1075 4641 1638 
L 5359 4581 
L 5969 4581 
L 4713 0 
L 4128 0 
L 3163 3491 
Q 3041 3928 3019 4028 
Q 2947 3713 2884 3491 
L 1913 0 
L 1294 0 
z
" transform="scale(0.015625)"/>
       <path id="ArialMT-54" d="M 1659 0 
L 1659 4041 
L 150 4041 
L 150 4581 
L 3781 4581 
L 3781 4041 
L 2266 4041 
L 2266 0 
L 1659 0 
z
" transform="scale(0.015625)"/>
       <path id="ArialMT-2e" d="M 581 0 
L 581 641 
L 1222 641 
L 1222 0 
L 581 0 
z
" transform="scale(0.015625)"/>
       <path id="ArialMT-67" d="M 319 -275 
L 866 -356 
Q 900 -609 1056 -725 
Q 1266 -881 1628 -881 
Q 2019 -881 2231 -725 
Q 2444 -569 2519 -288 
Q 2563 -116 2559 434 
Q 2191 0 1641 0 
Q 956 0 581 494 
Q 206 988 206 1678 
Q 206 2153 378 2554 
Q 550 2956 876 3175 
Q 1203 3394 1644 3394 
Q 2231 3394 2613 2919 
L 2613 3319 
L 3131 3319 
L 3131 450 
Q 3131 -325 2973 -648 
Q 2816 -972 2473 -1159 
Q 2131 -1347 1631 -1347 
Q 1038 -1347 672 -1080 
Q 306 -813 319 -275 
z
M 784 1719 
Q 784 1066 1043 766 
Q 1303 466 1694 466 
Q 2081 466 2343 764 
Q 2606 1063 2606 1700 
Q 2606 2309 2336 2618 
Q 2066 2928 1684 2928 
Q 1309 2928 1046 2623 
Q 784 2319 784 1719 
z
" transform="scale(0.015625)"/>
       <path id="ArialMT-78" d="M 47 0 
L 1259 1725 
L 138 3319 
L 841 3319 
L 1350 2541 
Q 1494 2319 1581 2169 
Q 1719 2375 1834 2534 
L 2394 3319 
L 3066 3319 
L 1919 1756 
L 3153 0 
L 2463 0 
L 1781 1031 
L 1600 1309 
L 728 0 
L 47 0 
z
" transform="scale(0.015625)"/>
       <path id="ArialMT-33" d="M 269 1209 
L 831 1284 
Q 928 806 1161 595 
Q 1394 384 1728 384 
Q 2125 384 2398 659 
Q 2672 934 2672 1341 
Q 2672 1728 2419 1979 
Q 2166 2231 1775 2231 
Q 1616 2231 1378 2169 
L 1441 2663 
Q 1497 2656 1531 2656 
Q 1891 2656 2178 2843 
Q 2466 3031 2466 3422 
Q 2466 3731 2256 3934 
Q 2047 4138 1716 4138 
Q 1388 4138 1169 3931 
Q 950 3725 888 3313 
L 325 3413 
Q 428 3978 793 4289 
Q 1159 4600 1703 4600 
Q 2078 4600 2393 4439 
Q 2709 4278 2876 4000 
Q 3044 3722 3044 3409 
Q 3044 3113 2884 2869 
Q 2725 2625 2413 2481 
Q 2819 2388 3044 2092 
Q 3269 1797 3269 1353 
Q 3269 753 2831 336 
Q 2394 -81 1725 -81 
Q 1122 -81 723 278 
Q 325 638 269 1209 
z
" transform="scale(0.015625)"/>
       <path id="ArialMT-48" d="M 513 0 
L 513 4581 
L 1119 4581 
L 1119 2700 
L 3500 2700 
L 3500 4581 
L 4106 4581 
L 4106 0 
L 3500 0 
L 3500 2159 
L 1119 2159 
L 1119 0 
L 513 0 
z
" transform="scale(0.015625)"/>
       <path id="ArialMT-41" d="M -9 0 
L 1750 4581 
L 2403 4581 
L 4278 0 
L 3588 0 
L 3053 1388 
L 1138 1388 
L 634 0 
L -9 0 
z
M 1313 1881 
L 2866 1881 
L 2388 3150 
Q 2169 3728 2063 4100 
Q 1975 3659 1816 3225 
L 1313 1881 
z
" transform="scale(0.015625)"/>
      </defs>
      <use xlink:href="#ArialMT-57"/>
      <use xlink:href="#ArialMT-54" transform="translate(94.384766 0)"/>
      <use xlink:href="#ArialMT-2e" transform="translate(144.34375 0)"/>
      <use xlink:href="#ArialMT-4e" transform="translate(172.126953 0)"/>
      <use xlink:href="#ArialMT-67" transform="translate(244.34375 0)"/>
      <use xlink:href="#ArialMT-6e" transform="translate(299.958984 0)"/>
      <use xlink:href="#ArialMT-32" transform="translate(355.574219 0)"/>
      <use xlink:href="#ArialMT-2e" transform="translate(411.189453 0)"/>
      <use xlink:href="#ArialMT-78" transform="translate(438.972656 0)"/>
      <use xlink:href="#ArialMT-33" transform="translate(488.972656 0)"/>
      <use xlink:href="#ArialMT-48" transform="translate(544.587891 0)"/>
      <use xlink:href="#ArialMT-41" transform="translate(616.804688 0)"/>
     </g>
    </g>
    <g id="patch_16">
     <path d="M 242.727563 35.329062 
L 264.727562 35.329062 
L 264.727562 27.629062 
L 242.727563 27.629062 
z
" style="fill: #4b94a2; stroke: #ffffff; stroke-linejoin: miter"/>
    </g>
    <g id="text_15">
     <!-- 9SA.Ngn2.x3HA -->
     <g style="fill: #262626" transform="translate(273.527562 35.329062) scale(0.11 -0.11)">
      <defs>
       <path id="ArialMT-39" d="M 350 1059 
L 891 1109 
Q 959 728 1153 556 
Q 1347 384 1650 384 
Q 1909 384 2104 503 
Q 2300 622 2425 820 
Q 2550 1019 2634 1356 
Q 2719 1694 2719 2044 
Q 2719 2081 2716 2156 
Q 2547 1888 2255 1720 
Q 1963 1553 1622 1553 
Q 1053 1553 659 1965 
Q 266 2378 266 3053 
Q 266 3750 677 4175 
Q 1088 4600 1706 4600 
Q 2153 4600 2523 4359 
Q 2894 4119 3086 3673 
Q 3278 3228 3278 2384 
Q 3278 1506 3087 986 
Q 2897 466 2520 194 
Q 2144 -78 1638 -78 
Q 1100 -78 759 220 
Q 419 519 350 1059 
z
M 2653 3081 
Q 2653 3566 2395 3850 
Q 2138 4134 1775 4134 
Q 1400 4134 1122 3828 
Q 844 3522 844 3034 
Q 844 2597 1108 2323 
Q 1372 2050 1759 2050 
Q 2150 2050 2401 2323 
Q 2653 2597 2653 3081 
z
" transform="scale(0.015625)"/>
      </defs>
      <use xlink:href="#ArialMT-39"/>
      <use xlink:href="#ArialMT-53" transform="translate(55.615234 0)"/>
      <use xlink:href="#ArialMT-41" transform="translate(122.314453 0)"/>
      <use xlink:href="#ArialMT-2e" transform="translate(189.013672 0)"/>
      <use xlink:href="#ArialMT-4e" transform="translate(216.796875 0)"/>
      <use xlink:href="#ArialMT-67" transform="translate(289.013672 0)"/>
      <use xlink:href="#ArialMT-6e" transform="translate(344.628906 0)"/>
      <use xlink:href="#ArialMT-32" transform="translate(400.244141 0)"/>
      <use xlink:href="#ArialMT-2e" transform="translate(455.859375 0)"/>
      <use xlink:href="#ArialMT-78" transform="translate(483.642578 0)"/>
      <use xlink:href="#ArialMT-33" transform="translate(533.642578 0)"/>
      <use xlink:href="#ArialMT-48" transform="translate(589.257812 0)"/>
      <use xlink:href="#ArialMT-41" transform="translate(661.474609 0)"/>
     </g>
    </g>
   </g>
  </g>
 </g>
 <defs>
  <clipPath id="p0e23c7a46d">
   <rect x="56.887563" y="7.2" width="172.8" height="117"/>
  </clipPath>
 </defs>
</svg>
