<?xml version="1.0" encoding="utf-8" standalone="no"?>
<!DOCTYPE svg PUBLIC "-//W3C//DTD SVG 1.1//EN"
  "http://www.w3.org/Graphics/SVG/1.1/DTD/svg11.dtd">
<svg xmlns:xlink="http://www.w3.org/1999/xlink" width="305.295312pt" height="200.619406pt" viewBox="0 0 305.295312 200.619406" xmlns="http://www.w3.org/2000/svg" version="1.1">
 <metadata>
  <rdf:RDF xmlns:dc="http://purl.org/dc/elements/1.1/" xmlns:cc="http://creativecommons.org/ns#" xmlns:rdf="http://www.w3.org/1999/02/22-rdf-syntax-ns#">
   <cc:Work>
    <dc:type rdf:resource="http://purl.org/dc/dcmitype/StillImage"/>
    <dc:date>2025-07-29T10:05:33.570931</dc:date>
    <dc:format>image/svg+xml</dc:format>
    <dc:creator>
     <cc:Agent>
      <dc:title>Matplotlib v3.10.3, https://matplotlib.org/</dc:title>
     </cc:Agent>
    </dc:creator>
   </cc:Work>
  </rdf:RDF>
 </metadata>
 <defs>
  <style type="text/css">*{stroke-linejoin: round; stroke-linecap: butt}</style>
 </defs>
 <g id="figure_1">
  <g id="patch_1">
   <path d="M 0 200.619406 
L 305.295312 200.619406 
L 305.295312 -0 
L 0 -0 
z
" style="fill: #ffffff"/>
  </g>
  <g id="axes_1">
   <g id="patch_2">
    <path d="M 49.695313 162.225 
L 298.095312 162.225 
L 298.095312 21.825 
L 49.695313 21.825 
z
" style="fill: #ffffff"/>
   </g>
   <g id="matplotlib.axis_1">
    <g id="xtick_1">
     <g id="line2d_1">
      <defs>
       <path id="m2d867317c9" d="M 0 0 
L 0 6 
" style="stroke: #262626; stroke-width: 1.25"/>
      </defs>
      <g>
       <use xlink:href="#m2d867317c9" x="67.43817" y="162.225" style="fill: #262626; stroke: #262626; stroke-width: 1.25"/>
      </g>
     </g>
     <g id="text_1">
      <!-- NIL -->
      <g style="fill: #262626" transform="translate(58.879654 179.598594) scale(0.11 -0.11)">
       <defs>
        <path id="ArialMT-4e" d="M 488 0 
L 488 4581 
L 1109 4581 
L 3516 984 
L 3516 4581 
L 4097 4581 
L 4097 0 
L 3475 0 
L 1069 3600 
L 1069 0 
L 488 0 
z
" transform="scale(0.015625)"/>
        <path id="ArialMT-49" d="M 597 0 
L 597 4581 
L 1203 4581 
L 1203 0 
L 597 0 
z
" transform="scale(0.015625)"/>
        <path id="ArialMT-4c" d="M 469 0 
L 469 4581 
L 1075 4581 
L 1075 541 
L 3331 541 
L 3331 0 
L 469 0 
z
" transform="scale(0.015625)"/>
       </defs>
       <use xlink:href="#ArialMT-4e"/>
       <use xlink:href="#ArialMT-49" transform="translate(72.216797 0)"/>
       <use xlink:href="#ArialMT-4c" transform="translate(100 0)"/>
      </g>
     </g>
    </g>
    <g id="xtick_2">
     <g id="line2d_2">
      <g>
       <use xlink:href="#m2d867317c9" x="102.923884" y="162.225" style="fill: #262626; stroke: #262626; stroke-width: 1.25"/>
      </g>
     </g>
     <g id="text_2">
      <!-- DDIR -->
      <g style="fill: #262626" transform="translate(89.479821 179.598594) scale(0.11 -0.11)">
       <defs>
        <path id="ArialMT-44" d="M 494 0 
L 494 4581 
L 2072 4581 
Q 2606 4581 2888 4516 
Q 3281 4425 3559 4188 
Q 3922 3881 4101 3404 
Q 4281 2928 4281 2316 
Q 4281 1794 4159 1391 
Q 4038 988 3847 723 
Q 3656 459 3429 307 
Q 3203 156 2883 78 
Q 2563 0 2147 0 
L 494 0 
z
M 1100 541 
L 2078 541 
Q 2531 541 2789 625 
Q 3047 709 3200 863 
Q 3416 1078 3536 1442 
Q 3656 1806 3656 2325 
Q 3656 3044 3420 3430 
Q 3184 3816 2847 3947 
Q 2603 4041 2063 4041 
L 1100 4041 
L 1100 541 
z
" transform="scale(0.015625)"/>
        <path id="ArialMT-52" d="M 503 0 
L 503 4581 
L 2534 4581 
Q 3147 4581 3465 4457 
Q 3784 4334 3975 4021 
Q 4166 3709 4166 3331 
Q 4166 2844 3850 2509 
Q 3534 2175 2875 2084 
Q 3116 1969 3241 1856 
Q 3506 1613 3744 1247 
L 4541 0 
L 3778 0 
L 3172 953 
Q 2906 1366 2734 1584 
Q 2563 1803 2427 1890 
Q 2291 1978 2150 2013 
Q 2047 2034 1813 2034 
L 1109 2034 
L 1109 0 
L 503 0 
z
M 1109 2559 
L 2413 2559 
Q 2828 2559 3062 2645 
Q 3297 2731 3419 2920 
Q 3541 3109 3541 3331 
Q 3541 3656 3305 3865 
Q 3069 4075 2559 4075 
L 1109 4075 
L 1109 2559 
z
" transform="scale(0.015625)"/>
       </defs>
       <use xlink:href="#ArialMT-44"/>
       <use xlink:href="#ArialMT-44" transform="translate(72.216797 0)"/>
       <use xlink:href="#ArialMT-49" transform="translate(144.433594 0)"/>
       <use xlink:href="#ArialMT-52" transform="translate(172.216797 0)"/>
      </g>
     </g>
    </g>
    <g id="xtick_3">
     <g id="line2d_3">
      <g>
       <use xlink:href="#m2d867317c9" x="138.409598" y="162.225" style="fill: #262626; stroke: #262626; stroke-width: 1.25"/>
      </g>
     </g>
     <g id="text_3">
      <!-- DD -->
      <g style="fill: #262626" transform="translate(130.465536 179.598594) scale(0.11 -0.11)">
       <use xlink:href="#ArialMT-44"/>
       <use xlink:href="#ArialMT-44" transform="translate(72.216797 0)"/>
      </g>
      <!-- +R -->
      <g style="fill: #262626" transform="translate(131.225223 191.233156) scale(0.11 -0.11)">
       <defs>
        <path id="ArialMT-2b" d="M 1603 741 
L 1603 1997 
L 356 1997 
L 356 2522 
L 1603 2522 
L 1603 3769 
L 2134 3769 
L 2134 2522 
L 3381 2522 
L 3381 1997 
L 2134 1997 
L 2134 741 
L 1603 741 
z
" transform="scale(0.015625)"/>
       </defs>
       <use xlink:href="#ArialMT-2b"/>
       <use xlink:href="#ArialMT-52" transform="translate(58.398438 0)"/>
      </g>
     </g>
    </g>
    <g id="xtick_4">
     <g id="line2d_4">
      <g>
       <use xlink:href="#m2d867317c9" x="173.895312" y="162.225" style="fill: #262626; stroke: #262626; stroke-width: 1.25"/>
      </g>
     </g>
     <g id="text_4">
      <!-- SDD -->
      <g style="fill: #262626" transform="translate(162.282578 179.598594) scale(0.11 -0.11)">
       <defs>
        <path id="ArialMT-53" d="M 288 1472 
L 859 1522 
Q 900 1178 1048 958 
Q 1197 738 1509 602 
Q 1822 466 2213 466 
Q 2559 466 2825 569 
Q 3091 672 3220 851 
Q 3350 1031 3350 1244 
Q 3350 1459 3225 1620 
Q 3100 1781 2813 1891 
Q 2628 1963 1997 2114 
Q 1366 2266 1113 2400 
Q 784 2572 623 2826 
Q 463 3081 463 3397 
Q 463 3744 659 4045 
Q 856 4347 1234 4503 
Q 1613 4659 2075 4659 
Q 2584 4659 2973 4495 
Q 3363 4331 3572 4012 
Q 3781 3694 3797 3291 
L 3216 3247 
Q 3169 3681 2898 3903 
Q 2628 4125 2100 4125 
Q 1550 4125 1298 3923 
Q 1047 3722 1047 3438 
Q 1047 3191 1225 3031 
Q 1400 2872 2139 2705 
Q 2878 2538 3153 2413 
Q 3553 2228 3743 1945 
Q 3934 1663 3934 1294 
Q 3934 928 3725 604 
Q 3516 281 3123 101 
Q 2731 -78 2241 -78 
Q 1619 -78 1198 103 
Q 778 284 539 648 
Q 300 1013 288 1472 
z
" transform="scale(0.015625)"/>
       </defs>
       <use xlink:href="#ArialMT-53"/>
       <use xlink:href="#ArialMT-44" transform="translate(66.699219 0)"/>
       <use xlink:href="#ArialMT-44" transform="translate(138.916016 0)"/>
      </g>
      <!-- +R -->
      <g style="fill: #262626" transform="translate(166.710938 191.233156) scale(0.11 -0.11)">
       <use xlink:href="#ArialMT-2b"/>
       <use xlink:href="#ArialMT-52" transform="translate(58.398438 0)"/>
      </g>
     </g>
    </g>
    <g id="xtick_5">
     <g id="line2d_5">
      <g>
       <use xlink:href="#m2d867317c9" x="209.381027" y="162.225" style="fill: #262626; stroke: #262626; stroke-width: 1.25"/>
      </g>
     </g>
     <g id="text_5">
      <!-- RIDD -->
      <g style="fill: #262626" transform="translate(195.936964 179.598594) scale(0.11 -0.11)">
       <use xlink:href="#ArialMT-52"/>
       <use xlink:href="#ArialMT-49" transform="translate(72.216797 0)"/>
       <use xlink:href="#ArialMT-44" transform="translate(100 0)"/>
       <use xlink:href="#ArialMT-44" transform="translate(172.216797 0)"/>
      </g>
     </g>
    </g>
    <g id="xtick_6">
     <g id="line2d_6">
      <g>
       <use xlink:href="#m2d867317c9" x="244.866741" y="162.225" style="fill: #262626; stroke: #262626; stroke-width: 1.25"/>
      </g>
     </g>
     <g id="text_6">
      <!-- SDDIR -->
      <g style="fill: #262626" transform="translate(227.754007 179.598594) scale(0.11 -0.11)">
       <use xlink:href="#ArialMT-53"/>
       <use xlink:href="#ArialMT-44" transform="translate(66.699219 0)"/>
       <use xlink:href="#ArialMT-44" transform="translate(138.916016 0)"/>
       <use xlink:href="#ArialMT-49" transform="translate(211.132812 0)"/>
       <use xlink:href="#ArialMT-52" transform="translate(238.916016 0)"/>
      </g>
     </g>
    </g>
    <g id="xtick_7">
     <g id="line2d_7">
      <g>
       <use xlink:href="#m2d867317c9" x="280.352455" y="162.225" style="fill: #262626; stroke: #262626; stroke-width: 1.25"/>
      </g>
     </g>
     <g id="text_7">
      <!-- RISDD -->
      <g style="fill: #262626" transform="translate(263.239721 179.598594) scale(0.11 -0.11)">
       <use xlink:href="#ArialMT-52"/>
       <use xlink:href="#ArialMT-49" transform="translate(72.216797 0)"/>
       <use xlink:href="#ArialMT-53" transform="translate(100 0)"/>
       <use xlink:href="#ArialMT-44" transform="translate(166.699219 0)"/>
       <use xlink:href="#ArialMT-44" transform="translate(238.916016 0)"/>
      </g>
     </g>
    </g>
   </g>
   <g id="matplotlib.axis_2">
    <g id="ytick_1">
     <g id="line2d_8">
      <defs>
       <path id="m9b6c7cd4ab" d="M 0 0 
L -6 0 
" style="stroke: #262626; stroke-width: 1.25"/>
      </defs>
      <g>
       <use xlink:href="#m9b6c7cd4ab" x="49.695313" y="162.225" style="fill: #262626; stroke: #262626; stroke-width: 1.25"/>
      </g>
     </g>
     <g id="text_8">
      <!-- 0 -->
      <g style="fill: #262626" transform="translate(34.078281 166.161797) scale(0.11 -0.11)">
       <defs>
        <path id="ArialMT-30" d="M 266 2259 
Q 266 3072 433 3567 
Q 600 4063 929 4331 
Q 1259 4600 1759 4600 
Q 2128 4600 2406 4451 
Q 2684 4303 2865 4023 
Q 3047 3744 3150 3342 
Q 3253 2941 3253 2259 
Q 3253 1453 3087 958 
Q 2922 463 2592 192 
Q 2263 -78 1759 -78 
Q 1097 -78 719 397 
Q 266 969 266 2259 
z
M 844 2259 
Q 844 1131 1108 757 
Q 1372 384 1759 384 
Q 2147 384 2411 759 
Q 2675 1134 2675 2259 
Q 2675 3391 2411 3762 
Q 2147 4134 1753 4134 
Q 1366 4134 1134 3806 
Q 844 3388 844 2259 
z
" transform="scale(0.015625)"/>
       </defs>
       <use xlink:href="#ArialMT-30"/>
      </g>
     </g>
    </g>
    <g id="ytick_2">
     <g id="line2d_9">
      <g>
       <use xlink:href="#m9b6c7cd4ab" x="49.695313" y="120.959616" style="fill: #262626; stroke: #262626; stroke-width: 1.25"/>
      </g>
     </g>
     <g id="text_9">
      <!-- 20k -->
      <g style="fill: #262626" transform="translate(22.46125 124.896413) scale(0.11 -0.11)">
       <defs>
        <path id="ArialMT-32" d="M 3222 541 
L 3222 0 
L 194 0 
Q 188 203 259 391 
Q 375 700 629 1000 
Q 884 1300 1366 1694 
Q 2113 2306 2375 2664 
Q 2638 3022 2638 3341 
Q 2638 3675 2398 3904 
Q 2159 4134 1775 4134 
Q 1369 4134 1125 3890 
Q 881 3647 878 3216 
L 300 3275 
Q 359 3922 746 4261 
Q 1134 4600 1788 4600 
Q 2447 4600 2831 4234 
Q 3216 3869 3216 3328 
Q 3216 3053 3103 2787 
Q 2991 2522 2730 2228 
Q 2469 1934 1863 1422 
Q 1356 997 1212 845 
Q 1069 694 975 541 
L 3222 541 
z
" transform="scale(0.015625)"/>
        <path id="ArialMT-6b" d="M 425 0 
L 425 4581 
L 988 4581 
L 988 1969 
L 2319 3319 
L 3047 3319 
L 1778 2088 
L 3175 0 
L 2481 0 
L 1384 1697 
L 988 1316 
L 988 0 
L 425 0 
z
" transform="scale(0.015625)"/>
       </defs>
       <use xlink:href="#ArialMT-32"/>
       <use xlink:href="#ArialMT-30" transform="translate(55.615234 0)"/>
       <use xlink:href="#ArialMT-6b" transform="translate(111.230469 0)"/>
      </g>
     </g>
    </g>
    <g id="ytick_3">
     <g id="line2d_10">
      <g>
       <use xlink:href="#m9b6c7cd4ab" x="49.695313" y="79.694233" style="fill: #262626; stroke: #262626; stroke-width: 1.25"/>
      </g>
     </g>
     <g id="text_10">
      <!-- 40k -->
      <g style="fill: #262626" transform="translate(22.46125 83.63103) scale(0.11 -0.11)">
       <defs>
        <path id="ArialMT-34" d="M 2069 0 
L 2069 1097 
L 81 1097 
L 81 1613 
L 2172 4581 
L 2631 4581 
L 2631 1613 
L 3250 1613 
L 3250 1097 
L 2631 1097 
L 2631 0 
L 2069 0 
z
M 2069 1613 
L 2069 3678 
L 634 1613 
L 2069 1613 
z
" transform="scale(0.015625)"/>
       </defs>
       <use xlink:href="#ArialMT-34"/>
       <use xlink:href="#ArialMT-30" transform="translate(55.615234 0)"/>
       <use xlink:href="#ArialMT-6b" transform="translate(111.230469 0)"/>
      </g>
     </g>
    </g>
    <g id="ytick_4">
     <g id="line2d_11">
      <g>
       <use xlink:href="#m9b6c7cd4ab" x="49.695313" y="38.428849" style="fill: #262626; stroke: #262626; stroke-width: 1.25"/>
      </g>
     </g>
     <g id="text_11">
      <!-- 60k -->
      <g style="fill: #262626" transform="translate(22.46125 42.365646) scale(0.11 -0.11)">
       <defs>
        <path id="ArialMT-36" d="M 3184 3459 
L 2625 3416 
Q 2550 3747 2413 3897 
Q 2184 4138 1850 4138 
Q 1581 4138 1378 3988 
Q 1113 3794 959 3422 
Q 806 3050 800 2363 
Q 1003 2672 1297 2822 
Q 1591 2972 1913 2972 
Q 2475 2972 2870 2558 
Q 3266 2144 3266 1488 
Q 3266 1056 3080 686 
Q 2894 316 2569 119 
Q 2244 -78 1831 -78 
Q 1128 -78 684 439 
Q 241 956 241 2144 
Q 241 3472 731 4075 
Q 1159 4600 1884 4600 
Q 2425 4600 2770 4297 
Q 3116 3994 3184 3459 
z
M 888 1484 
Q 888 1194 1011 928 
Q 1134 663 1356 523 
Q 1578 384 1822 384 
Q 2178 384 2434 671 
Q 2691 959 2691 1453 
Q 2691 1928 2437 2201 
Q 2184 2475 1800 2475 
Q 1419 2475 1153 2201 
Q 888 1928 888 1484 
z
" transform="scale(0.015625)"/>
       </defs>
       <use xlink:href="#ArialMT-36"/>
       <use xlink:href="#ArialMT-30" transform="translate(55.615234 0)"/>
       <use xlink:href="#ArialMT-6b" transform="translate(111.230469 0)"/>
      </g>
     </g>
    </g>
    <g id="text_12">
     <!-- Single Cells Count -->
     <g style="fill: #262626" transform="translate(15.935625 141.3825) rotate(-90) scale(0.12 -0.12)">
      <defs>
       <path id="ArialMT-69" d="M 425 3934 
L 425 4581 
L 988 4581 
L 988 3934 
L 425 3934 
z
M 425 0 
L 425 3319 
L 988 3319 
L 988 0 
L 425 0 
z
" transform="scale(0.015625)"/>
       <path id="ArialMT-6e" d="M 422 0 
L 422 3319 
L 928 3319 
L 928 2847 
Q 1294 3394 1984 3394 
Q 2284 3394 2536 3286 
Q 2788 3178 2913 3003 
Q 3038 2828 3088 2588 
Q 3119 2431 3119 2041 
L 3119 0 
L 2556 0 
L 2556 2019 
Q 2556 2363 2490 2533 
Q 2425 2703 2258 2804 
Q 2091 2906 1866 2906 
Q 1506 2906 1245 2678 
Q 984 2450 984 1813 
L 984 0 
L 422 0 
z
" transform="scale(0.015625)"/>
       <path id="ArialMT-67" d="M 319 -275 
L 866 -356 
Q 900 -609 1056 -725 
Q 1266 -881 1628 -881 
Q 2019 -881 2231 -725 
Q 2444 -569 2519 -288 
Q 2563 -116 2559 434 
Q 2191 0 1641 0 
Q 956 0 581 494 
Q 206 988 206 1678 
Q 206 2153 378 2554 
Q 550 2956 876 3175 
Q 1203 3394 1644 3394 
Q 2231 3394 2613 2919 
L 2613 3319 
L 3131 3319 
L 3131 450 
Q 3131 -325 2973 -648 
Q 2816 -972 2473 -1159 
Q 2131 -1347 1631 -1347 
Q 1038 -1347 672 -1080 
Q 306 -813 319 -275 
z
M 784 1719 
Q 784 1066 1043 766 
Q 1303 466 1694 466 
Q 2081 466 2343 764 
Q 2606 1063 2606 1700 
Q 2606 2309 2336 2618 
Q 2066 2928 1684 2928 
Q 1309 2928 1046 2623 
Q 784 2319 784 1719 
z
" transform="scale(0.015625)"/>
       <path id="ArialMT-6c" d="M 409 0 
L 409 4581 
L 972 4581 
L 972 0 
L 409 0 
z
" transform="scale(0.015625)"/>
       <path id="ArialMT-65" d="M 2694 1069 
L 3275 997 
Q 3138 488 2766 206 
Q 2394 -75 1816 -75 
Q 1088 -75 661 373 
Q 234 822 234 1631 
Q 234 2469 665 2931 
Q 1097 3394 1784 3394 
Q 2450 3394 2872 2941 
Q 3294 2488 3294 1666 
Q 3294 1616 3291 1516 
L 816 1516 
Q 847 969 1125 678 
Q 1403 388 1819 388 
Q 2128 388 2347 550 
Q 2566 713 2694 1069 
z
M 847 1978 
L 2700 1978 
Q 2663 2397 2488 2606 
Q 2219 2931 1791 2931 
Q 1403 2931 1139 2672 
Q 875 2413 847 1978 
z
" transform="scale(0.015625)"/>
       <path id="ArialMT-20" transform="scale(0.015625)"/>
       <path id="ArialMT-43" d="M 3763 1606 
L 4369 1453 
Q 4178 706 3683 314 
Q 3188 -78 2472 -78 
Q 1731 -78 1267 223 
Q 803 525 561 1097 
Q 319 1669 319 2325 
Q 319 3041 592 3573 
Q 866 4106 1370 4382 
Q 1875 4659 2481 4659 
Q 3169 4659 3637 4309 
Q 4106 3959 4291 3325 
L 3694 3184 
Q 3534 3684 3231 3912 
Q 2928 4141 2469 4141 
Q 1941 4141 1586 3887 
Q 1231 3634 1087 3207 
Q 944 2781 944 2328 
Q 944 1744 1114 1308 
Q 1284 872 1643 656 
Q 2003 441 2422 441 
Q 2931 441 3284 734 
Q 3638 1028 3763 1606 
z
" transform="scale(0.015625)"/>
       <path id="ArialMT-73" d="M 197 991 
L 753 1078 
Q 800 744 1014 566 
Q 1228 388 1613 388 
Q 2000 388 2187 545 
Q 2375 703 2375 916 
Q 2375 1106 2209 1216 
Q 2094 1291 1634 1406 
Q 1016 1563 777 1677 
Q 538 1791 414 1992 
Q 291 2194 291 2438 
Q 291 2659 392 2848 
Q 494 3038 669 3163 
Q 800 3259 1026 3326 
Q 1253 3394 1513 3394 
Q 1903 3394 2198 3281 
Q 2494 3169 2634 2976 
Q 2775 2784 2828 2463 
L 2278 2388 
Q 2241 2644 2061 2787 
Q 1881 2931 1553 2931 
Q 1166 2931 1000 2803 
Q 834 2675 834 2503 
Q 834 2394 903 2306 
Q 972 2216 1119 2156 
Q 1203 2125 1616 2013 
Q 2213 1853 2448 1751 
Q 2684 1650 2818 1456 
Q 2953 1263 2953 975 
Q 2953 694 2789 445 
Q 2625 197 2315 61 
Q 2006 -75 1616 -75 
Q 969 -75 630 194 
Q 291 463 197 991 
z
" transform="scale(0.015625)"/>
       <path id="ArialMT-6f" d="M 213 1659 
Q 213 2581 725 3025 
Q 1153 3394 1769 3394 
Q 2453 3394 2887 2945 
Q 3322 2497 3322 1706 
Q 3322 1066 3130 698 
Q 2938 331 2570 128 
Q 2203 -75 1769 -75 
Q 1072 -75 642 372 
Q 213 819 213 1659 
z
M 791 1659 
Q 791 1022 1069 705 
Q 1347 388 1769 388 
Q 2188 388 2466 706 
Q 2744 1025 2744 1678 
Q 2744 2294 2464 2611 
Q 2184 2928 1769 2928 
Q 1347 2928 1069 2612 
Q 791 2297 791 1659 
z
" transform="scale(0.015625)"/>
       <path id="ArialMT-75" d="M 2597 0 
L 2597 488 
Q 2209 -75 1544 -75 
Q 1250 -75 995 37 
Q 741 150 617 320 
Q 494 491 444 738 
Q 409 903 409 1263 
L 409 3319 
L 972 3319 
L 972 1478 
Q 972 1038 1006 884 
Q 1059 663 1231 536 
Q 1403 409 1656 409 
Q 1909 409 2131 539 
Q 2353 669 2445 892 
Q 2538 1116 2538 1541 
L 2538 3319 
L 3100 3319 
L 3100 0 
L 2597 0 
z
" transform="scale(0.015625)"/>
       <path id="ArialMT-74" d="M 1650 503 
L 1731 6 
Q 1494 -44 1306 -44 
Q 1000 -44 831 53 
Q 663 150 594 308 
Q 525 466 525 972 
L 525 2881 
L 113 2881 
L 113 3319 
L 525 3319 
L 525 4141 
L 1084 4478 
L 1084 3319 
L 1650 3319 
L 1650 2881 
L 1084 2881 
L 1084 941 
Q 1084 700 1114 631 
Q 1144 563 1211 522 
Q 1278 481 1403 481 
Q 1497 481 1650 503 
z
" transform="scale(0.015625)"/>
      </defs>
      <use xlink:href="#ArialMT-53"/>
      <use xlink:href="#ArialMT-69" transform="translate(66.699219 0)"/>
      <use xlink:href="#ArialMT-6e" transform="translate(88.916016 0)"/>
      <use xlink:href="#ArialMT-67" transform="translate(144.53125 0)"/>
      <use xlink:href="#ArialMT-6c" transform="translate(200.146484 0)"/>
      <use xlink:href="#ArialMT-65" transform="translate(222.363281 0)"/>
      <use xlink:href="#ArialMT-20" transform="translate(277.978516 0)"/>
      <use xlink:href="#ArialMT-43" transform="translate(305.761719 0)"/>
      <use xlink:href="#ArialMT-65" transform="translate(377.978516 0)"/>
      <use xlink:href="#ArialMT-6c" transform="translate(433.59375 0)"/>
      <use xlink:href="#ArialMT-6c" transform="translate(455.810547 0)"/>
      <use xlink:href="#ArialMT-73" transform="translate(478.027344 0)"/>
      <use xlink:href="#ArialMT-20" transform="translate(528.027344 0)"/>
      <use xlink:href="#ArialMT-43" transform="translate(555.810547 0)"/>
      <use xlink:href="#ArialMT-6f" transform="translate(628.027344 0)"/>
      <use xlink:href="#ArialMT-75" transform="translate(683.642578 0)"/>
      <use xlink:href="#ArialMT-6e" transform="translate(739.257812 0)"/>
      <use xlink:href="#ArialMT-74" transform="translate(794.873047 0)"/>
     </g>
    </g>
   </g>
   <g id="patch_3">
    <path d="M 53.243884 162.225 
L 81.632455 162.225 
L 81.632455 143.859325 
L 53.243884 143.859325 
z
" clip-path="url(#pb071dd4d56)" style="fill: #696969; opacity: 0.7; stroke: #ffffff; stroke-linejoin: miter"/>
   </g>
   <g id="patch_4">
    <path d="M 88.729598 162.225 
L 117.11817 162.225 
L 117.11817 137.913628 
L 88.729598 137.913628 
z
" clip-path="url(#pb071dd4d56)" style="fill: #332848; opacity: 0.7; stroke: #ffffff; stroke-linejoin: miter"/>
   </g>
   <g id="patch_5">
    <path d="M 124.215312 162.225 
L 152.603884 162.225 
L 152.603884 131.011348 
L 124.215312 131.011348 
z
" clip-path="url(#pb071dd4d56)" style="fill: #5a3763; opacity: 0.7; stroke: #ffffff; stroke-linejoin: miter"/>
   </g>
   <g id="patch_6">
    <path d="M 159.701027 162.225 
L 188.089598 162.225 
L 188.089598 91.631664 
L 159.701027 91.631664 
z
" clip-path="url(#pb071dd4d56)" style="fill: #87477a; opacity: 0.7; stroke: #ffffff; stroke-linejoin: miter"/>
   </g>
   <g id="patch_7">
    <path d="M 195.186741 162.225 
L 223.575312 162.225 
L 223.575312 66.545921 
L 195.186741 66.545921 
z
" clip-path="url(#pb071dd4d56)" style="fill: #af607c; opacity: 0.7; stroke: #ffffff; stroke-linejoin: miter"/>
   </g>
   <g id="patch_8">
    <path d="M 230.672455 162.225 
L 259.061027 162.225 
L 259.061027 61.069231 
L 230.672455 61.069231 
z
" clip-path="url(#pb071dd4d56)" style="fill: #c7817c; opacity: 0.7; stroke: #ffffff; stroke-linejoin: miter"/>
   </g>
   <g id="patch_9">
    <path d="M 266.15817 162.225 
L 294.546741 162.225 
L 294.546741 141.311446 
L 266.15817 141.311446 
z
" clip-path="url(#pb071dd4d56)" style="fill: #d4b777; opacity: 0.7; stroke: #ffffff; stroke-linejoin: miter"/>
   </g>
   <g id="line2d_12">
    <path d="M 67.43817 147.700697 
L 67.43817 138.961485 
" clip-path="url(#pb071dd4d56)" style="fill: none; stroke: #424242; stroke-width: 2.7; stroke-linecap: round"/>
   </g>
   <g id="line2d_13">
    <path d="M 102.923884 141.419036 
L 102.923884 133.947061 
" clip-path="url(#pb071dd4d56)" style="fill: none; stroke: #424242; stroke-width: 2.7; stroke-linecap: round"/>
   </g>
   <g id="line2d_14">
    <path d="M 138.409598 138.675532 
L 138.409598 123.761339 
" clip-path="url(#pb071dd4d56)" style="fill: none; stroke: #424242; stroke-width: 2.7; stroke-linecap: round"/>
   </g>
   <g id="line2d_15">
    <path d="M 173.895312 99.222418 
L 173.895312 83.373838 
" clip-path="url(#pb071dd4d56)" style="fill: none; stroke: #424242; stroke-width: 2.7; stroke-linecap: round"/>
   </g>
   <g id="line2d_16">
    <path d="M 209.381027 77.425065 
L 209.381027 55.10529 
" clip-path="url(#pb071dd4d56)" style="fill: none; stroke: #424242; stroke-width: 2.7; stroke-linecap: round"/>
   </g>
   <g id="line2d_17">
    <path d="M 244.866741 66.485106 
L 244.866741 55.242062 
" clip-path="url(#pb071dd4d56)" style="fill: none; stroke: #424242; stroke-width: 2.7; stroke-linecap: round"/>
   </g>
   <g id="line2d_18">
    <path d="M 280.352455 144.70622 
L 280.352455 137.370905 
" clip-path="url(#pb071dd4d56)" style="fill: none; stroke: #424242; stroke-width: 2.7; stroke-linecap: round"/>
   </g>
   <g id="patch_10">
    <path d="M 49.695313 162.225 
L 49.695313 21.825 
" style="fill: none; stroke: #262626; stroke-width: 1.25; stroke-linejoin: miter; stroke-linecap: square"/>
   </g>
   <g id="patch_11">
    <path d="M 298.095312 162.225 
L 298.095312 21.825 
" style="fill: none; stroke: #262626; stroke-width: 1.25; stroke-linejoin: miter; stroke-linecap: square"/>
   </g>
   <g id="patch_12">
    <path d="M 49.695313 162.225 
L 298.095312 162.225 
" style="fill: none; stroke: #262626; stroke-width: 1.25; stroke-linejoin: miter; stroke-linecap: square"/>
   </g>
   <g id="patch_13">
    <path d="M 49.695313 21.825 
L 298.095312 21.825 
" style="fill: none; stroke: #262626; stroke-width: 1.25; stroke-linejoin: miter; stroke-linecap: square"/>
   </g>
   <g id="PathCollection_1">
    <defs>
     <path id="C0_0_ca7c1eaa5c" d="M 0 2.5 
C 0.663008 2.5 1.29895 2.236584 1.767767 1.767767 
C 2.236584 1.29895 2.5 0.663008 2.5 -0 
C 2.5 -0.663008 2.236584 -1.29895 1.767767 -1.767767 
C 1.29895 -2.236584 0.663008 -2.5 0 -2.5 
C -0.663008 -2.5 -1.29895 -2.236584 -1.767767 -1.767767 
C -2.236584 -1.29895 -2.5 -0.663008 -2.5 0 
C -2.5 0.663008 -2.236584 1.29895 -1.767767 1.767767 
C -1.29895 2.236584 -0.663008 2.5 0 2.5 
z
"/>
    </defs>
    <g clip-path="url(#pb071dd4d56)">
     <use xlink:href="#C0_0_ca7c1eaa5c" x="64.637199" y="145.623936" style="fill: #ffffff; stroke: #000000; stroke-width: 0.4"/>
    </g>
    <g clip-path="url(#pb071dd4d56)">
     <use xlink:href="#C0_0_ca7c1eaa5c" x="66.318618" y="146.851581" style="fill: #ffffff; stroke: #000000; stroke-width: 0.4"/>
    </g>
    <g clip-path="url(#pb071dd4d56)">
     <use xlink:href="#C0_0_ca7c1eaa5c" x="70.251111" y="144.175521" style="fill: #ffffff; stroke: #000000; stroke-width: 0.4"/>
    </g>
    <g clip-path="url(#pb071dd4d56)">
     <use xlink:href="#C0_0_ca7c1eaa5c" x="66.951747" y="116.143946" style="fill: #ffffff; stroke: #000000; stroke-width: 0.4"/>
    </g>
   </g>
   <g id="PathCollection_2">
    <defs>
     <path id="C1_0_284e9e5fe7" d="M 0 2.5 
C 0.663008 2.5 1.29895 2.236584 1.767767 1.767767 
C 2.236584 1.29895 2.5 0.663008 2.5 -0 
C 2.5 -0.663008 2.236584 -1.29895 1.767767 -1.767767 
C 1.29895 -2.236584 0.663008 -2.5 0 -2.5 
C -0.663008 -2.5 -1.29895 -2.236584 -1.767767 -1.767767 
C -2.236584 -1.29895 -2.5 -0.663008 -2.5 0 
C -2.5 0.663008 -2.236584 1.29895 -1.767767 1.767767 
C -1.29895 2.236584 -0.663008 2.5 0 2.5 
z
"/>
    </defs>
    <g clip-path="url(#pb071dd4d56)">
     <use xlink:href="#C1_0_284e9e5fe7" x="99.409538" y="141.449943" style="fill: #ffffff; stroke: #000000; stroke-width: 0.4"/>
    </g>
    <g clip-path="url(#pb071dd4d56)">
     <use xlink:href="#C1_0_284e9e5fe7" x="104.066174" y="143.337834" style="fill: #ffffff; stroke: #000000; stroke-width: 0.4"/>
    </g>
    <g clip-path="url(#pb071dd4d56)">
     <use xlink:href="#C1_0_284e9e5fe7" x="103.467606" y="142.009089" style="fill: #ffffff; stroke: #000000; stroke-width: 0.4"/>
    </g>
    <g clip-path="url(#pb071dd4d56)">
     <use xlink:href="#C1_0_284e9e5fe7" x="103.238867" y="115.242298" style="fill: #ffffff; stroke: #000000; stroke-width: 0.4"/>
    </g>
   </g>
   <g id="PathCollection_3">
    <defs>
     <path id="C2_0_df02361ace" d="M 0 2.5 
C 0.663008 2.5 1.29895 2.236584 1.767767 1.767767 
C 2.236584 1.29895 2.5 0.663008 2.5 -0 
C 2.5 -0.663008 2.236584 -1.29895 1.767767 -1.767767 
C 1.29895 -2.236584 0.663008 -2.5 0 -2.5 
C -0.663008 -2.5 -1.29895 -2.236584 -1.767767 -1.767767 
C -2.236584 -1.29895 -2.5 -0.663008 -2.5 0 
C -2.5 0.663008 -2.236584 1.29895 -1.767767 1.767767 
C -1.29895 2.236584 -0.663008 2.5 0 2.5 
z
"/>
    </defs>
    <g clip-path="url(#pb071dd4d56)">
     <use xlink:href="#C2_0_df02361ace" x="137.258406" y="146.304815" style="fill: #ffffff; stroke: #000000; stroke-width: 0.4"/>
    </g>
    <g clip-path="url(#pb071dd4d56)">
     <use xlink:href="#C2_0_df02361ace" x="136.430433" y="140.740178" style="fill: #ffffff; stroke: #000000; stroke-width: 0.4"/>
    </g>
    <g clip-path="url(#pb071dd4d56)">
     <use xlink:href="#C2_0_df02361ace" x="135.372497" y="147.749103" style="fill: #ffffff; stroke: #000000; stroke-width: 0.4"/>
    </g>
    <g clip-path="url(#pb071dd4d56)">
     <use xlink:href="#C2_0_df02361ace" x="135.362714" y="128.207881" style="fill: #ffffff; stroke: #000000; stroke-width: 0.4"/>
    </g>
   </g>
   <g id="PathCollection_4">
    <defs>
     <path id="C3_0_dc9999b81a" d="M 0 2.5 
C 0.663008 2.5 1.29895 2.236584 1.767767 1.767767 
C 2.236584 1.29895 2.5 0.663008 2.5 -0 
C 2.5 -0.663008 2.236584 -1.29895 1.767767 -1.767767 
C 1.29895 -2.236584 0.663008 -2.5 0 -2.5 
C -0.663008 -2.5 -1.29895 -2.236584 -1.767767 -1.767767 
C -2.236584 -1.29895 -2.5 -0.663008 -2.5 0 
C -2.5 0.663008 -2.236584 1.29895 -1.767767 1.767767 
C -1.29895 2.236584 -0.663008 2.5 0 2.5 
z
"/>
    </defs>
    <g clip-path="url(#pb071dd4d56)">
     <use xlink:href="#C3_0_dc9999b81a" x="176.221426" y="108.051804" style="fill: #ffffff; stroke: #000000; stroke-width: 0.4"/>
    </g>
    <g clip-path="url(#pb071dd4d56)">
     <use xlink:href="#C3_0_dc9999b81a" x="174.569166" y="108.507787" style="fill: #ffffff; stroke: #000000; stroke-width: 0.4"/>
    </g>
    <g clip-path="url(#pb071dd4d56)">
     <use xlink:href="#C3_0_dc9999b81a" x="174.040903" y="102.984415" style="fill: #ffffff; stroke: #000000; stroke-width: 0.4"/>
    </g>
    <g clip-path="url(#pb071dd4d56)">
     <use xlink:href="#C3_0_dc9999b81a" x="175.228888" y="102.020869" style="fill: #ffffff; stroke: #000000; stroke-width: 0.4"/>
    </g>
   </g>
   <g id="PathCollection_5">
    <defs>
     <path id="C4_0_295e0d4025" d="M 0 2.5 
C 0.663008 2.5 1.29895 2.236584 1.767767 1.767767 
C 2.236584 1.29895 2.5 0.663008 2.5 -0 
C 2.5 -0.663008 2.236584 -1.29895 1.767767 -1.767767 
C 1.29895 -2.236584 0.663008 -2.5 0 -2.5 
C -0.663008 -2.5 -1.29895 -2.236584 -1.767767 -1.767767 
C -2.236584 -1.29895 -2.5 -0.663008 -2.5 0 
C -2.5 0.663008 -2.236584 1.29895 -1.767767 1.767767 
C -1.29895 2.236584 -0.663008 2.5 0 2.5 
z
"/>
    </defs>
    <g clip-path="url(#pb071dd4d56)">
     <use xlink:href="#C4_0_295e0d4025" x="207.845622" y="60.988634" style="fill: #ffffff; stroke: #000000; stroke-width: 0.4"/>
    </g>
    <g clip-path="url(#pb071dd4d56)">
     <use xlink:href="#C4_0_295e0d4025" x="209.274392" y="37.075345" style="fill: #ffffff; stroke: #000000; stroke-width: 0.4"/>
    </g>
    <g clip-path="url(#pb071dd4d56)">
     <use xlink:href="#C4_0_295e0d4025" x="207.339479" y="38.645492" style="fill: #ffffff; stroke: #000000; stroke-width: 0.4"/>
    </g>
    <g clip-path="url(#pb071dd4d56)">
     <use xlink:href="#C4_0_295e0d4025" x="211.224207" y="43.836678" style="fill: #ffffff; stroke: #000000; stroke-width: 0.4"/>
    </g>
   </g>
   <g id="PathCollection_6">
    <defs>
     <path id="C5_0_40224b2898" d="M 0 2.5 
C 0.663008 2.5 1.29895 2.236584 1.767767 1.767767 
C 2.236584 1.29895 2.5 0.663008 2.5 -0 
C 2.5 -0.663008 2.236584 -1.29895 1.767767 -1.767767 
C 1.29895 -2.236584 0.663008 -2.5 0 -2.5 
C -0.663008 -2.5 -1.29895 -2.236584 -1.767767 -1.767767 
C -2.236584 -1.29895 -2.5 -0.663008 -2.5 0 
C -2.5 0.663008 -2.236584 1.29895 -1.767767 1.767767 
C -1.29895 2.236584 -0.663008 2.5 0 2.5 
z
"/>
    </defs>
    <g clip-path="url(#pb071dd4d56)">
     <use xlink:href="#C5_0_40224b2898" x="243.196233" y="49.201178" style="fill: #ffffff; stroke: #000000; stroke-width: 0.4"/>
    </g>
    <g clip-path="url(#pb071dd4d56)">
     <use xlink:href="#C5_0_40224b2898" x="242.980087" y="59.676395" style="fill: #ffffff; stroke: #000000; stroke-width: 0.4"/>
    </g>
    <g clip-path="url(#pb071dd4d56)">
     <use xlink:href="#C5_0_40224b2898" x="245.075347" y="43.298164" style="fill: #ffffff; stroke: #000000; stroke-width: 0.4"/>
    </g>
    <g clip-path="url(#pb071dd4d56)">
     <use xlink:href="#C5_0_40224b2898" x="247.681017" y="28.510714" style="fill: #ffffff; stroke: #000000; stroke-width: 0.4"/>
    </g>
   </g>
   <g id="PathCollection_7">
    <defs>
     <path id="C6_0_c716c4f934" d="M 0 2.5 
C 0.663008 2.5 1.29895 2.236584 1.767767 1.767767 
C 2.236584 1.29895 2.5 0.663008 2.5 -0 
C 2.5 -0.663008 2.236584 -1.29895 1.767767 -1.767767 
C 1.29895 -2.236584 0.663008 -2.5 0 -2.5 
C -0.663008 -2.5 -1.29895 -2.236584 -1.767767 -1.767767 
C -2.236584 -1.29895 -2.5 -0.663008 -2.5 0 
C -2.5 0.663008 -2.236584 1.29895 -1.767767 1.767767 
C -1.29895 2.236584 -0.663008 2.5 0 2.5 
z
"/>
    </defs>
    <g clip-path="url(#pb071dd4d56)">
     <use xlink:href="#C6_0_c716c4f934" x="278.43582" y="135.049682" style="fill: #ffffff; stroke: #000000; stroke-width: 0.4"/>
    </g>
    <g clip-path="url(#pb071dd4d56)">
     <use xlink:href="#C6_0_c716c4f934" x="276.998449" y="140.566863" style="fill: #ffffff; stroke: #000000; stroke-width: 0.4"/>
    </g>
    <g clip-path="url(#pb071dd4d56)">
     <use xlink:href="#C6_0_c716c4f934" x="283.544888" y="143.99808" style="fill: #ffffff; stroke: #000000; stroke-width: 0.4"/>
    </g>
    <g clip-path="url(#pb071dd4d56)">
     <use xlink:href="#C6_0_c716c4f934" x="279.562893" y="119.630871" style="fill: #ffffff; stroke: #000000; stroke-width: 0.4"/>
    </g>
   </g>
   <g id="PathCollection_8">
    <path d="M 64.859003 142.523525 
L 62.359003 147.523525 
L 67.359003 147.523525 
z
" clip-path="url(#pb071dd4d56)" style="fill: #ffffff; stroke: #000000; stroke-width: 0.4"/>
    <path d="M 64.428129 142.979507 
L 61.928129 147.979507 
L 66.928129 147.979507 
z
" clip-path="url(#pb071dd4d56)" style="fill: #ffffff; stroke: #000000; stroke-width: 0.4"/>
    <path d="M 65.085904 141.545535 
L 62.585904 146.545535 
L 67.585904 146.545535 
z
" clip-path="url(#pb071dd4d56)" style="fill: #ffffff; stroke: #000000; stroke-width: 0.4"/>
    <path d="M 70.695271 141.836456 
L 68.195271 146.836456 
L 73.195271 146.836456 
z
" clip-path="url(#pb071dd4d56)" style="fill: #ffffff; stroke: #000000; stroke-width: 0.4"/>
    <path d="M 70.660825 143.720221 
L 68.160825 148.720221 
L 73.160825 148.720221 
z
" clip-path="url(#pb071dd4d56)" style="fill: #ffffff; stroke: #000000; stroke-width: 0.4"/>
    <path d="M 66.469247 154.436841 
L 63.969247 159.436841 
L 68.969247 159.436841 
z
" clip-path="url(#pb071dd4d56)" style="fill: #ffffff; stroke: #000000; stroke-width: 0.4"/>
   </g>
   <g id="PathCollection_9">
    <path d="M 102.997438 137.941004 
L 100.497438 142.941004 
L 105.497438 142.941004 
z
" clip-path="url(#pb071dd4d56)" style="fill: #ffffff; stroke: #000000; stroke-width: 0.4"/>
    <path d="M 104.789211 140.385978 
L 102.289211 145.385978 
L 107.289211 145.385978 
z
" clip-path="url(#pb071dd4d56)" style="fill: #ffffff; stroke: #000000; stroke-width: 0.4"/>
    <path d="M 100.81753 137.7615 
L 98.31753 142.7615 
L 103.31753 142.7615 
z
" clip-path="url(#pb071dd4d56)" style="fill: #ffffff; stroke: #000000; stroke-width: 0.4"/>
    <path d="M 104.126883 141.508396 
L 101.626883 146.508396 
L 106.626883 146.508396 
z
" clip-path="url(#pb071dd4d56)" style="fill: #ffffff; stroke: #000000; stroke-width: 0.4"/>
    <path d="M 104.60737 147.176197 
L 102.10737 152.176197 
L 107.10737 152.176197 
z
" clip-path="url(#pb071dd4d56)" style="fill: #ffffff; stroke: #000000; stroke-width: 0.4"/>
    <path d="M 103.551987 139.655581 
L 101.051987 144.655581 
L 106.051987 144.655581 
z
" clip-path="url(#pb071dd4d56)" style="fill: #ffffff; stroke: #000000; stroke-width: 0.4"/>
   </g>
   <g id="PathCollection_10">
    <path d="M 137.113383 141.72504 
L 134.613383 146.72504 
L 139.613383 146.72504 
z
" clip-path="url(#pb071dd4d56)" style="fill: #ffffff; stroke: #000000; stroke-width: 0.4"/>
    <path d="M 141.707143 139.509089 
L 139.207143 144.509089 
L 144.207143 144.509089 
z
" clip-path="url(#pb071dd4d56)" style="fill: #ffffff; stroke: #000000; stroke-width: 0.4"/>
    <path d="M 137.062923 138.906614 
L 134.562923 143.906614 
L 139.562923 143.906614 
z
" clip-path="url(#pb071dd4d56)" style="fill: #ffffff; stroke: #000000; stroke-width: 0.4"/>
    <path d="M 137.436351 140.012526 
L 134.936351 145.012526 
L 139.936351 145.012526 
z
" clip-path="url(#pb071dd4d56)" style="fill: #ffffff; stroke: #000000; stroke-width: 0.4"/>
    <path d="M 135.815652 141.172084 
L 133.315652 146.172084 
L 138.315652 146.172084 
z
" clip-path="url(#pb071dd4d56)" style="fill: #ffffff; stroke: #000000; stroke-width: 0.4"/>
    <path d="M 137.193984 141.366031 
L 134.693984 146.366031 
L 139.693984 146.366031 
z
" clip-path="url(#pb071dd4d56)" style="fill: #ffffff; stroke: #000000; stroke-width: 0.4"/>
   </g>
   <g id="PathCollection_11">
    <path d="M 177.100155 89.357205 
L 174.600155 94.357205 
L 179.600155 94.357205 
z
" clip-path="url(#pb071dd4d56)" style="fill: #ffffff; stroke: #000000; stroke-width: 0.4"/>
    <path d="M 172.85302 98.629536 
L 170.35302 103.629536 
L 175.35302 103.629536 
z
" clip-path="url(#pb071dd4d56)" style="fill: #ffffff; stroke: #000000; stroke-width: 0.4"/>
    <path d="M 172.841909 99.281529 
L 170.341909 104.281529 
L 175.341909 104.281529 
z
" clip-path="url(#pb071dd4d56)" style="fill: #ffffff; stroke: #000000; stroke-width: 0.4"/>
    <path d="M 171.639963 104.489221 
L 169.139963 109.489221 
L 174.139963 109.489221 
z
" clip-path="url(#pb071dd4d56)" style="fill: #ffffff; stroke: #000000; stroke-width: 0.4"/>
    <path d="M 171.459431 99.087582 
L 168.959431 104.087582 
L 173.959431 104.087582 
z
" clip-path="url(#pb071dd4d56)" style="fill: #ffffff; stroke: #000000; stroke-width: 0.4"/>
    <path d="M 170.626058 99.648791 
L 168.126058 104.648791 
L 173.126058 104.648791 
z
" clip-path="url(#pb071dd4d56)" style="fill: #ffffff; stroke: #000000; stroke-width: 0.4"/>
   </g>
   <g id="PathCollection_12">
    <path d="M 208.874314 91.901216 
L 206.374314 96.901216 
L 211.374314 96.901216 
z
" clip-path="url(#pb071dd4d56)" style="fill: #ffffff; stroke: #000000; stroke-width: 0.4"/>
    <path d="M 208.022798 88.133686 
L 205.522798 93.133686 
L 210.522798 93.133686 
z
" clip-path="url(#pb071dd4d56)" style="fill: #ffffff; stroke: #000000; stroke-width: 0.4"/>
    <path d="M 211.08648 92.914281 
L 208.58648 97.914281 
L 213.58648 97.914281 
z
" clip-path="url(#pb071dd4d56)" style="fill: #ffffff; stroke: #000000; stroke-width: 0.4"/>
    <path d="M 208.860947 96.25884 
L 206.360947 101.25884 
L 211.360947 101.25884 
z
" clip-path="url(#pb071dd4d56)" style="fill: #ffffff; stroke: #000000; stroke-width: 0.4"/>
    <path d="M 207.02887 90.368207 
L 204.52887 95.368207 
L 209.52887 95.368207 
z
" clip-path="url(#pb071dd4d56)" style="fill: #ffffff; stroke: #000000; stroke-width: 0.4"/>
    <path d="M 206.722843 97.525687 
L 204.222843 102.525687 
L 209.222843 102.525687 
z
" clip-path="url(#pb071dd4d56)" style="fill: #ffffff; stroke: #000000; stroke-width: 0.4"/>
   </g>
   <g id="PathCollection_13">
    <path d="M 246.793104 62.943233 
L 244.293104 67.943233 
L 249.293104 67.943233 
z
" clip-path="url(#pb071dd4d56)" style="fill: #ffffff; stroke: #000000; stroke-width: 0.4"/>
    <path d="M 246.233644 63.518885 
L 243.733644 68.518885 
L 248.733644 68.518885 
z
" clip-path="url(#pb071dd4d56)" style="fill: #ffffff; stroke: #000000; stroke-width: 0.4"/>
    <path d="M 246.304401 67.73827 
L 243.804401 72.73827 
L 248.804401 72.73827 
z
" clip-path="url(#pb071dd4d56)" style="fill: #ffffff; stroke: #000000; stroke-width: 0.4"/>
    <path d="M 247.398576 68.272657 
L 244.898576 73.272657 
L 249.898576 73.272657 
z
" clip-path="url(#pb071dd4d56)" style="fill: #ffffff; stroke: #000000; stroke-width: 0.4"/>
    <path d="M 245.957269 72.729318 
L 243.457269 77.729318 
L 248.457269 77.729318 
z
" clip-path="url(#pb071dd4d56)" style="fill: #ffffff; stroke: #000000; stroke-width: 0.4"/>
    <path d="M 243.271868 72.005111 
L 240.771868 77.005111 
L 245.771868 77.005111 
z
" clip-path="url(#pb071dd4d56)" style="fill: #ffffff; stroke: #000000; stroke-width: 0.4"/>
   </g>
   <g id="PathCollection_14">
    <path d="M 279.950323 146.520077 
L 277.450323 151.520077 
L 282.450323 151.520077 
z
" clip-path="url(#pb071dd4d56)" style="fill: #ffffff; stroke: #000000; stroke-width: 0.4"/>
    <path d="M 277.136898 143.889409 
L 274.636898 148.889409 
L 279.636898 148.889409 
z
" clip-path="url(#pb071dd4d56)" style="fill: #ffffff; stroke: #000000; stroke-width: 0.4"/>
    <path d="M 278.053635 148.779357 
L 275.553635 153.779357 
L 280.553635 153.779357 
z
" clip-path="url(#pb071dd4d56)" style="fill: #ffffff; stroke: #000000; stroke-width: 0.4"/>
    <path d="M 283.355579 148.952672 
L 280.855579 153.952672 
L 285.855579 153.952672 
z
" clip-path="url(#pb071dd4d56)" style="fill: #ffffff; stroke: #000000; stroke-width: 0.4"/>
    <path d="M 283.001673 144.083356 
L 280.501673 149.083356 
L 285.501673 149.083356 
z
" clip-path="url(#pb071dd4d56)" style="fill: #ffffff; stroke: #000000; stroke-width: 0.4"/>
    <path d="M 277.442985 142.630815 
L 274.942985 147.630815 
L 279.942985 147.630815 
z
" clip-path="url(#pb071dd4d56)" style="fill: #ffffff; stroke: #000000; stroke-width: 0.4"/>
   </g>
   <g id="PathCollection_15">
    <path d="M 65.272102 162.242887 
L 70.272102 162.242887 
L 70.272102 157.242887 
L 65.272102 157.242887 
z
" clip-path="url(#pb071dd4d56)" style="fill: #ffffff; stroke: #000000; stroke-width: 0.4"/>
    <path d="M 63.058338 146.429992 
L 68.058338 146.429992 
L 68.058338 141.429992 
L 63.058338 141.429992 
z
" clip-path="url(#pb071dd4d56)" style="fill: #ffffff; stroke: #000000; stroke-width: 0.4"/>
    <path d="M 67.665338 143.231925 
L 72.665338 143.231925 
L 72.665338 138.231925 
L 67.665338 138.231925 
z
" clip-path="url(#pb071dd4d56)" style="fill: #ffffff; stroke: #000000; stroke-width: 0.4"/>
    <path d="M 65.843542 142.689285 
L 70.843542 142.689285 
L 70.843542 137.689285 
L 65.843542 137.689285 
z
" clip-path="url(#pb071dd4d56)" style="fill: #ffffff; stroke: #000000; stroke-width: 0.4"/>
    <path d="M 61.633397 142.858473 
L 66.633397 142.858473 
L 66.633397 137.858473 
L 61.633397 137.858473 
z
" clip-path="url(#pb071dd4d56)" style="fill: #ffffff; stroke: #000000; stroke-width: 0.4"/>
    <path d="M 63.274751 144.45957 
L 68.274751 144.45957 
L 68.274751 139.45957 
L 63.274751 139.45957 
z
" clip-path="url(#pb071dd4d56)" style="fill: #ffffff; stroke: #000000; stroke-width: 0.4"/>
   </g>
   <g id="PathCollection_16">
    <path d="M 99.3333 139.794519 
L 104.3333 139.794519 
L 104.3333 134.794519 
L 99.3333 134.794519 
z
" clip-path="url(#pb071dd4d56)" style="fill: #ffffff; stroke: #000000; stroke-width: 0.4"/>
    <path d="M 98.853077 136.144595 
L 103.853077 136.144595 
L 103.853077 131.144595 
L 98.853077 131.144595 
z
" clip-path="url(#pb071dd4d56)" style="fill: #ffffff; stroke: #000000; stroke-width: 0.4"/>
    <path d="M 101.069771 131.316545 
L 106.069771 131.316545 
L 106.069771 126.316545 
L 101.069771 126.316545 
z
" clip-path="url(#pb071dd4d56)" style="fill: #ffffff; stroke: #000000; stroke-width: 0.4"/>
    <path d="M 98.452168 140.774571 
L 103.452168 140.774571 
L 103.452168 135.774571 
L 98.452168 135.774571 
z
" clip-path="url(#pb071dd4d56)" style="fill: #ffffff; stroke: #000000; stroke-width: 0.4"/>
    <path d="M 99.245907 136.895625 
L 104.245907 136.895625 
L 104.245907 131.895625 
L 99.245907 131.895625 
z
" clip-path="url(#pb071dd4d56)" style="fill: #ffffff; stroke: #000000; stroke-width: 0.4"/>
    <path d="M 97.225764 135.224377 
L 102.225764 135.224377 
L 102.225764 130.224377 
L 97.225764 130.224377 
z
" clip-path="url(#pb071dd4d56)" style="fill: #ffffff; stroke: #000000; stroke-width: 0.4"/>
   </g>
   <g id="PathCollection_17">
    <path d="M 134.833622 113.440381 
L 139.833622 113.440381 
L 139.833622 108.440381 
L 134.833622 108.440381 
z
" clip-path="url(#pb071dd4d56)" style="fill: #ffffff; stroke: #000000; stroke-width: 0.4"/>
    <path d="M 137.816488 114.061425 
L 142.816488 114.061425 
L 142.816488 109.061425 
L 137.816488 109.061425 
z
" clip-path="url(#pb071dd4d56)" style="fill: #ffffff; stroke: #000000; stroke-width: 0.4"/>
    <path d="M 134.139276 115.08068 
L 139.139276 115.08068 
L 139.139276 110.08068 
L 134.139276 110.08068 
z
" clip-path="url(#pb071dd4d56)" style="fill: #ffffff; stroke: #000000; stroke-width: 0.4"/>
    <path d="M 138.142734 108.245069 
L 143.142734 108.245069 
L 143.142734 103.245069 
L 138.142734 103.245069 
z
" clip-path="url(#pb071dd4d56)" style="fill: #ffffff; stroke: #000000; stroke-width: 0.4"/>
    <path d="M 136.429616 118.09099 
L 141.429616 118.09099 
L 141.429616 113.09099 
L 136.429616 113.09099 
z
" clip-path="url(#pb071dd4d56)" style="fill: #ffffff; stroke: #000000; stroke-width: 0.4"/>
    <path d="M 136.263712 121.569662 
L 141.263712 121.569662 
L 141.263712 116.569662 
L 136.263712 116.569662 
z
" clip-path="url(#pb071dd4d56)" style="fill: #ffffff; stroke: #000000; stroke-width: 0.4"/>
   </g>
   <g id="PathCollection_18">
    <path d="M 171.537448 79.629589 
L 176.537448 79.629589 
L 176.537448 74.629589 
L 171.537448 74.629589 
z
" clip-path="url(#pb071dd4d56)" style="fill: #ffffff; stroke: #000000; stroke-width: 0.4"/>
    <path d="M 171.023988 81.500974 
L 176.023988 81.500974 
L 176.023988 76.500974 
L 171.023988 76.500974 
z
" clip-path="url(#pb071dd4d56)" style="fill: #ffffff; stroke: #000000; stroke-width: 0.4"/>
    <path d="M 170.183277 78.247199 
L 175.183277 78.247199 
L 175.183277 73.247199 
L 170.183277 73.247199 
z
" clip-path="url(#pb071dd4d56)" style="fill: #ffffff; stroke: #000000; stroke-width: 0.4"/>
    <path d="M 170.607208 80.57044 
L 175.607208 80.57044 
L 175.607208 75.57044 
L 170.607208 75.57044 
z
" clip-path="url(#pb071dd4d56)" style="fill: #ffffff; stroke: #000000; stroke-width: 0.4"/>
    <path d="M 171.541454 80.293962 
L 176.541454 80.293962 
L 176.541454 75.293962 
L 171.541454 75.293962 
z
" clip-path="url(#pb071dd4d56)" style="fill: #ffffff; stroke: #000000; stroke-width: 0.4"/>
    <path d="M 172.032553 53.805712 
L 177.032553 53.805712 
L 177.032553 48.805712 
L 172.032553 48.805712 
z
" clip-path="url(#pb071dd4d56)" style="fill: #ffffff; stroke: #000000; stroke-width: 0.4"/>
   </g>
   <g id="PathCollection_19">
    <path d="M 204.658494 57.094563 
L 209.658494 57.094563 
L 209.658494 52.094563 
L 204.658494 52.094563 
z
" clip-path="url(#pb071dd4d56)" style="fill: #ffffff; stroke: #000000; stroke-width: 0.4"/>
    <path d="M 207.813285 54.62483 
L 212.813285 54.62483 
L 212.813285 49.62483 
L 207.813285 49.62483 
z
" clip-path="url(#pb071dd4d56)" style="fill: #ffffff; stroke: #000000; stroke-width: 0.4"/>
    <path d="M 207.274849 55.650275 
L 212.274849 55.650275 
L 212.274849 50.650275 
L 207.274849 50.650275 
z
" clip-path="url(#pb071dd4d56)" style="fill: #ffffff; stroke: #000000; stroke-width: 0.4"/>
    <path d="M 206.773742 52.852482 
L 211.773742 52.852482 
L 211.773742 47.852482 
L 206.773742 47.852482 
z
" clip-path="url(#pb071dd4d56)" style="fill: #ffffff; stroke: #000000; stroke-width: 0.4"/>
    <path d="M 208.287395 56.958387 
L 213.287395 56.958387 
L 213.287395 51.958387 
L 208.287395 51.958387 
z
" clip-path="url(#pb071dd4d56)" style="fill: #ffffff; stroke: #000000; stroke-width: 0.4"/>
    <path d="M 205.834694 49.906133 
L 210.834694 49.906133 
L 210.834694 44.906133 
L 205.834694 44.906133 
z
" clip-path="url(#pb071dd4d56)" style="fill: #ffffff; stroke: #000000; stroke-width: 0.4"/>
   </g>
   <g id="PathCollection_20">
    <path d="M 239.780836 59.230047 
L 244.780836 59.230047 
L 244.780836 54.230047 
L 239.780836 54.230047 
z
" clip-path="url(#pb071dd4d56)" style="fill: #ffffff; stroke: #000000; stroke-width: 0.4"/>
    <path d="M 240.835387 67.365517 
L 245.835387 67.365517 
L 245.835387 62.365517 
L 240.835387 62.365517 
z
" clip-path="url(#pb071dd4d56)" style="fill: #ffffff; stroke: #000000; stroke-width: 0.4"/>
    <path d="M 245.234323 64.679141 
L 250.234323 64.679141 
L 250.234323 59.679141 
L 245.234323 59.679141 
z
" clip-path="url(#pb071dd4d56)" style="fill: #ffffff; stroke: #000000; stroke-width: 0.4"/>
    <path d="M 243.328791 68.33319 
L 248.328791 68.33319 
L 248.328791 63.33319 
L 243.328791 63.33319 
z
" clip-path="url(#pb071dd4d56)" style="fill: #ffffff; stroke: #000000; stroke-width: 0.4"/>
    <path d="M 244.481226 63.835264 
L 249.481226 63.835264 
L 249.481226 58.835264 
L 244.481226 58.835264 
z
" clip-path="url(#pb071dd4d56)" style="fill: #ffffff; stroke: #000000; stroke-width: 0.4"/>
    <path d="M 244.028471 65.77061 
L 249.028471 65.77061 
L 249.028471 60.77061 
L 244.028471 60.77061 
z
" clip-path="url(#pb071dd4d56)" style="fill: #ffffff; stroke: #000000; stroke-width: 0.4"/>
   </g>
   <g id="PathCollection_21">
    <path d="M 274.758441 141.762877 
L 279.758441 141.762877 
L 279.758441 136.762877 
L 274.758441 136.762877 
z
" clip-path="url(#pb071dd4d56)" style="fill: #ffffff; stroke: #000000; stroke-width: 0.4"/>
    <path d="M 275.469476 136.272518 
L 280.469476 136.272518 
L 280.469476 131.272518 
L 275.469476 131.272518 
z
" clip-path="url(#pb071dd4d56)" style="fill: #ffffff; stroke: #000000; stroke-width: 0.4"/>
    <path d="M 278.489347 144.554481 
L 283.489347 144.554481 
L 283.489347 139.554481 
L 278.489347 139.554481 
z
" clip-path="url(#pb071dd4d56)" style="fill: #ffffff; stroke: #000000; stroke-width: 0.4"/>
    <path d="M 278.257547 144.090245 
L 283.257547 144.090245 
L 283.257547 139.090245 
L 278.257547 139.090245 
z
" clip-path="url(#pb071dd4d56)" style="fill: #ffffff; stroke: #000000; stroke-width: 0.4"/>
    <path d="M 275.140578 139.639773 
L 280.140578 139.639773 
L 280.140578 134.639773 
L 275.140578 134.639773 
z
" clip-path="url(#pb071dd4d56)" style="fill: #ffffff; stroke: #000000; stroke-width: 0.4"/>
    <path d="M 280.678221 140.562055 
L 285.678221 140.562055 
L 285.678221 135.562055 
L 280.678221 135.562055 
z
" clip-path="url(#pb071dd4d56)" style="fill: #ffffff; stroke: #000000; stroke-width: 0.4"/>
   </g>
   <g id="text_13">
    <!-- 14 dpi -->
    <g style="fill: #262626" transform="translate(157.549062 15.825) scale(0.12 -0.12)">
     <defs>
      <path id="ArialMT-31" d="M 2384 0 
L 1822 0 
L 1822 3584 
Q 1619 3391 1289 3197 
Q 959 3003 697 2906 
L 697 3450 
Q 1169 3672 1522 3987 
Q 1875 4303 2022 4600 
L 2384 4600 
L 2384 0 
z
" transform="scale(0.015625)"/>
      <path id="ArialMT-64" d="M 2575 0 
L 2575 419 
Q 2259 -75 1647 -75 
Q 1250 -75 917 144 
Q 584 363 401 755 
Q 219 1147 219 1656 
Q 219 2153 384 2558 
Q 550 2963 881 3178 
Q 1213 3394 1622 3394 
Q 1922 3394 2156 3267 
Q 2391 3141 2538 2938 
L 2538 4581 
L 3097 4581 
L 3097 0 
L 2575 0 
z
M 797 1656 
Q 797 1019 1065 703 
Q 1334 388 1700 388 
Q 2069 388 2326 689 
Q 2584 991 2584 1609 
Q 2584 2291 2321 2609 
Q 2059 2928 1675 2928 
Q 1300 2928 1048 2622 
Q 797 2316 797 1656 
z
" transform="scale(0.015625)"/>
      <path id="ArialMT-70" d="M 422 -1272 
L 422 3319 
L 934 3319 
L 934 2888 
Q 1116 3141 1344 3267 
Q 1572 3394 1897 3394 
Q 2322 3394 2647 3175 
Q 2972 2956 3137 2557 
Q 3303 2159 3303 1684 
Q 3303 1175 3120 767 
Q 2938 359 2589 142 
Q 2241 -75 1856 -75 
Q 1575 -75 1351 44 
Q 1128 163 984 344 
L 984 -1272 
L 422 -1272 
z
M 931 1641 
Q 931 1000 1190 694 
Q 1450 388 1819 388 
Q 2194 388 2461 705 
Q 2728 1022 2728 1688 
Q 2728 2322 2467 2637 
Q 2206 2953 1844 2953 
Q 1484 2953 1207 2617 
Q 931 2281 931 1641 
z
" transform="scale(0.015625)"/>
     </defs>
     <use xlink:href="#ArialMT-31"/>
     <use xlink:href="#ArialMT-34" transform="translate(55.615234 0)"/>
     <use xlink:href="#ArialMT-20" transform="translate(111.230469 0)"/>
     <use xlink:href="#ArialMT-64" transform="translate(139.013672 0)"/>
     <use xlink:href="#ArialMT-70" transform="translate(194.628906 0)"/>
     <use xlink:href="#ArialMT-69" transform="translate(250.244141 0)"/>
    </g>
   </g>
  </g>
 </g>
 <defs>
  <clipPath id="pb071dd4d56">
   <rect x="49.695313" y="21.825" width="248.4" height="140.4"/>
  </clipPath>
 </defs>
</svg>
