<?xml version="1.0" encoding="utf-8" standalone="no"?>
<!DOCTYPE svg PUBLIC "-//W3C//DTD SVG 1.1//EN"
  "http://www.w3.org/Graphics/SVG/1.1/DTD/svg11.dtd">
<svg xmlns:xlink="http://www.w3.org/1999/xlink" width="360pt" height="180pt" viewBox="0 0 360 180" xmlns="http://www.w3.org/2000/svg" version="1.1">
 <metadata>
  <rdf:RDF xmlns:dc="http://purl.org/dc/elements/1.1/" xmlns:cc="http://creativecommons.org/ns#" xmlns:rdf="http://www.w3.org/1999/02/22-rdf-syntax-ns#">
   <cc:Work>
    <dc:type rdf:resource="http://purl.org/dc/dcmitype/StillImage"/>
    <dc:date>2025-07-28T17:17:49.837867</dc:date>
    <dc:format>image/svg+xml</dc:format>
    <dc:creator>
     <cc:Agent>
      <dc:title>Matplotlib v3.10.3, https://matplotlib.org/</dc:title>
     </cc:Agent>
    </dc:creator>
   </cc:Work>
  </rdf:RDF>
 </metadata>
 <defs>
  <style type="text/css">*{stroke-linejoin: round; stroke-linecap: butt}</style>
 </defs>
 <g id="figure_1">
  <g id="patch_1">
   <path d="M 0 180 
L 360 180 
L 360 0 
L 0 0 
z
" style="fill: #ffffff"/>
  </g>
  <g id="axes_1">
   <g id="patch_2">
    <path d="M 72 135 
L 342 135 
L 342 18 
L 72 18 
z
" style="fill: #ffffff"/>
   </g>
   <g id="matplotlib.axis_1">
    <g id="xtick_1">
     <g id="line2d_1">
      <defs>
       <path id="me1b8f09e2a" d="M 0 0 
L 0 6 
" style="stroke: #262626; stroke-width: 1.25"/>
      </defs>
      <g>
       <use xlink:href="#me1b8f09e2a" x="104.824059" y="135" style="fill: #262626; stroke: #262626; stroke-width: 1.25"/>
      </g>
     </g>
     <g id="text_1">
      <!-- $\mathdefault{10^{2}}$ -->
      <g style="fill: #262626" transform="translate(96.189059 155.84375) scale(0.11 -0.11)">
       <defs>
        <path id="ArialMT-31" d="M 2384 0 
L 1822 0 
L 1822 3584 
Q 1619 3391 1289 3197 
Q 959 3003 697 2906 
L 697 3450 
Q 1169 3672 1522 3987 
Q 1875 4303 2022 4600 
L 2384 4600 
L 2384 0 
z
" transform="scale(0.015625)"/>
        <path id="ArialMT-30" d="M 266 2259 
Q 266 3072 433 3567 
Q 600 4063 929 4331 
Q 1259 4600 1759 4600 
Q 2128 4600 2406 4451 
Q 2684 4303 2865 4023 
Q 3047 3744 3150 3342 
Q 3253 2941 3253 2259 
Q 3253 1453 3087 958 
Q 2922 463 2592 192 
Q 2263 -78 1759 -78 
Q 1097 -78 719 397 
Q 266 969 266 2259 
z
M 844 2259 
Q 844 1131 1108 757 
Q 1372 384 1759 384 
Q 2147 384 2411 759 
Q 2675 1134 2675 2259 
Q 2675 3391 2411 3762 
Q 2147 4134 1753 4134 
Q 1366 4134 1134 3806 
Q 844 3388 844 2259 
z
" transform="scale(0.015625)"/>
        <path id="ArialMT-32" d="M 3222 541 
L 3222 0 
L 194 0 
Q 188 203 259 391 
Q 375 700 629 1000 
Q 884 1300 1366 1694 
Q 2113 2306 2375 2664 
Q 2638 3022 2638 3341 
Q 2638 3675 2398 3904 
Q 2159 4134 1775 4134 
Q 1369 4134 1125 3890 
Q 881 3647 878 3216 
L 300 3275 
Q 359 3922 746 4261 
Q 1134 4600 1788 4600 
Q 2447 4600 2831 4234 
Q 3216 3869 3216 3328 
Q 3216 3053 3103 2787 
Q 2991 2522 2730 2228 
Q 2469 1934 1863 1422 
Q 1356 997 1212 845 
Q 1069 694 975 541 
L 3222 541 
z
" transform="scale(0.015625)"/>
       </defs>
       <use xlink:href="#ArialMT-31" transform="translate(0 0.99375)"/>
       <use xlink:href="#ArialMT-30" transform="translate(55.615234 0.99375)"/>
       <use xlink:href="#ArialMT-32" transform="translate(112.972813 70.6875) scale(0.7)"/>
      </g>
     </g>
    </g>
    <g id="xtick_2">
     <g id="line2d_2">
      <g>
       <use xlink:href="#me1b8f09e2a" x="167.59972" y="135" style="fill: #262626; stroke: #262626; stroke-width: 1.25"/>
      </g>
     </g>
     <g id="text_2">
      <!-- $\mathdefault{10^{3}}$ -->
      <g style="fill: #262626" transform="translate(158.96472 155.84375) scale(0.11 -0.11)">
       <defs>
        <path id="ArialMT-33" d="M 269 1209 
L 831 1284 
Q 928 806 1161 595 
Q 1394 384 1728 384 
Q 2125 384 2398 659 
Q 2672 934 2672 1341 
Q 2672 1728 2419 1979 
Q 2166 2231 1775 2231 
Q 1616 2231 1378 2169 
L 1441 2663 
Q 1497 2656 1531 2656 
Q 1891 2656 2178 2843 
Q 2466 3031 2466 3422 
Q 2466 3731 2256 3934 
Q 2047 4138 1716 4138 
Q 1388 4138 1169 3931 
Q 950 3725 888 3313 
L 325 3413 
Q 428 3978 793 4289 
Q 1159 4600 1703 4600 
Q 2078 4600 2393 4439 
Q 2709 4278 2876 4000 
Q 3044 3722 3044 3409 
Q 3044 3113 2884 2869 
Q 2725 2625 2413 2481 
Q 2819 2388 3044 2092 
Q 3269 1797 3269 1353 
Q 3269 753 2831 336 
Q 2394 -81 1725 -81 
Q 1122 -81 723 278 
Q 325 638 269 1209 
z
" transform="scale(0.015625)"/>
       </defs>
       <use xlink:href="#ArialMT-31" transform="translate(0 0.99375)"/>
       <use xlink:href="#ArialMT-30" transform="translate(55.615234 0.99375)"/>
       <use xlink:href="#ArialMT-33" transform="translate(112.972813 70.6875) scale(0.7)"/>
      </g>
     </g>
    </g>
    <g id="xtick_3">
     <g id="line2d_3">
      <g>
       <use xlink:href="#me1b8f09e2a" x="230.37538" y="135" style="fill: #262626; stroke: #262626; stroke-width: 1.25"/>
      </g>
     </g>
     <g id="text_3">
      <!-- $\mathdefault{10^{4}}$ -->
      <g style="fill: #262626" transform="translate(221.74038 155.73375) scale(0.11 -0.11)">
       <defs>
        <path id="ArialMT-34" d="M 2069 0 
L 2069 1097 
L 81 1097 
L 81 1613 
L 2172 4581 
L 2631 4581 
L 2631 1613 
L 3250 1613 
L 3250 1097 
L 2631 1097 
L 2631 0 
L 2069 0 
z
M 2069 1613 
L 2069 3678 
L 634 1613 
L 2069 1613 
z
" transform="scale(0.015625)"/>
       </defs>
       <use xlink:href="#ArialMT-31" transform="translate(0 0.201563)"/>
       <use xlink:href="#ArialMT-30" transform="translate(55.615234 0.201563)"/>
       <use xlink:href="#ArialMT-34" transform="translate(112.972813 69.895313) scale(0.7)"/>
      </g>
     </g>
    </g>
    <g id="xtick_4">
     <g id="line2d_4">
      <g>
       <use xlink:href="#me1b8f09e2a" x="293.151041" y="135" style="fill: #262626; stroke: #262626; stroke-width: 1.25"/>
      </g>
     </g>
     <g id="text_4">
      <!-- $\mathdefault{10^{5}}$ -->
      <g style="fill: #262626" transform="translate(284.516041 155.73375) scale(0.11 -0.11)">
       <defs>
        <path id="ArialMT-35" d="M 266 1200 
L 856 1250 
Q 922 819 1161 601 
Q 1400 384 1738 384 
Q 2144 384 2425 690 
Q 2706 997 2706 1503 
Q 2706 1984 2436 2262 
Q 2166 2541 1728 2541 
Q 1456 2541 1237 2417 
Q 1019 2294 894 2097 
L 366 2166 
L 809 4519 
L 3088 4519 
L 3088 3981 
L 1259 3981 
L 1013 2750 
Q 1425 3038 1878 3038 
Q 2478 3038 2890 2622 
Q 3303 2206 3303 1553 
Q 3303 931 2941 478 
Q 2500 -78 1738 -78 
Q 1113 -78 717 272 
Q 322 622 266 1200 
z
" transform="scale(0.015625)"/>
       </defs>
       <use xlink:href="#ArialMT-31" transform="translate(0 0.879688)"/>
       <use xlink:href="#ArialMT-30" transform="translate(55.615234 0.879688)"/>
       <use xlink:href="#ArialMT-35" transform="translate(112.972813 70.573438) scale(0.7)"/>
      </g>
     </g>
    </g>
    <g id="xtick_5">
     <g id="line2d_5">
      <defs>
       <path id="m5a22747a0c" d="M 0 0 
L 0 4 
" style="stroke: #262626"/>
      </defs>
      <g>
       <use xlink:href="#m5a22747a0c" x="72" y="135" style="fill: #262626; stroke: #262626"/>
      </g>
     </g>
    </g>
    <g id="xtick_6">
     <g id="line2d_6">
      <g>
       <use xlink:href="#m5a22747a0c" x="79.843112" y="135" style="fill: #262626; stroke: #262626"/>
      </g>
     </g>
    </g>
    <g id="xtick_7">
     <g id="line2d_7">
      <g>
       <use xlink:href="#m5a22747a0c" x="85.926702" y="135" style="fill: #262626; stroke: #262626"/>
      </g>
     </g>
    </g>
    <g id="xtick_8">
     <g id="line2d_8">
      <g>
       <use xlink:href="#m5a22747a0c" x="90.897357" y="135" style="fill: #262626; stroke: #262626"/>
      </g>
     </g>
    </g>
    <g id="xtick_9">
     <g id="line2d_9">
      <g>
       <use xlink:href="#m5a22747a0c" x="95.099986" y="135" style="fill: #262626; stroke: #262626"/>
      </g>
     </g>
    </g>
    <g id="xtick_10">
     <g id="line2d_10">
      <g>
       <use xlink:href="#m5a22747a0c" x="98.740469" y="135" style="fill: #262626; stroke: #262626"/>
      </g>
     </g>
    </g>
    <g id="xtick_11">
     <g id="line2d_11">
      <g>
       <use xlink:href="#m5a22747a0c" x="101.951602" y="135" style="fill: #262626; stroke: #262626"/>
      </g>
     </g>
    </g>
    <g id="xtick_12">
     <g id="line2d_12">
      <g>
       <use xlink:href="#m5a22747a0c" x="123.721416" y="135" style="fill: #262626; stroke: #262626"/>
      </g>
     </g>
    </g>
    <g id="xtick_13">
     <g id="line2d_13">
      <g>
       <use xlink:href="#m5a22747a0c" x="134.775661" y="135" style="fill: #262626; stroke: #262626"/>
      </g>
     </g>
    </g>
    <g id="xtick_14">
     <g id="line2d_14">
      <g>
       <use xlink:href="#m5a22747a0c" x="142.618773" y="135" style="fill: #262626; stroke: #262626"/>
      </g>
     </g>
    </g>
    <g id="xtick_15">
     <g id="line2d_15">
      <g>
       <use xlink:href="#m5a22747a0c" x="148.702363" y="135" style="fill: #262626; stroke: #262626"/>
      </g>
     </g>
    </g>
    <g id="xtick_16">
     <g id="line2d_16">
      <g>
       <use xlink:href="#m5a22747a0c" x="153.673018" y="135" style="fill: #262626; stroke: #262626"/>
      </g>
     </g>
    </g>
    <g id="xtick_17">
     <g id="line2d_17">
      <g>
       <use xlink:href="#m5a22747a0c" x="157.875647" y="135" style="fill: #262626; stroke: #262626"/>
      </g>
     </g>
    </g>
    <g id="xtick_18">
     <g id="line2d_18">
      <g>
       <use xlink:href="#m5a22747a0c" x="161.516129" y="135" style="fill: #262626; stroke: #262626"/>
      </g>
     </g>
    </g>
    <g id="xtick_19">
     <g id="line2d_19">
      <g>
       <use xlink:href="#m5a22747a0c" x="164.727263" y="135" style="fill: #262626; stroke: #262626"/>
      </g>
     </g>
    </g>
    <g id="xtick_20">
     <g id="line2d_20">
      <g>
       <use xlink:href="#m5a22747a0c" x="186.497076" y="135" style="fill: #262626; stroke: #262626"/>
      </g>
     </g>
    </g>
    <g id="xtick_21">
     <g id="line2d_21">
      <g>
       <use xlink:href="#m5a22747a0c" x="197.551322" y="135" style="fill: #262626; stroke: #262626"/>
      </g>
     </g>
    </g>
    <g id="xtick_22">
     <g id="line2d_22">
      <g>
       <use xlink:href="#m5a22747a0c" x="205.394433" y="135" style="fill: #262626; stroke: #262626"/>
      </g>
     </g>
    </g>
    <g id="xtick_23">
     <g id="line2d_23">
      <g>
       <use xlink:href="#m5a22747a0c" x="211.478023" y="135" style="fill: #262626; stroke: #262626"/>
      </g>
     </g>
    </g>
    <g id="xtick_24">
     <g id="line2d_24">
      <g>
       <use xlink:href="#m5a22747a0c" x="216.448678" y="135" style="fill: #262626; stroke: #262626"/>
      </g>
     </g>
    </g>
    <g id="xtick_25">
     <g id="line2d_25">
      <g>
       <use xlink:href="#m5a22747a0c" x="220.651307" y="135" style="fill: #262626; stroke: #262626"/>
      </g>
     </g>
    </g>
    <g id="xtick_26">
     <g id="line2d_26">
      <g>
       <use xlink:href="#m5a22747a0c" x="224.29179" y="135" style="fill: #262626; stroke: #262626"/>
      </g>
     </g>
    </g>
    <g id="xtick_27">
     <g id="line2d_27">
      <g>
       <use xlink:href="#m5a22747a0c" x="227.502924" y="135" style="fill: #262626; stroke: #262626"/>
      </g>
     </g>
    </g>
    <g id="xtick_28">
     <g id="line2d_28">
      <g>
       <use xlink:href="#m5a22747a0c" x="249.272737" y="135" style="fill: #262626; stroke: #262626"/>
      </g>
     </g>
    </g>
    <g id="xtick_29">
     <g id="line2d_29">
      <g>
       <use xlink:href="#m5a22747a0c" x="260.326982" y="135" style="fill: #262626; stroke: #262626"/>
      </g>
     </g>
    </g>
    <g id="xtick_30">
     <g id="line2d_30">
      <g>
       <use xlink:href="#m5a22747a0c" x="268.170094" y="135" style="fill: #262626; stroke: #262626"/>
      </g>
     </g>
    </g>
    <g id="xtick_31">
     <g id="line2d_31">
      <g>
       <use xlink:href="#m5a22747a0c" x="274.253684" y="135" style="fill: #262626; stroke: #262626"/>
      </g>
     </g>
    </g>
    <g id="xtick_32">
     <g id="line2d_32">
      <g>
       <use xlink:href="#m5a22747a0c" x="279.224339" y="135" style="fill: #262626; stroke: #262626"/>
      </g>
     </g>
    </g>
    <g id="xtick_33">
     <g id="line2d_33">
      <g>
       <use xlink:href="#m5a22747a0c" x="283.426968" y="135" style="fill: #262626; stroke: #262626"/>
      </g>
     </g>
    </g>
    <g id="xtick_34">
     <g id="line2d_34">
      <g>
       <use xlink:href="#m5a22747a0c" x="287.067451" y="135" style="fill: #262626; stroke: #262626"/>
      </g>
     </g>
    </g>
    <g id="xtick_35">
     <g id="line2d_35">
      <g>
       <use xlink:href="#m5a22747a0c" x="290.278584" y="135" style="fill: #262626; stroke: #262626"/>
      </g>
     </g>
    </g>
    <g id="xtick_36">
     <g id="line2d_36">
      <g>
       <use xlink:href="#m5a22747a0c" x="312.048398" y="135" style="fill: #262626; stroke: #262626"/>
      </g>
     </g>
    </g>
    <g id="xtick_37">
     <g id="line2d_37">
      <g>
       <use xlink:href="#m5a22747a0c" x="323.102643" y="135" style="fill: #262626; stroke: #262626"/>
      </g>
     </g>
    </g>
    <g id="xtick_38">
     <g id="line2d_38">
      <g>
       <use xlink:href="#m5a22747a0c" x="330.945755" y="135" style="fill: #262626; stroke: #262626"/>
      </g>
     </g>
    </g>
    <g id="xtick_39">
     <g id="line2d_39">
      <g>
       <use xlink:href="#m5a22747a0c" x="337.029345" y="135" style="fill: #262626; stroke: #262626"/>
      </g>
     </g>
    </g>
    <g id="xtick_40">
     <g id="line2d_40">
      <g>
       <use xlink:href="#m5a22747a0c" x="342" y="135" style="fill: #262626; stroke: #262626"/>
      </g>
     </g>
    </g>
    <g id="text_5">
     <!-- Ngn2.x3HA-A -->
     <g style="fill: #262626" transform="translate(170.318438 170.655) scale(0.12 -0.12)">
      <defs>
       <path id="ArialMT-4e" d="M 488 0 
L 488 4581 
L 1109 4581 
L 3516 984 
L 3516 4581 
L 4097 4581 
L 4097 0 
L 3475 0 
L 1069 3600 
L 1069 0 
L 488 0 
z
" transform="scale(0.015625)"/>
       <path id="ArialMT-67" d="M 319 -275 
L 866 -356 
Q 900 -609 1056 -725 
Q 1266 -881 1628 -881 
Q 2019 -881 2231 -725 
Q 2444 -569 2519 -288 
Q 2563 -116 2559 434 
Q 2191 0 1641 0 
Q 956 0 581 494 
Q 206 988 206 1678 
Q 206 2153 378 2554 
Q 550 2956 876 3175 
Q 1203 3394 1644 3394 
Q 2231 3394 2613 2919 
L 2613 3319 
L 3131 3319 
L 3131 450 
Q 3131 -325 2973 -648 
Q 2816 -972 2473 -1159 
Q 2131 -1347 1631 -1347 
Q 1038 -1347 672 -1080 
Q 306 -813 319 -275 
z
M 784 1719 
Q 784 1066 1043 766 
Q 1303 466 1694 466 
Q 2081 466 2343 764 
Q 2606 1063 2606 1700 
Q 2606 2309 2336 2618 
Q 2066 2928 1684 2928 
Q 1309 2928 1046 2623 
Q 784 2319 784 1719 
z
" transform="scale(0.015625)"/>
       <path id="ArialMT-6e" d="M 422 0 
L 422 3319 
L 928 3319 
L 928 2847 
Q 1294 3394 1984 3394 
Q 2284 3394 2536 3286 
Q 2788 3178 2913 3003 
Q 3038 2828 3088 2588 
Q 3119 2431 3119 2041 
L 3119 0 
L 2556 0 
L 2556 2019 
Q 2556 2363 2490 2533 
Q 2425 2703 2258 2804 
Q 2091 2906 1866 2906 
Q 1506 2906 1245 2678 
Q 984 2450 984 1813 
L 984 0 
L 422 0 
z
" transform="scale(0.015625)"/>
       <path id="ArialMT-2e" d="M 581 0 
L 581 641 
L 1222 641 
L 1222 0 
L 581 0 
z
" transform="scale(0.015625)"/>
       <path id="ArialMT-78" d="M 47 0 
L 1259 1725 
L 138 3319 
L 841 3319 
L 1350 2541 
Q 1494 2319 1581 2169 
Q 1719 2375 1834 2534 
L 2394 3319 
L 3066 3319 
L 1919 1756 
L 3153 0 
L 2463 0 
L 1781 1031 
L 1600 1309 
L 728 0 
L 47 0 
z
" transform="scale(0.015625)"/>
       <path id="ArialMT-48" d="M 513 0 
L 513 4581 
L 1119 4581 
L 1119 2700 
L 3500 2700 
L 3500 4581 
L 4106 4581 
L 4106 0 
L 3500 0 
L 3500 2159 
L 1119 2159 
L 1119 0 
L 513 0 
z
" transform="scale(0.015625)"/>
       <path id="ArialMT-41" d="M -9 0 
L 1750 4581 
L 2403 4581 
L 4278 0 
L 3588 0 
L 3053 1388 
L 1138 1388 
L 634 0 
L -9 0 
z
M 1313 1881 
L 2866 1881 
L 2388 3150 
Q 2169 3728 2063 4100 
Q 1975 3659 1816 3225 
L 1313 1881 
z
" transform="scale(0.015625)"/>
       <path id="ArialMT-2d" d="M 203 1375 
L 203 1941 
L 1931 1941 
L 1931 1375 
L 203 1375 
z
" transform="scale(0.015625)"/>
      </defs>
      <use xlink:href="#ArialMT-4e"/>
      <use xlink:href="#ArialMT-67" transform="translate(72.216797 0)"/>
      <use xlink:href="#ArialMT-6e" transform="translate(127.832031 0)"/>
      <use xlink:href="#ArialMT-32" transform="translate(183.447266 0)"/>
      <use xlink:href="#ArialMT-2e" transform="translate(239.0625 0)"/>
      <use xlink:href="#ArialMT-78" transform="translate(266.845703 0)"/>
      <use xlink:href="#ArialMT-33" transform="translate(316.845703 0)"/>
      <use xlink:href="#ArialMT-48" transform="translate(372.460938 0)"/>
      <use xlink:href="#ArialMT-41" transform="translate(444.677734 0)"/>
      <use xlink:href="#ArialMT-2d" transform="translate(511.376953 0)"/>
      <use xlink:href="#ArialMT-41" transform="translate(544.677734 0)"/>
     </g>
    </g>
   </g>
   <g id="matplotlib.axis_2">
    <g id="ytick_1">
     <g id="line2d_41">
      <defs>
       <path id="m73a2cc7f8d" d="M 0 0 
L -6 0 
" style="stroke: #262626; stroke-width: 1.25"/>
      </defs>
      <g>
       <use xlink:href="#m73a2cc7f8d" x="72" y="135" style="fill: #262626; stroke: #262626; stroke-width: 1.25"/>
      </g>
     </g>
     <g id="text_6">
      <!-- 0.00 -->
      <g style="fill: #262626" transform="translate(41.092969 138.936797) scale(0.11 -0.11)">
       <use xlink:href="#ArialMT-30"/>
       <use xlink:href="#ArialMT-2e" transform="translate(55.615234 0)"/>
       <use xlink:href="#ArialMT-30" transform="translate(83.398438 0)"/>
       <use xlink:href="#ArialMT-30" transform="translate(139.013672 0)"/>
      </g>
     </g>
    </g>
    <g id="ytick_2">
     <g id="line2d_42">
      <g>
       <use xlink:href="#m73a2cc7f8d" x="72" y="108.176228" style="fill: #262626; stroke: #262626; stroke-width: 1.25"/>
      </g>
     </g>
     <g id="text_7">
      <!-- 0.25 -->
      <g style="fill: #262626" transform="translate(41.092969 112.113025) scale(0.11 -0.11)">
       <use xlink:href="#ArialMT-30"/>
       <use xlink:href="#ArialMT-2e" transform="translate(55.615234 0)"/>
       <use xlink:href="#ArialMT-32" transform="translate(83.398438 0)"/>
       <use xlink:href="#ArialMT-35" transform="translate(139.013672 0)"/>
      </g>
     </g>
    </g>
    <g id="ytick_3">
     <g id="line2d_43">
      <g>
       <use xlink:href="#m73a2cc7f8d" x="72" y="81.352456" style="fill: #262626; stroke: #262626; stroke-width: 1.25"/>
      </g>
     </g>
     <g id="text_8">
      <!-- 0.50 -->
      <g style="fill: #262626" transform="translate(41.092969 85.289253) scale(0.11 -0.11)">
       <use xlink:href="#ArialMT-30"/>
       <use xlink:href="#ArialMT-2e" transform="translate(55.615234 0)"/>
       <use xlink:href="#ArialMT-35" transform="translate(83.398438 0)"/>
       <use xlink:href="#ArialMT-30" transform="translate(139.013672 0)"/>
      </g>
     </g>
    </g>
    <g id="ytick_4">
     <g id="line2d_44">
      <g>
       <use xlink:href="#m73a2cc7f8d" x="72" y="54.528684" style="fill: #262626; stroke: #262626; stroke-width: 1.25"/>
      </g>
     </g>
     <g id="text_9">
      <!-- 0.75 -->
      <g style="fill: #262626" transform="translate(41.092969 58.465481) scale(0.11 -0.11)">
       <defs>
        <path id="ArialMT-37" d="M 303 3981 
L 303 4522 
L 3269 4522 
L 3269 4084 
Q 2831 3619 2401 2847 
Q 1972 2075 1738 1259 
Q 1569 684 1522 0 
L 944 0 
Q 953 541 1156 1306 
Q 1359 2072 1739 2783 
Q 2119 3494 2547 3981 
L 303 3981 
z
" transform="scale(0.015625)"/>
       </defs>
       <use xlink:href="#ArialMT-30"/>
       <use xlink:href="#ArialMT-2e" transform="translate(55.615234 0)"/>
       <use xlink:href="#ArialMT-37" transform="translate(83.398438 0)"/>
       <use xlink:href="#ArialMT-35" transform="translate(139.013672 0)"/>
      </g>
     </g>
    </g>
    <g id="ytick_5">
     <g id="line2d_45">
      <g>
       <use xlink:href="#m73a2cc7f8d" x="72" y="27.704912" style="fill: #262626; stroke: #262626; stroke-width: 1.25"/>
      </g>
     </g>
     <g id="text_10">
      <!-- 1.00 -->
      <g style="fill: #262626" transform="translate(41.092969 31.641709) scale(0.11 -0.11)">
       <use xlink:href="#ArialMT-31"/>
       <use xlink:href="#ArialMT-2e" transform="translate(55.615234 0)"/>
       <use xlink:href="#ArialMT-30" transform="translate(83.398438 0)"/>
       <use xlink:href="#ArialMT-30" transform="translate(139.013672 0)"/>
      </g>
     </g>
    </g>
    <g id="text_11">
     <!-- Density -->
     <g style="fill: #262626" transform="translate(34.567344 96.50625) rotate(-90) scale(0.12 -0.12)">
      <defs>
       <path id="ArialMT-44" d="M 494 0 
L 494 4581 
L 2072 4581 
Q 2606 4581 2888 4516 
Q 3281 4425 3559 4188 
Q 3922 3881 4101 3404 
Q 4281 2928 4281 2316 
Q 4281 1794 4159 1391 
Q 4038 988 3847 723 
Q 3656 459 3429 307 
Q 3203 156 2883 78 
Q 2563 0 2147 0 
L 494 0 
z
M 1100 541 
L 2078 541 
Q 2531 541 2789 625 
Q 3047 709 3200 863 
Q 3416 1078 3536 1442 
Q 3656 1806 3656 2325 
Q 3656 3044 3420 3430 
Q 3184 3816 2847 3947 
Q 2603 4041 2063 4041 
L 1100 4041 
L 1100 541 
z
" transform="scale(0.015625)"/>
       <path id="ArialMT-65" d="M 2694 1069 
L 3275 997 
Q 3138 488 2766 206 
Q 2394 -75 1816 -75 
Q 1088 -75 661 373 
Q 234 822 234 1631 
Q 234 2469 665 2931 
Q 1097 3394 1784 3394 
Q 2450 3394 2872 2941 
Q 3294 2488 3294 1666 
Q 3294 1616 3291 1516 
L 816 1516 
Q 847 969 1125 678 
Q 1403 388 1819 388 
Q 2128 388 2347 550 
Q 2566 713 2694 1069 
z
M 847 1978 
L 2700 1978 
Q 2663 2397 2488 2606 
Q 2219 2931 1791 2931 
Q 1403 2931 1139 2672 
Q 875 2413 847 1978 
z
" transform="scale(0.015625)"/>
       <path id="ArialMT-73" d="M 197 991 
L 753 1078 
Q 800 744 1014 566 
Q 1228 388 1613 388 
Q 2000 388 2187 545 
Q 2375 703 2375 916 
Q 2375 1106 2209 1216 
Q 2094 1291 1634 1406 
Q 1016 1563 777 1677 
Q 538 1791 414 1992 
Q 291 2194 291 2438 
Q 291 2659 392 2848 
Q 494 3038 669 3163 
Q 800 3259 1026 3326 
Q 1253 3394 1513 3394 
Q 1903 3394 2198 3281 
Q 2494 3169 2634 2976 
Q 2775 2784 2828 2463 
L 2278 2388 
Q 2241 2644 2061 2787 
Q 1881 2931 1553 2931 
Q 1166 2931 1000 2803 
Q 834 2675 834 2503 
Q 834 2394 903 2306 
Q 972 2216 1119 2156 
Q 1203 2125 1616 2013 
Q 2213 1853 2448 1751 
Q 2684 1650 2818 1456 
Q 2953 1263 2953 975 
Q 2953 694 2789 445 
Q 2625 197 2315 61 
Q 2006 -75 1616 -75 
Q 969 -75 630 194 
Q 291 463 197 991 
z
" transform="scale(0.015625)"/>
       <path id="ArialMT-69" d="M 425 3934 
L 425 4581 
L 988 4581 
L 988 3934 
L 425 3934 
z
M 425 0 
L 425 3319 
L 988 3319 
L 988 0 
L 425 0 
z
" transform="scale(0.015625)"/>
       <path id="ArialMT-74" d="M 1650 503 
L 1731 6 
Q 1494 -44 1306 -44 
Q 1000 -44 831 53 
Q 663 150 594 308 
Q 525 466 525 972 
L 525 2881 
L 113 2881 
L 113 3319 
L 525 3319 
L 525 4141 
L 1084 4478 
L 1084 3319 
L 1650 3319 
L 1650 2881 
L 1084 2881 
L 1084 941 
Q 1084 700 1114 631 
Q 1144 563 1211 522 
Q 1278 481 1403 481 
Q 1497 481 1650 503 
z
" transform="scale(0.015625)"/>
       <path id="ArialMT-79" d="M 397 -1278 
L 334 -750 
Q 519 -800 656 -800 
Q 844 -800 956 -737 
Q 1069 -675 1141 -563 
Q 1194 -478 1313 -144 
Q 1328 -97 1363 -6 
L 103 3319 
L 709 3319 
L 1400 1397 
Q 1534 1031 1641 628 
Q 1738 1016 1872 1384 
L 2581 3319 
L 3144 3319 
L 1881 -56 
Q 1678 -603 1566 -809 
Q 1416 -1088 1222 -1217 
Q 1028 -1347 759 -1347 
Q 597 -1347 397 -1278 
z
" transform="scale(0.015625)"/>
      </defs>
      <use xlink:href="#ArialMT-44"/>
      <use xlink:href="#ArialMT-65" transform="translate(72.216797 0)"/>
      <use xlink:href="#ArialMT-6e" transform="translate(127.832031 0)"/>
      <use xlink:href="#ArialMT-73" transform="translate(183.447266 0)"/>
      <use xlink:href="#ArialMT-69" transform="translate(233.447266 0)"/>
      <use xlink:href="#ArialMT-74" transform="translate(255.664062 0)"/>
      <use xlink:href="#ArialMT-79" transform="translate(283.447266 0)"/>
     </g>
    </g>
   </g>
   <g id="FillBetweenPolyCollection_1">
    <path d="M -31.665348 134.999346 
L -31.665348 135 
L -29.656185 135 
L -27.647022 135 
L -25.637859 135 
L -23.628696 135 
L -21.619533 135 
L -19.610371 135 
L -17.601208 135 
L -15.592045 135 
L -13.582882 135 
L -11.573719 135 
L -9.564556 135 
L -7.555393 135 
L -5.54623 135 
L -3.537068 135 
L -1.527905 135 
L 0.481258 135 
L 2.490421 135 
L 4.499584 135 
L 6.508747 135 
L 8.51791 135 
L 10.527073 135 
L 12.536235 135 
L 14.545398 135 
L 16.554561 135 
L 18.563724 135 
L 20.572887 135 
L 22.58205 135 
L 24.591213 135 
L 26.600376 135 
L 28.609538 135 
L 30.618701 135 
L 32.627864 135 
L 34.637027 135 
L 36.64619 135 
L 38.655353 135 
L 40.664516 135 
L 42.673678 135 
L 44.682841 135 
L 46.692004 135 
L 48.701167 135 
L 50.71033 135 
L 52.719493 135 
L 54.728656 135 
L 56.737819 135 
L 58.746981 135 
L 60.756144 135 
L 62.765307 135 
L 64.77447 135 
L 66.783633 135 
L 68.792796 135 
L 70.801959 135 
L 72.811122 135 
L 74.820284 135 
L 76.829447 135 
L 78.83861 135 
L 80.847773 135 
L 82.856936 135 
L 84.866099 135 
L 86.875262 135 
L 88.884425 135 
L 90.893587 135 
L 92.90275 135 
L 94.911913 135 
L 96.921076 135 
L 98.930239 135 
L 100.939402 135 
L 102.948565 135 
L 104.957728 135 
L 106.96689 135 
L 108.976053 135 
L 110.985216 135 
L 112.994379 135 
L 115.003542 135 
L 117.012705 135 
L 119.021868 135 
L 121.031031 135 
L 123.040193 135 
L 125.049356 135 
L 127.058519 135 
L 129.067682 135 
L 131.076845 135 
L 133.086008 135 
L 135.095171 135 
L 137.104334 135 
L 139.113496 135 
L 141.122659 135 
L 143.131822 135 
L 145.140985 135 
L 147.150148 135 
L 149.159311 135 
L 151.168474 135 
L 153.177637 135 
L 155.186799 135 
L 157.195962 135 
L 159.205125 135 
L 161.214288 135 
L 163.223451 135 
L 165.232614 135 
L 167.241777 135 
L 169.25094 135 
L 171.260102 135 
L 173.269265 135 
L 175.278428 135 
L 177.287591 135 
L 179.296754 135 
L 181.305917 135 
L 183.31508 135 
L 185.324243 135 
L 187.333405 135 
L 189.342568 135 
L 191.351731 135 
L 193.360894 135 
L 195.370057 135 
L 197.37922 135 
L 199.388383 135 
L 201.397546 135 
L 203.406708 135 
L 205.415871 135 
L 207.425034 135 
L 209.434197 135 
L 211.44336 135 
L 213.452523 135 
L 215.461686 135 
L 217.470849 135 
L 219.480011 135 
L 221.489174 135 
L 223.498337 135 
L 225.5075 135 
L 227.516663 135 
L 229.525826 135 
L 231.534989 135 
L 233.544151 135 
L 235.553314 135 
L 237.562477 135 
L 239.57164 135 
L 241.580803 135 
L 243.589966 135 
L 245.599129 135 
L 247.608292 135 
L 249.617454 135 
L 251.626617 135 
L 253.63578 135 
L 255.644943 135 
L 257.654106 135 
L 259.663269 135 
L 261.672432 135 
L 263.681595 135 
L 265.690757 135 
L 267.69992 135 
L 269.709083 135 
L 271.718246 135 
L 273.727409 135 
L 275.736572 135 
L 277.745735 135 
L 279.754898 135 
L 281.76406 135 
L 283.773223 135 
L 285.782386 135 
L 287.791549 135 
L 289.800712 135 
L 291.809875 135 
L 293.819038 135 
L 295.828201 135 
L 297.837363 135 
L 299.846526 135 
L 301.855689 135 
L 303.864852 135 
L 305.874015 135 
L 307.883178 135 
L 309.892341 135 
L 311.901504 135 
L 313.910666 135 
L 315.919829 135 
L 317.928992 135 
L 319.938155 135 
L 321.947318 135 
L 323.956481 135 
L 325.965644 135 
L 327.974807 135 
L 329.983969 135 
L 331.993132 135 
L 334.002295 135 
L 336.011458 135 
L 338.020621 135 
L 340.029784 135 
L 342.038947 135 
L 344.04811 135 
L 346.057272 135 
L 348.066435 135 
L 350.075598 135 
L 352.084761 135 
L 354.093924 135 
L 356.103087 135 
L 358.11225 135 
L 360.121413 135 
L 362.130575 135 
L 364.139738 135 
L 366.148901 135 
L 368.158064 135 
L 368.158064 134.997335 
L 368.158064 134.997335 
L 366.148901 134.987922 
L 364.139738 134.959376 
L 362.130575 134.898268 
L 360.121413 134.80918 
L 358.11225 134.728724 
L 356.103087 134.700277 
L 354.093924 134.728854 
L 352.084761 134.780647 
L 350.075598 134.827261 
L 348.066435 134.866675 
L 346.057272 134.902221 
L 344.04811 134.926681 
L 342.038947 134.934657 
L 340.029784 134.935505 
L 338.020621 134.943579 
L 336.011458 134.961438 
L 334.002295 134.980239 
L 331.993132 134.992464 
L 329.983969 134.997656 
L 327.974807 134.998285 
L 325.965644 134.994885 
L 323.956481 134.985283 
L 321.947318 134.968362 
L 319.938155 134.949775 
L 317.928992 134.941149 
L 315.919829 134.9491 
L 313.910666 134.967507 
L 311.901504 134.984689 
L 309.892341 134.994675 
L 307.883178 134.998633 
L 305.874015 134.999741 
L 303.864852 134.999964 
L 301.855689 134.999996 
L 299.846526 135 
L 297.837363 134.999999 
L 295.828201 134.999992 
L 293.819038 134.999928 
L 291.809875 134.999537 
L 289.800712 134.997789 
L 287.791549 134.992202 
L 285.782386 134.979678 
L 283.773223 134.960735 
L 281.76406 134.943013 
L 279.754898 134.934846 
L 277.745735 134.932556 
L 275.736572 134.922064 
L 273.727409 134.899325 
L 271.718246 134.881259 
L 269.709083 134.886401 
L 267.69992 134.909993 
L 265.690757 134.930114 
L 263.681595 134.935693 
L 261.672432 134.936713 
L 259.663269 134.946643 
L 257.654106 134.965366 
L 255.644943 134.983227 
L 253.63578 134.993956 
L 251.626617 134.998147 
L 249.617454 134.998223 
L 247.608292 134.993774 
L 245.599129 134.980205 
L 243.589966 134.951401 
L 241.580803 134.907546 
L 239.57164 134.862583 
L 237.562477 134.839433 
L 235.553314 134.85109 
L 233.544151 134.885983 
L 231.534989 134.91739 
L 229.525826 134.928907 
L 227.516663 134.925766 
L 225.5075 134.920863 
L 223.498337 134.919204 
L 221.489174 134.920197 
L 219.480011 134.922614 
L 217.470849 134.918842 
L 215.461686 134.895763 
L 213.452523 134.849335 
L 211.44336 134.788217 
L 209.434197 134.717646 
L 207.425034 134.629256 
L 205.415871 134.506342 
L 203.406708 134.321747 
L 201.397546 134.028314 
L 199.388383 133.575812 
L 197.37922 132.946418 
L 195.370057 132.132585 
L 193.360894 131.024913 
L 191.351731 129.313807 
L 189.342568 126.560694 
L 187.333405 122.462502 
L 185.324243 117.071424 
L 183.31508 110.688717 
L 181.305917 103.586169 
L 179.296754 95.973853 
L 177.287591 88.191014 
L 175.278428 80.708588 
L 173.269265 73.828609 
L 171.260102 67.430632 
L 169.25094 61.120666 
L 167.241777 54.681227 
L 165.232614 48.319957 
L 163.223451 42.477556 
L 161.214288 37.541027 
L 159.205125 33.756206 
L 157.195962 31.198616 
L 155.186799 29.689988 
L 153.177637 28.80051 
L 151.168474 28.017782 
L 149.159311 26.983426 
L 147.150148 25.658517 
L 145.140985 24.343467 
L 143.131822 23.571429 
L 141.122659 23.859012 
L 139.113496 25.348517 
L 137.104334 27.689753 
L 135.095171 30.412763 
L 133.086008 33.402151 
L 131.076845 36.922784 
L 129.067682 41.256197 
L 127.058519 46.424265 
L 125.049356 52.221602 
L 123.040193 58.381877 
L 121.031031 64.659282 
L 119.021868 70.852533 
L 117.012705 76.889309 
L 115.003542 82.858345 
L 112.994379 88.843765 
L 110.985216 94.733775 
L 108.976053 100.225275 
L 106.96689 105.008477 
L 104.957728 108.971562 
L 102.948565 112.240234 
L 100.939402 115.043065 
L 98.930239 117.584259 
L 96.921076 119.985249 
L 94.911913 122.21908 
L 92.90275 124.120374 
L 90.893587 125.581821 
L 88.884425 126.717528 
L 86.875262 127.746796 
L 84.866099 128.773324 
L 82.856936 129.741397 
L 80.847773 130.546261 
L 78.83861 131.136684 
L 76.829447 131.550501 
L 74.820284 131.889125 
L 72.811122 132.242523 
L 70.801959 132.625229 
L 68.792796 132.995173 
L 66.783633 133.321811 
L 64.77447 133.607604 
L 62.765307 133.852942 
L 60.756144 134.035173 
L 58.746981 134.139044 
L 56.737819 134.191236 
L 54.728656 134.233332 
L 52.719493 134.270341 
L 50.71033 134.283965 
L 48.701167 134.282351 
L 46.692004 134.293349 
L 44.682841 134.320495 
L 42.673678 134.347333 
L 40.664516 134.380304 
L 38.655353 134.450555 
L 36.64619 134.567187 
L 34.637027 134.692161 
L 32.627864 134.772728 
L 30.618701 134.792713 
L 28.609538 134.785024 
L 26.600376 134.79153 
L 24.591213 134.820018 
L 22.58205 134.848104 
L 20.572887 134.856514 
L 18.563724 134.84616 
L 16.554561 134.824042 
L 14.545398 134.781787 
L 12.536235 134.710968 
L 10.527073 134.644812 
L 8.51791 134.644835 
L 6.508747 134.726321 
L 4.499584 134.83414 
L 2.490421 134.906639 
L 0.481258 134.931933 
L -1.527905 134.93678 
L -3.537068 134.946482 
L -5.54623 134.964884 
L -7.555393 134.982753 
L -9.564556 134.993255 
L -11.573719 134.995826 
L -13.582882 134.991044 
L -15.592045 134.978124 
L -17.601208 134.959242 
L -19.610371 134.943842 
L -21.619533 134.942881 
L -23.628696 134.957118 
L -25.637859 134.976238 
L -27.647022 134.990281 
L -29.656185 134.997066 
L -31.665348 134.999346 
z
" clip-path="url(#pe245ccded6)" style="fill: #bbbbbb; fill-opacity: 0.08; stroke: #bbbbbb; stroke-width: 2.5"/>
   </g>
   <g id="FillBetweenPolyCollection_2">
    <defs>
     <path id="m44cb7b8912" d="M 38.195734 -45.000738 
L 38.195734 -45 
L 39.913193 -45 
L 41.630651 -45 
L 43.34811 -45 
L 45.065568 -45 
L 46.783027 -45 
L 48.500486 -45 
L 50.217944 -45 
L 51.935403 -45 
L 53.652862 -45 
L 55.37032 -45 
L 57.087779 -45 
L 58.805237 -45 
L 60.522696 -45 
L 62.240155 -45 
L 63.957613 -45 
L 65.675072 -45 
L 67.392531 -45 
L 69.109989 -45 
L 70.827448 -45 
L 72.544906 -45 
L 74.262365 -45 
L 75.979824 -45 
L 77.697282 -45 
L 79.414741 -45 
L 81.132199 -45 
L 82.849658 -45 
L 84.567117 -45 
L 86.284575 -45 
L 88.002034 -45 
L 89.719493 -45 
L 91.436951 -45 
L 93.15441 -45 
L 94.871868 -45 
L 96.589327 -45 
L 98.306786 -45 
L 100.024244 -45 
L 101.741703 -45 
L 103.459162 -45 
L 105.17662 -45 
L 106.894079 -45 
L 108.611537 -45 
L 110.328996 -45 
L 112.046455 -45 
L 113.763913 -45 
L 115.481372 -45 
L 117.198831 -45 
L 118.916289 -45 
L 120.633748 -45 
L 122.351206 -45 
L 124.068665 -45 
L 125.786124 -45 
L 127.503582 -45 
L 129.221041 -45 
L 130.9385 -45 
L 132.655958 -45 
L 134.373417 -45 
L 136.090875 -45 
L 137.808334 -45 
L 139.525793 -45 
L 141.243251 -45 
L 142.96071 -45 
L 144.678169 -45 
L 146.395627 -45 
L 148.113086 -45 
L 149.830544 -45 
L 151.548003 -45 
L 153.265462 -45 
L 154.98292 -45 
L 156.700379 -45 
L 158.417838 -45 
L 160.135296 -45 
L 161.852755 -45 
L 163.570213 -45 
L 165.287672 -45 
L 167.005131 -45 
L 168.722589 -45 
L 170.440048 -45 
L 172.157507 -45 
L 173.874965 -45 
L 175.592424 -45 
L 177.309882 -45 
L 179.027341 -45 
L 180.7448 -45 
L 182.462258 -45 
L 184.179717 -45 
L 185.897176 -45 
L 187.614634 -45 
L 189.332093 -45 
L 191.049551 -45 
L 192.76701 -45 
L 194.484469 -45 
L 196.201927 -45 
L 197.919386 -45 
L 199.636845 -45 
L 201.354303 -45 
L 203.071762 -45 
L 204.78922 -45 
L 206.506679 -45 
L 208.224138 -45 
L 209.941596 -45 
L 211.659055 -45 
L 213.376513 -45 
L 215.093972 -45 
L 216.811431 -45 
L 218.528889 -45 
L 220.246348 -45 
L 221.963807 -45 
L 223.681265 -45 
L 225.398724 -45 
L 227.116182 -45 
L 228.833641 -45 
L 230.5511 -45 
L 232.268558 -45 
L 233.986017 -45 
L 235.703476 -45 
L 237.420934 -45 
L 239.138393 -45 
L 240.855851 -45 
L 242.57331 -45 
L 244.290769 -45 
L 246.008227 -45 
L 247.725686 -45 
L 249.443145 -45 
L 251.160603 -45 
L 252.878062 -45 
L 254.59552 -45 
L 256.312979 -45 
L 258.030438 -45 
L 259.747896 -45 
L 261.465355 -45 
L 263.182814 -45 
L 264.900272 -45 
L 266.617731 -45 
L 268.335189 -45 
L 270.052648 -45 
L 271.770107 -45 
L 273.487565 -45 
L 275.205024 -45 
L 276.922483 -45 
L 278.639941 -45 
L 280.3574 -45 
L 282.074858 -45 
L 283.792317 -45 
L 285.509776 -45 
L 287.227234 -45 
L 288.944693 -45 
L 290.662152 -45 
L 292.37961 -45 
L 294.097069 -45 
L 295.814527 -45 
L 297.531986 -45 
L 299.249445 -45 
L 300.966903 -45 
L 302.684362 -45 
L 304.401821 -45 
L 306.119279 -45 
L 307.836738 -45 
L 309.554196 -45 
L 311.271655 -45 
L 312.989114 -45 
L 314.706572 -45 
L 316.424031 -45 
L 318.14149 -45 
L 319.858948 -45 
L 321.576407 -45 
L 323.293865 -45 
L 325.011324 -45 
L 326.728783 -45 
L 328.446241 -45 
L 330.1637 -45 
L 331.881159 -45 
L 333.598617 -45 
L 335.316076 -45 
L 337.033534 -45 
L 338.750993 -45 
L 340.468452 -45 
L 342.18591 -45 
L 343.903369 -45 
L 345.620827 -45 
L 347.338286 -45 
L 349.055745 -45 
L 350.773203 -45 
L 352.490662 -45 
L 354.208121 -45 
L 355.925579 -45 
L 357.643038 -45 
L 359.360496 -45 
L 361.077955 -45 
L 362.795414 -45 
L 364.512872 -45 
L 366.230331 -45 
L 367.94779 -45 
L 369.665248 -45 
L 371.382707 -45 
L 373.100165 -45 
L 374.817624 -45 
L 376.535083 -45 
L 378.252541 -45 
L 379.97 -45 
L 379.97 -45.012543 
L 379.97 -45.012543 
L 378.252541 -45.024118 
L 376.535083 -45.044056 
L 374.817624 -45.076452 
L 373.100165 -45.126037 
L 371.382707 -45.197393 
L 369.665248 -45.29369 
L 367.94779 -45.415116 
L 366.230331 -45.557409 
L 364.512872 -45.711055 
L 362.795414 -45.8617 
L 361.077955 -45.992049 
L 359.360496 -46.085012 
L 357.643038 -46.127354 
L 355.925579 -46.112786 
L 354.208121 -46.043496 
L 352.490662 -45.929621 
L 350.773203 -45.786827 
L 349.055745 -45.632818 
L 347.338286 -45.483851 
L 345.620827 -45.352209 
L 343.903369 -45.245159 
L 342.18591 -45.165338 
L 340.468452 -45.112159 
L 338.750993 -45.083645 
L 337.033534 -45.078184 
L 335.316076 -45.09591 
L 333.598617 -45.139606 
L 331.881159 -45.215208 
L 330.1637 -45.331993 
L 328.446241 -45.50258 
L 326.728783 -45.742753 
L 325.011324 -46.071102 
L 323.293865 -46.5084 
L 321.576407 -47.076637 
L 319.858948 -47.797676 
L 318.14149 -48.691615 
L 316.424031 -49.775079 
L 314.706572 -51.059808 
L 312.989114 -52.551943 
L 311.271655 -54.252292 
L 309.554196 -56.157634 
L 307.836738 -58.262757 
L 306.119279 -60.562675 
L 304.401821 -63.054276 
L 302.684362 -65.736749 
L 300.966903 -68.610324 
L 299.249445 -71.673257 
L 297.531986 -74.917481 
L 295.814527 -78.323811 
L 294.097069 -81.858033 
L 292.37961 -85.469296 
L 290.662152 -89.091934 
L 288.944693 -92.651002 
L 287.227234 -96.070713 
L 285.509776 -99.283914 
L 283.792317 -102.240147 
L 282.074858 -104.910122 
L 280.3574 -107.285354 
L 278.639941 -109.373227 
L 276.922483 -111.189082 
L 275.205024 -112.747799 
L 273.487565 -114.057277 
L 271.770107 -115.115362 
L 270.052648 -115.91041 
L 268.335189 -116.424479 
L 266.617731 -116.637449 
L 264.900272 -116.530553 
L 263.182814 -116.088536 
L 261.465355 -115.300525 
L 259.747896 -114.160343 
L 258.030438 -112.66702 
L 256.312979 -110.825941 
L 254.59552 -108.650564 
L 252.878062 -106.164198 
L 251.160603 -103.401259 
L 249.443145 -100.407452 
L 247.725686 -97.238657 
L 246.008227 -93.9586 
L 244.290769 -90.635794 
L 242.57331 -87.340461 
L 240.855851 -84.142208 
L 239.138393 -81.108886 
L 237.420934 -78.306516 
L 235.703476 -75.799514 
L 233.986017 -73.650138 
L 232.268558 -71.916233 
L 230.5511 -70.647061 
L 228.833641 -69.877821 
L 227.116182 -69.62416 
L 225.398724 -69.878166 
L 223.681265 -70.607056 
L 221.963807 -71.755148 
L 220.246348 -73.249044 
L 218.528889 -75.005318 
L 216.811431 -76.939519 
L 215.093972 -78.974944 
L 213.376513 -81.049486 
L 211.659055 -83.11905 
L 209.941596 -85.156613 
L 208.224138 -87.147035 
L 206.506679 -89.078932 
L 204.78922 -90.935895 
L 203.071762 -92.689694 
L 201.354303 -94.297647 
L 199.636845 -95.705007 
L 197.919386 -96.851671 
L 196.201927 -97.681133 
L 194.484469 -98.149041 
L 192.76701 -98.229032 
L 191.049551 -97.91463 
L 189.332093 -97.217233 
L 187.614634 -96.161369 
L 185.897176 -94.778862 
L 184.179717 -93.103559 
L 182.462258 -91.167815 
L 180.7448 -89.001272 
L 179.027341 -86.63176 
L 177.309882 -84.087648 
L 175.592424 -81.400576 
L 173.874965 -78.607527 
L 172.157507 -75.751496 
L 170.440048 -72.880514 
L 168.722589 -70.045292 
L 167.005131 -67.296086 
L 165.287672 -64.67939 
L 163.570213 -62.234914 
L 161.852755 -59.993077 
L 160.135296 -57.973179 
L 158.417838 -56.182458 
L 156.700379 -54.616319 
L 154.98292 -53.259972 
L 153.265462 -52.091412 
L 151.548003 -51.085291 
L 149.830544 -50.216849 
L 148.113086 -49.464991 
L 146.395627 -48.813821 
L 144.678169 -48.252498 
L 142.96071 -47.773748 
L 141.243251 -47.371806 
L 139.525793 -47.040543 
L 137.808334 -46.772373 
L 136.090875 -46.558089 
L 134.373417 -46.387481 
L 132.655958 -46.250339 
L 130.9385 -46.137456 
L 129.221041 -46.041297 
L 127.503582 -45.956259 
L 125.786124 -45.878511 
L 124.068665 -45.805606 
L 122.351206 -45.736012 
L 120.633748 -45.668759 
L 118.916289 -45.603266 
L 117.198831 -45.539341 
L 115.481372 -45.477281 
L 113.763913 -45.417934 
L 112.046455 -45.362642 
L 110.328996 -45.31304 
L 108.611537 -45.270741 
L 106.894079 -45.236999 
L 105.17662 -45.212426 
L 103.459162 -45.196826 
L 101.741703 -45.189146 
L 100.024244 -45.187572 
L 98.306786 -45.189723 
L 96.589327 -45.192946 
L 94.871868 -45.194673 
L 93.15441 -45.192782 
L 91.436951 -45.185902 
L 89.719493 -45.173602 
L 88.002034 -45.156402 
L 86.284575 -45.135614 
L 84.567117 -45.113053 
L 82.849658 -45.090682 
L 81.132199 -45.070294 
L 79.414741 -45.053282 
L 77.697282 -45.040531 
L 75.979824 -45.03242 
L 74.262365 -45.028885 
L 72.544906 -45.029503 
L 70.827448 -45.033544 
L 69.109989 -45.040025 
L 67.392531 -45.047754 
L 65.675072 -45.055418 
L 63.957613 -45.061731 
L 62.240155 -45.065616 
L 60.522696 -45.066383 
L 58.805237 -45.063852 
L 57.087779 -45.058367 
L 55.37032 -45.050692 
L 53.652862 -45.041828 
L 51.935403 -45.032789 
L 50.217944 -45.024419 
L 48.500486 -45.017276 
L 46.783027 -45.011611 
L 45.065568 -45.007414 
L 43.34811 -45.004497 
L 41.630651 -45.002592 
L 39.913193 -45.001419 
L 38.195734 -45.000738 
z
" style="stroke: #707070; stroke-width: 2.5"/>
    </defs>
    <g clip-path="url(#pe245ccded6)">
     <use xlink:href="#m44cb7b8912" x="0" y="180" style="fill: #707070; fill-opacity: 0.08; stroke: #707070; stroke-width: 2.5"/>
    </g>
   </g>
   <g id="FillBetweenPolyCollection_3">
    <defs>
     <path id="m4e19292116" d="M 39.812809 -45.000344 
L 39.812809 -45 
L 41.49175 -45 
L 43.170692 -45 
L 44.849633 -45 
L 46.528575 -45 
L 48.207516 -45 
L 49.886457 -45 
L 51.565399 -45 
L 53.24434 -45 
L 54.923282 -45 
L 56.602223 -45 
L 58.281165 -45 
L 59.960106 -45 
L 61.639047 -45 
L 63.317989 -45 
L 64.99693 -45 
L 66.675872 -45 
L 68.354813 -45 
L 70.033755 -45 
L 71.712696 -45 
L 73.391637 -45 
L 75.070579 -45 
L 76.74952 -45 
L 78.428462 -45 
L 80.107403 -45 
L 81.786344 -45 
L 83.465286 -45 
L 85.144227 -45 
L 86.823169 -45 
L 88.50211 -45 
L 90.181052 -45 
L 91.859993 -45 
L 93.538934 -45 
L 95.217876 -45 
L 96.896817 -45 
L 98.575759 -45 
L 100.2547 -45 
L 101.933641 -45 
L 103.612583 -45 
L 105.291524 -45 
L 106.970466 -45 
L 108.649407 -45 
L 110.328349 -45 
L 112.00729 -45 
L 113.686231 -45 
L 115.365173 -45 
L 117.044114 -45 
L 118.723056 -45 
L 120.401997 -45 
L 122.080939 -45 
L 123.75988 -45 
L 125.438821 -45 
L 127.117763 -45 
L 128.796704 -45 
L 130.475646 -45 
L 132.154587 -45 
L 133.833528 -45 
L 135.51247 -45 
L 137.191411 -45 
L 138.870353 -45 
L 140.549294 -45 
L 142.228236 -45 
L 143.907177 -45 
L 145.586118 -45 
L 147.26506 -45 
L 148.944001 -45 
L 150.622943 -45 
L 152.301884 -45 
L 153.980825 -45 
L 155.659767 -45 
L 157.338708 -45 
L 159.01765 -45 
L 160.696591 -45 
L 162.375533 -45 
L 164.054474 -45 
L 165.733415 -45 
L 167.412357 -45 
L 169.091298 -45 
L 170.77024 -45 
L 172.449181 -45 
L 174.128122 -45 
L 175.807064 -45 
L 177.486005 -45 
L 179.164947 -45 
L 180.843888 -45 
L 182.52283 -45 
L 184.201771 -45 
L 185.880712 -45 
L 187.559654 -45 
L 189.238595 -45 
L 190.917537 -45 
L 192.596478 -45 
L 194.27542 -45 
L 195.954361 -45 
L 197.633302 -45 
L 199.312244 -45 
L 200.991185 -45 
L 202.670127 -45 
L 204.349068 -45 
L 206.028009 -45 
L 207.706951 -45 
L 209.385892 -45 
L 211.064834 -45 
L 212.743775 -45 
L 214.422717 -45 
L 216.101658 -45 
L 217.780599 -45 
L 219.459541 -45 
L 221.138482 -45 
L 222.817424 -45 
L 224.496365 -45 
L 226.175306 -45 
L 227.854248 -45 
L 229.533189 -45 
L 231.212131 -45 
L 232.891072 -45 
L 234.570014 -45 
L 236.248955 -45 
L 237.927896 -45 
L 239.606838 -45 
L 241.285779 -45 
L 242.964721 -45 
L 244.643662 -45 
L 246.322603 -45 
L 248.001545 -45 
L 249.680486 -45 
L 251.359428 -45 
L 253.038369 -45 
L 254.717311 -45 
L 256.396252 -45 
L 258.075193 -45 
L 259.754135 -45 
L 261.433076 -45 
L 263.112018 -45 
L 264.790959 -45 
L 266.469901 -45 
L 268.148842 -45 
L 269.827783 -45 
L 271.506725 -45 
L 273.185666 -45 
L 274.864608 -45 
L 276.543549 -45 
L 278.22249 -45 
L 279.901432 -45 
L 281.580373 -45 
L 283.259315 -45 
L 284.938256 -45 
L 286.617198 -45 
L 288.296139 -45 
L 289.97508 -45 
L 291.654022 -45 
L 293.332963 -45 
L 295.011905 -45 
L 296.690846 -45 
L 298.369787 -45 
L 300.048729 -45 
L 301.72767 -45 
L 303.406612 -45 
L 305.085553 -45 
L 306.764495 -45 
L 308.443436 -45 
L 310.122377 -45 
L 311.801319 -45 
L 313.48026 -45 
L 315.159202 -45 
L 316.838143 -45 
L 318.517084 -45 
L 320.196026 -45 
L 321.874967 -45 
L 323.553909 -45 
L 325.23285 -45 
L 326.911792 -45 
L 328.590733 -45 
L 330.269674 -45 
L 331.948616 -45 
L 333.627557 -45 
L 335.306499 -45 
L 336.98544 -45 
L 338.664382 -45 
L 340.343323 -45 
L 342.022264 -45 
L 343.701206 -45 
L 345.380147 -45 
L 347.059089 -45 
L 348.73803 -45 
L 350.416971 -45 
L 352.095913 -45 
L 353.774854 -45 
L 355.453796 -45 
L 357.132737 -45 
L 358.811679 -45 
L 360.49062 -45 
L 362.169561 -45 
L 363.848503 -45 
L 365.527444 -45 
L 367.206386 -45 
L 368.885327 -45 
L 370.564268 -45 
L 372.24321 -45 
L 373.922151 -45 
L 373.922151 -45.006948 
L 373.922151 -45.006948 
L 372.24321 -45.016408 
L 370.564268 -45.035378 
L 368.885327 -45.069653 
L 367.206386 -45.12522 
L 365.527444 -45.205569 
L 363.848503 -45.308203 
L 362.169561 -45.422065 
L 360.49062 -45.528103 
L 358.811679 -45.60408 
L 357.132737 -45.632336 
L 355.453796 -45.606878 
L 353.774854 -45.535906 
L 352.095913 -45.438333 
L 350.416971 -45.336276 
L 348.73803 -45.247612 
L 347.059089 -45.181969 
L 345.380147 -45.140961 
L 343.701206 -45.121088 
L 342.022264 -45.117025 
L 340.343323 -45.123862 
L 338.664382 -45.138134 
L 336.98544 -45.158216 
L 335.306499 -45.184603 
L 333.627557 -45.220245 
L 331.948616 -45.270862 
L 330.269674 -45.345173 
L 328.590733 -45.455092 
L 326.911792 -45.615967 
L 325.23285 -45.846832 
L 323.553909 -46.170476 
L 321.874967 -46.613033 
L 320.196026 -47.202792 
L 318.517084 -47.968211 
L 316.838143 -48.935562 
L 315.159202 -50.127007 
L 313.48026 -51.559773 
L 311.801319 -53.246314 
L 310.122377 -55.194469 
L 308.443436 -57.406594 
L 306.764495 -59.87767 
L 305.085553 -62.593736 
L 303.406612 -65.532187 
L 301.72767 -68.66422 
L 300.048729 -71.957926 
L 298.369787 -75.380023 
L 296.690846 -78.895506 
L 295.011905 -82.46655 
L 293.332963 -86.052928 
L 291.654022 -89.615066 
L 289.97508 -93.118146 
L 288.296139 -96.533724 
L 286.617198 -99.83615 
L 284.938256 -102.994799 
L 283.259315 -105.967112 
L 281.580373 -108.698247 
L 279.901432 -111.129598 
L 278.22249 -113.21312 
L 276.543549 -114.925318 
L 274.864608 -116.275489 
L 273.185666 -117.305653 
L 271.506725 -118.081832 
L 269.827783 -118.677684 
L 268.148842 -119.153375 
L 266.469901 -119.535805 
L 264.790959 -119.80862 
L 263.112018 -119.918473 
L 261.433076 -119.797137 
L 259.754135 -119.390666 
L 258.075193 -118.682296 
L 256.396252 -117.698113 
L 254.717311 -116.492638 
L 253.038369 -115.121087 
L 251.359428 -113.611529 
L 249.680486 -111.950349 
L 248.001545 -110.088062 
L 246.322603 -107.962512 
L 244.643662 -105.528175 
L 242.964721 -102.77839 
L 241.285779 -99.752545 
L 239.606838 -96.528529 
L 237.927896 -93.206709 
L 236.248955 -89.892628 
L 234.570014 -86.68301 
L 232.891072 -83.656719 
L 231.212131 -80.871041 
L 229.533189 -78.363464 
L 227.854248 -76.158408 
L 226.175306 -74.276401 
L 224.496365 -72.74126 
L 222.817424 -71.58092 
L 221.138482 -70.820569 
L 219.459541 -70.471261 
L 217.780599 -70.519994 
L 216.101658 -70.926489 
L 214.422717 -71.628168 
L 212.743775 -72.551049 
L 211.064834 -73.62245 
L 209.385892 -74.781807 
L 207.706951 -75.98709 
L 206.028009 -77.215462 
L 204.349068 -78.457992 
L 202.670127 -79.710024 
L 200.991185 -80.960686 
L 199.312244 -82.185867 
L 197.633302 -83.347641 
L 195.954361 -84.399937 
L 194.27542 -85.296927 
L 192.596478 -85.999415 
L 190.917537 -86.476515 
L 189.238595 -86.703674 
L 187.559654 -86.660784 
L 185.880712 -86.333272 
L 184.201771 -85.715455 
L 182.52283 -84.812325 
L 180.843888 -83.636537 
L 179.164947 -82.201484 
L 177.486005 -80.515397 
L 175.807064 -78.581778 
L 174.128122 -76.407516 
L 172.449181 -74.014695 
L 170.77024 -71.449396 
L 169.091298 -68.782315 
L 167.412357 -66.10054 
L 165.733415 -63.494174 
L 164.054474 -61.04319 
L 162.375533 -58.808589 
L 160.696591 -56.828997 
L 159.01765 -55.121197 
L 157.338708 -53.682287 
L 155.659767 -52.492086 
L 153.980825 -51.516203 
L 152.301884 -50.711091 
L 150.622943 -50.031659 
L 148.944001 -49.439946 
L 147.26506 -48.911641 
L 145.586118 -48.437378 
L 143.907177 -48.018136 
L 142.228236 -47.657243 
L 140.549294 -47.353263 
L 138.870353 -47.097251 
L 137.191411 -46.87503 
L 135.51247 -46.672313 
L 133.833528 -46.479431 
L 132.154587 -46.293363 
L 130.475646 -46.116777 
L 128.796704 -45.955218 
L 127.117763 -45.814026 
L 125.438821 -45.696101 
L 123.75988 -45.601001 
L 122.080939 -45.525356 
L 120.401997 -45.464237 
L 118.723056 -45.41286 
L 117.044114 -45.36792 
L 115.365173 -45.328025 
L 113.686231 -45.293185 
L 112.00729 -45.26379 
L 110.328349 -45.239722 
L 108.649407 -45.220072 
L 106.970466 -45.20346 
L 105.291524 -45.188563 
L 103.612583 -45.174467 
L 101.933641 -45.160709 
L 100.2547 -45.147158 
L 98.575759 -45.133917 
L 96.896817 -45.121275 
L 95.217876 -45.109583 
L 93.538934 -45.099016 
L 91.859993 -45.089361 
L 90.181052 -45.080035 
L 88.50211 -45.070423 
L 86.823169 -45.060341 
L 85.144227 -45.050332 
L 83.465286 -45.041566 
L 81.786344 -45.035382 
L 80.107403 -45.032691 
L 78.428462 -45.033548 
L 76.74952 -45.037075 
L 75.070579 -45.041784 
L 73.391637 -45.046148 
L 71.712696 -45.049209 
L 70.033755 -45.050952 
L 68.354813 -45.052231 
L 66.675872 -45.054258 
L 64.99693 -45.057845 
L 63.317989 -45.062792 
L 61.639047 -45.067768 
L 59.960106 -45.070789 
L 58.281165 -45.070078 
L 56.602223 -45.06486 
L 54.923282 -45.055687 
L 53.24434 -45.044163 
L 51.565399 -45.032279 
L 49.886457 -45.021717 
L 48.207516 -45.013441 
L 46.528575 -45.007649 
L 44.849633 -45.004001 
L 43.170692 -45.001923 
L 41.49175 -45.000849 
L 39.812809 -45.000344 
z
" style="stroke: #3333cc; stroke-width: 2.5"/>
    </defs>
    <g clip-path="url(#pe245ccded6)">
     <use xlink:href="#m4e19292116" x="0" y="180" style="fill: #3333cc; fill-opacity: 0.08; stroke: #3333cc; stroke-width: 2.5"/>
    </g>
   </g>
   <g id="FillBetweenPolyCollection_4">
    <defs>
     <path id="mca5fc380e9" d="M 53.233606 -45.000187 
L 53.233606 -45 
L 54.835875 -45 
L 56.438143 -45 
L 58.040411 -45 
L 59.642679 -45 
L 61.244948 -45 
L 62.847216 -45 
L 64.449484 -45 
L 66.051753 -45 
L 67.654021 -45 
L 69.256289 -45 
L 70.858557 -45 
L 72.460826 -45 
L 74.063094 -45 
L 75.665362 -45 
L 77.267631 -45 
L 78.869899 -45 
L 80.472167 -45 
L 82.074436 -45 
L 83.676704 -45 
L 85.278972 -45 
L 86.88124 -45 
L 88.483509 -45 
L 90.085777 -45 
L 91.688045 -45 
L 93.290314 -45 
L 94.892582 -45 
L 96.49485 -45 
L 98.097118 -45 
L 99.699387 -45 
L 101.301655 -45 
L 102.903923 -45 
L 104.506192 -45 
L 106.10846 -45 
L 107.710728 -45 
L 109.312997 -45 
L 110.915265 -45 
L 112.517533 -45 
L 114.119801 -45 
L 115.72207 -45 
L 117.324338 -45 
L 118.926606 -45 
L 120.528875 -45 
L 122.131143 -45 
L 123.733411 -45 
L 125.335679 -45 
L 126.937948 -45 
L 128.540216 -45 
L 130.142484 -45 
L 131.744753 -45 
L 133.347021 -45 
L 134.949289 -45 
L 136.551558 -45 
L 138.153826 -45 
L 139.756094 -45 
L 141.358362 -45 
L 142.960631 -45 
L 144.562899 -45 
L 146.165167 -45 
L 147.767436 -45 
L 149.369704 -45 
L 150.971972 -45 
L 152.574241 -45 
L 154.176509 -45 
L 155.778777 -45 
L 157.381045 -45 
L 158.983314 -45 
L 160.585582 -45 
L 162.18785 -45 
L 163.790119 -45 
L 165.392387 -45 
L 166.994655 -45 
L 168.596923 -45 
L 170.199192 -45 
L 171.80146 -45 
L 173.403728 -45 
L 175.005997 -45 
L 176.608265 -45 
L 178.210533 -45 
L 179.812802 -45 
L 181.41507 -45 
L 183.017338 -45 
L 184.619606 -45 
L 186.221875 -45 
L 187.824143 -45 
L 189.426411 -45 
L 191.02868 -45 
L 192.630948 -45 
L 194.233216 -45 
L 195.835484 -45 
L 197.437753 -45 
L 199.040021 -45 
L 200.642289 -45 
L 202.244558 -45 
L 203.846826 -45 
L 205.449094 -45 
L 207.051363 -45 
L 208.653631 -45 
L 210.255899 -45 
L 211.858167 -45 
L 213.460436 -45 
L 215.062704 -45 
L 216.664972 -45 
L 218.267241 -45 
L 219.869509 -45 
L 221.471777 -45 
L 223.074045 -45 
L 224.676314 -45 
L 226.278582 -45 
L 227.88085 -45 
L 229.483119 -45 
L 231.085387 -45 
L 232.687655 -45 
L 234.289924 -45 
L 235.892192 -45 
L 237.49446 -45 
L 239.096728 -45 
L 240.698997 -45 
L 242.301265 -45 
L 243.903533 -45 
L 245.505802 -45 
L 247.10807 -45 
L 248.710338 -45 
L 250.312606 -45 
L 251.914875 -45 
L 253.517143 -45 
L 255.119411 -45 
L 256.72168 -45 
L 258.323948 -45 
L 259.926216 -45 
L 261.528485 -45 
L 263.130753 -45 
L 264.733021 -45 
L 266.335289 -45 
L 267.937558 -45 
L 269.539826 -45 
L 271.142094 -45 
L 272.744363 -45 
L 274.346631 -45 
L 275.948899 -45 
L 277.551167 -45 
L 279.153436 -45 
L 280.755704 -45 
L 282.357972 -45 
L 283.960241 -45 
L 285.562509 -45 
L 287.164777 -45 
L 288.767046 -45 
L 290.369314 -45 
L 291.971582 -45 
L 293.57385 -45 
L 295.176119 -45 
L 296.778387 -45 
L 298.380655 -45 
L 299.982924 -45 
L 301.585192 -45 
L 303.18746 -45 
L 304.789728 -45 
L 306.391997 -45 
L 307.994265 -45 
L 309.596533 -45 
L 311.198802 -45 
L 312.80107 -45 
L 314.403338 -45 
L 316.005607 -45 
L 317.607875 -45 
L 319.210143 -45 
L 320.812411 -45 
L 322.41468 -45 
L 324.016948 -45 
L 325.619216 -45 
L 327.221485 -45 
L 328.823753 -45 
L 330.426021 -45 
L 332.02829 -45 
L 333.630558 -45 
L 335.232826 -45 
L 336.835094 -45 
L 338.437363 -45 
L 340.039631 -45 
L 341.641899 -45 
L 343.244168 -45 
L 344.846436 -45 
L 346.448704 -45 
L 348.050972 -45 
L 349.653241 -45 
L 351.255509 -45 
L 352.857777 -45 
L 354.460046 -45 
L 356.062314 -45 
L 357.664582 -45 
L 359.266851 -45 
L 360.869119 -45 
L 362.471387 -45 
L 364.073655 -45 
L 365.675924 -45 
L 367.278192 -45 
L 368.88046 -45 
L 370.482729 -45 
L 372.084997 -45 
L 372.084997 -45.007399 
L 372.084997 -45.007399 
L 370.482729 -45.018547 
L 368.88046 -45.04188 
L 367.278192 -45.085193 
L 365.675924 -45.156138 
L 364.073655 -45.257837 
L 362.471387 -45.383682 
L 360.869119 -45.514594 
L 359.266851 -45.622214 
L 357.664582 -45.678543 
L 356.062314 -45.667845 
L 354.460046 -45.593963 
L 352.857777 -45.478458 
L 351.255509 -45.350805 
L 349.653241 -45.236734 
L 348.050972 -45.150926 
L 346.448704 -45.096369 
L 344.846436 -45.068349 
L 343.244168 -45.059441 
L 341.641899 -45.062865 
L 340.039631 -45.073672 
L 338.437363 -45.088594 
L 336.835094 -45.105651 
L 335.232826 -45.124129 
L 333.630558 -45.144915 
L 332.02829 -45.170836 
L 330.426021 -45.206665 
L 328.823753 -45.258597 
L 327.221485 -45.33338 
L 325.619216 -45.437599 
L 324.016948 -45.577824 
L 322.41468 -45.762084 
L 320.812411 -46.002285 
L 319.210143 -46.316264 
L 317.607875 -46.727984 
L 316.005607 -47.265296 
L 314.403338 -47.95631 
L 312.80107 -48.826572 
L 311.198802 -49.898851 
L 309.596533 -51.19549 
L 307.994265 -52.741048 
L 306.391997 -54.562009 
L 304.789728 -56.68156 
L 303.18746 -59.110391 
L 301.585192 -61.83753 
L 299.982924 -64.826387 
L 298.380655 -68.019359 
L 296.778387 -71.350231 
L 295.176119 -74.759201 
L 293.57385 -78.203405 
L 291.971582 -81.657939 
L 290.369314 -85.107999 
L 288.767046 -88.538786 
L 287.164777 -91.931568 
L 285.562509 -95.269628 
L 283.960241 -98.549123 
L 282.357972 -101.784407 
L 280.755704 -105.000444 
L 279.153436 -108.214975 
L 277.551167 -111.421322 
L 275.948899 -114.582212 
L 274.346631 -117.636984 
L 272.744363 -120.516714 
L 271.142094 -123.159499 
L 269.539826 -125.52037 
L 267.937558 -127.573106 
L 266.335289 -129.303679 
L 264.733021 -130.698532 
L 263.130753 -131.734902 
L 261.528485 -132.380787 
L 259.926216 -132.606098 
L 258.323948 -132.397565 
L 256.72168 -131.76596 
L 255.119411 -130.740128 
L 253.517143 -129.353581 
L 251.914875 -127.635446 
L 250.312606 -125.611977 
L 248.710338 -123.313158 
L 247.10807 -120.773485 
L 245.505802 -118.023003 
L 243.903533 -115.076925 
L 242.301265 -111.936334 
L 240.698997 -108.603771 
L 239.096728 -105.104337 
L 237.49446 -101.49783 
L 235.892192 -97.874033 
L 234.289924 -94.334559 
L 232.687655 -90.971344 
L 231.085387 -87.850831 
L 229.483119 -85.007416 
L 227.88085 -82.445109 
L 226.278582 -80.144993 
L 224.676314 -78.076763 
L 223.074045 -76.212586 
L 221.471777 -74.539556 
L 219.869509 -73.065442 
L 218.267241 -71.814262 
L 216.664972 -70.813421 
L 215.062704 -70.079019 
L 213.460436 -69.606545 
L 211.858167 -69.37021 
L 210.255899 -69.32904 
L 208.653631 -69.435243 
L 207.051363 -69.641444 
L 205.449094 -69.906192 
L 203.846826 -70.198822 
L 202.244558 -70.503822 
L 200.642289 -70.822858 
L 199.040021 -71.171906 
L 197.437753 -71.572576 
L 195.835484 -72.039471 
L 194.233216 -72.567591 
L 192.630948 -73.124876 
L 191.02868 -73.654719 
L 189.426411 -74.090428 
L 187.824143 -74.377779 
L 186.221875 -74.495557 
L 184.619606 -74.462346 
L 183.017338 -74.32392 
L 181.41507 -74.12656 
L 179.812802 -73.890473 
L 178.210533 -73.597726 
L 176.608265 -73.200576 
L 175.005997 -72.644332 
L 173.403728 -71.891561 
L 171.80146 -70.935648 
L 170.199192 -69.79961 
L 168.596923 -68.524678 
L 166.994655 -67.156995 
L 165.392387 -65.738701 
L 163.790119 -64.304733 
L 162.18785 -62.882988 
L 160.585582 -61.494922 
L 158.983314 -60.155157 
L 157.381045 -58.870538 
L 155.778777 -57.640158 
L 154.176509 -56.45779 
L 152.574241 -55.316941 
L 150.971972 -54.216779 
L 149.369704 -53.165808 
L 147.767436 -52.180778 
L 146.165167 -51.280965 
L 144.562899 -50.480961 
L 142.960631 -49.785988 
L 141.358362 -49.191747 
L 139.756094 -48.687638 
L 138.153826 -48.260357 
L 136.551558 -47.895764 
L 134.949289 -47.579234 
L 133.347021 -47.296231 
L 131.744753 -47.034299 
L 130.142484 -46.785853 
L 128.540216 -46.549886 
L 126.937948 -46.331137 
L 125.335679 -46.136883 
L 123.733411 -45.97302 
L 122.131143 -45.841439 
L 120.528875 -45.739648 
L 118.926606 -45.662228 
L 117.324338 -45.602836 
L 115.72207 -45.555671 
L 114.119801 -45.516058 
L 112.517533 -45.480494 
L 110.915265 -45.446545 
L 109.312997 -45.412707 
L 107.710728 -45.378171 
L 106.10846 -45.342521 
L 104.506192 -45.305591 
L 102.903923 -45.26762 
L 101.301655 -45.229523 
L 99.699387 -45.192912 
L 98.097118 -45.159685 
L 96.49485 -45.131423 
L 94.892582 -45.108972 
L 93.290314 -45.092393 
L 91.688045 -45.081094 
L 90.085777 -45.073945 
L 88.483509 -45.069367 
L 86.88124 -45.065613 
L 85.278972 -45.061258 
L 83.676704 -45.055676 
L 82.074436 -45.049139 
L 80.472167 -45.042461 
L 78.869899 -45.03647 
L 77.267631 -45.031643 
L 75.665362 -45.028085 
L 74.063094 -45.025656 
L 72.460826 -45.024072 
L 70.858557 -45.022907 
L 69.256289 -45.021618 
L 67.654021 -45.01971 
L 66.051753 -45.016956 
L 64.449484 -45.013524 
L 62.847216 -45.009885 
L 61.244948 -45.006573 
L 59.642679 -45.003959 
L 58.040411 -45.002155 
L 56.438143 -45.001058 
L 54.835875 -45.000469 
L 53.233606 -45.000187 
z
" style="stroke: #6495ed; stroke-width: 2.5"/>
    </defs>
    <g clip-path="url(#pe245ccded6)">
     <use xlink:href="#mca5fc380e9" x="0" y="180" style="fill: #6495ed; fill-opacity: 0.08; stroke: #6495ed; stroke-width: 2.5"/>
    </g>
   </g>
   <g id="FillBetweenPolyCollection_5">
    <path d="M -2.265449 134.99989 
L -2.265449 135 
L -0.401252 135 
L 1.462945 135 
L 3.327142 135 
L 5.19134 135 
L 7.055537 135 
L 8.919734 135 
L 10.783931 135 
L 12.648128 135 
L 14.512325 135 
L 16.376522 135 
L 18.240719 135 
L 20.104916 135 
L 21.969113 135 
L 23.83331 135 
L 25.697507 135 
L 27.561704 135 
L 29.425901 135 
L 31.290098 135 
L 33.154295 135 
L 35.018493 135 
L 36.88269 135 
L 38.746887 135 
L 40.611084 135 
L 42.475281 135 
L 44.339478 135 
L 46.203675 135 
L 48.067872 135 
L 49.932069 135 
L 51.796266 135 
L 53.660463 135 
L 55.52466 135 
L 57.388857 135 
L 59.253054 135 
L 61.117251 135 
L 62.981449 135 
L 64.845646 135 
L 66.709843 135 
L 68.57404 135 
L 70.438237 135 
L 72.302434 135 
L 74.166631 135 
L 76.030828 135 
L 77.895025 135 
L 79.759222 135 
L 81.623419 135 
L 83.487616 135 
L 85.351813 135 
L 87.21601 135 
L 89.080207 135 
L 90.944404 135 
L 92.808602 135 
L 94.672799 135 
L 96.536996 135 
L 98.401193 135 
L 100.26539 135 
L 102.129587 135 
L 103.993784 135 
L 105.857981 135 
L 107.722178 135 
L 109.586375 135 
L 111.450572 135 
L 113.314769 135 
L 115.178966 135 
L 117.043163 135 
L 118.90736 135 
L 120.771557 135 
L 122.635755 135 
L 124.499952 135 
L 126.364149 135 
L 128.228346 135 
L 130.092543 135 
L 131.95674 135 
L 133.820937 135 
L 135.685134 135 
L 137.549331 135 
L 139.413528 135 
L 141.277725 135 
L 143.141922 135 
L 145.006119 135 
L 146.870316 135 
L 148.734513 135 
L 150.598711 135 
L 152.462908 135 
L 154.327105 135 
L 156.191302 135 
L 158.055499 135 
L 159.919696 135 
L 161.783893 135 
L 163.64809 135 
L 165.512287 135 
L 167.376484 135 
L 169.240681 135 
L 171.104878 135 
L 172.969075 135 
L 174.833272 135 
L 176.697469 135 
L 178.561666 135 
L 180.425864 135 
L 182.290061 135 
L 184.154258 135 
L 186.018455 135 
L 187.882652 135 
L 189.746849 135 
L 191.611046 135 
L 193.475243 135 
L 195.33944 135 
L 197.203637 135 
L 199.067834 135 
L 200.932031 135 
L 202.796228 135 
L 204.660425 135 
L 206.524622 135 
L 208.388819 135 
L 210.253017 135 
L 212.117214 135 
L 213.981411 135 
L 215.845608 135 
L 217.709805 135 
L 219.574002 135 
L 221.438199 135 
L 223.302396 135 
L 225.166593 135 
L 227.03079 135 
L 228.894987 135 
L 230.759184 135 
L 232.623381 135 
L 234.487578 135 
L 236.351775 135 
L 238.215973 135 
L 240.08017 135 
L 241.944367 135 
L 243.808564 135 
L 245.672761 135 
L 247.536958 135 
L 249.401155 135 
L 251.265352 135 
L 253.129549 135 
L 254.993746 135 
L 256.857943 135 
L 258.72214 135 
L 260.586337 135 
L 262.450534 135 
L 264.314731 135 
L 266.178928 135 
L 268.043126 135 
L 269.907323 135 
L 271.77152 135 
L 273.635717 135 
L 275.499914 135 
L 277.364111 135 
L 279.228308 135 
L 281.092505 135 
L 282.956702 135 
L 284.820899 135 
L 286.685096 135 
L 288.549293 135 
L 290.41349 135 
L 292.277687 135 
L 294.141884 135 
L 296.006081 135 
L 297.870279 135 
L 299.734476 135 
L 301.598673 135 
L 303.46287 135 
L 305.327067 135 
L 307.191264 135 
L 309.055461 135 
L 310.919658 135 
L 312.783855 135 
L 314.648052 135 
L 316.512249 135 
L 318.376446 135 
L 320.240643 135 
L 322.10484 135 
L 323.969037 135 
L 325.833234 135 
L 327.697432 135 
L 329.561629 135 
L 331.425826 135 
L 333.290023 135 
L 335.15422 135 
L 337.018417 135 
L 338.882614 135 
L 340.746811 135 
L 342.611008 135 
L 344.475205 135 
L 346.339402 135 
L 348.203599 135 
L 350.067796 135 
L 351.931993 135 
L 353.79619 135 
L 355.660388 135 
L 357.524585 135 
L 359.388782 135 
L 361.252979 135 
L 363.117176 135 
L 364.981373 135 
L 366.84557 135 
L 368.709767 135 
L 368.709767 134.992752 
L 368.709767 134.992752 
L 366.84557 134.972264 
L 364.981373 134.916244 
L 363.117176 134.800367 
L 361.252979 134.62431 
L 359.388782 134.441426 
L 357.524585 134.342989 
L 355.660388 134.386808 
L 353.79619 134.542771 
L 351.931993 134.722969 
L 350.067796 134.857395 
L 348.203599 134.929733 
L 346.339402 134.957423 
L 344.475205 134.961198 
L 342.611008 134.953796 
L 340.746811 134.94237 
L 338.882614 134.931224 
L 337.018417 134.921215 
L 335.15422 134.90951 
L 333.290023 134.891827 
L 331.425826 134.864035 
L 329.561629 134.820238 
L 327.697432 134.750751 
L 325.833234 134.645409 
L 323.969037 134.499673 
L 322.10484 134.314591 
L 320.240643 134.088651 
L 318.376446 133.809797 
L 316.512249 133.453583 
L 314.648052 132.985851 
L 312.783855 132.368065 
L 310.919658 131.56447 
L 309.055461 130.547291 
L 307.191264 129.295766 
L 305.327067 127.78791 
L 303.46287 125.990784 
L 301.598673 123.864518 
L 299.734476 121.386481 
L 297.870279 118.568908 
L 296.006081 115.435657 
L 294.141884 111.975326 
L 292.277687 108.134832 
L 290.41349 103.876775 
L 288.549293 99.237556 
L 286.685096 94.319961 
L 284.820899 89.242577 
L 282.956702 84.106695 
L 281.092505 78.983509 
L 279.228308 73.906429 
L 277.364111 68.902793 
L 275.499914 64.060598 
L 273.635717 59.53093 
L 271.77152 55.432785 
L 269.907323 51.7779 
L 268.043126 48.505306 
L 266.178928 45.576381 
L 264.314731 43.049014 
L 262.450534 41.079807 
L 260.586337 39.824764 
L 258.72214 39.305212 
L 256.857943 39.396725 
L 254.993746 39.974005 
L 253.129549 41.026857 
L 251.265352 42.600631 
L 249.401155 44.668183 
L 247.536958 47.113272 
L 245.672761 49.82323 
L 243.808564 52.763609 
L 241.944367 55.968529 
L 240.08017 59.477902 
L 238.215973 63.282848 
L 236.351775 67.31758 
L 234.487578 71.492845 
L 232.623381 75.725237 
L 230.759184 79.927145 
L 228.894987 83.996873 
L 227.03079 87.856159 
L 225.166593 91.481203 
L 223.302396 94.866526 
L 221.438199 97.979721 
L 219.574002 100.780624 
L 217.709805 103.26928 
L 215.845608 105.48504 
L 213.981411 107.456659 
L 212.117214 109.177143 
L 210.253017 110.634336 
L 208.388819 111.836259 
L 206.524622 112.792627 
L 204.660425 113.504112 
L 202.796228 113.989058 
L 200.932031 114.296036 
L 199.067834 114.473552 
L 197.203637 114.539619 
L 195.33944 114.487788 
L 193.475243 114.315908 
L 191.611046 114.045614 
L 189.746849 113.719185 
L 187.882652 113.388372 
L 186.018455 113.113255 
L 184.154258 112.962915 
L 182.290061 112.997707 
L 180.425864 113.238117 
L 178.561666 113.649969 
L 176.697469 114.166952 
L 174.833272 114.740209 
L 172.969075 115.375171 
L 171.104878 116.116734 
L 169.240681 116.994745 
L 167.376484 117.992326 
L 165.512287 119.070394 
L 163.64809 120.203156 
L 161.783893 121.372576 
L 159.919696 122.547925 
L 158.055499 123.70189 
L 156.191302 124.838904 
L 154.327105 125.977946 
L 152.462908 127.109305 
L 150.598711 128.189596 
L 148.734513 129.174564 
L 146.870316 130.039891 
L 145.006119 130.777977 
L 143.141922 131.393038 
L 141.277725 131.899893 
L 139.413528 132.320249 
L 137.549331 132.679887 
L 135.685134 133.005263 
L 133.820937 133.311117 
L 131.95674 133.58942 
L 130.092543 133.82074 
L 128.228346 134.000151 
L 126.364149 134.144771 
L 124.499952 134.274089 
L 122.635755 134.390896 
L 120.771557 134.484929 
L 118.90736 134.549189 
L 117.043163 134.588839 
L 115.178966 134.617124 
L 113.314769 134.645172 
L 111.450572 134.675264 
L 109.586375 134.703247 
L 107.722178 134.725792 
L 105.857981 134.743301 
L 103.993784 134.757834 
L 102.129587 134.772249 
L 100.26539 134.790576 
L 98.401193 134.815182 
L 96.536996 134.843279 
L 94.672799 134.86893 
L 92.808602 134.888782 
L 90.944404 134.903789 
L 89.080207 134.915355 
L 87.21601 134.92236 
L 85.351813 134.923264 
L 83.487616 134.919771 
L 81.623419 134.916731 
L 79.759222 134.918182 
L 77.895025 134.92405 
L 76.030828 134.931079 
L 74.166631 134.93656 
L 72.302434 134.940599 
L 70.438237 134.945062 
L 68.57404 134.951258 
L 66.709843 134.958984 
L 64.845646 134.967225 
L 62.981449 134.975037 
L 61.117251 134.981542 
L 59.253054 134.985478 
L 57.388857 134.985541 
L 55.52466 134.981725 
L 53.660463 134.976276 
L 51.796266 134.972798 
L 49.932069 134.973882 
L 48.067872 134.979319 
L 46.203675 134.986567 
L 44.339478 134.992823 
L 42.475281 134.996643 
L 40.611084 134.997939 
L 38.746887 134.997068 
L 36.88269 134.994328 
L 35.018493 134.990236 
L 33.154295 134.985846 
L 31.290098 134.982396 
L 29.425901 134.980559 
L 27.561704 134.980103 
L 25.697507 134.980212 
L 23.83331 134.979985 
L 21.969113 134.978846 
L 20.104916 134.977021 
L 18.240719 134.975808 
L 16.376522 134.976663 
L 14.512325 134.979571 
L 12.648128 134.98298 
L 10.783931 134.985702 
L 8.919734 134.98808 
L 7.055537 134.99093 
L 5.19134 134.994161 
L 3.327142 134.996948 
L 1.462945 134.998727 
L -0.401252 134.999579 
L -2.265449 134.99989 
z
" clip-path="url(#pe245ccded6)" style="fill: #ba2182; fill-opacity: 0.08; stroke: #ba2182; stroke-width: 2.5"/>
   </g>
   <g id="FillBetweenPolyCollection_6">
    <path d="M -19.703635 134.999679 
L -19.703635 135 
L -17.719728 135 
L -15.735822 135 
L -13.751916 135 
L -11.76801 135 
L -9.784103 135 
L -7.800197 135 
L -5.816291 135 
L -3.832385 135 
L -1.848478 135 
L 0.135428 135 
L 2.119334 135 
L 4.10324 135 
L 6.087147 135 
L 8.071053 135 
L 10.054959 135 
L 12.038865 135 
L 14.022771 135 
L 16.006678 135 
L 17.990584 135 
L 19.97449 135 
L 21.958396 135 
L 23.942303 135 
L 25.926209 135 
L 27.910115 135 
L 29.894021 135 
L 31.877928 135 
L 33.861834 135 
L 35.84574 135 
L 37.829646 135 
L 39.813553 135 
L 41.797459 135 
L 43.781365 135 
L 45.765271 135 
L 47.749178 135 
L 49.733084 135 
L 51.71699 135 
L 53.700896 135 
L 55.684803 135 
L 57.668709 135 
L 59.652615 135 
L 61.636521 135 
L 63.620428 135 
L 65.604334 135 
L 67.58824 135 
L 69.572146 135 
L 71.556053 135 
L 73.539959 135 
L 75.523865 135 
L 77.507771 135 
L 79.491678 135 
L 81.475584 135 
L 83.45949 135 
L 85.443396 135 
L 87.427302 135 
L 89.411209 135 
L 91.395115 135 
L 93.379021 135 
L 95.362927 135 
L 97.346834 135 
L 99.33074 135 
L 101.314646 135 
L 103.298552 135 
L 105.282459 135 
L 107.266365 135 
L 109.250271 135 
L 111.234177 135 
L 113.218084 135 
L 115.20199 135 
L 117.185896 135 
L 119.169802 135 
L 121.153709 135 
L 123.137615 135 
L 125.121521 135 
L 127.105427 135 
L 129.089334 135 
L 131.07324 135 
L 133.057146 135 
L 135.041052 135 
L 137.024959 135 
L 139.008865 135 
L 140.992771 135 
L 142.976677 135 
L 144.960584 135 
L 146.94449 135 
L 148.928396 135 
L 150.912302 135 
L 152.896209 135 
L 154.880115 135 
L 156.864021 135 
L 158.847927 135 
L 160.831833 135 
L 162.81574 135 
L 164.799646 135 
L 166.783552 135 
L 168.767458 135 
L 170.751365 135 
L 172.735271 135 
L 174.719177 135 
L 176.703083 135 
L 178.68699 135 
L 180.670896 135 
L 182.654802 135 
L 184.638708 135 
L 186.622615 135 
L 188.606521 135 
L 190.590427 135 
L 192.574333 135 
L 194.55824 135 
L 196.542146 135 
L 198.526052 135 
L 200.509958 135 
L 202.493865 135 
L 204.477771 135 
L 206.461677 135 
L 208.445583 135 
L 210.42949 135 
L 212.413396 135 
L 214.397302 135 
L 216.381208 135 
L 218.365115 135 
L 220.349021 135 
L 222.332927 135 
L 224.316833 135 
L 226.30074 135 
L 228.284646 135 
L 230.268552 135 
L 232.252458 135 
L 234.236364 135 
L 236.220271 135 
L 238.204177 135 
L 240.188083 135 
L 242.171989 135 
L 244.155896 135 
L 246.139802 135 
L 248.123708 135 
L 250.107614 135 
L 252.091521 135 
L 254.075427 135 
L 256.059333 135 
L 258.043239 135 
L 260.027146 135 
L 262.011052 135 
L 263.994958 135 
L 265.978864 135 
L 267.962771 135 
L 269.946677 135 
L 271.930583 135 
L 273.914489 135 
L 275.898396 135 
L 277.882302 135 
L 279.866208 135 
L 281.850114 135 
L 283.834021 135 
L 285.817927 135 
L 287.801833 135 
L 289.785739 135 
L 291.769646 135 
L 293.753552 135 
L 295.737458 135 
L 297.721364 135 
L 299.705271 135 
L 301.689177 135 
L 303.673083 135 
L 305.656989 135 
L 307.640895 135 
L 309.624802 135 
L 311.608708 135 
L 313.592614 135 
L 315.57652 135 
L 317.560427 135 
L 319.544333 135 
L 321.528239 135 
L 323.512145 135 
L 325.496052 135 
L 327.479958 135 
L 329.463864 135 
L 331.44777 135 
L 333.431677 135 
L 335.415583 135 
L 337.399489 135 
L 339.383395 135 
L 341.367302 135 
L 343.351208 135 
L 345.335114 135 
L 347.31902 135 
L 349.302927 135 
L 351.286833 135 
L 353.270739 135 
L 355.254645 135 
L 357.238552 135 
L 359.222458 135 
L 361.206364 135 
L 363.19027 135 
L 365.174177 135 
L 367.158083 135 
L 369.141989 135 
L 371.125895 135 
L 373.109802 135 
L 375.093708 135 
L 375.093708 134.986499 
L 375.093708 134.986499 
L 373.109802 134.965315 
L 371.125895 134.920246 
L 369.141989 134.835862 
L 367.158083 134.697648 
L 365.174177 134.501506 
L 363.19027 134.264379 
L 361.206364 134.02838 
L 359.222458 133.851332 
L 357.238552 133.784465 
L 355.254645 133.84847 
L 353.270739 134.022986 
L 351.286833 134.256594 
L 349.302927 134.490494 
L 347.31902 134.68083 
L 345.335114 134.808258 
L 343.351208 134.873787 
L 341.367302 134.887833 
L 339.383395 134.860144 
L 337.399489 134.79406 
L 335.415583 134.684359 
L 333.431677 134.516366 
L 331.44777 134.265099 
L 329.463864 133.895234 
L 327.479958 133.363807 
L 325.496052 132.626684 
L 323.512145 131.647215 
L 321.528239 130.403044 
L 319.544333 128.886909 
L 317.560427 127.100321 
L 315.57652 125.043765 
L 313.592614 122.710113 
L 311.608708 120.086505 
L 309.624802 117.164427 
L 307.640895 113.952216 
L 305.656989 110.483124 
L 303.673083 106.815803 
L 301.689177 103.028247 
L 299.705271 99.206998 
L 297.721364 95.432121 
L 295.737458 91.759981 
L 293.753552 88.211126 
L 291.769646 84.773694 
L 289.785739 81.42678 
L 287.801833 78.174276 
L 285.817927 75.068795 
L 283.834021 72.208329 
L 281.850114 69.705072 
L 279.866208 67.644032 
L 277.882302 66.054506 
L 275.898396 64.907404 
L 273.914489 64.135313 
L 271.930583 63.661811 
L 269.946677 63.42602 
L 267.962771 63.393913 
L 265.978864 63.55529 
L 263.994958 63.912316 
L 262.011052 64.469452 
L 260.027146 65.231827 
L 258.043239 66.21076 
L 256.059333 67.428351 
L 254.075427 68.914386 
L 252.091521 70.695992 
L 250.107614 72.786103 
L 248.123708 75.176276 
L 246.139802 77.835236 
L 244.155896 80.711303 
L 242.171989 83.736327 
L 240.188083 86.829985 
L 238.204177 89.904555 
L 236.220271 92.870657 
L 234.236364 95.643907 
L 232.252458 98.151675 
L 230.268552 100.338613 
L 228.284646 102.169125 
L 226.30074 103.625169 
L 224.316833 104.699933 
L 222.332927 105.391349 
L 220.349021 105.700745 
L 218.365115 105.638575 
L 216.381208 105.233052 
L 214.397302 104.534259 
L 212.413396 103.609451 
L 210.42949 102.532546 
L 208.445583 101.375232 
L 206.461677 100.204331 
L 204.477771 99.082999 
L 202.493865 98.069826 
L 200.509958 97.213791 
L 198.526052 96.549704 
L 196.542146 96.100268 
L 194.55824 95.885002 
L 192.574333 95.929323 
L 190.590427 96.266497 
L 188.606521 96.931399 
L 186.622615 97.951086 
L 184.638708 99.337075 
L 182.654802 101.07954 
L 180.670896 103.141394 
L 178.68699 105.453672 
L 176.703083 107.918427 
L 174.719177 110.424279 
L 172.735271 112.871707 
L 170.751365 115.196252 
L 168.767458 117.376487 
L 166.783552 119.422102 
L 164.799646 121.350016 
L 162.81574 123.163251 
L 160.831833 124.843809 
L 158.847927 126.360706 
L 156.864021 127.685827 
L 154.880115 128.808047 
L 152.896209 129.739126 
L 150.912302 130.509849 
L 148.928396 131.159356 
L 146.94449 131.723125 
L 144.960584 132.22489 
L 142.976677 132.674919 
L 140.992771 133.07355 
L 139.008865 133.416777 
L 137.024959 133.701081 
L 135.041052 133.926301 
L 133.057146 134.096693 
L 131.07324 134.220623 
L 129.089334 134.309201 
L 127.105427 134.374098 
L 125.121521 134.425066 
L 123.137615 134.46792 
L 121.153709 134.503892 
L 119.169802 134.530978 
L 117.185896 134.546974 
L 115.20199 134.552708 
L 113.218084 134.553375 
L 111.234177 134.556897 
L 109.250271 134.570265 
L 107.266365 134.596293 
L 105.282459 134.632815 
L 103.298552 134.674512 
L 101.314646 134.715794 
L 99.33074 134.7529 
L 97.346834 134.784361 
L 95.362927 134.810317 
L 93.379021 134.831657 
L 91.395115 134.849531 
L 89.411209 134.865126 
L 87.427302 134.879416 
L 85.443396 134.892874 
L 83.45949 134.905405 
L 81.475584 134.916639 
L 79.491678 134.926375 
L 77.507771 134.934829 
L 75.523865 134.942476 
L 73.539959 134.949628 
L 71.556053 134.956104 
L 69.572146 134.961282 
L 67.58824 134.964574 
L 65.604334 134.966017 
L 63.620428 134.966499 
L 61.636521 134.967411 
L 59.652615 134.969919 
L 57.668709 134.974352 
L 55.684803 134.98011 
L 53.700896 134.986083 
L 51.71699 134.991251 
L 49.733084 134.995067 
L 47.749178 134.997508 
L 45.765271 134.998873 
L 43.781365 134.999544 
L 41.797459 134.999835 
L 39.813553 134.999946 
L 37.829646 134.999984 
L 35.84574 134.999996 
L 33.861834 134.999999 
L 31.877928 135 
L 29.894021 135 
L 27.910115 135 
L 25.926209 134.999999 
L 23.942303 134.999997 
L 21.958396 134.99999 
L 19.97449 134.999964 
L 17.990584 134.999886 
L 16.006678 134.999672 
L 14.022771 134.99916 
L 12.038865 134.998073 
L 10.054959 134.996043 
L 8.071053 134.992726 
L 6.087147 134.988032 
L 4.10324 134.982376 
L 2.119334 134.97677 
L 0.135428 134.972595 
L -1.848478 134.971063 
L -3.832385 134.972652 
L -5.816291 134.976867 
L -7.800197 134.982485 
L -9.784103 134.988131 
L -11.76801 134.992801 
L -13.751916 134.996092 
L -15.735822 134.998101 
L -17.719728 134.999174 
L -19.703635 134.999679 
z
" clip-path="url(#pe245ccded6)" style="fill: #cf8eb6; fill-opacity: 0.08; stroke: #cf8eb6; stroke-width: 2.5"/>
   </g>
   <g id="patch_3">
    <path d="M 72 135 
L 72 18 
" style="fill: none; stroke: #262626; stroke-width: 1.25; stroke-linejoin: miter; stroke-linecap: square"/>
   </g>
   <g id="patch_4">
    <path d="M 342 135 
L 342 18 
" style="fill: none; stroke: #262626; stroke-width: 1.25; stroke-linejoin: miter; stroke-linecap: square"/>
   </g>
   <g id="patch_5">
    <path d="M 72 135 
L 342 135 
" style="fill: none; stroke: #262626; stroke-width: 1.25; stroke-linejoin: miter; stroke-linecap: square"/>
   </g>
   <g id="patch_6">
    <path d="M 72 18 
L 342 18 
" style="fill: none; stroke: #262626; stroke-width: 1.25; stroke-linejoin: miter; stroke-linecap: square"/>
   </g>
   <g id="text_12">
    <!-- 9SA -->
    <g style="fill: #262626" transform="translate(195.659063 12) scale(0.12 -0.12)">
     <defs>
      <path id="ArialMT-39" d="M 350 1059 
L 891 1109 
Q 959 728 1153 556 
Q 1347 384 1650 384 
Q 1909 384 2104 503 
Q 2300 622 2425 820 
Q 2550 1019 2634 1356 
Q 2719 1694 2719 2044 
Q 2719 2081 2716 2156 
Q 2547 1888 2255 1720 
Q 1963 1553 1622 1553 
Q 1053 1553 659 1965 
Q 266 2378 266 3053 
Q 266 3750 677 4175 
Q 1088 4600 1706 4600 
Q 2153 4600 2523 4359 
Q 2894 4119 3086 3673 
Q 3278 3228 3278 2384 
Q 3278 1506 3087 986 
Q 2897 466 2520 194 
Q 2144 -78 1638 -78 
Q 1100 -78 759 220 
Q 419 519 350 1059 
z
M 2653 3081 
Q 2653 3566 2395 3850 
Q 2138 4134 1775 4134 
Q 1400 4134 1122 3828 
Q 844 3522 844 3034 
Q 844 2597 1108 2323 
Q 1372 2050 1759 2050 
Q 2150 2050 2401 2323 
Q 2653 2597 2653 3081 
z
" transform="scale(0.015625)"/>
      <path id="ArialMT-53" d="M 288 1472 
L 859 1522 
Q 900 1178 1048 958 
Q 1197 738 1509 602 
Q 1822 466 2213 466 
Q 2559 466 2825 569 
Q 3091 672 3220 851 
Q 3350 1031 3350 1244 
Q 3350 1459 3225 1620 
Q 3100 1781 2813 1891 
Q 2628 1963 1997 2114 
Q 1366 2266 1113 2400 
Q 784 2572 623 2826 
Q 463 3081 463 3397 
Q 463 3744 659 4045 
Q 856 4347 1234 4503 
Q 1613 4659 2075 4659 
Q 2584 4659 2973 4495 
Q 3363 4331 3572 4012 
Q 3781 3694 3797 3291 
L 3216 3247 
Q 3169 3681 2898 3903 
Q 2628 4125 2100 4125 
Q 1550 4125 1298 3923 
Q 1047 3722 1047 3438 
Q 1047 3191 1225 3031 
Q 1400 2872 2139 2705 
Q 2878 2538 3153 2413 
Q 3553 2228 3743 1945 
Q 3934 1663 3934 1294 
Q 3934 928 3725 604 
Q 3516 281 3123 101 
Q 2731 -78 2241 -78 
Q 1619 -78 1198 103 
Q 778 284 539 648 
Q 300 1013 288 1472 
z
" transform="scale(0.015625)"/>
     </defs>
     <use xlink:href="#ArialMT-39"/>
     <use xlink:href="#ArialMT-53" transform="translate(55.615234 0)"/>
     <use xlink:href="#ArialMT-41" transform="translate(122.314453 0)"/>
    </g>
   </g>
   <g id="legend_1">
    <g id="patch_7">
     <path d="M 359.9 30.407656 
L 381.9 30.407656 
L 381.9 22.707656 
L 359.9 22.707656 
z
" style="fill: #bbbbbb; fill-opacity: 0.08; stroke: #bbbbbb; stroke-width: 2.5; stroke-linejoin: miter"/>
    </g>
    <g id="text_13">
     <!-- Secondary none -->
     <g style="fill: #262626" transform="translate(390.7 30.407656) scale(0.11 -0.11)">
      <defs>
       <path id="ArialMT-63" d="M 2588 1216 
L 3141 1144 
Q 3050 572 2676 248 
Q 2303 -75 1759 -75 
Q 1078 -75 664 370 
Q 250 816 250 1647 
Q 250 2184 428 2587 
Q 606 2991 970 3192 
Q 1334 3394 1763 3394 
Q 2303 3394 2647 3120 
Q 2991 2847 3088 2344 
L 2541 2259 
Q 2463 2594 2264 2762 
Q 2066 2931 1784 2931 
Q 1359 2931 1093 2626 
Q 828 2322 828 1663 
Q 828 994 1084 691 
Q 1341 388 1753 388 
Q 2084 388 2306 591 
Q 2528 794 2588 1216 
z
" transform="scale(0.015625)"/>
       <path id="ArialMT-6f" d="M 213 1659 
Q 213 2581 725 3025 
Q 1153 3394 1769 3394 
Q 2453 3394 2887 2945 
Q 3322 2497 3322 1706 
Q 3322 1066 3130 698 
Q 2938 331 2570 128 
Q 2203 -75 1769 -75 
Q 1072 -75 642 372 
Q 213 819 213 1659 
z
M 791 1659 
Q 791 1022 1069 705 
Q 1347 388 1769 388 
Q 2188 388 2466 706 
Q 2744 1025 2744 1678 
Q 2744 2294 2464 2611 
Q 2184 2928 1769 2928 
Q 1347 2928 1069 2612 
Q 791 2297 791 1659 
z
" transform="scale(0.015625)"/>
       <path id="ArialMT-64" d="M 2575 0 
L 2575 419 
Q 2259 -75 1647 -75 
Q 1250 -75 917 144 
Q 584 363 401 755 
Q 219 1147 219 1656 
Q 219 2153 384 2558 
Q 550 2963 881 3178 
Q 1213 3394 1622 3394 
Q 1922 3394 2156 3267 
Q 2391 3141 2538 2938 
L 2538 4581 
L 3097 4581 
L 3097 0 
L 2575 0 
z
M 797 1656 
Q 797 1019 1065 703 
Q 1334 388 1700 388 
Q 2069 388 2326 689 
Q 2584 991 2584 1609 
Q 2584 2291 2321 2609 
Q 2059 2928 1675 2928 
Q 1300 2928 1048 2622 
Q 797 2316 797 1656 
z
" transform="scale(0.015625)"/>
       <path id="ArialMT-61" d="M 2588 409 
Q 2275 144 1986 34 
Q 1697 -75 1366 -75 
Q 819 -75 525 192 
Q 231 459 231 875 
Q 231 1119 342 1320 
Q 453 1522 633 1644 
Q 813 1766 1038 1828 
Q 1203 1872 1538 1913 
Q 2219 1994 2541 2106 
Q 2544 2222 2544 2253 
Q 2544 2597 2384 2738 
Q 2169 2928 1744 2928 
Q 1347 2928 1158 2789 
Q 969 2650 878 2297 
L 328 2372 
Q 403 2725 575 2942 
Q 747 3159 1072 3276 
Q 1397 3394 1825 3394 
Q 2250 3394 2515 3294 
Q 2781 3194 2906 3042 
Q 3031 2891 3081 2659 
Q 3109 2516 3109 2141 
L 3109 1391 
Q 3109 606 3145 398 
Q 3181 191 3288 0 
L 2700 0 
Q 2613 175 2588 409 
z
M 2541 1666 
Q 2234 1541 1622 1453 
Q 1275 1403 1131 1340 
Q 988 1278 909 1158 
Q 831 1038 831 891 
Q 831 666 1001 516 
Q 1172 366 1500 366 
Q 1825 366 2078 508 
Q 2331 650 2450 897 
Q 2541 1088 2541 1459 
L 2541 1666 
z
" transform="scale(0.015625)"/>
       <path id="ArialMT-72" d="M 416 0 
L 416 3319 
L 922 3319 
L 922 2816 
Q 1116 3169 1280 3281 
Q 1444 3394 1641 3394 
Q 1925 3394 2219 3213 
L 2025 2691 
Q 1819 2813 1613 2813 
Q 1428 2813 1281 2702 
Q 1134 2591 1072 2394 
Q 978 2094 978 1738 
L 978 0 
L 416 0 
z
" transform="scale(0.015625)"/>
       <path id="ArialMT-20" transform="scale(0.015625)"/>
      </defs>
      <use xlink:href="#ArialMT-53"/>
      <use xlink:href="#ArialMT-65" transform="translate(66.699219 0)"/>
      <use xlink:href="#ArialMT-63" transform="translate(122.314453 0)"/>
      <use xlink:href="#ArialMT-6f" transform="translate(172.314453 0)"/>
      <use xlink:href="#ArialMT-6e" transform="translate(227.929688 0)"/>
      <use xlink:href="#ArialMT-64" transform="translate(283.544922 0)"/>
      <use xlink:href="#ArialMT-61" transform="translate(339.160156 0)"/>
      <use xlink:href="#ArialMT-72" transform="translate(394.775391 0)"/>
      <use xlink:href="#ArialMT-79" transform="translate(428.076172 0)"/>
      <use xlink:href="#ArialMT-20" transform="translate(478.076172 0)"/>
      <use xlink:href="#ArialMT-6e" transform="translate(505.859375 0)"/>
      <use xlink:href="#ArialMT-6f" transform="translate(561.474609 0)"/>
      <use xlink:href="#ArialMT-6e" transform="translate(617.089844 0)"/>
      <use xlink:href="#ArialMT-65" transform="translate(672.705078 0)"/>
     </g>
    </g>
    <g id="patch_8">
     <path d="M 359.9 46.096406 
L 381.9 46.096406 
L 381.9 38.396406 
L 359.9 38.396406 
z
" style="fill: #707070; fill-opacity: 0.08; stroke: #707070; stroke-width: 2.5; stroke-linejoin: miter"/>
    </g>
    <g id="text_14">
     <!-- NIL none -->
     <g style="fill: #262626" transform="translate(390.7 46.096406) scale(0.11 -0.11)">
      <defs>
       <path id="ArialMT-49" d="M 597 0 
L 597 4581 
L 1203 4581 
L 1203 0 
L 597 0 
z
" transform="scale(0.015625)"/>
       <path id="ArialMT-4c" d="M 469 0 
L 469 4581 
L 1075 4581 
L 1075 541 
L 3331 541 
L 3331 0 
L 469 0 
z
" transform="scale(0.015625)"/>
      </defs>
      <use xlink:href="#ArialMT-4e"/>
      <use xlink:href="#ArialMT-49" transform="translate(72.216797 0)"/>
      <use xlink:href="#ArialMT-4c" transform="translate(100 0)"/>
      <use xlink:href="#ArialMT-20" transform="translate(151.865234 0)"/>
      <use xlink:href="#ArialMT-6e" transform="translate(179.648438 0)"/>
      <use xlink:href="#ArialMT-6f" transform="translate(235.263672 0)"/>
      <use xlink:href="#ArialMT-6e" transform="translate(290.878906 0)"/>
      <use xlink:href="#ArialMT-65" transform="translate(346.494141 0)"/>
     </g>
    </g>
    <g id="patch_9">
     <path d="M 359.9 61.65625 
L 381.9 61.65625 
L 381.9 53.95625 
L 359.9 53.95625 
z
" style="fill: #3333cc; fill-opacity: 0.08; stroke: #3333cc; stroke-width: 2.5; stroke-linejoin: miter"/>
    </g>
    <g id="text_15">
     <!-- NIL SDD none -->
     <g style="fill: #262626" transform="translate(390.7 61.65625) scale(0.11 -0.11)">
      <use xlink:href="#ArialMT-4e"/>
      <use xlink:href="#ArialMT-49" transform="translate(72.216797 0)"/>
      <use xlink:href="#ArialMT-4c" transform="translate(100 0)"/>
      <use xlink:href="#ArialMT-20" transform="translate(151.865234 0)"/>
      <use xlink:href="#ArialMT-53" transform="translate(179.648438 0)"/>
      <use xlink:href="#ArialMT-44" transform="translate(246.347656 0)"/>
      <use xlink:href="#ArialMT-44" transform="translate(318.564453 0)"/>
      <use xlink:href="#ArialMT-20" transform="translate(390.78125 0)"/>
      <use xlink:href="#ArialMT-6e" transform="translate(418.564453 0)"/>
      <use xlink:href="#ArialMT-6f" transform="translate(474.179688 0)"/>
      <use xlink:href="#ArialMT-6e" transform="translate(529.794922 0)"/>
      <use xlink:href="#ArialMT-65" transform="translate(585.410156 0)"/>
     </g>
    </g>
    <g id="patch_10">
     <path d="M 359.9 77.216094 
L 381.9 77.216094 
L 381.9 69.516094 
L 359.9 69.516094 
z
" style="fill: #6495ed; fill-opacity: 0.08; stroke: #6495ed; stroke-width: 2.5; stroke-linejoin: miter"/>
    </g>
    <g id="text_16">
     <!-- NIL SDD PMA -->
     <g style="fill: #262626" transform="translate(390.7 77.216094) scale(0.11 -0.11)">
      <defs>
       <path id="ArialMT-50" d="M 494 0 
L 494 4581 
L 2222 4581 
Q 2678 4581 2919 4538 
Q 3256 4481 3484 4323 
Q 3713 4166 3852 3881 
Q 3991 3597 3991 3256 
Q 3991 2672 3619 2267 
Q 3247 1863 2275 1863 
L 1100 1863 
L 1100 0 
L 494 0 
z
M 1100 2403 
L 2284 2403 
Q 2872 2403 3119 2622 
Q 3366 2841 3366 3238 
Q 3366 3525 3220 3729 
Q 3075 3934 2838 4000 
Q 2684 4041 2272 4041 
L 1100 4041 
L 1100 2403 
z
" transform="scale(0.015625)"/>
       <path id="ArialMT-4d" d="M 475 0 
L 475 4581 
L 1388 4581 
L 2472 1338 
Q 2622 884 2691 659 
Q 2769 909 2934 1394 
L 4031 4581 
L 4847 4581 
L 4847 0 
L 4263 0 
L 4263 3834 
L 2931 0 
L 2384 0 
L 1059 3900 
L 1059 0 
L 475 0 
z
" transform="scale(0.015625)"/>
      </defs>
      <use xlink:href="#ArialMT-4e"/>
      <use xlink:href="#ArialMT-49" transform="translate(72.216797 0)"/>
      <use xlink:href="#ArialMT-4c" transform="translate(100 0)"/>
      <use xlink:href="#ArialMT-20" transform="translate(151.865234 0)"/>
      <use xlink:href="#ArialMT-53" transform="translate(179.648438 0)"/>
      <use xlink:href="#ArialMT-44" transform="translate(246.347656 0)"/>
      <use xlink:href="#ArialMT-44" transform="translate(318.564453 0)"/>
      <use xlink:href="#ArialMT-20" transform="translate(390.78125 0)"/>
      <use xlink:href="#ArialMT-50" transform="translate(418.564453 0)"/>
      <use xlink:href="#ArialMT-4d" transform="translate(485.263672 0)"/>
      <use xlink:href="#ArialMT-41" transform="translate(568.564453 0)"/>
     </g>
    </g>
    <g id="patch_11">
     <path d="M 359.9 92.775938 
L 381.9 92.775938 
L 381.9 85.075938 
L 359.9 85.075938 
z
" style="fill: #ba2182; fill-opacity: 0.08; stroke: #ba2182; stroke-width: 2.5; stroke-linejoin: miter"/>
    </g>
    <g id="text_17">
     <!-- NIL RIDD none -->
     <g style="fill: #262626" transform="translate(390.7 92.775938) scale(0.11 -0.11)">
      <defs>
       <path id="ArialMT-52" d="M 503 0 
L 503 4581 
L 2534 4581 
Q 3147 4581 3465 4457 
Q 3784 4334 3975 4021 
Q 4166 3709 4166 3331 
Q 4166 2844 3850 2509 
Q 3534 2175 2875 2084 
Q 3116 1969 3241 1856 
Q 3506 1613 3744 1247 
L 4541 0 
L 3778 0 
L 3172 953 
Q 2906 1366 2734 1584 
Q 2563 1803 2427 1890 
Q 2291 1978 2150 2013 
Q 2047 2034 1813 2034 
L 1109 2034 
L 1109 0 
L 503 0 
z
M 1109 2559 
L 2413 2559 
Q 2828 2559 3062 2645 
Q 3297 2731 3419 2920 
Q 3541 3109 3541 3331 
Q 3541 3656 3305 3865 
Q 3069 4075 2559 4075 
L 1109 4075 
L 1109 2559 
z
" transform="scale(0.015625)"/>
      </defs>
      <use xlink:href="#ArialMT-4e"/>
      <use xlink:href="#ArialMT-49" transform="translate(72.216797 0)"/>
      <use xlink:href="#ArialMT-4c" transform="translate(100 0)"/>
      <use xlink:href="#ArialMT-20" transform="translate(151.865234 0)"/>
      <use xlink:href="#ArialMT-52" transform="translate(179.648438 0)"/>
      <use xlink:href="#ArialMT-49" transform="translate(251.865234 0)"/>
      <use xlink:href="#ArialMT-44" transform="translate(279.648438 0)"/>
      <use xlink:href="#ArialMT-44" transform="translate(351.865234 0)"/>
      <use xlink:href="#ArialMT-20" transform="translate(424.082031 0)"/>
      <use xlink:href="#ArialMT-6e" transform="translate(451.865234 0)"/>
      <use xlink:href="#ArialMT-6f" transform="translate(507.480469 0)"/>
      <use xlink:href="#ArialMT-6e" transform="translate(563.095703 0)"/>
      <use xlink:href="#ArialMT-65" transform="translate(618.710938 0)"/>
     </g>
    </g>
    <g id="patch_12">
     <path d="M 359.9 108.335781 
L 381.9 108.335781 
L 381.9 100.635781 
L 359.9 100.635781 
z
" style="fill: #cf8eb6; fill-opacity: 0.08; stroke: #cf8eb6; stroke-width: 2.5; stroke-linejoin: miter"/>
    </g>
    <g id="text_18">
     <!-- NIL RIDD MEKi -->
     <g style="fill: #262626" transform="translate(390.7 108.335781) scale(0.11 -0.11)">
      <defs>
       <path id="ArialMT-45" d="M 506 0 
L 506 4581 
L 3819 4581 
L 3819 4041 
L 1113 4041 
L 1113 2638 
L 3647 2638 
L 3647 2100 
L 1113 2100 
L 1113 541 
L 3925 541 
L 3925 0 
L 506 0 
z
" transform="scale(0.015625)"/>
       <path id="ArialMT-4b" d="M 469 0 
L 469 4581 
L 1075 4581 
L 1075 2309 
L 3350 4581 
L 4172 4581 
L 2250 2725 
L 4256 0 
L 3456 0 
L 1825 2319 
L 1075 1588 
L 1075 0 
L 469 0 
z
" transform="scale(0.015625)"/>
      </defs>
      <use xlink:href="#ArialMT-4e"/>
      <use xlink:href="#ArialMT-49" transform="translate(72.216797 0)"/>
      <use xlink:href="#ArialMT-4c" transform="translate(100 0)"/>
      <use xlink:href="#ArialMT-20" transform="translate(151.865234 0)"/>
      <use xlink:href="#ArialMT-52" transform="translate(179.648438 0)"/>
      <use xlink:href="#ArialMT-49" transform="translate(251.865234 0)"/>
      <use xlink:href="#ArialMT-44" transform="translate(279.648438 0)"/>
      <use xlink:href="#ArialMT-44" transform="translate(351.865234 0)"/>
      <use xlink:href="#ArialMT-20" transform="translate(424.082031 0)"/>
      <use xlink:href="#ArialMT-4d" transform="translate(451.865234 0)"/>
      <use xlink:href="#ArialMT-45" transform="translate(535.166016 0)"/>
      <use xlink:href="#ArialMT-4b" transform="translate(601.865234 0)"/>
      <use xlink:href="#ArialMT-69" transform="translate(668.564453 0)"/>
     </g>
    </g>
   </g>
  </g>
 </g>
 <defs>
  <clipPath id="pe245ccded6">
   <rect x="72" y="18" width="270" height="117"/>
  </clipPath>
 </defs>
</svg>
