<?xml version="1.0" encoding="utf-8" standalone="no"?>
<!DOCTYPE svg PUBLIC "-//W3C//DTD SVG 1.1//EN"
  "http://www.w3.org/Graphics/SVG/1.1/DTD/svg11.dtd">
<svg xmlns:xlink="http://www.w3.org/1999/xlink" width="360pt" height="180pt" viewBox="0 0 360 180" xmlns="http://www.w3.org/2000/svg" version="1.1">
 <metadata>
  <rdf:RDF xmlns:dc="http://purl.org/dc/elements/1.1/" xmlns:cc="http://creativecommons.org/ns#" xmlns:rdf="http://www.w3.org/1999/02/22-rdf-syntax-ns#">
   <cc:Work>
    <dc:type rdf:resource="http://purl.org/dc/dcmitype/StillImage"/>
    <dc:date>2025-07-28T17:17:29.940182</dc:date>
    <dc:format>image/svg+xml</dc:format>
    <dc:creator>
     <cc:Agent>
      <dc:title>Matplotlib v3.10.3, https://matplotlib.org/</dc:title>
     </cc:Agent>
    </dc:creator>
   </cc:Work>
  </rdf:RDF>
 </metadata>
 <defs>
  <style type="text/css">*{stroke-linejoin: round; stroke-linecap: butt}</style>
 </defs>
 <g id="figure_1">
  <g id="patch_1">
   <path d="M 0 180 
L 360 180 
L 360 0 
L 0 0 
z
" style="fill: #ffffff"/>
  </g>
  <g id="axes_1">
   <g id="patch_2">
    <path d="M 72 135 
L 342 135 
L 342 18 
L 72 18 
z
" style="fill: #ffffff"/>
   </g>
   <g id="matplotlib.axis_1">
    <g id="xtick_1">
     <g id="line2d_1">
      <defs>
       <path id="m5b4eb05b80" d="M 0 0 
L 0 6 
" style="stroke: #262626; stroke-width: 1.25"/>
      </defs>
      <g>
       <use xlink:href="#m5b4eb05b80" x="100.742621" y="135" style="fill: #262626; stroke: #262626; stroke-width: 1.25"/>
      </g>
     </g>
     <g id="text_1">
      <!-- NIL -->
      <g style="fill: #262626" transform="translate(92.184105 152.373594) scale(0.11 -0.11)">
       <defs>
        <path id="ArialMT-4e" d="M 488 0 
L 488 4581 
L 1109 4581 
L 3516 984 
L 3516 4581 
L 4097 4581 
L 4097 0 
L 3475 0 
L 1069 3600 
L 1069 0 
L 488 0 
z
" transform="scale(0.015625)"/>
        <path id="ArialMT-49" d="M 597 0 
L 597 4581 
L 1203 4581 
L 1203 0 
L 597 0 
z
" transform="scale(0.015625)"/>
        <path id="ArialMT-4c" d="M 469 0 
L 469 4581 
L 1075 4581 
L 1075 541 
L 3331 541 
L 3331 0 
L 469 0 
z
" transform="scale(0.015625)"/>
       </defs>
       <use xlink:href="#ArialMT-4e"/>
       <use xlink:href="#ArialMT-49" transform="translate(72.216797 0)"/>
       <use xlink:href="#ArialMT-4c" transform="translate(100 0)"/>
      </g>
      <!-- none -->
      <g style="fill: #262626" transform="translate(88.508559 164.008156) scale(0.11 -0.11)">
       <defs>
        <path id="ArialMT-6e" d="M 422 0 
L 422 3319 
L 928 3319 
L 928 2847 
Q 1294 3394 1984 3394 
Q 2284 3394 2536 3286 
Q 2788 3178 2913 3003 
Q 3038 2828 3088 2588 
Q 3119 2431 3119 2041 
L 3119 0 
L 2556 0 
L 2556 2019 
Q 2556 2363 2490 2533 
Q 2425 2703 2258 2804 
Q 2091 2906 1866 2906 
Q 1506 2906 1245 2678 
Q 984 2450 984 1813 
L 984 0 
L 422 0 
z
" transform="scale(0.015625)"/>
        <path id="ArialMT-6f" d="M 213 1659 
Q 213 2581 725 3025 
Q 1153 3394 1769 3394 
Q 2453 3394 2887 2945 
Q 3322 2497 3322 1706 
Q 3322 1066 3130 698 
Q 2938 331 2570 128 
Q 2203 -75 1769 -75 
Q 1072 -75 642 372 
Q 213 819 213 1659 
z
M 791 1659 
Q 791 1022 1069 705 
Q 1347 388 1769 388 
Q 2188 388 2466 706 
Q 2744 1025 2744 1678 
Q 2744 2294 2464 2611 
Q 2184 2928 1769 2928 
Q 1347 2928 1069 2612 
Q 791 2297 791 1659 
z
" transform="scale(0.015625)"/>
        <path id="ArialMT-65" d="M 2694 1069 
L 3275 997 
Q 3138 488 2766 206 
Q 2394 -75 1816 -75 
Q 1088 -75 661 373 
Q 234 822 234 1631 
Q 234 2469 665 2931 
Q 1097 3394 1784 3394 
Q 2450 3394 2872 2941 
Q 3294 2488 3294 1666 
Q 3294 1616 3291 1516 
L 816 1516 
Q 847 969 1125 678 
Q 1403 388 1819 388 
Q 2128 388 2347 550 
Q 2566 713 2694 1069 
z
M 847 1978 
L 2700 1978 
Q 2663 2397 2488 2606 
Q 2219 2931 1791 2931 
Q 1403 2931 1139 2672 
Q 875 2413 847 1978 
z
" transform="scale(0.015625)"/>
       </defs>
       <use xlink:href="#ArialMT-6e"/>
       <use xlink:href="#ArialMT-6f" transform="translate(55.615234 0)"/>
       <use xlink:href="#ArialMT-6e" transform="translate(111.230469 0)"/>
       <use xlink:href="#ArialMT-65" transform="translate(166.845703 0)"/>
      </g>
     </g>
    </g>
    <g id="xtick_2">
     <g id="line2d_2">
      <g>
       <use xlink:href="#m5b4eb05b80" x="153.871311" y="135" style="fill: #262626; stroke: #262626; stroke-width: 1.25"/>
      </g>
     </g>
     <g id="text_2">
      <!-- NIL -->
      <g style="fill: #262626" transform="translate(145.312795 152.373594) scale(0.11 -0.11)">
       <use xlink:href="#ArialMT-4e"/>
       <use xlink:href="#ArialMT-49" transform="translate(72.216797 0)"/>
       <use xlink:href="#ArialMT-4c" transform="translate(100 0)"/>
      </g>
      <!-- SDD -->
      <g style="fill: #262626" transform="translate(142.258576 164.008156) scale(0.11 -0.11)">
       <defs>
        <path id="ArialMT-53" d="M 288 1472 
L 859 1522 
Q 900 1178 1048 958 
Q 1197 738 1509 602 
Q 1822 466 2213 466 
Q 2559 466 2825 569 
Q 3091 672 3220 851 
Q 3350 1031 3350 1244 
Q 3350 1459 3225 1620 
Q 3100 1781 2813 1891 
Q 2628 1963 1997 2114 
Q 1366 2266 1113 2400 
Q 784 2572 623 2826 
Q 463 3081 463 3397 
Q 463 3744 659 4045 
Q 856 4347 1234 4503 
Q 1613 4659 2075 4659 
Q 2584 4659 2973 4495 
Q 3363 4331 3572 4012 
Q 3781 3694 3797 3291 
L 3216 3247 
Q 3169 3681 2898 3903 
Q 2628 4125 2100 4125 
Q 1550 4125 1298 3923 
Q 1047 3722 1047 3438 
Q 1047 3191 1225 3031 
Q 1400 2872 2139 2705 
Q 2878 2538 3153 2413 
Q 3553 2228 3743 1945 
Q 3934 1663 3934 1294 
Q 3934 928 3725 604 
Q 3516 281 3123 101 
Q 2731 -78 2241 -78 
Q 1619 -78 1198 103 
Q 778 284 539 648 
Q 300 1013 288 1472 
z
" transform="scale(0.015625)"/>
        <path id="ArialMT-44" d="M 494 0 
L 494 4581 
L 2072 4581 
Q 2606 4581 2888 4516 
Q 3281 4425 3559 4188 
Q 3922 3881 4101 3404 
Q 4281 2928 4281 2316 
Q 4281 1794 4159 1391 
Q 4038 988 3847 723 
Q 3656 459 3429 307 
Q 3203 156 2883 78 
Q 2563 0 2147 0 
L 494 0 
z
M 1100 541 
L 2078 541 
Q 2531 541 2789 625 
Q 3047 709 3200 863 
Q 3416 1078 3536 1442 
Q 3656 1806 3656 2325 
Q 3656 3044 3420 3430 
Q 3184 3816 2847 3947 
Q 2603 4041 2063 4041 
L 1100 4041 
L 1100 541 
z
" transform="scale(0.015625)"/>
       </defs>
       <use xlink:href="#ArialMT-53"/>
       <use xlink:href="#ArialMT-44" transform="translate(66.699219 0)"/>
       <use xlink:href="#ArialMT-44" transform="translate(138.916016 0)"/>
      </g>
      <!-- none -->
      <g style="fill: #262626" transform="translate(141.637248 175.642719) scale(0.11 -0.11)">
       <use xlink:href="#ArialMT-6e"/>
       <use xlink:href="#ArialMT-6f" transform="translate(55.615234 0)"/>
       <use xlink:href="#ArialMT-6e" transform="translate(111.230469 0)"/>
       <use xlink:href="#ArialMT-65" transform="translate(166.845703 0)"/>
      </g>
     </g>
    </g>
    <g id="xtick_3">
     <g id="line2d_3">
      <g>
       <use xlink:href="#m5b4eb05b80" x="207" y="135" style="fill: #262626; stroke: #262626; stroke-width: 1.25"/>
      </g>
     </g>
     <g id="text_3">
      <!-- NIL -->
      <g style="fill: #262626" transform="translate(198.441484 152.373594) scale(0.11 -0.11)">
       <use xlink:href="#ArialMT-4e"/>
       <use xlink:href="#ArialMT-49" transform="translate(72.216797 0)"/>
       <use xlink:href="#ArialMT-4c" transform="translate(100 0)"/>
      </g>
      <!-- SDD -->
      <g style="fill: #262626" transform="translate(195.387266 164.008156) scale(0.11 -0.11)">
       <use xlink:href="#ArialMT-53"/>
       <use xlink:href="#ArialMT-44" transform="translate(66.699219 0)"/>
       <use xlink:href="#ArialMT-44" transform="translate(138.916016 0)"/>
      </g>
      <!-- PMA -->
      <g style="fill: #262626" transform="translate(195.081328 175.642719) scale(0.11 -0.11)">
       <defs>
        <path id="ArialMT-50" d="M 494 0 
L 494 4581 
L 2222 4581 
Q 2678 4581 2919 4538 
Q 3256 4481 3484 4323 
Q 3713 4166 3852 3881 
Q 3991 3597 3991 3256 
Q 3991 2672 3619 2267 
Q 3247 1863 2275 1863 
L 1100 1863 
L 1100 0 
L 494 0 
z
M 1100 2403 
L 2284 2403 
Q 2872 2403 3119 2622 
Q 3366 2841 3366 3238 
Q 3366 3525 3220 3729 
Q 3075 3934 2838 4000 
Q 2684 4041 2272 4041 
L 1100 4041 
L 1100 2403 
z
" transform="scale(0.015625)"/>
        <path id="ArialMT-4d" d="M 475 0 
L 475 4581 
L 1388 4581 
L 2472 1338 
Q 2622 884 2691 659 
Q 2769 909 2934 1394 
L 4031 4581 
L 4847 4581 
L 4847 0 
L 4263 0 
L 4263 3834 
L 2931 0 
L 2384 0 
L 1059 3900 
L 1059 0 
L 475 0 
z
" transform="scale(0.015625)"/>
        <path id="ArialMT-41" d="M -9 0 
L 1750 4581 
L 2403 4581 
L 4278 0 
L 3588 0 
L 3053 1388 
L 1138 1388 
L 634 0 
L -9 0 
z
M 1313 1881 
L 2866 1881 
L 2388 3150 
Q 2169 3728 2063 4100 
Q 1975 3659 1816 3225 
L 1313 1881 
z
" transform="scale(0.015625)"/>
       </defs>
       <use xlink:href="#ArialMT-50"/>
       <use xlink:href="#ArialMT-4d" transform="translate(66.699219 0)"/>
       <use xlink:href="#ArialMT-41" transform="translate(150 0)"/>
      </g>
     </g>
    </g>
    <g id="xtick_4">
     <g id="line2d_4">
      <g>
       <use xlink:href="#m5b4eb05b80" x="260.128689" y="135" style="fill: #262626; stroke: #262626; stroke-width: 1.25"/>
      </g>
     </g>
     <g id="text_4">
      <!-- NIL -->
      <g style="fill: #262626" transform="translate(251.570174 152.373594) scale(0.11 -0.11)">
       <use xlink:href="#ArialMT-4e"/>
       <use xlink:href="#ArialMT-49" transform="translate(72.216797 0)"/>
       <use xlink:href="#ArialMT-4c" transform="translate(100 0)"/>
      </g>
      <!-- RIDD -->
      <g style="fill: #262626" transform="translate(246.684627 164.008156) scale(0.11 -0.11)">
       <defs>
        <path id="ArialMT-52" d="M 503 0 
L 503 4581 
L 2534 4581 
Q 3147 4581 3465 4457 
Q 3784 4334 3975 4021 
Q 4166 3709 4166 3331 
Q 4166 2844 3850 2509 
Q 3534 2175 2875 2084 
Q 3116 1969 3241 1856 
Q 3506 1613 3744 1247 
L 4541 0 
L 3778 0 
L 3172 953 
Q 2906 1366 2734 1584 
Q 2563 1803 2427 1890 
Q 2291 1978 2150 2013 
Q 2047 2034 1813 2034 
L 1109 2034 
L 1109 0 
L 503 0 
z
M 1109 2559 
L 2413 2559 
Q 2828 2559 3062 2645 
Q 3297 2731 3419 2920 
Q 3541 3109 3541 3331 
Q 3541 3656 3305 3865 
Q 3069 4075 2559 4075 
L 1109 4075 
L 1109 2559 
z
" transform="scale(0.015625)"/>
       </defs>
       <use xlink:href="#ArialMT-52"/>
       <use xlink:href="#ArialMT-49" transform="translate(72.216797 0)"/>
       <use xlink:href="#ArialMT-44" transform="translate(100 0)"/>
       <use xlink:href="#ArialMT-44" transform="translate(172.216797 0)"/>
      </g>
      <!-- none -->
      <g style="fill: #262626" transform="translate(247.894627 175.642719) scale(0.11 -0.11)">
       <use xlink:href="#ArialMT-6e"/>
       <use xlink:href="#ArialMT-6f" transform="translate(55.615234 0)"/>
       <use xlink:href="#ArialMT-6e" transform="translate(111.230469 0)"/>
       <use xlink:href="#ArialMT-65" transform="translate(166.845703 0)"/>
      </g>
     </g>
    </g>
    <g id="xtick_5">
     <g id="line2d_5">
      <g>
       <use xlink:href="#m5b4eb05b80" x="313.257379" y="135" style="fill: #262626; stroke: #262626; stroke-width: 1.25"/>
      </g>
     </g>
     <g id="text_5">
      <!-- NIL -->
      <g style="fill: #262626" transform="translate(304.698863 152.373594) scale(0.11 -0.11)">
       <use xlink:href="#ArialMT-4e"/>
       <use xlink:href="#ArialMT-49" transform="translate(72.216797 0)"/>
       <use xlink:href="#ArialMT-4c" transform="translate(100 0)"/>
      </g>
      <!-- RIDD -->
      <g style="fill: #262626" transform="translate(299.813316 164.008156) scale(0.11 -0.11)">
       <use xlink:href="#ArialMT-52"/>
       <use xlink:href="#ArialMT-49" transform="translate(72.216797 0)"/>
       <use xlink:href="#ArialMT-44" transform="translate(100 0)"/>
       <use xlink:href="#ArialMT-44" transform="translate(172.216797 0)"/>
      </g>
      <!-- MEKi -->
      <g style="fill: #262626" transform="translate(300.116676 175.642719) scale(0.11 -0.11)">
       <defs>
        <path id="ArialMT-45" d="M 506 0 
L 506 4581 
L 3819 4581 
L 3819 4041 
L 1113 4041 
L 1113 2638 
L 3647 2638 
L 3647 2100 
L 1113 2100 
L 1113 541 
L 3925 541 
L 3925 0 
L 506 0 
z
" transform="scale(0.015625)"/>
        <path id="ArialMT-4b" d="M 469 0 
L 469 4581 
L 1075 4581 
L 1075 2309 
L 3350 4581 
L 4172 4581 
L 2250 2725 
L 4256 0 
L 3456 0 
L 1825 2319 
L 1075 1588 
L 1075 0 
L 469 0 
z
" transform="scale(0.015625)"/>
        <path id="ArialMT-69" d="M 425 3934 
L 425 4581 
L 988 4581 
L 988 3934 
L 425 3934 
z
M 425 0 
L 425 3319 
L 988 3319 
L 988 0 
L 425 0 
z
" transform="scale(0.015625)"/>
       </defs>
       <use xlink:href="#ArialMT-4d"/>
       <use xlink:href="#ArialMT-45" transform="translate(83.300781 0)"/>
       <use xlink:href="#ArialMT-4b" transform="translate(150 0)"/>
       <use xlink:href="#ArialMT-69" transform="translate(216.699219 0)"/>
      </g>
     </g>
    </g>
   </g>
   <g id="matplotlib.axis_2">
    <g id="ytick_1">
     <g id="line2d_6">
      <defs>
       <path id="m619b1841fd" d="M 0 0 
L -6 0 
" style="stroke: #262626; stroke-width: 1.25"/>
      </defs>
      <g>
       <use xlink:href="#m619b1841fd" x="72" y="113.86443" style="fill: #262626; stroke: #262626; stroke-width: 1.25"/>
      </g>
     </g>
     <g id="text_6">
      <!-- 1.0 -->
      <g style="fill: #262626" transform="translate(47.21 117.801226) scale(0.11 -0.11)">
       <defs>
        <path id="ArialMT-31" d="M 2384 0 
L 1822 0 
L 1822 3584 
Q 1619 3391 1289 3197 
Q 959 3003 697 2906 
L 697 3450 
Q 1169 3672 1522 3987 
Q 1875 4303 2022 4600 
L 2384 4600 
L 2384 0 
z
" transform="scale(0.015625)"/>
        <path id="ArialMT-2e" d="M 581 0 
L 581 641 
L 1222 641 
L 1222 0 
L 581 0 
z
" transform="scale(0.015625)"/>
        <path id="ArialMT-30" d="M 266 2259 
Q 266 3072 433 3567 
Q 600 4063 929 4331 
Q 1259 4600 1759 4600 
Q 2128 4600 2406 4451 
Q 2684 4303 2865 4023 
Q 3047 3744 3150 3342 
Q 3253 2941 3253 2259 
Q 3253 1453 3087 958 
Q 2922 463 2592 192 
Q 2263 -78 1759 -78 
Q 1097 -78 719 397 
Q 266 969 266 2259 
z
M 844 2259 
Q 844 1131 1108 757 
Q 1372 384 1759 384 
Q 2147 384 2411 759 
Q 2675 1134 2675 2259 
Q 2675 3391 2411 3762 
Q 2147 4134 1753 4134 
Q 1366 4134 1134 3806 
Q 844 3388 844 2259 
z
" transform="scale(0.015625)"/>
       </defs>
       <use xlink:href="#ArialMT-31"/>
       <use xlink:href="#ArialMT-2e" transform="translate(55.615234 0)"/>
       <use xlink:href="#ArialMT-30" transform="translate(83.398438 0)"/>
      </g>
     </g>
    </g>
    <g id="ytick_2">
     <g id="line2d_7">
      <g>
       <use xlink:href="#m619b1841fd" x="72" y="88.687393" style="fill: #262626; stroke: #262626; stroke-width: 1.25"/>
      </g>
     </g>
     <g id="text_7">
      <!-- 1.5 -->
      <g style="fill: #262626" transform="translate(47.21 92.62419) scale(0.11 -0.11)">
       <defs>
        <path id="ArialMT-35" d="M 266 1200 
L 856 1250 
Q 922 819 1161 601 
Q 1400 384 1738 384 
Q 2144 384 2425 690 
Q 2706 997 2706 1503 
Q 2706 1984 2436 2262 
Q 2166 2541 1728 2541 
Q 1456 2541 1237 2417 
Q 1019 2294 894 2097 
L 366 2166 
L 809 4519 
L 3088 4519 
L 3088 3981 
L 1259 3981 
L 1013 2750 
Q 1425 3038 1878 3038 
Q 2478 3038 2890 2622 
Q 3303 2206 3303 1553 
Q 3303 931 2941 478 
Q 2500 -78 1738 -78 
Q 1113 -78 717 272 
Q 322 622 266 1200 
z
" transform="scale(0.015625)"/>
       </defs>
       <use xlink:href="#ArialMT-31"/>
       <use xlink:href="#ArialMT-2e" transform="translate(55.615234 0)"/>
       <use xlink:href="#ArialMT-35" transform="translate(83.398438 0)"/>
      </g>
     </g>
    </g>
    <g id="ytick_3">
     <g id="line2d_8">
      <g>
       <use xlink:href="#m619b1841fd" x="72" y="63.510356" style="fill: #262626; stroke: #262626; stroke-width: 1.25"/>
      </g>
     </g>
     <g id="text_8">
      <!-- 2.0 -->
      <g style="fill: #262626" transform="translate(47.21 67.447153) scale(0.11 -0.11)">
       <defs>
        <path id="ArialMT-32" d="M 3222 541 
L 3222 0 
L 194 0 
Q 188 203 259 391 
Q 375 700 629 1000 
Q 884 1300 1366 1694 
Q 2113 2306 2375 2664 
Q 2638 3022 2638 3341 
Q 2638 3675 2398 3904 
Q 2159 4134 1775 4134 
Q 1369 4134 1125 3890 
Q 881 3647 878 3216 
L 300 3275 
Q 359 3922 746 4261 
Q 1134 4600 1788 4600 
Q 2447 4600 2831 4234 
Q 3216 3869 3216 3328 
Q 3216 3053 3103 2787 
Q 2991 2522 2730 2228 
Q 2469 1934 1863 1422 
Q 1356 997 1212 845 
Q 1069 694 975 541 
L 3222 541 
z
" transform="scale(0.015625)"/>
       </defs>
       <use xlink:href="#ArialMT-32"/>
       <use xlink:href="#ArialMT-2e" transform="translate(55.615234 0)"/>
       <use xlink:href="#ArialMT-30" transform="translate(83.398438 0)"/>
      </g>
     </g>
    </g>
    <g id="ytick_4">
     <g id="line2d_9">
      <g>
       <use xlink:href="#m619b1841fd" x="72" y="38.33332" style="fill: #262626; stroke: #262626; stroke-width: 1.25"/>
      </g>
     </g>
     <g id="text_9">
      <!-- 2.5 -->
      <g style="fill: #262626" transform="translate(47.21 42.270117) scale(0.11 -0.11)">
       <use xlink:href="#ArialMT-32"/>
       <use xlink:href="#ArialMT-2e" transform="translate(55.615234 0)"/>
       <use xlink:href="#ArialMT-35" transform="translate(83.398438 0)"/>
      </g>
     </g>
    </g>
    <g id="text_10">
     <!-- Ngn2.x3HA+ MFI -->
     <g style="fill: #262626" transform="translate(40.684375 122.682187) rotate(-90) scale(0.12 -0.12)">
      <defs>
       <path id="ArialMT-67" d="M 319 -275 
L 866 -356 
Q 900 -609 1056 -725 
Q 1266 -881 1628 -881 
Q 2019 -881 2231 -725 
Q 2444 -569 2519 -288 
Q 2563 -116 2559 434 
Q 2191 0 1641 0 
Q 956 0 581 494 
Q 206 988 206 1678 
Q 206 2153 378 2554 
Q 550 2956 876 3175 
Q 1203 3394 1644 3394 
Q 2231 3394 2613 2919 
L 2613 3319 
L 3131 3319 
L 3131 450 
Q 3131 -325 2973 -648 
Q 2816 -972 2473 -1159 
Q 2131 -1347 1631 -1347 
Q 1038 -1347 672 -1080 
Q 306 -813 319 -275 
z
M 784 1719 
Q 784 1066 1043 766 
Q 1303 466 1694 466 
Q 2081 466 2343 764 
Q 2606 1063 2606 1700 
Q 2606 2309 2336 2618 
Q 2066 2928 1684 2928 
Q 1309 2928 1046 2623 
Q 784 2319 784 1719 
z
" transform="scale(0.015625)"/>
       <path id="ArialMT-78" d="M 47 0 
L 1259 1725 
L 138 3319 
L 841 3319 
L 1350 2541 
Q 1494 2319 1581 2169 
Q 1719 2375 1834 2534 
L 2394 3319 
L 3066 3319 
L 1919 1756 
L 3153 0 
L 2463 0 
L 1781 1031 
L 1600 1309 
L 728 0 
L 47 0 
z
" transform="scale(0.015625)"/>
       <path id="ArialMT-33" d="M 269 1209 
L 831 1284 
Q 928 806 1161 595 
Q 1394 384 1728 384 
Q 2125 384 2398 659 
Q 2672 934 2672 1341 
Q 2672 1728 2419 1979 
Q 2166 2231 1775 2231 
Q 1616 2231 1378 2169 
L 1441 2663 
Q 1497 2656 1531 2656 
Q 1891 2656 2178 2843 
Q 2466 3031 2466 3422 
Q 2466 3731 2256 3934 
Q 2047 4138 1716 4138 
Q 1388 4138 1169 3931 
Q 950 3725 888 3313 
L 325 3413 
Q 428 3978 793 4289 
Q 1159 4600 1703 4600 
Q 2078 4600 2393 4439 
Q 2709 4278 2876 4000 
Q 3044 3722 3044 3409 
Q 3044 3113 2884 2869 
Q 2725 2625 2413 2481 
Q 2819 2388 3044 2092 
Q 3269 1797 3269 1353 
Q 3269 753 2831 336 
Q 2394 -81 1725 -81 
Q 1122 -81 723 278 
Q 325 638 269 1209 
z
" transform="scale(0.015625)"/>
       <path id="ArialMT-48" d="M 513 0 
L 513 4581 
L 1119 4581 
L 1119 2700 
L 3500 2700 
L 3500 4581 
L 4106 4581 
L 4106 0 
L 3500 0 
L 3500 2159 
L 1119 2159 
L 1119 0 
L 513 0 
z
" transform="scale(0.015625)"/>
       <path id="ArialMT-2b" d="M 1603 741 
L 1603 1997 
L 356 1997 
L 356 2522 
L 1603 2522 
L 1603 3769 
L 2134 3769 
L 2134 2522 
L 3381 2522 
L 3381 1997 
L 2134 1997 
L 2134 741 
L 1603 741 
z
" transform="scale(0.015625)"/>
       <path id="ArialMT-20" transform="scale(0.015625)"/>
       <path id="ArialMT-46" d="M 525 0 
L 525 4581 
L 3616 4581 
L 3616 4041 
L 1131 4041 
L 1131 2622 
L 3281 2622 
L 3281 2081 
L 1131 2081 
L 1131 0 
L 525 0 
z
" transform="scale(0.015625)"/>
      </defs>
      <use xlink:href="#ArialMT-4e"/>
      <use xlink:href="#ArialMT-67" transform="translate(72.216797 0)"/>
      <use xlink:href="#ArialMT-6e" transform="translate(127.832031 0)"/>
      <use xlink:href="#ArialMT-32" transform="translate(183.447266 0)"/>
      <use xlink:href="#ArialMT-2e" transform="translate(239.0625 0)"/>
      <use xlink:href="#ArialMT-78" transform="translate(266.845703 0)"/>
      <use xlink:href="#ArialMT-33" transform="translate(316.845703 0)"/>
      <use xlink:href="#ArialMT-48" transform="translate(372.460938 0)"/>
      <use xlink:href="#ArialMT-41" transform="translate(444.677734 0)"/>
      <use xlink:href="#ArialMT-2b" transform="translate(511.376953 0)"/>
      <use xlink:href="#ArialMT-20" transform="translate(569.775391 0)"/>
      <use xlink:href="#ArialMT-4d" transform="translate(597.558594 0)"/>
      <use xlink:href="#ArialMT-46" transform="translate(680.859375 0)"/>
      <use xlink:href="#ArialMT-49" transform="translate(741.943359 0)"/>
     </g>
    </g>
    <g id="text_11">
     <!-- 1e4 -->
     <g style="fill: #262626" transform="translate(72 15) scale(0.11 -0.11)">
      <defs>
       <path id="ArialMT-34" d="M 2069 0 
L 2069 1097 
L 81 1097 
L 81 1613 
L 2172 4581 
L 2631 4581 
L 2631 1613 
L 3250 1613 
L 3250 1097 
L 2631 1097 
L 2631 0 
L 2069 0 
z
M 2069 1613 
L 2069 3678 
L 634 1613 
L 2069 1613 
z
" transform="scale(0.015625)"/>
      </defs>
      <use xlink:href="#ArialMT-31"/>
      <use xlink:href="#ArialMT-65" transform="translate(55.615234 0)"/>
      <use xlink:href="#ArialMT-34" transform="translate(111.230469 0)"/>
     </g>
    </g>
   </g>
   <g id="line2d_10">
    <path d="M 90.116883 102.849627 
L 90.116883 97.195888 
" clip-path="url(#p3dbe7de93e)" style="fill: none; stroke: #ea7676; stroke-width: 1.5; stroke-linecap: round"/>
   </g>
   <g id="line2d_11">
    <path d="M 84.272727 102.849627 
L 95.961039 102.849627 
" clip-path="url(#p3dbe7de93e)" style="fill: none; stroke: #ea7676; stroke-width: 1.5; stroke-linecap: round"/>
   </g>
   <g id="line2d_12">
    <path d="M 84.272727 97.195888 
L 95.961039 97.195888 
" clip-path="url(#p3dbe7de93e)" style="fill: none; stroke: #ea7676; stroke-width: 1.5; stroke-linecap: round"/>
   </g>
   <g id="line2d_13">
    <path d="M 143.245573 103.254354 
L 143.245573 100.187156 
" clip-path="url(#p3dbe7de93e)" style="fill: none; stroke: #ea7676; stroke-width: 1.5; stroke-linecap: round"/>
   </g>
   <g id="line2d_14">
    <path d="M 137.401417 103.254354 
L 149.089728 103.254354 
" clip-path="url(#p3dbe7de93e)" style="fill: none; stroke: #ea7676; stroke-width: 1.5; stroke-linecap: round"/>
   </g>
   <g id="line2d_15">
    <path d="M 137.401417 100.187156 
L 149.089728 100.187156 
" clip-path="url(#p3dbe7de93e)" style="fill: none; stroke: #ea7676; stroke-width: 1.5; stroke-linecap: round"/>
   </g>
   <g id="line2d_16">
    <path d="M 196.374262 121.705805 
L 196.374262 112.762311 
" clip-path="url(#p3dbe7de93e)" style="fill: none; stroke: #ea7676; stroke-width: 1.5; stroke-linecap: round"/>
   </g>
   <g id="line2d_17">
    <path d="M 190.530106 121.705805 
L 202.218418 121.705805 
" clip-path="url(#p3dbe7de93e)" style="fill: none; stroke: #ea7676; stroke-width: 1.5; stroke-linecap: round"/>
   </g>
   <g id="line2d_18">
    <path d="M 190.530106 112.762311 
L 202.218418 112.762311 
" clip-path="url(#p3dbe7de93e)" style="fill: none; stroke: #ea7676; stroke-width: 1.5; stroke-linecap: round"/>
   </g>
   <g id="line2d_19">
    <path d="M 249.502952 124.778881 
L 249.502952 118.706471 
" clip-path="url(#p3dbe7de93e)" style="fill: none; stroke: #ea7676; stroke-width: 1.5; stroke-linecap: round"/>
   </g>
   <g id="line2d_20">
    <path d="M 243.658796 124.778881 
L 255.347107 124.778881 
" clip-path="url(#p3dbe7de93e)" style="fill: none; stroke: #ea7676; stroke-width: 1.5; stroke-linecap: round"/>
   </g>
   <g id="line2d_21">
    <path d="M 243.658796 118.706471 
L 255.347107 118.706471 
" clip-path="url(#p3dbe7de93e)" style="fill: none; stroke: #ea7676; stroke-width: 1.5; stroke-linecap: round"/>
   </g>
   <g id="line2d_22">
    <path d="M 302.631641 103.716937 
L 302.631641 92.236781 
" clip-path="url(#p3dbe7de93e)" style="fill: none; stroke: #ea7676; stroke-width: 1.5; stroke-linecap: round"/>
   </g>
   <g id="line2d_23">
    <path d="M 296.787485 103.716937 
L 308.475797 103.716937 
" clip-path="url(#p3dbe7de93e)" style="fill: none; stroke: #ea7676; stroke-width: 1.5; stroke-linecap: round"/>
   </g>
   <g id="line2d_24">
    <path d="M 296.787485 92.236781 
L 308.475797 92.236781 
" clip-path="url(#p3dbe7de93e)" style="fill: none; stroke: #ea7676; stroke-width: 1.5; stroke-linecap: round"/>
   </g>
   <g id="PathCollection_1">
    <defs>
     <path id="m263c854632" d="M 5.075922 0 
L -5.075922 -0 
" style="stroke: #ea7676; stroke-width: 3.0375"/>
    </defs>
    <g clip-path="url(#p3dbe7de93e)">
     <use xlink:href="#m263c854632" x="90.116883" y="100.022758" style="fill: #ea7676; stroke: #ea7676; stroke-width: 3.0375"/>
     <use xlink:href="#m263c854632" x="143.245573" y="101.720755" style="fill: #ea7676; stroke: #ea7676; stroke-width: 3.0375"/>
     <use xlink:href="#m263c854632" x="196.374262" y="117.234058" style="fill: #ea7676; stroke: #ea7676; stroke-width: 3.0375"/>
     <use xlink:href="#m263c854632" x="249.502952" y="121.742676" style="fill: #ea7676; stroke: #ea7676; stroke-width: 3.0375"/>
     <use xlink:href="#m263c854632" x="302.631641" y="97.976859" style="fill: #ea7676; stroke: #ea7676; stroke-width: 3.0375"/>
    </g>
   </g>
   <g id="line2d_25">
    <path d="M 111.368359 91.732037 
L 111.368359 71.621006 
" clip-path="url(#p3dbe7de93e)" style="fill: none; stroke: #3d9eb0; stroke-width: 1.5; stroke-linecap: round"/>
   </g>
   <g id="line2d_26">
    <path d="M 105.524203 91.732037 
L 117.212515 91.732037 
" clip-path="url(#p3dbe7de93e)" style="fill: none; stroke: #3d9eb0; stroke-width: 1.5; stroke-linecap: round"/>
   </g>
   <g id="line2d_27">
    <path d="M 105.524203 71.621006 
L 117.212515 71.621006 
" clip-path="url(#p3dbe7de93e)" style="fill: none; stroke: #3d9eb0; stroke-width: 1.5; stroke-linecap: round"/>
   </g>
   <g id="line2d_28">
    <path d="M 164.497048 68.931058 
L 164.497048 58.695205 
" clip-path="url(#p3dbe7de93e)" style="fill: none; stroke: #3d9eb0; stroke-width: 1.5; stroke-linecap: round"/>
   </g>
   <g id="line2d_29">
    <path d="M 158.652893 68.931058 
L 170.341204 68.931058 
" clip-path="url(#p3dbe7de93e)" style="fill: none; stroke: #3d9eb0; stroke-width: 1.5; stroke-linecap: round"/>
   </g>
   <g id="line2d_30">
    <path d="M 158.652893 58.695205 
L 170.341204 58.695205 
" clip-path="url(#p3dbe7de93e)" style="fill: none; stroke: #3d9eb0; stroke-width: 1.5; stroke-linecap: round"/>
   </g>
   <g id="line2d_31">
    <path d="M 217.625738 61.957305 
L 217.625738 59.645275 
" clip-path="url(#p3dbe7de93e)" style="fill: none; stroke: #3d9eb0; stroke-width: 1.5; stroke-linecap: round"/>
   </g>
   <g id="line2d_32">
    <path d="M 211.781582 61.957305 
L 223.469894 61.957305 
" clip-path="url(#p3dbe7de93e)" style="fill: none; stroke: #3d9eb0; stroke-width: 1.5; stroke-linecap: round"/>
   </g>
   <g id="line2d_33">
    <path d="M 211.781582 59.645275 
L 223.469894 59.645275 
" clip-path="url(#p3dbe7de93e)" style="fill: none; stroke: #3d9eb0; stroke-width: 1.5; stroke-linecap: round"/>
   </g>
   <g id="line2d_34">
    <path d="M 270.754427 66.371407 
L 270.754427 55.763731 
" clip-path="url(#p3dbe7de93e)" style="fill: none; stroke: #3d9eb0; stroke-width: 1.5; stroke-linecap: round"/>
   </g>
   <g id="line2d_35">
    <path d="M 264.910272 66.371407 
L 276.598583 66.371407 
" clip-path="url(#p3dbe7de93e)" style="fill: none; stroke: #3d9eb0; stroke-width: 1.5; stroke-linecap: round"/>
   </g>
   <g id="line2d_36">
    <path d="M 264.910272 55.763731 
L 276.598583 55.763731 
" clip-path="url(#p3dbe7de93e)" style="fill: none; stroke: #3d9eb0; stroke-width: 1.5; stroke-linecap: round"/>
   </g>
   <g id="line2d_37">
    <path d="M 323.883117 73.120036 
L 323.883117 45.779656 
" clip-path="url(#p3dbe7de93e)" style="fill: none; stroke: #3d9eb0; stroke-width: 1.5; stroke-linecap: round"/>
   </g>
   <g id="line2d_38">
    <path d="M 318.038961 73.120036 
L 329.727273 73.120036 
" clip-path="url(#p3dbe7de93e)" style="fill: none; stroke: #3d9eb0; stroke-width: 1.5; stroke-linecap: round"/>
   </g>
   <g id="line2d_39">
    <path d="M 318.038961 45.779656 
L 329.727273 45.779656 
" clip-path="url(#p3dbe7de93e)" style="fill: none; stroke: #3d9eb0; stroke-width: 1.5; stroke-linecap: round"/>
   </g>
   <g id="PathCollection_2">
    <defs>
     <path id="ma39e025ca5" d="M 5.075922 0 
L -5.075922 -0 
" style="stroke: #3d9eb0; stroke-width: 3.0375"/>
    </defs>
    <g clip-path="url(#p3dbe7de93e)">
     <use xlink:href="#ma39e025ca5" x="111.368359" y="81.676522" style="fill: #3d9eb0; stroke: #3d9eb0; stroke-width: 3.0375"/>
     <use xlink:href="#ma39e025ca5" x="164.497048" y="63.813131" style="fill: #3d9eb0; stroke: #3d9eb0; stroke-width: 3.0375"/>
     <use xlink:href="#ma39e025ca5" x="217.625738" y="60.80129" style="fill: #3d9eb0; stroke: #3d9eb0; stroke-width: 3.0375"/>
     <use xlink:href="#ma39e025ca5" x="270.754427" y="61.067569" style="fill: #3d9eb0; stroke: #3d9eb0; stroke-width: 3.0375"/>
     <use xlink:href="#ma39e025ca5" x="323.883117" y="59.449846" style="fill: #3d9eb0; stroke: #3d9eb0; stroke-width: 3.0375"/>
    </g>
   </g>
   <g id="line2d_40">
    <path d="M 143.245573 48.306452 
L 143.245573 46.083895 
L 164.497048 46.083895 
L 164.497048 48.306452 
" clip-path="url(#p3dbe7de93e)" style="fill: none; stroke: #333333; stroke-width: 1.5; stroke-linecap: round"/>
   </g>
   <g id="line2d_41">
    <path d="M 90.116883 57.27157 
L 90.116883 55.049012 
L 111.368359 55.049012 
L 111.368359 57.27157 
" clip-path="url(#p3dbe7de93e)" style="fill: none; stroke: #333333; stroke-width: 1.5; stroke-linecap: round"/>
   </g>
   <g id="line2d_42">
    <path d="M 196.374262 51.821849 
L 196.374262 49.599291 
L 217.625738 49.599291 
L 217.625738 51.821849 
" clip-path="url(#p3dbe7de93e)" style="fill: none; stroke: #333333; stroke-width: 1.5; stroke-linecap: round"/>
   </g>
   <g id="line2d_43">
    <path d="M 249.502952 43.792618 
L 249.502952 41.57006 
L 270.754427 41.57006 
L 270.754427 43.792618 
" clip-path="url(#p3dbe7de93e)" style="fill: none; stroke: #333333; stroke-width: 1.5; stroke-linecap: round"/>
   </g>
   <g id="line2d_44">
    <path d="M 302.631641 34.183662 
L 302.631641 31.961104 
L 323.883117 31.961104 
L 323.883117 34.183662 
" clip-path="url(#p3dbe7de93e)" style="fill: none; stroke: #333333; stroke-width: 1.5; stroke-linecap: round"/>
   </g>
   <g id="patch_3">
    <path d="M 72 135 
L 72 18 
" style="fill: none; stroke: #262626; stroke-width: 1.25; stroke-linejoin: miter; stroke-linecap: square"/>
   </g>
   <g id="patch_4">
    <path d="M 342 135 
L 342 18 
" style="fill: none; stroke: #262626; stroke-width: 1.25; stroke-linejoin: miter; stroke-linecap: square"/>
   </g>
   <g id="patch_5">
    <path d="M 72 135 
L 342 135 
" style="fill: none; stroke: #262626; stroke-width: 1.25; stroke-linejoin: miter; stroke-linecap: square"/>
   </g>
   <g id="patch_6">
    <path d="M 72 18 
L 342 18 
" style="fill: none; stroke: #262626; stroke-width: 1.25; stroke-linejoin: miter; stroke-linecap: square"/>
   </g>
   <g id="text_12">
    <!-- ** -->
    <g style="fill: #262626" transform="translate(149.200686 42.698895) scale(0.12 -0.12)">
     <defs>
      <path id="ArialMT-2a" d="M 200 3741 
L 344 4184 
Q 841 4009 1066 3881 
Q 1006 4447 1003 4659 
L 1456 4659 
Q 1447 4350 1384 3884 
Q 1706 4047 2122 4184 
L 2266 3741 
Q 1869 3609 1488 3566 
Q 1678 3400 2025 2975 
L 1650 2709 
Q 1469 2956 1222 3381 
Q 991 2941 816 2709 
L 447 2975 
Q 809 3422 966 3566 
Q 563 3644 200 3741 
z
" transform="scale(0.015625)"/>
     </defs>
     <use xlink:href="#ArialMT-2a"/>
     <use xlink:href="#ArialMT-2a" transform="translate(38.916016 0)"/>
    </g>
   </g>
   <g id="text_13">
    <!-- ns -->
    <g style="fill: #262626" transform="translate(94.406059 51.664012) scale(0.12 -0.12)">
     <defs>
      <path id="ArialMT-73" d="M 197 991 
L 753 1078 
Q 800 744 1014 566 
Q 1228 388 1613 388 
Q 2000 388 2187 545 
Q 2375 703 2375 916 
Q 2375 1106 2209 1216 
Q 2094 1291 1634 1406 
Q 1016 1563 777 1677 
Q 538 1791 414 1992 
Q 291 2194 291 2438 
Q 291 2659 392 2848 
Q 494 3038 669 3163 
Q 800 3259 1026 3326 
Q 1253 3394 1513 3394 
Q 1903 3394 2198 3281 
Q 2494 3169 2634 2976 
Q 2775 2784 2828 2463 
L 2278 2388 
Q 2241 2644 2061 2787 
Q 1881 2931 1553 2931 
Q 1166 2931 1000 2803 
Q 834 2675 834 2503 
Q 834 2394 903 2306 
Q 972 2216 1119 2156 
Q 1203 2125 1616 2013 
Q 2213 1853 2448 1751 
Q 2684 1650 2818 1456 
Q 2953 1263 2953 975 
Q 2953 694 2789 445 
Q 2625 197 2315 61 
Q 2006 -75 1616 -75 
Q 969 -75 630 194 
Q 291 463 197 991 
z
" transform="scale(0.015625)"/>
     </defs>
     <use xlink:href="#ArialMT-6e"/>
     <use xlink:href="#ArialMT-73" transform="translate(55.615234 0)"/>
    </g>
   </g>
   <g id="text_14">
    <!-- *** -->
    <g style="fill: #262626" transform="translate(199.994062 46.214291) scale(0.12 -0.12)">
     <use xlink:href="#ArialMT-2a"/>
     <use xlink:href="#ArialMT-2a" transform="translate(38.916016 0)"/>
     <use xlink:href="#ArialMT-2a" transform="translate(77.832031 0)"/>
    </g>
   </g>
   <g id="text_15">
    <!-- *** -->
    <g style="fill: #262626" transform="translate(253.122752 38.18506) scale(0.12 -0.12)">
     <use xlink:href="#ArialMT-2a"/>
     <use xlink:href="#ArialMT-2a" transform="translate(38.916016 0)"/>
     <use xlink:href="#ArialMT-2a" transform="translate(77.832031 0)"/>
    </g>
   </g>
   <g id="text_16">
    <!-- ns -->
    <g style="fill: #262626" transform="translate(306.920816 28.576104) scale(0.12 -0.12)">
     <use xlink:href="#ArialMT-6e"/>
     <use xlink:href="#ArialMT-73" transform="translate(55.615234 0)"/>
    </g>
   </g>
   <g id="text_17">
    <!-- 4 dpi, Flow Staining -->
    <g style="fill: #262626" transform="translate(154.640625 12) scale(0.12 -0.12)">
     <defs>
      <path id="ArialMT-64" d="M 2575 0 
L 2575 419 
Q 2259 -75 1647 -75 
Q 1250 -75 917 144 
Q 584 363 401 755 
Q 219 1147 219 1656 
Q 219 2153 384 2558 
Q 550 2963 881 3178 
Q 1213 3394 1622 3394 
Q 1922 3394 2156 3267 
Q 2391 3141 2538 2938 
L 2538 4581 
L 3097 4581 
L 3097 0 
L 2575 0 
z
M 797 1656 
Q 797 1019 1065 703 
Q 1334 388 1700 388 
Q 2069 388 2326 689 
Q 2584 991 2584 1609 
Q 2584 2291 2321 2609 
Q 2059 2928 1675 2928 
Q 1300 2928 1048 2622 
Q 797 2316 797 1656 
z
" transform="scale(0.015625)"/>
      <path id="ArialMT-70" d="M 422 -1272 
L 422 3319 
L 934 3319 
L 934 2888 
Q 1116 3141 1344 3267 
Q 1572 3394 1897 3394 
Q 2322 3394 2647 3175 
Q 2972 2956 3137 2557 
Q 3303 2159 3303 1684 
Q 3303 1175 3120 767 
Q 2938 359 2589 142 
Q 2241 -75 1856 -75 
Q 1575 -75 1351 44 
Q 1128 163 984 344 
L 984 -1272 
L 422 -1272 
z
M 931 1641 
Q 931 1000 1190 694 
Q 1450 388 1819 388 
Q 2194 388 2461 705 
Q 2728 1022 2728 1688 
Q 2728 2322 2467 2637 
Q 2206 2953 1844 2953 
Q 1484 2953 1207 2617 
Q 931 2281 931 1641 
z
" transform="scale(0.015625)"/>
      <path id="ArialMT-2c" d="M 569 0 
L 569 641 
L 1209 641 
L 1209 0 
Q 1209 -353 1084 -570 
Q 959 -788 688 -906 
L 531 -666 
Q 709 -588 793 -436 
Q 878 -284 888 0 
L 569 0 
z
" transform="scale(0.015625)"/>
      <path id="ArialMT-6c" d="M 409 0 
L 409 4581 
L 972 4581 
L 972 0 
L 409 0 
z
" transform="scale(0.015625)"/>
      <path id="ArialMT-77" d="M 1034 0 
L 19 3319 
L 600 3319 
L 1128 1403 
L 1325 691 
Q 1338 744 1497 1375 
L 2025 3319 
L 2603 3319 
L 3100 1394 
L 3266 759 
L 3456 1400 
L 4025 3319 
L 4572 3319 
L 3534 0 
L 2950 0 
L 2422 1988 
L 2294 2553 
L 1622 0 
L 1034 0 
z
" transform="scale(0.015625)"/>
      <path id="ArialMT-74" d="M 1650 503 
L 1731 6 
Q 1494 -44 1306 -44 
Q 1000 -44 831 53 
Q 663 150 594 308 
Q 525 466 525 972 
L 525 2881 
L 113 2881 
L 113 3319 
L 525 3319 
L 525 4141 
L 1084 4478 
L 1084 3319 
L 1650 3319 
L 1650 2881 
L 1084 2881 
L 1084 941 
Q 1084 700 1114 631 
Q 1144 563 1211 522 
Q 1278 481 1403 481 
Q 1497 481 1650 503 
z
" transform="scale(0.015625)"/>
      <path id="ArialMT-61" d="M 2588 409 
Q 2275 144 1986 34 
Q 1697 -75 1366 -75 
Q 819 -75 525 192 
Q 231 459 231 875 
Q 231 1119 342 1320 
Q 453 1522 633 1644 
Q 813 1766 1038 1828 
Q 1203 1872 1538 1913 
Q 2219 1994 2541 2106 
Q 2544 2222 2544 2253 
Q 2544 2597 2384 2738 
Q 2169 2928 1744 2928 
Q 1347 2928 1158 2789 
Q 969 2650 878 2297 
L 328 2372 
Q 403 2725 575 2942 
Q 747 3159 1072 3276 
Q 1397 3394 1825 3394 
Q 2250 3394 2515 3294 
Q 2781 3194 2906 3042 
Q 3031 2891 3081 2659 
Q 3109 2516 3109 2141 
L 3109 1391 
Q 3109 606 3145 398 
Q 3181 191 3288 0 
L 2700 0 
Q 2613 175 2588 409 
z
M 2541 1666 
Q 2234 1541 1622 1453 
Q 1275 1403 1131 1340 
Q 988 1278 909 1158 
Q 831 1038 831 891 
Q 831 666 1001 516 
Q 1172 366 1500 366 
Q 1825 366 2078 508 
Q 2331 650 2450 897 
Q 2541 1088 2541 1459 
L 2541 1666 
z
" transform="scale(0.015625)"/>
     </defs>
     <use xlink:href="#ArialMT-34"/>
     <use xlink:href="#ArialMT-20" transform="translate(55.615234 0)"/>
     <use xlink:href="#ArialMT-64" transform="translate(83.398438 0)"/>
     <use xlink:href="#ArialMT-70" transform="translate(139.013672 0)"/>
     <use xlink:href="#ArialMT-69" transform="translate(194.628906 0)"/>
     <use xlink:href="#ArialMT-2c" transform="translate(216.845703 0)"/>
     <use xlink:href="#ArialMT-20" transform="translate(244.628906 0)"/>
     <use xlink:href="#ArialMT-46" transform="translate(272.412109 0)"/>
     <use xlink:href="#ArialMT-6c" transform="translate(333.496094 0)"/>
     <use xlink:href="#ArialMT-6f" transform="translate(355.712891 0)"/>
     <use xlink:href="#ArialMT-77" transform="translate(411.328125 0)"/>
     <use xlink:href="#ArialMT-20" transform="translate(483.544922 0)"/>
     <use xlink:href="#ArialMT-53" transform="translate(511.328125 0)"/>
     <use xlink:href="#ArialMT-74" transform="translate(578.027344 0)"/>
     <use xlink:href="#ArialMT-61" transform="translate(605.810547 0)"/>
     <use xlink:href="#ArialMT-69" transform="translate(661.425781 0)"/>
     <use xlink:href="#ArialMT-6e" transform="translate(683.642578 0)"/>
     <use xlink:href="#ArialMT-69" transform="translate(739.257812 0)"/>
     <use xlink:href="#ArialMT-6e" transform="translate(761.474609 0)"/>
     <use xlink:href="#ArialMT-67" transform="translate(817.089844 0)"/>
    </g>
   </g>
   <g id="legend_1">
    <g id="PathCollection_3">
     <g>
      <use xlink:href="#m263c854632" x="370.9" y="27.386094" style="fill: #ea7676; stroke: #ea7676; stroke-width: 3.0375"/>
     </g>
    </g>
    <g id="text_18">
     <!-- WT -->
     <g style="fill: #262626" transform="translate(390.7 30.273594) scale(0.11 -0.11)">
      <defs>
       <path id="ArialMT-57" d="M 1294 0 
L 78 4581 
L 700 4581 
L 1397 1578 
Q 1509 1106 1591 641 
Q 1766 1375 1797 1488 
L 2669 4581 
L 3400 4581 
L 4056 2263 
Q 4303 1400 4413 641 
Q 4500 1075 4641 1638 
L 5359 4581 
L 5969 4581 
L 4713 0 
L 4128 0 
L 3163 3491 
Q 3041 3928 3019 4028 
Q 2947 3713 2884 3491 
L 1913 0 
L 1294 0 
z
" transform="scale(0.015625)"/>
       <path id="ArialMT-54" d="M 1659 0 
L 1659 4041 
L 150 4041 
L 150 4581 
L 3781 4581 
L 3781 4041 
L 2266 4041 
L 2266 0 
L 1659 0 
z
" transform="scale(0.015625)"/>
      </defs>
      <use xlink:href="#ArialMT-57"/>
      <use xlink:href="#ArialMT-54" transform="translate(94.384766 0)"/>
     </g>
    </g>
    <g id="PathCollection_4">
     <g>
      <use xlink:href="#ma39e025ca5" x="370.9" y="42.945937" style="fill: #3d9eb0; stroke: #3d9eb0; stroke-width: 3.0375"/>
     </g>
    </g>
    <g id="text_19">
     <!-- 9SA -->
     <g style="fill: #262626" transform="translate(390.7 45.833438) scale(0.11 -0.11)">
      <defs>
       <path id="ArialMT-39" d="M 350 1059 
L 891 1109 
Q 959 728 1153 556 
Q 1347 384 1650 384 
Q 1909 384 2104 503 
Q 2300 622 2425 820 
Q 2550 1019 2634 1356 
Q 2719 1694 2719 2044 
Q 2719 2081 2716 2156 
Q 2547 1888 2255 1720 
Q 1963 1553 1622 1553 
Q 1053 1553 659 1965 
Q 266 2378 266 3053 
Q 266 3750 677 4175 
Q 1088 4600 1706 4600 
Q 2153 4600 2523 4359 
Q 2894 4119 3086 3673 
Q 3278 3228 3278 2384 
Q 3278 1506 3087 986 
Q 2897 466 2520 194 
Q 2144 -78 1638 -78 
Q 1100 -78 759 220 
Q 419 519 350 1059 
z
M 2653 3081 
Q 2653 3566 2395 3850 
Q 2138 4134 1775 4134 
Q 1400 4134 1122 3828 
Q 844 3522 844 3034 
Q 844 2597 1108 2323 
Q 1372 2050 1759 2050 
Q 2150 2050 2401 2323 
Q 2653 2597 2653 3081 
z
" transform="scale(0.015625)"/>
      </defs>
      <use xlink:href="#ArialMT-39"/>
      <use xlink:href="#ArialMT-53" transform="translate(55.615234 0)"/>
      <use xlink:href="#ArialMT-41" transform="translate(122.314453 0)"/>
     </g>
    </g>
   </g>
   <g id="PathCollection_5">
    <defs>
     <path id="me32f04c66c" d="M 0 3.5 
C 0.928211 3.5 1.81853 3.131218 2.474874 2.474874 
C 3.131218 1.81853 3.5 0.928211 3.5 0 
C 3.5 -0.928211 3.131218 -1.81853 2.474874 -2.474874 
C 1.81853 -3.131218 0.928211 -3.5 0 -3.5 
C -0.928211 -3.5 -1.81853 -3.131218 -2.474874 -2.474874 
C -3.131218 -1.81853 -3.5 -0.928211 -3.5 0 
C -3.5 0.928211 -3.131218 1.81853 -2.474874 2.474874 
C -1.81853 3.131218 -0.928211 3.5 0 3.5 
z
" style="stroke: #ffffff; stroke-width: 0.4"/>
    </defs>
    <g clip-path="url(#p3dbe7de93e)">
     <use xlink:href="#me32f04c66c" x="89.184862" y="101.034524" style="fill: #ea7676; stroke: #ffffff; stroke-width: 0.4"/>
    </g>
   </g>
   <g id="PathCollection_6">
    <defs>
     <path id="m25086d2887" d="M 0 3.5 
C 0.928211 3.5 1.81853 3.131218 2.474874 2.474874 
C 3.131218 1.81853 3.5 0.928211 3.5 0 
C 3.5 -0.928211 3.131218 -1.81853 2.474874 -2.474874 
C 1.81853 -3.131218 0.928211 -3.5 0 -3.5 
C -0.928211 -3.5 -1.81853 -3.131218 -2.474874 -2.474874 
C -3.131218 -1.81853 -3.5 -0.928211 -3.5 0 
C -3.5 0.928211 -3.131218 1.81853 -2.474874 2.474874 
C -1.81853 3.131218 -0.928211 3.5 0 3.5 
z
" style="stroke: #ffffff; stroke-width: 0.4"/>
    </defs>
    <g clip-path="url(#p3dbe7de93e)">
     <use xlink:href="#m25086d2887" x="111.702947" y="82.336515" style="fill: #3d9eb0; stroke: #ffffff; stroke-width: 0.4"/>
    </g>
   </g>
   <g id="PathCollection_7">
    <g clip-path="url(#p3dbe7de93e)">
     <use xlink:href="#me32f04c66c" x="145.481975" y="99.000604" style="fill: #ea7676; stroke: #ffffff; stroke-width: 0.4"/>
    </g>
   </g>
   <g id="PathCollection_8">
    <g clip-path="url(#p3dbe7de93e)">
     <use xlink:href="#m25086d2887" x="162.415207" y="54.974125" style="fill: #3d9eb0; stroke: #ffffff; stroke-width: 0.4"/>
    </g>
   </g>
   <g id="PathCollection_9">
    <g clip-path="url(#p3dbe7de93e)">
     <use xlink:href="#me32f04c66c" x="197.634058" y="109.804445" style="fill: #ea7676; stroke: #ffffff; stroke-width: 0.4"/>
    </g>
   </g>
   <g id="PathCollection_10">
    <g clip-path="url(#p3dbe7de93e)">
     <use xlink:href="#m25086d2887" x="216.328438" y="58.489522" style="fill: #3d9eb0; stroke: #ffffff; stroke-width: 0.4"/>
    </g>
   </g>
   <g id="PathCollection_11">
    <g clip-path="url(#p3dbe7de93e)">
     <use xlink:href="#me32f04c66c" x="250.860819" y="115.671999" style="fill: #ea7676; stroke: #ffffff; stroke-width: 0.4"/>
    </g>
   </g>
   <g id="PathCollection_12">
    <g clip-path="url(#p3dbe7de93e)">
     <use xlink:href="#m25086d2887" x="269.442494" y="50.460291" style="fill: #3d9eb0; stroke: #ffffff; stroke-width: 0.4"/>
    </g>
   </g>
   <g id="PathCollection_13">
    <g clip-path="url(#p3dbe7de93e)">
     <use xlink:href="#me32f04c66c" x="303.944811" y="94.049733" style="fill: #ea7676; stroke: #ffffff; stroke-width: 0.4"/>
    </g>
   </g>
   <g id="PathCollection_14">
    <g clip-path="url(#p3dbe7de93e)">
     <use xlink:href="#m25086d2887" x="322.543075" y="51.394165" style="fill: #3d9eb0; stroke: #ffffff; stroke-width: 0.4"/>
    </g>
   </g>
   <g id="PathCollection_15">
    <defs>
     <path id="m2ff0ca8b47" d="M 0 -3.5 
L -3.5 3.5 
L 3.5 3.5 
z
" style="stroke: #ffffff; stroke-width: 0.4"/>
    </defs>
    <g clip-path="url(#p3dbe7de93e)">
     <use xlink:href="#m2ff0ca8b47" x="91.453743" y="104.334117" style="fill: #ea7676; stroke: #ffffff; stroke-width: 0.4"/>
    </g>
   </g>
   <g id="PathCollection_16">
    <defs>
     <path id="m8d1f053953" d="M 0 -3.5 
L -3.5 3.5 
L 3.5 3.5 
z
" style="stroke: #ffffff; stroke-width: 0.4"/>
    </defs>
    <g clip-path="url(#p3dbe7de93e)">
     <use xlink:href="#m8d1f053953" x="110.034987" y="98.753808" style="fill: #3d9eb0; stroke: #ffffff; stroke-width: 0.4"/>
    </g>
   </g>
   <g id="PathCollection_17">
    <g clip-path="url(#p3dbe7de93e)">
     <use xlink:href="#m2ff0ca8b47" x="144.57726" y="101.853493" style="fill: #ea7676; stroke: #ffffff; stroke-width: 0.4"/>
    </g>
   </g>
   <g id="PathCollection_18">
    <g clip-path="url(#p3dbe7de93e)">
     <use xlink:href="#m8d1f053953" x="163.167008" y="72.702925" style="fill: #3d9eb0; stroke: #ffffff; stroke-width: 0.4"/>
    </g>
   </g>
   <g id="PathCollection_19">
    <g clip-path="url(#p3dbe7de93e)">
     <use xlink:href="#m2ff0ca8b47" x="197.703777" y="125.260499" style="fill: #ea7676; stroke: #ffffff; stroke-width: 0.4"/>
    </g>
   </g>
   <g id="PathCollection_20">
    <g clip-path="url(#p3dbe7de93e)">
     <use xlink:href="#m8d1f053953" x="216.297578" y="61.927056" style="fill: #3d9eb0; stroke: #ffffff; stroke-width: 0.4"/>
    </g>
   </g>
   <g id="PathCollection_21">
    <g clip-path="url(#p3dbe7de93e)">
     <use xlink:href="#m2ff0ca8b47" x="250.831124" y="124.652391" style="fill: #ea7676; stroke: #ffffff; stroke-width: 0.4"/>
    </g>
   </g>
   <g id="PathCollection_22">
    <g clip-path="url(#p3dbe7de93e)">
     <use xlink:href="#m8d1f053953" x="269.426207" y="66.450804" style="fill: #3d9eb0; stroke: #ffffff; stroke-width: 0.4"/>
    </g>
   </g>
   <g id="PathCollection_23">
    <g clip-path="url(#p3dbe7de93e)">
     <use xlink:href="#m2ff0ca8b47" x="303.959859" y="90.598113" style="fill: #ea7676; stroke: #ffffff; stroke-width: 0.4"/>
    </g>
   </g>
   <g id="PathCollection_24">
    <g clip-path="url(#p3dbe7de93e)">
     <use xlink:href="#m8d1f053953" x="322.5549" y="86.104038" style="fill: #3d9eb0; stroke: #ffffff; stroke-width: 0.4"/>
    </g>
   </g>
   <g id="PathCollection_25">
    <defs>
     <path id="m03d2609c07" d="M -3.5 3.5 
L 3.5 3.5 
L 3.5 -3.5 
L -3.5 -3.5 
z
" style="stroke: #ffffff; stroke-width: 0.4"/>
    </defs>
    <g clip-path="url(#p3dbe7de93e)">
     <use xlink:href="#m03d2609c07" x="91.4451" y="94.699633" style="fill: #ea7676; stroke: #ffffff; stroke-width: 0.4"/>
    </g>
   </g>
   <g id="PathCollection_26">
    <defs>
     <path id="mbad7da78cf" d="M -3.5 3.5 
L 3.5 3.5 
L 3.5 -3.5 
L -3.5 -3.5 
z
" style="stroke: #ffffff; stroke-width: 0.4"/>
    </defs>
    <g clip-path="url(#p3dbe7de93e)">
     <use xlink:href="#mbad7da78cf" x="110.040142" y="63.939243" style="fill: #3d9eb0; stroke: #ffffff; stroke-width: 0.4"/>
    </g>
   </g>
   <g id="PathCollection_27">
    <g clip-path="url(#p3dbe7de93e)">
     <use xlink:href="#m03d2609c07" x="144.57379" y="104.308169" style="fill: #ea7676; stroke: #ffffff; stroke-width: 0.4"/>
    </g>
   </g>
   <g id="PathCollection_28">
    <g clip-path="url(#p3dbe7de93e)">
     <use xlink:href="#mbad7da78cf" x="163.168831" y="63.762343" style="fill: #3d9eb0; stroke: #ffffff; stroke-width: 0.4"/>
    </g>
   </g>
   <g id="PathCollection_29">
    <g clip-path="url(#p3dbe7de93e)">
     <use xlink:href="#m03d2609c07" x="197.702479" y="116.63723" style="fill: #ea7676; stroke: #ffffff; stroke-width: 0.4"/>
    </g>
   </g>
   <g id="PathCollection_30">
    <g clip-path="url(#p3dbe7de93e)">
     <use xlink:href="#mbad7da78cf" x="216.297521" y="61.987293" style="fill: #3d9eb0; stroke: #ffffff; stroke-width: 0.4"/>
    </g>
   </g>
   <g id="PathCollection_31">
    <g clip-path="url(#p3dbe7de93e)">
     <use xlink:href="#m03d2609c07" x="250.831169" y="124.903639" style="fill: #ea7676; stroke: #ffffff; stroke-width: 0.4"/>
    </g>
   </g>
   <g id="PathCollection_32">
    <g clip-path="url(#p3dbe7de93e)">
     <use xlink:href="#mbad7da78cf" x="269.42621" y="66.291612" style="fill: #3d9eb0; stroke: #ffffff; stroke-width: 0.4"/>
    </g>
   </g>
   <g id="PathCollection_33">
    <g clip-path="url(#p3dbe7de93e)">
     <use xlink:href="#m03d2609c07" x="303.959858" y="109.282732" style="fill: #ea7676; stroke: #ffffff; stroke-width: 0.4"/>
    </g>
   </g>
   <g id="PathCollection_34">
    <g clip-path="url(#p3dbe7de93e)">
     <use xlink:href="#mbad7da78cf" x="322.5549" y="40.851335" style="fill: #3d9eb0; stroke: #ffffff; stroke-width: 0.4"/>
    </g>
   </g>
  </g>
 </g>
 <defs>
  <clipPath id="p3dbe7de93e">
   <rect x="72" y="18" width="270" height="117"/>
  </clipPath>
 </defs>
</svg>
