<?xml version="1.0" encoding="utf-8" standalone="no"?>
<!DOCTYPE svg PUBLIC "-//W3C//DTD SVG 1.1//EN"
  "http://www.w3.org/Graphics/SVG/1.1/DTD/svg11.dtd">
<svg xmlns:xlink="http://www.w3.org/1999/xlink" width="360pt" height="180pt" viewBox="0 0 360 180" xmlns="http://www.w3.org/2000/svg" version="1.1">
 <metadata>
  <rdf:RDF xmlns:dc="http://purl.org/dc/elements/1.1/" xmlns:cc="http://creativecommons.org/ns#" xmlns:rdf="http://www.w3.org/1999/02/22-rdf-syntax-ns#">
   <cc:Work>
    <dc:type rdf:resource="http://purl.org/dc/dcmitype/StillImage"/>
    <dc:date>2025-07-28T17:17:32.200658</dc:date>
    <dc:format>image/svg+xml</dc:format>
    <dc:creator>
     <cc:Agent>
      <dc:title>Matplotlib v3.10.3, https://matplotlib.org/</dc:title>
     </cc:Agent>
    </dc:creator>
   </cc:Work>
  </rdf:RDF>
 </metadata>
 <defs>
  <style type="text/css">*{stroke-linejoin: round; stroke-linecap: butt}</style>
 </defs>
 <g id="figure_1">
  <g id="patch_1">
   <path d="M 0 180 
L 360 180 
L 360 0 
L 0 0 
z
" style="fill: #ffffff"/>
  </g>
  <g id="axes_1">
   <g id="patch_2">
    <path d="M 72 135 
L 342 135 
L 342 18 
L 72 18 
z
" style="fill: #ffffff"/>
   </g>
   <g id="matplotlib.axis_1">
    <g id="xtick_1">
     <g id="line2d_1">
      <defs>
       <path id="meb9ea6819d" d="M 0 0 
L 0 6 
" style="stroke: #262626; stroke-width: 1.25"/>
      </defs>
      <g>
       <use xlink:href="#meb9ea6819d" x="104.824059" y="135" style="fill: #262626; stroke: #262626; stroke-width: 1.25"/>
      </g>
     </g>
     <g id="text_1">
      <!-- $\mathdefault{10^{2}}$ -->
      <g style="fill: #262626" transform="translate(96.189059 155.84375) scale(0.11 -0.11)">
       <defs>
        <path id="ArialMT-31" d="M 2384 0 
L 1822 0 
L 1822 3584 
Q 1619 3391 1289 3197 
Q 959 3003 697 2906 
L 697 3450 
Q 1169 3672 1522 3987 
Q 1875 4303 2022 4600 
L 2384 4600 
L 2384 0 
z
" transform="scale(0.015625)"/>
        <path id="ArialMT-30" d="M 266 2259 
Q 266 3072 433 3567 
Q 600 4063 929 4331 
Q 1259 4600 1759 4600 
Q 2128 4600 2406 4451 
Q 2684 4303 2865 4023 
Q 3047 3744 3150 3342 
Q 3253 2941 3253 2259 
Q 3253 1453 3087 958 
Q 2922 463 2592 192 
Q 2263 -78 1759 -78 
Q 1097 -78 719 397 
Q 266 969 266 2259 
z
M 844 2259 
Q 844 1131 1108 757 
Q 1372 384 1759 384 
Q 2147 384 2411 759 
Q 2675 1134 2675 2259 
Q 2675 3391 2411 3762 
Q 2147 4134 1753 4134 
Q 1366 4134 1134 3806 
Q 844 3388 844 2259 
z
" transform="scale(0.015625)"/>
        <path id="ArialMT-32" d="M 3222 541 
L 3222 0 
L 194 0 
Q 188 203 259 391 
Q 375 700 629 1000 
Q 884 1300 1366 1694 
Q 2113 2306 2375 2664 
Q 2638 3022 2638 3341 
Q 2638 3675 2398 3904 
Q 2159 4134 1775 4134 
Q 1369 4134 1125 3890 
Q 881 3647 878 3216 
L 300 3275 
Q 359 3922 746 4261 
Q 1134 4600 1788 4600 
Q 2447 4600 2831 4234 
Q 3216 3869 3216 3328 
Q 3216 3053 3103 2787 
Q 2991 2522 2730 2228 
Q 2469 1934 1863 1422 
Q 1356 997 1212 845 
Q 1069 694 975 541 
L 3222 541 
z
" transform="scale(0.015625)"/>
       </defs>
       <use xlink:href="#ArialMT-31" transform="translate(0 0.99375)"/>
       <use xlink:href="#ArialMT-30" transform="translate(55.615234 0.99375)"/>
       <use xlink:href="#ArialMT-32" transform="translate(112.972813 70.6875) scale(0.7)"/>
      </g>
     </g>
    </g>
    <g id="xtick_2">
     <g id="line2d_2">
      <g>
       <use xlink:href="#meb9ea6819d" x="167.59972" y="135" style="fill: #262626; stroke: #262626; stroke-width: 1.25"/>
      </g>
     </g>
     <g id="text_2">
      <!-- $\mathdefault{10^{3}}$ -->
      <g style="fill: #262626" transform="translate(158.96472 155.84375) scale(0.11 -0.11)">
       <defs>
        <path id="ArialMT-33" d="M 269 1209 
L 831 1284 
Q 928 806 1161 595 
Q 1394 384 1728 384 
Q 2125 384 2398 659 
Q 2672 934 2672 1341 
Q 2672 1728 2419 1979 
Q 2166 2231 1775 2231 
Q 1616 2231 1378 2169 
L 1441 2663 
Q 1497 2656 1531 2656 
Q 1891 2656 2178 2843 
Q 2466 3031 2466 3422 
Q 2466 3731 2256 3934 
Q 2047 4138 1716 4138 
Q 1388 4138 1169 3931 
Q 950 3725 888 3313 
L 325 3413 
Q 428 3978 793 4289 
Q 1159 4600 1703 4600 
Q 2078 4600 2393 4439 
Q 2709 4278 2876 4000 
Q 3044 3722 3044 3409 
Q 3044 3113 2884 2869 
Q 2725 2625 2413 2481 
Q 2819 2388 3044 2092 
Q 3269 1797 3269 1353 
Q 3269 753 2831 336 
Q 2394 -81 1725 -81 
Q 1122 -81 723 278 
Q 325 638 269 1209 
z
" transform="scale(0.015625)"/>
       </defs>
       <use xlink:href="#ArialMT-31" transform="translate(0 0.99375)"/>
       <use xlink:href="#ArialMT-30" transform="translate(55.615234 0.99375)"/>
       <use xlink:href="#ArialMT-33" transform="translate(112.972813 70.6875) scale(0.7)"/>
      </g>
     </g>
    </g>
    <g id="xtick_3">
     <g id="line2d_3">
      <g>
       <use xlink:href="#meb9ea6819d" x="230.37538" y="135" style="fill: #262626; stroke: #262626; stroke-width: 1.25"/>
      </g>
     </g>
     <g id="text_3">
      <!-- $\mathdefault{10^{4}}$ -->
      <g style="fill: #262626" transform="translate(221.74038 155.73375) scale(0.11 -0.11)">
       <defs>
        <path id="ArialMT-34" d="M 2069 0 
L 2069 1097 
L 81 1097 
L 81 1613 
L 2172 4581 
L 2631 4581 
L 2631 1613 
L 3250 1613 
L 3250 1097 
L 2631 1097 
L 2631 0 
L 2069 0 
z
M 2069 1613 
L 2069 3678 
L 634 1613 
L 2069 1613 
z
" transform="scale(0.015625)"/>
       </defs>
       <use xlink:href="#ArialMT-31" transform="translate(0 0.201563)"/>
       <use xlink:href="#ArialMT-30" transform="translate(55.615234 0.201563)"/>
       <use xlink:href="#ArialMT-34" transform="translate(112.972813 69.895313) scale(0.7)"/>
      </g>
     </g>
    </g>
    <g id="xtick_4">
     <g id="line2d_4">
      <g>
       <use xlink:href="#meb9ea6819d" x="293.151041" y="135" style="fill: #262626; stroke: #262626; stroke-width: 1.25"/>
      </g>
     </g>
     <g id="text_4">
      <!-- $\mathdefault{10^{5}}$ -->
      <g style="fill: #262626" transform="translate(284.516041 155.73375) scale(0.11 -0.11)">
       <defs>
        <path id="ArialMT-35" d="M 266 1200 
L 856 1250 
Q 922 819 1161 601 
Q 1400 384 1738 384 
Q 2144 384 2425 690 
Q 2706 997 2706 1503 
Q 2706 1984 2436 2262 
Q 2166 2541 1728 2541 
Q 1456 2541 1237 2417 
Q 1019 2294 894 2097 
L 366 2166 
L 809 4519 
L 3088 4519 
L 3088 3981 
L 1259 3981 
L 1013 2750 
Q 1425 3038 1878 3038 
Q 2478 3038 2890 2622 
Q 3303 2206 3303 1553 
Q 3303 931 2941 478 
Q 2500 -78 1738 -78 
Q 1113 -78 717 272 
Q 322 622 266 1200 
z
" transform="scale(0.015625)"/>
       </defs>
       <use xlink:href="#ArialMT-31" transform="translate(0 0.879688)"/>
       <use xlink:href="#ArialMT-30" transform="translate(55.615234 0.879688)"/>
       <use xlink:href="#ArialMT-35" transform="translate(112.972813 70.573438) scale(0.7)"/>
      </g>
     </g>
    </g>
    <g id="xtick_5">
     <g id="line2d_5">
      <defs>
       <path id="m52e9ab5720" d="M 0 0 
L 0 4 
" style="stroke: #262626"/>
      </defs>
      <g>
       <use xlink:href="#m52e9ab5720" x="72" y="135" style="fill: #262626; stroke: #262626"/>
      </g>
     </g>
    </g>
    <g id="xtick_6">
     <g id="line2d_6">
      <g>
       <use xlink:href="#m52e9ab5720" x="79.843112" y="135" style="fill: #262626; stroke: #262626"/>
      </g>
     </g>
    </g>
    <g id="xtick_7">
     <g id="line2d_7">
      <g>
       <use xlink:href="#m52e9ab5720" x="85.926702" y="135" style="fill: #262626; stroke: #262626"/>
      </g>
     </g>
    </g>
    <g id="xtick_8">
     <g id="line2d_8">
      <g>
       <use xlink:href="#m52e9ab5720" x="90.897357" y="135" style="fill: #262626; stroke: #262626"/>
      </g>
     </g>
    </g>
    <g id="xtick_9">
     <g id="line2d_9">
      <g>
       <use xlink:href="#m52e9ab5720" x="95.099986" y="135" style="fill: #262626; stroke: #262626"/>
      </g>
     </g>
    </g>
    <g id="xtick_10">
     <g id="line2d_10">
      <g>
       <use xlink:href="#m52e9ab5720" x="98.740469" y="135" style="fill: #262626; stroke: #262626"/>
      </g>
     </g>
    </g>
    <g id="xtick_11">
     <g id="line2d_11">
      <g>
       <use xlink:href="#m52e9ab5720" x="101.951602" y="135" style="fill: #262626; stroke: #262626"/>
      </g>
     </g>
    </g>
    <g id="xtick_12">
     <g id="line2d_12">
      <g>
       <use xlink:href="#m52e9ab5720" x="123.721416" y="135" style="fill: #262626; stroke: #262626"/>
      </g>
     </g>
    </g>
    <g id="xtick_13">
     <g id="line2d_13">
      <g>
       <use xlink:href="#m52e9ab5720" x="134.775661" y="135" style="fill: #262626; stroke: #262626"/>
      </g>
     </g>
    </g>
    <g id="xtick_14">
     <g id="line2d_14">
      <g>
       <use xlink:href="#m52e9ab5720" x="142.618773" y="135" style="fill: #262626; stroke: #262626"/>
      </g>
     </g>
    </g>
    <g id="xtick_15">
     <g id="line2d_15">
      <g>
       <use xlink:href="#m52e9ab5720" x="148.702363" y="135" style="fill: #262626; stroke: #262626"/>
      </g>
     </g>
    </g>
    <g id="xtick_16">
     <g id="line2d_16">
      <g>
       <use xlink:href="#m52e9ab5720" x="153.673018" y="135" style="fill: #262626; stroke: #262626"/>
      </g>
     </g>
    </g>
    <g id="xtick_17">
     <g id="line2d_17">
      <g>
       <use xlink:href="#m52e9ab5720" x="157.875647" y="135" style="fill: #262626; stroke: #262626"/>
      </g>
     </g>
    </g>
    <g id="xtick_18">
     <g id="line2d_18">
      <g>
       <use xlink:href="#m52e9ab5720" x="161.516129" y="135" style="fill: #262626; stroke: #262626"/>
      </g>
     </g>
    </g>
    <g id="xtick_19">
     <g id="line2d_19">
      <g>
       <use xlink:href="#m52e9ab5720" x="164.727263" y="135" style="fill: #262626; stroke: #262626"/>
      </g>
     </g>
    </g>
    <g id="xtick_20">
     <g id="line2d_20">
      <g>
       <use xlink:href="#m52e9ab5720" x="186.497076" y="135" style="fill: #262626; stroke: #262626"/>
      </g>
     </g>
    </g>
    <g id="xtick_21">
     <g id="line2d_21">
      <g>
       <use xlink:href="#m52e9ab5720" x="197.551322" y="135" style="fill: #262626; stroke: #262626"/>
      </g>
     </g>
    </g>
    <g id="xtick_22">
     <g id="line2d_22">
      <g>
       <use xlink:href="#m52e9ab5720" x="205.394433" y="135" style="fill: #262626; stroke: #262626"/>
      </g>
     </g>
    </g>
    <g id="xtick_23">
     <g id="line2d_23">
      <g>
       <use xlink:href="#m52e9ab5720" x="211.478023" y="135" style="fill: #262626; stroke: #262626"/>
      </g>
     </g>
    </g>
    <g id="xtick_24">
     <g id="line2d_24">
      <g>
       <use xlink:href="#m52e9ab5720" x="216.448678" y="135" style="fill: #262626; stroke: #262626"/>
      </g>
     </g>
    </g>
    <g id="xtick_25">
     <g id="line2d_25">
      <g>
       <use xlink:href="#m52e9ab5720" x="220.651307" y="135" style="fill: #262626; stroke: #262626"/>
      </g>
     </g>
    </g>
    <g id="xtick_26">
     <g id="line2d_26">
      <g>
       <use xlink:href="#m52e9ab5720" x="224.29179" y="135" style="fill: #262626; stroke: #262626"/>
      </g>
     </g>
    </g>
    <g id="xtick_27">
     <g id="line2d_27">
      <g>
       <use xlink:href="#m52e9ab5720" x="227.502924" y="135" style="fill: #262626; stroke: #262626"/>
      </g>
     </g>
    </g>
    <g id="xtick_28">
     <g id="line2d_28">
      <g>
       <use xlink:href="#m52e9ab5720" x="249.272737" y="135" style="fill: #262626; stroke: #262626"/>
      </g>
     </g>
    </g>
    <g id="xtick_29">
     <g id="line2d_29">
      <g>
       <use xlink:href="#m52e9ab5720" x="260.326982" y="135" style="fill: #262626; stroke: #262626"/>
      </g>
     </g>
    </g>
    <g id="xtick_30">
     <g id="line2d_30">
      <g>
       <use xlink:href="#m52e9ab5720" x="268.170094" y="135" style="fill: #262626; stroke: #262626"/>
      </g>
     </g>
    </g>
    <g id="xtick_31">
     <g id="line2d_31">
      <g>
       <use xlink:href="#m52e9ab5720" x="274.253684" y="135" style="fill: #262626; stroke: #262626"/>
      </g>
     </g>
    </g>
    <g id="xtick_32">
     <g id="line2d_32">
      <g>
       <use xlink:href="#m52e9ab5720" x="279.224339" y="135" style="fill: #262626; stroke: #262626"/>
      </g>
     </g>
    </g>
    <g id="xtick_33">
     <g id="line2d_33">
      <g>
       <use xlink:href="#m52e9ab5720" x="283.426968" y="135" style="fill: #262626; stroke: #262626"/>
      </g>
     </g>
    </g>
    <g id="xtick_34">
     <g id="line2d_34">
      <g>
       <use xlink:href="#m52e9ab5720" x="287.067451" y="135" style="fill: #262626; stroke: #262626"/>
      </g>
     </g>
    </g>
    <g id="xtick_35">
     <g id="line2d_35">
      <g>
       <use xlink:href="#m52e9ab5720" x="290.278584" y="135" style="fill: #262626; stroke: #262626"/>
      </g>
     </g>
    </g>
    <g id="xtick_36">
     <g id="line2d_36">
      <g>
       <use xlink:href="#m52e9ab5720" x="312.048398" y="135" style="fill: #262626; stroke: #262626"/>
      </g>
     </g>
    </g>
    <g id="xtick_37">
     <g id="line2d_37">
      <g>
       <use xlink:href="#m52e9ab5720" x="323.102643" y="135" style="fill: #262626; stroke: #262626"/>
      </g>
     </g>
    </g>
    <g id="xtick_38">
     <g id="line2d_38">
      <g>
       <use xlink:href="#m52e9ab5720" x="330.945755" y="135" style="fill: #262626; stroke: #262626"/>
      </g>
     </g>
    </g>
    <g id="xtick_39">
     <g id="line2d_39">
      <g>
       <use xlink:href="#m52e9ab5720" x="337.029345" y="135" style="fill: #262626; stroke: #262626"/>
      </g>
     </g>
    </g>
    <g id="xtick_40">
     <g id="line2d_40">
      <g>
       <use xlink:href="#m52e9ab5720" x="342" y="135" style="fill: #262626; stroke: #262626"/>
      </g>
     </g>
    </g>
    <g id="text_5">
     <!-- Ngn2.x3HA-A -->
     <g style="fill: #262626" transform="translate(170.318438 170.655) scale(0.12 -0.12)">
      <defs>
       <path id="ArialMT-4e" d="M 488 0 
L 488 4581 
L 1109 4581 
L 3516 984 
L 3516 4581 
L 4097 4581 
L 4097 0 
L 3475 0 
L 1069 3600 
L 1069 0 
L 488 0 
z
" transform="scale(0.015625)"/>
       <path id="ArialMT-67" d="M 319 -275 
L 866 -356 
Q 900 -609 1056 -725 
Q 1266 -881 1628 -881 
Q 2019 -881 2231 -725 
Q 2444 -569 2519 -288 
Q 2563 -116 2559 434 
Q 2191 0 1641 0 
Q 956 0 581 494 
Q 206 988 206 1678 
Q 206 2153 378 2554 
Q 550 2956 876 3175 
Q 1203 3394 1644 3394 
Q 2231 3394 2613 2919 
L 2613 3319 
L 3131 3319 
L 3131 450 
Q 3131 -325 2973 -648 
Q 2816 -972 2473 -1159 
Q 2131 -1347 1631 -1347 
Q 1038 -1347 672 -1080 
Q 306 -813 319 -275 
z
M 784 1719 
Q 784 1066 1043 766 
Q 1303 466 1694 466 
Q 2081 466 2343 764 
Q 2606 1063 2606 1700 
Q 2606 2309 2336 2618 
Q 2066 2928 1684 2928 
Q 1309 2928 1046 2623 
Q 784 2319 784 1719 
z
" transform="scale(0.015625)"/>
       <path id="ArialMT-6e" d="M 422 0 
L 422 3319 
L 928 3319 
L 928 2847 
Q 1294 3394 1984 3394 
Q 2284 3394 2536 3286 
Q 2788 3178 2913 3003 
Q 3038 2828 3088 2588 
Q 3119 2431 3119 2041 
L 3119 0 
L 2556 0 
L 2556 2019 
Q 2556 2363 2490 2533 
Q 2425 2703 2258 2804 
Q 2091 2906 1866 2906 
Q 1506 2906 1245 2678 
Q 984 2450 984 1813 
L 984 0 
L 422 0 
z
" transform="scale(0.015625)"/>
       <path id="ArialMT-2e" d="M 581 0 
L 581 641 
L 1222 641 
L 1222 0 
L 581 0 
z
" transform="scale(0.015625)"/>
       <path id="ArialMT-78" d="M 47 0 
L 1259 1725 
L 138 3319 
L 841 3319 
L 1350 2541 
Q 1494 2319 1581 2169 
Q 1719 2375 1834 2534 
L 2394 3319 
L 3066 3319 
L 1919 1756 
L 3153 0 
L 2463 0 
L 1781 1031 
L 1600 1309 
L 728 0 
L 47 0 
z
" transform="scale(0.015625)"/>
       <path id="ArialMT-48" d="M 513 0 
L 513 4581 
L 1119 4581 
L 1119 2700 
L 3500 2700 
L 3500 4581 
L 4106 4581 
L 4106 0 
L 3500 0 
L 3500 2159 
L 1119 2159 
L 1119 0 
L 513 0 
z
" transform="scale(0.015625)"/>
       <path id="ArialMT-41" d="M -9 0 
L 1750 4581 
L 2403 4581 
L 4278 0 
L 3588 0 
L 3053 1388 
L 1138 1388 
L 634 0 
L -9 0 
z
M 1313 1881 
L 2866 1881 
L 2388 3150 
Q 2169 3728 2063 4100 
Q 1975 3659 1816 3225 
L 1313 1881 
z
" transform="scale(0.015625)"/>
       <path id="ArialMT-2d" d="M 203 1375 
L 203 1941 
L 1931 1941 
L 1931 1375 
L 203 1375 
z
" transform="scale(0.015625)"/>
      </defs>
      <use xlink:href="#ArialMT-4e"/>
      <use xlink:href="#ArialMT-67" transform="translate(72.216797 0)"/>
      <use xlink:href="#ArialMT-6e" transform="translate(127.832031 0)"/>
      <use xlink:href="#ArialMT-32" transform="translate(183.447266 0)"/>
      <use xlink:href="#ArialMT-2e" transform="translate(239.0625 0)"/>
      <use xlink:href="#ArialMT-78" transform="translate(266.845703 0)"/>
      <use xlink:href="#ArialMT-33" transform="translate(316.845703 0)"/>
      <use xlink:href="#ArialMT-48" transform="translate(372.460938 0)"/>
      <use xlink:href="#ArialMT-41" transform="translate(444.677734 0)"/>
      <use xlink:href="#ArialMT-2d" transform="translate(511.376953 0)"/>
      <use xlink:href="#ArialMT-41" transform="translate(544.677734 0)"/>
     </g>
    </g>
   </g>
   <g id="matplotlib.axis_2">
    <g id="ytick_1">
     <g id="line2d_41">
      <defs>
       <path id="m379fe4230e" d="M 0 0 
L -6 0 
" style="stroke: #262626; stroke-width: 1.25"/>
      </defs>
      <g>
       <use xlink:href="#m379fe4230e" x="72" y="135" style="fill: #262626; stroke: #262626; stroke-width: 1.25"/>
      </g>
     </g>
     <g id="text_6">
      <!-- 0.00 -->
      <g style="fill: #262626" transform="translate(41.092969 138.936797) scale(0.11 -0.11)">
       <use xlink:href="#ArialMT-30"/>
       <use xlink:href="#ArialMT-2e" transform="translate(55.615234 0)"/>
       <use xlink:href="#ArialMT-30" transform="translate(83.398438 0)"/>
       <use xlink:href="#ArialMT-30" transform="translate(139.013672 0)"/>
      </g>
     </g>
    </g>
    <g id="ytick_2">
     <g id="line2d_42">
      <g>
       <use xlink:href="#m379fe4230e" x="72" y="110.24136" style="fill: #262626; stroke: #262626; stroke-width: 1.25"/>
      </g>
     </g>
     <g id="text_7">
      <!-- 0.25 -->
      <g style="fill: #262626" transform="translate(41.092969 114.178157) scale(0.11 -0.11)">
       <use xlink:href="#ArialMT-30"/>
       <use xlink:href="#ArialMT-2e" transform="translate(55.615234 0)"/>
       <use xlink:href="#ArialMT-32" transform="translate(83.398438 0)"/>
       <use xlink:href="#ArialMT-35" transform="translate(139.013672 0)"/>
      </g>
     </g>
    </g>
    <g id="ytick_3">
     <g id="line2d_43">
      <g>
       <use xlink:href="#m379fe4230e" x="72" y="85.48272" style="fill: #262626; stroke: #262626; stroke-width: 1.25"/>
      </g>
     </g>
     <g id="text_8">
      <!-- 0.50 -->
      <g style="fill: #262626" transform="translate(41.092969 89.419517) scale(0.11 -0.11)">
       <use xlink:href="#ArialMT-30"/>
       <use xlink:href="#ArialMT-2e" transform="translate(55.615234 0)"/>
       <use xlink:href="#ArialMT-35" transform="translate(83.398438 0)"/>
       <use xlink:href="#ArialMT-30" transform="translate(139.013672 0)"/>
      </g>
     </g>
    </g>
    <g id="ytick_4">
     <g id="line2d_44">
      <g>
       <use xlink:href="#m379fe4230e" x="72" y="60.72408" style="fill: #262626; stroke: #262626; stroke-width: 1.25"/>
      </g>
     </g>
     <g id="text_9">
      <!-- 0.75 -->
      <g style="fill: #262626" transform="translate(41.092969 64.660876) scale(0.11 -0.11)">
       <defs>
        <path id="ArialMT-37" d="M 303 3981 
L 303 4522 
L 3269 4522 
L 3269 4084 
Q 2831 3619 2401 2847 
Q 1972 2075 1738 1259 
Q 1569 684 1522 0 
L 944 0 
Q 953 541 1156 1306 
Q 1359 2072 1739 2783 
Q 2119 3494 2547 3981 
L 303 3981 
z
" transform="scale(0.015625)"/>
       </defs>
       <use xlink:href="#ArialMT-30"/>
       <use xlink:href="#ArialMT-2e" transform="translate(55.615234 0)"/>
       <use xlink:href="#ArialMT-37" transform="translate(83.398438 0)"/>
       <use xlink:href="#ArialMT-35" transform="translate(139.013672 0)"/>
      </g>
     </g>
    </g>
    <g id="ytick_5">
     <g id="line2d_45">
      <g>
       <use xlink:href="#m379fe4230e" x="72" y="35.965439" style="fill: #262626; stroke: #262626; stroke-width: 1.25"/>
      </g>
     </g>
     <g id="text_10">
      <!-- 1.00 -->
      <g style="fill: #262626" transform="translate(41.092969 39.902236) scale(0.11 -0.11)">
       <use xlink:href="#ArialMT-31"/>
       <use xlink:href="#ArialMT-2e" transform="translate(55.615234 0)"/>
       <use xlink:href="#ArialMT-30" transform="translate(83.398438 0)"/>
       <use xlink:href="#ArialMT-30" transform="translate(139.013672 0)"/>
      </g>
     </g>
    </g>
    <g id="text_11">
     <!-- Density -->
     <g style="fill: #262626" transform="translate(34.567344 96.50625) rotate(-90) scale(0.12 -0.12)">
      <defs>
       <path id="ArialMT-44" d="M 494 0 
L 494 4581 
L 2072 4581 
Q 2606 4581 2888 4516 
Q 3281 4425 3559 4188 
Q 3922 3881 4101 3404 
Q 4281 2928 4281 2316 
Q 4281 1794 4159 1391 
Q 4038 988 3847 723 
Q 3656 459 3429 307 
Q 3203 156 2883 78 
Q 2563 0 2147 0 
L 494 0 
z
M 1100 541 
L 2078 541 
Q 2531 541 2789 625 
Q 3047 709 3200 863 
Q 3416 1078 3536 1442 
Q 3656 1806 3656 2325 
Q 3656 3044 3420 3430 
Q 3184 3816 2847 3947 
Q 2603 4041 2063 4041 
L 1100 4041 
L 1100 541 
z
" transform="scale(0.015625)"/>
       <path id="ArialMT-65" d="M 2694 1069 
L 3275 997 
Q 3138 488 2766 206 
Q 2394 -75 1816 -75 
Q 1088 -75 661 373 
Q 234 822 234 1631 
Q 234 2469 665 2931 
Q 1097 3394 1784 3394 
Q 2450 3394 2872 2941 
Q 3294 2488 3294 1666 
Q 3294 1616 3291 1516 
L 816 1516 
Q 847 969 1125 678 
Q 1403 388 1819 388 
Q 2128 388 2347 550 
Q 2566 713 2694 1069 
z
M 847 1978 
L 2700 1978 
Q 2663 2397 2488 2606 
Q 2219 2931 1791 2931 
Q 1403 2931 1139 2672 
Q 875 2413 847 1978 
z
" transform="scale(0.015625)"/>
       <path id="ArialMT-73" d="M 197 991 
L 753 1078 
Q 800 744 1014 566 
Q 1228 388 1613 388 
Q 2000 388 2187 545 
Q 2375 703 2375 916 
Q 2375 1106 2209 1216 
Q 2094 1291 1634 1406 
Q 1016 1563 777 1677 
Q 538 1791 414 1992 
Q 291 2194 291 2438 
Q 291 2659 392 2848 
Q 494 3038 669 3163 
Q 800 3259 1026 3326 
Q 1253 3394 1513 3394 
Q 1903 3394 2198 3281 
Q 2494 3169 2634 2976 
Q 2775 2784 2828 2463 
L 2278 2388 
Q 2241 2644 2061 2787 
Q 1881 2931 1553 2931 
Q 1166 2931 1000 2803 
Q 834 2675 834 2503 
Q 834 2394 903 2306 
Q 972 2216 1119 2156 
Q 1203 2125 1616 2013 
Q 2213 1853 2448 1751 
Q 2684 1650 2818 1456 
Q 2953 1263 2953 975 
Q 2953 694 2789 445 
Q 2625 197 2315 61 
Q 2006 -75 1616 -75 
Q 969 -75 630 194 
Q 291 463 197 991 
z
" transform="scale(0.015625)"/>
       <path id="ArialMT-69" d="M 425 3934 
L 425 4581 
L 988 4581 
L 988 3934 
L 425 3934 
z
M 425 0 
L 425 3319 
L 988 3319 
L 988 0 
L 425 0 
z
" transform="scale(0.015625)"/>
       <path id="ArialMT-74" d="M 1650 503 
L 1731 6 
Q 1494 -44 1306 -44 
Q 1000 -44 831 53 
Q 663 150 594 308 
Q 525 466 525 972 
L 525 2881 
L 113 2881 
L 113 3319 
L 525 3319 
L 525 4141 
L 1084 4478 
L 1084 3319 
L 1650 3319 
L 1650 2881 
L 1084 2881 
L 1084 941 
Q 1084 700 1114 631 
Q 1144 563 1211 522 
Q 1278 481 1403 481 
Q 1497 481 1650 503 
z
" transform="scale(0.015625)"/>
       <path id="ArialMT-79" d="M 397 -1278 
L 334 -750 
Q 519 -800 656 -800 
Q 844 -800 956 -737 
Q 1069 -675 1141 -563 
Q 1194 -478 1313 -144 
Q 1328 -97 1363 -6 
L 103 3319 
L 709 3319 
L 1400 1397 
Q 1534 1031 1641 628 
Q 1738 1016 1872 1384 
L 2581 3319 
L 3144 3319 
L 1881 -56 
Q 1678 -603 1566 -809 
Q 1416 -1088 1222 -1217 
Q 1028 -1347 759 -1347 
Q 597 -1347 397 -1278 
z
" transform="scale(0.015625)"/>
      </defs>
      <use xlink:href="#ArialMT-44"/>
      <use xlink:href="#ArialMT-65" transform="translate(72.216797 0)"/>
      <use xlink:href="#ArialMT-6e" transform="translate(127.832031 0)"/>
      <use xlink:href="#ArialMT-73" transform="translate(183.447266 0)"/>
      <use xlink:href="#ArialMT-69" transform="translate(233.447266 0)"/>
      <use xlink:href="#ArialMT-74" transform="translate(255.664062 0)"/>
      <use xlink:href="#ArialMT-79" transform="translate(283.447266 0)"/>
     </g>
    </g>
   </g>
   <g id="FillBetweenPolyCollection_1">
    <path d="M -31.665348 134.999397 
L -31.665348 135 
L -29.656185 135 
L -27.647022 135 
L -25.637859 135 
L -23.628696 135 
L -21.619533 135 
L -19.610371 135 
L -17.601208 135 
L -15.592045 135 
L -13.582882 135 
L -11.573719 135 
L -9.564556 135 
L -7.555393 135 
L -5.54623 135 
L -3.537068 135 
L -1.527905 135 
L 0.481258 135 
L 2.490421 135 
L 4.499584 135 
L 6.508747 135 
L 8.51791 135 
L 10.527073 135 
L 12.536235 135 
L 14.545398 135 
L 16.554561 135 
L 18.563724 135 
L 20.572887 135 
L 22.58205 135 
L 24.591213 135 
L 26.600376 135 
L 28.609538 135 
L 30.618701 135 
L 32.627864 135 
L 34.637027 135 
L 36.64619 135 
L 38.655353 135 
L 40.664516 135 
L 42.673678 135 
L 44.682841 135 
L 46.692004 135 
L 48.701167 135 
L 50.71033 135 
L 52.719493 135 
L 54.728656 135 
L 56.737819 135 
L 58.746981 135 
L 60.756144 135 
L 62.765307 135 
L 64.77447 135 
L 66.783633 135 
L 68.792796 135 
L 70.801959 135 
L 72.811122 135 
L 74.820284 135 
L 76.829447 135 
L 78.83861 135 
L 80.847773 135 
L 82.856936 135 
L 84.866099 135 
L 86.875262 135 
L 88.884425 135 
L 90.893587 135 
L 92.90275 135 
L 94.911913 135 
L 96.921076 135 
L 98.930239 135 
L 100.939402 135 
L 102.948565 135 
L 104.957728 135 
L 106.96689 135 
L 108.976053 135 
L 110.985216 135 
L 112.994379 135 
L 115.003542 135 
L 117.012705 135 
L 119.021868 135 
L 121.031031 135 
L 123.040193 135 
L 125.049356 135 
L 127.058519 135 
L 129.067682 135 
L 131.076845 135 
L 133.086008 135 
L 135.095171 135 
L 137.104334 135 
L 139.113496 135 
L 141.122659 135 
L 143.131822 135 
L 145.140985 135 
L 147.150148 135 
L 149.159311 135 
L 151.168474 135 
L 153.177637 135 
L 155.186799 135 
L 157.195962 135 
L 159.205125 135 
L 161.214288 135 
L 163.223451 135 
L 165.232614 135 
L 167.241777 135 
L 169.25094 135 
L 171.260102 135 
L 173.269265 135 
L 175.278428 135 
L 177.287591 135 
L 179.296754 135 
L 181.305917 135 
L 183.31508 135 
L 185.324243 135 
L 187.333405 135 
L 189.342568 135 
L 191.351731 135 
L 193.360894 135 
L 195.370057 135 
L 197.37922 135 
L 199.388383 135 
L 201.397546 135 
L 203.406708 135 
L 205.415871 135 
L 207.425034 135 
L 209.434197 135 
L 211.44336 135 
L 213.452523 135 
L 215.461686 135 
L 217.470849 135 
L 219.480011 135 
L 221.489174 135 
L 223.498337 135 
L 225.5075 135 
L 227.516663 135 
L 229.525826 135 
L 231.534989 135 
L 233.544151 135 
L 235.553314 135 
L 237.562477 135 
L 239.57164 135 
L 241.580803 135 
L 243.589966 135 
L 245.599129 135 
L 247.608292 135 
L 249.617454 135 
L 251.626617 135 
L 253.63578 135 
L 255.644943 135 
L 257.654106 135 
L 259.663269 135 
L 261.672432 135 
L 263.681595 135 
L 265.690757 135 
L 267.69992 135 
L 269.709083 135 
L 271.718246 135 
L 273.727409 135 
L 275.736572 135 
L 277.745735 135 
L 279.754898 135 
L 281.76406 135 
L 283.773223 135 
L 285.782386 135 
L 287.791549 135 
L 289.800712 135 
L 291.809875 135 
L 293.819038 135 
L 295.828201 135 
L 297.837363 135 
L 299.846526 135 
L 301.855689 135 
L 303.864852 135 
L 305.874015 135 
L 307.883178 135 
L 309.892341 135 
L 311.901504 135 
L 313.910666 135 
L 315.919829 135 
L 317.928992 135 
L 319.938155 135 
L 321.947318 135 
L 323.956481 135 
L 325.965644 135 
L 327.974807 135 
L 329.983969 135 
L 331.993132 135 
L 334.002295 135 
L 336.011458 135 
L 338.020621 135 
L 340.029784 135 
L 342.038947 135 
L 344.04811 135 
L 346.057272 135 
L 348.066435 135 
L 350.075598 135 
L 352.084761 135 
L 354.093924 135 
L 356.103087 135 
L 358.11225 135 
L 360.121413 135 
L 362.130575 135 
L 364.139738 135 
L 366.148901 135 
L 368.158064 135 
L 368.158064 134.99754 
L 368.158064 134.99754 
L 366.148901 134.988852 
L 364.139738 134.962504 
L 362.130575 134.9061 
L 360.121413 134.823871 
L 358.11225 134.74961 
L 356.103087 134.723352 
L 354.093924 134.749729 
L 352.084761 134.797535 
L 350.075598 134.84056 
L 348.066435 134.87694 
L 346.057272 134.909749 
L 344.04811 134.932326 
L 342.038947 134.939687 
L 340.029784 134.940471 
L 338.020621 134.947923 
L 336.011458 134.964407 
L 334.002295 134.981761 
L 331.993132 134.993045 
L 329.983969 134.997836 
L 327.974807 134.998417 
L 325.965644 134.995279 
L 323.956481 134.986416 
L 321.947318 134.970798 
L 319.938155 134.953642 
L 317.928992 134.94568 
L 315.919829 134.953019 
L 313.910666 134.970008 
L 311.901504 134.985868 
L 309.892341 134.995085 
L 307.883178 134.998738 
L 305.874015 134.999761 
L 303.864852 134.999967 
L 301.855689 134.999997 
L 299.846526 135 
L 297.837363 134.999999 
L 295.828201 134.999992 
L 293.819038 134.999934 
L 291.809875 134.999573 
L 289.800712 134.997959 
L 287.791549 134.992802 
L 285.782386 134.981243 
L 283.773223 134.963758 
L 281.76406 134.947401 
L 279.754898 134.939863 
L 277.745735 134.937749 
L 275.736572 134.928064 
L 273.727409 134.907076 
L 271.718246 134.890401 
L 269.709083 134.895147 
L 267.69992 134.916922 
L 265.690757 134.935494 
L 263.681595 134.940644 
L 261.672432 134.941585 
L 259.663269 134.950751 
L 257.654106 134.968033 
L 255.644943 134.984518 
L 253.63578 134.994421 
L 251.626617 134.99829 
L 249.617454 134.99836 
L 247.608292 134.994254 
L 245.599129 134.981729 
L 243.589966 134.955143 
L 241.580803 134.914664 
L 239.57164 134.873163 
L 237.562477 134.851795 
L 235.553314 134.862555 
L 233.544151 134.894761 
L 231.534989 134.923751 
L 229.525826 134.93438 
L 227.516663 134.931481 
L 225.5075 134.926956 
L 223.498337 134.925425 
L 221.489174 134.926341 
L 219.480011 134.928572 
L 217.470849 134.92509 
L 215.461686 134.903788 
L 213.452523 134.860935 
L 211.44336 134.804522 
L 209.434197 134.739384 
L 207.425034 134.657799 
L 205.415871 134.544348 
L 203.406708 134.373965 
L 201.397546 134.103123 
L 199.388383 133.685458 
L 197.37922 133.104521 
L 195.370057 132.353344 
L 193.360894 131.330951 
L 191.351731 129.75158 
L 189.342568 127.210426 
L 187.333405 123.427749 
L 185.324243 118.451725 
L 183.31508 112.560415 
L 181.305917 106.004684 
L 179.296754 98.978432 
L 177.287591 91.794784 
L 175.278428 84.888423 
L 173.269265 78.538125 
L 171.260102 72.632721 
L 169.25094 66.808552 
L 167.241777 60.864878 
L 165.232614 54.993356 
L 163.223451 49.600754 
L 161.214288 45.044283 
L 159.205125 41.550851 
L 157.195962 39.190167 
L 155.186799 37.797687 
L 153.177637 36.976689 
L 151.168474 36.254222 
L 149.159311 35.2995 
L 147.150148 34.076594 
L 145.140985 32.862789 
L 143.131822 32.150188 
L 141.122659 32.415631 
L 139.113496 33.790461 
L 137.104334 35.951447 
L 135.095171 38.464816 
L 133.086008 41.224054 
L 131.076845 44.473638 
L 129.067682 48.473426 
L 127.058519 53.24361 
L 125.049356 58.594617 
L 123.040193 64.28062 
L 121.031031 70.074734 
L 119.021868 75.791174 
L 117.012705 81.363185 
L 115.003542 86.872672 
L 112.994379 92.397282 
L 110.985216 97.833826 
L 108.976053 102.902541 
L 106.96689 107.317491 
L 104.957728 110.975462 
L 102.948565 113.992483 
L 100.939402 116.579527 
L 98.930239 118.925077 
L 96.921076 121.141218 
L 94.911913 123.203068 
L 92.90275 124.957984 
L 90.893587 126.306916 
L 88.884425 127.355186 
L 86.875262 128.305212 
L 84.866099 129.252709 
L 82.856936 130.146251 
L 80.847773 130.889149 
L 78.83861 131.434116 
L 76.829447 131.816074 
L 74.820284 132.128627 
L 72.811122 132.454818 
L 70.801959 132.80806 
L 68.792796 133.149523 
L 66.783633 133.451013 
L 64.77447 133.714803 
L 62.765307 133.941253 
L 60.756144 134.109454 
L 58.746981 134.205328 
L 56.737819 134.253502 
L 54.728656 134.292357 
L 52.719493 134.326516 
L 50.71033 134.339092 
L 48.701167 134.337602 
L 46.692004 134.347753 
L 44.682841 134.372809 
L 42.673678 134.397581 
L 40.664516 134.428014 
L 38.655353 134.492856 
L 36.64619 134.600509 
L 34.637027 134.715861 
L 32.627864 134.790225 
L 30.618701 134.808672 
L 28.609538 134.801575 
L 26.600376 134.80758 
L 24.591213 134.833874 
L 22.58205 134.859798 
L 20.572887 134.867561 
L 18.563724 134.858004 
L 16.554561 134.837589 
L 14.545398 134.798587 
L 12.536235 134.733221 
L 10.527073 134.672158 
L 8.51791 134.672179 
L 6.508747 134.747391 
L 4.499584 134.846909 
L 2.490421 134.913826 
L 0.481258 134.937174 
L -1.527905 134.941648 
L -3.537068 134.950602 
L -5.54623 134.967587 
L -7.555393 134.984081 
L -9.564556 134.993774 
L -11.573719 134.996147 
L -13.582882 134.991733 
L -15.592045 134.979808 
L -17.601208 134.96238 
L -19.610371 134.948165 
L -21.619533 134.947278 
L -23.628696 134.960419 
L -25.637859 134.978067 
L -27.647022 134.991029 
L -29.656185 134.997292 
L -31.665348 134.999397 
z
" clip-path="url(#p135e1b279a)" style="fill: #bbbbbb; fill-opacity: 0.08; stroke: #bbbbbb; stroke-width: 2.5"/>
   </g>
   <g id="FillBetweenPolyCollection_2">
    <defs>
     <path id="m60b9069bae" d="M 55.015988 -45.000346 
L 55.015988 -45 
L 56.594969 -45 
L 58.173951 -45 
L 59.752933 -45 
L 61.331914 -45 
L 62.910896 -45 
L 64.489878 -45 
L 66.068859 -45 
L 67.647841 -45 
L 69.226823 -45 
L 70.805804 -45 
L 72.384786 -45 
L 73.963767 -45 
L 75.542749 -45 
L 77.121731 -45 
L 78.700712 -45 
L 80.279694 -45 
L 81.858676 -45 
L 83.437657 -45 
L 85.016639 -45 
L 86.595621 -45 
L 88.174602 -45 
L 89.753584 -45 
L 91.332566 -45 
L 92.911547 -45 
L 94.490529 -45 
L 96.069511 -45 
L 97.648492 -45 
L 99.227474 -45 
L 100.806456 -45 
L 102.385437 -45 
L 103.964419 -45 
L 105.5434 -45 
L 107.122382 -45 
L 108.701364 -45 
L 110.280345 -45 
L 111.859327 -45 
L 113.438309 -45 
L 115.01729 -45 
L 116.596272 -45 
L 118.175254 -45 
L 119.754235 -45 
L 121.333217 -45 
L 122.912199 -45 
L 124.49118 -45 
L 126.070162 -45 
L 127.649144 -45 
L 129.228125 -45 
L 130.807107 -45 
L 132.386089 -45 
L 133.96507 -45 
L 135.544052 -45 
L 137.123034 -45 
L 138.702015 -45 
L 140.280997 -45 
L 141.859978 -45 
L 143.43896 -45 
L 145.017942 -45 
L 146.596923 -45 
L 148.175905 -45 
L 149.754887 -45 
L 151.333868 -45 
L 152.91285 -45 
L 154.491832 -45 
L 156.070813 -45 
L 157.649795 -45 
L 159.228777 -45 
L 160.807758 -45 
L 162.38674 -45 
L 163.965722 -45 
L 165.544703 -45 
L 167.123685 -45 
L 168.702667 -45 
L 170.281648 -45 
L 171.86063 -45 
L 173.439612 -45 
L 175.018593 -45 
L 176.597575 -45 
L 178.176556 -45 
L 179.755538 -45 
L 181.33452 -45 
L 182.913501 -45 
L 184.492483 -45 
L 186.071465 -45 
L 187.650446 -45 
L 189.229428 -45 
L 190.80841 -45 
L 192.387391 -45 
L 193.966373 -45 
L 195.545355 -45 
L 197.124336 -45 
L 198.703318 -45 
L 200.2823 -45 
L 201.861281 -45 
L 203.440263 -45 
L 205.019245 -45 
L 206.598226 -45 
L 208.177208 -45 
L 209.75619 -45 
L 211.335171 -45 
L 212.914153 -45 
L 214.493134 -45 
L 216.072116 -45 
L 217.651098 -45 
L 219.230079 -45 
L 220.809061 -45 
L 222.388043 -45 
L 223.967024 -45 
L 225.546006 -45 
L 227.124988 -45 
L 228.703969 -45 
L 230.282951 -45 
L 231.861933 -45 
L 233.440914 -45 
L 235.019896 -45 
L 236.598878 -45 
L 238.177859 -45 
L 239.756841 -45 
L 241.335823 -45 
L 242.914804 -45 
L 244.493786 -45 
L 246.072767 -45 
L 247.651749 -45 
L 249.230731 -45 
L 250.809712 -45 
L 252.388694 -45 
L 253.967676 -45 
L 255.546657 -45 
L 257.125639 -45 
L 258.704621 -45 
L 260.283602 -45 
L 261.862584 -45 
L 263.441566 -45 
L 265.020547 -45 
L 266.599529 -45 
L 268.178511 -45 
L 269.757492 -45 
L 271.336474 -45 
L 272.915456 -45 
L 274.494437 -45 
L 276.073419 -45 
L 277.652401 -45 
L 279.231382 -45 
L 280.810364 -45 
L 282.389345 -45 
L 283.968327 -45 
L 285.547309 -45 
L 287.12629 -45 
L 288.705272 -45 
L 290.284254 -45 
L 291.863235 -45 
L 293.442217 -45 
L 295.021199 -45 
L 296.60018 -45 
L 298.179162 -45 
L 299.758144 -45 
L 301.337125 -45 
L 302.916107 -45 
L 304.495089 -45 
L 306.07407 -45 
L 307.653052 -45 
L 309.232034 -45 
L 310.811015 -45 
L 312.389997 -45 
L 313.968979 -45 
L 315.54796 -45 
L 317.126942 -45 
L 318.705923 -45 
L 320.284905 -45 
L 321.863887 -45 
L 323.442868 -45 
L 325.02185 -45 
L 326.600832 -45 
L 328.179813 -45 
L 329.758795 -45 
L 331.337777 -45 
L 332.916758 -45 
L 334.49574 -45 
L 336.074722 -45 
L 337.653703 -45 
L 339.232685 -45 
L 340.811667 -45 
L 342.390648 -45 
L 343.96963 -45 
L 345.548612 -45 
L 347.127593 -45 
L 348.706575 -45 
L 350.285557 -45 
L 351.864538 -45 
L 353.44352 -45 
L 355.022501 -45 
L 356.601483 -45 
L 358.180465 -45 
L 359.759446 -45 
L 361.338428 -45 
L 362.91741 -45 
L 364.496391 -45 
L 366.075373 -45 
L 367.654355 -45 
L 369.233336 -45 
L 369.233336 -45.006135 
L 369.233336 -45.006135 
L 367.654355 -45.018541 
L 366.075373 -45.047987 
L 364.496391 -45.1064 
L 362.91741 -45.202227 
L 361.338428 -45.329777 
L 359.759446 -45.462148 
L 358.180465 -45.558091 
L 356.601483 -45.583413 
L 355.022501 -45.531921 
L 353.44352 -45.427958 
L 351.864538 -45.308997 
L 350.285557 -45.204548 
L 348.706575 -45.127155 
L 347.127593 -45.076467 
L 345.548612 -45.04713 
L 343.96963 -45.033304 
L 342.390648 -45.029421 
L 340.811667 -45.030042 
L 339.232685 -45.030606 
L 337.653703 -45.028791 
L 336.074722 -45.025203 
L 334.49574 -45.022616 
L 332.916758 -45.024085 
L 331.337777 -45.030954 
L 329.758795 -45.041762 
L 328.179813 -45.052692 
L 326.600832 -45.059626 
L 325.02185 -45.06075 
L 323.442868 -45.057826 
L 321.863887 -45.054971 
L 320.284905 -45.055852 
L 318.705923 -45.061527 
L 317.126942 -45.070368 
L 315.54796 -45.079554 
L 313.968979 -45.086734 
L 312.389997 -45.091066 
L 310.811015 -45.093807 
L 309.232034 -45.098508 
L 307.653052 -45.110272 
L 306.07407 -45.133744 
L 304.495089 -45.171055 
L 302.916107 -45.222286 
L 301.337125 -45.289753 
L 299.758144 -45.383651 
L 298.179162 -45.523797 
L 296.60018 -45.734476 
L 295.021199 -46.035976 
L 293.442217 -46.441386 
L 291.863235 -46.964412 
L 290.284254 -47.633939 
L 288.705272 -48.503111 
L 287.12629 -49.64373 
L 285.547309 -51.129109 
L 283.968327 -53.017828 
L 282.389345 -55.347485 
L 280.810364 -58.135257 
L 279.231382 -61.376233 
L 277.652401 -65.040848 
L 276.073419 -69.087491 
L 274.494437 -73.497518 
L 272.915456 -78.302464 
L 271.336474 -83.553141 
L 269.757492 -89.227772 
L 268.178511 -95.158801 
L 266.599529 -101.070145 
L 265.020547 -106.717814 
L 263.441566 -112.018138 
L 261.862584 -117.054088 
L 260.283602 -121.962911 
L 258.704621 -126.806939 
L 257.125639 -131.528389 
L 255.546657 -136.006535 
L 253.967676 -140.148867 
L 252.388694 -143.927103 
L 250.809712 -147.333401 
L 249.230731 -150.320169 
L 247.651749 -152.798335 
L 246.072767 -154.685126 
L 244.493786 -155.922166 
L 242.914804 -156.428571 
L 241.335823 -156.055214 
L 239.756841 -154.624291 
L 238.177859 -152.044493 
L 236.598878 -148.403209 
L 235.019896 -143.9534 
L 233.440914 -139.004588 
L 231.861933 -133.797921 
L 230.282951 -128.44379 
L 228.703969 -122.948472 
L 227.124988 -117.299698 
L 225.546006 -111.551085 
L 223.967024 -105.852073 
L 222.388043 -100.408406 
L 220.809061 -95.406396 
L 219.230079 -90.95684 
L 217.651098 -87.090612 
L 216.072116 -83.791612 
L 214.493134 -81.03045 
L 212.914153 -78.776474 
L 211.335171 -76.989584 
L 209.75619 -75.605967 
L 208.177208 -74.533988 
L 206.598226 -73.669143 
L 205.019245 -72.921573 
L 203.440263 -72.239625 
L 201.861281 -71.617512 
L 200.2823 -71.085281 
L 198.703318 -70.684284 
L 197.124336 -70.43547 
L 195.545355 -70.315976 
L 193.966373 -70.261019 
L 192.387391 -70.192246 
L 190.80841 -70.051829 
L 189.229428 -69.817545 
L 187.650446 -69.493512 
L 186.071465 -69.09264 
L 184.492483 -68.627421 
L 182.913501 -68.109871 
L 181.33452 -67.551968 
L 179.755538 -66.963014 
L 178.176556 -66.345091 
L 176.597575 -65.686185 
L 175.018593 -64.954482 
L 173.439612 -64.106017 
L 171.86063 -63.110494 
L 170.281648 -61.976676 
L 168.702667 -60.751327 
L 167.123685 -59.490536 
L 165.544703 -58.231018 
L 163.965722 -56.986281 
L 162.38674 -55.763583 
L 160.807758 -54.578689 
L 159.228777 -53.456067 
L 157.649795 -52.42248 
L 156.070813 -51.503764 
L 154.491832 -50.720838 
L 152.91285 -50.077921 
L 151.333868 -49.551097 
L 149.754887 -49.094706 
L 148.175905 -48.668048 
L 146.596923 -48.260763 
L 145.017942 -47.892563 
L 143.43896 -47.587177 
L 141.859978 -47.345148 
L 140.280997 -47.139273 
L 138.702015 -46.933388 
L 137.123034 -46.705581 
L 135.544052 -46.458033 
L 133.96507 -46.210663 
L 132.386089 -45.987318 
L 130.807107 -45.803889 
L 129.228125 -45.66289 
L 127.649144 -45.555408 
L 126.070162 -45.468996 
L 124.49118 -45.396988 
L 122.912199 -45.342556 
L 121.333217 -45.313715 
L 119.754235 -45.312756 
L 118.175254 -45.329081 
L 116.596272 -45.342188 
L 115.01729 -45.333071 
L 113.438309 -45.295246 
L 111.859327 -45.237249 
L 110.280345 -45.17584 
L 108.701364 -45.126137 
L 107.122382 -45.095585 
L 105.5434 -45.083699 
L 103.964419 -45.08479 
L 102.385437 -45.090717 
L 100.806456 -45.093348 
L 99.227474 -45.087356 
L 97.648492 -45.072329 
L 96.069511 -45.052366 
L 94.490529 -45.033201 
L 92.911547 -45.019114 
L 91.332566 -45.011702 
L 89.753584 -45.010498 
L 88.174602 -45.013977 
L 86.595621 -45.019989 
L 85.016639 -45.025867 
L 83.437657 -45.029042 
L 81.858676 -45.028197 
L 80.279694 -45.024121 
L 78.700712 -45.019415 
L 77.121731 -45.017195 
L 75.542749 -45.019631 
L 73.963767 -45.027001 
L 72.384786 -45.037445 
L 70.805804 -45.04749 
L 69.226823 -45.053371 
L 67.647841 -45.052706 
L 66.068859 -45.045622 
L 64.489878 -45.034555 
L 62.910896 -45.022854 
L 61.331914 -45.013166 
L 59.752933 -45.006589 
L 58.173951 -45.002857 
L 56.594969 -45.001071 
L 55.015988 -45.000346 
z
" style="stroke: #ea7676; stroke-width: 2.5"/>
    </defs>
    <g clip-path="url(#p135e1b279a)">
     <use xlink:href="#m60b9069bae" x="0" y="180" style="fill: #ea7676; fill-opacity: 0.08; stroke: #ea7676; stroke-width: 2.5"/>
    </g>
   </g>
   <g id="FillBetweenPolyCollection_3">
    <defs>
     <path id="m1925c9263a" d="M 38.195734 -45.000681 
L 38.195734 -45 
L 39.913193 -45 
L 41.630651 -45 
L 43.34811 -45 
L 45.065568 -45 
L 46.783027 -45 
L 48.500486 -45 
L 50.217944 -45 
L 51.935403 -45 
L 53.652862 -45 
L 55.37032 -45 
L 57.087779 -45 
L 58.805237 -45 
L 60.522696 -45 
L 62.240155 -45 
L 63.957613 -45 
L 65.675072 -45 
L 67.392531 -45 
L 69.109989 -45 
L 70.827448 -45 
L 72.544906 -45 
L 74.262365 -45 
L 75.979824 -45 
L 77.697282 -45 
L 79.414741 -45 
L 81.132199 -45 
L 82.849658 -45 
L 84.567117 -45 
L 86.284575 -45 
L 88.002034 -45 
L 89.719493 -45 
L 91.436951 -45 
L 93.15441 -45 
L 94.871868 -45 
L 96.589327 -45 
L 98.306786 -45 
L 100.024244 -45 
L 101.741703 -45 
L 103.459162 -45 
L 105.17662 -45 
L 106.894079 -45 
L 108.611537 -45 
L 110.328996 -45 
L 112.046455 -45 
L 113.763913 -45 
L 115.481372 -45 
L 117.198831 -45 
L 118.916289 -45 
L 120.633748 -45 
L 122.351206 -45 
L 124.068665 -45 
L 125.786124 -45 
L 127.503582 -45 
L 129.221041 -45 
L 130.9385 -45 
L 132.655958 -45 
L 134.373417 -45 
L 136.090875 -45 
L 137.808334 -45 
L 139.525793 -45 
L 141.243251 -45 
L 142.96071 -45 
L 144.678169 -45 
L 146.395627 -45 
L 148.113086 -45 
L 149.830544 -45 
L 151.548003 -45 
L 153.265462 -45 
L 154.98292 -45 
L 156.700379 -45 
L 158.417838 -45 
L 160.135296 -45 
L 161.852755 -45 
L 163.570213 -45 
L 165.287672 -45 
L 167.005131 -45 
L 168.722589 -45 
L 170.440048 -45 
L 172.157507 -45 
L 173.874965 -45 
L 175.592424 -45 
L 177.309882 -45 
L 179.027341 -45 
L 180.7448 -45 
L 182.462258 -45 
L 184.179717 -45 
L 185.897176 -45 
L 187.614634 -45 
L 189.332093 -45 
L 191.049551 -45 
L 192.76701 -45 
L 194.484469 -45 
L 196.201927 -45 
L 197.919386 -45 
L 199.636845 -45 
L 201.354303 -45 
L 203.071762 -45 
L 204.78922 -45 
L 206.506679 -45 
L 208.224138 -45 
L 209.941596 -45 
L 211.659055 -45 
L 213.376513 -45 
L 215.093972 -45 
L 216.811431 -45 
L 218.528889 -45 
L 220.246348 -45 
L 221.963807 -45 
L 223.681265 -45 
L 225.398724 -45 
L 227.116182 -45 
L 228.833641 -45 
L 230.5511 -45 
L 232.268558 -45 
L 233.986017 -45 
L 235.703476 -45 
L 237.420934 -45 
L 239.138393 -45 
L 240.855851 -45 
L 242.57331 -45 
L 244.290769 -45 
L 246.008227 -45 
L 247.725686 -45 
L 249.443145 -45 
L 251.160603 -45 
L 252.878062 -45 
L 254.59552 -45 
L 256.312979 -45 
L 258.030438 -45 
L 259.747896 -45 
L 261.465355 -45 
L 263.182814 -45 
L 264.900272 -45 
L 266.617731 -45 
L 268.335189 -45 
L 270.052648 -45 
L 271.770107 -45 
L 273.487565 -45 
L 275.205024 -45 
L 276.922483 -45 
L 278.639941 -45 
L 280.3574 -45 
L 282.074858 -45 
L 283.792317 -45 
L 285.509776 -45 
L 287.227234 -45 
L 288.944693 -45 
L 290.662152 -45 
L 292.37961 -45 
L 294.097069 -45 
L 295.814527 -45 
L 297.531986 -45 
L 299.249445 -45 
L 300.966903 -45 
L 302.684362 -45 
L 304.401821 -45 
L 306.119279 -45 
L 307.836738 -45 
L 309.554196 -45 
L 311.271655 -45 
L 312.989114 -45 
L 314.706572 -45 
L 316.424031 -45 
L 318.14149 -45 
L 319.858948 -45 
L 321.576407 -45 
L 323.293865 -45 
L 325.011324 -45 
L 326.728783 -45 
L 328.446241 -45 
L 330.1637 -45 
L 331.881159 -45 
L 333.598617 -45 
L 335.316076 -45 
L 337.033534 -45 
L 338.750993 -45 
L 340.468452 -45 
L 342.18591 -45 
L 343.903369 -45 
L 345.620827 -45 
L 347.338286 -45 
L 349.055745 -45 
L 350.773203 -45 
L 352.490662 -45 
L 354.208121 -45 
L 355.925579 -45 
L 357.643038 -45 
L 359.360496 -45 
L 361.077955 -45 
L 362.795414 -45 
L 364.512872 -45 
L 366.230331 -45 
L 367.94779 -45 
L 369.665248 -45 
L 371.382707 -45 
L 373.100165 -45 
L 374.817624 -45 
L 376.535083 -45 
L 378.252541 -45 
L 379.97 -45 
L 379.97 -45.011578 
L 379.97 -45.011578 
L 378.252541 -45.022261 
L 376.535083 -45.040664 
L 374.817624 -45.070566 
L 373.100165 -45.116334 
L 371.382707 -45.182196 
L 369.665248 -45.271079 
L 367.94779 -45.383157 
L 366.230331 -45.514495 
L 364.512872 -45.656312 
L 362.795414 -45.795359 
L 361.077955 -45.915672 
L 359.360496 -46.001478 
L 357.643038 -46.04056 
L 355.925579 -46.027114 
L 354.208121 -45.963159 
L 352.490662 -45.85805 
L 350.773203 -45.72625 
L 349.055745 -45.584098 
L 347.338286 -45.4466 
L 345.620827 -45.325093 
L 343.903369 -45.226285 
L 342.18591 -45.152609 
L 340.468452 -45.103524 
L 338.750993 -45.077205 
L 337.033534 -45.072165 
L 335.316076 -45.088526 
L 333.598617 -45.128858 
L 331.881159 -45.198639 
L 330.1637 -45.306433 
L 328.446241 -45.463887 
L 326.728783 -45.685569 
L 325.011324 -45.988639 
L 323.293865 -46.39227 
L 321.576407 -46.916759 
L 319.858948 -47.582286 
L 318.14149 -48.407402 
L 316.424031 -49.407451 
L 314.706572 -50.593271 
L 312.989114 -51.970527 
L 311.271655 -53.539969 
L 309.554196 -55.29862 
L 307.836738 -57.241673 
L 306.119279 -59.364522 
L 304.401821 -61.664298 
L 302.684362 -64.140251 
L 300.966903 -66.792592 
L 299.249445 -69.619713 
L 297.531986 -72.614168 
L 295.814527 -75.758249 
L 294.097069 -79.020375 
L 292.37961 -82.353611 
L 290.662152 -85.697346 
L 288.944693 -88.982405 
L 287.227234 -92.138837 
L 285.509776 -95.104657 
L 283.792317 -97.833293 
L 282.074858 -100.297709 
L 280.3574 -102.490075 
L 278.639941 -104.417205 
L 276.922483 -106.09326 
L 275.205024 -107.531973 
L 273.487565 -108.740636 
L 271.770107 -109.717259 
L 270.052648 -110.451098 
L 268.335189 -110.92559 
L 266.617731 -111.122163 
L 264.900272 -111.023497 
L 263.182814 -110.61551 
L 261.465355 -109.888167 
L 259.747896 -108.835767 
L 258.030438 -107.457412 
L 256.312979 -105.758077 
L 254.59552 -103.750179 
L 252.878062 -101.455236 
L 251.160603 -98.905012 
L 249.443145 -96.141695 
L 247.725686 -93.216862 
L 246.008227 -90.189333 
L 244.290769 -87.122346 
L 242.57331 -84.080717 
L 240.855851 -81.128694 
L 239.138393 -78.328904 
L 237.420934 -75.742285 
L 235.703476 -73.428294 
L 233.986017 -71.444396 
L 232.268558 -69.843982 
L 230.5511 -68.672523 
L 228.833641 -67.962506 
L 227.116182 -67.728374 
L 225.398724 -67.962824 
L 223.681265 -68.635598 
L 221.963807 -69.695299 
L 220.246348 -71.074182 
L 218.528889 -72.695242 
L 216.811431 -74.480532 
L 215.093972 -76.359251 
L 213.376513 -78.274077 
L 211.659055 -80.184308 
L 209.941596 -82.065001 
L 208.224138 -83.902182 
L 206.506679 -85.685345 
L 204.78922 -87.399342 
L 203.071762 -89.018118 
L 201.354303 -90.502277 
L 199.636845 -91.801286 
L 197.919386 -92.859669 
L 196.201927 -93.625272 
L 194.484469 -94.057156 
L 192.76701 -94.13099 
L 191.049551 -93.840792 
L 189.332093 -93.197087 
L 187.614634 -92.222514 
L 185.897176 -90.946444 
L 184.179717 -89.40012 
L 182.462258 -87.613408 
L 180.7448 -85.613664 
L 179.027341 -83.426578 
L 177.309882 -81.078334 
L 175.592424 -78.598137 
L 173.874965 -76.020121 
L 172.157507 -73.383973 
L 170.440048 -70.734025 
L 168.722589 -68.117083 
L 167.005131 -65.579535 
L 165.287672 -63.164296 
L 163.570213 -60.908018 
L 161.852755 -58.838777 
L 160.135296 -56.974389 
L 158.417838 -55.321533 
L 156.700379 -53.87597 
L 154.98292 -52.624046 
L 153.265462 -51.545452 
L 151.548003 -50.616791 
L 149.830544 -49.81521 
L 148.113086 -49.121236 
L 146.395627 -48.5202 
L 144.678169 -48.002092 
L 142.96071 -47.560201 
L 141.243251 -47.189203 
L 139.525793 -46.883444 
L 137.808334 -46.63592 
L 136.090875 -46.438134 
L 134.373417 -46.28066 
L 132.655958 -46.154077 
L 130.9385 -46.049884 
L 129.221041 -45.961129 
L 127.503582 -45.882637 
L 125.786124 -45.810876 
L 124.068665 -45.743583 
L 122.351206 -45.679347 
L 120.633748 -45.617272 
L 118.916289 -45.556821 
L 117.198831 -45.497818 
L 115.481372 -45.440536 
L 113.763913 -45.385757 
L 112.046455 -45.334722 
L 110.328996 -45.288939 
L 108.611537 -45.249897 
L 106.894079 -45.218752 
L 105.17662 -45.196072 
L 103.459162 -45.181672 
L 101.741703 -45.174584 
L 100.024244 -45.173131 
L 98.306786 -45.175116 
L 96.589327 -45.178092 
L 94.871868 -45.179686 
L 93.15441 -45.17794 
L 91.436951 -45.17159 
L 89.719493 -45.160237 
L 88.002034 -45.144361 
L 86.284575 -45.125174 
L 84.567117 -45.104349 
L 82.849658 -45.0837 
L 81.132199 -45.064882 
L 79.414741 -45.04918 
L 77.697282 -45.037411 
L 75.979824 -45.029924 
L 74.262365 -45.026661 
L 72.544906 -45.027231 
L 70.827448 -45.030962 
L 69.109989 -45.036944 
L 67.392531 -45.044077 
L 65.675072 -45.051151 
L 63.957613 -45.056979 
L 62.240155 -45.060564 
L 60.522696 -45.061272 
L 58.805237 -45.058936 
L 57.087779 -45.053873 
L 55.37032 -45.04679 
L 53.652862 -45.038608 
L 51.935403 -45.030265 
L 50.217944 -45.022539 
L 48.500486 -45.015946 
L 46.783027 -45.010717 
L 45.065568 -45.006843 
L 43.34811 -45.004151 
L 41.630651 -45.002392 
L 39.913193 -45.001309 
L 38.195734 -45.000681 
z
" style="stroke: #3d9eb0; stroke-width: 2.5"/>
    </defs>
    <g clip-path="url(#p135e1b279a)">
     <use xlink:href="#m1925c9263a" x="0" y="180" style="fill: #3d9eb0; fill-opacity: 0.08; stroke: #3d9eb0; stroke-width: 2.5"/>
    </g>
   </g>
   <g id="patch_3">
    <path d="M 72 135 
L 72 18 
" style="fill: none; stroke: #262626; stroke-width: 1.25; stroke-linejoin: miter; stroke-linecap: square"/>
   </g>
   <g id="patch_4">
    <path d="M 342 135 
L 342 18 
" style="fill: none; stroke: #262626; stroke-width: 1.25; stroke-linejoin: miter; stroke-linecap: square"/>
   </g>
   <g id="patch_5">
    <path d="M 72 135 
L 342 135 
" style="fill: none; stroke: #262626; stroke-width: 1.25; stroke-linejoin: miter; stroke-linecap: square"/>
   </g>
   <g id="patch_6">
    <path d="M 72 18 
L 342 18 
" style="fill: none; stroke: #262626; stroke-width: 1.25; stroke-linejoin: miter; stroke-linecap: square"/>
   </g>
   <g id="text_12">
    <!-- NIL none -->
    <g style="fill: #262626" transform="translate(182.875313 12) scale(0.12 -0.12)">
     <defs>
      <path id="ArialMT-49" d="M 597 0 
L 597 4581 
L 1203 4581 
L 1203 0 
L 597 0 
z
" transform="scale(0.015625)"/>
      <path id="ArialMT-4c" d="M 469 0 
L 469 4581 
L 1075 4581 
L 1075 541 
L 3331 541 
L 3331 0 
L 469 0 
z
" transform="scale(0.015625)"/>
      <path id="ArialMT-20" transform="scale(0.015625)"/>
      <path id="ArialMT-6f" d="M 213 1659 
Q 213 2581 725 3025 
Q 1153 3394 1769 3394 
Q 2453 3394 2887 2945 
Q 3322 2497 3322 1706 
Q 3322 1066 3130 698 
Q 2938 331 2570 128 
Q 2203 -75 1769 -75 
Q 1072 -75 642 372 
Q 213 819 213 1659 
z
M 791 1659 
Q 791 1022 1069 705 
Q 1347 388 1769 388 
Q 2188 388 2466 706 
Q 2744 1025 2744 1678 
Q 2744 2294 2464 2611 
Q 2184 2928 1769 2928 
Q 1347 2928 1069 2612 
Q 791 2297 791 1659 
z
" transform="scale(0.015625)"/>
     </defs>
     <use xlink:href="#ArialMT-4e"/>
     <use xlink:href="#ArialMT-49" transform="translate(72.216797 0)"/>
     <use xlink:href="#ArialMT-4c" transform="translate(100 0)"/>
     <use xlink:href="#ArialMT-20" transform="translate(151.865234 0)"/>
     <use xlink:href="#ArialMT-6e" transform="translate(179.648438 0)"/>
     <use xlink:href="#ArialMT-6f" transform="translate(235.263672 0)"/>
     <use xlink:href="#ArialMT-6e" transform="translate(290.878906 0)"/>
     <use xlink:href="#ArialMT-65" transform="translate(346.494141 0)"/>
    </g>
   </g>
   <g id="legend_1">
    <g id="patch_7">
     <path d="M 359.9 30.407656 
L 381.9 30.407656 
L 381.9 22.707656 
L 359.9 22.707656 
z
" style="fill: #bbbbbb; fill-opacity: 0.08; stroke: #bbbbbb; stroke-width: 2.5; stroke-linejoin: miter"/>
    </g>
    <g id="text_13">
     <!-- Secondary -->
     <g style="fill: #262626" transform="translate(390.7 30.407656) scale(0.11 -0.11)">
      <defs>
       <path id="ArialMT-53" d="M 288 1472 
L 859 1522 
Q 900 1178 1048 958 
Q 1197 738 1509 602 
Q 1822 466 2213 466 
Q 2559 466 2825 569 
Q 3091 672 3220 851 
Q 3350 1031 3350 1244 
Q 3350 1459 3225 1620 
Q 3100 1781 2813 1891 
Q 2628 1963 1997 2114 
Q 1366 2266 1113 2400 
Q 784 2572 623 2826 
Q 463 3081 463 3397 
Q 463 3744 659 4045 
Q 856 4347 1234 4503 
Q 1613 4659 2075 4659 
Q 2584 4659 2973 4495 
Q 3363 4331 3572 4012 
Q 3781 3694 3797 3291 
L 3216 3247 
Q 3169 3681 2898 3903 
Q 2628 4125 2100 4125 
Q 1550 4125 1298 3923 
Q 1047 3722 1047 3438 
Q 1047 3191 1225 3031 
Q 1400 2872 2139 2705 
Q 2878 2538 3153 2413 
Q 3553 2228 3743 1945 
Q 3934 1663 3934 1294 
Q 3934 928 3725 604 
Q 3516 281 3123 101 
Q 2731 -78 2241 -78 
Q 1619 -78 1198 103 
Q 778 284 539 648 
Q 300 1013 288 1472 
z
" transform="scale(0.015625)"/>
       <path id="ArialMT-63" d="M 2588 1216 
L 3141 1144 
Q 3050 572 2676 248 
Q 2303 -75 1759 -75 
Q 1078 -75 664 370 
Q 250 816 250 1647 
Q 250 2184 428 2587 
Q 606 2991 970 3192 
Q 1334 3394 1763 3394 
Q 2303 3394 2647 3120 
Q 2991 2847 3088 2344 
L 2541 2259 
Q 2463 2594 2264 2762 
Q 2066 2931 1784 2931 
Q 1359 2931 1093 2626 
Q 828 2322 828 1663 
Q 828 994 1084 691 
Q 1341 388 1753 388 
Q 2084 388 2306 591 
Q 2528 794 2588 1216 
z
" transform="scale(0.015625)"/>
       <path id="ArialMT-64" d="M 2575 0 
L 2575 419 
Q 2259 -75 1647 -75 
Q 1250 -75 917 144 
Q 584 363 401 755 
Q 219 1147 219 1656 
Q 219 2153 384 2558 
Q 550 2963 881 3178 
Q 1213 3394 1622 3394 
Q 1922 3394 2156 3267 
Q 2391 3141 2538 2938 
L 2538 4581 
L 3097 4581 
L 3097 0 
L 2575 0 
z
M 797 1656 
Q 797 1019 1065 703 
Q 1334 388 1700 388 
Q 2069 388 2326 689 
Q 2584 991 2584 1609 
Q 2584 2291 2321 2609 
Q 2059 2928 1675 2928 
Q 1300 2928 1048 2622 
Q 797 2316 797 1656 
z
" transform="scale(0.015625)"/>
       <path id="ArialMT-61" d="M 2588 409 
Q 2275 144 1986 34 
Q 1697 -75 1366 -75 
Q 819 -75 525 192 
Q 231 459 231 875 
Q 231 1119 342 1320 
Q 453 1522 633 1644 
Q 813 1766 1038 1828 
Q 1203 1872 1538 1913 
Q 2219 1994 2541 2106 
Q 2544 2222 2544 2253 
Q 2544 2597 2384 2738 
Q 2169 2928 1744 2928 
Q 1347 2928 1158 2789 
Q 969 2650 878 2297 
L 328 2372 
Q 403 2725 575 2942 
Q 747 3159 1072 3276 
Q 1397 3394 1825 3394 
Q 2250 3394 2515 3294 
Q 2781 3194 2906 3042 
Q 3031 2891 3081 2659 
Q 3109 2516 3109 2141 
L 3109 1391 
Q 3109 606 3145 398 
Q 3181 191 3288 0 
L 2700 0 
Q 2613 175 2588 409 
z
M 2541 1666 
Q 2234 1541 1622 1453 
Q 1275 1403 1131 1340 
Q 988 1278 909 1158 
Q 831 1038 831 891 
Q 831 666 1001 516 
Q 1172 366 1500 366 
Q 1825 366 2078 508 
Q 2331 650 2450 897 
Q 2541 1088 2541 1459 
L 2541 1666 
z
" transform="scale(0.015625)"/>
       <path id="ArialMT-72" d="M 416 0 
L 416 3319 
L 922 3319 
L 922 2816 
Q 1116 3169 1280 3281 
Q 1444 3394 1641 3394 
Q 1925 3394 2219 3213 
L 2025 2691 
Q 1819 2813 1613 2813 
Q 1428 2813 1281 2702 
Q 1134 2591 1072 2394 
Q 978 2094 978 1738 
L 978 0 
L 416 0 
z
" transform="scale(0.015625)"/>
      </defs>
      <use xlink:href="#ArialMT-53"/>
      <use xlink:href="#ArialMT-65" transform="translate(66.699219 0)"/>
      <use xlink:href="#ArialMT-63" transform="translate(122.314453 0)"/>
      <use xlink:href="#ArialMT-6f" transform="translate(172.314453 0)"/>
      <use xlink:href="#ArialMT-6e" transform="translate(227.929688 0)"/>
      <use xlink:href="#ArialMT-64" transform="translate(283.544922 0)"/>
      <use xlink:href="#ArialMT-61" transform="translate(339.160156 0)"/>
      <use xlink:href="#ArialMT-72" transform="translate(394.775391 0)"/>
      <use xlink:href="#ArialMT-79" transform="translate(428.076172 0)"/>
     </g>
    </g>
    <g id="patch_8">
     <path d="M 359.9 46.096406 
L 381.9 46.096406 
L 381.9 38.396406 
L 359.9 38.396406 
z
" style="fill: #ea7676; fill-opacity: 0.08; stroke: #ea7676; stroke-width: 2.5; stroke-linejoin: miter"/>
    </g>
    <g id="text_14">
     <!-- WT -->
     <g style="fill: #262626" transform="translate(390.7 46.096406) scale(0.11 -0.11)">
      <defs>
       <path id="ArialMT-57" d="M 1294 0 
L 78 4581 
L 700 4581 
L 1397 1578 
Q 1509 1106 1591 641 
Q 1766 1375 1797 1488 
L 2669 4581 
L 3400 4581 
L 4056 2263 
Q 4303 1400 4413 641 
Q 4500 1075 4641 1638 
L 5359 4581 
L 5969 4581 
L 4713 0 
L 4128 0 
L 3163 3491 
Q 3041 3928 3019 4028 
Q 2947 3713 2884 3491 
L 1913 0 
L 1294 0 
z
" transform="scale(0.015625)"/>
       <path id="ArialMT-54" d="M 1659 0 
L 1659 4041 
L 150 4041 
L 150 4581 
L 3781 4581 
L 3781 4041 
L 2266 4041 
L 2266 0 
L 1659 0 
z
" transform="scale(0.015625)"/>
      </defs>
      <use xlink:href="#ArialMT-57"/>
      <use xlink:href="#ArialMT-54" transform="translate(94.384766 0)"/>
     </g>
    </g>
    <g id="patch_9">
     <path d="M 359.9 61.65625 
L 381.9 61.65625 
L 381.9 53.95625 
L 359.9 53.95625 
z
" style="fill: #3d9eb0; fill-opacity: 0.08; stroke: #3d9eb0; stroke-width: 2.5; stroke-linejoin: miter"/>
    </g>
    <g id="text_15">
     <!-- 9SA -->
     <g style="fill: #262626" transform="translate(390.7 61.65625) scale(0.11 -0.11)">
      <defs>
       <path id="ArialMT-39" d="M 350 1059 
L 891 1109 
Q 959 728 1153 556 
Q 1347 384 1650 384 
Q 1909 384 2104 503 
Q 2300 622 2425 820 
Q 2550 1019 2634 1356 
Q 2719 1694 2719 2044 
Q 2719 2081 2716 2156 
Q 2547 1888 2255 1720 
Q 1963 1553 1622 1553 
Q 1053 1553 659 1965 
Q 266 2378 266 3053 
Q 266 3750 677 4175 
Q 1088 4600 1706 4600 
Q 2153 4600 2523 4359 
Q 2894 4119 3086 3673 
Q 3278 3228 3278 2384 
Q 3278 1506 3087 986 
Q 2897 466 2520 194 
Q 2144 -78 1638 -78 
Q 1100 -78 759 220 
Q 419 519 350 1059 
z
M 2653 3081 
Q 2653 3566 2395 3850 
Q 2138 4134 1775 4134 
Q 1400 4134 1122 3828 
Q 844 3522 844 3034 
Q 844 2597 1108 2323 
Q 1372 2050 1759 2050 
Q 2150 2050 2401 2323 
Q 2653 2597 2653 3081 
z
" transform="scale(0.015625)"/>
      </defs>
      <use xlink:href="#ArialMT-39"/>
      <use xlink:href="#ArialMT-53" transform="translate(55.615234 0)"/>
      <use xlink:href="#ArialMT-41" transform="translate(122.314453 0)"/>
     </g>
    </g>
   </g>
  </g>
 </g>
 <defs>
  <clipPath id="p135e1b279a">
   <rect x="72" y="18" width="270" height="117"/>
  </clipPath>
 </defs>
</svg>
