<?xml version="1.0" encoding="utf-8" standalone="no"?>
<!DOCTYPE svg PUBLIC "-//W3C//DTD SVG 1.1//EN"
  "http://www.w3.org/Graphics/SVG/1.1/DTD/svg11.dtd">
<svg xmlns:xlink="http://www.w3.org/1999/xlink" width="360pt" height="180pt" viewBox="0 0 360 180" xmlns="http://www.w3.org/2000/svg" version="1.1">
 <metadata>
  <rdf:RDF xmlns:dc="http://purl.org/dc/elements/1.1/" xmlns:cc="http://creativecommons.org/ns#" xmlns:rdf="http://www.w3.org/1999/02/22-rdf-syntax-ns#">
   <cc:Work>
    <dc:type rdf:resource="http://purl.org/dc/dcmitype/StillImage"/>
    <dc:date>2025-07-28T17:17:36.350433</dc:date>
    <dc:format>image/svg+xml</dc:format>
    <dc:creator>
     <cc:Agent>
      <dc:title>Matplotlib v3.10.3, https://matplotlib.org/</dc:title>
     </cc:Agent>
    </dc:creator>
   </cc:Work>
  </rdf:RDF>
 </metadata>
 <defs>
  <style type="text/css">*{stroke-linejoin: round; stroke-linecap: butt}</style>
 </defs>
 <g id="figure_1">
  <g id="patch_1">
   <path d="M 0 180 
L 360 180 
L 360 0 
L 0 0 
z
" style="fill: #ffffff"/>
  </g>
  <g id="axes_1">
   <g id="patch_2">
    <path d="M 72 135 
L 342 135 
L 342 18 
L 72 18 
z
" style="fill: #ffffff"/>
   </g>
   <g id="matplotlib.axis_1">
    <g id="xtick_1">
     <g id="line2d_1">
      <defs>
       <path id="m38af79d663" d="M 0 0 
L 0 6 
" style="stroke: #262626; stroke-width: 1.25"/>
      </defs>
      <g>
       <use xlink:href="#m38af79d663" x="104.824059" y="135" style="fill: #262626; stroke: #262626; stroke-width: 1.25"/>
      </g>
     </g>
     <g id="text_1">
      <!-- $\mathdefault{10^{2}}$ -->
      <g style="fill: #262626" transform="translate(96.189059 155.84375) scale(0.11 -0.11)">
       <defs>
        <path id="ArialMT-31" d="M 2384 0 
L 1822 0 
L 1822 3584 
Q 1619 3391 1289 3197 
Q 959 3003 697 2906 
L 697 3450 
Q 1169 3672 1522 3987 
Q 1875 4303 2022 4600 
L 2384 4600 
L 2384 0 
z
" transform="scale(0.015625)"/>
        <path id="ArialMT-30" d="M 266 2259 
Q 266 3072 433 3567 
Q 600 4063 929 4331 
Q 1259 4600 1759 4600 
Q 2128 4600 2406 4451 
Q 2684 4303 2865 4023 
Q 3047 3744 3150 3342 
Q 3253 2941 3253 2259 
Q 3253 1453 3087 958 
Q 2922 463 2592 192 
Q 2263 -78 1759 -78 
Q 1097 -78 719 397 
Q 266 969 266 2259 
z
M 844 2259 
Q 844 1131 1108 757 
Q 1372 384 1759 384 
Q 2147 384 2411 759 
Q 2675 1134 2675 2259 
Q 2675 3391 2411 3762 
Q 2147 4134 1753 4134 
Q 1366 4134 1134 3806 
Q 844 3388 844 2259 
z
" transform="scale(0.015625)"/>
        <path id="ArialMT-32" d="M 3222 541 
L 3222 0 
L 194 0 
Q 188 203 259 391 
Q 375 700 629 1000 
Q 884 1300 1366 1694 
Q 2113 2306 2375 2664 
Q 2638 3022 2638 3341 
Q 2638 3675 2398 3904 
Q 2159 4134 1775 4134 
Q 1369 4134 1125 3890 
Q 881 3647 878 3216 
L 300 3275 
Q 359 3922 746 4261 
Q 1134 4600 1788 4600 
Q 2447 4600 2831 4234 
Q 3216 3869 3216 3328 
Q 3216 3053 3103 2787 
Q 2991 2522 2730 2228 
Q 2469 1934 1863 1422 
Q 1356 997 1212 845 
Q 1069 694 975 541 
L 3222 541 
z
" transform="scale(0.015625)"/>
       </defs>
       <use xlink:href="#ArialMT-31" transform="translate(0 0.99375)"/>
       <use xlink:href="#ArialMT-30" transform="translate(55.615234 0.99375)"/>
       <use xlink:href="#ArialMT-32" transform="translate(112.972813 70.6875) scale(0.7)"/>
      </g>
     </g>
    </g>
    <g id="xtick_2">
     <g id="line2d_2">
      <g>
       <use xlink:href="#m38af79d663" x="167.59972" y="135" style="fill: #262626; stroke: #262626; stroke-width: 1.25"/>
      </g>
     </g>
     <g id="text_2">
      <!-- $\mathdefault{10^{3}}$ -->
      <g style="fill: #262626" transform="translate(158.96472 155.84375) scale(0.11 -0.11)">
       <defs>
        <path id="ArialMT-33" d="M 269 1209 
L 831 1284 
Q 928 806 1161 595 
Q 1394 384 1728 384 
Q 2125 384 2398 659 
Q 2672 934 2672 1341 
Q 2672 1728 2419 1979 
Q 2166 2231 1775 2231 
Q 1616 2231 1378 2169 
L 1441 2663 
Q 1497 2656 1531 2656 
Q 1891 2656 2178 2843 
Q 2466 3031 2466 3422 
Q 2466 3731 2256 3934 
Q 2047 4138 1716 4138 
Q 1388 4138 1169 3931 
Q 950 3725 888 3313 
L 325 3413 
Q 428 3978 793 4289 
Q 1159 4600 1703 4600 
Q 2078 4600 2393 4439 
Q 2709 4278 2876 4000 
Q 3044 3722 3044 3409 
Q 3044 3113 2884 2869 
Q 2725 2625 2413 2481 
Q 2819 2388 3044 2092 
Q 3269 1797 3269 1353 
Q 3269 753 2831 336 
Q 2394 -81 1725 -81 
Q 1122 -81 723 278 
Q 325 638 269 1209 
z
" transform="scale(0.015625)"/>
       </defs>
       <use xlink:href="#ArialMT-31" transform="translate(0 0.99375)"/>
       <use xlink:href="#ArialMT-30" transform="translate(55.615234 0.99375)"/>
       <use xlink:href="#ArialMT-33" transform="translate(112.972813 70.6875) scale(0.7)"/>
      </g>
     </g>
    </g>
    <g id="xtick_3">
     <g id="line2d_3">
      <g>
       <use xlink:href="#m38af79d663" x="230.37538" y="135" style="fill: #262626; stroke: #262626; stroke-width: 1.25"/>
      </g>
     </g>
     <g id="text_3">
      <!-- $\mathdefault{10^{4}}$ -->
      <g style="fill: #262626" transform="translate(221.74038 155.73375) scale(0.11 -0.11)">
       <defs>
        <path id="ArialMT-34" d="M 2069 0 
L 2069 1097 
L 81 1097 
L 81 1613 
L 2172 4581 
L 2631 4581 
L 2631 1613 
L 3250 1613 
L 3250 1097 
L 2631 1097 
L 2631 0 
L 2069 0 
z
M 2069 1613 
L 2069 3678 
L 634 1613 
L 2069 1613 
z
" transform="scale(0.015625)"/>
       </defs>
       <use xlink:href="#ArialMT-31" transform="translate(0 0.201563)"/>
       <use xlink:href="#ArialMT-30" transform="translate(55.615234 0.201563)"/>
       <use xlink:href="#ArialMT-34" transform="translate(112.972813 69.895313) scale(0.7)"/>
      </g>
     </g>
    </g>
    <g id="xtick_4">
     <g id="line2d_4">
      <g>
       <use xlink:href="#m38af79d663" x="293.151041" y="135" style="fill: #262626; stroke: #262626; stroke-width: 1.25"/>
      </g>
     </g>
     <g id="text_4">
      <!-- $\mathdefault{10^{5}}$ -->
      <g style="fill: #262626" transform="translate(284.516041 155.73375) scale(0.11 -0.11)">
       <defs>
        <path id="ArialMT-35" d="M 266 1200 
L 856 1250 
Q 922 819 1161 601 
Q 1400 384 1738 384 
Q 2144 384 2425 690 
Q 2706 997 2706 1503 
Q 2706 1984 2436 2262 
Q 2166 2541 1728 2541 
Q 1456 2541 1237 2417 
Q 1019 2294 894 2097 
L 366 2166 
L 809 4519 
L 3088 4519 
L 3088 3981 
L 1259 3981 
L 1013 2750 
Q 1425 3038 1878 3038 
Q 2478 3038 2890 2622 
Q 3303 2206 3303 1553 
Q 3303 931 2941 478 
Q 2500 -78 1738 -78 
Q 1113 -78 717 272 
Q 322 622 266 1200 
z
" transform="scale(0.015625)"/>
       </defs>
       <use xlink:href="#ArialMT-31" transform="translate(0 0.879688)"/>
       <use xlink:href="#ArialMT-30" transform="translate(55.615234 0.879688)"/>
       <use xlink:href="#ArialMT-35" transform="translate(112.972813 70.573438) scale(0.7)"/>
      </g>
     </g>
    </g>
    <g id="xtick_5">
     <g id="line2d_5">
      <defs>
       <path id="mb8b54ab713" d="M 0 0 
L 0 4 
" style="stroke: #262626"/>
      </defs>
      <g>
       <use xlink:href="#mb8b54ab713" x="72" y="135" style="fill: #262626; stroke: #262626"/>
      </g>
     </g>
    </g>
    <g id="xtick_6">
     <g id="line2d_6">
      <g>
       <use xlink:href="#mb8b54ab713" x="79.843112" y="135" style="fill: #262626; stroke: #262626"/>
      </g>
     </g>
    </g>
    <g id="xtick_7">
     <g id="line2d_7">
      <g>
       <use xlink:href="#mb8b54ab713" x="85.926702" y="135" style="fill: #262626; stroke: #262626"/>
      </g>
     </g>
    </g>
    <g id="xtick_8">
     <g id="line2d_8">
      <g>
       <use xlink:href="#mb8b54ab713" x="90.897357" y="135" style="fill: #262626; stroke: #262626"/>
      </g>
     </g>
    </g>
    <g id="xtick_9">
     <g id="line2d_9">
      <g>
       <use xlink:href="#mb8b54ab713" x="95.099986" y="135" style="fill: #262626; stroke: #262626"/>
      </g>
     </g>
    </g>
    <g id="xtick_10">
     <g id="line2d_10">
      <g>
       <use xlink:href="#mb8b54ab713" x="98.740469" y="135" style="fill: #262626; stroke: #262626"/>
      </g>
     </g>
    </g>
    <g id="xtick_11">
     <g id="line2d_11">
      <g>
       <use xlink:href="#mb8b54ab713" x="101.951602" y="135" style="fill: #262626; stroke: #262626"/>
      </g>
     </g>
    </g>
    <g id="xtick_12">
     <g id="line2d_12">
      <g>
       <use xlink:href="#mb8b54ab713" x="123.721416" y="135" style="fill: #262626; stroke: #262626"/>
      </g>
     </g>
    </g>
    <g id="xtick_13">
     <g id="line2d_13">
      <g>
       <use xlink:href="#mb8b54ab713" x="134.775661" y="135" style="fill: #262626; stroke: #262626"/>
      </g>
     </g>
    </g>
    <g id="xtick_14">
     <g id="line2d_14">
      <g>
       <use xlink:href="#mb8b54ab713" x="142.618773" y="135" style="fill: #262626; stroke: #262626"/>
      </g>
     </g>
    </g>
    <g id="xtick_15">
     <g id="line2d_15">
      <g>
       <use xlink:href="#mb8b54ab713" x="148.702363" y="135" style="fill: #262626; stroke: #262626"/>
      </g>
     </g>
    </g>
    <g id="xtick_16">
     <g id="line2d_16">
      <g>
       <use xlink:href="#mb8b54ab713" x="153.673018" y="135" style="fill: #262626; stroke: #262626"/>
      </g>
     </g>
    </g>
    <g id="xtick_17">
     <g id="line2d_17">
      <g>
       <use xlink:href="#mb8b54ab713" x="157.875647" y="135" style="fill: #262626; stroke: #262626"/>
      </g>
     </g>
    </g>
    <g id="xtick_18">
     <g id="line2d_18">
      <g>
       <use xlink:href="#mb8b54ab713" x="161.516129" y="135" style="fill: #262626; stroke: #262626"/>
      </g>
     </g>
    </g>
    <g id="xtick_19">
     <g id="line2d_19">
      <g>
       <use xlink:href="#mb8b54ab713" x="164.727263" y="135" style="fill: #262626; stroke: #262626"/>
      </g>
     </g>
    </g>
    <g id="xtick_20">
     <g id="line2d_20">
      <g>
       <use xlink:href="#mb8b54ab713" x="186.497076" y="135" style="fill: #262626; stroke: #262626"/>
      </g>
     </g>
    </g>
    <g id="xtick_21">
     <g id="line2d_21">
      <g>
       <use xlink:href="#mb8b54ab713" x="197.551322" y="135" style="fill: #262626; stroke: #262626"/>
      </g>
     </g>
    </g>
    <g id="xtick_22">
     <g id="line2d_22">
      <g>
       <use xlink:href="#mb8b54ab713" x="205.394433" y="135" style="fill: #262626; stroke: #262626"/>
      </g>
     </g>
    </g>
    <g id="xtick_23">
     <g id="line2d_23">
      <g>
       <use xlink:href="#mb8b54ab713" x="211.478023" y="135" style="fill: #262626; stroke: #262626"/>
      </g>
     </g>
    </g>
    <g id="xtick_24">
     <g id="line2d_24">
      <g>
       <use xlink:href="#mb8b54ab713" x="216.448678" y="135" style="fill: #262626; stroke: #262626"/>
      </g>
     </g>
    </g>
    <g id="xtick_25">
     <g id="line2d_25">
      <g>
       <use xlink:href="#mb8b54ab713" x="220.651307" y="135" style="fill: #262626; stroke: #262626"/>
      </g>
     </g>
    </g>
    <g id="xtick_26">
     <g id="line2d_26">
      <g>
       <use xlink:href="#mb8b54ab713" x="224.29179" y="135" style="fill: #262626; stroke: #262626"/>
      </g>
     </g>
    </g>
    <g id="xtick_27">
     <g id="line2d_27">
      <g>
       <use xlink:href="#mb8b54ab713" x="227.502924" y="135" style="fill: #262626; stroke: #262626"/>
      </g>
     </g>
    </g>
    <g id="xtick_28">
     <g id="line2d_28">
      <g>
       <use xlink:href="#mb8b54ab713" x="249.272737" y="135" style="fill: #262626; stroke: #262626"/>
      </g>
     </g>
    </g>
    <g id="xtick_29">
     <g id="line2d_29">
      <g>
       <use xlink:href="#mb8b54ab713" x="260.326982" y="135" style="fill: #262626; stroke: #262626"/>
      </g>
     </g>
    </g>
    <g id="xtick_30">
     <g id="line2d_30">
      <g>
       <use xlink:href="#mb8b54ab713" x="268.170094" y="135" style="fill: #262626; stroke: #262626"/>
      </g>
     </g>
    </g>
    <g id="xtick_31">
     <g id="line2d_31">
      <g>
       <use xlink:href="#mb8b54ab713" x="274.253684" y="135" style="fill: #262626; stroke: #262626"/>
      </g>
     </g>
    </g>
    <g id="xtick_32">
     <g id="line2d_32">
      <g>
       <use xlink:href="#mb8b54ab713" x="279.224339" y="135" style="fill: #262626; stroke: #262626"/>
      </g>
     </g>
    </g>
    <g id="xtick_33">
     <g id="line2d_33">
      <g>
       <use xlink:href="#mb8b54ab713" x="283.426968" y="135" style="fill: #262626; stroke: #262626"/>
      </g>
     </g>
    </g>
    <g id="xtick_34">
     <g id="line2d_34">
      <g>
       <use xlink:href="#mb8b54ab713" x="287.067451" y="135" style="fill: #262626; stroke: #262626"/>
      </g>
     </g>
    </g>
    <g id="xtick_35">
     <g id="line2d_35">
      <g>
       <use xlink:href="#mb8b54ab713" x="290.278584" y="135" style="fill: #262626; stroke: #262626"/>
      </g>
     </g>
    </g>
    <g id="xtick_36">
     <g id="line2d_36">
      <g>
       <use xlink:href="#mb8b54ab713" x="312.048398" y="135" style="fill: #262626; stroke: #262626"/>
      </g>
     </g>
    </g>
    <g id="xtick_37">
     <g id="line2d_37">
      <g>
       <use xlink:href="#mb8b54ab713" x="323.102643" y="135" style="fill: #262626; stroke: #262626"/>
      </g>
     </g>
    </g>
    <g id="xtick_38">
     <g id="line2d_38">
      <g>
       <use xlink:href="#mb8b54ab713" x="330.945755" y="135" style="fill: #262626; stroke: #262626"/>
      </g>
     </g>
    </g>
    <g id="xtick_39">
     <g id="line2d_39">
      <g>
       <use xlink:href="#mb8b54ab713" x="337.029345" y="135" style="fill: #262626; stroke: #262626"/>
      </g>
     </g>
    </g>
    <g id="xtick_40">
     <g id="line2d_40">
      <g>
       <use xlink:href="#mb8b54ab713" x="342" y="135" style="fill: #262626; stroke: #262626"/>
      </g>
     </g>
    </g>
    <g id="text_5">
     <!-- Ngn2.x3HA-A -->
     <g style="fill: #262626" transform="translate(170.318438 170.655) scale(0.12 -0.12)">
      <defs>
       <path id="ArialMT-4e" d="M 488 0 
L 488 4581 
L 1109 4581 
L 3516 984 
L 3516 4581 
L 4097 4581 
L 4097 0 
L 3475 0 
L 1069 3600 
L 1069 0 
L 488 0 
z
" transform="scale(0.015625)"/>
       <path id="ArialMT-67" d="M 319 -275 
L 866 -356 
Q 900 -609 1056 -725 
Q 1266 -881 1628 -881 
Q 2019 -881 2231 -725 
Q 2444 -569 2519 -288 
Q 2563 -116 2559 434 
Q 2191 0 1641 0 
Q 956 0 581 494 
Q 206 988 206 1678 
Q 206 2153 378 2554 
Q 550 2956 876 3175 
Q 1203 3394 1644 3394 
Q 2231 3394 2613 2919 
L 2613 3319 
L 3131 3319 
L 3131 450 
Q 3131 -325 2973 -648 
Q 2816 -972 2473 -1159 
Q 2131 -1347 1631 -1347 
Q 1038 -1347 672 -1080 
Q 306 -813 319 -275 
z
M 784 1719 
Q 784 1066 1043 766 
Q 1303 466 1694 466 
Q 2081 466 2343 764 
Q 2606 1063 2606 1700 
Q 2606 2309 2336 2618 
Q 2066 2928 1684 2928 
Q 1309 2928 1046 2623 
Q 784 2319 784 1719 
z
" transform="scale(0.015625)"/>
       <path id="ArialMT-6e" d="M 422 0 
L 422 3319 
L 928 3319 
L 928 2847 
Q 1294 3394 1984 3394 
Q 2284 3394 2536 3286 
Q 2788 3178 2913 3003 
Q 3038 2828 3088 2588 
Q 3119 2431 3119 2041 
L 3119 0 
L 2556 0 
L 2556 2019 
Q 2556 2363 2490 2533 
Q 2425 2703 2258 2804 
Q 2091 2906 1866 2906 
Q 1506 2906 1245 2678 
Q 984 2450 984 1813 
L 984 0 
L 422 0 
z
" transform="scale(0.015625)"/>
       <path id="ArialMT-2e" d="M 581 0 
L 581 641 
L 1222 641 
L 1222 0 
L 581 0 
z
" transform="scale(0.015625)"/>
       <path id="ArialMT-78" d="M 47 0 
L 1259 1725 
L 138 3319 
L 841 3319 
L 1350 2541 
Q 1494 2319 1581 2169 
Q 1719 2375 1834 2534 
L 2394 3319 
L 3066 3319 
L 1919 1756 
L 3153 0 
L 2463 0 
L 1781 1031 
L 1600 1309 
L 728 0 
L 47 0 
z
" transform="scale(0.015625)"/>
       <path id="ArialMT-48" d="M 513 0 
L 513 4581 
L 1119 4581 
L 1119 2700 
L 3500 2700 
L 3500 4581 
L 4106 4581 
L 4106 0 
L 3500 0 
L 3500 2159 
L 1119 2159 
L 1119 0 
L 513 0 
z
" transform="scale(0.015625)"/>
       <path id="ArialMT-41" d="M -9 0 
L 1750 4581 
L 2403 4581 
L 4278 0 
L 3588 0 
L 3053 1388 
L 1138 1388 
L 634 0 
L -9 0 
z
M 1313 1881 
L 2866 1881 
L 2388 3150 
Q 2169 3728 2063 4100 
Q 1975 3659 1816 3225 
L 1313 1881 
z
" transform="scale(0.015625)"/>
       <path id="ArialMT-2d" d="M 203 1375 
L 203 1941 
L 1931 1941 
L 1931 1375 
L 203 1375 
z
" transform="scale(0.015625)"/>
      </defs>
      <use xlink:href="#ArialMT-4e"/>
      <use xlink:href="#ArialMT-67" transform="translate(72.216797 0)"/>
      <use xlink:href="#ArialMT-6e" transform="translate(127.832031 0)"/>
      <use xlink:href="#ArialMT-32" transform="translate(183.447266 0)"/>
      <use xlink:href="#ArialMT-2e" transform="translate(239.0625 0)"/>
      <use xlink:href="#ArialMT-78" transform="translate(266.845703 0)"/>
      <use xlink:href="#ArialMT-33" transform="translate(316.845703 0)"/>
      <use xlink:href="#ArialMT-48" transform="translate(372.460938 0)"/>
      <use xlink:href="#ArialMT-41" transform="translate(444.677734 0)"/>
      <use xlink:href="#ArialMT-2d" transform="translate(511.376953 0)"/>
      <use xlink:href="#ArialMT-41" transform="translate(544.677734 0)"/>
     </g>
    </g>
   </g>
   <g id="matplotlib.axis_2">
    <g id="ytick_1">
     <g id="line2d_41">
      <defs>
       <path id="m37da408106" d="M 0 0 
L -6 0 
" style="stroke: #262626; stroke-width: 1.25"/>
      </defs>
      <g>
       <use xlink:href="#m37da408106" x="72" y="135" style="fill: #262626; stroke: #262626; stroke-width: 1.25"/>
      </g>
     </g>
     <g id="text_6">
      <!-- 0.00 -->
      <g style="fill: #262626" transform="translate(41.092969 138.936797) scale(0.11 -0.11)">
       <use xlink:href="#ArialMT-30"/>
       <use xlink:href="#ArialMT-2e" transform="translate(55.615234 0)"/>
       <use xlink:href="#ArialMT-30" transform="translate(83.398438 0)"/>
       <use xlink:href="#ArialMT-30" transform="translate(139.013672 0)"/>
      </g>
     </g>
    </g>
    <g id="ytick_2">
     <g id="line2d_42">
      <g>
       <use xlink:href="#m37da408106" x="72" y="108.176228" style="fill: #262626; stroke: #262626; stroke-width: 1.25"/>
      </g>
     </g>
     <g id="text_7">
      <!-- 0.25 -->
      <g style="fill: #262626" transform="translate(41.092969 112.113025) scale(0.11 -0.11)">
       <use xlink:href="#ArialMT-30"/>
       <use xlink:href="#ArialMT-2e" transform="translate(55.615234 0)"/>
       <use xlink:href="#ArialMT-32" transform="translate(83.398438 0)"/>
       <use xlink:href="#ArialMT-35" transform="translate(139.013672 0)"/>
      </g>
     </g>
    </g>
    <g id="ytick_3">
     <g id="line2d_43">
      <g>
       <use xlink:href="#m37da408106" x="72" y="81.352456" style="fill: #262626; stroke: #262626; stroke-width: 1.25"/>
      </g>
     </g>
     <g id="text_8">
      <!-- 0.50 -->
      <g style="fill: #262626" transform="translate(41.092969 85.289253) scale(0.11 -0.11)">
       <use xlink:href="#ArialMT-30"/>
       <use xlink:href="#ArialMT-2e" transform="translate(55.615234 0)"/>
       <use xlink:href="#ArialMT-35" transform="translate(83.398438 0)"/>
       <use xlink:href="#ArialMT-30" transform="translate(139.013672 0)"/>
      </g>
     </g>
    </g>
    <g id="ytick_4">
     <g id="line2d_44">
      <g>
       <use xlink:href="#m37da408106" x="72" y="54.528684" style="fill: #262626; stroke: #262626; stroke-width: 1.25"/>
      </g>
     </g>
     <g id="text_9">
      <!-- 0.75 -->
      <g style="fill: #262626" transform="translate(41.092969 58.465481) scale(0.11 -0.11)">
       <defs>
        <path id="ArialMT-37" d="M 303 3981 
L 303 4522 
L 3269 4522 
L 3269 4084 
Q 2831 3619 2401 2847 
Q 1972 2075 1738 1259 
Q 1569 684 1522 0 
L 944 0 
Q 953 541 1156 1306 
Q 1359 2072 1739 2783 
Q 2119 3494 2547 3981 
L 303 3981 
z
" transform="scale(0.015625)"/>
       </defs>
       <use xlink:href="#ArialMT-30"/>
       <use xlink:href="#ArialMT-2e" transform="translate(55.615234 0)"/>
       <use xlink:href="#ArialMT-37" transform="translate(83.398438 0)"/>
       <use xlink:href="#ArialMT-35" transform="translate(139.013672 0)"/>
      </g>
     </g>
    </g>
    <g id="ytick_5">
     <g id="line2d_45">
      <g>
       <use xlink:href="#m37da408106" x="72" y="27.704912" style="fill: #262626; stroke: #262626; stroke-width: 1.25"/>
      </g>
     </g>
     <g id="text_10">
      <!-- 1.00 -->
      <g style="fill: #262626" transform="translate(41.092969 31.641709) scale(0.11 -0.11)">
       <use xlink:href="#ArialMT-31"/>
       <use xlink:href="#ArialMT-2e" transform="translate(55.615234 0)"/>
       <use xlink:href="#ArialMT-30" transform="translate(83.398438 0)"/>
       <use xlink:href="#ArialMT-30" transform="translate(139.013672 0)"/>
      </g>
     </g>
    </g>
    <g id="text_11">
     <!-- Density -->
     <g style="fill: #262626" transform="translate(34.567344 96.50625) rotate(-90) scale(0.12 -0.12)">
      <defs>
       <path id="ArialMT-44" d="M 494 0 
L 494 4581 
L 2072 4581 
Q 2606 4581 2888 4516 
Q 3281 4425 3559 4188 
Q 3922 3881 4101 3404 
Q 4281 2928 4281 2316 
Q 4281 1794 4159 1391 
Q 4038 988 3847 723 
Q 3656 459 3429 307 
Q 3203 156 2883 78 
Q 2563 0 2147 0 
L 494 0 
z
M 1100 541 
L 2078 541 
Q 2531 541 2789 625 
Q 3047 709 3200 863 
Q 3416 1078 3536 1442 
Q 3656 1806 3656 2325 
Q 3656 3044 3420 3430 
Q 3184 3816 2847 3947 
Q 2603 4041 2063 4041 
L 1100 4041 
L 1100 541 
z
" transform="scale(0.015625)"/>
       <path id="ArialMT-65" d="M 2694 1069 
L 3275 997 
Q 3138 488 2766 206 
Q 2394 -75 1816 -75 
Q 1088 -75 661 373 
Q 234 822 234 1631 
Q 234 2469 665 2931 
Q 1097 3394 1784 3394 
Q 2450 3394 2872 2941 
Q 3294 2488 3294 1666 
Q 3294 1616 3291 1516 
L 816 1516 
Q 847 969 1125 678 
Q 1403 388 1819 388 
Q 2128 388 2347 550 
Q 2566 713 2694 1069 
z
M 847 1978 
L 2700 1978 
Q 2663 2397 2488 2606 
Q 2219 2931 1791 2931 
Q 1403 2931 1139 2672 
Q 875 2413 847 1978 
z
" transform="scale(0.015625)"/>
       <path id="ArialMT-73" d="M 197 991 
L 753 1078 
Q 800 744 1014 566 
Q 1228 388 1613 388 
Q 2000 388 2187 545 
Q 2375 703 2375 916 
Q 2375 1106 2209 1216 
Q 2094 1291 1634 1406 
Q 1016 1563 777 1677 
Q 538 1791 414 1992 
Q 291 2194 291 2438 
Q 291 2659 392 2848 
Q 494 3038 669 3163 
Q 800 3259 1026 3326 
Q 1253 3394 1513 3394 
Q 1903 3394 2198 3281 
Q 2494 3169 2634 2976 
Q 2775 2784 2828 2463 
L 2278 2388 
Q 2241 2644 2061 2787 
Q 1881 2931 1553 2931 
Q 1166 2931 1000 2803 
Q 834 2675 834 2503 
Q 834 2394 903 2306 
Q 972 2216 1119 2156 
Q 1203 2125 1616 2013 
Q 2213 1853 2448 1751 
Q 2684 1650 2818 1456 
Q 2953 1263 2953 975 
Q 2953 694 2789 445 
Q 2625 197 2315 61 
Q 2006 -75 1616 -75 
Q 969 -75 630 194 
Q 291 463 197 991 
z
" transform="scale(0.015625)"/>
       <path id="ArialMT-69" d="M 425 3934 
L 425 4581 
L 988 4581 
L 988 3934 
L 425 3934 
z
M 425 0 
L 425 3319 
L 988 3319 
L 988 0 
L 425 0 
z
" transform="scale(0.015625)"/>
       <path id="ArialMT-74" d="M 1650 503 
L 1731 6 
Q 1494 -44 1306 -44 
Q 1000 -44 831 53 
Q 663 150 594 308 
Q 525 466 525 972 
L 525 2881 
L 113 2881 
L 113 3319 
L 525 3319 
L 525 4141 
L 1084 4478 
L 1084 3319 
L 1650 3319 
L 1650 2881 
L 1084 2881 
L 1084 941 
Q 1084 700 1114 631 
Q 1144 563 1211 522 
Q 1278 481 1403 481 
Q 1497 481 1650 503 
z
" transform="scale(0.015625)"/>
       <path id="ArialMT-79" d="M 397 -1278 
L 334 -750 
Q 519 -800 656 -800 
Q 844 -800 956 -737 
Q 1069 -675 1141 -563 
Q 1194 -478 1313 -144 
Q 1328 -97 1363 -6 
L 103 3319 
L 709 3319 
L 1400 1397 
Q 1534 1031 1641 628 
Q 1738 1016 1872 1384 
L 2581 3319 
L 3144 3319 
L 1881 -56 
Q 1678 -603 1566 -809 
Q 1416 -1088 1222 -1217 
Q 1028 -1347 759 -1347 
Q 597 -1347 397 -1278 
z
" transform="scale(0.015625)"/>
      </defs>
      <use xlink:href="#ArialMT-44"/>
      <use xlink:href="#ArialMT-65" transform="translate(72.216797 0)"/>
      <use xlink:href="#ArialMT-6e" transform="translate(127.832031 0)"/>
      <use xlink:href="#ArialMT-73" transform="translate(183.447266 0)"/>
      <use xlink:href="#ArialMT-69" transform="translate(233.447266 0)"/>
      <use xlink:href="#ArialMT-74" transform="translate(255.664062 0)"/>
      <use xlink:href="#ArialMT-79" transform="translate(283.447266 0)"/>
     </g>
    </g>
   </g>
   <g id="FillBetweenPolyCollection_1">
    <path d="M -31.665348 134.999346 
L -31.665348 135 
L -29.656185 135 
L -27.647022 135 
L -25.637859 135 
L -23.628696 135 
L -21.619533 135 
L -19.610371 135 
L -17.601208 135 
L -15.592045 135 
L -13.582882 135 
L -11.573719 135 
L -9.564556 135 
L -7.555393 135 
L -5.54623 135 
L -3.537068 135 
L -1.527905 135 
L 0.481258 135 
L 2.490421 135 
L 4.499584 135 
L 6.508747 135 
L 8.51791 135 
L 10.527073 135 
L 12.536235 135 
L 14.545398 135 
L 16.554561 135 
L 18.563724 135 
L 20.572887 135 
L 22.58205 135 
L 24.591213 135 
L 26.600376 135 
L 28.609538 135 
L 30.618701 135 
L 32.627864 135 
L 34.637027 135 
L 36.64619 135 
L 38.655353 135 
L 40.664516 135 
L 42.673678 135 
L 44.682841 135 
L 46.692004 135 
L 48.701167 135 
L 50.71033 135 
L 52.719493 135 
L 54.728656 135 
L 56.737819 135 
L 58.746981 135 
L 60.756144 135 
L 62.765307 135 
L 64.77447 135 
L 66.783633 135 
L 68.792796 135 
L 70.801959 135 
L 72.811122 135 
L 74.820284 135 
L 76.829447 135 
L 78.83861 135 
L 80.847773 135 
L 82.856936 135 
L 84.866099 135 
L 86.875262 135 
L 88.884425 135 
L 90.893587 135 
L 92.90275 135 
L 94.911913 135 
L 96.921076 135 
L 98.930239 135 
L 100.939402 135 
L 102.948565 135 
L 104.957728 135 
L 106.96689 135 
L 108.976053 135 
L 110.985216 135 
L 112.994379 135 
L 115.003542 135 
L 117.012705 135 
L 119.021868 135 
L 121.031031 135 
L 123.040193 135 
L 125.049356 135 
L 127.058519 135 
L 129.067682 135 
L 131.076845 135 
L 133.086008 135 
L 135.095171 135 
L 137.104334 135 
L 139.113496 135 
L 141.122659 135 
L 143.131822 135 
L 145.140985 135 
L 147.150148 135 
L 149.159311 135 
L 151.168474 135 
L 153.177637 135 
L 155.186799 135 
L 157.195962 135 
L 159.205125 135 
L 161.214288 135 
L 163.223451 135 
L 165.232614 135 
L 167.241777 135 
L 169.25094 135 
L 171.260102 135 
L 173.269265 135 
L 175.278428 135 
L 177.287591 135 
L 179.296754 135 
L 181.305917 135 
L 183.31508 135 
L 185.324243 135 
L 187.333405 135 
L 189.342568 135 
L 191.351731 135 
L 193.360894 135 
L 195.370057 135 
L 197.37922 135 
L 199.388383 135 
L 201.397546 135 
L 203.406708 135 
L 205.415871 135 
L 207.425034 135 
L 209.434197 135 
L 211.44336 135 
L 213.452523 135 
L 215.461686 135 
L 217.470849 135 
L 219.480011 135 
L 221.489174 135 
L 223.498337 135 
L 225.5075 135 
L 227.516663 135 
L 229.525826 135 
L 231.534989 135 
L 233.544151 135 
L 235.553314 135 
L 237.562477 135 
L 239.57164 135 
L 241.580803 135 
L 243.589966 135 
L 245.599129 135 
L 247.608292 135 
L 249.617454 135 
L 251.626617 135 
L 253.63578 135 
L 255.644943 135 
L 257.654106 135 
L 259.663269 135 
L 261.672432 135 
L 263.681595 135 
L 265.690757 135 
L 267.69992 135 
L 269.709083 135 
L 271.718246 135 
L 273.727409 135 
L 275.736572 135 
L 277.745735 135 
L 279.754898 135 
L 281.76406 135 
L 283.773223 135 
L 285.782386 135 
L 287.791549 135 
L 289.800712 135 
L 291.809875 135 
L 293.819038 135 
L 295.828201 135 
L 297.837363 135 
L 299.846526 135 
L 301.855689 135 
L 303.864852 135 
L 305.874015 135 
L 307.883178 135 
L 309.892341 135 
L 311.901504 135 
L 313.910666 135 
L 315.919829 135 
L 317.928992 135 
L 319.938155 135 
L 321.947318 135 
L 323.956481 135 
L 325.965644 135 
L 327.974807 135 
L 329.983969 135 
L 331.993132 135 
L 334.002295 135 
L 336.011458 135 
L 338.020621 135 
L 340.029784 135 
L 342.038947 135 
L 344.04811 135 
L 346.057272 135 
L 348.066435 135 
L 350.075598 135 
L 352.084761 135 
L 354.093924 135 
L 356.103087 135 
L 358.11225 135 
L 360.121413 135 
L 362.130575 135 
L 364.139738 135 
L 366.148901 135 
L 368.158064 135 
L 368.158064 134.997335 
L 368.158064 134.997335 
L 366.148901 134.987922 
L 364.139738 134.959376 
L 362.130575 134.898268 
L 360.121413 134.80918 
L 358.11225 134.728724 
L 356.103087 134.700277 
L 354.093924 134.728854 
L 352.084761 134.780647 
L 350.075598 134.827261 
L 348.066435 134.866675 
L 346.057272 134.902221 
L 344.04811 134.926681 
L 342.038947 134.934657 
L 340.029784 134.935505 
L 338.020621 134.943579 
L 336.011458 134.961438 
L 334.002295 134.980239 
L 331.993132 134.992464 
L 329.983969 134.997656 
L 327.974807 134.998285 
L 325.965644 134.994885 
L 323.956481 134.985283 
L 321.947318 134.968362 
L 319.938155 134.949775 
L 317.928992 134.941149 
L 315.919829 134.9491 
L 313.910666 134.967507 
L 311.901504 134.984689 
L 309.892341 134.994675 
L 307.883178 134.998633 
L 305.874015 134.999741 
L 303.864852 134.999964 
L 301.855689 134.999996 
L 299.846526 135 
L 297.837363 134.999999 
L 295.828201 134.999992 
L 293.819038 134.999928 
L 291.809875 134.999537 
L 289.800712 134.997789 
L 287.791549 134.992202 
L 285.782386 134.979678 
L 283.773223 134.960735 
L 281.76406 134.943013 
L 279.754898 134.934846 
L 277.745735 134.932556 
L 275.736572 134.922064 
L 273.727409 134.899325 
L 271.718246 134.881259 
L 269.709083 134.886401 
L 267.69992 134.909993 
L 265.690757 134.930114 
L 263.681595 134.935693 
L 261.672432 134.936713 
L 259.663269 134.946643 
L 257.654106 134.965366 
L 255.644943 134.983227 
L 253.63578 134.993956 
L 251.626617 134.998147 
L 249.617454 134.998223 
L 247.608292 134.993774 
L 245.599129 134.980205 
L 243.589966 134.951401 
L 241.580803 134.907546 
L 239.57164 134.862583 
L 237.562477 134.839433 
L 235.553314 134.85109 
L 233.544151 134.885983 
L 231.534989 134.91739 
L 229.525826 134.928907 
L 227.516663 134.925766 
L 225.5075 134.920863 
L 223.498337 134.919204 
L 221.489174 134.920197 
L 219.480011 134.922614 
L 217.470849 134.918842 
L 215.461686 134.895763 
L 213.452523 134.849335 
L 211.44336 134.788217 
L 209.434197 134.717646 
L 207.425034 134.629256 
L 205.415871 134.506342 
L 203.406708 134.321747 
L 201.397546 134.028314 
L 199.388383 133.575812 
L 197.37922 132.946418 
L 195.370057 132.132585 
L 193.360894 131.024913 
L 191.351731 129.313807 
L 189.342568 126.560694 
L 187.333405 122.462502 
L 185.324243 117.071424 
L 183.31508 110.688717 
L 181.305917 103.586169 
L 179.296754 95.973853 
L 177.287591 88.191014 
L 175.278428 80.708588 
L 173.269265 73.828609 
L 171.260102 67.430632 
L 169.25094 61.120666 
L 167.241777 54.681227 
L 165.232614 48.319957 
L 163.223451 42.477556 
L 161.214288 37.541027 
L 159.205125 33.756206 
L 157.195962 31.198616 
L 155.186799 29.689988 
L 153.177637 28.80051 
L 151.168474 28.017782 
L 149.159311 26.983426 
L 147.150148 25.658517 
L 145.140985 24.343467 
L 143.131822 23.571429 
L 141.122659 23.859012 
L 139.113496 25.348517 
L 137.104334 27.689753 
L 135.095171 30.412763 
L 133.086008 33.402151 
L 131.076845 36.922784 
L 129.067682 41.256197 
L 127.058519 46.424265 
L 125.049356 52.221602 
L 123.040193 58.381877 
L 121.031031 64.659282 
L 119.021868 70.852533 
L 117.012705 76.889309 
L 115.003542 82.858345 
L 112.994379 88.843765 
L 110.985216 94.733775 
L 108.976053 100.225275 
L 106.96689 105.008477 
L 104.957728 108.971562 
L 102.948565 112.240234 
L 100.939402 115.043065 
L 98.930239 117.584259 
L 96.921076 119.985249 
L 94.911913 122.21908 
L 92.90275 124.120374 
L 90.893587 125.581821 
L 88.884425 126.717528 
L 86.875262 127.746796 
L 84.866099 128.773324 
L 82.856936 129.741397 
L 80.847773 130.546261 
L 78.83861 131.136684 
L 76.829447 131.550501 
L 74.820284 131.889125 
L 72.811122 132.242523 
L 70.801959 132.625229 
L 68.792796 132.995173 
L 66.783633 133.321811 
L 64.77447 133.607604 
L 62.765307 133.852942 
L 60.756144 134.035173 
L 58.746981 134.139044 
L 56.737819 134.191236 
L 54.728656 134.233332 
L 52.719493 134.270341 
L 50.71033 134.283965 
L 48.701167 134.282351 
L 46.692004 134.293349 
L 44.682841 134.320495 
L 42.673678 134.347333 
L 40.664516 134.380304 
L 38.655353 134.450555 
L 36.64619 134.567187 
L 34.637027 134.692161 
L 32.627864 134.772728 
L 30.618701 134.792713 
L 28.609538 134.785024 
L 26.600376 134.79153 
L 24.591213 134.820018 
L 22.58205 134.848104 
L 20.572887 134.856514 
L 18.563724 134.84616 
L 16.554561 134.824042 
L 14.545398 134.781787 
L 12.536235 134.710968 
L 10.527073 134.644812 
L 8.51791 134.644835 
L 6.508747 134.726321 
L 4.499584 134.83414 
L 2.490421 134.906639 
L 0.481258 134.931933 
L -1.527905 134.93678 
L -3.537068 134.946482 
L -5.54623 134.964884 
L -7.555393 134.982753 
L -9.564556 134.993255 
L -11.573719 134.995826 
L -13.582882 134.991044 
L -15.592045 134.978124 
L -17.601208 134.959242 
L -19.610371 134.943842 
L -21.619533 134.942881 
L -23.628696 134.957118 
L -25.637859 134.976238 
L -27.647022 134.990281 
L -29.656185 134.997066 
L -31.665348 134.999346 
z
" clip-path="url(#p13c2970345)" style="fill: #bbbbbb; fill-opacity: 0.08; stroke: #bbbbbb; stroke-width: 2.5"/>
   </g>
   <g id="FillBetweenPolyCollection_2">
    <path d="M -28.95205 134.999919 
L -28.95205 135 
L -26.970157 135 
L -24.988263 135 
L -23.006369 135 
L -21.024476 135 
L -19.042582 135 
L -17.060689 135 
L -15.078795 135 
L -13.096902 135 
L -11.115008 135 
L -9.133115 135 
L -7.151221 135 
L -5.169327 135 
L -3.187434 135 
L -1.20554 135 
L 0.776353 135 
L 2.758247 135 
L 4.74014 135 
L 6.722034 135 
L 8.703927 135 
L 10.685821 135 
L 12.667714 135 
L 14.649608 135 
L 16.631502 135 
L 18.613395 135 
L 20.595289 135 
L 22.577182 135 
L 24.559076 135 
L 26.540969 135 
L 28.522863 135 
L 30.504756 135 
L 32.48665 135 
L 34.468544 135 
L 36.450437 135 
L 38.432331 135 
L 40.414224 135 
L 42.396118 135 
L 44.378011 135 
L 46.359905 135 
L 48.341798 135 
L 50.323692 135 
L 52.305585 135 
L 54.287479 135 
L 56.269373 135 
L 58.251266 135 
L 60.23316 135 
L 62.215053 135 
L 64.196947 135 
L 66.17884 135 
L 68.160734 135 
L 70.142627 135 
L 72.124521 135 
L 74.106415 135 
L 76.088308 135 
L 78.070202 135 
L 80.052095 135 
L 82.033989 135 
L 84.015882 135 
L 85.997776 135 
L 87.979669 135 
L 89.961563 135 
L 91.943456 135 
L 93.92535 135 
L 95.907244 135 
L 97.889137 135 
L 99.871031 135 
L 101.852924 135 
L 103.834818 135 
L 105.816711 135 
L 107.798605 135 
L 109.780498 135 
L 111.762392 135 
L 113.744285 135 
L 115.726179 135 
L 117.708073 135 
L 119.689966 135 
L 121.67186 135 
L 123.653753 135 
L 125.635647 135 
L 127.61754 135 
L 129.599434 135 
L 131.581327 135 
L 133.563221 135 
L 135.545115 135 
L 137.527008 135 
L 139.508902 135 
L 141.490795 135 
L 143.472689 135 
L 145.454582 135 
L 147.436476 135 
L 149.418369 135 
L 151.400263 135 
L 153.382156 135 
L 155.36405 135 
L 157.345944 135 
L 159.327837 135 
L 161.309731 135 
L 163.291624 135 
L 165.273518 135 
L 167.255411 135 
L 169.237305 135 
L 171.219198 135 
L 173.201092 135 
L 175.182986 135 
L 177.164879 135 
L 179.146773 135 
L 181.128666 135 
L 183.11056 135 
L 185.092453 135 
L 187.074347 135 
L 189.05624 135 
L 191.038134 135 
L 193.020027 135 
L 195.001921 135 
L 196.983815 135 
L 198.965708 135 
L 200.947602 135 
L 202.929495 135 
L 204.911389 135 
L 206.893282 135 
L 208.875176 135 
L 210.857069 135 
L 212.838963 135 
L 214.820857 135 
L 216.80275 135 
L 218.784644 135 
L 220.766537 135 
L 222.748431 135 
L 224.730324 135 
L 226.712218 135 
L 228.694111 135 
L 230.676005 135 
L 232.657898 135 
L 234.639792 135 
L 236.621686 135 
L 238.603579 135 
L 240.585473 135 
L 242.567366 135 
L 244.54926 135 
L 246.531153 135 
L 248.513047 135 
L 250.49494 135 
L 252.476834 135 
L 254.458728 135 
L 256.440621 135 
L 258.422515 135 
L 260.404408 135 
L 262.386302 135 
L 264.368195 135 
L 266.350089 135 
L 268.331982 135 
L 270.313876 135 
L 272.295769 135 
L 274.277663 135 
L 276.259557 135 
L 278.24145 135 
L 280.223344 135 
L 282.205237 135 
L 284.187131 135 
L 286.169024 135 
L 288.150918 135 
L 290.132811 135 
L 292.114705 135 
L 294.096598 135 
L 296.078492 135 
L 298.060386 135 
L 300.042279 135 
L 302.024173 135 
L 304.006066 135 
L 305.98796 135 
L 307.969853 135 
L 309.951747 135 
L 311.93364 135 
L 313.915534 135 
L 315.897428 135 
L 317.879321 135 
L 319.861215 135 
L 321.843108 135 
L 323.825002 135 
L 325.806895 135 
L 327.788789 135 
L 329.770682 135 
L 331.752576 135 
L 333.734469 135 
L 335.716363 135 
L 337.698257 135 
L 339.68015 135 
L 341.662044 135 
L 343.643937 135 
L 345.625831 135 
L 347.607724 135 
L 349.589618 135 
L 351.571511 135 
L 353.553405 135 
L 355.535299 135 
L 357.517192 135 
L 359.499086 135 
L 361.480979 135 
L 363.462873 135 
L 365.444766 135 
L 365.444766 134.993612 
L 365.444766 134.993612 
L 363.462873 134.95693 
L 361.480979 134.827685 
L 359.499086 134.59064 
L 357.517192 134.421368 
L 355.535299 134.509632 
L 353.553405 134.742132 
L 351.571511 134.900702 
L 349.589618 134.953098 
L 347.607724 134.964136 
L 345.625831 134.970192 
L 343.643937 134.97743 
L 341.662044 134.983504 
L 339.68015 134.985923 
L 337.698257 134.98356 
L 335.716363 134.976972 
L 333.734469 134.968809 
L 331.752576 134.962865 
L 329.770682 134.960731 
L 327.788789 134.964369 
L 325.806895 134.975062 
L 323.825002 134.985079 
L 321.843108 134.985869 
L 319.861215 134.977842 
L 317.879321 134.964121 
L 315.897428 134.947756 
L 313.915534 134.933785 
L 311.93364 134.922397 
L 309.951747 134.90977 
L 307.969853 134.893614 
L 305.98796 134.869229 
L 304.006066 134.838765 
L 302.024173 134.807791 
L 300.042279 134.754396 
L 298.060386 134.648405 
L 296.078492 134.498196 
L 294.096598 134.320794 
L 292.114705 134.073035 
L 290.132811 133.656125 
L 288.150918 133.012603 
L 286.169024 132.187717 
L 284.187131 131.220956 
L 282.205237 129.993514 
L 280.223344 128.329963 
L 278.24145 126.215451 
L 276.259557 123.715118 
L 274.277663 120.843985 
L 272.295769 117.626229 
L 270.313876 114.023573 
L 268.331982 109.966595 
L 266.350089 105.552892 
L 264.368195 100.894679 
L 262.386302 95.956256 
L 260.404408 90.821589 
L 258.422515 85.692231 
L 256.440621 80.478199 
L 254.458728 74.986086 
L 252.476834 69.324871 
L 250.49494 63.785134 
L 248.513047 58.60831 
L 246.531153 53.814886 
L 244.54926 49.167253 
L 242.567366 44.484893 
L 240.585473 40.035442 
L 238.603579 36.241329 
L 236.621686 33.132806 
L 234.639792 30.680041 
L 232.657898 29.251359 
L 230.676005 29.124433 
L 228.694111 30.109868 
L 226.712218 31.897945 
L 224.730324 34.228851 
L 222.748431 36.92607 
L 220.766537 40.151465 
L 218.784644 44.098226 
L 216.80275 48.470985 
L 214.820857 52.861888 
L 212.838963 57.322372 
L 210.857069 61.958773 
L 208.875176 66.558898 
L 206.893282 70.986782 
L 204.911389 75.244494 
L 202.929495 79.218027 
L 200.947602 82.759418 
L 198.965708 85.906918 
L 196.983815 88.86324 
L 195.001921 91.70708 
L 193.020027 94.366511 
L 191.038134 96.881281 
L 189.05624 99.350266 
L 187.074347 101.793077 
L 185.092453 104.180351 
L 183.11056 106.450132 
L 181.128666 108.51243 
L 179.146773 110.286769 
L 177.164879 111.788551 
L 175.182986 113.096696 
L 173.201092 114.306821 
L 171.219198 115.585808 
L 169.237305 116.987775 
L 167.255411 118.366337 
L 165.273518 119.632536 
L 163.291624 120.823914 
L 161.309731 121.973829 
L 159.327837 123.07088 
L 157.345944 124.127215 
L 155.36405 125.19869 
L 153.382156 126.251013 
L 151.400263 127.147969 
L 149.418369 127.847948 
L 147.436476 128.459713 
L 145.454582 129.0983 
L 143.472689 129.794757 
L 141.490795 130.484684 
L 139.508902 131.08961 
L 137.527008 131.608975 
L 135.545115 132.066785 
L 133.563221 132.465346 
L 131.581327 132.798646 
L 129.599434 133.086983 
L 127.61754 133.370865 
L 125.635647 133.624487 
L 123.653753 133.786004 
L 121.67186 133.882499 
L 119.689966 133.998921 
L 117.708073 134.153807 
L 115.726179 134.303068 
L 113.744285 134.409443 
L 111.762392 134.463816 
L 109.780498 134.492897 
L 107.798605 134.538839 
L 105.816711 134.603276 
L 103.834818 134.659723 
L 101.852924 134.705291 
L 99.871031 134.744308 
L 97.889137 134.77099 
L 95.907244 134.788892 
L 93.92535 134.809666 
L 91.943456 134.837526 
L 89.961563 134.864 
L 87.979669 134.880074 
L 85.997776 134.883094 
L 84.015882 134.877229 
L 82.033989 134.876961 
L 80.052095 134.893763 
L 78.070202 134.919108 
L 76.088308 134.93566 
L 74.106415 134.937994 
L 72.124521 134.937772 
L 70.142627 134.947807 
L 68.160734 134.965204 
L 66.17884 134.979837 
L 64.196947 134.988228 
L 62.215053 134.991959 
L 60.23316 134.991343 
L 58.251266 134.987134 
L 56.269373 134.981298 
L 54.287479 134.975477 
L 52.305585 134.972966 
L 50.323692 134.976388 
L 48.341798 134.983112 
L 46.359905 134.989512 
L 44.378011 134.994736 
L 42.396118 134.998161 
L 40.414224 134.999594 
L 38.432331 134.999927 
L 36.450437 134.99978 
L 34.468544 134.998502 
L 32.48665 134.993819 
L 30.504756 134.984663 
L 28.522863 134.976304 
L 26.540969 134.974776 
L 24.559076 134.977895 
L 22.577182 134.982964 
L 20.595289 134.990085 
L 18.613395 134.996233 
L 16.631502 134.998948 
L 14.649608 134.998856 
L 12.667714 134.996689 
L 10.685821 134.993696 
L 8.703927 134.992864 
L 6.722034 134.99521 
L 4.74014 134.998093 
L 2.758247 134.99955 
L 0.776353 134.999937 
L -1.20554 134.999995 
L -3.187434 135 
L -5.169327 135 
L -7.151221 135 
L -9.133115 134.999999 
L -11.115008 134.999984 
L -13.096902 134.999849 
L -15.078795 134.99913 
L -17.060689 134.997029 
L -19.042582 134.993984 
L -21.024476 134.992777 
L -23.006369 134.994857 
L -24.988263 134.997829 
L -26.970157 134.999456 
L -28.95205 134.999919 
z
" clip-path="url(#p13c2970345)" style="fill: #ea7676; fill-opacity: 0.08; stroke: #ea7676; stroke-width: 2.5"/>
   </g>
   <g id="FillBetweenPolyCollection_3">
    <defs>
     <path id="mc7e1700c12" d="M 53.233606 -45.000187 
L 53.233606 -45 
L 54.835875 -45 
L 56.438143 -45 
L 58.040411 -45 
L 59.642679 -45 
L 61.244948 -45 
L 62.847216 -45 
L 64.449484 -45 
L 66.051753 -45 
L 67.654021 -45 
L 69.256289 -45 
L 70.858557 -45 
L 72.460826 -45 
L 74.063094 -45 
L 75.665362 -45 
L 77.267631 -45 
L 78.869899 -45 
L 80.472167 -45 
L 82.074436 -45 
L 83.676704 -45 
L 85.278972 -45 
L 86.88124 -45 
L 88.483509 -45 
L 90.085777 -45 
L 91.688045 -45 
L 93.290314 -45 
L 94.892582 -45 
L 96.49485 -45 
L 98.097118 -45 
L 99.699387 -45 
L 101.301655 -45 
L 102.903923 -45 
L 104.506192 -45 
L 106.10846 -45 
L 107.710728 -45 
L 109.312997 -45 
L 110.915265 -45 
L 112.517533 -45 
L 114.119801 -45 
L 115.72207 -45 
L 117.324338 -45 
L 118.926606 -45 
L 120.528875 -45 
L 122.131143 -45 
L 123.733411 -45 
L 125.335679 -45 
L 126.937948 -45 
L 128.540216 -45 
L 130.142484 -45 
L 131.744753 -45 
L 133.347021 -45 
L 134.949289 -45 
L 136.551558 -45 
L 138.153826 -45 
L 139.756094 -45 
L 141.358362 -45 
L 142.960631 -45 
L 144.562899 -45 
L 146.165167 -45 
L 147.767436 -45 
L 149.369704 -45 
L 150.971972 -45 
L 152.574241 -45 
L 154.176509 -45 
L 155.778777 -45 
L 157.381045 -45 
L 158.983314 -45 
L 160.585582 -45 
L 162.18785 -45 
L 163.790119 -45 
L 165.392387 -45 
L 166.994655 -45 
L 168.596923 -45 
L 170.199192 -45 
L 171.80146 -45 
L 173.403728 -45 
L 175.005997 -45 
L 176.608265 -45 
L 178.210533 -45 
L 179.812802 -45 
L 181.41507 -45 
L 183.017338 -45 
L 184.619606 -45 
L 186.221875 -45 
L 187.824143 -45 
L 189.426411 -45 
L 191.02868 -45 
L 192.630948 -45 
L 194.233216 -45 
L 195.835484 -45 
L 197.437753 -45 
L 199.040021 -45 
L 200.642289 -45 
L 202.244558 -45 
L 203.846826 -45 
L 205.449094 -45 
L 207.051363 -45 
L 208.653631 -45 
L 210.255899 -45 
L 211.858167 -45 
L 213.460436 -45 
L 215.062704 -45 
L 216.664972 -45 
L 218.267241 -45 
L 219.869509 -45 
L 221.471777 -45 
L 223.074045 -45 
L 224.676314 -45 
L 226.278582 -45 
L 227.88085 -45 
L 229.483119 -45 
L 231.085387 -45 
L 232.687655 -45 
L 234.289924 -45 
L 235.892192 -45 
L 237.49446 -45 
L 239.096728 -45 
L 240.698997 -45 
L 242.301265 -45 
L 243.903533 -45 
L 245.505802 -45 
L 247.10807 -45 
L 248.710338 -45 
L 250.312606 -45 
L 251.914875 -45 
L 253.517143 -45 
L 255.119411 -45 
L 256.72168 -45 
L 258.323948 -45 
L 259.926216 -45 
L 261.528485 -45 
L 263.130753 -45 
L 264.733021 -45 
L 266.335289 -45 
L 267.937558 -45 
L 269.539826 -45 
L 271.142094 -45 
L 272.744363 -45 
L 274.346631 -45 
L 275.948899 -45 
L 277.551167 -45 
L 279.153436 -45 
L 280.755704 -45 
L 282.357972 -45 
L 283.960241 -45 
L 285.562509 -45 
L 287.164777 -45 
L 288.767046 -45 
L 290.369314 -45 
L 291.971582 -45 
L 293.57385 -45 
L 295.176119 -45 
L 296.778387 -45 
L 298.380655 -45 
L 299.982924 -45 
L 301.585192 -45 
L 303.18746 -45 
L 304.789728 -45 
L 306.391997 -45 
L 307.994265 -45 
L 309.596533 -45 
L 311.198802 -45 
L 312.80107 -45 
L 314.403338 -45 
L 316.005607 -45 
L 317.607875 -45 
L 319.210143 -45 
L 320.812411 -45 
L 322.41468 -45 
L 324.016948 -45 
L 325.619216 -45 
L 327.221485 -45 
L 328.823753 -45 
L 330.426021 -45 
L 332.02829 -45 
L 333.630558 -45 
L 335.232826 -45 
L 336.835094 -45 
L 338.437363 -45 
L 340.039631 -45 
L 341.641899 -45 
L 343.244168 -45 
L 344.846436 -45 
L 346.448704 -45 
L 348.050972 -45 
L 349.653241 -45 
L 351.255509 -45 
L 352.857777 -45 
L 354.460046 -45 
L 356.062314 -45 
L 357.664582 -45 
L 359.266851 -45 
L 360.869119 -45 
L 362.471387 -45 
L 364.073655 -45 
L 365.675924 -45 
L 367.278192 -45 
L 368.88046 -45 
L 370.482729 -45 
L 372.084997 -45 
L 372.084997 -45.007399 
L 372.084997 -45.007399 
L 370.482729 -45.018547 
L 368.88046 -45.04188 
L 367.278192 -45.085193 
L 365.675924 -45.156138 
L 364.073655 -45.257837 
L 362.471387 -45.383682 
L 360.869119 -45.514594 
L 359.266851 -45.622214 
L 357.664582 -45.678543 
L 356.062314 -45.667845 
L 354.460046 -45.593963 
L 352.857777 -45.478458 
L 351.255509 -45.350805 
L 349.653241 -45.236734 
L 348.050972 -45.150926 
L 346.448704 -45.096369 
L 344.846436 -45.068349 
L 343.244168 -45.059441 
L 341.641899 -45.062865 
L 340.039631 -45.073672 
L 338.437363 -45.088594 
L 336.835094 -45.105651 
L 335.232826 -45.124129 
L 333.630558 -45.144915 
L 332.02829 -45.170836 
L 330.426021 -45.206665 
L 328.823753 -45.258597 
L 327.221485 -45.33338 
L 325.619216 -45.437599 
L 324.016948 -45.577824 
L 322.41468 -45.762084 
L 320.812411 -46.002285 
L 319.210143 -46.316264 
L 317.607875 -46.727984 
L 316.005607 -47.265296 
L 314.403338 -47.95631 
L 312.80107 -48.826572 
L 311.198802 -49.898851 
L 309.596533 -51.19549 
L 307.994265 -52.741048 
L 306.391997 -54.562009 
L 304.789728 -56.68156 
L 303.18746 -59.110391 
L 301.585192 -61.83753 
L 299.982924 -64.826387 
L 298.380655 -68.019359 
L 296.778387 -71.350231 
L 295.176119 -74.759201 
L 293.57385 -78.203405 
L 291.971582 -81.657939 
L 290.369314 -85.107999 
L 288.767046 -88.538786 
L 287.164777 -91.931568 
L 285.562509 -95.269628 
L 283.960241 -98.549123 
L 282.357972 -101.784407 
L 280.755704 -105.000444 
L 279.153436 -108.214975 
L 277.551167 -111.421322 
L 275.948899 -114.582212 
L 274.346631 -117.636984 
L 272.744363 -120.516714 
L 271.142094 -123.159499 
L 269.539826 -125.52037 
L 267.937558 -127.573106 
L 266.335289 -129.303679 
L 264.733021 -130.698532 
L 263.130753 -131.734902 
L 261.528485 -132.380787 
L 259.926216 -132.606098 
L 258.323948 -132.397565 
L 256.72168 -131.76596 
L 255.119411 -130.740128 
L 253.517143 -129.353581 
L 251.914875 -127.635446 
L 250.312606 -125.611977 
L 248.710338 -123.313158 
L 247.10807 -120.773485 
L 245.505802 -118.023003 
L 243.903533 -115.076925 
L 242.301265 -111.936334 
L 240.698997 -108.603771 
L 239.096728 -105.104337 
L 237.49446 -101.49783 
L 235.892192 -97.874033 
L 234.289924 -94.334559 
L 232.687655 -90.971344 
L 231.085387 -87.850831 
L 229.483119 -85.007416 
L 227.88085 -82.445109 
L 226.278582 -80.144993 
L 224.676314 -78.076763 
L 223.074045 -76.212586 
L 221.471777 -74.539556 
L 219.869509 -73.065442 
L 218.267241 -71.814262 
L 216.664972 -70.813421 
L 215.062704 -70.079019 
L 213.460436 -69.606545 
L 211.858167 -69.37021 
L 210.255899 -69.32904 
L 208.653631 -69.435243 
L 207.051363 -69.641444 
L 205.449094 -69.906192 
L 203.846826 -70.198822 
L 202.244558 -70.503822 
L 200.642289 -70.822858 
L 199.040021 -71.171906 
L 197.437753 -71.572576 
L 195.835484 -72.039471 
L 194.233216 -72.567591 
L 192.630948 -73.124876 
L 191.02868 -73.654719 
L 189.426411 -74.090428 
L 187.824143 -74.377779 
L 186.221875 -74.495557 
L 184.619606 -74.462346 
L 183.017338 -74.32392 
L 181.41507 -74.12656 
L 179.812802 -73.890473 
L 178.210533 -73.597726 
L 176.608265 -73.200576 
L 175.005997 -72.644332 
L 173.403728 -71.891561 
L 171.80146 -70.935648 
L 170.199192 -69.79961 
L 168.596923 -68.524678 
L 166.994655 -67.156995 
L 165.392387 -65.738701 
L 163.790119 -64.304733 
L 162.18785 -62.882988 
L 160.585582 -61.494922 
L 158.983314 -60.155157 
L 157.381045 -58.870538 
L 155.778777 -57.640158 
L 154.176509 -56.45779 
L 152.574241 -55.316941 
L 150.971972 -54.216779 
L 149.369704 -53.165808 
L 147.767436 -52.180778 
L 146.165167 -51.280965 
L 144.562899 -50.480961 
L 142.960631 -49.785988 
L 141.358362 -49.191747 
L 139.756094 -48.687638 
L 138.153826 -48.260357 
L 136.551558 -47.895764 
L 134.949289 -47.579234 
L 133.347021 -47.296231 
L 131.744753 -47.034299 
L 130.142484 -46.785853 
L 128.540216 -46.549886 
L 126.937948 -46.331137 
L 125.335679 -46.136883 
L 123.733411 -45.97302 
L 122.131143 -45.841439 
L 120.528875 -45.739648 
L 118.926606 -45.662228 
L 117.324338 -45.602836 
L 115.72207 -45.555671 
L 114.119801 -45.516058 
L 112.517533 -45.480494 
L 110.915265 -45.446545 
L 109.312997 -45.412707 
L 107.710728 -45.378171 
L 106.10846 -45.342521 
L 104.506192 -45.305591 
L 102.903923 -45.26762 
L 101.301655 -45.229523 
L 99.699387 -45.192912 
L 98.097118 -45.159685 
L 96.49485 -45.131423 
L 94.892582 -45.108972 
L 93.290314 -45.092393 
L 91.688045 -45.081094 
L 90.085777 -45.073945 
L 88.483509 -45.069367 
L 86.88124 -45.065613 
L 85.278972 -45.061258 
L 83.676704 -45.055676 
L 82.074436 -45.049139 
L 80.472167 -45.042461 
L 78.869899 -45.03647 
L 77.267631 -45.031643 
L 75.665362 -45.028085 
L 74.063094 -45.025656 
L 72.460826 -45.024072 
L 70.858557 -45.022907 
L 69.256289 -45.021618 
L 67.654021 -45.01971 
L 66.051753 -45.016956 
L 64.449484 -45.013524 
L 62.847216 -45.009885 
L 61.244948 -45.006573 
L 59.642679 -45.003959 
L 58.040411 -45.002155 
L 56.438143 -45.001058 
L 54.835875 -45.000469 
L 53.233606 -45.000187 
z
" style="stroke: #3d9eb0; stroke-width: 2.5"/>
    </defs>
    <g clip-path="url(#p13c2970345)">
     <use xlink:href="#mc7e1700c12" x="0" y="180" style="fill: #3d9eb0; fill-opacity: 0.08; stroke: #3d9eb0; stroke-width: 2.5"/>
    </g>
   </g>
   <g id="patch_3">
    <path d="M 72 135 
L 72 18 
" style="fill: none; stroke: #262626; stroke-width: 1.25; stroke-linejoin: miter; stroke-linecap: square"/>
   </g>
   <g id="patch_4">
    <path d="M 342 135 
L 342 18 
" style="fill: none; stroke: #262626; stroke-width: 1.25; stroke-linejoin: miter; stroke-linecap: square"/>
   </g>
   <g id="patch_5">
    <path d="M 72 135 
L 342 135 
" style="fill: none; stroke: #262626; stroke-width: 1.25; stroke-linejoin: miter; stroke-linecap: square"/>
   </g>
   <g id="patch_6">
    <path d="M 72 18 
L 342 18 
" style="fill: none; stroke: #262626; stroke-width: 1.25; stroke-linejoin: miter; stroke-linecap: square"/>
   </g>
   <g id="text_12">
    <!-- NIL SDD PMA -->
    <g style="fill: #262626" transform="translate(168.884062 12) scale(0.12 -0.12)">
     <defs>
      <path id="ArialMT-49" d="M 597 0 
L 597 4581 
L 1203 4581 
L 1203 0 
L 597 0 
z
" transform="scale(0.015625)"/>
      <path id="ArialMT-4c" d="M 469 0 
L 469 4581 
L 1075 4581 
L 1075 541 
L 3331 541 
L 3331 0 
L 469 0 
z
" transform="scale(0.015625)"/>
      <path id="ArialMT-20" transform="scale(0.015625)"/>
      <path id="ArialMT-53" d="M 288 1472 
L 859 1522 
Q 900 1178 1048 958 
Q 1197 738 1509 602 
Q 1822 466 2213 466 
Q 2559 466 2825 569 
Q 3091 672 3220 851 
Q 3350 1031 3350 1244 
Q 3350 1459 3225 1620 
Q 3100 1781 2813 1891 
Q 2628 1963 1997 2114 
Q 1366 2266 1113 2400 
Q 784 2572 623 2826 
Q 463 3081 463 3397 
Q 463 3744 659 4045 
Q 856 4347 1234 4503 
Q 1613 4659 2075 4659 
Q 2584 4659 2973 4495 
Q 3363 4331 3572 4012 
Q 3781 3694 3797 3291 
L 3216 3247 
Q 3169 3681 2898 3903 
Q 2628 4125 2100 4125 
Q 1550 4125 1298 3923 
Q 1047 3722 1047 3438 
Q 1047 3191 1225 3031 
Q 1400 2872 2139 2705 
Q 2878 2538 3153 2413 
Q 3553 2228 3743 1945 
Q 3934 1663 3934 1294 
Q 3934 928 3725 604 
Q 3516 281 3123 101 
Q 2731 -78 2241 -78 
Q 1619 -78 1198 103 
Q 778 284 539 648 
Q 300 1013 288 1472 
z
" transform="scale(0.015625)"/>
      <path id="ArialMT-50" d="M 494 0 
L 494 4581 
L 2222 4581 
Q 2678 4581 2919 4538 
Q 3256 4481 3484 4323 
Q 3713 4166 3852 3881 
Q 3991 3597 3991 3256 
Q 3991 2672 3619 2267 
Q 3247 1863 2275 1863 
L 1100 1863 
L 1100 0 
L 494 0 
z
M 1100 2403 
L 2284 2403 
Q 2872 2403 3119 2622 
Q 3366 2841 3366 3238 
Q 3366 3525 3220 3729 
Q 3075 3934 2838 4000 
Q 2684 4041 2272 4041 
L 1100 4041 
L 1100 2403 
z
" transform="scale(0.015625)"/>
      <path id="ArialMT-4d" d="M 475 0 
L 475 4581 
L 1388 4581 
L 2472 1338 
Q 2622 884 2691 659 
Q 2769 909 2934 1394 
L 4031 4581 
L 4847 4581 
L 4847 0 
L 4263 0 
L 4263 3834 
L 2931 0 
L 2384 0 
L 1059 3900 
L 1059 0 
L 475 0 
z
" transform="scale(0.015625)"/>
     </defs>
     <use xlink:href="#ArialMT-4e"/>
     <use xlink:href="#ArialMT-49" transform="translate(72.216797 0)"/>
     <use xlink:href="#ArialMT-4c" transform="translate(100 0)"/>
     <use xlink:href="#ArialMT-20" transform="translate(151.865234 0)"/>
     <use xlink:href="#ArialMT-53" transform="translate(179.648438 0)"/>
     <use xlink:href="#ArialMT-44" transform="translate(246.347656 0)"/>
     <use xlink:href="#ArialMT-44" transform="translate(318.564453 0)"/>
     <use xlink:href="#ArialMT-20" transform="translate(390.78125 0)"/>
     <use xlink:href="#ArialMT-50" transform="translate(418.564453 0)"/>
     <use xlink:href="#ArialMT-4d" transform="translate(485.263672 0)"/>
     <use xlink:href="#ArialMT-41" transform="translate(568.564453 0)"/>
    </g>
   </g>
   <g id="legend_1">
    <g id="patch_7">
     <path d="M 359.9 30.407656 
L 381.9 30.407656 
L 381.9 22.707656 
L 359.9 22.707656 
z
" style="fill: #bbbbbb; fill-opacity: 0.08; stroke: #bbbbbb; stroke-width: 2.5; stroke-linejoin: miter"/>
    </g>
    <g id="text_13">
     <!-- Secondary -->
     <g style="fill: #262626" transform="translate(390.7 30.407656) scale(0.11 -0.11)">
      <defs>
       <path id="ArialMT-63" d="M 2588 1216 
L 3141 1144 
Q 3050 572 2676 248 
Q 2303 -75 1759 -75 
Q 1078 -75 664 370 
Q 250 816 250 1647 
Q 250 2184 428 2587 
Q 606 2991 970 3192 
Q 1334 3394 1763 3394 
Q 2303 3394 2647 3120 
Q 2991 2847 3088 2344 
L 2541 2259 
Q 2463 2594 2264 2762 
Q 2066 2931 1784 2931 
Q 1359 2931 1093 2626 
Q 828 2322 828 1663 
Q 828 994 1084 691 
Q 1341 388 1753 388 
Q 2084 388 2306 591 
Q 2528 794 2588 1216 
z
" transform="scale(0.015625)"/>
       <path id="ArialMT-6f" d="M 213 1659 
Q 213 2581 725 3025 
Q 1153 3394 1769 3394 
Q 2453 3394 2887 2945 
Q 3322 2497 3322 1706 
Q 3322 1066 3130 698 
Q 2938 331 2570 128 
Q 2203 -75 1769 -75 
Q 1072 -75 642 372 
Q 213 819 213 1659 
z
M 791 1659 
Q 791 1022 1069 705 
Q 1347 388 1769 388 
Q 2188 388 2466 706 
Q 2744 1025 2744 1678 
Q 2744 2294 2464 2611 
Q 2184 2928 1769 2928 
Q 1347 2928 1069 2612 
Q 791 2297 791 1659 
z
" transform="scale(0.015625)"/>
       <path id="ArialMT-64" d="M 2575 0 
L 2575 419 
Q 2259 -75 1647 -75 
Q 1250 -75 917 144 
Q 584 363 401 755 
Q 219 1147 219 1656 
Q 219 2153 384 2558 
Q 550 2963 881 3178 
Q 1213 3394 1622 3394 
Q 1922 3394 2156 3267 
Q 2391 3141 2538 2938 
L 2538 4581 
L 3097 4581 
L 3097 0 
L 2575 0 
z
M 797 1656 
Q 797 1019 1065 703 
Q 1334 388 1700 388 
Q 2069 388 2326 689 
Q 2584 991 2584 1609 
Q 2584 2291 2321 2609 
Q 2059 2928 1675 2928 
Q 1300 2928 1048 2622 
Q 797 2316 797 1656 
z
" transform="scale(0.015625)"/>
       <path id="ArialMT-61" d="M 2588 409 
Q 2275 144 1986 34 
Q 1697 -75 1366 -75 
Q 819 -75 525 192 
Q 231 459 231 875 
Q 231 1119 342 1320 
Q 453 1522 633 1644 
Q 813 1766 1038 1828 
Q 1203 1872 1538 1913 
Q 2219 1994 2541 2106 
Q 2544 2222 2544 2253 
Q 2544 2597 2384 2738 
Q 2169 2928 1744 2928 
Q 1347 2928 1158 2789 
Q 969 2650 878 2297 
L 328 2372 
Q 403 2725 575 2942 
Q 747 3159 1072 3276 
Q 1397 3394 1825 3394 
Q 2250 3394 2515 3294 
Q 2781 3194 2906 3042 
Q 3031 2891 3081 2659 
Q 3109 2516 3109 2141 
L 3109 1391 
Q 3109 606 3145 398 
Q 3181 191 3288 0 
L 2700 0 
Q 2613 175 2588 409 
z
M 2541 1666 
Q 2234 1541 1622 1453 
Q 1275 1403 1131 1340 
Q 988 1278 909 1158 
Q 831 1038 831 891 
Q 831 666 1001 516 
Q 1172 366 1500 366 
Q 1825 366 2078 508 
Q 2331 650 2450 897 
Q 2541 1088 2541 1459 
L 2541 1666 
z
" transform="scale(0.015625)"/>
       <path id="ArialMT-72" d="M 416 0 
L 416 3319 
L 922 3319 
L 922 2816 
Q 1116 3169 1280 3281 
Q 1444 3394 1641 3394 
Q 1925 3394 2219 3213 
L 2025 2691 
Q 1819 2813 1613 2813 
Q 1428 2813 1281 2702 
Q 1134 2591 1072 2394 
Q 978 2094 978 1738 
L 978 0 
L 416 0 
z
" transform="scale(0.015625)"/>
      </defs>
      <use xlink:href="#ArialMT-53"/>
      <use xlink:href="#ArialMT-65" transform="translate(66.699219 0)"/>
      <use xlink:href="#ArialMT-63" transform="translate(122.314453 0)"/>
      <use xlink:href="#ArialMT-6f" transform="translate(172.314453 0)"/>
      <use xlink:href="#ArialMT-6e" transform="translate(227.929688 0)"/>
      <use xlink:href="#ArialMT-64" transform="translate(283.544922 0)"/>
      <use xlink:href="#ArialMT-61" transform="translate(339.160156 0)"/>
      <use xlink:href="#ArialMT-72" transform="translate(394.775391 0)"/>
      <use xlink:href="#ArialMT-79" transform="translate(428.076172 0)"/>
     </g>
    </g>
    <g id="patch_8">
     <path d="M 359.9 46.096406 
L 381.9 46.096406 
L 381.9 38.396406 
L 359.9 38.396406 
z
" style="fill: #ea7676; fill-opacity: 0.08; stroke: #ea7676; stroke-width: 2.5; stroke-linejoin: miter"/>
    </g>
    <g id="text_14">
     <!-- WT -->
     <g style="fill: #262626" transform="translate(390.7 46.096406) scale(0.11 -0.11)">
      <defs>
       <path id="ArialMT-57" d="M 1294 0 
L 78 4581 
L 700 4581 
L 1397 1578 
Q 1509 1106 1591 641 
Q 1766 1375 1797 1488 
L 2669 4581 
L 3400 4581 
L 4056 2263 
Q 4303 1400 4413 641 
Q 4500 1075 4641 1638 
L 5359 4581 
L 5969 4581 
L 4713 0 
L 4128 0 
L 3163 3491 
Q 3041 3928 3019 4028 
Q 2947 3713 2884 3491 
L 1913 0 
L 1294 0 
z
" transform="scale(0.015625)"/>
       <path id="ArialMT-54" d="M 1659 0 
L 1659 4041 
L 150 4041 
L 150 4581 
L 3781 4581 
L 3781 4041 
L 2266 4041 
L 2266 0 
L 1659 0 
z
" transform="scale(0.015625)"/>
      </defs>
      <use xlink:href="#ArialMT-57"/>
      <use xlink:href="#ArialMT-54" transform="translate(94.384766 0)"/>
     </g>
    </g>
    <g id="patch_9">
     <path d="M 359.9 61.65625 
L 381.9 61.65625 
L 381.9 53.95625 
L 359.9 53.95625 
z
" style="fill: #3d9eb0; fill-opacity: 0.08; stroke: #3d9eb0; stroke-width: 2.5; stroke-linejoin: miter"/>
    </g>
    <g id="text_15">
     <!-- 9SA -->
     <g style="fill: #262626" transform="translate(390.7 61.65625) scale(0.11 -0.11)">
      <defs>
       <path id="ArialMT-39" d="M 350 1059 
L 891 1109 
Q 959 728 1153 556 
Q 1347 384 1650 384 
Q 1909 384 2104 503 
Q 2300 622 2425 820 
Q 2550 1019 2634 1356 
Q 2719 1694 2719 2044 
Q 2719 2081 2716 2156 
Q 2547 1888 2255 1720 
Q 1963 1553 1622 1553 
Q 1053 1553 659 1965 
Q 266 2378 266 3053 
Q 266 3750 677 4175 
Q 1088 4600 1706 4600 
Q 2153 4600 2523 4359 
Q 2894 4119 3086 3673 
Q 3278 3228 3278 2384 
Q 3278 1506 3087 986 
Q 2897 466 2520 194 
Q 2144 -78 1638 -78 
Q 1100 -78 759 220 
Q 419 519 350 1059 
z
M 2653 3081 
Q 2653 3566 2395 3850 
Q 2138 4134 1775 4134 
Q 1400 4134 1122 3828 
Q 844 3522 844 3034 
Q 844 2597 1108 2323 
Q 1372 2050 1759 2050 
Q 2150 2050 2401 2323 
Q 2653 2597 2653 3081 
z
" transform="scale(0.015625)"/>
      </defs>
      <use xlink:href="#ArialMT-39"/>
      <use xlink:href="#ArialMT-53" transform="translate(55.615234 0)"/>
      <use xlink:href="#ArialMT-41" transform="translate(122.314453 0)"/>
     </g>
    </g>
   </g>
  </g>
 </g>
 <defs>
  <clipPath id="p13c2970345">
   <rect x="72" y="18" width="270" height="117"/>
  </clipPath>
 </defs>
</svg>
