<?xml version="1.0" encoding="utf-8" standalone="no"?>
<!DOCTYPE svg PUBLIC "-//W3C//DTD SVG 1.1//EN"
  "http://www.w3.org/Graphics/SVG/1.1/DTD/svg11.dtd">
<svg xmlns:xlink="http://www.w3.org/1999/xlink" width="360pt" height="180pt" viewBox="0 0 360 180" xmlns="http://www.w3.org/2000/svg" version="1.1">
 <metadata>
  <rdf:RDF xmlns:dc="http://purl.org/dc/elements/1.1/" xmlns:cc="http://creativecommons.org/ns#" xmlns:rdf="http://www.w3.org/1999/02/22-rdf-syntax-ns#">
   <cc:Work>
    <dc:type rdf:resource="http://purl.org/dc/dcmitype/StillImage"/>
    <dc:date>2025-07-28T17:17:40.309525</dc:date>
    <dc:format>image/svg+xml</dc:format>
    <dc:creator>
     <cc:Agent>
      <dc:title>Matplotlib v3.10.3, https://matplotlib.org/</dc:title>
     </cc:Agent>
    </dc:creator>
   </cc:Work>
  </rdf:RDF>
 </metadata>
 <defs>
  <style type="text/css">*{stroke-linejoin: round; stroke-linecap: butt}</style>
 </defs>
 <g id="figure_1">
  <g id="patch_1">
   <path d="M 0 180 
L 360 180 
L 360 0 
L 0 0 
z
" style="fill: #ffffff"/>
  </g>
  <g id="axes_1">
   <g id="patch_2">
    <path d="M 72 135 
L 342 135 
L 342 18 
L 72 18 
z
" style="fill: #ffffff"/>
   </g>
   <g id="matplotlib.axis_1">
    <g id="xtick_1">
     <g id="line2d_1">
      <defs>
       <path id="maf99a754a9" d="M 0 0 
L 0 6 
" style="stroke: #262626; stroke-width: 1.25"/>
      </defs>
      <g>
       <use xlink:href="#maf99a754a9" x="104.824059" y="135" style="fill: #262626; stroke: #262626; stroke-width: 1.25"/>
      </g>
     </g>
     <g id="text_1">
      <!-- $\mathdefault{10^{2}}$ -->
      <g style="fill: #262626" transform="translate(96.189059 155.84375) scale(0.11 -0.11)">
       <defs>
        <path id="ArialMT-31" d="M 2384 0 
L 1822 0 
L 1822 3584 
Q 1619 3391 1289 3197 
Q 959 3003 697 2906 
L 697 3450 
Q 1169 3672 1522 3987 
Q 1875 4303 2022 4600 
L 2384 4600 
L 2384 0 
z
" transform="scale(0.015625)"/>
        <path id="ArialMT-30" d="M 266 2259 
Q 266 3072 433 3567 
Q 600 4063 929 4331 
Q 1259 4600 1759 4600 
Q 2128 4600 2406 4451 
Q 2684 4303 2865 4023 
Q 3047 3744 3150 3342 
Q 3253 2941 3253 2259 
Q 3253 1453 3087 958 
Q 2922 463 2592 192 
Q 2263 -78 1759 -78 
Q 1097 -78 719 397 
Q 266 969 266 2259 
z
M 844 2259 
Q 844 1131 1108 757 
Q 1372 384 1759 384 
Q 2147 384 2411 759 
Q 2675 1134 2675 2259 
Q 2675 3391 2411 3762 
Q 2147 4134 1753 4134 
Q 1366 4134 1134 3806 
Q 844 3388 844 2259 
z
" transform="scale(0.015625)"/>
        <path id="ArialMT-32" d="M 3222 541 
L 3222 0 
L 194 0 
Q 188 203 259 391 
Q 375 700 629 1000 
Q 884 1300 1366 1694 
Q 2113 2306 2375 2664 
Q 2638 3022 2638 3341 
Q 2638 3675 2398 3904 
Q 2159 4134 1775 4134 
Q 1369 4134 1125 3890 
Q 881 3647 878 3216 
L 300 3275 
Q 359 3922 746 4261 
Q 1134 4600 1788 4600 
Q 2447 4600 2831 4234 
Q 3216 3869 3216 3328 
Q 3216 3053 3103 2787 
Q 2991 2522 2730 2228 
Q 2469 1934 1863 1422 
Q 1356 997 1212 845 
Q 1069 694 975 541 
L 3222 541 
z
" transform="scale(0.015625)"/>
       </defs>
       <use xlink:href="#ArialMT-31" transform="translate(0 0.99375)"/>
       <use xlink:href="#ArialMT-30" transform="translate(55.615234 0.99375)"/>
       <use xlink:href="#ArialMT-32" transform="translate(112.972813 70.6875) scale(0.7)"/>
      </g>
     </g>
    </g>
    <g id="xtick_2">
     <g id="line2d_2">
      <g>
       <use xlink:href="#maf99a754a9" x="167.59972" y="135" style="fill: #262626; stroke: #262626; stroke-width: 1.25"/>
      </g>
     </g>
     <g id="text_2">
      <!-- $\mathdefault{10^{3}}$ -->
      <g style="fill: #262626" transform="translate(158.96472 155.84375) scale(0.11 -0.11)">
       <defs>
        <path id="ArialMT-33" d="M 269 1209 
L 831 1284 
Q 928 806 1161 595 
Q 1394 384 1728 384 
Q 2125 384 2398 659 
Q 2672 934 2672 1341 
Q 2672 1728 2419 1979 
Q 2166 2231 1775 2231 
Q 1616 2231 1378 2169 
L 1441 2663 
Q 1497 2656 1531 2656 
Q 1891 2656 2178 2843 
Q 2466 3031 2466 3422 
Q 2466 3731 2256 3934 
Q 2047 4138 1716 4138 
Q 1388 4138 1169 3931 
Q 950 3725 888 3313 
L 325 3413 
Q 428 3978 793 4289 
Q 1159 4600 1703 4600 
Q 2078 4600 2393 4439 
Q 2709 4278 2876 4000 
Q 3044 3722 3044 3409 
Q 3044 3113 2884 2869 
Q 2725 2625 2413 2481 
Q 2819 2388 3044 2092 
Q 3269 1797 3269 1353 
Q 3269 753 2831 336 
Q 2394 -81 1725 -81 
Q 1122 -81 723 278 
Q 325 638 269 1209 
z
" transform="scale(0.015625)"/>
       </defs>
       <use xlink:href="#ArialMT-31" transform="translate(0 0.99375)"/>
       <use xlink:href="#ArialMT-30" transform="translate(55.615234 0.99375)"/>
       <use xlink:href="#ArialMT-33" transform="translate(112.972813 70.6875) scale(0.7)"/>
      </g>
     </g>
    </g>
    <g id="xtick_3">
     <g id="line2d_3">
      <g>
       <use xlink:href="#maf99a754a9" x="230.37538" y="135" style="fill: #262626; stroke: #262626; stroke-width: 1.25"/>
      </g>
     </g>
     <g id="text_3">
      <!-- $\mathdefault{10^{4}}$ -->
      <g style="fill: #262626" transform="translate(221.74038 155.73375) scale(0.11 -0.11)">
       <defs>
        <path id="ArialMT-34" d="M 2069 0 
L 2069 1097 
L 81 1097 
L 81 1613 
L 2172 4581 
L 2631 4581 
L 2631 1613 
L 3250 1613 
L 3250 1097 
L 2631 1097 
L 2631 0 
L 2069 0 
z
M 2069 1613 
L 2069 3678 
L 634 1613 
L 2069 1613 
z
" transform="scale(0.015625)"/>
       </defs>
       <use xlink:href="#ArialMT-31" transform="translate(0 0.201563)"/>
       <use xlink:href="#ArialMT-30" transform="translate(55.615234 0.201563)"/>
       <use xlink:href="#ArialMT-34" transform="translate(112.972813 69.895313) scale(0.7)"/>
      </g>
     </g>
    </g>
    <g id="xtick_4">
     <g id="line2d_4">
      <g>
       <use xlink:href="#maf99a754a9" x="293.151041" y="135" style="fill: #262626; stroke: #262626; stroke-width: 1.25"/>
      </g>
     </g>
     <g id="text_4">
      <!-- $\mathdefault{10^{5}}$ -->
      <g style="fill: #262626" transform="translate(284.516041 155.73375) scale(0.11 -0.11)">
       <defs>
        <path id="ArialMT-35" d="M 266 1200 
L 856 1250 
Q 922 819 1161 601 
Q 1400 384 1738 384 
Q 2144 384 2425 690 
Q 2706 997 2706 1503 
Q 2706 1984 2436 2262 
Q 2166 2541 1728 2541 
Q 1456 2541 1237 2417 
Q 1019 2294 894 2097 
L 366 2166 
L 809 4519 
L 3088 4519 
L 3088 3981 
L 1259 3981 
L 1013 2750 
Q 1425 3038 1878 3038 
Q 2478 3038 2890 2622 
Q 3303 2206 3303 1553 
Q 3303 931 2941 478 
Q 2500 -78 1738 -78 
Q 1113 -78 717 272 
Q 322 622 266 1200 
z
" transform="scale(0.015625)"/>
       </defs>
       <use xlink:href="#ArialMT-31" transform="translate(0 0.879688)"/>
       <use xlink:href="#ArialMT-30" transform="translate(55.615234 0.879688)"/>
       <use xlink:href="#ArialMT-35" transform="translate(112.972813 70.573438) scale(0.7)"/>
      </g>
     </g>
    </g>
    <g id="xtick_5">
     <g id="line2d_5">
      <defs>
       <path id="mfc0b9af0c4" d="M 0 0 
L 0 4 
" style="stroke: #262626"/>
      </defs>
      <g>
       <use xlink:href="#mfc0b9af0c4" x="72" y="135" style="fill: #262626; stroke: #262626"/>
      </g>
     </g>
    </g>
    <g id="xtick_6">
     <g id="line2d_6">
      <g>
       <use xlink:href="#mfc0b9af0c4" x="79.843112" y="135" style="fill: #262626; stroke: #262626"/>
      </g>
     </g>
    </g>
    <g id="xtick_7">
     <g id="line2d_7">
      <g>
       <use xlink:href="#mfc0b9af0c4" x="85.926702" y="135" style="fill: #262626; stroke: #262626"/>
      </g>
     </g>
    </g>
    <g id="xtick_8">
     <g id="line2d_8">
      <g>
       <use xlink:href="#mfc0b9af0c4" x="90.897357" y="135" style="fill: #262626; stroke: #262626"/>
      </g>
     </g>
    </g>
    <g id="xtick_9">
     <g id="line2d_9">
      <g>
       <use xlink:href="#mfc0b9af0c4" x="95.099986" y="135" style="fill: #262626; stroke: #262626"/>
      </g>
     </g>
    </g>
    <g id="xtick_10">
     <g id="line2d_10">
      <g>
       <use xlink:href="#mfc0b9af0c4" x="98.740469" y="135" style="fill: #262626; stroke: #262626"/>
      </g>
     </g>
    </g>
    <g id="xtick_11">
     <g id="line2d_11">
      <g>
       <use xlink:href="#mfc0b9af0c4" x="101.951602" y="135" style="fill: #262626; stroke: #262626"/>
      </g>
     </g>
    </g>
    <g id="xtick_12">
     <g id="line2d_12">
      <g>
       <use xlink:href="#mfc0b9af0c4" x="123.721416" y="135" style="fill: #262626; stroke: #262626"/>
      </g>
     </g>
    </g>
    <g id="xtick_13">
     <g id="line2d_13">
      <g>
       <use xlink:href="#mfc0b9af0c4" x="134.775661" y="135" style="fill: #262626; stroke: #262626"/>
      </g>
     </g>
    </g>
    <g id="xtick_14">
     <g id="line2d_14">
      <g>
       <use xlink:href="#mfc0b9af0c4" x="142.618773" y="135" style="fill: #262626; stroke: #262626"/>
      </g>
     </g>
    </g>
    <g id="xtick_15">
     <g id="line2d_15">
      <g>
       <use xlink:href="#mfc0b9af0c4" x="148.702363" y="135" style="fill: #262626; stroke: #262626"/>
      </g>
     </g>
    </g>
    <g id="xtick_16">
     <g id="line2d_16">
      <g>
       <use xlink:href="#mfc0b9af0c4" x="153.673018" y="135" style="fill: #262626; stroke: #262626"/>
      </g>
     </g>
    </g>
    <g id="xtick_17">
     <g id="line2d_17">
      <g>
       <use xlink:href="#mfc0b9af0c4" x="157.875647" y="135" style="fill: #262626; stroke: #262626"/>
      </g>
     </g>
    </g>
    <g id="xtick_18">
     <g id="line2d_18">
      <g>
       <use xlink:href="#mfc0b9af0c4" x="161.516129" y="135" style="fill: #262626; stroke: #262626"/>
      </g>
     </g>
    </g>
    <g id="xtick_19">
     <g id="line2d_19">
      <g>
       <use xlink:href="#mfc0b9af0c4" x="164.727263" y="135" style="fill: #262626; stroke: #262626"/>
      </g>
     </g>
    </g>
    <g id="xtick_20">
     <g id="line2d_20">
      <g>
       <use xlink:href="#mfc0b9af0c4" x="186.497076" y="135" style="fill: #262626; stroke: #262626"/>
      </g>
     </g>
    </g>
    <g id="xtick_21">
     <g id="line2d_21">
      <g>
       <use xlink:href="#mfc0b9af0c4" x="197.551322" y="135" style="fill: #262626; stroke: #262626"/>
      </g>
     </g>
    </g>
    <g id="xtick_22">
     <g id="line2d_22">
      <g>
       <use xlink:href="#mfc0b9af0c4" x="205.394433" y="135" style="fill: #262626; stroke: #262626"/>
      </g>
     </g>
    </g>
    <g id="xtick_23">
     <g id="line2d_23">
      <g>
       <use xlink:href="#mfc0b9af0c4" x="211.478023" y="135" style="fill: #262626; stroke: #262626"/>
      </g>
     </g>
    </g>
    <g id="xtick_24">
     <g id="line2d_24">
      <g>
       <use xlink:href="#mfc0b9af0c4" x="216.448678" y="135" style="fill: #262626; stroke: #262626"/>
      </g>
     </g>
    </g>
    <g id="xtick_25">
     <g id="line2d_25">
      <g>
       <use xlink:href="#mfc0b9af0c4" x="220.651307" y="135" style="fill: #262626; stroke: #262626"/>
      </g>
     </g>
    </g>
    <g id="xtick_26">
     <g id="line2d_26">
      <g>
       <use xlink:href="#mfc0b9af0c4" x="224.29179" y="135" style="fill: #262626; stroke: #262626"/>
      </g>
     </g>
    </g>
    <g id="xtick_27">
     <g id="line2d_27">
      <g>
       <use xlink:href="#mfc0b9af0c4" x="227.502924" y="135" style="fill: #262626; stroke: #262626"/>
      </g>
     </g>
    </g>
    <g id="xtick_28">
     <g id="line2d_28">
      <g>
       <use xlink:href="#mfc0b9af0c4" x="249.272737" y="135" style="fill: #262626; stroke: #262626"/>
      </g>
     </g>
    </g>
    <g id="xtick_29">
     <g id="line2d_29">
      <g>
       <use xlink:href="#mfc0b9af0c4" x="260.326982" y="135" style="fill: #262626; stroke: #262626"/>
      </g>
     </g>
    </g>
    <g id="xtick_30">
     <g id="line2d_30">
      <g>
       <use xlink:href="#mfc0b9af0c4" x="268.170094" y="135" style="fill: #262626; stroke: #262626"/>
      </g>
     </g>
    </g>
    <g id="xtick_31">
     <g id="line2d_31">
      <g>
       <use xlink:href="#mfc0b9af0c4" x="274.253684" y="135" style="fill: #262626; stroke: #262626"/>
      </g>
     </g>
    </g>
    <g id="xtick_32">
     <g id="line2d_32">
      <g>
       <use xlink:href="#mfc0b9af0c4" x="279.224339" y="135" style="fill: #262626; stroke: #262626"/>
      </g>
     </g>
    </g>
    <g id="xtick_33">
     <g id="line2d_33">
      <g>
       <use xlink:href="#mfc0b9af0c4" x="283.426968" y="135" style="fill: #262626; stroke: #262626"/>
      </g>
     </g>
    </g>
    <g id="xtick_34">
     <g id="line2d_34">
      <g>
       <use xlink:href="#mfc0b9af0c4" x="287.067451" y="135" style="fill: #262626; stroke: #262626"/>
      </g>
     </g>
    </g>
    <g id="xtick_35">
     <g id="line2d_35">
      <g>
       <use xlink:href="#mfc0b9af0c4" x="290.278584" y="135" style="fill: #262626; stroke: #262626"/>
      </g>
     </g>
    </g>
    <g id="xtick_36">
     <g id="line2d_36">
      <g>
       <use xlink:href="#mfc0b9af0c4" x="312.048398" y="135" style="fill: #262626; stroke: #262626"/>
      </g>
     </g>
    </g>
    <g id="xtick_37">
     <g id="line2d_37">
      <g>
       <use xlink:href="#mfc0b9af0c4" x="323.102643" y="135" style="fill: #262626; stroke: #262626"/>
      </g>
     </g>
    </g>
    <g id="xtick_38">
     <g id="line2d_38">
      <g>
       <use xlink:href="#mfc0b9af0c4" x="330.945755" y="135" style="fill: #262626; stroke: #262626"/>
      </g>
     </g>
    </g>
    <g id="xtick_39">
     <g id="line2d_39">
      <g>
       <use xlink:href="#mfc0b9af0c4" x="337.029345" y="135" style="fill: #262626; stroke: #262626"/>
      </g>
     </g>
    </g>
    <g id="xtick_40">
     <g id="line2d_40">
      <g>
       <use xlink:href="#mfc0b9af0c4" x="342" y="135" style="fill: #262626; stroke: #262626"/>
      </g>
     </g>
    </g>
    <g id="text_5">
     <!-- Ngn2.x3HA-A -->
     <g style="fill: #262626" transform="translate(170.318438 170.655) scale(0.12 -0.12)">
      <defs>
       <path id="ArialMT-4e" d="M 488 0 
L 488 4581 
L 1109 4581 
L 3516 984 
L 3516 4581 
L 4097 4581 
L 4097 0 
L 3475 0 
L 1069 3600 
L 1069 0 
L 488 0 
z
" transform="scale(0.015625)"/>
       <path id="ArialMT-67" d="M 319 -275 
L 866 -356 
Q 900 -609 1056 -725 
Q 1266 -881 1628 -881 
Q 2019 -881 2231 -725 
Q 2444 -569 2519 -288 
Q 2563 -116 2559 434 
Q 2191 0 1641 0 
Q 956 0 581 494 
Q 206 988 206 1678 
Q 206 2153 378 2554 
Q 550 2956 876 3175 
Q 1203 3394 1644 3394 
Q 2231 3394 2613 2919 
L 2613 3319 
L 3131 3319 
L 3131 450 
Q 3131 -325 2973 -648 
Q 2816 -972 2473 -1159 
Q 2131 -1347 1631 -1347 
Q 1038 -1347 672 -1080 
Q 306 -813 319 -275 
z
M 784 1719 
Q 784 1066 1043 766 
Q 1303 466 1694 466 
Q 2081 466 2343 764 
Q 2606 1063 2606 1700 
Q 2606 2309 2336 2618 
Q 2066 2928 1684 2928 
Q 1309 2928 1046 2623 
Q 784 2319 784 1719 
z
" transform="scale(0.015625)"/>
       <path id="ArialMT-6e" d="M 422 0 
L 422 3319 
L 928 3319 
L 928 2847 
Q 1294 3394 1984 3394 
Q 2284 3394 2536 3286 
Q 2788 3178 2913 3003 
Q 3038 2828 3088 2588 
Q 3119 2431 3119 2041 
L 3119 0 
L 2556 0 
L 2556 2019 
Q 2556 2363 2490 2533 
Q 2425 2703 2258 2804 
Q 2091 2906 1866 2906 
Q 1506 2906 1245 2678 
Q 984 2450 984 1813 
L 984 0 
L 422 0 
z
" transform="scale(0.015625)"/>
       <path id="ArialMT-2e" d="M 581 0 
L 581 641 
L 1222 641 
L 1222 0 
L 581 0 
z
" transform="scale(0.015625)"/>
       <path id="ArialMT-78" d="M 47 0 
L 1259 1725 
L 138 3319 
L 841 3319 
L 1350 2541 
Q 1494 2319 1581 2169 
Q 1719 2375 1834 2534 
L 2394 3319 
L 3066 3319 
L 1919 1756 
L 3153 0 
L 2463 0 
L 1781 1031 
L 1600 1309 
L 728 0 
L 47 0 
z
" transform="scale(0.015625)"/>
       <path id="ArialMT-48" d="M 513 0 
L 513 4581 
L 1119 4581 
L 1119 2700 
L 3500 2700 
L 3500 4581 
L 4106 4581 
L 4106 0 
L 3500 0 
L 3500 2159 
L 1119 2159 
L 1119 0 
L 513 0 
z
" transform="scale(0.015625)"/>
       <path id="ArialMT-41" d="M -9 0 
L 1750 4581 
L 2403 4581 
L 4278 0 
L 3588 0 
L 3053 1388 
L 1138 1388 
L 634 0 
L -9 0 
z
M 1313 1881 
L 2866 1881 
L 2388 3150 
Q 2169 3728 2063 4100 
Q 1975 3659 1816 3225 
L 1313 1881 
z
" transform="scale(0.015625)"/>
       <path id="ArialMT-2d" d="M 203 1375 
L 203 1941 
L 1931 1941 
L 1931 1375 
L 203 1375 
z
" transform="scale(0.015625)"/>
      </defs>
      <use xlink:href="#ArialMT-4e"/>
      <use xlink:href="#ArialMT-67" transform="translate(72.216797 0)"/>
      <use xlink:href="#ArialMT-6e" transform="translate(127.832031 0)"/>
      <use xlink:href="#ArialMT-32" transform="translate(183.447266 0)"/>
      <use xlink:href="#ArialMT-2e" transform="translate(239.0625 0)"/>
      <use xlink:href="#ArialMT-78" transform="translate(266.845703 0)"/>
      <use xlink:href="#ArialMT-33" transform="translate(316.845703 0)"/>
      <use xlink:href="#ArialMT-48" transform="translate(372.460938 0)"/>
      <use xlink:href="#ArialMT-41" transform="translate(444.677734 0)"/>
      <use xlink:href="#ArialMT-2d" transform="translate(511.376953 0)"/>
      <use xlink:href="#ArialMT-41" transform="translate(544.677734 0)"/>
     </g>
    </g>
   </g>
   <g id="matplotlib.axis_2">
    <g id="ytick_1">
     <g id="line2d_41">
      <defs>
       <path id="m17dcb5a1f2" d="M 0 0 
L -6 0 
" style="stroke: #262626; stroke-width: 1.25"/>
      </defs>
      <g>
       <use xlink:href="#m17dcb5a1f2" x="72" y="135" style="fill: #262626; stroke: #262626; stroke-width: 1.25"/>
      </g>
     </g>
     <g id="text_6">
      <!-- 0.00 -->
      <g style="fill: #262626" transform="translate(41.092969 138.936797) scale(0.11 -0.11)">
       <use xlink:href="#ArialMT-30"/>
       <use xlink:href="#ArialMT-2e" transform="translate(55.615234 0)"/>
       <use xlink:href="#ArialMT-30" transform="translate(83.398438 0)"/>
       <use xlink:href="#ArialMT-30" transform="translate(139.013672 0)"/>
      </g>
     </g>
    </g>
    <g id="ytick_2">
     <g id="line2d_42">
      <g>
       <use xlink:href="#m17dcb5a1f2" x="72" y="110.620973" style="fill: #262626; stroke: #262626; stroke-width: 1.25"/>
      </g>
     </g>
     <g id="text_7">
      <!-- 0.25 -->
      <g style="fill: #262626" transform="translate(41.092969 114.557769) scale(0.11 -0.11)">
       <use xlink:href="#ArialMT-30"/>
       <use xlink:href="#ArialMT-2e" transform="translate(55.615234 0)"/>
       <use xlink:href="#ArialMT-32" transform="translate(83.398438 0)"/>
       <use xlink:href="#ArialMT-35" transform="translate(139.013672 0)"/>
      </g>
     </g>
    </g>
    <g id="ytick_3">
     <g id="line2d_43">
      <g>
       <use xlink:href="#m17dcb5a1f2" x="72" y="86.241945" style="fill: #262626; stroke: #262626; stroke-width: 1.25"/>
      </g>
     </g>
     <g id="text_8">
      <!-- 0.50 -->
      <g style="fill: #262626" transform="translate(41.092969 90.178742) scale(0.11 -0.11)">
       <use xlink:href="#ArialMT-30"/>
       <use xlink:href="#ArialMT-2e" transform="translate(55.615234 0)"/>
       <use xlink:href="#ArialMT-35" transform="translate(83.398438 0)"/>
       <use xlink:href="#ArialMT-30" transform="translate(139.013672 0)"/>
      </g>
     </g>
    </g>
    <g id="ytick_4">
     <g id="line2d_44">
      <g>
       <use xlink:href="#m17dcb5a1f2" x="72" y="61.862918" style="fill: #262626; stroke: #262626; stroke-width: 1.25"/>
      </g>
     </g>
     <g id="text_9">
      <!-- 0.75 -->
      <g style="fill: #262626" transform="translate(41.092969 65.799715) scale(0.11 -0.11)">
       <defs>
        <path id="ArialMT-37" d="M 303 3981 
L 303 4522 
L 3269 4522 
L 3269 4084 
Q 2831 3619 2401 2847 
Q 1972 2075 1738 1259 
Q 1569 684 1522 0 
L 944 0 
Q 953 541 1156 1306 
Q 1359 2072 1739 2783 
Q 2119 3494 2547 3981 
L 303 3981 
z
" transform="scale(0.015625)"/>
       </defs>
       <use xlink:href="#ArialMT-30"/>
       <use xlink:href="#ArialMT-2e" transform="translate(55.615234 0)"/>
       <use xlink:href="#ArialMT-37" transform="translate(83.398438 0)"/>
       <use xlink:href="#ArialMT-35" transform="translate(139.013672 0)"/>
      </g>
     </g>
    </g>
    <g id="ytick_5">
     <g id="line2d_45">
      <g>
       <use xlink:href="#m17dcb5a1f2" x="72" y="37.48389" style="fill: #262626; stroke: #262626; stroke-width: 1.25"/>
      </g>
     </g>
     <g id="text_10">
      <!-- 1.00 -->
      <g style="fill: #262626" transform="translate(41.092969 41.420687) scale(0.11 -0.11)">
       <use xlink:href="#ArialMT-31"/>
       <use xlink:href="#ArialMT-2e" transform="translate(55.615234 0)"/>
       <use xlink:href="#ArialMT-30" transform="translate(83.398438 0)"/>
       <use xlink:href="#ArialMT-30" transform="translate(139.013672 0)"/>
      </g>
     </g>
    </g>
    <g id="text_11">
     <!-- Density -->
     <g style="fill: #262626" transform="translate(34.567344 96.50625) rotate(-90) scale(0.12 -0.12)">
      <defs>
       <path id="ArialMT-44" d="M 494 0 
L 494 4581 
L 2072 4581 
Q 2606 4581 2888 4516 
Q 3281 4425 3559 4188 
Q 3922 3881 4101 3404 
Q 4281 2928 4281 2316 
Q 4281 1794 4159 1391 
Q 4038 988 3847 723 
Q 3656 459 3429 307 
Q 3203 156 2883 78 
Q 2563 0 2147 0 
L 494 0 
z
M 1100 541 
L 2078 541 
Q 2531 541 2789 625 
Q 3047 709 3200 863 
Q 3416 1078 3536 1442 
Q 3656 1806 3656 2325 
Q 3656 3044 3420 3430 
Q 3184 3816 2847 3947 
Q 2603 4041 2063 4041 
L 1100 4041 
L 1100 541 
z
" transform="scale(0.015625)"/>
       <path id="ArialMT-65" d="M 2694 1069 
L 3275 997 
Q 3138 488 2766 206 
Q 2394 -75 1816 -75 
Q 1088 -75 661 373 
Q 234 822 234 1631 
Q 234 2469 665 2931 
Q 1097 3394 1784 3394 
Q 2450 3394 2872 2941 
Q 3294 2488 3294 1666 
Q 3294 1616 3291 1516 
L 816 1516 
Q 847 969 1125 678 
Q 1403 388 1819 388 
Q 2128 388 2347 550 
Q 2566 713 2694 1069 
z
M 847 1978 
L 2700 1978 
Q 2663 2397 2488 2606 
Q 2219 2931 1791 2931 
Q 1403 2931 1139 2672 
Q 875 2413 847 1978 
z
" transform="scale(0.015625)"/>
       <path id="ArialMT-73" d="M 197 991 
L 753 1078 
Q 800 744 1014 566 
Q 1228 388 1613 388 
Q 2000 388 2187 545 
Q 2375 703 2375 916 
Q 2375 1106 2209 1216 
Q 2094 1291 1634 1406 
Q 1016 1563 777 1677 
Q 538 1791 414 1992 
Q 291 2194 291 2438 
Q 291 2659 392 2848 
Q 494 3038 669 3163 
Q 800 3259 1026 3326 
Q 1253 3394 1513 3394 
Q 1903 3394 2198 3281 
Q 2494 3169 2634 2976 
Q 2775 2784 2828 2463 
L 2278 2388 
Q 2241 2644 2061 2787 
Q 1881 2931 1553 2931 
Q 1166 2931 1000 2803 
Q 834 2675 834 2503 
Q 834 2394 903 2306 
Q 972 2216 1119 2156 
Q 1203 2125 1616 2013 
Q 2213 1853 2448 1751 
Q 2684 1650 2818 1456 
Q 2953 1263 2953 975 
Q 2953 694 2789 445 
Q 2625 197 2315 61 
Q 2006 -75 1616 -75 
Q 969 -75 630 194 
Q 291 463 197 991 
z
" transform="scale(0.015625)"/>
       <path id="ArialMT-69" d="M 425 3934 
L 425 4581 
L 988 4581 
L 988 3934 
L 425 3934 
z
M 425 0 
L 425 3319 
L 988 3319 
L 988 0 
L 425 0 
z
" transform="scale(0.015625)"/>
       <path id="ArialMT-74" d="M 1650 503 
L 1731 6 
Q 1494 -44 1306 -44 
Q 1000 -44 831 53 
Q 663 150 594 308 
Q 525 466 525 972 
L 525 2881 
L 113 2881 
L 113 3319 
L 525 3319 
L 525 4141 
L 1084 4478 
L 1084 3319 
L 1650 3319 
L 1650 2881 
L 1084 2881 
L 1084 941 
Q 1084 700 1114 631 
Q 1144 563 1211 522 
Q 1278 481 1403 481 
Q 1497 481 1650 503 
z
" transform="scale(0.015625)"/>
       <path id="ArialMT-79" d="M 397 -1278 
L 334 -750 
Q 519 -800 656 -800 
Q 844 -800 956 -737 
Q 1069 -675 1141 -563 
Q 1194 -478 1313 -144 
Q 1328 -97 1363 -6 
L 103 3319 
L 709 3319 
L 1400 1397 
Q 1534 1031 1641 628 
Q 1738 1016 1872 1384 
L 2581 3319 
L 3144 3319 
L 1881 -56 
Q 1678 -603 1566 -809 
Q 1416 -1088 1222 -1217 
Q 1028 -1347 759 -1347 
Q 597 -1347 397 -1278 
z
" transform="scale(0.015625)"/>
      </defs>
      <use xlink:href="#ArialMT-44"/>
      <use xlink:href="#ArialMT-65" transform="translate(72.216797 0)"/>
      <use xlink:href="#ArialMT-6e" transform="translate(127.832031 0)"/>
      <use xlink:href="#ArialMT-73" transform="translate(183.447266 0)"/>
      <use xlink:href="#ArialMT-69" transform="translate(233.447266 0)"/>
      <use xlink:href="#ArialMT-74" transform="translate(255.664062 0)"/>
      <use xlink:href="#ArialMT-79" transform="translate(283.447266 0)"/>
     </g>
    </g>
   </g>
   <g id="FillBetweenPolyCollection_1">
    <path d="M -31.665348 134.999406 
L -31.665348 135 
L -29.656185 135 
L -27.647022 135 
L -25.637859 135 
L -23.628696 135 
L -21.619533 135 
L -19.610371 135 
L -17.601208 135 
L -15.592045 135 
L -13.582882 135 
L -11.573719 135 
L -9.564556 135 
L -7.555393 135 
L -5.54623 135 
L -3.537068 135 
L -1.527905 135 
L 0.481258 135 
L 2.490421 135 
L 4.499584 135 
L 6.508747 135 
L 8.51791 135 
L 10.527073 135 
L 12.536235 135 
L 14.545398 135 
L 16.554561 135 
L 18.563724 135 
L 20.572887 135 
L 22.58205 135 
L 24.591213 135 
L 26.600376 135 
L 28.609538 135 
L 30.618701 135 
L 32.627864 135 
L 34.637027 135 
L 36.64619 135 
L 38.655353 135 
L 40.664516 135 
L 42.673678 135 
L 44.682841 135 
L 46.692004 135 
L 48.701167 135 
L 50.71033 135 
L 52.719493 135 
L 54.728656 135 
L 56.737819 135 
L 58.746981 135 
L 60.756144 135 
L 62.765307 135 
L 64.77447 135 
L 66.783633 135 
L 68.792796 135 
L 70.801959 135 
L 72.811122 135 
L 74.820284 135 
L 76.829447 135 
L 78.83861 135 
L 80.847773 135 
L 82.856936 135 
L 84.866099 135 
L 86.875262 135 
L 88.884425 135 
L 90.893587 135 
L 92.90275 135 
L 94.911913 135 
L 96.921076 135 
L 98.930239 135 
L 100.939402 135 
L 102.948565 135 
L 104.957728 135 
L 106.96689 135 
L 108.976053 135 
L 110.985216 135 
L 112.994379 135 
L 115.003542 135 
L 117.012705 135 
L 119.021868 135 
L 121.031031 135 
L 123.040193 135 
L 125.049356 135 
L 127.058519 135 
L 129.067682 135 
L 131.076845 135 
L 133.086008 135 
L 135.095171 135 
L 137.104334 135 
L 139.113496 135 
L 141.122659 135 
L 143.131822 135 
L 145.140985 135 
L 147.150148 135 
L 149.159311 135 
L 151.168474 135 
L 153.177637 135 
L 155.186799 135 
L 157.195962 135 
L 159.205125 135 
L 161.214288 135 
L 163.223451 135 
L 165.232614 135 
L 167.241777 135 
L 169.25094 135 
L 171.260102 135 
L 173.269265 135 
L 175.278428 135 
L 177.287591 135 
L 179.296754 135 
L 181.305917 135 
L 183.31508 135 
L 185.324243 135 
L 187.333405 135 
L 189.342568 135 
L 191.351731 135 
L 193.360894 135 
L 195.370057 135 
L 197.37922 135 
L 199.388383 135 
L 201.397546 135 
L 203.406708 135 
L 205.415871 135 
L 207.425034 135 
L 209.434197 135 
L 211.44336 135 
L 213.452523 135 
L 215.461686 135 
L 217.470849 135 
L 219.480011 135 
L 221.489174 135 
L 223.498337 135 
L 225.5075 135 
L 227.516663 135 
L 229.525826 135 
L 231.534989 135 
L 233.544151 135 
L 235.553314 135 
L 237.562477 135 
L 239.57164 135 
L 241.580803 135 
L 243.589966 135 
L 245.599129 135 
L 247.608292 135 
L 249.617454 135 
L 251.626617 135 
L 253.63578 135 
L 255.644943 135 
L 257.654106 135 
L 259.663269 135 
L 261.672432 135 
L 263.681595 135 
L 265.690757 135 
L 267.69992 135 
L 269.709083 135 
L 271.718246 135 
L 273.727409 135 
L 275.736572 135 
L 277.745735 135 
L 279.754898 135 
L 281.76406 135 
L 283.773223 135 
L 285.782386 135 
L 287.791549 135 
L 289.800712 135 
L 291.809875 135 
L 293.819038 135 
L 295.828201 135 
L 297.837363 135 
L 299.846526 135 
L 301.855689 135 
L 303.864852 135 
L 305.874015 135 
L 307.883178 135 
L 309.892341 135 
L 311.901504 135 
L 313.910666 135 
L 315.919829 135 
L 317.928992 135 
L 319.938155 135 
L 321.947318 135 
L 323.956481 135 
L 325.965644 135 
L 327.974807 135 
L 329.983969 135 
L 331.993132 135 
L 334.002295 135 
L 336.011458 135 
L 338.020621 135 
L 340.029784 135 
L 342.038947 135 
L 344.04811 135 
L 346.057272 135 
L 348.066435 135 
L 350.075598 135 
L 352.084761 135 
L 354.093924 135 
L 356.103087 135 
L 358.11225 135 
L 360.121413 135 
L 362.130575 135 
L 364.139738 135 
L 366.148901 135 
L 368.158064 135 
L 368.158064 134.997578 
L 368.158064 134.997578 
L 366.148901 134.989023 
L 364.139738 134.963079 
L 362.130575 134.90754 
L 360.121413 134.826572 
L 358.11225 134.753449 
L 356.103087 134.727594 
L 354.093924 134.753566 
L 352.084761 134.800639 
L 350.075598 134.843005 
L 348.066435 134.878827 
L 346.057272 134.911133 
L 344.04811 134.933363 
L 342.038947 134.940612 
L 340.029784 134.941384 
L 338.020621 134.948721 
L 336.011458 134.964952 
L 334.002295 134.98204 
L 331.993132 134.993151 
L 329.983969 134.997869 
L 327.974807 134.998441 
L 325.965644 134.995351 
L 323.956481 134.986624 
L 321.947318 134.971245 
L 319.938155 134.954353 
L 317.928992 134.946513 
L 315.919829 134.953739 
L 313.910666 134.970468 
L 311.901504 134.986085 
L 309.892341 134.99516 
L 307.883178 134.998758 
L 305.874015 134.999765 
L 303.864852 134.999967 
L 301.855689 134.999997 
L 299.846526 135 
L 297.837363 134.999999 
L 295.828201 134.999993 
L 293.819038 134.999935 
L 291.809875 134.999579 
L 289.800712 134.99799 
L 287.791549 134.992912 
L 285.782386 134.98153 
L 283.773223 134.964314 
L 281.76406 134.948207 
L 279.754898 134.940785 
L 277.745735 134.938703 
L 275.736572 134.929167 
L 273.727409 134.908501 
L 271.718246 134.892081 
L 269.709083 134.896754 
L 267.69992 134.918196 
L 265.690757 134.936483 
L 263.681595 134.941554 
L 261.672432 134.942481 
L 259.663269 134.951506 
L 257.654106 134.968523 
L 255.644943 134.984755 
L 253.63578 134.994507 
L 251.626617 134.998316 
L 249.617454 134.998385 
L 247.608292 134.994342 
L 245.599129 134.982009 
L 243.589966 134.95583 
L 241.580803 134.915972 
L 239.57164 134.875108 
L 237.562477 134.854068 
L 235.553314 134.864662 
L 233.544151 134.896374 
L 231.534989 134.92492 
L 229.525826 134.935386 
L 227.516663 134.932532 
L 225.5075 134.928075 
L 223.498337 134.926568 
L 221.489174 134.927471 
L 219.480011 134.929667 
L 217.470849 134.926238 
L 215.461686 134.905263 
L 213.452523 134.863067 
L 211.44336 134.807519 
L 209.434197 134.74338 
L 207.425034 134.663046 
L 205.415871 134.551334 
L 203.406708 134.383564 
L 201.397546 134.116874 
L 199.388383 133.705614 
L 197.37922 133.133583 
L 195.370057 132.393924 
L 193.360894 131.387207 
L 191.351731 129.832052 
L 189.342568 127.32986 
L 187.333405 123.605181 
L 185.324243 118.705452 
L 183.31508 112.904471 
L 181.305917 106.449256 
L 179.296754 99.530734 
L 177.287591 92.45723 
L 175.278428 85.65676 
L 173.269265 79.403829 
L 171.260102 73.58897 
L 169.25094 67.8541 
L 167.241777 62.001558 
L 165.232614 56.22006 
L 163.223451 50.910141 
L 161.214288 46.423532 
L 159.205125 42.983664 
L 157.195962 40.659174 
L 155.186799 39.288045 
L 153.177637 38.479635 
L 151.168474 37.768245 
L 149.159311 36.828161 
L 147.150148 35.624005 
L 145.140985 34.428811 
L 143.131822 33.727136 
L 141.122659 33.98851 
L 139.113496 35.342259 
L 137.104334 37.470113 
L 135.095171 39.944945 
L 133.086008 42.661877 
L 131.076845 45.861636 
L 129.067682 49.800098 
L 127.058519 54.497143 
L 125.049356 59.766105 
L 123.040193 65.364927 
L 121.031031 71.070203 
L 119.021868 76.698995 
L 117.012705 82.185573 
L 115.003542 87.610586 
L 112.994379 93.050489 
L 110.985216 98.403678 
L 108.976053 103.394677 
L 106.96689 107.741934 
L 104.957728 111.343819 
L 102.948565 114.314581 
L 100.939402 116.86196 
L 98.930239 119.171547 
L 96.921076 121.353708 
L 94.911913 123.383945 
L 92.90275 125.111953 
L 90.893587 126.440203 
L 88.884425 127.4724 
L 86.875262 128.40786 
L 84.866099 129.340829 
L 82.856936 130.220671 
L 80.847773 130.952179 
L 78.83861 131.488791 
L 76.829447 131.864892 
L 74.820284 132.172653 
L 72.811122 132.493842 
L 70.801959 132.841668 
L 68.792796 133.177895 
L 66.783633 133.474763 
L 64.77447 133.734508 
L 62.765307 133.957486 
L 60.756144 134.123108 
L 58.746981 134.217513 
L 56.737819 134.264948 
L 54.728656 134.303207 
L 52.719493 134.336843 
L 50.71033 134.349226 
L 48.701167 134.347758 
L 46.692004 134.357754 
L 44.682841 134.382426 
L 42.673678 134.406818 
L 40.664516 134.436784 
L 38.655353 134.500632 
L 36.64619 134.606634 
L 34.637027 134.720218 
L 32.627864 134.793441 
L 30.618701 134.811606 
L 28.609538 134.804617 
L 26.600376 134.81053 
L 24.591213 134.836422 
L 22.58205 134.861948 
L 20.572887 134.869591 
L 18.563724 134.860181 
L 16.554561 134.840079 
L 14.545398 134.801675 
L 12.536235 134.737311 
L 10.527073 134.677185 
L 8.51791 134.677205 
L 6.508747 134.751264 
L 4.499584 134.849256 
L 2.490421 134.915148 
L 0.481258 134.938137 
L -1.527905 134.942542 
L -3.537068 134.95136 
L -5.54623 134.968084 
L -7.555393 134.984325 
L -9.564556 134.993869 
L -11.573719 134.996206 
L -13.582882 134.99186 
L -15.592045 134.980118 
L -17.601208 134.962957 
L -19.610371 134.94896 
L -21.619533 134.948087 
L -23.628696 134.961026 
L -25.637859 134.978403 
L -27.647022 134.991167 
L -29.656185 134.997333 
L -31.665348 134.999406 
z
" clip-path="url(#pc333e47aa4)" style="fill: #bbbbbb; fill-opacity: 0.08; stroke: #bbbbbb; stroke-width: 2.5"/>
   </g>
   <g id="FillBetweenPolyCollection_2">
    <path d="M -26.771576 134.999831 
L -26.771576 135 
L -24.811597 135 
L -22.851618 135 
L -20.891638 135 
L -18.931659 135 
L -16.97168 135 
L -15.011701 135 
L -13.051721 135 
L -11.091742 135 
L -9.131763 135 
L -7.171784 135 
L -5.211804 135 
L -3.251825 135 
L -1.291846 135 
L 0.668133 135 
L 2.628112 135 
L 4.588092 135 
L 6.548071 135 
L 8.50805 135 
L 10.468029 135 
L 12.428009 135 
L 14.387988 135 
L 16.347967 135 
L 18.307946 135 
L 20.267926 135 
L 22.227905 135 
L 24.187884 135 
L 26.147863 135 
L 28.107843 135 
L 30.067822 135 
L 32.027801 135 
L 33.98778 135 
L 35.94776 135 
L 37.907739 135 
L 39.867718 135 
L 41.827697 135 
L 43.787676 135 
L 45.747656 135 
L 47.707635 135 
L 49.667614 135 
L 51.627593 135 
L 53.587573 135 
L 55.547552 135 
L 57.507531 135 
L 59.46751 135 
L 61.42749 135 
L 63.387469 135 
L 65.347448 135 
L 67.307427 135 
L 69.267407 135 
L 71.227386 135 
L 73.187365 135 
L 75.147344 135 
L 77.107324 135 
L 79.067303 135 
L 81.027282 135 
L 82.987261 135 
L 84.94724 135 
L 86.90722 135 
L 88.867199 135 
L 90.827178 135 
L 92.787157 135 
L 94.747137 135 
L 96.707116 135 
L 98.667095 135 
L 100.627074 135 
L 102.587054 135 
L 104.547033 135 
L 106.507012 135 
L 108.466991 135 
L 110.426971 135 
L 112.38695 135 
L 114.346929 135 
L 116.306908 135 
L 118.266888 135 
L 120.226867 135 
L 122.186846 135 
L 124.146825 135 
L 126.106804 135 
L 128.066784 135 
L 130.026763 135 
L 131.986742 135 
L 133.946721 135 
L 135.906701 135 
L 137.86668 135 
L 139.826659 135 
L 141.786638 135 
L 143.746618 135 
L 145.706597 135 
L 147.666576 135 
L 149.626555 135 
L 151.586535 135 
L 153.546514 135 
L 155.506493 135 
L 157.466472 135 
L 159.426452 135 
L 161.386431 135 
L 163.34641 135 
L 165.306389 135 
L 167.266368 135 
L 169.226348 135 
L 171.186327 135 
L 173.146306 135 
L 175.106285 135 
L 177.066265 135 
L 179.026244 135 
L 180.986223 135 
L 182.946202 135 
L 184.906182 135 
L 186.866161 135 
L 188.82614 135 
L 190.786119 135 
L 192.746099 135 
L 194.706078 135 
L 196.666057 135 
L 198.626036 135 
L 200.586016 135 
L 202.545995 135 
L 204.505974 135 
L 206.465953 135 
L 208.425932 135 
L 210.385912 135 
L 212.345891 135 
L 214.30587 135 
L 216.265849 135 
L 218.225829 135 
L 220.185808 135 
L 222.145787 135 
L 224.105766 135 
L 226.065746 135 
L 228.025725 135 
L 229.985704 135 
L 231.945683 135 
L 233.905663 135 
L 235.865642 135 
L 237.825621 135 
L 239.7856 135 
L 241.74558 135 
L 243.705559 135 
L 245.665538 135 
L 247.625517 135 
L 249.585496 135 
L 251.545476 135 
L 253.505455 135 
L 255.465434 135 
L 257.425413 135 
L 259.385393 135 
L 261.345372 135 
L 263.305351 135 
L 265.26533 135 
L 267.22531 135 
L 269.185289 135 
L 271.145268 135 
L 273.105247 135 
L 275.065227 135 
L 277.025206 135 
L 278.985185 135 
L 280.945164 135 
L 282.905144 135 
L 284.865123 135 
L 286.825102 135 
L 288.785081 135 
L 290.745061 135 
L 292.70504 135 
L 294.665019 135 
L 296.624998 135 
L 298.584977 135 
L 300.544957 135 
L 302.504936 135 
L 304.464915 135 
L 306.424894 135 
L 308.384874 135 
L 310.344853 135 
L 312.304832 135 
L 314.264811 135 
L 316.224791 135 
L 318.18477 135 
L 320.144749 135 
L 322.104728 135 
L 324.064708 135 
L 326.024687 135 
L 327.984666 135 
L 329.944645 135 
L 331.904625 135 
L 333.864604 135 
L 335.824583 135 
L 337.784562 135 
L 339.744541 135 
L 341.704521 135 
L 343.6645 135 
L 345.624479 135 
L 347.584458 135 
L 349.544438 135 
L 351.504417 135 
L 353.464396 135 
L 355.424375 135 
L 357.384355 135 
L 359.344334 135 
L 361.304313 135 
L 363.264292 135 
L 363.264292 134.993654 
L 363.264292 134.993654 
L 361.304313 134.926703 
L 359.344334 134.670719 
L 357.384355 134.421323 
L 355.424375 134.589546 
L 353.464396 134.858441 
L 351.504417 134.95164 
L 349.544438 134.969628 
L 347.584458 134.967488 
L 345.624479 134.961442 
L 343.6645 134.96101 
L 341.704521 134.965069 
L 339.744541 134.970393 
L 337.784562 134.971746 
L 335.824583 134.968239 
L 333.864604 134.968912 
L 331.904625 134.962674 
L 329.944645 134.950629 
L 327.984666 134.950726 
L 326.024687 134.959744 
L 324.064708 134.961582 
L 322.104728 134.948151 
L 320.144749 134.939396 
L 318.18477 134.943473 
L 316.224791 134.937614 
L 314.264811 134.925727 
L 312.304832 134.933366 
L 310.344853 134.941544 
L 308.384874 134.92907 
L 306.424894 134.921941 
L 304.464915 134.929613 
L 302.504936 134.93401 
L 300.544957 134.912459 
L 298.584977 134.863933 
L 296.624998 134.813648 
L 294.665019 134.76872 
L 292.70504 134.714213 
L 290.745061 134.603042 
L 288.785081 134.438524 
L 286.825102 134.265043 
L 284.865123 134.01514 
L 282.905144 133.61717 
L 280.945164 133.076929 
L 278.985185 132.420689 
L 277.025206 131.608739 
L 275.065227 130.469201 
L 273.105247 128.869402 
L 271.145268 126.843515 
L 269.185289 124.510574 
L 267.22531 121.932528 
L 265.26533 118.845251 
L 263.305351 115.113431 
L 261.345372 110.977458 
L 259.385393 106.541551 
L 257.425413 101.743701 
L 255.465434 96.288438 
L 253.505455 90.041401 
L 251.545476 83.540693 
L 249.585496 77.277751 
L 247.625517 70.96654 
L 245.665538 64.252441 
L 243.705559 57.635462 
L 241.74558 51.454735 
L 239.7856 45.651584 
L 237.825621 40.030019 
L 235.865642 34.466522 
L 233.905663 29.837359 
L 231.945683 26.804115 
L 229.985704 25.122289 
L 228.025725 24.081923 
L 226.065746 23.571429 
L 224.105766 24.002441 
L 222.145787 25.691756 
L 220.185808 28.34874 
L 218.225829 31.800677 
L 216.265849 36.220709 
L 214.30587 41.422537 
L 212.345891 46.828815 
L 210.385912 52.367411 
L 208.425932 58.568052 
L 206.465953 65.034457 
L 204.505974 70.699034 
L 202.545995 75.783695 
L 200.586016 80.725105 
L 198.626036 85.182347 
L 196.666057 89.597578 
L 194.706078 94.321896 
L 192.746099 98.843698 
L 190.786119 102.860154 
L 188.82614 106.470903 
L 186.866161 109.585593 
L 184.906182 112.215326 
L 182.946202 114.480156 
L 180.986223 116.476422 
L 179.026244 118.22296 
L 177.066265 119.836342 
L 175.106285 121.369655 
L 173.146306 122.682167 
L 171.186327 123.752734 
L 169.226348 124.683801 
L 167.266368 125.547526 
L 165.306389 126.283189 
L 163.34641 126.83355 
L 161.386431 127.359747 
L 159.426452 127.945065 
L 157.466472 128.499956 
L 155.506493 128.95877 
L 153.546514 129.468184 
L 151.586535 130.062886 
L 149.626555 130.538974 
L 147.666576 130.864442 
L 145.706597 131.206241 
L 143.746618 131.592366 
L 141.786638 132.017434 
L 139.826659 132.374997 
L 137.86668 132.584637 
L 135.906701 132.773326 
L 133.946721 133.029719 
L 131.986742 133.258117 
L 130.026763 133.447923 
L 128.066784 133.636295 
L 126.106804 133.820863 
L 124.146825 134.014112 
L 122.186846 134.176076 
L 120.226867 134.247933 
L 118.266888 134.289509 
L 116.306908 134.353201 
L 114.346929 134.414894 
L 112.38695 134.463241 
L 110.426971 134.524873 
L 108.466991 134.580262 
L 106.507012 134.616534 
L 104.547033 134.670108 
L 102.587054 134.73876 
L 100.627074 134.781451 
L 98.667095 134.798289 
L 96.707116 134.815497 
L 94.747137 134.826176 
L 92.787157 134.842337 
L 90.827178 134.871236 
L 88.867199 134.876634 
L 86.90722 134.87729 
L 84.94724 134.887488 
L 82.987261 134.888218 
L 81.027282 134.893852 
L 79.067303 134.911668 
L 77.107324 134.919039 
L 75.147344 134.921074 
L 73.187365 134.930015 
L 71.227386 134.943481 
L 69.267407 134.952393 
L 67.307427 134.952726 
L 65.347448 134.947991 
L 63.387469 134.946138 
L 61.42749 134.949875 
L 59.46751 134.961307 
L 57.507531 134.973184 
L 55.547552 134.976528 
L 53.587573 134.978501 
L 51.627593 134.983027 
L 49.667614 134.985238 
L 47.707635 134.984373 
L 45.747656 134.978357 
L 43.787676 134.971685 
L 41.827697 134.975019 
L 39.867718 134.986706 
L 37.907739 134.990128 
L 35.94776 134.985341 
L 33.98778 134.981924 
L 32.027801 134.98148 
L 30.067822 134.984509 
L 28.107843 134.986486 
L 26.147863 134.990265 
L 24.187884 134.991612 
L 22.227905 134.992836 
L 20.267926 134.996177 
L 18.307946 134.996422 
L 16.347967 134.996362 
L 14.387988 134.997712 
L 12.428009 134.994349 
L 10.468029 134.984233 
L 8.50805 134.982112 
L 6.548071 134.992112 
L 4.588092 134.998579 
L 2.628112 134.998922 
L 0.668133 134.994697 
L -1.291846 134.988968 
L -3.251825 134.991088 
L -5.211804 134.997205 
L -7.171784 134.99966 
L -9.131763 134.999984 
L -11.091742 135 
L -13.051721 134.999989 
L -15.011701 134.999727 
L -16.97168 134.997317 
L -18.931659 134.989753 
L -20.891638 134.984807 
L -22.851618 134.991257 
L -24.811597 134.998047 
L -26.771576 134.999831 
z
" clip-path="url(#pc333e47aa4)" style="fill: #ea7676; fill-opacity: 0.08; stroke: #ea7676; stroke-width: 2.5"/>
   </g>
   <g id="FillBetweenPolyCollection_3">
    <path d="M -2.265449 134.9999 
L -2.265449 135 
L -0.401252 135 
L 1.462945 135 
L 3.327142 135 
L 5.19134 135 
L 7.055537 135 
L 8.919734 135 
L 10.783931 135 
L 12.648128 135 
L 14.512325 135 
L 16.376522 135 
L 18.240719 135 
L 20.104916 135 
L 21.969113 135 
L 23.83331 135 
L 25.697507 135 
L 27.561704 135 
L 29.425901 135 
L 31.290098 135 
L 33.154295 135 
L 35.018493 135 
L 36.88269 135 
L 38.746887 135 
L 40.611084 135 
L 42.475281 135 
L 44.339478 135 
L 46.203675 135 
L 48.067872 135 
L 49.932069 135 
L 51.796266 135 
L 53.660463 135 
L 55.52466 135 
L 57.388857 135 
L 59.253054 135 
L 61.117251 135 
L 62.981449 135 
L 64.845646 135 
L 66.709843 135 
L 68.57404 135 
L 70.438237 135 
L 72.302434 135 
L 74.166631 135 
L 76.030828 135 
L 77.895025 135 
L 79.759222 135 
L 81.623419 135 
L 83.487616 135 
L 85.351813 135 
L 87.21601 135 
L 89.080207 135 
L 90.944404 135 
L 92.808602 135 
L 94.672799 135 
L 96.536996 135 
L 98.401193 135 
L 100.26539 135 
L 102.129587 135 
L 103.993784 135 
L 105.857981 135 
L 107.722178 135 
L 109.586375 135 
L 111.450572 135 
L 113.314769 135 
L 115.178966 135 
L 117.043163 135 
L 118.90736 135 
L 120.771557 135 
L 122.635755 135 
L 124.499952 135 
L 126.364149 135 
L 128.228346 135 
L 130.092543 135 
L 131.95674 135 
L 133.820937 135 
L 135.685134 135 
L 137.549331 135 
L 139.413528 135 
L 141.277725 135 
L 143.141922 135 
L 145.006119 135 
L 146.870316 135 
L 148.734513 135 
L 150.598711 135 
L 152.462908 135 
L 154.327105 135 
L 156.191302 135 
L 158.055499 135 
L 159.919696 135 
L 161.783893 135 
L 163.64809 135 
L 165.512287 135 
L 167.376484 135 
L 169.240681 135 
L 171.104878 135 
L 172.969075 135 
L 174.833272 135 
L 176.697469 135 
L 178.561666 135 
L 180.425864 135 
L 182.290061 135 
L 184.154258 135 
L 186.018455 135 
L 187.882652 135 
L 189.746849 135 
L 191.611046 135 
L 193.475243 135 
L 195.33944 135 
L 197.203637 135 
L 199.067834 135 
L 200.932031 135 
L 202.796228 135 
L 204.660425 135 
L 206.524622 135 
L 208.388819 135 
L 210.253017 135 
L 212.117214 135 
L 213.981411 135 
L 215.845608 135 
L 217.709805 135 
L 219.574002 135 
L 221.438199 135 
L 223.302396 135 
L 225.166593 135 
L 227.03079 135 
L 228.894987 135 
L 230.759184 135 
L 232.623381 135 
L 234.487578 135 
L 236.351775 135 
L 238.215973 135 
L 240.08017 135 
L 241.944367 135 
L 243.808564 135 
L 245.672761 135 
L 247.536958 135 
L 249.401155 135 
L 251.265352 135 
L 253.129549 135 
L 254.993746 135 
L 256.857943 135 
L 258.72214 135 
L 260.586337 135 
L 262.450534 135 
L 264.314731 135 
L 266.178928 135 
L 268.043126 135 
L 269.907323 135 
L 271.77152 135 
L 273.635717 135 
L 275.499914 135 
L 277.364111 135 
L 279.228308 135 
L 281.092505 135 
L 282.956702 135 
L 284.820899 135 
L 286.685096 135 
L 288.549293 135 
L 290.41349 135 
L 292.277687 135 
L 294.141884 135 
L 296.006081 135 
L 297.870279 135 
L 299.734476 135 
L 301.598673 135 
L 303.46287 135 
L 305.327067 135 
L 307.191264 135 
L 309.055461 135 
L 310.919658 135 
L 312.783855 135 
L 314.648052 135 
L 316.512249 135 
L 318.376446 135 
L 320.240643 135 
L 322.10484 135 
L 323.969037 135 
L 325.833234 135 
L 327.697432 135 
L 329.561629 135 
L 331.425826 135 
L 333.290023 135 
L 335.15422 135 
L 337.018417 135 
L 338.882614 135 
L 340.746811 135 
L 342.611008 135 
L 344.475205 135 
L 346.339402 135 
L 348.203599 135 
L 350.067796 135 
L 351.931993 135 
L 353.79619 135 
L 355.660388 135 
L 357.524585 135 
L 359.388782 135 
L 361.252979 135 
L 363.117176 135 
L 364.981373 135 
L 366.84557 135 
L 368.709767 135 
L 368.709767 134.993412 
L 368.709767 134.993412 
L 366.84557 134.974792 
L 364.981373 134.923878 
L 363.117176 134.818562 
L 361.252979 134.658551 
L 359.388782 134.492335 
L 357.524585 134.402869 
L 355.660388 134.442695 
L 353.79619 134.584444 
L 351.931993 134.748218 
L 350.067796 134.870392 
L 348.203599 134.936137 
L 346.339402 134.961303 
L 344.475205 134.964734 
L 342.611008 134.958007 
L 340.746811 134.947623 
L 338.882614 134.937492 
L 337.018417 134.928395 
L 335.15422 134.917757 
L 333.290023 134.901686 
L 331.425826 134.876427 
L 329.561629 134.836622 
L 327.697432 134.773468 
L 325.833234 134.677727 
L 323.969037 134.545273 
L 322.10484 134.37706 
L 320.240643 134.171713 
L 318.376446 133.918274 
L 316.512249 133.594525 
L 314.648052 133.169423 
L 312.783855 132.607942 
L 310.919658 131.877587 
L 309.055461 130.953115 
L 307.191264 129.815655 
L 305.327067 128.445227 
L 303.46287 126.811893 
L 301.598673 124.879417 
L 299.734476 122.62723 
L 297.870279 120.066453 
L 296.006081 117.21877 
L 294.141884 114.073817 
L 292.277687 110.583349 
L 290.41349 106.713375 
L 288.549293 102.49698 
L 286.685096 98.027579 
L 284.820899 93.412953 
L 282.956702 88.745161 
L 281.092505 84.088906 
L 279.228308 79.474556 
L 277.364111 74.926957 
L 275.499914 70.526084 
L 273.635717 66.409254 
L 271.77152 62.684618 
L 269.907323 59.362843 
L 268.043126 56.388516 
L 266.178928 53.726536 
L 264.314731 51.429515 
L 262.450534 49.639784 
L 260.586337 48.499127 
L 258.72214 48.026928 
L 256.857943 48.1101 
L 254.993746 48.634766 
L 253.129549 49.59166 
L 251.265352 51.021999 
L 249.401155 52.901112 
L 247.536958 55.123354 
L 245.672761 57.586323 
L 243.808564 60.258713 
L 241.944367 63.171534 
L 240.08017 66.361059 
L 238.215973 69.819219 
L 236.351775 73.486222 
L 234.487578 77.280948 
L 232.623381 81.127596 
L 230.759184 84.946538 
L 228.894987 88.645348 
L 227.03079 92.152894 
L 225.166593 95.447548 
L 223.302396 98.52433 
L 221.438199 101.353785 
L 219.574002 103.899411 
L 217.709805 106.161248 
L 215.845608 108.175062 
L 213.981411 109.966986 
L 212.117214 111.530663 
L 210.253017 112.855046 
L 208.388819 113.947424 
L 206.524622 114.816628 
L 204.660425 115.463268 
L 202.796228 115.904015 
L 200.932031 116.183015 
L 199.067834 116.344353 
L 197.203637 116.404398 
L 195.33944 116.35729 
L 193.475243 116.201076 
L 191.611046 115.955417 
L 189.746849 115.658739 
L 187.882652 115.358077 
L 186.018455 115.108034 
L 184.154258 114.971396 
L 182.290061 115.003018 
L 180.425864 115.221516 
L 178.561666 115.595831 
L 176.697469 116.065697 
L 174.833272 116.586706 
L 172.969075 117.163797 
L 171.104878 117.837773 
L 169.240681 118.635761 
L 167.376484 119.542422 
L 165.512287 120.522234 
L 163.64809 121.551755 
L 161.783893 122.614592 
L 159.919696 123.682819 
L 158.055499 124.731611 
L 156.191302 125.764996 
L 154.327105 126.800225 
L 152.462908 127.82847 
L 150.598711 128.810303 
L 148.734513 129.7055 
L 146.870316 130.49196 
L 145.006119 131.162776 
L 143.141922 131.72178 
L 141.277725 132.18244 
L 139.413528 132.564485 
L 137.549331 132.891345 
L 135.685134 133.187066 
L 133.820937 133.465044 
L 131.95674 133.717982 
L 130.092543 133.928219 
L 128.228346 134.091278 
L 126.364149 134.222718 
L 124.499952 134.34025 
L 122.635755 134.44641 
L 120.771557 134.531873 
L 118.90736 134.590276 
L 117.043163 134.626313 
L 115.178966 134.652019 
L 113.314769 134.677511 
L 111.450572 134.704861 
L 109.586375 134.730293 
L 107.722178 134.750783 
L 105.857981 134.766697 
L 103.993784 134.779905 
L 102.129587 134.793007 
L 100.26539 134.809663 
L 98.401193 134.832026 
L 96.536996 134.857563 
L 94.672799 134.880876 
L 92.808602 134.898918 
L 90.944404 134.912557 
L 89.080207 134.92307 
L 87.21601 134.929436 
L 85.351813 134.930258 
L 83.487616 134.927083 
L 81.623419 134.92432 
L 79.759222 134.925639 
L 77.895025 134.930973 
L 76.030828 134.937361 
L 74.166631 134.942342 
L 72.302434 134.946013 
L 70.438237 134.950069 
L 68.57404 134.9557 
L 66.709843 134.962722 
L 64.845646 134.970212 
L 62.981449 134.977312 
L 61.117251 134.983224 
L 59.253054 134.986801 
L 57.388857 134.986859 
L 55.52466 134.983391 
L 53.660463 134.978438 
L 51.796266 134.975277 
L 49.932069 134.976262 
L 48.067872 134.981204 
L 46.203675 134.987791 
L 44.339478 134.993477 
L 42.475281 134.996949 
L 40.611084 134.998127 
L 38.746887 134.997335 
L 36.88269 134.994845 
L 35.018493 134.991126 
L 33.154295 134.987136 
L 31.290098 134.984001 
L 29.425901 134.982331 
L 27.561704 134.981917 
L 25.697507 134.982016 
L 23.83331 134.981809 
L 21.969113 134.980774 
L 20.104916 134.979115 
L 18.240719 134.978013 
L 16.376522 134.97879 
L 14.512325 134.981433 
L 12.648128 134.984531 
L 10.783931 134.987005 
L 8.919734 134.989167 
L 7.055537 134.991757 
L 5.19134 134.994693 
L 3.327142 134.997226 
L 1.462945 134.998843 
L -0.401252 134.999618 
L -2.265449 134.9999 
z
" clip-path="url(#pc333e47aa4)" style="fill: #3d9eb0; fill-opacity: 0.08; stroke: #3d9eb0; stroke-width: 2.5"/>
   </g>
   <g id="patch_3">
    <path d="M 72 135 
L 72 18 
" style="fill: none; stroke: #262626; stroke-width: 1.25; stroke-linejoin: miter; stroke-linecap: square"/>
   </g>
   <g id="patch_4">
    <path d="M 342 135 
L 342 18 
" style="fill: none; stroke: #262626; stroke-width: 1.25; stroke-linejoin: miter; stroke-linecap: square"/>
   </g>
   <g id="patch_5">
    <path d="M 72 135 
L 342 135 
" style="fill: none; stroke: #262626; stroke-width: 1.25; stroke-linejoin: miter; stroke-linecap: square"/>
   </g>
   <g id="patch_6">
    <path d="M 72 18 
L 342 18 
" style="fill: none; stroke: #262626; stroke-width: 1.25; stroke-linejoin: miter; stroke-linecap: square"/>
   </g>
   <g id="text_12">
    <!-- NIL RIDD none -->
    <g style="fill: #262626" transform="translate(166.542188 12) scale(0.12 -0.12)">
     <defs>
      <path id="ArialMT-49" d="M 597 0 
L 597 4581 
L 1203 4581 
L 1203 0 
L 597 0 
z
" transform="scale(0.015625)"/>
      <path id="ArialMT-4c" d="M 469 0 
L 469 4581 
L 1075 4581 
L 1075 541 
L 3331 541 
L 3331 0 
L 469 0 
z
" transform="scale(0.015625)"/>
      <path id="ArialMT-20" transform="scale(0.015625)"/>
      <path id="ArialMT-52" d="M 503 0 
L 503 4581 
L 2534 4581 
Q 3147 4581 3465 4457 
Q 3784 4334 3975 4021 
Q 4166 3709 4166 3331 
Q 4166 2844 3850 2509 
Q 3534 2175 2875 2084 
Q 3116 1969 3241 1856 
Q 3506 1613 3744 1247 
L 4541 0 
L 3778 0 
L 3172 953 
Q 2906 1366 2734 1584 
Q 2563 1803 2427 1890 
Q 2291 1978 2150 2013 
Q 2047 2034 1813 2034 
L 1109 2034 
L 1109 0 
L 503 0 
z
M 1109 2559 
L 2413 2559 
Q 2828 2559 3062 2645 
Q 3297 2731 3419 2920 
Q 3541 3109 3541 3331 
Q 3541 3656 3305 3865 
Q 3069 4075 2559 4075 
L 1109 4075 
L 1109 2559 
z
" transform="scale(0.015625)"/>
      <path id="ArialMT-6f" d="M 213 1659 
Q 213 2581 725 3025 
Q 1153 3394 1769 3394 
Q 2453 3394 2887 2945 
Q 3322 2497 3322 1706 
Q 3322 1066 3130 698 
Q 2938 331 2570 128 
Q 2203 -75 1769 -75 
Q 1072 -75 642 372 
Q 213 819 213 1659 
z
M 791 1659 
Q 791 1022 1069 705 
Q 1347 388 1769 388 
Q 2188 388 2466 706 
Q 2744 1025 2744 1678 
Q 2744 2294 2464 2611 
Q 2184 2928 1769 2928 
Q 1347 2928 1069 2612 
Q 791 2297 791 1659 
z
" transform="scale(0.015625)"/>
     </defs>
     <use xlink:href="#ArialMT-4e"/>
     <use xlink:href="#ArialMT-49" transform="translate(72.216797 0)"/>
     <use xlink:href="#ArialMT-4c" transform="translate(100 0)"/>
     <use xlink:href="#ArialMT-20" transform="translate(151.865234 0)"/>
     <use xlink:href="#ArialMT-52" transform="translate(179.648438 0)"/>
     <use xlink:href="#ArialMT-49" transform="translate(251.865234 0)"/>
     <use xlink:href="#ArialMT-44" transform="translate(279.648438 0)"/>
     <use xlink:href="#ArialMT-44" transform="translate(351.865234 0)"/>
     <use xlink:href="#ArialMT-20" transform="translate(424.082031 0)"/>
     <use xlink:href="#ArialMT-6e" transform="translate(451.865234 0)"/>
     <use xlink:href="#ArialMT-6f" transform="translate(507.480469 0)"/>
     <use xlink:href="#ArialMT-6e" transform="translate(563.095703 0)"/>
     <use xlink:href="#ArialMT-65" transform="translate(618.710938 0)"/>
    </g>
   </g>
   <g id="legend_1">
    <g id="patch_7">
     <path d="M 359.9 30.407656 
L 381.9 30.407656 
L 381.9 22.707656 
L 359.9 22.707656 
z
" style="fill: #bbbbbb; fill-opacity: 0.08; stroke: #bbbbbb; stroke-width: 2.5; stroke-linejoin: miter"/>
    </g>
    <g id="text_13">
     <!-- Secondary -->
     <g style="fill: #262626" transform="translate(390.7 30.407656) scale(0.11 -0.11)">
      <defs>
       <path id="ArialMT-53" d="M 288 1472 
L 859 1522 
Q 900 1178 1048 958 
Q 1197 738 1509 602 
Q 1822 466 2213 466 
Q 2559 466 2825 569 
Q 3091 672 3220 851 
Q 3350 1031 3350 1244 
Q 3350 1459 3225 1620 
Q 3100 1781 2813 1891 
Q 2628 1963 1997 2114 
Q 1366 2266 1113 2400 
Q 784 2572 623 2826 
Q 463 3081 463 3397 
Q 463 3744 659 4045 
Q 856 4347 1234 4503 
Q 1613 4659 2075 4659 
Q 2584 4659 2973 4495 
Q 3363 4331 3572 4012 
Q 3781 3694 3797 3291 
L 3216 3247 
Q 3169 3681 2898 3903 
Q 2628 4125 2100 4125 
Q 1550 4125 1298 3923 
Q 1047 3722 1047 3438 
Q 1047 3191 1225 3031 
Q 1400 2872 2139 2705 
Q 2878 2538 3153 2413 
Q 3553 2228 3743 1945 
Q 3934 1663 3934 1294 
Q 3934 928 3725 604 
Q 3516 281 3123 101 
Q 2731 -78 2241 -78 
Q 1619 -78 1198 103 
Q 778 284 539 648 
Q 300 1013 288 1472 
z
" transform="scale(0.015625)"/>
       <path id="ArialMT-63" d="M 2588 1216 
L 3141 1144 
Q 3050 572 2676 248 
Q 2303 -75 1759 -75 
Q 1078 -75 664 370 
Q 250 816 250 1647 
Q 250 2184 428 2587 
Q 606 2991 970 3192 
Q 1334 3394 1763 3394 
Q 2303 3394 2647 3120 
Q 2991 2847 3088 2344 
L 2541 2259 
Q 2463 2594 2264 2762 
Q 2066 2931 1784 2931 
Q 1359 2931 1093 2626 
Q 828 2322 828 1663 
Q 828 994 1084 691 
Q 1341 388 1753 388 
Q 2084 388 2306 591 
Q 2528 794 2588 1216 
z
" transform="scale(0.015625)"/>
       <path id="ArialMT-64" d="M 2575 0 
L 2575 419 
Q 2259 -75 1647 -75 
Q 1250 -75 917 144 
Q 584 363 401 755 
Q 219 1147 219 1656 
Q 219 2153 384 2558 
Q 550 2963 881 3178 
Q 1213 3394 1622 3394 
Q 1922 3394 2156 3267 
Q 2391 3141 2538 2938 
L 2538 4581 
L 3097 4581 
L 3097 0 
L 2575 0 
z
M 797 1656 
Q 797 1019 1065 703 
Q 1334 388 1700 388 
Q 2069 388 2326 689 
Q 2584 991 2584 1609 
Q 2584 2291 2321 2609 
Q 2059 2928 1675 2928 
Q 1300 2928 1048 2622 
Q 797 2316 797 1656 
z
" transform="scale(0.015625)"/>
       <path id="ArialMT-61" d="M 2588 409 
Q 2275 144 1986 34 
Q 1697 -75 1366 -75 
Q 819 -75 525 192 
Q 231 459 231 875 
Q 231 1119 342 1320 
Q 453 1522 633 1644 
Q 813 1766 1038 1828 
Q 1203 1872 1538 1913 
Q 2219 1994 2541 2106 
Q 2544 2222 2544 2253 
Q 2544 2597 2384 2738 
Q 2169 2928 1744 2928 
Q 1347 2928 1158 2789 
Q 969 2650 878 2297 
L 328 2372 
Q 403 2725 575 2942 
Q 747 3159 1072 3276 
Q 1397 3394 1825 3394 
Q 2250 3394 2515 3294 
Q 2781 3194 2906 3042 
Q 3031 2891 3081 2659 
Q 3109 2516 3109 2141 
L 3109 1391 
Q 3109 606 3145 398 
Q 3181 191 3288 0 
L 2700 0 
Q 2613 175 2588 409 
z
M 2541 1666 
Q 2234 1541 1622 1453 
Q 1275 1403 1131 1340 
Q 988 1278 909 1158 
Q 831 1038 831 891 
Q 831 666 1001 516 
Q 1172 366 1500 366 
Q 1825 366 2078 508 
Q 2331 650 2450 897 
Q 2541 1088 2541 1459 
L 2541 1666 
z
" transform="scale(0.015625)"/>
       <path id="ArialMT-72" d="M 416 0 
L 416 3319 
L 922 3319 
L 922 2816 
Q 1116 3169 1280 3281 
Q 1444 3394 1641 3394 
Q 1925 3394 2219 3213 
L 2025 2691 
Q 1819 2813 1613 2813 
Q 1428 2813 1281 2702 
Q 1134 2591 1072 2394 
Q 978 2094 978 1738 
L 978 0 
L 416 0 
z
" transform="scale(0.015625)"/>
      </defs>
      <use xlink:href="#ArialMT-53"/>
      <use xlink:href="#ArialMT-65" transform="translate(66.699219 0)"/>
      <use xlink:href="#ArialMT-63" transform="translate(122.314453 0)"/>
      <use xlink:href="#ArialMT-6f" transform="translate(172.314453 0)"/>
      <use xlink:href="#ArialMT-6e" transform="translate(227.929688 0)"/>
      <use xlink:href="#ArialMT-64" transform="translate(283.544922 0)"/>
      <use xlink:href="#ArialMT-61" transform="translate(339.160156 0)"/>
      <use xlink:href="#ArialMT-72" transform="translate(394.775391 0)"/>
      <use xlink:href="#ArialMT-79" transform="translate(428.076172 0)"/>
     </g>
    </g>
    <g id="patch_8">
     <path d="M 359.9 46.096406 
L 381.9 46.096406 
L 381.9 38.396406 
L 359.9 38.396406 
z
" style="fill: #ea7676; fill-opacity: 0.08; stroke: #ea7676; stroke-width: 2.5; stroke-linejoin: miter"/>
    </g>
    <g id="text_14">
     <!-- WT -->
     <g style="fill: #262626" transform="translate(390.7 46.096406) scale(0.11 -0.11)">
      <defs>
       <path id="ArialMT-57" d="M 1294 0 
L 78 4581 
L 700 4581 
L 1397 1578 
Q 1509 1106 1591 641 
Q 1766 1375 1797 1488 
L 2669 4581 
L 3400 4581 
L 4056 2263 
Q 4303 1400 4413 641 
Q 4500 1075 4641 1638 
L 5359 4581 
L 5969 4581 
L 4713 0 
L 4128 0 
L 3163 3491 
Q 3041 3928 3019 4028 
Q 2947 3713 2884 3491 
L 1913 0 
L 1294 0 
z
" transform="scale(0.015625)"/>
       <path id="ArialMT-54" d="M 1659 0 
L 1659 4041 
L 150 4041 
L 150 4581 
L 3781 4581 
L 3781 4041 
L 2266 4041 
L 2266 0 
L 1659 0 
z
" transform="scale(0.015625)"/>
      </defs>
      <use xlink:href="#ArialMT-57"/>
      <use xlink:href="#ArialMT-54" transform="translate(94.384766 0)"/>
     </g>
    </g>
    <g id="patch_9">
     <path d="M 359.9 61.65625 
L 381.9 61.65625 
L 381.9 53.95625 
L 359.9 53.95625 
z
" style="fill: #3d9eb0; fill-opacity: 0.08; stroke: #3d9eb0; stroke-width: 2.5; stroke-linejoin: miter"/>
    </g>
    <g id="text_15">
     <!-- 9SA -->
     <g style="fill: #262626" transform="translate(390.7 61.65625) scale(0.11 -0.11)">
      <defs>
       <path id="ArialMT-39" d="M 350 1059 
L 891 1109 
Q 959 728 1153 556 
Q 1347 384 1650 384 
Q 1909 384 2104 503 
Q 2300 622 2425 820 
Q 2550 1019 2634 1356 
Q 2719 1694 2719 2044 
Q 2719 2081 2716 2156 
Q 2547 1888 2255 1720 
Q 1963 1553 1622 1553 
Q 1053 1553 659 1965 
Q 266 2378 266 3053 
Q 266 3750 677 4175 
Q 1088 4600 1706 4600 
Q 2153 4600 2523 4359 
Q 2894 4119 3086 3673 
Q 3278 3228 3278 2384 
Q 3278 1506 3087 986 
Q 2897 466 2520 194 
Q 2144 -78 1638 -78 
Q 1100 -78 759 220 
Q 419 519 350 1059 
z
M 2653 3081 
Q 2653 3566 2395 3850 
Q 2138 4134 1775 4134 
Q 1400 4134 1122 3828 
Q 844 3522 844 3034 
Q 844 2597 1108 2323 
Q 1372 2050 1759 2050 
Q 2150 2050 2401 2323 
Q 2653 2597 2653 3081 
z
" transform="scale(0.015625)"/>
      </defs>
      <use xlink:href="#ArialMT-39"/>
      <use xlink:href="#ArialMT-53" transform="translate(55.615234 0)"/>
      <use xlink:href="#ArialMT-41" transform="translate(122.314453 0)"/>
     </g>
    </g>
   </g>
  </g>
 </g>
 <defs>
  <clipPath id="pc333e47aa4">
   <rect x="72" y="18" width="270" height="117"/>
  </clipPath>
 </defs>
</svg>
