<?xml version="1.0" encoding="utf-8" standalone="no"?>
<!DOCTYPE svg PUBLIC "-//W3C//DTD SVG 1.1//EN"
  "http://www.w3.org/Graphics/SVG/1.1/DTD/svg11.dtd">
<svg xmlns:xlink="http://www.w3.org/1999/xlink" width="360pt" height="180pt" viewBox="0 0 360 180" xmlns="http://www.w3.org/2000/svg" version="1.1">
 <metadata>
  <rdf:RDF xmlns:dc="http://purl.org/dc/elements/1.1/" xmlns:cc="http://creativecommons.org/ns#" xmlns:rdf="http://www.w3.org/1999/02/22-rdf-syntax-ns#">
   <cc:Work>
    <dc:type rdf:resource="http://purl.org/dc/dcmitype/StillImage"/>
    <dc:date>2025-07-28T17:17:47.140919</dc:date>
    <dc:format>image/svg+xml</dc:format>
    <dc:creator>
     <cc:Agent>
      <dc:title>Matplotlib v3.10.3, https://matplotlib.org/</dc:title>
     </cc:Agent>
    </dc:creator>
   </cc:Work>
  </rdf:RDF>
 </metadata>
 <defs>
  <style type="text/css">*{stroke-linejoin: round; stroke-linecap: butt}</style>
 </defs>
 <g id="figure_1">
  <g id="patch_1">
   <path d="M 0 180 
L 360 180 
L 360 0 
L 0 0 
z
" style="fill: #ffffff"/>
  </g>
  <g id="axes_1">
   <g id="patch_2">
    <path d="M 72 135 
L 342 135 
L 342 18 
L 72 18 
z
" style="fill: #ffffff"/>
   </g>
   <g id="matplotlib.axis_1">
    <g id="xtick_1">
     <g id="line2d_1">
      <defs>
       <path id="mdee0b36daf" d="M 0 0 
L 0 6 
" style="stroke: #262626; stroke-width: 1.25"/>
      </defs>
      <g>
       <use xlink:href="#mdee0b36daf" x="104.824059" y="135" style="fill: #262626; stroke: #262626; stroke-width: 1.25"/>
      </g>
     </g>
     <g id="text_1">
      <!-- $\mathdefault{10^{2}}$ -->
      <g style="fill: #262626" transform="translate(96.189059 155.84375) scale(0.11 -0.11)">
       <defs>
        <path id="ArialMT-31" d="M 2384 0 
L 1822 0 
L 1822 3584 
Q 1619 3391 1289 3197 
Q 959 3003 697 2906 
L 697 3450 
Q 1169 3672 1522 3987 
Q 1875 4303 2022 4600 
L 2384 4600 
L 2384 0 
z
" transform="scale(0.015625)"/>
        <path id="ArialMT-30" d="M 266 2259 
Q 266 3072 433 3567 
Q 600 4063 929 4331 
Q 1259 4600 1759 4600 
Q 2128 4600 2406 4451 
Q 2684 4303 2865 4023 
Q 3047 3744 3150 3342 
Q 3253 2941 3253 2259 
Q 3253 1453 3087 958 
Q 2922 463 2592 192 
Q 2263 -78 1759 -78 
Q 1097 -78 719 397 
Q 266 969 266 2259 
z
M 844 2259 
Q 844 1131 1108 757 
Q 1372 384 1759 384 
Q 2147 384 2411 759 
Q 2675 1134 2675 2259 
Q 2675 3391 2411 3762 
Q 2147 4134 1753 4134 
Q 1366 4134 1134 3806 
Q 844 3388 844 2259 
z
" transform="scale(0.015625)"/>
        <path id="ArialMT-32" d="M 3222 541 
L 3222 0 
L 194 0 
Q 188 203 259 391 
Q 375 700 629 1000 
Q 884 1300 1366 1694 
Q 2113 2306 2375 2664 
Q 2638 3022 2638 3341 
Q 2638 3675 2398 3904 
Q 2159 4134 1775 4134 
Q 1369 4134 1125 3890 
Q 881 3647 878 3216 
L 300 3275 
Q 359 3922 746 4261 
Q 1134 4600 1788 4600 
Q 2447 4600 2831 4234 
Q 3216 3869 3216 3328 
Q 3216 3053 3103 2787 
Q 2991 2522 2730 2228 
Q 2469 1934 1863 1422 
Q 1356 997 1212 845 
Q 1069 694 975 541 
L 3222 541 
z
" transform="scale(0.015625)"/>
       </defs>
       <use xlink:href="#ArialMT-31" transform="translate(0 0.99375)"/>
       <use xlink:href="#ArialMT-30" transform="translate(55.615234 0.99375)"/>
       <use xlink:href="#ArialMT-32" transform="translate(112.972813 70.6875) scale(0.7)"/>
      </g>
     </g>
    </g>
    <g id="xtick_2">
     <g id="line2d_2">
      <g>
       <use xlink:href="#mdee0b36daf" x="167.59972" y="135" style="fill: #262626; stroke: #262626; stroke-width: 1.25"/>
      </g>
     </g>
     <g id="text_2">
      <!-- $\mathdefault{10^{3}}$ -->
      <g style="fill: #262626" transform="translate(158.96472 155.84375) scale(0.11 -0.11)">
       <defs>
        <path id="ArialMT-33" d="M 269 1209 
L 831 1284 
Q 928 806 1161 595 
Q 1394 384 1728 384 
Q 2125 384 2398 659 
Q 2672 934 2672 1341 
Q 2672 1728 2419 1979 
Q 2166 2231 1775 2231 
Q 1616 2231 1378 2169 
L 1441 2663 
Q 1497 2656 1531 2656 
Q 1891 2656 2178 2843 
Q 2466 3031 2466 3422 
Q 2466 3731 2256 3934 
Q 2047 4138 1716 4138 
Q 1388 4138 1169 3931 
Q 950 3725 888 3313 
L 325 3413 
Q 428 3978 793 4289 
Q 1159 4600 1703 4600 
Q 2078 4600 2393 4439 
Q 2709 4278 2876 4000 
Q 3044 3722 3044 3409 
Q 3044 3113 2884 2869 
Q 2725 2625 2413 2481 
Q 2819 2388 3044 2092 
Q 3269 1797 3269 1353 
Q 3269 753 2831 336 
Q 2394 -81 1725 -81 
Q 1122 -81 723 278 
Q 325 638 269 1209 
z
" transform="scale(0.015625)"/>
       </defs>
       <use xlink:href="#ArialMT-31" transform="translate(0 0.99375)"/>
       <use xlink:href="#ArialMT-30" transform="translate(55.615234 0.99375)"/>
       <use xlink:href="#ArialMT-33" transform="translate(112.972813 70.6875) scale(0.7)"/>
      </g>
     </g>
    </g>
    <g id="xtick_3">
     <g id="line2d_3">
      <g>
       <use xlink:href="#mdee0b36daf" x="230.37538" y="135" style="fill: #262626; stroke: #262626; stroke-width: 1.25"/>
      </g>
     </g>
     <g id="text_3">
      <!-- $\mathdefault{10^{4}}$ -->
      <g style="fill: #262626" transform="translate(221.74038 155.73375) scale(0.11 -0.11)">
       <defs>
        <path id="ArialMT-34" d="M 2069 0 
L 2069 1097 
L 81 1097 
L 81 1613 
L 2172 4581 
L 2631 4581 
L 2631 1613 
L 3250 1613 
L 3250 1097 
L 2631 1097 
L 2631 0 
L 2069 0 
z
M 2069 1613 
L 2069 3678 
L 634 1613 
L 2069 1613 
z
" transform="scale(0.015625)"/>
       </defs>
       <use xlink:href="#ArialMT-31" transform="translate(0 0.201563)"/>
       <use xlink:href="#ArialMT-30" transform="translate(55.615234 0.201563)"/>
       <use xlink:href="#ArialMT-34" transform="translate(112.972813 69.895313) scale(0.7)"/>
      </g>
     </g>
    </g>
    <g id="xtick_4">
     <g id="line2d_4">
      <g>
       <use xlink:href="#mdee0b36daf" x="293.151041" y="135" style="fill: #262626; stroke: #262626; stroke-width: 1.25"/>
      </g>
     </g>
     <g id="text_4">
      <!-- $\mathdefault{10^{5}}$ -->
      <g style="fill: #262626" transform="translate(284.516041 155.73375) scale(0.11 -0.11)">
       <defs>
        <path id="ArialMT-35" d="M 266 1200 
L 856 1250 
Q 922 819 1161 601 
Q 1400 384 1738 384 
Q 2144 384 2425 690 
Q 2706 997 2706 1503 
Q 2706 1984 2436 2262 
Q 2166 2541 1728 2541 
Q 1456 2541 1237 2417 
Q 1019 2294 894 2097 
L 366 2166 
L 809 4519 
L 3088 4519 
L 3088 3981 
L 1259 3981 
L 1013 2750 
Q 1425 3038 1878 3038 
Q 2478 3038 2890 2622 
Q 3303 2206 3303 1553 
Q 3303 931 2941 478 
Q 2500 -78 1738 -78 
Q 1113 -78 717 272 
Q 322 622 266 1200 
z
" transform="scale(0.015625)"/>
       </defs>
       <use xlink:href="#ArialMT-31" transform="translate(0 0.879688)"/>
       <use xlink:href="#ArialMT-30" transform="translate(55.615234 0.879688)"/>
       <use xlink:href="#ArialMT-35" transform="translate(112.972813 70.573438) scale(0.7)"/>
      </g>
     </g>
    </g>
    <g id="xtick_5">
     <g id="line2d_5">
      <defs>
       <path id="m76d717ed58" d="M 0 0 
L 0 4 
" style="stroke: #262626"/>
      </defs>
      <g>
       <use xlink:href="#m76d717ed58" x="72" y="135" style="fill: #262626; stroke: #262626"/>
      </g>
     </g>
    </g>
    <g id="xtick_6">
     <g id="line2d_6">
      <g>
       <use xlink:href="#m76d717ed58" x="79.843112" y="135" style="fill: #262626; stroke: #262626"/>
      </g>
     </g>
    </g>
    <g id="xtick_7">
     <g id="line2d_7">
      <g>
       <use xlink:href="#m76d717ed58" x="85.926702" y="135" style="fill: #262626; stroke: #262626"/>
      </g>
     </g>
    </g>
    <g id="xtick_8">
     <g id="line2d_8">
      <g>
       <use xlink:href="#m76d717ed58" x="90.897357" y="135" style="fill: #262626; stroke: #262626"/>
      </g>
     </g>
    </g>
    <g id="xtick_9">
     <g id="line2d_9">
      <g>
       <use xlink:href="#m76d717ed58" x="95.099986" y="135" style="fill: #262626; stroke: #262626"/>
      </g>
     </g>
    </g>
    <g id="xtick_10">
     <g id="line2d_10">
      <g>
       <use xlink:href="#m76d717ed58" x="98.740469" y="135" style="fill: #262626; stroke: #262626"/>
      </g>
     </g>
    </g>
    <g id="xtick_11">
     <g id="line2d_11">
      <g>
       <use xlink:href="#m76d717ed58" x="101.951602" y="135" style="fill: #262626; stroke: #262626"/>
      </g>
     </g>
    </g>
    <g id="xtick_12">
     <g id="line2d_12">
      <g>
       <use xlink:href="#m76d717ed58" x="123.721416" y="135" style="fill: #262626; stroke: #262626"/>
      </g>
     </g>
    </g>
    <g id="xtick_13">
     <g id="line2d_13">
      <g>
       <use xlink:href="#m76d717ed58" x="134.775661" y="135" style="fill: #262626; stroke: #262626"/>
      </g>
     </g>
    </g>
    <g id="xtick_14">
     <g id="line2d_14">
      <g>
       <use xlink:href="#m76d717ed58" x="142.618773" y="135" style="fill: #262626; stroke: #262626"/>
      </g>
     </g>
    </g>
    <g id="xtick_15">
     <g id="line2d_15">
      <g>
       <use xlink:href="#m76d717ed58" x="148.702363" y="135" style="fill: #262626; stroke: #262626"/>
      </g>
     </g>
    </g>
    <g id="xtick_16">
     <g id="line2d_16">
      <g>
       <use xlink:href="#m76d717ed58" x="153.673018" y="135" style="fill: #262626; stroke: #262626"/>
      </g>
     </g>
    </g>
    <g id="xtick_17">
     <g id="line2d_17">
      <g>
       <use xlink:href="#m76d717ed58" x="157.875647" y="135" style="fill: #262626; stroke: #262626"/>
      </g>
     </g>
    </g>
    <g id="xtick_18">
     <g id="line2d_18">
      <g>
       <use xlink:href="#m76d717ed58" x="161.516129" y="135" style="fill: #262626; stroke: #262626"/>
      </g>
     </g>
    </g>
    <g id="xtick_19">
     <g id="line2d_19">
      <g>
       <use xlink:href="#m76d717ed58" x="164.727263" y="135" style="fill: #262626; stroke: #262626"/>
      </g>
     </g>
    </g>
    <g id="xtick_20">
     <g id="line2d_20">
      <g>
       <use xlink:href="#m76d717ed58" x="186.497076" y="135" style="fill: #262626; stroke: #262626"/>
      </g>
     </g>
    </g>
    <g id="xtick_21">
     <g id="line2d_21">
      <g>
       <use xlink:href="#m76d717ed58" x="197.551322" y="135" style="fill: #262626; stroke: #262626"/>
      </g>
     </g>
    </g>
    <g id="xtick_22">
     <g id="line2d_22">
      <g>
       <use xlink:href="#m76d717ed58" x="205.394433" y="135" style="fill: #262626; stroke: #262626"/>
      </g>
     </g>
    </g>
    <g id="xtick_23">
     <g id="line2d_23">
      <g>
       <use xlink:href="#m76d717ed58" x="211.478023" y="135" style="fill: #262626; stroke: #262626"/>
      </g>
     </g>
    </g>
    <g id="xtick_24">
     <g id="line2d_24">
      <g>
       <use xlink:href="#m76d717ed58" x="216.448678" y="135" style="fill: #262626; stroke: #262626"/>
      </g>
     </g>
    </g>
    <g id="xtick_25">
     <g id="line2d_25">
      <g>
       <use xlink:href="#m76d717ed58" x="220.651307" y="135" style="fill: #262626; stroke: #262626"/>
      </g>
     </g>
    </g>
    <g id="xtick_26">
     <g id="line2d_26">
      <g>
       <use xlink:href="#m76d717ed58" x="224.29179" y="135" style="fill: #262626; stroke: #262626"/>
      </g>
     </g>
    </g>
    <g id="xtick_27">
     <g id="line2d_27">
      <g>
       <use xlink:href="#m76d717ed58" x="227.502924" y="135" style="fill: #262626; stroke: #262626"/>
      </g>
     </g>
    </g>
    <g id="xtick_28">
     <g id="line2d_28">
      <g>
       <use xlink:href="#m76d717ed58" x="249.272737" y="135" style="fill: #262626; stroke: #262626"/>
      </g>
     </g>
    </g>
    <g id="xtick_29">
     <g id="line2d_29">
      <g>
       <use xlink:href="#m76d717ed58" x="260.326982" y="135" style="fill: #262626; stroke: #262626"/>
      </g>
     </g>
    </g>
    <g id="xtick_30">
     <g id="line2d_30">
      <g>
       <use xlink:href="#m76d717ed58" x="268.170094" y="135" style="fill: #262626; stroke: #262626"/>
      </g>
     </g>
    </g>
    <g id="xtick_31">
     <g id="line2d_31">
      <g>
       <use xlink:href="#m76d717ed58" x="274.253684" y="135" style="fill: #262626; stroke: #262626"/>
      </g>
     </g>
    </g>
    <g id="xtick_32">
     <g id="line2d_32">
      <g>
       <use xlink:href="#m76d717ed58" x="279.224339" y="135" style="fill: #262626; stroke: #262626"/>
      </g>
     </g>
    </g>
    <g id="xtick_33">
     <g id="line2d_33">
      <g>
       <use xlink:href="#m76d717ed58" x="283.426968" y="135" style="fill: #262626; stroke: #262626"/>
      </g>
     </g>
    </g>
    <g id="xtick_34">
     <g id="line2d_34">
      <g>
       <use xlink:href="#m76d717ed58" x="287.067451" y="135" style="fill: #262626; stroke: #262626"/>
      </g>
     </g>
    </g>
    <g id="xtick_35">
     <g id="line2d_35">
      <g>
       <use xlink:href="#m76d717ed58" x="290.278584" y="135" style="fill: #262626; stroke: #262626"/>
      </g>
     </g>
    </g>
    <g id="xtick_36">
     <g id="line2d_36">
      <g>
       <use xlink:href="#m76d717ed58" x="312.048398" y="135" style="fill: #262626; stroke: #262626"/>
      </g>
     </g>
    </g>
    <g id="xtick_37">
     <g id="line2d_37">
      <g>
       <use xlink:href="#m76d717ed58" x="323.102643" y="135" style="fill: #262626; stroke: #262626"/>
      </g>
     </g>
    </g>
    <g id="xtick_38">
     <g id="line2d_38">
      <g>
       <use xlink:href="#m76d717ed58" x="330.945755" y="135" style="fill: #262626; stroke: #262626"/>
      </g>
     </g>
    </g>
    <g id="xtick_39">
     <g id="line2d_39">
      <g>
       <use xlink:href="#m76d717ed58" x="337.029345" y="135" style="fill: #262626; stroke: #262626"/>
      </g>
     </g>
    </g>
    <g id="xtick_40">
     <g id="line2d_40">
      <g>
       <use xlink:href="#m76d717ed58" x="342" y="135" style="fill: #262626; stroke: #262626"/>
      </g>
     </g>
    </g>
    <g id="text_5">
     <!-- Ngn2.x3HA-A -->
     <g style="fill: #262626" transform="translate(170.318438 170.655) scale(0.12 -0.12)">
      <defs>
       <path id="ArialMT-4e" d="M 488 0 
L 488 4581 
L 1109 4581 
L 3516 984 
L 3516 4581 
L 4097 4581 
L 4097 0 
L 3475 0 
L 1069 3600 
L 1069 0 
L 488 0 
z
" transform="scale(0.015625)"/>
       <path id="ArialMT-67" d="M 319 -275 
L 866 -356 
Q 900 -609 1056 -725 
Q 1266 -881 1628 -881 
Q 2019 -881 2231 -725 
Q 2444 -569 2519 -288 
Q 2563 -116 2559 434 
Q 2191 0 1641 0 
Q 956 0 581 494 
Q 206 988 206 1678 
Q 206 2153 378 2554 
Q 550 2956 876 3175 
Q 1203 3394 1644 3394 
Q 2231 3394 2613 2919 
L 2613 3319 
L 3131 3319 
L 3131 450 
Q 3131 -325 2973 -648 
Q 2816 -972 2473 -1159 
Q 2131 -1347 1631 -1347 
Q 1038 -1347 672 -1080 
Q 306 -813 319 -275 
z
M 784 1719 
Q 784 1066 1043 766 
Q 1303 466 1694 466 
Q 2081 466 2343 764 
Q 2606 1063 2606 1700 
Q 2606 2309 2336 2618 
Q 2066 2928 1684 2928 
Q 1309 2928 1046 2623 
Q 784 2319 784 1719 
z
" transform="scale(0.015625)"/>
       <path id="ArialMT-6e" d="M 422 0 
L 422 3319 
L 928 3319 
L 928 2847 
Q 1294 3394 1984 3394 
Q 2284 3394 2536 3286 
Q 2788 3178 2913 3003 
Q 3038 2828 3088 2588 
Q 3119 2431 3119 2041 
L 3119 0 
L 2556 0 
L 2556 2019 
Q 2556 2363 2490 2533 
Q 2425 2703 2258 2804 
Q 2091 2906 1866 2906 
Q 1506 2906 1245 2678 
Q 984 2450 984 1813 
L 984 0 
L 422 0 
z
" transform="scale(0.015625)"/>
       <path id="ArialMT-2e" d="M 581 0 
L 581 641 
L 1222 641 
L 1222 0 
L 581 0 
z
" transform="scale(0.015625)"/>
       <path id="ArialMT-78" d="M 47 0 
L 1259 1725 
L 138 3319 
L 841 3319 
L 1350 2541 
Q 1494 2319 1581 2169 
Q 1719 2375 1834 2534 
L 2394 3319 
L 3066 3319 
L 1919 1756 
L 3153 0 
L 2463 0 
L 1781 1031 
L 1600 1309 
L 728 0 
L 47 0 
z
" transform="scale(0.015625)"/>
       <path id="ArialMT-48" d="M 513 0 
L 513 4581 
L 1119 4581 
L 1119 2700 
L 3500 2700 
L 3500 4581 
L 4106 4581 
L 4106 0 
L 3500 0 
L 3500 2159 
L 1119 2159 
L 1119 0 
L 513 0 
z
" transform="scale(0.015625)"/>
       <path id="ArialMT-41" d="M -9 0 
L 1750 4581 
L 2403 4581 
L 4278 0 
L 3588 0 
L 3053 1388 
L 1138 1388 
L 634 0 
L -9 0 
z
M 1313 1881 
L 2866 1881 
L 2388 3150 
Q 2169 3728 2063 4100 
Q 1975 3659 1816 3225 
L 1313 1881 
z
" transform="scale(0.015625)"/>
       <path id="ArialMT-2d" d="M 203 1375 
L 203 1941 
L 1931 1941 
L 1931 1375 
L 203 1375 
z
" transform="scale(0.015625)"/>
      </defs>
      <use xlink:href="#ArialMT-4e"/>
      <use xlink:href="#ArialMT-67" transform="translate(72.216797 0)"/>
      <use xlink:href="#ArialMT-6e" transform="translate(127.832031 0)"/>
      <use xlink:href="#ArialMT-32" transform="translate(183.447266 0)"/>
      <use xlink:href="#ArialMT-2e" transform="translate(239.0625 0)"/>
      <use xlink:href="#ArialMT-78" transform="translate(266.845703 0)"/>
      <use xlink:href="#ArialMT-33" transform="translate(316.845703 0)"/>
      <use xlink:href="#ArialMT-48" transform="translate(372.460938 0)"/>
      <use xlink:href="#ArialMT-41" transform="translate(444.677734 0)"/>
      <use xlink:href="#ArialMT-2d" transform="translate(511.376953 0)"/>
      <use xlink:href="#ArialMT-41" transform="translate(544.677734 0)"/>
     </g>
    </g>
   </g>
   <g id="matplotlib.axis_2">
    <g id="ytick_1">
     <g id="line2d_41">
      <defs>
       <path id="m549e5cddb5" d="M 0 0 
L -6 0 
" style="stroke: #262626; stroke-width: 1.25"/>
      </defs>
      <g>
       <use xlink:href="#m549e5cddb5" x="72" y="135" style="fill: #262626; stroke: #262626; stroke-width: 1.25"/>
      </g>
     </g>
     <g id="text_6">
      <!-- 0.00 -->
      <g style="fill: #262626" transform="translate(41.092969 138.936797) scale(0.11 -0.11)">
       <use xlink:href="#ArialMT-30"/>
       <use xlink:href="#ArialMT-2e" transform="translate(55.615234 0)"/>
       <use xlink:href="#ArialMT-30" transform="translate(83.398438 0)"/>
       <use xlink:href="#ArialMT-30" transform="translate(139.013672 0)"/>
      </g>
     </g>
    </g>
    <g id="ytick_2">
     <g id="line2d_42">
      <g>
       <use xlink:href="#m549e5cddb5" x="72" y="110.620973" style="fill: #262626; stroke: #262626; stroke-width: 1.25"/>
      </g>
     </g>
     <g id="text_7">
      <!-- 0.25 -->
      <g style="fill: #262626" transform="translate(41.092969 114.557769) scale(0.11 -0.11)">
       <use xlink:href="#ArialMT-30"/>
       <use xlink:href="#ArialMT-2e" transform="translate(55.615234 0)"/>
       <use xlink:href="#ArialMT-32" transform="translate(83.398438 0)"/>
       <use xlink:href="#ArialMT-35" transform="translate(139.013672 0)"/>
      </g>
     </g>
    </g>
    <g id="ytick_3">
     <g id="line2d_43">
      <g>
       <use xlink:href="#m549e5cddb5" x="72" y="86.241945" style="fill: #262626; stroke: #262626; stroke-width: 1.25"/>
      </g>
     </g>
     <g id="text_8">
      <!-- 0.50 -->
      <g style="fill: #262626" transform="translate(41.092969 90.178742) scale(0.11 -0.11)">
       <use xlink:href="#ArialMT-30"/>
       <use xlink:href="#ArialMT-2e" transform="translate(55.615234 0)"/>
       <use xlink:href="#ArialMT-35" transform="translate(83.398438 0)"/>
       <use xlink:href="#ArialMT-30" transform="translate(139.013672 0)"/>
      </g>
     </g>
    </g>
    <g id="ytick_4">
     <g id="line2d_44">
      <g>
       <use xlink:href="#m549e5cddb5" x="72" y="61.862918" style="fill: #262626; stroke: #262626; stroke-width: 1.25"/>
      </g>
     </g>
     <g id="text_9">
      <!-- 0.75 -->
      <g style="fill: #262626" transform="translate(41.092969 65.799715) scale(0.11 -0.11)">
       <defs>
        <path id="ArialMT-37" d="M 303 3981 
L 303 4522 
L 3269 4522 
L 3269 4084 
Q 2831 3619 2401 2847 
Q 1972 2075 1738 1259 
Q 1569 684 1522 0 
L 944 0 
Q 953 541 1156 1306 
Q 1359 2072 1739 2783 
Q 2119 3494 2547 3981 
L 303 3981 
z
" transform="scale(0.015625)"/>
       </defs>
       <use xlink:href="#ArialMT-30"/>
       <use xlink:href="#ArialMT-2e" transform="translate(55.615234 0)"/>
       <use xlink:href="#ArialMT-37" transform="translate(83.398438 0)"/>
       <use xlink:href="#ArialMT-35" transform="translate(139.013672 0)"/>
      </g>
     </g>
    </g>
    <g id="ytick_5">
     <g id="line2d_45">
      <g>
       <use xlink:href="#m549e5cddb5" x="72" y="37.48389" style="fill: #262626; stroke: #262626; stroke-width: 1.25"/>
      </g>
     </g>
     <g id="text_10">
      <!-- 1.00 -->
      <g style="fill: #262626" transform="translate(41.092969 41.420687) scale(0.11 -0.11)">
       <use xlink:href="#ArialMT-31"/>
       <use xlink:href="#ArialMT-2e" transform="translate(55.615234 0)"/>
       <use xlink:href="#ArialMT-30" transform="translate(83.398438 0)"/>
       <use xlink:href="#ArialMT-30" transform="translate(139.013672 0)"/>
      </g>
     </g>
    </g>
    <g id="text_11">
     <!-- Density -->
     <g style="fill: #262626" transform="translate(34.567344 96.50625) rotate(-90) scale(0.12 -0.12)">
      <defs>
       <path id="ArialMT-44" d="M 494 0 
L 494 4581 
L 2072 4581 
Q 2606 4581 2888 4516 
Q 3281 4425 3559 4188 
Q 3922 3881 4101 3404 
Q 4281 2928 4281 2316 
Q 4281 1794 4159 1391 
Q 4038 988 3847 723 
Q 3656 459 3429 307 
Q 3203 156 2883 78 
Q 2563 0 2147 0 
L 494 0 
z
M 1100 541 
L 2078 541 
Q 2531 541 2789 625 
Q 3047 709 3200 863 
Q 3416 1078 3536 1442 
Q 3656 1806 3656 2325 
Q 3656 3044 3420 3430 
Q 3184 3816 2847 3947 
Q 2603 4041 2063 4041 
L 1100 4041 
L 1100 541 
z
" transform="scale(0.015625)"/>
       <path id="ArialMT-65" d="M 2694 1069 
L 3275 997 
Q 3138 488 2766 206 
Q 2394 -75 1816 -75 
Q 1088 -75 661 373 
Q 234 822 234 1631 
Q 234 2469 665 2931 
Q 1097 3394 1784 3394 
Q 2450 3394 2872 2941 
Q 3294 2488 3294 1666 
Q 3294 1616 3291 1516 
L 816 1516 
Q 847 969 1125 678 
Q 1403 388 1819 388 
Q 2128 388 2347 550 
Q 2566 713 2694 1069 
z
M 847 1978 
L 2700 1978 
Q 2663 2397 2488 2606 
Q 2219 2931 1791 2931 
Q 1403 2931 1139 2672 
Q 875 2413 847 1978 
z
" transform="scale(0.015625)"/>
       <path id="ArialMT-73" d="M 197 991 
L 753 1078 
Q 800 744 1014 566 
Q 1228 388 1613 388 
Q 2000 388 2187 545 
Q 2375 703 2375 916 
Q 2375 1106 2209 1216 
Q 2094 1291 1634 1406 
Q 1016 1563 777 1677 
Q 538 1791 414 1992 
Q 291 2194 291 2438 
Q 291 2659 392 2848 
Q 494 3038 669 3163 
Q 800 3259 1026 3326 
Q 1253 3394 1513 3394 
Q 1903 3394 2198 3281 
Q 2494 3169 2634 2976 
Q 2775 2784 2828 2463 
L 2278 2388 
Q 2241 2644 2061 2787 
Q 1881 2931 1553 2931 
Q 1166 2931 1000 2803 
Q 834 2675 834 2503 
Q 834 2394 903 2306 
Q 972 2216 1119 2156 
Q 1203 2125 1616 2013 
Q 2213 1853 2448 1751 
Q 2684 1650 2818 1456 
Q 2953 1263 2953 975 
Q 2953 694 2789 445 
Q 2625 197 2315 61 
Q 2006 -75 1616 -75 
Q 969 -75 630 194 
Q 291 463 197 991 
z
" transform="scale(0.015625)"/>
       <path id="ArialMT-69" d="M 425 3934 
L 425 4581 
L 988 4581 
L 988 3934 
L 425 3934 
z
M 425 0 
L 425 3319 
L 988 3319 
L 988 0 
L 425 0 
z
" transform="scale(0.015625)"/>
       <path id="ArialMT-74" d="M 1650 503 
L 1731 6 
Q 1494 -44 1306 -44 
Q 1000 -44 831 53 
Q 663 150 594 308 
Q 525 466 525 972 
L 525 2881 
L 113 2881 
L 113 3319 
L 525 3319 
L 525 4141 
L 1084 4478 
L 1084 3319 
L 1650 3319 
L 1650 2881 
L 1084 2881 
L 1084 941 
Q 1084 700 1114 631 
Q 1144 563 1211 522 
Q 1278 481 1403 481 
Q 1497 481 1650 503 
z
" transform="scale(0.015625)"/>
       <path id="ArialMT-79" d="M 397 -1278 
L 334 -750 
Q 519 -800 656 -800 
Q 844 -800 956 -737 
Q 1069 -675 1141 -563 
Q 1194 -478 1313 -144 
Q 1328 -97 1363 -6 
L 103 3319 
L 709 3319 
L 1400 1397 
Q 1534 1031 1641 628 
Q 1738 1016 1872 1384 
L 2581 3319 
L 3144 3319 
L 1881 -56 
Q 1678 -603 1566 -809 
Q 1416 -1088 1222 -1217 
Q 1028 -1347 759 -1347 
Q 597 -1347 397 -1278 
z
" transform="scale(0.015625)"/>
      </defs>
      <use xlink:href="#ArialMT-44"/>
      <use xlink:href="#ArialMT-65" transform="translate(72.216797 0)"/>
      <use xlink:href="#ArialMT-6e" transform="translate(127.832031 0)"/>
      <use xlink:href="#ArialMT-73" transform="translate(183.447266 0)"/>
      <use xlink:href="#ArialMT-69" transform="translate(233.447266 0)"/>
      <use xlink:href="#ArialMT-74" transform="translate(255.664062 0)"/>
      <use xlink:href="#ArialMT-79" transform="translate(283.447266 0)"/>
     </g>
    </g>
   </g>
   <g id="FillBetweenPolyCollection_1">
    <path d="M -31.665348 134.999406 
L -31.665348 135 
L -29.656185 135 
L -27.647022 135 
L -25.637859 135 
L -23.628696 135 
L -21.619533 135 
L -19.610371 135 
L -17.601208 135 
L -15.592045 135 
L -13.582882 135 
L -11.573719 135 
L -9.564556 135 
L -7.555393 135 
L -5.54623 135 
L -3.537068 135 
L -1.527905 135 
L 0.481258 135 
L 2.490421 135 
L 4.499584 135 
L 6.508747 135 
L 8.51791 135 
L 10.527073 135 
L 12.536235 135 
L 14.545398 135 
L 16.554561 135 
L 18.563724 135 
L 20.572887 135 
L 22.58205 135 
L 24.591213 135 
L 26.600376 135 
L 28.609538 135 
L 30.618701 135 
L 32.627864 135 
L 34.637027 135 
L 36.64619 135 
L 38.655353 135 
L 40.664516 135 
L 42.673678 135 
L 44.682841 135 
L 46.692004 135 
L 48.701167 135 
L 50.71033 135 
L 52.719493 135 
L 54.728656 135 
L 56.737819 135 
L 58.746981 135 
L 60.756144 135 
L 62.765307 135 
L 64.77447 135 
L 66.783633 135 
L 68.792796 135 
L 70.801959 135 
L 72.811122 135 
L 74.820284 135 
L 76.829447 135 
L 78.83861 135 
L 80.847773 135 
L 82.856936 135 
L 84.866099 135 
L 86.875262 135 
L 88.884425 135 
L 90.893587 135 
L 92.90275 135 
L 94.911913 135 
L 96.921076 135 
L 98.930239 135 
L 100.939402 135 
L 102.948565 135 
L 104.957728 135 
L 106.96689 135 
L 108.976053 135 
L 110.985216 135 
L 112.994379 135 
L 115.003542 135 
L 117.012705 135 
L 119.021868 135 
L 121.031031 135 
L 123.040193 135 
L 125.049356 135 
L 127.058519 135 
L 129.067682 135 
L 131.076845 135 
L 133.086008 135 
L 135.095171 135 
L 137.104334 135 
L 139.113496 135 
L 141.122659 135 
L 143.131822 135 
L 145.140985 135 
L 147.150148 135 
L 149.159311 135 
L 151.168474 135 
L 153.177637 135 
L 155.186799 135 
L 157.195962 135 
L 159.205125 135 
L 161.214288 135 
L 163.223451 135 
L 165.232614 135 
L 167.241777 135 
L 169.25094 135 
L 171.260102 135 
L 173.269265 135 
L 175.278428 135 
L 177.287591 135 
L 179.296754 135 
L 181.305917 135 
L 183.31508 135 
L 185.324243 135 
L 187.333405 135 
L 189.342568 135 
L 191.351731 135 
L 193.360894 135 
L 195.370057 135 
L 197.37922 135 
L 199.388383 135 
L 201.397546 135 
L 203.406708 135 
L 205.415871 135 
L 207.425034 135 
L 209.434197 135 
L 211.44336 135 
L 213.452523 135 
L 215.461686 135 
L 217.470849 135 
L 219.480011 135 
L 221.489174 135 
L 223.498337 135 
L 225.5075 135 
L 227.516663 135 
L 229.525826 135 
L 231.534989 135 
L 233.544151 135 
L 235.553314 135 
L 237.562477 135 
L 239.57164 135 
L 241.580803 135 
L 243.589966 135 
L 245.599129 135 
L 247.608292 135 
L 249.617454 135 
L 251.626617 135 
L 253.63578 135 
L 255.644943 135 
L 257.654106 135 
L 259.663269 135 
L 261.672432 135 
L 263.681595 135 
L 265.690757 135 
L 267.69992 135 
L 269.709083 135 
L 271.718246 135 
L 273.727409 135 
L 275.736572 135 
L 277.745735 135 
L 279.754898 135 
L 281.76406 135 
L 283.773223 135 
L 285.782386 135 
L 287.791549 135 
L 289.800712 135 
L 291.809875 135 
L 293.819038 135 
L 295.828201 135 
L 297.837363 135 
L 299.846526 135 
L 301.855689 135 
L 303.864852 135 
L 305.874015 135 
L 307.883178 135 
L 309.892341 135 
L 311.901504 135 
L 313.910666 135 
L 315.919829 135 
L 317.928992 135 
L 319.938155 135 
L 321.947318 135 
L 323.956481 135 
L 325.965644 135 
L 327.974807 135 
L 329.983969 135 
L 331.993132 135 
L 334.002295 135 
L 336.011458 135 
L 338.020621 135 
L 340.029784 135 
L 342.038947 135 
L 344.04811 135 
L 346.057272 135 
L 348.066435 135 
L 350.075598 135 
L 352.084761 135 
L 354.093924 135 
L 356.103087 135 
L 358.11225 135 
L 360.121413 135 
L 362.130575 135 
L 364.139738 135 
L 366.148901 135 
L 368.158064 135 
L 368.158064 134.997578 
L 368.158064 134.997578 
L 366.148901 134.989023 
L 364.139738 134.963079 
L 362.130575 134.90754 
L 360.121413 134.826572 
L 358.11225 134.753449 
L 356.103087 134.727594 
L 354.093924 134.753566 
L 352.084761 134.800639 
L 350.075598 134.843005 
L 348.066435 134.878827 
L 346.057272 134.911133 
L 344.04811 134.933363 
L 342.038947 134.940612 
L 340.029784 134.941384 
L 338.020621 134.948721 
L 336.011458 134.964952 
L 334.002295 134.98204 
L 331.993132 134.993151 
L 329.983969 134.997869 
L 327.974807 134.998441 
L 325.965644 134.995351 
L 323.956481 134.986624 
L 321.947318 134.971245 
L 319.938155 134.954353 
L 317.928992 134.946513 
L 315.919829 134.953739 
L 313.910666 134.970468 
L 311.901504 134.986085 
L 309.892341 134.99516 
L 307.883178 134.998758 
L 305.874015 134.999765 
L 303.864852 134.999967 
L 301.855689 134.999997 
L 299.846526 135 
L 297.837363 134.999999 
L 295.828201 134.999993 
L 293.819038 134.999935 
L 291.809875 134.999579 
L 289.800712 134.99799 
L 287.791549 134.992912 
L 285.782386 134.98153 
L 283.773223 134.964314 
L 281.76406 134.948207 
L 279.754898 134.940785 
L 277.745735 134.938703 
L 275.736572 134.929167 
L 273.727409 134.908501 
L 271.718246 134.892081 
L 269.709083 134.896754 
L 267.69992 134.918196 
L 265.690757 134.936483 
L 263.681595 134.941554 
L 261.672432 134.942481 
L 259.663269 134.951506 
L 257.654106 134.968523 
L 255.644943 134.984755 
L 253.63578 134.994507 
L 251.626617 134.998316 
L 249.617454 134.998385 
L 247.608292 134.994342 
L 245.599129 134.982009 
L 243.589966 134.95583 
L 241.580803 134.915972 
L 239.57164 134.875108 
L 237.562477 134.854068 
L 235.553314 134.864662 
L 233.544151 134.896374 
L 231.534989 134.92492 
L 229.525826 134.935386 
L 227.516663 134.932532 
L 225.5075 134.928075 
L 223.498337 134.926568 
L 221.489174 134.927471 
L 219.480011 134.929667 
L 217.470849 134.926238 
L 215.461686 134.905263 
L 213.452523 134.863067 
L 211.44336 134.807519 
L 209.434197 134.74338 
L 207.425034 134.663046 
L 205.415871 134.551334 
L 203.406708 134.383564 
L 201.397546 134.116874 
L 199.388383 133.705614 
L 197.37922 133.133583 
L 195.370057 132.393924 
L 193.360894 131.387207 
L 191.351731 129.832052 
L 189.342568 127.32986 
L 187.333405 123.605181 
L 185.324243 118.705452 
L 183.31508 112.904471 
L 181.305917 106.449256 
L 179.296754 99.530734 
L 177.287591 92.45723 
L 175.278428 85.65676 
L 173.269265 79.403829 
L 171.260102 73.58897 
L 169.25094 67.8541 
L 167.241777 62.001558 
L 165.232614 56.22006 
L 163.223451 50.910141 
L 161.214288 46.423532 
L 159.205125 42.983664 
L 157.195962 40.659174 
L 155.186799 39.288045 
L 153.177637 38.479635 
L 151.168474 37.768245 
L 149.159311 36.828161 
L 147.150148 35.624005 
L 145.140985 34.428811 
L 143.131822 33.727136 
L 141.122659 33.98851 
L 139.113496 35.342259 
L 137.104334 37.470113 
L 135.095171 39.944945 
L 133.086008 42.661877 
L 131.076845 45.861636 
L 129.067682 49.800098 
L 127.058519 54.497143 
L 125.049356 59.766105 
L 123.040193 65.364927 
L 121.031031 71.070203 
L 119.021868 76.698995 
L 117.012705 82.185573 
L 115.003542 87.610586 
L 112.994379 93.050489 
L 110.985216 98.403678 
L 108.976053 103.394677 
L 106.96689 107.741934 
L 104.957728 111.343819 
L 102.948565 114.314581 
L 100.939402 116.86196 
L 98.930239 119.171547 
L 96.921076 121.353708 
L 94.911913 123.383945 
L 92.90275 125.111953 
L 90.893587 126.440203 
L 88.884425 127.4724 
L 86.875262 128.40786 
L 84.866099 129.340829 
L 82.856936 130.220671 
L 80.847773 130.952179 
L 78.83861 131.488791 
L 76.829447 131.864892 
L 74.820284 132.172653 
L 72.811122 132.493842 
L 70.801959 132.841668 
L 68.792796 133.177895 
L 66.783633 133.474763 
L 64.77447 133.734508 
L 62.765307 133.957486 
L 60.756144 134.123108 
L 58.746981 134.217513 
L 56.737819 134.264948 
L 54.728656 134.303207 
L 52.719493 134.336843 
L 50.71033 134.349226 
L 48.701167 134.347758 
L 46.692004 134.357754 
L 44.682841 134.382426 
L 42.673678 134.406818 
L 40.664516 134.436784 
L 38.655353 134.500632 
L 36.64619 134.606634 
L 34.637027 134.720218 
L 32.627864 134.793441 
L 30.618701 134.811606 
L 28.609538 134.804617 
L 26.600376 134.81053 
L 24.591213 134.836422 
L 22.58205 134.861948 
L 20.572887 134.869591 
L 18.563724 134.860181 
L 16.554561 134.840079 
L 14.545398 134.801675 
L 12.536235 134.737311 
L 10.527073 134.677185 
L 8.51791 134.677205 
L 6.508747 134.751264 
L 4.499584 134.849256 
L 2.490421 134.915148 
L 0.481258 134.938137 
L -1.527905 134.942542 
L -3.537068 134.95136 
L -5.54623 134.968084 
L -7.555393 134.984325 
L -9.564556 134.993869 
L -11.573719 134.996206 
L -13.582882 134.99186 
L -15.592045 134.980118 
L -17.601208 134.962957 
L -19.610371 134.94896 
L -21.619533 134.948087 
L -23.628696 134.961026 
L -25.637859 134.978403 
L -27.647022 134.991167 
L -29.656185 134.997333 
L -31.665348 134.999406 
z
" clip-path="url(#pe191c79ca0)" style="fill: #bbbbbb; fill-opacity: 0.08; stroke: #bbbbbb; stroke-width: 2.5"/>
   </g>
   <g id="FillBetweenPolyCollection_2">
    <defs>
     <path id="mddff30c8e8" d="M 55.015988 -45.000341 
L 55.015988 -45 
L 56.594969 -45 
L 58.173951 -45 
L 59.752933 -45 
L 61.331914 -45 
L 62.910896 -45 
L 64.489878 -45 
L 66.068859 -45 
L 67.647841 -45 
L 69.226823 -45 
L 70.805804 -45 
L 72.384786 -45 
L 73.963767 -45 
L 75.542749 -45 
L 77.121731 -45 
L 78.700712 -45 
L 80.279694 -45 
L 81.858676 -45 
L 83.437657 -45 
L 85.016639 -45 
L 86.595621 -45 
L 88.174602 -45 
L 89.753584 -45 
L 91.332566 -45 
L 92.911547 -45 
L 94.490529 -45 
L 96.069511 -45 
L 97.648492 -45 
L 99.227474 -45 
L 100.806456 -45 
L 102.385437 -45 
L 103.964419 -45 
L 105.5434 -45 
L 107.122382 -45 
L 108.701364 -45 
L 110.280345 -45 
L 111.859327 -45 
L 113.438309 -45 
L 115.01729 -45 
L 116.596272 -45 
L 118.175254 -45 
L 119.754235 -45 
L 121.333217 -45 
L 122.912199 -45 
L 124.49118 -45 
L 126.070162 -45 
L 127.649144 -45 
L 129.228125 -45 
L 130.807107 -45 
L 132.386089 -45 
L 133.96507 -45 
L 135.544052 -45 
L 137.123034 -45 
L 138.702015 -45 
L 140.280997 -45 
L 141.859978 -45 
L 143.43896 -45 
L 145.017942 -45 
L 146.596923 -45 
L 148.175905 -45 
L 149.754887 -45 
L 151.333868 -45 
L 152.91285 -45 
L 154.491832 -45 
L 156.070813 -45 
L 157.649795 -45 
L 159.228777 -45 
L 160.807758 -45 
L 162.38674 -45 
L 163.965722 -45 
L 165.544703 -45 
L 167.123685 -45 
L 168.702667 -45 
L 170.281648 -45 
L 171.86063 -45 
L 173.439612 -45 
L 175.018593 -45 
L 176.597575 -45 
L 178.176556 -45 
L 179.755538 -45 
L 181.33452 -45 
L 182.913501 -45 
L 184.492483 -45 
L 186.071465 -45 
L 187.650446 -45 
L 189.229428 -45 
L 190.80841 -45 
L 192.387391 -45 
L 193.966373 -45 
L 195.545355 -45 
L 197.124336 -45 
L 198.703318 -45 
L 200.2823 -45 
L 201.861281 -45 
L 203.440263 -45 
L 205.019245 -45 
L 206.598226 -45 
L 208.177208 -45 
L 209.75619 -45 
L 211.335171 -45 
L 212.914153 -45 
L 214.493134 -45 
L 216.072116 -45 
L 217.651098 -45 
L 219.230079 -45 
L 220.809061 -45 
L 222.388043 -45 
L 223.967024 -45 
L 225.546006 -45 
L 227.124988 -45 
L 228.703969 -45 
L 230.282951 -45 
L 231.861933 -45 
L 233.440914 -45 
L 235.019896 -45 
L 236.598878 -45 
L 238.177859 -45 
L 239.756841 -45 
L 241.335823 -45 
L 242.914804 -45 
L 244.493786 -45 
L 246.072767 -45 
L 247.651749 -45 
L 249.230731 -45 
L 250.809712 -45 
L 252.388694 -45 
L 253.967676 -45 
L 255.546657 -45 
L 257.125639 -45 
L 258.704621 -45 
L 260.283602 -45 
L 261.862584 -45 
L 263.441566 -45 
L 265.020547 -45 
L 266.599529 -45 
L 268.178511 -45 
L 269.757492 -45 
L 271.336474 -45 
L 272.915456 -45 
L 274.494437 -45 
L 276.073419 -45 
L 277.652401 -45 
L 279.231382 -45 
L 280.810364 -45 
L 282.389345 -45 
L 283.968327 -45 
L 285.547309 -45 
L 287.12629 -45 
L 288.705272 -45 
L 290.284254 -45 
L 291.863235 -45 
L 293.442217 -45 
L 295.021199 -45 
L 296.60018 -45 
L 298.179162 -45 
L 299.758144 -45 
L 301.337125 -45 
L 302.916107 -45 
L 304.495089 -45 
L 306.07407 -45 
L 307.653052 -45 
L 309.232034 -45 
L 310.811015 -45 
L 312.389997 -45 
L 313.968979 -45 
L 315.54796 -45 
L 317.126942 -45 
L 318.705923 -45 
L 320.284905 -45 
L 321.863887 -45 
L 323.442868 -45 
L 325.02185 -45 
L 326.600832 -45 
L 328.179813 -45 
L 329.758795 -45 
L 331.337777 -45 
L 332.916758 -45 
L 334.49574 -45 
L 336.074722 -45 
L 337.653703 -45 
L 339.232685 -45 
L 340.811667 -45 
L 342.390648 -45 
L 343.96963 -45 
L 345.548612 -45 
L 347.127593 -45 
L 348.706575 -45 
L 350.285557 -45 
L 351.864538 -45 
L 353.44352 -45 
L 355.022501 -45 
L 356.601483 -45 
L 358.180465 -45 
L 359.759446 -45 
L 361.338428 -45 
L 362.91741 -45 
L 364.496391 -45 
L 366.075373 -45 
L 367.654355 -45 
L 369.233336 -45 
L 369.233336 -45.006041 
L 369.233336 -45.006041 
L 367.654355 -45.018257 
L 366.075373 -45.047251 
L 364.496391 -45.104769 
L 362.91741 -45.199126 
L 361.338428 -45.32472 
L 359.759446 -45.455062 
L 358.180465 -45.549534 
L 356.601483 -45.574468 
L 355.022501 -45.523765 
L 353.44352 -45.421396 
L 351.864538 -45.304259 
L 350.285557 -45.201411 
L 348.706575 -45.125205 
L 347.127593 -45.075295 
L 345.548612 -45.046408 
L 343.96963 -45.032793 
L 342.390648 -45.02897 
L 340.811667 -45.029581 
L 339.232685 -45.030137 
L 337.653703 -45.028349 
L 336.074722 -45.024816 
L 334.49574 -45.022269 
L 332.916758 -45.023716 
L 331.337777 -45.03048 
L 329.758795 -45.041122 
L 328.179813 -45.051884 
L 326.600832 -45.058712 
L 325.02185 -45.059819 
L 323.442868 -45.056939 
L 321.863887 -45.054128 
L 320.284905 -45.054996 
L 318.705923 -45.060584 
L 317.126942 -45.069289 
L 315.54796 -45.078335 
L 313.968979 -45.085404 
L 312.389997 -45.08967 
L 310.811015 -45.092369 
L 309.232034 -45.096997 
L 307.653052 -45.108581 
L 306.07407 -45.131694 
L 304.495089 -45.168433 
L 302.916107 -45.218877 
L 301.337125 -45.285311 
L 299.758144 -45.377769 
L 298.179162 -45.515765 
L 296.60018 -45.723215 
L 295.021199 -46.020092 
L 293.442217 -46.419286 
L 291.863235 -46.934293 
L 290.284254 -47.593554 
L 288.705272 -48.449399 
L 287.12629 -49.57253 
L 285.547309 -51.035134 
L 283.968327 -52.894894 
L 282.389345 -55.188831 
L 280.810364 -57.93386 
L 279.231382 -61.125144 
L 277.652401 -64.733571 
L 276.073419 -68.718169 
L 274.494437 -73.060579 
L 272.915456 -77.791853 
L 271.336474 -82.962023 
L 269.757492 -88.549648 
L 268.178511 -94.389739 
L 266.599529 -100.210447 
L 265.020547 -105.771523 
L 263.441566 -110.99058 
L 261.862584 -115.949317 
L 260.283602 -120.782874 
L 258.704621 -125.552631 
L 257.125639 -130.201689 
L 255.546657 -134.611174 
L 253.967676 -138.689994 
L 252.388694 -142.4103 
L 250.809712 -145.764371 
L 249.230731 -148.705344 
L 247.651749 -151.145513 
L 246.072767 -153.003375 
L 244.493786 -154.221448 
L 242.914804 -154.720089 
L 241.335823 -154.352456 
L 239.756841 -152.943473 
L 238.177859 -150.40323 
L 236.598878 -146.817776 
L 235.019896 -142.436193 
L 233.440914 -137.56326 
L 231.861933 -132.436423 
L 230.282951 -127.164386 
L 228.703969 -121.753325 
L 227.124988 -116.191161 
L 225.546006 -110.530688 
L 223.967024 -104.919057 
L 222.388043 -99.558855 
L 220.809061 -94.633538 
L 219.230079 -90.252205 
L 217.651098 -86.445256 
L 216.072116 -83.196838 
L 214.493134 -80.478012 
L 212.914153 -78.258595 
L 211.335171 -76.499103 
L 209.75619 -75.1367 
L 208.177208 -74.081157 
L 206.598226 -73.229572 
L 205.019245 -72.493465 
L 203.440263 -71.821973 
L 201.861281 -71.209398 
L 200.2823 -70.685327 
L 198.703318 -70.290479 
L 197.124336 -70.04548 
L 195.545355 -69.927818 
L 193.966373 -69.873703 
L 192.387391 -69.805985 
L 190.80841 -69.667721 
L 189.229428 -69.437029 
L 187.650446 -69.117965 
L 186.071465 -68.723239 
L 184.492483 -68.265153 
L 182.913501 -67.755538 
L 181.33452 -67.206189 
L 179.755538 -66.626265 
L 178.176556 -66.017817 
L 176.597575 -65.369013 
L 175.018593 -64.648529 
L 173.439612 -63.813073 
L 171.86063 -62.832814 
L 170.281648 -61.716381 
L 168.702667 -60.509819 
L 167.123685 -59.268359 
L 165.544703 -58.028153 
L 163.965722 -56.802501 
L 162.38674 -55.59855 
L 160.807758 -54.431823 
L 159.228777 -53.326414 
L 157.649795 -52.308674 
L 156.070813 -51.404045 
L 154.491832 -50.633123 
L 152.91285 -50.000064 
L 151.333868 -49.481317 
L 149.754887 -49.031924 
L 148.175905 -48.611807 
L 146.596923 -48.210767 
L 145.017942 -47.848212 
L 143.43896 -47.547509 
L 141.859978 -47.309191 
L 140.280997 -47.106473 
L 138.702015 -46.903744 
L 137.123034 -46.679431 
L 135.544052 -46.435678 
L 133.96507 -46.192101 
L 132.386089 -45.97218 
L 130.807107 -45.791563 
L 129.228125 -45.652726 
L 127.649144 -45.546892 
L 126.070162 -45.461805 
L 124.49118 -45.390901 
L 122.912199 -45.337304 
L 121.333217 -45.308905 
L 119.754235 -45.30796 
L 118.175254 -45.324035 
L 116.596272 -45.336941 
L 115.01729 -45.327964 
L 113.438309 -45.290719 
L 111.859327 -45.233611 
L 110.280345 -45.173144 
L 108.701364 -45.124203 
L 107.122382 -45.09412 
L 105.5434 -45.082415 
L 103.964419 -45.08349 
L 102.385437 -45.089326 
L 100.806456 -45.091916 
L 99.227474 -45.086017 
L 97.648492 -45.07122 
L 96.069511 -45.051563 
L 94.490529 -45.032692 
L 92.911547 -45.018821 
L 91.332566 -45.011523 
L 89.753584 -45.010337 
L 88.174602 -45.013763 
L 86.595621 -45.019682 
L 85.016639 -45.02547 
L 83.437657 -45.028596 
L 81.858676 -45.027764 
L 80.279694 -45.023751 
L 78.700712 -45.019117 
L 77.121731 -45.016931 
L 75.542749 -45.01933 
L 73.963767 -45.026587 
L 72.384786 -45.036871 
L 70.805804 -45.046762 
L 69.226823 -45.052553 
L 67.647841 -45.051898 
L 66.068859 -45.044922 
L 64.489878 -45.034025 
L 62.910896 -45.022503 
L 61.331914 -45.012964 
L 59.752933 -45.006488 
L 58.173951 -45.002813 
L 56.594969 -45.001054 
L 55.015988 -45.000341 
z
" style="stroke: #707070; stroke-width: 2.5"/>
    </defs>
    <g clip-path="url(#pe191c79ca0)">
     <use xlink:href="#mddff30c8e8" x="0" y="180" style="fill: #707070; fill-opacity: 0.08; stroke: #707070; stroke-width: 2.5"/>
    </g>
   </g>
   <g id="FillBetweenPolyCollection_3">
    <path d="M -10.869234 134.999865 
L -10.869234 135 
L -8.974116 135 
L -7.078997 135 
L -5.183879 135 
L -3.288761 135 
L -1.393643 135 
L 0.501476 135 
L 2.396594 135 
L 4.291712 135 
L 6.186831 135 
L 8.081949 135 
L 9.977067 135 
L 11.872186 135 
L 13.767304 135 
L 15.662422 135 
L 17.55754 135 
L 19.452659 135 
L 21.347777 135 
L 23.242895 135 
L 25.138014 135 
L 27.033132 135 
L 28.92825 135 
L 30.823368 135 
L 32.718487 135 
L 34.613605 135 
L 36.508723 135 
L 38.403842 135 
L 40.29896 135 
L 42.194078 135 
L 44.089197 135 
L 45.984315 135 
L 47.879433 135 
L 49.774551 135 
L 51.66967 135 
L 53.564788 135 
L 55.459906 135 
L 57.355025 135 
L 59.250143 135 
L 61.145261 135 
L 63.04038 135 
L 64.935498 135 
L 66.830616 135 
L 68.725734 135 
L 70.620853 135 
L 72.515971 135 
L 74.411089 135 
L 76.306208 135 
L 78.201326 135 
L 80.096444 135 
L 81.991563 135 
L 83.886681 135 
L 85.781799 135 
L 87.676917 135 
L 89.572036 135 
L 91.467154 135 
L 93.362272 135 
L 95.257391 135 
L 97.152509 135 
L 99.047627 135 
L 100.942745 135 
L 102.837864 135 
L 104.732982 135 
L 106.6281 135 
L 108.523219 135 
L 110.418337 135 
L 112.313455 135 
L 114.208574 135 
L 116.103692 135 
L 117.99881 135 
L 119.893928 135 
L 121.789047 135 
L 123.684165 135 
L 125.579283 135 
L 127.474402 135 
L 129.36952 135 
L 131.264638 135 
L 133.159757 135 
L 135.054875 135 
L 136.949993 135 
L 138.845111 135 
L 140.74023 135 
L 142.635348 135 
L 144.530466 135 
L 146.425585 135 
L 148.320703 135 
L 150.215821 135 
L 152.11094 135 
L 154.006058 135 
L 155.901176 135 
L 157.796294 135 
L 159.691413 135 
L 161.586531 135 
L 163.481649 135 
L 165.376768 135 
L 167.271886 135 
L 169.167004 135 
L 171.062123 135 
L 172.957241 135 
L 174.852359 135 
L 176.747477 135 
L 178.642596 135 
L 180.537714 135 
L 182.432832 135 
L 184.327951 135 
L 186.223069 135 
L 188.118187 135 
L 190.013305 135 
L 191.908424 135 
L 193.803542 135 
L 195.69866 135 
L 197.593779 135 
L 199.488897 135 
L 201.384015 135 
L 203.279134 135 
L 205.174252 135 
L 207.06937 135 
L 208.964488 135 
L 210.859607 135 
L 212.754725 135 
L 214.649843 135 
L 216.544962 135 
L 218.44008 135 
L 220.335198 135 
L 222.230317 135 
L 224.125435 135 
L 226.020553 135 
L 227.915671 135 
L 229.81079 135 
L 231.705908 135 
L 233.601026 135 
L 235.496145 135 
L 237.391263 135 
L 239.286381 135 
L 241.1815 135 
L 243.076618 135 
L 244.971736 135 
L 246.866854 135 
L 248.761973 135 
L 250.657091 135 
L 252.552209 135 
L 254.447328 135 
L 256.342446 135 
L 258.237564 135 
L 260.132682 135 
L 262.027801 135 
L 263.922919 135 
L 265.818037 135 
L 267.713156 135 
L 269.608274 135 
L 271.503392 135 
L 273.398511 135 
L 275.293629 135 
L 277.188747 135 
L 279.083865 135 
L 280.978984 135 
L 282.874102 135 
L 284.76922 135 
L 286.664339 135 
L 288.559457 135 
L 290.454575 135 
L 292.349694 135 
L 294.244812 135 
L 296.13993 135 
L 298.035048 135 
L 299.930167 135 
L 301.825285 135 
L 303.720403 135 
L 305.615522 135 
L 307.51064 135 
L 309.405758 135 
L 311.300877 135 
L 313.195995 135 
L 315.091113 135 
L 316.986231 135 
L 318.88135 135 
L 320.776468 135 
L 322.671586 135 
L 324.566705 135 
L 326.461823 135 
L 328.356941 135 
L 330.25206 135 
L 332.147178 135 
L 334.042296 135 
L 335.937414 135 
L 337.832533 135 
L 339.727651 135 
L 341.622769 135 
L 343.517888 135 
L 345.413006 135 
L 347.308124 135 
L 349.203242 135 
L 351.098361 135 
L 352.993479 135 
L 354.888597 135 
L 356.783716 135 
L 358.678834 135 
L 360.573952 135 
L 362.469071 135 
L 364.364189 135 
L 366.259307 135 
L 366.259307 134.993089 
L 366.259307 134.993089 
L 364.364189 134.962561 
L 362.469071 134.863377 
L 360.573952 134.663921 
L 358.678834 134.441913 
L 356.783716 134.372337 
L 354.888597 134.518341 
L 352.993479 134.743488 
L 351.098361 134.901119 
L 349.203242 134.967974 
L 347.308124 134.98482 
L 345.413006 134.984734 
L 343.517888 134.982092 
L 341.622769 134.980292 
L 339.727651 134.978326 
L 337.832533 134.974606 
L 335.937414 134.968695 
L 334.042296 134.962174 
L 332.147178 134.957045 
L 330.25206 134.955145 
L 328.356941 134.957809 
L 326.461823 134.961805 
L 324.566705 134.960221 
L 322.671586 134.950545 
L 320.776468 134.937461 
L 318.88135 134.926733 
L 316.986231 134.920369 
L 315.091113 134.917569 
L 313.195995 134.913796 
L 311.300877 134.903437 
L 309.405758 134.888958 
L 307.51064 134.873251 
L 305.615522 134.84043 
L 303.720403 134.761271 
L 301.825285 134.614029 
L 299.930167 134.385368 
L 298.035048 134.057288 
L 296.13993 133.603357 
L 294.244812 132.984883 
L 292.349694 132.13343 
L 290.454575 130.95684 
L 288.559457 129.383397 
L 286.664339 127.396886 
L 284.76922 125.045625 
L 282.874102 122.408339 
L 280.978984 119.541869 
L 279.083865 116.476784 
L 277.188747 113.191407 
L 275.293629 109.57499 
L 273.398511 105.53624 
L 271.503392 101.111502 
L 269.608274 96.376193 
L 267.713156 91.395164 
L 265.818037 86.303738 
L 263.922919 81.299545 
L 262.027801 76.520861 
L 260.132682 71.974751 
L 258.237564 67.554708 
L 256.342446 63.007618 
L 254.447328 58.183607 
L 252.552209 53.555519 
L 250.657091 49.856917 
L 248.761973 46.996614 
L 246.866854 44.022216 
L 244.971736 40.344278 
L 243.076618 36.449672 
L 241.1815 33.244433 
L 239.286381 31.263309 
L 237.391263 30.664166 
L 235.496145 31.403442 
L 233.601026 33.237756 
L 231.705908 35.922437 
L 229.81079 39.442839 
L 227.915671 43.772053 
L 226.020553 48.638872 
L 224.125435 53.795056 
L 222.230317 59.150771 
L 220.335198 64.585612 
L 218.44008 69.89729 
L 216.544962 74.920677 
L 214.649843 79.637322 
L 212.754725 84.171488 
L 210.859607 88.597944 
L 208.964488 92.732915 
L 207.06937 96.277902 
L 205.174252 99.188745 
L 203.279134 101.732705 
L 201.384015 104.189167 
L 199.488897 106.579489 
L 197.593779 108.709947 
L 195.69866 110.46724 
L 193.803542 111.976741 
L 191.908424 113.394765 
L 190.013305 114.66155 
L 188.118187 115.608886 
L 186.223069 116.211778 
L 184.327951 116.632759 
L 182.432832 117.095111 
L 180.537714 117.753106 
L 178.642596 118.642348 
L 176.747477 119.685834 
L 174.852359 120.740282 
L 172.957241 121.698791 
L 171.062123 122.604155 
L 169.167004 123.648679 
L 167.271886 124.939741 
L 165.376768 126.304198 
L 163.481649 127.485539 
L 161.586531 128.425192 
L 159.691413 129.235697 
L 157.796294 130.003041 
L 155.901176 130.692539 
L 154.006058 131.236823 
L 152.11094 131.658967 
L 150.215821 132.051374 
L 148.320703 132.452199 
L 146.425585 132.815841 
L 144.530466 133.095725 
L 142.635348 133.287727 
L 140.74023 133.430274 
L 138.845111 133.591189 
L 136.949993 133.795979 
L 135.054875 133.99158 
L 133.159757 134.123153 
L 131.264638 134.193365 
L 129.36952 134.237295 
L 127.474402 134.290286 
L 125.579283 134.372698 
L 123.684165 134.476263 
L 121.789047 134.571848 
L 119.893928 134.641603 
L 117.99881 134.691803 
L 116.103692 134.728402 
L 114.208574 134.745613 
L 112.313455 134.749924 
L 110.418337 134.763202 
L 108.523219 134.791012 
L 106.6281 134.818281 
L 104.732982 134.837334 
L 102.837864 134.855648 
L 100.942745 134.878457 
L 99.047627 134.90159 
L 97.152509 134.920531 
L 95.257391 134.933708 
L 93.362272 134.940811 
L 91.467154 134.945021 
L 89.572036 134.950443 
L 87.676917 134.956889 
L 85.781799 134.960911 
L 83.886681 134.960356 
L 81.991563 134.95709 
L 80.096444 134.953698 
L 78.201326 134.950272 
L 76.306208 134.948609 
L 74.411089 134.953125 
L 72.515971 134.963523 
L 70.620853 134.973899 
L 68.725734 134.981003 
L 66.830616 134.986764 
L 64.935498 134.992532 
L 63.04038 134.996904 
L 61.145261 134.998797 
L 59.250143 134.998315 
L 57.355025 134.995475 
L 55.459906 134.991019 
L 53.564788 134.987949 
L 51.66967 134.989108 
L 49.774551 134.99335 
L 47.879433 134.997098 
L 45.984315 134.998301 
L 44.089197 134.996623 
L 42.194078 134.992485 
L 40.29896 134.987889 
L 38.403842 134.985015 
L 36.508723 134.982462 
L 34.613605 134.977853 
L 32.718487 134.974595 
L 30.823368 134.978198 
L 28.92825 134.987042 
L 27.033132 134.994778 
L 25.138014 134.998581 
L 23.242895 134.99974 
L 21.347777 134.999964 
L 19.452659 134.999959 
L 17.55754 134.999734 
L 15.662422 134.998756 
L 13.767304 134.996087 
L 11.872186 134.991712 
L 9.977067 134.988176 
L 8.081949 134.988598 
L 6.186831 134.99231 
L 4.291712 134.995259 
L 2.396594 134.994505 
L 0.501476 134.990777 
L -1.393643 134.987909 
L -3.288761 134.989153 
L -5.183879 134.993437 
L -7.078997 134.997326 
L -8.974116 134.999267 
L -10.869234 134.999865 
z
" clip-path="url(#pe191c79ca0)" style="fill: #3333cc; fill-opacity: 0.08; stroke: #3333cc; stroke-width: 2.5"/>
   </g>
   <g id="FillBetweenPolyCollection_4">
    <path d="M -28.95205 134.999927 
L -28.95205 135 
L -26.970157 135 
L -24.988263 135 
L -23.006369 135 
L -21.024476 135 
L -19.042582 135 
L -17.060689 135 
L -15.078795 135 
L -13.096902 135 
L -11.115008 135 
L -9.133115 135 
L -7.151221 135 
L -5.169327 135 
L -3.187434 135 
L -1.20554 135 
L 0.776353 135 
L 2.758247 135 
L 4.74014 135 
L 6.722034 135 
L 8.703927 135 
L 10.685821 135 
L 12.667714 135 
L 14.649608 135 
L 16.631502 135 
L 18.613395 135 
L 20.595289 135 
L 22.577182 135 
L 24.559076 135 
L 26.540969 135 
L 28.522863 135 
L 30.504756 135 
L 32.48665 135 
L 34.468544 135 
L 36.450437 135 
L 38.432331 135 
L 40.414224 135 
L 42.396118 135 
L 44.378011 135 
L 46.359905 135 
L 48.341798 135 
L 50.323692 135 
L 52.305585 135 
L 54.287479 135 
L 56.269373 135 
L 58.251266 135 
L 60.23316 135 
L 62.215053 135 
L 64.196947 135 
L 66.17884 135 
L 68.160734 135 
L 70.142627 135 
L 72.124521 135 
L 74.106415 135 
L 76.088308 135 
L 78.070202 135 
L 80.052095 135 
L 82.033989 135 
L 84.015882 135 
L 85.997776 135 
L 87.979669 135 
L 89.961563 135 
L 91.943456 135 
L 93.92535 135 
L 95.907244 135 
L 97.889137 135 
L 99.871031 135 
L 101.852924 135 
L 103.834818 135 
L 105.816711 135 
L 107.798605 135 
L 109.780498 135 
L 111.762392 135 
L 113.744285 135 
L 115.726179 135 
L 117.708073 135 
L 119.689966 135 
L 121.67186 135 
L 123.653753 135 
L 125.635647 135 
L 127.61754 135 
L 129.599434 135 
L 131.581327 135 
L 133.563221 135 
L 135.545115 135 
L 137.527008 135 
L 139.508902 135 
L 141.490795 135 
L 143.472689 135 
L 145.454582 135 
L 147.436476 135 
L 149.418369 135 
L 151.400263 135 
L 153.382156 135 
L 155.36405 135 
L 157.345944 135 
L 159.327837 135 
L 161.309731 135 
L 163.291624 135 
L 165.273518 135 
L 167.255411 135 
L 169.237305 135 
L 171.219198 135 
L 173.201092 135 
L 175.182986 135 
L 177.164879 135 
L 179.146773 135 
L 181.128666 135 
L 183.11056 135 
L 185.092453 135 
L 187.074347 135 
L 189.05624 135 
L 191.038134 135 
L 193.020027 135 
L 195.001921 135 
L 196.983815 135 
L 198.965708 135 
L 200.947602 135 
L 202.929495 135 
L 204.911389 135 
L 206.893282 135 
L 208.875176 135 
L 210.857069 135 
L 212.838963 135 
L 214.820857 135 
L 216.80275 135 
L 218.784644 135 
L 220.766537 135 
L 222.748431 135 
L 224.730324 135 
L 226.712218 135 
L 228.694111 135 
L 230.676005 135 
L 232.657898 135 
L 234.639792 135 
L 236.621686 135 
L 238.603579 135 
L 240.585473 135 
L 242.567366 135 
L 244.54926 135 
L 246.531153 135 
L 248.513047 135 
L 250.49494 135 
L 252.476834 135 
L 254.458728 135 
L 256.440621 135 
L 258.422515 135 
L 260.404408 135 
L 262.386302 135 
L 264.368195 135 
L 266.350089 135 
L 268.331982 135 
L 270.313876 135 
L 272.295769 135 
L 274.277663 135 
L 276.259557 135 
L 278.24145 135 
L 280.223344 135 
L 282.205237 135 
L 284.187131 135 
L 286.169024 135 
L 288.150918 135 
L 290.132811 135 
L 292.114705 135 
L 294.096598 135 
L 296.078492 135 
L 298.060386 135 
L 300.042279 135 
L 302.024173 135 
L 304.006066 135 
L 305.98796 135 
L 307.969853 135 
L 309.951747 135 
L 311.93364 135 
L 313.915534 135 
L 315.897428 135 
L 317.879321 135 
L 319.861215 135 
L 321.843108 135 
L 323.825002 135 
L 325.806895 135 
L 327.788789 135 
L 329.770682 135 
L 331.752576 135 
L 333.734469 135 
L 335.716363 135 
L 337.698257 135 
L 339.68015 135 
L 341.662044 135 
L 343.643937 135 
L 345.625831 135 
L 347.607724 135 
L 349.589618 135 
L 351.571511 135 
L 353.553405 135 
L 355.535299 135 
L 357.517192 135 
L 359.499086 135 
L 361.480979 135 
L 363.462873 135 
L 365.444766 135 
L 365.444766 134.994194 
L 365.444766 134.994194 
L 363.462873 134.960856 
L 361.480979 134.84339 
L 359.499086 134.62795 
L 357.517192 134.474105 
L 355.535299 134.554325 
L 353.553405 134.765635 
L 351.571511 134.909752 
L 349.589618 134.957373 
L 347.607724 134.967405 
L 345.625831 134.972909 
L 343.643937 134.979487 
L 341.662044 134.985008 
L 339.68015 134.987206 
L 337.698257 134.985059 
L 335.716363 134.979071 
L 333.734469 134.971652 
L 331.752576 134.96625 
L 329.770682 134.96431 
L 327.788789 134.967617 
L 325.806895 134.977335 
L 323.825002 134.986439 
L 321.843108 134.987157 
L 319.861215 134.979861 
L 317.879321 134.967391 
L 315.897428 134.952517 
L 313.915534 134.93982 
L 311.93364 134.92947 
L 309.951747 134.917994 
L 307.969853 134.903311 
L 305.98796 134.881148 
L 304.006066 134.85346 
L 302.024173 134.825309 
L 300.042279 134.776781 
L 298.060386 134.68045 
L 296.078492 134.543931 
L 294.096598 134.382698 
L 292.114705 134.15752 
L 290.132811 133.778607 
L 288.150918 133.193736 
L 286.169024 132.444031 
L 284.187131 131.565381 
L 282.205237 130.44981 
L 280.223344 128.937877 
L 278.24145 127.016083 
L 276.259557 124.743633 
L 274.277663 122.134178 
L 272.295769 119.209691 
L 270.313876 115.935385 
L 268.331982 112.248164 
L 266.350089 108.23673 
L 264.368195 104.003071 
L 262.386302 99.514741 
L 260.404408 94.848052 
L 258.422515 90.186189 
L 256.440621 85.447369 
L 254.458728 80.455812 
L 252.476834 75.310566 
L 250.49494 70.275726 
L 248.513047 65.570722 
L 246.531153 61.214176 
L 244.54926 56.990132 
L 242.567366 52.734527 
L 240.585473 48.690604 
L 238.603579 45.24229 
L 236.621686 42.417081 
L 234.639792 40.187863 
L 232.657898 38.889393 
L 230.676005 38.774035 
L 228.694111 39.669656 
L 226.712218 41.294766 
L 224.730324 43.413231 
L 222.748431 45.864623 
L 220.766537 48.796052 
L 218.784644 52.383102 
L 216.80275 56.357323 
L 214.820857 60.348035 
L 212.838963 64.401986 
L 210.857069 68.615821 
L 208.875176 72.796687 
L 206.893282 76.821009 
L 204.911389 80.690668 
L 202.929495 84.30205 
L 200.947602 87.520675 
L 198.965708 90.381309 
L 196.983815 93.068189 
L 195.001921 95.652838 
L 193.020027 98.069886 
L 191.038134 100.355458 
L 189.05624 102.599417 
L 187.074347 104.819588 
L 185.092453 106.989283 
L 183.11056 109.052194 
L 181.128666 110.926533 
L 179.146773 112.539157 
L 177.164879 113.904065 
L 175.182986 115.092984 
L 173.201092 116.192817 
L 171.219198 117.355236 
L 169.237305 118.629427 
L 167.255411 119.882345 
L 165.273518 121.033142 
L 163.291624 122.115937 
L 161.309731 123.161047 
L 159.327837 124.158112 
L 157.345944 125.118172 
L 155.36405 126.091991 
L 153.382156 127.048404 
L 151.400263 127.863611 
L 149.418369 128.499793 
L 147.436476 129.055801 
L 145.454582 129.636186 
L 143.472689 130.269168 
L 141.490795 130.896215 
L 139.508902 131.446007 
L 137.527008 131.918036 
L 135.545115 132.334121 
L 133.563221 132.696357 
L 131.581327 132.99928 
L 129.599434 133.261338 
L 127.61754 133.519346 
L 125.635647 133.749853 
L 123.653753 133.896649 
L 121.67186 133.984349 
L 119.689966 134.090161 
L 117.708073 134.23093 
L 115.726179 134.366587 
L 113.744285 134.463267 
L 111.762392 134.512685 
L 109.780498 134.539115 
L 107.798605 134.58087 
L 105.816711 134.639434 
L 103.834818 134.690736 
L 101.852924 134.732151 
L 99.871031 134.767612 
L 97.889137 134.791862 
L 95.907244 134.808133 
L 93.92535 134.827013 
L 91.943456 134.852334 
L 89.961563 134.876395 
L 87.979669 134.891004 
L 85.997776 134.893749 
L 84.015882 134.888419 
L 82.033989 134.888175 
L 80.052095 134.903446 
L 78.070202 134.926481 
L 76.088308 134.941524 
L 74.106415 134.943645 
L 72.124521 134.943444 
L 70.142627 134.952564 
L 68.160734 134.968375 
L 66.17884 134.981675 
L 64.196947 134.989301 
L 62.215053 134.992692 
L 60.23316 134.992132 
L 58.251266 134.988306 
L 56.269373 134.983002 
L 54.287479 134.977712 
L 52.305585 134.97543 
L 50.323692 134.97854 
L 48.341798 134.984651 
L 46.359905 134.990468 
L 44.378011 134.995216 
L 42.396118 134.998329 
L 40.414224 134.999631 
L 38.432331 134.999934 
L 36.450437 134.9998 
L 34.468544 134.998638 
L 32.48665 134.994382 
L 30.504756 134.986061 
L 28.522863 134.978464 
L 26.540969 134.977075 
L 24.559076 134.97991 
L 22.577182 134.984516 
L 20.595289 134.990989 
L 18.613395 134.996576 
L 16.631502 134.999044 
L 14.649608 134.99896 
L 12.667714 134.99699 
L 10.685821 134.994271 
L 8.703927 134.993515 
L 6.722034 134.995646 
L 4.74014 134.998267 
L 2.758247 134.999591 
L 0.776353 134.999943 
L -1.20554 134.999995 
L -3.187434 135 
L -5.169327 135 
L -7.151221 135 
L -9.133115 134.999999 
L -11.115008 134.999986 
L -13.096902 134.999863 
L -15.078795 134.999209 
L -17.060689 134.9973 
L -19.042582 134.994533 
L -21.024476 134.993435 
L -23.006369 134.995326 
L -24.988263 134.998027 
L -26.970157 134.999506 
L -28.95205 134.999927 
z
" clip-path="url(#pe191c79ca0)" style="fill: #6495ed; fill-opacity: 0.08; stroke: #6495ed; stroke-width: 2.5"/>
   </g>
   <g id="FillBetweenPolyCollection_5">
    <path d="M -26.771576 134.999831 
L -26.771576 135 
L -24.811597 135 
L -22.851618 135 
L -20.891638 135 
L -18.931659 135 
L -16.97168 135 
L -15.011701 135 
L -13.051721 135 
L -11.091742 135 
L -9.131763 135 
L -7.171784 135 
L -5.211804 135 
L -3.251825 135 
L -1.291846 135 
L 0.668133 135 
L 2.628112 135 
L 4.588092 135 
L 6.548071 135 
L 8.50805 135 
L 10.468029 135 
L 12.428009 135 
L 14.387988 135 
L 16.347967 135 
L 18.307946 135 
L 20.267926 135 
L 22.227905 135 
L 24.187884 135 
L 26.147863 135 
L 28.107843 135 
L 30.067822 135 
L 32.027801 135 
L 33.98778 135 
L 35.94776 135 
L 37.907739 135 
L 39.867718 135 
L 41.827697 135 
L 43.787676 135 
L 45.747656 135 
L 47.707635 135 
L 49.667614 135 
L 51.627593 135 
L 53.587573 135 
L 55.547552 135 
L 57.507531 135 
L 59.46751 135 
L 61.42749 135 
L 63.387469 135 
L 65.347448 135 
L 67.307427 135 
L 69.267407 135 
L 71.227386 135 
L 73.187365 135 
L 75.147344 135 
L 77.107324 135 
L 79.067303 135 
L 81.027282 135 
L 82.987261 135 
L 84.94724 135 
L 86.90722 135 
L 88.867199 135 
L 90.827178 135 
L 92.787157 135 
L 94.747137 135 
L 96.707116 135 
L 98.667095 135 
L 100.627074 135 
L 102.587054 135 
L 104.547033 135 
L 106.507012 135 
L 108.466991 135 
L 110.426971 135 
L 112.38695 135 
L 114.346929 135 
L 116.306908 135 
L 118.266888 135 
L 120.226867 135 
L 122.186846 135 
L 124.146825 135 
L 126.106804 135 
L 128.066784 135 
L 130.026763 135 
L 131.986742 135 
L 133.946721 135 
L 135.906701 135 
L 137.86668 135 
L 139.826659 135 
L 141.786638 135 
L 143.746618 135 
L 145.706597 135 
L 147.666576 135 
L 149.626555 135 
L 151.586535 135 
L 153.546514 135 
L 155.506493 135 
L 157.466472 135 
L 159.426452 135 
L 161.386431 135 
L 163.34641 135 
L 165.306389 135 
L 167.266368 135 
L 169.226348 135 
L 171.186327 135 
L 173.146306 135 
L 175.106285 135 
L 177.066265 135 
L 179.026244 135 
L 180.986223 135 
L 182.946202 135 
L 184.906182 135 
L 186.866161 135 
L 188.82614 135 
L 190.786119 135 
L 192.746099 135 
L 194.706078 135 
L 196.666057 135 
L 198.626036 135 
L 200.586016 135 
L 202.545995 135 
L 204.505974 135 
L 206.465953 135 
L 208.425932 135 
L 210.385912 135 
L 212.345891 135 
L 214.30587 135 
L 216.265849 135 
L 218.225829 135 
L 220.185808 135 
L 222.145787 135 
L 224.105766 135 
L 226.065746 135 
L 228.025725 135 
L 229.985704 135 
L 231.945683 135 
L 233.905663 135 
L 235.865642 135 
L 237.825621 135 
L 239.7856 135 
L 241.74558 135 
L 243.705559 135 
L 245.665538 135 
L 247.625517 135 
L 249.585496 135 
L 251.545476 135 
L 253.505455 135 
L 255.465434 135 
L 257.425413 135 
L 259.385393 135 
L 261.345372 135 
L 263.305351 135 
L 265.26533 135 
L 267.22531 135 
L 269.185289 135 
L 271.145268 135 
L 273.105247 135 
L 275.065227 135 
L 277.025206 135 
L 278.985185 135 
L 280.945164 135 
L 282.905144 135 
L 284.865123 135 
L 286.825102 135 
L 288.785081 135 
L 290.745061 135 
L 292.70504 135 
L 294.665019 135 
L 296.624998 135 
L 298.584977 135 
L 300.544957 135 
L 302.504936 135 
L 304.464915 135 
L 306.424894 135 
L 308.384874 135 
L 310.344853 135 
L 312.304832 135 
L 314.264811 135 
L 316.224791 135 
L 318.18477 135 
L 320.144749 135 
L 322.104728 135 
L 324.064708 135 
L 326.024687 135 
L 327.984666 135 
L 329.944645 135 
L 331.904625 135 
L 333.864604 135 
L 335.824583 135 
L 337.784562 135 
L 339.744541 135 
L 341.704521 135 
L 343.6645 135 
L 345.624479 135 
L 347.584458 135 
L 349.544438 135 
L 351.504417 135 
L 353.464396 135 
L 355.424375 135 
L 357.384355 135 
L 359.344334 135 
L 361.304313 135 
L 363.264292 135 
L 363.264292 134.993654 
L 363.264292 134.993654 
L 361.304313 134.926703 
L 359.344334 134.670719 
L 357.384355 134.421323 
L 355.424375 134.589546 
L 353.464396 134.858441 
L 351.504417 134.95164 
L 349.544438 134.969628 
L 347.584458 134.967488 
L 345.624479 134.961442 
L 343.6645 134.96101 
L 341.704521 134.965069 
L 339.744541 134.970393 
L 337.784562 134.971746 
L 335.824583 134.968239 
L 333.864604 134.968912 
L 331.904625 134.962674 
L 329.944645 134.950629 
L 327.984666 134.950726 
L 326.024687 134.959744 
L 324.064708 134.961582 
L 322.104728 134.948151 
L 320.144749 134.939396 
L 318.18477 134.943473 
L 316.224791 134.937614 
L 314.264811 134.925727 
L 312.304832 134.933366 
L 310.344853 134.941544 
L 308.384874 134.92907 
L 306.424894 134.921941 
L 304.464915 134.929613 
L 302.504936 134.93401 
L 300.544957 134.912459 
L 298.584977 134.863933 
L 296.624998 134.813648 
L 294.665019 134.76872 
L 292.70504 134.714213 
L 290.745061 134.603042 
L 288.785081 134.438524 
L 286.825102 134.265043 
L 284.865123 134.01514 
L 282.905144 133.61717 
L 280.945164 133.076929 
L 278.985185 132.420689 
L 277.025206 131.608739 
L 275.065227 130.469201 
L 273.105247 128.869402 
L 271.145268 126.843515 
L 269.185289 124.510574 
L 267.22531 121.932528 
L 265.26533 118.845251 
L 263.305351 115.113431 
L 261.345372 110.977458 
L 259.385393 106.541551 
L 257.425413 101.743701 
L 255.465434 96.288438 
L 253.505455 90.041401 
L 251.545476 83.540693 
L 249.585496 77.277751 
L 247.625517 70.96654 
L 245.665538 64.252441 
L 243.705559 57.635462 
L 241.74558 51.454735 
L 239.7856 45.651584 
L 237.825621 40.030019 
L 235.865642 34.466522 
L 233.905663 29.837359 
L 231.945683 26.804115 
L 229.985704 25.122289 
L 228.025725 24.081923 
L 226.065746 23.571429 
L 224.105766 24.002441 
L 222.145787 25.691756 
L 220.185808 28.34874 
L 218.225829 31.800677 
L 216.265849 36.220709 
L 214.30587 41.422537 
L 212.345891 46.828815 
L 210.385912 52.367411 
L 208.425932 58.568052 
L 206.465953 65.034457 
L 204.505974 70.699034 
L 202.545995 75.783695 
L 200.586016 80.725105 
L 198.626036 85.182347 
L 196.666057 89.597578 
L 194.706078 94.321896 
L 192.746099 98.843698 
L 190.786119 102.860154 
L 188.82614 106.470903 
L 186.866161 109.585593 
L 184.906182 112.215326 
L 182.946202 114.480156 
L 180.986223 116.476422 
L 179.026244 118.22296 
L 177.066265 119.836342 
L 175.106285 121.369655 
L 173.146306 122.682167 
L 171.186327 123.752734 
L 169.226348 124.683801 
L 167.266368 125.547526 
L 165.306389 126.283189 
L 163.34641 126.83355 
L 161.386431 127.359747 
L 159.426452 127.945065 
L 157.466472 128.499956 
L 155.506493 128.95877 
L 153.546514 129.468184 
L 151.586535 130.062886 
L 149.626555 130.538974 
L 147.666576 130.864442 
L 145.706597 131.206241 
L 143.746618 131.592366 
L 141.786638 132.017434 
L 139.826659 132.374997 
L 137.86668 132.584637 
L 135.906701 132.773326 
L 133.946721 133.029719 
L 131.986742 133.258117 
L 130.026763 133.447923 
L 128.066784 133.636295 
L 126.106804 133.820863 
L 124.146825 134.014112 
L 122.186846 134.176076 
L 120.226867 134.247933 
L 118.266888 134.289509 
L 116.306908 134.353201 
L 114.346929 134.414894 
L 112.38695 134.463241 
L 110.426971 134.524873 
L 108.466991 134.580262 
L 106.507012 134.616534 
L 104.547033 134.670108 
L 102.587054 134.73876 
L 100.627074 134.781451 
L 98.667095 134.798289 
L 96.707116 134.815497 
L 94.747137 134.826176 
L 92.787157 134.842337 
L 90.827178 134.871236 
L 88.867199 134.876634 
L 86.90722 134.87729 
L 84.94724 134.887488 
L 82.987261 134.888218 
L 81.027282 134.893852 
L 79.067303 134.911668 
L 77.107324 134.919039 
L 75.147344 134.921074 
L 73.187365 134.930015 
L 71.227386 134.943481 
L 69.267407 134.952393 
L 67.307427 134.952726 
L 65.347448 134.947991 
L 63.387469 134.946138 
L 61.42749 134.949875 
L 59.46751 134.961307 
L 57.507531 134.973184 
L 55.547552 134.976528 
L 53.587573 134.978501 
L 51.627593 134.983027 
L 49.667614 134.985238 
L 47.707635 134.984373 
L 45.747656 134.978357 
L 43.787676 134.971685 
L 41.827697 134.975019 
L 39.867718 134.986706 
L 37.907739 134.990128 
L 35.94776 134.985341 
L 33.98778 134.981924 
L 32.027801 134.98148 
L 30.067822 134.984509 
L 28.107843 134.986486 
L 26.147863 134.990265 
L 24.187884 134.991612 
L 22.227905 134.992836 
L 20.267926 134.996177 
L 18.307946 134.996422 
L 16.347967 134.996362 
L 14.387988 134.997712 
L 12.428009 134.994349 
L 10.468029 134.984233 
L 8.50805 134.982112 
L 6.548071 134.992112 
L 4.588092 134.998579 
L 2.628112 134.998922 
L 0.668133 134.994697 
L -1.291846 134.988968 
L -3.251825 134.991088 
L -5.211804 134.997205 
L -7.171784 134.99966 
L -9.131763 134.999984 
L -11.091742 135 
L -13.051721 134.999989 
L -15.011701 134.999727 
L -16.97168 134.997317 
L -18.931659 134.989753 
L -20.891638 134.984807 
L -22.851618 134.991257 
L -24.811597 134.998047 
L -26.771576 134.999831 
z
" clip-path="url(#pe191c79ca0)" style="fill: #ba2182; fill-opacity: 0.08; stroke: #ba2182; stroke-width: 2.5"/>
   </g>
   <g id="FillBetweenPolyCollection_6">
    <path d="M -11.214368 134.999854 
L -11.214368 135 
L -9.315781 135 
L -7.417194 135 
L -5.518607 135 
L -3.62002 135 
L -1.721433 135 
L 0.177154 135 
L 2.075741 135 
L 3.974328 135 
L 5.872915 135 
L 7.771502 135 
L 9.670089 135 
L 11.568676 135 
L 13.467263 135 
L 15.36585 135 
L 17.264437 135 
L 19.163024 135 
L 21.061611 135 
L 22.960198 135 
L 24.858785 135 
L 26.757372 135 
L 28.655959 135 
L 30.554546 135 
L 32.453133 135 
L 34.35172 135 
L 36.250307 135 
L 38.148893 135 
L 40.04748 135 
L 41.946067 135 
L 43.844654 135 
L 45.743241 135 
L 47.641828 135 
L 49.540415 135 
L 51.439002 135 
L 53.337589 135 
L 55.236176 135 
L 57.134763 135 
L 59.03335 135 
L 60.931937 135 
L 62.830524 135 
L 64.729111 135 
L 66.627698 135 
L 68.526285 135 
L 70.424872 135 
L 72.323459 135 
L 74.222046 135 
L 76.120633 135 
L 78.01922 135 
L 79.917807 135 
L 81.816394 135 
L 83.714981 135 
L 85.613568 135 
L 87.512155 135 
L 89.410742 135 
L 91.309329 135 
L 93.207916 135 
L 95.106503 135 
L 97.00509 135 
L 98.903677 135 
L 100.802264 135 
L 102.700851 135 
L 104.599438 135 
L 106.498025 135 
L 108.396612 135 
L 110.295199 135 
L 112.193786 135 
L 114.092373 135 
L 115.99096 135 
L 117.889547 135 
L 119.788134 135 
L 121.686721 135 
L 123.585308 135 
L 125.483895 135 
L 127.382482 135 
L 129.281069 135 
L 131.179656 135 
L 133.078243 135 
L 134.976829 135 
L 136.875416 135 
L 138.774003 135 
L 140.67259 135 
L 142.571177 135 
L 144.469764 135 
L 146.368351 135 
L 148.266938 135 
L 150.165525 135 
L 152.064112 135 
L 153.962699 135 
L 155.861286 135 
L 157.759873 135 
L 159.65846 135 
L 161.557047 135 
L 163.455634 135 
L 165.354221 135 
L 167.252808 135 
L 169.151395 135 
L 171.049982 135 
L 172.948569 135 
L 174.847156 135 
L 176.745743 135 
L 178.64433 135 
L 180.542917 135 
L 182.441504 135 
L 184.340091 135 
L 186.238678 135 
L 188.137265 135 
L 190.035852 135 
L 191.934439 135 
L 193.833026 135 
L 195.731613 135 
L 197.6302 135 
L 199.528787 135 
L 201.427374 135 
L 203.325961 135 
L 205.224548 135 
L 207.123135 135 
L 209.021722 135 
L 210.920309 135 
L 212.818896 135 
L 214.717483 135 
L 216.61607 135 
L 218.514657 135 
L 220.413244 135 
L 222.311831 135 
L 224.210418 135 
L 226.109005 135 
L 228.007592 135 
L 229.906179 135 
L 231.804765 135 
L 233.703352 135 
L 235.601939 135 
L 237.500526 135 
L 239.399113 135 
L 241.2977 135 
L 243.196287 135 
L 245.094874 135 
L 246.993461 135 
L 248.892048 135 
L 250.790635 135 
L 252.689222 135 
L 254.587809 135 
L 256.486396 135 
L 258.384983 135 
L 260.28357 135 
L 262.182157 135 
L 264.080744 135 
L 265.979331 135 
L 267.877918 135 
L 269.776505 135 
L 271.675092 135 
L 273.573679 135 
L 275.472266 135 
L 277.370853 135 
L 279.26944 135 
L 281.168027 135 
L 283.066614 135 
L 284.965201 135 
L 286.863788 135 
L 288.762375 135 
L 290.660962 135 
L 292.559549 135 
L 294.458136 135 
L 296.356723 135 
L 298.25531 135 
L 300.153897 135 
L 302.052484 135 
L 303.951071 135 
L 305.849658 135 
L 307.748245 135 
L 309.646832 135 
L 311.545419 135 
L 313.444006 135 
L 315.342593 135 
L 317.24118 135 
L 319.139767 135 
L 321.038354 135 
L 322.936941 135 
L 324.835528 135 
L 326.734115 135 
L 328.632701 135 
L 330.531288 135 
L 332.429875 135 
L 334.328462 135 
L 336.227049 135 
L 338.125636 135 
L 340.024223 135 
L 341.92281 135 
L 343.821397 135 
L 345.719984 135 
L 347.618571 135 
L 349.517158 135 
L 351.415745 135 
L 353.314332 135 
L 355.212919 135 
L 357.111506 135 
L 359.010093 135 
L 360.90868 135 
L 362.807267 135 
L 364.705854 135 
L 366.604441 135 
L 366.604441 134.990957 
L 366.604441 134.990957 
L 364.705854 134.953532 
L 362.807267 134.834752 
L 360.90868 134.593187 
L 359.010093 134.306049 
L 357.111506 134.177477 
L 355.212919 134.31619 
L 353.314332 134.587259 
L 351.415745 134.795427 
L 349.517158 134.887577 
L 347.618571 134.915242 
L 345.719984 134.926147 
L 343.821397 134.935144 
L 341.92281 134.941535 
L 340.024223 134.944898 
L 338.125636 134.945792 
L 336.227049 134.939576 
L 334.328462 134.922213 
L 332.429875 134.903096 
L 330.531288 134.900471 
L 328.632701 134.920275 
L 326.734115 134.949153 
L 324.835528 134.970745 
L 322.936941 134.980531 
L 321.038354 134.984116 
L 319.139767 134.986284 
L 317.24118 134.984233 
L 315.342593 134.97143 
L 313.444006 134.946292 
L 311.545419 134.913484 
L 309.646832 134.873099 
L 307.748245 134.812401 
L 305.849658 134.712316 
L 303.951071 134.55285 
L 302.052484 134.309433 
L 300.153897 133.958029 
L 298.25531 133.481499 
L 296.356723 132.845592 
L 294.458136 131.966048 
L 292.559549 130.73142 
L 290.660962 129.074614 
L 288.762375 127.004894 
L 286.863788 124.551667 
L 284.965201 121.701314 
L 283.066614 118.459999 
L 281.168027 114.950896 
L 279.26944 111.325406 
L 277.370853 107.594795 
L 275.472266 103.633109 
L 273.573679 99.337666 
L 271.675092 94.768084 
L 269.776505 90.114031 
L 267.877918 85.587545 
L 265.979331 81.411383 
L 264.080744 77.709698 
L 262.182157 74.274729 
L 260.28357 70.672906 
L 258.384983 66.747317 
L 256.486396 62.862277 
L 254.587809 59.450827 
L 252.689222 56.48312 
L 250.790635 53.641731 
L 248.892048 50.80076 
L 246.993461 48.065697 
L 245.094874 45.478627 
L 243.196287 42.944643 
L 241.2977 40.584727 
L 239.399113 38.948307 
L 237.500526 38.554078 
L 235.601939 39.391112 
L 233.703352 41.132813 
L 231.804765 43.584181 
L 229.906179 46.693247 
L 228.007592 50.307087 
L 226.109005 54.142477 
L 224.210418 58.02587 
L 222.311831 62.037611 
L 220.413244 66.291753 
L 218.514657 70.627346 
L 216.61607 74.739228 
L 214.717483 78.586597 
L 212.818896 82.397018 
L 210.920309 86.25706 
L 209.021722 89.909154 
L 207.123135 93.015986 
L 205.224548 95.529361 
L 203.325961 97.701273 
L 201.427374 99.803173 
L 199.528787 101.963644 
L 197.6302 104.172139 
L 195.731613 106.294089 
L 193.833026 108.167677 
L 191.934439 109.786601 
L 190.035852 111.339045 
L 188.137265 112.996334 
L 186.238678 114.718605 
L 184.340091 116.358246 
L 182.441504 117.861521 
L 180.542917 119.270644 
L 178.64433 120.642944 
L 176.745743 122.019821 
L 174.847156 123.377557 
L 172.948569 124.626396 
L 171.049982 125.726651 
L 169.151395 126.751101 
L 167.252808 127.782651 
L 165.354221 128.79323 
L 163.455634 129.655113 
L 161.557047 130.270804 
L 159.65846 130.681912 
L 157.759873 131.027998 
L 155.861286 131.401974 
L 153.962699 131.782141 
L 152.064112 132.11972 
L 150.165525 132.431165 
L 148.266938 132.750957 
L 146.368351 133.05894 
L 144.469764 133.312231 
L 142.571177 133.494187 
L 140.67259 133.616584 
L 138.774003 133.717622 
L 136.875416 133.838883 
L 134.976829 133.984701 
L 133.078243 134.132334 
L 131.179656 134.274632 
L 129.281069 134.415325 
L 127.382482 134.53448 
L 125.483895 134.602543 
L 123.585308 134.624232 
L 121.686721 134.634014 
L 119.788134 134.654623 
L 117.889547 134.683864 
L 115.99096 134.713713 
L 114.092373 134.744907 
L 112.193786 134.780898 
L 110.295199 134.816967 
L 108.396612 134.845234 
L 106.498025 134.864207 
L 104.599438 134.874893 
L 102.700851 134.876088 
L 100.802264 134.869434 
L 98.903677 134.862076 
L 97.00509 134.861073 
L 95.106503 134.868157 
L 93.207916 134.882262 
L 91.309329 134.902446 
L 89.410742 134.924129 
L 87.512155 134.939792 
L 85.613568 134.945841 
L 83.714981 134.944824 
L 81.816394 134.942361 
L 79.917807 134.941557 
L 78.01922 134.940841 
L 76.120633 134.939351 
L 74.222046 134.939902 
L 72.323459 134.945532 
L 70.424872 134.956222 
L 68.526285 134.968089 
L 66.627698 134.976801 
L 64.729111 134.982422 
L 62.830524 134.987395 
L 60.931937 134.991002 
L 59.03335 134.989938 
L 57.134763 134.983521 
L 55.236176 134.976436 
L 53.337589 134.975237 
L 51.439002 134.98139 
L 49.540415 134.990048 
L 47.641828 134.996225 
L 45.743241 134.998988 
L 43.844654 134.999809 
L 41.946067 134.999975 
L 40.04748 134.999998 
L 38.148893 135 
L 36.250307 135 
L 34.35172 135 
L 32.453133 135 
L 30.554546 135 
L 28.655959 135 
L 26.757372 135 
L 24.858785 135 
L 22.960198 135 
L 21.061611 135 
L 19.163024 135 
L 17.264437 135 
L 15.36585 135 
L 13.467263 135 
L 11.568676 134.999999 
L 9.670089 134.999985 
L 7.771502 134.999882 
L 5.872915 134.999367 
L 3.974328 134.997653 
L 2.075741 134.993979 
L 0.177154 134.989315 
L -1.721433 134.986881 
L -3.62002 134.988856 
L -5.518607 134.99345 
L -7.417194 134.997337 
L -9.315781 134.999251 
L -11.214368 134.999854 
z
" clip-path="url(#pe191c79ca0)" style="fill: #cf8eb6; fill-opacity: 0.08; stroke: #cf8eb6; stroke-width: 2.5"/>
   </g>
   <g id="patch_3">
    <path d="M 72 135 
L 72 18 
" style="fill: none; stroke: #262626; stroke-width: 1.25; stroke-linejoin: miter; stroke-linecap: square"/>
   </g>
   <g id="patch_4">
    <path d="M 342 135 
L 342 18 
" style="fill: none; stroke: #262626; stroke-width: 1.25; stroke-linejoin: miter; stroke-linecap: square"/>
   </g>
   <g id="patch_5">
    <path d="M 72 135 
L 342 135 
" style="fill: none; stroke: #262626; stroke-width: 1.25; stroke-linejoin: miter; stroke-linecap: square"/>
   </g>
   <g id="patch_6">
    <path d="M 72 18 
L 342 18 
" style="fill: none; stroke: #262626; stroke-width: 1.25; stroke-linejoin: miter; stroke-linecap: square"/>
   </g>
   <g id="text_12">
    <!-- WT -->
    <g style="fill: #262626" transform="translate(197.671875 12) scale(0.12 -0.12)">
     <defs>
      <path id="ArialMT-57" d="M 1294 0 
L 78 4581 
L 700 4581 
L 1397 1578 
Q 1509 1106 1591 641 
Q 1766 1375 1797 1488 
L 2669 4581 
L 3400 4581 
L 4056 2263 
Q 4303 1400 4413 641 
Q 4500 1075 4641 1638 
L 5359 4581 
L 5969 4581 
L 4713 0 
L 4128 0 
L 3163 3491 
Q 3041 3928 3019 4028 
Q 2947 3713 2884 3491 
L 1913 0 
L 1294 0 
z
" transform="scale(0.015625)"/>
      <path id="ArialMT-54" d="M 1659 0 
L 1659 4041 
L 150 4041 
L 150 4581 
L 3781 4581 
L 3781 4041 
L 2266 4041 
L 2266 0 
L 1659 0 
z
" transform="scale(0.015625)"/>
     </defs>
     <use xlink:href="#ArialMT-57"/>
     <use xlink:href="#ArialMT-54" transform="translate(94.384766 0)"/>
    </g>
   </g>
   <g id="legend_1">
    <g id="patch_7">
     <path d="M 359.9 30.407656 
L 381.9 30.407656 
L 381.9 22.707656 
L 359.9 22.707656 
z
" style="fill: #bbbbbb; fill-opacity: 0.08; stroke: #bbbbbb; stroke-width: 2.5; stroke-linejoin: miter"/>
    </g>
    <g id="text_13">
     <!-- Secondary none -->
     <g style="fill: #262626" transform="translate(390.7 30.407656) scale(0.11 -0.11)">
      <defs>
       <path id="ArialMT-53" d="M 288 1472 
L 859 1522 
Q 900 1178 1048 958 
Q 1197 738 1509 602 
Q 1822 466 2213 466 
Q 2559 466 2825 569 
Q 3091 672 3220 851 
Q 3350 1031 3350 1244 
Q 3350 1459 3225 1620 
Q 3100 1781 2813 1891 
Q 2628 1963 1997 2114 
Q 1366 2266 1113 2400 
Q 784 2572 623 2826 
Q 463 3081 463 3397 
Q 463 3744 659 4045 
Q 856 4347 1234 4503 
Q 1613 4659 2075 4659 
Q 2584 4659 2973 4495 
Q 3363 4331 3572 4012 
Q 3781 3694 3797 3291 
L 3216 3247 
Q 3169 3681 2898 3903 
Q 2628 4125 2100 4125 
Q 1550 4125 1298 3923 
Q 1047 3722 1047 3438 
Q 1047 3191 1225 3031 
Q 1400 2872 2139 2705 
Q 2878 2538 3153 2413 
Q 3553 2228 3743 1945 
Q 3934 1663 3934 1294 
Q 3934 928 3725 604 
Q 3516 281 3123 101 
Q 2731 -78 2241 -78 
Q 1619 -78 1198 103 
Q 778 284 539 648 
Q 300 1013 288 1472 
z
" transform="scale(0.015625)"/>
       <path id="ArialMT-63" d="M 2588 1216 
L 3141 1144 
Q 3050 572 2676 248 
Q 2303 -75 1759 -75 
Q 1078 -75 664 370 
Q 250 816 250 1647 
Q 250 2184 428 2587 
Q 606 2991 970 3192 
Q 1334 3394 1763 3394 
Q 2303 3394 2647 3120 
Q 2991 2847 3088 2344 
L 2541 2259 
Q 2463 2594 2264 2762 
Q 2066 2931 1784 2931 
Q 1359 2931 1093 2626 
Q 828 2322 828 1663 
Q 828 994 1084 691 
Q 1341 388 1753 388 
Q 2084 388 2306 591 
Q 2528 794 2588 1216 
z
" transform="scale(0.015625)"/>
       <path id="ArialMT-6f" d="M 213 1659 
Q 213 2581 725 3025 
Q 1153 3394 1769 3394 
Q 2453 3394 2887 2945 
Q 3322 2497 3322 1706 
Q 3322 1066 3130 698 
Q 2938 331 2570 128 
Q 2203 -75 1769 -75 
Q 1072 -75 642 372 
Q 213 819 213 1659 
z
M 791 1659 
Q 791 1022 1069 705 
Q 1347 388 1769 388 
Q 2188 388 2466 706 
Q 2744 1025 2744 1678 
Q 2744 2294 2464 2611 
Q 2184 2928 1769 2928 
Q 1347 2928 1069 2612 
Q 791 2297 791 1659 
z
" transform="scale(0.015625)"/>
       <path id="ArialMT-64" d="M 2575 0 
L 2575 419 
Q 2259 -75 1647 -75 
Q 1250 -75 917 144 
Q 584 363 401 755 
Q 219 1147 219 1656 
Q 219 2153 384 2558 
Q 550 2963 881 3178 
Q 1213 3394 1622 3394 
Q 1922 3394 2156 3267 
Q 2391 3141 2538 2938 
L 2538 4581 
L 3097 4581 
L 3097 0 
L 2575 0 
z
M 797 1656 
Q 797 1019 1065 703 
Q 1334 388 1700 388 
Q 2069 388 2326 689 
Q 2584 991 2584 1609 
Q 2584 2291 2321 2609 
Q 2059 2928 1675 2928 
Q 1300 2928 1048 2622 
Q 797 2316 797 1656 
z
" transform="scale(0.015625)"/>
       <path id="ArialMT-61" d="M 2588 409 
Q 2275 144 1986 34 
Q 1697 -75 1366 -75 
Q 819 -75 525 192 
Q 231 459 231 875 
Q 231 1119 342 1320 
Q 453 1522 633 1644 
Q 813 1766 1038 1828 
Q 1203 1872 1538 1913 
Q 2219 1994 2541 2106 
Q 2544 2222 2544 2253 
Q 2544 2597 2384 2738 
Q 2169 2928 1744 2928 
Q 1347 2928 1158 2789 
Q 969 2650 878 2297 
L 328 2372 
Q 403 2725 575 2942 
Q 747 3159 1072 3276 
Q 1397 3394 1825 3394 
Q 2250 3394 2515 3294 
Q 2781 3194 2906 3042 
Q 3031 2891 3081 2659 
Q 3109 2516 3109 2141 
L 3109 1391 
Q 3109 606 3145 398 
Q 3181 191 3288 0 
L 2700 0 
Q 2613 175 2588 409 
z
M 2541 1666 
Q 2234 1541 1622 1453 
Q 1275 1403 1131 1340 
Q 988 1278 909 1158 
Q 831 1038 831 891 
Q 831 666 1001 516 
Q 1172 366 1500 366 
Q 1825 366 2078 508 
Q 2331 650 2450 897 
Q 2541 1088 2541 1459 
L 2541 1666 
z
" transform="scale(0.015625)"/>
       <path id="ArialMT-72" d="M 416 0 
L 416 3319 
L 922 3319 
L 922 2816 
Q 1116 3169 1280 3281 
Q 1444 3394 1641 3394 
Q 1925 3394 2219 3213 
L 2025 2691 
Q 1819 2813 1613 2813 
Q 1428 2813 1281 2702 
Q 1134 2591 1072 2394 
Q 978 2094 978 1738 
L 978 0 
L 416 0 
z
" transform="scale(0.015625)"/>
       <path id="ArialMT-20" transform="scale(0.015625)"/>
      </defs>
      <use xlink:href="#ArialMT-53"/>
      <use xlink:href="#ArialMT-65" transform="translate(66.699219 0)"/>
      <use xlink:href="#ArialMT-63" transform="translate(122.314453 0)"/>
      <use xlink:href="#ArialMT-6f" transform="translate(172.314453 0)"/>
      <use xlink:href="#ArialMT-6e" transform="translate(227.929688 0)"/>
      <use xlink:href="#ArialMT-64" transform="translate(283.544922 0)"/>
      <use xlink:href="#ArialMT-61" transform="translate(339.160156 0)"/>
      <use xlink:href="#ArialMT-72" transform="translate(394.775391 0)"/>
      <use xlink:href="#ArialMT-79" transform="translate(428.076172 0)"/>
      <use xlink:href="#ArialMT-20" transform="translate(478.076172 0)"/>
      <use xlink:href="#ArialMT-6e" transform="translate(505.859375 0)"/>
      <use xlink:href="#ArialMT-6f" transform="translate(561.474609 0)"/>
      <use xlink:href="#ArialMT-6e" transform="translate(617.089844 0)"/>
      <use xlink:href="#ArialMT-65" transform="translate(672.705078 0)"/>
     </g>
    </g>
    <g id="patch_8">
     <path d="M 359.9 46.096406 
L 381.9 46.096406 
L 381.9 38.396406 
L 359.9 38.396406 
z
" style="fill: #707070; fill-opacity: 0.08; stroke: #707070; stroke-width: 2.5; stroke-linejoin: miter"/>
    </g>
    <g id="text_14">
     <!-- NIL none -->
     <g style="fill: #262626" transform="translate(390.7 46.096406) scale(0.11 -0.11)">
      <defs>
       <path id="ArialMT-49" d="M 597 0 
L 597 4581 
L 1203 4581 
L 1203 0 
L 597 0 
z
" transform="scale(0.015625)"/>
       <path id="ArialMT-4c" d="M 469 0 
L 469 4581 
L 1075 4581 
L 1075 541 
L 3331 541 
L 3331 0 
L 469 0 
z
" transform="scale(0.015625)"/>
      </defs>
      <use xlink:href="#ArialMT-4e"/>
      <use xlink:href="#ArialMT-49" transform="translate(72.216797 0)"/>
      <use xlink:href="#ArialMT-4c" transform="translate(100 0)"/>
      <use xlink:href="#ArialMT-20" transform="translate(151.865234 0)"/>
      <use xlink:href="#ArialMT-6e" transform="translate(179.648438 0)"/>
      <use xlink:href="#ArialMT-6f" transform="translate(235.263672 0)"/>
      <use xlink:href="#ArialMT-6e" transform="translate(290.878906 0)"/>
      <use xlink:href="#ArialMT-65" transform="translate(346.494141 0)"/>
     </g>
    </g>
    <g id="patch_9">
     <path d="M 359.9 61.65625 
L 381.9 61.65625 
L 381.9 53.95625 
L 359.9 53.95625 
z
" style="fill: #3333cc; fill-opacity: 0.08; stroke: #3333cc; stroke-width: 2.5; stroke-linejoin: miter"/>
    </g>
    <g id="text_15">
     <!-- NIL SDD none -->
     <g style="fill: #262626" transform="translate(390.7 61.65625) scale(0.11 -0.11)">
      <use xlink:href="#ArialMT-4e"/>
      <use xlink:href="#ArialMT-49" transform="translate(72.216797 0)"/>
      <use xlink:href="#ArialMT-4c" transform="translate(100 0)"/>
      <use xlink:href="#ArialMT-20" transform="translate(151.865234 0)"/>
      <use xlink:href="#ArialMT-53" transform="translate(179.648438 0)"/>
      <use xlink:href="#ArialMT-44" transform="translate(246.347656 0)"/>
      <use xlink:href="#ArialMT-44" transform="translate(318.564453 0)"/>
      <use xlink:href="#ArialMT-20" transform="translate(390.78125 0)"/>
      <use xlink:href="#ArialMT-6e" transform="translate(418.564453 0)"/>
      <use xlink:href="#ArialMT-6f" transform="translate(474.179688 0)"/>
      <use xlink:href="#ArialMT-6e" transform="translate(529.794922 0)"/>
      <use xlink:href="#ArialMT-65" transform="translate(585.410156 0)"/>
     </g>
    </g>
    <g id="patch_10">
     <path d="M 359.9 77.216094 
L 381.9 77.216094 
L 381.9 69.516094 
L 359.9 69.516094 
z
" style="fill: #6495ed; fill-opacity: 0.08; stroke: #6495ed; stroke-width: 2.5; stroke-linejoin: miter"/>
    </g>
    <g id="text_16">
     <!-- NIL SDD PMA -->
     <g style="fill: #262626" transform="translate(390.7 77.216094) scale(0.11 -0.11)">
      <defs>
       <path id="ArialMT-50" d="M 494 0 
L 494 4581 
L 2222 4581 
Q 2678 4581 2919 4538 
Q 3256 4481 3484 4323 
Q 3713 4166 3852 3881 
Q 3991 3597 3991 3256 
Q 3991 2672 3619 2267 
Q 3247 1863 2275 1863 
L 1100 1863 
L 1100 0 
L 494 0 
z
M 1100 2403 
L 2284 2403 
Q 2872 2403 3119 2622 
Q 3366 2841 3366 3238 
Q 3366 3525 3220 3729 
Q 3075 3934 2838 4000 
Q 2684 4041 2272 4041 
L 1100 4041 
L 1100 2403 
z
" transform="scale(0.015625)"/>
       <path id="ArialMT-4d" d="M 475 0 
L 475 4581 
L 1388 4581 
L 2472 1338 
Q 2622 884 2691 659 
Q 2769 909 2934 1394 
L 4031 4581 
L 4847 4581 
L 4847 0 
L 4263 0 
L 4263 3834 
L 2931 0 
L 2384 0 
L 1059 3900 
L 1059 0 
L 475 0 
z
" transform="scale(0.015625)"/>
      </defs>
      <use xlink:href="#ArialMT-4e"/>
      <use xlink:href="#ArialMT-49" transform="translate(72.216797 0)"/>
      <use xlink:href="#ArialMT-4c" transform="translate(100 0)"/>
      <use xlink:href="#ArialMT-20" transform="translate(151.865234 0)"/>
      <use xlink:href="#ArialMT-53" transform="translate(179.648438 0)"/>
      <use xlink:href="#ArialMT-44" transform="translate(246.347656 0)"/>
      <use xlink:href="#ArialMT-44" transform="translate(318.564453 0)"/>
      <use xlink:href="#ArialMT-20" transform="translate(390.78125 0)"/>
      <use xlink:href="#ArialMT-50" transform="translate(418.564453 0)"/>
      <use xlink:href="#ArialMT-4d" transform="translate(485.263672 0)"/>
      <use xlink:href="#ArialMT-41" transform="translate(568.564453 0)"/>
     </g>
    </g>
    <g id="patch_11">
     <path d="M 359.9 92.775938 
L 381.9 92.775938 
L 381.9 85.075938 
L 359.9 85.075938 
z
" style="fill: #ba2182; fill-opacity: 0.08; stroke: #ba2182; stroke-width: 2.5; stroke-linejoin: miter"/>
    </g>
    <g id="text_17">
     <!-- NIL RIDD none -->
     <g style="fill: #262626" transform="translate(390.7 92.775938) scale(0.11 -0.11)">
      <defs>
       <path id="ArialMT-52" d="M 503 0 
L 503 4581 
L 2534 4581 
Q 3147 4581 3465 4457 
Q 3784 4334 3975 4021 
Q 4166 3709 4166 3331 
Q 4166 2844 3850 2509 
Q 3534 2175 2875 2084 
Q 3116 1969 3241 1856 
Q 3506 1613 3744 1247 
L 4541 0 
L 3778 0 
L 3172 953 
Q 2906 1366 2734 1584 
Q 2563 1803 2427 1890 
Q 2291 1978 2150 2013 
Q 2047 2034 1813 2034 
L 1109 2034 
L 1109 0 
L 503 0 
z
M 1109 2559 
L 2413 2559 
Q 2828 2559 3062 2645 
Q 3297 2731 3419 2920 
Q 3541 3109 3541 3331 
Q 3541 3656 3305 3865 
Q 3069 4075 2559 4075 
L 1109 4075 
L 1109 2559 
z
" transform="scale(0.015625)"/>
      </defs>
      <use xlink:href="#ArialMT-4e"/>
      <use xlink:href="#ArialMT-49" transform="translate(72.216797 0)"/>
      <use xlink:href="#ArialMT-4c" transform="translate(100 0)"/>
      <use xlink:href="#ArialMT-20" transform="translate(151.865234 0)"/>
      <use xlink:href="#ArialMT-52" transform="translate(179.648438 0)"/>
      <use xlink:href="#ArialMT-49" transform="translate(251.865234 0)"/>
      <use xlink:href="#ArialMT-44" transform="translate(279.648438 0)"/>
      <use xlink:href="#ArialMT-44" transform="translate(351.865234 0)"/>
      <use xlink:href="#ArialMT-20" transform="translate(424.082031 0)"/>
      <use xlink:href="#ArialMT-6e" transform="translate(451.865234 0)"/>
      <use xlink:href="#ArialMT-6f" transform="translate(507.480469 0)"/>
      <use xlink:href="#ArialMT-6e" transform="translate(563.095703 0)"/>
      <use xlink:href="#ArialMT-65" transform="translate(618.710938 0)"/>
     </g>
    </g>
    <g id="patch_12">
     <path d="M 359.9 108.335781 
L 381.9 108.335781 
L 381.9 100.635781 
L 359.9 100.635781 
z
" style="fill: #cf8eb6; fill-opacity: 0.08; stroke: #cf8eb6; stroke-width: 2.5; stroke-linejoin: miter"/>
    </g>
    <g id="text_18">
     <!-- NIL RIDD MEKi -->
     <g style="fill: #262626" transform="translate(390.7 108.335781) scale(0.11 -0.11)">
      <defs>
       <path id="ArialMT-45" d="M 506 0 
L 506 4581 
L 3819 4581 
L 3819 4041 
L 1113 4041 
L 1113 2638 
L 3647 2638 
L 3647 2100 
L 1113 2100 
L 1113 541 
L 3925 541 
L 3925 0 
L 506 0 
z
" transform="scale(0.015625)"/>
       <path id="ArialMT-4b" d="M 469 0 
L 469 4581 
L 1075 4581 
L 1075 2309 
L 3350 4581 
L 4172 4581 
L 2250 2725 
L 4256 0 
L 3456 0 
L 1825 2319 
L 1075 1588 
L 1075 0 
L 469 0 
z
" transform="scale(0.015625)"/>
      </defs>
      <use xlink:href="#ArialMT-4e"/>
      <use xlink:href="#ArialMT-49" transform="translate(72.216797 0)"/>
      <use xlink:href="#ArialMT-4c" transform="translate(100 0)"/>
      <use xlink:href="#ArialMT-20" transform="translate(151.865234 0)"/>
      <use xlink:href="#ArialMT-52" transform="translate(179.648438 0)"/>
      <use xlink:href="#ArialMT-49" transform="translate(251.865234 0)"/>
      <use xlink:href="#ArialMT-44" transform="translate(279.648438 0)"/>
      <use xlink:href="#ArialMT-44" transform="translate(351.865234 0)"/>
      <use xlink:href="#ArialMT-20" transform="translate(424.082031 0)"/>
      <use xlink:href="#ArialMT-4d" transform="translate(451.865234 0)"/>
      <use xlink:href="#ArialMT-45" transform="translate(535.166016 0)"/>
      <use xlink:href="#ArialMT-4b" transform="translate(601.865234 0)"/>
      <use xlink:href="#ArialMT-69" transform="translate(668.564453 0)"/>
     </g>
    </g>
   </g>
  </g>
 </g>
 <defs>
  <clipPath id="pe191c79ca0">
   <rect x="72" y="18" width="270" height="117"/>
  </clipPath>
 </defs>
</svg>
