<?xml version="1.0" encoding="utf-8" standalone="no"?>
<!DOCTYPE svg PUBLIC "-//W3C//DTD SVG 1.1//EN"
  "http://www.w3.org/Graphics/SVG/1.1/DTD/svg11.dtd">
<svg xmlns:xlink="http://www.w3.org/1999/xlink" width="466.209531pt" height="174.228969pt" viewBox="0 0 466.209531 174.228969" xmlns="http://www.w3.org/2000/svg" version="1.1">
 <metadata>
  <rdf:RDF xmlns:dc="http://purl.org/dc/elements/1.1/" xmlns:cc="http://creativecommons.org/ns#" xmlns:rdf="http://www.w3.org/1999/02/22-rdf-syntax-ns#">
   <cc:Work>
    <dc:type rdf:resource="http://purl.org/dc/dcmitype/StillImage"/>
    <dc:date>2025-07-28T17:01:59.791026</dc:date>
    <dc:format>image/svg+xml</dc:format>
    <dc:creator>
     <cc:Agent>
      <dc:title>Matplotlib v3.10.3, https://matplotlib.org/</dc:title>
     </cc:Agent>
    </dc:creator>
   </cc:Work>
  </rdf:RDF>
 </metadata>
 <defs>
  <style type="text/css">*{stroke-linejoin: round; stroke-linecap: butt}</style>
 </defs>
 <g id="figure_1">
  <g id="patch_1">
   <path d="M 0 174.228969 
L 466.209531 174.228969 
L 466.209531 0 
L 0 0 
z
" style="fill: #ffffff"/>
  </g>
  <g id="axes_1">
   <g id="patch_2">
    <path d="M 55.812344 124.2 
L 325.812344 124.2 
L 325.812344 7.2 
L 55.812344 7.2 
z
" style="fill: #ffffff"/>
   </g>
   <g id="line2d_1">
    <path d="M 55.812344 121.4733 
L 325.812344 121.4733 
" clip-path="url(#p33cf8955bb)" style="fill: none; stroke-dasharray: 5.55,2.4; stroke-dashoffset: 0; stroke: #cccccc; stroke-width: 1.5"/>
   </g>
   <g id="line2d_2">
    <path d="M 55.812344 83.170301 
L 325.812344 83.170301 
" clip-path="url(#p33cf8955bb)" style="fill: none; stroke-dasharray: 5.55,2.4; stroke-dashoffset: 0; stroke: #cccccc; stroke-width: 1.5"/>
   </g>
   <g id="matplotlib.axis_1">
    <g id="xtick_1">
     <g id="line2d_3">
      <defs>
       <path id="mea51acf426" d="M 0 0 
L 0 6 
" style="stroke: #262626; stroke-width: 1.25"/>
      </defs>
      <g>
       <use xlink:href="#mea51acf426" x="88.539616" y="124.2" style="fill: #262626; stroke: #262626; stroke-width: 1.25"/>
      </g>
     </g>
     <g id="text_1">
      <!-- NIL, -->
      <g style="fill: #262626" transform="translate(78.453132 141.573594) scale(0.11 -0.11)">
       <defs>
        <path id="ArialMT-4e" d="M 488 0 
L 488 4581 
L 1109 4581 
L 3516 984 
L 3516 4581 
L 4097 4581 
L 4097 0 
L 3475 0 
L 1069 3600 
L 1069 0 
L 488 0 
z
" transform="scale(0.015625)"/>
        <path id="ArialMT-49" d="M 597 0 
L 597 4581 
L 1203 4581 
L 1203 0 
L 597 0 
z
" transform="scale(0.015625)"/>
        <path id="ArialMT-4c" d="M 469 0 
L 469 4581 
L 1075 4581 
L 1075 541 
L 3331 541 
L 3331 0 
L 469 0 
z
" transform="scale(0.015625)"/>
        <path id="ArialMT-2c" d="M 569 0 
L 569 641 
L 1209 641 
L 1209 0 
Q 1209 -353 1084 -570 
Q 959 -788 688 -906 
L 531 -666 
Q 709 -588 793 -436 
Q 878 -284 888 0 
L 569 0 
z
" transform="scale(0.015625)"/>
       </defs>
       <use xlink:href="#ArialMT-4e"/>
       <use xlink:href="#ArialMT-49" transform="translate(72.216797 0)"/>
       <use xlink:href="#ArialMT-4c" transform="translate(100 0)"/>
       <use xlink:href="#ArialMT-2c" transform="translate(155.615234 0)"/>
      </g>
      <!-- none -->
      <g style="fill: #262626" transform="translate(76.305554 153.208156) scale(0.11 -0.11)">
       <defs>
        <path id="ArialMT-6e" d="M 422 0 
L 422 3319 
L 928 3319 
L 928 2847 
Q 1294 3394 1984 3394 
Q 2284 3394 2536 3286 
Q 2788 3178 2913 3003 
Q 3038 2828 3088 2588 
Q 3119 2431 3119 2041 
L 3119 0 
L 2556 0 
L 2556 2019 
Q 2556 2363 2490 2533 
Q 2425 2703 2258 2804 
Q 2091 2906 1866 2906 
Q 1506 2906 1245 2678 
Q 984 2450 984 1813 
L 984 0 
L 422 0 
z
" transform="scale(0.015625)"/>
        <path id="ArialMT-6f" d="M 213 1659 
Q 213 2581 725 3025 
Q 1153 3394 1769 3394 
Q 2453 3394 2887 2945 
Q 3322 2497 3322 1706 
Q 3322 1066 3130 698 
Q 2938 331 2570 128 
Q 2203 -75 1769 -75 
Q 1072 -75 642 372 
Q 213 819 213 1659 
z
M 791 1659 
Q 791 1022 1069 705 
Q 1347 388 1769 388 
Q 2188 388 2466 706 
Q 2744 1025 2744 1678 
Q 2744 2294 2464 2611 
Q 2184 2928 1769 2928 
Q 1347 2928 1069 2612 
Q 791 2297 791 1659 
z
" transform="scale(0.015625)"/>
        <path id="ArialMT-65" d="M 2694 1069 
L 3275 997 
Q 3138 488 2766 206 
Q 2394 -75 1816 -75 
Q 1088 -75 661 373 
Q 234 822 234 1631 
Q 234 2469 665 2931 
Q 1097 3394 1784 3394 
Q 2450 3394 2872 2941 
Q 3294 2488 3294 1666 
Q 3294 1616 3291 1516 
L 816 1516 
Q 847 969 1125 678 
Q 1403 388 1819 388 
Q 2128 388 2347 550 
Q 2566 713 2694 1069 
z
M 847 1978 
L 2700 1978 
Q 2663 2397 2488 2606 
Q 2219 2931 1791 2931 
Q 1403 2931 1139 2672 
Q 875 2413 847 1978 
z
" transform="scale(0.015625)"/>
       </defs>
       <use xlink:href="#ArialMT-6e"/>
       <use xlink:href="#ArialMT-6f" transform="translate(55.615234 0)"/>
       <use xlink:href="#ArialMT-6e" transform="translate(111.230469 0)"/>
       <use xlink:href="#ArialMT-65" transform="translate(166.845703 0)"/>
      </g>
     </g>
    </g>
    <g id="xtick_2">
     <g id="line2d_4">
      <g>
       <use xlink:href="#mea51acf426" x="139.67598" y="124.2" style="fill: #262626; stroke: #262626; stroke-width: 1.25"/>
      </g>
     </g>
     <g id="text_2">
      <!-- NIL -->
      <g style="fill: #262626" transform="translate(131.117464 141.573594) scale(0.11 -0.11)">
       <use xlink:href="#ArialMT-4e"/>
       <use xlink:href="#ArialMT-49" transform="translate(72.216797 0)"/>
       <use xlink:href="#ArialMT-4c" transform="translate(100 0)"/>
      </g>
      <!-- SDD, -->
      <g style="fill: #262626" transform="translate(126.535277 153.208156) scale(0.11 -0.11)">
       <defs>
        <path id="ArialMT-53" d="M 288 1472 
L 859 1522 
Q 900 1178 1048 958 
Q 1197 738 1509 602 
Q 1822 466 2213 466 
Q 2559 466 2825 569 
Q 3091 672 3220 851 
Q 3350 1031 3350 1244 
Q 3350 1459 3225 1620 
Q 3100 1781 2813 1891 
Q 2628 1963 1997 2114 
Q 1366 2266 1113 2400 
Q 784 2572 623 2826 
Q 463 3081 463 3397 
Q 463 3744 659 4045 
Q 856 4347 1234 4503 
Q 1613 4659 2075 4659 
Q 2584 4659 2973 4495 
Q 3363 4331 3572 4012 
Q 3781 3694 3797 3291 
L 3216 3247 
Q 3169 3681 2898 3903 
Q 2628 4125 2100 4125 
Q 1550 4125 1298 3923 
Q 1047 3722 1047 3438 
Q 1047 3191 1225 3031 
Q 1400 2872 2139 2705 
Q 2878 2538 3153 2413 
Q 3553 2228 3743 1945 
Q 3934 1663 3934 1294 
Q 3934 928 3725 604 
Q 3516 281 3123 101 
Q 2731 -78 2241 -78 
Q 1619 -78 1198 103 
Q 778 284 539 648 
Q 300 1013 288 1472 
z
" transform="scale(0.015625)"/>
        <path id="ArialMT-44" d="M 494 0 
L 494 4581 
L 2072 4581 
Q 2606 4581 2888 4516 
Q 3281 4425 3559 4188 
Q 3922 3881 4101 3404 
Q 4281 2928 4281 2316 
Q 4281 1794 4159 1391 
Q 4038 988 3847 723 
Q 3656 459 3429 307 
Q 3203 156 2883 78 
Q 2563 0 2147 0 
L 494 0 
z
M 1100 541 
L 2078 541 
Q 2531 541 2789 625 
Q 3047 709 3200 863 
Q 3416 1078 3536 1442 
Q 3656 1806 3656 2325 
Q 3656 3044 3420 3430 
Q 3184 3816 2847 3947 
Q 2603 4041 2063 4041 
L 1100 4041 
L 1100 541 
z
" transform="scale(0.015625)"/>
       </defs>
       <use xlink:href="#ArialMT-53"/>
       <use xlink:href="#ArialMT-44" transform="translate(66.699219 0)"/>
       <use xlink:href="#ArialMT-44" transform="translate(138.916016 0)"/>
       <use xlink:href="#ArialMT-2c" transform="translate(211.132812 0)"/>
      </g>
      <!-- none -->
      <g style="fill: #262626" transform="translate(127.441918 164.842719) scale(0.11 -0.11)">
       <use xlink:href="#ArialMT-6e"/>
       <use xlink:href="#ArialMT-6f" transform="translate(55.615234 0)"/>
       <use xlink:href="#ArialMT-6e" transform="translate(111.230469 0)"/>
       <use xlink:href="#ArialMT-65" transform="translate(166.845703 0)"/>
      </g>
     </g>
    </g>
    <g id="xtick_3">
     <g id="line2d_5">
      <g>
       <use xlink:href="#mea51acf426" x="190.812344" y="124.2" style="fill: #262626; stroke: #262626; stroke-width: 1.25"/>
      </g>
     </g>
     <g id="text_3">
      <!-- NIL -->
      <g style="fill: #262626" transform="translate(182.253828 141.573594) scale(0.11 -0.11)">
       <use xlink:href="#ArialMT-4e"/>
       <use xlink:href="#ArialMT-49" transform="translate(72.216797 0)"/>
       <use xlink:href="#ArialMT-4c" transform="translate(100 0)"/>
      </g>
      <!-- SDD, -->
      <g style="fill: #262626" transform="translate(177.671641 153.208156) scale(0.11 -0.11)">
       <use xlink:href="#ArialMT-53"/>
       <use xlink:href="#ArialMT-44" transform="translate(66.699219 0)"/>
       <use xlink:href="#ArialMT-44" transform="translate(138.916016 0)"/>
       <use xlink:href="#ArialMT-2c" transform="translate(211.132812 0)"/>
      </g>
      <!-- PMA -->
      <g style="fill: #262626" transform="translate(178.893672 164.842719) scale(0.11 -0.11)">
       <defs>
        <path id="ArialMT-50" d="M 494 0 
L 494 4581 
L 2222 4581 
Q 2678 4581 2919 4538 
Q 3256 4481 3484 4323 
Q 3713 4166 3852 3881 
Q 3991 3597 3991 3256 
Q 3991 2672 3619 2267 
Q 3247 1863 2275 1863 
L 1100 1863 
L 1100 0 
L 494 0 
z
M 1100 2403 
L 2284 2403 
Q 2872 2403 3119 2622 
Q 3366 2841 3366 3238 
Q 3366 3525 3220 3729 
Q 3075 3934 2838 4000 
Q 2684 4041 2272 4041 
L 1100 4041 
L 1100 2403 
z
" transform="scale(0.015625)"/>
        <path id="ArialMT-4d" d="M 475 0 
L 475 4581 
L 1388 4581 
L 2472 1338 
Q 2622 884 2691 659 
Q 2769 909 2934 1394 
L 4031 4581 
L 4847 4581 
L 4847 0 
L 4263 0 
L 4263 3834 
L 2931 0 
L 2384 0 
L 1059 3900 
L 1059 0 
L 475 0 
z
" transform="scale(0.015625)"/>
        <path id="ArialMT-41" d="M -9 0 
L 1750 4581 
L 2403 4581 
L 4278 0 
L 3588 0 
L 3053 1388 
L 1138 1388 
L 634 0 
L -9 0 
z
M 1313 1881 
L 2866 1881 
L 2388 3150 
Q 2169 3728 2063 4100 
Q 1975 3659 1816 3225 
L 1313 1881 
z
" transform="scale(0.015625)"/>
       </defs>
       <use xlink:href="#ArialMT-50"/>
       <use xlink:href="#ArialMT-4d" transform="translate(66.699219 0)"/>
       <use xlink:href="#ArialMT-41" transform="translate(150 0)"/>
      </g>
     </g>
    </g>
    <g id="xtick_4">
     <g id="line2d_6">
      <g>
       <use xlink:href="#mea51acf426" x="241.948707" y="124.2" style="fill: #262626; stroke: #262626; stroke-width: 1.25"/>
      </g>
     </g>
     <g id="text_4">
      <!-- NIL -->
      <g style="fill: #262626" transform="translate(233.390192 141.573594) scale(0.11 -0.11)">
       <use xlink:href="#ArialMT-4e"/>
       <use xlink:href="#ArialMT-49" transform="translate(72.216797 0)"/>
       <use xlink:href="#ArialMT-4c" transform="translate(100 0)"/>
      </g>
      <!-- RIDD, -->
      <g style="fill: #262626" transform="translate(226.976676 153.208156) scale(0.11 -0.11)">
       <defs>
        <path id="ArialMT-52" d="M 503 0 
L 503 4581 
L 2534 4581 
Q 3147 4581 3465 4457 
Q 3784 4334 3975 4021 
Q 4166 3709 4166 3331 
Q 4166 2844 3850 2509 
Q 3534 2175 2875 2084 
Q 3116 1969 3241 1856 
Q 3506 1613 3744 1247 
L 4541 0 
L 3778 0 
L 3172 953 
Q 2906 1366 2734 1584 
Q 2563 1803 2427 1890 
Q 2291 1978 2150 2013 
Q 2047 2034 1813 2034 
L 1109 2034 
L 1109 0 
L 503 0 
z
M 1109 2559 
L 2413 2559 
Q 2828 2559 3062 2645 
Q 3297 2731 3419 2920 
Q 3541 3109 3541 3331 
Q 3541 3656 3305 3865 
Q 3069 4075 2559 4075 
L 1109 4075 
L 1109 2559 
z
" transform="scale(0.015625)"/>
       </defs>
       <use xlink:href="#ArialMT-52"/>
       <use xlink:href="#ArialMT-49" transform="translate(72.216797 0)"/>
       <use xlink:href="#ArialMT-44" transform="translate(100 0)"/>
       <use xlink:href="#ArialMT-44" transform="translate(172.216797 0)"/>
       <use xlink:href="#ArialMT-2c" transform="translate(244.433594 0)"/>
      </g>
      <!-- none -->
      <g style="fill: #262626" transform="translate(229.714645 164.842719) scale(0.11 -0.11)">
       <use xlink:href="#ArialMT-6e"/>
       <use xlink:href="#ArialMT-6f" transform="translate(55.615234 0)"/>
       <use xlink:href="#ArialMT-6e" transform="translate(111.230469 0)"/>
       <use xlink:href="#ArialMT-65" transform="translate(166.845703 0)"/>
      </g>
     </g>
    </g>
    <g id="xtick_5">
     <g id="line2d_7">
      <g>
       <use xlink:href="#mea51acf426" x="293.085071" y="124.2" style="fill: #262626; stroke: #262626; stroke-width: 1.25"/>
      </g>
     </g>
     <g id="text_5">
      <!-- NIL -->
      <g style="fill: #262626" transform="translate(284.526555 141.573594) scale(0.11 -0.11)">
       <use xlink:href="#ArialMT-4e"/>
       <use xlink:href="#ArialMT-49" transform="translate(72.216797 0)"/>
       <use xlink:href="#ArialMT-4c" transform="translate(100 0)"/>
      </g>
      <!-- RIDD, -->
      <g style="fill: #262626" transform="translate(278.11304 153.208156) scale(0.11 -0.11)">
       <use xlink:href="#ArialMT-52"/>
       <use xlink:href="#ArialMT-49" transform="translate(72.216797 0)"/>
       <use xlink:href="#ArialMT-44" transform="translate(100 0)"/>
       <use xlink:href="#ArialMT-44" transform="translate(172.216797 0)"/>
       <use xlink:href="#ArialMT-2c" transform="translate(244.433594 0)"/>
      </g>
      <!-- MEKi -->
      <g style="fill: #262626" transform="translate(279.944368 164.842719) scale(0.11 -0.11)">
       <defs>
        <path id="ArialMT-45" d="M 506 0 
L 506 4581 
L 3819 4581 
L 3819 4041 
L 1113 4041 
L 1113 2638 
L 3647 2638 
L 3647 2100 
L 1113 2100 
L 1113 541 
L 3925 541 
L 3925 0 
L 506 0 
z
" transform="scale(0.015625)"/>
        <path id="ArialMT-4b" d="M 469 0 
L 469 4581 
L 1075 4581 
L 1075 2309 
L 3350 4581 
L 4172 4581 
L 2250 2725 
L 4256 0 
L 3456 0 
L 1825 2319 
L 1075 1588 
L 1075 0 
L 469 0 
z
" transform="scale(0.015625)"/>
        <path id="ArialMT-69" d="M 425 3934 
L 425 4581 
L 988 4581 
L 988 3934 
L 425 3934 
z
M 425 0 
L 425 3319 
L 988 3319 
L 988 0 
L 425 0 
z
" transform="scale(0.015625)"/>
       </defs>
       <use xlink:href="#ArialMT-4d"/>
       <use xlink:href="#ArialMT-45" transform="translate(83.300781 0)"/>
       <use xlink:href="#ArialMT-4b" transform="translate(150 0)"/>
       <use xlink:href="#ArialMT-69" transform="translate(216.699219 0)"/>
      </g>
     </g>
    </g>
   </g>
   <g id="matplotlib.axis_2">
    <g id="ytick_1">
     <g id="line2d_8">
      <defs>
       <path id="m4c0ddcdd87" d="M 0 0 
L -6 0 
" style="stroke: #262626; stroke-width: 1.25"/>
      </defs>
      <g>
       <use xlink:href="#m4c0ddcdd87" x="55.812344" y="124.2" style="fill: #262626; stroke: #262626; stroke-width: 1.25"/>
      </g>
     </g>
     <g id="text_6">
      <!-- 0 -->
      <g style="fill: #262626" transform="translate(40.195313 128.136797) scale(0.11 -0.11)">
       <defs>
        <path id="ArialMT-30" d="M 266 2259 
Q 266 3072 433 3567 
Q 600 4063 929 4331 
Q 1259 4600 1759 4600 
Q 2128 4600 2406 4451 
Q 2684 4303 2865 4023 
Q 3047 3744 3150 3342 
Q 3253 2941 3253 2259 
Q 3253 1453 3087 958 
Q 2922 463 2592 192 
Q 2263 -78 1759 -78 
Q 1097 -78 719 397 
Q 266 969 266 2259 
z
M 844 2259 
Q 844 1131 1108 757 
Q 1372 384 1759 384 
Q 2147 384 2411 759 
Q 2675 1134 2675 2259 
Q 2675 3391 2411 3762 
Q 2147 4134 1753 4134 
Q 1366 4134 1134 3806 
Q 844 3388 844 2259 
z
" transform="scale(0.015625)"/>
       </defs>
       <use xlink:href="#ArialMT-30"/>
      </g>
     </g>
    </g>
    <g id="ytick_2">
     <g id="line2d_9">
      <g>
       <use xlink:href="#m4c0ddcdd87" x="55.812344" y="98.650879" style="fill: #262626; stroke: #262626; stroke-width: 1.25"/>
      </g>
     </g>
     <g id="text_7">
      <!-- 25k -->
      <g style="fill: #262626" transform="translate(28.578281 102.587675) scale(0.11 -0.11)">
       <defs>
        <path id="ArialMT-32" d="M 3222 541 
L 3222 0 
L 194 0 
Q 188 203 259 391 
Q 375 700 629 1000 
Q 884 1300 1366 1694 
Q 2113 2306 2375 2664 
Q 2638 3022 2638 3341 
Q 2638 3675 2398 3904 
Q 2159 4134 1775 4134 
Q 1369 4134 1125 3890 
Q 881 3647 878 3216 
L 300 3275 
Q 359 3922 746 4261 
Q 1134 4600 1788 4600 
Q 2447 4600 2831 4234 
Q 3216 3869 3216 3328 
Q 3216 3053 3103 2787 
Q 2991 2522 2730 2228 
Q 2469 1934 1863 1422 
Q 1356 997 1212 845 
Q 1069 694 975 541 
L 3222 541 
z
" transform="scale(0.015625)"/>
        <path id="ArialMT-35" d="M 266 1200 
L 856 1250 
Q 922 819 1161 601 
Q 1400 384 1738 384 
Q 2144 384 2425 690 
Q 2706 997 2706 1503 
Q 2706 1984 2436 2262 
Q 2166 2541 1728 2541 
Q 1456 2541 1237 2417 
Q 1019 2294 894 2097 
L 366 2166 
L 809 4519 
L 3088 4519 
L 3088 3981 
L 1259 3981 
L 1013 2750 
Q 1425 3038 1878 3038 
Q 2478 3038 2890 2622 
Q 3303 2206 3303 1553 
Q 3303 931 2941 478 
Q 2500 -78 1738 -78 
Q 1113 -78 717 272 
Q 322 622 266 1200 
z
" transform="scale(0.015625)"/>
        <path id="ArialMT-6b" d="M 425 0 
L 425 4581 
L 988 4581 
L 988 1969 
L 2319 3319 
L 3047 3319 
L 1778 2088 
L 3175 0 
L 2481 0 
L 1384 1697 
L 988 1316 
L 988 0 
L 425 0 
z
" transform="scale(0.015625)"/>
       </defs>
       <use xlink:href="#ArialMT-32"/>
       <use xlink:href="#ArialMT-35" transform="translate(55.615234 0)"/>
       <use xlink:href="#ArialMT-6b" transform="translate(111.230469 0)"/>
      </g>
     </g>
    </g>
    <g id="ytick_3">
     <g id="line2d_10">
      <g>
       <use xlink:href="#m4c0ddcdd87" x="55.812344" y="73.101757" style="fill: #262626; stroke: #262626; stroke-width: 1.25"/>
      </g>
     </g>
     <g id="text_8">
      <!-- 50k -->
      <g style="fill: #262626" transform="translate(28.578281 77.038554) scale(0.11 -0.11)">
       <use xlink:href="#ArialMT-35"/>
       <use xlink:href="#ArialMT-30" transform="translate(55.615234 0)"/>
       <use xlink:href="#ArialMT-6b" transform="translate(111.230469 0)"/>
      </g>
     </g>
    </g>
    <g id="ytick_4">
     <g id="line2d_11">
      <g>
       <use xlink:href="#m4c0ddcdd87" x="55.812344" y="47.552636" style="fill: #262626; stroke: #262626; stroke-width: 1.25"/>
      </g>
     </g>
     <g id="text_9">
      <!-- 75k -->
      <g style="fill: #262626" transform="translate(28.578281 51.489433) scale(0.11 -0.11)">
       <defs>
        <path id="ArialMT-37" d="M 303 3981 
L 303 4522 
L 3269 4522 
L 3269 4084 
Q 2831 3619 2401 2847 
Q 1972 2075 1738 1259 
Q 1569 684 1522 0 
L 944 0 
Q 953 541 1156 1306 
Q 1359 2072 1739 2783 
Q 2119 3494 2547 3981 
L 303 3981 
z
" transform="scale(0.015625)"/>
       </defs>
       <use xlink:href="#ArialMT-37"/>
       <use xlink:href="#ArialMT-35" transform="translate(55.615234 0)"/>
       <use xlink:href="#ArialMT-6b" transform="translate(111.230469 0)"/>
      </g>
     </g>
    </g>
    <g id="ytick_5">
     <g id="line2d_12">
      <g>
       <use xlink:href="#m4c0ddcdd87" x="55.812344" y="22.003514" style="fill: #262626; stroke: #262626; stroke-width: 1.25"/>
      </g>
     </g>
     <g id="text_10">
      <!-- 100k -->
      <g style="fill: #262626" transform="translate(22.46125 25.940311) scale(0.11 -0.11)">
       <defs>
        <path id="ArialMT-31" d="M 2384 0 
L 1822 0 
L 1822 3584 
Q 1619 3391 1289 3197 
Q 959 3003 697 2906 
L 697 3450 
Q 1169 3672 1522 3987 
Q 1875 4303 2022 4600 
L 2384 4600 
L 2384 0 
z
" transform="scale(0.015625)"/>
       </defs>
       <use xlink:href="#ArialMT-31"/>
       <use xlink:href="#ArialMT-30" transform="translate(55.615234 0)"/>
       <use xlink:href="#ArialMT-30" transform="translate(111.230469 0)"/>
       <use xlink:href="#ArialMT-6b" transform="translate(166.845703 0)"/>
      </g>
     </g>
    </g>
    <g id="text_11">
     <!-- (#) Total HyperP -->
     <g style="fill: #262626" transform="translate(15.935625 108.9375) rotate(-90) scale(0.12 -0.12)">
      <defs>
       <path id="ArialMT-28" d="M 1497 -1347 
Q 1031 -759 709 28 
Q 388 816 388 1659 
Q 388 2403 628 3084 
Q 909 3875 1497 4659 
L 1900 4659 
Q 1522 4009 1400 3731 
Q 1209 3300 1100 2831 
Q 966 2247 966 1656 
Q 966 153 1900 -1347 
L 1497 -1347 
z
" transform="scale(0.015625)"/>
       <path id="ArialMT-23" d="M 322 -78 
L 594 1253 
L 66 1253 
L 66 1719 
L 688 1719 
L 919 2853 
L 66 2853 
L 66 3319 
L 1013 3319 
L 1284 4659 
L 1753 4659 
L 1481 3319 
L 2466 3319 
L 2738 4659 
L 3209 4659 
L 2938 3319 
L 3478 3319 
L 3478 2853 
L 2844 2853 
L 2609 1719 
L 3478 1719 
L 3478 1253 
L 2516 1253 
L 2244 -78 
L 1775 -78 
L 2044 1253 
L 1063 1253 
L 791 -78 
L 322 -78 
z
M 1156 1719 
L 2138 1719 
L 2372 2853 
L 1388 2853 
L 1156 1719 
z
" transform="scale(0.015625)"/>
       <path id="ArialMT-29" d="M 791 -1347 
L 388 -1347 
Q 1322 153 1322 1656 
Q 1322 2244 1188 2822 
Q 1081 3291 891 3722 
Q 769 4003 388 4659 
L 791 4659 
Q 1378 3875 1659 3084 
Q 1900 2403 1900 1659 
Q 1900 816 1576 28 
Q 1253 -759 791 -1347 
z
" transform="scale(0.015625)"/>
       <path id="ArialMT-20" transform="scale(0.015625)"/>
       <path id="ArialMT-54" d="M 1659 0 
L 1659 4041 
L 150 4041 
L 150 4581 
L 3781 4581 
L 3781 4041 
L 2266 4041 
L 2266 0 
L 1659 0 
z
" transform="scale(0.015625)"/>
       <path id="ArialMT-74" d="M 1650 503 
L 1731 6 
Q 1494 -44 1306 -44 
Q 1000 -44 831 53 
Q 663 150 594 308 
Q 525 466 525 972 
L 525 2881 
L 113 2881 
L 113 3319 
L 525 3319 
L 525 4141 
L 1084 4478 
L 1084 3319 
L 1650 3319 
L 1650 2881 
L 1084 2881 
L 1084 941 
Q 1084 700 1114 631 
Q 1144 563 1211 522 
Q 1278 481 1403 481 
Q 1497 481 1650 503 
z
" transform="scale(0.015625)"/>
       <path id="ArialMT-61" d="M 2588 409 
Q 2275 144 1986 34 
Q 1697 -75 1366 -75 
Q 819 -75 525 192 
Q 231 459 231 875 
Q 231 1119 342 1320 
Q 453 1522 633 1644 
Q 813 1766 1038 1828 
Q 1203 1872 1538 1913 
Q 2219 1994 2541 2106 
Q 2544 2222 2544 2253 
Q 2544 2597 2384 2738 
Q 2169 2928 1744 2928 
Q 1347 2928 1158 2789 
Q 969 2650 878 2297 
L 328 2372 
Q 403 2725 575 2942 
Q 747 3159 1072 3276 
Q 1397 3394 1825 3394 
Q 2250 3394 2515 3294 
Q 2781 3194 2906 3042 
Q 3031 2891 3081 2659 
Q 3109 2516 3109 2141 
L 3109 1391 
Q 3109 606 3145 398 
Q 3181 191 3288 0 
L 2700 0 
Q 2613 175 2588 409 
z
M 2541 1666 
Q 2234 1541 1622 1453 
Q 1275 1403 1131 1340 
Q 988 1278 909 1158 
Q 831 1038 831 891 
Q 831 666 1001 516 
Q 1172 366 1500 366 
Q 1825 366 2078 508 
Q 2331 650 2450 897 
Q 2541 1088 2541 1459 
L 2541 1666 
z
" transform="scale(0.015625)"/>
       <path id="ArialMT-6c" d="M 409 0 
L 409 4581 
L 972 4581 
L 972 0 
L 409 0 
z
" transform="scale(0.015625)"/>
       <path id="ArialMT-48" d="M 513 0 
L 513 4581 
L 1119 4581 
L 1119 2700 
L 3500 2700 
L 3500 4581 
L 4106 4581 
L 4106 0 
L 3500 0 
L 3500 2159 
L 1119 2159 
L 1119 0 
L 513 0 
z
" transform="scale(0.015625)"/>
       <path id="ArialMT-79" d="M 397 -1278 
L 334 -750 
Q 519 -800 656 -800 
Q 844 -800 956 -737 
Q 1069 -675 1141 -563 
Q 1194 -478 1313 -144 
Q 1328 -97 1363 -6 
L 103 3319 
L 709 3319 
L 1400 1397 
Q 1534 1031 1641 628 
Q 1738 1016 1872 1384 
L 2581 3319 
L 3144 3319 
L 1881 -56 
Q 1678 -603 1566 -809 
Q 1416 -1088 1222 -1217 
Q 1028 -1347 759 -1347 
Q 597 -1347 397 -1278 
z
" transform="scale(0.015625)"/>
       <path id="ArialMT-70" d="M 422 -1272 
L 422 3319 
L 934 3319 
L 934 2888 
Q 1116 3141 1344 3267 
Q 1572 3394 1897 3394 
Q 2322 3394 2647 3175 
Q 2972 2956 3137 2557 
Q 3303 2159 3303 1684 
Q 3303 1175 3120 767 
Q 2938 359 2589 142 
Q 2241 -75 1856 -75 
Q 1575 -75 1351 44 
Q 1128 163 984 344 
L 984 -1272 
L 422 -1272 
z
M 931 1641 
Q 931 1000 1190 694 
Q 1450 388 1819 388 
Q 2194 388 2461 705 
Q 2728 1022 2728 1688 
Q 2728 2322 2467 2637 
Q 2206 2953 1844 2953 
Q 1484 2953 1207 2617 
Q 931 2281 931 1641 
z
" transform="scale(0.015625)"/>
       <path id="ArialMT-72" d="M 416 0 
L 416 3319 
L 922 3319 
L 922 2816 
Q 1116 3169 1280 3281 
Q 1444 3394 1641 3394 
Q 1925 3394 2219 3213 
L 2025 2691 
Q 1819 2813 1613 2813 
Q 1428 2813 1281 2702 
Q 1134 2591 1072 2394 
Q 978 2094 978 1738 
L 978 0 
L 416 0 
z
" transform="scale(0.015625)"/>
      </defs>
      <use xlink:href="#ArialMT-28"/>
      <use xlink:href="#ArialMT-23" transform="translate(33.300781 0)"/>
      <use xlink:href="#ArialMT-29" transform="translate(88.916016 0)"/>
      <use xlink:href="#ArialMT-20" transform="translate(122.216797 0)"/>
      <use xlink:href="#ArialMT-54" transform="translate(148.25 0)"/>
      <use xlink:href="#ArialMT-6f" transform="translate(198.208984 0)"/>
      <use xlink:href="#ArialMT-74" transform="translate(253.824219 0)"/>
      <use xlink:href="#ArialMT-61" transform="translate(281.607422 0)"/>
      <use xlink:href="#ArialMT-6c" transform="translate(337.222656 0)"/>
      <use xlink:href="#ArialMT-20" transform="translate(359.439453 0)"/>
      <use xlink:href="#ArialMT-48" transform="translate(387.222656 0)"/>
      <use xlink:href="#ArialMT-79" transform="translate(459.439453 0)"/>
      <use xlink:href="#ArialMT-70" transform="translate(509.439453 0)"/>
      <use xlink:href="#ArialMT-65" transform="translate(565.054688 0)"/>
      <use xlink:href="#ArialMT-72" transform="translate(620.669922 0)"/>
      <use xlink:href="#ArialMT-50" transform="translate(653.970703 0)"/>
     </g>
    </g>
   </g>
   <g id="patch_3">
    <path d="M 68.085071 124.2 
L 88.539616 124.2 
L 88.539616 121.4733 
L 68.085071 121.4733 
z
" clip-path="url(#p33cf8955bb)" style="fill: #db8484; stroke: #ffffff; stroke-linejoin: miter"/>
   </g>
   <g id="patch_4">
    <path d="M 119.221435 124.2 
L 139.67598 124.2 
L 139.67598 116.792952 
L 119.221435 116.792952 
z
" clip-path="url(#p33cf8955bb)" style="fill: #db8484; stroke: #ffffff; stroke-linejoin: miter"/>
   </g>
   <g id="patch_5">
    <path d="M 170.357798 124.2 
L 190.812344 124.2 
L 190.812344 102.390345 
L 170.357798 102.390345 
z
" clip-path="url(#p33cf8955bb)" style="fill: #db8484; stroke: #ffffff; stroke-linejoin: miter"/>
   </g>
   <g id="patch_6">
    <path d="M 221.494162 124.2 
L 241.948707 124.2 
L 241.948707 83.170301 
L 221.494162 83.170301 
z
" clip-path="url(#p33cf8955bb)" style="fill: #db8484; stroke: #ffffff; stroke-linejoin: miter"/>
   </g>
   <g id="patch_7">
    <path d="M 272.630526 124.2 
L 293.085071 124.2 
L 293.085071 121.100483 
L 272.630526 121.100483 
z
" clip-path="url(#p33cf8955bb)" style="fill: #db8484; stroke: #ffffff; stroke-linejoin: miter"/>
   </g>
   <g id="patch_8">
    <path d="M 88.539616 124.2 
L 108.994162 124.2 
L 108.994162 123.652713 
L 88.539616 123.652713 
z
" clip-path="url(#p33cf8955bb)" style="fill: #4b94a2; stroke: #ffffff; stroke-linejoin: miter"/>
   </g>
   <g id="patch_9">
    <path d="M 139.67598 124.2 
L 160.130526 124.2 
L 160.130526 123.090089 
L 139.67598 123.090089 
z
" clip-path="url(#p33cf8955bb)" style="fill: #4b94a2; stroke: #ffffff; stroke-linejoin: miter"/>
   </g>
   <g id="patch_10">
    <path d="M 190.812344 124.2 
L 211.266889 124.2 
L 211.266889 121.118265 
L 190.812344 121.118265 
z
" clip-path="url(#p33cf8955bb)" style="fill: #4b94a2; stroke: #ffffff; stroke-linejoin: miter"/>
   </g>
   <g id="patch_11">
    <path d="M 241.948707 124.2 
L 262.403253 124.2 
L 262.403253 117.962851 
L 241.948707 117.962851 
z
" clip-path="url(#p33cf8955bb)" style="fill: #4b94a2; stroke: #ffffff; stroke-linejoin: miter"/>
   </g>
   <g id="patch_12">
    <path d="M 293.085071 124.2 
L 313.539616 124.2 
L 313.539616 123.90562 
L 293.085071 123.90562 
z
" clip-path="url(#p33cf8955bb)" style="fill: #4b94a2; stroke: #ffffff; stroke-linejoin: miter"/>
   </g>
   <g id="line2d_13">
    <path d="M 78.312344 122.138065 
L 78.312344 120.766068 
" clip-path="url(#p33cf8955bb)" style="fill: none; stroke: #424242; stroke-width: 2.7; stroke-linecap: round"/>
   </g>
   <g id="line2d_14">
    <path d="M 129.448707 118.321081 
L 129.448707 115.228504 
" clip-path="url(#p33cf8955bb)" style="fill: none; stroke: #424242; stroke-width: 2.7; stroke-linecap: round"/>
   </g>
   <g id="line2d_15">
    <path d="M 180.585071 107.315766 
L 180.585071 97.16215 
" clip-path="url(#p33cf8955bb)" style="fill: none; stroke: #424242; stroke-width: 2.7; stroke-linecap: round"/>
   </g>
   <g id="line2d_16">
    <path d="M 231.721435 96.038631 
L 231.721435 70.611623 
" clip-path="url(#p33cf8955bb)" style="fill: none; stroke: #424242; stroke-width: 2.7; stroke-linecap: round"/>
   </g>
   <g id="line2d_17">
    <path d="M 282.857798 122.485918 
L 282.857798 119.551512 
" clip-path="url(#p33cf8955bb)" style="fill: none; stroke: #424242; stroke-width: 2.7; stroke-linecap: round"/>
   </g>
   <g id="line2d_18">
    <path d="M 98.766889 123.780286 
L 98.766889 123.517798 
" clip-path="url(#p33cf8955bb)" style="fill: none; stroke: #424242; stroke-width: 2.7; stroke-linecap: round"/>
   </g>
   <g id="line2d_19">
    <path d="M 149.903253 123.2686 
L 149.903253 122.914191 
" clip-path="url(#p33cf8955bb)" style="fill: none; stroke: #424242; stroke-width: 2.7; stroke-linecap: round"/>
   </g>
   <g id="line2d_20">
    <path d="M 201.039616 121.638154 
L 201.039616 120.570507 
" clip-path="url(#p33cf8955bb)" style="fill: none; stroke: #424242; stroke-width: 2.7; stroke-linecap: round"/>
   </g>
   <g id="line2d_21">
    <path d="M 252.17598 120.212904 
L 252.17598 115.642413 
" clip-path="url(#p33cf8955bb)" style="fill: none; stroke: #424242; stroke-width: 2.7; stroke-linecap: round"/>
   </g>
   <g id="line2d_22">
    <path d="M 303.312344 123.997335 
L 303.312344 123.80002 
" clip-path="url(#p33cf8955bb)" style="fill: none; stroke: #424242; stroke-width: 2.7; stroke-linecap: round"/>
   </g>
   <g id="line2d_23">
    <path d="M 129.448707 104.36356 
L 129.448707 102.374101 
L 149.903253 102.374101 
L 149.903253 104.36356 
" clip-path="url(#p33cf8955bb)" style="fill: none; stroke: #333333; stroke-width: 1.5; stroke-linecap: round"/>
   </g>
   <g id="line2d_24">
    <path d="M 78.312344 112.308315 
L 78.312344 110.318856 
L 98.766889 110.318856 
L 98.766889 112.308315 
" clip-path="url(#p33cf8955bb)" style="fill: none; stroke: #333333; stroke-width: 1.5; stroke-linecap: round"/>
   </g>
   <g id="line2d_25">
    <path d="M 180.585071 76.070463 
L 180.585071 74.081004 
L 201.039616 74.081004 
L 201.039616 76.070463 
" clip-path="url(#p33cf8955bb)" style="fill: none; stroke: #333333; stroke-width: 1.5; stroke-linecap: round"/>
   </g>
   <g id="line2d_26">
    <path d="M 231.721435 23.495481 
L 231.721435 21.506022 
L 252.17598 21.506022 
L 252.17598 23.495481 
" clip-path="url(#p33cf8955bb)" style="fill: none; stroke: #333333; stroke-width: 1.5; stroke-linecap: round"/>
   </g>
   <g id="line2d_27">
    <path d="M 282.857798 108.151984 
L 282.857798 106.162525 
L 303.312344 106.162525 
L 303.312344 108.151984 
" clip-path="url(#p33cf8955bb)" style="fill: none; stroke: #333333; stroke-width: 1.5; stroke-linecap: round"/>
   </g>
   <g id="patch_13">
    <path d="M 55.812344 124.2 
L 55.812344 7.2 
" style="fill: none; stroke: #262626; stroke-width: 1.25; stroke-linejoin: miter; stroke-linecap: square"/>
   </g>
   <g id="patch_14">
    <path d="M 325.812344 124.2 
L 325.812344 7.2 
" style="fill: none; stroke: #262626; stroke-width: 1.25; stroke-linejoin: miter; stroke-linecap: square"/>
   </g>
   <g id="patch_15">
    <path d="M 55.812344 124.2 
L 325.812344 124.2 
" style="fill: none; stroke: #262626; stroke-width: 1.25; stroke-linejoin: miter; stroke-linecap: square"/>
   </g>
   <g id="patch_16">
    <path d="M 55.812344 7.2 
L 325.812344 7.2 
" style="fill: none; stroke: #262626; stroke-width: 1.25; stroke-linejoin: miter; stroke-linecap: square"/>
   </g>
   <g id="PathCollection_1">
    <defs>
     <path id="C0_0_87635c739a" d="M 0 2.5 
C 0.663008 2.5 1.29895 2.236584 1.767767 1.767767 
C 2.236584 1.29895 2.5 0.663008 2.5 -0 
C 2.5 -0.663008 2.236584 -1.29895 1.767767 -1.767767 
C 1.29895 -2.236584 0.663008 -2.5 0 -2.5 
C -0.663008 -2.5 -1.29895 -2.236584 -1.767767 -1.767767 
C -2.236584 -1.29895 -2.5 -0.663008 -2.5 0 
C -2.5 0.663008 -2.236584 1.29895 -1.767767 1.767767 
C -1.29895 2.236584 -0.663008 2.5 0 2.5 
z
"/>
    </defs>
    <g clip-path="url(#p33cf8955bb)">
     <use xlink:href="#C0_0_87635c739a" x="76.840285" y="118.276692" style="fill: #ffffff; stroke: #000000; stroke-width: 0.4"/>
    </g>
    <g clip-path="url(#p33cf8955bb)">
     <use xlink:href="#C0_0_87635c739a" x="79.602168" y="118.279758" style="fill: #ffffff; stroke: #000000; stroke-width: 0.4"/>
    </g>
    <g clip-path="url(#p33cf8955bb)">
     <use xlink:href="#C0_0_87635c739a" x="76.520625" y="118.528095" style="fill: #ffffff; stroke: #000000; stroke-width: 0.4"/>
    </g>
   </g>
   <g id="PathCollection_2">
    <defs>
     <path id="C1_0_d4931375cf" d="M 0 2.5 
C 0.663008 2.5 1.29895 2.236584 1.767767 1.767767 
C 2.236584 1.29895 2.5 0.663008 2.5 -0 
C 2.5 -0.663008 2.236584 -1.29895 1.767767 -1.767767 
C 1.29895 -2.236584 0.663008 -2.5 0 -2.5 
C -0.663008 -2.5 -1.29895 -2.236584 -1.767767 -1.767767 
C -2.236584 -1.29895 -2.5 -0.663008 -2.5 0 
C -2.5 0.663008 -2.236584 1.29895 -1.767767 1.767767 
C -1.29895 2.236584 -0.663008 2.5 0 2.5 
z
"/>
    </defs>
    <g clip-path="url(#p33cf8955bb)">
     <use xlink:href="#C1_0_d4931375cf" x="101.103461" y="123.03496" style="fill: #ffffff; stroke: #000000; stroke-width: 0.4"/>
    </g>
    <g clip-path="url(#p33cf8955bb)">
     <use xlink:href="#C1_0_d4931375cf" x="96.947038" y="123.340528" style="fill: #ffffff; stroke: #000000; stroke-width: 0.4"/>
    </g>
    <g clip-path="url(#p33cf8955bb)">
     <use xlink:href="#C1_0_d4931375cf" x="100.707352" y="123.170881" style="fill: #ffffff; stroke: #000000; stroke-width: 0.4"/>
    </g>
   </g>
   <g id="PathCollection_3">
    <defs>
     <path id="C2_0_7dacdcd6bd" d="M 0 2.5 
C 0.663008 2.5 1.29895 2.236584 1.767767 1.767767 
C 2.236584 1.29895 2.5 0.663008 2.5 -0 
C 2.5 -0.663008 2.236584 -1.29895 1.767767 -1.767767 
C 1.29895 -2.236584 0.663008 -2.5 0 -2.5 
C -0.663008 -2.5 -1.29895 -2.236584 -1.767767 -1.767767 
C -2.236584 -1.29895 -2.5 -0.663008 -2.5 0 
C -2.5 0.663008 -2.236584 1.29895 -1.767767 1.767767 
C -1.29895 2.236584 -0.663008 2.5 0 2.5 
z
"/>
    </defs>
    <g clip-path="url(#p33cf8955bb)">
     <use xlink:href="#C2_0_7dacdcd6bd" x="131.383067" y="111.81072" style="fill: #ffffff; stroke: #000000; stroke-width: 0.4"/>
    </g>
    <g clip-path="url(#p33cf8955bb)">
     <use xlink:href="#C2_0_7dacdcd6bd" x="130.070993" y="110.331937" style="fill: #ffffff; stroke: #000000; stroke-width: 0.4"/>
    </g>
    <g clip-path="url(#p33cf8955bb)">
     <use xlink:href="#C2_0_7dacdcd6bd" x="128.949662" y="114.60886" style="fill: #ffffff; stroke: #000000; stroke-width: 0.4"/>
    </g>
   </g>
   <g id="PathCollection_4">
    <defs>
     <path id="C3_0_d8390f7460" d="M 0 2.5 
C 0.663008 2.5 1.29895 2.236584 1.767767 1.767767 
C 2.236584 1.29895 2.5 0.663008 2.5 -0 
C 2.5 -0.663008 2.236584 -1.29895 1.767767 -1.767767 
C 1.29895 -2.236584 0.663008 -2.5 0 -2.5 
C -0.663008 -2.5 -1.29895 -2.236584 -1.767767 -1.767767 
C -2.236584 -1.29895 -2.5 -0.663008 -2.5 0 
C -2.5 0.663008 -2.236584 1.29895 -1.767767 1.767767 
C -1.29895 2.236584 -0.663008 2.5 0 2.5 
z
"/>
    </defs>
    <g clip-path="url(#p33cf8955bb)">
     <use xlink:href="#C3_0_d8390f7460" x="148.368059" y="122.665009" style="fill: #ffffff; stroke: #000000; stroke-width: 0.4"/>
    </g>
    <g clip-path="url(#p33cf8955bb)">
     <use xlink:href="#C3_0_d8390f7460" x="150.247988" y="122.69669" style="fill: #ffffff; stroke: #000000; stroke-width: 0.4"/>
    </g>
    <g clip-path="url(#p33cf8955bb)">
     <use xlink:href="#C3_0_d8390f7460" x="151.381362" y="122.914368" style="fill: #ffffff; stroke: #000000; stroke-width: 0.4"/>
    </g>
   </g>
   <g id="PathCollection_5">
    <defs>
     <path id="C4_0_77a16ae662" d="M 0 2.5 
C 0.663008 2.5 1.29895 2.236584 1.767767 1.767767 
C 2.236584 1.29895 2.5 0.663008 2.5 -0 
C 2.5 -0.663008 2.236584 -1.29895 1.767767 -1.767767 
C 1.29895 -2.236584 0.663008 -2.5 0 -2.5 
C -0.663008 -2.5 -1.29895 -2.236584 -1.767767 -1.767767 
C -2.236584 -1.29895 -2.5 -0.663008 -2.5 0 
C -2.5 0.663008 -2.236584 1.29895 -1.767767 1.767767 
C -1.29895 2.236584 -0.663008 2.5 0 2.5 
z
"/>
    </defs>
    <g clip-path="url(#p33cf8955bb)">
     <use xlink:href="#C4_0_77a16ae662" x="181.465066" y="82.03884" style="fill: #ffffff; stroke: #000000; stroke-width: 0.4"/>
    </g>
    <g clip-path="url(#p33cf8955bb)">
     <use xlink:href="#C4_0_77a16ae662" x="182.457242" y="82.347473" style="fill: #ffffff; stroke: #000000; stroke-width: 0.4"/>
    </g>
    <g clip-path="url(#p33cf8955bb)">
     <use xlink:href="#C4_0_77a16ae662" x="180.229856" y="82.654063" style="fill: #ffffff; stroke: #000000; stroke-width: 0.4"/>
    </g>
   </g>
   <g id="PathCollection_6">
    <defs>
     <path id="C5_0_4b92d60dfc" d="M 0 2.5 
C 0.663008 2.5 1.29895 2.236584 1.767767 1.767767 
C 2.236584 1.29895 2.5 0.663008 2.5 -0 
C 2.5 -0.663008 2.236584 -1.29895 1.767767 -1.767767 
C 1.29895 -2.236584 0.663008 -2.5 0 -2.5 
C -0.663008 -2.5 -1.29895 -2.236584 -1.767767 -1.767767 
C -2.236584 -1.29895 -2.5 -0.663008 -2.5 0 
C -2.5 0.663008 -2.236584 1.29895 -1.767767 1.767767 
C -1.29895 2.236584 -0.663008 2.5 0 2.5 
z
"/>
    </defs>
    <g clip-path="url(#p33cf8955bb)">
     <use xlink:href="#C5_0_4b92d60dfc" x="202.39448" y="120.074328" style="fill: #ffffff; stroke: #000000; stroke-width: 0.4"/>
    </g>
    <g clip-path="url(#p33cf8955bb)">
     <use xlink:href="#C5_0_4b92d60dfc" x="200.999759" y="119.994615" style="fill: #ffffff; stroke: #000000; stroke-width: 0.4"/>
    </g>
    <g clip-path="url(#p33cf8955bb)">
     <use xlink:href="#C5_0_4b92d60dfc" x="201.489855" y="120.001768" style="fill: #ffffff; stroke: #000000; stroke-width: 0.4"/>
    </g>
   </g>
   <g id="PathCollection_7">
    <defs>
     <path id="C6_0_00dabb9cf4" d="M 0 2.5 
C 0.663008 2.5 1.29895 2.236584 1.767767 1.767767 
C 2.236584 1.29895 2.5 0.663008 2.5 -0 
C 2.5 -0.663008 2.236584 -1.29895 1.767767 -1.767767 
C 1.29895 -2.236584 0.663008 -2.5 0 -2.5 
C -0.663008 -2.5 -1.29895 -2.236584 -1.767767 -1.767767 
C -2.236584 -1.29895 -2.5 -0.663008 -2.5 0 
C -2.5 0.663008 -2.236584 1.29895 -1.767767 1.767767 
C -1.29895 2.236584 -0.663008 2.5 0 2.5 
z
"/>
    </defs>
    <g clip-path="url(#p33cf8955bb)">
     <use xlink:href="#C6_0_00dabb9cf4" x="229.306997" y="41.018192" style="fill: #ffffff; stroke: #000000; stroke-width: 0.4"/>
    </g>
    <g clip-path="url(#p33cf8955bb)">
     <use xlink:href="#C6_0_00dabb9cf4" x="229.889291" y="42.8424" style="fill: #ffffff; stroke: #000000; stroke-width: 0.4"/>
    </g>
    <g clip-path="url(#p33cf8955bb)">
     <use xlink:href="#C6_0_00dabb9cf4" x="232.160114" y="45.531189" style="fill: #ffffff; stroke: #000000; stroke-width: 0.4"/>
    </g>
   </g>
   <g id="PathCollection_8">
    <defs>
     <path id="C7_0_84a2741474" d="M 0 2.5 
C 0.663008 2.5 1.29895 2.236584 1.767767 1.767767 
C 2.236584 1.29895 2.5 0.663008 2.5 -0 
C 2.5 -0.663008 2.236584 -1.29895 1.767767 -1.767767 
C 1.29895 -2.236584 0.663008 -2.5 0 -2.5 
C -0.663008 -2.5 -1.29895 -2.236584 -1.767767 -1.767767 
C -2.236584 -1.29895 -2.5 -0.663008 -2.5 0 
C -2.5 0.663008 -2.236584 1.29895 -1.767767 1.767767 
C -1.29895 2.236584 -0.663008 2.5 0 2.5 
z
"/>
    </defs>
    <g clip-path="url(#p33cf8955bb)">
     <use xlink:href="#C7_0_84a2741474" x="253.444003" y="108.256326" style="fill: #ffffff; stroke: #000000; stroke-width: 0.4"/>
    </g>
    <g clip-path="url(#p33cf8955bb)">
     <use xlink:href="#C7_0_84a2741474" x="252.511827" y="112.290022" style="fill: #ffffff; stroke: #000000; stroke-width: 0.4"/>
    </g>
    <g clip-path="url(#p33cf8955bb)">
     <use xlink:href="#C7_0_84a2741474" x="252.096895" y="111.434637" style="fill: #ffffff; stroke: #000000; stroke-width: 0.4"/>
    </g>
   </g>
   <g id="PathCollection_9">
    <defs>
     <path id="C8_0_1573528a79" d="M 0 2.5 
C 0.663008 2.5 1.29895 2.236584 1.767767 1.767767 
C 2.236584 1.29895 2.5 0.663008 2.5 -0 
C 2.5 -0.663008 2.236584 -1.29895 1.767767 -1.767767 
C 1.29895 -2.236584 0.663008 -2.5 0 -2.5 
C -0.663008 -2.5 -1.29895 -2.236584 -1.767767 -1.767767 
C -2.236584 -1.29895 -2.5 -0.663008 -2.5 0 
C -2.5 0.663008 -2.236584 1.29895 -1.767767 1.767767 
C -1.29895 2.236584 -0.663008 2.5 0 2.5 
z
"/>
    </defs>
    <g clip-path="url(#p33cf8955bb)">
     <use xlink:href="#C8_0_1573528a79" x="285.231428" y="118.725334" style="fill: #ffffff; stroke: #000000; stroke-width: 0.4"/>
    </g>
    <g clip-path="url(#p33cf8955bb)">
     <use xlink:href="#C8_0_1573528a79" x="280.310845" y="118.139748" style="fill: #ffffff; stroke: #000000; stroke-width: 0.4"/>
    </g>
    <g clip-path="url(#p33cf8955bb)">
     <use xlink:href="#C8_0_1573528a79" x="282.539144" y="118.040618" style="fill: #ffffff; stroke: #000000; stroke-width: 0.4"/>
    </g>
   </g>
   <g id="PathCollection_10">
    <defs>
     <path id="C9_0_dc3c12ca2f" d="M 0 2.5 
C 0.663008 2.5 1.29895 2.236584 1.767767 1.767767 
C 2.236584 1.29895 2.5 0.663008 2.5 -0 
C 2.5 -0.663008 2.236584 -1.29895 1.767767 -1.767767 
C 1.29895 -2.236584 0.663008 -2.5 0 -2.5 
C -0.663008 -2.5 -1.29895 -2.236584 -1.767767 -1.767767 
C -2.236584 -1.29895 -2.5 -0.663008 -2.5 0 
C -2.5 0.663008 -2.236584 1.29895 -1.767767 1.767767 
C -1.29895 2.236584 -0.663008 2.5 0 2.5 
z
"/>
    </defs>
    <g clip-path="url(#p33cf8955bb)">
     <use xlink:href="#C9_0_dc3c12ca2f" x="305.632535" y="123.8045" style="fill: #ffffff; stroke: #000000; stroke-width: 0.4"/>
    </g>
    <g clip-path="url(#p33cf8955bb)">
     <use xlink:href="#C9_0_dc3c12ca2f" x="303.2578" y="123.676754" style="fill: #ffffff; stroke: #000000; stroke-width: 0.4"/>
    </g>
    <g clip-path="url(#p33cf8955bb)">
     <use xlink:href="#C9_0_dc3c12ca2f" x="303.883776" y="123.831071" style="fill: #ffffff; stroke: #000000; stroke-width: 0.4"/>
    </g>
   </g>
   <g id="PathCollection_11">
    <path d="M 77.133287 120.927395 
L 74.633287 125.927395 
L 79.633287 125.927395 
z
" clip-path="url(#p33cf8955bb)" style="fill: #ffffff; stroke: #000000; stroke-width: 0.4"/>
    <path d="M 77.359568 120.804759 
L 74.859568 125.804759 
L 79.859568 125.804759 
z
" clip-path="url(#p33cf8955bb)" style="fill: #ffffff; stroke: #000000; stroke-width: 0.4"/>
    <path d="M 78.674922 120.984625 
L 76.174922 125.984625 
L 81.174922 125.984625 
z
" clip-path="url(#p33cf8955bb)" style="fill: #ffffff; stroke: #000000; stroke-width: 0.4"/>
   </g>
   <g id="PathCollection_12">
    <path d="M 96.763103 121.511958 
L 94.263103 126.511958 
L 99.263103 126.511958 
z
" clip-path="url(#p33cf8955bb)" style="fill: #ffffff; stroke: #000000; stroke-width: 0.4"/>
    <path d="M 99.305043 121.53853 
L 96.805043 126.53853 
L 101.805043 126.53853 
z
" clip-path="url(#p33cf8955bb)" style="fill: #ffffff; stroke: #000000; stroke-width: 0.4"/>
    <path d="M 100.888356 121.610067 
L 98.388356 126.610067 
L 103.388356 126.610067 
z
" clip-path="url(#p33cf8955bb)" style="fill: #ffffff; stroke: #000000; stroke-width: 0.4"/>
   </g>
   <g id="PathCollection_13">
    <path d="M 130.55524 116.008678 
L 128.05524 121.008678 
L 133.05524 121.008678 
z
" clip-path="url(#p33cf8955bb)" style="fill: #ffffff; stroke: #000000; stroke-width: 0.4"/>
    <path d="M 127.316931 117.28409 
L 124.816931 122.28409 
L 129.816931 122.28409 
z
" clip-path="url(#p33cf8955bb)" style="fill: #ffffff; stroke: #000000; stroke-width: 0.4"/>
    <path d="M 129.56521 116.809898 
L 127.06521 121.809898 
L 132.06521 121.809898 
z
" clip-path="url(#p33cf8955bb)" style="fill: #ffffff; stroke: #000000; stroke-width: 0.4"/>
   </g>
   <g id="PathCollection_14">
    <path d="M 150.301301 121.22683 
L 147.801301 126.22683 
L 152.801301 126.22683 
z
" clip-path="url(#p33cf8955bb)" style="fill: #ffffff; stroke: #000000; stroke-width: 0.4"/>
    <path d="M 148.45345 121.314719 
L 145.95345 126.314719 
L 150.95345 126.314719 
z
" clip-path="url(#p33cf8955bb)" style="fill: #ffffff; stroke: #000000; stroke-width: 0.4"/>
   </g>
   <g id="PathCollection_15">
    <path d="M 181.775995 107.346504 
L 179.275995 112.346504 
L 184.275995 112.346504 
z
" clip-path="url(#p33cf8955bb)" style="fill: #ffffff; stroke: #000000; stroke-width: 0.4"/>
    <path d="M 181.788755 110.188588 
L 179.288755 115.188588 
L 184.288755 115.188588 
z
" clip-path="url(#p33cf8955bb)" style="fill: #ffffff; stroke: #000000; stroke-width: 0.4"/>
    <path d="M 180.677688 109.988283 
L 178.177688 114.988283 
L 183.177688 114.988283 
z
" clip-path="url(#p33cf8955bb)" style="fill: #ffffff; stroke: #000000; stroke-width: 0.4"/>
   </g>
   <g id="PathCollection_16">
    <path d="M 201.256464 120.043395 
L 198.756464 125.043395 
L 203.756464 125.043395 
z
" clip-path="url(#p33cf8955bb)" style="fill: #ffffff; stroke: #000000; stroke-width: 0.4"/>
    <path d="M 199.664436 120.462401 
L 197.164436 125.462401 
L 202.164436 125.462401 
z
" clip-path="url(#p33cf8955bb)" style="fill: #ffffff; stroke: #000000; stroke-width: 0.4"/>
    <path d="M 201.971394 119.874771 
L 199.471394 124.874771 
L 204.471394 124.874771 
z
" clip-path="url(#p33cf8955bb)" style="fill: #ffffff; stroke: #000000; stroke-width: 0.4"/>
   </g>
   <g id="PathCollection_17">
    <path d="M 231.442378 94.536174 
L 228.942378 99.536174 
L 233.942378 99.536174 
z
" clip-path="url(#p33cf8955bb)" style="fill: #ffffff; stroke: #000000; stroke-width: 0.4"/>
    <path d="M 230.149421 98.702725 
L 227.649421 103.702725 
L 232.649421 103.702725 
z
" clip-path="url(#p33cf8955bb)" style="fill: #ffffff; stroke: #000000; stroke-width: 0.4"/>
    <path d="M 232.573116 100.030257 
L 230.073116 105.030257 
L 235.073116 105.030257 
z
" clip-path="url(#p33cf8955bb)" style="fill: #ffffff; stroke: #000000; stroke-width: 0.4"/>
   </g>
   <g id="PathCollection_18">
    <path d="M 250.951153 116.473672 
L 248.451153 121.473672 
L 253.451153 121.473672 
z
" clip-path="url(#p33cf8955bb)" style="fill: #ffffff; stroke: #000000; stroke-width: 0.4"/>
    <path d="M 254.206094 116.412354 
L 251.706094 121.412354 
L 256.706094 121.412354 
z
" clip-path="url(#p33cf8955bb)" style="fill: #ffffff; stroke: #000000; stroke-width: 0.4"/>
    <path d="M 253.502126 117.650975 
L 251.002126 122.650975 
L 256.002126 122.650975 
z
" clip-path="url(#p33cf8955bb)" style="fill: #ffffff; stroke: #000000; stroke-width: 0.4"/>
   </g>
   <g id="PathCollection_19">
    <path d="M 281.191682 120.215085 
L 278.691682 125.215085 
L 283.691682 125.215085 
z
" clip-path="url(#p33cf8955bb)" style="fill: #ffffff; stroke: #000000; stroke-width: 0.4"/>
    <path d="M 282.177076 120.166031 
L 279.677076 125.166031 
L 284.677076 125.166031 
z
" clip-path="url(#p33cf8955bb)" style="fill: #ffffff; stroke: #000000; stroke-width: 0.4"/>
    <path d="M 284.982522 120.383709 
L 282.482522 125.383709 
L 287.482522 125.383709 
z
" clip-path="url(#p33cf8955bb)" style="fill: #ffffff; stroke: #000000; stroke-width: 0.4"/>
   </g>
   <g id="PathCollection_20">
    <path d="M 302.094974 121.547727 
L 299.594974 126.547727 
L 304.594974 126.547727 
z
" clip-path="url(#p33cf8955bb)" style="fill: #ffffff; stroke: #000000; stroke-width: 0.4"/>
    <path d="M 303.806816 121.594738 
L 301.306816 126.594738 
L 306.306816 126.594738 
z
" clip-path="url(#p33cf8955bb)" style="fill: #ffffff; stroke: #000000; stroke-width: 0.4"/>
    <path d="M 301.092695 121.527288 
L 298.592695 126.527288 
L 303.592695 126.527288 
z
" clip-path="url(#p33cf8955bb)" style="fill: #ffffff; stroke: #000000; stroke-width: 0.4"/>
   </g>
   <g id="PathCollection_21">
    <path d="M 77.466345 122.898291 
L 82.466345 122.898291 
L 82.466345 117.898291 
L 77.466345 117.898291 
z
" clip-path="url(#p33cf8955bb)" style="fill: #ffffff; stroke: #000000; stroke-width: 0.4"/>
    <path d="M 75.702266 122.290222 
L 80.702266 122.290222 
L 80.702266 117.290222 
L 75.702266 117.290222 
z
" clip-path="url(#p33cf8955bb)" style="fill: #ffffff; stroke: #000000; stroke-width: 0.4"/>
    <path d="M 74.720159 122.610097 
L 79.720159 122.610097 
L 79.720159 117.610097 
L 74.720159 117.610097 
z
" clip-path="url(#p33cf8955bb)" style="fill: #ffffff; stroke: #000000; stroke-width: 0.4"/>
   </g>
   <g id="PathCollection_22">
    <path d="M 94.636886 126.23705 
L 99.636886 126.23705 
L 99.636886 121.23705 
L 94.636886 121.23705 
z
" clip-path="url(#p33cf8955bb)" style="fill: #ffffff; stroke: #000000; stroke-width: 0.4"/>
    <path d="M 97.818222 126.185952 
L 102.818222 126.185952 
L 102.818222 121.185952 
L 97.818222 121.185952 
z
" clip-path="url(#p33cf8955bb)" style="fill: #ffffff; stroke: #000000; stroke-width: 0.4"/>
    <path d="M 97.866648 126.195149 
L 102.866648 126.195149 
L 102.866648 121.195149 
L 97.866648 121.195149 
z
" clip-path="url(#p33cf8955bb)" style="fill: #ffffff; stroke: #000000; stroke-width: 0.4"/>
   </g>
   <g id="PathCollection_23">
    <path d="M 125.561216 116.323991 
L 130.561216 116.323991 
L 130.561216 111.323991 
L 125.561216 111.323991 
z
" clip-path="url(#p33cf8955bb)" style="fill: #ffffff; stroke: #000000; stroke-width: 0.4"/>
    <path d="M 129.009693 114.211589 
L 134.009693 114.211589 
L 134.009693 109.211589 
L 129.009693 109.211589 
z
" clip-path="url(#p33cf8955bb)" style="fill: #ffffff; stroke: #000000; stroke-width: 0.4"/>
    <path d="M 125.035707 114.618331 
L 130.035707 114.618331 
L 130.035707 109.618331 
L 125.035707 109.618331 
z
" clip-path="url(#p33cf8955bb)" style="fill: #ffffff; stroke: #000000; stroke-width: 0.4"/>
   </g>
   <g id="PathCollection_24">
    <path d="M 145.682041 125.388819 
L 150.682041 125.388819 
L 150.682041 120.388819 
L 145.682041 120.388819 
z
" clip-path="url(#p33cf8955bb)" style="fill: #ffffff; stroke: #000000; stroke-width: 0.4"/>
    <path d="M 148.902589 125.663728 
L 153.902589 125.663728 
L 153.902589 120.663728 
L 148.902589 120.663728 
z
" clip-path="url(#p33cf8955bb)" style="fill: #ffffff; stroke: #000000; stroke-width: 0.4"/>
    <path d="M 147.581506 125.342831 
L 152.581506 125.342831 
L 152.581506 120.342831 
L 147.581506 120.342831 
z
" clip-path="url(#p33cf8955bb)" style="fill: #ffffff; stroke: #000000; stroke-width: 0.4"/>
   </g>
   <g id="PathCollection_25">
    <path d="M 180.472948 84.959889 
L 185.472948 84.959889 
L 185.472948 79.959889 
L 180.472948 79.959889 
z
" clip-path="url(#p33cf8955bb)" style="fill: #ffffff; stroke: #000000; stroke-width: 0.4"/>
    <path d="M 175.90353 88.369164 
L 180.90353 88.369164 
L 180.90353 83.369164 
L 175.90353 83.369164 
z
" clip-path="url(#p33cf8955bb)" style="fill: #ffffff; stroke: #000000; stroke-width: 0.4"/>
    <path d="M 177.931047 90.889329 
L 182.931047 90.889329 
L 182.931047 85.889329 
L 177.931047 85.889329 
z
" clip-path="url(#p33cf8955bb)" style="fill: #ffffff; stroke: #000000; stroke-width: 0.4"/>
   </g>
   <g id="PathCollection_26">
    <path d="M 197.143945 120.94736 
L 202.143945 120.94736 
L 202.143945 115.94736 
L 197.143945 115.94736 
z
" clip-path="url(#p33cf8955bb)" style="fill: #ffffff; stroke: #000000; stroke-width: 0.4"/>
    <path d="M 197.273524 121.601417 
L 202.273524 121.601417 
L 202.273524 116.601417 
L 197.273524 116.601417 
z
" clip-path="url(#p33cf8955bb)" style="fill: #ffffff; stroke: #000000; stroke-width: 0.4"/>
    <path d="M 199.614163 121.974434 
L 204.614163 121.974434 
L 204.614163 116.974434 
L 199.614163 116.974434 
z
" clip-path="url(#p33cf8955bb)" style="fill: #ffffff; stroke: #000000; stroke-width: 0.4"/>
   </g>
   <g id="PathCollection_27">
    <path d="M 230.123968 31.963858 
L 235.123968 31.963858 
L 235.123968 26.963858 
L 230.123968 26.963858 
z
" clip-path="url(#p33cf8955bb)" style="fill: #ffffff; stroke: #000000; stroke-width: 0.4"/>
    <path d="M 231.075189 34.886677 
L 236.075189 34.886677 
L 236.075189 29.886677 
L 231.075189 29.886677 
z
" clip-path="url(#p33cf8955bb)" style="fill: #ffffff; stroke: #000000; stroke-width: 0.4"/>
    <path d="M 228.068587 37.893298 
L 233.068587 37.893298 
L 233.068587 32.893298 
L 228.068587 32.893298 
z
" clip-path="url(#p33cf8955bb)" style="fill: #ffffff; stroke: #000000; stroke-width: 0.4"/>
   </g>
   <g id="PathCollection_28">
    <path d="M 249.159249 110.494703 
L 254.159249 110.494703 
L 254.159249 105.494703 
L 249.159249 105.494703 
z
" clip-path="url(#p33cf8955bb)" style="fill: #ffffff; stroke: #000000; stroke-width: 0.4"/>
    <path d="M 250.980172 112.773685 
L 255.980172 112.773685 
L 255.980172 107.773685 
L 250.980172 107.773685 
z
" clip-path="url(#p33cf8955bb)" style="fill: #ffffff; stroke: #000000; stroke-width: 0.4"/>
    <path d="M 248.170026 113.503368 
L 253.170026 113.503368 
L 253.170026 108.503368 
L 248.170026 108.503368 
z
" clip-path="url(#p33cf8955bb)" style="fill: #ffffff; stroke: #000000; stroke-width: 0.4"/>
   </g>
   <g id="PathCollection_29">
    <path d="M 280.596633 116.991334 
L 285.596633 116.991334 
L 285.596633 111.991334 
L 280.596633 111.991334 
z
" clip-path="url(#p33cf8955bb)" style="fill: #ffffff; stroke: #000000; stroke-width: 0.4"/>
    <path d="M 279.525779 116.620361 
L 284.525779 116.620361 
L 284.525779 111.620361 
L 279.525779 111.620361 
z
" clip-path="url(#p33cf8955bb)" style="fill: #ffffff; stroke: #000000; stroke-width: 0.4"/>
    <path d="M 281.911991 117.830367 
L 286.911991 117.830367 
L 286.911991 112.830367 
L 281.911991 112.830367 
z
" clip-path="url(#p33cf8955bb)" style="fill: #ffffff; stroke: #000000; stroke-width: 0.4"/>
   </g>
   <g id="PathCollection_30">
    <path d="M 298.390486 125.949878 
L 303.390486 125.949878 
L 303.390486 120.949878 
L 298.390486 120.949878 
z
" clip-path="url(#p33cf8955bb)" style="fill: #ffffff; stroke: #000000; stroke-width: 0.4"/>
    <path d="M 298.722736 126.033679 
L 303.722736 126.033679 
L 303.722736 121.033679 
L 298.722736 121.033679 
z
" clip-path="url(#p33cf8955bb)" style="fill: #ffffff; stroke: #000000; stroke-width: 0.4"/>
    <path d="M 299.402382 125.969295 
L 304.402382 125.969295 
L 304.402382 120.969295 
L 299.402382 120.969295 
z
" clip-path="url(#p33cf8955bb)" style="fill: #ffffff; stroke: #000000; stroke-width: 0.4"/>
   </g>
   <g id="PathCollection_31">
    <path d="M 80.502561 125.498453 
L 84.038095 121.962919 
L 80.502561 118.427385 
L 76.967027 121.962919 
z
" clip-path="url(#p33cf8955bb)" style="fill: #ffffff; stroke: #000000; stroke-width: 0.4"/>
    <path d="M 76.566713 124.846439 
L 80.102246 121.310905 
L 76.566713 117.775371 
L 73.031179 121.310905 
z
" clip-path="url(#p33cf8955bb)" style="fill: #ffffff; stroke: #000000; stroke-width: 0.4"/>
    <path d="M 79.076797 124.41517 
L 82.61233 120.879636 
L 79.076797 117.344102 
L 75.541263 120.879636 
z
" clip-path="url(#p33cf8955bb)" style="fill: #ffffff; stroke: #000000; stroke-width: 0.4"/>
   </g>
   <g id="PathCollection_32">
    <path d="M 96.322679 126.884237 
L 99.858213 123.348703 
L 96.322679 119.813169 
L 92.787145 123.348703 
z
" clip-path="url(#p33cf8955bb)" style="fill: #ffffff; stroke: #000000; stroke-width: 0.4"/>
    <path d="M 99.246074 127.153014 
L 102.781608 123.61748 
L 99.246074 120.081946 
L 95.710541 123.61748 
z
" clip-path="url(#p33cf8955bb)" style="fill: #ffffff; stroke: #000000; stroke-width: 0.4"/>
    <path d="M 98.165792 127.32777 
L 101.701326 123.792236 
L 98.165792 120.256702 
L 94.630258 123.792236 
z
" clip-path="url(#p33cf8955bb)" style="fill: #ffffff; stroke: #000000; stroke-width: 0.4"/>
   </g>
   <g id="PathCollection_33">
    <path d="M 127.217909 119.629309 
L 130.753443 116.093775 
L 127.217909 112.558241 
L 123.682375 116.093775 
z
" clip-path="url(#p33cf8955bb)" style="fill: #ffffff; stroke: #000000; stroke-width: 0.4"/>
    <path d="M 128.602483 117.941023 
L 132.138017 114.405489 
L 128.602483 110.869955 
L 125.066949 114.405489 
z
" clip-path="url(#p33cf8955bb)" style="fill: #ffffff; stroke: #000000; stroke-width: 0.4"/>
    <path d="M 130.876663 119.310456 
L 134.412197 115.774922 
L 130.876663 112.239388 
L 127.341129 115.774922 
z
" clip-path="url(#p33cf8955bb)" style="fill: #ffffff; stroke: #000000; stroke-width: 0.4"/>
   </g>
   <g id="PathCollection_34">
    <path d="M 149.885607 125.698758 
L 153.421141 122.163224 
L 149.885607 118.62769 
L 146.350073 122.163224 
z
" clip-path="url(#p33cf8955bb)" style="fill: #ffffff; stroke: #000000; stroke-width: 0.4"/>
    <path d="M 149.756869 126.576626 
L 153.292403 123.041092 
L 149.756869 119.505558 
L 146.221335 123.041092 
z
" clip-path="url(#p33cf8955bb)" style="fill: #ffffff; stroke: #000000; stroke-width: 0.4"/>
    <path d="M 149.253475 126.811678 
L 152.789009 123.276144 
L 149.253475 119.74061 
L 145.717941 123.276144 
z
" clip-path="url(#p33cf8955bb)" style="fill: #ffffff; stroke: #000000; stroke-width: 0.4"/>
   </g>
   <g id="PathCollection_35">
    <path d="M 182.161449 110.423449 
L 185.696983 106.887915 
L 182.161449 103.352381 
L 178.625915 106.887915 
z
" clip-path="url(#p33cf8955bb)" style="fill: #ffffff; stroke: #000000; stroke-width: 0.4"/>
    <path d="M 180.977376 108.630923 
L 184.51291 105.095389 
L 180.977376 101.559855 
L 177.441842 105.095389 
z
" clip-path="url(#p33cf8955bb)" style="fill: #ffffff; stroke: #000000; stroke-width: 0.4"/>
    <path d="M 182.126179 108.967149 
L 185.661713 105.431615 
L 182.126179 101.896081 
L 178.590645 105.431615 
z
" clip-path="url(#p33cf8955bb)" style="fill: #ffffff; stroke: #000000; stroke-width: 0.4"/>
   </g>
   <g id="PathCollection_36">
    <path d="M 202.288298 124.017626 
L 205.823832 120.482092 
L 202.288298 116.946558 
L 198.752764 120.482092 
z
" clip-path="url(#p33cf8955bb)" style="fill: #ffffff; stroke: #000000; stroke-width: 0.4"/>
    <path d="M 202.74563 125.297126 
L 206.281164 121.761592 
L 202.74563 118.226058 
L 199.210096 121.761592 
z
" clip-path="url(#p33cf8955bb)" style="fill: #ffffff; stroke: #000000; stroke-width: 0.4"/>
    <path d="M 202.901892 124.468312 
L 206.437426 120.932778 
L 202.901892 117.397244 
L 199.366358 120.932778 
z
" clip-path="url(#p33cf8955bb)" style="fill: #ffffff; stroke: #000000; stroke-width: 0.4"/>
   </g>
   <g id="PathCollection_37">
    <path d="M 234.204991 111.45359 
L 237.740525 107.918056 
L 234.204991 104.382522 
L 230.669457 107.918056 
z
" clip-path="url(#p33cf8955bb)" style="fill: #ffffff; stroke: #000000; stroke-width: 0.4"/>
    <path d="M 233.746796 111.324822 
L 237.28233 107.789288 
L 233.746796 104.253754 
L 230.211262 107.789288 
z
" clip-path="url(#p33cf8955bb)" style="fill: #ffffff; stroke: #000000; stroke-width: 0.4"/>
    <path d="M 230.511919 109.767348 
L 234.047453 106.231814 
L 230.511919 102.69628 
L 226.976385 106.231814 
z
" clip-path="url(#p33cf8955bb)" style="fill: #ffffff; stroke: #000000; stroke-width: 0.4"/>
   </g>
   <g id="PathCollection_38">
    <path d="M 249.749557 124.429478 
L 253.285091 120.893944 
L 249.749557 117.35841 
L 246.214023 120.893944 
z
" clip-path="url(#p33cf8955bb)" style="fill: #ffffff; stroke: #000000; stroke-width: 0.4"/>
    <path d="M 253.134507 126.529615 
L 256.670041 122.994081 
L 253.134507 119.458548 
L 249.598973 122.994081 
z
" clip-path="url(#p33cf8955bb)" style="fill: #ffffff; stroke: #000000; stroke-width: 0.4"/>
    <path d="M 250.780568 125.526046 
L 254.316102 121.990512 
L 250.780568 118.454978 
L 247.245034 121.990512 
z
" clip-path="url(#p33cf8955bb)" style="fill: #ffffff; stroke: #000000; stroke-width: 0.4"/>
   </g>
   <g id="PathCollection_39">
    <path d="M 283.797622 127.259298 
L 287.333156 123.723764 
L 283.797622 120.18823 
L 280.262088 123.723764 
z
" clip-path="url(#p33cf8955bb)" style="fill: #ffffff; stroke: #000000; stroke-width: 0.4"/>
    <path d="M 283.208109 127.274628 
L 286.743643 123.739094 
L 283.208109 120.20356 
L 279.672575 123.739094 
z
" clip-path="url(#p33cf8955bb)" style="fill: #ffffff; stroke: #000000; stroke-width: 0.4"/>
    <path d="M 285.147894 127.254188 
L 288.683428 123.718655 
L 285.147894 120.183121 
L 281.61236 123.718655 
z
" clip-path="url(#p33cf8955bb)" style="fill: #ffffff; stroke: #000000; stroke-width: 0.4"/>
   </g>
   <g id="PathCollection_40">
    <path d="M 302.819995 127.627206 
L 306.355529 124.091672 
L 302.819995 120.556138 
L 299.284462 124.091672 
z
" clip-path="url(#p33cf8955bb)" style="fill: #ffffff; stroke: #000000; stroke-width: 0.4"/>
    <path d="M 304.643497 127.659909 
L 308.179031 124.124375 
L 304.643497 120.588841 
L 301.107963 124.124375 
z
" clip-path="url(#p33cf8955bb)" style="fill: #ffffff; stroke: #000000; stroke-width: 0.4"/>
    <path d="M 301.100513 127.634359 
L 304.636047 124.098825 
L 301.100513 120.563292 
L 297.564979 124.098825 
z
" clip-path="url(#p33cf8955bb)" style="fill: #ffffff; stroke: #000000; stroke-width: 0.4"/>
   </g>
   <g id="PathCollection_41">
    <defs>
     <path id="Ca_0_f366e94c4e" d="M -0.833333 2.5 
L 0.833333 2.5 
L 0.833333 0.833333 
L 2.5 0.833333 
L 2.5 -0.833333 
L 0.833333 -0.833333 
L 0.833333 -2.5 
L -0.833333 -2.5 
L -0.833333 -0.833333 
L -2.5 -0.833333 
L -2.5 0.833333 
L -0.833333 0.833333 
z
"/>
    </defs>
    <g clip-path="url(#p33cf8955bb)">
     <use xlink:href="#Ca_0_f366e94c4e" x="79.330929" y="122.642526" style="fill: #ffffff; stroke: #000000; stroke-width: 0.4"/>
    </g>
    <g clip-path="url(#p33cf8955bb)">
     <use xlink:href="#Ca_0_f366e94c4e" x="79.905547" y="122.740634" style="fill: #ffffff; stroke: #000000; stroke-width: 0.4"/>
    </g>
    <g clip-path="url(#p33cf8955bb)">
     <use xlink:href="#Ca_0_f366e94c4e" x="76.706207" y="122.735524" style="fill: #ffffff; stroke: #000000; stroke-width: 0.4"/>
    </g>
   </g>
   <g id="PathCollection_42">
    <defs>
     <path id="Cb_0_2d3b300f4e" d="M -0.833333 2.5 
L 0.833333 2.5 
L 0.833333 0.833333 
L 2.5 0.833333 
L 2.5 -0.833333 
L 0.833333 -0.833333 
L 0.833333 -2.5 
L -0.833333 -2.5 
L -0.833333 -0.833333 
L -2.5 -0.833333 
L -2.5 0.833333 
L -0.833333 0.833333 
z
"/>
    </defs>
    <g clip-path="url(#p33cf8955bb)">
     <use xlink:href="#Cb_0_2d3b300f4e" x="99.243333" y="123.86173" style="fill: #ffffff; stroke: #000000; stroke-width: 0.4"/>
    </g>
    <g clip-path="url(#p33cf8955bb)">
     <use xlink:href="#Cb_0_2d3b300f4e" x="101.005497" y="123.885235" style="fill: #ffffff; stroke: #000000; stroke-width: 0.4"/>
    </g>
    <g clip-path="url(#p33cf8955bb)">
     <use xlink:href="#Cb_0_2d3b300f4e" x="99.286643" y="123.953706" style="fill: #ffffff; stroke: #000000; stroke-width: 0.4"/>
    </g>
   </g>
   <g id="PathCollection_43">
    <defs>
     <path id="Cc_0_af70c967e0" d="M -0.833333 2.5 
L 0.833333 2.5 
L 0.833333 0.833333 
L 2.5 0.833333 
L 2.5 -0.833333 
L 0.833333 -0.833333 
L 0.833333 -2.5 
L -0.833333 -2.5 
L -0.833333 -0.833333 
L -2.5 -0.833333 
L -2.5 0.833333 
L -0.833333 0.833333 
z
"/>
    </defs>
    <g clip-path="url(#p33cf8955bb)">
     <use xlink:href="#Cc_0_af70c967e0" x="128.46028" y="120.375808" style="fill: #ffffff; stroke: #000000; stroke-width: 0.4"/>
    </g>
    <g clip-path="url(#p33cf8955bb)">
     <use xlink:href="#Cc_0_af70c967e0" x="131.092326" y="121.121842" style="fill: #ffffff; stroke: #000000; stroke-width: 0.4"/>
    </g>
   </g>
   <g id="PathCollection_44">
    <defs>
     <path id="mf5b0054872" d="M -0.833333 2.5 
L 0.833333 2.5 
L 0.833333 0.833333 
L 2.5 0.833333 
L 2.5 -0.833333 
L 0.833333 -0.833333 
L 0.833333 -2.5 
L -0.833333 -2.5 
L -0.833333 -0.833333 
L -2.5 -0.833333 
L -2.5 0.833333 
L -0.833333 0.833333 
z
" style="stroke: #000000; stroke-width: 0.4"/>
    </defs>
    <g clip-path="url(#p33cf8955bb)">
     <use xlink:href="#mf5b0054872" x="149.903253" y="123.442724" style="fill: #ffffff; stroke: #000000; stroke-width: 0.4"/>
    </g>
   </g>
   <g id="PathCollection_45">
    <defs>
     <path id="Cd_0_1685128b04" d="M -0.833333 2.5 
L 0.833333 2.5 
L 0.833333 0.833333 
L 2.5 0.833333 
L 2.5 -0.833333 
L 0.833333 -0.833333 
L 0.833333 -2.5 
L -0.833333 -2.5 
L -0.833333 -0.833333 
L -2.5 -0.833333 
L -2.5 0.833333 
L -0.833333 0.833333 
z
"/>
    </defs>
    <g clip-path="url(#p33cf8955bb)">
     <use xlink:href="#Cd_0_1685128b04" x="181.885652" y="110.174554" style="fill: #ffffff; stroke: #000000; stroke-width: 0.4"/>
    </g>
    <g clip-path="url(#p33cf8955bb)">
     <use xlink:href="#Cd_0_1685128b04" x="181.003079" y="112.204177" style="fill: #ffffff; stroke: #000000; stroke-width: 0.4"/>
    </g>
    <g clip-path="url(#p33cf8955bb)">
     <use xlink:href="#Cd_0_1685128b04" x="183.000703" y="113.235339" style="fill: #ffffff; stroke: #000000; stroke-width: 0.4"/>
    </g>
   </g>
   <g id="PathCollection_46">
    <defs>
     <path id="Ce_0_79733fb1c9" d="M -0.833333 2.5 
L 0.833333 2.5 
L 0.833333 0.833333 
L 2.5 0.833333 
L 2.5 -0.833333 
L 0.833333 -0.833333 
L 0.833333 -2.5 
L -0.833333 -2.5 
L -0.833333 -0.833333 
L -2.5 -0.833333 
L -2.5 0.833333 
L -0.833333 0.833333 
z
"/>
    </defs>
    <g clip-path="url(#p33cf8955bb)">
     <use xlink:href="#Ce_0_79733fb1c9" x="198.523657" y="121.8597" style="fill: #ffffff; stroke: #000000; stroke-width: 0.4"/>
    </g>
    <g clip-path="url(#p33cf8955bb)">
     <use xlink:href="#Ce_0_79733fb1c9" x="199.669333" y="122.28075" style="fill: #ffffff; stroke: #000000; stroke-width: 0.4"/>
    </g>
    <g clip-path="url(#p33cf8955bb)">
     <use xlink:href="#Ce_0_79733fb1c9" x="202.644582" y="122.372727" style="fill: #ffffff; stroke: #000000; stroke-width: 0.4"/>
    </g>
   </g>
   <g id="PathCollection_47">
    <defs>
     <path id="Cf_0_6b4f11b482" d="M -0.833333 2.5 
L 0.833333 2.5 
L 0.833333 0.833333 
L 2.5 0.833333 
L 2.5 -0.833333 
L 0.833333 -0.833333 
L 0.833333 -2.5 
L -0.833333 -2.5 
L -0.833333 -0.833333 
L -2.5 -0.833333 
L -2.5 0.833333 
L -0.833333 0.833333 
z
"/>
    </defs>
    <g clip-path="url(#p33cf8955bb)">
     <use xlink:href="#Cf_0_6b4f11b482" x="229.170499" y="112.133661" style="fill: #ffffff; stroke: #000000; stroke-width: 0.4"/>
    </g>
    <g clip-path="url(#p33cf8955bb)">
     <use xlink:href="#Cf_0_6b4f11b482" x="232.014337" y="113.551126" style="fill: #ffffff; stroke: #000000; stroke-width: 0.4"/>
    </g>
    <g clip-path="url(#p33cf8955bb)">
     <use xlink:href="#Cf_0_6b4f11b482" x="232.929143" y="115.193424" style="fill: #ffffff; stroke: #000000; stroke-width: 0.4"/>
    </g>
   </g>
   <g id="PathCollection_48">
    <defs>
     <path id="C10_0_878e7282c9" d="M -0.833333 2.5 
L 0.833333 2.5 
L 0.833333 0.833333 
L 2.5 0.833333 
L 2.5 -0.833333 
L 0.833333 -0.833333 
L 0.833333 -2.5 
L -0.833333 -2.5 
L -0.833333 -0.833333 
L -2.5 -0.833333 
L -2.5 0.833333 
L -0.833333 0.833333 
z
"/>
    </defs>
    <g clip-path="url(#p33cf8955bb)">
     <use xlink:href="#C10_0_878e7282c9" x="252.835393" y="122.458572" style="fill: #ffffff; stroke: #000000; stroke-width: 0.4"/>
    </g>
    <g clip-path="url(#p33cf8955bb)">
     <use xlink:href="#C10_0_878e7282c9" x="250.46148" y="122.670119" style="fill: #ffffff; stroke: #000000; stroke-width: 0.4"/>
    </g>
    <g clip-path="url(#p33cf8955bb)">
     <use xlink:href="#C10_0_878e7282c9" x="249.875304" y="122.86327" style="fill: #ffffff; stroke: #000000; stroke-width: 0.4"/>
    </g>
   </g>
   <g id="PathCollection_49">
    <defs>
     <path id="C11_0_e089ef78b1" d="M -0.833333 2.5 
L 0.833333 2.5 
L 0.833333 0.833333 
L 2.5 0.833333 
L 2.5 -0.833333 
L 0.833333 -0.833333 
L 0.833333 -2.5 
L -0.833333 -2.5 
L -0.833333 -0.833333 
L -2.5 -0.833333 
L -2.5 0.833333 
L -0.833333 0.833333 
z
"/>
    </defs>
    <g clip-path="url(#p33cf8955bb)">
     <use xlink:href="#C11_0_e089ef78b1" x="282.792104" y="123.741138" style="fill: #ffffff; stroke: #000000; stroke-width: 0.4"/>
    </g>
    <g clip-path="url(#p33cf8955bb)">
     <use xlink:href="#C11_0_e089ef78b1" x="284.910228" y="123.838224" style="fill: #ffffff; stroke: #000000; stroke-width: 0.4"/>
    </g>
    <g clip-path="url(#p33cf8955bb)">
     <use xlink:href="#C11_0_e089ef78b1" x="284.583681" y="123.848444" style="fill: #ffffff; stroke: #000000; stroke-width: 0.4"/>
    </g>
   </g>
   <g id="PathCollection_50">
    <defs>
     <path id="C12_0_93ef591530" d="M -0.833333 2.5 
L 0.833333 2.5 
L 0.833333 0.833333 
L 2.5 0.833333 
L 2.5 -0.833333 
L 0.833333 -0.833333 
L 0.833333 -2.5 
L -0.833333 -2.5 
L -0.833333 -0.833333 
L -2.5 -0.833333 
L -2.5 0.833333 
L -0.833333 0.833333 
z
"/>
    </defs>
    <g clip-path="url(#p33cf8955bb)">
     <use xlink:href="#C12_0_93ef591530" x="303.750005" y="124.117221" style="fill: #ffffff; stroke: #000000; stroke-width: 0.4"/>
    </g>
    <g clip-path="url(#p33cf8955bb)">
     <use xlink:href="#C12_0_93ef591530" x="302.726566" y="124.122331" style="fill: #ffffff; stroke: #000000; stroke-width: 0.4"/>
    </g>
    <g clip-path="url(#p33cf8955bb)">
     <use xlink:href="#C12_0_93ef591530" x="301.790269" y="124.136638" style="fill: #ffffff; stroke: #000000; stroke-width: 0.4"/>
    </g>
   </g>
   <g id="PathCollection_51">
    <defs>
     <path id="C13_0_0be7ab57f6" d="M -1.25 2.5 
L 0 1.25 
L 1.25 2.5 
L 2.5 1.25 
L 1.25 -0 
L 2.5 -1.25 
L 1.25 -2.5 
L 0 -1.25 
L -1.25 -2.5 
L -2.5 -1.25 
L -1.25 0 
L -2.5 1.25 
z
"/>
    </defs>
    <g clip-path="url(#p33cf8955bb)">
     <use xlink:href="#C13_0_0be7ab57f6" x="78.581248" y="121.991534" style="fill: #ffffff; stroke: #000000; stroke-width: 0.4"/>
    </g>
    <g clip-path="url(#p33cf8955bb)">
     <use xlink:href="#C13_0_0be7ab57f6" x="80.795069" y="122.707931" style="fill: #ffffff; stroke: #000000; stroke-width: 0.4"/>
    </g>
    <g clip-path="url(#p33cf8955bb)">
     <use xlink:href="#C13_0_0be7ab57f6" x="76.320248" y="122.032413" style="fill: #ffffff; stroke: #000000; stroke-width: 0.4"/>
    </g>
   </g>
   <g id="PathCollection_52">
    <defs>
     <path id="C14_0_5f7490dc90" d="M -1.25 2.5 
L 0 1.25 
L 1.25 2.5 
L 2.5 1.25 
L 1.25 -0 
L 2.5 -1.25 
L 1.25 -2.5 
L 0 -1.25 
L -1.25 -2.5 
L -2.5 -1.25 
L -1.25 0 
L -2.5 1.25 
z
"/>
    </defs>
    <g clip-path="url(#p33cf8955bb)">
     <use xlink:href="#C14_0_5f7490dc90" x="98.538735" y="123.516306" style="fill: #ffffff; stroke: #000000; stroke-width: 0.4"/>
    </g>
    <g clip-path="url(#p33cf8955bb)">
     <use xlink:href="#C14_0_5f7490dc90" x="99.679537" y="123.875015" style="fill: #ffffff; stroke: #000000; stroke-width: 0.4"/>
    </g>
    <g clip-path="url(#p33cf8955bb)">
     <use xlink:href="#C14_0_5f7490dc90" x="100.984591" y="123.791214" style="fill: #ffffff; stroke: #000000; stroke-width: 0.4"/>
    </g>
   </g>
   <g id="PathCollection_53">
    <defs>
     <path id="C15_0_b24ced4dec" d="M -1.25 2.5 
L 0 1.25 
L 1.25 2.5 
L 2.5 1.25 
L 1.25 -0 
L 2.5 -1.25 
L 1.25 -2.5 
L 0 -1.25 
L -1.25 -2.5 
L -2.5 -1.25 
L -1.25 0 
L -2.5 1.25 
z
"/>
    </defs>
    <g clip-path="url(#p33cf8955bb)">
     <use xlink:href="#C15_0_b24ced4dec" x="129.700658" y="119.033968" style="fill: #ffffff; stroke: #000000; stroke-width: 0.4"/>
    </g>
    <g clip-path="url(#p33cf8955bb)">
     <use xlink:href="#C15_0_b24ced4dec" x="130.938511" y="119.010462" style="fill: #ffffff; stroke: #000000; stroke-width: 0.4"/>
    </g>
    <g clip-path="url(#p33cf8955bb)">
     <use xlink:href="#C15_0_b24ced4dec" x="131.006931" y="118.680368" style="fill: #ffffff; stroke: #000000; stroke-width: 0.4"/>
    </g>
   </g>
   <g id="PathCollection_54">
    <defs>
     <path id="C16_0_61ca86363e" d="M -1.25 2.5 
L 0 1.25 
L 1.25 2.5 
L 2.5 1.25 
L 1.25 -0 
L 2.5 -1.25 
L 1.25 -2.5 
L 0 -1.25 
L -1.25 -2.5 
L -2.5 -1.25 
L -1.25 0 
L -2.5 1.25 
z
"/>
    </defs>
    <g clip-path="url(#p33cf8955bb)">
     <use xlink:href="#C16_0_61ca86363e" x="148.261303" y="123.132047" style="fill: #ffffff; stroke: #000000; stroke-width: 0.4"/>
    </g>
    <g clip-path="url(#p33cf8955bb)">
     <use xlink:href="#C16_0_61ca86363e" x="151.987758" y="123.431482" style="fill: #ffffff; stroke: #000000; stroke-width: 0.4"/>
    </g>
    <g clip-path="url(#p33cf8955bb)">
     <use xlink:href="#C16_0_61ca86363e" x="148.801991" y="123.297605" style="fill: #ffffff; stroke: #000000; stroke-width: 0.4"/>
    </g>
   </g>
   <g id="PathCollection_55">
    <defs>
     <path id="C17_0_c68d26d0bb" d="M -1.25 2.5 
L 0 1.25 
L 1.25 2.5 
L 2.5 1.25 
L 1.25 -0 
L 2.5 -1.25 
L 1.25 -2.5 
L 0 -1.25 
L -1.25 -2.5 
L -2.5 -1.25 
L -1.25 0 
L -2.5 1.25 
z
"/>
    </defs>
    <g clip-path="url(#p33cf8955bb)">
     <use xlink:href="#C17_0_c68d26d0bb" x="181.937115" y="107.267064" style="fill: #ffffff; stroke: #000000; stroke-width: 0.4"/>
    </g>
    <g clip-path="url(#p33cf8955bb)">
     <use xlink:href="#C17_0_c68d26d0bb" x="180.496582" y="110.737657" style="fill: #ffffff; stroke: #000000; stroke-width: 0.4"/>
    </g>
    <g clip-path="url(#p33cf8955bb)">
     <use xlink:href="#C17_0_c68d26d0bb" x="179.673935" y="109.76679" style="fill: #ffffff; stroke: #000000; stroke-width: 0.4"/>
    </g>
   </g>
   <g id="PathCollection_56">
    <defs>
     <path id="C18_0_41a3b6bbc1" d="M -1.25 2.5 
L 0 1.25 
L 1.25 2.5 
L 2.5 1.25 
L 1.25 -0 
L 2.5 -1.25 
L 1.25 -2.5 
L 0 -1.25 
L -1.25 -2.5 
L -2.5 -1.25 
L -1.25 0 
L -2.5 1.25 
z
"/>
    </defs>
    <g clip-path="url(#p33cf8955bb)">
     <use xlink:href="#C18_0_41a3b6bbc1" x="199.740024" y="121.392663" style="fill: #ffffff; stroke: #000000; stroke-width: 0.4"/>
    </g>
    <g clip-path="url(#p33cf8955bb)">
     <use xlink:href="#C18_0_41a3b6bbc1" x="202.054993" y="122.203081" style="fill: #ffffff; stroke: #000000; stroke-width: 0.4"/>
    </g>
    <g clip-path="url(#p33cf8955bb)">
     <use xlink:href="#C18_0_41a3b6bbc1" x="201.97562" y="121.595012" style="fill: #ffffff; stroke: #000000; stroke-width: 0.4"/>
    </g>
   </g>
   <g id="PathCollection_57">
    <defs>
     <path id="C19_0_3f05edd52d" d="M -1.25 2.5 
L 0 1.25 
L 1.25 2.5 
L 2.5 1.25 
L 1.25 -0 
L 2.5 -1.25 
L 1.25 -2.5 
L 0 -1.25 
L -1.25 -2.5 
L -2.5 -1.25 
L -1.25 0 
L -2.5 1.25 
z
"/>
    </defs>
    <g clip-path="url(#p33cf8955bb)">
     <use xlink:href="#C19_0_3f05edd52d" x="231.560087" y="87.310135" style="fill: #ffffff; stroke: #000000; stroke-width: 0.4"/>
    </g>
    <g clip-path="url(#p33cf8955bb)">
     <use xlink:href="#C19_0_3f05edd52d" x="231.463979" y="92.884953" style="fill: #ffffff; stroke: #000000; stroke-width: 0.4"/>
    </g>
    <g clip-path="url(#p33cf8955bb)">
     <use xlink:href="#C19_0_3f05edd52d" x="229.782214" y="87.757755" style="fill: #ffffff; stroke: #000000; stroke-width: 0.4"/>
    </g>
   </g>
   <g id="PathCollection_58">
    <defs>
     <path id="C1a_0_20b4aa6c25" d="M -1.25 2.5 
L 0 1.25 
L 1.25 2.5 
L 2.5 1.25 
L 1.25 -0 
L 2.5 -1.25 
L 1.25 -2.5 
L 0 -1.25 
L -1.25 -2.5 
L -2.5 -1.25 
L -1.25 0 
L -2.5 1.25 
z
"/>
    </defs>
    <g clip-path="url(#p33cf8955bb)">
     <use xlink:href="#C1a_0_20b4aa6c25" x="251.663546" y="118.091716" style="fill: #ffffff; stroke: #000000; stroke-width: 0.4"/>
    </g>
    <g clip-path="url(#p33cf8955bb)">
     <use xlink:href="#C1a_0_20b4aa6c25" x="252.172838" y="121.433541" style="fill: #ffffff; stroke: #000000; stroke-width: 0.4"/>
    </g>
    <g clip-path="url(#p33cf8955bb)">
     <use xlink:href="#C1a_0_20b4aa6c25" x="254.328438" y="119.989505" style="fill: #ffffff; stroke: #000000; stroke-width: 0.4"/>
    </g>
   </g>
   <g id="PathCollection_59">
    <defs>
     <path id="C1b_0_3dc25c9d3c" d="M -1.25 2.5 
L 0 1.25 
L 1.25 2.5 
L 2.5 1.25 
L 1.25 -0 
L 2.5 -1.25 
L 1.25 -2.5 
L 0 -1.25 
L -1.25 -2.5 
L -2.5 -1.25 
L -1.25 0 
L -2.5 1.25 
z
"/>
    </defs>
    <g clip-path="url(#p33cf8955bb)">
     <use xlink:href="#C1b_0_3dc25c9d3c" x="281.62456" y="121.776921" style="fill: #ffffff; stroke: #000000; stroke-width: 0.4"/>
    </g>
    <g clip-path="url(#p33cf8955bb)">
     <use xlink:href="#C1b_0_3dc25c9d3c" x="283.888599" y="122.309365" style="fill: #ffffff; stroke: #000000; stroke-width: 0.4"/>
    </g>
    <g clip-path="url(#p33cf8955bb)">
     <use xlink:href="#C1b_0_3dc25c9d3c" x="280.43947" y="122.428935" style="fill: #ffffff; stroke: #000000; stroke-width: 0.4"/>
    </g>
   </g>
   <g id="PathCollection_60">
    <defs>
     <path id="C1c_0_94a4af42f1" d="M -1.25 2.5 
L 0 1.25 
L 1.25 2.5 
L 2.5 1.25 
L 1.25 -0 
L 2.5 -1.25 
L 1.25 -2.5 
L 0 -1.25 
L -1.25 -2.5 
L -2.5 -1.25 
L -1.25 0 
L -2.5 1.25 
z
"/>
    </defs>
    <g clip-path="url(#p33cf8955bb)">
     <use xlink:href="#C1c_0_94a4af42f1" x="305.411783" y="123.8045" style="fill: #ffffff; stroke: #000000; stroke-width: 0.4"/>
    </g>
    <g clip-path="url(#p33cf8955bb)">
     <use xlink:href="#C1c_0_94a4af42f1" x="302.050491" y="124.007871" style="fill: #ffffff; stroke: #000000; stroke-width: 0.4"/>
    </g>
    <g clip-path="url(#p33cf8955bb)">
     <use xlink:href="#C1c_0_94a4af42f1" x="303.629476" y="123.919982" style="fill: #ffffff; stroke: #000000; stroke-width: 0.4"/>
    </g>
   </g>
   <g id="PathCollection_61">
    <defs>
     <path id="C1d_0_9cd9afe781" d="M 0 -2.5 
L -0.561285 -0.772542 
L -2.377641 -0.772542 
L -0.908178 0.295085 
L -1.469463 2.022542 
L -0 0.954915 
L 1.469463 2.022542 
L 0.908178 0.295085 
L 2.377641 -0.772542 
L 0.561285 -0.772542 
z
"/>
    </defs>
    <g clip-path="url(#p33cf8955bb)">
     <use xlink:href="#C1d_0_9cd9afe781" x="77.08037" y="122.144829" style="fill: #ffffff; stroke: #000000; stroke-width: 0.4"/>
    </g>
    <g clip-path="url(#p33cf8955bb)">
     <use xlink:href="#C1d_0_9cd9afe781" x="79.222572" y="122.240893" style="fill: #ffffff; stroke: #000000; stroke-width: 0.4"/>
    </g>
    <g clip-path="url(#p33cf8955bb)">
     <use xlink:href="#C1d_0_9cd9afe781" x="80.526651" y="121.949633" style="fill: #ffffff; stroke: #000000; stroke-width: 0.4"/>
    </g>
   </g>
   <g id="PathCollection_62">
    <defs>
     <path id="C1e_0_575b8c1e3c" d="M 0 -2.5 
L -0.561285 -0.772542 
L -2.377641 -0.772542 
L -0.908178 0.295085 
L -1.469463 2.022542 
L -0 0.954915 
L 1.469463 2.022542 
L 0.908178 0.295085 
L 2.377641 -0.772542 
L 0.561285 -0.772542 
z
"/>
    </defs>
    <g clip-path="url(#p33cf8955bb)">
     <use xlink:href="#C1e_0_575b8c1e3c" x="97.373423" y="123.79428" style="fill: #ffffff; stroke: #000000; stroke-width: 0.4"/>
    </g>
    <g clip-path="url(#p33cf8955bb)">
     <use xlink:href="#C1e_0_575b8c1e3c" x="100.784579" y="123.163728" style="fill: #ffffff; stroke: #000000; stroke-width: 0.4"/>
    </g>
    <g clip-path="url(#p33cf8955bb)">
     <use xlink:href="#C1e_0_575b8c1e3c" x="96.671251" y="123.282276" style="fill: #ffffff; stroke: #000000; stroke-width: 0.4"/>
    </g>
   </g>
   <g id="PathCollection_63">
    <defs>
     <path id="C1f_0_9168cdf966" d="M 0 -2.5 
L -0.561285 -0.772542 
L -2.377641 -0.772542 
L -0.908178 0.295085 
L -1.469463 2.022542 
L -0 0.954915 
L 1.469463 2.022542 
L 0.908178 0.295085 
L 2.377641 -0.772542 
L 0.561285 -0.772542 
z
"/>
    </defs>
    <g clip-path="url(#p33cf8955bb)">
     <use xlink:href="#C1f_0_9168cdf966" x="128.114705" y="119.958846" style="fill: #ffffff; stroke: #000000; stroke-width: 0.4"/>
    </g>
    <g clip-path="url(#p33cf8955bb)">
     <use xlink:href="#C1f_0_9168cdf966" x="128.696459" y="119.158647" style="fill: #ffffff; stroke: #000000; stroke-width: 0.4"/>
    </g>
    <g clip-path="url(#p33cf8955bb)">
     <use xlink:href="#C1f_0_9168cdf966" x="131.257133" y="120.23682" style="fill: #ffffff; stroke: #000000; stroke-width: 0.4"/>
    </g>
   </g>
   <g id="PathCollection_64">
    <defs>
     <path id="C20_0_9289c7a2aa" d="M 0 -2.5 
L -0.561285 -0.772542 
L -2.377641 -0.772542 
L -0.908178 0.295085 
L -1.469463 2.022542 
L -0 0.954915 
L 1.469463 2.022542 
L 0.908178 0.295085 
L 2.377641 -0.772542 
L 0.561285 -0.772542 
z
"/>
    </defs>
    <g clip-path="url(#p33cf8955bb)">
     <use xlink:href="#C20_0_9289c7a2aa" x="149.904297" y="123.167815" style="fill: #ffffff; stroke: #000000; stroke-width: 0.4"/>
    </g>
    <g clip-path="url(#p33cf8955bb)">
     <use xlink:href="#C20_0_9289c7a2aa" x="149.79279" y="122.989994" style="fill: #ffffff; stroke: #000000; stroke-width: 0.4"/>
    </g>
    <g clip-path="url(#p33cf8955bb)">
     <use xlink:href="#C20_0_9289c7a2aa" x="148.515216" y="122.966488" style="fill: #ffffff; stroke: #000000; stroke-width: 0.4"/>
    </g>
   </g>
   <g id="PathCollection_65">
    <defs>
     <path id="C21_0_28b5a6fb30" d="M 0 -2.5 
L -0.561285 -0.772542 
L -2.377641 -0.772542 
L -0.908178 0.295085 
L -1.469463 2.022542 
L -0 0.954915 
L 1.469463 2.022542 
L 0.908178 0.295085 
L 2.377641 -0.772542 
L 0.561285 -0.772542 
z
"/>
    </defs>
    <g clip-path="url(#p33cf8955bb)">
     <use xlink:href="#C21_0_28b5a6fb30" x="180.828249" y="110.219521" style="fill: #ffffff; stroke: #000000; stroke-width: 0.4"/>
    </g>
    <g clip-path="url(#p33cf8955bb)">
     <use xlink:href="#C21_0_28b5a6fb30" x="180.900044" y="109.3764" style="fill: #ffffff; stroke: #000000; stroke-width: 0.4"/>
    </g>
    <g clip-path="url(#p33cf8955bb)">
     <use xlink:href="#C21_0_28b5a6fb30" x="180.728193" y="111.018697" style="fill: #ffffff; stroke: #000000; stroke-width: 0.4"/>
    </g>
   </g>
   <g id="PathCollection_66">
    <path d="M 201.376742 119.099099 
L 200.815457 120.826557 
L 198.999101 120.826557 
L 200.468564 121.894184 
L 199.907279 123.621642 
L 201.376742 122.554014 
L 202.846205 123.621642 
L 202.28492 121.894184 
L 203.754384 120.826557 
L 201.938027 120.826557 
z
" clip-path="url(#p33cf8955bb)" style="fill: #ffffff; stroke: #000000; stroke-width: 0.4"/>
    <path d="M 199.264009 118.411317 
L 198.702724 120.138775 
L 196.886367 120.138775 
L 198.355831 121.206402 
L 197.794546 122.93386 
L 199.264009 121.866232 
L 200.733472 122.93386 
L 200.172187 121.206402 
L 201.64165 120.138775 
L 199.825294 120.138775 
z
" clip-path="url(#p33cf8955bb)" style="fill: #ffffff; stroke: #000000; stroke-width: 0.4"/>
   </g>
   <g id="PathCollection_67">
    <defs>
     <path id="C22_0_f797cb083c" d="M 0 -2.5 
L -0.561285 -0.772542 
L -2.377641 -0.772542 
L -0.908178 0.295085 
L -1.469463 2.022542 
L -0 0.954915 
L 1.469463 2.022542 
L 0.908178 0.295085 
L 2.377641 -0.772542 
L 0.561285 -0.772542 
z
"/>
    </defs>
    <g clip-path="url(#p33cf8955bb)">
     <use xlink:href="#C22_0_f797cb083c" x="232.831383" y="97.649353" style="fill: #ffffff; stroke: #000000; stroke-width: 0.4"/>
    </g>
    <g clip-path="url(#p33cf8955bb)">
     <use xlink:href="#C22_0_f797cb083c" x="234.098387" y="94.968739" style="fill: #ffffff; stroke: #000000; stroke-width: 0.4"/>
    </g>
    <g clip-path="url(#p33cf8955bb)">
     <use xlink:href="#C22_0_f797cb083c" x="232.544062" y="95.783245" style="fill: #ffffff; stroke: #000000; stroke-width: 0.4"/>
    </g>
   </g>
   <g id="PathCollection_68">
    <defs>
     <path id="C23_0_8b73097230" d="M 0 -2.5 
L -0.561285 -0.772542 
L -2.377641 -0.772542 
L -0.908178 0.295085 
L -1.469463 2.022542 
L -0 0.954915 
L 1.469463 2.022542 
L 0.908178 0.295085 
L 2.377641 -0.772542 
L 0.561285 -0.772542 
z
"/>
    </defs>
    <g clip-path="url(#p33cf8955bb)">
     <use xlink:href="#C23_0_8b73097230" x="252.560747" y="119.793288" style="fill: #ffffff; stroke: #000000; stroke-width: 0.4"/>
    </g>
    <g clip-path="url(#p33cf8955bb)">
     <use xlink:href="#C23_0_8b73097230" x="254.445525" y="122.865314" style="fill: #ffffff; stroke: #000000; stroke-width: 0.4"/>
    </g>
    <g clip-path="url(#p33cf8955bb)">
     <use xlink:href="#C23_0_8b73097230" x="251.040795" y="121.886272" style="fill: #ffffff; stroke: #000000; stroke-width: 0.4"/>
    </g>
   </g>
   <g id="PathCollection_69">
    <path d="M 281.208067 120.361226 
L 280.646782 122.088684 
L 278.830425 122.088684 
L 280.299888 123.156311 
L 279.738603 124.883769 
L 281.208067 123.816141 
L 282.67753 124.883769 
L 282.116245 123.156311 
L 283.585708 122.088684 
L 281.769351 122.088684 
z
" clip-path="url(#p33cf8955bb)" style="fill: #ffffff; stroke: #000000; stroke-width: 0.4"/>
    <path d="M 284.040483 120.411302 
L 283.479198 122.13876 
L 281.662841 122.13876 
L 283.132304 123.206387 
L 282.571019 124.933845 
L 284.040483 123.866217 
L 285.509946 124.933845 
L 284.948661 123.206387 
L 286.418124 122.13876 
L 284.601767 122.13876 
z
" clip-path="url(#p33cf8955bb)" style="fill: #ffffff; stroke: #000000; stroke-width: 0.4"/>
   </g>
   <g id="PathCollection_70">
    <defs>
     <path id="mb24167d8c4" d="M 0 -2.5 
L -0.561285 -0.772542 
L -2.377641 -0.772542 
L -0.908178 0.295085 
L -1.469463 2.022542 
L -0 0.954915 
L 1.469463 2.022542 
L 0.908178 0.295085 
L 2.377641 -0.772542 
L 0.561285 -0.772542 
z
" style="stroke: #000000; stroke-width: 0.4"/>
    </defs>
    <g clip-path="url(#p33cf8955bb)">
     <use xlink:href="#mb24167d8c4" x="303.312344" y="123.848444" style="fill: #ffffff; stroke: #000000; stroke-width: 0.4"/>
    </g>
   </g>
   <g id="text_12">
    <!-- **** -->
    <g style="fill: #262626" transform="translate(130.33473 98.989101) scale(0.12 -0.12)">
     <defs>
      <path id="ArialMT-2a" d="M 200 3741 
L 344 4184 
Q 841 4009 1066 3881 
Q 1006 4447 1003 4659 
L 1456 4659 
Q 1447 4350 1384 3884 
Q 1706 4047 2122 4184 
L 2266 3741 
Q 1869 3609 1488 3566 
Q 1678 3400 2025 2975 
L 1650 2709 
Q 1469 2956 1222 3381 
Q 991 2941 816 2709 
L 447 2975 
Q 809 3422 966 3566 
Q 563 3644 200 3741 
z
" transform="scale(0.015625)"/>
     </defs>
     <use xlink:href="#ArialMT-2a"/>
     <use xlink:href="#ArialMT-2a" transform="translate(38.916016 0)"/>
     <use xlink:href="#ArialMT-2a" transform="translate(77.832031 0)"/>
     <use xlink:href="#ArialMT-2a" transform="translate(116.748047 0)"/>
    </g>
   </g>
   <g id="text_13">
    <!-- **** -->
    <g style="fill: #262626" transform="translate(79.198366 106.933856) scale(0.12 -0.12)">
     <use xlink:href="#ArialMT-2a"/>
     <use xlink:href="#ArialMT-2a" transform="translate(38.916016 0)"/>
     <use xlink:href="#ArialMT-2a" transform="translate(77.832031 0)"/>
     <use xlink:href="#ArialMT-2a" transform="translate(116.748047 0)"/>
    </g>
   </g>
   <g id="text_14">
    <!-- **** -->
    <g style="fill: #262626" transform="translate(181.471094 70.696004) scale(0.12 -0.12)">
     <use xlink:href="#ArialMT-2a"/>
     <use xlink:href="#ArialMT-2a" transform="translate(38.916016 0)"/>
     <use xlink:href="#ArialMT-2a" transform="translate(77.832031 0)"/>
     <use xlink:href="#ArialMT-2a" transform="translate(116.748047 0)"/>
    </g>
   </g>
   <g id="text_15">
    <!-- **** -->
    <g style="fill: #262626" transform="translate(232.607457 18.121022) scale(0.12 -0.12)">
     <use xlink:href="#ArialMT-2a"/>
     <use xlink:href="#ArialMT-2a" transform="translate(38.916016 0)"/>
     <use xlink:href="#ArialMT-2a" transform="translate(77.832031 0)"/>
     <use xlink:href="#ArialMT-2a" transform="translate(116.748047 0)"/>
    </g>
   </g>
   <g id="text_16">
    <!-- *** -->
    <g style="fill: #262626" transform="translate(286.079134 102.777525) scale(0.12 -0.12)">
     <use xlink:href="#ArialMT-2a"/>
     <use xlink:href="#ArialMT-2a" transform="translate(38.916016 0)"/>
     <use xlink:href="#ArialMT-2a" transform="translate(77.832031 0)"/>
    </g>
   </g>
   <g id="legend_1">
    <g id="patch_17">
     <path d="M 343.712344 19.50625 
L 365.712344 19.50625 
L 365.712344 11.80625 
L 343.712344 11.80625 
z
" style="fill: #db8484; stroke: #ffffff; stroke-linejoin: miter"/>
    </g>
    <g id="text_17">
     <!-- WT.Ngn2.x3HA -->
     <g style="fill: #262626" transform="translate(374.512344 19.50625) scale(0.11 -0.11)">
      <defs>
       <path id="ArialMT-57" d="M 1294 0 
L 78 4581 
L 700 4581 
L 1397 1578 
Q 1509 1106 1591 641 
Q 1766 1375 1797 1488 
L 2669 4581 
L 3400 4581 
L 4056 2263 
Q 4303 1400 4413 641 
Q 4500 1075 4641 1638 
L 5359 4581 
L 5969 4581 
L 4713 0 
L 4128 0 
L 3163 3491 
Q 3041 3928 3019 4028 
Q 2947 3713 2884 3491 
L 1913 0 
L 1294 0 
z
" transform="scale(0.015625)"/>
       <path id="ArialMT-2e" d="M 581 0 
L 581 641 
L 1222 641 
L 1222 0 
L 581 0 
z
" transform="scale(0.015625)"/>
       <path id="ArialMT-67" d="M 319 -275 
L 866 -356 
Q 900 -609 1056 -725 
Q 1266 -881 1628 -881 
Q 2019 -881 2231 -725 
Q 2444 -569 2519 -288 
Q 2563 -116 2559 434 
Q 2191 0 1641 0 
Q 956 0 581 494 
Q 206 988 206 1678 
Q 206 2153 378 2554 
Q 550 2956 876 3175 
Q 1203 3394 1644 3394 
Q 2231 3394 2613 2919 
L 2613 3319 
L 3131 3319 
L 3131 450 
Q 3131 -325 2973 -648 
Q 2816 -972 2473 -1159 
Q 2131 -1347 1631 -1347 
Q 1038 -1347 672 -1080 
Q 306 -813 319 -275 
z
M 784 1719 
Q 784 1066 1043 766 
Q 1303 466 1694 466 
Q 2081 466 2343 764 
Q 2606 1063 2606 1700 
Q 2606 2309 2336 2618 
Q 2066 2928 1684 2928 
Q 1309 2928 1046 2623 
Q 784 2319 784 1719 
z
" transform="scale(0.015625)"/>
       <path id="ArialMT-78" d="M 47 0 
L 1259 1725 
L 138 3319 
L 841 3319 
L 1350 2541 
Q 1494 2319 1581 2169 
Q 1719 2375 1834 2534 
L 2394 3319 
L 3066 3319 
L 1919 1756 
L 3153 0 
L 2463 0 
L 1781 1031 
L 1600 1309 
L 728 0 
L 47 0 
z
" transform="scale(0.015625)"/>
       <path id="ArialMT-33" d="M 269 1209 
L 831 1284 
Q 928 806 1161 595 
Q 1394 384 1728 384 
Q 2125 384 2398 659 
Q 2672 934 2672 1341 
Q 2672 1728 2419 1979 
Q 2166 2231 1775 2231 
Q 1616 2231 1378 2169 
L 1441 2663 
Q 1497 2656 1531 2656 
Q 1891 2656 2178 2843 
Q 2466 3031 2466 3422 
Q 2466 3731 2256 3934 
Q 2047 4138 1716 4138 
Q 1388 4138 1169 3931 
Q 950 3725 888 3313 
L 325 3413 
Q 428 3978 793 4289 
Q 1159 4600 1703 4600 
Q 2078 4600 2393 4439 
Q 2709 4278 2876 4000 
Q 3044 3722 3044 3409 
Q 3044 3113 2884 2869 
Q 2725 2625 2413 2481 
Q 2819 2388 3044 2092 
Q 3269 1797 3269 1353 
Q 3269 753 2831 336 
Q 2394 -81 1725 -81 
Q 1122 -81 723 278 
Q 325 638 269 1209 
z
" transform="scale(0.015625)"/>
      </defs>
      <use xlink:href="#ArialMT-57"/>
      <use xlink:href="#ArialMT-54" transform="translate(94.384766 0)"/>
      <use xlink:href="#ArialMT-2e" transform="translate(144.34375 0)"/>
      <use xlink:href="#ArialMT-4e" transform="translate(172.126953 0)"/>
      <use xlink:href="#ArialMT-67" transform="translate(244.34375 0)"/>
      <use xlink:href="#ArialMT-6e" transform="translate(299.958984 0)"/>
      <use xlink:href="#ArialMT-32" transform="translate(355.574219 0)"/>
      <use xlink:href="#ArialMT-2e" transform="translate(411.189453 0)"/>
      <use xlink:href="#ArialMT-78" transform="translate(438.972656 0)"/>
      <use xlink:href="#ArialMT-33" transform="translate(488.972656 0)"/>
      <use xlink:href="#ArialMT-48" transform="translate(544.587891 0)"/>
      <use xlink:href="#ArialMT-41" transform="translate(616.804688 0)"/>
     </g>
    </g>
    <g id="patch_18">
     <path d="M 343.712344 35.329062 
L 365.712344 35.329062 
L 365.712344 27.629062 
L 343.712344 27.629062 
z
" style="fill: #4b94a2; stroke: #ffffff; stroke-linejoin: miter"/>
    </g>
    <g id="text_18">
     <!-- 9SA.Ngn2.x3HA -->
     <g style="fill: #262626" transform="translate(374.512344 35.329062) scale(0.11 -0.11)">
      <defs>
       <path id="ArialMT-39" d="M 350 1059 
L 891 1109 
Q 959 728 1153 556 
Q 1347 384 1650 384 
Q 1909 384 2104 503 
Q 2300 622 2425 820 
Q 2550 1019 2634 1356 
Q 2719 1694 2719 2044 
Q 2719 2081 2716 2156 
Q 2547 1888 2255 1720 
Q 1963 1553 1622 1553 
Q 1053 1553 659 1965 
Q 266 2378 266 3053 
Q 266 3750 677 4175 
Q 1088 4600 1706 4600 
Q 2153 4600 2523 4359 
Q 2894 4119 3086 3673 
Q 3278 3228 3278 2384 
Q 3278 1506 3087 986 
Q 2897 466 2520 194 
Q 2144 -78 1638 -78 
Q 1100 -78 759 220 
Q 419 519 350 1059 
z
M 2653 3081 
Q 2653 3566 2395 3850 
Q 2138 4134 1775 4134 
Q 1400 4134 1122 3828 
Q 844 3522 844 3034 
Q 844 2597 1108 2323 
Q 1372 2050 1759 2050 
Q 2150 2050 2401 2323 
Q 2653 2597 2653 3081 
z
" transform="scale(0.015625)"/>
      </defs>
      <use xlink:href="#ArialMT-39"/>
      <use xlink:href="#ArialMT-53" transform="translate(55.615234 0)"/>
      <use xlink:href="#ArialMT-41" transform="translate(122.314453 0)"/>
      <use xlink:href="#ArialMT-2e" transform="translate(189.013672 0)"/>
      <use xlink:href="#ArialMT-4e" transform="translate(216.796875 0)"/>
      <use xlink:href="#ArialMT-67" transform="translate(289.013672 0)"/>
      <use xlink:href="#ArialMT-6e" transform="translate(344.628906 0)"/>
      <use xlink:href="#ArialMT-32" transform="translate(400.244141 0)"/>
      <use xlink:href="#ArialMT-2e" transform="translate(455.859375 0)"/>
      <use xlink:href="#ArialMT-78" transform="translate(483.642578 0)"/>
      <use xlink:href="#ArialMT-33" transform="translate(533.642578 0)"/>
      <use xlink:href="#ArialMT-48" transform="translate(589.257812 0)"/>
      <use xlink:href="#ArialMT-41" transform="translate(661.474609 0)"/>
     </g>
    </g>
   </g>
  </g>
 </g>
 <defs>
  <clipPath id="p33cf8955bb">
   <rect x="55.812344" y="7.2" width="270" height="117"/>
  </clipPath>
 </defs>
</svg>
