<?xml version="1.0" encoding="utf-8" standalone="no"?>
<!DOCTYPE svg PUBLIC "-//W3C//DTD SVG 1.1//EN"
  "http://www.w3.org/Graphics/SVG/1.1/DTD/svg11.dtd">
<svg xmlns:xlink="http://www.w3.org/1999/xlink" width="454.5925pt" height="174.228969pt" viewBox="0 0 454.5925 174.228969" xmlns="http://www.w3.org/2000/svg" version="1.1">
 <metadata>
  <rdf:RDF xmlns:dc="http://purl.org/dc/elements/1.1/" xmlns:cc="http://creativecommons.org/ns#" xmlns:rdf="http://www.w3.org/1999/02/22-rdf-syntax-ns#">
   <cc:Work>
    <dc:type rdf:resource="http://purl.org/dc/dcmitype/StillImage"/>
    <dc:date>2025-07-28T17:01:58.645848</dc:date>
    <dc:format>image/svg+xml</dc:format>
    <dc:creator>
     <cc:Agent>
      <dc:title>Matplotlib v3.10.3, https://matplotlib.org/</dc:title>
     </cc:Agent>
    </dc:creator>
   </cc:Work>
  </rdf:RDF>
 </metadata>
 <defs>
  <style type="text/css">*{stroke-linejoin: round; stroke-linecap: butt}</style>
 </defs>
 <g id="figure_1">
  <g id="patch_1">
   <path d="M 0 174.228969 
L 454.5925 174.228969 
L 454.5925 0 
L 0 0 
z
" style="fill: #ffffff"/>
  </g>
  <g id="axes_1">
   <g id="patch_2">
    <path d="M 44.195313 124.2 
L 314.195312 124.2 
L 314.195312 7.2 
L 44.195313 7.2 
z
" style="fill: #ffffff"/>
   </g>
   <g id="line2d_1">
    <path d="M 44.195313 97.932907 
L 314.195312 97.932907 
" clip-path="url(#pa6a52613e3)" style="fill: none; stroke-dasharray: 5.55,2.4; stroke-dashoffset: 0; stroke: #cccccc; stroke-width: 1.5"/>
   </g>
   <g id="line2d_2">
    <path d="M 44.195313 40.004665 
L 314.195312 40.004665 
" clip-path="url(#pa6a52613e3)" style="fill: none; stroke-dasharray: 5.55,2.4; stroke-dashoffset: 0; stroke: #cccccc; stroke-width: 1.5"/>
   </g>
   <g id="matplotlib.axis_1">
    <g id="xtick_1">
     <g id="line2d_3">
      <defs>
       <path id="m481054a47d" d="M 0 0 
L 0 6 
" style="stroke: #262626; stroke-width: 1.25"/>
      </defs>
      <g>
       <use xlink:href="#m481054a47d" x="76.922585" y="124.2" style="fill: #262626; stroke: #262626; stroke-width: 1.25"/>
      </g>
     </g>
     <g id="text_1">
      <!-- NIL, -->
      <g style="fill: #262626" transform="translate(66.836101 141.573594) scale(0.11 -0.11)">
       <defs>
        <path id="ArialMT-4e" d="M 488 0 
L 488 4581 
L 1109 4581 
L 3516 984 
L 3516 4581 
L 4097 4581 
L 4097 0 
L 3475 0 
L 1069 3600 
L 1069 0 
L 488 0 
z
" transform="scale(0.015625)"/>
        <path id="ArialMT-49" d="M 597 0 
L 597 4581 
L 1203 4581 
L 1203 0 
L 597 0 
z
" transform="scale(0.015625)"/>
        <path id="ArialMT-4c" d="M 469 0 
L 469 4581 
L 1075 4581 
L 1075 541 
L 3331 541 
L 3331 0 
L 469 0 
z
" transform="scale(0.015625)"/>
        <path id="ArialMT-2c" d="M 569 0 
L 569 641 
L 1209 641 
L 1209 0 
Q 1209 -353 1084 -570 
Q 959 -788 688 -906 
L 531 -666 
Q 709 -588 793 -436 
Q 878 -284 888 0 
L 569 0 
z
" transform="scale(0.015625)"/>
       </defs>
       <use xlink:href="#ArialMT-4e"/>
       <use xlink:href="#ArialMT-49" transform="translate(72.216797 0)"/>
       <use xlink:href="#ArialMT-4c" transform="translate(100 0)"/>
       <use xlink:href="#ArialMT-2c" transform="translate(155.615234 0)"/>
      </g>
      <!-- none -->
      <g style="fill: #262626" transform="translate(64.688523 153.208156) scale(0.11 -0.11)">
       <defs>
        <path id="ArialMT-6e" d="M 422 0 
L 422 3319 
L 928 3319 
L 928 2847 
Q 1294 3394 1984 3394 
Q 2284 3394 2536 3286 
Q 2788 3178 2913 3003 
Q 3038 2828 3088 2588 
Q 3119 2431 3119 2041 
L 3119 0 
L 2556 0 
L 2556 2019 
Q 2556 2363 2490 2533 
Q 2425 2703 2258 2804 
Q 2091 2906 1866 2906 
Q 1506 2906 1245 2678 
Q 984 2450 984 1813 
L 984 0 
L 422 0 
z
" transform="scale(0.015625)"/>
        <path id="ArialMT-6f" d="M 213 1659 
Q 213 2581 725 3025 
Q 1153 3394 1769 3394 
Q 2453 3394 2887 2945 
Q 3322 2497 3322 1706 
Q 3322 1066 3130 698 
Q 2938 331 2570 128 
Q 2203 -75 1769 -75 
Q 1072 -75 642 372 
Q 213 819 213 1659 
z
M 791 1659 
Q 791 1022 1069 705 
Q 1347 388 1769 388 
Q 2188 388 2466 706 
Q 2744 1025 2744 1678 
Q 2744 2294 2464 2611 
Q 2184 2928 1769 2928 
Q 1347 2928 1069 2612 
Q 791 2297 791 1659 
z
" transform="scale(0.015625)"/>
        <path id="ArialMT-65" d="M 2694 1069 
L 3275 997 
Q 3138 488 2766 206 
Q 2394 -75 1816 -75 
Q 1088 -75 661 373 
Q 234 822 234 1631 
Q 234 2469 665 2931 
Q 1097 3394 1784 3394 
Q 2450 3394 2872 2941 
Q 3294 2488 3294 1666 
Q 3294 1616 3291 1516 
L 816 1516 
Q 847 969 1125 678 
Q 1403 388 1819 388 
Q 2128 388 2347 550 
Q 2566 713 2694 1069 
z
M 847 1978 
L 2700 1978 
Q 2663 2397 2488 2606 
Q 2219 2931 1791 2931 
Q 1403 2931 1139 2672 
Q 875 2413 847 1978 
z
" transform="scale(0.015625)"/>
       </defs>
       <use xlink:href="#ArialMT-6e"/>
       <use xlink:href="#ArialMT-6f" transform="translate(55.615234 0)"/>
       <use xlink:href="#ArialMT-6e" transform="translate(111.230469 0)"/>
       <use xlink:href="#ArialMT-65" transform="translate(166.845703 0)"/>
      </g>
     </g>
    </g>
    <g id="xtick_2">
     <g id="line2d_4">
      <g>
       <use xlink:href="#m481054a47d" x="128.058949" y="124.2" style="fill: #262626; stroke: #262626; stroke-width: 1.25"/>
      </g>
     </g>
     <g id="text_2">
      <!-- NIL -->
      <g style="fill: #262626" transform="translate(119.500433 141.573594) scale(0.11 -0.11)">
       <use xlink:href="#ArialMT-4e"/>
       <use xlink:href="#ArialMT-49" transform="translate(72.216797 0)"/>
       <use xlink:href="#ArialMT-4c" transform="translate(100 0)"/>
      </g>
      <!-- SDD, -->
      <g style="fill: #262626" transform="translate(114.918246 153.208156) scale(0.11 -0.11)">
       <defs>
        <path id="ArialMT-53" d="M 288 1472 
L 859 1522 
Q 900 1178 1048 958 
Q 1197 738 1509 602 
Q 1822 466 2213 466 
Q 2559 466 2825 569 
Q 3091 672 3220 851 
Q 3350 1031 3350 1244 
Q 3350 1459 3225 1620 
Q 3100 1781 2813 1891 
Q 2628 1963 1997 2114 
Q 1366 2266 1113 2400 
Q 784 2572 623 2826 
Q 463 3081 463 3397 
Q 463 3744 659 4045 
Q 856 4347 1234 4503 
Q 1613 4659 2075 4659 
Q 2584 4659 2973 4495 
Q 3363 4331 3572 4012 
Q 3781 3694 3797 3291 
L 3216 3247 
Q 3169 3681 2898 3903 
Q 2628 4125 2100 4125 
Q 1550 4125 1298 3923 
Q 1047 3722 1047 3438 
Q 1047 3191 1225 3031 
Q 1400 2872 2139 2705 
Q 2878 2538 3153 2413 
Q 3553 2228 3743 1945 
Q 3934 1663 3934 1294 
Q 3934 928 3725 604 
Q 3516 281 3123 101 
Q 2731 -78 2241 -78 
Q 1619 -78 1198 103 
Q 778 284 539 648 
Q 300 1013 288 1472 
z
" transform="scale(0.015625)"/>
        <path id="ArialMT-44" d="M 494 0 
L 494 4581 
L 2072 4581 
Q 2606 4581 2888 4516 
Q 3281 4425 3559 4188 
Q 3922 3881 4101 3404 
Q 4281 2928 4281 2316 
Q 4281 1794 4159 1391 
Q 4038 988 3847 723 
Q 3656 459 3429 307 
Q 3203 156 2883 78 
Q 2563 0 2147 0 
L 494 0 
z
M 1100 541 
L 2078 541 
Q 2531 541 2789 625 
Q 3047 709 3200 863 
Q 3416 1078 3536 1442 
Q 3656 1806 3656 2325 
Q 3656 3044 3420 3430 
Q 3184 3816 2847 3947 
Q 2603 4041 2063 4041 
L 1100 4041 
L 1100 541 
z
" transform="scale(0.015625)"/>
       </defs>
       <use xlink:href="#ArialMT-53"/>
       <use xlink:href="#ArialMT-44" transform="translate(66.699219 0)"/>
       <use xlink:href="#ArialMT-44" transform="translate(138.916016 0)"/>
       <use xlink:href="#ArialMT-2c" transform="translate(211.132812 0)"/>
      </g>
      <!-- none -->
      <g style="fill: #262626" transform="translate(115.824886 164.842719) scale(0.11 -0.11)">
       <use xlink:href="#ArialMT-6e"/>
       <use xlink:href="#ArialMT-6f" transform="translate(55.615234 0)"/>
       <use xlink:href="#ArialMT-6e" transform="translate(111.230469 0)"/>
       <use xlink:href="#ArialMT-65" transform="translate(166.845703 0)"/>
      </g>
     </g>
    </g>
    <g id="xtick_3">
     <g id="line2d_5">
      <g>
       <use xlink:href="#m481054a47d" x="179.195312" y="124.2" style="fill: #262626; stroke: #262626; stroke-width: 1.25"/>
      </g>
     </g>
     <g id="text_3">
      <!-- NIL -->
      <g style="fill: #262626" transform="translate(170.636797 141.573594) scale(0.11 -0.11)">
       <use xlink:href="#ArialMT-4e"/>
       <use xlink:href="#ArialMT-49" transform="translate(72.216797 0)"/>
       <use xlink:href="#ArialMT-4c" transform="translate(100 0)"/>
      </g>
      <!-- SDD, -->
      <g style="fill: #262626" transform="translate(166.054609 153.208156) scale(0.11 -0.11)">
       <use xlink:href="#ArialMT-53"/>
       <use xlink:href="#ArialMT-44" transform="translate(66.699219 0)"/>
       <use xlink:href="#ArialMT-44" transform="translate(138.916016 0)"/>
       <use xlink:href="#ArialMT-2c" transform="translate(211.132812 0)"/>
      </g>
      <!-- PMA -->
      <g style="fill: #262626" transform="translate(167.276641 164.842719) scale(0.11 -0.11)">
       <defs>
        <path id="ArialMT-50" d="M 494 0 
L 494 4581 
L 2222 4581 
Q 2678 4581 2919 4538 
Q 3256 4481 3484 4323 
Q 3713 4166 3852 3881 
Q 3991 3597 3991 3256 
Q 3991 2672 3619 2267 
Q 3247 1863 2275 1863 
L 1100 1863 
L 1100 0 
L 494 0 
z
M 1100 2403 
L 2284 2403 
Q 2872 2403 3119 2622 
Q 3366 2841 3366 3238 
Q 3366 3525 3220 3729 
Q 3075 3934 2838 4000 
Q 2684 4041 2272 4041 
L 1100 4041 
L 1100 2403 
z
" transform="scale(0.015625)"/>
        <path id="ArialMT-4d" d="M 475 0 
L 475 4581 
L 1388 4581 
L 2472 1338 
Q 2622 884 2691 659 
Q 2769 909 2934 1394 
L 4031 4581 
L 4847 4581 
L 4847 0 
L 4263 0 
L 4263 3834 
L 2931 0 
L 2384 0 
L 1059 3900 
L 1059 0 
L 475 0 
z
" transform="scale(0.015625)"/>
        <path id="ArialMT-41" d="M -9 0 
L 1750 4581 
L 2403 4581 
L 4278 0 
L 3588 0 
L 3053 1388 
L 1138 1388 
L 634 0 
L -9 0 
z
M 1313 1881 
L 2866 1881 
L 2388 3150 
Q 2169 3728 2063 4100 
Q 1975 3659 1816 3225 
L 1313 1881 
z
" transform="scale(0.015625)"/>
       </defs>
       <use xlink:href="#ArialMT-50"/>
       <use xlink:href="#ArialMT-4d" transform="translate(66.699219 0)"/>
       <use xlink:href="#ArialMT-41" transform="translate(150 0)"/>
      </g>
     </g>
    </g>
    <g id="xtick_4">
     <g id="line2d_6">
      <g>
       <use xlink:href="#m481054a47d" x="230.331676" y="124.2" style="fill: #262626; stroke: #262626; stroke-width: 1.25"/>
      </g>
     </g>
     <g id="text_4">
      <!-- NIL -->
      <g style="fill: #262626" transform="translate(221.773161 141.573594) scale(0.11 -0.11)">
       <use xlink:href="#ArialMT-4e"/>
       <use xlink:href="#ArialMT-49" transform="translate(72.216797 0)"/>
       <use xlink:href="#ArialMT-4c" transform="translate(100 0)"/>
      </g>
      <!-- RIDD, -->
      <g style="fill: #262626" transform="translate(215.359645 153.208156) scale(0.11 -0.11)">
       <defs>
        <path id="ArialMT-52" d="M 503 0 
L 503 4581 
L 2534 4581 
Q 3147 4581 3465 4457 
Q 3784 4334 3975 4021 
Q 4166 3709 4166 3331 
Q 4166 2844 3850 2509 
Q 3534 2175 2875 2084 
Q 3116 1969 3241 1856 
Q 3506 1613 3744 1247 
L 4541 0 
L 3778 0 
L 3172 953 
Q 2906 1366 2734 1584 
Q 2563 1803 2427 1890 
Q 2291 1978 2150 2013 
Q 2047 2034 1813 2034 
L 1109 2034 
L 1109 0 
L 503 0 
z
M 1109 2559 
L 2413 2559 
Q 2828 2559 3062 2645 
Q 3297 2731 3419 2920 
Q 3541 3109 3541 3331 
Q 3541 3656 3305 3865 
Q 3069 4075 2559 4075 
L 1109 4075 
L 1109 2559 
z
" transform="scale(0.015625)"/>
       </defs>
       <use xlink:href="#ArialMT-52"/>
       <use xlink:href="#ArialMT-49" transform="translate(72.216797 0)"/>
       <use xlink:href="#ArialMT-44" transform="translate(100 0)"/>
       <use xlink:href="#ArialMT-44" transform="translate(172.216797 0)"/>
       <use xlink:href="#ArialMT-2c" transform="translate(244.433594 0)"/>
      </g>
      <!-- none -->
      <g style="fill: #262626" transform="translate(218.097614 164.842719) scale(0.11 -0.11)">
       <use xlink:href="#ArialMT-6e"/>
       <use xlink:href="#ArialMT-6f" transform="translate(55.615234 0)"/>
       <use xlink:href="#ArialMT-6e" transform="translate(111.230469 0)"/>
       <use xlink:href="#ArialMT-65" transform="translate(166.845703 0)"/>
      </g>
     </g>
    </g>
    <g id="xtick_5">
     <g id="line2d_7">
      <g>
       <use xlink:href="#m481054a47d" x="281.46804" y="124.2" style="fill: #262626; stroke: #262626; stroke-width: 1.25"/>
      </g>
     </g>
     <g id="text_5">
      <!-- NIL -->
      <g style="fill: #262626" transform="translate(272.909524 141.573594) scale(0.11 -0.11)">
       <use xlink:href="#ArialMT-4e"/>
       <use xlink:href="#ArialMT-49" transform="translate(72.216797 0)"/>
       <use xlink:href="#ArialMT-4c" transform="translate(100 0)"/>
      </g>
      <!-- RIDD, -->
      <g style="fill: #262626" transform="translate(266.496009 153.208156) scale(0.11 -0.11)">
       <use xlink:href="#ArialMT-52"/>
       <use xlink:href="#ArialMT-49" transform="translate(72.216797 0)"/>
       <use xlink:href="#ArialMT-44" transform="translate(100 0)"/>
       <use xlink:href="#ArialMT-44" transform="translate(172.216797 0)"/>
       <use xlink:href="#ArialMT-2c" transform="translate(244.433594 0)"/>
      </g>
      <!-- MEKi -->
      <g style="fill: #262626" transform="translate(268.327337 164.842719) scale(0.11 -0.11)">
       <defs>
        <path id="ArialMT-45" d="M 506 0 
L 506 4581 
L 3819 4581 
L 3819 4041 
L 1113 4041 
L 1113 2638 
L 3647 2638 
L 3647 2100 
L 1113 2100 
L 1113 541 
L 3925 541 
L 3925 0 
L 506 0 
z
" transform="scale(0.015625)"/>
        <path id="ArialMT-4b" d="M 469 0 
L 469 4581 
L 1075 4581 
L 1075 2309 
L 3350 4581 
L 4172 4581 
L 2250 2725 
L 4256 0 
L 3456 0 
L 1825 2319 
L 1075 1588 
L 1075 0 
L 469 0 
z
" transform="scale(0.015625)"/>
        <path id="ArialMT-69" d="M 425 3934 
L 425 4581 
L 988 4581 
L 988 3934 
L 425 3934 
z
M 425 0 
L 425 3319 
L 988 3319 
L 988 0 
L 425 0 
z
" transform="scale(0.015625)"/>
       </defs>
       <use xlink:href="#ArialMT-4d"/>
       <use xlink:href="#ArialMT-45" transform="translate(83.300781 0)"/>
       <use xlink:href="#ArialMT-4b" transform="translate(150 0)"/>
       <use xlink:href="#ArialMT-69" transform="translate(216.699219 0)"/>
      </g>
     </g>
    </g>
   </g>
   <g id="matplotlib.axis_2">
    <g id="ytick_1">
     <g id="line2d_8">
      <defs>
       <path id="mf58228a603" d="M 0 0 
L -6 0 
" style="stroke: #262626; stroke-width: 1.25"/>
      </defs>
      <g>
       <use xlink:href="#mf58228a603" x="44.195313" y="124.2" style="fill: #262626; stroke: #262626; stroke-width: 1.25"/>
      </g>
     </g>
     <g id="text_6">
      <!-- 0 -->
      <g style="fill: #262626" transform="translate(28.578281 128.136797) scale(0.11 -0.11)">
       <defs>
        <path id="ArialMT-30" d="M 266 2259 
Q 266 3072 433 3567 
Q 600 4063 929 4331 
Q 1259 4600 1759 4600 
Q 2128 4600 2406 4451 
Q 2684 4303 2865 4023 
Q 3047 3744 3150 3342 
Q 3253 2941 3253 2259 
Q 3253 1453 3087 958 
Q 2922 463 2592 192 
Q 2263 -78 1759 -78 
Q 1097 -78 719 397 
Q 266 969 266 2259 
z
M 844 2259 
Q 844 1131 1108 757 
Q 1372 384 1759 384 
Q 2147 384 2411 759 
Q 2675 1134 2675 2259 
Q 2675 3391 2411 3762 
Q 2147 4134 1753 4134 
Q 1366 4134 1134 3806 
Q 844 3388 844 2259 
z
" transform="scale(0.015625)"/>
       </defs>
       <use xlink:href="#ArialMT-30"/>
      </g>
     </g>
    </g>
    <g id="ytick_2">
     <g id="line2d_9">
      <g>
       <use xlink:href="#mf58228a603" x="44.195313" y="99.918644" style="fill: #262626; stroke: #262626; stroke-width: 1.25"/>
      </g>
     </g>
     <g id="text_7">
      <!-- 20 -->
      <g style="fill: #262626" transform="translate(22.46125 103.855441) scale(0.11 -0.11)">
       <defs>
        <path id="ArialMT-32" d="M 3222 541 
L 3222 0 
L 194 0 
Q 188 203 259 391 
Q 375 700 629 1000 
Q 884 1300 1366 1694 
Q 2113 2306 2375 2664 
Q 2638 3022 2638 3341 
Q 2638 3675 2398 3904 
Q 2159 4134 1775 4134 
Q 1369 4134 1125 3890 
Q 881 3647 878 3216 
L 300 3275 
Q 359 3922 746 4261 
Q 1134 4600 1788 4600 
Q 2447 4600 2831 4234 
Q 3216 3869 3216 3328 
Q 3216 3053 3103 2787 
Q 2991 2522 2730 2228 
Q 2469 1934 1863 1422 
Q 1356 997 1212 845 
Q 1069 694 975 541 
L 3222 541 
z
" transform="scale(0.015625)"/>
       </defs>
       <use xlink:href="#ArialMT-32"/>
       <use xlink:href="#ArialMT-30" transform="translate(55.615234 0)"/>
      </g>
     </g>
    </g>
    <g id="ytick_3">
     <g id="line2d_10">
      <g>
       <use xlink:href="#mf58228a603" x="44.195313" y="75.637288" style="fill: #262626; stroke: #262626; stroke-width: 1.25"/>
      </g>
     </g>
     <g id="text_8">
      <!-- 40 -->
      <g style="fill: #262626" transform="translate(22.46125 79.574085) scale(0.11 -0.11)">
       <defs>
        <path id="ArialMT-34" d="M 2069 0 
L 2069 1097 
L 81 1097 
L 81 1613 
L 2172 4581 
L 2631 4581 
L 2631 1613 
L 3250 1613 
L 3250 1097 
L 2631 1097 
L 2631 0 
L 2069 0 
z
M 2069 1613 
L 2069 3678 
L 634 1613 
L 2069 1613 
z
" transform="scale(0.015625)"/>
       </defs>
       <use xlink:href="#ArialMT-34"/>
       <use xlink:href="#ArialMT-30" transform="translate(55.615234 0)"/>
      </g>
     </g>
    </g>
    <g id="ytick_4">
     <g id="line2d_11">
      <g>
       <use xlink:href="#mf58228a603" x="44.195313" y="51.355933" style="fill: #262626; stroke: #262626; stroke-width: 1.25"/>
      </g>
     </g>
     <g id="text_9">
      <!-- 60 -->
      <g style="fill: #262626" transform="translate(22.46125 55.292729) scale(0.11 -0.11)">
       <defs>
        <path id="ArialMT-36" d="M 3184 3459 
L 2625 3416 
Q 2550 3747 2413 3897 
Q 2184 4138 1850 4138 
Q 1581 4138 1378 3988 
Q 1113 3794 959 3422 
Q 806 3050 800 2363 
Q 1003 2672 1297 2822 
Q 1591 2972 1913 2972 
Q 2475 2972 2870 2558 
Q 3266 2144 3266 1488 
Q 3266 1056 3080 686 
Q 2894 316 2569 119 
Q 2244 -78 1831 -78 
Q 1128 -78 684 439 
Q 241 956 241 2144 
Q 241 3472 731 4075 
Q 1159 4600 1884 4600 
Q 2425 4600 2770 4297 
Q 3116 3994 3184 3459 
z
M 888 1484 
Q 888 1194 1011 928 
Q 1134 663 1356 523 
Q 1578 384 1822 384 
Q 2178 384 2434 671 
Q 2691 959 2691 1453 
Q 2691 1928 2437 2201 
Q 2184 2475 1800 2475 
Q 1419 2475 1153 2201 
Q 888 1928 888 1484 
z
" transform="scale(0.015625)"/>
       </defs>
       <use xlink:href="#ArialMT-36"/>
       <use xlink:href="#ArialMT-30" transform="translate(55.615234 0)"/>
      </g>
     </g>
    </g>
    <g id="ytick_5">
     <g id="line2d_12">
      <g>
       <use xlink:href="#mf58228a603" x="44.195313" y="27.074577" style="fill: #262626; stroke: #262626; stroke-width: 1.25"/>
      </g>
     </g>
     <g id="text_10">
      <!-- 80 -->
      <g style="fill: #262626" transform="translate(22.46125 31.011374) scale(0.11 -0.11)">
       <defs>
        <path id="ArialMT-38" d="M 1131 2484 
Q 781 2613 612 2850 
Q 444 3088 444 3419 
Q 444 3919 803 4259 
Q 1163 4600 1759 4600 
Q 2359 4600 2725 4251 
Q 3091 3903 3091 3403 
Q 3091 3084 2923 2848 
Q 2756 2613 2416 2484 
Q 2838 2347 3058 2040 
Q 3278 1734 3278 1309 
Q 3278 722 2862 322 
Q 2447 -78 1769 -78 
Q 1091 -78 675 323 
Q 259 725 259 1325 
Q 259 1772 486 2073 
Q 713 2375 1131 2484 
z
M 1019 3438 
Q 1019 3113 1228 2906 
Q 1438 2700 1772 2700 
Q 2097 2700 2305 2904 
Q 2513 3109 2513 3406 
Q 2513 3716 2298 3927 
Q 2084 4138 1766 4138 
Q 1444 4138 1231 3931 
Q 1019 3725 1019 3438 
z
M 838 1322 
Q 838 1081 952 856 
Q 1066 631 1291 507 
Q 1516 384 1775 384 
Q 2178 384 2440 643 
Q 2703 903 2703 1303 
Q 2703 1709 2433 1975 
Q 2163 2241 1756 2241 
Q 1359 2241 1098 1978 
Q 838 1716 838 1322 
z
" transform="scale(0.015625)"/>
       </defs>
       <use xlink:href="#ArialMT-38"/>
       <use xlink:href="#ArialMT-30" transform="translate(55.615234 0)"/>
      </g>
     </g>
    </g>
    <g id="text_11">
     <!-- (%) HyperP -->
     <g style="fill: #262626" transform="translate(15.935625 96.704062) rotate(-90) scale(0.12 -0.12)">
      <defs>
       <path id="ArialMT-28" d="M 1497 -1347 
Q 1031 -759 709 28 
Q 388 816 388 1659 
Q 388 2403 628 3084 
Q 909 3875 1497 4659 
L 1900 4659 
Q 1522 4009 1400 3731 
Q 1209 3300 1100 2831 
Q 966 2247 966 1656 
Q 966 153 1900 -1347 
L 1497 -1347 
z
" transform="scale(0.015625)"/>
       <path id="ArialMT-25" d="M 372 3481 
Q 372 3972 619 4315 
Q 866 4659 1334 4659 
Q 1766 4659 2048 4351 
Q 2331 4044 2331 3447 
Q 2331 2866 2045 2552 
Q 1759 2238 1341 2238 
Q 925 2238 648 2547 
Q 372 2856 372 3481 
z
M 1350 4272 
Q 1141 4272 1002 4090 
Q 863 3909 863 3425 
Q 863 2984 1003 2804 
Q 1144 2625 1350 2625 
Q 1563 2625 1702 2806 
Q 1841 2988 1841 3469 
Q 1841 3913 1700 4092 
Q 1559 4272 1350 4272 
z
M 1353 -169 
L 3859 4659 
L 4316 4659 
L 1819 -169 
L 1353 -169 
z
M 3334 1075 
Q 3334 1569 3581 1911 
Q 3828 2253 4300 2253 
Q 4731 2253 5014 1945 
Q 5297 1638 5297 1041 
Q 5297 459 5011 145 
Q 4725 -169 4303 -169 
Q 3888 -169 3611 142 
Q 3334 453 3334 1075 
z
M 4316 1866 
Q 4103 1866 3964 1684 
Q 3825 1503 3825 1019 
Q 3825 581 3965 400 
Q 4106 219 4313 219 
Q 4528 219 4667 400 
Q 4806 581 4806 1063 
Q 4806 1506 4665 1686 
Q 4525 1866 4316 1866 
z
" transform="scale(0.015625)"/>
       <path id="ArialMT-29" d="M 791 -1347 
L 388 -1347 
Q 1322 153 1322 1656 
Q 1322 2244 1188 2822 
Q 1081 3291 891 3722 
Q 769 4003 388 4659 
L 791 4659 
Q 1378 3875 1659 3084 
Q 1900 2403 1900 1659 
Q 1900 816 1576 28 
Q 1253 -759 791 -1347 
z
" transform="scale(0.015625)"/>
       <path id="ArialMT-20" transform="scale(0.015625)"/>
       <path id="ArialMT-48" d="M 513 0 
L 513 4581 
L 1119 4581 
L 1119 2700 
L 3500 2700 
L 3500 4581 
L 4106 4581 
L 4106 0 
L 3500 0 
L 3500 2159 
L 1119 2159 
L 1119 0 
L 513 0 
z
" transform="scale(0.015625)"/>
       <path id="ArialMT-79" d="M 397 -1278 
L 334 -750 
Q 519 -800 656 -800 
Q 844 -800 956 -737 
Q 1069 -675 1141 -563 
Q 1194 -478 1313 -144 
Q 1328 -97 1363 -6 
L 103 3319 
L 709 3319 
L 1400 1397 
Q 1534 1031 1641 628 
Q 1738 1016 1872 1384 
L 2581 3319 
L 3144 3319 
L 1881 -56 
Q 1678 -603 1566 -809 
Q 1416 -1088 1222 -1217 
Q 1028 -1347 759 -1347 
Q 597 -1347 397 -1278 
z
" transform="scale(0.015625)"/>
       <path id="ArialMT-70" d="M 422 -1272 
L 422 3319 
L 934 3319 
L 934 2888 
Q 1116 3141 1344 3267 
Q 1572 3394 1897 3394 
Q 2322 3394 2647 3175 
Q 2972 2956 3137 2557 
Q 3303 2159 3303 1684 
Q 3303 1175 3120 767 
Q 2938 359 2589 142 
Q 2241 -75 1856 -75 
Q 1575 -75 1351 44 
Q 1128 163 984 344 
L 984 -1272 
L 422 -1272 
z
M 931 1641 
Q 931 1000 1190 694 
Q 1450 388 1819 388 
Q 2194 388 2461 705 
Q 2728 1022 2728 1688 
Q 2728 2322 2467 2637 
Q 2206 2953 1844 2953 
Q 1484 2953 1207 2617 
Q 931 2281 931 1641 
z
" transform="scale(0.015625)"/>
       <path id="ArialMT-72" d="M 416 0 
L 416 3319 
L 922 3319 
L 922 2816 
Q 1116 3169 1280 3281 
Q 1444 3394 1641 3394 
Q 1925 3394 2219 3213 
L 2025 2691 
Q 1819 2813 1613 2813 
Q 1428 2813 1281 2702 
Q 1134 2591 1072 2394 
Q 978 2094 978 1738 
L 978 0 
L 416 0 
z
" transform="scale(0.015625)"/>
      </defs>
      <use xlink:href="#ArialMT-28"/>
      <use xlink:href="#ArialMT-25" transform="translate(33.300781 0)"/>
      <use xlink:href="#ArialMT-29" transform="translate(122.216797 0)"/>
      <use xlink:href="#ArialMT-20" transform="translate(155.517578 0)"/>
      <use xlink:href="#ArialMT-48" transform="translate(183.300781 0)"/>
      <use xlink:href="#ArialMT-79" transform="translate(255.517578 0)"/>
      <use xlink:href="#ArialMT-70" transform="translate(305.517578 0)"/>
      <use xlink:href="#ArialMT-65" transform="translate(361.132812 0)"/>
      <use xlink:href="#ArialMT-72" transform="translate(416.748047 0)"/>
      <use xlink:href="#ArialMT-50" transform="translate(450.048828 0)"/>
     </g>
    </g>
   </g>
   <g id="patch_3">
    <path d="M 56.46804 124.2 
L 76.922585 124.2 
L 76.922585 97.932907 
L 56.46804 97.932907 
z
" clip-path="url(#pa6a52613e3)" style="fill: #db8484; stroke: #ffffff; stroke-linejoin: miter"/>
   </g>
   <g id="patch_4">
    <path d="M 107.604403 124.2 
L 128.058949 124.2 
L 128.058949 85.39833 
L 107.604403 85.39833 
z
" clip-path="url(#pa6a52613e3)" style="fill: #db8484; stroke: #ffffff; stroke-linejoin: miter"/>
   </g>
   <g id="patch_5">
    <path d="M 158.740767 124.2 
L 179.195312 124.2 
L 179.195312 57.717222 
L 158.740767 57.717222 
z
" clip-path="url(#pa6a52613e3)" style="fill: #db8484; stroke: #ffffff; stroke-linejoin: miter"/>
   </g>
   <g id="patch_6">
    <path d="M 209.877131 124.2 
L 230.331676 124.2 
L 230.331676 40.004665 
L 209.877131 40.004665 
z
" clip-path="url(#pa6a52613e3)" style="fill: #db8484; stroke: #ffffff; stroke-linejoin: miter"/>
   </g>
   <g id="patch_7">
    <path d="M 261.013494 124.2 
L 281.46804 124.2 
L 281.46804 102.205592 
L 261.013494 102.205592 
z
" clip-path="url(#pa6a52613e3)" style="fill: #db8484; stroke: #ffffff; stroke-linejoin: miter"/>
   </g>
   <g id="patch_8">
    <path d="M 76.922585 124.2 
L 97.377131 124.2 
L 97.377131 110.642674 
L 76.922585 110.642674 
z
" clip-path="url(#pa6a52613e3)" style="fill: #4b94a2; stroke: #ffffff; stroke-linejoin: miter"/>
   </g>
   <g id="patch_9">
    <path d="M 128.058949 124.2 
L 148.513494 124.2 
L 148.513494 104.137566 
L 128.058949 104.137566 
z
" clip-path="url(#pa6a52613e3)" style="fill: #4b94a2; stroke: #ffffff; stroke-linejoin: miter"/>
   </g>
   <g id="patch_10">
    <path d="M 179.195312 124.2 
L 199.649858 124.2 
L 199.649858 90.00484 
L 179.195312 90.00484 
z
" clip-path="url(#pa6a52613e3)" style="fill: #4b94a2; stroke: #ffffff; stroke-linejoin: miter"/>
   </g>
   <g id="patch_11">
    <path d="M 230.331676 124.2 
L 250.786222 124.2 
L 250.786222 76.550066 
L 230.331676 76.550066 
z
" clip-path="url(#pa6a52613e3)" style="fill: #4b94a2; stroke: #ffffff; stroke-linejoin: miter"/>
   </g>
   <g id="patch_12">
    <path d="M 281.46804 124.2 
L 301.922585 124.2 
L 301.922585 116.381273 
L 281.46804 116.381273 
z
" clip-path="url(#pa6a52613e3)" style="fill: #4b94a2; stroke: #ffffff; stroke-linejoin: miter"/>
   </g>
   <g id="line2d_13">
    <path d="M 66.695312 100.660273 
L 66.695312 95.446013 
" clip-path="url(#pa6a52613e3)" style="fill: none; stroke: #424242; stroke-width: 2.7; stroke-linecap: round"/>
   </g>
   <g id="line2d_14">
    <path d="M 117.831676 88.48193 
L 117.831676 82.372883 
" clip-path="url(#pa6a52613e3)" style="fill: none; stroke: #424242; stroke-width: 2.7; stroke-linecap: round"/>
   </g>
   <g id="line2d_15">
    <path d="M 168.96804 60.027767 
L 168.96804 55.547997 
" clip-path="url(#pa6a52613e3)" style="fill: none; stroke: #424242; stroke-width: 2.7; stroke-linecap: round"/>
   </g>
   <g id="line2d_16">
    <path d="M 220.104403 43.895811 
L 220.104403 36.014584 
" clip-path="url(#pa6a52613e3)" style="fill: none; stroke: #424242; stroke-width: 2.7; stroke-linecap: round"/>
   </g>
   <g id="line2d_17">
    <path d="M 271.240767 106.375148 
L 271.240767 97.569296 
" clip-path="url(#pa6a52613e3)" style="fill: none; stroke: #424242; stroke-width: 2.7; stroke-linecap: round"/>
   </g>
   <g id="line2d_18">
    <path d="M 87.149858 112.797004 
L 87.149858 108.596297 
" clip-path="url(#pa6a52613e3)" style="fill: none; stroke: #424242; stroke-width: 2.7; stroke-linecap: round"/>
   </g>
   <g id="line2d_19">
    <path d="M 138.286222 106.782073 
L 138.286222 101.226235 
" clip-path="url(#pa6a52613e3)" style="fill: none; stroke: #424242; stroke-width: 2.7; stroke-linecap: round"/>
   </g>
   <g id="line2d_20">
    <path d="M 189.422585 91.93303 
L 189.422585 87.530632 
" clip-path="url(#pa6a52613e3)" style="fill: none; stroke: #424242; stroke-width: 2.7; stroke-linecap: round"/>
   </g>
   <g id="line2d_21">
    <path d="M 240.558949 81.225961 
L 240.558949 71.610043 
" clip-path="url(#pa6a52613e3)" style="fill: none; stroke: #424242; stroke-width: 2.7; stroke-linecap: round"/>
   </g>
   <g id="line2d_22">
    <path d="M 291.695312 117.561099 
L 291.695312 115.244073 
" clip-path="url(#pa6a52613e3)" style="fill: none; stroke: #424242; stroke-width: 2.7; stroke-linecap: round"/>
   </g>
   <g id="line2d_23">
    <path d="M 117.831676 66.434754 
L 117.831676 64.445295 
L 138.286222 64.445295 
L 138.286222 66.434754 
" clip-path="url(#pa6a52613e3)" style="fill: none; stroke: #333333; stroke-width: 1.5; stroke-linecap: round"/>
   </g>
   <g id="line2d_24">
    <path d="M 66.695312 81.939065 
L 66.695312 79.949607 
L 87.149858 79.949607 
L 87.149858 81.939065 
" clip-path="url(#pa6a52613e3)" style="fill: none; stroke: #333333; stroke-width: 1.5; stroke-linecap: round"/>
   </g>
   <g id="line2d_25">
    <path d="M 168.96804 43.232952 
L 168.96804 41.243493 
L 189.422585 41.243493 
L 189.422585 43.232952 
" clip-path="url(#pa6a52613e3)" style="fill: none; stroke: #333333; stroke-width: 1.5; stroke-linecap: round"/>
   </g>
   <g id="line2d_26">
    <path d="M 220.104403 23.495481 
L 220.104403 21.506022 
L 240.558949 21.506022 
L 240.558949 23.495481 
" clip-path="url(#pa6a52613e3)" style="fill: none; stroke: #333333; stroke-width: 1.5; stroke-linecap: round"/>
   </g>
   <g id="line2d_27">
    <path d="M 271.240767 80.120749 
L 271.240767 78.13129 
L 291.695312 78.13129 
L 291.695312 80.120749 
" clip-path="url(#pa6a52613e3)" style="fill: none; stroke: #333333; stroke-width: 1.5; stroke-linecap: round"/>
   </g>
   <g id="patch_13">
    <path d="M 44.195313 124.2 
L 44.195313 7.2 
" style="fill: none; stroke: #262626; stroke-width: 1.25; stroke-linejoin: miter; stroke-linecap: square"/>
   </g>
   <g id="patch_14">
    <path d="M 314.195312 124.2 
L 314.195312 7.2 
" style="fill: none; stroke: #262626; stroke-width: 1.25; stroke-linejoin: miter; stroke-linecap: square"/>
   </g>
   <g id="patch_15">
    <path d="M 44.195313 124.2 
L 314.195312 124.2 
" style="fill: none; stroke: #262626; stroke-width: 1.25; stroke-linejoin: miter; stroke-linecap: square"/>
   </g>
   <g id="patch_16">
    <path d="M 44.195313 7.2 
L 314.195312 7.2 
" style="fill: none; stroke: #262626; stroke-width: 1.25; stroke-linejoin: miter; stroke-linecap: square"/>
   </g>
   <g id="PathCollection_1">
    <defs>
     <path id="C0_0_81d8e7865b" d="M 0 2.5 
C 0.663008 2.5 1.29895 2.236584 1.767767 1.767767 
C 2.236584 1.29895 2.5 0.663008 2.5 -0 
C 2.5 -0.663008 2.236584 -1.29895 1.767767 -1.767767 
C 1.29895 -2.236584 0.663008 -2.5 0 -2.5 
C -0.663008 -2.5 -1.29895 -2.236584 -1.767767 -1.767767 
C -2.236584 -1.29895 -2.5 -0.663008 -2.5 0 
C -2.5 0.663008 -2.236584 1.29895 -1.767767 1.767767 
C -1.29895 2.236584 -0.663008 2.5 0 2.5 
z
"/>
    </defs>
    <g clip-path="url(#pa6a52613e3)">
     <use xlink:href="#C0_0_81d8e7865b" x="66.312383" y="91.383991" style="fill: #ffffff; stroke: #000000; stroke-width: 0.4"/>
    </g>
    <g clip-path="url(#pa6a52613e3)">
     <use xlink:href="#C0_0_81d8e7865b" x="66.169753" y="90.968594" style="fill: #ffffff; stroke: #000000; stroke-width: 0.4"/>
    </g>
    <g clip-path="url(#pa6a52613e3)">
     <use xlink:href="#C0_0_81d8e7865b" x="66.144088" y="87.907442" style="fill: #ffffff; stroke: #000000; stroke-width: 0.4"/>
    </g>
   </g>
   <g id="PathCollection_2">
    <defs>
     <path id="C1_0_70b0107b5c" d="M 0 2.5 
C 0.663008 2.5 1.29895 2.236584 1.767767 1.767767 
C 2.236584 1.29895 2.5 0.663008 2.5 -0 
C 2.5 -0.663008 2.236584 -1.29895 1.767767 -1.767767 
C 1.29895 -2.236584 0.663008 -2.5 0 -2.5 
C -0.663008 -2.5 -1.29895 -2.236584 -1.767767 -1.767767 
C -2.236584 -1.29895 -2.5 -0.663008 -2.5 0 
C -2.5 0.663008 -2.236584 1.29895 -1.767767 1.767767 
C -1.29895 2.236584 -0.663008 2.5 0 2.5 
z
"/>
    </defs>
    <g clip-path="url(#pa6a52613e3)">
     <use xlink:href="#C1_0_70b0107b5c" x="87.169752" y="107.368706" style="fill: #ffffff; stroke: #000000; stroke-width: 0.4"/>
    </g>
    <g clip-path="url(#pa6a52613e3)">
     <use xlink:href="#C1_0_70b0107b5c" x="86.990307" y="109.037674" style="fill: #ffffff; stroke: #000000; stroke-width: 0.4"/>
    </g>
    <g clip-path="url(#pa6a52613e3)">
     <use xlink:href="#C1_0_70b0107b5c" x="86.340288" y="105.557635" style="fill: #ffffff; stroke: #000000; stroke-width: 0.4"/>
    </g>
   </g>
   <g id="PathCollection_3">
    <defs>
     <path id="C2_0_19e134a749" d="M 0 2.5 
C 0.663008 2.5 1.29895 2.236584 1.767767 1.767767 
C 2.236584 1.29895 2.5 0.663008 2.5 -0 
C 2.5 -0.663008 2.236584 -1.29895 1.767767 -1.767767 
C 1.29895 -2.236584 0.663008 -2.5 0 -2.5 
C -0.663008 -2.5 -1.29895 -2.236584 -1.767767 -1.767767 
C -2.236584 -1.29895 -2.5 -0.663008 -2.5 0 
C -2.5 0.663008 -2.236584 1.29895 -1.767767 1.767767 
C -1.29895 2.236584 -0.663008 2.5 0 2.5 
z
"/>
    </defs>
    <g clip-path="url(#pa6a52613e3)">
     <use xlink:href="#C2_0_19e134a749" x="117.493232" y="85.664775" style="fill: #ffffff; stroke: #000000; stroke-width: 0.4"/>
    </g>
    <g clip-path="url(#pa6a52613e3)">
     <use xlink:href="#C2_0_19e134a749" x="115.879508" y="85.704545" style="fill: #ffffff; stroke: #000000; stroke-width: 0.4"/>
    </g>
    <g clip-path="url(#pa6a52613e3)">
     <use xlink:href="#C2_0_19e134a749" x="116.009237" y="91.018026" style="fill: #ffffff; stroke: #000000; stroke-width: 0.4"/>
    </g>
   </g>
   <g id="PathCollection_4">
    <defs>
     <path id="C3_0_fb431cfff8" d="M 0 2.5 
C 0.663008 2.5 1.29895 2.236584 1.767767 1.767767 
C 2.236584 1.29895 2.5 0.663008 2.5 -0 
C 2.5 -0.663008 2.236584 -1.29895 1.767767 -1.767767 
C 1.29895 -2.236584 0.663008 -2.5 0 -2.5 
C -0.663008 -2.5 -1.29895 -2.236584 -1.767767 -1.767767 
C -2.236584 -1.29895 -2.5 -0.663008 -2.5 0 
C -2.5 0.663008 -2.236584 1.29895 -1.767767 1.767767 
C -1.29895 2.236584 -0.663008 2.5 0 2.5 
z
"/>
    </defs>
    <g clip-path="url(#pa6a52613e3)">
     <use xlink:href="#C3_0_fb431cfff8" x="137.503674" y="104.025978" style="fill: #ffffff; stroke: #000000; stroke-width: 0.4"/>
    </g>
    <g clip-path="url(#pa6a52613e3)">
     <use xlink:href="#C3_0_fb431cfff8" x="136.080535" y="100.692119" style="fill: #ffffff; stroke: #000000; stroke-width: 0.4"/>
    </g>
    <g clip-path="url(#pa6a52613e3)">
     <use xlink:href="#C3_0_fb431cfff8" x="140.689971" y="105.17537" style="fill: #ffffff; stroke: #000000; stroke-width: 0.4"/>
    </g>
   </g>
   <g id="PathCollection_5">
    <defs>
     <path id="C4_0_08304643d8" d="M 0 2.5 
C 0.663008 2.5 1.29895 2.236584 1.767767 1.767767 
C 2.236584 1.29895 2.5 0.663008 2.5 -0 
C 2.5 -0.663008 2.236584 -1.29895 1.767767 -1.767767 
C 1.29895 -2.236584 0.663008 -2.5 0 -2.5 
C -0.663008 -2.5 -1.29895 -2.236584 -1.767767 -1.767767 
C -2.236584 -1.29895 -2.5 -0.663008 -2.5 0 
C -2.5 0.663008 -2.236584 1.29895 -1.767767 1.767767 
C -1.29895 2.236584 -0.663008 2.5 0 2.5 
z
"/>
    </defs>
    <g clip-path="url(#pa6a52613e3)">
     <use xlink:href="#C4_0_08304643d8" x="169.823213" y="52.264735" style="fill: #ffffff; stroke: #000000; stroke-width: 0.4"/>
    </g>
    <g clip-path="url(#pa6a52613e3)">
     <use xlink:href="#C4_0_08304643d8" x="170.286614" y="49.5861" style="fill: #ffffff; stroke: #000000; stroke-width: 0.4"/>
    </g>
    <g clip-path="url(#pa6a52613e3)">
     <use xlink:href="#C4_0_08304643d8" x="171.524759" y="55.119159" style="fill: #ffffff; stroke: #000000; stroke-width: 0.4"/>
    </g>
   </g>
   <g id="PathCollection_6">
    <defs>
     <path id="C5_0_37a720d222" d="M 0 2.5 
C 0.663008 2.5 1.29895 2.236584 1.767767 1.767767 
C 2.236584 1.29895 2.5 0.663008 2.5 -0 
C 2.5 -0.663008 2.236584 -1.29895 1.767767 -1.767767 
C 1.29895 -2.236584 0.663008 -2.5 0 -2.5 
C -0.663008 -2.5 -1.29895 -2.236584 -1.767767 -1.767767 
C -2.236584 -1.29895 -2.5 -0.663008 -2.5 0 
C -2.5 0.663008 -2.236584 1.29895 -1.767767 1.767767 
C -1.29895 2.236584 -0.663008 2.5 0 2.5 
z
"/>
    </defs>
    <g clip-path="url(#pa6a52613e3)">
     <use xlink:href="#C5_0_37a720d222" x="191.554172" y="92.178625" style="fill: #ffffff; stroke: #000000; stroke-width: 0.4"/>
    </g>
    <g clip-path="url(#pa6a52613e3)">
     <use xlink:href="#C5_0_37a720d222" x="187.245262" y="88.219525" style="fill: #ffffff; stroke: #000000; stroke-width: 0.4"/>
    </g>
    <g clip-path="url(#pa6a52613e3)">
     <use xlink:href="#C5_0_37a720d222" x="187.293269" y="87.710459" style="fill: #ffffff; stroke: #000000; stroke-width: 0.4"/>
    </g>
   </g>
   <g id="PathCollection_7">
    <defs>
     <path id="C6_0_6d4e2f8618" d="M 0 2.5 
C 0.663008 2.5 1.29895 2.236584 1.767767 1.767767 
C 2.236584 1.29895 2.5 0.663008 2.5 -0 
C 2.5 -0.663008 2.236584 -1.29895 1.767767 -1.767767 
C 1.29895 -2.236584 0.663008 -2.5 0 -2.5 
C -0.663008 -2.5 -1.29895 -2.236584 -1.767767 -1.767767 
C -2.236584 -1.29895 -2.5 -0.663008 -2.5 0 
C -2.5 0.663008 -2.236584 1.29895 -1.767767 1.767767 
C -1.29895 2.236584 -0.663008 2.5 0 2.5 
z
"/>
    </defs>
    <g clip-path="url(#pa6a52613e3)">
     <use xlink:href="#C6_0_6d4e2f8618" x="218.639566" y="38.713747" style="fill: #ffffff; stroke: #000000; stroke-width: 0.4"/>
    </g>
    <g clip-path="url(#pa6a52613e3)">
     <use xlink:href="#C6_0_6d4e2f8618" x="218.612377" y="37.593858" style="fill: #ffffff; stroke: #000000; stroke-width: 0.4"/>
    </g>
    <g clip-path="url(#pa6a52613e3)">
     <use xlink:href="#C6_0_6d4e2f8618" x="222.647953" y="34.877342" style="fill: #ffffff; stroke: #000000; stroke-width: 0.4"/>
    </g>
   </g>
   <g id="PathCollection_8">
    <defs>
     <path id="C7_0_eab0cef2ad" d="M 0 2.5 
C 0.663008 2.5 1.29895 2.236584 1.767767 1.767767 
C 2.236584 1.29895 2.5 0.663008 2.5 -0 
C 2.5 -0.663008 2.236584 -1.29895 1.767767 -1.767767 
C 1.29895 -2.236584 0.663008 -2.5 0 -2.5 
C -0.663008 -2.5 -1.29895 -2.236584 -1.767767 -1.767767 
C -2.236584 -1.29895 -2.5 -0.663008 -2.5 0 
C -2.5 0.663008 -2.236584 1.29895 -1.767767 1.767767 
C -1.29895 2.236584 -0.663008 2.5 0 2.5 
z
"/>
    </defs>
    <g clip-path="url(#pa6a52613e3)">
     <use xlink:href="#C7_0_eab0cef2ad" x="239.342118" y="64.43705" style="fill: #ffffff; stroke: #000000; stroke-width: 0.4"/>
    </g>
    <g clip-path="url(#pa6a52613e3)">
     <use xlink:href="#C7_0_eab0cef2ad" x="240.759905" y="62.915528" style="fill: #ffffff; stroke: #000000; stroke-width: 0.4"/>
    </g>
    <g clip-path="url(#pa6a52613e3)">
     <use xlink:href="#C7_0_eab0cef2ad" x="239.399481" y="58.749328" style="fill: #ffffff; stroke: #000000; stroke-width: 0.4"/>
    </g>
   </g>
   <g id="PathCollection_9">
    <defs>
     <path id="C8_0_013ab60f1a" d="M 0 2.5 
C 0.663008 2.5 1.29895 2.236584 1.767767 1.767767 
C 2.236584 1.29895 2.5 0.663008 2.5 -0 
C 2.5 -0.663008 2.236584 -1.29895 1.767767 -1.767767 
C 1.29895 -2.236584 0.663008 -2.5 0 -2.5 
C -0.663008 -2.5 -1.29895 -2.236584 -1.767767 -1.767767 
C -2.236584 -1.29895 -2.5 -0.663008 -2.5 0 
C -2.5 0.663008 -2.236584 1.29895 -1.767767 1.767767 
C -1.29895 2.236584 -0.663008 2.5 0 2.5 
z
"/>
    </defs>
    <g clip-path="url(#pa6a52613e3)">
     <use xlink:href="#C8_0_013ab60f1a" x="269.112153" y="102.854498" style="fill: #ffffff; stroke: #000000; stroke-width: 0.4"/>
    </g>
    <g clip-path="url(#pa6a52613e3)">
     <use xlink:href="#C8_0_013ab60f1a" x="268.733137" y="98.927342" style="fill: #ffffff; stroke: #000000; stroke-width: 0.4"/>
    </g>
    <g clip-path="url(#pa6a52613e3)">
     <use xlink:href="#C8_0_013ab60f1a" x="270.033107" y="96.848077" style="fill: #ffffff; stroke: #000000; stroke-width: 0.4"/>
    </g>
   </g>
   <g id="PathCollection_10">
    <defs>
     <path id="C9_0_c3bea43a28" d="M 0 2.5 
C 0.663008 2.5 1.29895 2.236584 1.767767 1.767767 
C 2.236584 1.29895 2.5 0.663008 2.5 -0 
C 2.5 -0.663008 2.236584 -1.29895 1.767767 -1.767767 
C 1.29895 -2.236584 0.663008 -2.5 0 -2.5 
C -0.663008 -2.5 -1.29895 -2.236584 -1.767767 -1.767767 
C -2.236584 -1.29895 -2.5 -0.663008 -2.5 0 
C -2.5 0.663008 -2.236584 1.29895 -1.767767 1.767767 
C -1.29895 2.236584 -0.663008 2.5 0 2.5 
z
"/>
    </defs>
    <g clip-path="url(#pa6a52613e3)">
     <use xlink:href="#C9_0_c3bea43a28" x="294.162045" y="118.175584" style="fill: #ffffff; stroke: #000000; stroke-width: 0.4"/>
    </g>
    <g clip-path="url(#pa6a52613e3)">
     <use xlink:href="#C9_0_c3bea43a28" x="290.308534" y="114.947206" style="fill: #ffffff; stroke: #000000; stroke-width: 0.4"/>
    </g>
    <g clip-path="url(#pa6a52613e3)">
     <use xlink:href="#C9_0_c3bea43a28" x="292.29377" y="113.095909" style="fill: #ffffff; stroke: #000000; stroke-width: 0.4"/>
    </g>
   </g>
   <g id="PathCollection_11">
    <path d="M 67.311689 105.138556 
L 64.811689 110.138556 
L 69.811689 110.138556 
z
" clip-path="url(#pa6a52613e3)" style="fill: #ffffff; stroke: #000000; stroke-width: 0.4"/>
    <path d="M 67.466435 101.128948 
L 64.966435 106.128948 
L 69.966435 106.128948 
z
" clip-path="url(#pa6a52613e3)" style="fill: #ffffff; stroke: #000000; stroke-width: 0.4"/>
    <path d="M 66.236842 105.306338 
L 63.736842 110.306338 
L 68.736842 110.306338 
z
" clip-path="url(#pa6a52613e3)" style="fill: #ffffff; stroke: #000000; stroke-width: 0.4"/>
   </g>
   <g id="PathCollection_12">
    <path d="M 86.117804 113.994292 
L 83.617804 118.994292 
L 88.617804 118.994292 
z
" clip-path="url(#pa6a52613e3)" style="fill: #ffffff; stroke: #000000; stroke-width: 0.4"/>
    <path d="M 89.201509 112.868383 
L 86.701509 117.868383 
L 91.701509 117.868383 
z
" clip-path="url(#pa6a52613e3)" style="fill: #ffffff; stroke: #000000; stroke-width: 0.4"/>
    <path d="M 87.710382 115.887271 
L 85.210382 120.887271 
L 90.210382 120.887271 
z
" clip-path="url(#pa6a52613e3)" style="fill: #ffffff; stroke: #000000; stroke-width: 0.4"/>
   </g>
   <g id="PathCollection_13">
    <path d="M 120.122269 71.46489 
L 117.622269 76.46489 
L 122.622269 76.46489 
z
" clip-path="url(#pa6a52613e3)" style="fill: #ffffff; stroke: #000000; stroke-width: 0.4"/>
    <path d="M 117.644957 69.903131 
L 115.144957 74.903131 
L 120.144957 74.903131 
z
" clip-path="url(#pa6a52613e3)" style="fill: #ffffff; stroke: #000000; stroke-width: 0.4"/>
    <path d="M 118.708207 71.069754 
L 116.208207 76.069754 
L 121.208207 76.069754 
z
" clip-path="url(#pa6a52613e3)" style="fill: #ffffff; stroke: #000000; stroke-width: 0.4"/>
   </g>
   <g id="PathCollection_14">
    <path d="M 136.773706 108.142031 
L 134.273706 113.142031 
L 139.273706 113.142031 
z
" clip-path="url(#pa6a52613e3)" style="fill: #ffffff; stroke: #000000; stroke-width: 0.4"/>
    <path d="M 136.176133 107.206537 
L 133.676133 112.206537 
L 138.676133 112.206537 
z
" clip-path="url(#pa6a52613e3)" style="fill: #ffffff; stroke: #000000; stroke-width: 0.4"/>
   </g>
   <g id="PathCollection_15">
    <path d="M 168.284608 55.547059 
L 165.784608 60.547059 
L 170.784608 60.547059 
z
" clip-path="url(#pa6a52613e3)" style="fill: #ffffff; stroke: #000000; stroke-width: 0.4"/>
    <path d="M 171.216773 54.38393 
L 168.716773 59.38393 
L 173.716773 59.38393 
z
" clip-path="url(#pa6a52613e3)" style="fill: #ffffff; stroke: #000000; stroke-width: 0.4"/>
    <path d="M 169.064773 56.496059 
L 166.564773 61.496059 
L 171.564773 61.496059 
z
" clip-path="url(#pa6a52613e3)" style="fill: #ffffff; stroke: #000000; stroke-width: 0.4"/>
   </g>
   <g id="PathCollection_16">
    <path d="M 188.147013 91.026623 
L 185.647013 96.026623 
L 190.647013 96.026623 
z
" clip-path="url(#pa6a52613e3)" style="fill: #ffffff; stroke: #000000; stroke-width: 0.4"/>
    <path d="M 189.976621 89.67569 
L 187.476621 94.67569 
L 192.476621 94.67569 
z
" clip-path="url(#pa6a52613e3)" style="fill: #ffffff; stroke: #000000; stroke-width: 0.4"/>
    <path d="M 188.701818 90.114784 
L 186.201818 95.114784 
L 191.201818 95.114784 
z
" clip-path="url(#pa6a52613e3)" style="fill: #ffffff; stroke: #000000; stroke-width: 0.4"/>
   </g>
   <g id="PathCollection_17">
    <path d="M 219.196739 30.369171 
L 216.696739 35.369171 
L 221.696739 35.369171 
z
" clip-path="url(#pa6a52613e3)" style="fill: #ffffff; stroke: #000000; stroke-width: 0.4"/>
    <path d="M 221.80087 31.477856 
L 219.30087 36.477856 
L 224.30087 36.477856 
z
" clip-path="url(#pa6a52613e3)" style="fill: #ffffff; stroke: #000000; stroke-width: 0.4"/>
    <path d="M 218.07139 27.609746 
L 215.57139 32.609746 
L 220.57139 32.609746 
z
" clip-path="url(#pa6a52613e3)" style="fill: #ffffff; stroke: #000000; stroke-width: 0.4"/>
   </g>
   <g id="PathCollection_18">
    <path d="M 242.793098 65.446102 
L 240.293098 70.446102 
L 245.293098 70.446102 
z
" clip-path="url(#pa6a52613e3)" style="fill: #ffffff; stroke: #000000; stroke-width: 0.4"/>
    <path d="M 238.994903 61.172088 
L 236.494903 66.172088 
L 241.494903 66.172088 
z
" clip-path="url(#pa6a52613e3)" style="fill: #ffffff; stroke: #000000; stroke-width: 0.4"/>
    <path d="M 242.435126 64.970001 
L 239.935126 69.970001 
L 244.935126 69.970001 
z
" clip-path="url(#pa6a52613e3)" style="fill: #ffffff; stroke: #000000; stroke-width: 0.4"/>
   </g>
   <g id="PathCollection_19">
    <path d="M 269.561058 92.92283 
L 267.061058 97.92283 
L 272.061058 97.92283 
z
" clip-path="url(#pa6a52613e3)" style="fill: #ffffff; stroke: #000000; stroke-width: 0.4"/>
    <path d="M 269.377306 90.844671 
L 266.877306 95.844671 
L 271.877306 95.844671 
z
" clip-path="url(#pa6a52613e3)" style="fill: #ffffff; stroke: #000000; stroke-width: 0.4"/>
    <path d="M 272.826312 95.857671 
L 270.326312 100.857671 
L 275.326312 100.857671 
z
" clip-path="url(#pa6a52613e3)" style="fill: #ffffff; stroke: #000000; stroke-width: 0.4"/>
   </g>
   <g id="PathCollection_20">
    <path d="M 289.457638 113.179223 
L 286.957638 118.179223 
L 291.957638 118.179223 
z
" clip-path="url(#pa6a52613e3)" style="fill: #ffffff; stroke: #000000; stroke-width: 0.4"/>
    <path d="M 290.547599 114.243293 
L 288.047599 119.243293 
L 293.047599 119.243293 
z
" clip-path="url(#pa6a52613e3)" style="fill: #ffffff; stroke: #000000; stroke-width: 0.4"/>
    <path d="M 290.143598 112.335442 
L 287.643598 117.335442 
L 292.643598 117.335442 
z
" clip-path="url(#pa6a52613e3)" style="fill: #ffffff; stroke: #000000; stroke-width: 0.4"/>
   </g>
   <g id="PathCollection_21">
    <path d="M 62.791896 97.603671 
L 67.791896 97.603671 
L 67.791896 92.603671 
L 62.791896 92.603671 
z
" clip-path="url(#pa6a52613e3)" style="fill: #ffffff; stroke: #000000; stroke-width: 0.4"/>
    <path d="M 62.885045 92.164417 
L 67.885045 92.164417 
L 67.885045 87.164417 
L 62.885045 87.164417 
z
" clip-path="url(#pa6a52613e3)" style="fill: #ffffff; stroke: #000000; stroke-width: 0.4"/>
    <path d="M 63.171314 93.71494 
L 68.171314 93.71494 
L 68.171314 88.71494 
L 63.171314 88.71494 
z
" clip-path="url(#pa6a52613e3)" style="fill: #ffffff; stroke: #000000; stroke-width: 0.4"/>
   </g>
   <g id="PathCollection_22">
    <path d="M 84.102644 118.996222 
L 89.102644 118.996222 
L 89.102644 113.996222 
L 84.102644 113.996222 
z
" clip-path="url(#pa6a52613e3)" style="fill: #ffffff; stroke: #000000; stroke-width: 0.4"/>
    <path d="M 86.80088 116.407128 
L 91.80088 116.407128 
L 91.80088 111.407128 
L 86.80088 111.407128 
z
" clip-path="url(#pa6a52613e3)" style="fill: #ffffff; stroke: #000000; stroke-width: 0.4"/>
    <path d="M 86.947785 117.954746 
L 91.947785 117.954746 
L 91.947785 112.954746 
L 86.947785 112.954746 
z
" clip-path="url(#pa6a52613e3)" style="fill: #ffffff; stroke: #000000; stroke-width: 0.4"/>
   </g>
   <g id="PathCollection_23">
    <path d="M 117.268424 97.330378 
L 122.268424 97.330378 
L 122.268424 92.330378 
L 117.268424 92.330378 
z
" clip-path="url(#pa6a52613e3)" style="fill: #ffffff; stroke: #000000; stroke-width: 0.4"/>
    <path d="M 113.887555 92.787027 
L 118.887555 92.787027 
L 118.887555 87.787027 
L 113.887555 87.787027 
z
" clip-path="url(#pa6a52613e3)" style="fill: #ffffff; stroke: #000000; stroke-width: 0.4"/>
    <path d="M 114.071572 90.628853 
L 119.071572 90.628853 
L 119.071572 85.628853 
L 114.071572 85.628853 
z
" clip-path="url(#pa6a52613e3)" style="fill: #ffffff; stroke: #000000; stroke-width: 0.4"/>
   </g>
   <g id="PathCollection_24">
    <path d="M 136.392873 113.014804 
L 141.392873 113.014804 
L 141.392873 108.014804 
L 136.392873 108.014804 
z
" clip-path="url(#pa6a52613e3)" style="fill: #ffffff; stroke: #000000; stroke-width: 0.4"/>
    <path d="M 134.156254 114.739787 
L 139.156254 114.739787 
L 139.156254 109.739787 
L 134.156254 109.739787 
z
" clip-path="url(#pa6a52613e3)" style="fill: #ffffff; stroke: #000000; stroke-width: 0.4"/>
    <path d="M 136.072154 112.962082 
L 141.072154 112.962082 
L 141.072154 107.962082 
L 136.072154 107.962082 
z
" clip-path="url(#pa6a52613e3)" style="fill: #ffffff; stroke: #000000; stroke-width: 0.4"/>
   </g>
   <g id="PathCollection_25">
    <path d="M 168.590639 60.804756 
L 173.590639 60.804756 
L 173.590639 55.804756 
L 168.590639 55.804756 
z
" clip-path="url(#pa6a52613e3)" style="fill: #ffffff; stroke: #000000; stroke-width: 0.4"/>
    <path d="M 168.450411 60.740152 
L 173.450411 60.740152 
L 173.450411 55.740152 
L 168.450411 55.740152 
z
" clip-path="url(#pa6a52613e3)" style="fill: #ffffff; stroke: #000000; stroke-width: 0.4"/>
    <path d="M 168.798734 60.062339 
L 173.798734 60.062339 
L 173.798734 55.062339 
L 168.798734 55.062339 
z
" clip-path="url(#pa6a52613e3)" style="fill: #ffffff; stroke: #000000; stroke-width: 0.4"/>
   </g>
   <g id="PathCollection_26">
    <path d="M 184.985709 94.918446 
L 189.985709 94.918446 
L 189.985709 89.918446 
L 184.985709 89.918446 
z
" clip-path="url(#pa6a52613e3)" style="fill: #ffffff; stroke: #000000; stroke-width: 0.4"/>
    <path d="M 189.232158 93.77087 
L 194.232158 93.77087 
L 194.232158 88.77087 
L 189.232158 88.77087 
z
" clip-path="url(#pa6a52613e3)" style="fill: #ffffff; stroke: #000000; stroke-width: 0.4"/>
    <path d="M 188.945619 94.283731 
L 193.945619 94.283731 
L 193.945619 89.283731 
L 188.945619 89.283731 
z
" clip-path="url(#pa6a52613e3)" style="fill: #ffffff; stroke: #000000; stroke-width: 0.4"/>
   </g>
   <g id="PathCollection_27">
    <path d="M 217.429824 34.992726 
L 222.429824 34.992726 
L 222.429824 29.992726 
L 217.429824 29.992726 
z
" clip-path="url(#pa6a52613e3)" style="fill: #ffffff; stroke: #000000; stroke-width: 0.4"/>
    <path d="M 216.62767 34.285025 
L 221.62767 34.285025 
L 221.62767 29.285025 
L 216.62767 29.285025 
z
" clip-path="url(#pa6a52613e3)" style="fill: #ffffff; stroke: #000000; stroke-width: 0.4"/>
    <path d="M 217.880939 31.963858 
L 222.880939 31.963858 
L 222.880939 26.963858 
L 217.880939 26.963858 
z
" clip-path="url(#pa6a52613e3)" style="fill: #ffffff; stroke: #000000; stroke-width: 0.4"/>
   </g>
   <g id="PathCollection_28">
    <path d="M 239.693336 72.260408 
L 244.693336 72.260408 
L 244.693336 67.260408 
L 239.693336 67.260408 
z
" clip-path="url(#pa6a52613e3)" style="fill: #ffffff; stroke: #000000; stroke-width: 0.4"/>
    <path d="M 238.497758 71.745335 
L 243.497758 71.745335 
L 243.497758 66.745335 
L 238.497758 66.745335 
z
" clip-path="url(#pa6a52613e3)" style="fill: #ffffff; stroke: #000000; stroke-width: 0.4"/>
    <path d="M 240.570009 71.95715 
L 245.570009 71.95715 
L 245.570009 66.95715 
L 240.570009 66.95715 
z
" clip-path="url(#pa6a52613e3)" style="fill: #ffffff; stroke: #000000; stroke-width: 0.4"/>
   </g>
   <g id="PathCollection_29">
    <path d="M 271.093951 90.396431 
L 276.093951 90.396431 
L 276.093951 85.396431 
L 271.093951 85.396431 
z
" clip-path="url(#pa6a52613e3)" style="fill: #ffffff; stroke: #000000; stroke-width: 0.4"/>
    <path d="M 266.44278 88.672909 
L 271.44278 88.672909 
L 271.44278 83.672909 
L 266.44278 83.672909 
z
" clip-path="url(#pa6a52613e3)" style="fill: #ffffff; stroke: #000000; stroke-width: 0.4"/>
    <path d="M 269.528676 88.589126 
L 274.528676 88.589126 
L 274.528676 83.589126 
L 269.528676 83.589126 
z
" clip-path="url(#pa6a52613e3)" style="fill: #ffffff; stroke: #000000; stroke-width: 0.4"/>
   </g>
   <g id="PathCollection_30">
    <path d="M 291.528185 116.961985 
L 296.528185 116.961985 
L 296.528185 111.961985 
L 291.528185 111.961985 
z
" clip-path="url(#pa6a52613e3)" style="fill: #ffffff; stroke: #000000; stroke-width: 0.4"/>
    <path d="M 289.301516 116.223925 
L 294.301516 116.223925 
L 294.301516 111.223925 
L 289.301516 111.223925 
z
" clip-path="url(#pa6a52613e3)" style="fill: #ffffff; stroke: #000000; stroke-width: 0.4"/>
    <path d="M 289.917061 115.772779 
L 294.917061 115.772779 
L 294.917061 110.772779 
L 289.917061 110.772779 
z
" clip-path="url(#pa6a52613e3)" style="fill: #ffffff; stroke: #000000; stroke-width: 0.4"/>
   </g>
   <g id="PathCollection_31">
    <path d="M 67.203877 103.255114 
L 70.739411 99.71958 
L 67.203877 96.184046 
L 63.668343 99.71958 
z
" clip-path="url(#pa6a52613e3)" style="fill: #ffffff; stroke: #000000; stroke-width: 0.4"/>
    <path d="M 67.775714 98.488243 
L 71.311248 94.952709 
L 67.775714 91.417175 
L 64.24018 94.952709 
z
" clip-path="url(#pa6a52613e3)" style="fill: #ffffff; stroke: #000000; stroke-width: 0.4"/>
    <path d="M 69.249117 93.882923 
L 72.784651 90.347389 
L 69.249117 86.811855 
L 65.713583 90.347389 
z
" clip-path="url(#pa6a52613e3)" style="fill: #ffffff; stroke: #000000; stroke-width: 0.4"/>
   </g>
   <g id="PathCollection_32">
    <path d="M 87.303145 111.710839 
L 90.838679 108.175306 
L 87.303145 104.639772 
L 83.767611 108.175306 
z
" clip-path="url(#pa6a52613e3)" style="fill: #ffffff; stroke: #000000; stroke-width: 0.4"/>
    <path d="M 86.41246 109.384469 
L 89.947994 105.848936 
L 86.41246 102.313402 
L 82.876926 105.848936 
z
" clip-path="url(#pa6a52613e3)" style="fill: #ffffff; stroke: #000000; stroke-width: 0.4"/>
    <path d="M 87.639763 112.229354 
L 91.175297 108.69382 
L 87.639763 105.158287 
L 84.104229 108.69382 
z
" clip-path="url(#pa6a52613e3)" style="fill: #ffffff; stroke: #000000; stroke-width: 0.4"/>
   </g>
   <g id="PathCollection_33">
    <path d="M 116.765452 85.26217 
L 120.300986 81.726636 
L 116.765452 78.191103 
L 113.229918 81.726636 
z
" clip-path="url(#pa6a52613e3)" style="fill: #ffffff; stroke: #000000; stroke-width: 0.4"/>
    <path d="M 116.50319 76.270959 
L 120.038724 72.735425 
L 116.50319 69.199891 
L 112.967656 72.735425 
z
" clip-path="url(#pa6a52613e3)" style="fill: #ffffff; stroke: #000000; stroke-width: 0.4"/>
    <path d="M 118.29057 84.474923 
L 121.826104 80.939389 
L 118.29057 77.403856 
L 114.755036 80.939389 
z
" clip-path="url(#pa6a52613e3)" style="fill: #ffffff; stroke: #000000; stroke-width: 0.4"/>
   </g>
   <g id="PathCollection_34">
    <path d="M 136.315062 101.906786 
L 139.850596 98.371252 
L 136.315062 94.835718 
L 132.779528 98.371252 
z
" clip-path="url(#pa6a52613e3)" style="fill: #ffffff; stroke: #000000; stroke-width: 0.4"/>
    <path d="M 137.976193 102.812419 
L 141.511727 99.276885 
L 137.976193 95.741351 
L 134.440659 99.276885 
z
" clip-path="url(#pa6a52613e3)" style="fill: #ffffff; stroke: #000000; stroke-width: 0.4"/>
    <path d="M 139.718105 104.537113 
L 143.253639 101.001579 
L 139.718105 97.466045 
L 136.182571 101.001579 
z
" clip-path="url(#pa6a52613e3)" style="fill: #ffffff; stroke: #000000; stroke-width: 0.4"/>
   </g>
   <g id="PathCollection_35">
    <path d="M 170.265058 59.619387 
L 173.800591 56.083853 
L 170.265058 52.548319 
L 166.729524 56.083853 
z
" clip-path="url(#pa6a52613e3)" style="fill: #ffffff; stroke: #000000; stroke-width: 0.4"/>
    <path d="M 168.707861 55.153158 
L 172.243395 51.617624 
L 168.707861 48.08209 
L 165.172327 51.617624 
z
" clip-path="url(#pa6a52613e3)" style="fill: #ffffff; stroke: #000000; stroke-width: 0.4"/>
    <path d="M 168.750884 52.736863 
L 172.286418 49.201329 
L 168.750884 45.665795 
L 165.21535 49.201329 
z
" clip-path="url(#pa6a52613e3)" style="fill: #ffffff; stroke: #000000; stroke-width: 0.4"/>
   </g>
   <g id="PathCollection_36">
    <path d="M 191.845975 84.66602 
L 195.381508 81.130486 
L 191.845975 77.594953 
L 188.310441 81.130486 
z
" clip-path="url(#pa6a52613e3)" style="fill: #ffffff; stroke: #000000; stroke-width: 0.4"/>
    <path d="M 189.914108 88.237774 
L 193.449642 84.70224 
L 189.914108 81.166706 
L 186.378574 84.70224 
z
" clip-path="url(#pa6a52613e3)" style="fill: #ffffff; stroke: #000000; stroke-width: 0.4"/>
    <path d="M 190.756972 80.274361 
L 194.292506 76.738827 
L 190.756972 73.203293 
L 187.221438 76.738827 
z
" clip-path="url(#pa6a52613e3)" style="fill: #ffffff; stroke: #000000; stroke-width: 0.4"/>
   </g>
   <g id="PathCollection_37">
    <path d="M 221.197187 55.80081 
L 224.732721 52.265276 
L 221.197187 48.729742 
L 217.661653 52.265276 
z
" clip-path="url(#pa6a52613e3)" style="fill: #ffffff; stroke: #000000; stroke-width: 0.4"/>
    <path d="M 220.2862 53.841357 
L 223.821733 50.305824 
L 220.2862 46.77029 
L 216.750666 50.305824 
z
" clip-path="url(#pa6a52613e3)" style="fill: #ffffff; stroke: #000000; stroke-width: 0.4"/>
    <path d="M 220.467614 54.407674 
L 224.003148 50.872141 
L 220.467614 47.336607 
L 216.93208 50.872141 
z
" clip-path="url(#pa6a52613e3)" style="fill: #ffffff; stroke: #000000; stroke-width: 0.4"/>
   </g>
   <g id="PathCollection_38">
    <path d="M 239.985297 89.105561 
L 243.520831 85.570028 
L 239.985297 82.034494 
L 236.449764 85.570028 
z
" clip-path="url(#pa6a52613e3)" style="fill: #ffffff; stroke: #000000; stroke-width: 0.4"/>
    <path d="M 241.892584 97.964129 
L 245.428118 94.428595 
L 241.892584 90.893061 
L 238.35705 94.428595 
z
" clip-path="url(#pa6a52613e3)" style="fill: #ffffff; stroke: #000000; stroke-width: 0.4"/>
    <path d="M 242.487 91.461148 
L 246.022533 87.925614 
L 242.487 84.39008 
L 238.951466 87.925614 
z
" clip-path="url(#pa6a52613e3)" style="fill: #ffffff; stroke: #000000; stroke-width: 0.4"/>
   </g>
   <g id="PathCollection_39">
    <path d="M 269.334838 119.158281 
L 272.870372 115.622747 
L 269.334838 112.087213 
L 265.799304 115.622747 
z
" clip-path="url(#pa6a52613e3)" style="fill: #ffffff; stroke: #000000; stroke-width: 0.4"/>
    <path d="M 273.054696 117.949214 
L 276.59023 114.413681 
L 273.054696 110.878147 
L 269.519162 114.413681 
z
" clip-path="url(#pa6a52613e3)" style="fill: #ffffff; stroke: #000000; stroke-width: 0.4"/>
    <path d="M 272.04553 117.344367 
L 275.581064 113.808833 
L 272.04553 110.273299 
L 268.509996 113.808833 
z
" clip-path="url(#pa6a52613e3)" style="fill: #ffffff; stroke: #000000; stroke-width: 0.4"/>
   </g>
   <g id="PathCollection_40">
    <path d="M 292.563193 123.672029 
L 296.098727 120.136496 
L 292.563193 116.600962 
L 289.02766 120.136496 
z
" clip-path="url(#pa6a52613e3)" style="fill: #ffffff; stroke: #000000; stroke-width: 0.4"/>
    <path d="M 291.333486 122.651153 
L 294.86902 119.115619 
L 291.333486 115.580085 
L 287.797952 119.115619 
z
" clip-path="url(#pa6a52613e3)" style="fill: #ffffff; stroke: #000000; stroke-width: 0.4"/>
    <path d="M 291.706275 122.70023 
L 295.241809 119.164696 
L 291.706275 115.629162 
L 288.170741 119.164696 
z
" clip-path="url(#pa6a52613e3)" style="fill: #ffffff; stroke: #000000; stroke-width: 0.4"/>
   </g>
   <g id="PathCollection_41">
    <defs>
     <path id="Ca_0_a2ed1f203c" d="M -0.833333 2.5 
L 0.833333 2.5 
L 0.833333 0.833333 
L 2.5 0.833333 
L 2.5 -0.833333 
L 0.833333 -0.833333 
L 0.833333 -2.5 
L -0.833333 -2.5 
L -0.833333 -0.833333 
L -2.5 -0.833333 
L -2.5 0.833333 
L -0.833333 0.833333 
z
"/>
    </defs>
    <g clip-path="url(#pa6a52613e3)">
     <use xlink:href="#Ca_0_a2ed1f203c" x="66.869361" y="101.478161" style="fill: #ffffff; stroke: #000000; stroke-width: 0.4"/>
    </g>
    <g clip-path="url(#pa6a52613e3)">
     <use xlink:href="#Ca_0_a2ed1f203c" x="65.91259" y="100.267245" style="fill: #ffffff; stroke: #000000; stroke-width: 0.4"/>
    </g>
    <g clip-path="url(#pa6a52613e3)">
     <use xlink:href="#Ca_0_a2ed1f203c" x="67.12772" y="98.528477" style="fill: #ffffff; stroke: #000000; stroke-width: 0.4"/>
    </g>
   </g>
   <g id="PathCollection_42">
    <defs>
     <path id="Cb_0_a17bcfd5e9" d="M -0.833333 2.5 
L 0.833333 2.5 
L 0.833333 0.833333 
L 2.5 0.833333 
L 2.5 -0.833333 
L 0.833333 -0.833333 
L 0.833333 -2.5 
L -0.833333 -2.5 
L -0.833333 -0.833333 
L -2.5 -0.833333 
L -2.5 0.833333 
L -0.833333 0.833333 
z
"/>
    </defs>
    <g clip-path="url(#pa6a52613e3)">
     <use xlink:href="#Cb_0_a17bcfd5e9" x="85.746872" y="113.377042" style="fill: #ffffff; stroke: #000000; stroke-width: 0.4"/>
    </g>
    <g clip-path="url(#pa6a52613e3)">
     <use xlink:href="#Cb_0_a17bcfd5e9" x="88.507553" y="112.754243" style="fill: #ffffff; stroke: #000000; stroke-width: 0.4"/>
    </g>
    <g clip-path="url(#pa6a52613e3)">
     <use xlink:href="#Cb_0_a17bcfd5e9" x="88.776541" y="115.357741" style="fill: #ffffff; stroke: #000000; stroke-width: 0.4"/>
    </g>
   </g>
   <g id="PathCollection_43">
    <defs>
     <path id="Cc_0_77c80f69b4" d="M -0.833333 2.5 
L 0.833333 2.5 
L 0.833333 0.833333 
L 2.5 0.833333 
L 2.5 -0.833333 
L 0.833333 -0.833333 
L 0.833333 -2.5 
L -0.833333 -2.5 
L -0.833333 -0.833333 
L -2.5 -0.833333 
L -2.5 0.833333 
L -0.833333 0.833333 
z
"/>
    </defs>
    <g clip-path="url(#pa6a52613e3)">
     <use xlink:href="#Cc_0_77c80f69b4" x="118.884351" y="90.251101" style="fill: #ffffff; stroke: #000000; stroke-width: 0.4"/>
    </g>
    <g clip-path="url(#pa6a52613e3)">
     <use xlink:href="#Cc_0_77c80f69b4" x="116.683754" y="92.182031" style="fill: #ffffff; stroke: #000000; stroke-width: 0.4"/>
    </g>
   </g>
   <g id="PathCollection_44">
    <defs>
     <path id="mf551bc0a91" d="M -0.833333 2.5 
L 0.833333 2.5 
L 0.833333 0.833333 
L 2.5 0.833333 
L 2.5 -0.833333 
L 0.833333 -0.833333 
L 0.833333 -2.5 
L -0.833333 -2.5 
L -0.833333 -0.833333 
L -2.5 -0.833333 
L -2.5 0.833333 
L -0.833333 0.833333 
z
" style="stroke: #000000; stroke-width: 0.4"/>
    </defs>
    <g clip-path="url(#pa6a52613e3)">
     <use xlink:href="#mf551bc0a91" x="138.286222" y="107.197085" style="fill: #ffffff; stroke: #000000; stroke-width: 0.4"/>
    </g>
   </g>
   <g id="PathCollection_45">
    <defs>
     <path id="Cd_0_fd307711e4" d="M -0.833333 2.5 
L 0.833333 2.5 
L 0.833333 0.833333 
L 2.5 0.833333 
L 2.5 -0.833333 
L 0.833333 -0.833333 
L 0.833333 -2.5 
L -0.833333 -2.5 
L -0.833333 -0.833333 
L -2.5 -0.833333 
L -2.5 0.833333 
L -0.833333 0.833333 
z
"/>
    </defs>
    <g clip-path="url(#pa6a52613e3)">
     <use xlink:href="#Cd_0_fd307711e4" x="167.486712" y="55.843625" style="fill: #ffffff; stroke: #000000; stroke-width: 0.4"/>
    </g>
    <g clip-path="url(#pa6a52613e3)">
     <use xlink:href="#Cd_0_fd307711e4" x="170.82507" y="62.005055" style="fill: #ffffff; stroke: #000000; stroke-width: 0.4"/>
    </g>
    <g clip-path="url(#pa6a52613e3)">
     <use xlink:href="#Cd_0_fd307711e4" x="170.735624" y="61.398142" style="fill: #ffffff; stroke: #000000; stroke-width: 0.4"/>
    </g>
   </g>
   <g id="PathCollection_46">
    <defs>
     <path id="Ce_0_2da1fdf82e" d="M -0.833333 2.5 
L 0.833333 2.5 
L 0.833333 0.833333 
L 2.5 0.833333 
L 2.5 -0.833333 
L 0.833333 -0.833333 
L 0.833333 -2.5 
L -0.833333 -2.5 
L -0.833333 -0.833333 
L -2.5 -0.833333 
L -2.5 0.833333 
L -0.833333 0.833333 
z
"/>
    </defs>
    <g clip-path="url(#pa6a52613e3)">
     <use xlink:href="#Ce_0_2da1fdf82e" x="189.755737" y="91.995491" style="fill: #ffffff; stroke: #000000; stroke-width: 0.4"/>
    </g>
    <g clip-path="url(#pa6a52613e3)">
     <use xlink:href="#Ce_0_2da1fdf82e" x="188.222625" y="91.464619" style="fill: #ffffff; stroke: #000000; stroke-width: 0.4"/>
    </g>
    <g clip-path="url(#pa6a52613e3)">
     <use xlink:href="#Ce_0_2da1fdf82e" x="189.095553" y="90.778088" style="fill: #ffffff; stroke: #000000; stroke-width: 0.4"/>
    </g>
   </g>
   <g id="PathCollection_47">
    <defs>
     <path id="Cf_0_4a07c8bf81" d="M -0.833333 2.5 
L 0.833333 2.5 
L 0.833333 0.833333 
L 2.5 0.833333 
L 2.5 -0.833333 
L 0.833333 -0.833333 
L 0.833333 -2.5 
L -0.833333 -2.5 
L -0.833333 -0.833333 
L -2.5 -0.833333 
L -2.5 0.833333 
L -0.833333 0.833333 
z
"/>
    </defs>
    <g clip-path="url(#pa6a52613e3)">
     <use xlink:href="#Cf_0_4a07c8bf81" x="220.850333" y="54.530506" style="fill: #ffffff; stroke: #000000; stroke-width: 0.4"/>
    </g>
    <g clip-path="url(#pa6a52613e3)">
     <use xlink:href="#Cf_0_4a07c8bf81" x="218.482741" y="56.043185" style="fill: #ffffff; stroke: #000000; stroke-width: 0.4"/>
    </g>
    <g clip-path="url(#pa6a52613e3)">
     <use xlink:href="#Cf_0_4a07c8bf81" x="217.851418" y="58.364537" style="fill: #ffffff; stroke: #000000; stroke-width: 0.4"/>
    </g>
   </g>
   <g id="PathCollection_48">
    <defs>
     <path id="C10_0_5eda09dce5" d="M -0.833333 2.5 
L 0.833333 2.5 
L 0.833333 0.833333 
L 2.5 0.833333 
L 2.5 -0.833333 
L 0.833333 -0.833333 
L 0.833333 -2.5 
L -0.833333 -2.5 
L -0.833333 -0.833333 
L -2.5 -0.833333 
L -2.5 0.833333 
L -0.833333 0.833333 
z
"/>
    </defs>
    <g clip-path="url(#pa6a52613e3)">
     <use xlink:href="#C10_0_5eda09dce5" x="239.018443" y="95.455085" style="fill: #ffffff; stroke: #000000; stroke-width: 0.4"/>
    </g>
    <g clip-path="url(#pa6a52613e3)">
     <use xlink:href="#C10_0_5eda09dce5" x="240.128401" y="95.088043" style="fill: #ffffff; stroke: #000000; stroke-width: 0.4"/>
    </g>
    <g clip-path="url(#pa6a52613e3)">
     <use xlink:href="#C10_0_5eda09dce5" x="239.609185" y="97.965064" style="fill: #ffffff; stroke: #000000; stroke-width: 0.4"/>
    </g>
   </g>
   <g id="PathCollection_49">
    <defs>
     <path id="C11_0_c424591206" d="M -0.833333 2.5 
L 0.833333 2.5 
L 0.833333 0.833333 
L 2.5 0.833333 
L 2.5 -0.833333 
L 0.833333 -0.833333 
L 0.833333 -2.5 
L -0.833333 -2.5 
L -0.833333 -0.833333 
L -2.5 -0.833333 
L -2.5 0.833333 
L -0.833333 0.833333 
z
"/>
    </defs>
    <g clip-path="url(#pa6a52613e3)">
     <use xlink:href="#C11_0_c424591206" x="272.366502" y="113.549034" style="fill: #ffffff; stroke: #000000; stroke-width: 0.4"/>
    </g>
    <g clip-path="url(#pa6a52613e3)">
     <use xlink:href="#C11_0_c424591206" x="273.402204" y="113.319494" style="fill: #ffffff; stroke: #000000; stroke-width: 0.4"/>
    </g>
    <g clip-path="url(#pa6a52613e3)">
     <use xlink:href="#C11_0_c424591206" x="271.351302" y="115.832151" style="fill: #ffffff; stroke: #000000; stroke-width: 0.4"/>
    </g>
   </g>
   <g id="PathCollection_50">
    <defs>
     <path id="C12_0_0a20207342" d="M -0.833333 2.5 
L 0.833333 2.5 
L 0.833333 0.833333 
L 2.5 0.833333 
L 2.5 -0.833333 
L 0.833333 -0.833333 
L 0.833333 -2.5 
L -0.833333 -2.5 
L -0.833333 -0.833333 
L -2.5 -0.833333 
L -2.5 0.833333 
L -0.833333 0.833333 
z
"/>
    </defs>
    <g clip-path="url(#pa6a52613e3)">
     <use xlink:href="#C12_0_0a20207342" x="293.683376" y="120.04715" style="fill: #ffffff; stroke: #000000; stroke-width: 0.4"/>
    </g>
    <g clip-path="url(#pa6a52613e3)">
     <use xlink:href="#C12_0_0a20207342" x="291.195588" y="120.231434" style="fill: #ffffff; stroke: #000000; stroke-width: 0.4"/>
    </g>
    <g clip-path="url(#pa6a52613e3)">
     <use xlink:href="#C12_0_0a20207342" x="293.160674" y="119.937701" style="fill: #ffffff; stroke: #000000; stroke-width: 0.4"/>
    </g>
   </g>
   <g id="PathCollection_51">
    <defs>
     <path id="C13_0_59c2a9bfe6" d="M -1.25 2.5 
L 0 1.25 
L 1.25 2.5 
L 2.5 1.25 
L 1.25 -0 
L 2.5 -1.25 
L 1.25 -2.5 
L 0 -1.25 
L -1.25 -2.5 
L -2.5 -1.25 
L -1.25 0 
L -2.5 1.25 
z
"/>
    </defs>
    <g clip-path="url(#pa6a52613e3)">
     <use xlink:href="#C13_0_59c2a9bfe6" x="66.589808" y="97.720383" style="fill: #ffffff; stroke: #000000; stroke-width: 0.4"/>
    </g>
    <g clip-path="url(#pa6a52613e3)">
     <use xlink:href="#C13_0_59c2a9bfe6" x="64.229898" y="106.518813" style="fill: #ffffff; stroke: #000000; stroke-width: 0.4"/>
    </g>
    <g clip-path="url(#pa6a52613e3)">
     <use xlink:href="#C13_0_59c2a9bfe6" x="69.059227" y="100.679377" style="fill: #ffffff; stroke: #000000; stroke-width: 0.4"/>
    </g>
   </g>
   <g id="PathCollection_52">
    <defs>
     <path id="C14_0_dc58fa2e44" d="M -1.25 2.5 
L 0 1.25 
L 1.25 2.5 
L 2.5 1.25 
L 1.25 -0 
L 2.5 -1.25 
L 1.25 -2.5 
L 0 -1.25 
L -1.25 -2.5 
L -2.5 -1.25 
L -1.25 0 
L -2.5 1.25 
z
"/>
    </defs>
    <g clip-path="url(#pa6a52613e3)">
     <use xlink:href="#C14_0_dc58fa2e44" x="87.658545" y="109.520597" style="fill: #ffffff; stroke: #000000; stroke-width: 0.4"/>
    </g>
    <g clip-path="url(#pa6a52613e3)">
     <use xlink:href="#C14_0_dc58fa2e44" x="87.707543" y="110.567459" style="fill: #ffffff; stroke: #000000; stroke-width: 0.4"/>
    </g>
    <g clip-path="url(#pa6a52613e3)">
     <use xlink:href="#C14_0_dc58fa2e44" x="88.734254" y="113.309058" style="fill: #ffffff; stroke: #000000; stroke-width: 0.4"/>
    </g>
   </g>
   <g id="PathCollection_53">
    <defs>
     <path id="C15_0_92b52e5402" d="M -1.25 2.5 
L 0 1.25 
L 1.25 2.5 
L 2.5 1.25 
L 1.25 -0 
L 2.5 -1.25 
L 1.25 -2.5 
L 0 -1.25 
L -1.25 -2.5 
L -2.5 -1.25 
L -1.25 0 
L -2.5 1.25 
z
"/>
    </defs>
    <g clip-path="url(#pa6a52613e3)">
     <use xlink:href="#C15_0_92b52e5402" x="117.644975" y="94.650611" style="fill: #ffffff; stroke: #000000; stroke-width: 0.4"/>
    </g>
    <g clip-path="url(#pa6a52613e3)">
     <use xlink:href="#C15_0_92b52e5402" x="115.94314" y="87.074646" style="fill: #ffffff; stroke: #000000; stroke-width: 0.4"/>
    </g>
    <g clip-path="url(#pa6a52613e3)">
     <use xlink:href="#C15_0_92b52e5402" x="118.997961" y="90.224973" style="fill: #ffffff; stroke: #000000; stroke-width: 0.4"/>
    </g>
   </g>
   <g id="PathCollection_54">
    <defs>
     <path id="C16_0_232e87c1ff" d="M -1.25 2.5 
L 0 1.25 
L 1.25 2.5 
L 2.5 1.25 
L 1.25 -0 
L 2.5 -1.25 
L 1.25 -2.5 
L 0 -1.25 
L -1.25 -2.5 
L -2.5 -1.25 
L -1.25 0 
L -2.5 1.25 
z
"/>
    </defs>
    <g clip-path="url(#pa6a52613e3)">
     <use xlink:href="#C16_0_232e87c1ff" x="138.626365" y="107.460313" style="fill: #ffffff; stroke: #000000; stroke-width: 0.4"/>
    </g>
    <g clip-path="url(#pa6a52613e3)">
     <use xlink:href="#C16_0_232e87c1ff" x="138.542116" y="105.499079" style="fill: #ffffff; stroke: #000000; stroke-width: 0.4"/>
    </g>
    <g clip-path="url(#pa6a52613e3)">
     <use xlink:href="#C16_0_232e87c1ff" x="135.927338" y="105.915472" style="fill: #ffffff; stroke: #000000; stroke-width: 0.4"/>
    </g>
   </g>
   <g id="PathCollection_55">
    <defs>
     <path id="C17_0_931e2bd8bf" d="M -1.25 2.5 
L 0 1.25 
L 1.25 2.5 
L 2.5 1.25 
L 1.25 -0 
L 2.5 -1.25 
L 1.25 -2.5 
L 0 -1.25 
L -1.25 -2.5 
L -2.5 -1.25 
L -1.25 0 
L -2.5 1.25 
z
"/>
    </defs>
    <g clip-path="url(#pa6a52613e3)">
     <use xlink:href="#C17_0_931e2bd8bf" x="168.178998" y="61.724414" style="fill: #ffffff; stroke: #000000; stroke-width: 0.4"/>
    </g>
    <g clip-path="url(#pa6a52613e3)">
     <use xlink:href="#C17_0_931e2bd8bf" x="167.120015" y="69.769005" style="fill: #ffffff; stroke: #000000; stroke-width: 0.4"/>
    </g>
    <g clip-path="url(#pa6a52613e3)">
     <use xlink:href="#C17_0_931e2bd8bf" x="171.271527" y="67.79962" style="fill: #ffffff; stroke: #000000; stroke-width: 0.4"/>
    </g>
   </g>
   <g id="PathCollection_56">
    <defs>
     <path id="C18_0_1338678935" d="M -1.25 2.5 
L 0 1.25 
L 1.25 2.5 
L 2.5 1.25 
L 1.25 -0 
L 2.5 -1.25 
L 1.25 -2.5 
L 0 -1.25 
L -1.25 -2.5 
L -2.5 -1.25 
L -1.25 0 
L -2.5 1.25 
z
"/>
    </defs>
    <g clip-path="url(#pa6a52613e3)">
     <use xlink:href="#C18_0_1338678935" x="188.455719" y="97.160563" style="fill: #ffffff; stroke: #000000; stroke-width: 0.4"/>
    </g>
    <g clip-path="url(#pa6a52613e3)">
     <use xlink:href="#C18_0_1338678935" x="187.112966" y="96.739779" style="fill: #ffffff; stroke: #000000; stroke-width: 0.4"/>
    </g>
    <g clip-path="url(#pa6a52613e3)">
     <use xlink:href="#C18_0_1338678935" x="187.083917" y="93.647539" style="fill: #ffffff; stroke: #000000; stroke-width: 0.4"/>
    </g>
   </g>
   <g id="PathCollection_57">
    <defs>
     <path id="C19_0_b0352edf09" d="M -1.25 2.5 
L 0 1.25 
L 1.25 2.5 
L 2.5 1.25 
L 1.25 -0 
L 2.5 -1.25 
L 1.25 -2.5 
L 0 -1.25 
L -1.25 -2.5 
L -2.5 -1.25 
L -1.25 0 
L -2.5 1.25 
z
"/>
    </defs>
    <g clip-path="url(#pa6a52613e3)">
     <use xlink:href="#C19_0_b0352edf09" x="220.211008" y="36.486682" style="fill: #ffffff; stroke: #000000; stroke-width: 0.4"/>
    </g>
    <g clip-path="url(#pa6a52613e3)">
     <use xlink:href="#C19_0_b0352edf09" x="218.644233" y="39.053253" style="fill: #ffffff; stroke: #000000; stroke-width: 0.4"/>
    </g>
    <g clip-path="url(#pa6a52613e3)">
     <use xlink:href="#C19_0_b0352edf09" x="219.148788" y="31.994251" style="fill: #ffffff; stroke: #000000; stroke-width: 0.4"/>
    </g>
   </g>
   <g id="PathCollection_58">
    <defs>
     <path id="C1a_0_8e65392646" d="M -1.25 2.5 
L 0 1.25 
L 1.25 2.5 
L 2.5 1.25 
L 1.25 -0 
L 2.5 -1.25 
L 1.25 -2.5 
L 0 -1.25 
L -1.25 -2.5 
L -2.5 -1.25 
L -1.25 0 
L -2.5 1.25 
z
"/>
    </defs>
    <g clip-path="url(#pa6a52613e3)">
     <use xlink:href="#C1a_0_8e65392646" x="239.484482" y="73.536849" style="fill: #ffffff; stroke: #000000; stroke-width: 0.4"/>
    </g>
    <g clip-path="url(#pa6a52613e3)">
     <use xlink:href="#C1a_0_8e65392646" x="241.028413" y="83.046963" style="fill: #ffffff; stroke: #000000; stroke-width: 0.4"/>
    </g>
    <g clip-path="url(#pa6a52613e3)">
     <use xlink:href="#C1a_0_8e65392646" x="242.715531" y="80.866731" style="fill: #ffffff; stroke: #000000; stroke-width: 0.4"/>
    </g>
   </g>
   <g id="PathCollection_59">
    <defs>
     <path id="C1b_0_5203cb77cf" d="M -1.25 2.5 
L 0 1.25 
L 1.25 2.5 
L 2.5 1.25 
L 1.25 -0 
L 2.5 -1.25 
L 1.25 -2.5 
L 0 -1.25 
L -1.25 -2.5 
L -2.5 -1.25 
L -1.25 0 
L -2.5 1.25 
z
"/>
    </defs>
    <g clip-path="url(#pa6a52613e3)">
     <use xlink:href="#C1b_0_5203cb77cf" x="271.044923" y="100.884313" style="fill: #ffffff; stroke: #000000; stroke-width: 0.4"/>
    </g>
    <g clip-path="url(#pa6a52613e3)">
     <use xlink:href="#C1b_0_5203cb77cf" x="273.243155" y="102.436188" style="fill: #ffffff; stroke: #000000; stroke-width: 0.4"/>
    </g>
    <g clip-path="url(#pa6a52613e3)">
     <use xlink:href="#C1b_0_5203cb77cf" x="270.396579" y="103.36852" style="fill: #ffffff; stroke: #000000; stroke-width: 0.4"/>
    </g>
   </g>
   <g id="PathCollection_60">
    <defs>
     <path id="C1c_0_51e918fc40" d="M -1.25 2.5 
L 0 1.25 
L 1.25 2.5 
L 2.5 1.25 
L 1.25 -0 
L 2.5 -1.25 
L 1.25 -2.5 
L 0 -1.25 
L -1.25 -2.5 
L -2.5 -1.25 
L -1.25 0 
L -2.5 1.25 
z
"/>
    </defs>
    <g clip-path="url(#pa6a52613e3)">
     <use xlink:href="#C1c_0_51e918fc40" x="291.636954" y="114.746394" style="fill: #ffffff; stroke: #000000; stroke-width: 0.4"/>
    </g>
    <g clip-path="url(#pa6a52613e3)">
     <use xlink:href="#C1c_0_51e918fc40" x="291.881345" y="115.963091" style="fill: #ffffff; stroke: #000000; stroke-width: 0.4"/>
    </g>
    <g clip-path="url(#pa6a52613e3)">
     <use xlink:href="#C1c_0_51e918fc40" x="289.391113" y="115.326845" style="fill: #ffffff; stroke: #000000; stroke-width: 0.4"/>
    </g>
   </g>
   <g id="PathCollection_61">
    <defs>
     <path id="C1d_0_8e22a8e681" d="M 0 -2.5 
L -0.561285 -0.772542 
L -2.377641 -0.772542 
L -0.908178 0.295085 
L -1.469463 2.022542 
L -0 0.954915 
L 1.469463 2.022542 
L 0.908178 0.295085 
L 2.377641 -0.772542 
L 0.561285 -0.772542 
z
"/>
    </defs>
    <g clip-path="url(#pa6a52613e3)">
     <use xlink:href="#C1d_0_8e22a8e681" x="69.047929" y="101.860442" style="fill: #ffffff; stroke: #000000; stroke-width: 0.4"/>
    </g>
    <g clip-path="url(#pa6a52613e3)">
     <use xlink:href="#C1d_0_8e22a8e681" x="66.011927" y="100.856289" style="fill: #ffffff; stroke: #000000; stroke-width: 0.4"/>
    </g>
    <g clip-path="url(#pa6a52613e3)">
     <use xlink:href="#C1d_0_8e22a8e681" x="64.823045" y="98.345287" style="fill: #ffffff; stroke: #000000; stroke-width: 0.4"/>
    </g>
   </g>
   <g id="PathCollection_62">
    <defs>
     <path id="C1e_0_3ed73a786c" d="M 0 -2.5 
L -0.561285 -0.772542 
L -2.377641 -0.772542 
L -0.908178 0.295085 
L -1.469463 2.022542 
L -0 0.954915 
L 1.469463 2.022542 
L 0.908178 0.295085 
L 2.377641 -0.772542 
L 0.561285 -0.772542 
z
"/>
    </defs>
    <g clip-path="url(#pa6a52613e3)">
     <use xlink:href="#C1e_0_3ed73a786c" x="86.563363" y="105.873577" style="fill: #ffffff; stroke: #000000; stroke-width: 0.4"/>
    </g>
    <g clip-path="url(#pa6a52613e3)">
     <use xlink:href="#C1e_0_3ed73a786c" x="88.789096" y="100.365252" style="fill: #ffffff; stroke: #000000; stroke-width: 0.4"/>
    </g>
    <g clip-path="url(#pa6a52613e3)">
     <use xlink:href="#C1e_0_3ed73a786c" x="85.398388" y="101.581061" style="fill: #ffffff; stroke: #000000; stroke-width: 0.4"/>
    </g>
   </g>
   <g id="PathCollection_63">
    <defs>
     <path id="C1f_0_32dfb00c5e" d="M 0 -2.5 
L -0.561285 -0.772542 
L -2.377641 -0.772542 
L -0.908178 0.295085 
L -1.469463 2.022542 
L -0 0.954915 
L 1.469463 2.022542 
L 0.908178 0.295085 
L 2.377641 -0.772542 
L 0.561285 -0.772542 
z
"/>
    </defs>
    <g clip-path="url(#pa6a52613e3)">
     <use xlink:href="#C1f_0_32dfb00c5e" x="115.96875" y="88.934505" style="fill: #ffffff; stroke: #000000; stroke-width: 0.4"/>
    </g>
    <g clip-path="url(#pa6a52613e3)">
     <use xlink:href="#C1f_0_32dfb00c5e" x="119.025313" y="86.40261" style="fill: #ffffff; stroke: #000000; stroke-width: 0.4"/>
    </g>
    <g clip-path="url(#pa6a52613e3)">
     <use xlink:href="#C1f_0_32dfb00c5e" x="117.686774" y="87.273295" style="fill: #ffffff; stroke: #000000; stroke-width: 0.4"/>
    </g>
   </g>
   <g id="PathCollection_64">
    <defs>
     <path id="C20_0_990f71558c" d="M 0 -2.5 
L -0.561285 -0.772542 
L -2.377641 -0.772542 
L -0.908178 0.295085 
L -1.469463 2.022542 
L -0 0.954915 
L 1.469463 2.022542 
L 0.908178 0.295085 
L 2.377641 -0.772542 
L 0.561285 -0.772542 
z
"/>
    </defs>
    <g clip-path="url(#pa6a52613e3)">
     <use xlink:href="#C20_0_990f71558c" x="136.267262" y="98.487933" style="fill: #ffffff; stroke: #000000; stroke-width: 0.4"/>
    </g>
    <g clip-path="url(#pa6a52613e3)">
     <use xlink:href="#C20_0_990f71558c" x="136.83885" y="96.471291" style="fill: #ffffff; stroke: #000000; stroke-width: 0.4"/>
    </g>
    <g clip-path="url(#pa6a52613e3)">
     <use xlink:href="#C20_0_990f71558c" x="140.513024" y="91.336582" style="fill: #ffffff; stroke: #000000; stroke-width: 0.4"/>
    </g>
   </g>
   <g id="PathCollection_65">
    <defs>
     <path id="C21_0_71763afe55" d="M 0 -2.5 
L -0.561285 -0.772542 
L -2.377641 -0.772542 
L -0.908178 0.295085 
L -1.469463 2.022542 
L -0 0.954915 
L 1.469463 2.022542 
L 0.908178 0.295085 
L 2.377641 -0.772542 
L 0.561285 -0.772542 
z
"/>
    </defs>
    <g clip-path="url(#pa6a52613e3)">
     <use xlink:href="#C21_0_71763afe55" x="170.642607" y="60.14397" style="fill: #ffffff; stroke: #000000; stroke-width: 0.4"/>
    </g>
    <g clip-path="url(#pa6a52613e3)">
     <use xlink:href="#C21_0_71763afe55" x="167.451515" y="52.984967" style="fill: #ffffff; stroke: #000000; stroke-width: 0.4"/>
    </g>
    <g clip-path="url(#pa6a52613e3)">
     <use xlink:href="#C21_0_71763afe55" x="169.182535" y="58.48576" style="fill: #ffffff; stroke: #000000; stroke-width: 0.4"/>
    </g>
   </g>
   <g id="PathCollection_66">
    <path d="M 189.121063 87.161631 
L 188.559778 88.889088 
L 186.743422 88.889088 
L 188.212885 89.956716 
L 187.6516 91.684173 
L 189.121063 90.616546 
L 190.590526 91.684173 
L 190.029241 89.956716 
L 191.498704 88.889088 
L 189.682348 88.889088 
z
" clip-path="url(#pa6a52613e3)" style="fill: #ffffff; stroke: #000000; stroke-width: 0.4"/>
    <path d="M 189.42477 81.678794 
L 188.863485 83.406251 
L 187.047129 83.406251 
L 188.516592 84.473879 
L 187.955307 86.201336 
L 189.42477 85.133709 
L 190.894234 86.201336 
L 190.332949 84.473879 
L 191.802412 83.406251 
L 189.986055 83.406251 
z
" clip-path="url(#pa6a52613e3)" style="fill: #ffffff; stroke: #000000; stroke-width: 0.4"/>
   </g>
   <g id="PathCollection_67">
    <defs>
     <path id="C22_0_587f4cfff3" d="M 0 -2.5 
L -0.561285 -0.772542 
L -2.377641 -0.772542 
L -0.908178 0.295085 
L -1.469463 2.022542 
L -0 0.954915 
L 1.469463 2.022542 
L 0.908178 0.295085 
L 2.377641 -0.772542 
L 0.561285 -0.772542 
z
"/>
    </defs>
    <g clip-path="url(#pa6a52613e3)">
     <use xlink:href="#C22_0_587f4cfff3" x="220.240778" y="38.848948" style="fill: #ffffff; stroke: #000000; stroke-width: 0.4"/>
    </g>
    <g clip-path="url(#pa6a52613e3)">
     <use xlink:href="#C22_0_587f4cfff3" x="220.91395" y="33.571869" style="fill: #ffffff; stroke: #000000; stroke-width: 0.4"/>
    </g>
    <g clip-path="url(#pa6a52613e3)">
     <use xlink:href="#C22_0_587f4cfff3" x="219.329739" y="35.878172" style="fill: #ffffff; stroke: #000000; stroke-width: 0.4"/>
    </g>
   </g>
   <g id="PathCollection_68">
    <defs>
     <path id="C23_0_e109dcedf1" d="M 0 -2.5 
L -0.561285 -0.772542 
L -2.377641 -0.772542 
L -0.908178 0.295085 
L -1.469463 2.022542 
L -0 0.954915 
L 1.469463 2.022542 
L 0.908178 0.295085 
L 2.377641 -0.772542 
L 0.561285 -0.772542 
z
"/>
    </defs>
    <g clip-path="url(#pa6a52613e3)">
     <use xlink:href="#C23_0_e109dcedf1" x="238.490277" y="74.146837" style="fill: #ffffff; stroke: #000000; stroke-width: 0.4"/>
    </g>
    <g clip-path="url(#pa6a52613e3)">
     <use xlink:href="#C23_0_e109dcedf1" x="240.882233" y="72.569504" style="fill: #ffffff; stroke: #000000; stroke-width: 0.4"/>
    </g>
    <g clip-path="url(#pa6a52613e3)">
     <use xlink:href="#C23_0_e109dcedf1" x="242.34112" y="73.299084" style="fill: #ffffff; stroke: #000000; stroke-width: 0.4"/>
    </g>
   </g>
   <g id="PathCollection_69">
    <path d="M 271.370966 101.246955 
L 270.809681 102.974412 
L 268.993324 102.974412 
L 270.462787 104.04204 
L 269.901502 105.769497 
L 271.370966 104.70187 
L 272.840429 105.769497 
L 272.279144 104.04204 
L 273.748607 102.974412 
L 271.93225 102.974412 
z
" clip-path="url(#pa6a52613e3)" style="fill: #ffffff; stroke: #000000; stroke-width: 0.4"/>
    <path d="M 269.585431 98.716372 
L 269.024146 100.443829 
L 267.20779 100.443829 
L 268.677253 101.511457 
L 268.115968 103.238914 
L 269.585431 102.171287 
L 271.054895 103.238914 
L 270.49361 101.511457 
L 271.963073 100.443829 
L 270.146716 100.443829 
z
" clip-path="url(#pa6a52613e3)" style="fill: #ffffff; stroke: #000000; stroke-width: 0.4"/>
   </g>
   <g id="PathCollection_70">
    <defs>
     <path id="m68bf242585" d="M 0 -2.5 
L -0.561285 -0.772542 
L -2.377641 -0.772542 
L -0.908178 0.295085 
L -1.469463 2.022542 
L -0 0.954915 
L 1.469463 2.022542 
L 0.908178 0.295085 
L 2.377641 -0.772542 
L 0.561285 -0.772542 
z
" style="stroke: #000000; stroke-width: 0.4"/>
    </defs>
    <g clip-path="url(#pa6a52613e3)">
     <use xlink:href="#m68bf242585" x="291.695312" y="111.639419" style="fill: #ffffff; stroke: #000000; stroke-width: 0.4"/>
    </g>
   </g>
   <g id="text_12">
    <!-- **** -->
    <g style="fill: #262626" transform="translate(118.717699 61.060295) scale(0.12 -0.12)">
     <defs>
      <path id="ArialMT-2a" d="M 200 3741 
L 344 4184 
Q 841 4009 1066 3881 
Q 1006 4447 1003 4659 
L 1456 4659 
Q 1447 4350 1384 3884 
Q 1706 4047 2122 4184 
L 2266 3741 
Q 1869 3609 1488 3566 
Q 1678 3400 2025 2975 
L 1650 2709 
Q 1469 2956 1222 3381 
Q 991 2941 816 2709 
L 447 2975 
Q 809 3422 966 3566 
Q 563 3644 200 3741 
z
" transform="scale(0.015625)"/>
     </defs>
     <use xlink:href="#ArialMT-2a"/>
     <use xlink:href="#ArialMT-2a" transform="translate(38.916016 0)"/>
     <use xlink:href="#ArialMT-2a" transform="translate(77.832031 0)"/>
     <use xlink:href="#ArialMT-2a" transform="translate(116.748047 0)"/>
    </g>
   </g>
   <g id="text_13">
    <!-- **** -->
    <g style="fill: #262626" transform="translate(67.581335 76.564607) scale(0.12 -0.12)">
     <use xlink:href="#ArialMT-2a"/>
     <use xlink:href="#ArialMT-2a" transform="translate(38.916016 0)"/>
     <use xlink:href="#ArialMT-2a" transform="translate(77.832031 0)"/>
     <use xlink:href="#ArialMT-2a" transform="translate(116.748047 0)"/>
    </g>
   </g>
   <g id="text_14">
    <!-- **** -->
    <g style="fill: #262626" transform="translate(169.854062 37.858493) scale(0.12 -0.12)">
     <use xlink:href="#ArialMT-2a"/>
     <use xlink:href="#ArialMT-2a" transform="translate(38.916016 0)"/>
     <use xlink:href="#ArialMT-2a" transform="translate(77.832031 0)"/>
     <use xlink:href="#ArialMT-2a" transform="translate(116.748047 0)"/>
    </g>
   </g>
   <g id="text_15">
    <!-- **** -->
    <g style="fill: #262626" transform="translate(220.990426 18.121022) scale(0.12 -0.12)">
     <use xlink:href="#ArialMT-2a"/>
     <use xlink:href="#ArialMT-2a" transform="translate(38.916016 0)"/>
     <use xlink:href="#ArialMT-2a" transform="translate(77.832031 0)"/>
     <use xlink:href="#ArialMT-2a" transform="translate(116.748047 0)"/>
    </g>
   </g>
   <g id="text_16">
    <!-- **** -->
    <g style="fill: #262626" transform="translate(272.12679 74.74629) scale(0.12 -0.12)">
     <use xlink:href="#ArialMT-2a"/>
     <use xlink:href="#ArialMT-2a" transform="translate(38.916016 0)"/>
     <use xlink:href="#ArialMT-2a" transform="translate(77.832031 0)"/>
     <use xlink:href="#ArialMT-2a" transform="translate(116.748047 0)"/>
    </g>
   </g>
   <g id="legend_1">
    <g id="patch_17">
     <path d="M 332.095312 19.50625 
L 354.095312 19.50625 
L 354.095312 11.80625 
L 332.095312 11.80625 
z
" style="fill: #db8484; stroke: #ffffff; stroke-linejoin: miter"/>
    </g>
    <g id="text_17">
     <!-- WT.Ngn2.x3HA -->
     <g style="fill: #262626" transform="translate(362.895312 19.50625) scale(0.11 -0.11)">
      <defs>
       <path id="ArialMT-57" d="M 1294 0 
L 78 4581 
L 700 4581 
L 1397 1578 
Q 1509 1106 1591 641 
Q 1766 1375 1797 1488 
L 2669 4581 
L 3400 4581 
L 4056 2263 
Q 4303 1400 4413 641 
Q 4500 1075 4641 1638 
L 5359 4581 
L 5969 4581 
L 4713 0 
L 4128 0 
L 3163 3491 
Q 3041 3928 3019 4028 
Q 2947 3713 2884 3491 
L 1913 0 
L 1294 0 
z
" transform="scale(0.015625)"/>
       <path id="ArialMT-54" d="M 1659 0 
L 1659 4041 
L 150 4041 
L 150 4581 
L 3781 4581 
L 3781 4041 
L 2266 4041 
L 2266 0 
L 1659 0 
z
" transform="scale(0.015625)"/>
       <path id="ArialMT-2e" d="M 581 0 
L 581 641 
L 1222 641 
L 1222 0 
L 581 0 
z
" transform="scale(0.015625)"/>
       <path id="ArialMT-67" d="M 319 -275 
L 866 -356 
Q 900 -609 1056 -725 
Q 1266 -881 1628 -881 
Q 2019 -881 2231 -725 
Q 2444 -569 2519 -288 
Q 2563 -116 2559 434 
Q 2191 0 1641 0 
Q 956 0 581 494 
Q 206 988 206 1678 
Q 206 2153 378 2554 
Q 550 2956 876 3175 
Q 1203 3394 1644 3394 
Q 2231 3394 2613 2919 
L 2613 3319 
L 3131 3319 
L 3131 450 
Q 3131 -325 2973 -648 
Q 2816 -972 2473 -1159 
Q 2131 -1347 1631 -1347 
Q 1038 -1347 672 -1080 
Q 306 -813 319 -275 
z
M 784 1719 
Q 784 1066 1043 766 
Q 1303 466 1694 466 
Q 2081 466 2343 764 
Q 2606 1063 2606 1700 
Q 2606 2309 2336 2618 
Q 2066 2928 1684 2928 
Q 1309 2928 1046 2623 
Q 784 2319 784 1719 
z
" transform="scale(0.015625)"/>
       <path id="ArialMT-78" d="M 47 0 
L 1259 1725 
L 138 3319 
L 841 3319 
L 1350 2541 
Q 1494 2319 1581 2169 
Q 1719 2375 1834 2534 
L 2394 3319 
L 3066 3319 
L 1919 1756 
L 3153 0 
L 2463 0 
L 1781 1031 
L 1600 1309 
L 728 0 
L 47 0 
z
" transform="scale(0.015625)"/>
       <path id="ArialMT-33" d="M 269 1209 
L 831 1284 
Q 928 806 1161 595 
Q 1394 384 1728 384 
Q 2125 384 2398 659 
Q 2672 934 2672 1341 
Q 2672 1728 2419 1979 
Q 2166 2231 1775 2231 
Q 1616 2231 1378 2169 
L 1441 2663 
Q 1497 2656 1531 2656 
Q 1891 2656 2178 2843 
Q 2466 3031 2466 3422 
Q 2466 3731 2256 3934 
Q 2047 4138 1716 4138 
Q 1388 4138 1169 3931 
Q 950 3725 888 3313 
L 325 3413 
Q 428 3978 793 4289 
Q 1159 4600 1703 4600 
Q 2078 4600 2393 4439 
Q 2709 4278 2876 4000 
Q 3044 3722 3044 3409 
Q 3044 3113 2884 2869 
Q 2725 2625 2413 2481 
Q 2819 2388 3044 2092 
Q 3269 1797 3269 1353 
Q 3269 753 2831 336 
Q 2394 -81 1725 -81 
Q 1122 -81 723 278 
Q 325 638 269 1209 
z
" transform="scale(0.015625)"/>
      </defs>
      <use xlink:href="#ArialMT-57"/>
      <use xlink:href="#ArialMT-54" transform="translate(94.384766 0)"/>
      <use xlink:href="#ArialMT-2e" transform="translate(144.34375 0)"/>
      <use xlink:href="#ArialMT-4e" transform="translate(172.126953 0)"/>
      <use xlink:href="#ArialMT-67" transform="translate(244.34375 0)"/>
      <use xlink:href="#ArialMT-6e" transform="translate(299.958984 0)"/>
      <use xlink:href="#ArialMT-32" transform="translate(355.574219 0)"/>
      <use xlink:href="#ArialMT-2e" transform="translate(411.189453 0)"/>
      <use xlink:href="#ArialMT-78" transform="translate(438.972656 0)"/>
      <use xlink:href="#ArialMT-33" transform="translate(488.972656 0)"/>
      <use xlink:href="#ArialMT-48" transform="translate(544.587891 0)"/>
      <use xlink:href="#ArialMT-41" transform="translate(616.804688 0)"/>
     </g>
    </g>
    <g id="patch_18">
     <path d="M 332.095312 35.329062 
L 354.095312 35.329062 
L 354.095312 27.629062 
L 332.095312 27.629062 
z
" style="fill: #4b94a2; stroke: #ffffff; stroke-linejoin: miter"/>
    </g>
    <g id="text_18">
     <!-- 9SA.Ngn2.x3HA -->
     <g style="fill: #262626" transform="translate(362.895312 35.329062) scale(0.11 -0.11)">
      <defs>
       <path id="ArialMT-39" d="M 350 1059 
L 891 1109 
Q 959 728 1153 556 
Q 1347 384 1650 384 
Q 1909 384 2104 503 
Q 2300 622 2425 820 
Q 2550 1019 2634 1356 
Q 2719 1694 2719 2044 
Q 2719 2081 2716 2156 
Q 2547 1888 2255 1720 
Q 1963 1553 1622 1553 
Q 1053 1553 659 1965 
Q 266 2378 266 3053 
Q 266 3750 677 4175 
Q 1088 4600 1706 4600 
Q 2153 4600 2523 4359 
Q 2894 4119 3086 3673 
Q 3278 3228 3278 2384 
Q 3278 1506 3087 986 
Q 2897 466 2520 194 
Q 2144 -78 1638 -78 
Q 1100 -78 759 220 
Q 419 519 350 1059 
z
M 2653 3081 
Q 2653 3566 2395 3850 
Q 2138 4134 1775 4134 
Q 1400 4134 1122 3828 
Q 844 3522 844 3034 
Q 844 2597 1108 2323 
Q 1372 2050 1759 2050 
Q 2150 2050 2401 2323 
Q 2653 2597 2653 3081 
z
" transform="scale(0.015625)"/>
      </defs>
      <use xlink:href="#ArialMT-39"/>
      <use xlink:href="#ArialMT-53" transform="translate(55.615234 0)"/>
      <use xlink:href="#ArialMT-41" transform="translate(122.314453 0)"/>
      <use xlink:href="#ArialMT-2e" transform="translate(189.013672 0)"/>
      <use xlink:href="#ArialMT-4e" transform="translate(216.796875 0)"/>
      <use xlink:href="#ArialMT-67" transform="translate(289.013672 0)"/>
      <use xlink:href="#ArialMT-6e" transform="translate(344.628906 0)"/>
      <use xlink:href="#ArialMT-32" transform="translate(400.244141 0)"/>
      <use xlink:href="#ArialMT-2e" transform="translate(455.859375 0)"/>
      <use xlink:href="#ArialMT-78" transform="translate(483.642578 0)"/>
      <use xlink:href="#ArialMT-33" transform="translate(533.642578 0)"/>
      <use xlink:href="#ArialMT-48" transform="translate(589.257812 0)"/>
      <use xlink:href="#ArialMT-41" transform="translate(661.474609 0)"/>
     </g>
    </g>
   </g>
  </g>
 </g>
 <defs>
  <clipPath id="pa6a52613e3">
   <rect x="44.195313" y="7.2" width="270" height="117"/>
  </clipPath>
 </defs>
</svg>
