<?xml version="1.0" encoding="utf-8" standalone="no"?>
<!DOCTYPE svg PUBLIC "-//W3C//DTD SVG 1.1//EN"
  "http://www.w3.org/Graphics/SVG/1.1/DTD/svg11.dtd">
<svg xmlns:xlink="http://www.w3.org/1999/xlink" width="240.395312pt" height="174.228969pt" viewBox="0 0 240.395312 174.228969" xmlns="http://www.w3.org/2000/svg" version="1.1">
 <metadata>
  <rdf:RDF xmlns:dc="http://purl.org/dc/elements/1.1/" xmlns:cc="http://creativecommons.org/ns#" xmlns:rdf="http://www.w3.org/1999/02/22-rdf-syntax-ns#">
   <cc:Work>
    <dc:type rdf:resource="http://purl.org/dc/dcmitype/StillImage"/>
    <dc:date>2025-07-28T17:02:02.032418</dc:date>
    <dc:format>image/svg+xml</dc:format>
    <dc:creator>
     <cc:Agent>
      <dc:title>Matplotlib v3.10.3, https://matplotlib.org/</dc:title>
     </cc:Agent>
    </dc:creator>
   </cc:Work>
  </rdf:RDF>
 </metadata>
 <defs>
  <style type="text/css">*{stroke-linejoin: round; stroke-linecap: butt}</style>
 </defs>
 <g id="figure_1">
  <g id="patch_1">
   <path d="M 0 174.228969 
L 240.395312 174.228969 
L 240.395312 0 
L 0 0 
z
" style="fill: #ffffff"/>
  </g>
  <g id="axes_1">
   <g id="patch_2">
    <path d="M 44.195312 124.2 
L 233.195312 124.2 
L 233.195312 7.2 
L 44.195312 7.2 
z
" style="fill: #ffffff"/>
   </g>
   <g id="line2d_1">
    <path d="M 44.195312 79.480755 
L 233.195312 79.480755 
" clip-path="url(#pa75365336d)" style="fill: none; stroke-dasharray: 5.55,2.4; stroke-dashoffset: 0; stroke: #cccccc; stroke-width: 1.5"/>
   </g>
   <g id="matplotlib.axis_1">
    <g id="xtick_1">
     <g id="line2d_2">
      <defs>
       <path id="mdfecdc26b8" d="M 0 0 
L 0 6 
" style="stroke: #262626; stroke-width: 1.25"/>
      </defs>
      <g>
       <use xlink:href="#mdfecdc26b8" x="63.095312" y="124.2" style="fill: #262626; stroke: #262626; stroke-width: 1.25"/>
      </g>
     </g>
     <g id="text_1">
      <!-- NIL, -->
      <g style="fill: #262626" transform="translate(53.008828 141.573594) scale(0.11 -0.11)">
       <defs>
        <path id="ArialMT-4e" d="M 488 0 
L 488 4581 
L 1109 4581 
L 3516 984 
L 3516 4581 
L 4097 4581 
L 4097 0 
L 3475 0 
L 1069 3600 
L 1069 0 
L 488 0 
z
" transform="scale(0.015625)"/>
        <path id="ArialMT-49" d="M 597 0 
L 597 4581 
L 1203 4581 
L 1203 0 
L 597 0 
z
" transform="scale(0.015625)"/>
        <path id="ArialMT-4c" d="M 469 0 
L 469 4581 
L 1075 4581 
L 1075 541 
L 3331 541 
L 3331 0 
L 469 0 
z
" transform="scale(0.015625)"/>
        <path id="ArialMT-2c" d="M 569 0 
L 569 641 
L 1209 641 
L 1209 0 
Q 1209 -353 1084 -570 
Q 959 -788 688 -906 
L 531 -666 
Q 709 -588 793 -436 
Q 878 -284 888 0 
L 569 0 
z
" transform="scale(0.015625)"/>
       </defs>
       <use xlink:href="#ArialMT-4e"/>
       <use xlink:href="#ArialMT-49" transform="translate(72.216797 0)"/>
       <use xlink:href="#ArialMT-4c" transform="translate(100 0)"/>
       <use xlink:href="#ArialMT-2c" transform="translate(155.615234 0)"/>
      </g>
      <!-- none -->
      <g style="fill: #262626" transform="translate(50.86125 153.208156) scale(0.11 -0.11)">
       <defs>
        <path id="ArialMT-6e" d="M 422 0 
L 422 3319 
L 928 3319 
L 928 2847 
Q 1294 3394 1984 3394 
Q 2284 3394 2536 3286 
Q 2788 3178 2913 3003 
Q 3038 2828 3088 2588 
Q 3119 2431 3119 2041 
L 3119 0 
L 2556 0 
L 2556 2019 
Q 2556 2363 2490 2533 
Q 2425 2703 2258 2804 
Q 2091 2906 1866 2906 
Q 1506 2906 1245 2678 
Q 984 2450 984 1813 
L 984 0 
L 422 0 
z
" transform="scale(0.015625)"/>
        <path id="ArialMT-6f" d="M 213 1659 
Q 213 2581 725 3025 
Q 1153 3394 1769 3394 
Q 2453 3394 2887 2945 
Q 3322 2497 3322 1706 
Q 3322 1066 3130 698 
Q 2938 331 2570 128 
Q 2203 -75 1769 -75 
Q 1072 -75 642 372 
Q 213 819 213 1659 
z
M 791 1659 
Q 791 1022 1069 705 
Q 1347 388 1769 388 
Q 2188 388 2466 706 
Q 2744 1025 2744 1678 
Q 2744 2294 2464 2611 
Q 2184 2928 1769 2928 
Q 1347 2928 1069 2612 
Q 791 2297 791 1659 
z
" transform="scale(0.015625)"/>
        <path id="ArialMT-65" d="M 2694 1069 
L 3275 997 
Q 3138 488 2766 206 
Q 2394 -75 1816 -75 
Q 1088 -75 661 373 
Q 234 822 234 1631 
Q 234 2469 665 2931 
Q 1097 3394 1784 3394 
Q 2450 3394 2872 2941 
Q 3294 2488 3294 1666 
Q 3294 1616 3291 1516 
L 816 1516 
Q 847 969 1125 678 
Q 1403 388 1819 388 
Q 2128 388 2347 550 
Q 2566 713 2694 1069 
z
M 847 1978 
L 2700 1978 
Q 2663 2397 2488 2606 
Q 2219 2931 1791 2931 
Q 1403 2931 1139 2672 
Q 875 2413 847 1978 
z
" transform="scale(0.015625)"/>
       </defs>
       <use xlink:href="#ArialMT-6e"/>
       <use xlink:href="#ArialMT-6f" transform="translate(55.615234 0)"/>
       <use xlink:href="#ArialMT-6e" transform="translate(111.230469 0)"/>
       <use xlink:href="#ArialMT-65" transform="translate(166.845703 0)"/>
      </g>
     </g>
    </g>
    <g id="xtick_2">
     <g id="line2d_3">
      <g>
       <use xlink:href="#mdfecdc26b8" x="100.895312" y="124.2" style="fill: #262626; stroke: #262626; stroke-width: 1.25"/>
      </g>
     </g>
     <g id="text_2">
      <!-- NIL -->
      <g style="fill: #262626" transform="translate(92.336797 141.573594) scale(0.11 -0.11)">
       <use xlink:href="#ArialMT-4e"/>
       <use xlink:href="#ArialMT-49" transform="translate(72.216797 0)"/>
       <use xlink:href="#ArialMT-4c" transform="translate(100 0)"/>
      </g>
      <!-- SDD, -->
      <g style="fill: #262626" transform="translate(87.754609 153.208156) scale(0.11 -0.11)">
       <defs>
        <path id="ArialMT-53" d="M 288 1472 
L 859 1522 
Q 900 1178 1048 958 
Q 1197 738 1509 602 
Q 1822 466 2213 466 
Q 2559 466 2825 569 
Q 3091 672 3220 851 
Q 3350 1031 3350 1244 
Q 3350 1459 3225 1620 
Q 3100 1781 2813 1891 
Q 2628 1963 1997 2114 
Q 1366 2266 1113 2400 
Q 784 2572 623 2826 
Q 463 3081 463 3397 
Q 463 3744 659 4045 
Q 856 4347 1234 4503 
Q 1613 4659 2075 4659 
Q 2584 4659 2973 4495 
Q 3363 4331 3572 4012 
Q 3781 3694 3797 3291 
L 3216 3247 
Q 3169 3681 2898 3903 
Q 2628 4125 2100 4125 
Q 1550 4125 1298 3923 
Q 1047 3722 1047 3438 
Q 1047 3191 1225 3031 
Q 1400 2872 2139 2705 
Q 2878 2538 3153 2413 
Q 3553 2228 3743 1945 
Q 3934 1663 3934 1294 
Q 3934 928 3725 604 
Q 3516 281 3123 101 
Q 2731 -78 2241 -78 
Q 1619 -78 1198 103 
Q 778 284 539 648 
Q 300 1013 288 1472 
z
" transform="scale(0.015625)"/>
        <path id="ArialMT-44" d="M 494 0 
L 494 4581 
L 2072 4581 
Q 2606 4581 2888 4516 
Q 3281 4425 3559 4188 
Q 3922 3881 4101 3404 
Q 4281 2928 4281 2316 
Q 4281 1794 4159 1391 
Q 4038 988 3847 723 
Q 3656 459 3429 307 
Q 3203 156 2883 78 
Q 2563 0 2147 0 
L 494 0 
z
M 1100 541 
L 2078 541 
Q 2531 541 2789 625 
Q 3047 709 3200 863 
Q 3416 1078 3536 1442 
Q 3656 1806 3656 2325 
Q 3656 3044 3420 3430 
Q 3184 3816 2847 3947 
Q 2603 4041 2063 4041 
L 1100 4041 
L 1100 541 
z
" transform="scale(0.015625)"/>
       </defs>
       <use xlink:href="#ArialMT-53"/>
       <use xlink:href="#ArialMT-44" transform="translate(66.699219 0)"/>
       <use xlink:href="#ArialMT-44" transform="translate(138.916016 0)"/>
       <use xlink:href="#ArialMT-2c" transform="translate(211.132812 0)"/>
      </g>
      <!-- none -->
      <g style="fill: #262626" transform="translate(88.66125 164.842719) scale(0.11 -0.11)">
       <use xlink:href="#ArialMT-6e"/>
       <use xlink:href="#ArialMT-6f" transform="translate(55.615234 0)"/>
       <use xlink:href="#ArialMT-6e" transform="translate(111.230469 0)"/>
       <use xlink:href="#ArialMT-65" transform="translate(166.845703 0)"/>
      </g>
     </g>
    </g>
    <g id="xtick_3">
     <g id="line2d_4">
      <g>
       <use xlink:href="#mdfecdc26b8" x="138.695312" y="124.2" style="fill: #262626; stroke: #262626; stroke-width: 1.25"/>
      </g>
     </g>
     <g id="text_3">
      <!-- NIL -->
      <g style="fill: #262626" transform="translate(130.136797 141.573594) scale(0.11 -0.11)">
       <use xlink:href="#ArialMT-4e"/>
       <use xlink:href="#ArialMT-49" transform="translate(72.216797 0)"/>
       <use xlink:href="#ArialMT-4c" transform="translate(100 0)"/>
      </g>
      <!-- SDD, -->
      <g style="fill: #262626" transform="translate(125.554609 153.208156) scale(0.11 -0.11)">
       <use xlink:href="#ArialMT-53"/>
       <use xlink:href="#ArialMT-44" transform="translate(66.699219 0)"/>
       <use xlink:href="#ArialMT-44" transform="translate(138.916016 0)"/>
       <use xlink:href="#ArialMT-2c" transform="translate(211.132812 0)"/>
      </g>
      <!-- PMA -->
      <g style="fill: #262626" transform="translate(126.776641 164.842719) scale(0.11 -0.11)">
       <defs>
        <path id="ArialMT-50" d="M 494 0 
L 494 4581 
L 2222 4581 
Q 2678 4581 2919 4538 
Q 3256 4481 3484 4323 
Q 3713 4166 3852 3881 
Q 3991 3597 3991 3256 
Q 3991 2672 3619 2267 
Q 3247 1863 2275 1863 
L 1100 1863 
L 1100 0 
L 494 0 
z
M 1100 2403 
L 2284 2403 
Q 2872 2403 3119 2622 
Q 3366 2841 3366 3238 
Q 3366 3525 3220 3729 
Q 3075 3934 2838 4000 
Q 2684 4041 2272 4041 
L 1100 4041 
L 1100 2403 
z
" transform="scale(0.015625)"/>
        <path id="ArialMT-4d" d="M 475 0 
L 475 4581 
L 1388 4581 
L 2472 1338 
Q 2622 884 2691 659 
Q 2769 909 2934 1394 
L 4031 4581 
L 4847 4581 
L 4847 0 
L 4263 0 
L 4263 3834 
L 2931 0 
L 2384 0 
L 1059 3900 
L 1059 0 
L 475 0 
z
" transform="scale(0.015625)"/>
        <path id="ArialMT-41" d="M -9 0 
L 1750 4581 
L 2403 4581 
L 4278 0 
L 3588 0 
L 3053 1388 
L 1138 1388 
L 634 0 
L -9 0 
z
M 1313 1881 
L 2866 1881 
L 2388 3150 
Q 2169 3728 2063 4100 
Q 1975 3659 1816 3225 
L 1313 1881 
z
" transform="scale(0.015625)"/>
       </defs>
       <use xlink:href="#ArialMT-50"/>
       <use xlink:href="#ArialMT-4d" transform="translate(66.699219 0)"/>
       <use xlink:href="#ArialMT-41" transform="translate(150 0)"/>
      </g>
     </g>
    </g>
    <g id="xtick_4">
     <g id="line2d_5">
      <g>
       <use xlink:href="#mdfecdc26b8" x="176.495312" y="124.2" style="fill: #262626; stroke: #262626; stroke-width: 1.25"/>
      </g>
     </g>
     <g id="text_4">
      <!-- NIL -->
      <g style="fill: #262626" transform="translate(167.936797 141.573594) scale(0.11 -0.11)">
       <use xlink:href="#ArialMT-4e"/>
       <use xlink:href="#ArialMT-49" transform="translate(72.216797 0)"/>
       <use xlink:href="#ArialMT-4c" transform="translate(100 0)"/>
      </g>
      <!-- RIDD, -->
      <g style="fill: #262626" transform="translate(161.523281 153.208156) scale(0.11 -0.11)">
       <defs>
        <path id="ArialMT-52" d="M 503 0 
L 503 4581 
L 2534 4581 
Q 3147 4581 3465 4457 
Q 3784 4334 3975 4021 
Q 4166 3709 4166 3331 
Q 4166 2844 3850 2509 
Q 3534 2175 2875 2084 
Q 3116 1969 3241 1856 
Q 3506 1613 3744 1247 
L 4541 0 
L 3778 0 
L 3172 953 
Q 2906 1366 2734 1584 
Q 2563 1803 2427 1890 
Q 2291 1978 2150 2013 
Q 2047 2034 1813 2034 
L 1109 2034 
L 1109 0 
L 503 0 
z
M 1109 2559 
L 2413 2559 
Q 2828 2559 3062 2645 
Q 3297 2731 3419 2920 
Q 3541 3109 3541 3331 
Q 3541 3656 3305 3865 
Q 3069 4075 2559 4075 
L 1109 4075 
L 1109 2559 
z
" transform="scale(0.015625)"/>
       </defs>
       <use xlink:href="#ArialMT-52"/>
       <use xlink:href="#ArialMT-49" transform="translate(72.216797 0)"/>
       <use xlink:href="#ArialMT-44" transform="translate(100 0)"/>
       <use xlink:href="#ArialMT-44" transform="translate(172.216797 0)"/>
       <use xlink:href="#ArialMT-2c" transform="translate(244.433594 0)"/>
      </g>
      <!-- none -->
      <g style="fill: #262626" transform="translate(164.26125 164.842719) scale(0.11 -0.11)">
       <use xlink:href="#ArialMT-6e"/>
       <use xlink:href="#ArialMT-6f" transform="translate(55.615234 0)"/>
       <use xlink:href="#ArialMT-6e" transform="translate(111.230469 0)"/>
       <use xlink:href="#ArialMT-65" transform="translate(166.845703 0)"/>
      </g>
     </g>
    </g>
    <g id="xtick_5">
     <g id="line2d_6">
      <g>
       <use xlink:href="#mdfecdc26b8" x="214.295312" y="124.2" style="fill: #262626; stroke: #262626; stroke-width: 1.25"/>
      </g>
     </g>
     <g id="text_5">
      <!-- NIL -->
      <g style="fill: #262626" transform="translate(205.736797 141.573594) scale(0.11 -0.11)">
       <use xlink:href="#ArialMT-4e"/>
       <use xlink:href="#ArialMT-49" transform="translate(72.216797 0)"/>
       <use xlink:href="#ArialMT-4c" transform="translate(100 0)"/>
      </g>
      <!-- RIDD, -->
      <g style="fill: #262626" transform="translate(199.323281 153.208156) scale(0.11 -0.11)">
       <use xlink:href="#ArialMT-52"/>
       <use xlink:href="#ArialMT-49" transform="translate(72.216797 0)"/>
       <use xlink:href="#ArialMT-44" transform="translate(100 0)"/>
       <use xlink:href="#ArialMT-44" transform="translate(172.216797 0)"/>
       <use xlink:href="#ArialMT-2c" transform="translate(244.433594 0)"/>
      </g>
      <!-- MEKi -->
      <g style="fill: #262626" transform="translate(201.154609 164.842719) scale(0.11 -0.11)">
       <defs>
        <path id="ArialMT-45" d="M 506 0 
L 506 4581 
L 3819 4581 
L 3819 4041 
L 1113 4041 
L 1113 2638 
L 3647 2638 
L 3647 2100 
L 1113 2100 
L 1113 541 
L 3925 541 
L 3925 0 
L 506 0 
z
" transform="scale(0.015625)"/>
        <path id="ArialMT-4b" d="M 469 0 
L 469 4581 
L 1075 4581 
L 1075 2309 
L 3350 4581 
L 4172 4581 
L 2250 2725 
L 4256 0 
L 3456 0 
L 1825 2319 
L 1075 1588 
L 1075 0 
L 469 0 
z
" transform="scale(0.015625)"/>
        <path id="ArialMT-69" d="M 425 3934 
L 425 4581 
L 988 4581 
L 988 3934 
L 425 3934 
z
M 425 0 
L 425 3319 
L 988 3319 
L 988 0 
L 425 0 
z
" transform="scale(0.015625)"/>
       </defs>
       <use xlink:href="#ArialMT-4d"/>
       <use xlink:href="#ArialMT-45" transform="translate(83.300781 0)"/>
       <use xlink:href="#ArialMT-4b" transform="translate(150 0)"/>
       <use xlink:href="#ArialMT-69" transform="translate(216.699219 0)"/>
      </g>
     </g>
    </g>
   </g>
   <g id="matplotlib.axis_2">
    <g id="ytick_1">
     <g id="line2d_7">
      <defs>
       <path id="mf03a3a66be" d="M 0 0 
L -6 0 
" style="stroke: #262626; stroke-width: 1.25"/>
      </defs>
      <g>
       <use xlink:href="#mf03a3a66be" x="44.195312" y="124.2" style="fill: #262626; stroke: #262626; stroke-width: 1.25"/>
      </g>
     </g>
     <g id="text_6">
      <!-- 0 -->
      <g style="fill: #262626" transform="translate(28.578281 128.136797) scale(0.11 -0.11)">
       <defs>
        <path id="ArialMT-30" d="M 266 2259 
Q 266 3072 433 3567 
Q 600 4063 929 4331 
Q 1259 4600 1759 4600 
Q 2128 4600 2406 4451 
Q 2684 4303 2865 4023 
Q 3047 3744 3150 3342 
Q 3253 2941 3253 2259 
Q 3253 1453 3087 958 
Q 2922 463 2592 192 
Q 2263 -78 1759 -78 
Q 1097 -78 719 397 
Q 266 969 266 2259 
z
M 844 2259 
Q 844 1131 1108 757 
Q 1372 384 1759 384 
Q 2147 384 2411 759 
Q 2675 1134 2675 2259 
Q 2675 3391 2411 3762 
Q 2147 4134 1753 4134 
Q 1366 4134 1134 3806 
Q 844 3388 844 2259 
z
" transform="scale(0.015625)"/>
       </defs>
       <use xlink:href="#ArialMT-30"/>
      </g>
     </g>
    </g>
    <g id="ytick_2">
     <g id="line2d_8">
      <g>
       <use xlink:href="#mf03a3a66be" x="44.195312" y="82.861436" style="fill: #262626; stroke: #262626; stroke-width: 1.25"/>
      </g>
     </g>
     <g id="text_7">
      <!-- 20 -->
      <g style="fill: #262626" transform="translate(22.46125 86.798233) scale(0.11 -0.11)">
       <defs>
        <path id="ArialMT-32" d="M 3222 541 
L 3222 0 
L 194 0 
Q 188 203 259 391 
Q 375 700 629 1000 
Q 884 1300 1366 1694 
Q 2113 2306 2375 2664 
Q 2638 3022 2638 3341 
Q 2638 3675 2398 3904 
Q 2159 4134 1775 4134 
Q 1369 4134 1125 3890 
Q 881 3647 878 3216 
L 300 3275 
Q 359 3922 746 4261 
Q 1134 4600 1788 4600 
Q 2447 4600 2831 4234 
Q 3216 3869 3216 3328 
Q 3216 3053 3103 2787 
Q 2991 2522 2730 2228 
Q 2469 1934 1863 1422 
Q 1356 997 1212 845 
Q 1069 694 975 541 
L 3222 541 
z
" transform="scale(0.015625)"/>
       </defs>
       <use xlink:href="#ArialMT-32"/>
       <use xlink:href="#ArialMT-30" transform="translate(55.615234 0)"/>
      </g>
     </g>
    </g>
    <g id="ytick_3">
     <g id="line2d_9">
      <g>
       <use xlink:href="#mf03a3a66be" x="44.195312" y="41.522872" style="fill: #262626; stroke: #262626; stroke-width: 1.25"/>
      </g>
     </g>
     <g id="text_8">
      <!-- 40 -->
      <g style="fill: #262626" transform="translate(22.46125 45.459669) scale(0.11 -0.11)">
       <defs>
        <path id="ArialMT-34" d="M 2069 0 
L 2069 1097 
L 81 1097 
L 81 1613 
L 2172 4581 
L 2631 4581 
L 2631 1613 
L 3250 1613 
L 3250 1097 
L 2631 1097 
L 2631 0 
L 2069 0 
z
M 2069 1613 
L 2069 3678 
L 634 1613 
L 2069 1613 
z
" transform="scale(0.015625)"/>
       </defs>
       <use xlink:href="#ArialMT-34"/>
       <use xlink:href="#ArialMT-30" transform="translate(55.615234 0)"/>
      </g>
     </g>
    </g>
    <g id="text_9">
     <!-- (%) HyperP -->
     <g style="fill: #262626" transform="translate(15.935625 96.704062) rotate(-90) scale(0.12 -0.12)">
      <defs>
       <path id="ArialMT-28" d="M 1497 -1347 
Q 1031 -759 709 28 
Q 388 816 388 1659 
Q 388 2403 628 3084 
Q 909 3875 1497 4659 
L 1900 4659 
Q 1522 4009 1400 3731 
Q 1209 3300 1100 2831 
Q 966 2247 966 1656 
Q 966 153 1900 -1347 
L 1497 -1347 
z
" transform="scale(0.015625)"/>
       <path id="ArialMT-25" d="M 372 3481 
Q 372 3972 619 4315 
Q 866 4659 1334 4659 
Q 1766 4659 2048 4351 
Q 2331 4044 2331 3447 
Q 2331 2866 2045 2552 
Q 1759 2238 1341 2238 
Q 925 2238 648 2547 
Q 372 2856 372 3481 
z
M 1350 4272 
Q 1141 4272 1002 4090 
Q 863 3909 863 3425 
Q 863 2984 1003 2804 
Q 1144 2625 1350 2625 
Q 1563 2625 1702 2806 
Q 1841 2988 1841 3469 
Q 1841 3913 1700 4092 
Q 1559 4272 1350 4272 
z
M 1353 -169 
L 3859 4659 
L 4316 4659 
L 1819 -169 
L 1353 -169 
z
M 3334 1075 
Q 3334 1569 3581 1911 
Q 3828 2253 4300 2253 
Q 4731 2253 5014 1945 
Q 5297 1638 5297 1041 
Q 5297 459 5011 145 
Q 4725 -169 4303 -169 
Q 3888 -169 3611 142 
Q 3334 453 3334 1075 
z
M 4316 1866 
Q 4103 1866 3964 1684 
Q 3825 1503 3825 1019 
Q 3825 581 3965 400 
Q 4106 219 4313 219 
Q 4528 219 4667 400 
Q 4806 581 4806 1063 
Q 4806 1506 4665 1686 
Q 4525 1866 4316 1866 
z
" transform="scale(0.015625)"/>
       <path id="ArialMT-29" d="M 791 -1347 
L 388 -1347 
Q 1322 153 1322 1656 
Q 1322 2244 1188 2822 
Q 1081 3291 891 3722 
Q 769 4003 388 4659 
L 791 4659 
Q 1378 3875 1659 3084 
Q 1900 2403 1900 1659 
Q 1900 816 1576 28 
Q 1253 -759 791 -1347 
z
" transform="scale(0.015625)"/>
       <path id="ArialMT-20" transform="scale(0.015625)"/>
       <path id="ArialMT-48" d="M 513 0 
L 513 4581 
L 1119 4581 
L 1119 2700 
L 3500 2700 
L 3500 4581 
L 4106 4581 
L 4106 0 
L 3500 0 
L 3500 2159 
L 1119 2159 
L 1119 0 
L 513 0 
z
" transform="scale(0.015625)"/>
       <path id="ArialMT-79" d="M 397 -1278 
L 334 -750 
Q 519 -800 656 -800 
Q 844 -800 956 -737 
Q 1069 -675 1141 -563 
Q 1194 -478 1313 -144 
Q 1328 -97 1363 -6 
L 103 3319 
L 709 3319 
L 1400 1397 
Q 1534 1031 1641 628 
Q 1738 1016 1872 1384 
L 2581 3319 
L 3144 3319 
L 1881 -56 
Q 1678 -603 1566 -809 
Q 1416 -1088 1222 -1217 
Q 1028 -1347 759 -1347 
Q 597 -1347 397 -1278 
z
" transform="scale(0.015625)"/>
       <path id="ArialMT-70" d="M 422 -1272 
L 422 3319 
L 934 3319 
L 934 2888 
Q 1116 3141 1344 3267 
Q 1572 3394 1897 3394 
Q 2322 3394 2647 3175 
Q 2972 2956 3137 2557 
Q 3303 2159 3303 1684 
Q 3303 1175 3120 767 
Q 2938 359 2589 142 
Q 2241 -75 1856 -75 
Q 1575 -75 1351 44 
Q 1128 163 984 344 
L 984 -1272 
L 422 -1272 
z
M 931 1641 
Q 931 1000 1190 694 
Q 1450 388 1819 388 
Q 2194 388 2461 705 
Q 2728 1022 2728 1688 
Q 2728 2322 2467 2637 
Q 2206 2953 1844 2953 
Q 1484 2953 1207 2617 
Q 931 2281 931 1641 
z
" transform="scale(0.015625)"/>
       <path id="ArialMT-72" d="M 416 0 
L 416 3319 
L 922 3319 
L 922 2816 
Q 1116 3169 1280 3281 
Q 1444 3394 1641 3394 
Q 1925 3394 2219 3213 
L 2025 2691 
Q 1819 2813 1613 2813 
Q 1428 2813 1281 2702 
Q 1134 2591 1072 2394 
Q 978 2094 978 1738 
L 978 0 
L 416 0 
z
" transform="scale(0.015625)"/>
      </defs>
      <use xlink:href="#ArialMT-28"/>
      <use xlink:href="#ArialMT-25" transform="translate(33.300781 0)"/>
      <use xlink:href="#ArialMT-29" transform="translate(122.216797 0)"/>
      <use xlink:href="#ArialMT-20" transform="translate(155.517578 0)"/>
      <use xlink:href="#ArialMT-48" transform="translate(183.300781 0)"/>
      <use xlink:href="#ArialMT-79" transform="translate(255.517578 0)"/>
      <use xlink:href="#ArialMT-70" transform="translate(305.517578 0)"/>
      <use xlink:href="#ArialMT-65" transform="translate(361.132812 0)"/>
      <use xlink:href="#ArialMT-72" transform="translate(416.748047 0)"/>
      <use xlink:href="#ArialMT-50" transform="translate(450.048828 0)"/>
     </g>
    </g>
   </g>
   <g id="patch_3">
    <path d="M 47.975313 124.2 
L 78.215312 124.2 
L 78.215312 101.1189 
L 47.975313 101.1189 
z
" clip-path="url(#pa75365336d)" style="fill: #4b94a2; stroke: #ffffff; stroke-linejoin: miter"/>
   </g>
   <g id="patch_4">
    <path d="M 85.775312 124.2 
L 116.015312 124.2 
L 116.015312 90.044073 
L 85.775312 90.044073 
z
" clip-path="url(#pa75365336d)" style="fill: #4b94a3; stroke: #ffffff; stroke-linejoin: miter"/>
   </g>
   <g id="patch_5">
    <path d="M 123.575312 124.2 
L 153.815313 124.2 
L 153.815313 65.983367 
L 123.575312 65.983367 
z
" clip-path="url(#pa75365336d)" style="fill: #4b94a2; stroke: #ffffff; stroke-linejoin: miter"/>
   </g>
   <g id="patch_6">
    <path d="M 161.375313 124.2 
L 191.615313 124.2 
L 191.615313 43.07686 
L 161.375313 43.07686 
z
" clip-path="url(#pa75365336d)" style="fill: #4b94a3; stroke: #ffffff; stroke-linejoin: miter"/>
   </g>
   <g id="patch_7">
    <path d="M 199.175312 124.2 
L 229.415312 124.2 
L 229.415312 110.888761 
L 199.175312 110.888761 
z
" clip-path="url(#pa75365336d)" style="fill: #4b94a2; stroke: #ffffff; stroke-linejoin: miter"/>
   </g>
   <g id="line2d_10">
    <path d="M 63.095312 104.724378 
L 63.095312 97.460783 
" clip-path="url(#pa75365336d)" style="fill: none; stroke: #424242; stroke-width: 2.7; stroke-linecap: round"/>
   </g>
   <g id="line2d_11">
    <path d="M 100.895312 94.355848 
L 100.895312 85.641432 
" clip-path="url(#pa75365336d)" style="fill: none; stroke: #424242; stroke-width: 2.7; stroke-linecap: round"/>
   </g>
   <g id="line2d_12">
    <path d="M 138.695312 69.395034 
L 138.695312 61.877783 
" clip-path="url(#pa75365336d)" style="fill: none; stroke: #424242; stroke-width: 2.7; stroke-linecap: round"/>
   </g>
   <g id="line2d_13">
    <path d="M 176.495312 51.875953 
L 176.495312 35.364715 
" clip-path="url(#pa75365336d)" style="fill: none; stroke: #424242; stroke-width: 2.7; stroke-linecap: round"/>
   </g>
   <g id="line2d_14">
    <path d="M 214.295312 113.002451 
L 214.295312 108.975104 
" clip-path="url(#pa75365336d)" style="fill: none; stroke: #424242; stroke-width: 2.7; stroke-linecap: round"/>
   </g>
   <g id="patch_8">
    <path d="M 44.195312 124.2 
L 44.195312 7.2 
" style="fill: none; stroke: #262626; stroke-width: 1.25; stroke-linejoin: miter; stroke-linecap: square"/>
   </g>
   <g id="patch_9">
    <path d="M 233.195312 124.2 
L 233.195312 7.2 
" style="fill: none; stroke: #262626; stroke-width: 1.25; stroke-linejoin: miter; stroke-linecap: square"/>
   </g>
   <g id="patch_10">
    <path d="M 44.195312 124.2 
L 233.195312 124.2 
" style="fill: none; stroke: #262626; stroke-width: 1.25; stroke-linejoin: miter; stroke-linecap: square"/>
   </g>
   <g id="patch_11">
    <path d="M 44.195312 7.2 
L 233.195312 7.2 
" style="fill: none; stroke: #262626; stroke-width: 1.25; stroke-linejoin: miter; stroke-linecap: square"/>
   </g>
   <g id="PathCollection_1">
    <defs>
     <path id="C0_0_49f4fb8c70" d="M 0 2.5 
C 0.663008 2.5 1.29895 2.236584 1.767767 1.767767 
C 2.236584 1.29895 2.5 0.663008 2.5 -0 
C 2.5 -0.663008 2.236584 -1.29895 1.767767 -1.767767 
C 1.29895 -2.236584 0.663008 -2.5 0 -2.5 
C -0.663008 -2.5 -1.29895 -2.236584 -1.767767 -1.767767 
C -2.236584 -1.29895 -2.5 -0.663008 -2.5 0 
C -2.5 0.663008 -2.236584 1.29895 -1.767767 1.767767 
C -1.29895 2.236584 -0.663008 2.5 0 2.5 
z
"/>
    </defs>
    <g clip-path="url(#pa75365336d)">
     <use xlink:href="#C0_0_49f4fb8c70" x="65.626145" y="95.545031" style="fill: #ffffff; stroke: #000000; stroke-width: 0.4"/>
    </g>
    <g clip-path="url(#pa75365336d)">
     <use xlink:href="#C0_0_49f4fb8c70" x="64.953864" y="98.386418" style="fill: #ffffff; stroke: #000000; stroke-width: 0.4"/>
    </g>
    <g clip-path="url(#pa75365336d)">
     <use xlink:href="#C0_0_49f4fb8c70" x="65.205354" y="92.461716" style="fill: #ffffff; stroke: #000000; stroke-width: 0.4"/>
    </g>
   </g>
   <g id="PathCollection_2">
    <defs>
     <path id="C1_0_28e641b248" d="M 0 2.5 
C 0.663008 2.5 1.29895 2.236584 1.767767 1.767767 
C 2.236584 1.29895 2.5 0.663008 2.5 -0 
C 2.5 -0.663008 2.236584 -1.29895 1.767767 -1.767767 
C 1.29895 -2.236584 0.663008 -2.5 0 -2.5 
C -0.663008 -2.5 -1.29895 -2.236584 -1.767767 -1.767767 
C -2.236584 -1.29895 -2.5 -0.663008 -2.5 0 
C -2.5 0.663008 -2.236584 1.29895 -1.767767 1.767767 
C -1.29895 2.236584 -0.663008 2.5 0 2.5 
z
"/>
    </defs>
    <g clip-path="url(#pa75365336d)">
     <use xlink:href="#C1_0_28e641b248" x="97.735071" y="89.854097" style="fill: #ffffff; stroke: #000000; stroke-width: 0.4"/>
    </g>
    <g clip-path="url(#pa75365336d)">
     <use xlink:href="#C1_0_28e641b248" x="101.101469" y="84.178263" style="fill: #ffffff; stroke: #000000; stroke-width: 0.4"/>
    </g>
    <g clip-path="url(#pa75365336d)">
     <use xlink:href="#C1_0_28e641b248" x="98.704518" y="91.810916" style="fill: #ffffff; stroke: #000000; stroke-width: 0.4"/>
    </g>
   </g>
   <g id="PathCollection_3">
    <defs>
     <path id="C2_0_53a20f516b" d="M 0 2.5 
C 0.663008 2.5 1.29895 2.236584 1.767767 1.767767 
C 2.236584 1.29895 2.5 0.663008 2.5 -0 
C 2.5 -0.663008 2.236584 -1.29895 1.767767 -1.767767 
C 1.29895 -2.236584 0.663008 -2.5 0 -2.5 
C -0.663008 -2.5 -1.29895 -2.236584 -1.767767 -1.767767 
C -2.236584 -1.29895 -2.5 -0.663008 -2.5 0 
C -2.5 0.663008 -2.236584 1.29895 -1.767767 1.767767 
C -1.29895 2.236584 -0.663008 2.5 0 2.5 
z
"/>
    </defs>
    <g clip-path="url(#pa75365336d)">
     <use xlink:href="#C2_0_53a20f516b" x="142.062774" y="69.684195" style="fill: #ffffff; stroke: #000000; stroke-width: 0.4"/>
    </g>
    <g clip-path="url(#pa75365336d)">
     <use xlink:href="#C2_0_53a20f516b" x="138.750141" y="62.9439" style="fill: #ffffff; stroke: #000000; stroke-width: 0.4"/>
    </g>
    <g clip-path="url(#pa75365336d)">
     <use xlink:href="#C2_0_53a20f516b" x="138.514234" y="62.077224" style="fill: #ffffff; stroke: #000000; stroke-width: 0.4"/>
    </g>
   </g>
   <g id="PathCollection_4">
    <defs>
     <path id="C3_0_4235fc0f46" d="M 0 2.5 
C 0.663008 2.5 1.29895 2.236584 1.767767 1.767767 
C 2.236584 1.29895 2.5 0.663008 2.5 -0 
C 2.5 -0.663008 2.236584 -1.29895 1.767767 -1.767767 
C 1.29895 -2.236584 0.663008 -2.5 0 -2.5 
C -0.663008 -2.5 -1.29895 -2.236584 -1.767767 -1.767767 
C -2.236584 -1.29895 -2.5 -0.663008 -2.5 0 
C -2.5 0.663008 -2.236584 1.29895 -1.767767 1.767767 
C -1.29895 2.236584 -0.663008 2.5 0 2.5 
z
"/>
    </defs>
    <g clip-path="url(#pa75365336d)">
     <use xlink:href="#C3_0_4235fc0f46" x="173.784162" y="22.454672" style="fill: #ffffff; stroke: #000000; stroke-width: 0.4"/>
    </g>
    <g clip-path="url(#pa75365336d)">
     <use xlink:href="#C3_0_4235fc0f46" x="179.353687" y="19.864308" style="fill: #ffffff; stroke: #000000; stroke-width: 0.4"/>
    </g>
    <g clip-path="url(#pa75365336d)">
     <use xlink:href="#C3_0_4235fc0f46" x="180.202922" y="12.771429" style="fill: #ffffff; stroke: #000000; stroke-width: 0.4"/>
    </g>
   </g>
   <g id="PathCollection_5">
    <defs>
     <path id="C4_0_340cf213e1" d="M 0 2.5 
C 0.663008 2.5 1.29895 2.236584 1.767767 1.767767 
C 2.236584 1.29895 2.5 0.663008 2.5 -0 
C 2.5 -0.663008 2.236584 -1.29895 1.767767 -1.767767 
C 1.29895 -2.236584 0.663008 -2.5 0 -2.5 
C -0.663008 -2.5 -1.29895 -2.236584 -1.767767 -1.767767 
C -2.236584 -1.29895 -2.5 -0.663008 -2.5 0 
C -2.5 0.663008 -2.236584 1.29895 -1.767767 1.767767 
C -1.29895 2.236584 -0.663008 2.5 0 2.5 
z
"/>
    </defs>
    <g clip-path="url(#pa75365336d)">
     <use xlink:href="#C4_0_340cf213e1" x="215.394751" y="113.943541" style="fill: #ffffff; stroke: #000000; stroke-width: 0.4"/>
    </g>
    <g clip-path="url(#pa75365336d)">
     <use xlink:href="#C4_0_340cf213e1" x="215.779282" y="108.447287" style="fill: #ffffff; stroke: #000000; stroke-width: 0.4"/>
    </g>
    <g clip-path="url(#pa75365336d)">
     <use xlink:href="#C4_0_340cf213e1" x="213.106609" y="105.295488" style="fill: #ffffff; stroke: #000000; stroke-width: 0.4"/>
    </g>
   </g>
   <g id="PathCollection_6">
    <path d="M 65.122059 108.581173 
L 62.622059 113.581173 
L 67.622059 113.581173 
z
" clip-path="url(#pa75365336d)" style="fill: #ffffff; stroke: #000000; stroke-width: 0.4"/>
    <path d="M 64.966879 106.664335 
L 62.466879 111.664335 
L 67.466879 111.664335 
z
" clip-path="url(#pa75365336d)" style="fill: #ffffff; stroke: #000000; stroke-width: 0.4"/>
    <path d="M 65.03922 111.803935 
L 62.53922 116.803935 
L 67.53922 116.803935 
z
" clip-path="url(#pa75365336d)" style="fill: #ffffff; stroke: #000000; stroke-width: 0.4"/>
   </g>
   <g id="PathCollection_7">
    <path d="M 97.319832 98.617806 
L 94.819832 103.617806 
L 99.819832 103.617806 
z
" clip-path="url(#pa75365336d)" style="fill: #ffffff; stroke: #000000; stroke-width: 0.4"/>
    <path d="M 104.243749 97.025145 
L 101.743749 102.025145 
L 106.743749 102.025145 
z
" clip-path="url(#pa75365336d)" style="fill: #ffffff; stroke: #000000; stroke-width: 0.4"/>
   </g>
   <g id="PathCollection_8">
    <path d="M 139.596099 69.479137 
L 137.096099 74.479137 
L 142.096099 74.479137 
z
" clip-path="url(#pa75365336d)" style="fill: #ffffff; stroke: #000000; stroke-width: 0.4"/>
    <path d="M 138.450192 67.179198 
L 135.950192 72.179198 
L 140.950192 72.179198 
z
" clip-path="url(#pa75365336d)" style="fill: #ffffff; stroke: #000000; stroke-width: 0.4"/>
    <path d="M 138.91992 67.926748 
L 136.41992 72.926748 
L 141.41992 72.926748 
z
" clip-path="url(#pa75365336d)" style="fill: #ffffff; stroke: #000000; stroke-width: 0.4"/>
   </g>
   <g id="PathCollection_9">
    <path d="M 177.474259 25.928769 
L 174.974259 30.928769 
L 179.974259 30.928769 
z
" clip-path="url(#pa75365336d)" style="fill: #ffffff; stroke: #000000; stroke-width: 0.4"/>
    <path d="M 179.026977 18.652337 
L 176.526977 23.652337 
L 181.526977 23.652337 
z
" clip-path="url(#pa75365336d)" style="fill: #ffffff; stroke: #000000; stroke-width: 0.4"/>
    <path d="M 178.957792 25.118216 
L 176.457792 30.118216 
L 181.457792 30.118216 
z
" clip-path="url(#pa75365336d)" style="fill: #ffffff; stroke: #000000; stroke-width: 0.4"/>
   </g>
   <g id="PathCollection_10">
    <path d="M 213.561991 107.193533 
L 211.061991 112.193533 
L 216.061991 112.193533 
z
" clip-path="url(#pa75365336d)" style="fill: #ffffff; stroke: #000000; stroke-width: 0.4"/>
    <path d="M 216.744845 109.005092 
L 214.244845 114.005092 
L 219.244845 114.005092 
z
" clip-path="url(#pa75365336d)" style="fill: #ffffff; stroke: #000000; stroke-width: 0.4"/>
    <path d="M 214.137256 105.757012 
L 211.637256 110.757012 
L 216.637256 110.757012 
z
" clip-path="url(#pa75365336d)" style="fill: #ffffff; stroke: #000000; stroke-width: 0.4"/>
   </g>
   <g id="PathCollection_11">
    <path d="M 60.646944 113.584459 
L 65.646944 113.584459 
L 65.646944 108.584459 
L 60.646944 108.584459 
z
" clip-path="url(#pa75365336d)" style="fill: #ffffff; stroke: #000000; stroke-width: 0.4"/>
    <path d="M 59.235057 109.176574 
L 64.235057 109.176574 
L 64.235057 104.176574 
L 59.235057 104.176574 
z
" clip-path="url(#pa75365336d)" style="fill: #ffffff; stroke: #000000; stroke-width: 0.4"/>
    <path d="M 64.291711 111.811366 
L 69.291711 111.811366 
L 69.291711 106.811366 
L 64.291711 106.811366 
z
" clip-path="url(#pa75365336d)" style="fill: #ffffff; stroke: #000000; stroke-width: 0.4"/>
   </g>
   <g id="PathCollection_12">
    <path d="M 94.640432 103.401205 
L 99.640432 103.401205 
L 99.640432 98.401205 
L 94.640432 98.401205 
z
" clip-path="url(#pa75365336d)" style="fill: #ffffff; stroke: #000000; stroke-width: 0.4"/>
    <path d="M 101.652841 106.337956 
L 106.652841 106.337956 
L 106.652841 101.337956 
L 101.652841 101.337956 
z
" clip-path="url(#pa75365336d)" style="fill: #ffffff; stroke: #000000; stroke-width: 0.4"/>
    <path d="M 98.133981 103.311447 
L 103.133981 103.311447 
L 103.133981 98.311447 
L 98.133981 98.311447 
z
" clip-path="url(#pa75365336d)" style="fill: #ffffff; stroke: #000000; stroke-width: 0.4"/>
   </g>
   <g id="PathCollection_13">
    <path d="M 137.137125 72.592486 
L 142.137125 72.592486 
L 142.137125 67.592486 
L 137.137125 67.592486 
z
" clip-path="url(#pa75365336d)" style="fill: #ffffff; stroke: #000000; stroke-width: 0.4"/>
    <path d="M 134.701422 70.638759 
L 139.701422 70.638759 
L 139.701422 65.638759 
L 134.701422 65.638759 
z
" clip-path="url(#pa75365336d)" style="fill: #ffffff; stroke: #000000; stroke-width: 0.4"/>
    <path d="M 137.17635 71.511895 
L 142.17635 71.511895 
L 142.17635 66.511895 
L 137.17635 66.511895 
z
" clip-path="url(#pa75365336d)" style="fill: #ffffff; stroke: #000000; stroke-width: 0.4"/>
   </g>
   <g id="PathCollection_14">
    <path d="M 175.688954 34.017591 
L 180.688954 34.017591 
L 180.688954 29.017591 
L 175.688954 29.017591 
z
" clip-path="url(#pa75365336d)" style="fill: #ffffff; stroke: #000000; stroke-width: 0.4"/>
    <path d="M 171.752192 33.14069 
L 176.752192 33.14069 
L 176.752192 28.14069 
L 171.752192 28.14069 
z
" clip-path="url(#pa75365336d)" style="fill: #ffffff; stroke: #000000; stroke-width: 0.4"/>
    <path d="M 175.579058 33.5013 
L 180.579058 33.5013 
L 180.579058 28.5013 
L 175.579058 28.5013 
z
" clip-path="url(#pa75365336d)" style="fill: #ffffff; stroke: #000000; stroke-width: 0.4"/>
   </g>
   <g id="PathCollection_15">
    <path d="M 213.610854 110.121208 
L 218.610854 110.121208 
L 218.610854 105.121208 
L 213.610854 105.121208 
z
" clip-path="url(#pa75365336d)" style="fill: #ffffff; stroke: #000000; stroke-width: 0.4"/>
    <path d="M 208.845042 108.864675 
L 213.845042 108.864675 
L 213.845042 103.864675 
L 208.845042 103.864675 
z
" clip-path="url(#pa75365336d)" style="fill: #ffffff; stroke: #000000; stroke-width: 0.4"/>
    <path d="M 214.210063 108.096606 
L 219.210063 108.096606 
L 219.210063 103.096606 
L 214.210063 103.096606 
z
" clip-path="url(#pa75365336d)" style="fill: #ffffff; stroke: #000000; stroke-width: 0.4"/>
   </g>
   <g id="PathCollection_16">
    <path d="M 61.577245 100.453785 
L 65.112779 96.918251 
L 61.577245 93.382717 
L 58.041711 96.918251 
z
" clip-path="url(#pa75365336d)" style="fill: #ffffff; stroke: #000000; stroke-width: 0.4"/>
    <path d="M 62.819409 96.493183 
L 66.354942 92.957649 
L 62.819409 89.422115 
L 59.283875 92.957649 
z
" clip-path="url(#pa75365336d)" style="fill: #ffffff; stroke: #000000; stroke-width: 0.4"/>
    <path d="M 63.858058 101.336547 
L 67.393592 97.801013 
L 63.858058 94.265479 
L 60.322525 97.801013 
z
" clip-path="url(#pa75365336d)" style="fill: #ffffff; stroke: #000000; stroke-width: 0.4"/>
   </g>
   <g id="PathCollection_17">
    <path d="M 103.981363 83.762563 
L 107.516897 80.227029 
L 103.981363 76.691496 
L 100.445829 80.227029 
z
" clip-path="url(#pa75365336d)" style="fill: #ffffff; stroke: #000000; stroke-width: 0.4"/>
    <path d="M 97.938302 85.304387 
L 101.473836 81.768853 
L 97.938302 78.233319 
L 94.402768 81.768853 
z
" clip-path="url(#pa75365336d)" style="fill: #ffffff; stroke: #000000; stroke-width: 0.4"/>
    <path d="M 97.770791 88.240647 
L 101.306324 84.705113 
L 97.770791 81.16958 
L 94.235257 84.705113 
z
" clip-path="url(#pa75365336d)" style="fill: #ffffff; stroke: #000000; stroke-width: 0.4"/>
   </g>
   <g id="PathCollection_18">
    <path d="M 136.607779 54.410475 
L 140.143312 50.874942 
L 136.607779 47.339408 
L 133.072245 50.874942 
z
" clip-path="url(#pa75365336d)" style="fill: #ffffff; stroke: #000000; stroke-width: 0.4"/>
    <path d="M 138.03357 60.49132 
L 141.569104 56.955786 
L 138.03357 53.420252 
L 134.498036 56.955786 
z
" clip-path="url(#pa75365336d)" style="fill: #ffffff; stroke: #000000; stroke-width: 0.4"/>
    <path d="M 141.106567 46.933756 
L 144.642101 43.398222 
L 141.106567 39.862688 
L 137.571033 43.398222 
z
" clip-path="url(#pa75365336d)" style="fill: #ffffff; stroke: #000000; stroke-width: 0.4"/>
   </g>
   <g id="PathCollection_19">
    <path d="M 175.323808 61.968713 
L 178.859342 58.433179 
L 175.323808 54.897645 
L 171.788274 58.433179 
z
" clip-path="url(#pa75365336d)" style="fill: #ffffff; stroke: #000000; stroke-width: 0.4"/>
    <path d="M 179.593596 77.050262 
L 183.12913 73.514729 
L 179.593596 69.979195 
L 176.058062 73.514729 
z
" clip-path="url(#pa75365336d)" style="fill: #ffffff; stroke: #000000; stroke-width: 0.4"/>
    <path d="M 177.391377 65.979056 
L 180.926911 62.443522 
L 177.391377 58.907988 
L 173.855843 62.443522 
z
" clip-path="url(#pa75365336d)" style="fill: #ffffff; stroke: #000000; stroke-width: 0.4"/>
   </g>
   <g id="PathCollection_20">
    <path d="M 216.800535 120.817492 
L 220.336069 117.281958 
L 216.800535 113.746424 
L 213.265001 117.281958 
z
" clip-path="url(#pa75365336d)" style="fill: #ffffff; stroke: #000000; stroke-width: 0.4"/>
    <path d="M 213.425187 119.079468 
L 216.960721 115.543934 
L 213.425187 112.0084 
L 209.889653 115.543934 
z
" clip-path="url(#pa75365336d)" style="fill: #ffffff; stroke: #000000; stroke-width: 0.4"/>
    <path d="M 214.2835 119.163021 
L 217.819034 115.627487 
L 214.2835 112.091953 
L 210.747966 115.627487 
z
" clip-path="url(#pa75365336d)" style="fill: #ffffff; stroke: #000000; stroke-width: 0.4"/>
   </g>
   <g id="PathCollection_21">
    <defs>
     <path id="C5_0_fdb2b98932" d="M -0.833333 2.5 
L 0.833333 2.5 
L 0.833333 0.833333 
L 2.5 0.833333 
L 2.5 -0.833333 
L 0.833333 -0.833333 
L 0.833333 -2.5 
L -0.833333 -2.5 
L -0.833333 -0.833333 
L -2.5 -0.833333 
L -2.5 0.833333 
L -0.833333 0.833333 
z
"/>
    </defs>
    <g clip-path="url(#pa75365336d)">
     <use xlink:href="#C5_0_fdb2b98932" x="61.784721" y="105.774112" style="fill: #ffffff; stroke: #000000; stroke-width: 0.4"/>
    </g>
    <g clip-path="url(#pa75365336d)">
     <use xlink:href="#C5_0_fdb2b98932" x="66.739354" y="104.713808" style="fill: #ffffff; stroke: #000000; stroke-width: 0.4"/>
    </g>
    <g clip-path="url(#pa75365336d)">
     <use xlink:href="#C5_0_fdb2b98932" x="60.193993" y="109.146217" style="fill: #ffffff; stroke: #000000; stroke-width: 0.4"/>
    </g>
   </g>
   <g id="PathCollection_22">
    <defs>
     <path id="m130557ae16" d="M -0.833333 2.5 
L 0.833333 2.5 
L 0.833333 0.833333 
L 2.5 0.833333 
L 2.5 -0.833333 
L 0.833333 -0.833333 
L 0.833333 -2.5 
L -0.833333 -2.5 
L -0.833333 -0.833333 
L -2.5 -0.833333 
L -2.5 0.833333 
L -0.833333 0.833333 
z
" style="stroke: #000000; stroke-width: 0.4"/>
    </defs>
    <g clip-path="url(#pa75365336d)">
     <use xlink:href="#m130557ae16" x="100.895312" y="95.252848" style="fill: #ffffff; stroke: #000000; stroke-width: 0.4"/>
    </g>
   </g>
   <g id="PathCollection_23">
    <defs>
     <path id="C6_0_4359120f1b" d="M -0.833333 2.5 
L 0.833333 2.5 
L 0.833333 0.833333 
L 2.5 0.833333 
L 2.5 -0.833333 
L 0.833333 -0.833333 
L 0.833333 -2.5 
L -0.833333 -2.5 
L -0.833333 -0.833333 
L -2.5 -0.833333 
L -2.5 0.833333 
L -0.833333 0.833333 
z
"/>
    </defs>
    <g clip-path="url(#pa75365336d)">
     <use xlink:href="#C6_0_4359120f1b" x="141.338954" y="69.372413" style="fill: #ffffff; stroke: #000000; stroke-width: 0.4"/>
    </g>
    <g clip-path="url(#pa75365336d)">
     <use xlink:href="#C6_0_4359120f1b" x="141.941237" y="68.468613" style="fill: #ffffff; stroke: #000000; stroke-width: 0.4"/>
    </g>
    <g clip-path="url(#pa75365336d)">
     <use xlink:href="#C6_0_4359120f1b" x="135.215108" y="67.299806" style="fill: #ffffff; stroke: #000000; stroke-width: 0.4"/>
    </g>
   </g>
   <g id="PathCollection_24">
    <defs>
     <path id="C7_0_df56648de2" d="M -0.833333 2.5 
L 0.833333 2.5 
L 0.833333 0.833333 
L 2.5 0.833333 
L 2.5 -0.833333 
L 0.833333 -0.833333 
L 0.833333 -2.5 
L -0.833333 -2.5 
L -0.833333 -0.833333 
L -2.5 -0.833333 
L -2.5 0.833333 
L -0.833333 0.833333 
z
"/>
    </defs>
    <g clip-path="url(#pa75365336d)">
     <use xlink:href="#C7_0_df56648de2" x="173.539771" y="75.262309" style="fill: #ffffff; stroke: #000000; stroke-width: 0.4"/>
    </g>
    <g clip-path="url(#pa75365336d)">
     <use xlink:href="#C7_0_df56648de2" x="175.796687" y="74.637426" style="fill: #ffffff; stroke: #000000; stroke-width: 0.4"/>
    </g>
    <g clip-path="url(#pa75365336d)">
     <use xlink:href="#C7_0_df56648de2" x="179.930697" y="79.535502" style="fill: #ffffff; stroke: #000000; stroke-width: 0.4"/>
    </g>
   </g>
   <g id="PathCollection_25">
    <defs>
     <path id="C8_0_37f7d3a6ab" d="M -0.833333 2.5 
L 0.833333 2.5 
L 0.833333 0.833333 
L 2.5 0.833333 
L 2.5 -0.833333 
L 0.833333 -0.833333 
L 0.833333 -2.5 
L -0.833333 -2.5 
L -0.833333 -0.833333 
L -2.5 -0.833333 
L -2.5 0.833333 
L -0.833333 0.833333 
z
"/>
    </defs>
    <g clip-path="url(#pa75365336d)">
     <use xlink:href="#C8_0_37f7d3a6ab" x="212.135302" y="117.129849" style="fill: #ffffff; stroke: #000000; stroke-width: 0.4"/>
    </g>
    <g clip-path="url(#pa75365336d)">
     <use xlink:href="#C8_0_37f7d3a6ab" x="217.964289" y="117.44359" style="fill: #ffffff; stroke: #000000; stroke-width: 0.4"/>
    </g>
    <g clip-path="url(#pa75365336d)">
     <use xlink:href="#C8_0_37f7d3a6ab" x="214.502217" y="116.943514" style="fill: #ffffff; stroke: #000000; stroke-width: 0.4"/>
    </g>
   </g>
   <g id="PathCollection_26">
    <defs>
     <path id="C9_0_ed7208705d" d="M -1.25 2.5 
L 0 1.25 
L 1.25 2.5 
L 2.5 1.25 
L 1.25 -0 
L 2.5 -1.25 
L 1.25 -2.5 
L 0 -1.25 
L -1.25 -2.5 
L -2.5 -1.25 
L -1.25 0 
L -2.5 1.25 
z
"/>
    </defs>
    <g clip-path="url(#pa75365336d)">
     <use xlink:href="#C9_0_ed7208705d" x="61.527518" y="99.208586" style="fill: #ffffff; stroke: #000000; stroke-width: 0.4"/>
    </g>
    <g clip-path="url(#pa75365336d)">
     <use xlink:href="#C9_0_ed7208705d" x="63.961831" y="100.990849" style="fill: #ffffff; stroke: #000000; stroke-width: 0.4"/>
    </g>
    <g clip-path="url(#pa75365336d)">
     <use xlink:href="#C9_0_ed7208705d" x="63.772601" y="105.65837" style="fill: #ffffff; stroke: #000000; stroke-width: 0.4"/>
    </g>
   </g>
   <g id="PathCollection_27">
    <defs>
     <path id="Ca_0_6bd3759f41" d="M -1.25 2.5 
L 0 1.25 
L 1.25 2.5 
L 2.5 1.25 
L 1.25 -0 
L 2.5 -1.25 
L 1.25 -2.5 
L 0 -1.25 
L -1.25 -2.5 
L -2.5 -1.25 
L -1.25 0 
L -2.5 1.25 
z
"/>
    </defs>
    <g clip-path="url(#pa75365336d)">
     <use xlink:href="#Ca_0_6bd3759f41" x="97.655147" y="95.70099" style="fill: #ffffff; stroke: #000000; stroke-width: 0.4"/>
    </g>
    <g clip-path="url(#pa75365336d)">
     <use xlink:href="#Ca_0_6bd3759f41" x="101.191448" y="92.362024" style="fill: #ffffff; stroke: #000000; stroke-width: 0.4"/>
    </g>
    <g clip-path="url(#pa75365336d)">
     <use xlink:href="#Ca_0_6bd3759f41" x="103.529824" y="93.070926" style="fill: #ffffff; stroke: #000000; stroke-width: 0.4"/>
    </g>
   </g>
   <g id="PathCollection_28">
    <defs>
     <path id="Cb_0_672ee820a6" d="M -1.25 2.5 
L 0 1.25 
L 1.25 2.5 
L 2.5 1.25 
L 1.25 -0 
L 2.5 -1.25 
L 1.25 -2.5 
L 0 -1.25 
L -1.25 -2.5 
L -2.5 -1.25 
L -1.25 0 
L -2.5 1.25 
z
"/>
    </defs>
    <g clip-path="url(#pa75365336d)">
     <use xlink:href="#Cb_0_672ee820a6" x="140.767721" y="78.165853" style="fill: #ffffff; stroke: #000000; stroke-width: 0.4"/>
    </g>
    <g clip-path="url(#pa75365336d)">
     <use xlink:href="#Cb_0_672ee820a6" x="140.239131" y="77.449477" style="fill: #ffffff; stroke: #000000; stroke-width: 0.4"/>
    </g>
    <g clip-path="url(#pa75365336d)">
     <use xlink:href="#Cb_0_672ee820a6" x="138.530469" y="72.184994" style="fill: #ffffff; stroke: #000000; stroke-width: 0.4"/>
    </g>
   </g>
   <g id="PathCollection_29">
    <defs>
     <path id="Cc_0_ee298cb267" d="M -1.25 2.5 
L 0 1.25 
L 1.25 2.5 
L 2.5 1.25 
L 1.25 -0 
L 2.5 -1.25 
L 1.25 -2.5 
L 0 -1.25 
L -1.25 -2.5 
L -2.5 -1.25 
L -1.25 0 
L -2.5 1.25 
z
"/>
    </defs>
    <g clip-path="url(#pa75365336d)">
     <use xlink:href="#Cc_0_ee298cb267" x="176.6446" y="37.946912" style="fill: #ffffff; stroke: #000000; stroke-width: 0.4"/>
    </g>
    <g clip-path="url(#pa75365336d)">
     <use xlink:href="#Cc_0_ee298cb267" x="173.614099" y="54.137708" style="fill: #ffffff; stroke: #000000; stroke-width: 0.4"/>
    </g>
    <g clip-path="url(#pa75365336d)">
     <use xlink:href="#Cc_0_ee298cb267" x="172.740246" y="50.425902" style="fill: #ffffff; stroke: #000000; stroke-width: 0.4"/>
    </g>
   </g>
   <g id="PathCollection_30">
    <defs>
     <path id="Cd_0_dcb791618b" d="M -1.25 2.5 
L 0 1.25 
L 1.25 2.5 
L 2.5 1.25 
L 1.25 -0 
L 2.5 -1.25 
L 1.25 -2.5 
L 0 -1.25 
L -1.25 -2.5 
L -2.5 -1.25 
L -1.25 0 
L -2.5 1.25 
z
"/>
    </defs>
    <g clip-path="url(#pa75365336d)">
     <use xlink:href="#Cd_0_dcb791618b" x="215.122602" y="108.105408" style="fill: #ffffff; stroke: #000000; stroke-width: 0.4"/>
    </g>
    <g clip-path="url(#pa75365336d)">
     <use xlink:href="#Cd_0_dcb791618b" x="214.781153" y="110.176813" style="fill: #ffffff; stroke: #000000; stroke-width: 0.4"/>
    </g>
    <g clip-path="url(#pa75365336d)">
     <use xlink:href="#Cd_0_dcb791618b" x="216.386799" y="109.093616" style="fill: #ffffff; stroke: #000000; stroke-width: 0.4"/>
    </g>
   </g>
   <g id="PathCollection_31">
    <defs>
     <path id="Ce_0_a05c72af8f" d="M 0 -2.5 
L -0.561285 -0.772542 
L -2.377641 -0.772542 
L -0.908178 0.295085 
L -1.469463 2.022542 
L -0 0.954915 
L 1.469463 2.022542 
L 0.908178 0.295085 
L 2.377641 -0.772542 
L 0.561285 -0.772542 
z
"/>
    </defs>
    <g clip-path="url(#pa75365336d)">
     <use xlink:href="#Ce_0_a05c72af8f" x="66.261073" y="92.999601" style="fill: #ffffff; stroke: #000000; stroke-width: 0.4"/>
    </g>
    <g clip-path="url(#pa75365336d)">
     <use xlink:href="#Ce_0_a05c72af8f" x="65.384712" y="83.621778" style="fill: #ffffff; stroke: #000000; stroke-width: 0.4"/>
    </g>
    <g clip-path="url(#pa75365336d)">
     <use xlink:href="#Ce_0_a05c72af8f" x="61.245628" y="85.69167" style="fill: #ffffff; stroke: #000000; stroke-width: 0.4"/>
    </g>
   </g>
   <g id="PathCollection_32">
    <defs>
     <path id="Cf_0_0c1522fbe8" d="M 0 -2.5 
L -0.561285 -0.772542 
L -2.377641 -0.772542 
L -0.908178 0.295085 
L -1.469463 2.022542 
L -0 0.954915 
L 1.469463 2.022542 
L 0.908178 0.295085 
L 2.377641 -0.772542 
L 0.561285 -0.772542 
z
"/>
    </defs>
    <g clip-path="url(#pa75365336d)">
     <use xlink:href="#Cf_0_0c1522fbe8" x="99.398242" y="80.425677" style="fill: #ffffff; stroke: #000000; stroke-width: 0.4"/>
    </g>
    <g clip-path="url(#pa75365336d)">
     <use xlink:href="#Cf_0_0c1522fbe8" x="99.737409" y="76.992381" style="fill: #ffffff; stroke: #000000; stroke-width: 0.4"/>
    </g>
    <g clip-path="url(#pa75365336d)">
     <use xlink:href="#Cf_0_0c1522fbe8" x="102.732265" y="68.250632" style="fill: #ffffff; stroke: #000000; stroke-width: 0.4"/>
    </g>
   </g>
   <g id="PathCollection_33">
    <path d="M 139.129577 62.899058 
L 138.568293 64.626516 
L 136.751936 64.626516 
L 138.221399 65.694143 
L 137.660114 67.421601 
L 139.129577 66.353973 
L 140.599041 67.421601 
L 140.037756 65.694143 
L 141.507219 64.626516 
L 139.690862 64.626516 
z
" clip-path="url(#pa75365336d)" style="fill: #ffffff; stroke: #000000; stroke-width: 0.4"/>
    <path d="M 139.320535 53.564629 
L 138.75925 55.292087 
L 136.942894 55.292087 
L 138.412357 56.359714 
L 137.851072 58.087172 
L 139.320535 57.019544 
L 140.789998 58.087172 
L 140.228713 56.359714 
L 141.698176 55.292087 
L 139.88182 55.292087 
z
" clip-path="url(#pa75365336d)" style="fill: #ffffff; stroke: #000000; stroke-width: 0.4"/>
   </g>
   <g id="PathCollection_34">
    <defs>
     <path id="C10_0_f9d95bb757" d="M 0 -2.5 
L -0.561285 -0.772542 
L -2.377641 -0.772542 
L -0.908178 0.295085 
L -1.469463 2.022542 
L -0 0.954915 
L 1.469463 2.022542 
L 0.908178 0.295085 
L 2.377641 -0.772542 
L 0.561285 -0.772542 
z
"/>
    </defs>
    <g clip-path="url(#pa75365336d)">
     <use xlink:href="#C10_0_f9d95bb757" x="172.992736" y="38.985406" style="fill: #ffffff; stroke: #000000; stroke-width: 0.4"/>
    </g>
    <g clip-path="url(#pa75365336d)">
     <use xlink:href="#C10_0_f9d95bb757" x="178.687311" y="36.300026" style="fill: #ffffff; stroke: #000000; stroke-width: 0.4"/>
    </g>
    <g clip-path="url(#pa75365336d)">
     <use xlink:href="#C10_0_f9d95bb757" x="175.974374" y="37.542122" style="fill: #ffffff; stroke: #000000; stroke-width: 0.4"/>
    </g>
   </g>
   <g id="PathCollection_35">
    <defs>
     <path id="m8b8b87ecae" d="M 0 -2.5 
L -0.561285 -0.772542 
L -2.377641 -0.772542 
L -0.908178 0.295085 
L -1.469463 2.022542 
L -0 0.954915 
L 1.469463 2.022542 
L 0.908178 0.295085 
L 2.377641 -0.772542 
L 0.561285 -0.772542 
z
" style="stroke: #000000; stroke-width: 0.4"/>
    </defs>
    <g clip-path="url(#pa75365336d)">
     <use xlink:href="#m8b8b87ecae" x="214.295312" y="102.815841" style="fill: #ffffff; stroke: #000000; stroke-width: 0.4"/>
    </g>
   </g>
  </g>
 </g>
 <defs>
  <clipPath id="pa75365336d">
   <rect x="44.195312" y="7.2" width="189" height="117"/>
  </clipPath>
 </defs>
</svg>
