<?xml version="1.0" encoding="utf-8" standalone="no"?>
<!DOCTYPE svg PUBLIC "-//W3C//DTD SVG 1.1//EN"
  "http://www.w3.org/Graphics/SVG/1.1/DTD/svg11.dtd">
<svg xmlns:xlink="http://www.w3.org/1999/xlink" width="346.405625pt" height="174.228969pt" viewBox="0 0 346.405625 174.228969" xmlns="http://www.w3.org/2000/svg" version="1.1">
 <metadata>
  <rdf:RDF xmlns:dc="http://purl.org/dc/elements/1.1/" xmlns:cc="http://creativecommons.org/ns#" xmlns:rdf="http://www.w3.org/1999/02/22-rdf-syntax-ns#">
   <cc:Work>
    <dc:type rdf:resource="http://purl.org/dc/dcmitype/StillImage"/>
    <dc:date>2025-07-28T17:02:08.729330</dc:date>
    <dc:format>image/svg+xml</dc:format>
    <dc:creator>
     <cc:Agent>
      <dc:title>Matplotlib v3.10.3, https://matplotlib.org/</dc:title>
     </cc:Agent>
    </dc:creator>
   </cc:Work>
  </rdf:RDF>
 </metadata>
 <defs>
  <style type="text/css">*{stroke-linejoin: round; stroke-linecap: butt}</style>
 </defs>
 <g id="figure_1">
  <g id="patch_1">
   <path d="M 0 174.228969 
L 346.405625 174.228969 
L 346.405625 0 
L 0 0 
z
" style="fill: #ffffff"/>
  </g>
  <g id="axes_1">
   <g id="patch_2">
    <path d="M 49.408438 124.2 
L 211.408437 124.2 
L 211.408437 7.2 
L 49.408438 7.2 
z
" style="fill: #ffffff"/>
   </g>
   <g id="line2d_1">
    <path d="M 49.408438 109.751007 
L 211.408437 109.751007 
" clip-path="url(#p068bf672a4)" style="fill: none; stroke-dasharray: 5.55,2.4; stroke-dashoffset: 0; stroke: #cccccc; stroke-width: 1.5"/>
   </g>
   <g id="line2d_2">
    <path d="M 49.408438 54.132004 
L 211.408437 54.132004 
" clip-path="url(#p068bf672a4)" style="fill: none; stroke-dasharray: 5.55,2.4; stroke-dashoffset: 0; stroke: #cccccc; stroke-width: 1.5"/>
   </g>
   <g id="matplotlib.axis_1">
    <g id="xtick_1">
     <g id="line2d_3">
      <defs>
       <path id="m5931e94590" d="M 0 0 
L 0 6 
" style="stroke: #262626; stroke-width: 1.25"/>
      </defs>
      <g>
       <use xlink:href="#m5931e94590" x="77.811035" y="124.2" style="fill: #262626; stroke: #262626; stroke-width: 1.25"/>
      </g>
     </g>
     <g id="text_1">
      <!-- NIL, -->
      <g style="fill: #262626" transform="translate(67.724551 141.573594) scale(0.11 -0.11)">
       <defs>
        <path id="ArialMT-4e" d="M 488 0 
L 488 4581 
L 1109 4581 
L 3516 984 
L 3516 4581 
L 4097 4581 
L 4097 0 
L 3475 0 
L 1069 3600 
L 1069 0 
L 488 0 
z
" transform="scale(0.015625)"/>
        <path id="ArialMT-49" d="M 597 0 
L 597 4581 
L 1203 4581 
L 1203 0 
L 597 0 
z
" transform="scale(0.015625)"/>
        <path id="ArialMT-4c" d="M 469 0 
L 469 4581 
L 1075 4581 
L 1075 541 
L 3331 541 
L 3331 0 
L 469 0 
z
" transform="scale(0.015625)"/>
        <path id="ArialMT-2c" d="M 569 0 
L 569 641 
L 1209 641 
L 1209 0 
Q 1209 -353 1084 -570 
Q 959 -788 688 -906 
L 531 -666 
Q 709 -588 793 -436 
Q 878 -284 888 0 
L 569 0 
z
" transform="scale(0.015625)"/>
       </defs>
       <use xlink:href="#ArialMT-4e"/>
       <use xlink:href="#ArialMT-49" transform="translate(72.216797 0)"/>
       <use xlink:href="#ArialMT-4c" transform="translate(100 0)"/>
       <use xlink:href="#ArialMT-2c" transform="translate(155.615234 0)"/>
      </g>
      <!-- none -->
      <g style="fill: #262626" transform="translate(65.576972 153.208156) scale(0.11 -0.11)">
       <defs>
        <path id="ArialMT-6e" d="M 422 0 
L 422 3319 
L 928 3319 
L 928 2847 
Q 1294 3394 1984 3394 
Q 2284 3394 2536 3286 
Q 2788 3178 2913 3003 
Q 3038 2828 3088 2588 
Q 3119 2431 3119 2041 
L 3119 0 
L 2556 0 
L 2556 2019 
Q 2556 2363 2490 2533 
Q 2425 2703 2258 2804 
Q 2091 2906 1866 2906 
Q 1506 2906 1245 2678 
Q 984 2450 984 1813 
L 984 0 
L 422 0 
z
" transform="scale(0.015625)"/>
        <path id="ArialMT-6f" d="M 213 1659 
Q 213 2581 725 3025 
Q 1153 3394 1769 3394 
Q 2453 3394 2887 2945 
Q 3322 2497 3322 1706 
Q 3322 1066 3130 698 
Q 2938 331 2570 128 
Q 2203 -75 1769 -75 
Q 1072 -75 642 372 
Q 213 819 213 1659 
z
M 791 1659 
Q 791 1022 1069 705 
Q 1347 388 1769 388 
Q 2188 388 2466 706 
Q 2744 1025 2744 1678 
Q 2744 2294 2464 2611 
Q 2184 2928 1769 2928 
Q 1347 2928 1069 2612 
Q 791 2297 791 1659 
z
" transform="scale(0.015625)"/>
        <path id="ArialMT-65" d="M 2694 1069 
L 3275 997 
Q 3138 488 2766 206 
Q 2394 -75 1816 -75 
Q 1088 -75 661 373 
Q 234 822 234 1631 
Q 234 2469 665 2931 
Q 1097 3394 1784 3394 
Q 2450 3394 2872 2941 
Q 3294 2488 3294 1666 
Q 3294 1616 3291 1516 
L 816 1516 
Q 847 969 1125 678 
Q 1403 388 1819 388 
Q 2128 388 2347 550 
Q 2566 713 2694 1069 
z
M 847 1978 
L 2700 1978 
Q 2663 2397 2488 2606 
Q 2219 2931 1791 2931 
Q 1403 2931 1139 2672 
Q 875 2413 847 1978 
z
" transform="scale(0.015625)"/>
       </defs>
       <use xlink:href="#ArialMT-6e"/>
       <use xlink:href="#ArialMT-6f" transform="translate(55.615234 0)"/>
       <use xlink:href="#ArialMT-6e" transform="translate(111.230469 0)"/>
       <use xlink:href="#ArialMT-65" transform="translate(166.845703 0)"/>
      </g>
     </g>
    </g>
    <g id="xtick_2">
     <g id="line2d_4">
      <g>
       <use xlink:href="#m5931e94590" x="130.408438" y="124.2" style="fill: #262626; stroke: #262626; stroke-width: 1.25"/>
      </g>
     </g>
     <g id="text_2">
      <!-- NIL -->
      <g style="fill: #262626" transform="translate(121.849922 141.573594) scale(0.11 -0.11)">
       <use xlink:href="#ArialMT-4e"/>
       <use xlink:href="#ArialMT-49" transform="translate(72.216797 0)"/>
       <use xlink:href="#ArialMT-4c" transform="translate(100 0)"/>
      </g>
      <!-- SDD, -->
      <g style="fill: #262626" transform="translate(117.267734 153.208156) scale(0.11 -0.11)">
       <defs>
        <path id="ArialMT-53" d="M 288 1472 
L 859 1522 
Q 900 1178 1048 958 
Q 1197 738 1509 602 
Q 1822 466 2213 466 
Q 2559 466 2825 569 
Q 3091 672 3220 851 
Q 3350 1031 3350 1244 
Q 3350 1459 3225 1620 
Q 3100 1781 2813 1891 
Q 2628 1963 1997 2114 
Q 1366 2266 1113 2400 
Q 784 2572 623 2826 
Q 463 3081 463 3397 
Q 463 3744 659 4045 
Q 856 4347 1234 4503 
Q 1613 4659 2075 4659 
Q 2584 4659 2973 4495 
Q 3363 4331 3572 4012 
Q 3781 3694 3797 3291 
L 3216 3247 
Q 3169 3681 2898 3903 
Q 2628 4125 2100 4125 
Q 1550 4125 1298 3923 
Q 1047 3722 1047 3438 
Q 1047 3191 1225 3031 
Q 1400 2872 2139 2705 
Q 2878 2538 3153 2413 
Q 3553 2228 3743 1945 
Q 3934 1663 3934 1294 
Q 3934 928 3725 604 
Q 3516 281 3123 101 
Q 2731 -78 2241 -78 
Q 1619 -78 1198 103 
Q 778 284 539 648 
Q 300 1013 288 1472 
z
" transform="scale(0.015625)"/>
        <path id="ArialMT-44" d="M 494 0 
L 494 4581 
L 2072 4581 
Q 2606 4581 2888 4516 
Q 3281 4425 3559 4188 
Q 3922 3881 4101 3404 
Q 4281 2928 4281 2316 
Q 4281 1794 4159 1391 
Q 4038 988 3847 723 
Q 3656 459 3429 307 
Q 3203 156 2883 78 
Q 2563 0 2147 0 
L 494 0 
z
M 1100 541 
L 2078 541 
Q 2531 541 2789 625 
Q 3047 709 3200 863 
Q 3416 1078 3536 1442 
Q 3656 1806 3656 2325 
Q 3656 3044 3420 3430 
Q 3184 3816 2847 3947 
Q 2603 4041 2063 4041 
L 1100 4041 
L 1100 541 
z
" transform="scale(0.015625)"/>
       </defs>
       <use xlink:href="#ArialMT-53"/>
       <use xlink:href="#ArialMT-44" transform="translate(66.699219 0)"/>
       <use xlink:href="#ArialMT-44" transform="translate(138.916016 0)"/>
       <use xlink:href="#ArialMT-2c" transform="translate(211.132812 0)"/>
      </g>
      <!-- none -->
      <g style="fill: #262626" transform="translate(118.174375 164.842719) scale(0.11 -0.11)">
       <use xlink:href="#ArialMT-6e"/>
       <use xlink:href="#ArialMT-6f" transform="translate(55.615234 0)"/>
       <use xlink:href="#ArialMT-6e" transform="translate(111.230469 0)"/>
       <use xlink:href="#ArialMT-65" transform="translate(166.845703 0)"/>
      </g>
     </g>
    </g>
    <g id="xtick_3">
     <g id="line2d_5">
      <g>
       <use xlink:href="#m5931e94590" x="183.00584" y="124.2" style="fill: #262626; stroke: #262626; stroke-width: 1.25"/>
      </g>
     </g>
     <g id="text_3">
      <!-- NIL -->
      <g style="fill: #262626" transform="translate(174.447324 141.573594) scale(0.11 -0.11)">
       <use xlink:href="#ArialMT-4e"/>
       <use xlink:href="#ArialMT-49" transform="translate(72.216797 0)"/>
       <use xlink:href="#ArialMT-4c" transform="translate(100 0)"/>
      </g>
      <!-- SDD, -->
      <g style="fill: #262626" transform="translate(169.865137 153.208156) scale(0.11 -0.11)">
       <use xlink:href="#ArialMT-53"/>
       <use xlink:href="#ArialMT-44" transform="translate(66.699219 0)"/>
       <use xlink:href="#ArialMT-44" transform="translate(138.916016 0)"/>
       <use xlink:href="#ArialMT-2c" transform="translate(211.132812 0)"/>
      </g>
      <!-- PMA -->
      <g style="fill: #262626" transform="translate(171.087168 164.842719) scale(0.11 -0.11)">
       <defs>
        <path id="ArialMT-50" d="M 494 0 
L 494 4581 
L 2222 4581 
Q 2678 4581 2919 4538 
Q 3256 4481 3484 4323 
Q 3713 4166 3852 3881 
Q 3991 3597 3991 3256 
Q 3991 2672 3619 2267 
Q 3247 1863 2275 1863 
L 1100 1863 
L 1100 0 
L 494 0 
z
M 1100 2403 
L 2284 2403 
Q 2872 2403 3119 2622 
Q 3366 2841 3366 3238 
Q 3366 3525 3220 3729 
Q 3075 3934 2838 4000 
Q 2684 4041 2272 4041 
L 1100 4041 
L 1100 2403 
z
" transform="scale(0.015625)"/>
        <path id="ArialMT-4d" d="M 475 0 
L 475 4581 
L 1388 4581 
L 2472 1338 
Q 2622 884 2691 659 
Q 2769 909 2934 1394 
L 4031 4581 
L 4847 4581 
L 4847 0 
L 4263 0 
L 4263 3834 
L 2931 0 
L 2384 0 
L 1059 3900 
L 1059 0 
L 475 0 
z
" transform="scale(0.015625)"/>
        <path id="ArialMT-41" d="M -9 0 
L 1750 4581 
L 2403 4581 
L 4278 0 
L 3588 0 
L 3053 1388 
L 1138 1388 
L 634 0 
L -9 0 
z
M 1313 1881 
L 2866 1881 
L 2388 3150 
Q 2169 3728 2063 4100 
Q 1975 3659 1816 3225 
L 1313 1881 
z
" transform="scale(0.015625)"/>
       </defs>
       <use xlink:href="#ArialMT-50"/>
       <use xlink:href="#ArialMT-4d" transform="translate(66.699219 0)"/>
       <use xlink:href="#ArialMT-41" transform="translate(150 0)"/>
      </g>
     </g>
    </g>
   </g>
   <g id="matplotlib.axis_2">
    <g id="ytick_1">
     <g id="line2d_6">
      <defs>
       <path id="md9029ebb20" d="M 0 0 
L -6 0 
" style="stroke: #262626; stroke-width: 1.25"/>
      </defs>
      <g>
       <use xlink:href="#md9029ebb20" x="49.408438" y="124.2" style="fill: #262626; stroke: #262626; stroke-width: 1.25"/>
      </g>
     </g>
     <g id="text_4">
      <!-- 0 -->
      <g style="fill: #262626" transform="translate(33.791406 128.136797) scale(0.11 -0.11)">
       <defs>
        <path id="ArialMT-30" d="M 266 2259 
Q 266 3072 433 3567 
Q 600 4063 929 4331 
Q 1259 4600 1759 4600 
Q 2128 4600 2406 4451 
Q 2684 4303 2865 4023 
Q 3047 3744 3150 3342 
Q 3253 2941 3253 2259 
Q 3253 1453 3087 958 
Q 2922 463 2592 192 
Q 2263 -78 1759 -78 
Q 1097 -78 719 397 
Q 266 969 266 2259 
z
M 844 2259 
Q 844 1131 1108 757 
Q 1372 384 1759 384 
Q 2147 384 2411 759 
Q 2675 1134 2675 2259 
Q 2675 3391 2411 3762 
Q 2147 4134 1753 4134 
Q 1366 4134 1134 3806 
Q 844 3388 844 2259 
z
" transform="scale(0.015625)"/>
       </defs>
       <use xlink:href="#ArialMT-30"/>
      </g>
     </g>
    </g>
    <g id="ytick_2">
     <g id="line2d_7">
      <g>
       <use xlink:href="#md9029ebb20" x="49.408438" y="99.020959" style="fill: #262626; stroke: #262626; stroke-width: 1.25"/>
      </g>
     </g>
     <g id="text_5">
      <!-- 20k -->
      <g style="fill: #262626" transform="translate(22.174375 102.957756) scale(0.11 -0.11)">
       <defs>
        <path id="ArialMT-32" d="M 3222 541 
L 3222 0 
L 194 0 
Q 188 203 259 391 
Q 375 700 629 1000 
Q 884 1300 1366 1694 
Q 2113 2306 2375 2664 
Q 2638 3022 2638 3341 
Q 2638 3675 2398 3904 
Q 2159 4134 1775 4134 
Q 1369 4134 1125 3890 
Q 881 3647 878 3216 
L 300 3275 
Q 359 3922 746 4261 
Q 1134 4600 1788 4600 
Q 2447 4600 2831 4234 
Q 3216 3869 3216 3328 
Q 3216 3053 3103 2787 
Q 2991 2522 2730 2228 
Q 2469 1934 1863 1422 
Q 1356 997 1212 845 
Q 1069 694 975 541 
L 3222 541 
z
" transform="scale(0.015625)"/>
        <path id="ArialMT-6b" d="M 425 0 
L 425 4581 
L 988 4581 
L 988 1969 
L 2319 3319 
L 3047 3319 
L 1778 2088 
L 3175 0 
L 2481 0 
L 1384 1697 
L 988 1316 
L 988 0 
L 425 0 
z
" transform="scale(0.015625)"/>
       </defs>
       <use xlink:href="#ArialMT-32"/>
       <use xlink:href="#ArialMT-30" transform="translate(55.615234 0)"/>
       <use xlink:href="#ArialMT-6b" transform="translate(111.230469 0)"/>
      </g>
     </g>
    </g>
    <g id="ytick_3">
     <g id="line2d_8">
      <g>
       <use xlink:href="#md9029ebb20" x="49.408438" y="73.841918" style="fill: #262626; stroke: #262626; stroke-width: 1.25"/>
      </g>
     </g>
     <g id="text_6">
      <!-- 40k -->
      <g style="fill: #262626" transform="translate(22.174375 77.778715) scale(0.11 -0.11)">
       <defs>
        <path id="ArialMT-34" d="M 2069 0 
L 2069 1097 
L 81 1097 
L 81 1613 
L 2172 4581 
L 2631 4581 
L 2631 1613 
L 3250 1613 
L 3250 1097 
L 2631 1097 
L 2631 0 
L 2069 0 
z
M 2069 1613 
L 2069 3678 
L 634 1613 
L 2069 1613 
z
" transform="scale(0.015625)"/>
       </defs>
       <use xlink:href="#ArialMT-34"/>
       <use xlink:href="#ArialMT-30" transform="translate(55.615234 0)"/>
       <use xlink:href="#ArialMT-6b" transform="translate(111.230469 0)"/>
      </g>
     </g>
    </g>
    <g id="ytick_4">
     <g id="line2d_9">
      <g>
       <use xlink:href="#md9029ebb20" x="49.408438" y="48.662877" style="fill: #262626; stroke: #262626; stroke-width: 1.25"/>
      </g>
     </g>
     <g id="text_7">
      <!-- 60k -->
      <g style="fill: #262626" transform="translate(22.174375 52.599673) scale(0.11 -0.11)">
       <defs>
        <path id="ArialMT-36" d="M 3184 3459 
L 2625 3416 
Q 2550 3747 2413 3897 
Q 2184 4138 1850 4138 
Q 1581 4138 1378 3988 
Q 1113 3794 959 3422 
Q 806 3050 800 2363 
Q 1003 2672 1297 2822 
Q 1591 2972 1913 2972 
Q 2475 2972 2870 2558 
Q 3266 2144 3266 1488 
Q 3266 1056 3080 686 
Q 2894 316 2569 119 
Q 2244 -78 1831 -78 
Q 1128 -78 684 439 
Q 241 956 241 2144 
Q 241 3472 731 4075 
Q 1159 4600 1884 4600 
Q 2425 4600 2770 4297 
Q 3116 3994 3184 3459 
z
M 888 1484 
Q 888 1194 1011 928 
Q 1134 663 1356 523 
Q 1578 384 1822 384 
Q 2178 384 2434 671 
Q 2691 959 2691 1453 
Q 2691 1928 2437 2201 
Q 2184 2475 1800 2475 
Q 1419 2475 1153 2201 
Q 888 1928 888 1484 
z
" transform="scale(0.015625)"/>
       </defs>
       <use xlink:href="#ArialMT-36"/>
       <use xlink:href="#ArialMT-30" transform="translate(55.615234 0)"/>
       <use xlink:href="#ArialMT-6b" transform="translate(111.230469 0)"/>
      </g>
     </g>
    </g>
    <g id="ytick_5">
     <g id="line2d_10">
      <g>
       <use xlink:href="#md9029ebb20" x="49.408438" y="23.483835" style="fill: #262626; stroke: #262626; stroke-width: 1.25"/>
      </g>
     </g>
     <g id="text_8">
      <!-- 80k -->
      <g style="fill: #262626" transform="translate(22.174375 27.420632) scale(0.11 -0.11)">
       <defs>
        <path id="ArialMT-38" d="M 1131 2484 
Q 781 2613 612 2850 
Q 444 3088 444 3419 
Q 444 3919 803 4259 
Q 1163 4600 1759 4600 
Q 2359 4600 2725 4251 
Q 3091 3903 3091 3403 
Q 3091 3084 2923 2848 
Q 2756 2613 2416 2484 
Q 2838 2347 3058 2040 
Q 3278 1734 3278 1309 
Q 3278 722 2862 322 
Q 2447 -78 1769 -78 
Q 1091 -78 675 323 
Q 259 725 259 1325 
Q 259 1772 486 2073 
Q 713 2375 1131 2484 
z
M 1019 3438 
Q 1019 3113 1228 2906 
Q 1438 2700 1772 2700 
Q 2097 2700 2305 2904 
Q 2513 3109 2513 3406 
Q 2513 3716 2298 3927 
Q 2084 4138 1766 4138 
Q 1444 4138 1231 3931 
Q 1019 3725 1019 3438 
z
M 838 1322 
Q 838 1081 952 856 
Q 1066 631 1291 507 
Q 1516 384 1775 384 
Q 2178 384 2440 643 
Q 2703 903 2703 1303 
Q 2703 1709 2433 1975 
Q 2163 2241 1756 2241 
Q 1359 2241 1098 1978 
Q 838 1716 838 1322 
z
" transform="scale(0.015625)"/>
       </defs>
       <use xlink:href="#ArialMT-38"/>
       <use xlink:href="#ArialMT-30" transform="translate(55.615234 0)"/>
       <use xlink:href="#ArialMT-6b" transform="translate(111.230469 0)"/>
      </g>
     </g>
    </g>
    <g id="text_9">
     <!-- Total Cell Count -->
     <g style="fill: #262626" transform="translate(15.789375 108.049687) rotate(-90) scale(0.12 -0.12)">
      <defs>
       <path id="ArialMT-54" d="M 1659 0 
L 1659 4041 
L 150 4041 
L 150 4581 
L 3781 4581 
L 3781 4041 
L 2266 4041 
L 2266 0 
L 1659 0 
z
" transform="scale(0.015625)"/>
       <path id="ArialMT-74" d="M 1650 503 
L 1731 6 
Q 1494 -44 1306 -44 
Q 1000 -44 831 53 
Q 663 150 594 308 
Q 525 466 525 972 
L 525 2881 
L 113 2881 
L 113 3319 
L 525 3319 
L 525 4141 
L 1084 4478 
L 1084 3319 
L 1650 3319 
L 1650 2881 
L 1084 2881 
L 1084 941 
Q 1084 700 1114 631 
Q 1144 563 1211 522 
Q 1278 481 1403 481 
Q 1497 481 1650 503 
z
" transform="scale(0.015625)"/>
       <path id="ArialMT-61" d="M 2588 409 
Q 2275 144 1986 34 
Q 1697 -75 1366 -75 
Q 819 -75 525 192 
Q 231 459 231 875 
Q 231 1119 342 1320 
Q 453 1522 633 1644 
Q 813 1766 1038 1828 
Q 1203 1872 1538 1913 
Q 2219 1994 2541 2106 
Q 2544 2222 2544 2253 
Q 2544 2597 2384 2738 
Q 2169 2928 1744 2928 
Q 1347 2928 1158 2789 
Q 969 2650 878 2297 
L 328 2372 
Q 403 2725 575 2942 
Q 747 3159 1072 3276 
Q 1397 3394 1825 3394 
Q 2250 3394 2515 3294 
Q 2781 3194 2906 3042 
Q 3031 2891 3081 2659 
Q 3109 2516 3109 2141 
L 3109 1391 
Q 3109 606 3145 398 
Q 3181 191 3288 0 
L 2700 0 
Q 2613 175 2588 409 
z
M 2541 1666 
Q 2234 1541 1622 1453 
Q 1275 1403 1131 1340 
Q 988 1278 909 1158 
Q 831 1038 831 891 
Q 831 666 1001 516 
Q 1172 366 1500 366 
Q 1825 366 2078 508 
Q 2331 650 2450 897 
Q 2541 1088 2541 1459 
L 2541 1666 
z
" transform="scale(0.015625)"/>
       <path id="ArialMT-6c" d="M 409 0 
L 409 4581 
L 972 4581 
L 972 0 
L 409 0 
z
" transform="scale(0.015625)"/>
       <path id="ArialMT-20" transform="scale(0.015625)"/>
       <path id="ArialMT-43" d="M 3763 1606 
L 4369 1453 
Q 4178 706 3683 314 
Q 3188 -78 2472 -78 
Q 1731 -78 1267 223 
Q 803 525 561 1097 
Q 319 1669 319 2325 
Q 319 3041 592 3573 
Q 866 4106 1370 4382 
Q 1875 4659 2481 4659 
Q 3169 4659 3637 4309 
Q 4106 3959 4291 3325 
L 3694 3184 
Q 3534 3684 3231 3912 
Q 2928 4141 2469 4141 
Q 1941 4141 1586 3887 
Q 1231 3634 1087 3207 
Q 944 2781 944 2328 
Q 944 1744 1114 1308 
Q 1284 872 1643 656 
Q 2003 441 2422 441 
Q 2931 441 3284 734 
Q 3638 1028 3763 1606 
z
" transform="scale(0.015625)"/>
       <path id="ArialMT-75" d="M 2597 0 
L 2597 488 
Q 2209 -75 1544 -75 
Q 1250 -75 995 37 
Q 741 150 617 320 
Q 494 491 444 738 
Q 409 903 409 1263 
L 409 3319 
L 972 3319 
L 972 1478 
Q 972 1038 1006 884 
Q 1059 663 1231 536 
Q 1403 409 1656 409 
Q 1909 409 2131 539 
Q 2353 669 2445 892 
Q 2538 1116 2538 1541 
L 2538 3319 
L 3100 3319 
L 3100 0 
L 2597 0 
z
" transform="scale(0.015625)"/>
      </defs>
      <use xlink:href="#ArialMT-54"/>
      <use xlink:href="#ArialMT-6f" transform="translate(49.958984 0)"/>
      <use xlink:href="#ArialMT-74" transform="translate(105.574219 0)"/>
      <use xlink:href="#ArialMT-61" transform="translate(133.357422 0)"/>
      <use xlink:href="#ArialMT-6c" transform="translate(188.972656 0)"/>
      <use xlink:href="#ArialMT-20" transform="translate(211.189453 0)"/>
      <use xlink:href="#ArialMT-43" transform="translate(238.972656 0)"/>
      <use xlink:href="#ArialMT-65" transform="translate(311.189453 0)"/>
      <use xlink:href="#ArialMT-6c" transform="translate(366.804688 0)"/>
      <use xlink:href="#ArialMT-6c" transform="translate(389.021484 0)"/>
      <use xlink:href="#ArialMT-20" transform="translate(411.238281 0)"/>
      <use xlink:href="#ArialMT-43" transform="translate(439.021484 0)"/>
      <use xlink:href="#ArialMT-6f" transform="translate(511.238281 0)"/>
      <use xlink:href="#ArialMT-75" transform="translate(566.853516 0)"/>
      <use xlink:href="#ArialMT-6e" transform="translate(622.46875 0)"/>
      <use xlink:href="#ArialMT-74" transform="translate(678.083984 0)"/>
     </g>
    </g>
   </g>
   <g id="patch_3">
    <path d="M 56.772074 124.2 
L 77.811035 124.2 
L 77.811035 109.751007 
L 56.772074 109.751007 
z
" clip-path="url(#p068bf672a4)" style="fill: #db8484; stroke: #ffffff; stroke-linejoin: miter"/>
   </g>
   <g id="patch_4">
    <path d="M 109.369476 124.2 
L 130.408437 124.2 
L 130.408437 94.698032 
L 109.369476 94.698032 
z
" clip-path="url(#p068bf672a4)" style="fill: #db8484; stroke: #ffffff; stroke-linejoin: miter"/>
   </g>
   <g id="patch_5">
    <path d="M 161.966879 124.2 
L 183.00584 124.2 
L 183.00584 75.703308 
L 161.966879 75.703308 
z
" clip-path="url(#p068bf672a4)" style="fill: #db8484; stroke: #ffffff; stroke-linejoin: miter"/>
   </g>
   <g id="patch_6">
    <path d="M 77.811035 124.2 
L 98.849996 124.2 
L 98.849996 118.367575 
L 77.811035 118.367575 
z
" clip-path="url(#p068bf672a4)" style="fill: #4b94a2; stroke: #ffffff; stroke-linejoin: miter"/>
   </g>
   <g id="patch_7">
    <path d="M 130.408437 124.2 
L 151.447399 124.2 
L 151.447399 115.595133 
L 130.408437 115.595133 
z
" clip-path="url(#p068bf672a4)" style="fill: #4b94a2; stroke: #ffffff; stroke-linejoin: miter"/>
   </g>
   <g id="patch_8">
    <path d="M 183.00584 124.2 
L 204.044801 124.2 
L 204.044801 110.62749 
L 183.00584 110.62749 
z
" clip-path="url(#p068bf672a4)" style="fill: #4b94a2; stroke: #ffffff; stroke-linejoin: miter"/>
   </g>
   <g id="line2d_11">
    <path d="M 67.291554 112.081975 
L 67.291554 107.081501 
" clip-path="url(#p068bf672a4)" style="fill: none; stroke: #424242; stroke-width: 2.7; stroke-linecap: round"/>
   </g>
   <g id="line2d_12">
    <path d="M 119.888957 100.622185 
L 119.888957 88.171952 
" clip-path="url(#p068bf672a4)" style="fill: none; stroke: #424242; stroke-width: 2.7; stroke-linecap: round"/>
   </g>
   <g id="line2d_13">
    <path d="M 172.48636 85.598178 
L 172.48636 64.053221 
" clip-path="url(#p068bf672a4)" style="fill: none; stroke: #424242; stroke-width: 2.7; stroke-linecap: round"/>
   </g>
   <g id="line2d_14">
    <path d="M 88.330515 119.294254 
L 88.330515 117.416507 
" clip-path="url(#p068bf672a4)" style="fill: none; stroke: #424242; stroke-width: 2.7; stroke-linecap: round"/>
   </g>
   <g id="line2d_15">
    <path d="M 140.927918 117.093807 
L 140.927918 114.094558 
" clip-path="url(#p068bf672a4)" style="fill: none; stroke: #424242; stroke-width: 2.7; stroke-linecap: round"/>
   </g>
   <g id="line2d_16">
    <path d="M 193.525321 112.971342 
L 193.525321 107.917265 
" clip-path="url(#p068bf672a4)" style="fill: none; stroke: #424242; stroke-width: 2.7; stroke-linecap: round"/>
   </g>
   <g id="line2d_17">
    <path d="M 119.888957 63.156247 
L 119.888957 61.166788 
L 140.927918 61.166788 
L 140.927918 63.156247 
" clip-path="url(#p068bf672a4)" style="fill: none; stroke: #333333; stroke-width: 1.5; stroke-linecap: round"/>
   </g>
   <g id="line2d_18">
    <path d="M 67.291554 91.235914 
L 67.291554 89.246455 
L 88.330515 89.246455 
L 88.330515 91.235914 
" clip-path="url(#p068bf672a4)" style="fill: none; stroke: #333333; stroke-width: 1.5; stroke-linecap: round"/>
   </g>
   <g id="line2d_19">
    <path d="M 172.48636 23.495481 
L 172.48636 21.506022 
L 193.525321 21.506022 
L 193.525321 23.495481 
" clip-path="url(#p068bf672a4)" style="fill: none; stroke: #333333; stroke-width: 1.5; stroke-linecap: round"/>
   </g>
   <g id="patch_9">
    <path d="M 49.408438 124.2 
L 49.408438 7.2 
" style="fill: none; stroke: #262626; stroke-width: 1.25; stroke-linejoin: miter; stroke-linecap: square"/>
   </g>
   <g id="patch_10">
    <path d="M 211.408437 124.2 
L 211.408437 7.2 
" style="fill: none; stroke: #262626; stroke-width: 1.25; stroke-linejoin: miter; stroke-linecap: square"/>
   </g>
   <g id="patch_11">
    <path d="M 49.408438 124.2 
L 211.408438 124.2 
" style="fill: none; stroke: #262626; stroke-width: 1.25; stroke-linejoin: miter; stroke-linecap: square"/>
   </g>
   <g id="patch_12">
    <path d="M 49.408438 7.2 
L 211.408438 7.2 
" style="fill: none; stroke: #262626; stroke-width: 1.25; stroke-linejoin: miter; stroke-linecap: square"/>
   </g>
   <g id="PathCollection_1">
    <defs>
     <path id="C0_0_f10fd2b1e2" d="M 0 2.5 
C 0.663008 2.5 1.29895 2.236584 1.767767 1.767767 
C 2.236584 1.29895 2.5 0.663008 2.5 -0 
C 2.5 -0.663008 2.236584 -1.29895 1.767767 -1.767767 
C 1.29895 -2.236584 0.663008 -2.5 0 -2.5 
C -0.663008 -2.5 -1.29895 -2.236584 -1.767767 -1.767767 
C -2.236584 -1.29895 -2.5 -0.663008 -2.5 0 
C -2.5 0.663008 -2.236584 1.29895 -1.767767 1.767767 
C -1.29895 2.236584 -0.663008 2.5 0 2.5 
z
"/>
    </defs>
    <g clip-path="url(#p068bf672a4)">
     <use xlink:href="#C0_0_f10fd2b1e2" x="68.11717" y="97.204291" style="fill: #ffffff; stroke: #000000; stroke-width: 0.4"/>
    </g>
    <g clip-path="url(#p068bf672a4)">
     <use xlink:href="#C0_0_f10fd2b1e2" x="69.013943" y="97.555539" style="fill: #ffffff; stroke: #000000; stroke-width: 0.4"/>
    </g>
    <g clip-path="url(#p068bf672a4)">
     <use xlink:href="#C0_0_f10fd2b1e2" x="67.984511" y="100.826296" style="fill: #ffffff; stroke: #000000; stroke-width: 0.4"/>
    </g>
   </g>
   <g id="PathCollection_2">
    <defs>
     <path id="C1_0_0750107175" d="M 0 2.5 
C 0.663008 2.5 1.29895 2.236584 1.767767 1.767767 
C 2.236584 1.29895 2.5 0.663008 2.5 -0 
C 2.5 -0.663008 2.236584 -1.29895 1.767767 -1.767767 
C 1.29895 -2.236584 0.663008 -2.5 0 -2.5 
C -0.663008 -2.5 -1.29895 -2.236584 -1.767767 -1.767767 
C -2.236584 -1.29895 -2.5 -0.663008 -2.5 0 
C -2.5 0.663008 -2.236584 1.29895 -1.767767 1.767767 
C -1.29895 2.236584 -0.663008 2.5 0 2.5 
z
"/>
    </defs>
    <g clip-path="url(#p068bf672a4)">
     <use xlink:href="#C1_0_0750107175" x="86.025409" y="113.847637" style="fill: #ffffff; stroke: #000000; stroke-width: 0.4"/>
    </g>
    <g clip-path="url(#p068bf672a4)">
     <use xlink:href="#C1_0_0750107175" x="86.472762" y="115.722217" style="fill: #ffffff; stroke: #000000; stroke-width: 0.4"/>
    </g>
    <g clip-path="url(#p068bf672a4)">
     <use xlink:href="#C1_0_0750107175" x="88.99556" y="115.943792" style="fill: #ffffff; stroke: #000000; stroke-width: 0.4"/>
    </g>
   </g>
   <g id="PathCollection_3">
    <defs>
     <path id="C2_0_e933252854" d="M 0 2.5 
C 0.663008 2.5 1.29895 2.236584 1.767767 1.767767 
C 2.236584 1.29895 2.5 0.663008 2.5 -0 
C 2.5 -0.663008 2.236584 -1.29895 1.767767 -1.767767 
C 1.29895 -2.236584 0.663008 -2.5 0 -2.5 
C -0.663008 -2.5 -1.29895 -2.236584 -1.767767 -1.767767 
C -2.236584 -1.29895 -2.5 -0.663008 -2.5 0 
C -2.5 0.663008 -2.236584 1.29895 -1.767767 1.767767 
C -1.29895 2.236584 -0.663008 2.5 0 2.5 
z
"/>
    </defs>
    <g clip-path="url(#p068bf672a4)">
     <use xlink:href="#C2_0_e933252854" x="121.212076" y="76.115585" style="fill: #ffffff; stroke: #000000; stroke-width: 0.4"/>
    </g>
    <g clip-path="url(#p068bf672a4)">
     <use xlink:href="#C2_0_e933252854" x="121.470687" y="70.320629" style="fill: #ffffff; stroke: #000000; stroke-width: 0.4"/>
    </g>
    <g clip-path="url(#p068bf672a4)">
     <use xlink:href="#C2_0_e933252854" x="120.564186" y="80.970104" style="fill: #ffffff; stroke: #000000; stroke-width: 0.4"/>
    </g>
   </g>
   <g id="PathCollection_4">
    <defs>
     <path id="C3_0_3d210ced92" d="M 0 2.5 
C 0.663008 2.5 1.29895 2.236584 1.767767 1.767767 
C 2.236584 1.29895 2.5 0.663008 2.5 -0 
C 2.5 -0.663008 2.236584 -1.29895 1.767767 -1.767767 
C 1.29895 -2.236584 0.663008 -2.5 0 -2.5 
C -0.663008 -2.5 -1.29895 -2.236584 -1.767767 -1.767767 
C -2.236584 -1.29895 -2.5 -0.663008 -2.5 0 
C -2.5 0.663008 -2.236584 1.29895 -1.767767 1.767767 
C -1.29895 2.236584 -0.663008 2.5 0 2.5 
z
"/>
    </defs>
    <g clip-path="url(#p068bf672a4)">
     <use xlink:href="#C3_0_3d210ced92" x="141.928784" y="112.820332" style="fill: #ffffff; stroke: #000000; stroke-width: 0.4"/>
    </g>
    <g clip-path="url(#p068bf672a4)">
     <use xlink:href="#C3_0_3d210ced92" x="142.833231" y="114.635741" style="fill: #ffffff; stroke: #000000; stroke-width: 0.4"/>
    </g>
    <g clip-path="url(#p068bf672a4)">
     <use xlink:href="#C3_0_3d210ced92" x="139.729281" y="114.093133" style="fill: #ffffff; stroke: #000000; stroke-width: 0.4"/>
    </g>
   </g>
   <g id="PathCollection_5">
    <defs>
     <path id="C4_0_25a4748899" d="M 0 2.5 
C 0.663008 2.5 1.29895 2.236584 1.767767 1.767767 
C 2.236584 1.29895 2.5 0.663008 2.5 -0 
C 2.5 -0.663008 2.236584 -1.29895 1.767767 -1.767767 
C 1.29895 -2.236584 0.663008 -2.5 0 -2.5 
C -0.663008 -2.5 -1.29895 -2.236584 -1.767767 -1.767767 
C -2.236584 -1.29895 -2.5 -0.663008 -2.5 0 
C -2.5 0.663008 -2.236584 1.29895 -1.767767 1.767767 
C -1.29895 2.236584 -0.663008 2.5 0 2.5 
z
"/>
    </defs>
    <g clip-path="url(#p068bf672a4)">
     <use xlink:href="#C4_0_25a4748899" x="173.235598" y="36.542945" style="fill: #ffffff; stroke: #000000; stroke-width: 0.4"/>
    </g>
    <g clip-path="url(#p068bf672a4)">
     <use xlink:href="#C4_0_25a4748899" x="169.993044" y="40.308471" style="fill: #ffffff; stroke: #000000; stroke-width: 0.4"/>
    </g>
    <g clip-path="url(#p068bf672a4)">
     <use xlink:href="#C4_0_25a4748899" x="171.852507" y="34.252911" style="fill: #ffffff; stroke: #000000; stroke-width: 0.4"/>
    </g>
   </g>
   <g id="PathCollection_6">
    <defs>
     <path id="C5_0_431b038bdf" d="M 0 2.5 
C 0.663008 2.5 1.29895 2.236584 1.767767 1.767767 
C 2.236584 1.29895 2.5 0.663008 2.5 -0 
C 2.5 -0.663008 2.236584 -1.29895 1.767767 -1.767767 
C 1.29895 -2.236584 0.663008 -2.5 0 -2.5 
C -0.663008 -2.5 -1.29895 -2.236584 -1.767767 -1.767767 
C -2.236584 -1.29895 -2.5 -0.663008 -2.5 0 
C -2.5 0.663008 -2.236584 1.29895 -1.767767 1.767767 
C -1.29895 2.236584 -0.663008 2.5 0 2.5 
z
"/>
    </defs>
    <g clip-path="url(#p068bf672a4)">
     <use xlink:href="#C5_0_431b038bdf" x="193.17409" y="104.93048" style="fill: #ffffff; stroke: #000000; stroke-width: 0.4"/>
    </g>
    <g clip-path="url(#p068bf672a4)">
     <use xlink:href="#C5_0_431b038bdf" x="194.444624" y="106.719451" style="fill: #ffffff; stroke: #000000; stroke-width: 0.4"/>
    </g>
    <g clip-path="url(#p068bf672a4)">
     <use xlink:href="#C5_0_431b038bdf" x="194.763004" y="106.992643" style="fill: #ffffff; stroke: #000000; stroke-width: 0.4"/>
    </g>
   </g>
   <g id="PathCollection_7">
    <path d="M 67.670268 114.722888 
L 65.170268 119.722888 
L 70.170268 119.722888 
z
" clip-path="url(#p068bf672a4)" style="fill: #ffffff; stroke: #000000; stroke-width: 0.4"/>
    <path d="M 65.695199 115.191218 
L 63.195199 120.191218 
L 68.195199 120.191218 
z
" clip-path="url(#p068bf672a4)" style="fill: #ffffff; stroke: #000000; stroke-width: 0.4"/>
    <path d="M 66.33904 115.173593 
L 63.83904 120.173593 
L 68.83904 120.173593 
z
" clip-path="url(#p068bf672a4)" style="fill: #ffffff; stroke: #000000; stroke-width: 0.4"/>
   </g>
   <g id="PathCollection_8">
    <path d="M 87.865995 118.050298 
L 85.365995 123.050298 
L 90.365995 123.050298 
z
" clip-path="url(#p068bf672a4)" style="fill: #ffffff; stroke: #000000; stroke-width: 0.4"/>
    <path d="M 85.905385 118.965556 
L 83.405385 123.965556 
L 88.405385 123.965556 
z
" clip-path="url(#p068bf672a4)" style="fill: #ffffff; stroke: #000000; stroke-width: 0.4"/>
    <path d="M 87.693772 119.386046 
L 85.193772 124.386046 
L 90.193772 124.386046 
z
" clip-path="url(#p068bf672a4)" style="fill: #ffffff; stroke: #000000; stroke-width: 0.4"/>
   </g>
   <g id="PathCollection_9">
    <path d="M 122.184857 104.755764 
L 119.684857 109.755764 
L 124.684857 109.755764 
z
" clip-path="url(#p068bf672a4)" style="fill: #ffffff; stroke: #000000; stroke-width: 0.4"/>
    <path d="M 122.295972 108.949334 
L 119.795972 113.949334 
L 124.795972 113.949334 
z
" clip-path="url(#p068bf672a4)" style="fill: #ffffff; stroke: #000000; stroke-width: 0.4"/>
    <path d="M 118.282638 107.254784 
L 115.782638 112.254784 
L 120.782638 112.254784 
z
" clip-path="url(#p068bf672a4)" style="fill: #ffffff; stroke: #000000; stroke-width: 0.4"/>
   </g>
   <g id="PathCollection_10">
    <path d="M 140.794232 116.480385 
L 138.294232 121.480385 
L 143.294232 121.480385 
z
" clip-path="url(#p068bf672a4)" style="fill: #ffffff; stroke: #000000; stroke-width: 0.4"/>
    <path d="M 142.107482 117.724229 
L 139.607482 122.724229 
L 144.607482 122.724229 
z
" clip-path="url(#p068bf672a4)" style="fill: #ffffff; stroke: #000000; stroke-width: 0.4"/>
   </g>
   <g id="PathCollection_11">
    <path d="M 174.368853 89.249252 
L 171.868853 94.249252 
L 176.868853 94.249252 
z
" clip-path="url(#p068bf672a4)" style="fill: #ffffff; stroke: #000000; stroke-width: 0.4"/>
    <path d="M 171.740344 96.124389 
L 169.240344 101.124389 
L 174.240344 101.124389 
z
" clip-path="url(#p068bf672a4)" style="fill: #ffffff; stroke: #000000; stroke-width: 0.4"/>
    <path d="M 170.391959 94.836481 
L 167.891959 99.836481 
L 172.891959 99.836481 
z
" clip-path="url(#p068bf672a4)" style="fill: #ffffff; stroke: #000000; stroke-width: 0.4"/>
   </g>
   <g id="PathCollection_12">
    <path d="M 194.844715 113.622564 
L 192.344715 118.622564 
L 197.344715 118.622564 
z
" clip-path="url(#p068bf672a4)" style="fill: #ffffff; stroke: #000000; stroke-width: 0.4"/>
    <path d="M 194.678948 115.920151 
L 192.178948 120.920151 
L 197.178948 120.920151 
z
" clip-path="url(#p068bf672a4)" style="fill: #ffffff; stroke: #000000; stroke-width: 0.4"/>
    <path d="M 194.607074 113.057294 
L 192.107074 118.057294 
L 197.107074 118.057294 
z
" clip-path="url(#p068bf672a4)" style="fill: #ffffff; stroke: #000000; stroke-width: 0.4"/>
   </g>
   <g id="PathCollection_13">
    <path d="M 63.836879 107.158546 
L 68.836879 107.158546 
L 68.836879 102.158546 
L 63.836879 102.158546 
z
" clip-path="url(#p068bf672a4)" style="fill: #ffffff; stroke: #000000; stroke-width: 0.4"/>
    <path d="M 62.378588 107.602956 
L 67.378588 107.602956 
L 67.378588 102.602956 
L 62.378588 102.602956 
z
" clip-path="url(#p068bf672a4)" style="fill: #ffffff; stroke: #000000; stroke-width: 0.4"/>
    <path d="M 64.634329 108.155636 
L 69.634329 108.155636 
L 69.634329 103.155636 
L 64.634329 103.155636 
z
" clip-path="url(#p068bf672a4)" style="fill: #ffffff; stroke: #000000; stroke-width: 0.4"/>
   </g>
   <g id="PathCollection_14">
    <path d="M 86.906038 117.712341 
L 91.906038 117.712341 
L 91.906038 112.712341 
L 86.906038 112.712341 
z
" clip-path="url(#p068bf672a4)" style="fill: #ffffff; stroke: #000000; stroke-width: 0.4"/>
    <path d="M 86.205201 119.230637 
L 91.205201 119.230637 
L 91.205201 114.230637 
L 86.205201 114.230637 
z
" clip-path="url(#p068bf672a4)" style="fill: #ffffff; stroke: #000000; stroke-width: 0.4"/>
    <path d="M 85.249609 118.066107 
L 90.249609 118.066107 
L 90.249609 113.066107 
L 85.249609 113.066107 
z
" clip-path="url(#p068bf672a4)" style="fill: #ffffff; stroke: #000000; stroke-width: 0.4"/>
   </g>
   <g id="PathCollection_15">
    <path d="M 118.736254 73.861782 
L 123.736254 73.861782 
L 123.736254 68.861782 
L 118.736254 68.861782 
z
" clip-path="url(#p068bf672a4)" style="fill: #ffffff; stroke: #000000; stroke-width: 0.4"/>
    <path d="M 117.316038 71.624624 
L 122.316038 71.624624 
L 122.316038 66.624624 
L 117.316038 66.624624 
z
" clip-path="url(#p068bf672a4)" style="fill: #ffffff; stroke: #000000; stroke-width: 0.4"/>
    <path d="M 115.828175 76.606298 
L 120.828175 76.606298 
L 120.828175 71.606298 
L 115.828175 71.606298 
z
" clip-path="url(#p068bf672a4)" style="fill: #ffffff; stroke: #000000; stroke-width: 0.4"/>
   </g>
   <g id="PathCollection_16">
    <path d="M 137.123012 112.370608 
L 142.123012 112.370608 
L 142.123012 107.370608 
L 137.123012 107.370608 
z
" clip-path="url(#p068bf672a4)" style="fill: #ffffff; stroke: #000000; stroke-width: 0.4"/>
    <path d="M 137.879858 113.741606 
L 142.879858 113.741606 
L 142.879858 108.741606 
L 137.879858 108.741606 
z
" clip-path="url(#p068bf672a4)" style="fill: #ffffff; stroke: #000000; stroke-width: 0.4"/>
    <path d="M 136.257742 111.924939 
L 141.257742 111.924939 
L 141.257742 106.924939 
L 136.257742 106.924939 
z
" clip-path="url(#p068bf672a4)" style="fill: #ffffff; stroke: #000000; stroke-width: 0.4"/>
   </g>
   <g id="PathCollection_17">
    <path d="M 170.491928 31.963858 
L 175.491928 31.963858 
L 175.491928 26.963858 
L 170.491928 26.963858 
z
" clip-path="url(#p068bf672a4)" style="fill: #ffffff; stroke: #000000; stroke-width: 0.4"/>
    <path d="M 170.551208 39.786986 
L 175.551208 39.786986 
L 175.551208 34.786986 
L 170.551208 34.786986 
z
" clip-path="url(#p068bf672a4)" style="fill: #ffffff; stroke: #000000; stroke-width: 0.4"/>
    <path d="M 168.558078 46.327242 
L 173.558078 46.327242 
L 173.558078 41.327242 
L 168.558078 41.327242 
z
" clip-path="url(#p068bf672a4)" style="fill: #ffffff; stroke: #000000; stroke-width: 0.4"/>
   </g>
   <g id="PathCollection_18">
    <path d="M 191.706668 99.628754 
L 196.706668 99.628754 
L 196.706668 94.628754 
L 191.706668 94.628754 
z
" clip-path="url(#p068bf672a4)" style="fill: #ffffff; stroke: #000000; stroke-width: 0.4"/>
    <path d="M 192.156028 103.542836 
L 197.156028 103.542836 
L 197.156028 98.542836 
L 192.156028 98.542836 
z
" clip-path="url(#p068bf672a4)" style="fill: #ffffff; stroke: #000000; stroke-width: 0.4"/>
    <path d="M 190.52172 104.897468 
L 195.52172 104.897468 
L 195.52172 99.897468 
L 190.52172 99.897468 
z
" clip-path="url(#p068bf672a4)" style="fill: #ffffff; stroke: #000000; stroke-width: 0.4"/>
   </g>
   <g id="PathCollection_19">
    <path d="M 67.288037 114.06835 
L 70.823571 110.532816 
L 67.288037 106.997283 
L 63.752503 110.532816 
z
" clip-path="url(#p068bf672a4)" style="fill: #ffffff; stroke: #000000; stroke-width: 0.4"/>
    <path d="M 67.225812 112.961732 
L 70.761346 109.426198 
L 67.225812 105.890664 
L 63.690278 109.426198 
z
" clip-path="url(#p068bf672a4)" style="fill: #ffffff; stroke: #000000; stroke-width: 0.4"/>
    <path d="M 65.096071 113.066225 
L 68.631605 109.530691 
L 65.096071 105.995157 
L 61.560537 109.530691 
z
" clip-path="url(#p068bf672a4)" style="fill: #ffffff; stroke: #000000; stroke-width: 0.4"/>
   </g>
   <g id="PathCollection_20">
    <path d="M 89.92997 119.790287 
L 93.465504 116.254754 
L 89.92997 112.71922 
L 86.394436 116.254754 
z
" clip-path="url(#p068bf672a4)" style="fill: #ffffff; stroke: #000000; stroke-width: 0.4"/>
    <path d="M 88.756059 122.988026 
L 92.291593 119.452492 
L 88.756059 115.916958 
L 85.220525 119.452492 
z
" clip-path="url(#p068bf672a4)" style="fill: #ffffff; stroke: #000000; stroke-width: 0.4"/>
    <path d="M 86.164187 123.802568 
L 89.699721 120.267034 
L 86.164187 116.7315 
L 82.628654 120.267034 
z
" clip-path="url(#p068bf672a4)" style="fill: #ffffff; stroke: #000000; stroke-width: 0.4"/>
   </g>
   <g id="PathCollection_21">
    <path d="M 121.778993 99.191314 
L 125.314527 95.65578 
L 121.778993 92.120246 
L 118.24346 95.65578 
z
" clip-path="url(#p068bf672a4)" style="fill: #ffffff; stroke: #000000; stroke-width: 0.4"/>
    <path d="M 120.047735 99.271887 
L 123.583269 95.736353 
L 120.047735 92.200819 
L 116.512201 95.736353 
z
" clip-path="url(#p068bf672a4)" style="fill: #ffffff; stroke: #000000; stroke-width: 0.4"/>
    <path d="M 118.417464 98.608419 
L 121.952998 95.072885 
L 118.417464 91.537351 
L 114.881931 95.072885 
z
" clip-path="url(#p068bf672a4)" style="fill: #ffffff; stroke: #000000; stroke-width: 0.4"/>
   </g>
   <g id="PathCollection_22">
    <path d="M 139.776908 115.941671 
L 143.312441 112.406137 
L 139.776908 108.870603 
L 136.241374 112.406137 
z
" clip-path="url(#p068bf672a4)" style="fill: #ffffff; stroke: #000000; stroke-width: 0.4"/>
    <path d="M 141.682571 120.781083 
L 145.218105 117.245549 
L 141.682571 113.710015 
L 138.147037 117.245549 
z
" clip-path="url(#p068bf672a4)" style="fill: #ffffff; stroke: #000000; stroke-width: 0.4"/>
    <path d="M 141.614748 121.779432 
L 145.150282 118.243898 
L 141.614748 114.708364 
L 138.079214 118.243898 
z
" clip-path="url(#p068bf672a4)" style="fill: #ffffff; stroke: #000000; stroke-width: 0.4"/>
   </g>
   <g id="PathCollection_23">
    <path d="M 173.570357 89.723994 
L 177.10589 86.188461 
L 173.570357 82.652927 
L 170.034823 86.188461 
z
" clip-path="url(#p068bf672a4)" style="fill: #ffffff; stroke: #000000; stroke-width: 0.4"/>
    <path d="M 172.840266 88.369362 
L 176.3758 84.833828 
L 172.840266 81.298294 
L 169.304732 84.833828 
z
" clip-path="url(#p068bf672a4)" style="fill: #ffffff; stroke: #000000; stroke-width: 0.4"/>
    <path d="M 171.084167 90.308148 
L 174.619701 86.772614 
L 171.084167 83.23708 
L 167.548633 86.772614 
z
" clip-path="url(#p068bf672a4)" style="fill: #ffffff; stroke: #000000; stroke-width: 0.4"/>
   </g>
   <g id="PathCollection_24">
    <path d="M 191.004577 114.824981 
L 194.54011 111.289447 
L 191.004577 107.753913 
L 187.469043 111.289447 
z
" clip-path="url(#p068bf672a4)" style="fill: #ffffff; stroke: #000000; stroke-width: 0.4"/>
    <path d="M 192.291108 118.50238 
L 195.826642 114.966846 
L 192.291108 111.431312 
L 188.755575 114.966846 
z
" clip-path="url(#p068bf672a4)" style="fill: #ffffff; stroke: #000000; stroke-width: 0.4"/>
    <path d="M 195.67054 117.439824 
L 199.206074 113.90429 
L 195.67054 110.368756 
L 192.135006 113.90429 
z
" clip-path="url(#p068bf672a4)" style="fill: #ffffff; stroke: #000000; stroke-width: 0.4"/>
   </g>
   <g id="PathCollection_25">
    <defs>
     <path id="C6_0_6026c87fba" d="M -0.833333 2.5 
L 0.833333 2.5 
L 0.833333 0.833333 
L 2.5 0.833333 
L 2.5 -0.833333 
L 0.833333 -0.833333 
L 0.833333 -2.5 
L -0.833333 -2.5 
L -0.833333 -0.833333 
L -2.5 -0.833333 
L -2.5 0.833333 
L -0.833333 0.833333 
z
"/>
    </defs>
    <g clip-path="url(#p068bf672a4)">
     <use xlink:href="#C6_0_6026c87fba" x="66.626168" y="113.948353" style="fill: #ffffff; stroke: #000000; stroke-width: 0.4"/>
    </g>
    <g clip-path="url(#p068bf672a4)">
     <use xlink:href="#C6_0_6026c87fba" x="68.619041" y="115.080151" style="fill: #ffffff; stroke: #000000; stroke-width: 0.4"/>
    </g>
    <g clip-path="url(#p068bf672a4)">
     <use xlink:href="#C6_0_6026c87fba" x="65.727531" y="115.668082" style="fill: #ffffff; stroke: #000000; stroke-width: 0.4"/>
    </g>
   </g>
   <g id="PathCollection_26">
    <defs>
     <path id="C7_0_3c874a26c8" d="M -0.833333 2.5 
L 0.833333 2.5 
L 0.833333 0.833333 
L 2.5 0.833333 
L 2.5 -0.833333 
L 0.833333 -0.833333 
L 0.833333 -2.5 
L -0.833333 -2.5 
L -0.833333 -0.833333 
L -2.5 -0.833333 
L -2.5 0.833333 
L -0.833333 0.833333 
z
"/>
    </defs>
    <g clip-path="url(#p068bf672a4)">
     <use xlink:href="#C7_0_3c874a26c8" x="88.813241" y="119.525511" style="fill: #ffffff; stroke: #000000; stroke-width: 0.4"/>
    </g>
    <g clip-path="url(#p068bf672a4)">
     <use xlink:href="#C7_0_3c874a26c8" x="88.708243" y="120.087004" style="fill: #ffffff; stroke: #000000; stroke-width: 0.4"/>
    </g>
    <g clip-path="url(#p068bf672a4)">
     <use xlink:href="#C7_0_3c874a26c8" x="86.130609" y="120.034128" style="fill: #ffffff; stroke: #000000; stroke-width: 0.4"/>
    </g>
   </g>
   <g id="PathCollection_27">
    <defs>
     <path id="C8_0_cc5b27712b" d="M -0.833333 2.5 
L 0.833333 2.5 
L 0.833333 0.833333 
L 2.5 0.833333 
L 2.5 -0.833333 
L 0.833333 -0.833333 
L 0.833333 -2.5 
L -0.833333 -2.5 
L -0.833333 -0.833333 
L -2.5 -0.833333 
L -2.5 0.833333 
L -0.833333 0.833333 
z
"/>
    </defs>
    <g clip-path="url(#p068bf672a4)">
     <use xlink:href="#C8_0_cc5b27712b" x="119.644979" y="107.352704" style="fill: #ffffff; stroke: #000000; stroke-width: 0.4"/>
    </g>
    <g clip-path="url(#p068bf672a4)">
     <use xlink:href="#C8_0_cc5b27712b" x="118.253954" y="109.821509" style="fill: #ffffff; stroke: #000000; stroke-width: 0.4"/>
    </g>
   </g>
   <g id="PathCollection_28">
    <defs>
     <path id="mc352506cbf" d="M -0.833333 2.5 
L 0.833333 2.5 
L 0.833333 0.833333 
L 2.5 0.833333 
L 2.5 -0.833333 
L 0.833333 -0.833333 
L 0.833333 -2.5 
L -0.833333 -2.5 
L -0.833333 -0.833333 
L -2.5 -0.833333 
L -2.5 0.833333 
L -0.833333 0.833333 
z
" style="stroke: #000000; stroke-width: 0.4"/>
    </defs>
    <g clip-path="url(#p068bf672a4)">
     <use xlink:href="#mc352506cbf" x="140.927918" y="117.538885" style="fill: #ffffff; stroke: #000000; stroke-width: 0.4"/>
    </g>
   </g>
   <g id="PathCollection_29">
    <defs>
     <path id="C9_0_e31d89d500" d="M -0.833333 2.5 
L 0.833333 2.5 
L 0.833333 0.833333 
L 2.5 0.833333 
L 2.5 -0.833333 
L 0.833333 -0.833333 
L 0.833333 -2.5 
L -0.833333 -2.5 
L -0.833333 -0.833333 
L -2.5 -0.833333 
L -2.5 0.833333 
L -0.833333 0.833333 
z
"/>
    </defs>
    <g clip-path="url(#p068bf672a4)">
     <use xlink:href="#C9_0_e31d89d500" x="170.995449" y="93.513044" style="fill: #ffffff; stroke: #000000; stroke-width: 0.4"/>
    </g>
    <g clip-path="url(#p068bf672a4)">
     <use xlink:href="#C9_0_e31d89d500" x="170.295914" y="95.353632" style="fill: #ffffff; stroke: #000000; stroke-width: 0.4"/>
    </g>
    <g clip-path="url(#p068bf672a4)">
     <use xlink:href="#C9_0_e31d89d500" x="173.256193" y="98.088075" style="fill: #ffffff; stroke: #000000; stroke-width: 0.4"/>
    </g>
   </g>
   <g id="PathCollection_30">
    <defs>
     <path id="Ca_0_633a97c792" d="M -0.833333 2.5 
L 0.833333 2.5 
L 0.833333 0.833333 
L 2.5 0.833333 
L 2.5 -0.833333 
L 0.833333 -0.833333 
L 0.833333 -2.5 
L -0.833333 -2.5 
L -0.833333 -0.833333 
L -2.5 -0.833333 
L -2.5 0.833333 
L -0.833333 0.833333 
z
"/>
    </defs>
    <g clip-path="url(#p068bf672a4)">
     <use xlink:href="#Ca_0_633a97c792" x="192.590762" y="113.331467" style="fill: #ffffff; stroke: #000000; stroke-width: 0.4"/>
    </g>
    <g clip-path="url(#p068bf672a4)">
     <use xlink:href="#Ca_0_633a97c792" x="193.117446" y="115.431399" style="fill: #ffffff; stroke: #000000; stroke-width: 0.4"/>
    </g>
    <g clip-path="url(#p068bf672a4)">
     <use xlink:href="#Ca_0_633a97c792" x="192.514179" y="116.023106" style="fill: #ffffff; stroke: #000000; stroke-width: 0.4"/>
    </g>
   </g>
   <g id="PathCollection_31">
    <defs>
     <path id="Cb_0_ece47f65a6" d="M -1.25 2.5 
L 0 1.25 
L 1.25 2.5 
L 2.5 1.25 
L 1.25 -0 
L 2.5 -1.25 
L 1.25 -2.5 
L 0 -1.25 
L -1.25 -2.5 
L -2.5 -1.25 
L -1.25 0 
L -2.5 1.25 
z
"/>
    </defs>
    <g clip-path="url(#p068bf672a4)">
     <use xlink:href="#Cb_0_ece47f65a6" x="66.41922" y="111.726303" style="fill: #ffffff; stroke: #000000; stroke-width: 0.4"/>
    </g>
    <g clip-path="url(#p068bf672a4)">
     <use xlink:href="#Cb_0_ece47f65a6" x="65.796173" y="111.579006" style="fill: #ffffff; stroke: #000000; stroke-width: 0.4"/>
    </g>
    <g clip-path="url(#p068bf672a4)">
     <use xlink:href="#Cb_0_ece47f65a6" x="64.704299" y="110.416993" style="fill: #ffffff; stroke: #000000; stroke-width: 0.4"/>
    </g>
   </g>
   <g id="PathCollection_32">
    <defs>
     <path id="Cc_0_3047f6d493" d="M -1.25 2.5 
L 0 1.25 
L 1.25 2.5 
L 2.5 1.25 
L 1.25 -0 
L 2.5 -1.25 
L 1.25 -2.5 
L 0 -1.25 
L -1.25 -2.5 
L -2.5 -1.25 
L -1.25 0 
L -2.5 1.25 
z
"/>
    </defs>
    <g clip-path="url(#p068bf672a4)">
     <use xlink:href="#Cc_0_3047f6d493" x="88.655123" y="117.234218" style="fill: #ffffff; stroke: #000000; stroke-width: 0.4"/>
    </g>
    <g clip-path="url(#p068bf672a4)">
     <use xlink:href="#Cc_0_3047f6d493" x="88.879223" y="120.634648" style="fill: #ffffff; stroke: #000000; stroke-width: 0.4"/>
    </g>
    <g clip-path="url(#p068bf672a4)">
     <use xlink:href="#Cc_0_3047f6d493" x="85.840054" y="118.586333" style="fill: #ffffff; stroke: #000000; stroke-width: 0.4"/>
    </g>
   </g>
   <g id="PathCollection_33">
    <defs>
     <path id="Cd_0_fe60f208e4" d="M -1.25 2.5 
L 0 1.25 
L 1.25 2.5 
L 2.5 1.25 
L 1.25 -0 
L 2.5 -1.25 
L 1.25 -2.5 
L 0 -1.25 
L -1.25 -2.5 
L -2.5 -1.25 
L -1.25 0 
L -2.5 1.25 
z
"/>
    </defs>
    <g clip-path="url(#p068bf672a4)">
     <use xlink:href="#Cd_0_fe60f208e4" x="120.583764" y="98.052825" style="fill: #ffffff; stroke: #000000; stroke-width: 0.4"/>
    </g>
    <g clip-path="url(#p068bf672a4)">
     <use xlink:href="#Cd_0_fe60f208e4" x="118.011878" y="103.293842" style="fill: #ffffff; stroke: #000000; stroke-width: 0.4"/>
    </g>
    <g clip-path="url(#p068bf672a4)">
     <use xlink:href="#Cd_0_fe60f208e4" x="119.527182" y="99.902225" style="fill: #ffffff; stroke: #000000; stroke-width: 0.4"/>
    </g>
   </g>
   <g id="PathCollection_34">
    <defs>
     <path id="Ce_0_b2710917bc" d="M -1.25 2.5 
L 0 1.25 
L 1.25 2.5 
L 2.5 1.25 
L 1.25 -0 
L 2.5 -1.25 
L 1.25 -2.5 
L 0 -1.25 
L -1.25 -2.5 
L -2.5 -1.25 
L -1.25 0 
L -2.5 1.25 
z
"/>
    </defs>
    <g clip-path="url(#p068bf672a4)">
     <use xlink:href="#Ce_0_b2710917bc" x="142.801113" y="114.658402" style="fill: #ffffff; stroke: #000000; stroke-width: 0.4"/>
    </g>
    <g clip-path="url(#p068bf672a4)">
     <use xlink:href="#Ce_0_b2710917bc" x="140.74094" y="118.053796" style="fill: #ffffff; stroke: #000000; stroke-width: 0.4"/>
    </g>
    <g clip-path="url(#p068bf672a4)">
     <use xlink:href="#Ce_0_b2710917bc" x="141.388451" y="116.818764" style="fill: #ffffff; stroke: #000000; stroke-width: 0.4"/>
    </g>
   </g>
   <g id="PathCollection_35">
    <defs>
     <path id="Cf_0_7f12dacce4" d="M -1.25 2.5 
L 0 1.25 
L 1.25 2.5 
L 2.5 1.25 
L 1.25 -0 
L 2.5 -1.25 
L 1.25 -2.5 
L 0 -1.25 
L -1.25 -2.5 
L -2.5 -1.25 
L -1.25 0 
L -2.5 1.25 
z
"/>
    </defs>
    <g clip-path="url(#p068bf672a4)">
     <use xlink:href="#Cf_0_7f12dacce4" x="171.183825" y="83.664262" style="fill: #ffffff; stroke: #000000; stroke-width: 0.4"/>
    </g>
    <g clip-path="url(#p068bf672a4)">
     <use xlink:href="#Cf_0_7f12dacce4" x="173.57553" y="87.209471" style="fill: #ffffff; stroke: #000000; stroke-width: 0.4"/>
    </g>
    <g clip-path="url(#p068bf672a4)">
     <use xlink:href="#Cf_0_7f12dacce4" x="170.38614" y="85.926599" style="fill: #ffffff; stroke: #000000; stroke-width: 0.4"/>
    </g>
   </g>
   <g id="PathCollection_36">
    <defs>
     <path id="C10_0_3eaada4234" d="M -1.25 2.5 
L 0 1.25 
L 1.25 2.5 
L 2.5 1.25 
L 1.25 -0 
L 2.5 -1.25 
L 1.25 -2.5 
L 0 -1.25 
L -1.25 -2.5 
L -2.5 -1.25 
L -1.25 0 
L -2.5 1.25 
z
"/>
    </defs>
    <g clip-path="url(#p068bf672a4)">
     <use xlink:href="#C10_0_3eaada4234" x="194.73552" y="108.672085" style="fill: #ffffff; stroke: #000000; stroke-width: 0.4"/>
    </g>
    <g clip-path="url(#p068bf672a4)">
     <use xlink:href="#C10_0_3eaada4234" x="194.242735" y="113.323913" style="fill: #ffffff; stroke: #000000; stroke-width: 0.4"/>
    </g>
    <g clip-path="url(#p068bf672a4)">
     <use xlink:href="#C10_0_3eaada4234" x="194.34117" y="111.448075" style="fill: #ffffff; stroke: #000000; stroke-width: 0.4"/>
    </g>
   </g>
   <g id="PathCollection_37">
    <defs>
     <path id="C11_0_d0c1b1ac65" d="M 0 -2.5 
L -0.561285 -0.772542 
L -2.377641 -0.772542 
L -0.908178 0.295085 
L -1.469463 2.022542 
L -0 0.954915 
L 1.469463 2.022542 
L 0.908178 0.295085 
L 2.377641 -0.772542 
L 0.561285 -0.772542 
z
"/>
    </defs>
    <g clip-path="url(#p068bf672a4)">
     <use xlink:href="#C11_0_d0c1b1ac65" x="68.572336" y="110.440913" style="fill: #ffffff; stroke: #000000; stroke-width: 0.4"/>
    </g>
    <g clip-path="url(#p068bf672a4)">
     <use xlink:href="#C11_0_d0c1b1ac65" x="68.673644" y="111.648248" style="fill: #ffffff; stroke: #000000; stroke-width: 0.4"/>
    </g>
    <g clip-path="url(#p068bf672a4)">
     <use xlink:href="#C11_0_d0c1b1ac65" x="66.665966" y="111.182436" style="fill: #ffffff; stroke: #000000; stroke-width: 0.4"/>
    </g>
   </g>
   <g id="PathCollection_38">
    <defs>
     <path id="C12_0_853576ebed" d="M 0 -2.5 
L -0.561285 -0.772542 
L -2.377641 -0.772542 
L -0.908178 0.295085 
L -1.469463 2.022542 
L -0 0.954915 
L 1.469463 2.022542 
L 0.908178 0.295085 
L 2.377641 -0.772542 
L 0.561285 -0.772542 
z
"/>
    </defs>
    <g clip-path="url(#p068bf672a4)">
     <use xlink:href="#C12_0_853576ebed" x="90.709083" y="120.888956" style="fill: #ffffff; stroke: #000000; stroke-width: 0.4"/>
    </g>
    <g clip-path="url(#p068bf672a4)">
     <use xlink:href="#C12_0_853576ebed" x="88.011815" y="117.697513" style="fill: #ffffff; stroke: #000000; stroke-width: 0.4"/>
    </g>
    <g clip-path="url(#p068bf672a4)">
     <use xlink:href="#C12_0_853576ebed" x="90.911056" y="118.131851" style="fill: #ffffff; stroke: #000000; stroke-width: 0.4"/>
    </g>
   </g>
   <g id="PathCollection_39">
    <defs>
     <path id="C13_0_0c2984bfea" d="M 0 -2.5 
L -0.561285 -0.772542 
L -2.377641 -0.772542 
L -0.908178 0.295085 
L -1.469463 2.022542 
L -0 0.954915 
L 1.469463 2.022542 
L 0.908178 0.295085 
L 2.377641 -0.772542 
L 0.561285 -0.772542 
z
"/>
    </defs>
    <g clip-path="url(#p068bf672a4)">
     <use xlink:href="#C13_0_0c2984bfea" x="120.275317" y="106.213352" style="fill: #ffffff; stroke: #000000; stroke-width: 0.4"/>
    </g>
    <g clip-path="url(#p068bf672a4)">
     <use xlink:href="#C13_0_0c2984bfea" x="119.284585" y="104.251905" style="fill: #ffffff; stroke: #000000; stroke-width: 0.4"/>
    </g>
    <g clip-path="url(#p068bf672a4)">
     <use xlink:href="#C13_0_0c2984bfea" x="119.706736" y="108.148361" style="fill: #ffffff; stroke: #000000; stroke-width: 0.4"/>
    </g>
   </g>
   <g id="PathCollection_40">
    <defs>
     <path id="C14_0_40d8771130" d="M 0 -2.5 
L -0.561285 -0.772542 
L -2.377641 -0.772542 
L -0.908178 0.295085 
L -1.469463 2.022542 
L -0 0.954915 
L 1.469463 2.022542 
L 0.908178 0.295085 
L 2.377641 -0.772542 
L 0.561285 -0.772542 
z
"/>
    </defs>
    <g clip-path="url(#p068bf672a4)">
     <use xlink:href="#C14_0_40d8771130" x="138.33327" y="118.196058" style="fill: #ffffff; stroke: #000000; stroke-width: 0.4"/>
    </g>
    <g clip-path="url(#p068bf672a4)">
     <use xlink:href="#C14_0_40d8771130" x="141.12938" y="117.673593" style="fill: #ffffff; stroke: #000000; stroke-width: 0.4"/>
    </g>
    <g clip-path="url(#p068bf672a4)">
     <use xlink:href="#C14_0_40d8771130" x="139.787626" y="118.586333" style="fill: #ffffff; stroke: #000000; stroke-width: 0.4"/>
    </g>
   </g>
   <g id="PathCollection_41">
    <defs>
     <path id="C15_0_254032a4c5" d="M 0 -2.5 
L -0.561285 -0.772542 
L -2.377641 -0.772542 
L -0.908178 0.295085 
L -1.469463 2.022542 
L -0 0.954915 
L 1.469463 2.022542 
L 0.908178 0.295085 
L 2.377641 -0.772542 
L 0.561285 -0.772542 
z
"/>
    </defs>
    <g clip-path="url(#p068bf672a4)">
     <use xlink:href="#C15_0_254032a4c5" x="173.003939" y="91.557891" style="fill: #ffffff; stroke: #000000; stroke-width: 0.4"/>
    </g>
    <g clip-path="url(#p068bf672a4)">
     <use xlink:href="#C15_0_254032a4c5" x="173.370223" y="93.068634" style="fill: #ffffff; stroke: #000000; stroke-width: 0.4"/>
    </g>
    <g clip-path="url(#p068bf672a4)">
     <use xlink:href="#C15_0_254032a4c5" x="175.082094" y="94.200431" style="fill: #ffffff; stroke: #000000; stroke-width: 0.4"/>
    </g>
   </g>
   <g id="PathCollection_42">
    <path d="M 193.374594 110.437415 
L 192.813309 112.164872 
L 190.996952 112.164872 
L 192.466416 113.2325 
L 191.905131 114.959957 
L 193.374594 113.89233 
L 194.844057 114.959957 
L 194.282772 113.2325 
L 195.752235 112.164872 
L 193.935879 112.164872 
z
" clip-path="url(#p068bf672a4)" style="fill: #ffffff; stroke: #000000; stroke-width: 0.4"/>
    <path d="M 191.492745 109.41011 
L 190.93146 111.137568 
L 189.115104 111.137568 
L 190.584567 112.205195 
L 190.023282 113.932653 
L 191.492745 112.865025 
L 192.962208 113.932653 
L 192.400923 112.205195 
L 193.870386 111.137568 
L 192.05403 111.137568 
z
" clip-path="url(#p068bf672a4)" style="fill: #ffffff; stroke: #000000; stroke-width: 0.4"/>
   </g>
   <g id="text_10">
    <!-- **** -->
    <g style="fill: #262626" transform="translate(121.067188 57.781788) scale(0.12 -0.12)">
     <defs>
      <path id="ArialMT-2a" d="M 200 3741 
L 344 4184 
Q 841 4009 1066 3881 
Q 1006 4447 1003 4659 
L 1456 4659 
Q 1447 4350 1384 3884 
Q 1706 4047 2122 4184 
L 2266 3741 
Q 1869 3609 1488 3566 
Q 1678 3400 2025 2975 
L 1650 2709 
Q 1469 2956 1222 3381 
Q 991 2941 816 2709 
L 447 2975 
Q 809 3422 966 3566 
Q 563 3644 200 3741 
z
" transform="scale(0.015625)"/>
     </defs>
     <use xlink:href="#ArialMT-2a"/>
     <use xlink:href="#ArialMT-2a" transform="translate(38.916016 0)"/>
     <use xlink:href="#ArialMT-2a" transform="translate(77.832031 0)"/>
     <use xlink:href="#ArialMT-2a" transform="translate(116.748047 0)"/>
    </g>
   </g>
   <g id="text_11">
    <!-- **** -->
    <g style="fill: #262626" transform="translate(68.469785 85.861455) scale(0.12 -0.12)">
     <use xlink:href="#ArialMT-2a"/>
     <use xlink:href="#ArialMT-2a" transform="translate(38.916016 0)"/>
     <use xlink:href="#ArialMT-2a" transform="translate(77.832031 0)"/>
     <use xlink:href="#ArialMT-2a" transform="translate(116.748047 0)"/>
    </g>
   </g>
   <g id="text_12">
    <!-- **** -->
    <g style="fill: #262626" transform="translate(173.66459 18.121022) scale(0.12 -0.12)">
     <use xlink:href="#ArialMT-2a"/>
     <use xlink:href="#ArialMT-2a" transform="translate(38.916016 0)"/>
     <use xlink:href="#ArialMT-2a" transform="translate(77.832031 0)"/>
     <use xlink:href="#ArialMT-2a" transform="translate(116.748047 0)"/>
    </g>
   </g>
   <g id="legend_1">
    <g id="patch_13">
     <path d="M 223.908438 19.50625 
L 245.908438 19.50625 
L 245.908438 11.80625 
L 223.908438 11.80625 
z
" style="fill: #db8484; stroke: #ffffff; stroke-linejoin: miter"/>
    </g>
    <g id="text_13">
     <!-- WT.Ngn2.x3HA -->
     <g style="fill: #262626" transform="translate(254.708438 19.50625) scale(0.11 -0.11)">
      <defs>
       <path id="ArialMT-57" d="M 1294 0 
L 78 4581 
L 700 4581 
L 1397 1578 
Q 1509 1106 1591 641 
Q 1766 1375 1797 1488 
L 2669 4581 
L 3400 4581 
L 4056 2263 
Q 4303 1400 4413 641 
Q 4500 1075 4641 1638 
L 5359 4581 
L 5969 4581 
L 4713 0 
L 4128 0 
L 3163 3491 
Q 3041 3928 3019 4028 
Q 2947 3713 2884 3491 
L 1913 0 
L 1294 0 
z
" transform="scale(0.015625)"/>
       <path id="ArialMT-2e" d="M 581 0 
L 581 641 
L 1222 641 
L 1222 0 
L 581 0 
z
" transform="scale(0.015625)"/>
       <path id="ArialMT-67" d="M 319 -275 
L 866 -356 
Q 900 -609 1056 -725 
Q 1266 -881 1628 -881 
Q 2019 -881 2231 -725 
Q 2444 -569 2519 -288 
Q 2563 -116 2559 434 
Q 2191 0 1641 0 
Q 956 0 581 494 
Q 206 988 206 1678 
Q 206 2153 378 2554 
Q 550 2956 876 3175 
Q 1203 3394 1644 3394 
Q 2231 3394 2613 2919 
L 2613 3319 
L 3131 3319 
L 3131 450 
Q 3131 -325 2973 -648 
Q 2816 -972 2473 -1159 
Q 2131 -1347 1631 -1347 
Q 1038 -1347 672 -1080 
Q 306 -813 319 -275 
z
M 784 1719 
Q 784 1066 1043 766 
Q 1303 466 1694 466 
Q 2081 466 2343 764 
Q 2606 1063 2606 1700 
Q 2606 2309 2336 2618 
Q 2066 2928 1684 2928 
Q 1309 2928 1046 2623 
Q 784 2319 784 1719 
z
" transform="scale(0.015625)"/>
       <path id="ArialMT-78" d="M 47 0 
L 1259 1725 
L 138 3319 
L 841 3319 
L 1350 2541 
Q 1494 2319 1581 2169 
Q 1719 2375 1834 2534 
L 2394 3319 
L 3066 3319 
L 1919 1756 
L 3153 0 
L 2463 0 
L 1781 1031 
L 1600 1309 
L 728 0 
L 47 0 
z
" transform="scale(0.015625)"/>
       <path id="ArialMT-33" d="M 269 1209 
L 831 1284 
Q 928 806 1161 595 
Q 1394 384 1728 384 
Q 2125 384 2398 659 
Q 2672 934 2672 1341 
Q 2672 1728 2419 1979 
Q 2166 2231 1775 2231 
Q 1616 2231 1378 2169 
L 1441 2663 
Q 1497 2656 1531 2656 
Q 1891 2656 2178 2843 
Q 2466 3031 2466 3422 
Q 2466 3731 2256 3934 
Q 2047 4138 1716 4138 
Q 1388 4138 1169 3931 
Q 950 3725 888 3313 
L 325 3413 
Q 428 3978 793 4289 
Q 1159 4600 1703 4600 
Q 2078 4600 2393 4439 
Q 2709 4278 2876 4000 
Q 3044 3722 3044 3409 
Q 3044 3113 2884 2869 
Q 2725 2625 2413 2481 
Q 2819 2388 3044 2092 
Q 3269 1797 3269 1353 
Q 3269 753 2831 336 
Q 2394 -81 1725 -81 
Q 1122 -81 723 278 
Q 325 638 269 1209 
z
" transform="scale(0.015625)"/>
       <path id="ArialMT-48" d="M 513 0 
L 513 4581 
L 1119 4581 
L 1119 2700 
L 3500 2700 
L 3500 4581 
L 4106 4581 
L 4106 0 
L 3500 0 
L 3500 2159 
L 1119 2159 
L 1119 0 
L 513 0 
z
" transform="scale(0.015625)"/>
      </defs>
      <use xlink:href="#ArialMT-57"/>
      <use xlink:href="#ArialMT-54" transform="translate(94.384766 0)"/>
      <use xlink:href="#ArialMT-2e" transform="translate(144.34375 0)"/>
      <use xlink:href="#ArialMT-4e" transform="translate(172.126953 0)"/>
      <use xlink:href="#ArialMT-67" transform="translate(244.34375 0)"/>
      <use xlink:href="#ArialMT-6e" transform="translate(299.958984 0)"/>
      <use xlink:href="#ArialMT-32" transform="translate(355.574219 0)"/>
      <use xlink:href="#ArialMT-2e" transform="translate(411.189453 0)"/>
      <use xlink:href="#ArialMT-78" transform="translate(438.972656 0)"/>
      <use xlink:href="#ArialMT-33" transform="translate(488.972656 0)"/>
      <use xlink:href="#ArialMT-48" transform="translate(544.587891 0)"/>
      <use xlink:href="#ArialMT-41" transform="translate(616.804688 0)"/>
     </g>
    </g>
    <g id="patch_14">
     <path d="M 223.908438 35.329062 
L 245.908438 35.329062 
L 245.908438 27.629062 
L 223.908438 27.629062 
z
" style="fill: #4b94a2; stroke: #ffffff; stroke-linejoin: miter"/>
    </g>
    <g id="text_14">
     <!-- 9SA.Ngn2.x3HA -->
     <g style="fill: #262626" transform="translate(254.708438 35.329062) scale(0.11 -0.11)">
      <defs>
       <path id="ArialMT-39" d="M 350 1059 
L 891 1109 
Q 959 728 1153 556 
Q 1347 384 1650 384 
Q 1909 384 2104 503 
Q 2300 622 2425 820 
Q 2550 1019 2634 1356 
Q 2719 1694 2719 2044 
Q 2719 2081 2716 2156 
Q 2547 1888 2255 1720 
Q 1963 1553 1622 1553 
Q 1053 1553 659 1965 
Q 266 2378 266 3053 
Q 266 3750 677 4175 
Q 1088 4600 1706 4600 
Q 2153 4600 2523 4359 
Q 2894 4119 3086 3673 
Q 3278 3228 3278 2384 
Q 3278 1506 3087 986 
Q 2897 466 2520 194 
Q 2144 -78 1638 -78 
Q 1100 -78 759 220 
Q 419 519 350 1059 
z
M 2653 3081 
Q 2653 3566 2395 3850 
Q 2138 4134 1775 4134 
Q 1400 4134 1122 3828 
Q 844 3522 844 3034 
Q 844 2597 1108 2323 
Q 1372 2050 1759 2050 
Q 2150 2050 2401 2323 
Q 2653 2597 2653 3081 
z
" transform="scale(0.015625)"/>
      </defs>
      <use xlink:href="#ArialMT-39"/>
      <use xlink:href="#ArialMT-53" transform="translate(55.615234 0)"/>
      <use xlink:href="#ArialMT-41" transform="translate(122.314453 0)"/>
      <use xlink:href="#ArialMT-2e" transform="translate(189.013672 0)"/>
      <use xlink:href="#ArialMT-4e" transform="translate(216.796875 0)"/>
      <use xlink:href="#ArialMT-67" transform="translate(289.013672 0)"/>
      <use xlink:href="#ArialMT-6e" transform="translate(344.628906 0)"/>
      <use xlink:href="#ArialMT-32" transform="translate(400.244141 0)"/>
      <use xlink:href="#ArialMT-2e" transform="translate(455.859375 0)"/>
      <use xlink:href="#ArialMT-78" transform="translate(483.642578 0)"/>
      <use xlink:href="#ArialMT-33" transform="translate(533.642578 0)"/>
      <use xlink:href="#ArialMT-48" transform="translate(589.257812 0)"/>
      <use xlink:href="#ArialMT-41" transform="translate(661.474609 0)"/>
     </g>
    </g>
   </g>
  </g>
 </g>
 <defs>
  <clipPath id="p068bf672a4">
   <rect x="49.408438" y="7.2" width="162" height="117"/>
  </clipPath>
 </defs>
</svg>
