<?xml version="1.0" encoding="utf-8" standalone="no"?>
<!DOCTYPE svg PUBLIC "-//W3C//DTD SVG 1.1//EN"
  "http://www.w3.org/Graphics/SVG/1.1/DTD/svg11.dtd">
<svg xmlns:xlink="http://www.w3.org/1999/xlink" width="465.922656pt" height="176.960302pt" viewBox="0 0 465.922656 176.960302" xmlns="http://www.w3.org/2000/svg" version="1.1">
 <metadata>
  <rdf:RDF xmlns:dc="http://purl.org/dc/elements/1.1/" xmlns:cc="http://creativecommons.org/ns#" xmlns:rdf="http://www.w3.org/1999/02/22-rdf-syntax-ns#">
   <cc:Work>
    <dc:type rdf:resource="http://purl.org/dc/dcmitype/StillImage"/>
    <dc:date>2025-07-28T17:02:00.944507</dc:date>
    <dc:format>image/svg+xml</dc:format>
    <dc:creator>
     <cc:Agent>
      <dc:title>Matplotlib v3.10.3, https://matplotlib.org/</dc:title>
     </cc:Agent>
    </dc:creator>
   </cc:Work>
  </rdf:RDF>
 </metadata>
 <defs>
  <style type="text/css">*{stroke-linejoin: round; stroke-linecap: butt}</style>
 </defs>
 <g id="figure_1">
  <g id="patch_1">
   <path d="M 0 176.960302 
L 465.922656 176.960302 
L 465.922656 0 
L 0 0 
z
" style="fill: #ffffff"/>
  </g>
  <g id="axes_1">
   <g id="patch_2">
    <path d="M 55.525469 126.931334 
L 325.525469 126.931334 
L 325.525469 9.931334 
L 55.525469 9.931334 
z
" style="fill: #ffffff"/>
   </g>
   <g id="line2d_1">
    <path d="M 55.525469 118.071508 
L 325.525469 118.071508 
" clip-path="url(#p04d1d59fc9)" style="fill: none; stroke-dasharray: 5.55,2.4; stroke-dashoffset: 0; stroke: #cccccc; stroke-width: 1.5"/>
   </g>
   <g id="line2d_2">
    <path d="M 55.525469 83.967076 
L 325.525469 83.967076 
" clip-path="url(#p04d1d59fc9)" style="fill: none; stroke-dasharray: 5.55,2.4; stroke-dashoffset: 0; stroke: #cccccc; stroke-width: 1.5"/>
   </g>
   <g id="matplotlib.axis_1">
    <g id="xtick_1">
     <g id="line2d_3">
      <defs>
       <path id="m56731deff8" d="M 0 0 
L 0 6 
" style="stroke: #262626; stroke-width: 1.25"/>
      </defs>
      <g>
       <use xlink:href="#m56731deff8" x="88.252741" y="126.931334" style="fill: #262626; stroke: #262626; stroke-width: 1.25"/>
      </g>
     </g>
     <g id="text_1">
      <!-- NIL, -->
      <g style="fill: #262626" transform="translate(78.166257 144.304927) scale(0.11 -0.11)">
       <defs>
        <path id="ArialMT-4e" d="M 488 0 
L 488 4581 
L 1109 4581 
L 3516 984 
L 3516 4581 
L 4097 4581 
L 4097 0 
L 3475 0 
L 1069 3600 
L 1069 0 
L 488 0 
z
" transform="scale(0.015625)"/>
        <path id="ArialMT-49" d="M 597 0 
L 597 4581 
L 1203 4581 
L 1203 0 
L 597 0 
z
" transform="scale(0.015625)"/>
        <path id="ArialMT-4c" d="M 469 0 
L 469 4581 
L 1075 4581 
L 1075 541 
L 3331 541 
L 3331 0 
L 469 0 
z
" transform="scale(0.015625)"/>
        <path id="ArialMT-2c" d="M 569 0 
L 569 641 
L 1209 641 
L 1209 0 
Q 1209 -353 1084 -570 
Q 959 -788 688 -906 
L 531 -666 
Q 709 -588 793 -436 
Q 878 -284 888 0 
L 569 0 
z
" transform="scale(0.015625)"/>
       </defs>
       <use xlink:href="#ArialMT-4e"/>
       <use xlink:href="#ArialMT-49" transform="translate(72.216797 0)"/>
       <use xlink:href="#ArialMT-4c" transform="translate(100 0)"/>
       <use xlink:href="#ArialMT-2c" transform="translate(155.615234 0)"/>
      </g>
      <!-- none -->
      <g style="fill: #262626" transform="translate(76.018679 155.93949) scale(0.11 -0.11)">
       <defs>
        <path id="ArialMT-6e" d="M 422 0 
L 422 3319 
L 928 3319 
L 928 2847 
Q 1294 3394 1984 3394 
Q 2284 3394 2536 3286 
Q 2788 3178 2913 3003 
Q 3038 2828 3088 2588 
Q 3119 2431 3119 2041 
L 3119 0 
L 2556 0 
L 2556 2019 
Q 2556 2363 2490 2533 
Q 2425 2703 2258 2804 
Q 2091 2906 1866 2906 
Q 1506 2906 1245 2678 
Q 984 2450 984 1813 
L 984 0 
L 422 0 
z
" transform="scale(0.015625)"/>
        <path id="ArialMT-6f" d="M 213 1659 
Q 213 2581 725 3025 
Q 1153 3394 1769 3394 
Q 2453 3394 2887 2945 
Q 3322 2497 3322 1706 
Q 3322 1066 3130 698 
Q 2938 331 2570 128 
Q 2203 -75 1769 -75 
Q 1072 -75 642 372 
Q 213 819 213 1659 
z
M 791 1659 
Q 791 1022 1069 705 
Q 1347 388 1769 388 
Q 2188 388 2466 706 
Q 2744 1025 2744 1678 
Q 2744 2294 2464 2611 
Q 2184 2928 1769 2928 
Q 1347 2928 1069 2612 
Q 791 2297 791 1659 
z
" transform="scale(0.015625)"/>
        <path id="ArialMT-65" d="M 2694 1069 
L 3275 997 
Q 3138 488 2766 206 
Q 2394 -75 1816 -75 
Q 1088 -75 661 373 
Q 234 822 234 1631 
Q 234 2469 665 2931 
Q 1097 3394 1784 3394 
Q 2450 3394 2872 2941 
Q 3294 2488 3294 1666 
Q 3294 1616 3291 1516 
L 816 1516 
Q 847 969 1125 678 
Q 1403 388 1819 388 
Q 2128 388 2347 550 
Q 2566 713 2694 1069 
z
M 847 1978 
L 2700 1978 
Q 2663 2397 2488 2606 
Q 2219 2931 1791 2931 
Q 1403 2931 1139 2672 
Q 875 2413 847 1978 
z
" transform="scale(0.015625)"/>
       </defs>
       <use xlink:href="#ArialMT-6e"/>
       <use xlink:href="#ArialMT-6f" transform="translate(55.615234 0)"/>
       <use xlink:href="#ArialMT-6e" transform="translate(111.230469 0)"/>
       <use xlink:href="#ArialMT-65" transform="translate(166.845703 0)"/>
      </g>
     </g>
    </g>
    <g id="xtick_2">
     <g id="line2d_4">
      <g>
       <use xlink:href="#m56731deff8" x="139.389105" y="126.931334" style="fill: #262626; stroke: #262626; stroke-width: 1.25"/>
      </g>
     </g>
     <g id="text_2">
      <!-- NIL -->
      <g style="fill: #262626" transform="translate(130.830589 144.304927) scale(0.11 -0.11)">
       <use xlink:href="#ArialMT-4e"/>
       <use xlink:href="#ArialMT-49" transform="translate(72.216797 0)"/>
       <use xlink:href="#ArialMT-4c" transform="translate(100 0)"/>
      </g>
      <!-- SDD, -->
      <g style="fill: #262626" transform="translate(126.248402 155.93949) scale(0.11 -0.11)">
       <defs>
        <path id="ArialMT-53" d="M 288 1472 
L 859 1522 
Q 900 1178 1048 958 
Q 1197 738 1509 602 
Q 1822 466 2213 466 
Q 2559 466 2825 569 
Q 3091 672 3220 851 
Q 3350 1031 3350 1244 
Q 3350 1459 3225 1620 
Q 3100 1781 2813 1891 
Q 2628 1963 1997 2114 
Q 1366 2266 1113 2400 
Q 784 2572 623 2826 
Q 463 3081 463 3397 
Q 463 3744 659 4045 
Q 856 4347 1234 4503 
Q 1613 4659 2075 4659 
Q 2584 4659 2973 4495 
Q 3363 4331 3572 4012 
Q 3781 3694 3797 3291 
L 3216 3247 
Q 3169 3681 2898 3903 
Q 2628 4125 2100 4125 
Q 1550 4125 1298 3923 
Q 1047 3722 1047 3438 
Q 1047 3191 1225 3031 
Q 1400 2872 2139 2705 
Q 2878 2538 3153 2413 
Q 3553 2228 3743 1945 
Q 3934 1663 3934 1294 
Q 3934 928 3725 604 
Q 3516 281 3123 101 
Q 2731 -78 2241 -78 
Q 1619 -78 1198 103 
Q 778 284 539 648 
Q 300 1013 288 1472 
z
" transform="scale(0.015625)"/>
        <path id="ArialMT-44" d="M 494 0 
L 494 4581 
L 2072 4581 
Q 2606 4581 2888 4516 
Q 3281 4425 3559 4188 
Q 3922 3881 4101 3404 
Q 4281 2928 4281 2316 
Q 4281 1794 4159 1391 
Q 4038 988 3847 723 
Q 3656 459 3429 307 
Q 3203 156 2883 78 
Q 2563 0 2147 0 
L 494 0 
z
M 1100 541 
L 2078 541 
Q 2531 541 2789 625 
Q 3047 709 3200 863 
Q 3416 1078 3536 1442 
Q 3656 1806 3656 2325 
Q 3656 3044 3420 3430 
Q 3184 3816 2847 3947 
Q 2603 4041 2063 4041 
L 1100 4041 
L 1100 541 
z
" transform="scale(0.015625)"/>
       </defs>
       <use xlink:href="#ArialMT-53"/>
       <use xlink:href="#ArialMT-44" transform="translate(66.699219 0)"/>
       <use xlink:href="#ArialMT-44" transform="translate(138.916016 0)"/>
       <use xlink:href="#ArialMT-2c" transform="translate(211.132812 0)"/>
      </g>
      <!-- none -->
      <g style="fill: #262626" transform="translate(127.155043 167.574052) scale(0.11 -0.11)">
       <use xlink:href="#ArialMT-6e"/>
       <use xlink:href="#ArialMT-6f" transform="translate(55.615234 0)"/>
       <use xlink:href="#ArialMT-6e" transform="translate(111.230469 0)"/>
       <use xlink:href="#ArialMT-65" transform="translate(166.845703 0)"/>
      </g>
     </g>
    </g>
    <g id="xtick_3">
     <g id="line2d_5">
      <g>
       <use xlink:href="#m56731deff8" x="190.525469" y="126.931334" style="fill: #262626; stroke: #262626; stroke-width: 1.25"/>
      </g>
     </g>
     <g id="text_3">
      <!-- NIL -->
      <g style="fill: #262626" transform="translate(181.966953 144.304927) scale(0.11 -0.11)">
       <use xlink:href="#ArialMT-4e"/>
       <use xlink:href="#ArialMT-49" transform="translate(72.216797 0)"/>
       <use xlink:href="#ArialMT-4c" transform="translate(100 0)"/>
      </g>
      <!-- SDD, -->
      <g style="fill: #262626" transform="translate(177.384766 155.93949) scale(0.11 -0.11)">
       <use xlink:href="#ArialMT-53"/>
       <use xlink:href="#ArialMT-44" transform="translate(66.699219 0)"/>
       <use xlink:href="#ArialMT-44" transform="translate(138.916016 0)"/>
       <use xlink:href="#ArialMT-2c" transform="translate(211.132812 0)"/>
      </g>
      <!-- PMA -->
      <g style="fill: #262626" transform="translate(178.606797 167.574052) scale(0.11 -0.11)">
       <defs>
        <path id="ArialMT-50" d="M 494 0 
L 494 4581 
L 2222 4581 
Q 2678 4581 2919 4538 
Q 3256 4481 3484 4323 
Q 3713 4166 3852 3881 
Q 3991 3597 3991 3256 
Q 3991 2672 3619 2267 
Q 3247 1863 2275 1863 
L 1100 1863 
L 1100 0 
L 494 0 
z
M 1100 2403 
L 2284 2403 
Q 2872 2403 3119 2622 
Q 3366 2841 3366 3238 
Q 3366 3525 3220 3729 
Q 3075 3934 2838 4000 
Q 2684 4041 2272 4041 
L 1100 4041 
L 1100 2403 
z
" transform="scale(0.015625)"/>
        <path id="ArialMT-4d" d="M 475 0 
L 475 4581 
L 1388 4581 
L 2472 1338 
Q 2622 884 2691 659 
Q 2769 909 2934 1394 
L 4031 4581 
L 4847 4581 
L 4847 0 
L 4263 0 
L 4263 3834 
L 2931 0 
L 2384 0 
L 1059 3900 
L 1059 0 
L 475 0 
z
" transform="scale(0.015625)"/>
        <path id="ArialMT-41" d="M -9 0 
L 1750 4581 
L 2403 4581 
L 4278 0 
L 3588 0 
L 3053 1388 
L 1138 1388 
L 634 0 
L -9 0 
z
M 1313 1881 
L 2866 1881 
L 2388 3150 
Q 2169 3728 2063 4100 
Q 1975 3659 1816 3225 
L 1313 1881 
z
" transform="scale(0.015625)"/>
       </defs>
       <use xlink:href="#ArialMT-50"/>
       <use xlink:href="#ArialMT-4d" transform="translate(66.699219 0)"/>
       <use xlink:href="#ArialMT-41" transform="translate(150 0)"/>
      </g>
     </g>
    </g>
    <g id="xtick_4">
     <g id="line2d_6">
      <g>
       <use xlink:href="#m56731deff8" x="241.661832" y="126.931334" style="fill: #262626; stroke: #262626; stroke-width: 1.25"/>
      </g>
     </g>
     <g id="text_4">
      <!-- NIL -->
      <g style="fill: #262626" transform="translate(233.103317 144.304927) scale(0.11 -0.11)">
       <use xlink:href="#ArialMT-4e"/>
       <use xlink:href="#ArialMT-49" transform="translate(72.216797 0)"/>
       <use xlink:href="#ArialMT-4c" transform="translate(100 0)"/>
      </g>
      <!-- RIDD, -->
      <g style="fill: #262626" transform="translate(226.689801 155.93949) scale(0.11 -0.11)">
       <defs>
        <path id="ArialMT-52" d="M 503 0 
L 503 4581 
L 2534 4581 
Q 3147 4581 3465 4457 
Q 3784 4334 3975 4021 
Q 4166 3709 4166 3331 
Q 4166 2844 3850 2509 
Q 3534 2175 2875 2084 
Q 3116 1969 3241 1856 
Q 3506 1613 3744 1247 
L 4541 0 
L 3778 0 
L 3172 953 
Q 2906 1366 2734 1584 
Q 2563 1803 2427 1890 
Q 2291 1978 2150 2013 
Q 2047 2034 1813 2034 
L 1109 2034 
L 1109 0 
L 503 0 
z
M 1109 2559 
L 2413 2559 
Q 2828 2559 3062 2645 
Q 3297 2731 3419 2920 
Q 3541 3109 3541 3331 
Q 3541 3656 3305 3865 
Q 3069 4075 2559 4075 
L 1109 4075 
L 1109 2559 
z
" transform="scale(0.015625)"/>
       </defs>
       <use xlink:href="#ArialMT-52"/>
       <use xlink:href="#ArialMT-49" transform="translate(72.216797 0)"/>
       <use xlink:href="#ArialMT-44" transform="translate(100 0)"/>
       <use xlink:href="#ArialMT-44" transform="translate(172.216797 0)"/>
       <use xlink:href="#ArialMT-2c" transform="translate(244.433594 0)"/>
      </g>
      <!-- none -->
      <g style="fill: #262626" transform="translate(229.42777 167.574052) scale(0.11 -0.11)">
       <use xlink:href="#ArialMT-6e"/>
       <use xlink:href="#ArialMT-6f" transform="translate(55.615234 0)"/>
       <use xlink:href="#ArialMT-6e" transform="translate(111.230469 0)"/>
       <use xlink:href="#ArialMT-65" transform="translate(166.845703 0)"/>
      </g>
     </g>
    </g>
    <g id="xtick_5">
     <g id="line2d_7">
      <g>
       <use xlink:href="#m56731deff8" x="292.798196" y="126.931334" style="fill: #262626; stroke: #262626; stroke-width: 1.25"/>
      </g>
     </g>
     <g id="text_5">
      <!-- NIL -->
      <g style="fill: #262626" transform="translate(284.23968 144.304927) scale(0.11 -0.11)">
       <use xlink:href="#ArialMT-4e"/>
       <use xlink:href="#ArialMT-49" transform="translate(72.216797 0)"/>
       <use xlink:href="#ArialMT-4c" transform="translate(100 0)"/>
      </g>
      <!-- RIDD, -->
      <g style="fill: #262626" transform="translate(277.826165 155.93949) scale(0.11 -0.11)">
       <use xlink:href="#ArialMT-52"/>
       <use xlink:href="#ArialMT-49" transform="translate(72.216797 0)"/>
       <use xlink:href="#ArialMT-44" transform="translate(100 0)"/>
       <use xlink:href="#ArialMT-44" transform="translate(172.216797 0)"/>
       <use xlink:href="#ArialMT-2c" transform="translate(244.433594 0)"/>
      </g>
      <!-- MEKi -->
      <g style="fill: #262626" transform="translate(279.657493 167.574052) scale(0.11 -0.11)">
       <defs>
        <path id="ArialMT-45" d="M 506 0 
L 506 4581 
L 3819 4581 
L 3819 4041 
L 1113 4041 
L 1113 2638 
L 3647 2638 
L 3647 2100 
L 1113 2100 
L 1113 541 
L 3925 541 
L 3925 0 
L 506 0 
z
" transform="scale(0.015625)"/>
        <path id="ArialMT-4b" d="M 469 0 
L 469 4581 
L 1075 4581 
L 1075 2309 
L 3350 4581 
L 4172 4581 
L 2250 2725 
L 4256 0 
L 3456 0 
L 1825 2319 
L 1075 1588 
L 1075 0 
L 469 0 
z
" transform="scale(0.015625)"/>
        <path id="ArialMT-69" d="M 425 3934 
L 425 4581 
L 988 4581 
L 988 3934 
L 425 3934 
z
M 425 0 
L 425 3319 
L 988 3319 
L 988 0 
L 425 0 
z
" transform="scale(0.015625)"/>
       </defs>
       <use xlink:href="#ArialMT-4d"/>
       <use xlink:href="#ArialMT-45" transform="translate(83.300781 0)"/>
       <use xlink:href="#ArialMT-4b" transform="translate(150 0)"/>
       <use xlink:href="#ArialMT-69" transform="translate(216.699219 0)"/>
      </g>
     </g>
    </g>
   </g>
   <g id="matplotlib.axis_2">
    <g id="ytick_1">
     <g id="line2d_8">
      <defs>
       <path id="mb6fac95fda" d="M 0 0 
L -6 0 
" style="stroke: #262626; stroke-width: 1.25"/>
      </defs>
      <g>
       <use xlink:href="#mb6fac95fda" x="55.525469" y="126.931334" style="fill: #262626; stroke: #262626; stroke-width: 1.25"/>
      </g>
     </g>
     <g id="text_6">
      <!-- 0 -->
      <g style="fill: #262626" transform="translate(39.908438 130.868131) scale(0.11 -0.11)">
       <defs>
        <path id="ArialMT-30" d="M 266 2259 
Q 266 3072 433 3567 
Q 600 4063 929 4331 
Q 1259 4600 1759 4600 
Q 2128 4600 2406 4451 
Q 2684 4303 2865 4023 
Q 3047 3744 3150 3342 
Q 3253 2941 3253 2259 
Q 3253 1453 3087 958 
Q 2922 463 2592 192 
Q 2263 -78 1759 -78 
Q 1097 -78 719 397 
Q 266 969 266 2259 
z
M 844 2259 
Q 844 1131 1108 757 
Q 1372 384 1759 384 
Q 2147 384 2411 759 
Q 2675 1134 2675 2259 
Q 2675 3391 2411 3762 
Q 2147 4134 1753 4134 
Q 1366 4134 1134 3806 
Q 844 3388 844 2259 
z
" transform="scale(0.015625)"/>
       </defs>
       <use xlink:href="#ArialMT-30"/>
      </g>
     </g>
    </g>
    <g id="ytick_2">
     <g id="line2d_9">
      <g>
       <use xlink:href="#mb6fac95fda" x="55.525469" y="88.333155" style="fill: #262626; stroke: #262626; stroke-width: 1.25"/>
      </g>
     </g>
     <g id="text_7">
      <!-- 50k -->
      <g style="fill: #262626" transform="translate(28.291406 92.269952) scale(0.11 -0.11)">
       <defs>
        <path id="ArialMT-35" d="M 266 1200 
L 856 1250 
Q 922 819 1161 601 
Q 1400 384 1738 384 
Q 2144 384 2425 690 
Q 2706 997 2706 1503 
Q 2706 1984 2436 2262 
Q 2166 2541 1728 2541 
Q 1456 2541 1237 2417 
Q 1019 2294 894 2097 
L 366 2166 
L 809 4519 
L 3088 4519 
L 3088 3981 
L 1259 3981 
L 1013 2750 
Q 1425 3038 1878 3038 
Q 2478 3038 2890 2622 
Q 3303 2206 3303 1553 
Q 3303 931 2941 478 
Q 2500 -78 1738 -78 
Q 1113 -78 717 272 
Q 322 622 266 1200 
z
" transform="scale(0.015625)"/>
        <path id="ArialMT-6b" d="M 425 0 
L 425 4581 
L 988 4581 
L 988 1969 
L 2319 3319 
L 3047 3319 
L 1778 2088 
L 3175 0 
L 2481 0 
L 1384 1697 
L 988 1316 
L 988 0 
L 425 0 
z
" transform="scale(0.015625)"/>
       </defs>
       <use xlink:href="#ArialMT-35"/>
       <use xlink:href="#ArialMT-30" transform="translate(55.615234 0)"/>
       <use xlink:href="#ArialMT-6b" transform="translate(111.230469 0)"/>
      </g>
     </g>
    </g>
    <g id="ytick_3">
     <g id="line2d_10">
      <g>
       <use xlink:href="#mb6fac95fda" x="55.525469" y="49.734976" style="fill: #262626; stroke: #262626; stroke-width: 1.25"/>
      </g>
     </g>
     <g id="text_8">
      <!-- 100k -->
      <g style="fill: #262626" transform="translate(22.174375 53.671773) scale(0.11 -0.11)">
       <defs>
        <path id="ArialMT-31" d="M 2384 0 
L 1822 0 
L 1822 3584 
Q 1619 3391 1289 3197 
Q 959 3003 697 2906 
L 697 3450 
Q 1169 3672 1522 3987 
Q 1875 4303 2022 4600 
L 2384 4600 
L 2384 0 
z
" transform="scale(0.015625)"/>
       </defs>
       <use xlink:href="#ArialMT-31"/>
       <use xlink:href="#ArialMT-30" transform="translate(55.615234 0)"/>
       <use xlink:href="#ArialMT-30" transform="translate(111.230469 0)"/>
       <use xlink:href="#ArialMT-6b" transform="translate(166.845703 0)"/>
      </g>
     </g>
    </g>
    <g id="ytick_4">
     <g id="line2d_11">
      <g>
       <use xlink:href="#mb6fac95fda" x="55.525469" y="11.136797" style="fill: #262626; stroke: #262626; stroke-width: 1.25"/>
      </g>
     </g>
     <g id="text_9">
      <!-- 150k -->
      <g style="fill: #262626" transform="translate(22.174375 15.073594) scale(0.11 -0.11)">
       <use xlink:href="#ArialMT-31"/>
       <use xlink:href="#ArialMT-35" transform="translate(55.615234 0)"/>
       <use xlink:href="#ArialMT-30" transform="translate(111.230469 0)"/>
       <use xlink:href="#ArialMT-6b" transform="translate(166.845703 0)"/>
      </g>
     </g>
    </g>
    <g id="text_10">
     <!-- Total Cell Count -->
     <g style="fill: #262626" transform="translate(15.789375 110.781021) rotate(-90) scale(0.12 -0.12)">
      <defs>
       <path id="ArialMT-54" d="M 1659 0 
L 1659 4041 
L 150 4041 
L 150 4581 
L 3781 4581 
L 3781 4041 
L 2266 4041 
L 2266 0 
L 1659 0 
z
" transform="scale(0.015625)"/>
       <path id="ArialMT-74" d="M 1650 503 
L 1731 6 
Q 1494 -44 1306 -44 
Q 1000 -44 831 53 
Q 663 150 594 308 
Q 525 466 525 972 
L 525 2881 
L 113 2881 
L 113 3319 
L 525 3319 
L 525 4141 
L 1084 4478 
L 1084 3319 
L 1650 3319 
L 1650 2881 
L 1084 2881 
L 1084 941 
Q 1084 700 1114 631 
Q 1144 563 1211 522 
Q 1278 481 1403 481 
Q 1497 481 1650 503 
z
" transform="scale(0.015625)"/>
       <path id="ArialMT-61" d="M 2588 409 
Q 2275 144 1986 34 
Q 1697 -75 1366 -75 
Q 819 -75 525 192 
Q 231 459 231 875 
Q 231 1119 342 1320 
Q 453 1522 633 1644 
Q 813 1766 1038 1828 
Q 1203 1872 1538 1913 
Q 2219 1994 2541 2106 
Q 2544 2222 2544 2253 
Q 2544 2597 2384 2738 
Q 2169 2928 1744 2928 
Q 1347 2928 1158 2789 
Q 969 2650 878 2297 
L 328 2372 
Q 403 2725 575 2942 
Q 747 3159 1072 3276 
Q 1397 3394 1825 3394 
Q 2250 3394 2515 3294 
Q 2781 3194 2906 3042 
Q 3031 2891 3081 2659 
Q 3109 2516 3109 2141 
L 3109 1391 
Q 3109 606 3145 398 
Q 3181 191 3288 0 
L 2700 0 
Q 2613 175 2588 409 
z
M 2541 1666 
Q 2234 1541 1622 1453 
Q 1275 1403 1131 1340 
Q 988 1278 909 1158 
Q 831 1038 831 891 
Q 831 666 1001 516 
Q 1172 366 1500 366 
Q 1825 366 2078 508 
Q 2331 650 2450 897 
Q 2541 1088 2541 1459 
L 2541 1666 
z
" transform="scale(0.015625)"/>
       <path id="ArialMT-6c" d="M 409 0 
L 409 4581 
L 972 4581 
L 972 0 
L 409 0 
z
" transform="scale(0.015625)"/>
       <path id="ArialMT-20" transform="scale(0.015625)"/>
       <path id="ArialMT-43" d="M 3763 1606 
L 4369 1453 
Q 4178 706 3683 314 
Q 3188 -78 2472 -78 
Q 1731 -78 1267 223 
Q 803 525 561 1097 
Q 319 1669 319 2325 
Q 319 3041 592 3573 
Q 866 4106 1370 4382 
Q 1875 4659 2481 4659 
Q 3169 4659 3637 4309 
Q 4106 3959 4291 3325 
L 3694 3184 
Q 3534 3684 3231 3912 
Q 2928 4141 2469 4141 
Q 1941 4141 1586 3887 
Q 1231 3634 1087 3207 
Q 944 2781 944 2328 
Q 944 1744 1114 1308 
Q 1284 872 1643 656 
Q 2003 441 2422 441 
Q 2931 441 3284 734 
Q 3638 1028 3763 1606 
z
" transform="scale(0.015625)"/>
       <path id="ArialMT-75" d="M 2597 0 
L 2597 488 
Q 2209 -75 1544 -75 
Q 1250 -75 995 37 
Q 741 150 617 320 
Q 494 491 444 738 
Q 409 903 409 1263 
L 409 3319 
L 972 3319 
L 972 1478 
Q 972 1038 1006 884 
Q 1059 663 1231 536 
Q 1403 409 1656 409 
Q 1909 409 2131 539 
Q 2353 669 2445 892 
Q 2538 1116 2538 1541 
L 2538 3319 
L 3100 3319 
L 3100 0 
L 2597 0 
z
" transform="scale(0.015625)"/>
      </defs>
      <use xlink:href="#ArialMT-54"/>
      <use xlink:href="#ArialMT-6f" transform="translate(49.958984 0)"/>
      <use xlink:href="#ArialMT-74" transform="translate(105.574219 0)"/>
      <use xlink:href="#ArialMT-61" transform="translate(133.357422 0)"/>
      <use xlink:href="#ArialMT-6c" transform="translate(188.972656 0)"/>
      <use xlink:href="#ArialMT-20" transform="translate(211.189453 0)"/>
      <use xlink:href="#ArialMT-43" transform="translate(238.972656 0)"/>
      <use xlink:href="#ArialMT-65" transform="translate(311.189453 0)"/>
      <use xlink:href="#ArialMT-6c" transform="translate(366.804688 0)"/>
      <use xlink:href="#ArialMT-6c" transform="translate(389.021484 0)"/>
      <use xlink:href="#ArialMT-20" transform="translate(411.238281 0)"/>
      <use xlink:href="#ArialMT-43" transform="translate(439.021484 0)"/>
      <use xlink:href="#ArialMT-6f" transform="translate(511.238281 0)"/>
      <use xlink:href="#ArialMT-75" transform="translate(566.853516 0)"/>
      <use xlink:href="#ArialMT-6e" transform="translate(622.46875 0)"/>
      <use xlink:href="#ArialMT-74" transform="translate(678.083984 0)"/>
     </g>
    </g>
   </g>
   <g id="patch_3">
    <path d="M 67.798196 126.931334 
L 88.252741 126.931334 
L 88.252741 118.071508 
L 67.798196 118.071508 
z
" clip-path="url(#p04d1d59fc9)" style="fill: #db8484; stroke: #ffffff; stroke-linejoin: miter"/>
   </g>
   <g id="patch_4">
    <path d="M 118.93456 126.931334 
L 139.389105 126.931334 
L 139.389105 108.841332 
L 118.93456 108.841332 
z
" clip-path="url(#p04d1d59fc9)" style="fill: #db8484; stroke: #ffffff; stroke-linejoin: miter"/>
   </g>
   <g id="patch_5">
    <path d="M 170.070923 126.931334 
L 190.525469 126.931334 
L 190.525469 97.194157 
L 170.070923 97.194157 
z
" clip-path="url(#p04d1d59fc9)" style="fill: #db8484; stroke: #ffffff; stroke-linejoin: miter"/>
   </g>
   <g id="patch_6">
    <path d="M 221.207287 126.931334 
L 241.661832 126.931334 
L 241.661832 83.967076 
L 221.207287 83.967076 
z
" clip-path="url(#p04d1d59fc9)" style="fill: #db8484; stroke: #ffffff; stroke-linejoin: miter"/>
   </g>
   <g id="patch_7">
    <path d="M 272.343651 126.931334 
L 292.798196 126.931334 
L 292.798196 116.368633 
L 272.343651 116.368633 
z
" clip-path="url(#p04d1d59fc9)" style="fill: #db8484; stroke: #ffffff; stroke-linejoin: miter"/>
   </g>
   <g id="patch_8">
    <path d="M 88.252741 126.931334 
L 108.707287 126.931334 
L 108.707287 123.35501 
L 88.252741 123.35501 
z
" clip-path="url(#p04d1d59fc9)" style="fill: #4b94a2; stroke: #ffffff; stroke-linejoin: miter"/>
   </g>
   <g id="patch_9">
    <path d="M 139.389105 126.931334 
L 159.843651 126.931334 
L 159.843651 121.655005 
L 139.389105 121.655005 
z
" clip-path="url(#p04d1d59fc9)" style="fill: #4b94a2; stroke: #ffffff; stroke-linejoin: miter"/>
   </g>
   <g id="patch_10">
    <path d="M 190.525469 126.931334 
L 210.980014 126.931334 
L 210.980014 118.608949 
L 190.525469 118.608949 
z
" clip-path="url(#p04d1d59fc9)" style="fill: #4b94a2; stroke: #ffffff; stroke-linejoin: miter"/>
   </g>
   <g id="patch_11">
    <path d="M 241.661832 126.931334 
L 262.116378 126.931334 
L 262.116378 116.034149 
L 241.661832 116.034149 
z
" clip-path="url(#p04d1d59fc9)" style="fill: #4b94a2; stroke: #ffffff; stroke-linejoin: miter"/>
   </g>
   <g id="patch_12">
    <path d="M 292.798196 126.931334 
L 313.252741 126.931334 
L 313.252741 123.774368 
L 292.798196 123.774368 
z
" clip-path="url(#p04d1d59fc9)" style="fill: #4b94a2; stroke: #ffffff; stroke-linejoin: miter"/>
   </g>
   <g id="line2d_12">
    <path d="M 78.025469 119.429901 
L 78.025469 116.614388 
" clip-path="url(#p04d1d59fc9)" style="fill: none; stroke: #424242; stroke-width: 2.7; stroke-linecap: round"/>
   </g>
   <g id="line2d_13">
    <path d="M 129.161832 112.650884 
L 129.161832 104.74264 
" clip-path="url(#p04d1d59fc9)" style="fill: none; stroke: #424242; stroke-width: 2.7; stroke-linecap: round"/>
   </g>
   <g id="line2d_14">
    <path d="M 180.298196 103.457666 
L 180.298196 90.125903 
" clip-path="url(#p04d1d59fc9)" style="fill: none; stroke: #424242; stroke-width: 2.7; stroke-linecap: round"/>
   </g>
   <g id="line2d_15">
    <path d="M 231.43456 96.043645 
L 231.43456 70.867048 
" clip-path="url(#p04d1d59fc9)" style="fill: none; stroke: #424242; stroke-width: 2.7; stroke-linecap: round"/>
   </g>
   <g id="line2d_16">
    <path d="M 282.570923 119.779337 
L 282.570923 112.489094 
" clip-path="url(#p04d1d59fc9)" style="fill: none; stroke: #424242; stroke-width: 2.7; stroke-linecap: round"/>
   </g>
   <g id="line2d_17">
    <path d="M 98.480014 123.98384 
L 98.480014 122.732745 
" clip-path="url(#p04d1d59fc9)" style="fill: none; stroke: #424242; stroke-width: 2.7; stroke-linecap: round"/>
   </g>
   <g id="line2d_18">
    <path d="M 149.616378 122.509779 
L 149.616378 120.697866 
" clip-path="url(#p04d1d59fc9)" style="fill: none; stroke: #424242; stroke-width: 2.7; stroke-linecap: round"/>
   </g>
   <g id="line2d_19">
    <path d="M 200.752741 119.981447 
L 200.752741 116.979022 
" clip-path="url(#p04d1d59fc9)" style="fill: none; stroke: #424242; stroke-width: 2.7; stroke-linecap: round"/>
   </g>
   <g id="line2d_20">
    <path d="M 251.889105 119.029131 
L 251.889105 112.430882 
" clip-path="url(#p04d1d59fc9)" style="fill: none; stroke: #424242; stroke-width: 2.7; stroke-linecap: round"/>
   </g>
   <g id="line2d_21">
    <path d="M 303.025469 124.580402 
L 303.025469 122.879133 
" clip-path="url(#p04d1d59fc9)" style="fill: none; stroke: #424242; stroke-width: 2.7; stroke-linecap: round"/>
   </g>
   <g id="line2d_22">
    <path d="M 129.161832 87.191866 
L 129.161832 85.202407 
L 149.616378 85.202407 
L 149.616378 87.191866 
" clip-path="url(#p04d1d59fc9)" style="fill: none; stroke: #333333; stroke-width: 1.5; stroke-linecap: round"/>
   </g>
   <g id="line2d_23">
    <path d="M 78.025469 104.409742 
L 78.025469 102.420283 
L 98.480014 102.420283 
L 98.480014 104.409742 
" clip-path="url(#p04d1d59fc9)" style="fill: none; stroke: #333333; stroke-width: 1.5; stroke-linecap: round"/>
   </g>
   <g id="line2d_24">
    <path d="M 180.298196 62.872697 
L 180.298196 60.883238 
L 200.752741 60.883238 
L 200.752741 62.872697 
" clip-path="url(#p04d1d59fc9)" style="fill: none; stroke: #333333; stroke-width: 1.5; stroke-linecap: round"/>
   </g>
   <g id="line2d_25">
    <path d="M 231.43456 26.226814 
L 231.43456 24.237355 
L 251.889105 24.237355 
L 251.889105 26.226814 
" clip-path="url(#p04d1d59fc9)" style="fill: none; stroke: #333333; stroke-width: 1.5; stroke-linecap: round"/>
   </g>
   <g id="line2d_26">
    <path d="M 282.570923 96.437674 
L 282.570923 94.448215 
L 303.025469 94.448215 
L 303.025469 96.437674 
" clip-path="url(#p04d1d59fc9)" style="fill: none; stroke: #333333; stroke-width: 1.5; stroke-linecap: round"/>
   </g>
   <g id="patch_13">
    <path d="M 55.525469 126.931334 
L 55.525469 9.931334 
" style="fill: none; stroke: #262626; stroke-width: 1.25; stroke-linejoin: miter; stroke-linecap: square"/>
   </g>
   <g id="patch_14">
    <path d="M 325.525469 126.931334 
L 325.525469 9.931334 
" style="fill: none; stroke: #262626; stroke-width: 1.25; stroke-linejoin: miter; stroke-linecap: square"/>
   </g>
   <g id="patch_15">
    <path d="M 55.525469 126.931334 
L 325.525469 126.931334 
" style="fill: none; stroke: #262626; stroke-width: 1.25; stroke-linejoin: miter; stroke-linecap: square"/>
   </g>
   <g id="patch_16">
    <path d="M 55.525469 9.931334 
L 325.525469 9.931334 
" style="fill: none; stroke: #262626; stroke-width: 1.25; stroke-linejoin: miter; stroke-linecap: square"/>
   </g>
   <g id="PathCollection_1">
    <defs>
     <path id="C0_0_a14c63d788" d="M 0 2.5 
C 0.663008 2.5 1.29895 2.236584 1.767767 1.767767 
C 2.236584 1.29895 2.5 0.663008 2.5 -0 
C 2.5 -0.663008 2.236584 -1.29895 1.767767 -1.767767 
C 1.29895 -2.236584 0.663008 -2.5 0 -2.5 
C -0.663008 -2.5 -1.29895 -2.236584 -1.767767 -1.767767 
C -2.236584 -1.29895 -2.5 -0.663008 -2.5 0 
C -2.5 0.663008 -2.236584 1.29895 -1.767767 1.767767 
C -1.29895 2.236584 -0.663008 2.5 0 2.5 
z
"/>
    </defs>
    <g clip-path="url(#p04d1d59fc9)">
     <use xlink:href="#C0_0_a14c63d788" x="79.109334" y="110.378119" style="fill: #ffffff; stroke: #000000; stroke-width: 0.4"/>
    </g>
    <g clip-path="url(#p04d1d59fc9)">
     <use xlink:href="#C0_0_a14c63d788" x="75.741861" y="110.593496" style="fill: #ffffff; stroke: #000000; stroke-width: 0.4"/>
    </g>
    <g clip-path="url(#p04d1d59fc9)">
     <use xlink:href="#C0_0_a14c63d788" x="79.805103" y="112.599058" style="fill: #ffffff; stroke: #000000; stroke-width: 0.4"/>
    </g>
   </g>
   <g id="PathCollection_2">
    <defs>
     <path id="C1_0_c6292de3d4" d="M 0 2.5 
C 0.663008 2.5 1.29895 2.236584 1.767767 1.767767 
C 2.236584 1.29895 2.5 0.663008 2.5 -0 
C 2.5 -0.663008 2.236584 -1.29895 1.767767 -1.767767 
C 1.29895 -2.236584 0.663008 -2.5 0 -2.5 
C -0.663008 -2.5 -1.29895 -2.236584 -1.767767 -1.767767 
C -2.236584 -1.29895 -2.5 -0.663008 -2.5 0 
C -2.5 0.663008 -2.236584 1.29895 -1.767767 1.767767 
C -1.29895 2.236584 -0.663008 2.5 0 2.5 
z
"/>
    </defs>
    <g clip-path="url(#p04d1d59fc9)">
     <use xlink:href="#C1_0_c6292de3d4" x="96.086698" y="120.583477" style="fill: #ffffff; stroke: #000000; stroke-width: 0.4"/>
    </g>
    <g clip-path="url(#p04d1d59fc9)">
     <use xlink:href="#C1_0_c6292de3d4" x="96.342775" y="121.732931" style="fill: #ffffff; stroke: #000000; stroke-width: 0.4"/>
    </g>
    <g clip-path="url(#p04d1d59fc9)">
     <use xlink:href="#C1_0_c6292de3d4" x="97.206538" y="121.868796" style="fill: #ffffff; stroke: #000000; stroke-width: 0.4"/>
    </g>
   </g>
   <g id="PathCollection_3">
    <defs>
     <path id="C2_0_9e9a4c24c1" d="M 0 2.5 
C 0.663008 2.5 1.29895 2.236584 1.767767 1.767767 
C 2.236584 1.29895 2.5 0.663008 2.5 -0 
C 2.5 -0.663008 2.236584 -1.29895 1.767767 -1.767767 
C 1.29895 -2.236584 0.663008 -2.5 0 -2.5 
C -0.663008 -2.5 -1.29895 -2.236584 -1.767767 -1.767767 
C -2.236584 -1.29895 -2.5 -0.663008 -2.5 0 
C -2.5 0.663008 -2.236584 1.29895 -1.767767 1.767767 
C -1.29895 2.236584 -0.663008 2.5 0 2.5 
z
"/>
    </defs>
    <g clip-path="url(#p04d1d59fc9)">
     <use xlink:href="#C2_0_9e9a4c24c1" x="127.184736" y="97.446957" style="fill: #ffffff; stroke: #000000; stroke-width: 0.4"/>
    </g>
    <g clip-path="url(#p04d1d59fc9)">
     <use xlink:href="#C2_0_9e9a4c24c1" x="127.296088" y="93.893608" style="fill: #ffffff; stroke: #000000; stroke-width: 0.4"/>
    </g>
    <g clip-path="url(#p04d1d59fc9)">
     <use xlink:href="#C2_0_9e9a4c24c1" x="128.808898" y="100.423648" style="fill: #ffffff; stroke: #000000; stroke-width: 0.4"/>
    </g>
   </g>
   <g id="PathCollection_4">
    <defs>
     <path id="C3_0_da9a168326" d="M 0 2.5 
C 0.663008 2.5 1.29895 2.236584 1.767767 1.767767 
C 2.236584 1.29895 2.5 0.663008 2.5 -0 
C 2.5 -0.663008 2.236584 -1.29895 1.767767 -1.767767 
C 1.29895 -2.236584 0.663008 -2.5 0 -2.5 
C -0.663008 -2.5 -1.29895 -2.236584 -1.767767 -1.767767 
C -2.236584 -1.29895 -2.5 -0.663008 -2.5 0 
C -2.5 0.663008 -2.236584 1.29895 -1.767767 1.767767 
C -1.29895 2.236584 -0.663008 2.5 0 2.5 
z
"/>
    </defs>
    <g clip-path="url(#p04d1d59fc9)">
     <use xlink:href="#C3_0_da9a168326" x="147.776023" y="119.953555" style="fill: #ffffff; stroke: #000000; stroke-width: 0.4"/>
    </g>
    <g clip-path="url(#p04d1d59fc9)">
     <use xlink:href="#C3_0_da9a168326" x="148.123734" y="121.066726" style="fill: #ffffff; stroke: #000000; stroke-width: 0.4"/>
    </g>
    <g clip-path="url(#p04d1d59fc9)">
     <use xlink:href="#C3_0_da9a168326" x="148.248677" y="120.73401" style="fill: #ffffff; stroke: #000000; stroke-width: 0.4"/>
    </g>
   </g>
   <g id="PathCollection_5">
    <defs>
     <path id="C4_0_61ef5fb80a" d="M 0 2.5 
C 0.663008 2.5 1.29895 2.236584 1.767767 1.767767 
C 2.236584 1.29895 2.5 0.663008 2.5 -0 
C 2.5 -0.663008 2.236584 -1.29895 1.767767 -1.767767 
C 1.29895 -2.236584 0.663008 -2.5 0 -2.5 
C -0.663008 -2.5 -1.29895 -2.236584 -1.767767 -1.767767 
C -2.236584 -1.29895 -2.5 -0.663008 -2.5 0 
C -2.5 0.663008 -2.236584 1.29895 -1.767767 1.767767 
C -1.29895 2.236584 -0.663008 2.5 0 2.5 
z
"/>
    </defs>
    <g clip-path="url(#p04d1d59fc9)">
     <use xlink:href="#C4_0_61ef5fb80a" x="181.543845" y="73.181826" style="fill: #ffffff; stroke: #000000; stroke-width: 0.4"/>
    </g>
    <g clip-path="url(#p04d1d59fc9)">
     <use xlink:href="#C4_0_61ef5fb80a" x="179.841264" y="75.490769" style="fill: #ffffff; stroke: #000000; stroke-width: 0.4"/>
    </g>
    <g clip-path="url(#p04d1d59fc9)">
     <use xlink:href="#C4_0_61ef5fb80a" x="178.965443" y="71.777624" style="fill: #ffffff; stroke: #000000; stroke-width: 0.4"/>
    </g>
   </g>
   <g id="PathCollection_6">
    <defs>
     <path id="C5_0_02b71ee11e" d="M 0 2.5 
C 0.663008 2.5 1.29895 2.236584 1.767767 1.767767 
C 2.236584 1.29895 2.5 0.663008 2.5 -0 
C 2.5 -0.663008 2.236584 -1.29895 1.767767 -1.767767 
C 1.29895 -2.236584 0.663008 -2.5 0 -2.5 
C -0.663008 -2.5 -1.29895 -2.236584 -1.767767 -1.767767 
C -2.236584 -1.29895 -2.5 -0.663008 -2.5 0 
C -2.5 0.663008 -2.236584 1.29895 -1.767767 1.767767 
C -1.29895 2.236584 -0.663008 2.5 0 2.5 
z
"/>
    </defs>
    <g clip-path="url(#p04d1d59fc9)">
     <use xlink:href="#C5_0_02b71ee11e" x="202.666459" y="115.115659" style="fill: #ffffff; stroke: #000000; stroke-width: 0.4"/>
    </g>
    <g clip-path="url(#p04d1d59fc9)">
     <use xlink:href="#C5_0_02b71ee11e" x="200.648476" y="116.212619" style="fill: #ffffff; stroke: #000000; stroke-width: 0.4"/>
    </g>
    <g clip-path="url(#p04d1d59fc9)">
     <use xlink:href="#C5_0_02b71ee11e" x="201.688083" y="116.380135" style="fill: #ffffff; stroke: #000000; stroke-width: 0.4"/>
    </g>
   </g>
   <g id="PathCollection_7">
    <defs>
     <path id="C6_0_ed47d38057" d="M 0 2.5 
C 0.663008 2.5 1.29895 2.236584 1.767767 1.767767 
C 2.236584 1.29895 2.5 0.663008 2.5 -0 
C 2.5 -0.663008 2.236584 -1.29895 1.767767 -1.767767 
C 1.29895 -2.236584 0.663008 -2.5 0 -2.5 
C -0.663008 -2.5 -1.29895 -2.236584 -1.767767 -1.767767 
C -2.236584 -1.29895 -2.5 -0.663008 -2.5 0 
C -2.5 0.663008 -2.236584 1.29895 -1.767767 1.767767 
C -1.29895 2.236584 -0.663008 2.5 0 2.5 
z
"/>
    </defs>
    <g clip-path="url(#p04d1d59fc9)">
     <use xlink:href="#C6_0_ed47d38057" x="233.219195" y="37.696204" style="fill: #ffffff; stroke: #000000; stroke-width: 0.4"/>
    </g>
    <g clip-path="url(#p04d1d59fc9)">
     <use xlink:href="#C6_0_ed47d38057" x="232.586915" y="40.781742" style="fill: #ffffff; stroke: #000000; stroke-width: 0.4"/>
    </g>
    <g clip-path="url(#p04d1d59fc9)">
     <use xlink:href="#C6_0_ed47d38057" x="229.106096" y="46.162328" style="fill: #ffffff; stroke: #000000; stroke-width: 0.4"/>
    </g>
   </g>
   <g id="PathCollection_8">
    <defs>
     <path id="C7_0_f3c35d7e82" d="M 0 2.5 
C 0.663008 2.5 1.29895 2.236584 1.767767 1.767767 
C 2.236584 1.29895 2.5 0.663008 2.5 -0 
C 2.5 -0.663008 2.236584 -1.29895 1.767767 -1.767767 
C 1.29895 -2.236584 0.663008 -2.5 0 -2.5 
C -0.663008 -2.5 -1.29895 -2.236584 -1.767767 -1.767767 
C -2.236584 -1.29895 -2.5 -0.663008 -2.5 0 
C -2.5 0.663008 -2.236584 1.29895 -1.767767 1.767767 
C -1.29895 2.236584 -0.663008 2.5 0 2.5 
z
"/>
    </defs>
    <g clip-path="url(#p04d1d59fc9)">
     <use xlink:href="#C7_0_f3c35d7e82" x="254.440493" y="102.465492" style="fill: #ffffff; stroke: #000000; stroke-width: 0.4"/>
    </g>
    <g clip-path="url(#p04d1d59fc9)">
     <use xlink:href="#C7_0_f3c35d7e82" x="253.575885" y="109.10901" style="fill: #ffffff; stroke: #000000; stroke-width: 0.4"/>
    </g>
    <g clip-path="url(#p04d1d59fc9)">
     <use xlink:href="#C7_0_f3c35d7e82" x="254.221554" y="109.044938" style="fill: #ffffff; stroke: #000000; stroke-width: 0.4"/>
    </g>
   </g>
   <g id="PathCollection_9">
    <defs>
     <path id="C8_0_8512261ac1" d="M 0 2.5 
C 0.663008 2.5 1.29895 2.236584 1.767767 1.767767 
C 2.236584 1.29895 2.5 0.663008 2.5 -0 
C 2.5 -0.663008 2.236584 -1.29895 1.767767 -1.767767 
C 1.29895 -2.236584 0.663008 -2.5 0 -2.5 
C -0.663008 -2.5 -1.29895 -2.236584 -1.767767 -1.767767 
C -2.236584 -1.29895 -2.5 -0.663008 -2.5 0 
C -2.5 0.663008 -2.236584 1.29895 -1.767767 1.767767 
C -1.29895 2.236584 -0.663008 2.5 0 2.5 
z
"/>
    </defs>
    <g clip-path="url(#p04d1d59fc9)">
     <use xlink:href="#C8_0_8512261ac1" x="282.246883" y="103.410375" style="fill: #ffffff; stroke: #000000; stroke-width: 0.4"/>
    </g>
    <g clip-path="url(#p04d1d59fc9)">
     <use xlink:href="#C8_0_8512261ac1" x="282.440595" y="104.940407" style="fill: #ffffff; stroke: #000000; stroke-width: 0.4"/>
    </g>
    <g clip-path="url(#p04d1d59fc9)">
     <use xlink:href="#C8_0_8512261ac1" x="282.472487" y="106.279764" style="fill: #ffffff; stroke: #000000; stroke-width: 0.4"/>
    </g>
   </g>
   <g id="PathCollection_10">
    <defs>
     <path id="C9_0_fb11884970" d="M 0 2.5 
C 0.663008 2.5 1.29895 2.236584 1.767767 1.767767 
C 2.236584 1.29895 2.5 0.663008 2.5 -0 
C 2.5 -0.663008 2.236584 -1.29895 1.767767 -1.767767 
C 1.29895 -2.236584 0.663008 -2.5 0 -2.5 
C -0.663008 -2.5 -1.29895 -2.236584 -1.767767 -1.767767 
C -2.236584 -1.29895 -2.5 -0.663008 -2.5 0 
C -2.5 0.663008 -2.236584 1.29895 -1.767767 1.767767 
C -1.29895 2.236584 -0.663008 2.5 0 2.5 
z
"/>
    </defs>
    <g clip-path="url(#p04d1d59fc9)">
     <use xlink:href="#C9_0_fb11884970" x="302.630593" y="120.91079" style="fill: #ffffff; stroke: #000000; stroke-width: 0.4"/>
    </g>
    <g clip-path="url(#p04d1d59fc9)">
     <use xlink:href="#C9_0_fb11884970" x="304.578539" y="121.745282" style="fill: #ffffff; stroke: #000000; stroke-width: 0.4"/>
    </g>
    <g clip-path="url(#p04d1d59fc9)">
     <use xlink:href="#C9_0_fb11884970" x="301.956964" y="123.884393" style="fill: #ffffff; stroke: #000000; stroke-width: 0.4"/>
    </g>
   </g>
   <g id="PathCollection_11">
    <path d="M 76.557094 120.153111 
L 74.057094 125.153111 
L 79.057094 125.153111 
z
" clip-path="url(#p04d1d59fc9)" style="fill: #ffffff; stroke: #000000; stroke-width: 0.4"/>
    <path d="M 76.570677 120.440282 
L 74.070677 125.440282 
L 79.070677 125.440282 
z
" clip-path="url(#p04d1d59fc9)" style="fill: #ffffff; stroke: #000000; stroke-width: 0.4"/>
    <path d="M 79.844666 120.429474 
L 77.344666 125.429474 
L 82.344666 125.429474 
z
" clip-path="url(#p04d1d59fc9)" style="fill: #ffffff; stroke: #000000; stroke-width: 0.4"/>
   </g>
   <g id="PathCollection_12">
    <path d="M 96.12293 122.193411 
L 93.62293 127.193411 
L 98.62293 127.193411 
z
" clip-path="url(#p04d1d59fc9)" style="fill: #ffffff; stroke: #000000; stroke-width: 0.4"/>
    <path d="M 97.039847 122.754629 
L 94.539847 127.754629 
L 99.539847 127.754629 
z
" clip-path="url(#p04d1d59fc9)" style="fill: #ffffff; stroke: #000000; stroke-width: 0.4"/>
    <path d="M 98.052573 123.012465 
L 95.552573 128.012465 
L 100.552573 128.012465 
z
" clip-path="url(#p04d1d59fc9)" style="fill: #ffffff; stroke: #000000; stroke-width: 0.4"/>
   </g>
   <g id="PathCollection_13">
    <path d="M 128.909577 114.041476 
L 126.409577 119.041476 
L 131.409577 119.041476 
z
" clip-path="url(#p04d1d59fc9)" style="fill: #ffffff; stroke: #000000; stroke-width: 0.4"/>
    <path d="M 127.270887 116.612887 
L 124.770887 121.612887 
L 129.770887 121.612887 
z
" clip-path="url(#p04d1d59fc9)" style="fill: #ffffff; stroke: #000000; stroke-width: 0.4"/>
    <path d="M 130.971249 115.573824 
L 128.471249 120.573824 
L 133.471249 120.573824 
z
" clip-path="url(#p04d1d59fc9)" style="fill: #ffffff; stroke: #000000; stroke-width: 0.4"/>
   </g>
   <g id="PathCollection_14">
    <path d="M 148.219789 121.230773 
L 145.719789 126.230773 
L 150.719789 126.230773 
z
" clip-path="url(#p04d1d59fc9)" style="fill: #ffffff; stroke: #000000; stroke-width: 0.4"/>
    <path d="M 147.566659 121.993473 
L 145.066659 126.993473 
L 150.066659 126.993473 
z
" clip-path="url(#p04d1d59fc9)" style="fill: #ffffff; stroke: #000000; stroke-width: 0.4"/>
   </g>
   <g id="PathCollection_15">
    <path d="M 180.457894 104.5332 
L 177.957894 109.5332 
L 182.957894 109.5332 
z
" clip-path="url(#p04d1d59fc9)" style="fill: #ffffff; stroke: #000000; stroke-width: 0.4"/>
    <path d="M 180.326145 108.748894 
L 177.826145 113.748894 
L 182.826145 113.748894 
z
" clip-path="url(#p04d1d59fc9)" style="fill: #ffffff; stroke: #000000; stroke-width: 0.4"/>
    <path d="M 179.183813 107.959175 
L 176.683813 112.959175 
L 181.683813 112.959175 
z
" clip-path="url(#p04d1d59fc9)" style="fill: #ffffff; stroke: #000000; stroke-width: 0.4"/>
   </g>
   <g id="PathCollection_16">
    <path d="M 198.654985 119.478415 
L 196.154985 124.478415 
L 201.154985 124.478415 
z
" clip-path="url(#p04d1d59fc9)" style="fill: #ffffff; stroke: #000000; stroke-width: 0.4"/>
    <path d="M 199.127014 120.887249 
L 196.627014 125.887249 
L 201.627014 125.887249 
z
" clip-path="url(#p04d1d59fc9)" style="fill: #ffffff; stroke: #000000; stroke-width: 0.4"/>
    <path d="M 203.287846 119.131804 
L 200.787846 124.131804 
L 205.787846 124.131804 
z
" clip-path="url(#p04d1d59fc9)" style="fill: #ffffff; stroke: #000000; stroke-width: 0.4"/>
   </g>
   <g id="PathCollection_17">
    <path d="M 229.640951 97.155545 
L 227.140951 102.155545 
L 232.140951 102.155545 
z
" clip-path="url(#p04d1d59fc9)" style="fill: #ffffff; stroke: #000000; stroke-width: 0.4"/>
    <path d="M 229.953836 101.055505 
L 227.453836 106.055505 
L 232.453836 106.055505 
z
" clip-path="url(#p04d1d59fc9)" style="fill: #ffffff; stroke: #000000; stroke-width: 0.4"/>
    <path d="M 228.914774 103.31041 
L 226.414774 108.31041 
L 231.414774 108.31041 
z
" clip-path="url(#p04d1d59fc9)" style="fill: #ffffff; stroke: #000000; stroke-width: 0.4"/>
   </g>
   <g id="PathCollection_18">
    <path d="M 254.351042 115.911172 
L 251.851042 120.911172 
L 256.851042 120.911172 
z
" clip-path="url(#p04d1d59fc9)" style="fill: #ffffff; stroke: #000000; stroke-width: 0.4"/>
    <path d="M 251.038226 116.419896 
L 248.538226 121.419896 
L 253.538226 121.419896 
z
" clip-path="url(#p04d1d59fc9)" style="fill: #ffffff; stroke: #000000; stroke-width: 0.4"/>
    <path d="M 251.910854 117.885854 
L 249.410854 122.885854 
L 254.410854 122.885854 
z
" clip-path="url(#p04d1d59fc9)" style="fill: #ffffff; stroke: #000000; stroke-width: 0.4"/>
   </g>
   <g id="PathCollection_19">
    <path d="M 282.591531 119.699197 
L 280.091531 124.699197 
L 285.091531 124.699197 
z
" clip-path="url(#p04d1d59fc9)" style="fill: #ffffff; stroke: #000000; stroke-width: 0.4"/>
    <path d="M 280.978959 119.872117 
L 278.478959 124.872117 
L 283.478959 124.872117 
z
" clip-path="url(#p04d1d59fc9)" style="fill: #ffffff; stroke: #000000; stroke-width: 0.4"/>
    <path d="M 281.989855 119.760182 
L 279.489855 124.760182 
L 284.489855 124.760182 
z
" clip-path="url(#p04d1d59fc9)" style="fill: #ffffff; stroke: #000000; stroke-width: 0.4"/>
   </g>
   <g id="PathCollection_20">
    <path d="M 304.419202 122.792455 
L 301.919202 127.792455 
L 306.919202 127.792455 
z
" clip-path="url(#p04d1d59fc9)" style="fill: #ffffff; stroke: #000000; stroke-width: 0.4"/>
    <path d="M 301.790825 123.136751 
L 299.290825 128.136751 
L 304.290825 128.136751 
z
" clip-path="url(#p04d1d59fc9)" style="fill: #ffffff; stroke: #000000; stroke-width: 0.4"/>
    <path d="M 305.083268 122.739961 
L 302.583268 127.739961 
L 307.583268 127.739961 
z
" clip-path="url(#p04d1d59fc9)" style="fill: #ffffff; stroke: #000000; stroke-width: 0.4"/>
   </g>
   <g id="PathCollection_21">
    <path d="M 75.13185 117.448915 
L 80.13185 117.448915 
L 80.13185 112.448915 
L 75.13185 112.448915 
z
" clip-path="url(#p04d1d59fc9)" style="fill: #ffffff; stroke: #000000; stroke-width: 0.4"/>
    <path d="M 76.532325 117.721418 
L 81.532325 117.721418 
L 81.532325 112.721418 
L 76.532325 112.721418 
z
" clip-path="url(#p04d1d59fc9)" style="fill: #ffffff; stroke: #000000; stroke-width: 0.4"/>
    <path d="M 76.464075 118.06031 
L 81.464075 118.06031 
L 81.464075 113.06031 
L 76.464075 113.06031 
z
" clip-path="url(#p04d1d59fc9)" style="fill: #ffffff; stroke: #000000; stroke-width: 0.4"/>
   </g>
   <g id="PathCollection_22">
    <path d="M 94.973765 123.920286 
L 99.973765 123.920286 
L 99.973765 118.920286 
L 94.973765 118.920286 
z
" clip-path="url(#p04d1d59fc9)" style="fill: #ffffff; stroke: #000000; stroke-width: 0.4"/>
    <path d="M 93.552301 124.851274 
L 98.552301 124.851274 
L 98.552301 119.851274 
L 93.552301 119.851274 
z
" clip-path="url(#p04d1d59fc9)" style="fill: #ffffff; stroke: #000000; stroke-width: 0.4"/>
    <path d="M 98.054993 124.137207 
L 103.054993 124.137207 
L 103.054993 119.137207 
L 98.054993 119.137207 
z
" clip-path="url(#p04d1d59fc9)" style="fill: #ffffff; stroke: #000000; stroke-width: 0.4"/>
   </g>
   <g id="PathCollection_23">
    <path d="M 126.418981 97.032022 
L 131.418981 97.032022 
L 131.418981 92.032022 
L 126.418981 92.032022 
z
" clip-path="url(#p04d1d59fc9)" style="fill: #ffffff; stroke: #000000; stroke-width: 0.4"/>
    <path d="M 126.830949 95.660243 
L 131.830949 95.660243 
L 131.830949 90.660243 
L 126.830949 90.660243 
z
" clip-path="url(#p04d1d59fc9)" style="fill: #ffffff; stroke: #000000; stroke-width: 0.4"/>
    <path d="M 128.177412 98.714903 
L 133.177412 98.714903 
L 133.177412 93.714903 
L 128.177412 93.714903 
z
" clip-path="url(#p04d1d59fc9)" style="fill: #ffffff; stroke: #000000; stroke-width: 0.4"/>
   </g>
   <g id="PathCollection_24">
    <path d="M 145.847018 120.644844 
L 150.847018 120.644844 
L 150.847018 115.644844 
L 145.847018 115.644844 
z
" clip-path="url(#p04d1d59fc9)" style="fill: #ffffff; stroke: #000000; stroke-width: 0.4"/>
    <path d="M 147.321763 121.485513 
L 152.321763 121.485513 
L 152.321763 116.485513 
L 147.321763 116.485513 
z
" clip-path="url(#p04d1d59fc9)" style="fill: #ffffff; stroke: #000000; stroke-width: 0.4"/>
    <path d="M 147.155747 120.371569 
L 152.155747 120.371569 
L 152.155747 115.371569 
L 147.155747 115.371569 
z
" clip-path="url(#p04d1d59fc9)" style="fill: #ffffff; stroke: #000000; stroke-width: 0.4"/>
   </g>
   <g id="PathCollection_25">
    <path d="M 175.683771 71.341074 
L 180.683771 71.341074 
L 180.683771 66.341074 
L 175.683771 66.341074 
z
" clip-path="url(#p04d1d59fc9)" style="fill: #ffffff; stroke: #000000; stroke-width: 0.4"/>
    <path d="M 175.792118 76.138056 
L 180.792118 76.138056 
L 180.792118 71.138056 
L 175.792118 71.138056 
z
" clip-path="url(#p04d1d59fc9)" style="fill: #ffffff; stroke: #000000; stroke-width: 0.4"/>
    <path d="M 178.351083 80.148407 
L 183.351083 80.148407 
L 183.351083 75.148407 
L 178.351083 75.148407 
z
" clip-path="url(#p04d1d59fc9)" style="fill: #ffffff; stroke: #000000; stroke-width: 0.4"/>
   </g>
   <g id="PathCollection_26">
    <path d="M 199.525295 112.831801 
L 204.525295 112.831801 
L 204.525295 107.831801 
L 199.525295 107.831801 
z
" clip-path="url(#p04d1d59fc9)" style="fill: #ffffff; stroke: #000000; stroke-width: 0.4"/>
    <path d="M 198.25774 115.231836 
L 203.25774 115.231836 
L 203.25774 110.231836 
L 198.25774 110.231836 
z
" clip-path="url(#p04d1d59fc9)" style="fill: #ffffff; stroke: #000000; stroke-width: 0.4"/>
    <path d="M 199.721089 116.062468 
L 204.721089 116.062468 
L 204.721089 111.062468 
L 199.721089 111.062468 
z
" clip-path="url(#p04d1d59fc9)" style="fill: #ffffff; stroke: #000000; stroke-width: 0.4"/>
   </g>
   <g id="PathCollection_27">
    <path d="M 227.372454 34.695191 
L 232.372454 34.695191 
L 232.372454 29.695191 
L 227.372454 29.695191 
z
" clip-path="url(#p04d1d59fc9)" style="fill: #ffffff; stroke: #000000; stroke-width: 0.4"/>
    <path d="M 228.943826 38.321104 
L 233.943826 38.321104 
L 233.943826 33.321104 
L 228.943826 33.321104 
z
" clip-path="url(#p04d1d59fc9)" style="fill: #ffffff; stroke: #000000; stroke-width: 0.4"/>
    <path d="M 227.668341 43.463926 
L 232.668341 43.463926 
L 232.668341 38.463926 
L 227.668341 38.463926 
z
" clip-path="url(#p04d1d59fc9)" style="fill: #ffffff; stroke: #000000; stroke-width: 0.4"/>
   </g>
   <g id="PathCollection_28">
    <path d="M 247.934191 102.132386 
L 252.934191 102.132386 
L 252.934191 97.132386 
L 247.934191 97.132386 
z
" clip-path="url(#p04d1d59fc9)" style="fill: #ffffff; stroke: #000000; stroke-width: 0.4"/>
    <path d="M 249.52908 106.19137 
L 254.52908 106.19137 
L 254.52908 101.19137 
L 249.52908 101.19137 
z
" clip-path="url(#p04d1d59fc9)" style="fill: #ffffff; stroke: #000000; stroke-width: 0.4"/>
    <path d="M 250.260093 107.323841 
L 255.260093 107.323841 
L 255.260093 102.323841 
L 250.260093 102.323841 
z
" clip-path="url(#p04d1d59fc9)" style="fill: #ffffff; stroke: #000000; stroke-width: 0.4"/>
   </g>
   <g id="PathCollection_29">
    <path d="M 282.288909 104.906051 
L 287.288909 104.906051 
L 287.288909 99.906051 
L 282.288909 99.906051 
z
" clip-path="url(#p04d1d59fc9)" style="fill: #ffffff; stroke: #000000; stroke-width: 0.4"/>
    <path d="M 280.571116 105.122973 
L 285.571116 105.122973 
L 285.571116 100.122973 
L 280.571116 100.122973 
z
" clip-path="url(#p04d1d59fc9)" style="fill: #ffffff; stroke: #000000; stroke-width: 0.4"/>
    <path d="M 280.106968 108.088085 
L 285.106968 108.088085 
L 285.106968 103.088085 
L 280.106968 103.088085 
z
" clip-path="url(#p04d1d59fc9)" style="fill: #ffffff; stroke: #000000; stroke-width: 0.4"/>
   </g>
   <g id="PathCollection_30">
    <path d="M 300.241344 122.367095 
L 305.241344 122.367095 
L 305.241344 117.367095 
L 300.241344 117.367095 
z
" clip-path="url(#p04d1d59fc9)" style="fill: #ffffff; stroke: #000000; stroke-width: 0.4"/>
    <path d="M 300.05968 123.598377 
L 305.05968 123.598377 
L 305.05968 118.598377 
L 300.05968 118.598377 
z
" clip-path="url(#p04d1d59fc9)" style="fill: #ffffff; stroke: #000000; stroke-width: 0.4"/>
    <path d="M 299.92865 123.298855 
L 304.92865 123.298855 
L 304.92865 118.298855 
L 299.92865 118.298855 
z
" clip-path="url(#p04d1d59fc9)" style="fill: #ffffff; stroke: #000000; stroke-width: 0.4"/>
   </g>
   <g id="PathCollection_31">
    <path d="M 76.871156 122.086431 
L 80.40669 118.550897 
L 76.871156 115.015363 
L 73.335622 118.550897 
z
" clip-path="url(#p04d1d59fc9)" style="fill: #ffffff; stroke: #000000; stroke-width: 0.4"/>
    <path d="M 77.765649 121.407875 
L 81.301183 117.872341 
L 77.765649 114.336807 
L 74.230115 117.872341 
z
" clip-path="url(#p04d1d59fc9)" style="fill: #ffffff; stroke: #000000; stroke-width: 0.4"/>
    <path d="M 75.909538 121.471948 
L 79.445071 117.936414 
L 75.909538 114.40088 
L 72.374004 117.936414 
z
" clip-path="url(#p04d1d59fc9)" style="fill: #ffffff; stroke: #000000; stroke-width: 0.4"/>
   </g>
   <g id="PathCollection_32">
    <path d="M 97.790509 125.595005 
L 101.326043 122.059471 
L 97.790509 118.523938 
L 94.254976 122.059471 
z
" clip-path="url(#p04d1d59fc9)" style="fill: #ffffff; stroke: #000000; stroke-width: 0.4"/>
    <path d="M 96.926986 127.555793 
L 100.46252 124.020259 
L 96.926986 120.484725 
L 93.391452 124.020259 
z
" clip-path="url(#p04d1d59fc9)" style="fill: #ffffff; stroke: #000000; stroke-width: 0.4"/>
    <path d="M 99.013605 128.055253 
L 102.549138 124.519719 
L 99.013605 120.984186 
L 95.478071 124.519719 
z
" clip-path="url(#p04d1d59fc9)" style="fill: #ffffff; stroke: #000000; stroke-width: 0.4"/>
   </g>
   <g id="PathCollection_33">
    <path d="M 127.085045 112.964137 
L 130.620579 109.428603 
L 127.085045 105.89307 
L 123.549511 109.428603 
z
" clip-path="url(#p04d1d59fc9)" style="fill: #ffffff; stroke: #000000; stroke-width: 0.4"/>
    <path d="M 130.041869 113.013543 
L 133.577403 109.478009 
L 130.041869 105.942475 
L 126.506335 109.478009 
z
" clip-path="url(#p04d1d59fc9)" style="fill: #ffffff; stroke: #000000; stroke-width: 0.4"/>
    <path d="M 131.186819 112.606718 
L 134.722352 109.071184 
L 131.186819 105.53565 
L 127.651285 109.071184 
z
" clip-path="url(#p04d1d59fc9)" style="fill: #ffffff; stroke: #000000; stroke-width: 0.4"/>
   </g>
   <g id="PathCollection_34">
    <path d="M 148.006445 123.235113 
L 151.541979 119.699579 
L 148.006445 116.164045 
L 144.470911 119.699579 
z
" clip-path="url(#p04d1d59fc9)" style="fill: #ffffff; stroke: #000000; stroke-width: 0.4"/>
    <path d="M 150.092322 126.202541 
L 153.627856 122.667007 
L 150.092322 119.131473 
L 146.556788 122.667007 
z
" clip-path="url(#p04d1d59fc9)" style="fill: #ffffff; stroke: #000000; stroke-width: 0.4"/>
    <path d="M 147.260796 126.814708 
L 150.79633 123.279174 
L 147.260796 119.74364 
L 143.725262 123.279174 
z
" clip-path="url(#p04d1d59fc9)" style="fill: #ffffff; stroke: #000000; stroke-width: 0.4"/>
   </g>
   <g id="PathCollection_35">
    <path d="M 179.924346 107.158971 
L 183.45988 103.623437 
L 179.924346 100.087903 
L 176.388812 103.623437 
z
" clip-path="url(#p04d1d59fc9)" style="fill: #ffffff; stroke: #000000; stroke-width: 0.4"/>
    <path d="M 181.13004 106.328338 
L 184.665574 102.792804 
L 181.13004 99.257271 
L 177.594506 102.792804 
z
" clip-path="url(#p04d1d59fc9)" style="fill: #ffffff; stroke: #000000; stroke-width: 0.4"/>
    <path d="M 180.34664 107.517162 
L 183.882174 103.981628 
L 180.34664 100.446095 
L 176.811106 103.981628 
z
" clip-path="url(#p04d1d59fc9)" style="fill: #ffffff; stroke: #000000; stroke-width: 0.4"/>
   </g>
   <g id="PathCollection_36">
    <path d="M 200.54726 122.550381 
L 204.082794 119.014847 
L 200.54726 115.479313 
L 197.011726 119.014847 
z
" clip-path="url(#p04d1d59fc9)" style="fill: #ffffff; stroke: #000000; stroke-width: 0.4"/>
    <path d="M 200.014707 124.805287 
L 203.550241 121.269753 
L 200.014707 117.734219 
L 196.479173 121.269753 
z
" clip-path="url(#p04d1d59fc9)" style="fill: #ffffff; stroke: #000000; stroke-width: 0.4"/>
    <path d="M 203.232646 124.153749 
L 206.76818 120.618215 
L 203.232646 117.082682 
L 199.697112 120.618215 
z
" clip-path="url(#p04d1d59fc9)" style="fill: #ffffff; stroke: #000000; stroke-width: 0.4"/>
   </g>
   <g id="PathCollection_37">
    <path d="M 228.967595 109.709539 
L 232.503129 106.174005 
L 228.967595 102.638471 
L 225.432061 106.174005 
z
" clip-path="url(#p04d1d59fc9)" style="fill: #ffffff; stroke: #000000; stroke-width: 0.4"/>
    <path d="M 229.853837 110.100152 
L 233.38937 106.564619 
L 229.853837 103.029085 
L 226.318303 106.564619 
z
" clip-path="url(#p04d1d59fc9)" style="fill: #ffffff; stroke: #000000; stroke-width: 0.4"/>
    <path d="M 230.272148 107.995008 
L 233.807682 104.459474 
L 230.272148 100.92394 
L 226.736614 104.459474 
z
" clip-path="url(#p04d1d59fc9)" style="fill: #ffffff; stroke: #000000; stroke-width: 0.4"/>
   </g>
   <g id="PathCollection_38">
    <path d="M 252.222581 122.618314 
L 255.758115 119.08278 
L 252.222581 115.547246 
L 248.687047 119.08278 
z
" clip-path="url(#p04d1d59fc9)" style="fill: #ffffff; stroke: #000000; stroke-width: 0.4"/>
    <path d="M 250.820327 126.752179 
L 254.355861 123.216645 
L 250.820327 119.681111 
L 247.284793 123.216645 
z
" clip-path="url(#p04d1d59fc9)" style="fill: #ffffff; stroke: #000000; stroke-width: 0.4"/>
    <path d="M 252.780211 124.880939 
L 256.315745 121.345405 
L 252.780211 117.809871 
L 249.244677 121.345405 
z
" clip-path="url(#p04d1d59fc9)" style="fill: #ffffff; stroke: #000000; stroke-width: 0.4"/>
   </g>
   <g id="PathCollection_39">
    <path d="M 281.052161 125.374996 
L 284.587695 121.839462 
L 281.052161 118.303928 
L 277.516627 121.839462 
z
" clip-path="url(#p04d1d59fc9)" style="fill: #ffffff; stroke: #000000; stroke-width: 0.4"/>
    <path d="M 282.544372 126.147731 
L 286.079906 122.612197 
L 282.544372 119.076664 
L 279.008838 122.612197 
z
" clip-path="url(#p04d1d59fc9)" style="fill: #ffffff; stroke: #000000; stroke-width: 0.4"/>
    <path d="M 281.586839 126.218752 
L 285.122373 122.683218 
L 281.586839 119.147684 
L 278.051305 122.683218 
z
" clip-path="url(#p04d1d59fc9)" style="fill: #ffffff; stroke: #000000; stroke-width: 0.4"/>
   </g>
   <g id="PathCollection_40">
    <path d="M 300.911566 128.022059 
L 304.4471 124.486525 
L 300.911566 120.950991 
L 297.376032 124.486525 
z
" clip-path="url(#p04d1d59fc9)" style="fill: #ffffff; stroke: #000000; stroke-width: 0.4"/>
    <path d="M 303.769814 129.102808 
L 307.305348 125.567274 
L 303.769814 122.03174 
L 300.23428 125.567274 
z
" clip-path="url(#p04d1d59fc9)" style="fill: #ffffff; stroke: #000000; stroke-width: 0.4"/>
    <path d="M 305.516907 128.62419 
L 309.052441 125.088657 
L 305.516907 121.553123 
L 301.981373 125.088657 
z
" clip-path="url(#p04d1d59fc9)" style="fill: #ffffff; stroke: #000000; stroke-width: 0.4"/>
   </g>
   <g id="PathCollection_41">
    <defs>
     <path id="Ca_0_5b7ee012e7" d="M -0.833333 2.5 
L 0.833333 2.5 
L 0.833333 0.833333 
L 2.5 0.833333 
L 2.5 -0.833333 
L 0.833333 -0.833333 
L 0.833333 -2.5 
L -0.833333 -2.5 
L -0.833333 -0.833333 
L -2.5 -0.833333 
L -2.5 0.833333 
L -0.833333 0.833333 
z
"/>
    </defs>
    <g clip-path="url(#p04d1d59fc9)">
     <use xlink:href="#Ca_0_5b7ee012e7" x="77.901713" y="120.645234" style="fill: #ffffff; stroke: #000000; stroke-width: 0.4"/>
    </g>
    <g clip-path="url(#p04d1d59fc9)">
     <use xlink:href="#Ca_0_5b7ee012e7" x="79.522508" y="121.339229" style="fill: #ffffff; stroke: #000000; stroke-width: 0.4"/>
    </g>
    <g clip-path="url(#p04d1d59fc9)">
     <use xlink:href="#Ca_0_5b7ee012e7" x="78.183618" y="121.699736" style="fill: #ffffff; stroke: #000000; stroke-width: 0.4"/>
    </g>
   </g>
   <g id="PathCollection_42">
    <defs>
     <path id="Cb_0_312c1a1250" d="M -0.833333 2.5 
L 0.833333 2.5 
L 0.833333 0.833333 
L 2.5 0.833333 
L 2.5 -0.833333 
L 0.833333 -0.833333 
L 0.833333 -2.5 
L -0.833333 -2.5 
L -0.833333 -0.833333 
L -2.5 -0.833333 
L -2.5 0.833333 
L -0.833333 0.833333 
z
"/>
    </defs>
    <g clip-path="url(#p04d1d59fc9)">
     <use xlink:href="#Cb_0_312c1a1250" x="97.635703" y="124.065033" style="fill: #ffffff; stroke: #000000; stroke-width: 0.4"/>
    </g>
    <g clip-path="url(#p04d1d59fc9)">
     <use xlink:href="#Cb_0_312c1a1250" x="97.941983" y="124.409329" style="fill: #ffffff; stroke: #000000; stroke-width: 0.4"/>
    </g>
    <g clip-path="url(#p04d1d59fc9)">
     <use xlink:href="#Cb_0_312c1a1250" x="96.426654" y="124.376906" style="fill: #ffffff; stroke: #000000; stroke-width: 0.4"/>
    </g>
   </g>
   <g id="PathCollection_43">
    <defs>
     <path id="Cc_0_40fc8d2470" d="M -0.833333 2.5 
L 0.833333 2.5 
L 0.833333 0.833333 
L 2.5 0.833333 
L 2.5 -0.833333 
L 0.833333 -0.833333 
L 0.833333 -2.5 
L -0.833333 -2.5 
L -0.833333 -0.833333 
L -2.5 -0.833333 
L -2.5 0.833333 
L -0.833333 0.833333 
z
"/>
    </defs>
    <g clip-path="url(#p04d1d59fc9)">
     <use xlink:href="#Cc_0_40fc8d2470" x="131.704615" y="116.600917" style="fill: #ffffff; stroke: #000000; stroke-width: 0.4"/>
    </g>
    <g clip-path="url(#p04d1d59fc9)">
     <use xlink:href="#Cc_0_40fc8d2470" x="129.159029" y="118.114738" style="fill: #ffffff; stroke: #000000; stroke-width: 0.4"/>
    </g>
   </g>
   <g id="PathCollection_44">
    <defs>
     <path id="m01fc3ac31b" d="M -0.833333 2.5 
L 0.833333 2.5 
L 0.833333 0.833333 
L 2.5 0.833333 
L 2.5 -0.833333 
L 0.833333 -0.833333 
L 0.833333 -2.5 
L -0.833333 -2.5 
L -0.833333 -0.833333 
L -2.5 -0.833333 
L -2.5 0.833333 
L -0.833333 0.833333 
z
" style="stroke: #000000; stroke-width: 0.4"/>
    </defs>
    <g clip-path="url(#p04d1d59fc9)">
     <use xlink:href="#m01fc3ac31b" x="149.616378" y="122.846874" style="fill: #ffffff; stroke: #000000; stroke-width: 0.4"/>
    </g>
   </g>
   <g id="PathCollection_45">
    <defs>
     <path id="Cd_0_4940b6dcee" d="M -0.833333 2.5 
L 0.833333 2.5 
L 0.833333 0.833333 
L 2.5 0.833333 
L 2.5 -0.833333 
L 0.833333 -0.833333 
L 0.833333 -2.5 
L -0.833333 -2.5 
L -0.833333 -0.833333 
L -2.5 -0.833333 
L -2.5 0.833333 
L -0.833333 0.833333 
z
"/>
    </defs>
    <g clip-path="url(#p04d1d59fc9)">
     <use xlink:href="#Cd_0_4940b6dcee" x="182.154067" y="108.114721" style="fill: #ffffff; stroke: #000000; stroke-width: 0.4"/>
    </g>
    <g clip-path="url(#p04d1d59fc9)">
     <use xlink:href="#Cd_0_4940b6dcee" x="179.073627" y="109.243332" style="fill: #ffffff; stroke: #000000; stroke-width: 0.4"/>
    </g>
    <g clip-path="url(#p04d1d59fc9)">
     <use xlink:href="#Cd_0_4940b6dcee" x="179.520127" y="110.920037" style="fill: #ffffff; stroke: #000000; stroke-width: 0.4"/>
    </g>
   </g>
   <g id="PathCollection_46">
    <defs>
     <path id="Ce_0_91251e8a0d" d="M -0.833333 2.5 
L 0.833333 2.5 
L 0.833333 0.833333 
L 2.5 0.833333 
L 2.5 -0.833333 
L 0.833333 -0.833333 
L 0.833333 -2.5 
L -0.833333 -2.5 
L -0.833333 -0.833333 
L -2.5 -0.833333 
L -2.5 0.833333 
L -0.833333 0.833333 
z
"/>
    </defs>
    <g clip-path="url(#p04d1d59fc9)">
     <use xlink:href="#Ce_0_91251e8a0d" x="202.062738" y="120.266972" style="fill: #ffffff; stroke: #000000; stroke-width: 0.4"/>
    </g>
    <g clip-path="url(#p04d1d59fc9)">
     <use xlink:href="#Ce_0_91251e8a0d" x="203.294648" y="121.554607" style="fill: #ffffff; stroke: #000000; stroke-width: 0.4"/>
    </g>
    <g clip-path="url(#p04d1d59fc9)">
     <use xlink:href="#Ce_0_91251e8a0d" x="202.549726" y="121.91743" style="fill: #ffffff; stroke: #000000; stroke-width: 0.4"/>
    </g>
   </g>
   <g id="PathCollection_47">
    <defs>
     <path id="Cf_0_a87360dab8" d="M -0.833333 2.5 
L 0.833333 2.5 
L 0.833333 0.833333 
L 2.5 0.833333 
L 2.5 -0.833333 
L 0.833333 -0.833333 
L 0.833333 -2.5 
L -0.833333 -2.5 
L -0.833333 -0.833333 
L -2.5 -0.833333 
L -2.5 0.833333 
L -0.833333 0.833333 
z
"/>
    </defs>
    <g clip-path="url(#p04d1d59fc9)">
     <use xlink:href="#Cf_0_a87360dab8" x="232.062645" y="111.048183" style="fill: #ffffff; stroke: #000000; stroke-width: 0.4"/>
    </g>
    <g clip-path="url(#p04d1d59fc9)">
     <use xlink:href="#Cf_0_a87360dab8" x="233.802786" y="112.602918" style="fill: #ffffff; stroke: #000000; stroke-width: 0.4"/>
    </g>
    <g clip-path="url(#p04d1d59fc9)">
     <use xlink:href="#Cf_0_a87360dab8" x="229.300064" y="114.385382" style="fill: #ffffff; stroke: #000000; stroke-width: 0.4"/>
    </g>
   </g>
   <g id="PathCollection_48">
    <defs>
     <path id="C10_0_922deea9d0" d="M -0.833333 2.5 
L 0.833333 2.5 
L 0.833333 0.833333 
L 2.5 0.833333 
L 2.5 -0.833333 
L 0.833333 -0.833333 
L 0.833333 -2.5 
L -0.833333 -2.5 
L -0.833333 -0.833333 
L -2.5 -0.833333 
L -2.5 0.833333 
L -0.833333 0.833333 
z
"/>
    </defs>
    <g clip-path="url(#p04d1d59fc9)">
     <use xlink:href="#C10_0_922deea9d0" x="251.727784" y="121.375512" style="fill: #ffffff; stroke: #000000; stroke-width: 0.4"/>
    </g>
    <g clip-path="url(#p04d1d59fc9)">
     <use xlink:href="#C10_0_922deea9d0" x="251.014688" y="122.111965" style="fill: #ffffff; stroke: #000000; stroke-width: 0.4"/>
    </g>
    <g clip-path="url(#p04d1d59fc9)">
     <use xlink:href="#C10_0_922deea9d0" x="250.612457" y="122.258638" style="fill: #ffffff; stroke: #000000; stroke-width: 0.4"/>
    </g>
   </g>
   <g id="PathCollection_49">
    <defs>
     <path id="C11_0_0fb2e62a3b" d="M -0.833333 2.5 
L 0.833333 2.5 
L 0.833333 0.833333 
L 2.5 0.833333 
L 2.5 -0.833333 
L 0.833333 -0.833333 
L 0.833333 -2.5 
L -0.833333 -2.5 
L -0.833333 -0.833333 
L -2.5 -0.833333 
L -2.5 0.833333 
L -0.833333 0.833333 
z
"/>
    </defs>
    <g clip-path="url(#p04d1d59fc9)">
     <use xlink:href="#C11_0_0fb2e62a3b" x="282.267614" y="122.980424" style="fill: #ffffff; stroke: #000000; stroke-width: 0.4"/>
    </g>
    <g clip-path="url(#p04d1d59fc9)">
     <use xlink:href="#C11_0_0fb2e62a3b" x="281.005647" y="123.882077" style="fill: #ffffff; stroke: #000000; stroke-width: 0.4"/>
    </g>
    <g clip-path="url(#p04d1d59fc9)">
     <use xlink:href="#C11_0_0fb2e62a3b" x="281.961129" y="123.078463" style="fill: #ffffff; stroke: #000000; stroke-width: 0.4"/>
    </g>
   </g>
   <g id="PathCollection_50">
    <defs>
     <path id="C12_0_da91ab1a2b" d="M -0.833333 2.5 
L 0.833333 2.5 
L 0.833333 0.833333 
L 2.5 0.833333 
L 2.5 -0.833333 
L 0.833333 -0.833333 
L 0.833333 -2.5 
L -0.833333 -2.5 
L -0.833333 -0.833333 
L -2.5 -0.833333 
L -2.5 0.833333 
L -0.833333 0.833333 
z
"/>
    </defs>
    <g clip-path="url(#p04d1d59fc9)">
     <use xlink:href="#C12_0_da91ab1a2b" x="301.339262" y="125.103324" style="fill: #ffffff; stroke: #000000; stroke-width: 0.4"/>
    </g>
    <g clip-path="url(#p04d1d59fc9)">
     <use xlink:href="#C12_0_da91ab1a2b" x="303.035748" y="125.136518" style="fill: #ffffff; stroke: #000000; stroke-width: 0.4"/>
    </g>
    <g clip-path="url(#p04d1d59fc9)">
     <use xlink:href="#C12_0_da91ab1a2b" x="301.572927" y="125.568046" style="fill: #ffffff; stroke: #000000; stroke-width: 0.4"/>
    </g>
   </g>
   <g id="PathCollection_51">
    <defs>
     <path id="C13_0_e184332453" d="M -1.25 2.5 
L 0 1.25 
L 1.25 2.5 
L 2.5 1.25 
L 1.25 -0 
L 2.5 -1.25 
L 1.25 -2.5 
L 0 -1.25 
L -1.25 -2.5 
L -2.5 -1.25 
L -1.25 0 
L -2.5 1.25 
z
"/>
    </defs>
    <g clip-path="url(#p04d1d59fc9)">
     <use xlink:href="#C13_0_e184332453" x="79.840348" y="119.282718" style="fill: #ffffff; stroke: #000000; stroke-width: 0.4"/>
    </g>
    <g clip-path="url(#p04d1d59fc9)">
     <use xlink:href="#C13_0_e184332453" x="77.062451" y="119.192399" style="fill: #ffffff; stroke: #000000; stroke-width: 0.4"/>
    </g>
    <g clip-path="url(#p04d1d59fc9)">
     <use xlink:href="#C13_0_e184332453" x="78.732999" y="118.479876" style="fill: #ffffff; stroke: #000000; stroke-width: 0.4"/>
    </g>
   </g>
   <g id="PathCollection_52">
    <defs>
     <path id="C14_0_93427db66e" d="M -1.25 2.5 
L 0 1.25 
L 1.25 2.5 
L 2.5 1.25 
L 1.25 -0 
L 2.5 -1.25 
L 1.25 -2.5 
L 0 -1.25 
L -1.25 -2.5 
L -2.5 -1.25 
L -1.25 0 
L -2.5 1.25 
z
"/>
    </defs>
    <g clip-path="url(#p04d1d59fc9)">
     <use xlink:href="#C14_0_93427db66e" x="96.554919" y="122.660059" style="fill: #ffffff; stroke: #000000; stroke-width: 0.4"/>
    </g>
    <g clip-path="url(#p04d1d59fc9)">
     <use xlink:href="#C14_0_93427db66e" x="98.197476" y="124.745133" style="fill: #ffffff; stroke: #000000; stroke-width: 0.4"/>
    </g>
    <g clip-path="url(#p04d1d59fc9)">
     <use xlink:href="#C14_0_93427db66e" x="98.085553" y="123.489148" style="fill: #ffffff; stroke: #000000; stroke-width: 0.4"/>
    </g>
   </g>
   <g id="PathCollection_53">
    <defs>
     <path id="C15_0_6b1d55f2d4" d="M -1.25 2.5 
L 0 1.25 
L 1.25 2.5 
L 2.5 1.25 
L 1.25 -0 
L 2.5 -1.25 
L 1.25 -2.5 
L 0 -1.25 
L -1.25 -2.5 
L -2.5 -1.25 
L -1.25 0 
L -2.5 1.25 
z
"/>
    </defs>
    <g clip-path="url(#p04d1d59fc9)">
     <use xlink:href="#C15_0_6b1d55f2d4" x="130.187795" y="110.898422" style="fill: #ffffff; stroke: #000000; stroke-width: 0.4"/>
    </g>
    <g clip-path="url(#p04d1d59fc9)">
     <use xlink:href="#C15_0_6b1d55f2d4" x="130.111921" y="114.112106" style="fill: #ffffff; stroke: #000000; stroke-width: 0.4"/>
    </g>
    <g clip-path="url(#p04d1d59fc9)">
     <use xlink:href="#C15_0_6b1d55f2d4" x="127.782215" y="112.032437" style="fill: #ffffff; stroke: #000000; stroke-width: 0.4"/>
    </g>
   </g>
   <g id="PathCollection_54">
    <defs>
     <path id="C16_0_4c1e4d85da" d="M -1.25 2.5 
L 0 1.25 
L 1.25 2.5 
L 2.5 1.25 
L 1.25 -0 
L 2.5 -1.25 
L 1.25 -2.5 
L 0 -1.25 
L -1.25 -2.5 
L -2.5 -1.25 
L -1.25 0 
L -2.5 1.25 
z
"/>
    </defs>
    <g clip-path="url(#p04d1d59fc9)">
     <use xlink:href="#C16_0_4c1e4d85da" x="149.017493" y="121.080622" style="fill: #ffffff; stroke: #000000; stroke-width: 0.4"/>
    </g>
    <g clip-path="url(#p04d1d59fc9)">
     <use xlink:href="#C16_0_4c1e4d85da" x="148.621774" y="123.162607" style="fill: #ffffff; stroke: #000000; stroke-width: 0.4"/>
    </g>
    <g clip-path="url(#p04d1d59fc9)">
     <use xlink:href="#C16_0_4c1e4d85da" x="147.667305" y="122.405311" style="fill: #ffffff; stroke: #000000; stroke-width: 0.4"/>
    </g>
   </g>
   <g id="PathCollection_55">
    <defs>
     <path id="C17_0_f7bdfed5ff" d="M -1.25 2.5 
L 0 1.25 
L 1.25 2.5 
L 2.5 1.25 
L 1.25 -0 
L 2.5 -1.25 
L 1.25 -2.5 
L 0 -1.25 
L -1.25 -2.5 
L -2.5 -1.25 
L -1.25 0 
L -2.5 1.25 
z
"/>
    </defs>
    <g clip-path="url(#p04d1d59fc9)">
     <use xlink:href="#C17_0_f7bdfed5ff" x="182.338612" y="102.07565" style="fill: #ffffff; stroke: #000000; stroke-width: 0.4"/>
    </g>
    <g clip-path="url(#p04d1d59fc9)">
     <use xlink:href="#C17_0_f7bdfed5ff" x="178.842869" y="104.2495" style="fill: #ffffff; stroke: #000000; stroke-width: 0.4"/>
    </g>
    <g clip-path="url(#p04d1d59fc9)">
     <use xlink:href="#C17_0_f7bdfed5ff" x="178.89664" y="103.462869" style="fill: #ffffff; stroke: #000000; stroke-width: 0.4"/>
    </g>
   </g>
   <g id="PathCollection_56">
    <defs>
     <path id="C18_0_102867cf3d" d="M -1.25 2.5 
L 0 1.25 
L 1.25 2.5 
L 2.5 1.25 
L 1.25 -0 
L 2.5 -1.25 
L 1.25 -2.5 
L 0 -1.25 
L -1.25 -2.5 
L -2.5 -1.25 
L -1.25 0 
L -2.5 1.25 
z
"/>
    </defs>
    <g clip-path="url(#p04d1d59fc9)">
     <use xlink:href="#C18_0_102867cf3d" x="200.719646" y="117.409935" style="fill: #ffffff; stroke: #000000; stroke-width: 0.4"/>
    </g>
    <g clip-path="url(#p04d1d59fc9)">
     <use xlink:href="#C18_0_102867cf3d" x="198.414223" y="120.26234" style="fill: #ffffff; stroke: #000000; stroke-width: 0.4"/>
    </g>
    <g clip-path="url(#p04d1d59fc9)">
     <use xlink:href="#C18_0_102867cf3d" x="202.935991" y="119.112115" style="fill: #ffffff; stroke: #000000; stroke-width: 0.4"/>
    </g>
   </g>
   <g id="PathCollection_57">
    <defs>
     <path id="C19_0_587cbd6d18" d="M -1.25 2.5 
L 0 1.25 
L 1.25 2.5 
L 2.5 1.25 
L 1.25 -0 
L 2.5 -1.25 
L 1.25 -2.5 
L 0 -1.25 
L -1.25 -2.5 
L -2.5 -1.25 
L -1.25 0 
L -2.5 1.25 
z
"/>
    </defs>
    <g clip-path="url(#p04d1d59fc9)">
     <use xlink:href="#C19_0_587cbd6d18" x="233.398074" y="88.361717" style="fill: #ffffff; stroke: #000000; stroke-width: 0.4"/>
    </g>
    <g clip-path="url(#p04d1d59fc9)">
     <use xlink:href="#C19_0_587cbd6d18" x="230.535923" y="93.203473" style="fill: #ffffff; stroke: #000000; stroke-width: 0.4"/>
    </g>
    <g clip-path="url(#p04d1d59fc9)">
     <use xlink:href="#C19_0_587cbd6d18" x="233.925452" y="90.6861" style="fill: #ffffff; stroke: #000000; stroke-width: 0.4"/>
    </g>
   </g>
   <g id="PathCollection_58">
    <defs>
     <path id="C1a_0_690079b7cd" d="M -1.25 2.5 
L 0 1.25 
L 1.25 2.5 
L 2.5 1.25 
L 1.25 -0 
L 2.5 -1.25 
L 1.25 -2.5 
L 0 -1.25 
L -1.25 -2.5 
L -2.5 -1.25 
L -1.25 0 
L -2.5 1.25 
z
"/>
    </defs>
    <g clip-path="url(#p04d1d59fc9)">
     <use xlink:href="#C1a_0_690079b7cd" x="252.610523" y="115.874499" style="fill: #ffffff; stroke: #000000; stroke-width: 0.4"/>
    </g>
    <g clip-path="url(#p04d1d59fc9)">
     <use xlink:href="#C1a_0_690079b7cd" x="253.291832" y="120.766432" style="fill: #ffffff; stroke: #000000; stroke-width: 0.4"/>
    </g>
    <g clip-path="url(#p04d1d59fc9)">
     <use xlink:href="#C1a_0_690079b7cd" x="249.73129" y="118.020558" style="fill: #ffffff; stroke: #000000; stroke-width: 0.4"/>
    </g>
   </g>
   <g id="PathCollection_59">
    <defs>
     <path id="C1b_0_99d3c7826c" d="M -1.25 2.5 
L 0 1.25 
L 1.25 2.5 
L 2.5 1.25 
L 1.25 -0 
L 2.5 -1.25 
L 1.25 -2.5 
L 0 -1.25 
L -1.25 -2.5 
L -2.5 -1.25 
L -1.25 0 
L -2.5 1.25 
z
"/>
    </defs>
    <g clip-path="url(#p04d1d59fc9)">
     <use xlink:href="#C1b_0_99d3c7826c" x="281.415663" y="117.400671" style="fill: #ffffff; stroke: #000000; stroke-width: 0.4"/>
    </g>
    <g clip-path="url(#p04d1d59fc9)">
     <use xlink:href="#C1b_0_99d3c7826c" x="282.359838" y="118.96467" style="fill: #ffffff; stroke: #000000; stroke-width: 0.4"/>
    </g>
    <g clip-path="url(#p04d1d59fc9)">
     <use xlink:href="#C1b_0_99d3c7826c" x="280.788954" y="119.134501" style="fill: #ffffff; stroke: #000000; stroke-width: 0.4"/>
    </g>
   </g>
   <g id="PathCollection_60">
    <defs>
     <path id="C1c_0_3426ba55fd" d="M -1.25 2.5 
L 0 1.25 
L 1.25 2.5 
L 2.5 1.25 
L 1.25 -0 
L 2.5 -1.25 
L 1.25 -2.5 
L 0 -1.25 
L -1.25 -2.5 
L -2.5 -1.25 
L -1.25 0 
L -2.5 1.25 
z
"/>
    </defs>
    <g clip-path="url(#p04d1d59fc9)">
     <use xlink:href="#C1c_0_3426ba55fd" x="304.958031" y="123.094675" style="fill: #ffffff; stroke: #000000; stroke-width: 0.4"/>
    </g>
    <g clip-path="url(#p04d1d59fc9)">
     <use xlink:href="#C1c_0_3426ba55fd" x="303.110758" y="124.792223" style="fill: #ffffff; stroke: #000000; stroke-width: 0.4"/>
    </g>
    <g clip-path="url(#p04d1d59fc9)">
     <use xlink:href="#C1c_0_3426ba55fd" x="300.723042" y="124.037242" style="fill: #ffffff; stroke: #000000; stroke-width: 0.4"/>
    </g>
   </g>
   <g id="PathCollection_61">
    <defs>
     <path id="C1d_0_2409df2a87" d="M 0 -2.5 
L -0.561285 -0.772542 
L -2.377641 -0.772542 
L -0.908178 0.295085 
L -1.469463 2.022542 
L -0 0.954915 
L 1.469463 2.022542 
L 0.908178 0.295085 
L 2.377641 -0.772542 
L 0.561285 -0.772542 
z
"/>
    </defs>
    <g clip-path="url(#p04d1d59fc9)">
     <use xlink:href="#C1d_0_2409df2a87" x="76.867714" y="118.494544" style="fill: #ffffff; stroke: #000000; stroke-width: 0.4"/>
    </g>
    <g clip-path="url(#p04d1d59fc9)">
     <use xlink:href="#C1d_0_2409df2a87" x="79.655569" y="119.234857" style="fill: #ffffff; stroke: #000000; stroke-width: 0.4"/>
    </g>
    <g clip-path="url(#p04d1d59fc9)">
     <use xlink:href="#C1d_0_2409df2a87" x="76.691837" y="118.94923" style="fill: #ffffff; stroke: #000000; stroke-width: 0.4"/>
    </g>
   </g>
   <g id="PathCollection_62">
    <defs>
     <path id="C1e_0_d8c46e7e7a" d="M 0 -2.5 
L -0.561285 -0.772542 
L -2.377641 -0.772542 
L -0.908178 0.295085 
L -1.469463 2.022542 
L -0 0.954915 
L 1.469463 2.022542 
L 0.908178 0.295085 
L 2.377641 -0.772542 
L 0.561285 -0.772542 
z
"/>
    </defs>
    <g clip-path="url(#p04d1d59fc9)">
     <use xlink:href="#C1e_0_d8c46e7e7a" x="99.156931" y="124.901069" style="fill: #ffffff; stroke: #000000; stroke-width: 0.4"/>
    </g>
    <g clip-path="url(#p04d1d59fc9)">
     <use xlink:href="#C1e_0_d8c46e7e7a" x="100.393606" y="122.944142" style="fill: #ffffff; stroke: #000000; stroke-width: 0.4"/>
    </g>
    <g clip-path="url(#p04d1d59fc9)">
     <use xlink:href="#C1e_0_d8c46e7e7a" x="99.104455" y="123.210469" style="fill: #ffffff; stroke: #000000; stroke-width: 0.4"/>
    </g>
   </g>
   <g id="PathCollection_63">
    <defs>
     <path id="C1f_0_62069d6cf4" d="M 0 -2.5 
L -0.561285 -0.772542 
L -2.377641 -0.772542 
L -0.908178 0.295085 
L -1.469463 2.022542 
L -0 0.954915 
L 1.469463 2.022542 
L 0.908178 0.295085 
L 2.377641 -0.772542 
L 0.561285 -0.772542 
z
"/>
    </defs>
    <g clip-path="url(#p04d1d59fc9)">
     <use xlink:href="#C1f_0_62069d6cf4" x="129.69606" y="115.90229" style="fill: #ffffff; stroke: #000000; stroke-width: 0.4"/>
    </g>
    <g clip-path="url(#p04d1d59fc9)">
     <use xlink:href="#C1f_0_62069d6cf4" x="129.481595" y="114.699571" style="fill: #ffffff; stroke: #000000; stroke-width: 0.4"/>
    </g>
    <g clip-path="url(#p04d1d59fc9)">
     <use xlink:href="#C1f_0_62069d6cf4" x="127.100905" y="117.088798" style="fill: #ffffff; stroke: #000000; stroke-width: 0.4"/>
    </g>
   </g>
   <g id="PathCollection_64">
    <defs>
     <path id="C20_0_381c452e9a" d="M 0 -2.5 
L -0.561285 -0.772542 
L -2.377641 -0.772542 
L -0.908178 0.295085 
L -1.469463 2.022542 
L -0 0.954915 
L 1.469463 2.022542 
L 0.908178 0.295085 
L 2.377641 -0.772542 
L 0.561285 -0.772542 
z
"/>
    </defs>
    <g clip-path="url(#p04d1d59fc9)">
     <use xlink:href="#C20_0_381c452e9a" x="151.462629" y="123.249839" style="fill: #ffffff; stroke: #000000; stroke-width: 0.4"/>
    </g>
    <g clip-path="url(#p04d1d59fc9)">
     <use xlink:href="#C20_0_381c452e9a" x="151.211133" y="122.929474" style="fill: #ffffff; stroke: #000000; stroke-width: 0.4"/>
    </g>
    <g clip-path="url(#p04d1d59fc9)">
     <use xlink:href="#C20_0_381c452e9a" x="149.31911" y="123.489148" style="fill: #ffffff; stroke: #000000; stroke-width: 0.4"/>
    </g>
   </g>
   <g id="PathCollection_65">
    <defs>
     <path id="C21_0_ad8bc43ef1" d="M 0 -2.5 
L -0.561285 -0.772542 
L -2.377641 -0.772542 
L -0.908178 0.295085 
L -1.469463 2.022542 
L -0 0.954915 
L 1.469463 2.022542 
L 0.908178 0.295085 
L 2.377641 -0.772542 
L 0.561285 -0.772542 
z
"/>
    </defs>
    <g clip-path="url(#p04d1d59fc9)">
     <use xlink:href="#C21_0_ad8bc43ef1" x="179.683765" y="106.915862" style="fill: #ffffff; stroke: #000000; stroke-width: 0.4"/>
    </g>
    <g clip-path="url(#p04d1d59fc9)">
     <use xlink:href="#C21_0_ad8bc43ef1" x="178.44752" y="107.842218" style="fill: #ffffff; stroke: #000000; stroke-width: 0.4"/>
    </g>
    <g clip-path="url(#p04d1d59fc9)">
     <use xlink:href="#C21_0_ad8bc43ef1" x="182.078087" y="108.536214" style="fill: #ffffff; stroke: #000000; stroke-width: 0.4"/>
    </g>
   </g>
   <g id="PathCollection_66">
    <path d="M 201.2145 117.525347 
L 200.653215 119.252805 
L 198.836859 119.252805 
L 200.306322 120.320432 
L 199.745037 122.04789 
L 201.2145 120.980262 
L 202.683963 122.04789 
L 202.122678 120.320432 
L 203.592142 119.252805 
L 201.775785 119.252805 
z
" clip-path="url(#p04d1d59fc9)" style="fill: #ffffff; stroke: #000000; stroke-width: 0.4"/>
    <path d="M 198.467316 116.895425 
L 197.906031 118.622883 
L 196.089675 118.622883 
L 197.559138 119.69051 
L 196.997853 121.417968 
L 198.467316 120.35034 
L 199.936779 121.417968 
L 199.375494 119.69051 
L 200.844957 118.622883 
L 199.028601 118.622883 
z
" clip-path="url(#p04d1d59fc9)" style="fill: #ffffff; stroke: #000000; stroke-width: 0.4"/>
   </g>
   <g id="PathCollection_67">
    <defs>
     <path id="C22_0_4dfbf25e56" d="M 0 -2.5 
L -0.561285 -0.772542 
L -2.377641 -0.772542 
L -0.908178 0.295085 
L -1.469463 2.022542 
L -0 0.954915 
L 1.469463 2.022542 
L 0.908178 0.295085 
L 2.377641 -0.772542 
L 0.561285 -0.772542 
z
"/>
    </defs>
    <g clip-path="url(#p04d1d59fc9)">
     <use xlink:href="#C22_0_4dfbf25e56" x="232.396241" y="98.40342" style="fill: #ffffff; stroke: #000000; stroke-width: 0.4"/>
    </g>
    <g clip-path="url(#p04d1d59fc9)">
     <use xlink:href="#C22_0_4dfbf25e56" x="229.818717" y="97.352005" style="fill: #ffffff; stroke: #000000; stroke-width: 0.4"/>
    </g>
    <g clip-path="url(#p04d1d59fc9)">
     <use xlink:href="#C22_0_4dfbf25e56" x="230.386356" y="97.425342" style="fill: #ffffff; stroke: #000000; stroke-width: 0.4"/>
    </g>
   </g>
   <g id="PathCollection_68">
    <defs>
     <path id="C23_0_714193f655" d="M 0 -2.5 
L -0.561285 -0.772542 
L -2.377641 -0.772542 
L -0.908178 0.295085 
L -1.469463 2.022542 
L -0 0.954915 
L 1.469463 2.022542 
L 0.908178 0.295085 
L 2.377641 -0.772542 
L 0.561285 -0.772542 
z
"/>
    </defs>
    <g clip-path="url(#p04d1d59fc9)">
     <use xlink:href="#C23_0_714193f655" x="250.979422" y="118.857367" style="fill: #ffffff; stroke: #000000; stroke-width: 0.4"/>
    </g>
    <g clip-path="url(#p04d1d59fc9)">
     <use xlink:href="#C23_0_714193f655" x="253.271353" y="124.560633" style="fill: #ffffff; stroke: #000000; stroke-width: 0.4"/>
    </g>
    <g clip-path="url(#p04d1d59fc9)">
     <use xlink:href="#C23_0_714193f655" x="251.609511" y="122.76273" style="fill: #ffffff; stroke: #000000; stroke-width: 0.4"/>
    </g>
   </g>
   <g id="PathCollection_69">
    <path d="M 282.093523 118.428545 
L 281.532238 120.156002 
L 279.715882 120.156002 
L 281.185345 121.22363 
L 280.62406 122.951087 
L 282.093523 121.88346 
L 283.562986 122.951087 
L 283.001701 121.22363 
L 284.471164 120.156002 
L 282.654808 120.156002 
z
" clip-path="url(#p04d1d59fc9)" style="fill: #ffffff; stroke: #000000; stroke-width: 0.4"/>
    <path d="M 284.495607 119.289284 
L 283.934322 121.016742 
L 282.117966 121.016742 
L 283.587429 122.084369 
L 283.026144 123.811827 
L 284.495607 122.744199 
L 285.96507 123.811827 
L 285.403785 122.084369 
L 286.873248 121.016742 
L 285.056892 121.016742 
z
" clip-path="url(#p04d1d59fc9)" style="fill: #ffffff; stroke: #000000; stroke-width: 0.4"/>
   </g>
   <g id="PathCollection_70">
    <defs>
     <path id="mb5fc69d5bb" d="M 0 -2.5 
L -0.561285 -0.772542 
L -2.377641 -0.772542 
L -0.908178 0.295085 
L -1.469463 2.022542 
L -0 0.954915 
L 1.469463 2.022542 
L 0.908178 0.295085 
L 2.377641 -0.772542 
L 0.561285 -0.772542 
z
" style="stroke: #000000; stroke-width: 0.4"/>
    </defs>
    <g clip-path="url(#p04d1d59fc9)">
     <use xlink:href="#mb5fc69d5bb" x="303.025469" y="124.364555" style="fill: #ffffff; stroke: #000000; stroke-width: 0.4"/>
    </g>
   </g>
   <g id="text_11">
    <!-- **** -->
    <g style="fill: #262626" transform="translate(130.047855 81.817407) scale(0.12 -0.12)">
     <defs>
      <path id="ArialMT-2a" d="M 200 3741 
L 344 4184 
Q 841 4009 1066 3881 
Q 1006 4447 1003 4659 
L 1456 4659 
Q 1447 4350 1384 3884 
Q 1706 4047 2122 4184 
L 2266 3741 
Q 1869 3609 1488 3566 
Q 1678 3400 2025 2975 
L 1650 2709 
Q 1469 2956 1222 3381 
Q 991 2941 816 2709 
L 447 2975 
Q 809 3422 966 3566 
Q 563 3644 200 3741 
z
" transform="scale(0.015625)"/>
     </defs>
     <use xlink:href="#ArialMT-2a"/>
     <use xlink:href="#ArialMT-2a" transform="translate(38.916016 0)"/>
     <use xlink:href="#ArialMT-2a" transform="translate(77.832031 0)"/>
     <use xlink:href="#ArialMT-2a" transform="translate(116.748047 0)"/>
    </g>
   </g>
   <g id="text_12">
    <!-- **** -->
    <g style="fill: #262626" transform="translate(78.911491 99.035283) scale(0.12 -0.12)">
     <use xlink:href="#ArialMT-2a"/>
     <use xlink:href="#ArialMT-2a" transform="translate(38.916016 0)"/>
     <use xlink:href="#ArialMT-2a" transform="translate(77.832031 0)"/>
     <use xlink:href="#ArialMT-2a" transform="translate(116.748047 0)"/>
    </g>
   </g>
   <g id="text_13">
    <!-- **** -->
    <g style="fill: #262626" transform="translate(181.184219 57.498238) scale(0.12 -0.12)">
     <use xlink:href="#ArialMT-2a"/>
     <use xlink:href="#ArialMT-2a" transform="translate(38.916016 0)"/>
     <use xlink:href="#ArialMT-2a" transform="translate(77.832031 0)"/>
     <use xlink:href="#ArialMT-2a" transform="translate(116.748047 0)"/>
    </g>
   </g>
   <g id="text_14">
    <!-- **** -->
    <g style="fill: #262626" transform="translate(232.320582 20.852355) scale(0.12 -0.12)">
     <use xlink:href="#ArialMT-2a"/>
     <use xlink:href="#ArialMT-2a" transform="translate(38.916016 0)"/>
     <use xlink:href="#ArialMT-2a" transform="translate(77.832031 0)"/>
     <use xlink:href="#ArialMT-2a" transform="translate(116.748047 0)"/>
    </g>
   </g>
   <g id="text_15">
    <!-- *** -->
    <g style="fill: #262626" transform="translate(285.792259 91.063215) scale(0.12 -0.12)">
     <use xlink:href="#ArialMT-2a"/>
     <use xlink:href="#ArialMT-2a" transform="translate(38.916016 0)"/>
     <use xlink:href="#ArialMT-2a" transform="translate(77.832031 0)"/>
    </g>
   </g>
   <g id="legend_1">
    <g id="patch_17">
     <path d="M 343.425469 22.237584 
L 365.425469 22.237584 
L 365.425469 14.537584 
L 343.425469 14.537584 
z
" style="fill: #db8484; stroke: #ffffff; stroke-linejoin: miter"/>
    </g>
    <g id="text_16">
     <!-- WT.Ngn2.x3HA -->
     <g style="fill: #262626" transform="translate(374.225469 22.237584) scale(0.11 -0.11)">
      <defs>
       <path id="ArialMT-57" d="M 1294 0 
L 78 4581 
L 700 4581 
L 1397 1578 
Q 1509 1106 1591 641 
Q 1766 1375 1797 1488 
L 2669 4581 
L 3400 4581 
L 4056 2263 
Q 4303 1400 4413 641 
Q 4500 1075 4641 1638 
L 5359 4581 
L 5969 4581 
L 4713 0 
L 4128 0 
L 3163 3491 
Q 3041 3928 3019 4028 
Q 2947 3713 2884 3491 
L 1913 0 
L 1294 0 
z
" transform="scale(0.015625)"/>
       <path id="ArialMT-2e" d="M 581 0 
L 581 641 
L 1222 641 
L 1222 0 
L 581 0 
z
" transform="scale(0.015625)"/>
       <path id="ArialMT-67" d="M 319 -275 
L 866 -356 
Q 900 -609 1056 -725 
Q 1266 -881 1628 -881 
Q 2019 -881 2231 -725 
Q 2444 -569 2519 -288 
Q 2563 -116 2559 434 
Q 2191 0 1641 0 
Q 956 0 581 494 
Q 206 988 206 1678 
Q 206 2153 378 2554 
Q 550 2956 876 3175 
Q 1203 3394 1644 3394 
Q 2231 3394 2613 2919 
L 2613 3319 
L 3131 3319 
L 3131 450 
Q 3131 -325 2973 -648 
Q 2816 -972 2473 -1159 
Q 2131 -1347 1631 -1347 
Q 1038 -1347 672 -1080 
Q 306 -813 319 -275 
z
M 784 1719 
Q 784 1066 1043 766 
Q 1303 466 1694 466 
Q 2081 466 2343 764 
Q 2606 1063 2606 1700 
Q 2606 2309 2336 2618 
Q 2066 2928 1684 2928 
Q 1309 2928 1046 2623 
Q 784 2319 784 1719 
z
" transform="scale(0.015625)"/>
       <path id="ArialMT-32" d="M 3222 541 
L 3222 0 
L 194 0 
Q 188 203 259 391 
Q 375 700 629 1000 
Q 884 1300 1366 1694 
Q 2113 2306 2375 2664 
Q 2638 3022 2638 3341 
Q 2638 3675 2398 3904 
Q 2159 4134 1775 4134 
Q 1369 4134 1125 3890 
Q 881 3647 878 3216 
L 300 3275 
Q 359 3922 746 4261 
Q 1134 4600 1788 4600 
Q 2447 4600 2831 4234 
Q 3216 3869 3216 3328 
Q 3216 3053 3103 2787 
Q 2991 2522 2730 2228 
Q 2469 1934 1863 1422 
Q 1356 997 1212 845 
Q 1069 694 975 541 
L 3222 541 
z
" transform="scale(0.015625)"/>
       <path id="ArialMT-78" d="M 47 0 
L 1259 1725 
L 138 3319 
L 841 3319 
L 1350 2541 
Q 1494 2319 1581 2169 
Q 1719 2375 1834 2534 
L 2394 3319 
L 3066 3319 
L 1919 1756 
L 3153 0 
L 2463 0 
L 1781 1031 
L 1600 1309 
L 728 0 
L 47 0 
z
" transform="scale(0.015625)"/>
       <path id="ArialMT-33" d="M 269 1209 
L 831 1284 
Q 928 806 1161 595 
Q 1394 384 1728 384 
Q 2125 384 2398 659 
Q 2672 934 2672 1341 
Q 2672 1728 2419 1979 
Q 2166 2231 1775 2231 
Q 1616 2231 1378 2169 
L 1441 2663 
Q 1497 2656 1531 2656 
Q 1891 2656 2178 2843 
Q 2466 3031 2466 3422 
Q 2466 3731 2256 3934 
Q 2047 4138 1716 4138 
Q 1388 4138 1169 3931 
Q 950 3725 888 3313 
L 325 3413 
Q 428 3978 793 4289 
Q 1159 4600 1703 4600 
Q 2078 4600 2393 4439 
Q 2709 4278 2876 4000 
Q 3044 3722 3044 3409 
Q 3044 3113 2884 2869 
Q 2725 2625 2413 2481 
Q 2819 2388 3044 2092 
Q 3269 1797 3269 1353 
Q 3269 753 2831 336 
Q 2394 -81 1725 -81 
Q 1122 -81 723 278 
Q 325 638 269 1209 
z
" transform="scale(0.015625)"/>
       <path id="ArialMT-48" d="M 513 0 
L 513 4581 
L 1119 4581 
L 1119 2700 
L 3500 2700 
L 3500 4581 
L 4106 4581 
L 4106 0 
L 3500 0 
L 3500 2159 
L 1119 2159 
L 1119 0 
L 513 0 
z
" transform="scale(0.015625)"/>
      </defs>
      <use xlink:href="#ArialMT-57"/>
      <use xlink:href="#ArialMT-54" transform="translate(94.384766 0)"/>
      <use xlink:href="#ArialMT-2e" transform="translate(144.34375 0)"/>
      <use xlink:href="#ArialMT-4e" transform="translate(172.126953 0)"/>
      <use xlink:href="#ArialMT-67" transform="translate(244.34375 0)"/>
      <use xlink:href="#ArialMT-6e" transform="translate(299.958984 0)"/>
      <use xlink:href="#ArialMT-32" transform="translate(355.574219 0)"/>
      <use xlink:href="#ArialMT-2e" transform="translate(411.189453 0)"/>
      <use xlink:href="#ArialMT-78" transform="translate(438.972656 0)"/>
      <use xlink:href="#ArialMT-33" transform="translate(488.972656 0)"/>
      <use xlink:href="#ArialMT-48" transform="translate(544.587891 0)"/>
      <use xlink:href="#ArialMT-41" transform="translate(616.804688 0)"/>
     </g>
    </g>
    <g id="patch_18">
     <path d="M 343.425469 38.060396 
L 365.425469 38.060396 
L 365.425469 30.360396 
L 343.425469 30.360396 
z
" style="fill: #4b94a2; stroke: #ffffff; stroke-linejoin: miter"/>
    </g>
    <g id="text_17">
     <!-- 9SA.Ngn2.x3HA -->
     <g style="fill: #262626" transform="translate(374.225469 38.060396) scale(0.11 -0.11)">
      <defs>
       <path id="ArialMT-39" d="M 350 1059 
L 891 1109 
Q 959 728 1153 556 
Q 1347 384 1650 384 
Q 1909 384 2104 503 
Q 2300 622 2425 820 
Q 2550 1019 2634 1356 
Q 2719 1694 2719 2044 
Q 2719 2081 2716 2156 
Q 2547 1888 2255 1720 
Q 1963 1553 1622 1553 
Q 1053 1553 659 1965 
Q 266 2378 266 3053 
Q 266 3750 677 4175 
Q 1088 4600 1706 4600 
Q 2153 4600 2523 4359 
Q 2894 4119 3086 3673 
Q 3278 3228 3278 2384 
Q 3278 1506 3087 986 
Q 2897 466 2520 194 
Q 2144 -78 1638 -78 
Q 1100 -78 759 220 
Q 419 519 350 1059 
z
M 2653 3081 
Q 2653 3566 2395 3850 
Q 2138 4134 1775 4134 
Q 1400 4134 1122 3828 
Q 844 3522 844 3034 
Q 844 2597 1108 2323 
Q 1372 2050 1759 2050 
Q 2150 2050 2401 2323 
Q 2653 2597 2653 3081 
z
" transform="scale(0.015625)"/>
      </defs>
      <use xlink:href="#ArialMT-39"/>
      <use xlink:href="#ArialMT-53" transform="translate(55.615234 0)"/>
      <use xlink:href="#ArialMT-41" transform="translate(122.314453 0)"/>
      <use xlink:href="#ArialMT-2e" transform="translate(189.013672 0)"/>
      <use xlink:href="#ArialMT-4e" transform="translate(216.796875 0)"/>
      <use xlink:href="#ArialMT-67" transform="translate(289.013672 0)"/>
      <use xlink:href="#ArialMT-6e" transform="translate(344.628906 0)"/>
      <use xlink:href="#ArialMT-32" transform="translate(400.244141 0)"/>
      <use xlink:href="#ArialMT-2e" transform="translate(455.859375 0)"/>
      <use xlink:href="#ArialMT-78" transform="translate(483.642578 0)"/>
      <use xlink:href="#ArialMT-33" transform="translate(533.642578 0)"/>
      <use xlink:href="#ArialMT-48" transform="translate(589.257812 0)"/>
      <use xlink:href="#ArialMT-41" transform="translate(661.474609 0)"/>
     </g>
    </g>
   </g>
  </g>
 </g>
 <defs>
  <clipPath id="p04d1d59fc9">
   <rect x="55.525469" y="9.931334" width="270" height="117"/>
  </clipPath>
 </defs>
</svg>
