<?xml version="1.0" encoding="utf-8" standalone="no"?>
<!DOCTYPE svg PUBLIC "-//W3C//DTD SVG 1.1//EN"
  "http://www.w3.org/Graphics/SVG/1.1/DTD/svg11.dtd">
<svg xmlns:xlink="http://www.w3.org/1999/xlink" width="299.795312pt" height="200.583781pt" viewBox="0 0 299.795312 200.583781" xmlns="http://www.w3.org/2000/svg" version="1.1">
 <metadata>
  <rdf:RDF xmlns:dc="http://purl.org/dc/elements/1.1/" xmlns:cc="http://creativecommons.org/ns#" xmlns:rdf="http://www.w3.org/1999/02/22-rdf-syntax-ns#">
   <cc:Work>
    <dc:type rdf:resource="http://purl.org/dc/dcmitype/StillImage"/>
    <dc:date>2025-07-28T16:52:46.009043</dc:date>
    <dc:format>image/svg+xml</dc:format>
    <dc:creator>
     <cc:Agent>
      <dc:title>Matplotlib v3.10.3, https://matplotlib.org/</dc:title>
     </cc:Agent>
    </dc:creator>
   </cc:Work>
  </rdf:RDF>
 </metadata>
 <defs>
  <style type="text/css">*{stroke-linejoin: round; stroke-linecap: butt}</style>
 </defs>
 <g id="figure_1">
  <g id="patch_1">
   <path d="M -0 200.583781 
L 299.795312 200.583781 
L 299.795312 0 
L -0 0 
z
" style="fill: #ffffff"/>
  </g>
  <g id="axes_1">
   <g id="patch_2">
    <path d="M 44.195313 162.189375 
L 292.595312 162.189375 
L 292.595312 21.789375 
L 44.195313 21.789375 
z
" style="fill: #ffffff"/>
   </g>
   <g id="matplotlib.axis_1">
    <g id="xtick_1">
     <g id="line2d_1">
      <defs>
       <path id="m711c765d80" d="M 0 0 
L 0 6 
" style="stroke: #262626; stroke-width: 1.25"/>
      </defs>
      <g>
       <use xlink:href="#m711c765d80" x="61.93817" y="162.189375" style="fill: #262626; stroke: #262626; stroke-width: 1.25"/>
      </g>
     </g>
     <g id="text_1">
      <!-- NIL -->
      <g style="fill: #262626" transform="translate(53.379654 179.562969) scale(0.11 -0.11)">
       <defs>
        <path id="ArialMT-4e" d="M 488 0 
L 488 4581 
L 1109 4581 
L 3516 984 
L 3516 4581 
L 4097 4581 
L 4097 0 
L 3475 0 
L 1069 3600 
L 1069 0 
L 488 0 
z
" transform="scale(0.015625)"/>
        <path id="ArialMT-49" d="M 597 0 
L 597 4581 
L 1203 4581 
L 1203 0 
L 597 0 
z
" transform="scale(0.015625)"/>
        <path id="ArialMT-4c" d="M 469 0 
L 469 4581 
L 1075 4581 
L 1075 541 
L 3331 541 
L 3331 0 
L 469 0 
z
" transform="scale(0.015625)"/>
       </defs>
       <use xlink:href="#ArialMT-4e"/>
       <use xlink:href="#ArialMT-49" transform="translate(72.216797 0)"/>
       <use xlink:href="#ArialMT-4c" transform="translate(100 0)"/>
      </g>
     </g>
    </g>
    <g id="xtick_2">
     <g id="line2d_2">
      <g>
       <use xlink:href="#m711c765d80" x="97.423884" y="162.189375" style="fill: #262626; stroke: #262626; stroke-width: 1.25"/>
      </g>
     </g>
     <g id="text_2">
      <!-- DDIR -->
      <g style="fill: #262626" transform="translate(83.979821 179.562969) scale(0.11 -0.11)">
       <defs>
        <path id="ArialMT-44" d="M 494 0 
L 494 4581 
L 2072 4581 
Q 2606 4581 2888 4516 
Q 3281 4425 3559 4188 
Q 3922 3881 4101 3404 
Q 4281 2928 4281 2316 
Q 4281 1794 4159 1391 
Q 4038 988 3847 723 
Q 3656 459 3429 307 
Q 3203 156 2883 78 
Q 2563 0 2147 0 
L 494 0 
z
M 1100 541 
L 2078 541 
Q 2531 541 2789 625 
Q 3047 709 3200 863 
Q 3416 1078 3536 1442 
Q 3656 1806 3656 2325 
Q 3656 3044 3420 3430 
Q 3184 3816 2847 3947 
Q 2603 4041 2063 4041 
L 1100 4041 
L 1100 541 
z
" transform="scale(0.015625)"/>
        <path id="ArialMT-52" d="M 503 0 
L 503 4581 
L 2534 4581 
Q 3147 4581 3465 4457 
Q 3784 4334 3975 4021 
Q 4166 3709 4166 3331 
Q 4166 2844 3850 2509 
Q 3534 2175 2875 2084 
Q 3116 1969 3241 1856 
Q 3506 1613 3744 1247 
L 4541 0 
L 3778 0 
L 3172 953 
Q 2906 1366 2734 1584 
Q 2563 1803 2427 1890 
Q 2291 1978 2150 2013 
Q 2047 2034 1813 2034 
L 1109 2034 
L 1109 0 
L 503 0 
z
M 1109 2559 
L 2413 2559 
Q 2828 2559 3062 2645 
Q 3297 2731 3419 2920 
Q 3541 3109 3541 3331 
Q 3541 3656 3305 3865 
Q 3069 4075 2559 4075 
L 1109 4075 
L 1109 2559 
z
" transform="scale(0.015625)"/>
       </defs>
       <use xlink:href="#ArialMT-44"/>
       <use xlink:href="#ArialMT-44" transform="translate(72.216797 0)"/>
       <use xlink:href="#ArialMT-49" transform="translate(144.433594 0)"/>
       <use xlink:href="#ArialMT-52" transform="translate(172.216797 0)"/>
      </g>
     </g>
    </g>
    <g id="xtick_3">
     <g id="line2d_3">
      <g>
       <use xlink:href="#m711c765d80" x="132.909598" y="162.189375" style="fill: #262626; stroke: #262626; stroke-width: 1.25"/>
      </g>
     </g>
     <g id="text_3">
      <!-- DD -->
      <g style="fill: #262626" transform="translate(124.965536 179.562969) scale(0.11 -0.11)">
       <use xlink:href="#ArialMT-44"/>
       <use xlink:href="#ArialMT-44" transform="translate(72.216797 0)"/>
      </g>
      <!-- +R -->
      <g style="fill: #262626" transform="translate(125.725223 191.197531) scale(0.11 -0.11)">
       <defs>
        <path id="ArialMT-2b" d="M 1603 741 
L 1603 1997 
L 356 1997 
L 356 2522 
L 1603 2522 
L 1603 3769 
L 2134 3769 
L 2134 2522 
L 3381 2522 
L 3381 1997 
L 2134 1997 
L 2134 741 
L 1603 741 
z
" transform="scale(0.015625)"/>
       </defs>
       <use xlink:href="#ArialMT-2b"/>
       <use xlink:href="#ArialMT-52" transform="translate(58.398438 0)"/>
      </g>
     </g>
    </g>
    <g id="xtick_4">
     <g id="line2d_4">
      <g>
       <use xlink:href="#m711c765d80" x="168.395312" y="162.189375" style="fill: #262626; stroke: #262626; stroke-width: 1.25"/>
      </g>
     </g>
     <g id="text_4">
      <!-- SDD -->
      <g style="fill: #262626" transform="translate(156.782578 179.562969) scale(0.11 -0.11)">
       <defs>
        <path id="ArialMT-53" d="M 288 1472 
L 859 1522 
Q 900 1178 1048 958 
Q 1197 738 1509 602 
Q 1822 466 2213 466 
Q 2559 466 2825 569 
Q 3091 672 3220 851 
Q 3350 1031 3350 1244 
Q 3350 1459 3225 1620 
Q 3100 1781 2813 1891 
Q 2628 1963 1997 2114 
Q 1366 2266 1113 2400 
Q 784 2572 623 2826 
Q 463 3081 463 3397 
Q 463 3744 659 4045 
Q 856 4347 1234 4503 
Q 1613 4659 2075 4659 
Q 2584 4659 2973 4495 
Q 3363 4331 3572 4012 
Q 3781 3694 3797 3291 
L 3216 3247 
Q 3169 3681 2898 3903 
Q 2628 4125 2100 4125 
Q 1550 4125 1298 3923 
Q 1047 3722 1047 3438 
Q 1047 3191 1225 3031 
Q 1400 2872 2139 2705 
Q 2878 2538 3153 2413 
Q 3553 2228 3743 1945 
Q 3934 1663 3934 1294 
Q 3934 928 3725 604 
Q 3516 281 3123 101 
Q 2731 -78 2241 -78 
Q 1619 -78 1198 103 
Q 778 284 539 648 
Q 300 1013 288 1472 
z
" transform="scale(0.015625)"/>
       </defs>
       <use xlink:href="#ArialMT-53"/>
       <use xlink:href="#ArialMT-44" transform="translate(66.699219 0)"/>
       <use xlink:href="#ArialMT-44" transform="translate(138.916016 0)"/>
      </g>
      <!-- +R -->
      <g style="fill: #262626" transform="translate(161.210938 191.197531) scale(0.11 -0.11)">
       <use xlink:href="#ArialMT-2b"/>
       <use xlink:href="#ArialMT-52" transform="translate(58.398438 0)"/>
      </g>
     </g>
    </g>
    <g id="xtick_5">
     <g id="line2d_5">
      <g>
       <use xlink:href="#m711c765d80" x="203.881027" y="162.189375" style="fill: #262626; stroke: #262626; stroke-width: 1.25"/>
      </g>
     </g>
     <g id="text_5">
      <!-- RIDD -->
      <g style="fill: #262626" transform="translate(190.436964 179.562969) scale(0.11 -0.11)">
       <use xlink:href="#ArialMT-52"/>
       <use xlink:href="#ArialMT-49" transform="translate(72.216797 0)"/>
       <use xlink:href="#ArialMT-44" transform="translate(100 0)"/>
       <use xlink:href="#ArialMT-44" transform="translate(172.216797 0)"/>
      </g>
     </g>
    </g>
    <g id="xtick_6">
     <g id="line2d_6">
      <g>
       <use xlink:href="#m711c765d80" x="239.366741" y="162.189375" style="fill: #262626; stroke: #262626; stroke-width: 1.25"/>
      </g>
     </g>
     <g id="text_6">
      <!-- SDDIR -->
      <g style="fill: #262626" transform="translate(222.254007 179.562969) scale(0.11 -0.11)">
       <use xlink:href="#ArialMT-53"/>
       <use xlink:href="#ArialMT-44" transform="translate(66.699219 0)"/>
       <use xlink:href="#ArialMT-44" transform="translate(138.916016 0)"/>
       <use xlink:href="#ArialMT-49" transform="translate(211.132812 0)"/>
       <use xlink:href="#ArialMT-52" transform="translate(238.916016 0)"/>
      </g>
     </g>
    </g>
    <g id="xtick_7">
     <g id="line2d_7">
      <g>
       <use xlink:href="#m711c765d80" x="274.852455" y="162.189375" style="fill: #262626; stroke: #262626; stroke-width: 1.25"/>
      </g>
     </g>
     <g id="text_7">
      <!-- RISDD -->
      <g style="fill: #262626" transform="translate(257.739721 179.562969) scale(0.11 -0.11)">
       <use xlink:href="#ArialMT-52"/>
       <use xlink:href="#ArialMT-49" transform="translate(72.216797 0)"/>
       <use xlink:href="#ArialMT-53" transform="translate(100 0)"/>
       <use xlink:href="#ArialMT-44" transform="translate(166.699219 0)"/>
       <use xlink:href="#ArialMT-44" transform="translate(238.916016 0)"/>
      </g>
     </g>
    </g>
   </g>
   <g id="matplotlib.axis_2">
    <g id="ytick_1">
     <g id="line2d_8">
      <defs>
       <path id="meb54cc7e31" d="M 0 0 
L -6 0 
" style="stroke: #262626; stroke-width: 1.25"/>
      </defs>
      <g>
       <use xlink:href="#meb54cc7e31" x="44.195313" y="162.189375" style="fill: #262626; stroke: #262626; stroke-width: 1.25"/>
      </g>
     </g>
     <g id="text_8">
      <!-- 0 -->
      <g style="fill: #262626" transform="translate(28.578281 166.126172) scale(0.11 -0.11)">
       <defs>
        <path id="ArialMT-30" d="M 266 2259 
Q 266 3072 433 3567 
Q 600 4063 929 4331 
Q 1259 4600 1759 4600 
Q 2128 4600 2406 4451 
Q 2684 4303 2865 4023 
Q 3047 3744 3150 3342 
Q 3253 2941 3253 2259 
Q 3253 1453 3087 958 
Q 2922 463 2592 192 
Q 2263 -78 1759 -78 
Q 1097 -78 719 397 
Q 266 969 266 2259 
z
M 844 2259 
Q 844 1131 1108 757 
Q 1372 384 1759 384 
Q 2147 384 2411 759 
Q 2675 1134 2675 2259 
Q 2675 3391 2411 3762 
Q 2147 4134 1753 4134 
Q 1366 4134 1134 3806 
Q 844 3388 844 2259 
z
" transform="scale(0.015625)"/>
       </defs>
       <use xlink:href="#ArialMT-30"/>
      </g>
     </g>
    </g>
    <g id="ytick_2">
     <g id="line2d_9">
      <g>
       <use xlink:href="#meb54cc7e31" x="44.195313" y="131.418534" style="fill: #262626; stroke: #262626; stroke-width: 1.25"/>
      </g>
     </g>
     <g id="text_9">
      <!-- 20 -->
      <g style="fill: #262626" transform="translate(22.46125 135.355331) scale(0.11 -0.11)">
       <defs>
        <path id="ArialMT-32" d="M 3222 541 
L 3222 0 
L 194 0 
Q 188 203 259 391 
Q 375 700 629 1000 
Q 884 1300 1366 1694 
Q 2113 2306 2375 2664 
Q 2638 3022 2638 3341 
Q 2638 3675 2398 3904 
Q 2159 4134 1775 4134 
Q 1369 4134 1125 3890 
Q 881 3647 878 3216 
L 300 3275 
Q 359 3922 746 4261 
Q 1134 4600 1788 4600 
Q 2447 4600 2831 4234 
Q 3216 3869 3216 3328 
Q 3216 3053 3103 2787 
Q 2991 2522 2730 2228 
Q 2469 1934 1863 1422 
Q 1356 997 1212 845 
Q 1069 694 975 541 
L 3222 541 
z
" transform="scale(0.015625)"/>
       </defs>
       <use xlink:href="#ArialMT-32"/>
       <use xlink:href="#ArialMT-30" transform="translate(55.615234 0)"/>
      </g>
     </g>
    </g>
    <g id="ytick_3">
     <g id="line2d_10">
      <g>
       <use xlink:href="#meb54cc7e31" x="44.195313" y="100.647694" style="fill: #262626; stroke: #262626; stroke-width: 1.25"/>
      </g>
     </g>
     <g id="text_10">
      <!-- 40 -->
      <g style="fill: #262626" transform="translate(22.46125 104.584491) scale(0.11 -0.11)">
       <defs>
        <path id="ArialMT-34" d="M 2069 0 
L 2069 1097 
L 81 1097 
L 81 1613 
L 2172 4581 
L 2631 4581 
L 2631 1613 
L 3250 1613 
L 3250 1097 
L 2631 1097 
L 2631 0 
L 2069 0 
z
M 2069 1613 
L 2069 3678 
L 634 1613 
L 2069 1613 
z
" transform="scale(0.015625)"/>
       </defs>
       <use xlink:href="#ArialMT-34"/>
       <use xlink:href="#ArialMT-30" transform="translate(55.615234 0)"/>
      </g>
     </g>
    </g>
    <g id="ytick_4">
     <g id="line2d_11">
      <g>
       <use xlink:href="#meb54cc7e31" x="44.195313" y="69.876853" style="fill: #262626; stroke: #262626; stroke-width: 1.25"/>
      </g>
     </g>
     <g id="text_11">
      <!-- 60 -->
      <g style="fill: #262626" transform="translate(22.46125 73.81365) scale(0.11 -0.11)">
       <defs>
        <path id="ArialMT-36" d="M 3184 3459 
L 2625 3416 
Q 2550 3747 2413 3897 
Q 2184 4138 1850 4138 
Q 1581 4138 1378 3988 
Q 1113 3794 959 3422 
Q 806 3050 800 2363 
Q 1003 2672 1297 2822 
Q 1591 2972 1913 2972 
Q 2475 2972 2870 2558 
Q 3266 2144 3266 1488 
Q 3266 1056 3080 686 
Q 2894 316 2569 119 
Q 2244 -78 1831 -78 
Q 1128 -78 684 439 
Q 241 956 241 2144 
Q 241 3472 731 4075 
Q 1159 4600 1884 4600 
Q 2425 4600 2770 4297 
Q 3116 3994 3184 3459 
z
M 888 1484 
Q 888 1194 1011 928 
Q 1134 663 1356 523 
Q 1578 384 1822 384 
Q 2178 384 2434 671 
Q 2691 959 2691 1453 
Q 2691 1928 2437 2201 
Q 2184 2475 1800 2475 
Q 1419 2475 1153 2201 
Q 888 1928 888 1484 
z
" transform="scale(0.015625)"/>
       </defs>
       <use xlink:href="#ArialMT-36"/>
       <use xlink:href="#ArialMT-30" transform="translate(55.615234 0)"/>
      </g>
     </g>
    </g>
    <g id="ytick_5">
     <g id="line2d_12">
      <g>
       <use xlink:href="#meb54cc7e31" x="44.195313" y="39.106012" style="fill: #262626; stroke: #262626; stroke-width: 1.25"/>
      </g>
     </g>
     <g id="text_12">
      <!-- 80 -->
      <g style="fill: #262626" transform="translate(22.46125 43.042809) scale(0.11 -0.11)">
       <defs>
        <path id="ArialMT-38" d="M 1131 2484 
Q 781 2613 612 2850 
Q 444 3088 444 3419 
Q 444 3919 803 4259 
Q 1163 4600 1759 4600 
Q 2359 4600 2725 4251 
Q 3091 3903 3091 3403 
Q 3091 3084 2923 2848 
Q 2756 2613 2416 2484 
Q 2838 2347 3058 2040 
Q 3278 1734 3278 1309 
Q 3278 722 2862 322 
Q 2447 -78 1769 -78 
Q 1091 -78 675 323 
Q 259 725 259 1325 
Q 259 1772 486 2073 
Q 713 2375 1131 2484 
z
M 1019 3438 
Q 1019 3113 1228 2906 
Q 1438 2700 1772 2700 
Q 2097 2700 2305 2904 
Q 2513 3109 2513 3406 
Q 2513 3716 2298 3927 
Q 2084 4138 1766 4138 
Q 1444 4138 1231 3931 
Q 1019 3725 1019 3438 
z
M 838 1322 
Q 838 1081 952 856 
Q 1066 631 1291 507 
Q 1516 384 1775 384 
Q 2178 384 2440 643 
Q 2703 903 2703 1303 
Q 2703 1709 2433 1975 
Q 2163 2241 1756 2241 
Q 1359 2241 1098 1978 
Q 838 1716 838 1322 
z
" transform="scale(0.015625)"/>
       </defs>
       <use xlink:href="#ArialMT-38"/>
       <use xlink:href="#ArialMT-30" transform="translate(55.615234 0)"/>
      </g>
     </g>
    </g>
    <g id="text_13">
     <!-- (%) HyperP -->
     <g style="fill: #262626" transform="translate(15.935625 122.993437) rotate(-90) scale(0.12 -0.12)">
      <defs>
       <path id="ArialMT-28" d="M 1497 -1347 
Q 1031 -759 709 28 
Q 388 816 388 1659 
Q 388 2403 628 3084 
Q 909 3875 1497 4659 
L 1900 4659 
Q 1522 4009 1400 3731 
Q 1209 3300 1100 2831 
Q 966 2247 966 1656 
Q 966 153 1900 -1347 
L 1497 -1347 
z
" transform="scale(0.015625)"/>
       <path id="ArialMT-25" d="M 372 3481 
Q 372 3972 619 4315 
Q 866 4659 1334 4659 
Q 1766 4659 2048 4351 
Q 2331 4044 2331 3447 
Q 2331 2866 2045 2552 
Q 1759 2238 1341 2238 
Q 925 2238 648 2547 
Q 372 2856 372 3481 
z
M 1350 4272 
Q 1141 4272 1002 4090 
Q 863 3909 863 3425 
Q 863 2984 1003 2804 
Q 1144 2625 1350 2625 
Q 1563 2625 1702 2806 
Q 1841 2988 1841 3469 
Q 1841 3913 1700 4092 
Q 1559 4272 1350 4272 
z
M 1353 -169 
L 3859 4659 
L 4316 4659 
L 1819 -169 
L 1353 -169 
z
M 3334 1075 
Q 3334 1569 3581 1911 
Q 3828 2253 4300 2253 
Q 4731 2253 5014 1945 
Q 5297 1638 5297 1041 
Q 5297 459 5011 145 
Q 4725 -169 4303 -169 
Q 3888 -169 3611 142 
Q 3334 453 3334 1075 
z
M 4316 1866 
Q 4103 1866 3964 1684 
Q 3825 1503 3825 1019 
Q 3825 581 3965 400 
Q 4106 219 4313 219 
Q 4528 219 4667 400 
Q 4806 581 4806 1063 
Q 4806 1506 4665 1686 
Q 4525 1866 4316 1866 
z
" transform="scale(0.015625)"/>
       <path id="ArialMT-29" d="M 791 -1347 
L 388 -1347 
Q 1322 153 1322 1656 
Q 1322 2244 1188 2822 
Q 1081 3291 891 3722 
Q 769 4003 388 4659 
L 791 4659 
Q 1378 3875 1659 3084 
Q 1900 2403 1900 1659 
Q 1900 816 1576 28 
Q 1253 -759 791 -1347 
z
" transform="scale(0.015625)"/>
       <path id="ArialMT-20" transform="scale(0.015625)"/>
       <path id="ArialMT-48" d="M 513 0 
L 513 4581 
L 1119 4581 
L 1119 2700 
L 3500 2700 
L 3500 4581 
L 4106 4581 
L 4106 0 
L 3500 0 
L 3500 2159 
L 1119 2159 
L 1119 0 
L 513 0 
z
" transform="scale(0.015625)"/>
       <path id="ArialMT-79" d="M 397 -1278 
L 334 -750 
Q 519 -800 656 -800 
Q 844 -800 956 -737 
Q 1069 -675 1141 -563 
Q 1194 -478 1313 -144 
Q 1328 -97 1363 -6 
L 103 3319 
L 709 3319 
L 1400 1397 
Q 1534 1031 1641 628 
Q 1738 1016 1872 1384 
L 2581 3319 
L 3144 3319 
L 1881 -56 
Q 1678 -603 1566 -809 
Q 1416 -1088 1222 -1217 
Q 1028 -1347 759 -1347 
Q 597 -1347 397 -1278 
z
" transform="scale(0.015625)"/>
       <path id="ArialMT-70" d="M 422 -1272 
L 422 3319 
L 934 3319 
L 934 2888 
Q 1116 3141 1344 3267 
Q 1572 3394 1897 3394 
Q 2322 3394 2647 3175 
Q 2972 2956 3137 2557 
Q 3303 2159 3303 1684 
Q 3303 1175 3120 767 
Q 2938 359 2589 142 
Q 2241 -75 1856 -75 
Q 1575 -75 1351 44 
Q 1128 163 984 344 
L 984 -1272 
L 422 -1272 
z
M 931 1641 
Q 931 1000 1190 694 
Q 1450 388 1819 388 
Q 2194 388 2461 705 
Q 2728 1022 2728 1688 
Q 2728 2322 2467 2637 
Q 2206 2953 1844 2953 
Q 1484 2953 1207 2617 
Q 931 2281 931 1641 
z
" transform="scale(0.015625)"/>
       <path id="ArialMT-65" d="M 2694 1069 
L 3275 997 
Q 3138 488 2766 206 
Q 2394 -75 1816 -75 
Q 1088 -75 661 373 
Q 234 822 234 1631 
Q 234 2469 665 2931 
Q 1097 3394 1784 3394 
Q 2450 3394 2872 2941 
Q 3294 2488 3294 1666 
Q 3294 1616 3291 1516 
L 816 1516 
Q 847 969 1125 678 
Q 1403 388 1819 388 
Q 2128 388 2347 550 
Q 2566 713 2694 1069 
z
M 847 1978 
L 2700 1978 
Q 2663 2397 2488 2606 
Q 2219 2931 1791 2931 
Q 1403 2931 1139 2672 
Q 875 2413 847 1978 
z
" transform="scale(0.015625)"/>
       <path id="ArialMT-72" d="M 416 0 
L 416 3319 
L 922 3319 
L 922 2816 
Q 1116 3169 1280 3281 
Q 1444 3394 1641 3394 
Q 1925 3394 2219 3213 
L 2025 2691 
Q 1819 2813 1613 2813 
Q 1428 2813 1281 2702 
Q 1134 2591 1072 2394 
Q 978 2094 978 1738 
L 978 0 
L 416 0 
z
" transform="scale(0.015625)"/>
       <path id="ArialMT-50" d="M 494 0 
L 494 4581 
L 2222 4581 
Q 2678 4581 2919 4538 
Q 3256 4481 3484 4323 
Q 3713 4166 3852 3881 
Q 3991 3597 3991 3256 
Q 3991 2672 3619 2267 
Q 3247 1863 2275 1863 
L 1100 1863 
L 1100 0 
L 494 0 
z
M 1100 2403 
L 2284 2403 
Q 2872 2403 3119 2622 
Q 3366 2841 3366 3238 
Q 3366 3525 3220 3729 
Q 3075 3934 2838 4000 
Q 2684 4041 2272 4041 
L 1100 4041 
L 1100 2403 
z
" transform="scale(0.015625)"/>
      </defs>
      <use xlink:href="#ArialMT-28"/>
      <use xlink:href="#ArialMT-25" transform="translate(33.300781 0)"/>
      <use xlink:href="#ArialMT-29" transform="translate(122.216797 0)"/>
      <use xlink:href="#ArialMT-20" transform="translate(155.517578 0)"/>
      <use xlink:href="#ArialMT-48" transform="translate(183.300781 0)"/>
      <use xlink:href="#ArialMT-79" transform="translate(255.517578 0)"/>
      <use xlink:href="#ArialMT-70" transform="translate(305.517578 0)"/>
      <use xlink:href="#ArialMT-65" transform="translate(361.132812 0)"/>
      <use xlink:href="#ArialMT-72" transform="translate(416.748047 0)"/>
      <use xlink:href="#ArialMT-50" transform="translate(450.048828 0)"/>
     </g>
    </g>
   </g>
   <g id="patch_3">
    <path d="M 47.743884 162.189375 
L 76.132455 162.189375 
L 76.132455 120.319471 
L 47.743884 120.319471 
z
" clip-path="url(#p5abb157704)" style="fill: #b3b3b3; opacity: 0.7; stroke: #ffffff; stroke-linejoin: miter"/>
   </g>
   <g id="patch_4">
    <path d="M 83.229598 162.189375 
L 111.61817 162.189375 
L 111.61817 78.893294 
L 83.229598 78.893294 
z
" clip-path="url(#p5abb157704)" style="fill: #332848; opacity: 0.7; stroke: #ffffff; stroke-linejoin: miter"/>
   </g>
   <g id="patch_5">
    <path d="M 118.715312 162.189375 
L 147.103884 162.189375 
L 147.103884 99.494949 
L 118.715312 99.494949 
z
" clip-path="url(#p5abb157704)" style="fill: #5a3763; opacity: 0.7; stroke: #ffffff; stroke-linejoin: miter"/>
   </g>
   <g id="patch_6">
    <path d="M 154.201027 162.189375 
L 182.589598 162.189375 
L 182.589598 83.642285 
L 154.201027 83.642285 
z
" clip-path="url(#p5abb157704)" style="fill: #87477a; opacity: 0.7; stroke: #ffffff; stroke-linejoin: miter"/>
   </g>
   <g id="patch_7">
    <path d="M 189.686741 162.189375 
L 218.075312 162.189375 
L 218.075312 49.695715 
L 189.686741 49.695715 
z
" clip-path="url(#p5abb157704)" style="fill: #af607c; opacity: 0.7; stroke: #ffffff; stroke-linejoin: miter"/>
   </g>
   <g id="patch_8">
    <path d="M 225.172455 162.189375 
L 253.561027 162.189375 
L 253.561027 42.44115 
L 225.172455 42.44115 
z
" clip-path="url(#p5abb157704)" style="fill: #c7817c; opacity: 0.7; stroke: #ffffff; stroke-linejoin: miter"/>
   </g>
   <g id="patch_9">
    <path d="M 260.65817 162.189375 
L 289.046741 162.189375 
L 289.046741 55.615355 
L 260.65817 55.615355 
z
" clip-path="url(#p5abb157704)" style="fill: #d4b777; opacity: 0.7; stroke: #ffffff; stroke-linejoin: miter"/>
   </g>
   <g id="line2d_13">
    <path d="M 61.93817 123.412568 
L 61.93817 117.188557 
" clip-path="url(#p5abb157704)" style="fill: none; stroke: #424242; stroke-width: 2.7; stroke-linecap: round"/>
   </g>
   <g id="line2d_14">
    <path d="M 97.423884 87.387241 
L 97.423884 70.128896 
" clip-path="url(#p5abb157704)" style="fill: none; stroke: #424242; stroke-width: 2.7; stroke-linecap: round"/>
   </g>
   <g id="line2d_15">
    <path d="M 132.909598 109.905985 
L 132.909598 88.575881 
" clip-path="url(#p5abb157704)" style="fill: none; stroke: #424242; stroke-width: 2.7; stroke-linecap: round"/>
   </g>
   <g id="line2d_16">
    <path d="M 168.395312 94.075656 
L 168.395312 73.89326 
" clip-path="url(#p5abb157704)" style="fill: none; stroke: #424242; stroke-width: 2.7; stroke-linecap: round"/>
   </g>
   <g id="line2d_17">
    <path d="M 203.881027 55.757681 
L 203.881027 42.79507 
" clip-path="url(#p5abb157704)" style="fill: none; stroke: #424242; stroke-width: 2.7; stroke-linecap: round"/>
   </g>
   <g id="line2d_18">
    <path d="M 239.366741 45.997706 
L 239.366741 38.707524 
" clip-path="url(#p5abb157704)" style="fill: none; stroke: #424242; stroke-width: 2.7; stroke-linecap: round"/>
   </g>
   <g id="line2d_19">
    <path d="M 274.852455 61.126511 
L 274.852455 50.432248 
" clip-path="url(#p5abb157704)" style="fill: none; stroke: #424242; stroke-width: 2.7; stroke-linecap: round"/>
   </g>
   <g id="patch_10">
    <path d="M 44.195313 162.189375 
L 44.195313 21.789375 
" style="fill: none; stroke: #262626; stroke-width: 1.25; stroke-linejoin: miter; stroke-linecap: square"/>
   </g>
   <g id="patch_11">
    <path d="M 292.595312 162.189375 
L 292.595312 21.789375 
" style="fill: none; stroke: #262626; stroke-width: 1.25; stroke-linejoin: miter; stroke-linecap: square"/>
   </g>
   <g id="patch_12">
    <path d="M 44.195313 162.189375 
L 292.595312 162.189375 
" style="fill: none; stroke: #262626; stroke-width: 1.25; stroke-linejoin: miter; stroke-linecap: square"/>
   </g>
   <g id="patch_13">
    <path d="M 44.195313 21.789375 
L 292.595312 21.789375 
" style="fill: none; stroke: #262626; stroke-width: 1.25; stroke-linejoin: miter; stroke-linecap: square"/>
   </g>
   <g id="PathCollection_1">
    <defs>
     <path id="C0_0_b98a117acd" d="M 0 2.5 
C 0.663008 2.5 1.29895 2.236584 1.767767 1.767767 
C 2.236584 1.29895 2.5 0.663008 2.5 -0 
C 2.5 -0.663008 2.236584 -1.29895 1.767767 -1.767767 
C 1.29895 -2.236584 0.663008 -2.5 0 -2.5 
C -0.663008 -2.5 -1.29895 -2.236584 -1.767767 -1.767767 
C -2.236584 -1.29895 -2.5 -0.663008 -2.5 0 
C -2.5 0.663008 -2.236584 1.29895 -1.767767 1.767767 
C -1.29895 2.236584 -0.663008 2.5 0 2.5 
z
"/>
    </defs>
    <g clip-path="url(#p5abb157704)">
     <use xlink:href="#C0_0_b98a117acd" x="62.478885" y="111.787198" style="fill: #ffffff; stroke: #000000; stroke-width: 0.4"/>
    </g>
    <g clip-path="url(#p5abb157704)">
     <use xlink:href="#C0_0_b98a117acd" x="63.927959" y="116.968974" style="fill: #ffffff; stroke: #000000; stroke-width: 0.4"/>
    </g>
    <g clip-path="url(#p5abb157704)">
     <use xlink:href="#C0_0_b98a117acd" x="65.404108" y="105.962657" style="fill: #ffffff; stroke: #000000; stroke-width: 0.4"/>
    </g>
   </g>
   <g id="PathCollection_2">
    <defs>
     <path id="C1_0_fcdfefff0e" d="M 0 2.5 
C 0.663008 2.5 1.29895 2.236584 1.767767 1.767767 
C 2.236584 1.29895 2.5 0.663008 2.5 -0 
C 2.5 -0.663008 2.236584 -1.29895 1.767767 -1.767767 
C 1.29895 -2.236584 0.663008 -2.5 0 -2.5 
C -0.663008 -2.5 -1.29895 -2.236584 -1.767767 -1.767767 
C -2.236584 -1.29895 -2.5 -0.663008 -2.5 0 
C -2.5 0.663008 -2.236584 1.29895 -1.767767 1.767767 
C -1.29895 2.236584 -0.663008 2.5 0 2.5 
z
"/>
    </defs>
    <g clip-path="url(#p5abb157704)">
     <use xlink:href="#C1_0_fcdfefff0e" x="99.490727" y="55.23707" style="fill: #ffffff; stroke: #000000; stroke-width: 0.4"/>
    </g>
    <g clip-path="url(#p5abb157704)">
     <use xlink:href="#C1_0_fcdfefff0e" x="94.260659" y="53.882584" style="fill: #ffffff; stroke: #000000; stroke-width: 0.4"/>
    </g>
    <g clip-path="url(#p5abb157704)">
     <use xlink:href="#C1_0_fcdfefff0e" x="99.686651" y="54.298438" style="fill: #ffffff; stroke: #000000; stroke-width: 0.4"/>
    </g>
   </g>
   <g id="PathCollection_3">
    <defs>
     <path id="C2_0_4b422aa730" d="M 0 2.5 
C 0.663008 2.5 1.29895 2.236584 1.767767 1.767767 
C 2.236584 1.29895 2.5 0.663008 2.5 -0 
C 2.5 -0.663008 2.236584 -1.29895 1.767767 -1.767767 
C 1.29895 -2.236584 0.663008 -2.5 0 -2.5 
C -0.663008 -2.5 -1.29895 -2.236584 -1.767767 -1.767767 
C -2.236584 -1.29895 -2.5 -0.663008 -2.5 0 
C -2.5 0.663008 -2.236584 1.29895 -1.767767 1.767767 
C -1.29895 2.236584 -0.663008 2.5 0 2.5 
z
"/>
    </defs>
    <g clip-path="url(#p5abb157704)">
     <use xlink:href="#C2_0_4b422aa730" x="133.17505" y="67.567016" style="fill: #ffffff; stroke: #000000; stroke-width: 0.4"/>
    </g>
    <g clip-path="url(#p5abb157704)">
     <use xlink:href="#C2_0_4b422aa730" x="132.179353" y="66.582409" style="fill: #ffffff; stroke: #000000; stroke-width: 0.4"/>
    </g>
    <g clip-path="url(#p5abb157704)">
     <use xlink:href="#C2_0_4b422aa730" x="131.106977" y="69.35393" style="fill: #ffffff; stroke: #000000; stroke-width: 0.4"/>
    </g>
   </g>
   <g id="PathCollection_4">
    <defs>
     <path id="C3_0_5c2016c624" d="M 0 2.5 
C 0.663008 2.5 1.29895 2.236584 1.767767 1.767767 
C 2.236584 1.29895 2.5 0.663008 2.5 -0 
C 2.5 -0.663008 2.236584 -1.29895 1.767767 -1.767767 
C 1.29895 -2.236584 0.663008 -2.5 0 -2.5 
C -0.663008 -2.5 -1.29895 -2.236584 -1.767767 -1.767767 
C -2.236584 -1.29895 -2.5 -0.663008 -2.5 0 
C -2.5 0.663008 -2.236584 1.29895 -1.767767 1.767767 
C -1.29895 2.236584 -0.663008 2.5 0 2.5 
z
"/>
    </defs>
    <g clip-path="url(#p5abb157704)">
     <use xlink:href="#C3_0_5c2016c624" x="168.552348" y="50.89124" style="fill: #ffffff; stroke: #000000; stroke-width: 0.4"/>
    </g>
    <g clip-path="url(#p5abb157704)">
     <use xlink:href="#C3_0_5c2016c624" x="171.730947" y="52.781224" style="fill: #ffffff; stroke: #000000; stroke-width: 0.4"/>
    </g>
    <g clip-path="url(#p5abb157704)">
     <use xlink:href="#C3_0_5c2016c624" x="166.369334" y="56.77743" style="fill: #ffffff; stroke: #000000; stroke-width: 0.4"/>
    </g>
   </g>
   <g id="PathCollection_5">
    <defs>
     <path id="C4_0_481f578000" d="M 0 2.5 
C 0.663008 2.5 1.29895 2.236584 1.767767 1.767767 
C 2.236584 1.29895 2.5 0.663008 2.5 -0 
C 2.5 -0.663008 2.236584 -1.29895 1.767767 -1.767767 
C 1.29895 -2.236584 0.663008 -2.5 0 -2.5 
C -0.663008 -2.5 -1.29895 -2.236584 -1.767767 -1.767767 
C -2.236584 -1.29895 -2.5 -0.663008 -2.5 0 
C -2.5 0.663008 -2.236584 1.29895 -1.767767 1.767767 
C -1.29895 2.236584 -0.663008 2.5 0 2.5 
z
"/>
    </defs>
    <g clip-path="url(#p5abb157704)">
     <use xlink:href="#C4_0_481f578000" x="206.973608" y="31.757855" style="fill: #ffffff; stroke: #000000; stroke-width: 0.4"/>
    </g>
    <g clip-path="url(#p5abb157704)">
     <use xlink:href="#C4_0_481f578000" x="201.31205" y="30.644844" style="fill: #ffffff; stroke: #000000; stroke-width: 0.4"/>
    </g>
    <g clip-path="url(#p5abb157704)">
     <use xlink:href="#C4_0_481f578000" x="202.116013" y="30.633929" style="fill: #ffffff; stroke: #000000; stroke-width: 0.4"/>
    </g>
   </g>
   <g id="PathCollection_6">
    <defs>
     <path id="C5_0_6b0126a437" d="M 0 2.5 
C 0.663008 2.5 1.29895 2.236584 1.767767 1.767767 
C 2.236584 1.29895 2.5 0.663008 2.5 -0 
C 2.5 -0.663008 2.236584 -1.29895 1.767767 -1.767767 
C 1.29895 -2.236584 0.663008 -2.5 0 -2.5 
C -0.663008 -2.5 -1.29895 -2.236584 -1.767767 -1.767767 
C -2.236584 -1.29895 -2.5 -0.663008 -2.5 0 
C -2.5 0.663008 -2.236584 1.29895 -1.767767 1.767767 
C -1.29895 2.236584 -0.663008 2.5 0 2.5 
z
"/>
    </defs>
    <g clip-path="url(#p5abb157704)">
     <use xlink:href="#C5_0_6b0126a437" x="241.155927" y="31.107436" style="fill: #ffffff; stroke: #000000; stroke-width: 0.4"/>
    </g>
    <g clip-path="url(#p5abb157704)">
     <use xlink:href="#C5_0_6b0126a437" x="239.745401" y="28.475089" style="fill: #ffffff; stroke: #000000; stroke-width: 0.4"/>
    </g>
    <g clip-path="url(#p5abb157704)">
     <use xlink:href="#C5_0_6b0126a437" x="241.341682" y="30.45125" style="fill: #ffffff; stroke: #000000; stroke-width: 0.4"/>
    </g>
   </g>
   <g id="PathCollection_7">
    <defs>
     <path id="C6_0_e383c71144" d="M 0 2.5 
C 0.663008 2.5 1.29895 2.236584 1.767767 1.767767 
C 2.236584 1.29895 2.5 0.663008 2.5 -0 
C 2.5 -0.663008 2.236584 -1.29895 1.767767 -1.767767 
C 1.29895 -2.236584 0.663008 -2.5 0 -2.5 
C -0.663008 -2.5 -1.29895 -2.236584 -1.767767 -1.767767 
C -2.236584 -1.29895 -2.5 -0.663008 -2.5 0 
C -2.5 0.663008 -2.236584 1.29895 -1.767767 1.767767 
C -1.29895 2.236584 -0.663008 2.5 0 2.5 
z
"/>
    </defs>
    <g clip-path="url(#p5abb157704)">
     <use xlink:href="#C6_0_e383c71144" x="271.335866" y="48.771302" style="fill: #ffffff; stroke: #000000; stroke-width: 0.4"/>
    </g>
    <g clip-path="url(#p5abb157704)">
     <use xlink:href="#C6_0_e383c71144" x="276.101042" y="47.801463" style="fill: #ffffff; stroke: #000000; stroke-width: 0.4"/>
    </g>
    <g clip-path="url(#p5abb157704)">
     <use xlink:href="#C6_0_e383c71144" x="273.887022" y="49.735579" style="fill: #ffffff; stroke: #000000; stroke-width: 0.4"/>
    </g>
   </g>
   <g id="PathCollection_8">
    <path d="M 65.425793 114.646142 
L 62.925793 119.646142 
L 67.925793 119.646142 
z
" clip-path="url(#p5abb157704)" style="fill: #ffffff; stroke: #000000; stroke-width: 0.4"/>
    <path d="M 58.657224 117.384112 
L 56.157224 122.384112 
L 61.157224 122.384112 
z
" clip-path="url(#p5abb157704)" style="fill: #ffffff; stroke: #000000; stroke-width: 0.4"/>
    <path d="M 59.109777 125.958871 
L 56.609777 130.958871 
L 61.609777 130.958871 
z
" clip-path="url(#p5abb157704)" style="fill: #ffffff; stroke: #000000; stroke-width: 0.4"/>
   </g>
   <g id="PathCollection_9">
    <path d="M 94.247615 61.962908 
L 91.747615 66.962908 
L 96.747615 66.962908 
z
" clip-path="url(#p5abb157704)" style="fill: #ffffff; stroke: #000000; stroke-width: 0.4"/>
    <path d="M 95.531032 70.177196 
L 93.031032 75.177196 
L 98.031032 75.177196 
z
" clip-path="url(#p5abb157704)" style="fill: #ffffff; stroke: #000000; stroke-width: 0.4"/>
    <path d="M 98.957917 63.479754 
L 96.457917 68.479754 
L 101.457917 68.479754 
z
" clip-path="url(#p5abb157704)" style="fill: #ffffff; stroke: #000000; stroke-width: 0.4"/>
   </g>
   <g id="PathCollection_10">
    <path d="M 135.025561 85.222323 
L 132.525561 90.222323 
L 137.525561 90.222323 
z
" clip-path="url(#p5abb157704)" style="fill: #ffffff; stroke: #000000; stroke-width: 0.4"/>
    <path d="M 135.533556 84.163041 
L 133.033556 89.163041 
L 138.033556 89.163041 
z
" clip-path="url(#p5abb157704)" style="fill: #ffffff; stroke: #000000; stroke-width: 0.4"/>
    <path d="M 136.027542 79.744743 
L 133.527542 84.744743 
L 138.527542 84.744743 
z
" clip-path="url(#p5abb157704)" style="fill: #ffffff; stroke: #000000; stroke-width: 0.4"/>
   </g>
   <g id="PathCollection_11">
    <path d="M 167.09662 65.721071 
L 164.59662 70.721071 
L 169.59662 70.721071 
z
" clip-path="url(#p5abb157704)" style="fill: #ffffff; stroke: #000000; stroke-width: 0.4"/>
    <path d="M 171.496234 73.761512 
L 168.996234 78.761512 
L 173.996234 78.761512 
z
" clip-path="url(#p5abb157704)" style="fill: #ffffff; stroke: #000000; stroke-width: 0.4"/>
    <path d="M 165.707754 65.844803 
L 163.207754 70.844803 
L 168.207754 70.844803 
z
" clip-path="url(#p5abb157704)" style="fill: #ffffff; stroke: #000000; stroke-width: 0.4"/>
   </g>
   <g id="PathCollection_12">
    <path d="M 202.42161 41.702964 
L 199.92161 46.702964 
L 204.92161 46.702964 
z
" clip-path="url(#p5abb157704)" style="fill: #ffffff; stroke: #000000; stroke-width: 0.4"/>
    <path d="M 206.482771 38.699115 
L 203.982771 43.699115 
L 208.982771 43.699115 
z
" clip-path="url(#p5abb157704)" style="fill: #ffffff; stroke: #000000; stroke-width: 0.4"/>
    <path d="M 201.444853 38.445837 
L 198.944853 43.445837 
L 203.944853 43.445837 
z
" clip-path="url(#p5abb157704)" style="fill: #ffffff; stroke: #000000; stroke-width: 0.4"/>
   </g>
   <g id="PathCollection_13">
    <path d="M 240.180655 39.597842 
L 237.680655 44.597842 
L 242.680655 44.597842 
z
" clip-path="url(#p5abb157704)" style="fill: #ffffff; stroke: #000000; stroke-width: 0.4"/>
    <path d="M 239.003785 43.354275 
L 236.503785 48.354275 
L 241.503785 48.354275 
z
" clip-path="url(#p5abb157704)" style="fill: #ffffff; stroke: #000000; stroke-width: 0.4"/>
    <path d="M 242.160502 40.640687 
L 239.660502 45.640687 
L 244.660502 45.640687 
z
" clip-path="url(#p5abb157704)" style="fill: #ffffff; stroke: #000000; stroke-width: 0.4"/>
   </g>
   <g id="PathCollection_14">
    <path d="M 272.81746 50.292822 
L 270.31746 55.292822 
L 275.31746 55.292822 
z
" clip-path="url(#p5abb157704)" style="fill: #ffffff; stroke: #000000; stroke-width: 0.4"/>
    <path d="M 274.234183 46.934953 
L 271.734183 51.934953 
L 276.734183 51.934953 
z
" clip-path="url(#p5abb157704)" style="fill: #ffffff; stroke: #000000; stroke-width: 0.4"/>
    <path d="M 271.842182 42.336096 
L 269.342182 47.336096 
L 274.342182 47.336096 
z
" clip-path="url(#p5abb157704)" style="fill: #ffffff; stroke: #000000; stroke-width: 0.4"/>
   </g>
   <g id="PathCollection_15">
    <path d="M 2.5 201.583781 
L 2.5 198.083781 
L -1 198.083781 
" clip-path="url(#p5abb157704)" style="fill: none; stroke: #000000; stroke-width: 0.4"/>
   </g>
   <g id="PathCollection_16">
    <path d="M 2.5 201.583781 
L 2.5 198.083781 
L -1 198.083781 
" clip-path="url(#p5abb157704)" style="fill: none; stroke: #000000; stroke-width: 0.4"/>
   </g>
   <g id="PathCollection_17">
    <path d="M 2.5 201.583781 
L 2.5 198.083781 
L -1 198.083781 
" clip-path="url(#p5abb157704)" style="fill: none; stroke: #000000; stroke-width: 0.4"/>
   </g>
   <g id="PathCollection_18">
    <path d="M 2.5 201.583781 
L 2.5 198.083781 
L -1 198.083781 
" clip-path="url(#p5abb157704)" style="fill: none; stroke: #000000; stroke-width: 0.4"/>
   </g>
   <g id="PathCollection_19">
    <path d="M 2.5 201.583781 
L 2.5 198.083781 
L -1 198.083781 
" clip-path="url(#p5abb157704)" style="fill: none; stroke: #000000; stroke-width: 0.4"/>
   </g>
   <g id="PathCollection_20">
    <path d="M 240.042104 57.515514 
L 245.042104 57.515514 
L 245.042104 52.515514 
L 240.042104 52.515514 
z
" clip-path="url(#p5abb157704)" style="fill: #ffffff; stroke: #000000; stroke-width: 0.4"/>
    <path d="M 238.1287 53.913935 
L 243.1287 53.913935 
L 243.1287 48.913935 
L 238.1287 48.913935 
z
" clip-path="url(#p5abb157704)" style="fill: #ffffff; stroke: #000000; stroke-width: 0.4"/>
    <path d="M 238.917893 54.086776 
L 243.917893 54.086776 
L 243.917893 49.086776 
L 238.917893 49.086776 
z
" clip-path="url(#p5abb157704)" style="fill: #ffffff; stroke: #000000; stroke-width: 0.4"/>
   </g>
   <g id="PathCollection_21">
    <path d="M 273.462981 74.747959 
L 278.462981 74.747959 
L 278.462981 69.747959 
L 273.462981 69.747959 
z
" clip-path="url(#p5abb157704)" style="fill: #ffffff; stroke: #000000; stroke-width: 0.4"/>
    <path d="M 269.185737 77.963922 
L 274.185737 77.963922 
L 274.185737 72.963922 
L 269.185737 72.963922 
z
" clip-path="url(#p5abb157704)" style="fill: #ffffff; stroke: #000000; stroke-width: 0.4"/>
    <path d="M 275.265377 80.800511 
L 280.265377 80.800511 
L 280.265377 75.800511 
L 275.265377 75.800511 
z
" clip-path="url(#p5abb157704)" style="fill: #ffffff; stroke: #000000; stroke-width: 0.4"/>
   </g>
   <g id="PathCollection_22">
    <path d="M 63.106147 116.597533 
L 66.641681 113.061999 
L 63.106147 109.526465 
L 59.570613 113.061999 
z
" clip-path="url(#p5abb157704)" style="fill: #ffffff; stroke: #000000; stroke-width: 0.4"/>
    <path d="M 61.469519 127.630664 
L 65.005053 124.09513 
L 61.469519 120.559596 
L 57.933985 124.09513 
z
" clip-path="url(#p5abb157704)" style="fill: #ffffff; stroke: #000000; stroke-width: 0.4"/>
    <path d="M 62.540868 127.456641 
L 66.076402 123.921107 
L 62.540868 120.385573 
L 59.005334 123.921107 
z
" clip-path="url(#p5abb157704)" style="fill: #ffffff; stroke: #000000; stroke-width: 0.4"/>
    <path d="M 59.478639 126.602583 
L 63.014173 123.067049 
L 59.478639 119.531515 
L 55.943106 123.067049 
z
" clip-path="url(#p5abb157704)" style="fill: #ffffff; stroke: #000000; stroke-width: 0.4"/>
   </g>
   <g id="PathCollection_23">
    <path d="M 97.014594 92.449874 
L 100.550128 88.91434 
L 97.014594 85.378807 
L 93.47906 88.91434 
z
" clip-path="url(#p5abb157704)" style="fill: #ffffff; stroke: #000000; stroke-width: 0.4"/>
    <path d="M 98.605345 94.0491 
L 102.140879 90.513566 
L 98.605345 86.978032 
L 95.069812 90.513566 
z
" clip-path="url(#p5abb157704)" style="fill: #ffffff; stroke: #000000; stroke-width: 0.4"/>
    <path d="M 94.290084 89.017223 
L 97.825618 85.481689 
L 94.290084 81.946155 
L 90.75455 85.481689 
z
" clip-path="url(#p5abb157704)" style="fill: #ffffff; stroke: #000000; stroke-width: 0.4"/>
    <path d="M 94.225609 92.409193 
L 97.761143 88.873659 
L 94.225609 85.338126 
L 90.690076 88.873659 
z
" clip-path="url(#p5abb157704)" style="fill: #ffffff; stroke: #000000; stroke-width: 0.4"/>
   </g>
   <g id="PathCollection_24">
    <path d="M 132.412319 116.494866 
L 135.947852 112.959332 
L 132.412319 109.423798 
L 128.876785 112.959332 
z
" clip-path="url(#p5abb157704)" style="fill: #ffffff; stroke: #000000; stroke-width: 0.4"/>
    <path d="M 134.551642 117.135718 
L 138.087176 113.600184 
L 134.551642 110.06465 
L 131.016108 113.600184 
z
" clip-path="url(#p5abb157704)" style="fill: #ffffff; stroke: #000000; stroke-width: 0.4"/>
    <path d="M 136.426042 122.854772 
L 139.961576 119.319238 
L 136.426042 115.783704 
L 132.890508 119.319238 
z
" clip-path="url(#p5abb157704)" style="fill: #ffffff; stroke: #000000; stroke-width: 0.4"/>
    <path d="M 133.885056 122.816178 
L 137.42059 119.280644 
L 133.885056 115.74511 
L 130.349522 119.280644 
z
" clip-path="url(#p5abb157704)" style="fill: #ffffff; stroke: #000000; stroke-width: 0.4"/>
   </g>
   <g id="PathCollection_25">
    <path d="M 165.261681 98.816743 
L 168.797215 95.281209 
L 165.261681 91.745675 
L 161.726147 95.281209 
z
" clip-path="url(#p5abb157704)" style="fill: #ffffff; stroke: #000000; stroke-width: 0.4"/>
    <path d="M 169.178225 99.006245 
L 172.713759 95.470711 
L 169.178225 91.935177 
L 165.642691 95.470711 
z
" clip-path="url(#p5abb157704)" style="fill: #ffffff; stroke: #000000; stroke-width: 0.4"/>
    <path d="M 169.331282 99.061266 
L 172.866816 95.525732 
L 169.331282 91.990198 
L 165.795748 95.525732 
z
" clip-path="url(#p5abb157704)" style="fill: #ffffff; stroke: #000000; stroke-width: 0.4"/>
    <path d="M 166.731965 98.422967 
L 170.267499 94.887433 
L 166.731965 91.351899 
L 163.196431 94.887433 
z
" clip-path="url(#p5abb157704)" style="fill: #ffffff; stroke: #000000; stroke-width: 0.4"/>
   </g>
   <g id="PathCollection_26">
    <path d="M 205.470669 59.086998 
L 209.006203 55.551464 
L 205.470669 52.01593 
L 201.935135 55.551464 
z
" clip-path="url(#p5abb157704)" style="fill: #ffffff; stroke: #000000; stroke-width: 0.4"/>
    <path d="M 202.815564 58.101854 
L 206.351098 54.56632 
L 202.815564 51.030786 
L 199.28003 54.56632 
z
" clip-path="url(#p5abb157704)" style="fill: #ffffff; stroke: #000000; stroke-width: 0.4"/>
    <path d="M 203.165514 57.640591 
L 206.701048 54.105058 
L 203.165514 50.569524 
L 199.62998 54.105058 
z
" clip-path="url(#p5abb157704)" style="fill: #ffffff; stroke: #000000; stroke-width: 0.4"/>
    <path d="M 202.958048 61.11161 
L 206.493582 57.576076 
L 202.958048 54.040542 
L 199.422514 57.576076 
z
" clip-path="url(#p5abb157704)" style="fill: #ffffff; stroke: #000000; stroke-width: 0.4"/>
   </g>
   <g id="PathCollection_27">
    <path d="M 236.884817 39.545265 
L 240.420351 36.009731 
L 236.884817 32.474197 
L 233.349283 36.009731 
z
" clip-path="url(#p5abb157704)" style="fill: #ffffff; stroke: #000000; stroke-width: 0.4"/>
    <path d="M 241.245942 39.656064 
L 244.781476 36.12053 
L 241.245942 32.584996 
L 237.710408 36.12053 
z
" clip-path="url(#p5abb157704)" style="fill: #ffffff; stroke: #000000; stroke-width: 0.4"/>
    <path d="M 238.968286 40.83657 
L 242.50382 37.301036 
L 238.968286 33.765502 
L 235.432752 37.301036 
z
" clip-path="url(#p5abb157704)" style="fill: #ffffff; stroke: #000000; stroke-width: 0.4"/>
    <path d="M 239.412217 42.756341 
L 242.947751 39.220807 
L 239.412217 35.685273 
L 235.876683 39.220807 
z
" clip-path="url(#p5abb157704)" style="fill: #ffffff; stroke: #000000; stroke-width: 0.4"/>
   </g>
   <g id="PathCollection_28">
    <path d="M 275.622936 50.276739 
L 279.15847 46.741205 
L 275.622936 43.205672 
L 272.087402 46.741205 
z
" clip-path="url(#p5abb157704)" style="fill: #ffffff; stroke: #000000; stroke-width: 0.4"/>
    <path d="M 274.132816 52.049467 
L 277.66835 48.513933 
L 274.132816 44.978399 
L 270.597282 48.513933 
z
" clip-path="url(#p5abb157704)" style="fill: #ffffff; stroke: #000000; stroke-width: 0.4"/>
    <path d="M 272.379247 44.617798 
L 275.914781 41.082264 
L 272.379247 37.54673 
L 268.843713 41.082264 
z
" clip-path="url(#p5abb157704)" style="fill: #ffffff; stroke: #000000; stroke-width: 0.4"/>
    <path d="M 272.327 46.847611 
L 275.862534 43.312077 
L 272.327 39.776543 
L 268.791466 43.312077 
z
" clip-path="url(#p5abb157704)" style="fill: #ffffff; stroke: #000000; stroke-width: 0.4"/>
   </g>
   <g id="PathCollection_29">
    <defs>
     <path id="C7_0_8dfa9d2cdf" d="M -0.833333 2.5 
L 0.833333 2.5 
L 0.833333 0.833333 
L 2.5 0.833333 
L 2.5 -0.833333 
L 0.833333 -0.833333 
L 0.833333 -2.5 
L -0.833333 -2.5 
L -0.833333 -0.833333 
L -2.5 -0.833333 
L -2.5 0.833333 
L -0.833333 0.833333 
z
"/>
    </defs>
    <g clip-path="url(#p5abb157704)">
     <use xlink:href="#C7_0_8dfa9d2cdf" x="62.056409" y="125.495702" style="fill: #ffffff; stroke: #000000; stroke-width: 0.4"/>
    </g>
    <g clip-path="url(#p5abb157704)">
     <use xlink:href="#C7_0_8dfa9d2cdf" x="59.91724" y="125.023175" style="fill: #ffffff; stroke: #000000; stroke-width: 0.4"/>
    </g>
    <g clip-path="url(#p5abb157704)">
     <use xlink:href="#C7_0_8dfa9d2cdf" x="65.030918" y="123.397726" style="fill: #ffffff; stroke: #000000; stroke-width: 0.4"/>
    </g>
    <g clip-path="url(#p5abb157704)">
     <use xlink:href="#C7_0_8dfa9d2cdf" x="58.505989" y="126.202758" style="fill: #ffffff; stroke: #000000; stroke-width: 0.4"/>
    </g>
   </g>
   <g id="PathCollection_30">
    <defs>
     <path id="C8_0_e03e528e28" d="M -0.833333 2.5 
L 0.833333 2.5 
L 0.833333 0.833333 
L 2.5 0.833333 
L 2.5 -0.833333 
L 0.833333 -0.833333 
L 0.833333 -2.5 
L -0.833333 -2.5 
L -0.833333 -0.833333 
L -2.5 -0.833333 
L -2.5 0.833333 
L -0.833333 0.833333 
z
"/>
    </defs>
    <g clip-path="url(#p5abb157704)">
     <use xlink:href="#C8_0_e03e528e28" x="97.089648" y="97.379404" style="fill: #ffffff; stroke: #000000; stroke-width: 0.4"/>
    </g>
    <g clip-path="url(#p5abb157704)">
     <use xlink:href="#C8_0_e03e528e28" x="99.722837" y="93.44439" style="fill: #ffffff; stroke: #000000; stroke-width: 0.4"/>
    </g>
    <g clip-path="url(#p5abb157704)">
     <use xlink:href="#C8_0_e03e528e28" x="96.130999" y="94.37075" style="fill: #ffffff; stroke: #000000; stroke-width: 0.4"/>
    </g>
    <g clip-path="url(#p5abb157704)">
     <use xlink:href="#C8_0_e03e528e28" x="96.021548" y="98.990366" style="fill: #ffffff; stroke: #000000; stroke-width: 0.4"/>
    </g>
   </g>
   <g id="PathCollection_31">
    <defs>
     <path id="C9_0_04e3ae5fa8" d="M -0.833333 2.5 
L 0.833333 2.5 
L 0.833333 0.833333 
L 2.5 0.833333 
L 2.5 -0.833333 
L 0.833333 -0.833333 
L 0.833333 -2.5 
L -0.833333 -2.5 
L -0.833333 -0.833333 
L -2.5 -0.833333 
L -2.5 0.833333 
L -0.833333 0.833333 
z
"/>
    </defs>
    <g clip-path="url(#p5abb157704)">
     <use xlink:href="#C9_0_04e3ae5fa8" x="129.66612" y="119.003373" style="fill: #ffffff; stroke: #000000; stroke-width: 0.4"/>
    </g>
    <g clip-path="url(#p5abb157704)">
     <use xlink:href="#C9_0_04e3ae5fa8" x="133.549473" y="115.37329" style="fill: #ffffff; stroke: #000000; stroke-width: 0.4"/>
    </g>
    <g clip-path="url(#p5abb157704)">
     <use xlink:href="#C9_0_04e3ae5fa8" x="131.519645" y="118.3028" style="fill: #ffffff; stroke: #000000; stroke-width: 0.4"/>
    </g>
    <g clip-path="url(#p5abb157704)">
     <use xlink:href="#C9_0_04e3ae5fa8" x="129.534735" y="114.956965" style="fill: #ffffff; stroke: #000000; stroke-width: 0.4"/>
    </g>
   </g>
   <g id="PathCollection_32">
    <defs>
     <path id="Ca_0_3a55cf4f14" d="M -0.833333 2.5 
L 0.833333 2.5 
L 0.833333 0.833333 
L 2.5 0.833333 
L 2.5 -0.833333 
L 0.833333 -0.833333 
L 0.833333 -2.5 
L -0.833333 -2.5 
L -0.833333 -0.833333 
L -2.5 -0.833333 
L -2.5 0.833333 
L -0.833333 0.833333 
z
"/>
    </defs>
    <g clip-path="url(#p5abb157704)">
     <use xlink:href="#Ca_0_3a55cf4f14" x="166.744034" y="104.048332" style="fill: #ffffff; stroke: #000000; stroke-width: 0.4"/>
    </g>
    <g clip-path="url(#p5abb157704)">
     <use xlink:href="#Ca_0_3a55cf4f14" x="165.409473" y="102.21171" style="fill: #ffffff; stroke: #000000; stroke-width: 0.4"/>
    </g>
    <g clip-path="url(#p5abb157704)">
     <use xlink:href="#Ca_0_3a55cf4f14" x="170.551795" y="103.597104" style="fill: #ffffff; stroke: #000000; stroke-width: 0.4"/>
    </g>
    <g clip-path="url(#p5abb157704)">
     <use xlink:href="#Ca_0_3a55cf4f14" x="169.990753" y="106.69248" style="fill: #ffffff; stroke: #000000; stroke-width: 0.4"/>
    </g>
   </g>
   <g id="PathCollection_33">
    <defs>
     <path id="Cb_0_87863626e9" d="M -0.833333 2.5 
L 0.833333 2.5 
L 0.833333 0.833333 
L 2.5 0.833333 
L 2.5 -0.833333 
L 0.833333 -0.833333 
L 0.833333 -2.5 
L -0.833333 -2.5 
L -0.833333 -0.833333 
L -2.5 -0.833333 
L -2.5 0.833333 
L -0.833333 0.833333 
z
"/>
    </defs>
    <g clip-path="url(#p5abb157704)">
     <use xlink:href="#Cb_0_87863626e9" x="206.723199" y="67.077842" style="fill: #ffffff; stroke: #000000; stroke-width: 0.4"/>
    </g>
    <g clip-path="url(#p5abb157704)">
     <use xlink:href="#Cb_0_87863626e9" x="201.994561" y="64.265007" style="fill: #ffffff; stroke: #000000; stroke-width: 0.4"/>
    </g>
    <g clip-path="url(#p5abb157704)">
     <use xlink:href="#Cb_0_87863626e9" x="201.091205" y="62.302371" style="fill: #ffffff; stroke: #000000; stroke-width: 0.4"/>
    </g>
    <g clip-path="url(#p5abb157704)">
     <use xlink:href="#Cb_0_87863626e9" x="204.966324" y="60.911323" style="fill: #ffffff; stroke: #000000; stroke-width: 0.4"/>
    </g>
   </g>
   <g id="PathCollection_34">
    <defs>
     <path id="Cc_0_16b3e606bf" d="M -0.833333 2.5 
L 0.833333 2.5 
L 0.833333 0.833333 
L 2.5 0.833333 
L 2.5 -0.833333 
L 0.833333 -0.833333 
L 0.833333 -2.5 
L -0.833333 -2.5 
L -0.833333 -0.833333 
L -2.5 -0.833333 
L -2.5 0.833333 
L -0.833333 0.833333 
z
"/>
    </defs>
    <g clip-path="url(#p5abb157704)">
     <use xlink:href="#Cc_0_16b3e606bf" x="239.295931" y="48.533558" style="fill: #ffffff; stroke: #000000; stroke-width: 0.4"/>
    </g>
    <g clip-path="url(#p5abb157704)">
     <use xlink:href="#Cc_0_16b3e606bf" x="238.739623" y="46.19865" style="fill: #ffffff; stroke: #000000; stroke-width: 0.4"/>
    </g>
    <g clip-path="url(#p5abb157704)">
     <use xlink:href="#Cc_0_16b3e606bf" x="239.905049" y="52.507887" style="fill: #ffffff; stroke: #000000; stroke-width: 0.4"/>
    </g>
    <g clip-path="url(#p5abb157704)">
     <use xlink:href="#Cc_0_16b3e606bf" x="236.760812" y="46.464548" style="fill: #ffffff; stroke: #000000; stroke-width: 0.4"/>
    </g>
   </g>
   <g id="PathCollection_35">
    <defs>
     <path id="Cd_0_d1e3df0087" d="M -0.833333 2.5 
L 0.833333 2.5 
L 0.833333 0.833333 
L 2.5 0.833333 
L 2.5 -0.833333 
L 0.833333 -0.833333 
L 0.833333 -2.5 
L -0.833333 -2.5 
L -0.833333 -0.833333 
L -2.5 -0.833333 
L -2.5 0.833333 
L -0.833333 0.833333 
z
"/>
    </defs>
    <g clip-path="url(#p5abb157704)">
     <use xlink:href="#Cd_0_d1e3df0087" x="271.398684" y="58.293265" style="fill: #ffffff; stroke: #000000; stroke-width: 0.4"/>
    </g>
    <g clip-path="url(#p5abb157704)">
     <use xlink:href="#Cd_0_d1e3df0087" x="275.330075" y="64.491446" style="fill: #ffffff; stroke: #000000; stroke-width: 0.4"/>
    </g>
    <g clip-path="url(#p5abb157704)">
     <use xlink:href="#Cd_0_d1e3df0087" x="277.646918" y="64.441654" style="fill: #ffffff; stroke: #000000; stroke-width: 0.4"/>
    </g>
    <g clip-path="url(#p5abb157704)">
     <use xlink:href="#Cd_0_d1e3df0087" x="277.863798" y="59.200585" style="fill: #ffffff; stroke: #000000; stroke-width: 0.4"/>
    </g>
   </g>
   <g id="text_14">
    <!-- 4dpi -->
    <g style="fill: #262626" transform="translate(157.0525 15.789375) scale(0.12 -0.12)">
     <defs>
      <path id="ArialMT-64" d="M 2575 0 
L 2575 419 
Q 2259 -75 1647 -75 
Q 1250 -75 917 144 
Q 584 363 401 755 
Q 219 1147 219 1656 
Q 219 2153 384 2558 
Q 550 2963 881 3178 
Q 1213 3394 1622 3394 
Q 1922 3394 2156 3267 
Q 2391 3141 2538 2938 
L 2538 4581 
L 3097 4581 
L 3097 0 
L 2575 0 
z
M 797 1656 
Q 797 1019 1065 703 
Q 1334 388 1700 388 
Q 2069 388 2326 689 
Q 2584 991 2584 1609 
Q 2584 2291 2321 2609 
Q 2059 2928 1675 2928 
Q 1300 2928 1048 2622 
Q 797 2316 797 1656 
z
" transform="scale(0.015625)"/>
      <path id="ArialMT-69" d="M 425 3934 
L 425 4581 
L 988 4581 
L 988 3934 
L 425 3934 
z
M 425 0 
L 425 3319 
L 988 3319 
L 988 0 
L 425 0 
z
" transform="scale(0.015625)"/>
     </defs>
     <use xlink:href="#ArialMT-34"/>
     <use xlink:href="#ArialMT-64" transform="translate(55.615234 0)"/>
     <use xlink:href="#ArialMT-70" transform="translate(111.230469 0)"/>
     <use xlink:href="#ArialMT-69" transform="translate(166.845703 0)"/>
    </g>
   </g>
  </g>
 </g>
 <defs>
  <clipPath id="p5abb157704">
   <rect x="44.195313" y="21.789375" width="248.4" height="140.4"/>
  </clipPath>
 </defs>
</svg>
