<?xml version="1.0" encoding="utf-8" standalone="no"?>
<!DOCTYPE svg PUBLIC "-//W3C//DTD SVG 1.1//EN"
  "http://www.w3.org/Graphics/SVG/1.1/DTD/svg11.dtd">
<svg xmlns:xlink="http://www.w3.org/1999/xlink" width="305.295312pt" height="200.583781pt" viewBox="0 0 305.295312 200.583781" xmlns="http://www.w3.org/2000/svg" version="1.1">
 <metadata>
  <rdf:RDF xmlns:dc="http://purl.org/dc/elements/1.1/" xmlns:cc="http://creativecommons.org/ns#" xmlns:rdf="http://www.w3.org/1999/02/22-rdf-syntax-ns#">
   <cc:Work>
    <dc:type rdf:resource="http://purl.org/dc/dcmitype/StillImage"/>
    <dc:date>2025-07-28T16:52:46.399797</dc:date>
    <dc:format>image/svg+xml</dc:format>
    <dc:creator>
     <cc:Agent>
      <dc:title>Matplotlib v3.10.3, https://matplotlib.org/</dc:title>
     </cc:Agent>
    </dc:creator>
   </cc:Work>
  </rdf:RDF>
 </metadata>
 <defs>
  <style type="text/css">*{stroke-linejoin: round; stroke-linecap: butt}</style>
 </defs>
 <g id="figure_1">
  <g id="patch_1">
   <path d="M 0 200.583781 
L 305.295312 200.583781 
L 305.295312 0 
L 0 0 
z
" style="fill: #ffffff"/>
  </g>
  <g id="axes_1">
   <g id="patch_2">
    <path d="M 49.695313 162.189375 
L 298.095312 162.189375 
L 298.095312 21.789375 
L 49.695313 21.789375 
z
" style="fill: #ffffff"/>
   </g>
   <g id="matplotlib.axis_1">
    <g id="xtick_1">
     <g id="line2d_1">
      <defs>
       <path id="m595e14fbaf" d="M 0 0 
L 0 6 
" style="stroke: #262626; stroke-width: 1.25"/>
      </defs>
      <g>
       <use xlink:href="#m595e14fbaf" x="67.43817" y="162.189375" style="fill: #262626; stroke: #262626; stroke-width: 1.25"/>
      </g>
     </g>
     <g id="text_1">
      <!-- NIL -->
      <g style="fill: #262626" transform="translate(58.879654 179.562969) scale(0.11 -0.11)">
       <defs>
        <path id="ArialMT-4e" d="M 488 0 
L 488 4581 
L 1109 4581 
L 3516 984 
L 3516 4581 
L 4097 4581 
L 4097 0 
L 3475 0 
L 1069 3600 
L 1069 0 
L 488 0 
z
" transform="scale(0.015625)"/>
        <path id="ArialMT-49" d="M 597 0 
L 597 4581 
L 1203 4581 
L 1203 0 
L 597 0 
z
" transform="scale(0.015625)"/>
        <path id="ArialMT-4c" d="M 469 0 
L 469 4581 
L 1075 4581 
L 1075 541 
L 3331 541 
L 3331 0 
L 469 0 
z
" transform="scale(0.015625)"/>
       </defs>
       <use xlink:href="#ArialMT-4e"/>
       <use xlink:href="#ArialMT-49" transform="translate(72.216797 0)"/>
       <use xlink:href="#ArialMT-4c" transform="translate(100 0)"/>
      </g>
     </g>
    </g>
    <g id="xtick_2">
     <g id="line2d_2">
      <g>
       <use xlink:href="#m595e14fbaf" x="102.923884" y="162.189375" style="fill: #262626; stroke: #262626; stroke-width: 1.25"/>
      </g>
     </g>
     <g id="text_2">
      <!-- DDIR -->
      <g style="fill: #262626" transform="translate(89.479821 179.562969) scale(0.11 -0.11)">
       <defs>
        <path id="ArialMT-44" d="M 494 0 
L 494 4581 
L 2072 4581 
Q 2606 4581 2888 4516 
Q 3281 4425 3559 4188 
Q 3922 3881 4101 3404 
Q 4281 2928 4281 2316 
Q 4281 1794 4159 1391 
Q 4038 988 3847 723 
Q 3656 459 3429 307 
Q 3203 156 2883 78 
Q 2563 0 2147 0 
L 494 0 
z
M 1100 541 
L 2078 541 
Q 2531 541 2789 625 
Q 3047 709 3200 863 
Q 3416 1078 3536 1442 
Q 3656 1806 3656 2325 
Q 3656 3044 3420 3430 
Q 3184 3816 2847 3947 
Q 2603 4041 2063 4041 
L 1100 4041 
L 1100 541 
z
" transform="scale(0.015625)"/>
        <path id="ArialMT-52" d="M 503 0 
L 503 4581 
L 2534 4581 
Q 3147 4581 3465 4457 
Q 3784 4334 3975 4021 
Q 4166 3709 4166 3331 
Q 4166 2844 3850 2509 
Q 3534 2175 2875 2084 
Q 3116 1969 3241 1856 
Q 3506 1613 3744 1247 
L 4541 0 
L 3778 0 
L 3172 953 
Q 2906 1366 2734 1584 
Q 2563 1803 2427 1890 
Q 2291 1978 2150 2013 
Q 2047 2034 1813 2034 
L 1109 2034 
L 1109 0 
L 503 0 
z
M 1109 2559 
L 2413 2559 
Q 2828 2559 3062 2645 
Q 3297 2731 3419 2920 
Q 3541 3109 3541 3331 
Q 3541 3656 3305 3865 
Q 3069 4075 2559 4075 
L 1109 4075 
L 1109 2559 
z
" transform="scale(0.015625)"/>
       </defs>
       <use xlink:href="#ArialMT-44"/>
       <use xlink:href="#ArialMT-44" transform="translate(72.216797 0)"/>
       <use xlink:href="#ArialMT-49" transform="translate(144.433594 0)"/>
       <use xlink:href="#ArialMT-52" transform="translate(172.216797 0)"/>
      </g>
     </g>
    </g>
    <g id="xtick_3">
     <g id="line2d_3">
      <g>
       <use xlink:href="#m595e14fbaf" x="138.409598" y="162.189375" style="fill: #262626; stroke: #262626; stroke-width: 1.25"/>
      </g>
     </g>
     <g id="text_3">
      <!-- DD -->
      <g style="fill: #262626" transform="translate(130.465536 179.562969) scale(0.11 -0.11)">
       <use xlink:href="#ArialMT-44"/>
       <use xlink:href="#ArialMT-44" transform="translate(72.216797 0)"/>
      </g>
      <!-- +R -->
      <g style="fill: #262626" transform="translate(131.225223 191.197531) scale(0.11 -0.11)">
       <defs>
        <path id="ArialMT-2b" d="M 1603 741 
L 1603 1997 
L 356 1997 
L 356 2522 
L 1603 2522 
L 1603 3769 
L 2134 3769 
L 2134 2522 
L 3381 2522 
L 3381 1997 
L 2134 1997 
L 2134 741 
L 1603 741 
z
" transform="scale(0.015625)"/>
       </defs>
       <use xlink:href="#ArialMT-2b"/>
       <use xlink:href="#ArialMT-52" transform="translate(58.398438 0)"/>
      </g>
     </g>
    </g>
    <g id="xtick_4">
     <g id="line2d_4">
      <g>
       <use xlink:href="#m595e14fbaf" x="173.895312" y="162.189375" style="fill: #262626; stroke: #262626; stroke-width: 1.25"/>
      </g>
     </g>
     <g id="text_4">
      <!-- SDD -->
      <g style="fill: #262626" transform="translate(162.282578 179.562969) scale(0.11 -0.11)">
       <defs>
        <path id="ArialMT-53" d="M 288 1472 
L 859 1522 
Q 900 1178 1048 958 
Q 1197 738 1509 602 
Q 1822 466 2213 466 
Q 2559 466 2825 569 
Q 3091 672 3220 851 
Q 3350 1031 3350 1244 
Q 3350 1459 3225 1620 
Q 3100 1781 2813 1891 
Q 2628 1963 1997 2114 
Q 1366 2266 1113 2400 
Q 784 2572 623 2826 
Q 463 3081 463 3397 
Q 463 3744 659 4045 
Q 856 4347 1234 4503 
Q 1613 4659 2075 4659 
Q 2584 4659 2973 4495 
Q 3363 4331 3572 4012 
Q 3781 3694 3797 3291 
L 3216 3247 
Q 3169 3681 2898 3903 
Q 2628 4125 2100 4125 
Q 1550 4125 1298 3923 
Q 1047 3722 1047 3438 
Q 1047 3191 1225 3031 
Q 1400 2872 2139 2705 
Q 2878 2538 3153 2413 
Q 3553 2228 3743 1945 
Q 3934 1663 3934 1294 
Q 3934 928 3725 604 
Q 3516 281 3123 101 
Q 2731 -78 2241 -78 
Q 1619 -78 1198 103 
Q 778 284 539 648 
Q 300 1013 288 1472 
z
" transform="scale(0.015625)"/>
       </defs>
       <use xlink:href="#ArialMT-53"/>
       <use xlink:href="#ArialMT-44" transform="translate(66.699219 0)"/>
       <use xlink:href="#ArialMT-44" transform="translate(138.916016 0)"/>
      </g>
      <!-- +R -->
      <g style="fill: #262626" transform="translate(166.710938 191.197531) scale(0.11 -0.11)">
       <use xlink:href="#ArialMT-2b"/>
       <use xlink:href="#ArialMT-52" transform="translate(58.398438 0)"/>
      </g>
     </g>
    </g>
    <g id="xtick_5">
     <g id="line2d_5">
      <g>
       <use xlink:href="#m595e14fbaf" x="209.381027" y="162.189375" style="fill: #262626; stroke: #262626; stroke-width: 1.25"/>
      </g>
     </g>
     <g id="text_5">
      <!-- RIDD -->
      <g style="fill: #262626" transform="translate(195.936964 179.562969) scale(0.11 -0.11)">
       <use xlink:href="#ArialMT-52"/>
       <use xlink:href="#ArialMT-49" transform="translate(72.216797 0)"/>
       <use xlink:href="#ArialMT-44" transform="translate(100 0)"/>
       <use xlink:href="#ArialMT-44" transform="translate(172.216797 0)"/>
      </g>
     </g>
    </g>
    <g id="xtick_6">
     <g id="line2d_6">
      <g>
       <use xlink:href="#m595e14fbaf" x="244.866741" y="162.189375" style="fill: #262626; stroke: #262626; stroke-width: 1.25"/>
      </g>
     </g>
     <g id="text_6">
      <!-- SDDIR -->
      <g style="fill: #262626" transform="translate(227.754007 179.562969) scale(0.11 -0.11)">
       <use xlink:href="#ArialMT-53"/>
       <use xlink:href="#ArialMT-44" transform="translate(66.699219 0)"/>
       <use xlink:href="#ArialMT-44" transform="translate(138.916016 0)"/>
       <use xlink:href="#ArialMT-49" transform="translate(211.132812 0)"/>
       <use xlink:href="#ArialMT-52" transform="translate(238.916016 0)"/>
      </g>
     </g>
    </g>
    <g id="xtick_7">
     <g id="line2d_7">
      <g>
       <use xlink:href="#m595e14fbaf" x="280.352455" y="162.189375" style="fill: #262626; stroke: #262626; stroke-width: 1.25"/>
      </g>
     </g>
     <g id="text_7">
      <!-- RISDD -->
      <g style="fill: #262626" transform="translate(263.239721 179.562969) scale(0.11 -0.11)">
       <use xlink:href="#ArialMT-52"/>
       <use xlink:href="#ArialMT-49" transform="translate(72.216797 0)"/>
       <use xlink:href="#ArialMT-53" transform="translate(100 0)"/>
       <use xlink:href="#ArialMT-44" transform="translate(166.699219 0)"/>
       <use xlink:href="#ArialMT-44" transform="translate(238.916016 0)"/>
      </g>
     </g>
    </g>
   </g>
   <g id="matplotlib.axis_2">
    <g id="ytick_1">
     <g id="line2d_8">
      <defs>
       <path id="ma661efe777" d="M 0 0 
L -6 0 
" style="stroke: #262626; stroke-width: 1.25"/>
      </defs>
      <g>
       <use xlink:href="#ma661efe777" x="49.695313" y="162.189375" style="fill: #262626; stroke: #262626; stroke-width: 1.25"/>
      </g>
     </g>
     <g id="text_8">
      <!-- 0 -->
      <g style="fill: #262626" transform="translate(34.078281 166.126172) scale(0.11 -0.11)">
       <defs>
        <path id="ArialMT-30" d="M 266 2259 
Q 266 3072 433 3567 
Q 600 4063 929 4331 
Q 1259 4600 1759 4600 
Q 2128 4600 2406 4451 
Q 2684 4303 2865 4023 
Q 3047 3744 3150 3342 
Q 3253 2941 3253 2259 
Q 3253 1453 3087 958 
Q 2922 463 2592 192 
Q 2263 -78 1759 -78 
Q 1097 -78 719 397 
Q 266 969 266 2259 
z
M 844 2259 
Q 844 1131 1108 757 
Q 1372 384 1759 384 
Q 2147 384 2411 759 
Q 2675 1134 2675 2259 
Q 2675 3391 2411 3762 
Q 2147 4134 1753 4134 
Q 1366 4134 1134 3806 
Q 844 3388 844 2259 
z
" transform="scale(0.015625)"/>
       </defs>
       <use xlink:href="#ArialMT-30"/>
      </g>
     </g>
    </g>
    <g id="ytick_2">
     <g id="line2d_9">
      <g>
       <use xlink:href="#ma661efe777" x="49.695313" y="130.955747" style="fill: #262626; stroke: #262626; stroke-width: 1.25"/>
      </g>
     </g>
     <g id="text_9">
      <!-- 20k -->
      <g style="fill: #262626" transform="translate(22.46125 134.892544) scale(0.11 -0.11)">
       <defs>
        <path id="ArialMT-32" d="M 3222 541 
L 3222 0 
L 194 0 
Q 188 203 259 391 
Q 375 700 629 1000 
Q 884 1300 1366 1694 
Q 2113 2306 2375 2664 
Q 2638 3022 2638 3341 
Q 2638 3675 2398 3904 
Q 2159 4134 1775 4134 
Q 1369 4134 1125 3890 
Q 881 3647 878 3216 
L 300 3275 
Q 359 3922 746 4261 
Q 1134 4600 1788 4600 
Q 2447 4600 2831 4234 
Q 3216 3869 3216 3328 
Q 3216 3053 3103 2787 
Q 2991 2522 2730 2228 
Q 2469 1934 1863 1422 
Q 1356 997 1212 845 
Q 1069 694 975 541 
L 3222 541 
z
" transform="scale(0.015625)"/>
        <path id="ArialMT-6b" d="M 425 0 
L 425 4581 
L 988 4581 
L 988 1969 
L 2319 3319 
L 3047 3319 
L 1778 2088 
L 3175 0 
L 2481 0 
L 1384 1697 
L 988 1316 
L 988 0 
L 425 0 
z
" transform="scale(0.015625)"/>
       </defs>
       <use xlink:href="#ArialMT-32"/>
       <use xlink:href="#ArialMT-30" transform="translate(55.615234 0)"/>
       <use xlink:href="#ArialMT-6b" transform="translate(111.230469 0)"/>
      </g>
     </g>
    </g>
    <g id="ytick_3">
     <g id="line2d_10">
      <g>
       <use xlink:href="#ma661efe777" x="49.695313" y="99.722119" style="fill: #262626; stroke: #262626; stroke-width: 1.25"/>
      </g>
     </g>
     <g id="text_10">
      <!-- 40k -->
      <g style="fill: #262626" transform="translate(22.46125 103.658915) scale(0.11 -0.11)">
       <defs>
        <path id="ArialMT-34" d="M 2069 0 
L 2069 1097 
L 81 1097 
L 81 1613 
L 2172 4581 
L 2631 4581 
L 2631 1613 
L 3250 1613 
L 3250 1097 
L 2631 1097 
L 2631 0 
L 2069 0 
z
M 2069 1613 
L 2069 3678 
L 634 1613 
L 2069 1613 
z
" transform="scale(0.015625)"/>
       </defs>
       <use xlink:href="#ArialMT-34"/>
       <use xlink:href="#ArialMT-30" transform="translate(55.615234 0)"/>
       <use xlink:href="#ArialMT-6b" transform="translate(111.230469 0)"/>
      </g>
     </g>
    </g>
    <g id="ytick_4">
     <g id="line2d_11">
      <g>
       <use xlink:href="#ma661efe777" x="49.695313" y="68.48849" style="fill: #262626; stroke: #262626; stroke-width: 1.25"/>
      </g>
     </g>
     <g id="text_11">
      <!-- 60k -->
      <g style="fill: #262626" transform="translate(22.46125 72.425287) scale(0.11 -0.11)">
       <defs>
        <path id="ArialMT-36" d="M 3184 3459 
L 2625 3416 
Q 2550 3747 2413 3897 
Q 2184 4138 1850 4138 
Q 1581 4138 1378 3988 
Q 1113 3794 959 3422 
Q 806 3050 800 2363 
Q 1003 2672 1297 2822 
Q 1591 2972 1913 2972 
Q 2475 2972 2870 2558 
Q 3266 2144 3266 1488 
Q 3266 1056 3080 686 
Q 2894 316 2569 119 
Q 2244 -78 1831 -78 
Q 1128 -78 684 439 
Q 241 956 241 2144 
Q 241 3472 731 4075 
Q 1159 4600 1884 4600 
Q 2425 4600 2770 4297 
Q 3116 3994 3184 3459 
z
M 888 1484 
Q 888 1194 1011 928 
Q 1134 663 1356 523 
Q 1578 384 1822 384 
Q 2178 384 2434 671 
Q 2691 959 2691 1453 
Q 2691 1928 2437 2201 
Q 2184 2475 1800 2475 
Q 1419 2475 1153 2201 
Q 888 1928 888 1484 
z
" transform="scale(0.015625)"/>
       </defs>
       <use xlink:href="#ArialMT-36"/>
       <use xlink:href="#ArialMT-30" transform="translate(55.615234 0)"/>
       <use xlink:href="#ArialMT-6b" transform="translate(111.230469 0)"/>
      </g>
     </g>
    </g>
    <g id="ytick_5">
     <g id="line2d_12">
      <g>
       <use xlink:href="#ma661efe777" x="49.695313" y="37.254862" style="fill: #262626; stroke: #262626; stroke-width: 1.25"/>
      </g>
     </g>
     <g id="text_12">
      <!-- 80k -->
      <g style="fill: #262626" transform="translate(22.46125 41.191659) scale(0.11 -0.11)">
       <defs>
        <path id="ArialMT-38" d="M 1131 2484 
Q 781 2613 612 2850 
Q 444 3088 444 3419 
Q 444 3919 803 4259 
Q 1163 4600 1759 4600 
Q 2359 4600 2725 4251 
Q 3091 3903 3091 3403 
Q 3091 3084 2923 2848 
Q 2756 2613 2416 2484 
Q 2838 2347 3058 2040 
Q 3278 1734 3278 1309 
Q 3278 722 2862 322 
Q 2447 -78 1769 -78 
Q 1091 -78 675 323 
Q 259 725 259 1325 
Q 259 1772 486 2073 
Q 713 2375 1131 2484 
z
M 1019 3438 
Q 1019 3113 1228 2906 
Q 1438 2700 1772 2700 
Q 2097 2700 2305 2904 
Q 2513 3109 2513 3406 
Q 2513 3716 2298 3927 
Q 2084 4138 1766 4138 
Q 1444 4138 1231 3931 
Q 1019 3725 1019 3438 
z
M 838 1322 
Q 838 1081 952 856 
Q 1066 631 1291 507 
Q 1516 384 1775 384 
Q 2178 384 2440 643 
Q 2703 903 2703 1303 
Q 2703 1709 2433 1975 
Q 2163 2241 1756 2241 
Q 1359 2241 1098 1978 
Q 838 1716 838 1322 
z
" transform="scale(0.015625)"/>
       </defs>
       <use xlink:href="#ArialMT-38"/>
       <use xlink:href="#ArialMT-30" transform="translate(55.615234 0)"/>
       <use xlink:href="#ArialMT-6b" transform="translate(111.230469 0)"/>
      </g>
     </g>
    </g>
    <g id="text_13">
     <!-- (#) Total HyperP -->
     <g style="fill: #262626" transform="translate(15.935625 135.226875) rotate(-90) scale(0.12 -0.12)">
      <defs>
       <path id="ArialMT-28" d="M 1497 -1347 
Q 1031 -759 709 28 
Q 388 816 388 1659 
Q 388 2403 628 3084 
Q 909 3875 1497 4659 
L 1900 4659 
Q 1522 4009 1400 3731 
Q 1209 3300 1100 2831 
Q 966 2247 966 1656 
Q 966 153 1900 -1347 
L 1497 -1347 
z
" transform="scale(0.015625)"/>
       <path id="ArialMT-23" d="M 322 -78 
L 594 1253 
L 66 1253 
L 66 1719 
L 688 1719 
L 919 2853 
L 66 2853 
L 66 3319 
L 1013 3319 
L 1284 4659 
L 1753 4659 
L 1481 3319 
L 2466 3319 
L 2738 4659 
L 3209 4659 
L 2938 3319 
L 3478 3319 
L 3478 2853 
L 2844 2853 
L 2609 1719 
L 3478 1719 
L 3478 1253 
L 2516 1253 
L 2244 -78 
L 1775 -78 
L 2044 1253 
L 1063 1253 
L 791 -78 
L 322 -78 
z
M 1156 1719 
L 2138 1719 
L 2372 2853 
L 1388 2853 
L 1156 1719 
z
" transform="scale(0.015625)"/>
       <path id="ArialMT-29" d="M 791 -1347 
L 388 -1347 
Q 1322 153 1322 1656 
Q 1322 2244 1188 2822 
Q 1081 3291 891 3722 
Q 769 4003 388 4659 
L 791 4659 
Q 1378 3875 1659 3084 
Q 1900 2403 1900 1659 
Q 1900 816 1576 28 
Q 1253 -759 791 -1347 
z
" transform="scale(0.015625)"/>
       <path id="ArialMT-20" transform="scale(0.015625)"/>
       <path id="ArialMT-54" d="M 1659 0 
L 1659 4041 
L 150 4041 
L 150 4581 
L 3781 4581 
L 3781 4041 
L 2266 4041 
L 2266 0 
L 1659 0 
z
" transform="scale(0.015625)"/>
       <path id="ArialMT-6f" d="M 213 1659 
Q 213 2581 725 3025 
Q 1153 3394 1769 3394 
Q 2453 3394 2887 2945 
Q 3322 2497 3322 1706 
Q 3322 1066 3130 698 
Q 2938 331 2570 128 
Q 2203 -75 1769 -75 
Q 1072 -75 642 372 
Q 213 819 213 1659 
z
M 791 1659 
Q 791 1022 1069 705 
Q 1347 388 1769 388 
Q 2188 388 2466 706 
Q 2744 1025 2744 1678 
Q 2744 2294 2464 2611 
Q 2184 2928 1769 2928 
Q 1347 2928 1069 2612 
Q 791 2297 791 1659 
z
" transform="scale(0.015625)"/>
       <path id="ArialMT-74" d="M 1650 503 
L 1731 6 
Q 1494 -44 1306 -44 
Q 1000 -44 831 53 
Q 663 150 594 308 
Q 525 466 525 972 
L 525 2881 
L 113 2881 
L 113 3319 
L 525 3319 
L 525 4141 
L 1084 4478 
L 1084 3319 
L 1650 3319 
L 1650 2881 
L 1084 2881 
L 1084 941 
Q 1084 700 1114 631 
Q 1144 563 1211 522 
Q 1278 481 1403 481 
Q 1497 481 1650 503 
z
" transform="scale(0.015625)"/>
       <path id="ArialMT-61" d="M 2588 409 
Q 2275 144 1986 34 
Q 1697 -75 1366 -75 
Q 819 -75 525 192 
Q 231 459 231 875 
Q 231 1119 342 1320 
Q 453 1522 633 1644 
Q 813 1766 1038 1828 
Q 1203 1872 1538 1913 
Q 2219 1994 2541 2106 
Q 2544 2222 2544 2253 
Q 2544 2597 2384 2738 
Q 2169 2928 1744 2928 
Q 1347 2928 1158 2789 
Q 969 2650 878 2297 
L 328 2372 
Q 403 2725 575 2942 
Q 747 3159 1072 3276 
Q 1397 3394 1825 3394 
Q 2250 3394 2515 3294 
Q 2781 3194 2906 3042 
Q 3031 2891 3081 2659 
Q 3109 2516 3109 2141 
L 3109 1391 
Q 3109 606 3145 398 
Q 3181 191 3288 0 
L 2700 0 
Q 2613 175 2588 409 
z
M 2541 1666 
Q 2234 1541 1622 1453 
Q 1275 1403 1131 1340 
Q 988 1278 909 1158 
Q 831 1038 831 891 
Q 831 666 1001 516 
Q 1172 366 1500 366 
Q 1825 366 2078 508 
Q 2331 650 2450 897 
Q 2541 1088 2541 1459 
L 2541 1666 
z
" transform="scale(0.015625)"/>
       <path id="ArialMT-6c" d="M 409 0 
L 409 4581 
L 972 4581 
L 972 0 
L 409 0 
z
" transform="scale(0.015625)"/>
       <path id="ArialMT-48" d="M 513 0 
L 513 4581 
L 1119 4581 
L 1119 2700 
L 3500 2700 
L 3500 4581 
L 4106 4581 
L 4106 0 
L 3500 0 
L 3500 2159 
L 1119 2159 
L 1119 0 
L 513 0 
z
" transform="scale(0.015625)"/>
       <path id="ArialMT-79" d="M 397 -1278 
L 334 -750 
Q 519 -800 656 -800 
Q 844 -800 956 -737 
Q 1069 -675 1141 -563 
Q 1194 -478 1313 -144 
Q 1328 -97 1363 -6 
L 103 3319 
L 709 3319 
L 1400 1397 
Q 1534 1031 1641 628 
Q 1738 1016 1872 1384 
L 2581 3319 
L 3144 3319 
L 1881 -56 
Q 1678 -603 1566 -809 
Q 1416 -1088 1222 -1217 
Q 1028 -1347 759 -1347 
Q 597 -1347 397 -1278 
z
" transform="scale(0.015625)"/>
       <path id="ArialMT-70" d="M 422 -1272 
L 422 3319 
L 934 3319 
L 934 2888 
Q 1116 3141 1344 3267 
Q 1572 3394 1897 3394 
Q 2322 3394 2647 3175 
Q 2972 2956 3137 2557 
Q 3303 2159 3303 1684 
Q 3303 1175 3120 767 
Q 2938 359 2589 142 
Q 2241 -75 1856 -75 
Q 1575 -75 1351 44 
Q 1128 163 984 344 
L 984 -1272 
L 422 -1272 
z
M 931 1641 
Q 931 1000 1190 694 
Q 1450 388 1819 388 
Q 2194 388 2461 705 
Q 2728 1022 2728 1688 
Q 2728 2322 2467 2637 
Q 2206 2953 1844 2953 
Q 1484 2953 1207 2617 
Q 931 2281 931 1641 
z
" transform="scale(0.015625)"/>
       <path id="ArialMT-65" d="M 2694 1069 
L 3275 997 
Q 3138 488 2766 206 
Q 2394 -75 1816 -75 
Q 1088 -75 661 373 
Q 234 822 234 1631 
Q 234 2469 665 2931 
Q 1097 3394 1784 3394 
Q 2450 3394 2872 2941 
Q 3294 2488 3294 1666 
Q 3294 1616 3291 1516 
L 816 1516 
Q 847 969 1125 678 
Q 1403 388 1819 388 
Q 2128 388 2347 550 
Q 2566 713 2694 1069 
z
M 847 1978 
L 2700 1978 
Q 2663 2397 2488 2606 
Q 2219 2931 1791 2931 
Q 1403 2931 1139 2672 
Q 875 2413 847 1978 
z
" transform="scale(0.015625)"/>
       <path id="ArialMT-72" d="M 416 0 
L 416 3319 
L 922 3319 
L 922 2816 
Q 1116 3169 1280 3281 
Q 1444 3394 1641 3394 
Q 1925 3394 2219 3213 
L 2025 2691 
Q 1819 2813 1613 2813 
Q 1428 2813 1281 2702 
Q 1134 2591 1072 2394 
Q 978 2094 978 1738 
L 978 0 
L 416 0 
z
" transform="scale(0.015625)"/>
       <path id="ArialMT-50" d="M 494 0 
L 494 4581 
L 2222 4581 
Q 2678 4581 2919 4538 
Q 3256 4481 3484 4323 
Q 3713 4166 3852 3881 
Q 3991 3597 3991 3256 
Q 3991 2672 3619 2267 
Q 3247 1863 2275 1863 
L 1100 1863 
L 1100 0 
L 494 0 
z
M 1100 2403 
L 2284 2403 
Q 2872 2403 3119 2622 
Q 3366 2841 3366 3238 
Q 3366 3525 3220 3729 
Q 3075 3934 2838 4000 
Q 2684 4041 2272 4041 
L 1100 4041 
L 1100 2403 
z
" transform="scale(0.015625)"/>
      </defs>
      <use xlink:href="#ArialMT-28"/>
      <use xlink:href="#ArialMT-23" transform="translate(33.300781 0)"/>
      <use xlink:href="#ArialMT-29" transform="translate(88.916016 0)"/>
      <use xlink:href="#ArialMT-20" transform="translate(122.216797 0)"/>
      <use xlink:href="#ArialMT-54" transform="translate(148.25 0)"/>
      <use xlink:href="#ArialMT-6f" transform="translate(198.208984 0)"/>
      <use xlink:href="#ArialMT-74" transform="translate(253.824219 0)"/>
      <use xlink:href="#ArialMT-61" transform="translate(281.607422 0)"/>
      <use xlink:href="#ArialMT-6c" transform="translate(337.222656 0)"/>
      <use xlink:href="#ArialMT-20" transform="translate(359.439453 0)"/>
      <use xlink:href="#ArialMT-48" transform="translate(387.222656 0)"/>
      <use xlink:href="#ArialMT-79" transform="translate(459.439453 0)"/>
      <use xlink:href="#ArialMT-70" transform="translate(509.439453 0)"/>
      <use xlink:href="#ArialMT-65" transform="translate(565.054688 0)"/>
      <use xlink:href="#ArialMT-72" transform="translate(620.669922 0)"/>
      <use xlink:href="#ArialMT-50" transform="translate(653.970703 0)"/>
     </g>
    </g>
   </g>
   <g id="patch_3">
    <path d="M 53.243884 162.189375 
L 81.632455 162.189375 
L 81.632455 153.715915 
L 53.243884 153.715915 
z
" clip-path="url(#p8da76afc92)" style="fill: #b3b3b3; opacity: 0.7; stroke: #ffffff; stroke-linejoin: miter"/>
   </g>
   <g id="patch_4">
    <path d="M 88.729598 162.189375 
L 117.11817 162.189375 
L 117.11817 137.138667 
L 88.729598 137.138667 
z
" clip-path="url(#p8da76afc92)" style="fill: #332848; opacity: 0.7; stroke: #ffffff; stroke-linejoin: miter"/>
   </g>
   <g id="patch_5">
    <path d="M 124.215312 162.189375 
L 152.603884 162.189375 
L 152.603884 146.642056 
L 124.215312 146.642056 
z
" clip-path="url(#p8da76afc92)" style="fill: #5a3763; opacity: 0.7; stroke: #ffffff; stroke-linejoin: miter"/>
   </g>
   <g id="patch_6">
    <path d="M 159.701027 162.189375 
L 188.089598 162.189375 
L 188.089598 122.889997 
L 159.701027 122.889997 
z
" clip-path="url(#p8da76afc92)" style="fill: #87477a; opacity: 0.7; stroke: #ffffff; stroke-linejoin: miter"/>
   </g>
   <g id="patch_7">
    <path d="M 195.186741 162.189375 
L 223.575312 162.189375 
L 223.575312 93.01492 
L 195.186741 93.01492 
z
" clip-path="url(#p8da76afc92)" style="fill: #af607c; opacity: 0.7; stroke: #ffffff; stroke-linejoin: miter"/>
   </g>
   <g id="patch_8">
    <path d="M 230.672455 162.189375 
L 259.061027 162.189375 
L 259.061027 79.33152 
L 230.672455 79.33152 
z
" clip-path="url(#p8da76afc92)" style="fill: #c7817c; opacity: 0.7; stroke: #ffffff; stroke-linejoin: miter"/>
   </g>
   <g id="patch_9">
    <path d="M 266.15817 162.189375 
L 294.546741 162.189375 
L 294.546741 135.113953 
L 266.15817 135.113953 
z
" clip-path="url(#p8da76afc92)" style="fill: #d4b777; opacity: 0.7; stroke: #ffffff; stroke-linejoin: miter"/>
   </g>
   <g id="line2d_13">
    <path d="M 67.43817 155.147815 
L 67.43817 151.95064 
" clip-path="url(#p8da76afc92)" style="fill: none; stroke: #424242; stroke-width: 2.7; stroke-linecap: round"/>
   </g>
   <g id="line2d_14">
    <path d="M 102.923884 141.721649 
L 102.923884 131.797797 
" clip-path="url(#p8da76afc92)" style="fill: none; stroke: #424242; stroke-width: 2.7; stroke-linecap: round"/>
   </g>
   <g id="line2d_15">
    <path d="M 138.409598 150.561776 
L 138.409598 142.305648 
" clip-path="url(#p8da76afc92)" style="fill: none; stroke: #424242; stroke-width: 2.7; stroke-linecap: round"/>
   </g>
   <g id="line2d_16">
    <path d="M 173.895312 131.102852 
L 173.895312 113.921481 
" clip-path="url(#p8da76afc92)" style="fill: none; stroke: #424242; stroke-width: 2.7; stroke-linecap: round"/>
   </g>
   <g id="line2d_17">
    <path d="M 209.381027 107.532241 
L 209.381027 77.421799 
" clip-path="url(#p8da76afc92)" style="fill: none; stroke: #424242; stroke-width: 2.7; stroke-linecap: round"/>
   </g>
   <g id="line2d_18">
    <path d="M 244.866741 90.160058 
L 244.866741 67.692621 
" clip-path="url(#p8da76afc92)" style="fill: none; stroke: #424242; stroke-width: 2.7; stroke-linecap: round"/>
   </g>
   <g id="line2d_19">
    <path d="M 280.352455 138.493868 
L 280.352455 131.188614 
" clip-path="url(#p8da76afc92)" style="fill: none; stroke: #424242; stroke-width: 2.7; stroke-linecap: round"/>
   </g>
   <g id="patch_10">
    <path d="M 49.695313 162.189375 
L 49.695313 21.789375 
" style="fill: none; stroke: #262626; stroke-width: 1.25; stroke-linejoin: miter; stroke-linecap: square"/>
   </g>
   <g id="patch_11">
    <path d="M 298.095312 162.189375 
L 298.095312 21.789375 
" style="fill: none; stroke: #262626; stroke-width: 1.25; stroke-linejoin: miter; stroke-linecap: square"/>
   </g>
   <g id="patch_12">
    <path d="M 49.695313 162.189375 
L 298.095312 162.189375 
" style="fill: none; stroke: #262626; stroke-width: 1.25; stroke-linejoin: miter; stroke-linecap: square"/>
   </g>
   <g id="patch_13">
    <path d="M 49.695313 21.789375 
L 298.095312 21.789375 
" style="fill: none; stroke: #262626; stroke-width: 1.25; stroke-linejoin: miter; stroke-linecap: square"/>
   </g>
   <g id="PathCollection_1">
    <defs>
     <path id="C0_0_d36b91054f" d="M 0 2.5 
C 0.663008 2.5 1.29895 2.236584 1.767767 1.767767 
C 2.236584 1.29895 2.5 0.663008 2.5 -0 
C 2.5 -0.663008 2.236584 -1.29895 1.767767 -1.767767 
C 1.29895 -2.236584 0.663008 -2.5 0 -2.5 
C -0.663008 -2.5 -1.29895 -2.236584 -1.767767 -1.767767 
C -2.236584 -1.29895 -2.5 -0.663008 -2.5 0 
C -2.5 0.663008 -2.236584 1.29895 -1.767767 1.767767 
C -1.29895 2.236584 -0.663008 2.5 0 2.5 
z
"/>
    </defs>
    <g clip-path="url(#p8da76afc92)">
     <use xlink:href="#C0_0_d36b91054f" x="69.525554" y="151.576188" style="fill: #ffffff; stroke: #000000; stroke-width: 0.4"/>
    </g>
    <g clip-path="url(#p8da76afc92)">
     <use xlink:href="#C0_0_d36b91054f" x="70.397066" y="153.028552" style="fill: #ffffff; stroke: #000000; stroke-width: 0.4"/>
    </g>
    <g clip-path="url(#p8da76afc92)">
     <use xlink:href="#C0_0_d36b91054f" x="70.419458" y="144.924987" style="fill: #ffffff; stroke: #000000; stroke-width: 0.4"/>
    </g>
   </g>
   <g id="PathCollection_2">
    <defs>
     <path id="C1_0_2023de2aea" d="M 0 2.5 
C 0.663008 2.5 1.29895 2.236584 1.767767 1.767767 
C 2.236584 1.29895 2.5 0.663008 2.5 -0 
C 2.5 -0.663008 2.236584 -1.29895 1.767767 -1.767767 
C 1.29895 -2.236584 0.663008 -2.5 0 -2.5 
C -0.663008 -2.5 -1.29895 -2.236584 -1.767767 -1.767767 
C -2.236584 -1.29895 -2.5 -0.663008 -2.5 0 
C -2.5 0.663008 -2.236584 1.29895 -1.767767 1.767767 
C -1.29895 2.236584 -0.663008 2.5 0 2.5 
z
"/>
    </defs>
    <g clip-path="url(#p8da76afc92)">
     <use xlink:href="#C1_0_2023de2aea" x="102.106599" y="132.083281" style="fill: #ffffff; stroke: #000000; stroke-width: 0.4"/>
    </g>
    <g clip-path="url(#p8da76afc92)">
     <use xlink:href="#C1_0_2023de2aea" x="101.980979" y="127.991675" style="fill: #ffffff; stroke: #000000; stroke-width: 0.4"/>
    </g>
    <g clip-path="url(#p8da76afc92)">
     <use xlink:href="#C1_0_2023de2aea" x="104.893186" y="112.426397" style="fill: #ffffff; stroke: #000000; stroke-width: 0.4"/>
    </g>
   </g>
   <g id="PathCollection_3">
    <defs>
     <path id="C2_0_548ffd1986" d="M 0 2.5 
C 0.663008 2.5 1.29895 2.236584 1.767767 1.767767 
C 2.236584 1.29895 2.5 0.663008 2.5 -0 
C 2.5 -0.663008 2.236584 -1.29895 1.767767 -1.767767 
C 1.29895 -2.236584 0.663008 -2.5 0 -2.5 
C -0.663008 -2.5 -1.29895 -2.236584 -1.767767 -1.767767 
C -2.236584 -1.29895 -2.5 -0.663008 -2.5 0 
C -2.5 0.663008 -2.236584 1.29895 -1.767767 1.767767 
C -1.29895 2.236584 -0.663008 2.5 0 2.5 
z
"/>
    </defs>
    <g clip-path="url(#p8da76afc92)">
     <use xlink:href="#C2_0_548ffd1986" x="141.946579" y="133.349804" style="fill: #ffffff; stroke: #000000; stroke-width: 0.4"/>
    </g>
    <g clip-path="url(#p8da76afc92)">
     <use xlink:href="#C2_0_548ffd1986" x="135.581334" y="135.440896" style="fill: #ffffff; stroke: #000000; stroke-width: 0.4"/>
    </g>
    <g clip-path="url(#p8da76afc92)">
     <use xlink:href="#C2_0_548ffd1986" x="137.713772" y="131.63664" style="fill: #ffffff; stroke: #000000; stroke-width: 0.4"/>
    </g>
   </g>
   <g id="PathCollection_4">
    <defs>
     <path id="C3_0_c4aefa0604" d="M 0 2.5 
C 0.663008 2.5 1.29895 2.236584 1.767767 1.767767 
C 2.236584 1.29895 2.5 0.663008 2.5 -0 
C 2.5 -0.663008 2.236584 -1.29895 1.767767 -1.767767 
C 1.29895 -2.236584 0.663008 -2.5 0 -2.5 
C -0.663008 -2.5 -1.29895 -2.236584 -1.767767 -1.767767 
C -2.236584 -1.29895 -2.5 -0.663008 -2.5 0 
C -2.5 0.663008 -2.236584 1.29895 -1.767767 1.767767 
C -1.29895 2.236584 -0.663008 2.5 0 2.5 
z
"/>
    </defs>
    <g clip-path="url(#p8da76afc92)">
     <use xlink:href="#C3_0_c4aefa0604" x="174.280438" y="93.981378" style="fill: #ffffff; stroke: #000000; stroke-width: 0.4"/>
    </g>
    <g clip-path="url(#p8da76afc92)">
     <use xlink:href="#C3_0_c4aefa0604" x="177.112493" y="98.678915" style="fill: #ffffff; stroke: #000000; stroke-width: 0.4"/>
    </g>
    <g clip-path="url(#p8da76afc92)">
     <use xlink:href="#C3_0_c4aefa0604" x="172.03157" y="95.974083" style="fill: #ffffff; stroke: #000000; stroke-width: 0.4"/>
    </g>
   </g>
   <g id="PathCollection_5">
    <defs>
     <path id="C4_0_b2c8de4bad" d="M 0 2.5 
C 0.663008 2.5 1.29895 2.236584 1.767767 1.767767 
C 2.236584 1.29895 2.5 0.663008 2.5 -0 
C 2.5 -0.663008 2.236584 -1.29895 1.767767 -1.767767 
C 1.29895 -2.236584 0.663008 -2.5 0 -2.5 
C -0.663008 -2.5 -1.29895 -2.236584 -1.767767 -1.767767 
C -2.236584 -1.29895 -2.5 -0.663008 -2.5 0 
C -2.5 0.663008 -2.236584 1.29895 -1.767767 1.767767 
C -1.29895 2.236584 -0.663008 2.5 0 2.5 
z
"/>
    </defs>
    <g clip-path="url(#p8da76afc92)">
     <use xlink:href="#C4_0_b2c8de4bad" x="206.116379" y="61.659258" style="fill: #ffffff; stroke: #000000; stroke-width: 0.4"/>
    </g>
    <g clip-path="url(#p8da76afc92)">
     <use xlink:href="#C4_0_b2c8de4bad" x="211.011845" y="47.198088" style="fill: #ffffff; stroke: #000000; stroke-width: 0.4"/>
    </g>
    <g clip-path="url(#p8da76afc92)">
     <use xlink:href="#C4_0_b2c8de4bad" x="209.007479" y="28.475089" style="fill: #ffffff; stroke: #000000; stroke-width: 0.4"/>
    </g>
   </g>
   <g id="PathCollection_6">
    <defs>
     <path id="C5_0_1d2651ba70" d="M 0 2.5 
C 0.663008 2.5 1.29895 2.236584 1.767767 1.767767 
C 2.236584 1.29895 2.5 0.663008 2.5 -0 
C 2.5 -0.663008 2.236584 -1.29895 1.767767 -1.767767 
C 1.29895 -2.236584 0.663008 -2.5 0 -2.5 
C -0.663008 -2.5 -1.29895 -2.236584 -1.767767 -1.767767 
C -2.236584 -1.29895 -2.5 -0.663008 -2.5 0 
C -2.5 0.663008 -2.236584 1.29895 -1.767767 1.767767 
C -1.29895 2.236584 -0.663008 2.5 0 2.5 
z
"/>
    </defs>
    <g clip-path="url(#p8da76afc92)">
     <use xlink:href="#C5_0_1d2651ba70" x="245.80743" y="64.843526" style="fill: #ffffff; stroke: #000000; stroke-width: 0.4"/>
    </g>
    <g clip-path="url(#p8da76afc92)">
     <use xlink:href="#C5_0_1d2651ba70" x="242.601419" y="54.720707" style="fill: #ffffff; stroke: #000000; stroke-width: 0.4"/>
    </g>
    <g clip-path="url(#p8da76afc92)">
     <use xlink:href="#C5_0_1d2651ba70" x="243.792673" y="34.457891" style="fill: #ffffff; stroke: #000000; stroke-width: 0.4"/>
    </g>
   </g>
   <g id="PathCollection_7">
    <defs>
     <path id="C6_0_7106d2b2df" d="M 0 2.5 
C 0.663008 2.5 1.29895 2.236584 1.767767 1.767767 
C 2.236584 1.29895 2.5 0.663008 2.5 -0 
C 2.5 -0.663008 2.236584 -1.29895 1.767767 -1.767767 
C 1.29895 -2.236584 0.663008 -2.5 0 -2.5 
C -0.663008 -2.5 -1.29895 -2.236584 -1.767767 -1.767767 
C -2.236584 -1.29895 -2.5 -0.663008 -2.5 0 
C -2.5 0.663008 -2.236584 1.29895 -1.767767 1.767767 
C -1.29895 2.236584 -0.663008 2.5 0 2.5 
z
"/>
    </defs>
    <g clip-path="url(#p8da76afc92)">
     <use xlink:href="#C6_0_7106d2b2df" x="277.56524" y="137.002577" style="fill: #ffffff; stroke: #000000; stroke-width: 0.4"/>
    </g>
    <g clip-path="url(#p8da76afc92)">
     <use xlink:href="#C6_0_7106d2b2df" x="279.828947" y="139.698039" style="fill: #ffffff; stroke: #000000; stroke-width: 0.4"/>
    </g>
    <g clip-path="url(#p8da76afc92)">
     <use xlink:href="#C6_0_7106d2b2df" x="278.195743" y="112.482617" style="fill: #ffffff; stroke: #000000; stroke-width: 0.4"/>
    </g>
   </g>
   <g id="PathCollection_8">
    <path d="M 69.662941 150.797161 
L 67.162941 155.797161 
L 72.162941 155.797161 
z
" clip-path="url(#p8da76afc92)" style="fill: #ffffff; stroke: #000000; stroke-width: 0.4"/>
    <path d="M 68.210592 151.507726 
L 65.710592 156.507726 
L 70.710592 156.507726 
z
" clip-path="url(#p8da76afc92)" style="fill: #ffffff; stroke: #000000; stroke-width: 0.4"/>
    <path d="M 65.568203 154.01891 
L 63.068203 159.01891 
L 68.068203 159.01891 
z
" clip-path="url(#p8da76afc92)" style="fill: #ffffff; stroke: #000000; stroke-width: 0.4"/>
   </g>
   <g id="PathCollection_9">
    <path d="M 104.073103 129.216286 
L 101.573103 134.216286 
L 106.573103 134.216286 
z
" clip-path="url(#p8da76afc92)" style="fill: #ffffff; stroke: #000000; stroke-width: 0.4"/>
    <path d="M 101.475513 135.069468 
L 98.975513 140.069468 
L 103.975513 140.069468 
z
" clip-path="url(#p8da76afc92)" style="fill: #ffffff; stroke: #000000; stroke-width: 0.4"/>
    <path d="M 100.85448 129.709777 
L 98.35448 134.709777 
L 103.35448 134.709777 
z
" clip-path="url(#p8da76afc92)" style="fill: #ffffff; stroke: #000000; stroke-width: 0.4"/>
   </g>
   <g id="PathCollection_10">
    <path d="M 141.854594 140.992925 
L 139.354594 145.992925 
L 144.354594 145.992925 
z
" clip-path="url(#p8da76afc92)" style="fill: #ffffff; stroke: #000000; stroke-width: 0.4"/>
    <path d="M 139.470191 141.249041 
L 136.970191 146.249041 
L 141.970191 146.249041 
z
" clip-path="url(#p8da76afc92)" style="fill: #ffffff; stroke: #000000; stroke-width: 0.4"/>
    <path d="M 140.855392 139.312556 
L 138.355392 144.312556 
L 143.355392 144.312556 
z
" clip-path="url(#p8da76afc92)" style="fill: #ffffff; stroke: #000000; stroke-width: 0.4"/>
   </g>
   <g id="PathCollection_11">
    <path d="M 176.750416 115.517216 
L 174.250416 120.517216 
L 179.250416 120.517216 
z
" clip-path="url(#p8da76afc92)" style="fill: #ffffff; stroke: #000000; stroke-width: 0.4"/>
    <path d="M 171.170453 120.449006 
L 168.670453 125.449006 
L 173.670453 125.449006 
z
" clip-path="url(#p8da76afc92)" style="fill: #ffffff; stroke: #000000; stroke-width: 0.4"/>
    <path d="M 171.438002 108.894125 
L 168.938002 113.894125 
L 173.938002 113.894125 
z
" clip-path="url(#p8da76afc92)" style="fill: #ffffff; stroke: #000000; stroke-width: 0.4"/>
   </g>
   <g id="PathCollection_12">
    <path d="M 208.579846 83.11545 
L 206.079846 88.11545 
L 211.079846 88.11545 
z
" clip-path="url(#p8da76afc92)" style="fill: #ffffff; stroke: #000000; stroke-width: 0.4"/>
    <path d="M 209.367405 81.658402 
L 206.867405 86.658402 
L 211.867405 86.658402 
z
" clip-path="url(#p8da76afc92)" style="fill: #ffffff; stroke: #000000; stroke-width: 0.4"/>
    <path d="M 207.942766 77.769815 
L 205.442766 82.769815 
L 210.442766 82.769815 
z
" clip-path="url(#p8da76afc92)" style="fill: #ffffff; stroke: #000000; stroke-width: 0.4"/>
   </g>
   <g id="PathCollection_13">
    <path d="M 243.70706 91.098766 
L 241.20706 96.098766 
L 246.20706 96.098766 
z
" clip-path="url(#p8da76afc92)" style="fill: #ffffff; stroke: #000000; stroke-width: 0.4"/>
    <path d="M 247.133242 95.102917 
L 244.633242 100.102917 
L 249.633242 100.102917 
z
" clip-path="url(#p8da76afc92)" style="fill: #ffffff; stroke: #000000; stroke-width: 0.4"/>
    <path d="M 246.137929 91.915525 
L 243.637929 96.915525 
L 248.637929 96.915525 
z
" clip-path="url(#p8da76afc92)" style="fill: #ffffff; stroke: #000000; stroke-width: 0.4"/>
   </g>
   <g id="PathCollection_14">
    <path d="M 280.415442 126.890942 
L 277.915442 131.890942 
L 282.915442 131.890942 
z
" clip-path="url(#p8da76afc92)" style="fill: #ffffff; stroke: #000000; stroke-width: 0.4"/>
    <path d="M 276.878157 129.197545 
L 274.378157 134.197545 
L 279.378157 134.197545 
z
" clip-path="url(#p8da76afc92)" style="fill: #ffffff; stroke: #000000; stroke-width: 0.4"/>
    <path d="M 282.120712 127.053357 
L 279.620712 132.053357 
L 284.620712 132.053357 
z
" clip-path="url(#p8da76afc92)" style="fill: #ffffff; stroke: #000000; stroke-width: 0.4"/>
   </g>
   <g id="PathCollection_15">
    <path d="M 2.5 201.583781 
L 2.5 198.083781 
L -1 198.083781 
" clip-path="url(#p8da76afc92)" style="fill: none; stroke: #000000; stroke-width: 0.4"/>
   </g>
   <g id="PathCollection_16">
    <path d="M 2.5 201.583781 
L 2.5 198.083781 
L -1 198.083781 
" clip-path="url(#p8da76afc92)" style="fill: none; stroke: #000000; stroke-width: 0.4"/>
   </g>
   <g id="PathCollection_17">
    <path d="M 2.5 201.583781 
L 2.5 198.083781 
L -1 198.083781 
" clip-path="url(#p8da76afc92)" style="fill: none; stroke: #000000; stroke-width: 0.4"/>
   </g>
   <g id="PathCollection_18">
    <path d="M 2.5 201.583781 
L 2.5 198.083781 
L -1 198.083781 
" clip-path="url(#p8da76afc92)" style="fill: none; stroke: #000000; stroke-width: 0.4"/>
   </g>
   <g id="PathCollection_19">
    <path d="M 2.5 201.583781 
L 2.5 198.083781 
L -1 198.083781 
" clip-path="url(#p8da76afc92)" style="fill: none; stroke: #000000; stroke-width: 0.4"/>
   </g>
   <g id="PathCollection_20">
    <path d="M 245.293761 69.487715 
L 250.293761 69.487715 
L 250.293761 64.487715 
L 245.293761 64.487715 
z
" clip-path="url(#p8da76afc92)" style="fill: #ffffff; stroke: #000000; stroke-width: 0.4"/>
    <path d="M 240.668168 47.524227 
L 245.668168 47.524227 
L 245.668168 42.524227 
L 240.668168 42.524227 
z
" clip-path="url(#p8da76afc92)" style="fill: #ffffff; stroke: #000000; stroke-width: 0.4"/>
    <path d="M 244.01002 56.141585 
L 249.01002 56.141585 
L 249.01002 51.141585 
L 244.01002 51.141585 
z
" clip-path="url(#p8da76afc92)" style="fill: #ffffff; stroke: #000000; stroke-width: 0.4"/>
   </g>
   <g id="PathCollection_21">
    <path d="M 279.692114 127.961752 
L 284.692114 127.961752 
L 284.692114 122.961752 
L 279.692114 122.961752 
z
" clip-path="url(#p8da76afc92)" style="fill: #ffffff; stroke: #000000; stroke-width: 0.4"/>
    <path d="M 280.937187 134.349029 
L 285.937187 134.349029 
L 285.937187 129.349029 
L 280.937187 129.349029 
z
" clip-path="url(#p8da76afc92)" style="fill: #ffffff; stroke: #000000; stroke-width: 0.4"/>
    <path d="M 275.806025 137.939334 
L 280.806025 137.939334 
L 280.806025 132.939334 
L 275.806025 132.939334 
z
" clip-path="url(#p8da76afc92)" style="fill: #ffffff; stroke: #000000; stroke-width: 0.4"/>
   </g>
   <g id="PathCollection_22">
    <path d="M 68.52301 154.546393 
L 72.058544 151.010859 
L 68.52301 147.475326 
L 64.987476 151.010859 
z
" clip-path="url(#p8da76afc92)" style="fill: #ffffff; stroke: #000000; stroke-width: 0.4"/>
    <path d="M 70.516226 158.516188 
L 74.05176 154.980654 
L 70.516226 151.44512 
L 66.980693 154.980654 
z
" clip-path="url(#p8da76afc92)" style="fill: #ffffff; stroke: #000000; stroke-width: 0.4"/>
    <path d="M 67.676539 157.462053 
L 71.212073 153.926519 
L 67.676539 150.390985 
L 64.141005 153.926519 
z
" clip-path="url(#p8da76afc92)" style="fill: #ffffff; stroke: #000000; stroke-width: 0.4"/>
    <path d="M 69.174981 157.864966 
L 72.710515 154.329432 
L 69.174981 150.793899 
L 65.639447 154.329432 
z
" clip-path="url(#p8da76afc92)" style="fill: #ffffff; stroke: #000000; stroke-width: 0.4"/>
   </g>
   <g id="PathCollection_23">
    <path d="M 100.890794 142.71041 
L 104.426328 139.174876 
L 100.890794 135.639342 
L 97.35526 139.174876 
z
" clip-path="url(#p8da76afc92)" style="fill: #ffffff; stroke: #000000; stroke-width: 0.4"/>
    <path d="M 102.194979 143.791093 
L 105.730513 140.25556 
L 102.194979 136.720026 
L 98.659446 140.25556 
z
" clip-path="url(#p8da76afc92)" style="fill: #ffffff; stroke: #000000; stroke-width: 0.4"/>
    <path d="M 104.053245 139.791627 
L 107.588778 136.256094 
L 104.053245 132.72056 
L 100.517711 136.256094 
z
" clip-path="url(#p8da76afc92)" style="fill: #ffffff; stroke: #000000; stroke-width: 0.4"/>
    <path d="M 104.014172 144.467302 
L 107.549706 140.931768 
L 104.014172 137.396234 
L 100.478638 140.931768 
z
" clip-path="url(#p8da76afc92)" style="fill: #ffffff; stroke: #000000; stroke-width: 0.4"/>
   </g>
   <g id="PathCollection_24">
    <path d="M 136.311055 154.549517 
L 139.846588 151.013983 
L 136.311055 147.478449 
L 132.775521 151.013983 
z
" clip-path="url(#p8da76afc92)" style="fill: #ffffff; stroke: #000000; stroke-width: 0.4"/>
    <path d="M 138.079614 154.793139 
L 141.615148 151.257605 
L 138.079614 147.722071 
L 134.54408 151.257605 
z
" clip-path="url(#p8da76afc92)" style="fill: #ffffff; stroke: #000000; stroke-width: 0.4"/>
    <path d="M 135.309214 156.206461 
L 138.844748 152.670927 
L 135.309214 149.135393 
L 131.77368 152.670927 
z
" clip-path="url(#p8da76afc92)" style="fill: #ffffff; stroke: #000000; stroke-width: 0.4"/>
    <path d="M 140.064942 156.257996 
L 143.600476 152.722462 
L 140.064942 149.186928 
L 136.529408 152.722462 
z
" clip-path="url(#p8da76afc92)" style="fill: #ffffff; stroke: #000000; stroke-width: 0.4"/>
   </g>
   <g id="PathCollection_25">
    <path d="M 172.740365 136.413711 
L 176.275899 132.878177 
L 172.740365 129.342643 
L 169.204832 132.878177 
z
" clip-path="url(#p8da76afc92)" style="fill: #ffffff; stroke: #000000; stroke-width: 0.4"/>
    <path d="M 174.305581 134.150834 
L 177.841115 130.6153 
L 174.305581 127.079766 
L 170.770047 130.6153 
z
" clip-path="url(#p8da76afc92)" style="fill: #ffffff; stroke: #000000; stroke-width: 0.4"/>
    <path d="M 174.414617 136.415272 
L 177.950151 132.879738 
L 174.414617 129.344204 
L 170.879083 132.879738 
z
" clip-path="url(#p8da76afc92)" style="fill: #ffffff; stroke: #000000; stroke-width: 0.4"/>
    <path d="M 176.804203 135.968631 
L 180.339737 132.433097 
L 176.804203 128.897564 
L 173.268669 132.433097 
z
" clip-path="url(#p8da76afc92)" style="fill: #ffffff; stroke: #000000; stroke-width: 0.4"/>
   </g>
   <g id="PathCollection_26">
    <path d="M 211.129659 105.648587 
L 214.665193 102.113053 
L 211.129659 98.577519 
L 207.594125 102.113053 
z
" clip-path="url(#p8da76afc92)" style="fill: #ffffff; stroke: #000000; stroke-width: 0.4"/>
    <path d="M 206.691921 111.636073 
L 210.227455 108.100539 
L 206.691921 104.565005 
L 203.156387 108.100539 
z
" clip-path="url(#p8da76afc92)" style="fill: #ffffff; stroke: #000000; stroke-width: 0.4"/>
    <path d="M 208.746204 110.417962 
L 212.281738 106.882428 
L 208.746204 103.346894 
L 205.21067 106.882428 
z
" clip-path="url(#p8da76afc92)" style="fill: #ffffff; stroke: #000000; stroke-width: 0.4"/>
    <path d="M 211.286888 117.311224 
L 214.822422 113.77569 
L 211.286888 110.240156 
L 207.751354 113.77569 
z
" clip-path="url(#p8da76afc92)" style="fill: #ffffff; stroke: #000000; stroke-width: 0.4"/>
   </g>
   <g id="PathCollection_27">
    <path d="M 241.743907 82.787133 
L 245.279441 79.251599 
L 241.743907 75.716065 
L 238.208373 79.251599 
z
" clip-path="url(#p8da76afc92)" style="fill: #ffffff; stroke: #000000; stroke-width: 0.4"/>
    <path d="M 242.974301 80.483652 
L 246.509835 76.948119 
L 242.974301 73.412585 
L 239.438767 76.948119 
z
" clip-path="url(#p8da76afc92)" style="fill: #ffffff; stroke: #000000; stroke-width: 0.4"/>
    <path d="M 246.818403 82.501345 
L 250.353937 78.965811 
L 246.818403 75.430277 
L 243.282869 78.965811 
z
" clip-path="url(#p8da76afc92)" style="fill: #ffffff; stroke: #000000; stroke-width: 0.4"/>
    <path d="M 246.924816 79.404531 
L 250.460349 75.868997 
L 246.924816 72.333463 
L 243.389282 75.868997 
z
" clip-path="url(#p8da76afc92)" style="fill: #ffffff; stroke: #000000; stroke-width: 0.4"/>
   </g>
   <g id="PathCollection_28">
    <path d="M 283.338431 142.215357 
L 286.873965 138.679823 
L 283.338431 135.144289 
L 279.802897 138.679823 
z
" clip-path="url(#p8da76afc92)" style="fill: #ffffff; stroke: #000000; stroke-width: 0.4"/>
    <path d="M 280.892652 141.065959 
L 284.428185 137.530426 
L 280.892652 133.994892 
L 277.357118 137.530426 
z
" clip-path="url(#p8da76afc92)" style="fill: #ffffff; stroke: #000000; stroke-width: 0.4"/>
    <path d="M 280.933255 138.909277 
L 284.468789 135.373744 
L 280.933255 131.83821 
L 277.397721 135.373744 
z
" clip-path="url(#p8da76afc92)" style="fill: #ffffff; stroke: #000000; stroke-width: 0.4"/>
    <path d="M 283.519769 140.513124 
L 287.055303 136.97759 
L 283.519769 133.442056 
L 279.984235 136.97759 
z
" clip-path="url(#p8da76afc92)" style="fill: #ffffff; stroke: #000000; stroke-width: 0.4"/>
   </g>
   <g id="PathCollection_29">
    <defs>
     <path id="C7_0_9f7c7d83c8" d="M -0.833333 2.5 
L 0.833333 2.5 
L 0.833333 0.833333 
L 2.5 0.833333 
L 2.5 -0.833333 
L 0.833333 -0.833333 
L 0.833333 -2.5 
L -0.833333 -2.5 
L -0.833333 -0.833333 
L -2.5 -0.833333 
L -2.5 0.833333 
L -0.833333 0.833333 
z
"/>
    </defs>
    <g clip-path="url(#p8da76afc92)">
     <use xlink:href="#C7_0_9f7c7d83c8" x="65.153626" y="155.778673" style="fill: #ffffff; stroke: #000000; stroke-width: 0.4"/>
    </g>
    <g clip-path="url(#p8da76afc92)">
     <use xlink:href="#C7_0_9f7c7d83c8" x="68.112435" y="156.664146" style="fill: #ffffff; stroke: #000000; stroke-width: 0.4"/>
    </g>
    <g clip-path="url(#p8da76afc92)">
     <use xlink:href="#C7_0_9f7c7d83c8" x="70.959715" y="155.819277" style="fill: #ffffff; stroke: #000000; stroke-width: 0.4"/>
    </g>
    <g clip-path="url(#p8da76afc92)">
     <use xlink:href="#C7_0_9f7c7d83c8" x="69.639438" y="156.159723" style="fill: #ffffff; stroke: #000000; stroke-width: 0.4"/>
    </g>
   </g>
   <g id="PathCollection_30">
    <defs>
     <path id="C8_0_763e694157" d="M -0.833333 2.5 
L 0.833333 2.5 
L 0.833333 0.833333 
L 2.5 0.833333 
L 2.5 -0.833333 
L 0.833333 -0.833333 
L 0.833333 -2.5 
L -0.833333 -2.5 
L -0.833333 -0.833333 
L -2.5 -0.833333 
L -2.5 0.833333 
L -0.833333 0.833333 
z
"/>
    </defs>
    <g clip-path="url(#p8da76afc92)">
     <use xlink:href="#C8_0_763e694157" x="101.555845" y="148.532471" style="fill: #ffffff; stroke: #000000; stroke-width: 0.4"/>
    </g>
    <g clip-path="url(#p8da76afc92)">
     <use xlink:href="#C8_0_763e694157" x="103.477524" y="145.24357" style="fill: #ffffff; stroke: #000000; stroke-width: 0.4"/>
    </g>
    <g clip-path="url(#p8da76afc92)">
     <use xlink:href="#C8_0_763e694157" x="103.773018" y="146.247731" style="fill: #ffffff; stroke: #000000; stroke-width: 0.4"/>
    </g>
    <g clip-path="url(#p8da76afc92)">
     <use xlink:href="#C8_0_763e694157" x="101.362387" y="149.30238" style="fill: #ffffff; stroke: #000000; stroke-width: 0.4"/>
    </g>
   </g>
   <g id="PathCollection_31">
    <defs>
     <path id="C9_0_1a2c7744b9" d="M -0.833333 2.5 
L 0.833333 2.5 
L 0.833333 0.833333 
L 2.5 0.833333 
L 2.5 -0.833333 
L 0.833333 -0.833333 
L 0.833333 -2.5 
L -0.833333 -2.5 
L -0.833333 -0.833333 
L -2.5 -0.833333 
L -2.5 0.833333 
L -0.833333 0.833333 
z
"/>
    </defs>
    <g clip-path="url(#p8da76afc92)">
     <use xlink:href="#C9_0_1a2c7744b9" x="141.701756" y="153.906217" style="fill: #ffffff; stroke: #000000; stroke-width: 0.4"/>
    </g>
    <g clip-path="url(#p8da76afc92)">
     <use xlink:href="#C9_0_1a2c7744b9" x="140.433458" y="153.812516" style="fill: #ffffff; stroke: #000000; stroke-width: 0.4"/>
    </g>
    <g clip-path="url(#p8da76afc92)">
     <use xlink:href="#C9_0_1a2c7744b9" x="141.065829" y="154.54963" style="fill: #ffffff; stroke: #000000; stroke-width: 0.4"/>
    </g>
    <g clip-path="url(#p8da76afc92)">
     <use xlink:href="#C9_0_1a2c7744b9" x="136.000371" y="153.573579" style="fill: #ffffff; stroke: #000000; stroke-width: 0.4"/>
    </g>
   </g>
   <g id="PathCollection_32">
    <defs>
     <path id="Ca_0_8218e5d48a" d="M -0.833333 2.5 
L 0.833333 2.5 
L 0.833333 0.833333 
L 2.5 0.833333 
L 2.5 -0.833333 
L 0.833333 -0.833333 
L 0.833333 -2.5 
L -0.833333 -2.5 
L -0.833333 -0.833333 
L -2.5 -0.833333 
L -2.5 0.833333 
L -0.833333 0.833333 
z
"/>
    </defs>
    <g clip-path="url(#p8da76afc92)">
     <use xlink:href="#Ca_0_8218e5d48a" x="175.219679" y="140.85056" style="fill: #ffffff; stroke: #000000; stroke-width: 0.4"/>
    </g>
    <g clip-path="url(#p8da76afc92)">
     <use xlink:href="#Ca_0_8218e5d48a" x="175.222818" y="135.86255" style="fill: #ffffff; stroke: #000000; stroke-width: 0.4"/>
    </g>
    <g clip-path="url(#p8da76afc92)">
     <use xlink:href="#Ca_0_8218e5d48a" x="170.362115" y="135.84381" style="fill: #ffffff; stroke: #000000; stroke-width: 0.4"/>
    </g>
    <g clip-path="url(#p8da76afc92)">
     <use xlink:href="#Ca_0_8218e5d48a" x="171.442565" y="138.102001" style="fill: #ffffff; stroke: #000000; stroke-width: 0.4"/>
    </g>
   </g>
   <g id="PathCollection_33">
    <defs>
     <path id="Cb_0_c2b348896e" d="M -0.833333 2.5 
L 0.833333 2.5 
L 0.833333 0.833333 
L 2.5 0.833333 
L 2.5 -0.833333 
L 0.833333 -0.833333 
L 0.833333 -2.5 
L -0.833333 -2.5 
L -0.833333 -0.833333 
L -2.5 -0.833333 
L -2.5 0.833333 
L -0.833333 0.833333 
z
"/>
    </defs>
    <g clip-path="url(#p8da76afc92)">
     <use xlink:href="#Cb_0_c2b348896e" x="212.858189" y="126.433117" style="fill: #ffffff; stroke: #000000; stroke-width: 0.4"/>
    </g>
    <g clip-path="url(#p8da76afc92)">
     <use xlink:href="#Cb_0_c2b348896e" x="209.470386" y="122.463323" style="fill: #ffffff; stroke: #000000; stroke-width: 0.4"/>
    </g>
    <g clip-path="url(#p8da76afc92)">
     <use xlink:href="#Cb_0_c2b348896e" x="207.560913" y="118.516954" style="fill: #ffffff; stroke: #000000; stroke-width: 0.4"/>
    </g>
    <g clip-path="url(#p8da76afc92)">
     <use xlink:href="#Cb_0_c2b348896e" x="212.233494" y="116.547674" style="fill: #ffffff; stroke: #000000; stroke-width: 0.4"/>
    </g>
   </g>
   <g id="PathCollection_34">
    <defs>
     <path id="Cc_0_4697e2795c" d="M -0.833333 2.5 
L 0.833333 2.5 
L 0.833333 0.833333 
L 2.5 0.833333 
L 2.5 -0.833333 
L 0.833333 -0.833333 
L 0.833333 -2.5 
L -0.833333 -2.5 
L -0.833333 -0.833333 
L -2.5 -0.833333 
L -2.5 0.833333 
L -0.833333 0.833333 
z
"/>
    </defs>
    <g clip-path="url(#p8da76afc92)">
     <use xlink:href="#Cc_0_4697e2795c" x="247.428231" y="111.570595" style="fill: #ffffff; stroke: #000000; stroke-width: 0.4"/>
    </g>
    <g clip-path="url(#p8da76afc92)">
     <use xlink:href="#Cc_0_4697e2795c" x="246.909309" y="105.287951" style="fill: #ffffff; stroke: #000000; stroke-width: 0.4"/>
    </g>
    <g clip-path="url(#p8da76afc92)">
     <use xlink:href="#Cc_0_4697e2795c" x="241.487073" y="109.910528" style="fill: #ffffff; stroke: #000000; stroke-width: 0.4"/>
    </g>
    <g clip-path="url(#p8da76afc92)">
     <use xlink:href="#Cc_0_4697e2795c" x="245.241324" y="105.539382" style="fill: #ffffff; stroke: #000000; stroke-width: 0.4"/>
    </g>
   </g>
   <g id="PathCollection_35">
    <defs>
     <path id="Cd_0_7a8cea5d9a" d="M -0.833333 2.5 
L 0.833333 2.5 
L 0.833333 0.833333 
L 2.5 0.833333 
L 2.5 -0.833333 
L 0.833333 -0.833333 
L 0.833333 -2.5 
L -0.833333 -2.5 
L -0.833333 -0.833333 
L -2.5 -0.833333 
L -2.5 0.833333 
L -0.833333 0.833333 
z
"/>
    </defs>
    <g clip-path="url(#p8da76afc92)">
     <use xlink:href="#Cd_0_7a8cea5d9a" x="280.955161" y="141.234734" style="fill: #ffffff; stroke: #000000; stroke-width: 0.4"/>
    </g>
    <g clip-path="url(#p8da76afc92)">
     <use xlink:href="#Cd_0_7a8cea5d9a" x="277.092198" y="141.247227" style="fill: #ffffff; stroke: #000000; stroke-width: 0.4"/>
    </g>
    <g clip-path="url(#p8da76afc92)">
     <use xlink:href="#Cd_0_7a8cea5d9a" x="280.765954" y="145.832324" style="fill: #ffffff; stroke: #000000; stroke-width: 0.4"/>
    </g>
    <g clip-path="url(#p8da76afc92)">
     <use xlink:href="#Cd_0_7a8cea5d9a" x="280.711637" y="147.486145" style="fill: #ffffff; stroke: #000000; stroke-width: 0.4"/>
    </g>
   </g>
   <g id="text_14">
    <!-- 4dpi -->
    <g style="fill: #262626" transform="translate(162.5525 15.789375) scale(0.12 -0.12)">
     <defs>
      <path id="ArialMT-64" d="M 2575 0 
L 2575 419 
Q 2259 -75 1647 -75 
Q 1250 -75 917 144 
Q 584 363 401 755 
Q 219 1147 219 1656 
Q 219 2153 384 2558 
Q 550 2963 881 3178 
Q 1213 3394 1622 3394 
Q 1922 3394 2156 3267 
Q 2391 3141 2538 2938 
L 2538 4581 
L 3097 4581 
L 3097 0 
L 2575 0 
z
M 797 1656 
Q 797 1019 1065 703 
Q 1334 388 1700 388 
Q 2069 388 2326 689 
Q 2584 991 2584 1609 
Q 2584 2291 2321 2609 
Q 2059 2928 1675 2928 
Q 1300 2928 1048 2622 
Q 797 2316 797 1656 
z
" transform="scale(0.015625)"/>
      <path id="ArialMT-69" d="M 425 3934 
L 425 4581 
L 988 4581 
L 988 3934 
L 425 3934 
z
M 425 0 
L 425 3319 
L 988 3319 
L 988 0 
L 425 0 
z
" transform="scale(0.015625)"/>
     </defs>
     <use xlink:href="#ArialMT-34"/>
     <use xlink:href="#ArialMT-64" transform="translate(55.615234 0)"/>
     <use xlink:href="#ArialMT-70" transform="translate(111.230469 0)"/>
     <use xlink:href="#ArialMT-69" transform="translate(166.845703 0)"/>
    </g>
   </g>
  </g>
 </g>
 <defs>
  <clipPath id="p8da76afc92">
   <rect x="49.695313" y="21.789375" width="248.4" height="140.4"/>
  </clipPath>
 </defs>
</svg>
