<?xml version="1.0" encoding="utf-8" standalone="no"?>
<!DOCTYPE svg PUBLIC "-//W3C//DTD SVG 1.1//EN"
  "http://www.w3.org/Graphics/SVG/1.1/DTD/svg11.dtd">
<svg xmlns:xlink="http://www.w3.org/1999/xlink" width="306.051094pt" height="150.959844pt" viewBox="0 0 306.051094 150.959844" xmlns="http://www.w3.org/2000/svg" version="1.1">
 <metadata>
  <rdf:RDF xmlns:dc="http://purl.org/dc/elements/1.1/" xmlns:cc="http://creativecommons.org/ns#" xmlns:rdf="http://www.w3.org/1999/02/22-rdf-syntax-ns#">
   <cc:Work>
    <dc:type rdf:resource="http://purl.org/dc/dcmitype/StillImage"/>
    <dc:date>2025-07-28T16:52:12.150478</dc:date>
    <dc:format>image/svg+xml</dc:format>
    <dc:creator>
     <cc:Agent>
      <dc:title>Matplotlib v3.10.3, https://matplotlib.org/</dc:title>
     </cc:Agent>
    </dc:creator>
   </cc:Work>
  </rdf:RDF>
 </metadata>
 <defs>
  <style type="text/css">*{stroke-linejoin: round; stroke-linecap: butt}</style>
 </defs>
 <g id="figure_1">
  <g id="patch_1">
   <path d="M 0 150.959844 
L 306.051094 150.959844 
L 306.051094 0 
L 0 0 
z
" style="fill: #ffffff"/>
  </g>
  <g id="axes_1">
   <g id="patch_2">
    <path d="M 55.525469 124.2 
L 217.525469 124.2 
L 217.525469 7.2 
L 55.525469 7.2 
z
" style="fill: #ffffff"/>
   </g>
   <g id="matplotlib.axis_1">
    <g id="xtick_1">
     <g id="line2d_1">
      <defs>
       <path id="me3e2dfd74e" d="M 0 0 
L 0 6 
" style="stroke: #262626; stroke-width: 1.25"/>
      </defs>
      <g>
       <use xlink:href="#me3e2dfd74e" x="96.025469" y="124.2" style="fill: #262626; stroke: #262626; stroke-width: 1.25"/>
      </g>
     </g>
     <g id="text_1">
      <!-- SDDIR -->
      <g style="fill: #262626" transform="translate(78.912734 141.573594) scale(0.11 -0.11)">
       <defs>
        <path id="ArialMT-53" d="M 288 1472 
L 859 1522 
Q 900 1178 1048 958 
Q 1197 738 1509 602 
Q 1822 466 2213 466 
Q 2559 466 2825 569 
Q 3091 672 3220 851 
Q 3350 1031 3350 1244 
Q 3350 1459 3225 1620 
Q 3100 1781 2813 1891 
Q 2628 1963 1997 2114 
Q 1366 2266 1113 2400 
Q 784 2572 623 2826 
Q 463 3081 463 3397 
Q 463 3744 659 4045 
Q 856 4347 1234 4503 
Q 1613 4659 2075 4659 
Q 2584 4659 2973 4495 
Q 3363 4331 3572 4012 
Q 3781 3694 3797 3291 
L 3216 3247 
Q 3169 3681 2898 3903 
Q 2628 4125 2100 4125 
Q 1550 4125 1298 3923 
Q 1047 3722 1047 3438 
Q 1047 3191 1225 3031 
Q 1400 2872 2139 2705 
Q 2878 2538 3153 2413 
Q 3553 2228 3743 1945 
Q 3934 1663 3934 1294 
Q 3934 928 3725 604 
Q 3516 281 3123 101 
Q 2731 -78 2241 -78 
Q 1619 -78 1198 103 
Q 778 284 539 648 
Q 300 1013 288 1472 
z
" transform="scale(0.015625)"/>
        <path id="ArialMT-44" d="M 494 0 
L 494 4581 
L 2072 4581 
Q 2606 4581 2888 4516 
Q 3281 4425 3559 4188 
Q 3922 3881 4101 3404 
Q 4281 2928 4281 2316 
Q 4281 1794 4159 1391 
Q 4038 988 3847 723 
Q 3656 459 3429 307 
Q 3203 156 2883 78 
Q 2563 0 2147 0 
L 494 0 
z
M 1100 541 
L 2078 541 
Q 2531 541 2789 625 
Q 3047 709 3200 863 
Q 3416 1078 3536 1442 
Q 3656 1806 3656 2325 
Q 3656 3044 3420 3430 
Q 3184 3816 2847 3947 
Q 2603 4041 2063 4041 
L 1100 4041 
L 1100 541 
z
" transform="scale(0.015625)"/>
        <path id="ArialMT-49" d="M 597 0 
L 597 4581 
L 1203 4581 
L 1203 0 
L 597 0 
z
" transform="scale(0.015625)"/>
        <path id="ArialMT-52" d="M 503 0 
L 503 4581 
L 2534 4581 
Q 3147 4581 3465 4457 
Q 3784 4334 3975 4021 
Q 4166 3709 4166 3331 
Q 4166 2844 3850 2509 
Q 3534 2175 2875 2084 
Q 3116 1969 3241 1856 
Q 3506 1613 3744 1247 
L 4541 0 
L 3778 0 
L 3172 953 
Q 2906 1366 2734 1584 
Q 2563 1803 2427 1890 
Q 2291 1978 2150 2013 
Q 2047 2034 1813 2034 
L 1109 2034 
L 1109 0 
L 503 0 
z
M 1109 2559 
L 2413 2559 
Q 2828 2559 3062 2645 
Q 3297 2731 3419 2920 
Q 3541 3109 3541 3331 
Q 3541 3656 3305 3865 
Q 3069 4075 2559 4075 
L 1109 4075 
L 1109 2559 
z
" transform="scale(0.015625)"/>
       </defs>
       <use xlink:href="#ArialMT-53"/>
       <use xlink:href="#ArialMT-44" transform="translate(66.699219 0)"/>
       <use xlink:href="#ArialMT-44" transform="translate(138.916016 0)"/>
       <use xlink:href="#ArialMT-49" transform="translate(211.132812 0)"/>
       <use xlink:href="#ArialMT-52" transform="translate(238.916016 0)"/>
      </g>
     </g>
    </g>
    <g id="xtick_2">
     <g id="line2d_2">
      <g>
       <use xlink:href="#me3e2dfd74e" x="177.025469" y="124.2" style="fill: #262626; stroke: #262626; stroke-width: 1.25"/>
      </g>
     </g>
     <g id="text_2">
      <!-- RISDD -->
      <g style="fill: #262626" transform="translate(159.912734 141.573594) scale(0.11 -0.11)">
       <use xlink:href="#ArialMT-52"/>
       <use xlink:href="#ArialMT-49" transform="translate(72.216797 0)"/>
       <use xlink:href="#ArialMT-53" transform="translate(100 0)"/>
       <use xlink:href="#ArialMT-44" transform="translate(166.699219 0)"/>
       <use xlink:href="#ArialMT-44" transform="translate(238.916016 0)"/>
      </g>
     </g>
    </g>
   </g>
   <g id="matplotlib.axis_2">
    <g id="ytick_1">
     <g id="line2d_3">
      <defs>
       <path id="md691dc675f" d="M 0 0 
L -6 0 
" style="stroke: #262626; stroke-width: 1.25"/>
      </defs>
      <g>
       <use xlink:href="#md691dc675f" x="55.525469" y="124.2" style="fill: #262626; stroke: #262626; stroke-width: 1.25"/>
      </g>
     </g>
     <g id="text_3">
      <!-- 0 -->
      <g style="fill: #262626" transform="translate(39.908438 128.136797) scale(0.11 -0.11)">
       <defs>
        <path id="ArialMT-30" d="M 266 2259 
Q 266 3072 433 3567 
Q 600 4063 929 4331 
Q 1259 4600 1759 4600 
Q 2128 4600 2406 4451 
Q 2684 4303 2865 4023 
Q 3047 3744 3150 3342 
Q 3253 2941 3253 2259 
Q 3253 1453 3087 958 
Q 2922 463 2592 192 
Q 2263 -78 1759 -78 
Q 1097 -78 719 397 
Q 266 969 266 2259 
z
M 844 2259 
Q 844 1131 1108 757 
Q 1372 384 1759 384 
Q 2147 384 2411 759 
Q 2675 1134 2675 2259 
Q 2675 3391 2411 3762 
Q 2147 4134 1753 4134 
Q 1366 4134 1134 3806 
Q 844 3388 844 2259 
z
" transform="scale(0.015625)"/>
       </defs>
       <use xlink:href="#ArialMT-30"/>
      </g>
     </g>
    </g>
    <g id="ytick_2">
     <g id="line2d_4">
      <g>
       <use xlink:href="#md691dc675f" x="55.525469" y="99.315998" style="fill: #262626; stroke: #262626; stroke-width: 1.25"/>
      </g>
     </g>
     <g id="text_4">
      <!-- 25k -->
      <g style="fill: #262626" transform="translate(28.291406 103.252795) scale(0.11 -0.11)">
       <defs>
        <path id="ArialMT-32" d="M 3222 541 
L 3222 0 
L 194 0 
Q 188 203 259 391 
Q 375 700 629 1000 
Q 884 1300 1366 1694 
Q 2113 2306 2375 2664 
Q 2638 3022 2638 3341 
Q 2638 3675 2398 3904 
Q 2159 4134 1775 4134 
Q 1369 4134 1125 3890 
Q 881 3647 878 3216 
L 300 3275 
Q 359 3922 746 4261 
Q 1134 4600 1788 4600 
Q 2447 4600 2831 4234 
Q 3216 3869 3216 3328 
Q 3216 3053 3103 2787 
Q 2991 2522 2730 2228 
Q 2469 1934 1863 1422 
Q 1356 997 1212 845 
Q 1069 694 975 541 
L 3222 541 
z
" transform="scale(0.015625)"/>
        <path id="ArialMT-35" d="M 266 1200 
L 856 1250 
Q 922 819 1161 601 
Q 1400 384 1738 384 
Q 2144 384 2425 690 
Q 2706 997 2706 1503 
Q 2706 1984 2436 2262 
Q 2166 2541 1728 2541 
Q 1456 2541 1237 2417 
Q 1019 2294 894 2097 
L 366 2166 
L 809 4519 
L 3088 4519 
L 3088 3981 
L 1259 3981 
L 1013 2750 
Q 1425 3038 1878 3038 
Q 2478 3038 2890 2622 
Q 3303 2206 3303 1553 
Q 3303 931 2941 478 
Q 2500 -78 1738 -78 
Q 1113 -78 717 272 
Q 322 622 266 1200 
z
" transform="scale(0.015625)"/>
        <path id="ArialMT-6b" d="M 425 0 
L 425 4581 
L 988 4581 
L 988 1969 
L 2319 3319 
L 3047 3319 
L 1778 2088 
L 3175 0 
L 2481 0 
L 1384 1697 
L 988 1316 
L 988 0 
L 425 0 
z
" transform="scale(0.015625)"/>
       </defs>
       <use xlink:href="#ArialMT-32"/>
       <use xlink:href="#ArialMT-35" transform="translate(55.615234 0)"/>
       <use xlink:href="#ArialMT-6b" transform="translate(111.230469 0)"/>
      </g>
     </g>
    </g>
    <g id="ytick_3">
     <g id="line2d_5">
      <g>
       <use xlink:href="#md691dc675f" x="55.525469" y="74.431995" style="fill: #262626; stroke: #262626; stroke-width: 1.25"/>
      </g>
     </g>
     <g id="text_5">
      <!-- 50k -->
      <g style="fill: #262626" transform="translate(28.291406 78.368792) scale(0.11 -0.11)">
       <use xlink:href="#ArialMT-35"/>
       <use xlink:href="#ArialMT-30" transform="translate(55.615234 0)"/>
       <use xlink:href="#ArialMT-6b" transform="translate(111.230469 0)"/>
      </g>
     </g>
    </g>
    <g id="ytick_4">
     <g id="line2d_6">
      <g>
       <use xlink:href="#md691dc675f" x="55.525469" y="49.547993" style="fill: #262626; stroke: #262626; stroke-width: 1.25"/>
      </g>
     </g>
     <g id="text_6">
      <!-- 75k -->
      <g style="fill: #262626" transform="translate(28.291406 53.48479) scale(0.11 -0.11)">
       <defs>
        <path id="ArialMT-37" d="M 303 3981 
L 303 4522 
L 3269 4522 
L 3269 4084 
Q 2831 3619 2401 2847 
Q 1972 2075 1738 1259 
Q 1569 684 1522 0 
L 944 0 
Q 953 541 1156 1306 
Q 1359 2072 1739 2783 
Q 2119 3494 2547 3981 
L 303 3981 
z
" transform="scale(0.015625)"/>
       </defs>
       <use xlink:href="#ArialMT-37"/>
       <use xlink:href="#ArialMT-35" transform="translate(55.615234 0)"/>
       <use xlink:href="#ArialMT-6b" transform="translate(111.230469 0)"/>
      </g>
     </g>
    </g>
    <g id="ytick_5">
     <g id="line2d_7">
      <g>
       <use xlink:href="#md691dc675f" x="55.525469" y="24.663991" style="fill: #262626; stroke: #262626; stroke-width: 1.25"/>
      </g>
     </g>
     <g id="text_7">
      <!-- 100k -->
      <g style="fill: #262626" transform="translate(22.174375 28.600788) scale(0.11 -0.11)">
       <defs>
        <path id="ArialMT-31" d="M 2384 0 
L 1822 0 
L 1822 3584 
Q 1619 3391 1289 3197 
Q 959 3003 697 2906 
L 697 3450 
Q 1169 3672 1522 3987 
Q 1875 4303 2022 4600 
L 2384 4600 
L 2384 0 
z
" transform="scale(0.015625)"/>
       </defs>
       <use xlink:href="#ArialMT-31"/>
       <use xlink:href="#ArialMT-30" transform="translate(55.615234 0)"/>
       <use xlink:href="#ArialMT-30" transform="translate(111.230469 0)"/>
       <use xlink:href="#ArialMT-6b" transform="translate(166.845703 0)"/>
      </g>
     </g>
    </g>
    <g id="text_8">
     <!-- Total Cell Count -->
     <g style="fill: #262626" transform="translate(15.789375 108.049687) rotate(-90) scale(0.12 -0.12)">
      <defs>
       <path id="ArialMT-54" d="M 1659 0 
L 1659 4041 
L 150 4041 
L 150 4581 
L 3781 4581 
L 3781 4041 
L 2266 4041 
L 2266 0 
L 1659 0 
z
" transform="scale(0.015625)"/>
       <path id="ArialMT-6f" d="M 213 1659 
Q 213 2581 725 3025 
Q 1153 3394 1769 3394 
Q 2453 3394 2887 2945 
Q 3322 2497 3322 1706 
Q 3322 1066 3130 698 
Q 2938 331 2570 128 
Q 2203 -75 1769 -75 
Q 1072 -75 642 372 
Q 213 819 213 1659 
z
M 791 1659 
Q 791 1022 1069 705 
Q 1347 388 1769 388 
Q 2188 388 2466 706 
Q 2744 1025 2744 1678 
Q 2744 2294 2464 2611 
Q 2184 2928 1769 2928 
Q 1347 2928 1069 2612 
Q 791 2297 791 1659 
z
" transform="scale(0.015625)"/>
       <path id="ArialMT-74" d="M 1650 503 
L 1731 6 
Q 1494 -44 1306 -44 
Q 1000 -44 831 53 
Q 663 150 594 308 
Q 525 466 525 972 
L 525 2881 
L 113 2881 
L 113 3319 
L 525 3319 
L 525 4141 
L 1084 4478 
L 1084 3319 
L 1650 3319 
L 1650 2881 
L 1084 2881 
L 1084 941 
Q 1084 700 1114 631 
Q 1144 563 1211 522 
Q 1278 481 1403 481 
Q 1497 481 1650 503 
z
" transform="scale(0.015625)"/>
       <path id="ArialMT-61" d="M 2588 409 
Q 2275 144 1986 34 
Q 1697 -75 1366 -75 
Q 819 -75 525 192 
Q 231 459 231 875 
Q 231 1119 342 1320 
Q 453 1522 633 1644 
Q 813 1766 1038 1828 
Q 1203 1872 1538 1913 
Q 2219 1994 2541 2106 
Q 2544 2222 2544 2253 
Q 2544 2597 2384 2738 
Q 2169 2928 1744 2928 
Q 1347 2928 1158 2789 
Q 969 2650 878 2297 
L 328 2372 
Q 403 2725 575 2942 
Q 747 3159 1072 3276 
Q 1397 3394 1825 3394 
Q 2250 3394 2515 3294 
Q 2781 3194 2906 3042 
Q 3031 2891 3081 2659 
Q 3109 2516 3109 2141 
L 3109 1391 
Q 3109 606 3145 398 
Q 3181 191 3288 0 
L 2700 0 
Q 2613 175 2588 409 
z
M 2541 1666 
Q 2234 1541 1622 1453 
Q 1275 1403 1131 1340 
Q 988 1278 909 1158 
Q 831 1038 831 891 
Q 831 666 1001 516 
Q 1172 366 1500 366 
Q 1825 366 2078 508 
Q 2331 650 2450 897 
Q 2541 1088 2541 1459 
L 2541 1666 
z
" transform="scale(0.015625)"/>
       <path id="ArialMT-6c" d="M 409 0 
L 409 4581 
L 972 4581 
L 972 0 
L 409 0 
z
" transform="scale(0.015625)"/>
       <path id="ArialMT-20" transform="scale(0.015625)"/>
       <path id="ArialMT-43" d="M 3763 1606 
L 4369 1453 
Q 4178 706 3683 314 
Q 3188 -78 2472 -78 
Q 1731 -78 1267 223 
Q 803 525 561 1097 
Q 319 1669 319 2325 
Q 319 3041 592 3573 
Q 866 4106 1370 4382 
Q 1875 4659 2481 4659 
Q 3169 4659 3637 4309 
Q 4106 3959 4291 3325 
L 3694 3184 
Q 3534 3684 3231 3912 
Q 2928 4141 2469 4141 
Q 1941 4141 1586 3887 
Q 1231 3634 1087 3207 
Q 944 2781 944 2328 
Q 944 1744 1114 1308 
Q 1284 872 1643 656 
Q 2003 441 2422 441 
Q 2931 441 3284 734 
Q 3638 1028 3763 1606 
z
" transform="scale(0.015625)"/>
       <path id="ArialMT-65" d="M 2694 1069 
L 3275 997 
Q 3138 488 2766 206 
Q 2394 -75 1816 -75 
Q 1088 -75 661 373 
Q 234 822 234 1631 
Q 234 2469 665 2931 
Q 1097 3394 1784 3394 
Q 2450 3394 2872 2941 
Q 3294 2488 3294 1666 
Q 3294 1616 3291 1516 
L 816 1516 
Q 847 969 1125 678 
Q 1403 388 1819 388 
Q 2128 388 2347 550 
Q 2566 713 2694 1069 
z
M 847 1978 
L 2700 1978 
Q 2663 2397 2488 2606 
Q 2219 2931 1791 2931 
Q 1403 2931 1139 2672 
Q 875 2413 847 1978 
z
" transform="scale(0.015625)"/>
       <path id="ArialMT-75" d="M 2597 0 
L 2597 488 
Q 2209 -75 1544 -75 
Q 1250 -75 995 37 
Q 741 150 617 320 
Q 494 491 444 738 
Q 409 903 409 1263 
L 409 3319 
L 972 3319 
L 972 1478 
Q 972 1038 1006 884 
Q 1059 663 1231 536 
Q 1403 409 1656 409 
Q 1909 409 2131 539 
Q 2353 669 2445 892 
Q 2538 1116 2538 1541 
L 2538 3319 
L 3100 3319 
L 3100 0 
L 2597 0 
z
" transform="scale(0.015625)"/>
       <path id="ArialMT-6e" d="M 422 0 
L 422 3319 
L 928 3319 
L 928 2847 
Q 1294 3394 1984 3394 
Q 2284 3394 2536 3286 
Q 2788 3178 2913 3003 
Q 3038 2828 3088 2588 
Q 3119 2431 3119 2041 
L 3119 0 
L 2556 0 
L 2556 2019 
Q 2556 2363 2490 2533 
Q 2425 2703 2258 2804 
Q 2091 2906 1866 2906 
Q 1506 2906 1245 2678 
Q 984 2450 984 1813 
L 984 0 
L 422 0 
z
" transform="scale(0.015625)"/>
      </defs>
      <use xlink:href="#ArialMT-54"/>
      <use xlink:href="#ArialMT-6f" transform="translate(49.958984 0)"/>
      <use xlink:href="#ArialMT-74" transform="translate(105.574219 0)"/>
      <use xlink:href="#ArialMT-61" transform="translate(133.357422 0)"/>
      <use xlink:href="#ArialMT-6c" transform="translate(188.972656 0)"/>
      <use xlink:href="#ArialMT-20" transform="translate(211.189453 0)"/>
      <use xlink:href="#ArialMT-43" transform="translate(238.972656 0)"/>
      <use xlink:href="#ArialMT-65" transform="translate(311.189453 0)"/>
      <use xlink:href="#ArialMT-6c" transform="translate(366.804688 0)"/>
      <use xlink:href="#ArialMT-6c" transform="translate(389.021484 0)"/>
      <use xlink:href="#ArialMT-20" transform="translate(411.238281 0)"/>
      <use xlink:href="#ArialMT-43" transform="translate(439.021484 0)"/>
      <use xlink:href="#ArialMT-6f" transform="translate(511.238281 0)"/>
      <use xlink:href="#ArialMT-75" transform="translate(566.853516 0)"/>
      <use xlink:href="#ArialMT-6e" transform="translate(622.46875 0)"/>
      <use xlink:href="#ArialMT-74" transform="translate(678.083984 0)"/>
     </g>
    </g>
   </g>
   <g id="patch_3">
    <path d="M 63.625469 124.2 
L 76.585469 124.2 
L 76.585469 46.416148 
L 63.625469 46.416148 
z
" clip-path="url(#pd6c87a46a8)" style="fill: #4b4279; opacity: 0.8; stroke: #ffffff; stroke-linejoin: miter"/>
   </g>
   <g id="patch_4">
    <path d="M 144.625469 124.2 
L 157.585469 124.2 
L 157.585469 93.843287 
L 144.625469 93.843287 
z
" clip-path="url(#pd6c87a46a8)" style="fill: #4b4279; opacity: 0.8; stroke: #ffffff; stroke-linejoin: miter"/>
   </g>
   <g id="patch_5">
    <path d="M 76.585469 124.2 
L 89.545469 124.2 
L 89.545469 82.864244 
L 76.585469 82.864244 
z
" clip-path="url(#pd6c87a46a8)" style="fill: #3c6682; opacity: 0.8; stroke: #ffffff; stroke-linejoin: miter"/>
   </g>
   <g id="patch_6">
    <path d="M 157.585469 124.2 
L 170.545469 124.2 
L 170.545469 50.308324 
L 157.585469 50.308324 
z
" clip-path="url(#pd6c87a46a8)" style="fill: #3c6682; opacity: 0.8; stroke: #ffffff; stroke-linejoin: miter"/>
   </g>
   <g id="patch_7">
    <path d="M 89.545469 124.2 
L 102.505469 124.2 
L 102.505469 96.53839 
L 89.545469 96.53839 
z
" clip-path="url(#pd6c87a46a8)" style="fill: #2f837f; opacity: 0.8; stroke: #ffffff; stroke-linejoin: miter"/>
   </g>
   <g id="patch_8">
    <path d="M 170.545469 124.2 
L 183.505469 124.2 
L 183.505469 69.48218 
L 170.545469 69.48218 
z
" clip-path="url(#pd6c87a46a8)" style="fill: #2f837f; opacity: 0.8; stroke: #ffffff; stroke-linejoin: miter"/>
   </g>
   <g id="patch_9">
    <path d="M 102.505469 124.2 
L 115.465469 124.2 
L 115.465469 105.629235 
L 102.505469 105.629235 
z
" clip-path="url(#pd6c87a46a8)" style="fill: #45a778; opacity: 0.8; stroke: #ffffff; stroke-linejoin: miter"/>
   </g>
   <g id="patch_10">
    <path d="M 183.505469 124.2 
L 196.465469 124.2 
L 196.465469 91.391825 
L 183.505469 91.391825 
z
" clip-path="url(#pd6c87a46a8)" style="fill: #45a778; opacity: 0.8; stroke: #ffffff; stroke-linejoin: miter"/>
   </g>
   <g id="patch_11">
    <path d="M 115.465469 124.2 
L 128.425469 124.2 
L 128.425469 113.043341 
L 115.465469 113.043341 
z
" clip-path="url(#pd6c87a46a8)" style="fill: #8fc456; opacity: 0.8; stroke: #ffffff; stroke-linejoin: miter"/>
   </g>
   <g id="patch_12">
    <path d="M 196.465469 124.2 
L 209.425469 124.2 
L 209.425469 108.120732 
L 196.465469 108.120732 
z
" clip-path="url(#pd6c87a46a8)" style="fill: #8fc456; opacity: 0.8; stroke: #ffffff; stroke-linejoin: miter"/>
   </g>
   <g id="line2d_8">
    <path d="M 70.105469 58.616799 
L 70.105469 33.826059 
" clip-path="url(#pd6c87a46a8)" style="fill: none; stroke: #424242; stroke-width: 2.7; stroke-linecap: round"/>
   </g>
   <g id="line2d_9">
    <path d="M 151.105469 98.312907 
L 151.105469 88.521887 
" clip-path="url(#pd6c87a46a8)" style="fill: none; stroke: #424242; stroke-width: 2.7; stroke-linecap: round"/>
   </g>
   <g id="line2d_10">
    <path d="M 83.065469 94.535012 
L 83.065469 71.548042 
" clip-path="url(#pd6c87a46a8)" style="fill: none; stroke: #424242; stroke-width: 2.7; stroke-linecap: round"/>
   </g>
   <g id="line2d_11">
    <path d="M 164.065469 65.721027 
L 164.065469 34.817908 
" clip-path="url(#pd6c87a46a8)" style="fill: none; stroke: #424242; stroke-width: 2.7; stroke-linecap: round"/>
   </g>
   <g id="line2d_12">
    <path d="M 96.025469 106.464961 
L 96.025469 86.463142 
" clip-path="url(#pd6c87a46a8)" style="fill: none; stroke: #424242; stroke-width: 2.7; stroke-linecap: round"/>
   </g>
   <g id="line2d_13">
    <path d="M 177.025469 88.136456 
L 177.025469 48.218347 
" clip-path="url(#pd6c87a46a8)" style="fill: none; stroke: #424242; stroke-width: 2.7; stroke-linecap: round"/>
   </g>
   <g id="line2d_14">
    <path d="M 108.985469 111.590449 
L 108.985469 98.35704 
" clip-path="url(#pd6c87a46a8)" style="fill: none; stroke: #424242; stroke-width: 2.7; stroke-linecap: round"/>
   </g>
   <g id="line2d_15">
    <path d="M 189.985469 104.890711 
L 189.985469 75.694803 
" clip-path="url(#pd6c87a46a8)" style="fill: none; stroke: #424242; stroke-width: 2.7; stroke-linecap: round"/>
   </g>
   <g id="line2d_16">
    <path d="M 121.945469 118.226474 
L 121.945469 108.564933 
" clip-path="url(#pd6c87a46a8)" style="fill: none; stroke: #424242; stroke-width: 2.7; stroke-linecap: round"/>
   </g>
   <g id="line2d_17">
    <path d="M 202.945469 114.890591 
L 202.945469 99.345723 
" clip-path="url(#pd6c87a46a8)" style="fill: none; stroke: #424242; stroke-width: 2.7; stroke-linecap: round"/>
   </g>
   <g id="patch_13">
    <path d="M 55.525469 124.2 
L 55.525469 7.2 
" style="fill: none; stroke: #262626; stroke-width: 1.25; stroke-linejoin: miter; stroke-linecap: square"/>
   </g>
   <g id="patch_14">
    <path d="M 217.525469 124.2 
L 217.525469 7.2 
" style="fill: none; stroke: #262626; stroke-width: 1.25; stroke-linejoin: miter; stroke-linecap: square"/>
   </g>
   <g id="patch_15">
    <path d="M 55.525469 124.2 
L 217.525469 124.2 
" style="fill: none; stroke: #262626; stroke-width: 1.25; stroke-linejoin: miter; stroke-linecap: square"/>
   </g>
   <g id="patch_16">
    <path d="M 55.525469 7.2 
L 217.525469 7.2 
" style="fill: none; stroke: #262626; stroke-width: 1.25; stroke-linejoin: miter; stroke-linecap: square"/>
   </g>
   <g id="PathCollection_1">
    <defs>
     <path id="C0_0_a2c21bf776" d="M 0 2.5 
C 0.663008 2.5 1.29895 2.236584 1.767767 1.767767 
C 2.236584 1.29895 2.5 0.663008 2.5 -0 
C 2.5 -0.663008 2.236584 -1.29895 1.767767 -1.767767 
C 1.29895 -2.236584 0.663008 -2.5 0 -2.5 
C -0.663008 -2.5 -1.29895 -2.236584 -1.767767 -1.767767 
C -2.236584 -1.29895 -2.5 -0.663008 -2.5 0 
C -2.5 0.663008 -2.236584 1.29895 -1.767767 1.767767 
C -1.29895 2.236584 -0.663008 2.5 0 2.5 
z
"/>
    </defs>
    <g clip-path="url(#pd6c87a46a8)">
     <use xlink:href="#C0_0_a2c21bf776" x="70.714032" y="51.37647" style="fill: #ffffff; stroke: #000000; stroke-width: 0.4"/>
    </g>
    <g clip-path="url(#pd6c87a46a8)">
     <use xlink:href="#C0_0_a2c21bf776" x="69.03622" y="45.386393" style="fill: #ffffff; stroke: #000000; stroke-width: 0.4"/>
    </g>
    <g clip-path="url(#pd6c87a46a8)">
     <use xlink:href="#C0_0_a2c21bf776" x="68.522477" y="29.121213" style="fill: #ffffff; stroke: #000000; stroke-width: 0.4"/>
    </g>
   </g>
   <g id="PathCollection_2">
    <defs>
     <path id="C1_0_c02814ac8e" d="M 0 2.5 
C 0.663008 2.5 1.29895 2.236584 1.767767 1.767767 
C 2.236584 1.29895 2.5 0.663008 2.5 -0 
C 2.5 -0.663008 2.236584 -1.29895 1.767767 -1.767767 
C 1.29895 -2.236584 0.663008 -2.5 0 -2.5 
C -0.663008 -2.5 -1.29895 -2.236584 -1.767767 -1.767767 
C -2.236584 -1.29895 -2.5 -0.663008 -2.5 0 
C -2.5 0.663008 -2.236584 1.29895 -1.767767 1.767767 
C -1.29895 2.236584 -0.663008 2.5 0 2.5 
z
"/>
    </defs>
    <g clip-path="url(#pd6c87a46a8)">
     <use xlink:href="#C1_0_c02814ac8e" x="82.121212" y="85.823892" style="fill: #ffffff; stroke: #000000; stroke-width: 0.4"/>
    </g>
    <g clip-path="url(#pd6c87a46a8)">
     <use xlink:href="#C1_0_c02814ac8e" x="83.37408" y="85.283411" style="fill: #ffffff; stroke: #000000; stroke-width: 0.4"/>
    </g>
    <g clip-path="url(#pd6c87a46a8)">
     <use xlink:href="#C1_0_c02814ac8e" x="84.039981" y="84.641404" style="fill: #ffffff; stroke: #000000; stroke-width: 0.4"/>
    </g>
   </g>
   <g id="PathCollection_3">
    <defs>
     <path id="C2_0_18d1117b34" d="M 0 2.5 
C 0.663008 2.5 1.29895 2.236584 1.767767 1.767767 
C 2.236584 1.29895 2.5 0.663008 2.5 -0 
C 2.5 -0.663008 2.236584 -1.29895 1.767767 -1.767767 
C 1.29895 -2.236584 0.663008 -2.5 0 -2.5 
C -0.663008 -2.5 -1.29895 -2.236584 -1.767767 -1.767767 
C -2.236584 -1.29895 -2.5 -0.663008 -2.5 0 
C -2.5 0.663008 -2.236584 1.29895 -1.767767 1.767767 
C -1.29895 2.236584 -0.663008 2.5 0 2.5 
z
"/>
    </defs>
    <g clip-path="url(#pd6c87a46a8)">
     <use xlink:href="#C2_0_18d1117b34" x="96.133695" y="99.748979" style="fill: #ffffff; stroke: #000000; stroke-width: 0.4"/>
    </g>
    <g clip-path="url(#pd6c87a46a8)">
     <use xlink:href="#C2_0_18d1117b34" x="95.315303" y="99.267225" style="fill: #ffffff; stroke: #000000; stroke-width: 0.4"/>
    </g>
    <g clip-path="url(#pd6c87a46a8)">
     <use xlink:href="#C2_0_18d1117b34" x="96.766139" y="101.562525" style="fill: #ffffff; stroke: #000000; stroke-width: 0.4"/>
    </g>
   </g>
   <g id="PathCollection_4">
    <defs>
     <path id="C3_0_d99d7a7735" d="M 0 2.5 
C 0.663008 2.5 1.29895 2.236584 1.767767 1.767767 
C 2.236584 1.29895 2.5 0.663008 2.5 -0 
C 2.5 -0.663008 2.236584 -1.29895 1.767767 -1.767767 
C 1.29895 -2.236584 0.663008 -2.5 0 -2.5 
C -0.663008 -2.5 -1.29895 -2.236584 -1.767767 -1.767767 
C -2.236584 -1.29895 -2.5 -0.663008 -2.5 0 
C -2.5 0.663008 -2.236584 1.29895 -1.767767 1.767767 
C -1.29895 2.236584 -0.663008 2.5 0 2.5 
z
"/>
    </defs>
    <g clip-path="url(#pd6c87a46a8)">
     <use xlink:href="#C3_0_d99d7a7735" x="108.708083" y="109.21784" style="fill: #ffffff; stroke: #000000; stroke-width: 0.4"/>
    </g>
    <g clip-path="url(#pd6c87a46a8)">
     <use xlink:href="#C3_0_d99d7a7735" x="108.655636" y="109.495545" style="fill: #ffffff; stroke: #000000; stroke-width: 0.4"/>
    </g>
    <g clip-path="url(#pd6c87a46a8)">
     <use xlink:href="#C3_0_d99d7a7735" x="110.377382" y="108.470324" style="fill: #ffffff; stroke: #000000; stroke-width: 0.4"/>
    </g>
   </g>
   <g id="PathCollection_5">
    <defs>
     <path id="C4_0_e5070d502e" d="M 0 2.5 
C 0.663008 2.5 1.29895 2.236584 1.767767 1.767767 
C 2.236584 1.29895 2.5 0.663008 2.5 -0 
C 2.5 -0.663008 2.236584 -1.29895 1.767767 -1.767767 
C 1.29895 -2.236584 0.663008 -2.5 0 -2.5 
C -0.663008 -2.5 -1.29895 -2.236584 -1.767767 -1.767767 
C -2.236584 -1.29895 -2.5 -0.663008 -2.5 0 
C -2.5 0.663008 -2.236584 1.29895 -1.767767 1.767767 
C -1.29895 2.236584 -0.663008 2.5 0 2.5 
z
"/>
    </defs>
    <g clip-path="url(#pd6c87a46a8)">
     <use xlink:href="#C4_0_e5070d502e" x="122.985841" y="118.164136" style="fill: #ffffff; stroke: #000000; stroke-width: 0.4"/>
    </g>
    <g clip-path="url(#pd6c87a46a8)">
     <use xlink:href="#C4_0_e5070d502e" x="120.65112" y="115.5762" style="fill: #ffffff; stroke: #000000; stroke-width: 0.4"/>
    </g>
    <g clip-path="url(#pd6c87a46a8)">
     <use xlink:href="#C4_0_e5070d502e" x="122.806837" y="116.521792" style="fill: #ffffff; stroke: #000000; stroke-width: 0.4"/>
    </g>
   </g>
   <g id="PathCollection_6">
    <defs>
     <path id="C5_0_238e92b922" d="M 0 2.5 
C 0.663008 2.5 1.29895 2.236584 1.767767 1.767767 
C 2.236584 1.29895 2.5 0.663008 2.5 -0 
C 2.5 -0.663008 2.236584 -1.29895 1.767767 -1.767767 
C 1.29895 -2.236584 0.663008 -2.5 0 -2.5 
C -0.663008 -2.5 -1.29895 -2.236584 -1.767767 -1.767767 
C -2.236584 -1.29895 -2.5 -0.663008 -2.5 0 
C -2.5 0.663008 -2.236584 1.29895 -1.767767 1.767767 
C -1.29895 2.236584 -0.663008 2.5 0 2.5 
z
"/>
    </defs>
    <g clip-path="url(#pd6c87a46a8)">
     <use xlink:href="#C5_0_238e92b922" x="152.684448" y="102.423512" style="fill: #ffffff; stroke: #000000; stroke-width: 0.4"/>
    </g>
    <g clip-path="url(#pd6c87a46a8)">
     <use xlink:href="#C5_0_238e92b922" x="151.069398" y="104.91888" style="fill: #ffffff; stroke: #000000; stroke-width: 0.4"/>
    </g>
    <g clip-path="url(#pd6c87a46a8)">
     <use xlink:href="#C5_0_238e92b922" x="152.110034" y="80.855054" style="fill: #ffffff; stroke: #000000; stroke-width: 0.4"/>
    </g>
   </g>
   <g id="PathCollection_7">
    <defs>
     <path id="C6_0_a9b80dc0f5" d="M 0 2.5 
C 0.663008 2.5 1.29895 2.236584 1.767767 1.767767 
C 2.236584 1.29895 2.5 0.663008 2.5 -0 
C 2.5 -0.663008 2.236584 -1.29895 1.767767 -1.767767 
C 1.29895 -2.236584 0.663008 -2.5 0 -2.5 
C -0.663008 -2.5 -1.29895 -2.236584 -1.767767 -1.767767 
C -2.236584 -1.29895 -2.5 -0.663008 -2.5 0 
C -2.5 0.663008 -2.236584 1.29895 -1.767767 1.767767 
C -1.29895 2.236584 -0.663008 2.5 0 2.5 
z
"/>
    </defs>
    <g clip-path="url(#pd6c87a46a8)">
     <use xlink:href="#C6_0_a9b80dc0f5" x="162.985842" y="45.920901" style="fill: #ffffff; stroke: #000000; stroke-width: 0.4"/>
    </g>
    <g clip-path="url(#pd6c87a46a8)">
     <use xlink:href="#C6_0_a9b80dc0f5" x="164.564533" y="47.319382" style="fill: #ffffff; stroke: #000000; stroke-width: 0.4"/>
    </g>
    <g clip-path="url(#pd6c87a46a8)">
     <use xlink:href="#C6_0_a9b80dc0f5" x="165.241338" y="43.779881" style="fill: #ffffff; stroke: #000000; stroke-width: 0.4"/>
    </g>
   </g>
   <g id="PathCollection_8">
    <defs>
     <path id="C7_0_be12a39d53" d="M 0 2.5 
C 0.663008 2.5 1.29895 2.236584 1.767767 1.767767 
C 2.236584 1.29895 2.5 0.663008 2.5 -0 
C 2.5 -0.663008 2.236584 -1.29895 1.767767 -1.767767 
C 1.29895 -2.236584 0.663008 -2.5 0 -2.5 
C -0.663008 -2.5 -1.29895 -2.236584 -1.767767 -1.767767 
C -2.236584 -1.29895 -2.5 -0.663008 -2.5 0 
C -2.5 0.663008 -2.236584 1.29895 -1.767767 1.767767 
C -1.29895 2.236584 -0.663008 2.5 0 2.5 
z
"/>
    </defs>
    <g clip-path="url(#pd6c87a46a8)">
     <use xlink:href="#C7_0_be12a39d53" x="177.72414" y="81.2313" style="fill: #ffffff; stroke: #000000; stroke-width: 0.4"/>
    </g>
    <g clip-path="url(#pd6c87a46a8)">
     <use xlink:href="#C7_0_be12a39d53" x="178.080169" y="84.434369" style="fill: #ffffff; stroke: #000000; stroke-width: 0.4"/>
    </g>
    <g clip-path="url(#pd6c87a46a8)">
     <use xlink:href="#C7_0_be12a39d53" x="178.241655" y="90.237318" style="fill: #ffffff; stroke: #000000; stroke-width: 0.4"/>
    </g>
   </g>
   <g id="PathCollection_9">
    <defs>
     <path id="C8_0_361b4d02a1" d="M 0 2.5 
C 0.663008 2.5 1.29895 2.236584 1.767767 1.767767 
C 2.236584 1.29895 2.5 0.663008 2.5 -0 
C 2.5 -0.663008 2.236584 -1.29895 1.767767 -1.767767 
C 1.29895 -2.236584 0.663008 -2.5 0 -2.5 
C -0.663008 -2.5 -1.29895 -2.236584 -1.767767 -1.767767 
C -2.236584 -1.29895 -2.5 -0.663008 -2.5 0 
C -2.5 0.663008 -2.236584 1.29895 -1.767767 1.767767 
C -1.29895 2.236584 -0.663008 2.5 0 2.5 
z
"/>
    </defs>
    <g clip-path="url(#pd6c87a46a8)">
     <use xlink:href="#C8_0_361b4d02a1" x="191.537655" y="106.097386" style="fill: #ffffff; stroke: #000000; stroke-width: 0.4"/>
    </g>
    <g clip-path="url(#pd6c87a46a8)">
     <use xlink:href="#C8_0_361b4d02a1" x="190.765218" y="101.89398" style="fill: #ffffff; stroke: #000000; stroke-width: 0.4"/>
    </g>
    <g clip-path="url(#pd6c87a46a8)">
     <use xlink:href="#C8_0_361b4d02a1" x="188.491945" y="103.568176" style="fill: #ffffff; stroke: #000000; stroke-width: 0.4"/>
    </g>
   </g>
   <g id="PathCollection_10">
    <defs>
     <path id="C9_0_3611e5f4b2" d="M 0 2.5 
C 0.663008 2.5 1.29895 2.236584 1.767767 1.767767 
C 2.236584 1.29895 2.5 0.663008 2.5 -0 
C 2.5 -0.663008 2.236584 -1.29895 1.767767 -1.767767 
C 1.29895 -2.236584 0.663008 -2.5 0 -2.5 
C -0.663008 -2.5 -1.29895 -2.236584 -1.767767 -1.767767 
C -2.236584 -1.29895 -2.5 -0.663008 -2.5 0 
C -2.5 0.663008 -2.236584 1.29895 -1.767767 1.767767 
C -1.29895 2.236584 -0.663008 2.5 0 2.5 
z
"/>
    </defs>
    <g clip-path="url(#pd6c87a46a8)">
     <use xlink:href="#C9_0_3611e5f4b2" x="203.329956" y="117.176739" style="fill: #ffffff; stroke: #000000; stroke-width: 0.4"/>
    </g>
    <g clip-path="url(#pd6c87a46a8)">
     <use xlink:href="#C9_0_3611e5f4b2" x="204.549458" y="116.577532" style="fill: #ffffff; stroke: #000000; stroke-width: 0.4"/>
    </g>
    <g clip-path="url(#pd6c87a46a8)">
     <use xlink:href="#C9_0_3611e5f4b2" x="201.932185" y="113.94381" style="fill: #ffffff; stroke: #000000; stroke-width: 0.4"/>
    </g>
   </g>
   <g id="PathCollection_11">
    <path d="M 70.468034 65.692083 
L 67.968034 70.692083 
L 72.968034 70.692083 
z
" clip-path="url(#pd6c87a46a8)" style="fill: #ffffff; stroke: #000000; stroke-width: 0.4"/>
    <path d="M 71.578485 67.25878 
L 69.078485 72.25878 
L 74.078485 72.25878 
z
" clip-path="url(#pd6c87a46a8)" style="fill: #ffffff; stroke: #000000; stroke-width: 0.4"/>
    <path d="M 70.901076 65.874234 
L 68.401076 70.874234 
L 73.401076 70.874234 
z
" clip-path="url(#pd6c87a46a8)" style="fill: #ffffff; stroke: #000000; stroke-width: 0.4"/>
   </g>
   <g id="PathCollection_12">
    <path d="M 84.653129 103.396323 
L 82.153129 108.396323 
L 87.153129 108.396323 
z
" clip-path="url(#pd6c87a46a8)" style="fill: #ffffff; stroke: #000000; stroke-width: 0.4"/>
    <path d="M 82.606544 99.944414 
L 80.106544 104.944414 
L 85.106544 104.944414 
z
" clip-path="url(#pd6c87a46a8)" style="fill: #ffffff; stroke: #000000; stroke-width: 0.4"/>
    <path d="M 82.788462 100.111635 
L 80.288462 105.111635 
L 85.288462 105.111635 
z
" clip-path="url(#pd6c87a46a8)" style="fill: #ffffff; stroke: #000000; stroke-width: 0.4"/>
   </g>
   <g id="PathCollection_13">
    <path d="M 97.198872 108.329328 
L 94.698872 113.329328 
L 99.698872 113.329328 
z
" clip-path="url(#pd6c87a46a8)" style="fill: #ffffff; stroke: #000000; stroke-width: 0.4"/>
    <path d="M 95.385591 111.481633 
L 92.885591 116.481633 
L 97.885591 116.481633 
z
" clip-path="url(#pd6c87a46a8)" style="fill: #ffffff; stroke: #000000; stroke-width: 0.4"/>
    <path d="M 96.077939 112.362527 
L 93.577939 117.362527 
L 98.577939 117.362527 
z
" clip-path="url(#pd6c87a46a8)" style="fill: #ffffff; stroke: #000000; stroke-width: 0.4"/>
   </g>
   <g id="PathCollection_14">
    <path d="M 109.715225 112.437179 
L 107.215225 117.437179 
L 112.215225 117.437179 
z
" clip-path="url(#pd6c87a46a8)" style="fill: #ffffff; stroke: #000000; stroke-width: 0.4"/>
    <path d="M 109.486904 112.783564 
L 106.986904 117.783564 
L 111.986904 117.783564 
z
" clip-path="url(#pd6c87a46a8)" style="fill: #ffffff; stroke: #000000; stroke-width: 0.4"/>
    <path d="M 108.559337 115.910986 
L 106.059337 120.910986 
L 111.059337 120.910986 
z
" clip-path="url(#pd6c87a46a8)" style="fill: #ffffff; stroke: #000000; stroke-width: 0.4"/>
   </g>
   <g id="PathCollection_15">
    <path d="M 122.033933 117.362221 
L 119.533933 122.362221 
L 124.533933 122.362221 
z
" clip-path="url(#pd6c87a46a8)" style="fill: #ffffff; stroke: #000000; stroke-width: 0.4"/>
    <path d="M 121.039795 117.421942 
L 118.539795 122.421942 
L 123.539795 122.421942 
z
" clip-path="url(#pd6c87a46a8)" style="fill: #ffffff; stroke: #000000; stroke-width: 0.4"/>
    <path d="M 123.338616 117.884785 
L 120.838616 122.884785 
L 125.838616 122.884785 
z
" clip-path="url(#pd6c87a46a8)" style="fill: #ffffff; stroke: #000000; stroke-width: 0.4"/>
   </g>
   <g id="PathCollection_16">
    <path d="M 152.106156 92.300049 
L 149.606156 97.300049 
L 154.606156 97.300049 
z
" clip-path="url(#pd6c87a46a8)" style="fill: #ffffff; stroke: #000000; stroke-width: 0.4"/>
    <path d="M 151.441316 95.181616 
L 148.941316 100.181616 
L 153.941316 100.181616 
z
" clip-path="url(#pd6c87a46a8)" style="fill: #ffffff; stroke: #000000; stroke-width: 0.4"/>
    <path d="M 152.473893 94.429124 
L 149.973893 99.429124 
L 154.973893 99.429124 
z
" clip-path="url(#pd6c87a46a8)" style="fill: #ffffff; stroke: #000000; stroke-width: 0.4"/>
   </g>
   <g id="PathCollection_17">
    <path d="M 162.645188 76.191141 
L 160.145188 81.191141 
L 165.145188 81.191141 
z
" clip-path="url(#pd6c87a46a8)" style="fill: #ffffff; stroke: #000000; stroke-width: 0.4"/>
    <path d="M 163.214568 70.488723 
L 160.714568 75.488723 
L 165.714568 75.488723 
z
" clip-path="url(#pd6c87a46a8)" style="fill: #ffffff; stroke: #000000; stroke-width: 0.4"/>
    <path d="M 165.43839 73.614154 
L 162.93839 78.614154 
L 167.93839 78.614154 
z
" clip-path="url(#pd6c87a46a8)" style="fill: #ffffff; stroke: #000000; stroke-width: 0.4"/>
   </g>
   <g id="PathCollection_18">
    <path d="M 177.009401 92.525 
L 174.509401 97.525 
L 179.509401 97.525 
z
" clip-path="url(#pd6c87a46a8)" style="fill: #ffffff; stroke: #000000; stroke-width: 0.4"/>
    <path d="M 176.054205 94.872059 
L 173.554205 99.872059 
L 178.554205 99.872059 
z
" clip-path="url(#pd6c87a46a8)" style="fill: #ffffff; stroke: #000000; stroke-width: 0.4"/>
    <path d="M 177.255254 93.567142 
L 174.755254 98.567142 
L 179.755254 98.567142 
z
" clip-path="url(#pd6c87a46a8)" style="fill: #ffffff; stroke: #000000; stroke-width: 0.4"/>
   </g>
   <g id="PathCollection_19">
    <path d="M 188.394015 109.212212 
L 185.894015 114.212212 
L 190.894015 114.212212 
z
" clip-path="url(#pd6c87a46a8)" style="fill: #ffffff; stroke: #000000; stroke-width: 0.4"/>
    <path d="M 189.570196 104.047289 
L 187.070196 109.047289 
L 192.070196 109.047289 
z
" clip-path="url(#pd6c87a46a8)" style="fill: #ffffff; stroke: #000000; stroke-width: 0.4"/>
    <path d="M 191.030084 109.485936 
L 188.530084 114.485936 
L 193.530084 114.485936 
z
" clip-path="url(#pd6c87a46a8)" style="fill: #ffffff; stroke: #000000; stroke-width: 0.4"/>
   </g>
   <g id="PathCollection_20">
    <path d="M 203.427187 113.903344 
L 200.927187 118.903344 
L 205.927187 118.903344 
z
" clip-path="url(#pd6c87a46a8)" style="fill: #ffffff; stroke: #000000; stroke-width: 0.4"/>
    <path d="M 202.477247 117.196991 
L 199.977247 122.196991 
L 204.977247 122.196991 
z
" clip-path="url(#pd6c87a46a8)" style="fill: #ffffff; stroke: #000000; stroke-width: 0.4"/>
    <path d="M 202.47904 114.855904 
L 199.97904 119.855904 
L 204.97904 119.855904 
z
" clip-path="url(#pd6c87a46a8)" style="fill: #ffffff; stroke: #000000; stroke-width: 0.4"/>
   </g>
   <g id="PathCollection_21">
    <path d="M 67.323131 39.593052 
L 72.323131 39.593052 
L 72.323131 34.593052 
L 67.323131 34.593052 
z
" clip-path="url(#pd6c87a46a8)" style="fill: #ffffff; stroke: #000000; stroke-width: 0.4"/>
    <path d="M 67.74124 22.982483 
L 72.74124 22.982483 
L 72.74124 17.982483 
L 67.74124 17.982483 
z
" clip-path="url(#pd6c87a46a8)" style="fill: #ffffff; stroke: #000000; stroke-width: 0.4"/>
    <path d="M 68.720538 30.460624 
L 73.720538 30.460624 
L 73.720538 25.460624 
L 68.720538 25.460624 
z
" clip-path="url(#pd6c87a46a8)" style="fill: #ffffff; stroke: #000000; stroke-width: 0.4"/>
   </g>
   <g id="PathCollection_22">
    <path d="M 80.825789 57.735481 
L 85.825789 57.735481 
L 85.825789 52.735481 
L 80.825789 52.735481 
z
" clip-path="url(#pd6c87a46a8)" style="fill: #ffffff; stroke: #000000; stroke-width: 0.4"/>
    <path d="M 79.116143 60.131312 
L 84.116143 60.131312 
L 84.116143 55.131312 
L 79.116143 55.131312 
z
" clip-path="url(#pd6c87a46a8)" style="fill: #ffffff; stroke: #000000; stroke-width: 0.4"/>
    <path d="M 80.266238 68.710321 
L 85.266238 68.710321 
L 85.266238 63.710321 
L 80.266238 63.710321 
z
" clip-path="url(#pd6c87a46a8)" style="fill: #ffffff; stroke: #000000; stroke-width: 0.4"/>
   </g>
   <g id="PathCollection_23">
    <path d="M 94.645259 73.285991 
L 99.645259 73.285991 
L 99.645259 68.285991 
L 94.645259 68.285991 
z
" clip-path="url(#pd6c87a46a8)" style="fill: #ffffff; stroke: #000000; stroke-width: 0.4"/>
    <path d="M 92.571014 81.375283 
L 97.571014 81.375283 
L 97.571014 76.375283 
L 92.571014 76.375283 
z
" clip-path="url(#pd6c87a46a8)" style="fill: #ffffff; stroke: #000000; stroke-width: 0.4"/>
    <path d="M 94.900851 81.432018 
L 99.900851 81.432018 
L 99.900851 76.432018 
L 94.900851 76.432018 
z
" clip-path="url(#pd6c87a46a8)" style="fill: #ffffff; stroke: #000000; stroke-width: 0.4"/>
   </g>
   <g id="PathCollection_24">
    <path d="M 106.171561 92.013692 
L 111.171561 92.013692 
L 111.171561 87.013692 
L 106.171561 87.013692 
z
" clip-path="url(#pd6c87a46a8)" style="fill: #ffffff; stroke: #000000; stroke-width: 0.4"/>
    <path d="M 107.524857 94.166655 
L 112.524857 94.166655 
L 112.524857 89.166655 
L 107.524857 89.166655 
z
" clip-path="url(#pd6c87a46a8)" style="fill: #ffffff; stroke: #000000; stroke-width: 0.4"/>
    <path d="M 107.979488 96.167329 
L 112.979488 96.167329 
L 112.979488 91.167329 
L 107.979488 91.167329 
z
" clip-path="url(#pd6c87a46a8)" style="fill: #ffffff; stroke: #000000; stroke-width: 0.4"/>
   </g>
   <g id="PathCollection_25">
    <path d="M 119.751378 102.872075 
L 124.751378 102.872075 
L 124.751378 97.872075 
L 119.751378 97.872075 
z
" clip-path="url(#pd6c87a46a8)" style="fill: #ffffff; stroke: #000000; stroke-width: 0.4"/>
    <path d="M 118.00439 105.572487 
L 123.00439 105.572487 
L 123.00439 100.572487 
L 118.00439 100.572487 
z
" clip-path="url(#pd6c87a46a8)" style="fill: #ffffff; stroke: #000000; stroke-width: 0.4"/>
    <path d="M 120.148082 106.014427 
L 125.148082 106.014427 
L 125.148082 101.014427 
L 120.148082 101.014427 
z
" clip-path="url(#pd6c87a46a8)" style="fill: #ffffff; stroke: #000000; stroke-width: 0.4"/>
   </g>
   <g id="PathCollection_26">
    <path d="M 147.36174 86.656664 
L 152.36174 86.656664 
L 152.36174 81.656664 
L 147.36174 81.656664 
z
" clip-path="url(#pd6c87a46a8)" style="fill: #ffffff; stroke: #000000; stroke-width: 0.4"/>
    <path d="M 147.346927 92.393919 
L 152.346927 92.393919 
L 152.346927 87.393919 
L 147.346927 87.393919 
z
" clip-path="url(#pd6c87a46a8)" style="fill: #ffffff; stroke: #000000; stroke-width: 0.4"/>
    <path d="M 149.40312 95.430763 
L 154.40312 95.430763 
L 154.40312 90.430763 
L 149.40312 90.430763 
z
" clip-path="url(#pd6c87a46a8)" style="fill: #ffffff; stroke: #000000; stroke-width: 0.4"/>
   </g>
   <g id="PathCollection_27">
    <path d="M 161.456373 15.271429 
L 166.456373 15.271429 
L 166.456373 10.271429 
L 161.456373 10.271429 
z
" clip-path="url(#pd6c87a46a8)" style="fill: #ffffff; stroke: #000000; stroke-width: 0.4"/>
    <path d="M 161.829723 27.380979 
L 166.829723 27.380979 
L 166.829723 22.380979 
L 161.829723 22.380979 
z
" clip-path="url(#pd6c87a46a8)" style="fill: #ffffff; stroke: #000000; stroke-width: 0.4"/>
   </g>
   <g id="PathCollection_28">
    <path d="M 174.214697 26.617538 
L 179.214697 26.617538 
L 179.214697 21.617538 
L 174.214697 21.617538 
z
" clip-path="url(#pd6c87a46a8)" style="fill: #ffffff; stroke: #000000; stroke-width: 0.4"/>
    <path d="M 175.48374 32.617569 
L 180.48374 32.617569 
L 180.48374 27.617569 
L 175.48374 27.617569 
z
" clip-path="url(#pd6c87a46a8)" style="fill: #ffffff; stroke: #000000; stroke-width: 0.4"/>
    <path d="M 174.691247 29.237326 
L 179.691247 29.237326 
L 179.691247 24.237326 
L 174.691247 24.237326 
z
" clip-path="url(#pd6c87a46a8)" style="fill: #ffffff; stroke: #000000; stroke-width: 0.4"/>
   </g>
   <g id="PathCollection_29">
    <path d="M 188.83096 57.579209 
L 193.83096 57.579209 
L 193.83096 52.579209 
L 188.83096 52.579209 
z
" clip-path="url(#pd6c87a46a8)" style="fill: #ffffff; stroke: #000000; stroke-width: 0.4"/>
    <path d="M 187.781515 65.018531 
L 192.781515 65.018531 
L 192.781515 60.018531 
L 187.781515 60.018531 
z
" clip-path="url(#pd6c87a46a8)" style="fill: #ffffff; stroke: #000000; stroke-width: 0.4"/>
    <path d="M 185.985847 65.623709 
L 190.985847 65.623709 
L 190.985847 60.623709 
L 185.985847 60.623709 
z
" clip-path="url(#pd6c87a46a8)" style="fill: #ffffff; stroke: #000000; stroke-width: 0.4"/>
   </g>
   <g id="PathCollection_30">
    <path d="M 199.439674 96.230037 
L 204.439674 96.230037 
L 204.439674 91.230037 
L 199.439674 91.230037 
z
" clip-path="url(#pd6c87a46a8)" style="fill: #ffffff; stroke: #000000; stroke-width: 0.4"/>
    <path d="M 200.227562 90.443013 
L 205.227562 90.443013 
L 205.227562 85.443013 
L 200.227562 85.443013 
z
" clip-path="url(#pd6c87a46a8)" style="fill: #ffffff; stroke: #000000; stroke-width: 0.4"/>
    <path d="M 199.846798 92.759216 
L 204.846798 92.759216 
L 204.846798 87.759216 
L 199.846798 87.759216 
z
" clip-path="url(#pd6c87a46a8)" style="fill: #ffffff; stroke: #000000; stroke-width: 0.4"/>
   </g>
   <g id="PathCollection_31">
    <path d="M 2.535534 151.959844 
L 3.535534 150.959844 
L 0 147.42431 
L -1 148.42431 
" clip-path="url(#pd6c87a46a8)" style="fill: none; stroke: #000000; stroke-width: 0.4"/>
   </g>
   <g id="PathCollection_32">
    <path d="M 2.535534 151.959844 
L 3.535534 150.959844 
L 0 147.42431 
L -1 148.42431 
" clip-path="url(#pd6c87a46a8)" style="fill: none; stroke: #000000; stroke-width: 0.4"/>
   </g>
   <g id="PathCollection_33">
    <path d="M 2.535534 151.959844 
L 3.535534 150.959844 
L 0 147.42431 
L -1 148.42431 
" clip-path="url(#pd6c87a46a8)" style="fill: none; stroke: #000000; stroke-width: 0.4"/>
   </g>
   <g id="PathCollection_34">
    <path d="M 2.535534 151.959844 
L 3.535534 150.959844 
L 0 147.42431 
L -1 148.42431 
" clip-path="url(#pd6c87a46a8)" style="fill: none; stroke: #000000; stroke-width: 0.4"/>
   </g>
   <g id="PathCollection_35">
    <path d="M 2.535534 151.959844 
L 3.535534 150.959844 
L 0 147.42431 
L -1 148.42431 
" clip-path="url(#pd6c87a46a8)" style="fill: none; stroke: #000000; stroke-width: 0.4"/>
   </g>
   <g id="PathCollection_36">
    <path d="M 2.535534 151.959844 
L 3.535534 150.959844 
L 0 147.42431 
L -1 148.42431 
" clip-path="url(#pd6c87a46a8)" style="fill: none; stroke: #000000; stroke-width: 0.4"/>
   </g>
   <g id="PathCollection_37">
    <path d="M 2.535534 151.959844 
L 3.535534 150.959844 
L 0 147.42431 
L -1 148.42431 
" clip-path="url(#pd6c87a46a8)" style="fill: none; stroke: #000000; stroke-width: 0.4"/>
   </g>
   <g id="PathCollection_38">
    <path d="M 2.535534 151.959844 
L 3.535534 150.959844 
L 0 147.42431 
L -1 148.42431 
" clip-path="url(#pd6c87a46a8)" style="fill: none; stroke: #000000; stroke-width: 0.4"/>
   </g>
   <g id="PathCollection_39">
    <path d="M 2.535534 151.959844 
L 3.535534 150.959844 
L 0 147.42431 
L -1 148.42431 
" clip-path="url(#pd6c87a46a8)" style="fill: none; stroke: #000000; stroke-width: 0.4"/>
   </g>
   <g id="PathCollection_40">
    <path d="M 2.535534 151.959844 
L 3.535534 150.959844 
L 0 147.42431 
L -1 148.42431 
" clip-path="url(#pd6c87a46a8)" style="fill: none; stroke: #000000; stroke-width: 0.4"/>
   </g>
   <g id="PathCollection_41">
    <path d="M 0.833333 151.959844 
L 0.833333 151.793177 
L 2.5 151.793177 
L 2.5 150.12651 
L 0.833333 150.12651 
L 0.833333 148.459844 
L -0.833333 148.459844 
L -0.833333 150.12651 
L -1 150.12651 
M -1 151.793177 
L -0.833333 151.793177 
L -0.833333 151.959844 
" clip-path="url(#pd6c87a46a8)" style="fill: none; stroke: #000000; stroke-width: 0.4"/>
   </g>
   <g id="PathCollection_42">
    <path d="M 0.833333 151.959844 
L 0.833333 151.793177 
L 2.5 151.793177 
L 2.5 150.12651 
L 0.833333 150.12651 
L 0.833333 148.459844 
L -0.833333 148.459844 
L -0.833333 150.12651 
L -1 150.12651 
M -1 151.793177 
L -0.833333 151.793177 
L -0.833333 151.959844 
" clip-path="url(#pd6c87a46a8)" style="fill: none; stroke: #000000; stroke-width: 0.4"/>
   </g>
   <g id="PathCollection_43">
    <path d="M 0.833333 151.959844 
L 0.833333 151.793177 
L 2.5 151.793177 
L 2.5 150.12651 
L 0.833333 150.12651 
L 0.833333 148.459844 
L -0.833333 148.459844 
L -0.833333 150.12651 
L -1 150.12651 
M -1 151.793177 
L -0.833333 151.793177 
L -0.833333 151.959844 
" clip-path="url(#pd6c87a46a8)" style="fill: none; stroke: #000000; stroke-width: 0.4"/>
   </g>
   <g id="PathCollection_44">
    <path d="M 0.833333 151.959844 
L 0.833333 151.793177 
L 2.5 151.793177 
L 2.5 150.12651 
L 0.833333 150.12651 
L 0.833333 148.459844 
L -0.833333 148.459844 
L -0.833333 150.12651 
L -1 150.12651 
M -1 151.793177 
L -0.833333 151.793177 
L -0.833333 151.959844 
" clip-path="url(#pd6c87a46a8)" style="fill: none; stroke: #000000; stroke-width: 0.4"/>
   </g>
   <g id="PathCollection_45">
    <path d="M 0.833333 151.959844 
L 0.833333 151.793177 
L 2.5 151.793177 
L 2.5 150.12651 
L 0.833333 150.12651 
L 0.833333 148.459844 
L -0.833333 148.459844 
L -0.833333 150.12651 
L -1 150.12651 
M -1 151.793177 
L -0.833333 151.793177 
L -0.833333 151.959844 
" clip-path="url(#pd6c87a46a8)" style="fill: none; stroke: #000000; stroke-width: 0.4"/>
   </g>
   <g id="PathCollection_46">
    <path d="M 0.833333 151.959844 
L 0.833333 151.793177 
L 2.5 151.793177 
L 2.5 150.12651 
L 0.833333 150.12651 
L 0.833333 148.459844 
L -0.833333 148.459844 
L -0.833333 150.12651 
L -1 150.12651 
M -1 151.793177 
L -0.833333 151.793177 
L -0.833333 151.959844 
" clip-path="url(#pd6c87a46a8)" style="fill: none; stroke: #000000; stroke-width: 0.4"/>
   </g>
   <g id="PathCollection_47">
    <path d="M 0.833333 151.959844 
L 0.833333 151.793177 
L 2.5 151.793177 
L 2.5 150.12651 
L 0.833333 150.12651 
L 0.833333 148.459844 
L -0.833333 148.459844 
L -0.833333 150.12651 
L -1 150.12651 
M -1 151.793177 
L -0.833333 151.793177 
L -0.833333 151.959844 
" clip-path="url(#pd6c87a46a8)" style="fill: none; stroke: #000000; stroke-width: 0.4"/>
   </g>
   <g id="PathCollection_48">
    <path d="M 0.833333 151.959844 
L 0.833333 151.793177 
L 2.5 151.793177 
L 2.5 150.12651 
L 0.833333 150.12651 
L 0.833333 148.459844 
L -0.833333 148.459844 
L -0.833333 150.12651 
L -1 150.12651 
M -1 151.793177 
L -0.833333 151.793177 
L -0.833333 151.959844 
" clip-path="url(#pd6c87a46a8)" style="fill: none; stroke: #000000; stroke-width: 0.4"/>
   </g>
   <g id="PathCollection_49">
    <path d="M 0.833333 151.959844 
L 0.833333 151.793177 
L 2.5 151.793177 
L 2.5 150.12651 
L 0.833333 150.12651 
L 0.833333 148.459844 
L -0.833333 148.459844 
L -0.833333 150.12651 
L -1 150.12651 
M -1 151.793177 
L -0.833333 151.793177 
L -0.833333 151.959844 
" clip-path="url(#pd6c87a46a8)" style="fill: none; stroke: #000000; stroke-width: 0.4"/>
   </g>
   <g id="PathCollection_50">
    <path d="M 0.833333 151.959844 
L 0.833333 151.793177 
L 2.5 151.793177 
L 2.5 150.12651 
L 0.833333 150.12651 
L 0.833333 148.459844 
L -0.833333 148.459844 
L -0.833333 150.12651 
L -1 150.12651 
M -1 151.793177 
L -0.833333 151.793177 
L -0.833333 151.959844 
" clip-path="url(#pd6c87a46a8)" style="fill: none; stroke: #000000; stroke-width: 0.4"/>
   </g>
   <g id="legend_1">
    <g id="patch_17">
     <path d="M 230.025469 19.473594 
L 252.025469 19.473594 
L 252.025469 11.773594 
L 230.025469 11.773594 
z
" style="fill: #4b4279; opacity: 0.8; stroke: #ffffff; stroke-linejoin: miter"/>
    </g>
    <g id="text_9">
     <!-- 0 uM -->
     <g style="fill: #262626" transform="translate(260.825469 19.473594) scale(0.11 -0.11)">
      <defs>
       <path id="ArialMT-4d" d="M 475 0 
L 475 4581 
L 1388 4581 
L 2472 1338 
Q 2622 884 2691 659 
Q 2769 909 2934 1394 
L 4031 4581 
L 4847 4581 
L 4847 0 
L 4263 0 
L 4263 3834 
L 2931 0 
L 2384 0 
L 1059 3900 
L 1059 0 
L 475 0 
z
" transform="scale(0.015625)"/>
      </defs>
      <use xlink:href="#ArialMT-30"/>
      <use xlink:href="#ArialMT-20" transform="translate(55.615234 0)"/>
      <use xlink:href="#ArialMT-75" transform="translate(83.398438 0)"/>
      <use xlink:href="#ArialMT-4d" transform="translate(139.013672 0)"/>
     </g>
    </g>
    <g id="patch_18">
     <path d="M 230.025469 35.033437 
L 252.025469 35.033437 
L 252.025469 27.333437 
L 230.025469 27.333437 
z
" style="fill: #3c6682; opacity: 0.8; stroke: #ffffff; stroke-linejoin: miter"/>
    </g>
    <g id="text_10">
     <!-- 0.1 uM -->
     <g style="fill: #262626" transform="translate(260.825469 35.033437) scale(0.11 -0.11)">
      <defs>
       <path id="ArialMT-2e" d="M 581 0 
L 581 641 
L 1222 641 
L 1222 0 
L 581 0 
z
" transform="scale(0.015625)"/>
      </defs>
      <use xlink:href="#ArialMT-30"/>
      <use xlink:href="#ArialMT-2e" transform="translate(55.615234 0)"/>
      <use xlink:href="#ArialMT-31" transform="translate(83.398438 0)"/>
      <use xlink:href="#ArialMT-20" transform="translate(139.013672 0)"/>
      <use xlink:href="#ArialMT-75" transform="translate(166.796875 0)"/>
      <use xlink:href="#ArialMT-4d" transform="translate(222.412109 0)"/>
     </g>
    </g>
    <g id="patch_19">
     <path d="M 230.025469 50.593281 
L 252.025469 50.593281 
L 252.025469 42.893281 
L 230.025469 42.893281 
z
" style="fill: #2f837f; opacity: 0.8; stroke: #ffffff; stroke-linejoin: miter"/>
    </g>
    <g id="text_11">
     <!-- 0.5 uM -->
     <g style="fill: #262626" transform="translate(260.825469 50.593281) scale(0.11 -0.11)">
      <use xlink:href="#ArialMT-30"/>
      <use xlink:href="#ArialMT-2e" transform="translate(55.615234 0)"/>
      <use xlink:href="#ArialMT-35" transform="translate(83.398438 0)"/>
      <use xlink:href="#ArialMT-20" transform="translate(139.013672 0)"/>
      <use xlink:href="#ArialMT-75" transform="translate(166.796875 0)"/>
      <use xlink:href="#ArialMT-4d" transform="translate(222.412109 0)"/>
     </g>
    </g>
    <g id="patch_20">
     <path d="M 230.025469 66.153125 
L 252.025469 66.153125 
L 252.025469 58.453125 
L 230.025469 58.453125 
z
" style="fill: #45a778; opacity: 0.8; stroke: #ffffff; stroke-linejoin: miter"/>
    </g>
    <g id="text_12">
     <!-- 1 uM -->
     <g style="fill: #262626" transform="translate(260.825469 66.153125) scale(0.11 -0.11)">
      <use xlink:href="#ArialMT-31"/>
      <use xlink:href="#ArialMT-20" transform="translate(55.615234 0)"/>
      <use xlink:href="#ArialMT-75" transform="translate(83.398438 0)"/>
      <use xlink:href="#ArialMT-4d" transform="translate(139.013672 0)"/>
     </g>
    </g>
    <g id="patch_21">
     <path d="M 230.025469 81.712969 
L 252.025469 81.712969 
L 252.025469 74.012969 
L 230.025469 74.012969 
z
" style="fill: #8fc456; opacity: 0.8; stroke: #ffffff; stroke-linejoin: miter"/>
    </g>
    <g id="text_13">
     <!-- 2 uM -->
     <g style="fill: #262626" transform="translate(260.825469 81.712969) scale(0.11 -0.11)">
      <use xlink:href="#ArialMT-32"/>
      <use xlink:href="#ArialMT-20" transform="translate(55.615234 0)"/>
      <use xlink:href="#ArialMT-75" transform="translate(83.398438 0)"/>
      <use xlink:href="#ArialMT-4d" transform="translate(139.013672 0)"/>
     </g>
    </g>
   </g>
  </g>
 </g>
 <defs>
  <clipPath id="pd6c87a46a8">
   <rect x="55.525469" y="7.2" width="162" height="117"/>
  </clipPath>
 </defs>
</svg>
