<?xml version="1.0" encoding="utf-8" standalone="no"?>
<!DOCTYPE svg PUBLIC "-//W3C//DTD SVG 1.1//EN"
  "http://www.w3.org/Graphics/SVG/1.1/DTD/svg11.dtd">
<svg xmlns:xlink="http://www.w3.org/1999/xlink" width="307.413187pt" height="150.959844pt" viewBox="0 0 307.413187 150.959844" xmlns="http://www.w3.org/2000/svg" version="1.1">
 <metadata>
  <rdf:RDF xmlns:dc="http://purl.org/dc/elements/1.1/" xmlns:cc="http://creativecommons.org/ns#" xmlns:rdf="http://www.w3.org/1999/02/22-rdf-syntax-ns#">
   <cc:Work>
    <dc:type rdf:resource="http://purl.org/dc/dcmitype/StillImage"/>
    <dc:date>2025-07-28T16:57:40.549137</dc:date>
    <dc:format>image/svg+xml</dc:format>
    <dc:creator>
     <cc:Agent>
      <dc:title>Matplotlib v3.10.3, https://matplotlib.org/</dc:title>
     </cc:Agent>
    </dc:creator>
   </cc:Work>
  </rdf:RDF>
 </metadata>
 <defs>
  <style type="text/css">*{stroke-linejoin: round; stroke-linecap: butt}</style>
 </defs>
 <g id="figure_1">
  <g id="patch_1">
   <path d="M 0 150.959844 
L 307.413187 150.959844 
L 307.413187 0 
L 0 0 
z
" style="fill: #ffffff"/>
  </g>
  <g id="axes_1">
   <g id="patch_2">
    <path d="M 56.887563 124.2 
L 218.887562 124.2 
L 218.887562 7.2 
L 56.887563 7.2 
z
" style="fill: #ffffff"/>
   </g>
   <g id="matplotlib.axis_1">
    <g id="xtick_1">
     <g id="line2d_1">
      <defs>
       <path id="mb1fd74baaf" d="M 0 0 
L 0 6 
" style="stroke: #262626; stroke-width: 1.25"/>
      </defs>
      <g>
       <use xlink:href="#mb1fd74baaf" x="97.387563" y="124.2" style="fill: #262626; stroke: #262626; stroke-width: 1.25"/>
      </g>
     </g>
     <g id="text_1">
      <!-- SDDIR -->
      <g style="fill: #262626" transform="translate(80.274828 141.573594) scale(0.11 -0.11)">
       <defs>
        <path id="ArialMT-53" d="M 288 1472 
L 859 1522 
Q 900 1178 1048 958 
Q 1197 738 1509 602 
Q 1822 466 2213 466 
Q 2559 466 2825 569 
Q 3091 672 3220 851 
Q 3350 1031 3350 1244 
Q 3350 1459 3225 1620 
Q 3100 1781 2813 1891 
Q 2628 1963 1997 2114 
Q 1366 2266 1113 2400 
Q 784 2572 623 2826 
Q 463 3081 463 3397 
Q 463 3744 659 4045 
Q 856 4347 1234 4503 
Q 1613 4659 2075 4659 
Q 2584 4659 2973 4495 
Q 3363 4331 3572 4012 
Q 3781 3694 3797 3291 
L 3216 3247 
Q 3169 3681 2898 3903 
Q 2628 4125 2100 4125 
Q 1550 4125 1298 3923 
Q 1047 3722 1047 3438 
Q 1047 3191 1225 3031 
Q 1400 2872 2139 2705 
Q 2878 2538 3153 2413 
Q 3553 2228 3743 1945 
Q 3934 1663 3934 1294 
Q 3934 928 3725 604 
Q 3516 281 3123 101 
Q 2731 -78 2241 -78 
Q 1619 -78 1198 103 
Q 778 284 539 648 
Q 300 1013 288 1472 
z
" transform="scale(0.015625)"/>
        <path id="ArialMT-44" d="M 494 0 
L 494 4581 
L 2072 4581 
Q 2606 4581 2888 4516 
Q 3281 4425 3559 4188 
Q 3922 3881 4101 3404 
Q 4281 2928 4281 2316 
Q 4281 1794 4159 1391 
Q 4038 988 3847 723 
Q 3656 459 3429 307 
Q 3203 156 2883 78 
Q 2563 0 2147 0 
L 494 0 
z
M 1100 541 
L 2078 541 
Q 2531 541 2789 625 
Q 3047 709 3200 863 
Q 3416 1078 3536 1442 
Q 3656 1806 3656 2325 
Q 3656 3044 3420 3430 
Q 3184 3816 2847 3947 
Q 2603 4041 2063 4041 
L 1100 4041 
L 1100 541 
z
" transform="scale(0.015625)"/>
        <path id="ArialMT-49" d="M 597 0 
L 597 4581 
L 1203 4581 
L 1203 0 
L 597 0 
z
" transform="scale(0.015625)"/>
        <path id="ArialMT-52" d="M 503 0 
L 503 4581 
L 2534 4581 
Q 3147 4581 3465 4457 
Q 3784 4334 3975 4021 
Q 4166 3709 4166 3331 
Q 4166 2844 3850 2509 
Q 3534 2175 2875 2084 
Q 3116 1969 3241 1856 
Q 3506 1613 3744 1247 
L 4541 0 
L 3778 0 
L 3172 953 
Q 2906 1366 2734 1584 
Q 2563 1803 2427 1890 
Q 2291 1978 2150 2013 
Q 2047 2034 1813 2034 
L 1109 2034 
L 1109 0 
L 503 0 
z
M 1109 2559 
L 2413 2559 
Q 2828 2559 3062 2645 
Q 3297 2731 3419 2920 
Q 3541 3109 3541 3331 
Q 3541 3656 3305 3865 
Q 3069 4075 2559 4075 
L 1109 4075 
L 1109 2559 
z
" transform="scale(0.015625)"/>
       </defs>
       <use xlink:href="#ArialMT-53"/>
       <use xlink:href="#ArialMT-44" transform="translate(66.699219 0)"/>
       <use xlink:href="#ArialMT-44" transform="translate(138.916016 0)"/>
       <use xlink:href="#ArialMT-49" transform="translate(211.132812 0)"/>
       <use xlink:href="#ArialMT-52" transform="translate(238.916016 0)"/>
      </g>
     </g>
    </g>
    <g id="xtick_2">
     <g id="line2d_2">
      <g>
       <use xlink:href="#mb1fd74baaf" x="178.387563" y="124.2" style="fill: #262626; stroke: #262626; stroke-width: 1.25"/>
      </g>
     </g>
     <g id="text_2">
      <!-- RISDD -->
      <g style="fill: #262626" transform="translate(161.274828 141.573594) scale(0.11 -0.11)">
       <use xlink:href="#ArialMT-52"/>
       <use xlink:href="#ArialMT-49" transform="translate(72.216797 0)"/>
       <use xlink:href="#ArialMT-53" transform="translate(100 0)"/>
       <use xlink:href="#ArialMT-44" transform="translate(166.699219 0)"/>
       <use xlink:href="#ArialMT-44" transform="translate(238.916016 0)"/>
      </g>
     </g>
    </g>
   </g>
   <g id="matplotlib.axis_2">
    <g id="ytick_1">
     <g id="line2d_3">
      <defs>
       <path id="ma61e7a4f0b" d="M 0 0 
L -6 0 
" style="stroke: #262626; stroke-width: 1.25"/>
      </defs>
      <g>
       <use xlink:href="#ma61e7a4f0b" x="56.887563" y="124.2" style="fill: #262626; stroke: #262626; stroke-width: 1.25"/>
      </g>
     </g>
     <g id="text_3">
      <!-- 0 -->
      <g style="fill: #262626" transform="translate(41.270531 128.136797) scale(0.11 -0.11)">
       <defs>
        <path id="ArialMT-30" d="M 266 2259 
Q 266 3072 433 3567 
Q 600 4063 929 4331 
Q 1259 4600 1759 4600 
Q 2128 4600 2406 4451 
Q 2684 4303 2865 4023 
Q 3047 3744 3150 3342 
Q 3253 2941 3253 2259 
Q 3253 1453 3087 958 
Q 2922 463 2592 192 
Q 2263 -78 1759 -78 
Q 1097 -78 719 397 
Q 266 969 266 2259 
z
M 844 2259 
Q 844 1131 1108 757 
Q 1372 384 1759 384 
Q 2147 384 2411 759 
Q 2675 1134 2675 2259 
Q 2675 3391 2411 3762 
Q 2147 4134 1753 4134 
Q 1366 4134 1134 3806 
Q 844 3388 844 2259 
z
" transform="scale(0.015625)"/>
       </defs>
       <use xlink:href="#ArialMT-30"/>
      </g>
     </g>
    </g>
    <g id="ytick_2">
     <g id="line2d_4">
      <g>
       <use xlink:href="#ma61e7a4f0b" x="56.887563" y="96.12978" style="fill: #262626; stroke: #262626; stroke-width: 1.25"/>
      </g>
     </g>
     <g id="text_4">
      <!-- 20 -->
      <g style="fill: #262626" transform="translate(35.1535 100.066577) scale(0.11 -0.11)">
       <defs>
        <path id="ArialMT-32" d="M 3222 541 
L 3222 0 
L 194 0 
Q 188 203 259 391 
Q 375 700 629 1000 
Q 884 1300 1366 1694 
Q 2113 2306 2375 2664 
Q 2638 3022 2638 3341 
Q 2638 3675 2398 3904 
Q 2159 4134 1775 4134 
Q 1369 4134 1125 3890 
Q 881 3647 878 3216 
L 300 3275 
Q 359 3922 746 4261 
Q 1134 4600 1788 4600 
Q 2447 4600 2831 4234 
Q 3216 3869 3216 3328 
Q 3216 3053 3103 2787 
Q 2991 2522 2730 2228 
Q 2469 1934 1863 1422 
Q 1356 997 1212 845 
Q 1069 694 975 541 
L 3222 541 
z
" transform="scale(0.015625)"/>
       </defs>
       <use xlink:href="#ArialMT-32"/>
       <use xlink:href="#ArialMT-30" transform="translate(55.615234 0)"/>
      </g>
     </g>
    </g>
    <g id="ytick_3">
     <g id="line2d_5">
      <g>
       <use xlink:href="#ma61e7a4f0b" x="56.887563" y="68.05956" style="fill: #262626; stroke: #262626; stroke-width: 1.25"/>
      </g>
     </g>
     <g id="text_5">
      <!-- 40 -->
      <g style="fill: #262626" transform="translate(35.1535 71.996357) scale(0.11 -0.11)">
       <defs>
        <path id="ArialMT-34" d="M 2069 0 
L 2069 1097 
L 81 1097 
L 81 1613 
L 2172 4581 
L 2631 4581 
L 2631 1613 
L 3250 1613 
L 3250 1097 
L 2631 1097 
L 2631 0 
L 2069 0 
z
M 2069 1613 
L 2069 3678 
L 634 1613 
L 2069 1613 
z
" transform="scale(0.015625)"/>
       </defs>
       <use xlink:href="#ArialMT-34"/>
       <use xlink:href="#ArialMT-30" transform="translate(55.615234 0)"/>
      </g>
     </g>
    </g>
    <g id="ytick_4">
     <g id="line2d_6">
      <g>
       <use xlink:href="#ma61e7a4f0b" x="56.887563" y="39.98934" style="fill: #262626; stroke: #262626; stroke-width: 1.25"/>
      </g>
     </g>
     <g id="text_6">
      <!-- 60 -->
      <g style="fill: #262626" transform="translate(35.1535 43.926137) scale(0.11 -0.11)">
       <defs>
        <path id="ArialMT-36" d="M 3184 3459 
L 2625 3416 
Q 2550 3747 2413 3897 
Q 2184 4138 1850 4138 
Q 1581 4138 1378 3988 
Q 1113 3794 959 3422 
Q 806 3050 800 2363 
Q 1003 2672 1297 2822 
Q 1591 2972 1913 2972 
Q 2475 2972 2870 2558 
Q 3266 2144 3266 1488 
Q 3266 1056 3080 686 
Q 2894 316 2569 119 
Q 2244 -78 1831 -78 
Q 1128 -78 684 439 
Q 241 956 241 2144 
Q 241 3472 731 4075 
Q 1159 4600 1884 4600 
Q 2425 4600 2770 4297 
Q 3116 3994 3184 3459 
z
M 888 1484 
Q 888 1194 1011 928 
Q 1134 663 1356 523 
Q 1578 384 1822 384 
Q 2178 384 2434 671 
Q 2691 959 2691 1453 
Q 2691 1928 2437 2201 
Q 2184 2475 1800 2475 
Q 1419 2475 1153 2201 
Q 888 1928 888 1484 
z
" transform="scale(0.015625)"/>
       </defs>
       <use xlink:href="#ArialMT-36"/>
       <use xlink:href="#ArialMT-30" transform="translate(55.615234 0)"/>
      </g>
     </g>
    </g>
    <g id="ytick_5">
     <g id="line2d_7">
      <g>
       <use xlink:href="#ma61e7a4f0b" x="56.887563" y="11.91912" style="fill: #262626; stroke: #262626; stroke-width: 1.25"/>
      </g>
     </g>
     <g id="text_7">
      <!-- 80 -->
      <g style="fill: #262626" transform="translate(35.1535 15.855917) scale(0.11 -0.11)">
       <defs>
        <path id="ArialMT-38" d="M 1131 2484 
Q 781 2613 612 2850 
Q 444 3088 444 3419 
Q 444 3919 803 4259 
Q 1163 4600 1759 4600 
Q 2359 4600 2725 4251 
Q 3091 3903 3091 3403 
Q 3091 3084 2923 2848 
Q 2756 2613 2416 2484 
Q 2838 2347 3058 2040 
Q 3278 1734 3278 1309 
Q 3278 722 2862 322 
Q 2447 -78 1769 -78 
Q 1091 -78 675 323 
Q 259 725 259 1325 
Q 259 1772 486 2073 
Q 713 2375 1131 2484 
z
M 1019 3438 
Q 1019 3113 1228 2906 
Q 1438 2700 1772 2700 
Q 2097 2700 2305 2904 
Q 2513 3109 2513 3406 
Q 2513 3716 2298 3927 
Q 2084 4138 1766 4138 
Q 1444 4138 1231 3931 
Q 1019 3725 1019 3438 
z
M 838 1322 
Q 838 1081 952 856 
Q 1066 631 1291 507 
Q 1516 384 1775 384 
Q 2178 384 2440 643 
Q 2703 903 2703 1303 
Q 2703 1709 2433 1975 
Q 2163 2241 1756 2241 
Q 1359 2241 1098 1978 
Q 838 1716 838 1322 
z
" transform="scale(0.015625)"/>
       </defs>
       <use xlink:href="#ArialMT-38"/>
       <use xlink:href="#ArialMT-30" transform="translate(55.615234 0)"/>
      </g>
     </g>
    </g>
    <g id="text_8">
     <!-- (%) iMN -->
     <g style="fill: #262626" transform="translate(15.935625 87.361875) rotate(-90) scale(0.12 -0.12)">
      <defs>
       <path id="ArialMT-28" d="M 1497 -1347 
Q 1031 -759 709 28 
Q 388 816 388 1659 
Q 388 2403 628 3084 
Q 909 3875 1497 4659 
L 1900 4659 
Q 1522 4009 1400 3731 
Q 1209 3300 1100 2831 
Q 966 2247 966 1656 
Q 966 153 1900 -1347 
L 1497 -1347 
z
" transform="scale(0.015625)"/>
       <path id="ArialMT-25" d="M 372 3481 
Q 372 3972 619 4315 
Q 866 4659 1334 4659 
Q 1766 4659 2048 4351 
Q 2331 4044 2331 3447 
Q 2331 2866 2045 2552 
Q 1759 2238 1341 2238 
Q 925 2238 648 2547 
Q 372 2856 372 3481 
z
M 1350 4272 
Q 1141 4272 1002 4090 
Q 863 3909 863 3425 
Q 863 2984 1003 2804 
Q 1144 2625 1350 2625 
Q 1563 2625 1702 2806 
Q 1841 2988 1841 3469 
Q 1841 3913 1700 4092 
Q 1559 4272 1350 4272 
z
M 1353 -169 
L 3859 4659 
L 4316 4659 
L 1819 -169 
L 1353 -169 
z
M 3334 1075 
Q 3334 1569 3581 1911 
Q 3828 2253 4300 2253 
Q 4731 2253 5014 1945 
Q 5297 1638 5297 1041 
Q 5297 459 5011 145 
Q 4725 -169 4303 -169 
Q 3888 -169 3611 142 
Q 3334 453 3334 1075 
z
M 4316 1866 
Q 4103 1866 3964 1684 
Q 3825 1503 3825 1019 
Q 3825 581 3965 400 
Q 4106 219 4313 219 
Q 4528 219 4667 400 
Q 4806 581 4806 1063 
Q 4806 1506 4665 1686 
Q 4525 1866 4316 1866 
z
" transform="scale(0.015625)"/>
       <path id="ArialMT-29" d="M 791 -1347 
L 388 -1347 
Q 1322 153 1322 1656 
Q 1322 2244 1188 2822 
Q 1081 3291 891 3722 
Q 769 4003 388 4659 
L 791 4659 
Q 1378 3875 1659 3084 
Q 1900 2403 1900 1659 
Q 1900 816 1576 28 
Q 1253 -759 791 -1347 
z
" transform="scale(0.015625)"/>
       <path id="ArialMT-20" transform="scale(0.015625)"/>
       <path id="ArialMT-69" d="M 425 3934 
L 425 4581 
L 988 4581 
L 988 3934 
L 425 3934 
z
M 425 0 
L 425 3319 
L 988 3319 
L 988 0 
L 425 0 
z
" transform="scale(0.015625)"/>
       <path id="ArialMT-4d" d="M 475 0 
L 475 4581 
L 1388 4581 
L 2472 1338 
Q 2622 884 2691 659 
Q 2769 909 2934 1394 
L 4031 4581 
L 4847 4581 
L 4847 0 
L 4263 0 
L 4263 3834 
L 2931 0 
L 2384 0 
L 1059 3900 
L 1059 0 
L 475 0 
z
" transform="scale(0.015625)"/>
       <path id="ArialMT-4e" d="M 488 0 
L 488 4581 
L 1109 4581 
L 3516 984 
L 3516 4581 
L 4097 4581 
L 4097 0 
L 3475 0 
L 1069 3600 
L 1069 0 
L 488 0 
z
" transform="scale(0.015625)"/>
      </defs>
      <use xlink:href="#ArialMT-28"/>
      <use xlink:href="#ArialMT-25" transform="translate(33.300781 0)"/>
      <use xlink:href="#ArialMT-29" transform="translate(122.216797 0)"/>
      <use xlink:href="#ArialMT-20" transform="translate(155.517578 0)"/>
      <use xlink:href="#ArialMT-69" transform="translate(183.300781 0)"/>
      <use xlink:href="#ArialMT-4d" transform="translate(205.517578 0)"/>
      <use xlink:href="#ArialMT-4e" transform="translate(288.818359 0)"/>
     </g>
     <!-- of all cells -->
     <g style="fill: #262626" transform="translate(28.7685 92.042812) rotate(-90) scale(0.12 -0.12)">
      <defs>
       <path id="ArialMT-6f" d="M 213 1659 
Q 213 2581 725 3025 
Q 1153 3394 1769 3394 
Q 2453 3394 2887 2945 
Q 3322 2497 3322 1706 
Q 3322 1066 3130 698 
Q 2938 331 2570 128 
Q 2203 -75 1769 -75 
Q 1072 -75 642 372 
Q 213 819 213 1659 
z
M 791 1659 
Q 791 1022 1069 705 
Q 1347 388 1769 388 
Q 2188 388 2466 706 
Q 2744 1025 2744 1678 
Q 2744 2294 2464 2611 
Q 2184 2928 1769 2928 
Q 1347 2928 1069 2612 
Q 791 2297 791 1659 
z
" transform="scale(0.015625)"/>
       <path id="ArialMT-66" d="M 556 0 
L 556 2881 
L 59 2881 
L 59 3319 
L 556 3319 
L 556 3672 
Q 556 4006 616 4169 
Q 697 4388 901 4523 
Q 1106 4659 1475 4659 
Q 1713 4659 2000 4603 
L 1916 4113 
Q 1741 4144 1584 4144 
Q 1328 4144 1222 4034 
Q 1116 3925 1116 3625 
L 1116 3319 
L 1763 3319 
L 1763 2881 
L 1116 2881 
L 1116 0 
L 556 0 
z
" transform="scale(0.015625)"/>
       <path id="ArialMT-61" d="M 2588 409 
Q 2275 144 1986 34 
Q 1697 -75 1366 -75 
Q 819 -75 525 192 
Q 231 459 231 875 
Q 231 1119 342 1320 
Q 453 1522 633 1644 
Q 813 1766 1038 1828 
Q 1203 1872 1538 1913 
Q 2219 1994 2541 2106 
Q 2544 2222 2544 2253 
Q 2544 2597 2384 2738 
Q 2169 2928 1744 2928 
Q 1347 2928 1158 2789 
Q 969 2650 878 2297 
L 328 2372 
Q 403 2725 575 2942 
Q 747 3159 1072 3276 
Q 1397 3394 1825 3394 
Q 2250 3394 2515 3294 
Q 2781 3194 2906 3042 
Q 3031 2891 3081 2659 
Q 3109 2516 3109 2141 
L 3109 1391 
Q 3109 606 3145 398 
Q 3181 191 3288 0 
L 2700 0 
Q 2613 175 2588 409 
z
M 2541 1666 
Q 2234 1541 1622 1453 
Q 1275 1403 1131 1340 
Q 988 1278 909 1158 
Q 831 1038 831 891 
Q 831 666 1001 516 
Q 1172 366 1500 366 
Q 1825 366 2078 508 
Q 2331 650 2450 897 
Q 2541 1088 2541 1459 
L 2541 1666 
z
" transform="scale(0.015625)"/>
       <path id="ArialMT-6c" d="M 409 0 
L 409 4581 
L 972 4581 
L 972 0 
L 409 0 
z
" transform="scale(0.015625)"/>
       <path id="ArialMT-63" d="M 2588 1216 
L 3141 1144 
Q 3050 572 2676 248 
Q 2303 -75 1759 -75 
Q 1078 -75 664 370 
Q 250 816 250 1647 
Q 250 2184 428 2587 
Q 606 2991 970 3192 
Q 1334 3394 1763 3394 
Q 2303 3394 2647 3120 
Q 2991 2847 3088 2344 
L 2541 2259 
Q 2463 2594 2264 2762 
Q 2066 2931 1784 2931 
Q 1359 2931 1093 2626 
Q 828 2322 828 1663 
Q 828 994 1084 691 
Q 1341 388 1753 388 
Q 2084 388 2306 591 
Q 2528 794 2588 1216 
z
" transform="scale(0.015625)"/>
       <path id="ArialMT-65" d="M 2694 1069 
L 3275 997 
Q 3138 488 2766 206 
Q 2394 -75 1816 -75 
Q 1088 -75 661 373 
Q 234 822 234 1631 
Q 234 2469 665 2931 
Q 1097 3394 1784 3394 
Q 2450 3394 2872 2941 
Q 3294 2488 3294 1666 
Q 3294 1616 3291 1516 
L 816 1516 
Q 847 969 1125 678 
Q 1403 388 1819 388 
Q 2128 388 2347 550 
Q 2566 713 2694 1069 
z
M 847 1978 
L 2700 1978 
Q 2663 2397 2488 2606 
Q 2219 2931 1791 2931 
Q 1403 2931 1139 2672 
Q 875 2413 847 1978 
z
" transform="scale(0.015625)"/>
       <path id="ArialMT-73" d="M 197 991 
L 753 1078 
Q 800 744 1014 566 
Q 1228 388 1613 388 
Q 2000 388 2187 545 
Q 2375 703 2375 916 
Q 2375 1106 2209 1216 
Q 2094 1291 1634 1406 
Q 1016 1563 777 1677 
Q 538 1791 414 1992 
Q 291 2194 291 2438 
Q 291 2659 392 2848 
Q 494 3038 669 3163 
Q 800 3259 1026 3326 
Q 1253 3394 1513 3394 
Q 1903 3394 2198 3281 
Q 2494 3169 2634 2976 
Q 2775 2784 2828 2463 
L 2278 2388 
Q 2241 2644 2061 2787 
Q 1881 2931 1553 2931 
Q 1166 2931 1000 2803 
Q 834 2675 834 2503 
Q 834 2394 903 2306 
Q 972 2216 1119 2156 
Q 1203 2125 1616 2013 
Q 2213 1853 2448 1751 
Q 2684 1650 2818 1456 
Q 2953 1263 2953 975 
Q 2953 694 2789 445 
Q 2625 197 2315 61 
Q 2006 -75 1616 -75 
Q 969 -75 630 194 
Q 291 463 197 991 
z
" transform="scale(0.015625)"/>
      </defs>
      <use xlink:href="#ArialMT-6f"/>
      <use xlink:href="#ArialMT-66" transform="translate(55.615234 0)"/>
      <use xlink:href="#ArialMT-20" transform="translate(83.398438 0)"/>
      <use xlink:href="#ArialMT-61" transform="translate(111.181641 0)"/>
      <use xlink:href="#ArialMT-6c" transform="translate(166.796875 0)"/>
      <use xlink:href="#ArialMT-6c" transform="translate(189.013672 0)"/>
      <use xlink:href="#ArialMT-20" transform="translate(211.230469 0)"/>
      <use xlink:href="#ArialMT-63" transform="translate(239.013672 0)"/>
      <use xlink:href="#ArialMT-65" transform="translate(289.013672 0)"/>
      <use xlink:href="#ArialMT-6c" transform="translate(344.628906 0)"/>
      <use xlink:href="#ArialMT-6c" transform="translate(366.845703 0)"/>
      <use xlink:href="#ArialMT-73" transform="translate(389.0625 0)"/>
     </g>
    </g>
   </g>
   <g id="patch_3">
    <path d="M 64.987562 124.2 
L 77.947562 124.2 
L 77.947562 30.093522 
L 64.987562 30.093522 
z
" clip-path="url(#p4ebdf1507a)" style="fill: #4b4279; opacity: 0.8; stroke: #ffffff; stroke-linejoin: miter"/>
   </g>
   <g id="patch_4">
    <path d="M 145.987562 124.2 
L 158.947563 124.2 
L 158.947563 67.816341 
L 145.987562 67.816341 
z
" clip-path="url(#p4ebdf1507a)" style="fill: #4b4279; opacity: 0.8; stroke: #ffffff; stroke-linejoin: miter"/>
   </g>
   <g id="patch_5">
    <path d="M 77.947563 124.2 
L 90.907562 124.2 
L 90.907562 52.649642 
L 77.947563 52.649642 
z
" clip-path="url(#p4ebdf1507a)" style="fill: #3c6682; opacity: 0.8; stroke: #ffffff; stroke-linejoin: miter"/>
   </g>
   <g id="patch_6">
    <path d="M 158.947563 124.2 
L 171.907563 124.2 
L 171.907563 86.592385 
L 158.947563 86.592385 
z
" clip-path="url(#p4ebdf1507a)" style="fill: #3c6682; opacity: 0.8; stroke: #ffffff; stroke-linejoin: miter"/>
   </g>
   <g id="patch_7">
    <path d="M 90.907562 124.2 
L 103.867562 124.2 
L 103.867562 67.221318 
L 90.907562 67.221318 
z
" clip-path="url(#p4ebdf1507a)" style="fill: #2f837f; opacity: 0.8; stroke: #ffffff; stroke-linejoin: miter"/>
   </g>
   <g id="patch_8">
    <path d="M 171.907562 124.2 
L 184.867562 124.2 
L 184.867562 75.918794 
L 171.907562 75.918794 
z
" clip-path="url(#p4ebdf1507a)" style="fill: #2f837f; opacity: 0.8; stroke: #ffffff; stroke-linejoin: miter"/>
   </g>
   <g id="patch_9">
    <path d="M 103.867563 124.2 
L 116.827562 124.2 
L 116.827562 77.484208 
L 103.867563 77.484208 
z
" clip-path="url(#p4ebdf1507a)" style="fill: #45a778; opacity: 0.8; stroke: #ffffff; stroke-linejoin: miter"/>
   </g>
   <g id="patch_10">
    <path d="M 184.867562 124.2 
L 197.827562 124.2 
L 197.827562 77.871193 
L 184.867562 77.871193 
z
" clip-path="url(#p4ebdf1507a)" style="fill: #45a778; opacity: 0.8; stroke: #ffffff; stroke-linejoin: miter"/>
   </g>
   <g id="patch_11">
    <path d="M 116.827562 124.2 
L 129.787563 124.2 
L 129.787563 74.683028 
L 116.827562 74.683028 
z
" clip-path="url(#p4ebdf1507a)" style="fill: #8fc456; opacity: 0.8; stroke: #ffffff; stroke-linejoin: miter"/>
   </g>
   <g id="patch_12">
    <path d="M 197.827562 124.2 
L 210.787562 124.2 
L 210.787562 93.930866 
L 197.827562 93.930866 
z
" clip-path="url(#p4ebdf1507a)" style="fill: #8fc456; opacity: 0.8; stroke: #ffffff; stroke-linejoin: miter"/>
   </g>
   <g id="line2d_8">
    <path d="M 71.467563 35.617202 
L 71.467563 24.021246 
" clip-path="url(#p4ebdf1507a)" style="fill: none; stroke: #424242; stroke-width: 2.7; stroke-linecap: round"/>
   </g>
   <g id="line2d_9">
    <path d="M 152.467562 79.391234 
L 152.467562 56.425397 
" clip-path="url(#p4ebdf1507a)" style="fill: none; stroke: #424242; stroke-width: 2.7; stroke-linecap: round"/>
   </g>
   <g id="line2d_10">
    <path d="M 84.427563 61.737604 
L 84.427563 43.610558 
" clip-path="url(#p4ebdf1507a)" style="fill: none; stroke: #424242; stroke-width: 2.7; stroke-linecap: round"/>
   </g>
   <g id="line2d_11">
    <path d="M 165.427562 96.529512 
L 165.427562 76.375485 
" clip-path="url(#p4ebdf1507a)" style="fill: none; stroke: #424242; stroke-width: 2.7; stroke-linecap: round"/>
   </g>
   <g id="line2d_12">
    <path d="M 97.387563 82.16521 
L 97.387563 52.545859 
" clip-path="url(#p4ebdf1507a)" style="fill: none; stroke: #424242; stroke-width: 2.7; stroke-linecap: round"/>
   </g>
   <g id="line2d_13">
    <path d="M 178.387563 81.029961 
L 178.387563 70.150254 
" clip-path="url(#p4ebdf1507a)" style="fill: none; stroke: #424242; stroke-width: 2.7; stroke-linecap: round"/>
   </g>
   <g id="line2d_14">
    <path d="M 110.347562 90.990074 
L 110.347562 63.806382 
" clip-path="url(#p4ebdf1507a)" style="fill: none; stroke: #424242; stroke-width: 2.7; stroke-linecap: round"/>
   </g>
   <g id="line2d_15">
    <path d="M 191.347562 86.651534 
L 191.347562 69.693366 
" clip-path="url(#p4ebdf1507a)" style="fill: none; stroke: #424242; stroke-width: 2.7; stroke-linecap: round"/>
   </g>
   <g id="line2d_16">
    <path d="M 123.307562 92.928637 
L 123.307562 55.239635 
" clip-path="url(#p4ebdf1507a)" style="fill: none; stroke: #424242; stroke-width: 2.7; stroke-linecap: round"/>
   </g>
   <g id="line2d_17">
    <path d="M 204.307562 98.658173 
L 204.307562 89.027386 
" clip-path="url(#p4ebdf1507a)" style="fill: none; stroke: #424242; stroke-width: 2.7; stroke-linecap: round"/>
   </g>
   <g id="patch_13">
    <path d="M 56.887563 124.2 
L 56.887563 7.2 
" style="fill: none; stroke: #262626; stroke-width: 1.25; stroke-linejoin: miter; stroke-linecap: square"/>
   </g>
   <g id="patch_14">
    <path d="M 218.887562 124.2 
L 218.887562 7.2 
" style="fill: none; stroke: #262626; stroke-width: 1.25; stroke-linejoin: miter; stroke-linecap: square"/>
   </g>
   <g id="patch_15">
    <path d="M 56.887563 124.2 
L 218.887562 124.2 
" style="fill: none; stroke: #262626; stroke-width: 1.25; stroke-linejoin: miter; stroke-linecap: square"/>
   </g>
   <g id="patch_16">
    <path d="M 56.887563 7.2 
L 218.887562 7.2 
" style="fill: none; stroke: #262626; stroke-width: 1.25; stroke-linejoin: miter; stroke-linecap: square"/>
   </g>
   <g id="PathCollection_1">
    <defs>
     <path id="C0_0_3a2b94be08" d="M 0 2.5 
C 0.663008 2.5 1.29895 2.236584 1.767767 1.767767 
C 2.236584 1.29895 2.5 0.663008 2.5 -0 
C 2.5 -0.663008 2.236584 -1.29895 1.767767 -1.767767 
C 1.29895 -2.236584 0.663008 -2.5 0 -2.5 
C -0.663008 -2.5 -1.29895 -2.236584 -1.767767 -1.767767 
C -2.236584 -1.29895 -2.5 -0.663008 -2.5 0 
C -2.5 0.663008 -2.236584 1.29895 -1.767767 1.767767 
C -1.29895 2.236584 -0.663008 2.5 0 2.5 
z
"/>
    </defs>
    <g clip-path="url(#p4ebdf1507a)">
     <use xlink:href="#C0_0_3a2b94be08" x="71.380692" y="31.373768" style="fill: #ffffff; stroke: #000000; stroke-width: 0.4"/>
    </g>
    <g clip-path="url(#p4ebdf1507a)">
     <use xlink:href="#C0_0_3a2b94be08" x="71.179502" y="26.605567" style="fill: #ffffff; stroke: #000000; stroke-width: 0.4"/>
    </g>
    <g clip-path="url(#p4ebdf1507a)">
     <use xlink:href="#C0_0_3a2b94be08" x="72.890599" y="24.724506" style="fill: #ffffff; stroke: #000000; stroke-width: 0.4"/>
    </g>
   </g>
   <g id="PathCollection_2">
    <defs>
     <path id="C1_0_5ade3f4405" d="M 0 2.5 
C 0.663008 2.5 1.29895 2.236584 1.767767 1.767767 
C 2.236584 1.29895 2.5 0.663008 2.5 -0 
C 2.5 -0.663008 2.236584 -1.29895 1.767767 -1.767767 
C 1.29895 -2.236584 0.663008 -2.5 0 -2.5 
C -0.663008 -2.5 -1.29895 -2.236584 -1.767767 -1.767767 
C -2.236584 -1.29895 -2.5 -0.663008 -2.5 0 
C -2.5 0.663008 -2.236584 1.29895 -1.767767 1.767767 
C -1.29895 2.236584 -0.663008 2.5 0 2.5 
z
"/>
    </defs>
    <g clip-path="url(#p4ebdf1507a)">
     <use xlink:href="#C1_0_5ade3f4405" x="85.330726" y="32.532232" style="fill: #ffffff; stroke: #000000; stroke-width: 0.4"/>
    </g>
    <g clip-path="url(#p4ebdf1507a)">
     <use xlink:href="#C1_0_5ade3f4405" x="84.913734" y="29.772744" style="fill: #ffffff; stroke: #000000; stroke-width: 0.4"/>
    </g>
    <g clip-path="url(#p4ebdf1507a)">
     <use xlink:href="#C1_0_5ade3f4405" x="85.323653" y="30.91433" style="fill: #ffffff; stroke: #000000; stroke-width: 0.4"/>
    </g>
   </g>
   <g id="PathCollection_3">
    <defs>
     <path id="C2_0_dcd4de7e04" d="M 0 2.5 
C 0.663008 2.5 1.29895 2.236584 1.767767 1.767767 
C 2.236584 1.29895 2.5 0.663008 2.5 -0 
C 2.5 -0.663008 2.236584 -1.29895 1.767767 -1.767767 
C 1.29895 -2.236584 0.663008 -2.5 0 -2.5 
C -0.663008 -2.5 -1.29895 -2.236584 -1.767767 -1.767767 
C -2.236584 -1.29895 -2.5 -0.663008 -2.5 0 
C -2.5 0.663008 -2.236584 1.29895 -1.767767 1.767767 
C -1.29895 2.236584 -0.663008 2.5 0 2.5 
z
"/>
    </defs>
    <g clip-path="url(#p4ebdf1507a)">
     <use xlink:href="#C2_0_dcd4de7e04" x="97.206142" y="37.769763" style="fill: #ffffff; stroke: #000000; stroke-width: 0.4"/>
    </g>
    <g clip-path="url(#p4ebdf1507a)">
     <use xlink:href="#C2_0_dcd4de7e04" x="96.552262" y="36.729651" style="fill: #ffffff; stroke: #000000; stroke-width: 0.4"/>
    </g>
    <g clip-path="url(#p4ebdf1507a)">
     <use xlink:href="#C2_0_dcd4de7e04" x="98.751714" y="35.777313" style="fill: #ffffff; stroke: #000000; stroke-width: 0.4"/>
    </g>
   </g>
   <g id="PathCollection_4">
    <defs>
     <path id="C3_0_4a00ce7727" d="M 0 2.5 
C 0.663008 2.5 1.29895 2.236584 1.767767 1.767767 
C 2.236584 1.29895 2.5 0.663008 2.5 -0 
C 2.5 -0.663008 2.236584 -1.29895 1.767767 -1.767767 
C 1.29895 -2.236584 0.663008 -2.5 0 -2.5 
C -0.663008 -2.5 -1.29895 -2.236584 -1.767767 -1.767767 
C -2.236584 -1.29895 -2.5 -0.663008 -2.5 0 
C -2.5 0.663008 -2.236584 1.29895 -1.767767 1.767767 
C -1.29895 2.236584 -0.663008 2.5 0 2.5 
z
"/>
    </defs>
    <g clip-path="url(#p4ebdf1507a)">
     <use xlink:href="#C3_0_4a00ce7727" x="110.897523" y="55.012635" style="fill: #ffffff; stroke: #000000; stroke-width: 0.4"/>
    </g>
    <g clip-path="url(#p4ebdf1507a)">
     <use xlink:href="#C3_0_4a00ce7727" x="110.502135" y="48.619414" style="fill: #ffffff; stroke: #000000; stroke-width: 0.4"/>
    </g>
    <g clip-path="url(#p4ebdf1507a)">
     <use xlink:href="#C3_0_4a00ce7727" x="109.222669" y="49.27817" style="fill: #ffffff; stroke: #000000; stroke-width: 0.4"/>
    </g>
   </g>
   <g id="PathCollection_5">
    <defs>
     <path id="C4_0_fe05611f28" d="M 0 2.5 
C 0.663008 2.5 1.29895 2.236584 1.767767 1.767767 
C 2.236584 1.29895 2.5 0.663008 2.5 -0 
C 2.5 -0.663008 2.236584 -1.29895 1.767767 -1.767767 
C 1.29895 -2.236584 0.663008 -2.5 0 -2.5 
C -0.663008 -2.5 -1.29895 -2.236584 -1.767767 -1.767767 
C -2.236584 -1.29895 -2.5 -0.663008 -2.5 0 
C -2.5 0.663008 -2.236584 1.29895 -1.767767 1.767767 
C -1.29895 2.236584 -0.663008 2.5 0 2.5 
z
"/>
    </defs>
    <g clip-path="url(#p4ebdf1507a)">
     <use xlink:href="#C4_0_fe05611f28" x="123.007566" y="34.957629" style="fill: #ffffff; stroke: #000000; stroke-width: 0.4"/>
    </g>
    <g clip-path="url(#p4ebdf1507a)">
     <use xlink:href="#C4_0_fe05611f28" x="121.76466" y="30.29577" style="fill: #ffffff; stroke: #000000; stroke-width: 0.4"/>
    </g>
    <g clip-path="url(#p4ebdf1507a)">
     <use xlink:href="#C4_0_fe05611f28" x="123.245199" y="36.746091" style="fill: #ffffff; stroke: #000000; stroke-width: 0.4"/>
    </g>
   </g>
   <g id="PathCollection_6">
    <defs>
     <path id="C5_0_5ac8424c35" d="M 0 2.5 
C 0.663008 2.5 1.29895 2.236584 1.767767 1.767767 
C 2.236584 1.29895 2.5 0.663008 2.5 -0 
C 2.5 -0.663008 2.236584 -1.29895 1.767767 -1.767767 
C 1.29895 -2.236584 0.663008 -2.5 0 -2.5 
C -0.663008 -2.5 -1.29895 -2.236584 -1.767767 -1.767767 
C -2.236584 -1.29895 -2.5 -0.663008 -2.5 0 
C -2.5 0.663008 -2.236584 1.29895 -1.767767 1.767767 
C -1.29895 2.236584 -0.663008 2.5 0 2.5 
z
"/>
    </defs>
    <g clip-path="url(#p4ebdf1507a)">
     <use xlink:href="#C5_0_5ac8424c35" x="151.996376" y="50.367873" style="fill: #ffffff; stroke: #000000; stroke-width: 0.4"/>
    </g>
    <g clip-path="url(#p4ebdf1507a)">
     <use xlink:href="#C5_0_5ac8424c35" x="150.944721" y="52.119627" style="fill: #ffffff; stroke: #000000; stroke-width: 0.4"/>
    </g>
    <g clip-path="url(#p4ebdf1507a)">
     <use xlink:href="#C5_0_5ac8424c35" x="151.575569" y="46.580887" style="fill: #ffffff; stroke: #000000; stroke-width: 0.4"/>
    </g>
   </g>
   <g id="PathCollection_7">
    <defs>
     <path id="C6_0_7944fd0815" d="M 0 2.5 
C 0.663008 2.5 1.29895 2.236584 1.767767 1.767767 
C 2.236584 1.29895 2.5 0.663008 2.5 -0 
C 2.5 -0.663008 2.236584 -1.29895 1.767767 -1.767767 
C 1.29895 -2.236584 0.663008 -2.5 0 -2.5 
C -0.663008 -2.5 -1.29895 -2.236584 -1.767767 -1.767767 
C -2.236584 -1.29895 -2.5 -0.663008 -2.5 0 
C -2.5 0.663008 -2.236584 1.29895 -1.767767 1.767767 
C -1.29895 2.236584 -0.663008 2.5 0 2.5 
z
"/>
    </defs>
    <g clip-path="url(#p4ebdf1507a)">
     <use xlink:href="#C6_0_7944fd0815" x="164.107029" y="70.098551" style="fill: #ffffff; stroke: #000000; stroke-width: 0.4"/>
    </g>
    <g clip-path="url(#p4ebdf1507a)">
     <use xlink:href="#C6_0_7944fd0815" x="164.0508" y="74.206983" style="fill: #ffffff; stroke: #000000; stroke-width: 0.4"/>
    </g>
    <g clip-path="url(#p4ebdf1507a)">
     <use xlink:href="#C6_0_7944fd0815" x="166.830586" y="56.772342" style="fill: #ffffff; stroke: #000000; stroke-width: 0.4"/>
    </g>
   </g>
   <g id="PathCollection_8">
    <defs>
     <path id="C7_0_a9b0b2824c" d="M 0 2.5 
C 0.663008 2.5 1.29895 2.236584 1.767767 1.767767 
C 2.236584 1.29895 2.5 0.663008 2.5 -0 
C 2.5 -0.663008 2.236584 -1.29895 1.767767 -1.767767 
C 1.29895 -2.236584 0.663008 -2.5 0 -2.5 
C -0.663008 -2.5 -1.29895 -2.236584 -1.767767 -1.767767 
C -2.236584 -1.29895 -2.5 -0.663008 -2.5 0 
C -2.5 0.663008 -2.236584 1.29895 -1.767767 1.767767 
C -1.29895 2.236584 -0.663008 2.5 0 2.5 
z
"/>
    </defs>
    <g clip-path="url(#p4ebdf1507a)">
     <use xlink:href="#C7_0_a9b0b2824c" x="176.898166" y="63.537995" style="fill: #ffffff; stroke: #000000; stroke-width: 0.4"/>
    </g>
    <g clip-path="url(#p4ebdf1507a)">
     <use xlink:href="#C7_0_a9b0b2824c" x="178.029428" y="59.73544" style="fill: #ffffff; stroke: #000000; stroke-width: 0.4"/>
    </g>
    <g clip-path="url(#p4ebdf1507a)">
     <use xlink:href="#C7_0_a9b0b2824c" x="177.285368" y="59.561148" style="fill: #ffffff; stroke: #000000; stroke-width: 0.4"/>
    </g>
   </g>
   <g id="PathCollection_9">
    <defs>
     <path id="C8_0_c1bdeded33" d="M 0 2.5 
C 0.663008 2.5 1.29895 2.236584 1.767767 1.767767 
C 2.236584 1.29895 2.5 0.663008 2.5 -0 
C 2.5 -0.663008 2.236584 -1.29895 1.767767 -1.767767 
C 1.29895 -2.236584 0.663008 -2.5 0 -2.5 
C -0.663008 -2.5 -1.29895 -2.236584 -1.767767 -1.767767 
C -2.236584 -1.29895 -2.5 -0.663008 -2.5 0 
C -2.5 0.663008 -2.236584 1.29895 -1.767767 1.767767 
C -1.29895 2.236584 -0.663008 2.5 0 2.5 
z
"/>
    </defs>
    <g clip-path="url(#p4ebdf1507a)">
     <use xlink:href="#C8_0_c1bdeded33" x="190.566364" y="62.275139" style="fill: #ffffff; stroke: #000000; stroke-width: 0.4"/>
    </g>
    <g clip-path="url(#p4ebdf1507a)">
     <use xlink:href="#C8_0_c1bdeded33" x="189.832496" y="62.657338" style="fill: #ffffff; stroke: #000000; stroke-width: 0.4"/>
    </g>
    <g clip-path="url(#p4ebdf1507a)">
     <use xlink:href="#C8_0_c1bdeded33" x="192.724717" y="67.847952" style="fill: #ffffff; stroke: #000000; stroke-width: 0.4"/>
    </g>
   </g>
   <g id="PathCollection_10">
    <defs>
     <path id="C9_0_193118ab2c" d="M 0 2.5 
C 0.663008 2.5 1.29895 2.236584 1.767767 1.767767 
C 2.236584 1.29895 2.5 0.663008 2.5 -0 
C 2.5 -0.663008 2.236584 -1.29895 1.767767 -1.767767 
C 1.29895 -2.236584 0.663008 -2.5 0 -2.5 
C -0.663008 -2.5 -1.29895 -2.236584 -1.767767 -1.767767 
C -2.236584 -1.29895 -2.5 -0.663008 -2.5 0 
C -2.5 0.663008 -2.236584 1.29895 -1.767767 1.767767 
C -1.29895 2.236584 -0.663008 2.5 0 2.5 
z
"/>
    </defs>
    <g clip-path="url(#p4ebdf1507a)">
     <use xlink:href="#C9_0_193118ab2c" x="202.874746" y="89.833462" style="fill: #ffffff; stroke: #000000; stroke-width: 0.4"/>
    </g>
    <g clip-path="url(#p4ebdf1507a)">
     <use xlink:href="#C9_0_193118ab2c" x="203.971999" y="91.068651" style="fill: #ffffff; stroke: #000000; stroke-width: 0.4"/>
    </g>
    <g clip-path="url(#p4ebdf1507a)">
     <use xlink:href="#C9_0_193118ab2c" x="204.341605" y="84.920181" style="fill: #ffffff; stroke: #000000; stroke-width: 0.4"/>
    </g>
   </g>
   <g id="PathCollection_11">
    <path d="M 69.848314 10.271429 
L 67.348314 15.271429 
L 72.348314 15.271429 
z
" clip-path="url(#p4ebdf1507a)" style="fill: #ffffff; stroke: #000000; stroke-width: 0.4"/>
    <path d="M 70.56141 11.41832 
L 68.06141 16.41832 
L 73.06141 16.41832 
z
" clip-path="url(#p4ebdf1507a)" style="fill: #ffffff; stroke: #000000; stroke-width: 0.4"/>
    <path d="M 70.402316 12.796748 
L 67.902316 17.796748 
L 72.902316 17.796748 
z
" clip-path="url(#p4ebdf1507a)" style="fill: #ffffff; stroke: #000000; stroke-width: 0.4"/>
   </g>
   <g id="PathCollection_12">
    <path d="M 83.030213 37.27759 
L 80.530213 42.27759 
L 85.530213 42.27759 
z
" clip-path="url(#p4ebdf1507a)" style="fill: #ffffff; stroke: #000000; stroke-width: 0.4"/>
    <path d="M 84.810131 44.713269 
L 82.310131 49.713269 
L 87.310131 49.713269 
z
" clip-path="url(#p4ebdf1507a)" style="fill: #ffffff; stroke: #000000; stroke-width: 0.4"/>
    <path d="M 83.854689 39.845289 
L 81.354689 44.845289 
L 86.354689 44.845289 
z
" clip-path="url(#p4ebdf1507a)" style="fill: #ffffff; stroke: #000000; stroke-width: 0.4"/>
   </g>
   <g id="PathCollection_13">
    <path d="M 96.214808 41.451707 
L 93.714808 46.451707 
L 98.714808 46.451707 
z
" clip-path="url(#p4ebdf1507a)" style="fill: #ffffff; stroke: #000000; stroke-width: 0.4"/>
    <path d="M 97.596055 41.117667 
L 95.096055 46.117667 
L 100.096055 46.117667 
z
" clip-path="url(#p4ebdf1507a)" style="fill: #ffffff; stroke: #000000; stroke-width: 0.4"/>
    <path d="M 95.797515 39.795652 
L 93.297515 44.795652 
L 98.297515 44.795652 
z
" clip-path="url(#p4ebdf1507a)" style="fill: #ffffff; stroke: #000000; stroke-width: 0.4"/>
   </g>
   <g id="PathCollection_14">
    <path d="M 111.506814 52.004232 
L 109.006814 57.004232 
L 114.006814 57.004232 
z
" clip-path="url(#p4ebdf1507a)" style="fill: #ffffff; stroke: #000000; stroke-width: 0.4"/>
    <path d="M 111.578197 48.424048 
L 109.078197 53.424048 
L 114.078197 53.424048 
z
" clip-path="url(#p4ebdf1507a)" style="fill: #ffffff; stroke: #000000; stroke-width: 0.4"/>
    <path d="M 110.336669 52.973249 
L 107.836669 57.973249 
L 112.836669 57.973249 
z
" clip-path="url(#p4ebdf1507a)" style="fill: #ffffff; stroke: #000000; stroke-width: 0.4"/>
   </g>
   <g id="PathCollection_15">
    <path d="M 123.281594 51.057015 
L 120.781594 56.057015 
L 125.781594 56.057015 
z
" clip-path="url(#p4ebdf1507a)" style="fill: #ffffff; stroke: #000000; stroke-width: 0.4"/>
    <path d="M 124.656679 46.648676 
L 122.156679 51.648676 
L 127.156679 51.648676 
z
" clip-path="url(#p4ebdf1507a)" style="fill: #ffffff; stroke: #000000; stroke-width: 0.4"/>
    <path d="M 123.741471 44.385746 
L 121.241471 49.385746 
L 126.241471 49.385746 
z
" clip-path="url(#p4ebdf1507a)" style="fill: #ffffff; stroke: #000000; stroke-width: 0.4"/>
   </g>
   <g id="PathCollection_16">
    <path d="M 153.294617 42.38327 
L 150.794617 47.38327 
L 155.794617 47.38327 
z
" clip-path="url(#p4ebdf1507a)" style="fill: #ffffff; stroke: #000000; stroke-width: 0.4"/>
    <path d="M 153.509496 40.394657 
L 151.009496 45.394657 
L 156.009496 45.394657 
z
" clip-path="url(#p4ebdf1507a)" style="fill: #ffffff; stroke: #000000; stroke-width: 0.4"/>
    <path d="M 153.271607 46.107381 
L 150.771607 51.107381 
L 155.771607 51.107381 
z
" clip-path="url(#p4ebdf1507a)" style="fill: #ffffff; stroke: #000000; stroke-width: 0.4"/>
   </g>
   <g id="PathCollection_17">
    <path d="M 164.374426 67.847676 
L 161.874426 72.847676 
L 166.874426 72.847676 
z
" clip-path="url(#p4ebdf1507a)" style="fill: #ffffff; stroke: #000000; stroke-width: 0.4"/>
    <path d="M 164.44314 68.316959 
L 161.94314 73.316959 
L 166.94314 73.316959 
z
" clip-path="url(#p4ebdf1507a)" style="fill: #ffffff; stroke: #000000; stroke-width: 0.4"/>
    <path d="M 167.011775 64.047458 
L 164.511775 69.047458 
L 169.511775 69.047458 
z
" clip-path="url(#p4ebdf1507a)" style="fill: #ffffff; stroke: #000000; stroke-width: 0.4"/>
   </g>
   <g id="PathCollection_18">
    <path d="M 177.537968 82.362475 
L 175.037968 87.362475 
L 180.037968 87.362475 
z
" clip-path="url(#p4ebdf1507a)" style="fill: #ffffff; stroke: #000000; stroke-width: 0.4"/>
    <path d="M 178.766092 71.444664 
L 176.266092 76.444664 
L 181.266092 76.444664 
z
" clip-path="url(#p4ebdf1507a)" style="fill: #ffffff; stroke: #000000; stroke-width: 0.4"/>
    <path d="M 179.576382 64.478008 
L 177.076382 69.478008 
L 182.076382 69.478008 
z
" clip-path="url(#p4ebdf1507a)" style="fill: #ffffff; stroke: #000000; stroke-width: 0.4"/>
   </g>
   <g id="PathCollection_19">
    <path d="M 192.655346 60.551542 
L 190.155346 65.551542 
L 195.155346 65.551542 
z
" clip-path="url(#p4ebdf1507a)" style="fill: #ffffff; stroke: #000000; stroke-width: 0.4"/>
    <path d="M 192.609146 57.396041 
L 190.109146 62.396041 
L 195.109146 62.396041 
z
" clip-path="url(#p4ebdf1507a)" style="fill: #ffffff; stroke: #000000; stroke-width: 0.4"/>
    <path d="M 190.96019 61.112586 
L 188.46019 66.112586 
L 193.46019 66.112586 
z
" clip-path="url(#p4ebdf1507a)" style="fill: #ffffff; stroke: #000000; stroke-width: 0.4"/>
   </g>
   <g id="PathCollection_20">
    <path d="M 202.950622 84.618294 
L 200.450622 89.618294 
L 205.450622 89.618294 
z
" clip-path="url(#p4ebdf1507a)" style="fill: #ffffff; stroke: #000000; stroke-width: 0.4"/>
    <path d="M 202.721998 79.468655 
L 200.221998 84.468655 
L 205.221998 84.468655 
z
" clip-path="url(#p4ebdf1507a)" style="fill: #ffffff; stroke: #000000; stroke-width: 0.4"/>
    <path d="M 204.905845 79.097167 
L 202.405845 84.097167 
L 207.405845 84.097167 
z
" clip-path="url(#p4ebdf1507a)" style="fill: #ffffff; stroke: #000000; stroke-width: 0.4"/>
   </g>
   <g id="PathCollection_21">
    <path d="M 69.113069 38.09122 
L 74.113069 38.09122 
L 74.113069 33.09122 
L 69.113069 33.09122 
z
" clip-path="url(#p4ebdf1507a)" style="fill: #ffffff; stroke: #000000; stroke-width: 0.4"/>
    <path d="M 68.746865 40.699523 
L 73.746865 40.699523 
L 73.746865 35.699523 
L 68.746865 35.699523 
z
" clip-path="url(#p4ebdf1507a)" style="fill: #ffffff; stroke: #000000; stroke-width: 0.4"/>
    <path d="M 70.29042 42.513688 
L 75.29042 42.513688 
L 75.29042 37.513688 
L 70.29042 37.513688 
z
" clip-path="url(#p4ebdf1507a)" style="fill: #ffffff; stroke: #000000; stroke-width: 0.4"/>
   </g>
   <g id="PathCollection_22">
    <path d="M 82.341392 73.603497 
L 87.341392 73.603497 
L 87.341392 68.603497 
L 82.341392 68.603497 
z
" clip-path="url(#p4ebdf1507a)" style="fill: #ffffff; stroke: #000000; stroke-width: 0.4"/>
    <path d="M 82.960172 71.931615 
L 87.960172 71.931615 
L 87.960172 66.931615 
L 82.960172 66.931615 
z
" clip-path="url(#p4ebdf1507a)" style="fill: #ffffff; stroke: #000000; stroke-width: 0.4"/>
    <path d="M 81.776736 73.37469 
L 86.776736 73.37469 
L 86.776736 68.37469 
L 81.776736 68.37469 
z
" clip-path="url(#p4ebdf1507a)" style="fill: #ffffff; stroke: #000000; stroke-width: 0.4"/>
   </g>
   <g id="PathCollection_23">
    <path d="M 94.48714 98.743176 
L 99.48714 98.743176 
L 99.48714 93.743176 
L 94.48714 93.743176 
z
" clip-path="url(#p4ebdf1507a)" style="fill: #ffffff; stroke: #000000; stroke-width: 0.4"/>
    <path d="M 96.016902 102.086031 
L 101.016902 102.086031 
L 101.016902 97.086031 
L 96.016902 97.086031 
z
" clip-path="url(#p4ebdf1507a)" style="fill: #ffffff; stroke: #000000; stroke-width: 0.4"/>
    <path d="M 94.61361 101.89297 
L 99.61361 101.89297 
L 99.61361 96.89297 
L 94.61361 96.89297 
z
" clip-path="url(#p4ebdf1507a)" style="fill: #ffffff; stroke: #000000; stroke-width: 0.4"/>
   </g>
   <g id="PathCollection_24">
    <path d="M 106.669494 106.752573 
L 111.669494 106.752573 
L 111.669494 101.752573 
L 106.669494 101.752573 
z
" clip-path="url(#p4ebdf1507a)" style="fill: #ffffff; stroke: #000000; stroke-width: 0.4"/>
    <path d="M 106.672564 107.039984 
L 111.672564 107.039984 
L 111.672564 102.039984 
L 106.672564 102.039984 
z
" clip-path="url(#p4ebdf1507a)" style="fill: #ffffff; stroke: #000000; stroke-width: 0.4"/>
    <path d="M 106.393311 112.269361 
L 111.393311 112.269361 
L 111.393311 107.269361 
L 106.393311 107.269361 
z
" clip-path="url(#p4ebdf1507a)" style="fill: #ffffff; stroke: #000000; stroke-width: 0.4"/>
   </g>
   <g id="PathCollection_25">
    <path d="M 119.775239 108.750166 
L 124.775239 108.750166 
L 124.775239 103.750166 
L 119.775239 103.750166 
z
" clip-path="url(#p4ebdf1507a)" style="fill: #ffffff; stroke: #000000; stroke-width: 0.4"/>
    <path d="M 120.185379 115.569764 
L 125.185379 115.569764 
L 125.185379 110.569764 
L 120.185379 110.569764 
z
" clip-path="url(#p4ebdf1507a)" style="fill: #ffffff; stroke: #000000; stroke-width: 0.4"/>
    <path d="M 119.729768 117.035383 
L 124.729768 117.035383 
L 124.729768 112.035383 
L 119.729768 112.035383 
z
" clip-path="url(#p4ebdf1507a)" style="fill: #ffffff; stroke: #000000; stroke-width: 0.4"/>
   </g>
   <g id="PathCollection_26">
    <path d="M 148.363001 90.34147 
L 153.363001 90.34147 
L 153.363001 85.34147 
L 148.363001 85.34147 
z
" clip-path="url(#p4ebdf1507a)" style="fill: #ffffff; stroke: #000000; stroke-width: 0.4"/>
    <path d="M 150.724429 96.706344 
L 155.724429 96.706344 
L 155.724429 91.706344 
L 150.724429 91.706344 
z
" clip-path="url(#p4ebdf1507a)" style="fill: #ffffff; stroke: #000000; stroke-width: 0.4"/>
    <path d="M 151.534913 93.664399 
L 156.534913 93.664399 
L 156.534913 88.664399 
L 151.534913 88.664399 
z
" clip-path="url(#p4ebdf1507a)" style="fill: #ffffff; stroke: #000000; stroke-width: 0.4"/>
   </g>
   <g id="PathCollection_27">
    <path d="M 162.812711 101.034006 
L 167.812711 101.034006 
L 167.812711 96.034006 
L 162.812711 96.034006 
z
" clip-path="url(#p4ebdf1507a)" style="fill: #ffffff; stroke: #000000; stroke-width: 0.4"/>
    <path d="M 162.198856 106.006649 
L 167.198856 106.006649 
L 167.198856 101.006649 
L 162.198856 101.006649 
z
" clip-path="url(#p4ebdf1507a)" style="fill: #ffffff; stroke: #000000; stroke-width: 0.4"/>
    <path d="M 163.051461 106.350735 
L 168.051461 106.350735 
L 168.051461 101.350735 
L 163.051461 101.350735 
z
" clip-path="url(#p4ebdf1507a)" style="fill: #ffffff; stroke: #000000; stroke-width: 0.4"/>
   </g>
   <g id="PathCollection_28">
    <path d="M 177.037734 81.312402 
L 182.037734 81.312402 
L 182.037734 76.312402 
L 177.037734 76.312402 
z
" clip-path="url(#p4ebdf1507a)" style="fill: #ffffff; stroke: #000000; stroke-width: 0.4"/>
    <path d="M 177.369759 85.912152 
L 182.369759 85.912152 
L 182.369759 80.912152 
L 177.369759 80.912152 
z
" clip-path="url(#p4ebdf1507a)" style="fill: #ffffff; stroke: #000000; stroke-width: 0.4"/>
    <path d="M 175.061569 89.237239 
L 180.061569 89.237239 
L 180.061569 84.237239 
L 175.061569 84.237239 
z
" clip-path="url(#p4ebdf1507a)" style="fill: #ffffff; stroke: #000000; stroke-width: 0.4"/>
   </g>
   <g id="PathCollection_29">
    <path d="M 189.997421 94.472238 
L 194.997421 94.472238 
L 194.997421 89.472238 
L 189.997421 89.472238 
z
" clip-path="url(#p4ebdf1507a)" style="fill: #ffffff; stroke: #000000; stroke-width: 0.4"/>
    <path d="M 187.286756 101.548321 
L 192.286756 101.548321 
L 192.286756 96.548321 
L 187.286756 96.548321 
z
" clip-path="url(#p4ebdf1507a)" style="fill: #ffffff; stroke: #000000; stroke-width: 0.4"/>
    <path d="M 187.48596 87.18765 
L 192.48596 87.18765 
L 192.48596 82.18765 
L 187.48596 82.18765 
z
" clip-path="url(#p4ebdf1507a)" style="fill: #ffffff; stroke: #000000; stroke-width: 0.4"/>
   </g>
   <g id="PathCollection_30">
    <path d="M 202.604392 107.959484 
L 207.604392 107.959484 
L 207.604392 102.959484 
L 202.604392 102.959484 
z
" clip-path="url(#p4ebdf1507a)" style="fill: #ffffff; stroke: #000000; stroke-width: 0.4"/>
    <path d="M 202.675464 107.39408 
L 207.675464 107.39408 
L 207.675464 102.39408 
L 202.675464 102.39408 
z
" clip-path="url(#p4ebdf1507a)" style="fill: #ffffff; stroke: #000000; stroke-width: 0.4"/>
    <path d="M 202.98286 104.422417 
L 207.98286 104.422417 
L 207.98286 99.422417 
L 202.98286 99.422417 
z
" clip-path="url(#p4ebdf1507a)" style="fill: #ffffff; stroke: #000000; stroke-width: 0.4"/>
   </g>
   <g id="PathCollection_31">
    <path d="M 72.948478 45.864406 
L 76.484012 42.328872 
L 72.948478 38.793338 
L 69.412944 42.328872 
z
" clip-path="url(#p4ebdf1507a)" style="fill: #ffffff; stroke: #000000; stroke-width: 0.4"/>
    <path d="M 71.503925 45.007793 
L 75.039459 41.472259 
L 71.503925 37.936725 
L 67.968391 41.472259 
z
" clip-path="url(#p4ebdf1507a)" style="fill: #ffffff; stroke: #000000; stroke-width: 0.4"/>
    <path d="M 72.435251 42.361892 
L 75.970785 38.826358 
L 72.435251 35.290824 
L 68.899717 38.826358 
z
" clip-path="url(#p4ebdf1507a)" style="fill: #ffffff; stroke: #000000; stroke-width: 0.4"/>
   </g>
   <g id="PathCollection_32">
    <path d="M 85.72655 66.021569 
L 89.262084 62.486035 
L 85.72655 58.950501 
L 82.191016 62.486035 
z
" clip-path="url(#p4ebdf1507a)" style="fill: #ffffff; stroke: #000000; stroke-width: 0.4"/>
    <path d="M 84.469936 66.602937 
L 88.00547 63.067403 
L 84.469936 59.531869 
L 80.934402 63.067403 
z
" clip-path="url(#p4ebdf1507a)" style="fill: #ffffff; stroke: #000000; stroke-width: 0.4"/>
    <path d="M 83.674338 75.812545 
L 87.209872 72.277011 
L 83.674338 68.741478 
L 80.138804 72.277011 
z
" clip-path="url(#p4ebdf1507a)" style="fill: #ffffff; stroke: #000000; stroke-width: 0.4"/>
   </g>
   <g id="PathCollection_33">
    <path d="M 97.300182 92.918239 
L 100.835716 89.382705 
L 97.300182 85.847171 
L 93.764648 89.382705 
z
" clip-path="url(#p4ebdf1507a)" style="fill: #ffffff; stroke: #000000; stroke-width: 0.4"/>
    <path d="M 96.682794 93.1704 
L 100.218328 89.634866 
L 96.682794 86.099332 
L 93.14726 89.634866 
z
" clip-path="url(#p4ebdf1507a)" style="fill: #ffffff; stroke: #000000; stroke-width: 0.4"/>
    <path d="M 98.372394 95.809854 
L 101.907928 92.27432 
L 98.372394 88.738786 
L 94.83686 92.27432 
z
" clip-path="url(#p4ebdf1507a)" style="fill: #ffffff; stroke: #000000; stroke-width: 0.4"/>
   </g>
   <g id="PathCollection_34">
    <path d="M 111.821888 99.013365 
L 115.357422 95.477831 
L 111.821888 91.942297 
L 108.286354 95.477831 
z
" clip-path="url(#p4ebdf1507a)" style="fill: #ffffff; stroke: #000000; stroke-width: 0.4"/>
    <path d="M 109.098933 103.778609 
L 112.634467 100.243075 
L 109.098933 96.707541 
L 105.563399 100.243075 
z
" clip-path="url(#p4ebdf1507a)" style="fill: #ffffff; stroke: #000000; stroke-width: 0.4"/>
    <path d="M 111.581141 105.251456 
L 115.116674 101.715922 
L 111.581141 98.180388 
L 108.045607 101.715922 
z
" clip-path="url(#p4ebdf1507a)" style="fill: #ffffff; stroke: #000000; stroke-width: 0.4"/>
   </g>
   <g id="PathCollection_35">
    <path d="M 123.042761 103.319847 
L 126.578295 99.784313 
L 123.042761 96.24878 
L 119.507227 99.784313 
z
" clip-path="url(#p4ebdf1507a)" style="fill: #ffffff; stroke: #000000; stroke-width: 0.4"/>
    <path d="M 122.999499 106.600648 
L 126.535033 103.065114 
L 122.999499 99.52958 
L 119.463965 103.065114 
z
" clip-path="url(#p4ebdf1507a)" style="fill: #ffffff; stroke: #000000; stroke-width: 0.4"/>
    <path d="M 124.594968 111.436207 
L 128.130502 107.900673 
L 124.594968 104.36514 
L 121.059434 107.900673 
z
" clip-path="url(#p4ebdf1507a)" style="fill: #ffffff; stroke: #000000; stroke-width: 0.4"/>
   </g>
   <g id="PathCollection_36">
    <path d="M 152.536103 84.432831 
L 156.071637 80.897298 
L 152.536103 77.361764 
L 149.000569 80.897298 
z
" clip-path="url(#p4ebdf1507a)" style="fill: #ffffff; stroke: #000000; stroke-width: 0.4"/>
    <path d="M 153.107281 92.607766 
L 156.642815 89.072232 
L 153.107281 85.536698 
L 149.571747 89.072232 
z
" clip-path="url(#p4ebdf1507a)" style="fill: #ffffff; stroke: #000000; stroke-width: 0.4"/>
    <path d="M 153.756366 88.696189 
L 157.291899 85.160655 
L 153.756366 81.625121 
L 150.220832 85.160655 
z
" clip-path="url(#p4ebdf1507a)" style="fill: #ffffff; stroke: #000000; stroke-width: 0.4"/>
   </g>
   <g id="PathCollection_37">
    <path d="M 164.240823 108.996008 
L 167.776357 105.460474 
L 164.240823 101.92494 
L 160.705289 105.460474 
z
" clip-path="url(#p4ebdf1507a)" style="fill: #ffffff; stroke: #000000; stroke-width: 0.4"/>
    <path d="M 166.753267 112.125936 
L 170.288801 108.590402 
L 166.753267 105.054868 
L 163.217733 108.590402 
z
" clip-path="url(#p4ebdf1507a)" style="fill: #ffffff; stroke: #000000; stroke-width: 0.4"/>
    <path d="M 165.098367 113.911923 
L 168.633901 110.376389 
L 165.098367 106.840855 
L 161.562833 110.376389 
z
" clip-path="url(#p4ebdf1507a)" style="fill: #ffffff; stroke: #000000; stroke-width: 0.4"/>
   </g>
   <g id="PathCollection_38">
    <path d="M 178.536945 87.103277 
L 182.072479 83.567743 
L 178.536945 80.032209 
L 175.001411 83.567743 
z
" clip-path="url(#p4ebdf1507a)" style="fill: #ffffff; stroke: #000000; stroke-width: 0.4"/>
    <path d="M 178.268627 88.605802 
L 181.804161 85.070268 
L 178.268627 81.534734 
L 174.733094 85.070268 
z
" clip-path="url(#p4ebdf1507a)" style="fill: #ffffff; stroke: #000000; stroke-width: 0.4"/>
    <path d="M 179.398752 88.341528 
L 182.934286 84.805995 
L 179.398752 81.270461 
L 175.863218 84.805995 
z
" clip-path="url(#p4ebdf1507a)" style="fill: #ffffff; stroke: #000000; stroke-width: 0.4"/>
   </g>
   <g id="PathCollection_39">
    <path d="M 192.373594 100.94005 
L 195.909128 97.404517 
L 192.373594 93.868983 
L 188.83806 97.404517 
z
" clip-path="url(#p4ebdf1507a)" style="fill: #ffffff; stroke: #000000; stroke-width: 0.4"/>
    <path d="M 191.423621 99.119347 
L 194.959155 95.583813 
L 191.423621 92.048279 
L 187.888087 95.583813 
z
" clip-path="url(#p4ebdf1507a)" style="fill: #ffffff; stroke: #000000; stroke-width: 0.4"/>
    <path d="M 189.833909 89.95271 
L 193.369443 86.417176 
L 189.833909 82.881642 
L 186.298375 86.417176 
z
" clip-path="url(#p4ebdf1507a)" style="fill: #ffffff; stroke: #000000; stroke-width: 0.4"/>
   </g>
   <g id="PathCollection_40">
    <path d="M 205.455233 103.424922 
L 208.990767 99.889388 
L 205.455233 96.353854 
L 201.919699 99.889388 
z
" clip-path="url(#p4ebdf1507a)" style="fill: #ffffff; stroke: #000000; stroke-width: 0.4"/>
    <path d="M 203.825757 104.010652 
L 207.36129 100.475119 
L 203.825757 96.939585 
L 200.290223 100.475119 
z
" clip-path="url(#p4ebdf1507a)" style="fill: #ffffff; stroke: #000000; stroke-width: 0.4"/>
    <path d="M 204.800565 101.559031 
L 208.336099 98.023497 
L 204.800565 94.487963 
L 201.265031 98.023497 
z
" clip-path="url(#p4ebdf1507a)" style="fill: #ffffff; stroke: #000000; stroke-width: 0.4"/>
   </g>
   <g id="legend_1">
    <g id="patch_17">
     <path d="M 231.387562 19.473594 
L 253.387562 19.473594 
L 253.387562 11.773594 
L 231.387562 11.773594 
z
" style="fill: #4b4279; opacity: 0.8; stroke: #ffffff; stroke-linejoin: miter"/>
    </g>
    <g id="text_9">
     <!-- 0 uM -->
     <g style="fill: #262626" transform="translate(262.187562 19.473594) scale(0.11 -0.11)">
      <defs>
       <path id="ArialMT-75" d="M 2597 0 
L 2597 488 
Q 2209 -75 1544 -75 
Q 1250 -75 995 37 
Q 741 150 617 320 
Q 494 491 444 738 
Q 409 903 409 1263 
L 409 3319 
L 972 3319 
L 972 1478 
Q 972 1038 1006 884 
Q 1059 663 1231 536 
Q 1403 409 1656 409 
Q 1909 409 2131 539 
Q 2353 669 2445 892 
Q 2538 1116 2538 1541 
L 2538 3319 
L 3100 3319 
L 3100 0 
L 2597 0 
z
" transform="scale(0.015625)"/>
      </defs>
      <use xlink:href="#ArialMT-30"/>
      <use xlink:href="#ArialMT-20" transform="translate(55.615234 0)"/>
      <use xlink:href="#ArialMT-75" transform="translate(83.398438 0)"/>
      <use xlink:href="#ArialMT-4d" transform="translate(139.013672 0)"/>
     </g>
    </g>
    <g id="patch_18">
     <path d="M 231.387562 35.033437 
L 253.387562 35.033437 
L 253.387562 27.333437 
L 231.387562 27.333437 
z
" style="fill: #3c6682; opacity: 0.8; stroke: #ffffff; stroke-linejoin: miter"/>
    </g>
    <g id="text_10">
     <!-- 0.1 uM -->
     <g style="fill: #262626" transform="translate(262.187562 35.033437) scale(0.11 -0.11)">
      <defs>
       <path id="ArialMT-2e" d="M 581 0 
L 581 641 
L 1222 641 
L 1222 0 
L 581 0 
z
" transform="scale(0.015625)"/>
       <path id="ArialMT-31" d="M 2384 0 
L 1822 0 
L 1822 3584 
Q 1619 3391 1289 3197 
Q 959 3003 697 2906 
L 697 3450 
Q 1169 3672 1522 3987 
Q 1875 4303 2022 4600 
L 2384 4600 
L 2384 0 
z
" transform="scale(0.015625)"/>
      </defs>
      <use xlink:href="#ArialMT-30"/>
      <use xlink:href="#ArialMT-2e" transform="translate(55.615234 0)"/>
      <use xlink:href="#ArialMT-31" transform="translate(83.398438 0)"/>
      <use xlink:href="#ArialMT-20" transform="translate(139.013672 0)"/>
      <use xlink:href="#ArialMT-75" transform="translate(166.796875 0)"/>
      <use xlink:href="#ArialMT-4d" transform="translate(222.412109 0)"/>
     </g>
    </g>
    <g id="patch_19">
     <path d="M 231.387562 50.593281 
L 253.387562 50.593281 
L 253.387562 42.893281 
L 231.387562 42.893281 
z
" style="fill: #2f837f; opacity: 0.8; stroke: #ffffff; stroke-linejoin: miter"/>
    </g>
    <g id="text_11">
     <!-- 0.5 uM -->
     <g style="fill: #262626" transform="translate(262.187562 50.593281) scale(0.11 -0.11)">
      <defs>
       <path id="ArialMT-35" d="M 266 1200 
L 856 1250 
Q 922 819 1161 601 
Q 1400 384 1738 384 
Q 2144 384 2425 690 
Q 2706 997 2706 1503 
Q 2706 1984 2436 2262 
Q 2166 2541 1728 2541 
Q 1456 2541 1237 2417 
Q 1019 2294 894 2097 
L 366 2166 
L 809 4519 
L 3088 4519 
L 3088 3981 
L 1259 3981 
L 1013 2750 
Q 1425 3038 1878 3038 
Q 2478 3038 2890 2622 
Q 3303 2206 3303 1553 
Q 3303 931 2941 478 
Q 2500 -78 1738 -78 
Q 1113 -78 717 272 
Q 322 622 266 1200 
z
" transform="scale(0.015625)"/>
      </defs>
      <use xlink:href="#ArialMT-30"/>
      <use xlink:href="#ArialMT-2e" transform="translate(55.615234 0)"/>
      <use xlink:href="#ArialMT-35" transform="translate(83.398438 0)"/>
      <use xlink:href="#ArialMT-20" transform="translate(139.013672 0)"/>
      <use xlink:href="#ArialMT-75" transform="translate(166.796875 0)"/>
      <use xlink:href="#ArialMT-4d" transform="translate(222.412109 0)"/>
     </g>
    </g>
    <g id="patch_20">
     <path d="M 231.387562 66.153125 
L 253.387562 66.153125 
L 253.387562 58.453125 
L 231.387562 58.453125 
z
" style="fill: #45a778; opacity: 0.8; stroke: #ffffff; stroke-linejoin: miter"/>
    </g>
    <g id="text_12">
     <!-- 1 uM -->
     <g style="fill: #262626" transform="translate(262.187562 66.153125) scale(0.11 -0.11)">
      <use xlink:href="#ArialMT-31"/>
      <use xlink:href="#ArialMT-20" transform="translate(55.615234 0)"/>
      <use xlink:href="#ArialMT-75" transform="translate(83.398438 0)"/>
      <use xlink:href="#ArialMT-4d" transform="translate(139.013672 0)"/>
     </g>
    </g>
    <g id="patch_21">
     <path d="M 231.387562 81.712969 
L 253.387562 81.712969 
L 253.387562 74.012969 
L 231.387562 74.012969 
z
" style="fill: #8fc456; opacity: 0.8; stroke: #ffffff; stroke-linejoin: miter"/>
    </g>
    <g id="text_13">
     <!-- 2 uM -->
     <g style="fill: #262626" transform="translate(262.187562 81.712969) scale(0.11 -0.11)">
      <use xlink:href="#ArialMT-32"/>
      <use xlink:href="#ArialMT-20" transform="translate(55.615234 0)"/>
      <use xlink:href="#ArialMT-75" transform="translate(83.398438 0)"/>
      <use xlink:href="#ArialMT-4d" transform="translate(139.013672 0)"/>
     </g>
    </g>
   </g>
  </g>
 </g>
 <defs>
  <clipPath id="p4ebdf1507a">
   <rect x="56.887563" y="7.2" width="162" height="117"/>
  </clipPath>
 </defs>
</svg>
