<?xml version="1.0" encoding="utf-8" standalone="no"?>
<!DOCTYPE svg PUBLIC "-//W3C//DTD SVG 1.1//EN"
  "http://www.w3.org/Graphics/SVG/1.1/DTD/svg11.dtd">
<svg xmlns:xlink="http://www.w3.org/1999/xlink" width="300.220937pt" height="150.959844pt" viewBox="0 0 300.220937 150.959844" xmlns="http://www.w3.org/2000/svg" version="1.1">
 <metadata>
  <rdf:RDF xmlns:dc="http://purl.org/dc/elements/1.1/" xmlns:cc="http://creativecommons.org/ns#" xmlns:rdf="http://www.w3.org/1999/02/22-rdf-syntax-ns#">
   <cc:Work>
    <dc:type rdf:resource="http://purl.org/dc/dcmitype/StillImage"/>
    <dc:date>2025-07-28T16:16:20.848696</dc:date>
    <dc:format>image/svg+xml</dc:format>
    <dc:creator>
     <cc:Agent>
      <dc:title>Matplotlib v3.10.3, https://matplotlib.org/</dc:title>
     </cc:Agent>
    </dc:creator>
   </cc:Work>
  </rdf:RDF>
 </metadata>
 <defs>
  <style type="text/css">*{stroke-linejoin: round; stroke-linecap: butt}</style>
 </defs>
 <g id="figure_1">
  <g id="patch_1">
   <path d="M 0 150.959844 
L 300.220937 150.959844 
L 300.220937 0 
L 0 0 
z
" style="fill: #ffffff"/>
  </g>
  <g id="axes_1">
   <g id="patch_2">
    <path d="M 49.695312 124.2 
L 211.695312 124.2 
L 211.695312 7.2 
L 49.695312 7.2 
z
" style="fill: #ffffff"/>
   </g>
   <g id="matplotlib.axis_1">
    <g id="xtick_1">
     <g id="line2d_1">
      <defs>
       <path id="m989c0edcf5" d="M 0 0 
L 0 6 
" style="stroke: #262626; stroke-width: 1.25"/>
      </defs>
      <g>
       <use xlink:href="#m989c0edcf5" x="90.195312" y="124.2" style="fill: #262626; stroke: #262626; stroke-width: 1.25"/>
      </g>
     </g>
     <g id="text_1">
      <!-- SDDIR -->
      <g style="fill: #262626" transform="translate(73.082578 141.573594) scale(0.11 -0.11)">
       <defs>
        <path id="ArialMT-53" d="M 288 1472 
L 859 1522 
Q 900 1178 1048 958 
Q 1197 738 1509 602 
Q 1822 466 2213 466 
Q 2559 466 2825 569 
Q 3091 672 3220 851 
Q 3350 1031 3350 1244 
Q 3350 1459 3225 1620 
Q 3100 1781 2813 1891 
Q 2628 1963 1997 2114 
Q 1366 2266 1113 2400 
Q 784 2572 623 2826 
Q 463 3081 463 3397 
Q 463 3744 659 4045 
Q 856 4347 1234 4503 
Q 1613 4659 2075 4659 
Q 2584 4659 2973 4495 
Q 3363 4331 3572 4012 
Q 3781 3694 3797 3291 
L 3216 3247 
Q 3169 3681 2898 3903 
Q 2628 4125 2100 4125 
Q 1550 4125 1298 3923 
Q 1047 3722 1047 3438 
Q 1047 3191 1225 3031 
Q 1400 2872 2139 2705 
Q 2878 2538 3153 2413 
Q 3553 2228 3743 1945 
Q 3934 1663 3934 1294 
Q 3934 928 3725 604 
Q 3516 281 3123 101 
Q 2731 -78 2241 -78 
Q 1619 -78 1198 103 
Q 778 284 539 648 
Q 300 1013 288 1472 
z
" transform="scale(0.015625)"/>
        <path id="ArialMT-44" d="M 494 0 
L 494 4581 
L 2072 4581 
Q 2606 4581 2888 4516 
Q 3281 4425 3559 4188 
Q 3922 3881 4101 3404 
Q 4281 2928 4281 2316 
Q 4281 1794 4159 1391 
Q 4038 988 3847 723 
Q 3656 459 3429 307 
Q 3203 156 2883 78 
Q 2563 0 2147 0 
L 494 0 
z
M 1100 541 
L 2078 541 
Q 2531 541 2789 625 
Q 3047 709 3200 863 
Q 3416 1078 3536 1442 
Q 3656 1806 3656 2325 
Q 3656 3044 3420 3430 
Q 3184 3816 2847 3947 
Q 2603 4041 2063 4041 
L 1100 4041 
L 1100 541 
z
" transform="scale(0.015625)"/>
        <path id="ArialMT-49" d="M 597 0 
L 597 4581 
L 1203 4581 
L 1203 0 
L 597 0 
z
" transform="scale(0.015625)"/>
        <path id="ArialMT-52" d="M 503 0 
L 503 4581 
L 2534 4581 
Q 3147 4581 3465 4457 
Q 3784 4334 3975 4021 
Q 4166 3709 4166 3331 
Q 4166 2844 3850 2509 
Q 3534 2175 2875 2084 
Q 3116 1969 3241 1856 
Q 3506 1613 3744 1247 
L 4541 0 
L 3778 0 
L 3172 953 
Q 2906 1366 2734 1584 
Q 2563 1803 2427 1890 
Q 2291 1978 2150 2013 
Q 2047 2034 1813 2034 
L 1109 2034 
L 1109 0 
L 503 0 
z
M 1109 2559 
L 2413 2559 
Q 2828 2559 3062 2645 
Q 3297 2731 3419 2920 
Q 3541 3109 3541 3331 
Q 3541 3656 3305 3865 
Q 3069 4075 2559 4075 
L 1109 4075 
L 1109 2559 
z
" transform="scale(0.015625)"/>
       </defs>
       <use xlink:href="#ArialMT-53"/>
       <use xlink:href="#ArialMT-44" transform="translate(66.699219 0)"/>
       <use xlink:href="#ArialMT-44" transform="translate(138.916016 0)"/>
       <use xlink:href="#ArialMT-49" transform="translate(211.132812 0)"/>
       <use xlink:href="#ArialMT-52" transform="translate(238.916016 0)"/>
      </g>
     </g>
    </g>
    <g id="xtick_2">
     <g id="line2d_2">
      <g>
       <use xlink:href="#m989c0edcf5" x="171.195312" y="124.2" style="fill: #262626; stroke: #262626; stroke-width: 1.25"/>
      </g>
     </g>
     <g id="text_2">
      <!-- RISDD -->
      <g style="fill: #262626" transform="translate(154.082578 141.573594) scale(0.11 -0.11)">
       <use xlink:href="#ArialMT-52"/>
       <use xlink:href="#ArialMT-49" transform="translate(72.216797 0)"/>
       <use xlink:href="#ArialMT-53" transform="translate(100 0)"/>
       <use xlink:href="#ArialMT-44" transform="translate(166.699219 0)"/>
       <use xlink:href="#ArialMT-44" transform="translate(238.916016 0)"/>
      </g>
     </g>
    </g>
   </g>
   <g id="matplotlib.axis_2">
    <g id="ytick_1">
     <g id="line2d_3">
      <defs>
       <path id="mf337eed246" d="M 0 0 
L -6 0 
" style="stroke: #262626; stroke-width: 1.25"/>
      </defs>
      <g>
       <use xlink:href="#mf337eed246" x="49.695312" y="124.2" style="fill: #262626; stroke: #262626; stroke-width: 1.25"/>
      </g>
     </g>
     <g id="text_3">
      <!-- 0 -->
      <g style="fill: #262626" transform="translate(34.078281 128.136797) scale(0.11 -0.11)">
       <defs>
        <path id="ArialMT-30" d="M 266 2259 
Q 266 3072 433 3567 
Q 600 4063 929 4331 
Q 1259 4600 1759 4600 
Q 2128 4600 2406 4451 
Q 2684 4303 2865 4023 
Q 3047 3744 3150 3342 
Q 3253 2941 3253 2259 
Q 3253 1453 3087 958 
Q 2922 463 2592 192 
Q 2263 -78 1759 -78 
Q 1097 -78 719 397 
Q 266 969 266 2259 
z
M 844 2259 
Q 844 1131 1108 757 
Q 1372 384 1759 384 
Q 2147 384 2411 759 
Q 2675 1134 2675 2259 
Q 2675 3391 2411 3762 
Q 2147 4134 1753 4134 
Q 1366 4134 1134 3806 
Q 844 3388 844 2259 
z
" transform="scale(0.015625)"/>
       </defs>
       <use xlink:href="#ArialMT-30"/>
      </g>
     </g>
    </g>
    <g id="ytick_2">
     <g id="line2d_4">
      <g>
       <use xlink:href="#mf337eed246" x="49.695312" y="86.758862" style="fill: #262626; stroke: #262626; stroke-width: 1.25"/>
      </g>
     </g>
     <g id="text_4">
      <!-- 20k -->
      <g style="fill: #262626" transform="translate(22.46125 90.695659) scale(0.11 -0.11)">
       <defs>
        <path id="ArialMT-32" d="M 3222 541 
L 3222 0 
L 194 0 
Q 188 203 259 391 
Q 375 700 629 1000 
Q 884 1300 1366 1694 
Q 2113 2306 2375 2664 
Q 2638 3022 2638 3341 
Q 2638 3675 2398 3904 
Q 2159 4134 1775 4134 
Q 1369 4134 1125 3890 
Q 881 3647 878 3216 
L 300 3275 
Q 359 3922 746 4261 
Q 1134 4600 1788 4600 
Q 2447 4600 2831 4234 
Q 3216 3869 3216 3328 
Q 3216 3053 3103 2787 
Q 2991 2522 2730 2228 
Q 2469 1934 1863 1422 
Q 1356 997 1212 845 
Q 1069 694 975 541 
L 3222 541 
z
" transform="scale(0.015625)"/>
        <path id="ArialMT-6b" d="M 425 0 
L 425 4581 
L 988 4581 
L 988 1969 
L 2319 3319 
L 3047 3319 
L 1778 2088 
L 3175 0 
L 2481 0 
L 1384 1697 
L 988 1316 
L 988 0 
L 425 0 
z
" transform="scale(0.015625)"/>
       </defs>
       <use xlink:href="#ArialMT-32"/>
       <use xlink:href="#ArialMT-30" transform="translate(55.615234 0)"/>
       <use xlink:href="#ArialMT-6b" transform="translate(111.230469 0)"/>
      </g>
     </g>
    </g>
    <g id="ytick_3">
     <g id="line2d_5">
      <g>
       <use xlink:href="#mf337eed246" x="49.695312" y="49.317724" style="fill: #262626; stroke: #262626; stroke-width: 1.25"/>
      </g>
     </g>
     <g id="text_5">
      <!-- 40k -->
      <g style="fill: #262626" transform="translate(22.46125 53.25452) scale(0.11 -0.11)">
       <defs>
        <path id="ArialMT-34" d="M 2069 0 
L 2069 1097 
L 81 1097 
L 81 1613 
L 2172 4581 
L 2631 4581 
L 2631 1613 
L 3250 1613 
L 3250 1097 
L 2631 1097 
L 2631 0 
L 2069 0 
z
M 2069 1613 
L 2069 3678 
L 634 1613 
L 2069 1613 
z
" transform="scale(0.015625)"/>
       </defs>
       <use xlink:href="#ArialMT-34"/>
       <use xlink:href="#ArialMT-30" transform="translate(55.615234 0)"/>
       <use xlink:href="#ArialMT-6b" transform="translate(111.230469 0)"/>
      </g>
     </g>
    </g>
    <g id="ytick_4">
     <g id="line2d_6">
      <g>
       <use xlink:href="#mf337eed246" x="49.695312" y="11.876585" style="fill: #262626; stroke: #262626; stroke-width: 1.25"/>
      </g>
     </g>
     <g id="text_6">
      <!-- 60k -->
      <g style="fill: #262626" transform="translate(22.46125 15.813382) scale(0.11 -0.11)">
       <defs>
        <path id="ArialMT-36" d="M 3184 3459 
L 2625 3416 
Q 2550 3747 2413 3897 
Q 2184 4138 1850 4138 
Q 1581 4138 1378 3988 
Q 1113 3794 959 3422 
Q 806 3050 800 2363 
Q 1003 2672 1297 2822 
Q 1591 2972 1913 2972 
Q 2475 2972 2870 2558 
Q 3266 2144 3266 1488 
Q 3266 1056 3080 686 
Q 2894 316 2569 119 
Q 2244 -78 1831 -78 
Q 1128 -78 684 439 
Q 241 956 241 2144 
Q 241 3472 731 4075 
Q 1159 4600 1884 4600 
Q 2425 4600 2770 4297 
Q 3116 3994 3184 3459 
z
M 888 1484 
Q 888 1194 1011 928 
Q 1134 663 1356 523 
Q 1578 384 1822 384 
Q 2178 384 2434 671 
Q 2691 959 2691 1453 
Q 2691 1928 2437 2201 
Q 2184 2475 1800 2475 
Q 1419 2475 1153 2201 
Q 888 1928 888 1484 
z
" transform="scale(0.015625)"/>
       </defs>
       <use xlink:href="#ArialMT-36"/>
       <use xlink:href="#ArialMT-30" transform="translate(55.615234 0)"/>
       <use xlink:href="#ArialMT-6b" transform="translate(111.230469 0)"/>
      </g>
     </g>
    </g>
    <g id="text_7">
     <!-- (#) Total HyperP -->
     <g style="fill: #262626" transform="translate(15.935625 108.9375) rotate(-90) scale(0.12 -0.12)">
      <defs>
       <path id="ArialMT-28" d="M 1497 -1347 
Q 1031 -759 709 28 
Q 388 816 388 1659 
Q 388 2403 628 3084 
Q 909 3875 1497 4659 
L 1900 4659 
Q 1522 4009 1400 3731 
Q 1209 3300 1100 2831 
Q 966 2247 966 1656 
Q 966 153 1900 -1347 
L 1497 -1347 
z
" transform="scale(0.015625)"/>
       <path id="ArialMT-23" d="M 322 -78 
L 594 1253 
L 66 1253 
L 66 1719 
L 688 1719 
L 919 2853 
L 66 2853 
L 66 3319 
L 1013 3319 
L 1284 4659 
L 1753 4659 
L 1481 3319 
L 2466 3319 
L 2738 4659 
L 3209 4659 
L 2938 3319 
L 3478 3319 
L 3478 2853 
L 2844 2853 
L 2609 1719 
L 3478 1719 
L 3478 1253 
L 2516 1253 
L 2244 -78 
L 1775 -78 
L 2044 1253 
L 1063 1253 
L 791 -78 
L 322 -78 
z
M 1156 1719 
L 2138 1719 
L 2372 2853 
L 1388 2853 
L 1156 1719 
z
" transform="scale(0.015625)"/>
       <path id="ArialMT-29" d="M 791 -1347 
L 388 -1347 
Q 1322 153 1322 1656 
Q 1322 2244 1188 2822 
Q 1081 3291 891 3722 
Q 769 4003 388 4659 
L 791 4659 
Q 1378 3875 1659 3084 
Q 1900 2403 1900 1659 
Q 1900 816 1576 28 
Q 1253 -759 791 -1347 
z
" transform="scale(0.015625)"/>
       <path id="ArialMT-20" transform="scale(0.015625)"/>
       <path id="ArialMT-54" d="M 1659 0 
L 1659 4041 
L 150 4041 
L 150 4581 
L 3781 4581 
L 3781 4041 
L 2266 4041 
L 2266 0 
L 1659 0 
z
" transform="scale(0.015625)"/>
       <path id="ArialMT-6f" d="M 213 1659 
Q 213 2581 725 3025 
Q 1153 3394 1769 3394 
Q 2453 3394 2887 2945 
Q 3322 2497 3322 1706 
Q 3322 1066 3130 698 
Q 2938 331 2570 128 
Q 2203 -75 1769 -75 
Q 1072 -75 642 372 
Q 213 819 213 1659 
z
M 791 1659 
Q 791 1022 1069 705 
Q 1347 388 1769 388 
Q 2188 388 2466 706 
Q 2744 1025 2744 1678 
Q 2744 2294 2464 2611 
Q 2184 2928 1769 2928 
Q 1347 2928 1069 2612 
Q 791 2297 791 1659 
z
" transform="scale(0.015625)"/>
       <path id="ArialMT-74" d="M 1650 503 
L 1731 6 
Q 1494 -44 1306 -44 
Q 1000 -44 831 53 
Q 663 150 594 308 
Q 525 466 525 972 
L 525 2881 
L 113 2881 
L 113 3319 
L 525 3319 
L 525 4141 
L 1084 4478 
L 1084 3319 
L 1650 3319 
L 1650 2881 
L 1084 2881 
L 1084 941 
Q 1084 700 1114 631 
Q 1144 563 1211 522 
Q 1278 481 1403 481 
Q 1497 481 1650 503 
z
" transform="scale(0.015625)"/>
       <path id="ArialMT-61" d="M 2588 409 
Q 2275 144 1986 34 
Q 1697 -75 1366 -75 
Q 819 -75 525 192 
Q 231 459 231 875 
Q 231 1119 342 1320 
Q 453 1522 633 1644 
Q 813 1766 1038 1828 
Q 1203 1872 1538 1913 
Q 2219 1994 2541 2106 
Q 2544 2222 2544 2253 
Q 2544 2597 2384 2738 
Q 2169 2928 1744 2928 
Q 1347 2928 1158 2789 
Q 969 2650 878 2297 
L 328 2372 
Q 403 2725 575 2942 
Q 747 3159 1072 3276 
Q 1397 3394 1825 3394 
Q 2250 3394 2515 3294 
Q 2781 3194 2906 3042 
Q 3031 2891 3081 2659 
Q 3109 2516 3109 2141 
L 3109 1391 
Q 3109 606 3145 398 
Q 3181 191 3288 0 
L 2700 0 
Q 2613 175 2588 409 
z
M 2541 1666 
Q 2234 1541 1622 1453 
Q 1275 1403 1131 1340 
Q 988 1278 909 1158 
Q 831 1038 831 891 
Q 831 666 1001 516 
Q 1172 366 1500 366 
Q 1825 366 2078 508 
Q 2331 650 2450 897 
Q 2541 1088 2541 1459 
L 2541 1666 
z
" transform="scale(0.015625)"/>
       <path id="ArialMT-6c" d="M 409 0 
L 409 4581 
L 972 4581 
L 972 0 
L 409 0 
z
" transform="scale(0.015625)"/>
       <path id="ArialMT-48" d="M 513 0 
L 513 4581 
L 1119 4581 
L 1119 2700 
L 3500 2700 
L 3500 4581 
L 4106 4581 
L 4106 0 
L 3500 0 
L 3500 2159 
L 1119 2159 
L 1119 0 
L 513 0 
z
" transform="scale(0.015625)"/>
       <path id="ArialMT-79" d="M 397 -1278 
L 334 -750 
Q 519 -800 656 -800 
Q 844 -800 956 -737 
Q 1069 -675 1141 -563 
Q 1194 -478 1313 -144 
Q 1328 -97 1363 -6 
L 103 3319 
L 709 3319 
L 1400 1397 
Q 1534 1031 1641 628 
Q 1738 1016 1872 1384 
L 2581 3319 
L 3144 3319 
L 1881 -56 
Q 1678 -603 1566 -809 
Q 1416 -1088 1222 -1217 
Q 1028 -1347 759 -1347 
Q 597 -1347 397 -1278 
z
" transform="scale(0.015625)"/>
       <path id="ArialMT-70" d="M 422 -1272 
L 422 3319 
L 934 3319 
L 934 2888 
Q 1116 3141 1344 3267 
Q 1572 3394 1897 3394 
Q 2322 3394 2647 3175 
Q 2972 2956 3137 2557 
Q 3303 2159 3303 1684 
Q 3303 1175 3120 767 
Q 2938 359 2589 142 
Q 2241 -75 1856 -75 
Q 1575 -75 1351 44 
Q 1128 163 984 344 
L 984 -1272 
L 422 -1272 
z
M 931 1641 
Q 931 1000 1190 694 
Q 1450 388 1819 388 
Q 2194 388 2461 705 
Q 2728 1022 2728 1688 
Q 2728 2322 2467 2637 
Q 2206 2953 1844 2953 
Q 1484 2953 1207 2617 
Q 931 2281 931 1641 
z
" transform="scale(0.015625)"/>
       <path id="ArialMT-65" d="M 2694 1069 
L 3275 997 
Q 3138 488 2766 206 
Q 2394 -75 1816 -75 
Q 1088 -75 661 373 
Q 234 822 234 1631 
Q 234 2469 665 2931 
Q 1097 3394 1784 3394 
Q 2450 3394 2872 2941 
Q 3294 2488 3294 1666 
Q 3294 1616 3291 1516 
L 816 1516 
Q 847 969 1125 678 
Q 1403 388 1819 388 
Q 2128 388 2347 550 
Q 2566 713 2694 1069 
z
M 847 1978 
L 2700 1978 
Q 2663 2397 2488 2606 
Q 2219 2931 1791 2931 
Q 1403 2931 1139 2672 
Q 875 2413 847 1978 
z
" transform="scale(0.015625)"/>
       <path id="ArialMT-72" d="M 416 0 
L 416 3319 
L 922 3319 
L 922 2816 
Q 1116 3169 1280 3281 
Q 1444 3394 1641 3394 
Q 1925 3394 2219 3213 
L 2025 2691 
Q 1819 2813 1613 2813 
Q 1428 2813 1281 2702 
Q 1134 2591 1072 2394 
Q 978 2094 978 1738 
L 978 0 
L 416 0 
z
" transform="scale(0.015625)"/>
       <path id="ArialMT-50" d="M 494 0 
L 494 4581 
L 2222 4581 
Q 2678 4581 2919 4538 
Q 3256 4481 3484 4323 
Q 3713 4166 3852 3881 
Q 3991 3597 3991 3256 
Q 3991 2672 3619 2267 
Q 3247 1863 2275 1863 
L 1100 1863 
L 1100 0 
L 494 0 
z
M 1100 2403 
L 2284 2403 
Q 2872 2403 3119 2622 
Q 3366 2841 3366 3238 
Q 3366 3525 3220 3729 
Q 3075 3934 2838 4000 
Q 2684 4041 2272 4041 
L 1100 4041 
L 1100 2403 
z
" transform="scale(0.015625)"/>
      </defs>
      <use xlink:href="#ArialMT-28"/>
      <use xlink:href="#ArialMT-23" transform="translate(33.300781 0)"/>
      <use xlink:href="#ArialMT-29" transform="translate(88.916016 0)"/>
      <use xlink:href="#ArialMT-20" transform="translate(122.216797 0)"/>
      <use xlink:href="#ArialMT-54" transform="translate(148.25 0)"/>
      <use xlink:href="#ArialMT-6f" transform="translate(198.208984 0)"/>
      <use xlink:href="#ArialMT-74" transform="translate(253.824219 0)"/>
      <use xlink:href="#ArialMT-61" transform="translate(281.607422 0)"/>
      <use xlink:href="#ArialMT-6c" transform="translate(337.222656 0)"/>
      <use xlink:href="#ArialMT-20" transform="translate(359.439453 0)"/>
      <use xlink:href="#ArialMT-48" transform="translate(387.222656 0)"/>
      <use xlink:href="#ArialMT-79" transform="translate(459.439453 0)"/>
      <use xlink:href="#ArialMT-70" transform="translate(509.439453 0)"/>
      <use xlink:href="#ArialMT-65" transform="translate(565.054688 0)"/>
      <use xlink:href="#ArialMT-72" transform="translate(620.669922 0)"/>
      <use xlink:href="#ArialMT-50" transform="translate(653.970703 0)"/>
     </g>
    </g>
   </g>
   <g id="patch_3">
    <path d="M 57.795313 124.2 
L 70.755313 124.2 
L 70.755313 30.125812 
L 57.795313 30.125812 
z
" clip-path="url(#pfc453447c4)" style="fill: #4b4279; opacity: 0.8; stroke: #ffffff; stroke-linejoin: miter"/>
   </g>
   <g id="patch_4">
    <path d="M 138.795312 124.2 
L 151.755313 124.2 
L 151.755313 98.031556 
L 138.795312 98.031556 
z
" clip-path="url(#pfc453447c4)" style="fill: #4b4279; opacity: 0.8; stroke: #ffffff; stroke-linejoin: miter"/>
   </g>
   <g id="patch_5">
    <path d="M 70.755313 124.2 
L 83.715313 124.2 
L 83.715313 63.008908 
L 70.755313 63.008908 
z
" clip-path="url(#pfc453447c4)" style="fill: #3c6682; opacity: 0.8; stroke: #ffffff; stroke-linejoin: miter"/>
   </g>
   <g id="patch_6">
    <path d="M 151.755313 124.2 
L 164.715313 124.2 
L 164.715313 102.180659 
L 151.755313 102.180659 
z
" clip-path="url(#pfc453447c4)" style="fill: #3c6682; opacity: 0.8; stroke: #ffffff; stroke-linejoin: miter"/>
   </g>
   <g id="patch_7">
    <path d="M 83.715312 124.2 
L 96.675312 124.2 
L 96.675312 71.979388 
L 83.715312 71.979388 
z
" clip-path="url(#pfc453447c4)" style="fill: #2f837f; opacity: 0.8; stroke: #ffffff; stroke-linejoin: miter"/>
   </g>
   <g id="patch_8">
    <path d="M 164.715313 124.2 
L 177.675313 124.2 
L 177.675313 110.612819 
L 164.715313 110.612819 
z
" clip-path="url(#pfc453447c4)" style="fill: #2f837f; opacity: 0.8; stroke: #ffffff; stroke-linejoin: miter"/>
   </g>
   <g id="patch_9">
    <path d="M 96.675313 124.2 
L 109.635312 124.2 
L 109.635312 85.665165 
L 96.675313 85.665165 
z
" clip-path="url(#pfc453447c4)" style="fill: #45a778; opacity: 0.8; stroke: #ffffff; stroke-linejoin: miter"/>
   </g>
   <g id="patch_10">
    <path d="M 177.675312 124.2 
L 190.635312 124.2 
L 190.635312 116.136115 
L 177.675312 116.136115 
z
" clip-path="url(#pfc453447c4)" style="fill: #45a778; opacity: 0.8; stroke: #ffffff; stroke-linejoin: miter"/>
   </g>
   <g id="patch_11">
    <path d="M 109.635312 124.2 
L 122.595313 124.2 
L 122.595313 112.15997 
L 109.635312 112.15997 
z
" clip-path="url(#pfc453447c4)" style="fill: #8fc456; opacity: 0.8; stroke: #ffffff; stroke-linejoin: miter"/>
   </g>
   <g id="patch_12">
    <path d="M 190.635312 124.2 
L 203.595312 124.2 
L 203.595312 120.06213 
L 190.635312 120.06213 
z
" clip-path="url(#pfc453447c4)" style="fill: #8fc456; opacity: 0.8; stroke: #ffffff; stroke-linejoin: miter"/>
   </g>
   <g id="line2d_7">
    <path d="M 64.275312 35.20841 
L 64.275312 24.669057 
" clip-path="url(#pfc453447c4)" style="fill: none; stroke: #424242; stroke-width: 2.7; stroke-linecap: round"/>
   </g>
   <g id="line2d_8">
    <path d="M 145.275312 105.418963 
L 145.275312 88.826533 
" clip-path="url(#pfc453447c4)" style="fill: none; stroke: #424242; stroke-width: 2.7; stroke-linecap: round"/>
   </g>
   <g id="line2d_9">
    <path d="M 77.235312 85.843748 
L 77.235312 43.382799 
" clip-path="url(#pfc453447c4)" style="fill: none; stroke: #424242; stroke-width: 2.7; stroke-linecap: round"/>
   </g>
   <g id="line2d_10">
    <path d="M 158.235312 110.803753 
L 158.235312 93.115436 
" clip-path="url(#pfc453447c4)" style="fill: none; stroke: #424242; stroke-width: 2.7; stroke-linecap: round"/>
   </g>
   <g id="line2d_11">
    <path d="M 90.195312 78.954974 
L 90.195312 65.252386 
" clip-path="url(#pfc453447c4)" style="fill: none; stroke: #424242; stroke-width: 2.7; stroke-linecap: round"/>
   </g>
   <g id="line2d_12">
    <path d="M 171.195312 116.799754 
L 171.195312 102.693061 
" clip-path="url(#pfc453447c4)" style="fill: none; stroke: #424242; stroke-width: 2.7; stroke-linecap: round"/>
   </g>
   <g id="line2d_13">
    <path d="M 103.155312 91.487839 
L 103.155312 80.18088 
" clip-path="url(#pfc453447c4)" style="fill: none; stroke: #424242; stroke-width: 2.7; stroke-linecap: round"/>
   </g>
   <g id="line2d_14">
    <path d="M 184.155312 121.245941 
L 184.155312 109.681409 
" clip-path="url(#pfc453447c4)" style="fill: none; stroke: #424242; stroke-width: 2.7; stroke-linecap: round"/>
   </g>
   <g id="line2d_15">
    <path d="M 116.115313 118.281596 
L 116.115313 104.889307 
" clip-path="url(#pfc453447c4)" style="fill: none; stroke: #424242; stroke-width: 2.7; stroke-linecap: round"/>
   </g>
   <g id="line2d_16">
    <path d="M 197.115313 122.79096 
L 197.115313 116.455129 
" clip-path="url(#pfc453447c4)" style="fill: none; stroke: #424242; stroke-width: 2.7; stroke-linecap: round"/>
   </g>
   <g id="patch_13">
    <path d="M 49.695312 124.2 
L 49.695312 7.2 
" style="fill: none; stroke: #262626; stroke-width: 1.25; stroke-linejoin: miter; stroke-linecap: square"/>
   </g>
   <g id="patch_14">
    <path d="M 211.695312 124.2 
L 211.695312 7.2 
" style="fill: none; stroke: #262626; stroke-width: 1.25; stroke-linejoin: miter; stroke-linecap: square"/>
   </g>
   <g id="patch_15">
    <path d="M 49.695312 124.2 
L 211.695312 124.2 
" style="fill: none; stroke: #262626; stroke-width: 1.25; stroke-linejoin: miter; stroke-linecap: square"/>
   </g>
   <g id="patch_16">
    <path d="M 49.695312 7.2 
L 211.695312 7.2 
" style="fill: none; stroke: #262626; stroke-width: 1.25; stroke-linejoin: miter; stroke-linecap: square"/>
   </g>
   <g id="PathCollection_1">
    <defs>
     <path id="C0_0_df07d6d5c3" d="M 0 2.5 
C 0.663008 2.5 1.29895 2.236584 1.767767 1.767767 
C 2.236584 1.29895 2.5 0.663008 2.5 -0 
C 2.5 -0.663008 2.236584 -1.29895 1.767767 -1.767767 
C 1.29895 -2.236584 0.663008 -2.5 0 -2.5 
C -0.663008 -2.5 -1.29895 -2.236584 -1.767767 -1.767767 
C -2.236584 -1.29895 -2.5 -0.663008 -2.5 0 
C -2.5 0.663008 -2.236584 1.29895 -1.767767 1.767767 
C -1.29895 2.236584 -0.663008 2.5 0 2.5 
z
"/>
    </defs>
    <g clip-path="url(#pfc453447c4)">
     <use xlink:href="#C0_0_df07d6d5c3" x="63.954793" y="30.816185" style="fill: #ffffff; stroke: #000000; stroke-width: 0.4"/>
    </g>
    <g clip-path="url(#pfc453447c4)">
     <use xlink:href="#C0_0_df07d6d5c3" x="64.088318" y="38.746218" style="fill: #ffffff; stroke: #000000; stroke-width: 0.4"/>
    </g>
    <g clip-path="url(#pfc453447c4)">
     <use xlink:href="#C0_0_df07d6d5c3" x="65.694958" y="37.261677" style="fill: #ffffff; stroke: #000000; stroke-width: 0.4"/>
    </g>
   </g>
   <g id="PathCollection_2">
    <defs>
     <path id="C1_0_80204b3a24" d="M 0 2.5 
C 0.663008 2.5 1.29895 2.236584 1.767767 1.767767 
C 2.236584 1.29895 2.5 0.663008 2.5 -0 
C 2.5 -0.663008 2.236584 -1.29895 1.767767 -1.767767 
C 1.29895 -2.236584 0.663008 -2.5 0 -2.5 
C -0.663008 -2.5 -1.29895 -2.236584 -1.767767 -1.767767 
C -2.236584 -1.29895 -2.5 -0.663008 -2.5 0 
C -2.5 0.663008 -2.236584 1.29895 -1.767767 1.767767 
C -1.29895 2.236584 -0.663008 2.5 0 2.5 
z
"/>
    </defs>
    <g clip-path="url(#pfc453447c4)">
     <use xlink:href="#C1_0_80204b3a24" x="78.323193" y="79.437247" style="fill: #ffffff; stroke: #000000; stroke-width: 0.4"/>
    </g>
    <g clip-path="url(#pfc453447c4)">
     <use xlink:href="#C1_0_80204b3a24" x="76.514371" y="59.200312" style="fill: #ffffff; stroke: #000000; stroke-width: 0.4"/>
    </g>
    <g clip-path="url(#pfc453447c4)">
     <use xlink:href="#C1_0_80204b3a24" x="75.710187" y="71.583968" style="fill: #ffffff; stroke: #000000; stroke-width: 0.4"/>
    </g>
   </g>
   <g id="PathCollection_3">
    <defs>
     <path id="C2_0_3a9d0d35a5" d="M 0 2.5 
C 0.663008 2.5 1.29895 2.236584 1.767767 1.767767 
C 2.236584 1.29895 2.5 0.663008 2.5 -0 
C 2.5 -0.663008 2.236584 -1.29895 1.767767 -1.767767 
C 1.29895 -2.236584 0.663008 -2.5 0 -2.5 
C -0.663008 -2.5 -1.29895 -2.236584 -1.767767 -1.767767 
C -2.236584 -1.29895 -2.5 -0.663008 -2.5 0 
C -2.5 0.663008 -2.236584 1.29895 -1.767767 1.767767 
C -1.29895 2.236584 -0.663008 2.5 0 2.5 
z
"/>
    </defs>
    <g clip-path="url(#pfc453447c4)">
     <use xlink:href="#C2_0_3a9d0d35a5" x="90.699527" y="80.910556" style="fill: #ffffff; stroke: #000000; stroke-width: 0.4"/>
    </g>
    <g clip-path="url(#pfc453447c4)">
     <use xlink:href="#C2_0_3a9d0d35a5" x="89.315188" y="90.383164" style="fill: #ffffff; stroke: #000000; stroke-width: 0.4"/>
    </g>
    <g clip-path="url(#pfc453447c4)">
     <use xlink:href="#C2_0_3a9d0d35a5" x="88.966646" y="83.649375" style="fill: #ffffff; stroke: #000000; stroke-width: 0.4"/>
    </g>
   </g>
   <g id="PathCollection_4">
    <defs>
     <path id="C3_0_2dee876f83" d="M 0 2.5 
C 0.663008 2.5 1.29895 2.236584 1.767767 1.767767 
C 2.236584 1.29895 2.5 0.663008 2.5 -0 
C 2.5 -0.663008 2.236584 -1.29895 1.767767 -1.767767 
C 1.29895 -2.236584 0.663008 -2.5 0 -2.5 
C -0.663008 -2.5 -1.29895 -2.236584 -1.767767 -1.767767 
C -2.236584 -1.29895 -2.5 -0.663008 -2.5 0 
C -2.5 0.663008 -2.236584 1.29895 -1.767767 1.767767 
C -1.29895 2.236584 -0.663008 2.5 0 2.5 
z
"/>
    </defs>
    <g clip-path="url(#pfc453447c4)">
     <use xlink:href="#C3_0_2dee876f83" x="104.083094" y="85.30989" style="fill: #ffffff; stroke: #000000; stroke-width: 0.4"/>
    </g>
    <g clip-path="url(#pfc453447c4)">
     <use xlink:href="#C3_0_2dee876f83" x="104.482423" y="102.609568" style="fill: #ffffff; stroke: #000000; stroke-width: 0.4"/>
    </g>
    <g clip-path="url(#pfc453447c4)">
     <use xlink:href="#C3_0_2dee876f83" x="104.759452" y="91.905146" style="fill: #ffffff; stroke: #000000; stroke-width: 0.4"/>
    </g>
   </g>
   <g id="PathCollection_5">
    <defs>
     <path id="C4_0_46fe7685a4" d="M 0 2.5 
C 0.663008 2.5 1.29895 2.236584 1.767767 1.767767 
C 2.236584 1.29895 2.5 0.663008 2.5 -0 
C 2.5 -0.663008 2.236584 -1.29895 1.767767 -1.767767 
C 1.29895 -2.236584 0.663008 -2.5 0 -2.5 
C -0.663008 -2.5 -1.29895 -2.236584 -1.767767 -1.767767 
C -2.236584 -1.29895 -2.5 -0.663008 -2.5 0 
C -2.5 0.663008 -2.236584 1.29895 -1.767767 1.767767 
C -1.29895 2.236584 -0.663008 2.5 0 2.5 
z
"/>
    </defs>
    <g clip-path="url(#pfc453447c4)">
     <use xlink:href="#C4_0_46fe7685a4" x="117.404216" y="90.924188" style="fill: #ffffff; stroke: #000000; stroke-width: 0.4"/>
    </g>
    <g clip-path="url(#pfc453447c4)">
     <use xlink:href="#C4_0_46fe7685a4" x="115.595114" y="101.729701" style="fill: #ffffff; stroke: #000000; stroke-width: 0.4"/>
    </g>
    <g clip-path="url(#pfc453447c4)">
     <use xlink:href="#C4_0_46fe7685a4" x="116.562347" y="105.163053" style="fill: #ffffff; stroke: #000000; stroke-width: 0.4"/>
    </g>
   </g>
   <g id="PathCollection_6">
    <defs>
     <path id="C5_0_ec2d9e1a31" d="M 0 2.5 
C 0.663008 2.5 1.29895 2.236584 1.767767 1.767767 
C 2.236584 1.29895 2.5 0.663008 2.5 -0 
C 2.5 -0.663008 2.236584 -1.29895 1.767767 -1.767767 
C 1.29895 -2.236584 0.663008 -2.5 0 -2.5 
C -0.663008 -2.5 -1.29895 -2.236584 -1.767767 -1.767767 
C -2.236584 -1.29895 -2.5 -0.663008 -2.5 0 
C -2.5 0.663008 -2.236584 1.29895 -1.767767 1.767767 
C -1.29895 2.236584 -0.663008 2.5 0 2.5 
z
"/>
    </defs>
    <g clip-path="url(#pfc453447c4)">
     <use xlink:href="#C5_0_ec2d9e1a31" x="145.284803" y="72.815782" style="fill: #ffffff; stroke: #000000; stroke-width: 0.4"/>
    </g>
    <g clip-path="url(#pfc453447c4)">
     <use xlink:href="#C5_0_ec2d9e1a31" x="143.839204" y="95.540681" style="fill: #ffffff; stroke: #000000; stroke-width: 0.4"/>
    </g>
    <g clip-path="url(#pfc453447c4)">
     <use xlink:href="#C5_0_ec2d9e1a31" x="145.429419" y="78.991698" style="fill: #ffffff; stroke: #000000; stroke-width: 0.4"/>
    </g>
   </g>
   <g id="PathCollection_7">
    <defs>
     <path id="C6_0_60adf4b3a1" d="M 0 2.5 
C 0.663008 2.5 1.29895 2.236584 1.767767 1.767767 
C 2.236584 1.29895 2.5 0.663008 2.5 -0 
C 2.5 -0.663008 2.236584 -1.29895 1.767767 -1.767767 
C 1.29895 -2.236584 0.663008 -2.5 0 -2.5 
C -0.663008 -2.5 -1.29895 -2.236584 -1.767767 -1.767767 
C -2.236584 -1.29895 -2.5 -0.663008 -2.5 0 
C -2.5 0.663008 -2.236584 1.29895 -1.767767 1.767767 
C -1.29895 2.236584 -0.663008 2.5 0 2.5 
z
"/>
    </defs>
    <g clip-path="url(#pfc453447c4)">
     <use xlink:href="#C6_0_60adf4b3a1" x="158.362892" y="83.301173" style="fill: #ffffff; stroke: #000000; stroke-width: 0.4"/>
    </g>
    <g clip-path="url(#pfc453447c4)">
     <use xlink:href="#C6_0_60adf4b3a1" x="159.140094" y="91.409051" style="fill: #ffffff; stroke: #000000; stroke-width: 0.4"/>
    </g>
    <g clip-path="url(#pfc453447c4)">
     <use xlink:href="#C6_0_60adf4b3a1" x="159.58685" y="84.137982" style="fill: #ffffff; stroke: #000000; stroke-width: 0.4"/>
    </g>
   </g>
   <g id="PathCollection_8">
    <defs>
     <path id="C7_0_70f57ee114" d="M 0 2.5 
C 0.663008 2.5 1.29895 2.236584 1.767767 1.767767 
C 2.236584 1.29895 2.5 0.663008 2.5 -0 
C 2.5 -0.663008 2.236584 -1.29895 1.767767 -1.767767 
C 1.29895 -2.236584 0.663008 -2.5 0 -2.5 
C -0.663008 -2.5 -1.29895 -2.236584 -1.767767 -1.767767 
C -2.236584 -1.29895 -2.5 -0.663008 -2.5 0 
C -2.5 0.663008 -2.236584 1.29895 -1.767767 1.767767 
C -1.29895 2.236584 -0.663008 2.5 0 2.5 
z
"/>
    </defs>
    <g clip-path="url(#pfc453447c4)">
     <use xlink:href="#C7_0_70f57ee114" x="172.448551" y="91.259287" style="fill: #ffffff; stroke: #000000; stroke-width: 0.4"/>
    </g>
    <g clip-path="url(#pfc453447c4)">
     <use xlink:href="#C7_0_70f57ee114" x="170.756953" y="99.384014" style="fill: #ffffff; stroke: #000000; stroke-width: 0.4"/>
    </g>
    <g clip-path="url(#pfc453447c4)">
     <use xlink:href="#C7_0_70f57ee114" x="171.284981" y="97.450179" style="fill: #ffffff; stroke: #000000; stroke-width: 0.4"/>
    </g>
   </g>
   <g id="PathCollection_9">
    <defs>
     <path id="C8_0_9ed7bd2b79" d="M 0 2.5 
C 0.663008 2.5 1.29895 2.236584 1.767767 1.767767 
C 2.236584 1.29895 2.5 0.663008 2.5 -0 
C 2.5 -0.663008 2.236584 -1.29895 1.767767 -1.767767 
C 1.29895 -2.236584 0.663008 -2.5 0 -2.5 
C -0.663008 -2.5 -1.29895 -2.236584 -1.767767 -1.767767 
C -2.236584 -1.29895 -2.5 -0.663008 -2.5 0 
C -2.5 0.663008 -2.236584 1.29895 -1.767767 1.767767 
C -1.29895 2.236584 -0.663008 2.5 0 2.5 
z
"/>
    </defs>
    <g clip-path="url(#pfc453447c4)">
     <use xlink:href="#C8_0_9ed7bd2b79" x="185.255198" y="100.746871" style="fill: #ffffff; stroke: #000000; stroke-width: 0.4"/>
    </g>
    <g clip-path="url(#pfc453447c4)">
     <use xlink:href="#C8_0_9ed7bd2b79" x="182.716694" y="104.307523" style="fill: #ffffff; stroke: #000000; stroke-width: 0.4"/>
    </g>
   </g>
   <g id="PathCollection_10">
    <defs>
     <path id="C9_0_fe32feaa4d" d="M 0 2.5 
C 0.663008 2.5 1.29895 2.236584 1.767767 1.767767 
C 2.236584 1.29895 2.5 0.663008 2.5 -0 
C 2.5 -0.663008 2.236584 -1.29895 1.767767 -1.767767 
C 1.29895 -2.236584 0.663008 -2.5 0 -2.5 
C -0.663008 -2.5 -1.29895 -2.236584 -1.767767 -1.767767 
C -2.236584 -1.29895 -2.5 -0.663008 -2.5 0 
C -2.5 0.663008 -2.236584 1.29895 -1.767767 1.767767 
C -1.29895 2.236584 -0.663008 2.5 0 2.5 
z
"/>
    </defs>
    <g clip-path="url(#pfc453447c4)">
     <use xlink:href="#C9_0_fe32feaa4d" x="195.559296" y="111.320248" style="fill: #ffffff; stroke: #000000; stroke-width: 0.4"/>
    </g>
    <g clip-path="url(#pfc453447c4)">
     <use xlink:href="#C9_0_fe32feaa4d" x="195.673102" y="112.005421" style="fill: #ffffff; stroke: #000000; stroke-width: 0.4"/>
    </g>
    <g clip-path="url(#pfc453447c4)">
     <use xlink:href="#C9_0_fe32feaa4d" x="198.325714" y="114.965143" style="fill: #ffffff; stroke: #000000; stroke-width: 0.4"/>
    </g>
   </g>
   <g id="PathCollection_11">
    <path d="M 64.666621 38.34105 
L 62.166621 43.34105 
L 67.166621 43.34105 
z
" clip-path="url(#pfc453447c4)" style="fill: #ffffff; stroke: #000000; stroke-width: 0.4"/>
    <path d="M 64.111515 10.271429 
L 61.611515 15.271429 
L 66.611515 15.271429 
z
" clip-path="url(#pfc453447c4)" style="fill: #ffffff; stroke: #000000; stroke-width: 0.4"/>
    <path d="M 64.5305 24.710604 
L 62.0305 29.710604 
L 67.0305 29.710604 
z
" clip-path="url(#pfc453447c4)" style="fill: #ffffff; stroke: #000000; stroke-width: 0.4"/>
   </g>
   <g id="PathCollection_12">
    <path d="M 77.42775 108.752854 
L 74.92775 113.752854 
L 79.92775 113.752854 
z
" clip-path="url(#pfc453447c4)" style="fill: #ffffff; stroke: #000000; stroke-width: 0.4"/>
    <path d="M 75.846442 108.999966 
L 73.346442 113.999966 
L 78.346442 113.999966 
z
" clip-path="url(#pfc453447c4)" style="fill: #ffffff; stroke: #000000; stroke-width: 0.4"/>
    <path d="M 77.880977 58.340234 
L 75.380977 63.340234 
L 80.380977 63.340234 
z
" clip-path="url(#pfc453447c4)" style="fill: #ffffff; stroke: #000000; stroke-width: 0.4"/>
   </g>
   <g id="PathCollection_13">
    <path d="M 91.741837 58.813864 
L 89.241837 63.813864 
L 94.241837 63.813864 
z
" clip-path="url(#pfc453447c4)" style="fill: #ffffff; stroke: #000000; stroke-width: 0.4"/>
    <path d="M 91.20106 57.406077 
L 88.70106 62.406077 
L 93.70106 62.406077 
z
" clip-path="url(#pfc453447c4)" style="fill: #ffffff; stroke: #000000; stroke-width: 0.4"/>
    <path d="M 89.712973 56.440096 
L 87.212973 61.440096 
L 92.212973 61.440096 
z
" clip-path="url(#pfc453447c4)" style="fill: #ffffff; stroke: #000000; stroke-width: 0.4"/>
   </g>
   <g id="PathCollection_14">
    <path d="M 103.419995 81.417079 
L 100.919995 86.417079 
L 105.919995 86.417079 
z
" clip-path="url(#pfc453447c4)" style="fill: #ffffff; stroke: #000000; stroke-width: 0.4"/>
    <path d="M 101.989584 78.934732 
L 99.489584 83.934732 
L 104.489584 83.934732 
z
" clip-path="url(#pfc453447c4)" style="fill: #ffffff; stroke: #000000; stroke-width: 0.4"/>
    <path d="M 104.770639 87.673494 
L 102.270639 92.673494 
L 107.270639 92.673494 
z
" clip-path="url(#pfc453447c4)" style="fill: #ffffff; stroke: #000000; stroke-width: 0.4"/>
   </g>
   <g id="PathCollection_15">
    <path d="M 116.252826 120.148065 
L 113.752826 125.148065 
L 118.752826 125.148065 
z
" clip-path="url(#pfc453447c4)" style="fill: #ffffff; stroke: #000000; stroke-width: 0.4"/>
    <path d="M 117.138522 119.25135 
L 114.638522 124.25135 
L 119.638522 124.25135 
z
" clip-path="url(#pfc453447c4)" style="fill: #ffffff; stroke: #000000; stroke-width: 0.4"/>
    <path d="M 115.330434 118.047617 
L 112.830434 123.047617 
L 117.830434 123.047617 
z
" clip-path="url(#pfc453447c4)" style="fill: #ffffff; stroke: #000000; stroke-width: 0.4"/>
   </g>
   <g id="PathCollection_16">
    <path d="M 144.500651 107.599667 
L 142.000651 112.599667 
L 147.000651 112.599667 
z
" clip-path="url(#pfc453447c4)" style="fill: #ffffff; stroke: #000000; stroke-width: 0.4"/>
    <path d="M 144.108576 108.131332 
L 141.608576 113.131332 
L 146.608576 113.131332 
z
" clip-path="url(#pfc453447c4)" style="fill: #ffffff; stroke: #000000; stroke-width: 0.4"/>
    <path d="M 144.334165 101.998473 
L 141.834165 106.998473 
L 146.834165 106.998473 
z
" clip-path="url(#pfc453447c4)" style="fill: #ffffff; stroke: #000000; stroke-width: 0.4"/>
   </g>
   <g id="PathCollection_17">
    <path d="M 157.224666 115.17401 
L 154.724666 120.17401 
L 159.724666 120.17401 
z
" clip-path="url(#pfc453447c4)" style="fill: #ffffff; stroke: #000000; stroke-width: 0.4"/>
    <path d="M 158.621558 112.253601 
L 156.121558 117.253601 
L 161.121558 117.253601 
z
" clip-path="url(#pfc453447c4)" style="fill: #ffffff; stroke: #000000; stroke-width: 0.4"/>
    <path d="M 157.173009 115.413633 
L 154.673009 120.413633 
L 159.673009 120.413633 
z
" clip-path="url(#pfc453447c4)" style="fill: #ffffff; stroke: #000000; stroke-width: 0.4"/>
   </g>
   <g id="PathCollection_18">
    <path d="M 171.475859 117.405501 
L 168.975859 122.405501 
L 173.975859 122.405501 
z
" clip-path="url(#pfc453447c4)" style="fill: #ffffff; stroke: #000000; stroke-width: 0.4"/>
    <path d="M 171.74305 117.036706 
L 169.24305 122.036706 
L 174.24305 122.036706 
z
" clip-path="url(#pfc453447c4)" style="fill: #ffffff; stroke: #000000; stroke-width: 0.4"/>
    <path d="M 170.22322 115.872287 
L 167.72322 120.872287 
L 172.72322 120.872287 
z
" clip-path="url(#pfc453447c4)" style="fill: #ffffff; stroke: #000000; stroke-width: 0.4"/>
   </g>
   <g id="PathCollection_19">
    <path d="M 184.575239 120.548685 
L 182.075239 125.548685 
L 187.075239 125.548685 
z
" clip-path="url(#pfc453447c4)" style="fill: #ffffff; stroke: #000000; stroke-width: 0.4"/>
    <path d="M 184.720281 119.889721 
L 182.220281 124.889721 
L 187.220281 124.889721 
z
" clip-path="url(#pfc453447c4)" style="fill: #ffffff; stroke: #000000; stroke-width: 0.4"/>
    <path d="M 183.893213 120.063822 
L 181.393213 125.063822 
L 186.393213 125.063822 
z
" clip-path="url(#pfc453447c4)" style="fill: #ffffff; stroke: #000000; stroke-width: 0.4"/>
   </g>
   <g id="PathCollection_20">
    <path d="M 195.69203 121.555852 
L 193.19203 126.555852 
L 198.19203 126.555852 
z
" clip-path="url(#pfc453447c4)" style="fill: #ffffff; stroke: #000000; stroke-width: 0.4"/>
    <path d="M 198.619636 121.574572 
L 196.119636 126.574572 
L 201.119636 126.574572 
z
" clip-path="url(#pfc453447c4)" style="fill: #ffffff; stroke: #000000; stroke-width: 0.4"/>
    <path d="M 198.623502 121.574572 
L 196.123502 126.574572 
L 201.123502 126.574572 
z
" clip-path="url(#pfc453447c4)" style="fill: #ffffff; stroke: #000000; stroke-width: 0.4"/>
   </g>
   <g id="PathCollection_21">
    <path d="M 61.244419 23.813624 
L 66.244419 23.813624 
L 66.244419 18.813624 
L 61.244419 18.813624 
z
" clip-path="url(#pfc453447c4)" style="fill: #ffffff; stroke: #000000; stroke-width: 0.4"/>
    <path d="M 63.135877 33.701829 
L 68.135877 33.701829 
L 68.135877 28.701829 
L 63.135877 28.701829 
z
" clip-path="url(#pfc453447c4)" style="fill: #ffffff; stroke: #000000; stroke-width: 0.4"/>
    <path d="M 61.827839 33.469694 
L 66.827839 33.469694 
L 66.827839 28.469694 
L 61.827839 28.469694 
z
" clip-path="url(#pfc453447c4)" style="fill: #ffffff; stroke: #000000; stroke-width: 0.4"/>
   </g>
   <g id="PathCollection_22">
    <path d="M 75.808836 20.245484 
L 80.808836 20.245484 
L 80.808836 15.245484 
L 75.808836 15.245484 
z
" clip-path="url(#pfc453447c4)" style="fill: #ffffff; stroke: #000000; stroke-width: 0.4"/>
    <path d="M 74.580314 28.257887 
L 79.580314 28.257887 
L 79.580314 23.257887 
L 74.580314 23.257887 
z
" clip-path="url(#pfc453447c4)" style="fill: #ffffff; stroke: #000000; stroke-width: 0.4"/>
    <path d="M 74.702304 32.262217 
L 79.702304 32.262217 
L 79.702304 27.262217 
L 74.702304 27.262217 
z
" clip-path="url(#pfc453447c4)" style="fill: #ffffff; stroke: #000000; stroke-width: 0.4"/>
   </g>
   <g id="PathCollection_23">
    <path d="M 88.143588 67.262193 
L 93.143588 67.262193 
L 93.143588 62.262193 
L 88.143588 62.262193 
z
" clip-path="url(#pfc453447c4)" style="fill: #ffffff; stroke: #000000; stroke-width: 0.4"/>
    <path d="M 88.940553 76.304228 
L 93.940553 76.304228 
L 93.940553 71.304228 
L 88.940553 71.304228 
z
" clip-path="url(#pfc453447c4)" style="fill: #ffffff; stroke: #000000; stroke-width: 0.4"/>
    <path d="M 87.044596 76.644942 
L 92.044596 76.644942 
L 92.044596 71.644942 
L 87.044596 71.644942 
z
" clip-path="url(#pfc453447c4)" style="fill: #ffffff; stroke: #000000; stroke-width: 0.4"/>
   </g>
   <g id="PathCollection_24">
    <path d="M 100.776247 75.766948 
L 105.776247 75.766948 
L 105.776247 70.766948 
L 100.776247 70.766948 
z
" clip-path="url(#pfc453447c4)" style="fill: #ffffff; stroke: #000000; stroke-width: 0.4"/>
    <path d="M 100.714189 76.877077 
L 105.714189 76.877077 
L 105.714189 71.877077 
L 100.714189 71.877077 
z
" clip-path="url(#pfc453447c4)" style="fill: #ffffff; stroke: #000000; stroke-width: 0.4"/>
    <path d="M 100.466963 90.492547 
L 105.466963 90.492547 
L 105.466963 85.492547 
L 100.466963 85.492547 
z
" clip-path="url(#pfc453447c4)" style="fill: #ffffff; stroke: #000000; stroke-width: 0.4"/>
   </g>
   <g id="PathCollection_25">
    <path d="M 113.064095 118.528472 
L 118.064095 118.528472 
L 118.064095 113.528472 
L 113.064095 113.528472 
z
" clip-path="url(#pfc453447c4)" style="fill: #ffffff; stroke: #000000; stroke-width: 0.4"/>
    <path d="M 112.2383 117.686046 
L 117.2383 117.686046 
L 117.2383 112.686046 
L 112.2383 112.686046 
z
" clip-path="url(#pfc453447c4)" style="fill: #ffffff; stroke: #000000; stroke-width: 0.4"/>
    <path d="M 114.38333 117.961238 
L 119.38333 117.961238 
L 119.38333 112.961238 
L 114.38333 112.961238 
z
" clip-path="url(#pfc453447c4)" style="fill: #ffffff; stroke: #000000; stroke-width: 0.4"/>
   </g>
   <g id="PathCollection_26">
    <path d="M 141.899351 104.312071 
L 146.899351 104.312071 
L 146.899351 99.312071 
L 141.899351 99.312071 
z
" clip-path="url(#pfc453447c4)" style="fill: #ffffff; stroke: #000000; stroke-width: 0.4"/>
    <path d="M 142.76484 106.317044 
L 147.76484 106.317044 
L 147.76484 101.317044 
L 142.76484 101.317044 
z
" clip-path="url(#pfc453447c4)" style="fill: #ffffff; stroke: #000000; stroke-width: 0.4"/>
    <path d="M 142.694071 106.57726 
L 147.694071 106.57726 
L 147.694071 101.57726 
L 142.694071 101.57726 
z
" clip-path="url(#pfc453447c4)" style="fill: #ffffff; stroke: #000000; stroke-width: 0.4"/>
   </g>
   <g id="PathCollection_27">
    <path d="M 155.888879 106.485529 
L 160.888879 106.485529 
L 160.888879 101.485529 
L 155.888879 101.485529 
z
" clip-path="url(#pfc453447c4)" style="fill: #ffffff; stroke: #000000; stroke-width: 0.4"/>
    <path d="M 157.208227 106.496762 
L 162.208227 106.496762 
L 162.208227 101.496762 
L 157.208227 101.496762 
z
" clip-path="url(#pfc453447c4)" style="fill: #ffffff; stroke: #000000; stroke-width: 0.4"/>
    <path d="M 154.943073 104.954187 
L 159.943073 104.954187 
L 159.943073 99.954187 
L 154.943073 99.954187 
z
" clip-path="url(#pfc453447c4)" style="fill: #ffffff; stroke: #000000; stroke-width: 0.4"/>
   </g>
   <g id="PathCollection_28">
    <path d="M 169.463347 118.541576 
L 174.463347 118.541576 
L 174.463347 113.541576 
L 169.463347 113.541576 
z
" clip-path="url(#pfc453447c4)" style="fill: #ffffff; stroke: #000000; stroke-width: 0.4"/>
    <path d="M 167.902585 120.473539 
L 172.902585 120.473539 
L 172.902585 115.473539 
L 167.902585 115.473539 
z
" clip-path="url(#pfc453447c4)" style="fill: #ffffff; stroke: #000000; stroke-width: 0.4"/>
    <path d="M 169.535081 118.092282 
L 174.535081 118.092282 
L 174.535081 113.092282 
L 169.535081 113.092282 
z
" clip-path="url(#pfc453447c4)" style="fill: #ffffff; stroke: #000000; stroke-width: 0.4"/>
   </g>
   <g id="PathCollection_29">
    <path d="M 183.025633 121.606133 
L 188.025633 121.606133 
L 188.025633 116.606133 
L 183.025633 116.606133 
z
" clip-path="url(#pfc453447c4)" style="fill: #ffffff; stroke: #000000; stroke-width: 0.4"/>
    <path d="M 180.761127 120.46605 
L 185.761127 120.46605 
L 185.761127 115.46605 
L 180.761127 115.46605 
z
" clip-path="url(#pfc453447c4)" style="fill: #ffffff; stroke: #000000; stroke-width: 0.4"/>
    <path d="M 181.485518 121.460113 
L 186.485518 121.460113 
L 186.485518 116.460113 
L 181.485518 116.460113 
z
" clip-path="url(#pfc453447c4)" style="fill: #ffffff; stroke: #000000; stroke-width: 0.4"/>
   </g>
   <g id="PathCollection_30">
    <path d="M 194.898216 125.947433 
L 199.898216 125.947433 
L 199.898216 120.947433 
L 194.898216 120.947433 
z
" clip-path="url(#pfc453447c4)" style="fill: #ffffff; stroke: #000000; stroke-width: 0.4"/>
    <path d="M 194.932463 125.956793 
L 199.932463 125.956793 
L 199.932463 120.956793 
L 194.932463 120.956793 
z
" clip-path="url(#pfc453447c4)" style="fill: #ffffff; stroke: #000000; stroke-width: 0.4"/>
    <path d="M 193.366058 125.659136 
L 198.366058 125.659136 
L 198.366058 120.659136 
L 193.366058 120.659136 
z
" clip-path="url(#pfc453447c4)" style="fill: #ffffff; stroke: #000000; stroke-width: 0.4"/>
   </g>
   <g id="legend_1">
    <g id="patch_17">
     <path d="M 224.195312 19.473594 
L 246.195312 19.473594 
L 246.195312 11.773594 
L 224.195312 11.773594 
z
" style="fill: #4b4279; opacity: 0.8; stroke: #ffffff; stroke-linejoin: miter"/>
    </g>
    <g id="text_8">
     <!-- 0 uM -->
     <g style="fill: #262626" transform="translate(254.995313 19.473594) scale(0.11 -0.11)">
      <defs>
       <path id="ArialMT-75" d="M 2597 0 
L 2597 488 
Q 2209 -75 1544 -75 
Q 1250 -75 995 37 
Q 741 150 617 320 
Q 494 491 444 738 
Q 409 903 409 1263 
L 409 3319 
L 972 3319 
L 972 1478 
Q 972 1038 1006 884 
Q 1059 663 1231 536 
Q 1403 409 1656 409 
Q 1909 409 2131 539 
Q 2353 669 2445 892 
Q 2538 1116 2538 1541 
L 2538 3319 
L 3100 3319 
L 3100 0 
L 2597 0 
z
" transform="scale(0.015625)"/>
       <path id="ArialMT-4d" d="M 475 0 
L 475 4581 
L 1388 4581 
L 2472 1338 
Q 2622 884 2691 659 
Q 2769 909 2934 1394 
L 4031 4581 
L 4847 4581 
L 4847 0 
L 4263 0 
L 4263 3834 
L 2931 0 
L 2384 0 
L 1059 3900 
L 1059 0 
L 475 0 
z
" transform="scale(0.015625)"/>
      </defs>
      <use xlink:href="#ArialMT-30"/>
      <use xlink:href="#ArialMT-20" transform="translate(55.615234 0)"/>
      <use xlink:href="#ArialMT-75" transform="translate(83.398438 0)"/>
      <use xlink:href="#ArialMT-4d" transform="translate(139.013672 0)"/>
     </g>
    </g>
    <g id="patch_18">
     <path d="M 224.195312 35.033437 
L 246.195312 35.033437 
L 246.195312 27.333437 
L 224.195312 27.333437 
z
" style="fill: #3c6682; opacity: 0.8; stroke: #ffffff; stroke-linejoin: miter"/>
    </g>
    <g id="text_9">
     <!-- 0.1 uM -->
     <g style="fill: #262626" transform="translate(254.995313 35.033437) scale(0.11 -0.11)">
      <defs>
       <path id="ArialMT-2e" d="M 581 0 
L 581 641 
L 1222 641 
L 1222 0 
L 581 0 
z
" transform="scale(0.015625)"/>
       <path id="ArialMT-31" d="M 2384 0 
L 1822 0 
L 1822 3584 
Q 1619 3391 1289 3197 
Q 959 3003 697 2906 
L 697 3450 
Q 1169 3672 1522 3987 
Q 1875 4303 2022 4600 
L 2384 4600 
L 2384 0 
z
" transform="scale(0.015625)"/>
      </defs>
      <use xlink:href="#ArialMT-30"/>
      <use xlink:href="#ArialMT-2e" transform="translate(55.615234 0)"/>
      <use xlink:href="#ArialMT-31" transform="translate(83.398438 0)"/>
      <use xlink:href="#ArialMT-20" transform="translate(139.013672 0)"/>
      <use xlink:href="#ArialMT-75" transform="translate(166.796875 0)"/>
      <use xlink:href="#ArialMT-4d" transform="translate(222.412109 0)"/>
     </g>
    </g>
    <g id="patch_19">
     <path d="M 224.195312 50.593281 
L 246.195312 50.593281 
L 246.195312 42.893281 
L 224.195312 42.893281 
z
" style="fill: #2f837f; opacity: 0.8; stroke: #ffffff; stroke-linejoin: miter"/>
    </g>
    <g id="text_10">
     <!-- 1 uM -->
     <g style="fill: #262626" transform="translate(254.995313 50.593281) scale(0.11 -0.11)">
      <use xlink:href="#ArialMT-31"/>
      <use xlink:href="#ArialMT-20" transform="translate(55.615234 0)"/>
      <use xlink:href="#ArialMT-75" transform="translate(83.398438 0)"/>
      <use xlink:href="#ArialMT-4d" transform="translate(139.013672 0)"/>
     </g>
    </g>
    <g id="patch_20">
     <path d="M 224.195312 66.153125 
L 246.195312 66.153125 
L 246.195312 58.453125 
L 224.195312 58.453125 
z
" style="fill: #45a778; opacity: 0.8; stroke: #ffffff; stroke-linejoin: miter"/>
    </g>
    <g id="text_11">
     <!-- 2 uM -->
     <g style="fill: #262626" transform="translate(254.995313 66.153125) scale(0.11 -0.11)">
      <use xlink:href="#ArialMT-32"/>
      <use xlink:href="#ArialMT-20" transform="translate(55.615234 0)"/>
      <use xlink:href="#ArialMT-75" transform="translate(83.398438 0)"/>
      <use xlink:href="#ArialMT-4d" transform="translate(139.013672 0)"/>
     </g>
    </g>
    <g id="patch_21">
     <path d="M 224.195312 81.712969 
L 246.195312 81.712969 
L 246.195312 74.012969 
L 224.195312 74.012969 
z
" style="fill: #8fc456; opacity: 0.8; stroke: #ffffff; stroke-linejoin: miter"/>
    </g>
    <g id="text_12">
     <!-- 5 uM -->
     <g style="fill: #262626" transform="translate(254.995313 81.712969) scale(0.11 -0.11)">
      <defs>
       <path id="ArialMT-35" d="M 266 1200 
L 856 1250 
Q 922 819 1161 601 
Q 1400 384 1738 384 
Q 2144 384 2425 690 
Q 2706 997 2706 1503 
Q 2706 1984 2436 2262 
Q 2166 2541 1728 2541 
Q 1456 2541 1237 2417 
Q 1019 2294 894 2097 
L 366 2166 
L 809 4519 
L 3088 4519 
L 3088 3981 
L 1259 3981 
L 1013 2750 
Q 1425 3038 1878 3038 
Q 2478 3038 2890 2622 
Q 3303 2206 3303 1553 
Q 3303 931 2941 478 
Q 2500 -78 1738 -78 
Q 1113 -78 717 272 
Q 322 622 266 1200 
z
" transform="scale(0.015625)"/>
      </defs>
      <use xlink:href="#ArialMT-35"/>
      <use xlink:href="#ArialMT-20" transform="translate(55.615234 0)"/>
      <use xlink:href="#ArialMT-75" transform="translate(83.398438 0)"/>
      <use xlink:href="#ArialMT-4d" transform="translate(139.013672 0)"/>
     </g>
    </g>
   </g>
  </g>
 </g>
 <defs>
  <clipPath id="pfc453447c4">
   <rect x="49.695312" y="7.2" width="162" height="117"/>
  </clipPath>
 </defs>
</svg>
