<?xml version="1.0" encoding="utf-8" standalone="no"?>
<!DOCTYPE svg PUBLIC "-//W3C//DTD SVG 1.1//EN"
  "http://www.w3.org/Graphics/SVG/1.1/DTD/svg11.dtd">
<svg xmlns:xlink="http://www.w3.org/1999/xlink" width="294.720937pt" height="150.959844pt" viewBox="0 0 294.720937 150.959844" xmlns="http://www.w3.org/2000/svg" version="1.1">
 <metadata>
  <rdf:RDF xmlns:dc="http://purl.org/dc/elements/1.1/" xmlns:cc="http://creativecommons.org/ns#" xmlns:rdf="http://www.w3.org/1999/02/22-rdf-syntax-ns#">
   <cc:Work>
    <dc:type rdf:resource="http://purl.org/dc/dcmitype/StillImage"/>
    <dc:date>2025-07-28T16:16:20.376275</dc:date>
    <dc:format>image/svg+xml</dc:format>
    <dc:creator>
     <cc:Agent>
      <dc:title>Matplotlib v3.10.3, https://matplotlib.org/</dc:title>
     </cc:Agent>
    </dc:creator>
   </cc:Work>
  </rdf:RDF>
 </metadata>
 <defs>
  <style type="text/css">*{stroke-linejoin: round; stroke-linecap: butt}</style>
 </defs>
 <g id="figure_1">
  <g id="patch_1">
   <path d="M 0 150.959844 
L 294.720937 150.959844 
L 294.720937 0 
L 0 0 
z
" style="fill: #ffffff"/>
  </g>
  <g id="axes_1">
   <g id="patch_2">
    <path d="M 44.195312 124.2 
L 206.195312 124.2 
L 206.195312 7.2 
L 44.195312 7.2 
z
" style="fill: #ffffff"/>
   </g>
   <g id="matplotlib.axis_1">
    <g id="xtick_1">
     <g id="line2d_1">
      <defs>
       <path id="m23d0bbc8ff" d="M 0 0 
L 0 6 
" style="stroke: #262626; stroke-width: 1.25"/>
      </defs>
      <g>
       <use xlink:href="#m23d0bbc8ff" x="84.695312" y="124.2" style="fill: #262626; stroke: #262626; stroke-width: 1.25"/>
      </g>
     </g>
     <g id="text_1">
      <!-- SDDIR -->
      <g style="fill: #262626" transform="translate(67.582578 141.573594) scale(0.11 -0.11)">
       <defs>
        <path id="ArialMT-53" d="M 288 1472 
L 859 1522 
Q 900 1178 1048 958 
Q 1197 738 1509 602 
Q 1822 466 2213 466 
Q 2559 466 2825 569 
Q 3091 672 3220 851 
Q 3350 1031 3350 1244 
Q 3350 1459 3225 1620 
Q 3100 1781 2813 1891 
Q 2628 1963 1997 2114 
Q 1366 2266 1113 2400 
Q 784 2572 623 2826 
Q 463 3081 463 3397 
Q 463 3744 659 4045 
Q 856 4347 1234 4503 
Q 1613 4659 2075 4659 
Q 2584 4659 2973 4495 
Q 3363 4331 3572 4012 
Q 3781 3694 3797 3291 
L 3216 3247 
Q 3169 3681 2898 3903 
Q 2628 4125 2100 4125 
Q 1550 4125 1298 3923 
Q 1047 3722 1047 3438 
Q 1047 3191 1225 3031 
Q 1400 2872 2139 2705 
Q 2878 2538 3153 2413 
Q 3553 2228 3743 1945 
Q 3934 1663 3934 1294 
Q 3934 928 3725 604 
Q 3516 281 3123 101 
Q 2731 -78 2241 -78 
Q 1619 -78 1198 103 
Q 778 284 539 648 
Q 300 1013 288 1472 
z
" transform="scale(0.015625)"/>
        <path id="ArialMT-44" d="M 494 0 
L 494 4581 
L 2072 4581 
Q 2606 4581 2888 4516 
Q 3281 4425 3559 4188 
Q 3922 3881 4101 3404 
Q 4281 2928 4281 2316 
Q 4281 1794 4159 1391 
Q 4038 988 3847 723 
Q 3656 459 3429 307 
Q 3203 156 2883 78 
Q 2563 0 2147 0 
L 494 0 
z
M 1100 541 
L 2078 541 
Q 2531 541 2789 625 
Q 3047 709 3200 863 
Q 3416 1078 3536 1442 
Q 3656 1806 3656 2325 
Q 3656 3044 3420 3430 
Q 3184 3816 2847 3947 
Q 2603 4041 2063 4041 
L 1100 4041 
L 1100 541 
z
" transform="scale(0.015625)"/>
        <path id="ArialMT-49" d="M 597 0 
L 597 4581 
L 1203 4581 
L 1203 0 
L 597 0 
z
" transform="scale(0.015625)"/>
        <path id="ArialMT-52" d="M 503 0 
L 503 4581 
L 2534 4581 
Q 3147 4581 3465 4457 
Q 3784 4334 3975 4021 
Q 4166 3709 4166 3331 
Q 4166 2844 3850 2509 
Q 3534 2175 2875 2084 
Q 3116 1969 3241 1856 
Q 3506 1613 3744 1247 
L 4541 0 
L 3778 0 
L 3172 953 
Q 2906 1366 2734 1584 
Q 2563 1803 2427 1890 
Q 2291 1978 2150 2013 
Q 2047 2034 1813 2034 
L 1109 2034 
L 1109 0 
L 503 0 
z
M 1109 2559 
L 2413 2559 
Q 2828 2559 3062 2645 
Q 3297 2731 3419 2920 
Q 3541 3109 3541 3331 
Q 3541 3656 3305 3865 
Q 3069 4075 2559 4075 
L 1109 4075 
L 1109 2559 
z
" transform="scale(0.015625)"/>
       </defs>
       <use xlink:href="#ArialMT-53"/>
       <use xlink:href="#ArialMT-44" transform="translate(66.699219 0)"/>
       <use xlink:href="#ArialMT-44" transform="translate(138.916016 0)"/>
       <use xlink:href="#ArialMT-49" transform="translate(211.132812 0)"/>
       <use xlink:href="#ArialMT-52" transform="translate(238.916016 0)"/>
      </g>
     </g>
    </g>
    <g id="xtick_2">
     <g id="line2d_2">
      <g>
       <use xlink:href="#m23d0bbc8ff" x="165.695312" y="124.2" style="fill: #262626; stroke: #262626; stroke-width: 1.25"/>
      </g>
     </g>
     <g id="text_2">
      <!-- RISDD -->
      <g style="fill: #262626" transform="translate(148.582578 141.573594) scale(0.11 -0.11)">
       <use xlink:href="#ArialMT-52"/>
       <use xlink:href="#ArialMT-49" transform="translate(72.216797 0)"/>
       <use xlink:href="#ArialMT-53" transform="translate(100 0)"/>
       <use xlink:href="#ArialMT-44" transform="translate(166.699219 0)"/>
       <use xlink:href="#ArialMT-44" transform="translate(238.916016 0)"/>
      </g>
     </g>
    </g>
   </g>
   <g id="matplotlib.axis_2">
    <g id="ytick_1">
     <g id="line2d_3">
      <defs>
       <path id="mc2d9a111ad" d="M 0 0 
L -6 0 
" style="stroke: #262626; stroke-width: 1.25"/>
      </defs>
      <g>
       <use xlink:href="#mc2d9a111ad" x="44.195312" y="124.2" style="fill: #262626; stroke: #262626; stroke-width: 1.25"/>
      </g>
     </g>
     <g id="text_3">
      <!-- 0 -->
      <g style="fill: #262626" transform="translate(28.578281 128.136797) scale(0.11 -0.11)">
       <defs>
        <path id="ArialMT-30" d="M 266 2259 
Q 266 3072 433 3567 
Q 600 4063 929 4331 
Q 1259 4600 1759 4600 
Q 2128 4600 2406 4451 
Q 2684 4303 2865 4023 
Q 3047 3744 3150 3342 
Q 3253 2941 3253 2259 
Q 3253 1453 3087 958 
Q 2922 463 2592 192 
Q 2263 -78 1759 -78 
Q 1097 -78 719 397 
Q 266 969 266 2259 
z
M 844 2259 
Q 844 1131 1108 757 
Q 1372 384 1759 384 
Q 2147 384 2411 759 
Q 2675 1134 2675 2259 
Q 2675 3391 2411 3762 
Q 2147 4134 1753 4134 
Q 1366 4134 1134 3806 
Q 844 3388 844 2259 
z
" transform="scale(0.015625)"/>
       </defs>
       <use xlink:href="#ArialMT-30"/>
      </g>
     </g>
    </g>
    <g id="ytick_2">
     <g id="line2d_4">
      <g>
       <use xlink:href="#mc2d9a111ad" x="44.195312" y="94.316383" style="fill: #262626; stroke: #262626; stroke-width: 1.25"/>
      </g>
     </g>
     <g id="text_4">
      <!-- 20 -->
      <g style="fill: #262626" transform="translate(22.46125 98.25318) scale(0.11 -0.11)">
       <defs>
        <path id="ArialMT-32" d="M 3222 541 
L 3222 0 
L 194 0 
Q 188 203 259 391 
Q 375 700 629 1000 
Q 884 1300 1366 1694 
Q 2113 2306 2375 2664 
Q 2638 3022 2638 3341 
Q 2638 3675 2398 3904 
Q 2159 4134 1775 4134 
Q 1369 4134 1125 3890 
Q 881 3647 878 3216 
L 300 3275 
Q 359 3922 746 4261 
Q 1134 4600 1788 4600 
Q 2447 4600 2831 4234 
Q 3216 3869 3216 3328 
Q 3216 3053 3103 2787 
Q 2991 2522 2730 2228 
Q 2469 1934 1863 1422 
Q 1356 997 1212 845 
Q 1069 694 975 541 
L 3222 541 
z
" transform="scale(0.015625)"/>
       </defs>
       <use xlink:href="#ArialMT-32"/>
       <use xlink:href="#ArialMT-30" transform="translate(55.615234 0)"/>
      </g>
     </g>
    </g>
    <g id="ytick_3">
     <g id="line2d_5">
      <g>
       <use xlink:href="#mc2d9a111ad" x="44.195312" y="64.432765" style="fill: #262626; stroke: #262626; stroke-width: 1.25"/>
      </g>
     </g>
     <g id="text_5">
      <!-- 40 -->
      <g style="fill: #262626" transform="translate(22.46125 68.369562) scale(0.11 -0.11)">
       <defs>
        <path id="ArialMT-34" d="M 2069 0 
L 2069 1097 
L 81 1097 
L 81 1613 
L 2172 4581 
L 2631 4581 
L 2631 1613 
L 3250 1613 
L 3250 1097 
L 2631 1097 
L 2631 0 
L 2069 0 
z
M 2069 1613 
L 2069 3678 
L 634 1613 
L 2069 1613 
z
" transform="scale(0.015625)"/>
       </defs>
       <use xlink:href="#ArialMT-34"/>
       <use xlink:href="#ArialMT-30" transform="translate(55.615234 0)"/>
      </g>
     </g>
    </g>
    <g id="ytick_4">
     <g id="line2d_6">
      <g>
       <use xlink:href="#mc2d9a111ad" x="44.195312" y="34.549148" style="fill: #262626; stroke: #262626; stroke-width: 1.25"/>
      </g>
     </g>
     <g id="text_6">
      <!-- 60 -->
      <g style="fill: #262626" transform="translate(22.46125 38.485945) scale(0.11 -0.11)">
       <defs>
        <path id="ArialMT-36" d="M 3184 3459 
L 2625 3416 
Q 2550 3747 2413 3897 
Q 2184 4138 1850 4138 
Q 1581 4138 1378 3988 
Q 1113 3794 959 3422 
Q 806 3050 800 2363 
Q 1003 2672 1297 2822 
Q 1591 2972 1913 2972 
Q 2475 2972 2870 2558 
Q 3266 2144 3266 1488 
Q 3266 1056 3080 686 
Q 2894 316 2569 119 
Q 2244 -78 1831 -78 
Q 1128 -78 684 439 
Q 241 956 241 2144 
Q 241 3472 731 4075 
Q 1159 4600 1884 4600 
Q 2425 4600 2770 4297 
Q 3116 3994 3184 3459 
z
M 888 1484 
Q 888 1194 1011 928 
Q 1134 663 1356 523 
Q 1578 384 1822 384 
Q 2178 384 2434 671 
Q 2691 959 2691 1453 
Q 2691 1928 2437 2201 
Q 2184 2475 1800 2475 
Q 1419 2475 1153 2201 
Q 888 1928 888 1484 
z
" transform="scale(0.015625)"/>
       </defs>
       <use xlink:href="#ArialMT-36"/>
       <use xlink:href="#ArialMT-30" transform="translate(55.615234 0)"/>
      </g>
     </g>
    </g>
    <g id="text_7">
     <!-- (%) HyperP -->
     <g style="fill: #262626" transform="translate(15.935625 96.704062) rotate(-90) scale(0.12 -0.12)">
      <defs>
       <path id="ArialMT-28" d="M 1497 -1347 
Q 1031 -759 709 28 
Q 388 816 388 1659 
Q 388 2403 628 3084 
Q 909 3875 1497 4659 
L 1900 4659 
Q 1522 4009 1400 3731 
Q 1209 3300 1100 2831 
Q 966 2247 966 1656 
Q 966 153 1900 -1347 
L 1497 -1347 
z
" transform="scale(0.015625)"/>
       <path id="ArialMT-25" d="M 372 3481 
Q 372 3972 619 4315 
Q 866 4659 1334 4659 
Q 1766 4659 2048 4351 
Q 2331 4044 2331 3447 
Q 2331 2866 2045 2552 
Q 1759 2238 1341 2238 
Q 925 2238 648 2547 
Q 372 2856 372 3481 
z
M 1350 4272 
Q 1141 4272 1002 4090 
Q 863 3909 863 3425 
Q 863 2984 1003 2804 
Q 1144 2625 1350 2625 
Q 1563 2625 1702 2806 
Q 1841 2988 1841 3469 
Q 1841 3913 1700 4092 
Q 1559 4272 1350 4272 
z
M 1353 -169 
L 3859 4659 
L 4316 4659 
L 1819 -169 
L 1353 -169 
z
M 3334 1075 
Q 3334 1569 3581 1911 
Q 3828 2253 4300 2253 
Q 4731 2253 5014 1945 
Q 5297 1638 5297 1041 
Q 5297 459 5011 145 
Q 4725 -169 4303 -169 
Q 3888 -169 3611 142 
Q 3334 453 3334 1075 
z
M 4316 1866 
Q 4103 1866 3964 1684 
Q 3825 1503 3825 1019 
Q 3825 581 3965 400 
Q 4106 219 4313 219 
Q 4528 219 4667 400 
Q 4806 581 4806 1063 
Q 4806 1506 4665 1686 
Q 4525 1866 4316 1866 
z
" transform="scale(0.015625)"/>
       <path id="ArialMT-29" d="M 791 -1347 
L 388 -1347 
Q 1322 153 1322 1656 
Q 1322 2244 1188 2822 
Q 1081 3291 891 3722 
Q 769 4003 388 4659 
L 791 4659 
Q 1378 3875 1659 3084 
Q 1900 2403 1900 1659 
Q 1900 816 1576 28 
Q 1253 -759 791 -1347 
z
" transform="scale(0.015625)"/>
       <path id="ArialMT-20" transform="scale(0.015625)"/>
       <path id="ArialMT-48" d="M 513 0 
L 513 4581 
L 1119 4581 
L 1119 2700 
L 3500 2700 
L 3500 4581 
L 4106 4581 
L 4106 0 
L 3500 0 
L 3500 2159 
L 1119 2159 
L 1119 0 
L 513 0 
z
" transform="scale(0.015625)"/>
       <path id="ArialMT-79" d="M 397 -1278 
L 334 -750 
Q 519 -800 656 -800 
Q 844 -800 956 -737 
Q 1069 -675 1141 -563 
Q 1194 -478 1313 -144 
Q 1328 -97 1363 -6 
L 103 3319 
L 709 3319 
L 1400 1397 
Q 1534 1031 1641 628 
Q 1738 1016 1872 1384 
L 2581 3319 
L 3144 3319 
L 1881 -56 
Q 1678 -603 1566 -809 
Q 1416 -1088 1222 -1217 
Q 1028 -1347 759 -1347 
Q 597 -1347 397 -1278 
z
" transform="scale(0.015625)"/>
       <path id="ArialMT-70" d="M 422 -1272 
L 422 3319 
L 934 3319 
L 934 2888 
Q 1116 3141 1344 3267 
Q 1572 3394 1897 3394 
Q 2322 3394 2647 3175 
Q 2972 2956 3137 2557 
Q 3303 2159 3303 1684 
Q 3303 1175 3120 767 
Q 2938 359 2589 142 
Q 2241 -75 1856 -75 
Q 1575 -75 1351 44 
Q 1128 163 984 344 
L 984 -1272 
L 422 -1272 
z
M 931 1641 
Q 931 1000 1190 694 
Q 1450 388 1819 388 
Q 2194 388 2461 705 
Q 2728 1022 2728 1688 
Q 2728 2322 2467 2637 
Q 2206 2953 1844 2953 
Q 1484 2953 1207 2617 
Q 931 2281 931 1641 
z
" transform="scale(0.015625)"/>
       <path id="ArialMT-65" d="M 2694 1069 
L 3275 997 
Q 3138 488 2766 206 
Q 2394 -75 1816 -75 
Q 1088 -75 661 373 
Q 234 822 234 1631 
Q 234 2469 665 2931 
Q 1097 3394 1784 3394 
Q 2450 3394 2872 2941 
Q 3294 2488 3294 1666 
Q 3294 1616 3291 1516 
L 816 1516 
Q 847 969 1125 678 
Q 1403 388 1819 388 
Q 2128 388 2347 550 
Q 2566 713 2694 1069 
z
M 847 1978 
L 2700 1978 
Q 2663 2397 2488 2606 
Q 2219 2931 1791 2931 
Q 1403 2931 1139 2672 
Q 875 2413 847 1978 
z
" transform="scale(0.015625)"/>
       <path id="ArialMT-72" d="M 416 0 
L 416 3319 
L 922 3319 
L 922 2816 
Q 1116 3169 1280 3281 
Q 1444 3394 1641 3394 
Q 1925 3394 2219 3213 
L 2025 2691 
Q 1819 2813 1613 2813 
Q 1428 2813 1281 2702 
Q 1134 2591 1072 2394 
Q 978 2094 978 1738 
L 978 0 
L 416 0 
z
" transform="scale(0.015625)"/>
       <path id="ArialMT-50" d="M 494 0 
L 494 4581 
L 2222 4581 
Q 2678 4581 2919 4538 
Q 3256 4481 3484 4323 
Q 3713 4166 3852 3881 
Q 3991 3597 3991 3256 
Q 3991 2672 3619 2267 
Q 3247 1863 2275 1863 
L 1100 1863 
L 1100 0 
L 494 0 
z
M 1100 2403 
L 2284 2403 
Q 2872 2403 3119 2622 
Q 3366 2841 3366 3238 
Q 3366 3525 3220 3729 
Q 3075 3934 2838 4000 
Q 2684 4041 2272 4041 
L 1100 4041 
L 1100 2403 
z
" transform="scale(0.015625)"/>
      </defs>
      <use xlink:href="#ArialMT-28"/>
      <use xlink:href="#ArialMT-25" transform="translate(33.300781 0)"/>
      <use xlink:href="#ArialMT-29" transform="translate(122.216797 0)"/>
      <use xlink:href="#ArialMT-20" transform="translate(155.517578 0)"/>
      <use xlink:href="#ArialMT-48" transform="translate(183.300781 0)"/>
      <use xlink:href="#ArialMT-79" transform="translate(255.517578 0)"/>
      <use xlink:href="#ArialMT-70" transform="translate(305.517578 0)"/>
      <use xlink:href="#ArialMT-65" transform="translate(361.132812 0)"/>
      <use xlink:href="#ArialMT-72" transform="translate(416.748047 0)"/>
      <use xlink:href="#ArialMT-50" transform="translate(450.048828 0)"/>
     </g>
    </g>
   </g>
   <g id="patch_3">
    <path d="M 52.295313 124.2 
L 65.255313 124.2 
L 65.255313 22.626843 
L 52.295313 22.626843 
z
" clip-path="url(#pc5ef13d67c)" style="fill: #4b4279; opacity: 0.8; stroke: #ffffff; stroke-linejoin: miter"/>
   </g>
   <g id="patch_4">
    <path d="M 133.295312 124.2 
L 146.255313 124.2 
L 146.255313 39.944 
L 133.295312 39.944 
z
" clip-path="url(#pc5ef13d67c)" style="fill: #4b4279; opacity: 0.8; stroke: #ffffff; stroke-linejoin: miter"/>
   </g>
   <g id="patch_5">
    <path d="M 65.255313 124.2 
L 78.215313 124.2 
L 78.215313 24.895889 
L 65.255313 24.895889 
z
" clip-path="url(#pc5ef13d67c)" style="fill: #3c6682; opacity: 0.8; stroke: #ffffff; stroke-linejoin: miter"/>
   </g>
   <g id="patch_6">
    <path d="M 146.255313 124.2 
L 159.215313 124.2 
L 159.215313 46.189032 
L 146.255313 46.189032 
z
" clip-path="url(#pc5ef13d67c)" style="fill: #3c6682; opacity: 0.8; stroke: #ffffff; stroke-linejoin: miter"/>
   </g>
   <g id="patch_7">
    <path d="M 78.215312 124.2 
L 91.175312 124.2 
L 91.175312 50.560236 
L 78.215312 50.560236 
z
" clip-path="url(#pc5ef13d67c)" style="fill: #2f837f; opacity: 0.8; stroke: #ffffff; stroke-linejoin: miter"/>
   </g>
   <g id="patch_8">
    <path d="M 159.215313 124.2 
L 172.175313 124.2 
L 172.175313 75.737523 
L 159.215313 75.737523 
z
" clip-path="url(#pc5ef13d67c)" style="fill: #2f837f; opacity: 0.8; stroke: #ffffff; stroke-linejoin: miter"/>
   </g>
   <g id="patch_9">
    <path d="M 91.175313 124.2 
L 104.135312 124.2 
L 104.135312 72.739783 
L 91.175313 72.739783 
z
" clip-path="url(#pc5ef13d67c)" style="fill: #45a778; opacity: 0.8; stroke: #ffffff; stroke-linejoin: miter"/>
   </g>
   <g id="patch_10">
    <path d="M 172.175312 124.2 
L 185.135312 124.2 
L 185.135312 94.252372 
L 172.175312 94.252372 
z
" clip-path="url(#pc5ef13d67c)" style="fill: #45a778; opacity: 0.8; stroke: #ffffff; stroke-linejoin: miter"/>
   </g>
   <g id="patch_11">
    <path d="M 104.135312 124.2 
L 117.095313 124.2 
L 117.095313 105.628966 
L 104.135312 105.628966 
z
" clip-path="url(#pc5ef13d67c)" style="fill: #8fc456; opacity: 0.8; stroke: #ffffff; stroke-linejoin: miter"/>
   </g>
   <g id="patch_12">
    <path d="M 185.135312 124.2 
L 198.095312 124.2 
L 198.095312 110.106672 
L 185.135312 110.106672 
z
" clip-path="url(#pc5ef13d67c)" style="fill: #8fc456; opacity: 0.8; stroke: #ffffff; stroke-linejoin: miter"/>
   </g>
   <g id="line2d_7">
    <path d="M 58.775312 27.815129 
L 58.775312 17.753643 
" clip-path="url(#pc5ef13d67c)" style="fill: none; stroke: #424242; stroke-width: 2.7; stroke-linecap: round"/>
   </g>
   <g id="line2d_8">
    <path d="M 139.775312 43.941744 
L 139.775312 35.677899 
" clip-path="url(#pc5ef13d67c)" style="fill: none; stroke: #424242; stroke-width: 2.7; stroke-linecap: round"/>
   </g>
   <g id="line2d_9">
    <path d="M 71.735312 28.9752 
L 71.735312 21.229688 
" clip-path="url(#pc5ef13d67c)" style="fill: none; stroke: #424242; stroke-width: 2.7; stroke-linecap: round"/>
   </g>
   <g id="line2d_10">
    <path d="M 152.735312 51.934351 
L 152.735312 39.608918 
" clip-path="url(#pc5ef13d67c)" style="fill: none; stroke: #424242; stroke-width: 2.7; stroke-linecap: round"/>
   </g>
   <g id="line2d_11">
    <path d="M 84.695312 56.092838 
L 84.695312 45.618652 
" clip-path="url(#pc5ef13d67c)" style="fill: none; stroke: #424242; stroke-width: 2.7; stroke-linecap: round"/>
   </g>
   <g id="line2d_12">
    <path d="M 165.695312 83.094496 
L 165.695312 67.175121 
" clip-path="url(#pc5ef13d67c)" style="fill: none; stroke: #424242; stroke-width: 2.7; stroke-linecap: round"/>
   </g>
   <g id="line2d_13">
    <path d="M 97.655312 74.948861 
L 97.655312 70.307063 
" clip-path="url(#pc5ef13d67c)" style="fill: none; stroke: #424242; stroke-width: 2.7; stroke-linecap: round"/>
   </g>
   <g id="line2d_14">
    <path d="M 178.655312 103.967178 
L 178.655312 84.346004 
" clip-path="url(#pc5ef13d67c)" style="fill: none; stroke: #424242; stroke-width: 2.7; stroke-linecap: round"/>
   </g>
   <g id="line2d_15">
    <path d="M 110.615313 114.399581 
L 110.615313 95.320261 
" clip-path="url(#pc5ef13d67c)" style="fill: none; stroke: #424242; stroke-width: 2.7; stroke-linecap: round"/>
   </g>
   <g id="line2d_16">
    <path d="M 191.615313 118.163447 
L 191.615313 100.977284 
" clip-path="url(#pc5ef13d67c)" style="fill: none; stroke: #424242; stroke-width: 2.7; stroke-linecap: round"/>
   </g>
   <g id="patch_13">
    <path d="M 44.195312 124.2 
L 44.195312 7.2 
" style="fill: none; stroke: #262626; stroke-width: 1.25; stroke-linejoin: miter; stroke-linecap: square"/>
   </g>
   <g id="patch_14">
    <path d="M 206.195312 124.2 
L 206.195312 7.2 
" style="fill: none; stroke: #262626; stroke-width: 1.25; stroke-linejoin: miter; stroke-linecap: square"/>
   </g>
   <g id="patch_15">
    <path d="M 44.195312 124.2 
L 206.195312 124.2 
" style="fill: none; stroke: #262626; stroke-width: 1.25; stroke-linejoin: miter; stroke-linecap: square"/>
   </g>
   <g id="patch_16">
    <path d="M 44.195312 7.2 
L 206.195312 7.2 
" style="fill: none; stroke: #262626; stroke-width: 1.25; stroke-linejoin: miter; stroke-linecap: square"/>
   </g>
   <g id="PathCollection_1">
    <defs>
     <path id="C0_0_a928c9e5cc" d="M 0 2.5 
C 0.663008 2.5 1.29895 2.236584 1.767767 1.767767 
C 2.236584 1.29895 2.5 0.663008 2.5 -0 
C 2.5 -0.663008 2.236584 -1.29895 1.767767 -1.767767 
C 1.29895 -2.236584 0.663008 -2.5 0 -2.5 
C -0.663008 -2.5 -1.29895 -2.236584 -1.767767 -1.767767 
C -2.236584 -1.29895 -2.5 -0.663008 -2.5 0 
C -2.5 0.663008 -2.236584 1.29895 -1.767767 1.767767 
C -1.29895 2.236584 -0.663008 2.5 0 2.5 
z
"/>
    </defs>
    <g clip-path="url(#pc5ef13d67c)">
     <use xlink:href="#C0_0_a928c9e5cc" x="58.914423" y="20.202143" style="fill: #ffffff; stroke: #000000; stroke-width: 0.4"/>
    </g>
    <g clip-path="url(#pc5ef13d67c)">
     <use xlink:href="#C0_0_a928c9e5cc" x="60.365249" y="20.669476" style="fill: #ffffff; stroke: #000000; stroke-width: 0.4"/>
    </g>
    <g clip-path="url(#pc5ef13d67c)">
     <use xlink:href="#C0_0_a928c9e5cc" x="57.914269" y="20.133052" style="fill: #ffffff; stroke: #000000; stroke-width: 0.4"/>
    </g>
   </g>
   <g id="PathCollection_2">
    <defs>
     <path id="C1_0_65ae7e84d7" d="M 0 2.5 
C 0.663008 2.5 1.29895 2.236584 1.767767 1.767767 
C 2.236584 1.29895 2.5 0.663008 2.5 -0 
C 2.5 -0.663008 2.236584 -1.29895 1.767767 -1.767767 
C 1.29895 -2.236584 0.663008 -2.5 0 -2.5 
C -0.663008 -2.5 -1.29895 -2.236584 -1.767767 -1.767767 
C -2.236584 -1.29895 -2.5 -0.663008 -2.5 0 
C -2.5 0.663008 -2.236584 1.29895 -1.767767 1.767767 
C -1.29895 2.236584 -0.663008 2.5 0 2.5 
z
"/>
    </defs>
    <g clip-path="url(#pc5ef13d67c)">
     <use xlink:href="#C1_0_65ae7e84d7" x="71.716505" y="20.159934" style="fill: #ffffff; stroke: #000000; stroke-width: 0.4"/>
    </g>
    <g clip-path="url(#pc5ef13d67c)">
     <use xlink:href="#C1_0_65ae7e84d7" x="72.820506" y="23.556999" style="fill: #ffffff; stroke: #000000; stroke-width: 0.4"/>
    </g>
    <g clip-path="url(#pc5ef13d67c)">
     <use xlink:href="#C1_0_65ae7e84d7" x="71.148156" y="26.846342" style="fill: #ffffff; stroke: #000000; stroke-width: 0.4"/>
    </g>
   </g>
   <g id="PathCollection_3">
    <defs>
     <path id="C2_0_d3722b0a50" d="M 0 2.5 
C 0.663008 2.5 1.29895 2.236584 1.767767 1.767767 
C 2.236584 1.29895 2.5 0.663008 2.5 -0 
C 2.5 -0.663008 2.236584 -1.29895 1.767767 -1.767767 
C 1.29895 -2.236584 0.663008 -2.5 0 -2.5 
C -0.663008 -2.5 -1.29895 -2.236584 -1.767767 -1.767767 
C -2.236584 -1.29895 -2.5 -0.663008 -2.5 0 
C -2.5 0.663008 -2.236584 1.29895 -1.767767 1.767767 
C -1.29895 2.236584 -0.663008 2.5 0 2.5 
z
"/>
    </defs>
    <g clip-path="url(#pc5ef13d67c)">
     <use xlink:href="#C2_0_d3722b0a50" x="85.302254" y="61.066981" style="fill: #ffffff; stroke: #000000; stroke-width: 0.4"/>
    </g>
    <g clip-path="url(#pc5ef13d67c)">
     <use xlink:href="#C2_0_d3722b0a50" x="85.858542" y="60.599257" style="fill: #ffffff; stroke: #000000; stroke-width: 0.4"/>
    </g>
    <g clip-path="url(#pc5ef13d67c)">
     <use xlink:href="#C2_0_d3722b0a50" x="83.490539" y="62.593765" style="fill: #ffffff; stroke: #000000; stroke-width: 0.4"/>
    </g>
   </g>
   <g id="PathCollection_4">
    <defs>
     <path id="C3_0_5238c44e99" d="M 0 2.5 
C 0.663008 2.5 1.29895 2.236584 1.767767 1.767767 
C 2.236584 1.29895 2.5 0.663008 2.5 -0 
C 2.5 -0.663008 2.236584 -1.29895 1.767767 -1.767767 
C 1.29895 -2.236584 0.663008 -2.5 0 -2.5 
C -0.663008 -2.5 -1.29895 -2.236584 -1.767767 -1.767767 
C -2.236584 -1.29895 -2.5 -0.663008 -2.5 0 
C -2.5 0.663008 -2.236584 1.29895 -1.767767 1.767767 
C -1.29895 2.236584 -0.663008 2.5 0 2.5 
z
"/>
    </defs>
    <g clip-path="url(#pc5ef13d67c)">
     <use xlink:href="#C3_0_5238c44e99" x="97.282958" y="71.845201" style="fill: #ffffff; stroke: #000000; stroke-width: 0.4"/>
    </g>
    <g clip-path="url(#pc5ef13d67c)">
     <use xlink:href="#C3_0_5238c44e99" x="98.263027" y="73.823212" style="fill: #ffffff; stroke: #000000; stroke-width: 0.4"/>
    </g>
    <g clip-path="url(#pc5ef13d67c)">
     <use xlink:href="#C3_0_5238c44e99" x="99.157481" y="75.359402" style="fill: #ffffff; stroke: #000000; stroke-width: 0.4"/>
    </g>
   </g>
   <g id="PathCollection_5">
    <defs>
     <path id="C4_0_8c61a80315" d="M 0 2.5 
C 0.663008 2.5 1.29895 2.236584 1.767767 1.767767 
C 2.236584 1.29895 2.5 0.663008 2.5 -0 
C 2.5 -0.663008 2.236584 -1.29895 1.767767 -1.767767 
C 1.29895 -2.236584 0.663008 -2.5 0 -2.5 
C -0.663008 -2.5 -1.29895 -2.236584 -1.767767 -1.767767 
C -2.236584 -1.29895 -2.5 -0.663008 -2.5 0 
C -2.5 0.663008 -2.236584 1.29895 -1.767767 1.767767 
C -1.29895 2.236584 -0.663008 2.5 0 2.5 
z
"/>
    </defs>
    <g clip-path="url(#pc5ef13d67c)">
     <use xlink:href="#C4_0_8c61a80315" x="110.699226" y="81.68645" style="fill: #ffffff; stroke: #000000; stroke-width: 0.4"/>
    </g>
    <g clip-path="url(#pc5ef13d67c)">
     <use xlink:href="#C4_0_8c61a80315" x="110.374537" y="86.411014" style="fill: #ffffff; stroke: #000000; stroke-width: 0.4"/>
    </g>
    <g clip-path="url(#pc5ef13d67c)">
     <use xlink:href="#C4_0_8c61a80315" x="109.596705" y="91.564037" style="fill: #ffffff; stroke: #000000; stroke-width: 0.4"/>
    </g>
   </g>
   <g id="PathCollection_6">
    <defs>
     <path id="C5_0_a30201366b" d="M 0 2.5 
C 0.663008 2.5 1.29895 2.236584 1.767767 1.767767 
C 2.236584 1.29895 2.5 0.663008 2.5 -0 
C 2.5 -0.663008 2.236584 -1.29895 1.767767 -1.767767 
C 1.29895 -2.236584 0.663008 -2.5 0 -2.5 
C -0.663008 -2.5 -1.29895 -2.236584 -1.767767 -1.767767 
C -2.236584 -1.29895 -2.5 -0.663008 -2.5 0 
C -2.5 0.663008 -2.236584 1.29895 -1.767767 1.767767 
C -1.29895 2.236584 -0.663008 2.5 0 2.5 
z
"/>
    </defs>
    <g clip-path="url(#pc5ef13d67c)">
     <use xlink:href="#C5_0_a30201366b" x="140.487046" y="29.393656" style="fill: #ffffff; stroke: #000000; stroke-width: 0.4"/>
    </g>
    <g clip-path="url(#pc5ef13d67c)">
     <use xlink:href="#C5_0_a30201366b" x="138.735581" y="31.568531" style="fill: #ffffff; stroke: #000000; stroke-width: 0.4"/>
    </g>
    <g clip-path="url(#pc5ef13d67c)">
     <use xlink:href="#C5_0_a30201366b" x="140.833416" y="37.866769" style="fill: #ffffff; stroke: #000000; stroke-width: 0.4"/>
    </g>
   </g>
   <g id="PathCollection_7">
    <defs>
     <path id="C6_0_f44945fffd" d="M 0 2.5 
C 0.663008 2.5 1.29895 2.236584 1.767767 1.767767 
C 2.236584 1.29895 2.5 0.663008 2.5 -0 
C 2.5 -0.663008 2.236584 -1.29895 1.767767 -1.767767 
C 1.29895 -2.236584 0.663008 -2.5 0 -2.5 
C -0.663008 -2.5 -1.29895 -2.236584 -1.767767 -1.767767 
C -2.236584 -1.29895 -2.5 -0.663008 -2.5 0 
C -2.5 0.663008 -2.236584 1.29895 -1.767767 1.767767 
C -1.29895 2.236584 -0.663008 2.5 0 2.5 
z
"/>
    </defs>
    <g clip-path="url(#pc5ef13d67c)">
     <use xlink:href="#C6_0_f44945fffd" x="153.35444" y="34.4341" style="fill: #ffffff; stroke: #000000; stroke-width: 0.4"/>
    </g>
    <g clip-path="url(#pc5ef13d67c)">
     <use xlink:href="#C6_0_f44945fffd" x="153.121973" y="28.983817" style="fill: #ffffff; stroke: #000000; stroke-width: 0.4"/>
    </g>
    <g clip-path="url(#pc5ef13d67c)">
     <use xlink:href="#C6_0_f44945fffd" x="152.320535" y="41.396316" style="fill: #ffffff; stroke: #000000; stroke-width: 0.4"/>
    </g>
   </g>
   <g id="PathCollection_8">
    <defs>
     <path id="C7_0_f560f708b3" d="M 0 2.5 
C 0.663008 2.5 1.29895 2.236584 1.767767 1.767767 
C 2.236584 1.29895 2.5 0.663008 2.5 -0 
C 2.5 -0.663008 2.236584 -1.29895 1.767767 -1.767767 
C 1.29895 -2.236584 0.663008 -2.5 0 -2.5 
C -0.663008 -2.5 -1.29895 -2.236584 -1.767767 -1.767767 
C -2.236584 -1.29895 -2.5 -0.663008 -2.5 0 
C -2.5 0.663008 -2.236584 1.29895 -1.767767 1.767767 
C -1.29895 2.236584 -0.663008 2.5 0 2.5 
z
"/>
    </defs>
    <g clip-path="url(#pc5ef13d67c)">
     <use xlink:href="#C7_0_f560f708b3" x="166.584461" y="60.485941" style="fill: #ffffff; stroke: #000000; stroke-width: 0.4"/>
    </g>
    <g clip-path="url(#pc5ef13d67c)">
     <use xlink:href="#C7_0_f560f708b3" x="165.526402" y="60.8079" style="fill: #ffffff; stroke: #000000; stroke-width: 0.4"/>
    </g>
    <g clip-path="url(#pc5ef13d67c)">
     <use xlink:href="#C7_0_f560f708b3" x="166.02116" y="62.422366" style="fill: #ffffff; stroke: #000000; stroke-width: 0.4"/>
    </g>
   </g>
   <g id="PathCollection_9">
    <defs>
     <path id="C8_0_efdaf0f7a4" d="M 0 2.5 
C 0.663008 2.5 1.29895 2.236584 1.767767 1.767767 
C 2.236584 1.29895 2.5 0.663008 2.5 -0 
C 2.5 -0.663008 2.236584 -1.29895 1.767767 -1.767767 
C 1.29895 -2.236584 0.663008 -2.5 0 -2.5 
C -0.663008 -2.5 -1.29895 -2.236584 -1.767767 -1.767767 
C -2.236584 -1.29895 -2.5 -0.663008 -2.5 0 
C -2.5 0.663008 -2.236584 1.29895 -1.767767 1.767767 
C -1.29895 2.236584 -0.663008 2.5 0 2.5 
z
"/>
    </defs>
    <g clip-path="url(#pc5ef13d67c)">
     <use xlink:href="#C8_0_efdaf0f7a4" x="178.788828" y="73.153947" style="fill: #ffffff; stroke: #000000; stroke-width: 0.4"/>
    </g>
    <g clip-path="url(#pc5ef13d67c)">
     <use xlink:href="#C8_0_efdaf0f7a4" x="177.58019" y="69.403914" style="fill: #ffffff; stroke: #000000; stroke-width: 0.4"/>
    </g>
   </g>
   <g id="PathCollection_10">
    <defs>
     <path id="C9_0_a7b6a9a24e" d="M 0 2.5 
C 0.663008 2.5 1.29895 2.236584 1.767767 1.767767 
C 2.236584 1.29895 2.5 0.663008 2.5 -0 
C 2.5 -0.663008 2.236584 -1.29895 1.767767 -1.767767 
C 1.29895 -2.236584 0.663008 -2.5 0 -2.5 
C -0.663008 -2.5 -1.29895 -2.236584 -1.767767 -1.767767 
C -2.236584 -1.29895 -2.5 -0.663008 -2.5 0 
C -2.5 0.663008 -2.236584 1.29895 -1.767767 1.767767 
C -1.29895 2.236584 -0.663008 2.5 0 2.5 
z
"/>
    </defs>
    <g clip-path="url(#pc5ef13d67c)">
     <use xlink:href="#C9_0_a7b6a9a24e" x="190.562436" y="89.16263" style="fill: #ffffff; stroke: #000000; stroke-width: 0.4"/>
    </g>
    <g clip-path="url(#pc5ef13d67c)">
     <use xlink:href="#C9_0_a7b6a9a24e" x="192.362703" y="89.4972" style="fill: #ffffff; stroke: #000000; stroke-width: 0.4"/>
    </g>
    <g clip-path="url(#pc5ef13d67c)">
     <use xlink:href="#C9_0_a7b6a9a24e" x="192.678382" y="95.725944" style="fill: #ffffff; stroke: #000000; stroke-width: 0.4"/>
    </g>
   </g>
   <g id="PathCollection_11">
    <path d="M 57.455766 10.271429 
L 54.955766 15.271429 
L 59.955766 15.271429 
z
" clip-path="url(#pc5ef13d67c)" style="fill: #ffffff; stroke: #000000; stroke-width: 0.4"/>
    <path d="M 57.658758 11.498977 
L 55.158758 16.498977 
L 60.158758 16.498977 
z
" clip-path="url(#pc5ef13d67c)" style="fill: #ffffff; stroke: #000000; stroke-width: 0.4"/>
    <path d="M 59.379834 14.48411 
L 56.879834 19.48411 
L 61.879834 19.48411 
z
" clip-path="url(#pc5ef13d67c)" style="fill: #ffffff; stroke: #000000; stroke-width: 0.4"/>
   </g>
   <g id="PathCollection_12">
    <path d="M 72.927087 14.369766 
L 70.427087 19.369766 
L 75.427087 19.369766 
z
" clip-path="url(#pc5ef13d67c)" style="fill: #ffffff; stroke: #000000; stroke-width: 0.4"/>
    <path d="M 70.933458 18.382061 
L 68.433458 23.382061 
L 73.433458 23.382061 
z
" clip-path="url(#pc5ef13d67c)" style="fill: #ffffff; stroke: #000000; stroke-width: 0.4"/>
    <path d="M 72.31952 18.721765 
L 69.81952 23.721765 
L 74.81952 23.721765 
z
" clip-path="url(#pc5ef13d67c)" style="fill: #ffffff; stroke: #000000; stroke-width: 0.4"/>
   </g>
   <g id="PathCollection_13">
    <path d="M 84.87116 46.559242 
L 82.37116 51.559242 
L 87.37116 51.559242 
z
" clip-path="url(#pc5ef13d67c)" style="fill: #ffffff; stroke: #000000; stroke-width: 0.4"/>
    <path d="M 85.056345 44.944914 
L 82.556345 49.944914 
L 87.556345 49.944914 
z
" clip-path="url(#pc5ef13d67c)" style="fill: #ffffff; stroke: #000000; stroke-width: 0.4"/>
    <path d="M 85.055376 44.81747 
L 82.555376 49.81747 
L 87.555376 49.81747 
z
" clip-path="url(#pc5ef13d67c)" style="fill: #ffffff; stroke: #000000; stroke-width: 0.4"/>
   </g>
   <g id="PathCollection_14">
    <path d="M 97.408891 73.610341 
L 94.908891 78.610341 
L 99.908891 78.610341 
z
" clip-path="url(#pc5ef13d67c)" style="fill: #ffffff; stroke: #000000; stroke-width: 0.4"/>
    <path d="M 96.1807 69.839435 
L 93.6807 74.839435 
L 98.6807 74.839435 
z
" clip-path="url(#pc5ef13d67c)" style="fill: #ffffff; stroke: #000000; stroke-width: 0.4"/>
    <path d="M 96.963024 74.829401 
L 94.463024 79.829401 
L 99.463024 79.829401 
z
" clip-path="url(#pc5ef13d67c)" style="fill: #ffffff; stroke: #000000; stroke-width: 0.4"/>
   </g>
   <g id="PathCollection_15">
    <path d="M 109.701093 117.739026 
L 107.201093 122.739026 
L 112.201093 122.739026 
z
" clip-path="url(#pc5ef13d67c)" style="fill: #ffffff; stroke: #000000; stroke-width: 0.4"/>
    <path d="M 110.980163 116.797729 
L 108.480163 121.797729 
L 113.480163 121.797729 
z
" clip-path="url(#pc5ef13d67c)" style="fill: #ffffff; stroke: #000000; stroke-width: 0.4"/>
    <path d="M 110.753618 114.824816 
L 108.253618 119.824816 
L 113.253618 119.824816 
z
" clip-path="url(#pc5ef13d67c)" style="fill: #ffffff; stroke: #000000; stroke-width: 0.4"/>
   </g>
   <g id="PathCollection_16">
    <path d="M 139.698975 48.051873 
L 137.198975 53.051873 
L 142.198975 53.051873 
z
" clip-path="url(#pc5ef13d67c)" style="fill: #ffffff; stroke: #000000; stroke-width: 0.4"/>
    <path d="M 138.449449 44.789106 
L 135.949449 49.789106 
L 140.949449 49.789106 
z
" clip-path="url(#pc5ef13d67c)" style="fill: #ffffff; stroke: #000000; stroke-width: 0.4"/>
    <path d="M 140.599363 36.095125 
L 138.099363 41.095125 
L 143.099363 41.095125 
z
" clip-path="url(#pc5ef13d67c)" style="fill: #ffffff; stroke: #000000; stroke-width: 0.4"/>
   </g>
   <g id="PathCollection_17">
    <path d="M 152.806343 54.325605 
L 150.306343 59.325605 
L 155.306343 59.325605 
z
" clip-path="url(#pc5ef13d67c)" style="fill: #ffffff; stroke: #000000; stroke-width: 0.4"/>
    <path d="M 153.553228 52.331736 
L 151.053228 57.331736 
L 156.053228 57.331736 
z
" clip-path="url(#pc5ef13d67c)" style="fill: #ffffff; stroke: #000000; stroke-width: 0.4"/>
    <path d="M 153.288534 51.613963 
L 150.788534 56.613963 
L 155.788534 56.613963 
z
" clip-path="url(#pc5ef13d67c)" style="fill: #ffffff; stroke: #000000; stroke-width: 0.4"/>
   </g>
   <g id="PathCollection_18">
    <path d="M 166.173266 89.838586 
L 163.673266 94.838586 
L 168.673266 94.838586 
z
" clip-path="url(#pc5ef13d67c)" style="fill: #ffffff; stroke: #000000; stroke-width: 0.4"/>
    <path d="M 165.882093 90.098671 
L 163.382093 95.098671 
L 168.382093 95.098671 
z
" clip-path="url(#pc5ef13d67c)" style="fill: #ffffff; stroke: #000000; stroke-width: 0.4"/>
    <path d="M 165.78377 86.716659 
L 163.28377 91.716659 
L 168.28377 91.716659 
z
" clip-path="url(#pc5ef13d67c)" style="fill: #ffffff; stroke: #000000; stroke-width: 0.4"/>
   </g>
   <g id="PathCollection_19">
    <path d="M 177.59583 109.280467 
L 175.09583 114.280467 
L 180.09583 114.280467 
z
" clip-path="url(#pc5ef13d67c)" style="fill: #ffffff; stroke: #000000; stroke-width: 0.4"/>
    <path d="M 179.951709 105.948633 
L 177.451709 110.948633 
L 182.451709 110.948633 
z
" clip-path="url(#pc5ef13d67c)" style="fill: #ffffff; stroke: #000000; stroke-width: 0.4"/>
    <path d="M 178.286456 107.419912 
L 175.786456 112.419912 
L 180.786456 112.419912 
z
" clip-path="url(#pc5ef13d67c)" style="fill: #ffffff; stroke: #000000; stroke-width: 0.4"/>
   </g>
   <g id="PathCollection_20">
    <path d="M 190.12934 118.788767 
L 187.62934 123.788767 
L 192.62934 123.788767 
z
" clip-path="url(#pc5ef13d67c)" style="fill: #ffffff; stroke: #000000; stroke-width: 0.4"/>
    <path d="M 191.537655 119.091607 
L 189.037655 124.091607 
L 194.037655 124.091607 
z
" clip-path="url(#pc5ef13d67c)" style="fill: #ffffff; stroke: #000000; stroke-width: 0.4"/>
    <path d="M 192.215558 119.098386 
L 189.715558 124.098386 
L 194.715558 124.098386 
z
" clip-path="url(#pc5ef13d67c)" style="fill: #ffffff; stroke: #000000; stroke-width: 0.4"/>
   </g>
   <g id="PathCollection_21">
    <path d="M 56.727531 32.445046 
L 61.727531 32.445046 
L 61.727531 27.445046 
L 56.727531 27.445046 
z
" clip-path="url(#pc5ef13d67c)" style="fill: #ffffff; stroke: #000000; stroke-width: 0.4"/>
    <path d="M 56.740121 36.961355 
L 61.740121 36.961355 
L 61.740121 31.961355 
L 56.740121 31.961355 
z
" clip-path="url(#pc5ef13d67c)" style="fill: #ffffff; stroke: #000000; stroke-width: 0.4"/>
    <path d="M 54.897346 36.976001 
L 59.897346 36.976001 
L 59.897346 31.976001 
L 54.897346 31.976001 
z
" clip-path="url(#pc5ef13d67c)" style="fill: #ffffff; stroke: #000000; stroke-width: 0.4"/>
   </g>
   <g id="PathCollection_22">
    <path d="M 70.652828 26.845029 
L 75.652828 26.845029 
L 75.652828 21.845029 
L 70.652828 21.845029 
z
" clip-path="url(#pc5ef13d67c)" style="fill: #ffffff; stroke: #000000; stroke-width: 0.4"/>
    <path d="M 69.718381 35.531787 
L 74.718381 35.531787 
L 74.718381 30.531787 
L 69.718381 30.531787 
z
" clip-path="url(#pc5ef13d67c)" style="fill: #ffffff; stroke: #000000; stroke-width: 0.4"/>
    <path d="M 69.504082 39.649314 
L 74.504082 39.649314 
L 74.504082 34.649314 
L 69.504082 34.649314 
z
" clip-path="url(#pc5ef13d67c)" style="fill: #ffffff; stroke: #000000; stroke-width: 0.4"/>
   </g>
   <g id="PathCollection_23">
    <path d="M 83.337909 41.117227 
L 88.337909 41.117227 
L 88.337909 36.117227 
L 83.337909 36.117227 
z
" clip-path="url(#pc5ef13d67c)" style="fill: #ffffff; stroke: #000000; stroke-width: 0.4"/>
    <path d="M 81.375655 46.383415 
L 86.375655 46.383415 
L 86.375655 41.383415 
L 81.375655 41.383415 
z
" clip-path="url(#pc5ef13d67c)" style="fill: #ffffff; stroke: #000000; stroke-width: 0.4"/>
    <path d="M 81.542178 46.959854 
L 86.542178 46.959854 
L 86.542178 41.959854 
L 81.542178 41.959854 
z
" clip-path="url(#pc5ef13d67c)" style="fill: #ffffff; stroke: #000000; stroke-width: 0.4"/>
   </g>
   <g id="PathCollection_24">
    <path d="M 96.022044 68.121685 
L 101.022044 68.121685 
L 101.022044 63.121685 
L 96.022044 63.121685 
z
" clip-path="url(#pc5ef13d67c)" style="fill: #ffffff; stroke: #000000; stroke-width: 0.4"/>
    <path d="M 95.972417 71.037883 
L 100.972417 71.037883 
L 100.972417 66.037883 
L 95.972417 66.037883 
z
" clip-path="url(#pc5ef13d67c)" style="fill: #ffffff; stroke: #000000; stroke-width: 0.4"/>
    <path d="M 94.287504 76.191485 
L 99.287504 76.191485 
L 99.287504 71.191485 
L 94.287504 71.191485 
z
" clip-path="url(#pc5ef13d67c)" style="fill: #ffffff; stroke: #000000; stroke-width: 0.4"/>
   </g>
   <g id="PathCollection_25">
    <path d="M 107.634825 114.317521 
L 112.634825 114.317521 
L 112.634825 109.317521 
L 107.634825 109.317521 
z
" clip-path="url(#pc5ef13d67c)" style="fill: #ffffff; stroke: #000000; stroke-width: 0.4"/>
    <path d="M 107.830207 113.715682 
L 112.830207 113.715682 
L 112.830207 108.715682 
L 107.830207 108.715682 
z
" clip-path="url(#pc5ef13d67c)" style="fill: #ffffff; stroke: #000000; stroke-width: 0.4"/>
    <path d="M 107.205901 113.604421 
L 112.205901 113.604421 
L 112.205901 108.604421 
L 107.205901 108.604421 
z
" clip-path="url(#pc5ef13d67c)" style="fill: #ffffff; stroke: #000000; stroke-width: 0.4"/>
   </g>
   <g id="PathCollection_26">
    <path d="M 137.687034 41.561306 
L 142.687034 41.561306 
L 142.687034 36.561306 
L 137.687034 36.561306 
z
" clip-path="url(#pc5ef13d67c)" style="fill: #ffffff; stroke: #000000; stroke-width: 0.4"/>
    <path d="M 136.771779 46.471963 
L 141.771779 46.471963 
L 141.771779 41.471963 
L 136.771779 41.471963 
z
" clip-path="url(#pc5ef13d67c)" style="fill: #ffffff; stroke: #000000; stroke-width: 0.4"/>
    <path d="M 136.87059 43.697674 
L 141.87059 43.697674 
L 141.87059 38.697674 
L 136.87059 38.697674 
z
" clip-path="url(#pc5ef13d67c)" style="fill: #ffffff; stroke: #000000; stroke-width: 0.4"/>
   </g>
   <g id="PathCollection_27">
    <path d="M 149.017231 48.794809 
L 154.017231 48.794809 
L 154.017231 43.794809 
L 149.017231 43.794809 
z
" clip-path="url(#pc5ef13d67c)" style="fill: #ffffff; stroke: #000000; stroke-width: 0.4"/>
    <path d="M 148.641509 50.117554 
L 153.641509 50.117554 
L 153.641509 45.117554 
L 148.641509 45.117554 
z
" clip-path="url(#pc5ef13d67c)" style="fill: #ffffff; stroke: #000000; stroke-width: 0.4"/>
    <path d="M 149.368405 53.703386 
L 154.368405 53.703386 
L 154.368405 48.703386 
L 149.368405 48.703386 
z
" clip-path="url(#pc5ef13d67c)" style="fill: #ffffff; stroke: #000000; stroke-width: 0.4"/>
   </g>
   <g id="PathCollection_28">
    <path d="M 164.599971 75.069488 
L 169.599971 75.069488 
L 169.599971 70.069488 
L 164.599971 70.069488 
z
" clip-path="url(#pc5ef13d67c)" style="fill: #ffffff; stroke: #000000; stroke-width: 0.4"/>
    <path d="M 164.113208 75.455975 
L 169.113208 75.455975 
L 169.113208 70.455975 
L 164.113208 70.455975 
z
" clip-path="url(#pc5ef13d67c)" style="fill: #ffffff; stroke: #000000; stroke-width: 0.4"/>
    <path d="M 163.538532 80.742119 
L 168.538532 80.742119 
L 168.538532 75.742119 
L 163.538532 75.742119 
z
" clip-path="url(#pc5ef13d67c)" style="fill: #ffffff; stroke: #000000; stroke-width: 0.4"/>
   </g>
   <g id="PathCollection_29">
    <path d="M 177.42254 95.831682 
L 182.42254 95.831682 
L 182.42254 90.831682 
L 177.42254 90.831682 
z
" clip-path="url(#pc5ef13d67c)" style="fill: #ffffff; stroke: #000000; stroke-width: 0.4"/>
    <path d="M 176.68771 95.724327 
L 181.68771 95.724327 
L 181.68771 90.724327 
L 176.68771 90.724327 
z
" clip-path="url(#pc5ef13d67c)" style="fill: #ffffff; stroke: #000000; stroke-width: 0.4"/>
    <path d="M 175.30301 97.256095 
L 180.30301 97.256095 
L 180.30301 92.256095 
L 175.30301 92.256095 
z
" clip-path="url(#pc5ef13d67c)" style="fill: #ffffff; stroke: #000000; stroke-width: 0.4"/>
   </g>
   <g id="PathCollection_30">
    <path d="M 189.914274 119.682936 
L 194.914274 119.682936 
L 194.914274 114.682936 
L 189.914274 114.682936 
z
" clip-path="url(#pc5ef13d67c)" style="fill: #ffffff; stroke: #000000; stroke-width: 0.4"/>
    <path d="M 190.510243 120.338715 
L 195.510243 120.338715 
L 195.510243 115.338715 
L 190.510243 115.338715 
z
" clip-path="url(#pc5ef13d67c)" style="fill: #ffffff; stroke: #000000; stroke-width: 0.4"/>
    <path d="M 188.597471 119.573867 
L 193.597471 119.573867 
L 193.597471 114.573867 
L 188.597471 114.573867 
z
" clip-path="url(#pc5ef13d67c)" style="fill: #ffffff; stroke: #000000; stroke-width: 0.4"/>
   </g>
   <g id="legend_1">
    <g id="patch_17">
     <path d="M 218.695312 19.473594 
L 240.695312 19.473594 
L 240.695312 11.773594 
L 218.695312 11.773594 
z
" style="fill: #4b4279; opacity: 0.8; stroke: #ffffff; stroke-linejoin: miter"/>
    </g>
    <g id="text_8">
     <!-- 0 uM -->
     <g style="fill: #262626" transform="translate(249.495313 19.473594) scale(0.11 -0.11)">
      <defs>
       <path id="ArialMT-75" d="M 2597 0 
L 2597 488 
Q 2209 -75 1544 -75 
Q 1250 -75 995 37 
Q 741 150 617 320 
Q 494 491 444 738 
Q 409 903 409 1263 
L 409 3319 
L 972 3319 
L 972 1478 
Q 972 1038 1006 884 
Q 1059 663 1231 536 
Q 1403 409 1656 409 
Q 1909 409 2131 539 
Q 2353 669 2445 892 
Q 2538 1116 2538 1541 
L 2538 3319 
L 3100 3319 
L 3100 0 
L 2597 0 
z
" transform="scale(0.015625)"/>
       <path id="ArialMT-4d" d="M 475 0 
L 475 4581 
L 1388 4581 
L 2472 1338 
Q 2622 884 2691 659 
Q 2769 909 2934 1394 
L 4031 4581 
L 4847 4581 
L 4847 0 
L 4263 0 
L 4263 3834 
L 2931 0 
L 2384 0 
L 1059 3900 
L 1059 0 
L 475 0 
z
" transform="scale(0.015625)"/>
      </defs>
      <use xlink:href="#ArialMT-30"/>
      <use xlink:href="#ArialMT-20" transform="translate(55.615234 0)"/>
      <use xlink:href="#ArialMT-75" transform="translate(83.398438 0)"/>
      <use xlink:href="#ArialMT-4d" transform="translate(139.013672 0)"/>
     </g>
    </g>
    <g id="patch_18">
     <path d="M 218.695312 35.033437 
L 240.695312 35.033437 
L 240.695312 27.333437 
L 218.695312 27.333437 
z
" style="fill: #3c6682; opacity: 0.8; stroke: #ffffff; stroke-linejoin: miter"/>
    </g>
    <g id="text_9">
     <!-- 0.1 uM -->
     <g style="fill: #262626" transform="translate(249.495313 35.033437) scale(0.11 -0.11)">
      <defs>
       <path id="ArialMT-2e" d="M 581 0 
L 581 641 
L 1222 641 
L 1222 0 
L 581 0 
z
" transform="scale(0.015625)"/>
       <path id="ArialMT-31" d="M 2384 0 
L 1822 0 
L 1822 3584 
Q 1619 3391 1289 3197 
Q 959 3003 697 2906 
L 697 3450 
Q 1169 3672 1522 3987 
Q 1875 4303 2022 4600 
L 2384 4600 
L 2384 0 
z
" transform="scale(0.015625)"/>
      </defs>
      <use xlink:href="#ArialMT-30"/>
      <use xlink:href="#ArialMT-2e" transform="translate(55.615234 0)"/>
      <use xlink:href="#ArialMT-31" transform="translate(83.398438 0)"/>
      <use xlink:href="#ArialMT-20" transform="translate(139.013672 0)"/>
      <use xlink:href="#ArialMT-75" transform="translate(166.796875 0)"/>
      <use xlink:href="#ArialMT-4d" transform="translate(222.412109 0)"/>
     </g>
    </g>
    <g id="patch_19">
     <path d="M 218.695312 50.593281 
L 240.695312 50.593281 
L 240.695312 42.893281 
L 218.695312 42.893281 
z
" style="fill: #2f837f; opacity: 0.8; stroke: #ffffff; stroke-linejoin: miter"/>
    </g>
    <g id="text_10">
     <!-- 1 uM -->
     <g style="fill: #262626" transform="translate(249.495313 50.593281) scale(0.11 -0.11)">
      <use xlink:href="#ArialMT-31"/>
      <use xlink:href="#ArialMT-20" transform="translate(55.615234 0)"/>
      <use xlink:href="#ArialMT-75" transform="translate(83.398438 0)"/>
      <use xlink:href="#ArialMT-4d" transform="translate(139.013672 0)"/>
     </g>
    </g>
    <g id="patch_20">
     <path d="M 218.695312 66.153125 
L 240.695312 66.153125 
L 240.695312 58.453125 
L 218.695312 58.453125 
z
" style="fill: #45a778; opacity: 0.8; stroke: #ffffff; stroke-linejoin: miter"/>
    </g>
    <g id="text_11">
     <!-- 2 uM -->
     <g style="fill: #262626" transform="translate(249.495313 66.153125) scale(0.11 -0.11)">
      <use xlink:href="#ArialMT-32"/>
      <use xlink:href="#ArialMT-20" transform="translate(55.615234 0)"/>
      <use xlink:href="#ArialMT-75" transform="translate(83.398438 0)"/>
      <use xlink:href="#ArialMT-4d" transform="translate(139.013672 0)"/>
     </g>
    </g>
    <g id="patch_21">
     <path d="M 218.695312 81.712969 
L 240.695312 81.712969 
L 240.695312 74.012969 
L 218.695312 74.012969 
z
" style="fill: #8fc456; opacity: 0.8; stroke: #ffffff; stroke-linejoin: miter"/>
    </g>
    <g id="text_12">
     <!-- 5 uM -->
     <g style="fill: #262626" transform="translate(249.495313 81.712969) scale(0.11 -0.11)">
      <defs>
       <path id="ArialMT-35" d="M 266 1200 
L 856 1250 
Q 922 819 1161 601 
Q 1400 384 1738 384 
Q 2144 384 2425 690 
Q 2706 997 2706 1503 
Q 2706 1984 2436 2262 
Q 2166 2541 1728 2541 
Q 1456 2541 1237 2417 
Q 1019 2294 894 2097 
L 366 2166 
L 809 4519 
L 3088 4519 
L 3088 3981 
L 1259 3981 
L 1013 2750 
Q 1425 3038 1878 3038 
Q 2478 3038 2890 2622 
Q 3303 2206 3303 1553 
Q 3303 931 2941 478 
Q 2500 -78 1738 -78 
Q 1113 -78 717 272 
Q 322 622 266 1200 
z
" transform="scale(0.015625)"/>
      </defs>
      <use xlink:href="#ArialMT-35"/>
      <use xlink:href="#ArialMT-20" transform="translate(55.615234 0)"/>
      <use xlink:href="#ArialMT-75" transform="translate(83.398438 0)"/>
      <use xlink:href="#ArialMT-4d" transform="translate(139.013672 0)"/>
     </g>
    </g>
   </g>
  </g>
 </g>
 <defs>
  <clipPath id="pc5ef13d67c">
   <rect x="44.195312" y="7.2" width="162" height="117"/>
  </clipPath>
 </defs>
</svg>
