<?xml version="1.0" encoding="utf-8" standalone="no"?>
<!DOCTYPE svg PUBLIC "-//W3C//DTD SVG 1.1//EN"
  "http://www.w3.org/Graphics/SVG/1.1/DTD/svg11.dtd">
<svg xmlns:xlink="http://www.w3.org/1999/xlink" width="278.829375pt" height="177.330031pt" viewBox="0 0 278.829375 177.330031" xmlns="http://www.w3.org/2000/svg" version="1.1">
 <metadata>
  <rdf:RDF xmlns:dc="http://purl.org/dc/elements/1.1/" xmlns:cc="http://creativecommons.org/ns#" xmlns:rdf="http://www.w3.org/1999/02/22-rdf-syntax-ns#">
   <cc:Work>
    <dc:type rdf:resource="http://purl.org/dc/dcmitype/StillImage"/>
    <dc:date>2025-07-28T16:55:01.654385</dc:date>
    <dc:format>image/svg+xml</dc:format>
    <dc:creator>
     <cc:Agent>
      <dc:title>Matplotlib v3.10.3, https://matplotlib.org/</dc:title>
     </cc:Agent>
    </dc:creator>
   </cc:Work>
  </rdf:RDF>
 </metadata>
 <defs>
  <style type="text/css">*{stroke-linejoin: round; stroke-linecap: butt}</style>
 </defs>
 <g id="figure_1">
  <g id="patch_1">
   <path d="M 0 177.330031 
L 278.829375 177.330031 
L 278.829375 0 
L 0 0 
z
" style="fill: #ffffff"/>
  </g>
  <g id="axes_1">
   <g id="patch_2">
    <path d="M 49.695312 138.935625 
L 211.695312 138.935625 
L 211.695312 21.935625 
L 49.695312 21.935625 
z
" style="fill: #ffffff"/>
   </g>
   <g id="matplotlib.axis_1">
    <g id="xtick_1">
     <g id="line2d_1">
      <defs>
       <path id="m7f1f98e625" d="M 0 0 
L 0 6 
" style="stroke: #262626; stroke-width: 1.25"/>
      </defs>
      <g>
       <use xlink:href="#m7f1f98e625" x="90.195312" y="138.935625" style="fill: #262626; stroke: #262626; stroke-width: 1.25"/>
      </g>
     </g>
     <g id="text_1">
      <!-- NIL -->
      <g style="fill: #262626" transform="translate(81.636797 156.309219) scale(0.11 -0.11)">
       <defs>
        <path id="ArialMT-4e" d="M 488 0 
L 488 4581 
L 1109 4581 
L 3516 984 
L 3516 4581 
L 4097 4581 
L 4097 0 
L 3475 0 
L 1069 3600 
L 1069 0 
L 488 0 
z
" transform="scale(0.015625)"/>
        <path id="ArialMT-49" d="M 597 0 
L 597 4581 
L 1203 4581 
L 1203 0 
L 597 0 
z
" transform="scale(0.015625)"/>
        <path id="ArialMT-4c" d="M 469 0 
L 469 4581 
L 1075 4581 
L 1075 541 
L 3331 541 
L 3331 0 
L 469 0 
z
" transform="scale(0.015625)"/>
       </defs>
       <use xlink:href="#ArialMT-4e"/>
       <use xlink:href="#ArialMT-49" transform="translate(72.216797 0)"/>
       <use xlink:href="#ArialMT-4c" transform="translate(100 0)"/>
      </g>
      <!-- DD -->
      <g style="fill: #262626" transform="translate(82.25125 167.943781) scale(0.11 -0.11)">
       <defs>
        <path id="ArialMT-44" d="M 494 0 
L 494 4581 
L 2072 4581 
Q 2606 4581 2888 4516 
Q 3281 4425 3559 4188 
Q 3922 3881 4101 3404 
Q 4281 2928 4281 2316 
Q 4281 1794 4159 1391 
Q 4038 988 3847 723 
Q 3656 459 3429 307 
Q 3203 156 2883 78 
Q 2563 0 2147 0 
L 494 0 
z
M 1100 541 
L 2078 541 
Q 2531 541 2789 625 
Q 3047 709 3200 863 
Q 3416 1078 3536 1442 
Q 3656 1806 3656 2325 
Q 3656 3044 3420 3430 
Q 3184 3816 2847 3947 
Q 2603 4041 2063 4041 
L 1100 4041 
L 1100 541 
z
" transform="scale(0.015625)"/>
       </defs>
       <use xlink:href="#ArialMT-44"/>
       <use xlink:href="#ArialMT-44" transform="translate(72.216797 0)"/>
      </g>
     </g>
    </g>
    <g id="xtick_2">
     <g id="line2d_2">
      <g>
       <use xlink:href="#m7f1f98e625" x="171.195312" y="138.935625" style="fill: #262626; stroke: #262626; stroke-width: 1.25"/>
      </g>
     </g>
     <g id="text_2">
      <!-- NIL -->
      <g style="fill: #262626" transform="translate(162.636797 156.309219) scale(0.11 -0.11)">
       <use xlink:href="#ArialMT-4e"/>
       <use xlink:href="#ArialMT-49" transform="translate(72.216797 0)"/>
       <use xlink:href="#ArialMT-4c" transform="translate(100 0)"/>
      </g>
      <!-- SNAP-DD -->
      <g style="fill: #262626" transform="translate(146.441875 167.943781) scale(0.11 -0.11)">
       <defs>
        <path id="ArialMT-53" d="M 288 1472 
L 859 1522 
Q 900 1178 1048 958 
Q 1197 738 1509 602 
Q 1822 466 2213 466 
Q 2559 466 2825 569 
Q 3091 672 3220 851 
Q 3350 1031 3350 1244 
Q 3350 1459 3225 1620 
Q 3100 1781 2813 1891 
Q 2628 1963 1997 2114 
Q 1366 2266 1113 2400 
Q 784 2572 623 2826 
Q 463 3081 463 3397 
Q 463 3744 659 4045 
Q 856 4347 1234 4503 
Q 1613 4659 2075 4659 
Q 2584 4659 2973 4495 
Q 3363 4331 3572 4012 
Q 3781 3694 3797 3291 
L 3216 3247 
Q 3169 3681 2898 3903 
Q 2628 4125 2100 4125 
Q 1550 4125 1298 3923 
Q 1047 3722 1047 3438 
Q 1047 3191 1225 3031 
Q 1400 2872 2139 2705 
Q 2878 2538 3153 2413 
Q 3553 2228 3743 1945 
Q 3934 1663 3934 1294 
Q 3934 928 3725 604 
Q 3516 281 3123 101 
Q 2731 -78 2241 -78 
Q 1619 -78 1198 103 
Q 778 284 539 648 
Q 300 1013 288 1472 
z
" transform="scale(0.015625)"/>
        <path id="ArialMT-41" d="M -9 0 
L 1750 4581 
L 2403 4581 
L 4278 0 
L 3588 0 
L 3053 1388 
L 1138 1388 
L 634 0 
L -9 0 
z
M 1313 1881 
L 2866 1881 
L 2388 3150 
Q 2169 3728 2063 4100 
Q 1975 3659 1816 3225 
L 1313 1881 
z
" transform="scale(0.015625)"/>
        <path id="ArialMT-50" d="M 494 0 
L 494 4581 
L 2222 4581 
Q 2678 4581 2919 4538 
Q 3256 4481 3484 4323 
Q 3713 4166 3852 3881 
Q 3991 3597 3991 3256 
Q 3991 2672 3619 2267 
Q 3247 1863 2275 1863 
L 1100 1863 
L 1100 0 
L 494 0 
z
M 1100 2403 
L 2284 2403 
Q 2872 2403 3119 2622 
Q 3366 2841 3366 3238 
Q 3366 3525 3220 3729 
Q 3075 3934 2838 4000 
Q 2684 4041 2272 4041 
L 1100 4041 
L 1100 2403 
z
" transform="scale(0.015625)"/>
        <path id="ArialMT-2d" d="M 203 1375 
L 203 1941 
L 1931 1941 
L 1931 1375 
L 203 1375 
z
" transform="scale(0.015625)"/>
       </defs>
       <use xlink:href="#ArialMT-53"/>
       <use xlink:href="#ArialMT-4e" transform="translate(66.699219 0)"/>
       <use xlink:href="#ArialMT-41" transform="translate(138.916016 0)"/>
       <use xlink:href="#ArialMT-50" transform="translate(205.615234 0)"/>
       <use xlink:href="#ArialMT-2d" transform="translate(272.314453 0)"/>
       <use xlink:href="#ArialMT-44" transform="translate(305.615234 0)"/>
       <use xlink:href="#ArialMT-44" transform="translate(377.832031 0)"/>
      </g>
     </g>
    </g>
   </g>
   <g id="matplotlib.axis_2">
    <g id="ytick_1">
     <g id="line2d_3">
      <defs>
       <path id="mdb89c7ae51" d="M 0 0 
L -6 0 
" style="stroke: #262626; stroke-width: 1.25"/>
      </defs>
      <g>
       <use xlink:href="#mdb89c7ae51" x="49.695312" y="138.935625" style="fill: #262626; stroke: #262626; stroke-width: 1.25"/>
      </g>
     </g>
     <g id="text_3">
      <!-- 0 -->
      <g style="fill: #262626" transform="translate(34.078281 142.872422) scale(0.11 -0.11)">
       <defs>
        <path id="ArialMT-30" d="M 266 2259 
Q 266 3072 433 3567 
Q 600 4063 929 4331 
Q 1259 4600 1759 4600 
Q 2128 4600 2406 4451 
Q 2684 4303 2865 4023 
Q 3047 3744 3150 3342 
Q 3253 2941 3253 2259 
Q 3253 1453 3087 958 
Q 2922 463 2592 192 
Q 2263 -78 1759 -78 
Q 1097 -78 719 397 
Q 266 969 266 2259 
z
M 844 2259 
Q 844 1131 1108 757 
Q 1372 384 1759 384 
Q 2147 384 2411 759 
Q 2675 1134 2675 2259 
Q 2675 3391 2411 3762 
Q 2147 4134 1753 4134 
Q 1366 4134 1134 3806 
Q 844 3388 844 2259 
z
" transform="scale(0.015625)"/>
       </defs>
       <use xlink:href="#ArialMT-30"/>
      </g>
     </g>
    </g>
    <g id="ytick_2">
     <g id="line2d_4">
      <g>
       <use xlink:href="#mdb89c7ae51" x="49.695312" y="105.219965" style="fill: #262626; stroke: #262626; stroke-width: 1.25"/>
      </g>
     </g>
     <g id="text_4">
      <!-- 20k -->
      <g style="fill: #262626" transform="translate(22.46125 109.156762) scale(0.11 -0.11)">
       <defs>
        <path id="ArialMT-32" d="M 3222 541 
L 3222 0 
L 194 0 
Q 188 203 259 391 
Q 375 700 629 1000 
Q 884 1300 1366 1694 
Q 2113 2306 2375 2664 
Q 2638 3022 2638 3341 
Q 2638 3675 2398 3904 
Q 2159 4134 1775 4134 
Q 1369 4134 1125 3890 
Q 881 3647 878 3216 
L 300 3275 
Q 359 3922 746 4261 
Q 1134 4600 1788 4600 
Q 2447 4600 2831 4234 
Q 3216 3869 3216 3328 
Q 3216 3053 3103 2787 
Q 2991 2522 2730 2228 
Q 2469 1934 1863 1422 
Q 1356 997 1212 845 
Q 1069 694 975 541 
L 3222 541 
z
" transform="scale(0.015625)"/>
        <path id="ArialMT-6b" d="M 425 0 
L 425 4581 
L 988 4581 
L 988 1969 
L 2319 3319 
L 3047 3319 
L 1778 2088 
L 3175 0 
L 2481 0 
L 1384 1697 
L 988 1316 
L 988 0 
L 425 0 
z
" transform="scale(0.015625)"/>
       </defs>
       <use xlink:href="#ArialMT-32"/>
       <use xlink:href="#ArialMT-30" transform="translate(55.615234 0)"/>
       <use xlink:href="#ArialMT-6b" transform="translate(111.230469 0)"/>
      </g>
     </g>
    </g>
    <g id="ytick_3">
     <g id="line2d_5">
      <g>
       <use xlink:href="#mdb89c7ae51" x="49.695312" y="71.504304" style="fill: #262626; stroke: #262626; stroke-width: 1.25"/>
      </g>
     </g>
     <g id="text_5">
      <!-- 40k -->
      <g style="fill: #262626" transform="translate(22.46125 75.441101) scale(0.11 -0.11)">
       <defs>
        <path id="ArialMT-34" d="M 2069 0 
L 2069 1097 
L 81 1097 
L 81 1613 
L 2172 4581 
L 2631 4581 
L 2631 1613 
L 3250 1613 
L 3250 1097 
L 2631 1097 
L 2631 0 
L 2069 0 
z
M 2069 1613 
L 2069 3678 
L 634 1613 
L 2069 1613 
z
" transform="scale(0.015625)"/>
       </defs>
       <use xlink:href="#ArialMT-34"/>
       <use xlink:href="#ArialMT-30" transform="translate(55.615234 0)"/>
       <use xlink:href="#ArialMT-6b" transform="translate(111.230469 0)"/>
      </g>
     </g>
    </g>
    <g id="ytick_4">
     <g id="line2d_6">
      <g>
       <use xlink:href="#mdb89c7ae51" x="49.695312" y="37.788644" style="fill: #262626; stroke: #262626; stroke-width: 1.25"/>
      </g>
     </g>
     <g id="text_6">
      <!-- 60k -->
      <g style="fill: #262626" transform="translate(22.46125 41.725441) scale(0.11 -0.11)">
       <defs>
        <path id="ArialMT-36" d="M 3184 3459 
L 2625 3416 
Q 2550 3747 2413 3897 
Q 2184 4138 1850 4138 
Q 1581 4138 1378 3988 
Q 1113 3794 959 3422 
Q 806 3050 800 2363 
Q 1003 2672 1297 2822 
Q 1591 2972 1913 2972 
Q 2475 2972 2870 2558 
Q 3266 2144 3266 1488 
Q 3266 1056 3080 686 
Q 2894 316 2569 119 
Q 2244 -78 1831 -78 
Q 1128 -78 684 439 
Q 241 956 241 2144 
Q 241 3472 731 4075 
Q 1159 4600 1884 4600 
Q 2425 4600 2770 4297 
Q 3116 3994 3184 3459 
z
M 888 1484 
Q 888 1194 1011 928 
Q 1134 663 1356 523 
Q 1578 384 1822 384 
Q 2178 384 2434 671 
Q 2691 959 2691 1453 
Q 2691 1928 2437 2201 
Q 2184 2475 1800 2475 
Q 1419 2475 1153 2201 
Q 888 1928 888 1484 
z
" transform="scale(0.015625)"/>
       </defs>
       <use xlink:href="#ArialMT-36"/>
       <use xlink:href="#ArialMT-30" transform="translate(55.615234 0)"/>
       <use xlink:href="#ArialMT-6b" transform="translate(111.230469 0)"/>
      </g>
     </g>
    </g>
    <g id="text_7">
     <!-- # mRuby2+ -->
     <g style="fill: #262626" transform="translate(15.935625 111.284062) rotate(-90) scale(0.12 -0.12)">
      <defs>
       <path id="ArialMT-23" d="M 322 -78 
L 594 1253 
L 66 1253 
L 66 1719 
L 688 1719 
L 919 2853 
L 66 2853 
L 66 3319 
L 1013 3319 
L 1284 4659 
L 1753 4659 
L 1481 3319 
L 2466 3319 
L 2738 4659 
L 3209 4659 
L 2938 3319 
L 3478 3319 
L 3478 2853 
L 2844 2853 
L 2609 1719 
L 3478 1719 
L 3478 1253 
L 2516 1253 
L 2244 -78 
L 1775 -78 
L 2044 1253 
L 1063 1253 
L 791 -78 
L 322 -78 
z
M 1156 1719 
L 2138 1719 
L 2372 2853 
L 1388 2853 
L 1156 1719 
z
" transform="scale(0.015625)"/>
       <path id="ArialMT-20" transform="scale(0.015625)"/>
       <path id="ArialMT-6d" d="M 422 0 
L 422 3319 
L 925 3319 
L 925 2853 
Q 1081 3097 1340 3245 
Q 1600 3394 1931 3394 
Q 2300 3394 2536 3241 
Q 2772 3088 2869 2813 
Q 3263 3394 3894 3394 
Q 4388 3394 4653 3120 
Q 4919 2847 4919 2278 
L 4919 0 
L 4359 0 
L 4359 2091 
Q 4359 2428 4304 2576 
Q 4250 2725 4106 2815 
Q 3963 2906 3769 2906 
Q 3419 2906 3187 2673 
Q 2956 2441 2956 1928 
L 2956 0 
L 2394 0 
L 2394 2156 
Q 2394 2531 2256 2718 
Q 2119 2906 1806 2906 
Q 1569 2906 1367 2781 
Q 1166 2656 1075 2415 
Q 984 2175 984 1722 
L 984 0 
L 422 0 
z
" transform="scale(0.015625)"/>
       <path id="ArialMT-52" d="M 503 0 
L 503 4581 
L 2534 4581 
Q 3147 4581 3465 4457 
Q 3784 4334 3975 4021 
Q 4166 3709 4166 3331 
Q 4166 2844 3850 2509 
Q 3534 2175 2875 2084 
Q 3116 1969 3241 1856 
Q 3506 1613 3744 1247 
L 4541 0 
L 3778 0 
L 3172 953 
Q 2906 1366 2734 1584 
Q 2563 1803 2427 1890 
Q 2291 1978 2150 2013 
Q 2047 2034 1813 2034 
L 1109 2034 
L 1109 0 
L 503 0 
z
M 1109 2559 
L 2413 2559 
Q 2828 2559 3062 2645 
Q 3297 2731 3419 2920 
Q 3541 3109 3541 3331 
Q 3541 3656 3305 3865 
Q 3069 4075 2559 4075 
L 1109 4075 
L 1109 2559 
z
" transform="scale(0.015625)"/>
       <path id="ArialMT-75" d="M 2597 0 
L 2597 488 
Q 2209 -75 1544 -75 
Q 1250 -75 995 37 
Q 741 150 617 320 
Q 494 491 444 738 
Q 409 903 409 1263 
L 409 3319 
L 972 3319 
L 972 1478 
Q 972 1038 1006 884 
Q 1059 663 1231 536 
Q 1403 409 1656 409 
Q 1909 409 2131 539 
Q 2353 669 2445 892 
Q 2538 1116 2538 1541 
L 2538 3319 
L 3100 3319 
L 3100 0 
L 2597 0 
z
" transform="scale(0.015625)"/>
       <path id="ArialMT-62" d="M 941 0 
L 419 0 
L 419 4581 
L 981 4581 
L 981 2947 
Q 1338 3394 1891 3394 
Q 2197 3394 2470 3270 
Q 2744 3147 2920 2923 
Q 3097 2700 3197 2384 
Q 3297 2069 3297 1709 
Q 3297 856 2875 390 
Q 2453 -75 1863 -75 
Q 1275 -75 941 416 
L 941 0 
z
M 934 1684 
Q 934 1088 1097 822 
Q 1363 388 1816 388 
Q 2184 388 2453 708 
Q 2722 1028 2722 1663 
Q 2722 2313 2464 2622 
Q 2206 2931 1841 2931 
Q 1472 2931 1203 2611 
Q 934 2291 934 1684 
z
" transform="scale(0.015625)"/>
       <path id="ArialMT-79" d="M 397 -1278 
L 334 -750 
Q 519 -800 656 -800 
Q 844 -800 956 -737 
Q 1069 -675 1141 -563 
Q 1194 -478 1313 -144 
Q 1328 -97 1363 -6 
L 103 3319 
L 709 3319 
L 1400 1397 
Q 1534 1031 1641 628 
Q 1738 1016 1872 1384 
L 2581 3319 
L 3144 3319 
L 1881 -56 
Q 1678 -603 1566 -809 
Q 1416 -1088 1222 -1217 
Q 1028 -1347 759 -1347 
Q 597 -1347 397 -1278 
z
" transform="scale(0.015625)"/>
       <path id="ArialMT-2b" d="M 1603 741 
L 1603 1997 
L 356 1997 
L 356 2522 
L 1603 2522 
L 1603 3769 
L 2134 3769 
L 2134 2522 
L 3381 2522 
L 3381 1997 
L 2134 1997 
L 2134 741 
L 1603 741 
z
" transform="scale(0.015625)"/>
      </defs>
      <use xlink:href="#ArialMT-23"/>
      <use xlink:href="#ArialMT-20" transform="translate(55.615234 0)"/>
      <use xlink:href="#ArialMT-6d" transform="translate(83.398438 0)"/>
      <use xlink:href="#ArialMT-52" transform="translate(166.699219 0)"/>
      <use xlink:href="#ArialMT-75" transform="translate(238.916016 0)"/>
      <use xlink:href="#ArialMT-62" transform="translate(294.53125 0)"/>
      <use xlink:href="#ArialMT-79" transform="translate(350.146484 0)"/>
      <use xlink:href="#ArialMT-32" transform="translate(400.146484 0)"/>
      <use xlink:href="#ArialMT-2b" transform="translate(455.761719 0)"/>
     </g>
    </g>
   </g>
   <g id="patch_3">
    <path d="M 57.795313 138.935625 
L 70.755313 138.935625 
L 70.755313 115.151053 
L 57.795313 115.151053 
z
" clip-path="url(#p1e70ac6079)" style="fill: #2f1b55; opacity: 0.8; stroke: #ffffff; stroke-linejoin: miter"/>
   </g>
   <g id="patch_4">
    <path d="M 138.795312 138.935625 
L 151.755313 138.935625 
L 151.755313 83.408742 
L 138.795312 83.408742 
z
" clip-path="url(#p1e70ac6079)" style="fill: #2f1b55; opacity: 0.8; stroke: #ffffff; stroke-linejoin: miter"/>
   </g>
   <g id="patch_5">
    <path d="M 70.755313 138.935625 
L 83.715313 138.935625 
L 83.715313 92.56718 
L 70.755313 92.56718 
z
" clip-path="url(#p1e70ac6079)" style="fill: #692c75; opacity: 0.8; stroke: #ffffff; stroke-linejoin: miter"/>
   </g>
   <g id="patch_6">
    <path d="M 151.755313 138.935625 
L 164.715313 138.935625 
L 164.715313 52.408878 
L 151.755313 52.408878 
z
" clip-path="url(#p1e70ac6079)" style="fill: #692c75; opacity: 0.8; stroke: #ffffff; stroke-linejoin: miter"/>
   </g>
   <g id="patch_7">
    <path d="M 83.715312 138.935625 
L 96.675312 138.935625 
L 96.675312 85.210001 
L 83.715312 85.210001 
z
" clip-path="url(#p1e70ac6079)" style="fill: #a74779; opacity: 0.8; stroke: #ffffff; stroke-linejoin: miter"/>
   </g>
   <g id="patch_8">
    <path d="M 164.715313 138.935625 
L 177.675313 138.935625 
L 177.675313 45.114917 
L 164.715313 45.114917 
z
" clip-path="url(#p1e70ac6079)" style="fill: #a74779; opacity: 0.8; stroke: #ffffff; stroke-linejoin: miter"/>
   </g>
   <g id="patch_9">
    <path d="M 96.675313 138.935625 
L 109.635312 138.935625 
L 109.635312 69.21754 
L 96.675313 69.21754 
z
" clip-path="url(#p1e70ac6079)" style="fill: #de7270; opacity: 0.8; stroke: #ffffff; stroke-linejoin: miter"/>
   </g>
   <g id="patch_10">
    <path d="M 177.675312 138.935625 
L 190.635312 138.935625 
L 190.635312 43.171068 
L 177.675312 43.171068 
z
" clip-path="url(#p1e70ac6079)" style="fill: #de7270; opacity: 0.8; stroke: #ffffff; stroke-linejoin: miter"/>
   </g>
   <g id="patch_11">
    <path d="M 109.635312 138.935625 
L 122.595313 138.935625 
L 122.595313 60.314217 
L 109.635312 60.314217 
z
" clip-path="url(#p1e70ac6079)" style="fill: #eeb389; opacity: 0.8; stroke: #ffffff; stroke-linejoin: miter"/>
   </g>
   <g id="patch_12">
    <path d="M 190.635312 138.935625 
L 203.595312 138.935625 
L 203.595312 39.90655 
L 190.635312 39.90655 
z
" clip-path="url(#p1e70ac6079)" style="fill: #eeb389; opacity: 0.8; stroke: #ffffff; stroke-linejoin: miter"/>
   </g>
   <g id="line2d_7">
    <path d="M 64.275312 126.374329 
L 64.275312 101.037066 
" clip-path="url(#p1e70ac6079)" style="fill: none; stroke: #424242; stroke-width: 2.7; stroke-linecap: round"/>
   </g>
   <g id="line2d_8">
    <path d="M 145.275312 96.299047 
L 145.275312 71.104356 
" clip-path="url(#p1e70ac6079)" style="fill: none; stroke: #424242; stroke-width: 2.7; stroke-linecap: round"/>
   </g>
   <g id="line2d_9">
    <path d="M 77.235312 105.95623 
L 77.235312 79.831054 
" clip-path="url(#p1e70ac6079)" style="fill: none; stroke: #424242; stroke-width: 2.7; stroke-linecap: round"/>
   </g>
   <g id="line2d_10">
    <path d="M 158.235312 56.728848 
L 158.235312 47.368717 
" clip-path="url(#p1e70ac6079)" style="fill: none; stroke: #424242; stroke-width: 2.7; stroke-linecap: round"/>
   </g>
   <g id="line2d_11">
    <path d="M 90.195312 92.522949 
L 90.195312 77.527207 
" clip-path="url(#p1e70ac6079)" style="fill: none; stroke: #424242; stroke-width: 2.7; stroke-linecap: round"/>
   </g>
   <g id="line2d_12">
    <path d="M 171.195312 49.740614 
L 171.195312 40.50076 
" clip-path="url(#p1e70ac6079)" style="fill: none; stroke: #424242; stroke-width: 2.7; stroke-linecap: round"/>
   </g>
   <g id="line2d_13">
    <path d="M 103.155312 73.873409 
L 103.155312 63.808557 
" clip-path="url(#p1e70ac6079)" style="fill: none; stroke: #424242; stroke-width: 2.7; stroke-linecap: round"/>
   </g>
   <g id="line2d_14">
    <path d="M 184.155312 47.628812 
L 184.155312 38.767002 
" clip-path="url(#p1e70ac6079)" style="fill: none; stroke: #424242; stroke-width: 2.7; stroke-linecap: round"/>
   </g>
   <g id="line2d_15">
    <path d="M 116.115313 66.992485 
L 116.115313 54.08906 
" clip-path="url(#p1e70ac6079)" style="fill: none; stroke: #424242; stroke-width: 2.7; stroke-linecap: round"/>
   </g>
   <g id="line2d_16">
    <path d="M 197.115313 44.185193 
L 197.115313 35.915328 
" clip-path="url(#p1e70ac6079)" style="fill: none; stroke: #424242; stroke-width: 2.7; stroke-linecap: round"/>
   </g>
   <g id="patch_13">
    <path d="M 49.695312 138.935625 
L 49.695312 21.935625 
" style="fill: none; stroke: #262626; stroke-width: 1.25; stroke-linejoin: miter; stroke-linecap: square"/>
   </g>
   <g id="patch_14">
    <path d="M 211.695312 138.935625 
L 211.695312 21.935625 
" style="fill: none; stroke: #262626; stroke-width: 1.25; stroke-linejoin: miter; stroke-linecap: square"/>
   </g>
   <g id="patch_15">
    <path d="M 49.695312 138.935625 
L 211.695312 138.935625 
" style="fill: none; stroke: #262626; stroke-width: 1.25; stroke-linejoin: miter; stroke-linecap: square"/>
   </g>
   <g id="patch_16">
    <path d="M 49.695312 21.935625 
L 211.695312 21.935625 
" style="fill: none; stroke: #262626; stroke-width: 1.25; stroke-linejoin: miter; stroke-linecap: square"/>
   </g>
   <g id="PathCollection_1">
    <defs>
     <path id="C0_0_9d8fb9e50e" d="M 0 2.5 
C 0.663008 2.5 1.29895 2.236584 1.767767 1.767767 
C 2.236584 1.29895 2.5 0.663008 2.5 -0 
C 2.5 -0.663008 2.236584 -1.29895 1.767767 -1.767767 
C 1.29895 -2.236584 0.663008 -2.5 0 -2.5 
C -0.663008 -2.5 -1.29895 -2.236584 -1.767767 -1.767767 
C -2.236584 -1.29895 -2.5 -0.663008 -2.5 0 
C -2.5 0.663008 -2.236584 1.29895 -1.767767 1.767767 
C -1.29895 2.236584 -0.663008 2.5 0 2.5 
z
"/>
    </defs>
    <g clip-path="url(#p1e70ac6079)">
     <use xlink:href="#C0_0_9d8fb9e50e" x="64.285564" y="137.114979" style="fill: #ffffff; stroke: #000000; stroke-width: 0.4"/>
    </g>
    <g clip-path="url(#p1e70ac6079)">
     <use xlink:href="#C0_0_9d8fb9e50e" x="63.648249" y="132.640911" style="fill: #ffffff; stroke: #000000; stroke-width: 0.4"/>
    </g>
    <g clip-path="url(#p1e70ac6079)">
     <use xlink:href="#C0_0_9d8fb9e50e" x="65.21289" y="136.373235" style="fill: #ffffff; stroke: #000000; stroke-width: 0.4"/>
    </g>
   </g>
   <g id="PathCollection_2">
    <defs>
     <path id="C1_0_1e2ea9c8c9" d="M 0 2.5 
C 0.663008 2.5 1.29895 2.236584 1.767767 1.767767 
C 2.236584 1.29895 2.5 0.663008 2.5 -0 
C 2.5 -0.663008 2.236584 -1.29895 1.767767 -1.767767 
C 1.29895 -2.236584 0.663008 -2.5 0 -2.5 
C -0.663008 -2.5 -1.29895 -2.236584 -1.767767 -1.767767 
C -2.236584 -1.29895 -2.5 -0.663008 -2.5 0 
C -2.5 0.663008 -2.236584 1.29895 -1.767767 1.767767 
C -1.29895 2.236584 -0.663008 2.5 0 2.5 
z
"/>
    </defs>
    <g clip-path="url(#p1e70ac6079)">
     <use xlink:href="#C1_0_1e2ea9c8c9" x="77.030602" y="117.462121" style="fill: #ffffff; stroke: #000000; stroke-width: 0.4"/>
    </g>
    <g clip-path="url(#p1e70ac6079)">
     <use xlink:href="#C1_0_1e2ea9c8c9" x="77.057424" y="125.091975" style="fill: #ffffff; stroke: #000000; stroke-width: 0.4"/>
    </g>
    <g clip-path="url(#p1e70ac6079)">
     <use xlink:href="#C1_0_1e2ea9c8c9" x="78.653486" y="120.670166" style="fill: #ffffff; stroke: #000000; stroke-width: 0.4"/>
    </g>
   </g>
   <g id="PathCollection_3">
    <defs>
     <path id="C2_0_fc00a78a93" d="M 0 2.5 
C 0.663008 2.5 1.29895 2.236584 1.767767 1.767767 
C 2.236584 1.29895 2.5 0.663008 2.5 -0 
C 2.5 -0.663008 2.236584 -1.29895 1.767767 -1.767767 
C 1.29895 -2.236584 0.663008 -2.5 0 -2.5 
C -0.663008 -2.5 -1.29895 -2.236584 -1.767767 -1.767767 
C -2.236584 -1.29895 -2.5 -0.663008 -2.5 0 
C -2.5 0.663008 -2.236584 1.29895 -1.767767 1.767767 
C -1.29895 2.236584 -0.663008 2.5 0 2.5 
z
"/>
    </defs>
    <g clip-path="url(#p1e70ac6079)">
     <use xlink:href="#C2_0_fc00a78a93" x="89.312116" y="104.587796" style="fill: #ffffff; stroke: #000000; stroke-width: 0.4"/>
    </g>
    <g clip-path="url(#p1e70ac6079)">
     <use xlink:href="#C2_0_fc00a78a93" x="91.115451" y="106.700082" style="fill: #ffffff; stroke: #000000; stroke-width: 0.4"/>
    </g>
    <g clip-path="url(#p1e70ac6079)">
     <use xlink:href="#C2_0_fc00a78a93" x="91.156199" y="101.263432" style="fill: #ffffff; stroke: #000000; stroke-width: 0.4"/>
    </g>
   </g>
   <g id="PathCollection_4">
    <defs>
     <path id="C3_0_ae8a0e0126" d="M 0 2.5 
C 0.663008 2.5 1.29895 2.236584 1.767767 1.767767 
C 2.236584 1.29895 2.5 0.663008 2.5 -0 
C 2.5 -0.663008 2.236584 -1.29895 1.767767 -1.767767 
C 1.29895 -2.236584 0.663008 -2.5 0 -2.5 
C -0.663008 -2.5 -1.29895 -2.236584 -1.767767 -1.767767 
C -2.236584 -1.29895 -2.5 -0.663008 -2.5 0 
C -2.5 0.663008 -2.236584 1.29895 -1.767767 1.767767 
C -1.29895 2.236584 -0.663008 2.5 0 2.5 
z
"/>
    </defs>
    <g clip-path="url(#p1e70ac6079)">
     <use xlink:href="#C3_0_ae8a0e0126" x="102.30413" y="57.498819" style="fill: #ffffff; stroke: #000000; stroke-width: 0.4"/>
    </g>
    <g clip-path="url(#p1e70ac6079)">
     <use xlink:href="#C3_0_ae8a0e0126" x="102.391015" y="59.314407" style="fill: #ffffff; stroke: #000000; stroke-width: 0.4"/>
    </g>
    <g clip-path="url(#p1e70ac6079)">
     <use xlink:href="#C3_0_ae8a0e0126" x="103.695397" y="54.671761" style="fill: #ffffff; stroke: #000000; stroke-width: 0.4"/>
    </g>
   </g>
   <g id="PathCollection_5">
    <defs>
     <path id="C4_0_98178d56e0" d="M 0 2.5 
C 0.663008 2.5 1.29895 2.236584 1.767767 1.767767 
C 2.236584 1.29895 2.5 0.663008 2.5 -0 
C 2.5 -0.663008 2.236584 -1.29895 1.767767 -1.767767 
C 1.29895 -2.236584 0.663008 -2.5 0 -2.5 
C -0.663008 -2.5 -1.29895 -2.236584 -1.767767 -1.767767 
C -2.236584 -1.29895 -2.5 -0.663008 -2.5 0 
C -2.5 0.663008 -2.236584 1.29895 -1.767767 1.767767 
C -1.29895 2.236584 -0.663008 2.5 0 2.5 
z
"/>
    </defs>
    <g clip-path="url(#p1e70ac6079)">
     <use xlink:href="#C4_0_98178d56e0" x="117.688756" y="41.807551" style="fill: #ffffff; stroke: #000000; stroke-width: 0.4"/>
    </g>
    <g clip-path="url(#p1e70ac6079)">
     <use xlink:href="#C4_0_98178d56e0" x="116.38114" y="46.443454" style="fill: #ffffff; stroke: #000000; stroke-width: 0.4"/>
    </g>
    <g clip-path="url(#p1e70ac6079)">
     <use xlink:href="#C4_0_98178d56e0" x="117.678867" y="43.805204" style="fill: #ffffff; stroke: #000000; stroke-width: 0.4"/>
    </g>
   </g>
   <g id="PathCollection_6">
    <defs>
     <path id="C5_0_cd9c75a261" d="M 0 2.5 
C 0.663008 2.5 1.29895 2.236584 1.767767 1.767767 
C 2.236584 1.29895 2.5 0.663008 2.5 -0 
C 2.5 -0.663008 2.236584 -1.29895 1.767767 -1.767767 
C 1.29895 -2.236584 0.663008 -2.5 0 -2.5 
C -0.663008 -2.5 -1.29895 -2.236584 -1.767767 -1.767767 
C -2.236584 -1.29895 -2.5 -0.663008 -2.5 0 
C -2.5 0.663008 -2.236584 1.29895 -1.767767 1.767767 
C -1.29895 2.236584 -0.663008 2.5 0 2.5 
z
"/>
    </defs>
    <g clip-path="url(#p1e70ac6079)">
     <use xlink:href="#C5_0_cd9c75a261" x="144.742903" y="124.21031" style="fill: #ffffff; stroke: #000000; stroke-width: 0.4"/>
    </g>
    <g clip-path="url(#p1e70ac6079)">
     <use xlink:href="#C5_0_cd9c75a261" x="146.227831" y="111.75406" style="fill: #ffffff; stroke: #000000; stroke-width: 0.4"/>
    </g>
    <g clip-path="url(#p1e70ac6079)">
     <use xlink:href="#C5_0_cd9c75a261" x="145.012333" y="119.018099" style="fill: #ffffff; stroke: #000000; stroke-width: 0.4"/>
    </g>
   </g>
   <g id="PathCollection_7">
    <defs>
     <path id="C6_0_6397f139b2" d="M 0 2.5 
C 0.663008 2.5 1.29895 2.236584 1.767767 1.767767 
C 2.236584 1.29895 2.5 0.663008 2.5 -0 
C 2.5 -0.663008 2.236584 -1.29895 1.767767 -1.767767 
C 1.29895 -2.236584 0.663008 -2.5 0 -2.5 
C -0.663008 -2.5 -1.29895 -2.236584 -1.767767 -1.767767 
C -2.236584 -1.29895 -2.5 -0.663008 -2.5 0 
C -2.5 0.663008 -2.236584 1.29895 -1.767767 1.767767 
C -1.29895 2.236584 -0.663008 2.5 0 2.5 
z
"/>
    </defs>
    <g clip-path="url(#p1e70ac6079)">
     <use xlink:href="#C6_0_6397f139b2" x="159.546096" y="66.603733" style="fill: #ffffff; stroke: #000000; stroke-width: 0.4"/>
    </g>
    <g clip-path="url(#p1e70ac6079)">
     <use xlink:href="#C6_0_6397f139b2" x="157.478803" y="53.766496" style="fill: #ffffff; stroke: #000000; stroke-width: 0.4"/>
    </g>
    <g clip-path="url(#p1e70ac6079)">
     <use xlink:href="#C6_0_6397f139b2" x="159.718236" y="60.10504" style="fill: #ffffff; stroke: #000000; stroke-width: 0.4"/>
    </g>
   </g>
   <g id="PathCollection_8">
    <defs>
     <path id="C7_0_d5f8c574c8" d="M 0 2.5 
C 0.663008 2.5 1.29895 2.236584 1.767767 1.767767 
C 2.236584 1.29895 2.5 0.663008 2.5 -0 
C 2.5 -0.663008 2.236584 -1.29895 1.767767 -1.767767 
C 1.29895 -2.236584 0.663008 -2.5 0 -2.5 
C -0.663008 -2.5 -1.29895 -2.236584 -1.767767 -1.767767 
C -2.236584 -1.29895 -2.5 -0.663008 -2.5 0 
C -2.5 0.663008 -2.236584 1.29895 -1.767767 1.767767 
C -1.29895 2.236584 -0.663008 2.5 0 2.5 
z
"/>
    </defs>
    <g clip-path="url(#p1e70ac6079)">
     <use xlink:href="#C7_0_d5f8c574c8" x="171.64186" y="34.066435" style="fill: #ffffff; stroke: #000000; stroke-width: 0.4"/>
    </g>
    <g clip-path="url(#p1e70ac6079)">
     <use xlink:href="#C7_0_d5f8c574c8" x="169.959457" y="39.582317" style="fill: #ffffff; stroke: #000000; stroke-width: 0.4"/>
    </g>
    <g clip-path="url(#p1e70ac6079)">
     <use xlink:href="#C7_0_d5f8c574c8" x="172.543358" y="36.927209" style="fill: #ffffff; stroke: #000000; stroke-width: 0.4"/>
    </g>
   </g>
   <g id="PathCollection_9">
    <defs>
     <path id="C8_0_818991f587" d="M 0 2.5 
C 0.663008 2.5 1.29895 2.236584 1.767767 1.767767 
C 2.236584 1.29895 2.5 0.663008 2.5 -0 
C 2.5 -0.663008 2.236584 -1.29895 1.767767 -1.767767 
C 1.29895 -2.236584 0.663008 -2.5 0 -2.5 
C -0.663008 -2.5 -1.29895 -2.236584 -1.767767 -1.767767 
C -2.236584 -1.29895 -2.5 -0.663008 -2.5 0 
C -2.5 0.663008 -2.236584 1.29895 -1.767767 1.767767 
C -1.29895 2.236584 -0.663008 2.5 0 2.5 
z
"/>
    </defs>
    <g clip-path="url(#p1e70ac6079)">
     <use xlink:href="#C8_0_818991f587" x="182.80684" y="27.507054" style="fill: #ffffff; stroke: #000000; stroke-width: 0.4"/>
    </g>
    <g clip-path="url(#p1e70ac6079)">
     <use xlink:href="#C8_0_818991f587" x="182.563231" y="36.052288" style="fill: #ffffff; stroke: #000000; stroke-width: 0.4"/>
    </g>
    <g clip-path="url(#p1e70ac6079)">
     <use xlink:href="#C8_0_818991f587" x="185.098206" y="37.80213" style="fill: #ffffff; stroke: #000000; stroke-width: 0.4"/>
    </g>
   </g>
   <g id="PathCollection_10">
    <defs>
     <path id="C9_0_587c342b1a" d="M 0 2.5 
C 0.663008 2.5 1.29895 2.236584 1.767767 1.767767 
C 2.236584 1.29895 2.5 0.663008 2.5 -0 
C 2.5 -0.663008 2.236584 -1.29895 1.767767 -1.767767 
C 1.29895 -2.236584 0.663008 -2.5 0 -2.5 
C -0.663008 -2.5 -1.29895 -2.236584 -1.767767 -1.767767 
C -2.236584 -1.29895 -2.5 -0.663008 -2.5 0 
C -2.5 0.663008 -2.236584 1.29895 -1.767767 1.767767 
C -1.29895 2.236584 -0.663008 2.5 0 2.5 
z
"/>
    </defs>
    <g clip-path="url(#p1e70ac6079)">
     <use xlink:href="#C9_0_587c342b1a" x="197.399658" y="36.348985" style="fill: #ffffff; stroke: #000000; stroke-width: 0.4"/>
    </g>
    <g clip-path="url(#p1e70ac6079)">
     <use xlink:href="#C9_0_587c342b1a" x="198.400519" y="31.696224" style="fill: #ffffff; stroke: #000000; stroke-width: 0.4"/>
    </g>
    <g clip-path="url(#p1e70ac6079)">
     <use xlink:href="#C9_0_587c342b1a" x="195.681497" y="27.712719" style="fill: #ffffff; stroke: #000000; stroke-width: 0.4"/>
    </g>
   </g>
   <g id="PathCollection_11">
    <path d="M 64.634795 99.616438 
L 62.134795 104.616438 
L 67.134795 104.616438 
z
" clip-path="url(#p1e70ac6079)" style="fill: #ffffff; stroke: #000000; stroke-width: 0.4"/>
    <path d="M 65.851862 93.443101 
L 63.351862 98.443101 
L 68.351862 98.443101 
z
" clip-path="url(#p1e70ac6079)" style="fill: #ffffff; stroke: #000000; stroke-width: 0.4"/>
    <path d="M 64.283284 100.727369 
L 61.783284 105.727369 
L 66.783284 105.727369 
z
" clip-path="url(#p1e70ac6079)" style="fill: #ffffff; stroke: #000000; stroke-width: 0.4"/>
   </g>
   <g id="PathCollection_12">
    <path d="M 76.556888 55.528155 
L 74.056888 60.528155 
L 79.056888 60.528155 
z
" clip-path="url(#p1e70ac6079)" style="fill: #ffffff; stroke: #000000; stroke-width: 0.4"/>
    <path d="M 78.265069 67.428097 
L 75.765069 72.428097 
L 80.765069 72.428097 
z
" clip-path="url(#p1e70ac6079)" style="fill: #ffffff; stroke: #000000; stroke-width: 0.4"/>
    <path d="M 76.703598 69.928114 
L 74.203598 74.928114 
L 79.203598 74.928114 
z
" clip-path="url(#p1e70ac6079)" style="fill: #ffffff; stroke: #000000; stroke-width: 0.4"/>
   </g>
   <g id="PathCollection_13">
    <path d="M 90.200155 61.696435 
L 87.700155 66.696435 
L 92.700155 66.696435 
z
" clip-path="url(#p1e70ac6079)" style="fill: #ffffff; stroke: #000000; stroke-width: 0.4"/>
    <path d="M 88.683954 70.568711 
L 86.183954 75.568711 
L 91.183954 75.568711 
z
" clip-path="url(#p1e70ac6079)" style="fill: #ffffff; stroke: #000000; stroke-width: 0.4"/>
    <path d="M 89.418944 64.130706 
L 86.918944 69.130706 
L 91.918944 69.130706 
z
" clip-path="url(#p1e70ac6079)" style="fill: #ffffff; stroke: #000000; stroke-width: 0.4"/>
   </g>
   <g id="PathCollection_14">
    <path d="M 102.174391 58.171463 
L 99.674391 63.171463 
L 104.674391 63.171463 
z
" clip-path="url(#p1e70ac6079)" style="fill: #ffffff; stroke: #000000; stroke-width: 0.4"/>
    <path d="M 103.406163 64.388631 
L 100.906163 69.388631 
L 105.906163 69.388631 
z
" clip-path="url(#p1e70ac6079)" style="fill: #ffffff; stroke: #000000; stroke-width: 0.4"/>
    <path d="M 104.228459 72.060629 
L 101.728459 77.060629 
L 106.728459 77.060629 
z
" clip-path="url(#p1e70ac6079)" style="fill: #ffffff; stroke: #000000; stroke-width: 0.4"/>
   </g>
   <g id="PathCollection_15">
    <path d="M 117.141276 53.955319 
L 114.641276 58.955319 
L 119.641276 58.955319 
z
" clip-path="url(#p1e70ac6079)" style="fill: #ffffff; stroke: #000000; stroke-width: 0.4"/>
    <path d="M 115.247015 55.428694 
L 112.747015 60.428694 
L 117.747015 60.428694 
z
" clip-path="url(#p1e70ac6079)" style="fill: #ffffff; stroke: #000000; stroke-width: 0.4"/>
    <path d="M 115.331584 56.303615 
L 112.831584 61.303615 
L 117.831584 61.303615 
z
" clip-path="url(#p1e70ac6079)" style="fill: #ffffff; stroke: #000000; stroke-width: 0.4"/>
   </g>
   <g id="PathCollection_16">
    <path d="M 145.628094 61.859956 
L 143.128094 66.859956 
L 148.128094 66.859956 
z
" clip-path="url(#p1e70ac6079)" style="fill: #ffffff; stroke: #000000; stroke-width: 0.4"/>
    <path d="M 144.067064 61.482341 
L 141.567064 66.482341 
L 146.567064 66.482341 
z
" clip-path="url(#p1e70ac6079)" style="fill: #ffffff; stroke: #000000; stroke-width: 0.4"/>
    <path d="M 145.530042 85.929566 
L 143.030042 90.929566 
L 148.030042 90.929566 
z
" clip-path="url(#p1e70ac6079)" style="fill: #ffffff; stroke: #000000; stroke-width: 0.4"/>
   </g>
   <g id="PathCollection_17">
    <path d="M 158.400816 48.001134 
L 155.900816 53.001134 
L 160.900816 53.001134 
z
" clip-path="url(#p1e70ac6079)" style="fill: #ffffff; stroke: #000000; stroke-width: 0.4"/>
    <path d="M 159.809934 51.954295 
L 157.309934 56.954295 
L 162.309934 56.954295 
z
" clip-path="url(#p1e70ac6079)" style="fill: #ffffff; stroke: #000000; stroke-width: 0.4"/>
    <path d="M 157.55934 48.651846 
L 155.05934 53.651846 
L 160.05934 53.651846 
z
" clip-path="url(#p1e70ac6079)" style="fill: #ffffff; stroke: #000000; stroke-width: 0.4"/>
   </g>
   <g id="PathCollection_18">
    <path d="M 172.624441 46.686223 
L 170.124441 51.686223 
L 175.124441 51.686223 
z
" clip-path="url(#p1e70ac6079)" style="fill: #ffffff; stroke: #000000; stroke-width: 0.4"/>
    <path d="M 171.743311 53.737853 
L 169.243311 58.737853 
L 174.243311 58.737853 
z
" clip-path="url(#p1e70ac6079)" style="fill: #ffffff; stroke: #000000; stroke-width: 0.4"/>
    <path d="M 172.70722 51.247952 
L 170.20722 56.247952 
L 175.20722 56.247952 
z
" clip-path="url(#p1e70ac6079)" style="fill: #ffffff; stroke: #000000; stroke-width: 0.4"/>
   </g>
   <g id="PathCollection_19">
    <path d="M 183.446025 48.459667 
L 180.946025 53.459667 
L 185.946025 53.459667 
z
" clip-path="url(#p1e70ac6079)" style="fill: #ffffff; stroke: #000000; stroke-width: 0.4"/>
    <path d="M 182.829654 45.347711 
L 180.329654 50.347711 
L 185.329654 50.347711 
z
" clip-path="url(#p1e70ac6079)" style="fill: #ffffff; stroke: #000000; stroke-width: 0.4"/>
    <path d="M 185.466291 39.997036 
L 182.966291 44.997036 
L 187.966291 44.997036 
z
" clip-path="url(#p1e70ac6079)" style="fill: #ffffff; stroke: #000000; stroke-width: 0.4"/>
   </g>
   <g id="PathCollection_20">
    <path d="M 196.680766 30.268382 
L 194.180766 35.268382 
L 199.180766 35.268382 
z
" clip-path="url(#p1e70ac6079)" style="fill: #ffffff; stroke: #000000; stroke-width: 0.4"/>
    <path d="M 196.568835 43.734417 
L 194.068835 48.734417 
L 199.068835 48.734417 
z
" clip-path="url(#p1e70ac6079)" style="fill: #ffffff; stroke: #000000; stroke-width: 0.4"/>
    <path d="M 195.959494 38.144361 
L 193.459494 43.144361 
L 198.459494 43.144361 
z
" clip-path="url(#p1e70ac6079)" style="fill: #ffffff; stroke: #000000; stroke-width: 0.4"/>
   </g>
   <g id="PathCollection_21">
    <path d="M 60.524569 130.730903 
L 65.524569 130.730903 
L 65.524569 125.730903 
L 60.524569 125.730903 
z
" clip-path="url(#p1e70ac6079)" style="fill: #ffffff; stroke: #000000; stroke-width: 0.4"/>
    <path d="M 63.272567 135.50504 
L 68.272567 135.50504 
L 68.272567 130.50504 
L 63.272567 130.50504 
z
" clip-path="url(#p1e70ac6079)" style="fill: #ffffff; stroke: #000000; stroke-width: 0.4"/>
    <path d="M 62.313282 131.545136 
L 67.313282 131.545136 
L 67.313282 126.545136 
L 62.313282 126.545136 
z
" clip-path="url(#p1e70ac6079)" style="fill: #ffffff; stroke: #000000; stroke-width: 0.4"/>
   </g>
   <g id="PathCollection_22">
    <path d="M 75.471495 101.24993 
L 80.471495 101.24993 
L 80.471495 96.24993 
L 75.471495 96.24993 
z
" clip-path="url(#p1e70ac6079)" style="fill: #ffffff; stroke: #000000; stroke-width: 0.4"/>
    <path d="M 75.097073 114.62156 
L 80.097073 114.62156 
L 80.097073 109.62156 
L 75.097073 109.62156 
z
" clip-path="url(#p1e70ac6079)" style="fill: #ffffff; stroke: #000000; stroke-width: 0.4"/>
    <path d="M 73.29386 111.816417 
L 78.29386 111.816417 
L 78.29386 106.816417 
L 73.29386 106.816417 
z
" clip-path="url(#p1e70ac6079)" style="fill: #ffffff; stroke: #000000; stroke-width: 0.4"/>
   </g>
   <g id="PathCollection_23">
    <path d="M 86.771025 93.601532 
L 91.771025 93.601532 
L 91.771025 88.601532 
L 86.771025 88.601532 
z
" clip-path="url(#p1e70ac6079)" style="fill: #ffffff; stroke: #000000; stroke-width: 0.4"/>
    <path d="M 86.931858 91.059371 
L 91.931858 91.059371 
L 91.931858 86.059371 
L 86.931858 86.059371 
z
" clip-path="url(#p1e70ac6079)" style="fill: #ffffff; stroke: #000000; stroke-width: 0.4"/>
    <path d="M 88.478459 90.042844 
L 93.478459 90.042844 
L 93.478459 85.042844 
L 88.478459 85.042844 
z
" clip-path="url(#p1e70ac6079)" style="fill: #ffffff; stroke: #000000; stroke-width: 0.4"/>
   </g>
   <g id="PathCollection_24">
    <path d="M 99.170462 70.005627 
L 104.170462 70.005627 
L 104.170462 65.005627 
L 99.170462 65.005627 
z
" clip-path="url(#p1e70ac6079)" style="fill: #ffffff; stroke: #000000; stroke-width: 0.4"/>
    <path d="M 100.048242 80.420395 
L 105.048242 80.420395 
L 105.048242 75.420395 
L 100.048242 75.420395 
z
" clip-path="url(#p1e70ac6079)" style="fill: #ffffff; stroke: #000000; stroke-width: 0.4"/>
    <path d="M 99.859687 83.547522 
L 104.859687 83.547522 
L 104.859687 78.547522 
L 99.859687 78.547522 
z
" clip-path="url(#p1e70ac6079)" style="fill: #ffffff; stroke: #000000; stroke-width: 0.4"/>
   </g>
   <g id="PathCollection_25">
    <path d="M 113.685492 70.374814 
L 118.685492 70.374814 
L 118.685492 65.374814 
L 113.685492 65.374814 
z
" clip-path="url(#p1e70ac6079)" style="fill: #ffffff; stroke: #000000; stroke-width: 0.4"/>
    <path d="M 112.842044 65.088198 
L 117.842044 65.088198 
L 117.842044 60.088198 
L 112.842044 60.088198 
z
" clip-path="url(#p1e70ac6079)" style="fill: #ffffff; stroke: #000000; stroke-width: 0.4"/>
    <path d="M 114.599022 63.459732 
L 119.599022 63.459732 
L 119.599022 58.459732 
L 114.599022 58.459732 
z
" clip-path="url(#p1e70ac6079)" style="fill: #ffffff; stroke: #000000; stroke-width: 0.4"/>
   </g>
   <g id="PathCollection_26">
    <path d="M 142.997069 67.419636 
L 147.997069 67.419636 
L 147.997069 62.419636 
L 142.997069 62.419636 
z
" clip-path="url(#p1e70ac6079)" style="fill: #ffffff; stroke: #000000; stroke-width: 0.4"/>
    <path d="M 142.028862 60.897342 
L 147.028862 60.897342 
L 147.028862 55.897342 
L 142.028862 55.897342 
z
" clip-path="url(#p1e70ac6079)" style="fill: #ffffff; stroke: #000000; stroke-width: 0.4"/>
    <path d="M 143.257993 63.914893 
L 148.257993 63.914893 
L 148.257993 58.914893 
L 143.257993 58.914893 
z
" clip-path="url(#p1e70ac6079)" style="fill: #ffffff; stroke: #000000; stroke-width: 0.4"/>
   </g>
   <g id="PathCollection_27">
    <path d="M 154.402486 35.957868 
L 159.402486 35.957868 
L 159.402486 30.957868 
L 154.402486 30.957868 
z
" clip-path="url(#p1e70ac6079)" style="fill: #ffffff; stroke: #000000; stroke-width: 0.4"/>
    <path d="M 156.361323 47.208783 
L 161.361323 47.208783 
L 161.361323 42.208783 
L 156.361323 42.208783 
z
" clip-path="url(#p1e70ac6079)" style="fill: #ffffff; stroke: #000000; stroke-width: 0.4"/>
    <path d="M 156.568435 46.687876 
L 161.568435 46.687876 
L 161.568435 41.687876 
L 156.568435 41.687876 
z
" clip-path="url(#p1e70ac6079)" style="fill: #ffffff; stroke: #000000; stroke-width: 0.4"/>
   </g>
   <g id="PathCollection_28">
    <path d="M 167.848147 38.715809 
L 172.848147 38.715809 
L 172.848147 33.715809 
L 167.848147 33.715809 
z
" clip-path="url(#p1e70ac6079)" style="fill: #ffffff; stroke: #000000; stroke-width: 0.4"/>
    <path d="M 168.270877 41.864851 
L 173.270877 41.864851 
L 173.270877 36.864851 
L 168.270877 36.864851 
z
" clip-path="url(#p1e70ac6079)" style="fill: #ffffff; stroke: #000000; stroke-width: 0.4"/>
    <path d="M 169.220076 39.739079 
L 174.220076 39.739079 
L 174.220076 34.739079 
L 169.220076 34.739079 
z
" clip-path="url(#p1e70ac6079)" style="fill: #ffffff; stroke: #000000; stroke-width: 0.4"/>
   </g>
   <g id="PathCollection_29">
    <path d="M 181.921733 42.495334 
L 186.921733 42.495334 
L 186.921733 37.495334 
L 181.921733 37.495334 
z
" clip-path="url(#p1e70ac6079)" style="fill: #ffffff; stroke: #000000; stroke-width: 0.4"/>
    <path d="M 182.452035 51.878402 
L 187.452035 51.878402 
L 187.452035 46.878402 
L 182.452035 46.878402 
z
" clip-path="url(#p1e70ac6079)" style="fill: #ffffff; stroke: #000000; stroke-width: 0.4"/>
    <path d="M 180.3201 43.695612 
L 185.3201 43.695612 
L 185.3201 38.695612 
L 180.3201 38.695612 
z
" clip-path="url(#p1e70ac6079)" style="fill: #ffffff; stroke: #000000; stroke-width: 0.4"/>
   </g>
   <g id="PathCollection_30">
    <path d="M 195.554267 50.399971 
L 200.554267 50.399971 
L 200.554267 45.399971 
L 195.554267 45.399971 
z
" clip-path="url(#p1e70ac6079)" style="fill: #ffffff; stroke: #000000; stroke-width: 0.4"/>
    <path d="M 193.24661 41.08602 
L 198.24661 41.08602 
L 198.24661 36.08602 
L 193.24661 36.08602 
z
" clip-path="url(#p1e70ac6079)" style="fill: #ffffff; stroke: #000000; stroke-width: 0.4"/>
    <path d="M 195.212022 43.874305 
L 200.212022 43.874305 
L 200.212022 38.874305 
L 195.212022 38.874305 
z
" clip-path="url(#p1e70ac6079)" style="fill: #ffffff; stroke: #000000; stroke-width: 0.4"/>
   </g>
   <g id="PathCollection_31">
    <path d="M 62.952349 117.641261 
L 66.487883 114.105727 
L 62.952349 110.570193 
L 59.416815 114.105727 
z
" clip-path="url(#p1e70ac6079)" style="fill: #ffffff; stroke: #000000; stroke-width: 0.4"/>
    <path d="M 63.241068 112.563682 
L 66.776602 109.028149 
L 63.241068 105.492615 
L 59.705534 109.028149 
z
" clip-path="url(#p1e70ac6079)" style="fill: #ffffff; stroke: #000000; stroke-width: 0.4"/>
    <path d="M 64.671171 64.517181 
L 68.206705 60.981647 
L 64.671171 57.446113 
L 61.135637 60.981647 
z
" clip-path="url(#p1e70ac6079)" style="fill: #ffffff; stroke: #000000; stroke-width: 0.4"/>
   </g>
   <g id="PathCollection_32">
    <path d="M 78.551838 79.987611 
L 82.087372 76.452078 
L 78.551838 72.916544 
L 75.016304 76.452078 
z
" clip-path="url(#p1e70ac6079)" style="fill: #ffffff; stroke: #000000; stroke-width: 0.4"/>
    <path d="M 78.144154 83.841311 
L 81.679688 80.305778 
L 78.144154 76.770244 
L 74.60862 80.305778 
z
" clip-path="url(#p1e70ac6079)" style="fill: #ffffff; stroke: #000000; stroke-width: 0.4"/>
    <path d="M 76.99798 73.787302 
L 80.533514 70.251768 
L 76.99798 66.716234 
L 73.462447 70.251768 
z
" clip-path="url(#p1e70ac6079)" style="fill: #ffffff; stroke: #000000; stroke-width: 0.4"/>
   </g>
   <g id="PathCollection_33">
    <path d="M 89.019473 83.770509 
L 92.555007 80.234975 
L 89.019473 76.699441 
L 85.483939 80.234975 
z
" clip-path="url(#p1e70ac6079)" style="fill: #ffffff; stroke: #000000; stroke-width: 0.4"/>
    <path d="M 90.918478 79.899951 
L 94.454012 76.364417 
L 90.918478 72.828883 
L 87.382944 76.364417 
z
" clip-path="url(#p1e70ac6079)" style="fill: #ffffff; stroke: #000000; stroke-width: 0.4"/>
    <path d="M 89.053114 85.805249 
L 92.588648 82.269715 
L 89.053114 78.734181 
L 85.51758 82.269715 
z
" clip-path="url(#p1e70ac6079)" style="fill: #ffffff; stroke: #000000; stroke-width: 0.4"/>
   </g>
   <g id="PathCollection_34">
    <path d="M 104.053269 76.602559 
L 107.588803 73.067025 
L 104.053269 69.531491 
L 100.517735 73.067025 
z
" clip-path="url(#p1e70ac6079)" style="fill: #ffffff; stroke: #000000; stroke-width: 0.4"/>
    <path d="M 103.316841 84.485281 
L 106.852375 80.949747 
L 103.316841 77.414213 
L 99.781307 80.949747 
z
" clip-path="url(#p1e70ac6079)" style="fill: #ffffff; stroke: #000000; stroke-width: 0.4"/>
    <path d="M 102.864754 80.049985 
L 106.400288 76.514452 
L 102.864754 72.978918 
L 99.32922 76.514452 
z
" clip-path="url(#p1e70ac6079)" style="fill: #ffffff; stroke: #000000; stroke-width: 0.4"/>
   </g>
   <g id="PathCollection_35">
    <path d="M 116.846708 77.00209 
L 120.382242 73.466556 
L 116.846708 69.931022 
L 113.311174 73.466556 
z
" clip-path="url(#p1e70ac6079)" style="fill: #ffffff; stroke: #000000; stroke-width: 0.4"/>
    <path d="M 116.210782 80.252279 
L 119.746316 76.716746 
L 116.210782 73.181212 
L 112.675248 76.716746 
z
" clip-path="url(#p1e70ac6079)" style="fill: #ffffff; stroke: #000000; stroke-width: 0.4"/>
    <path d="M 116.216585 80.456259 
L 119.752119 76.920725 
L 116.216585 73.385191 
L 112.681051 76.920725 
z
" clip-path="url(#p1e70ac6079)" style="fill: #ffffff; stroke: #000000; stroke-width: 0.4"/>
   </g>
   <g id="PathCollection_36">
    <path d="M 143.773972 86.307612 
L 147.309506 82.772078 
L 143.773972 79.236544 
L 140.238438 82.772078 
z
" clip-path="url(#p1e70ac6079)" style="fill: #ffffff; stroke: #000000; stroke-width: 0.4"/>
    <path d="M 144.801898 87.179162 
L 148.337432 83.643628 
L 144.801898 80.108094 
L 141.266364 83.643628 
z
" clip-path="url(#p1e70ac6079)" style="fill: #ffffff; stroke: #000000; stroke-width: 0.4"/>
    <path d="M 145.999059 81.538532 
L 149.534593 78.002998 
L 145.999059 74.467464 
L 142.463525 78.002998 
z
" clip-path="url(#p1e70ac6079)" style="fill: #ffffff; stroke: #000000; stroke-width: 0.4"/>
   </g>
   <g id="PathCollection_37">
    <path d="M 157.670709 61.213046 
L 161.206243 57.677512 
L 157.670709 54.141978 
L 154.135175 57.677512 
z
" clip-path="url(#p1e70ac6079)" style="fill: #ffffff; stroke: #000000; stroke-width: 0.4"/>
    <path d="M 157.084882 62.023908 
L 160.620416 58.488374 
L 157.084882 54.95284 
L 153.549348 58.488374 
z
" clip-path="url(#p1e70ac6079)" style="fill: #ffffff; stroke: #000000; stroke-width: 0.4"/>
    <path d="M 158.374551 57.339117 
L 161.910085 53.803583 
L 158.374551 50.268049 
L 154.839017 53.803583 
z
" clip-path="url(#p1e70ac6079)" style="fill: #ffffff; stroke: #000000; stroke-width: 0.4"/>
   </g>
   <g id="PathCollection_38">
    <path d="M 170.864846 57.910597 
L 174.40038 54.375063 
L 170.864846 50.839529 
L 167.329312 54.375063 
z
" clip-path="url(#p1e70ac6079)" style="fill: #ffffff; stroke: #000000; stroke-width: 0.4"/>
    <path d="M 170.740025 59.375543 
L 174.275559 55.840009 
L 170.740025 52.304475 
L 167.204491 55.840009 
z
" clip-path="url(#p1e70ac6079)" style="fill: #ffffff; stroke: #000000; stroke-width: 0.4"/>
    <path d="M 169.701016 52.131733 
L 173.23655 48.596199 
L 169.701016 45.060665 
L 166.165482 48.596199 
z
" clip-path="url(#p1e70ac6079)" style="fill: #ffffff; stroke: #000000; stroke-width: 0.4"/>
   </g>
   <g id="PathCollection_39">
    <path d="M 185.076835 53.640509 
L 188.612369 50.104975 
L 185.076835 46.569441 
L 181.541301 50.104975 
z
" clip-path="url(#p1e70ac6079)" style="fill: #ffffff; stroke: #000000; stroke-width: 0.4"/>
    <path d="M 183.326685 58.997927 
L 186.862219 55.462393 
L 183.326685 51.926859 
L 179.791151 55.462393 
z
" clip-path="url(#p1e70ac6079)" style="fill: #ffffff; stroke: #000000; stroke-width: 0.4"/>
    <path d="M 185.310267 42.785752 
L 188.8458 39.250218 
L 185.310267 35.714684 
L 181.774733 39.250218 
z
" clip-path="url(#p1e70ac6079)" style="fill: #ffffff; stroke: #000000; stroke-width: 0.4"/>
   </g>
   <g id="PathCollection_40">
    <path d="M 197.710211 51.138807 
L 201.245745 47.603273 
L 197.710211 44.067739 
L 194.174677 47.603273 
z
" clip-path="url(#p1e70ac6079)" style="fill: #ffffff; stroke: #000000; stroke-width: 0.4"/>
    <path d="M 195.555759 53.153317 
L 199.091293 49.617784 
L 195.555759 46.08225 
L 192.020225 49.617784 
z
" clip-path="url(#p1e70ac6079)" style="fill: #ffffff; stroke: #000000; stroke-width: 0.4"/>
    <path d="M 197.677627 41.927688 
L 201.213161 38.392154 
L 197.677627 34.856621 
L 194.142093 38.392154 
z
" clip-path="url(#p1e70ac6079)" style="fill: #ffffff; stroke: #000000; stroke-width: 0.4"/>
   </g>
   <g id="text_8">
    <!-- # mRuby2+ at 14dpi -->
    <g style="fill: #262626" transform="translate(76.830313 15.935625) scale(0.12 -0.12)">
     <defs>
      <path id="ArialMT-61" d="M 2588 409 
Q 2275 144 1986 34 
Q 1697 -75 1366 -75 
Q 819 -75 525 192 
Q 231 459 231 875 
Q 231 1119 342 1320 
Q 453 1522 633 1644 
Q 813 1766 1038 1828 
Q 1203 1872 1538 1913 
Q 2219 1994 2541 2106 
Q 2544 2222 2544 2253 
Q 2544 2597 2384 2738 
Q 2169 2928 1744 2928 
Q 1347 2928 1158 2789 
Q 969 2650 878 2297 
L 328 2372 
Q 403 2725 575 2942 
Q 747 3159 1072 3276 
Q 1397 3394 1825 3394 
Q 2250 3394 2515 3294 
Q 2781 3194 2906 3042 
Q 3031 2891 3081 2659 
Q 3109 2516 3109 2141 
L 3109 1391 
Q 3109 606 3145 398 
Q 3181 191 3288 0 
L 2700 0 
Q 2613 175 2588 409 
z
M 2541 1666 
Q 2234 1541 1622 1453 
Q 1275 1403 1131 1340 
Q 988 1278 909 1158 
Q 831 1038 831 891 
Q 831 666 1001 516 
Q 1172 366 1500 366 
Q 1825 366 2078 508 
Q 2331 650 2450 897 
Q 2541 1088 2541 1459 
L 2541 1666 
z
" transform="scale(0.015625)"/>
      <path id="ArialMT-74" d="M 1650 503 
L 1731 6 
Q 1494 -44 1306 -44 
Q 1000 -44 831 53 
Q 663 150 594 308 
Q 525 466 525 972 
L 525 2881 
L 113 2881 
L 113 3319 
L 525 3319 
L 525 4141 
L 1084 4478 
L 1084 3319 
L 1650 3319 
L 1650 2881 
L 1084 2881 
L 1084 941 
Q 1084 700 1114 631 
Q 1144 563 1211 522 
Q 1278 481 1403 481 
Q 1497 481 1650 503 
z
" transform="scale(0.015625)"/>
      <path id="ArialMT-31" d="M 2384 0 
L 1822 0 
L 1822 3584 
Q 1619 3391 1289 3197 
Q 959 3003 697 2906 
L 697 3450 
Q 1169 3672 1522 3987 
Q 1875 4303 2022 4600 
L 2384 4600 
L 2384 0 
z
" transform="scale(0.015625)"/>
      <path id="ArialMT-64" d="M 2575 0 
L 2575 419 
Q 2259 -75 1647 -75 
Q 1250 -75 917 144 
Q 584 363 401 755 
Q 219 1147 219 1656 
Q 219 2153 384 2558 
Q 550 2963 881 3178 
Q 1213 3394 1622 3394 
Q 1922 3394 2156 3267 
Q 2391 3141 2538 2938 
L 2538 4581 
L 3097 4581 
L 3097 0 
L 2575 0 
z
M 797 1656 
Q 797 1019 1065 703 
Q 1334 388 1700 388 
Q 2069 388 2326 689 
Q 2584 991 2584 1609 
Q 2584 2291 2321 2609 
Q 2059 2928 1675 2928 
Q 1300 2928 1048 2622 
Q 797 2316 797 1656 
z
" transform="scale(0.015625)"/>
      <path id="ArialMT-70" d="M 422 -1272 
L 422 3319 
L 934 3319 
L 934 2888 
Q 1116 3141 1344 3267 
Q 1572 3394 1897 3394 
Q 2322 3394 2647 3175 
Q 2972 2956 3137 2557 
Q 3303 2159 3303 1684 
Q 3303 1175 3120 767 
Q 2938 359 2589 142 
Q 2241 -75 1856 -75 
Q 1575 -75 1351 44 
Q 1128 163 984 344 
L 984 -1272 
L 422 -1272 
z
M 931 1641 
Q 931 1000 1190 694 
Q 1450 388 1819 388 
Q 2194 388 2461 705 
Q 2728 1022 2728 1688 
Q 2728 2322 2467 2637 
Q 2206 2953 1844 2953 
Q 1484 2953 1207 2617 
Q 931 2281 931 1641 
z
" transform="scale(0.015625)"/>
      <path id="ArialMT-69" d="M 425 3934 
L 425 4581 
L 988 4581 
L 988 3934 
L 425 3934 
z
M 425 0 
L 425 3319 
L 988 3319 
L 988 0 
L 425 0 
z
" transform="scale(0.015625)"/>
     </defs>
     <use xlink:href="#ArialMT-23"/>
     <use xlink:href="#ArialMT-20" transform="translate(55.615234 0)"/>
     <use xlink:href="#ArialMT-6d" transform="translate(83.398438 0)"/>
     <use xlink:href="#ArialMT-52" transform="translate(166.699219 0)"/>
     <use xlink:href="#ArialMT-75" transform="translate(238.916016 0)"/>
     <use xlink:href="#ArialMT-62" transform="translate(294.53125 0)"/>
     <use xlink:href="#ArialMT-79" transform="translate(350.146484 0)"/>
     <use xlink:href="#ArialMT-32" transform="translate(400.146484 0)"/>
     <use xlink:href="#ArialMT-2b" transform="translate(455.761719 0)"/>
     <use xlink:href="#ArialMT-20" transform="translate(514.160156 0)"/>
     <use xlink:href="#ArialMT-61" transform="translate(541.943359 0)"/>
     <use xlink:href="#ArialMT-74" transform="translate(597.558594 0)"/>
     <use xlink:href="#ArialMT-20" transform="translate(625.341797 0)"/>
     <use xlink:href="#ArialMT-31" transform="translate(653.125 0)"/>
     <use xlink:href="#ArialMT-34" transform="translate(708.740234 0)"/>
     <use xlink:href="#ArialMT-64" transform="translate(764.355469 0)"/>
     <use xlink:href="#ArialMT-70" transform="translate(819.970703 0)"/>
     <use xlink:href="#ArialMT-69" transform="translate(875.585938 0)"/>
    </g>
   </g>
   <g id="legend_1">
    <g id="patch_17">
     <path d="M 224.195312 34.209219 
L 246.195312 34.209219 
L 246.195312 26.509219 
L 224.195312 26.509219 
z
" style="fill: #2f1b55; opacity: 0.8; stroke: #ffffff; stroke-linejoin: miter"/>
    </g>
    <g id="text_9">
     <!-- 1 -->
     <g style="fill: #262626" transform="translate(254.995313 34.209219) scale(0.11 -0.11)">
      <use xlink:href="#ArialMT-31"/>
     </g>
    </g>
    <g id="patch_18">
     <path d="M 224.195312 49.769062 
L 246.195312 49.769062 
L 246.195312 42.069062 
L 224.195312 42.069062 
z
" style="fill: #692c75; opacity: 0.8; stroke: #ffffff; stroke-linejoin: miter"/>
    </g>
    <g id="text_10">
     <!-- 5 -->
     <g style="fill: #262626" transform="translate(254.995313 49.769062) scale(0.11 -0.11)">
      <defs>
       <path id="ArialMT-35" d="M 266 1200 
L 856 1250 
Q 922 819 1161 601 
Q 1400 384 1738 384 
Q 2144 384 2425 690 
Q 2706 997 2706 1503 
Q 2706 1984 2436 2262 
Q 2166 2541 1728 2541 
Q 1456 2541 1237 2417 
Q 1019 2294 894 2097 
L 366 2166 
L 809 4519 
L 3088 4519 
L 3088 3981 
L 1259 3981 
L 1013 2750 
Q 1425 3038 1878 3038 
Q 2478 3038 2890 2622 
Q 3303 2206 3303 1553 
Q 3303 931 2941 478 
Q 2500 -78 1738 -78 
Q 1113 -78 717 272 
Q 322 622 266 1200 
z
" transform="scale(0.015625)"/>
      </defs>
      <use xlink:href="#ArialMT-35"/>
     </g>
    </g>
    <g id="patch_19">
     <path d="M 224.195312 65.328906 
L 246.195312 65.328906 
L 246.195312 57.628906 
L 224.195312 57.628906 
z
" style="fill: #a74779; opacity: 0.8; stroke: #ffffff; stroke-linejoin: miter"/>
    </g>
    <g id="text_11">
     <!-- 10 -->
     <g style="fill: #262626" transform="translate(254.995313 65.328906) scale(0.11 -0.11)">
      <use xlink:href="#ArialMT-31"/>
      <use xlink:href="#ArialMT-30" transform="translate(55.615234 0)"/>
     </g>
    </g>
    <g id="patch_20">
     <path d="M 224.195312 80.88875 
L 246.195312 80.88875 
L 246.195312 73.18875 
L 224.195312 73.18875 
z
" style="fill: #de7270; opacity: 0.8; stroke: #ffffff; stroke-linejoin: miter"/>
    </g>
    <g id="text_12">
     <!-- 15 -->
     <g style="fill: #262626" transform="translate(254.995313 80.88875) scale(0.11 -0.11)">
      <use xlink:href="#ArialMT-31"/>
      <use xlink:href="#ArialMT-35" transform="translate(55.615234 0)"/>
     </g>
    </g>
    <g id="patch_21">
     <path d="M 224.195312 96.448594 
L 246.195312 96.448594 
L 246.195312 88.748594 
L 224.195312 88.748594 
z
" style="fill: #eeb389; opacity: 0.8; stroke: #ffffff; stroke-linejoin: miter"/>
    </g>
    <g id="text_13">
     <!-- 20 -->
     <g style="fill: #262626" transform="translate(254.995313 96.448594) scale(0.11 -0.11)">
      <use xlink:href="#ArialMT-32"/>
      <use xlink:href="#ArialMT-30" transform="translate(55.615234 0)"/>
     </g>
    </g>
   </g>
  </g>
 </g>
 <defs>
  <clipPath id="p1e70ac6079">
   <rect x="49.695312" y="21.935625" width="162" height="117"/>
  </clipPath>
 </defs>
</svg>
