<?xml version="1.0" encoding="utf-8" standalone="no"?>
<!DOCTYPE svg PUBLIC "-//W3C//DTD SVG 1.1//EN"
  "http://www.w3.org/Graphics/SVG/1.1/DTD/svg11.dtd">
<svg xmlns:xlink="http://www.w3.org/1999/xlink" width="279.446406pt" height="177.330031pt" viewBox="0 0 279.446406 177.330031" xmlns="http://www.w3.org/2000/svg" version="1.1">
 <metadata>
  <rdf:RDF xmlns:dc="http://purl.org/dc/elements/1.1/" xmlns:cc="http://creativecommons.org/ns#" xmlns:rdf="http://www.w3.org/1999/02/22-rdf-syntax-ns#">
   <cc:Work>
    <dc:type rdf:resource="http://purl.org/dc/dcmitype/StillImage"/>
    <dc:date>2025-07-28T16:54:55.649301</dc:date>
    <dc:format>image/svg+xml</dc:format>
    <dc:creator>
     <cc:Agent>
      <dc:title>Matplotlib v3.10.3, https://matplotlib.org/</dc:title>
     </cc:Agent>
    </dc:creator>
   </cc:Work>
  </rdf:RDF>
 </metadata>
 <defs>
  <style type="text/css">*{stroke-linejoin: round; stroke-linecap: butt}</style>
 </defs>
 <g id="figure_1">
  <g id="patch_1">
   <path d="M 0 177.330031 
L 279.446406 177.330031 
L 279.446406 0 
L 0 0 
z
" style="fill: #ffffff"/>
  </g>
  <g id="axes_1">
   <g id="patch_2">
    <path d="M 50.312344 138.935625 
L 212.312344 138.935625 
L 212.312344 21.935625 
L 50.312344 21.935625 
z
" style="fill: #ffffff"/>
   </g>
   <g id="matplotlib.axis_1">
    <g id="xtick_1">
     <g id="line2d_1">
      <defs>
       <path id="m2e9d2d1ff5" d="M 0 0 
L 0 6 
" style="stroke: #262626; stroke-width: 1.25"/>
      </defs>
      <g>
       <use xlink:href="#m2e9d2d1ff5" x="90.812344" y="138.935625" style="fill: #262626; stroke: #262626; stroke-width: 1.25"/>
      </g>
     </g>
     <g id="text_1">
      <!-- NIL -->
      <g style="fill: #262626" transform="translate(82.253828 156.309219) scale(0.11 -0.11)">
       <defs>
        <path id="ArialMT-4e" d="M 488 0 
L 488 4581 
L 1109 4581 
L 3516 984 
L 3516 4581 
L 4097 4581 
L 4097 0 
L 3475 0 
L 1069 3600 
L 1069 0 
L 488 0 
z
" transform="scale(0.015625)"/>
        <path id="ArialMT-49" d="M 597 0 
L 597 4581 
L 1203 4581 
L 1203 0 
L 597 0 
z
" transform="scale(0.015625)"/>
        <path id="ArialMT-4c" d="M 469 0 
L 469 4581 
L 1075 4581 
L 1075 541 
L 3331 541 
L 3331 0 
L 469 0 
z
" transform="scale(0.015625)"/>
       </defs>
       <use xlink:href="#ArialMT-4e"/>
       <use xlink:href="#ArialMT-49" transform="translate(72.216797 0)"/>
       <use xlink:href="#ArialMT-4c" transform="translate(100 0)"/>
      </g>
      <!-- DD -->
      <g style="fill: #262626" transform="translate(82.868281 167.943781) scale(0.11 -0.11)">
       <defs>
        <path id="ArialMT-44" d="M 494 0 
L 494 4581 
L 2072 4581 
Q 2606 4581 2888 4516 
Q 3281 4425 3559 4188 
Q 3922 3881 4101 3404 
Q 4281 2928 4281 2316 
Q 4281 1794 4159 1391 
Q 4038 988 3847 723 
Q 3656 459 3429 307 
Q 3203 156 2883 78 
Q 2563 0 2147 0 
L 494 0 
z
M 1100 541 
L 2078 541 
Q 2531 541 2789 625 
Q 3047 709 3200 863 
Q 3416 1078 3536 1442 
Q 3656 1806 3656 2325 
Q 3656 3044 3420 3430 
Q 3184 3816 2847 3947 
Q 2603 4041 2063 4041 
L 1100 4041 
L 1100 541 
z
" transform="scale(0.015625)"/>
       </defs>
       <use xlink:href="#ArialMT-44"/>
       <use xlink:href="#ArialMT-44" transform="translate(72.216797 0)"/>
      </g>
     </g>
    </g>
    <g id="xtick_2">
     <g id="line2d_2">
      <g>
       <use xlink:href="#m2e9d2d1ff5" x="171.812344" y="138.935625" style="fill: #262626; stroke: #262626; stroke-width: 1.25"/>
      </g>
     </g>
     <g id="text_2">
      <!-- NIL -->
      <g style="fill: #262626" transform="translate(163.253828 156.309219) scale(0.11 -0.11)">
       <use xlink:href="#ArialMT-4e"/>
       <use xlink:href="#ArialMT-49" transform="translate(72.216797 0)"/>
       <use xlink:href="#ArialMT-4c" transform="translate(100 0)"/>
      </g>
      <!-- SNAP-DD -->
      <g style="fill: #262626" transform="translate(147.058906 167.943781) scale(0.11 -0.11)">
       <defs>
        <path id="ArialMT-53" d="M 288 1472 
L 859 1522 
Q 900 1178 1048 958 
Q 1197 738 1509 602 
Q 1822 466 2213 466 
Q 2559 466 2825 569 
Q 3091 672 3220 851 
Q 3350 1031 3350 1244 
Q 3350 1459 3225 1620 
Q 3100 1781 2813 1891 
Q 2628 1963 1997 2114 
Q 1366 2266 1113 2400 
Q 784 2572 623 2826 
Q 463 3081 463 3397 
Q 463 3744 659 4045 
Q 856 4347 1234 4503 
Q 1613 4659 2075 4659 
Q 2584 4659 2973 4495 
Q 3363 4331 3572 4012 
Q 3781 3694 3797 3291 
L 3216 3247 
Q 3169 3681 2898 3903 
Q 2628 4125 2100 4125 
Q 1550 4125 1298 3923 
Q 1047 3722 1047 3438 
Q 1047 3191 1225 3031 
Q 1400 2872 2139 2705 
Q 2878 2538 3153 2413 
Q 3553 2228 3743 1945 
Q 3934 1663 3934 1294 
Q 3934 928 3725 604 
Q 3516 281 3123 101 
Q 2731 -78 2241 -78 
Q 1619 -78 1198 103 
Q 778 284 539 648 
Q 300 1013 288 1472 
z
" transform="scale(0.015625)"/>
        <path id="ArialMT-41" d="M -9 0 
L 1750 4581 
L 2403 4581 
L 4278 0 
L 3588 0 
L 3053 1388 
L 1138 1388 
L 634 0 
L -9 0 
z
M 1313 1881 
L 2866 1881 
L 2388 3150 
Q 2169 3728 2063 4100 
Q 1975 3659 1816 3225 
L 1313 1881 
z
" transform="scale(0.015625)"/>
        <path id="ArialMT-50" d="M 494 0 
L 494 4581 
L 2222 4581 
Q 2678 4581 2919 4538 
Q 3256 4481 3484 4323 
Q 3713 4166 3852 3881 
Q 3991 3597 3991 3256 
Q 3991 2672 3619 2267 
Q 3247 1863 2275 1863 
L 1100 1863 
L 1100 0 
L 494 0 
z
M 1100 2403 
L 2284 2403 
Q 2872 2403 3119 2622 
Q 3366 2841 3366 3238 
Q 3366 3525 3220 3729 
Q 3075 3934 2838 4000 
Q 2684 4041 2272 4041 
L 1100 4041 
L 1100 2403 
z
" transform="scale(0.015625)"/>
        <path id="ArialMT-2d" d="M 203 1375 
L 203 1941 
L 1931 1941 
L 1931 1375 
L 203 1375 
z
" transform="scale(0.015625)"/>
       </defs>
       <use xlink:href="#ArialMT-53"/>
       <use xlink:href="#ArialMT-4e" transform="translate(66.699219 0)"/>
       <use xlink:href="#ArialMT-41" transform="translate(138.916016 0)"/>
       <use xlink:href="#ArialMT-50" transform="translate(205.615234 0)"/>
       <use xlink:href="#ArialMT-2d" transform="translate(272.314453 0)"/>
       <use xlink:href="#ArialMT-44" transform="translate(305.615234 0)"/>
       <use xlink:href="#ArialMT-44" transform="translate(377.832031 0)"/>
      </g>
     </g>
    </g>
   </g>
   <g id="matplotlib.axis_2">
    <g id="ytick_1">
     <g id="line2d_3">
      <defs>
       <path id="mea16f3acae" d="M 0 0 
L -6 0 
" style="stroke: #262626; stroke-width: 1.25"/>
      </defs>
      <g>
       <use xlink:href="#mea16f3acae" x="50.312344" y="138.935625" style="fill: #262626; stroke: #262626; stroke-width: 1.25"/>
      </g>
     </g>
     <g id="text_3">
      <!-- 0 -->
      <g style="fill: #262626" transform="translate(34.695312 142.872422) scale(0.11 -0.11)">
       <defs>
        <path id="ArialMT-30" d="M 266 2259 
Q 266 3072 433 3567 
Q 600 4063 929 4331 
Q 1259 4600 1759 4600 
Q 2128 4600 2406 4451 
Q 2684 4303 2865 4023 
Q 3047 3744 3150 3342 
Q 3253 2941 3253 2259 
Q 3253 1453 3087 958 
Q 2922 463 2592 192 
Q 2263 -78 1759 -78 
Q 1097 -78 719 397 
Q 266 969 266 2259 
z
M 844 2259 
Q 844 1131 1108 757 
Q 1372 384 1759 384 
Q 2147 384 2411 759 
Q 2675 1134 2675 2259 
Q 2675 3391 2411 3762 
Q 2147 4134 1753 4134 
Q 1366 4134 1134 3806 
Q 844 3388 844 2259 
z
" transform="scale(0.015625)"/>
       </defs>
       <use xlink:href="#ArialMT-30"/>
      </g>
     </g>
    </g>
    <g id="ytick_2">
     <g id="line2d_4">
      <g>
       <use xlink:href="#mea16f3acae" x="50.312344" y="110.066981" style="fill: #262626; stroke: #262626; stroke-width: 1.25"/>
      </g>
     </g>
     <g id="text_4">
      <!-- 25 -->
      <g style="fill: #262626" transform="translate(28.578281 114.003778) scale(0.11 -0.11)">
       <defs>
        <path id="ArialMT-32" d="M 3222 541 
L 3222 0 
L 194 0 
Q 188 203 259 391 
Q 375 700 629 1000 
Q 884 1300 1366 1694 
Q 2113 2306 2375 2664 
Q 2638 3022 2638 3341 
Q 2638 3675 2398 3904 
Q 2159 4134 1775 4134 
Q 1369 4134 1125 3890 
Q 881 3647 878 3216 
L 300 3275 
Q 359 3922 746 4261 
Q 1134 4600 1788 4600 
Q 2447 4600 2831 4234 
Q 3216 3869 3216 3328 
Q 3216 3053 3103 2787 
Q 2991 2522 2730 2228 
Q 2469 1934 1863 1422 
Q 1356 997 1212 845 
Q 1069 694 975 541 
L 3222 541 
z
" transform="scale(0.015625)"/>
        <path id="ArialMT-35" d="M 266 1200 
L 856 1250 
Q 922 819 1161 601 
Q 1400 384 1738 384 
Q 2144 384 2425 690 
Q 2706 997 2706 1503 
Q 2706 1984 2436 2262 
Q 2166 2541 1728 2541 
Q 1456 2541 1237 2417 
Q 1019 2294 894 2097 
L 366 2166 
L 809 4519 
L 3088 4519 
L 3088 3981 
L 1259 3981 
L 1013 2750 
Q 1425 3038 1878 3038 
Q 2478 3038 2890 2622 
Q 3303 2206 3303 1553 
Q 3303 931 2941 478 
Q 2500 -78 1738 -78 
Q 1113 -78 717 272 
Q 322 622 266 1200 
z
" transform="scale(0.015625)"/>
       </defs>
       <use xlink:href="#ArialMT-32"/>
       <use xlink:href="#ArialMT-35" transform="translate(55.615234 0)"/>
      </g>
     </g>
    </g>
    <g id="ytick_3">
     <g id="line2d_5">
      <g>
       <use xlink:href="#mea16f3acae" x="50.312344" y="81.198336" style="fill: #262626; stroke: #262626; stroke-width: 1.25"/>
      </g>
     </g>
     <g id="text_5">
      <!-- 50 -->
      <g style="fill: #262626" transform="translate(28.578281 85.135133) scale(0.11 -0.11)">
       <use xlink:href="#ArialMT-35"/>
       <use xlink:href="#ArialMT-30" transform="translate(55.615234 0)"/>
      </g>
     </g>
    </g>
    <g id="ytick_4">
     <g id="line2d_6">
      <g>
       <use xlink:href="#mea16f3acae" x="50.312344" y="52.329692" style="fill: #262626; stroke: #262626; stroke-width: 1.25"/>
      </g>
     </g>
     <g id="text_6">
      <!-- 75 -->
      <g style="fill: #262626" transform="translate(28.578281 56.266489) scale(0.11 -0.11)">
       <defs>
        <path id="ArialMT-37" d="M 303 3981 
L 303 4522 
L 3269 4522 
L 3269 4084 
Q 2831 3619 2401 2847 
Q 1972 2075 1738 1259 
Q 1569 684 1522 0 
L 944 0 
Q 953 541 1156 1306 
Q 1359 2072 1739 2783 
Q 2119 3494 2547 3981 
L 303 3981 
z
" transform="scale(0.015625)"/>
       </defs>
       <use xlink:href="#ArialMT-37"/>
       <use xlink:href="#ArialMT-35" transform="translate(55.615234 0)"/>
      </g>
     </g>
    </g>
    <g id="ytick_5">
     <g id="line2d_7">
      <g>
       <use xlink:href="#mea16f3acae" x="50.312344" y="23.461048" style="fill: #262626; stroke: #262626; stroke-width: 1.25"/>
      </g>
     </g>
     <g id="text_7">
      <!-- 100 -->
      <g style="fill: #262626" transform="translate(22.46125 27.397844) scale(0.11 -0.11)">
       <defs>
        <path id="ArialMT-31" d="M 2384 0 
L 1822 0 
L 1822 3584 
Q 1619 3391 1289 3197 
Q 959 3003 697 2906 
L 697 3450 
Q 1169 3672 1522 3987 
Q 1875 4303 2022 4600 
L 2384 4600 
L 2384 0 
z
" transform="scale(0.015625)"/>
       </defs>
       <use xlink:href="#ArialMT-31"/>
       <use xlink:href="#ArialMT-30" transform="translate(55.615234 0)"/>
       <use xlink:href="#ArialMT-30" transform="translate(111.230469 0)"/>
      </g>
     </g>
    </g>
    <g id="text_8">
     <!-- (%) mRuby2+ -->
     <g style="fill: #262626" transform="translate(15.935625 117.278437) rotate(-90) scale(0.12 -0.12)">
      <defs>
       <path id="ArialMT-28" d="M 1497 -1347 
Q 1031 -759 709 28 
Q 388 816 388 1659 
Q 388 2403 628 3084 
Q 909 3875 1497 4659 
L 1900 4659 
Q 1522 4009 1400 3731 
Q 1209 3300 1100 2831 
Q 966 2247 966 1656 
Q 966 153 1900 -1347 
L 1497 -1347 
z
" transform="scale(0.015625)"/>
       <path id="ArialMT-25" d="M 372 3481 
Q 372 3972 619 4315 
Q 866 4659 1334 4659 
Q 1766 4659 2048 4351 
Q 2331 4044 2331 3447 
Q 2331 2866 2045 2552 
Q 1759 2238 1341 2238 
Q 925 2238 648 2547 
Q 372 2856 372 3481 
z
M 1350 4272 
Q 1141 4272 1002 4090 
Q 863 3909 863 3425 
Q 863 2984 1003 2804 
Q 1144 2625 1350 2625 
Q 1563 2625 1702 2806 
Q 1841 2988 1841 3469 
Q 1841 3913 1700 4092 
Q 1559 4272 1350 4272 
z
M 1353 -169 
L 3859 4659 
L 4316 4659 
L 1819 -169 
L 1353 -169 
z
M 3334 1075 
Q 3334 1569 3581 1911 
Q 3828 2253 4300 2253 
Q 4731 2253 5014 1945 
Q 5297 1638 5297 1041 
Q 5297 459 5011 145 
Q 4725 -169 4303 -169 
Q 3888 -169 3611 142 
Q 3334 453 3334 1075 
z
M 4316 1866 
Q 4103 1866 3964 1684 
Q 3825 1503 3825 1019 
Q 3825 581 3965 400 
Q 4106 219 4313 219 
Q 4528 219 4667 400 
Q 4806 581 4806 1063 
Q 4806 1506 4665 1686 
Q 4525 1866 4316 1866 
z
" transform="scale(0.015625)"/>
       <path id="ArialMT-29" d="M 791 -1347 
L 388 -1347 
Q 1322 153 1322 1656 
Q 1322 2244 1188 2822 
Q 1081 3291 891 3722 
Q 769 4003 388 4659 
L 791 4659 
Q 1378 3875 1659 3084 
Q 1900 2403 1900 1659 
Q 1900 816 1576 28 
Q 1253 -759 791 -1347 
z
" transform="scale(0.015625)"/>
       <path id="ArialMT-20" transform="scale(0.015625)"/>
       <path id="ArialMT-6d" d="M 422 0 
L 422 3319 
L 925 3319 
L 925 2853 
Q 1081 3097 1340 3245 
Q 1600 3394 1931 3394 
Q 2300 3394 2536 3241 
Q 2772 3088 2869 2813 
Q 3263 3394 3894 3394 
Q 4388 3394 4653 3120 
Q 4919 2847 4919 2278 
L 4919 0 
L 4359 0 
L 4359 2091 
Q 4359 2428 4304 2576 
Q 4250 2725 4106 2815 
Q 3963 2906 3769 2906 
Q 3419 2906 3187 2673 
Q 2956 2441 2956 1928 
L 2956 0 
L 2394 0 
L 2394 2156 
Q 2394 2531 2256 2718 
Q 2119 2906 1806 2906 
Q 1569 2906 1367 2781 
Q 1166 2656 1075 2415 
Q 984 2175 984 1722 
L 984 0 
L 422 0 
z
" transform="scale(0.015625)"/>
       <path id="ArialMT-52" d="M 503 0 
L 503 4581 
L 2534 4581 
Q 3147 4581 3465 4457 
Q 3784 4334 3975 4021 
Q 4166 3709 4166 3331 
Q 4166 2844 3850 2509 
Q 3534 2175 2875 2084 
Q 3116 1969 3241 1856 
Q 3506 1613 3744 1247 
L 4541 0 
L 3778 0 
L 3172 953 
Q 2906 1366 2734 1584 
Q 2563 1803 2427 1890 
Q 2291 1978 2150 2013 
Q 2047 2034 1813 2034 
L 1109 2034 
L 1109 0 
L 503 0 
z
M 1109 2559 
L 2413 2559 
Q 2828 2559 3062 2645 
Q 3297 2731 3419 2920 
Q 3541 3109 3541 3331 
Q 3541 3656 3305 3865 
Q 3069 4075 2559 4075 
L 1109 4075 
L 1109 2559 
z
" transform="scale(0.015625)"/>
       <path id="ArialMT-75" d="M 2597 0 
L 2597 488 
Q 2209 -75 1544 -75 
Q 1250 -75 995 37 
Q 741 150 617 320 
Q 494 491 444 738 
Q 409 903 409 1263 
L 409 3319 
L 972 3319 
L 972 1478 
Q 972 1038 1006 884 
Q 1059 663 1231 536 
Q 1403 409 1656 409 
Q 1909 409 2131 539 
Q 2353 669 2445 892 
Q 2538 1116 2538 1541 
L 2538 3319 
L 3100 3319 
L 3100 0 
L 2597 0 
z
" transform="scale(0.015625)"/>
       <path id="ArialMT-62" d="M 941 0 
L 419 0 
L 419 4581 
L 981 4581 
L 981 2947 
Q 1338 3394 1891 3394 
Q 2197 3394 2470 3270 
Q 2744 3147 2920 2923 
Q 3097 2700 3197 2384 
Q 3297 2069 3297 1709 
Q 3297 856 2875 390 
Q 2453 -75 1863 -75 
Q 1275 -75 941 416 
L 941 0 
z
M 934 1684 
Q 934 1088 1097 822 
Q 1363 388 1816 388 
Q 2184 388 2453 708 
Q 2722 1028 2722 1663 
Q 2722 2313 2464 2622 
Q 2206 2931 1841 2931 
Q 1472 2931 1203 2611 
Q 934 2291 934 1684 
z
" transform="scale(0.015625)"/>
       <path id="ArialMT-79" d="M 397 -1278 
L 334 -750 
Q 519 -800 656 -800 
Q 844 -800 956 -737 
Q 1069 -675 1141 -563 
Q 1194 -478 1313 -144 
Q 1328 -97 1363 -6 
L 103 3319 
L 709 3319 
L 1400 1397 
Q 1534 1031 1641 628 
Q 1738 1016 1872 1384 
L 2581 3319 
L 3144 3319 
L 1881 -56 
Q 1678 -603 1566 -809 
Q 1416 -1088 1222 -1217 
Q 1028 -1347 759 -1347 
Q 597 -1347 397 -1278 
z
" transform="scale(0.015625)"/>
       <path id="ArialMT-2b" d="M 1603 741 
L 1603 1997 
L 356 1997 
L 356 2522 
L 1603 2522 
L 1603 3769 
L 2134 3769 
L 2134 2522 
L 3381 2522 
L 3381 1997 
L 2134 1997 
L 2134 741 
L 1603 741 
z
" transform="scale(0.015625)"/>
      </defs>
      <use xlink:href="#ArialMT-28"/>
      <use xlink:href="#ArialMT-25" transform="translate(33.300781 0)"/>
      <use xlink:href="#ArialMT-29" transform="translate(122.216797 0)"/>
      <use xlink:href="#ArialMT-20" transform="translate(155.517578 0)"/>
      <use xlink:href="#ArialMT-6d" transform="translate(183.300781 0)"/>
      <use xlink:href="#ArialMT-52" transform="translate(266.601562 0)"/>
      <use xlink:href="#ArialMT-75" transform="translate(338.818359 0)"/>
      <use xlink:href="#ArialMT-62" transform="translate(394.433594 0)"/>
      <use xlink:href="#ArialMT-79" transform="translate(450.048828 0)"/>
      <use xlink:href="#ArialMT-32" transform="translate(500.048828 0)"/>
      <use xlink:href="#ArialMT-2b" transform="translate(555.664062 0)"/>
     </g>
    </g>
   </g>
   <g id="patch_3">
    <path d="M 58.412344 138.935625 
L 71.372344 138.935625 
L 71.372344 113.257613 
L 58.412344 113.257613 
z
" clip-path="url(#pf925705314)" style="fill: #2f1b55; opacity: 0.8; stroke: #ffffff; stroke-linejoin: miter"/>
   </g>
   <g id="patch_4">
    <path d="M 139.412344 138.935625 
L 152.372344 138.935625 
L 152.372344 113.234697 
L 139.412344 113.234697 
z
" clip-path="url(#pf925705314)" style="fill: #2f1b55; opacity: 0.8; stroke: #ffffff; stroke-linejoin: miter"/>
   </g>
   <g id="patch_5">
    <path d="M 71.372344 138.935625 
L 84.332344 138.935625 
L 84.332344 78.93204 
L 71.372344 78.93204 
z
" clip-path="url(#pf925705314)" style="fill: #692c75; opacity: 0.8; stroke: #ffffff; stroke-linejoin: miter"/>
   </g>
   <g id="patch_6">
    <path d="M 152.372344 138.935625 
L 165.332344 138.935625 
L 165.332344 85.229572 
L 152.372344 85.229572 
z
" clip-path="url(#pf925705314)" style="fill: #692c75; opacity: 0.8; stroke: #ffffff; stroke-linejoin: miter"/>
   </g>
   <g id="patch_7">
    <path d="M 84.332344 138.935625 
L 97.292344 138.935625 
L 97.292344 65.445873 
L 84.332344 65.445873 
z
" clip-path="url(#pf925705314)" style="fill: #a74779; opacity: 0.8; stroke: #ffffff; stroke-linejoin: miter"/>
   </g>
   <g id="patch_8">
    <path d="M 165.332344 138.935625 
L 178.292344 138.935625 
L 178.292344 73.092854 
L 165.332344 73.092854 
z
" clip-path="url(#pf925705314)" style="fill: #a74779; opacity: 0.8; stroke: #ffffff; stroke-linejoin: miter"/>
   </g>
   <g id="patch_9">
    <path d="M 97.292344 138.935625 
L 110.252344 138.935625 
L 110.252344 55.928038 
L 97.292344 55.928038 
z
" clip-path="url(#pf925705314)" style="fill: #de7270; opacity: 0.8; stroke: #ffffff; stroke-linejoin: miter"/>
   </g>
   <g id="patch_10">
    <path d="M 178.292344 138.935625 
L 191.252344 138.935625 
L 191.252344 62.845866 
L 178.292344 62.845866 
z
" clip-path="url(#pf925705314)" style="fill: #de7270; opacity: 0.8; stroke: #ffffff; stroke-linejoin: miter"/>
   </g>
   <g id="patch_11">
    <path d="M 110.252344 138.935625 
L 123.212344 138.935625 
L 123.212344 43.389926 
L 110.252344 43.389926 
z
" clip-path="url(#pf925705314)" style="fill: #eeb389; opacity: 0.8; stroke: #ffffff; stroke-linejoin: miter"/>
   </g>
   <g id="patch_12">
    <path d="M 191.252344 138.935625 
L 204.212344 138.935625 
L 204.212344 50.981054 
L 191.252344 50.981054 
z
" clip-path="url(#pf925705314)" style="fill: #eeb389; opacity: 0.8; stroke: #ffffff; stroke-linejoin: miter"/>
   </g>
   <g id="line2d_8">
    <path d="M 64.892344 120.119934 
L 64.892344 105.989443 
" clip-path="url(#pf925705314)" style="fill: none; stroke: #424242; stroke-width: 2.7; stroke-linecap: round"/>
   </g>
   <g id="line2d_9">
    <path d="M 145.892344 120.123894 
L 145.892344 105.692216 
" clip-path="url(#pf925705314)" style="fill: none; stroke: #424242; stroke-width: 2.7; stroke-linecap: round"/>
   </g>
   <g id="line2d_10">
    <path d="M 77.852344 89.765035 
L 77.852344 66.348776 
" clip-path="url(#pf925705314)" style="fill: none; stroke: #424242; stroke-width: 2.7; stroke-linecap: round"/>
   </g>
   <g id="line2d_11">
    <path d="M 158.852344 94.94903 
L 158.852344 72.93989 
" clip-path="url(#pf925705314)" style="fill: none; stroke: #424242; stroke-width: 2.7; stroke-linecap: round"/>
   </g>
   <g id="line2d_12">
    <path d="M 90.812344 75.801103 
L 90.812344 54.346666 
" clip-path="url(#pf925705314)" style="fill: none; stroke: #424242; stroke-width: 2.7; stroke-linecap: round"/>
   </g>
   <g id="line2d_13">
    <path d="M 171.812344 79.983259 
L 171.812344 65.501803 
" clip-path="url(#pf925705314)" style="fill: none; stroke: #424242; stroke-width: 2.7; stroke-linecap: round"/>
   </g>
   <g id="line2d_14">
    <path d="M 103.772344 63.803467 
L 103.772344 47.410759 
" clip-path="url(#pf925705314)" style="fill: none; stroke: #424242; stroke-width: 2.7; stroke-linecap: round"/>
   </g>
   <g id="line2d_15">
    <path d="M 184.772344 69.043819 
L 184.772344 56.384807 
" clip-path="url(#pf925705314)" style="fill: none; stroke: #424242; stroke-width: 2.7; stroke-linecap: round"/>
   </g>
   <g id="line2d_16">
    <path d="M 116.732344 48.413315 
L 116.732344 37.491629 
" clip-path="url(#pf925705314)" style="fill: none; stroke: #424242; stroke-width: 2.7; stroke-linecap: round"/>
   </g>
   <g id="line2d_17">
    <path d="M 197.732344 55.773281 
L 197.732344 45.65325 
" clip-path="url(#pf925705314)" style="fill: none; stroke: #424242; stroke-width: 2.7; stroke-linecap: round"/>
   </g>
   <g id="patch_13">
    <path d="M 50.312344 138.935625 
L 50.312344 21.935625 
" style="fill: none; stroke: #262626; stroke-width: 1.25; stroke-linejoin: miter; stroke-linecap: square"/>
   </g>
   <g id="patch_14">
    <path d="M 212.312344 138.935625 
L 212.312344 21.935625 
" style="fill: none; stroke: #262626; stroke-width: 1.25; stroke-linejoin: miter; stroke-linecap: square"/>
   </g>
   <g id="patch_15">
    <path d="M 50.312344 138.935625 
L 212.312344 138.935625 
" style="fill: none; stroke: #262626; stroke-width: 1.25; stroke-linejoin: miter; stroke-linecap: square"/>
   </g>
   <g id="patch_16">
    <path d="M 50.312344 21.935625 
L 212.312344 21.935625 
" style="fill: none; stroke: #262626; stroke-width: 1.25; stroke-linejoin: miter; stroke-linecap: square"/>
   </g>
   <g id="PathCollection_1">
    <defs>
     <path id="C0_0_ca10a5c888" d="M 0 2.5 
C 0.663008 2.5 1.29895 2.236584 1.767767 1.767767 
C 2.236584 1.29895 2.5 0.663008 2.5 -0 
C 2.5 -0.663008 2.236584 -1.29895 1.767767 -1.767767 
C 1.29895 -2.236584 0.663008 -2.5 0 -2.5 
C -0.663008 -2.5 -1.29895 -2.236584 -1.767767 -1.767767 
C -2.236584 -1.29895 -2.5 -0.663008 -2.5 0 
C -2.5 0.663008 -2.236584 1.29895 -1.767767 1.767767 
C -1.29895 2.236584 -0.663008 2.5 0 2.5 
z
"/>
    </defs>
    <g clip-path="url(#pf925705314)">
     <use xlink:href="#C0_0_ca10a5c888" x="63.856579" y="126.194052" style="fill: #ffffff; stroke: #000000; stroke-width: 0.4"/>
    </g>
    <g clip-path="url(#pf925705314)">
     <use xlink:href="#C0_0_ca10a5c888" x="65.565433" y="127.287515" style="fill: #ffffff; stroke: #000000; stroke-width: 0.4"/>
    </g>
    <g clip-path="url(#pf925705314)">
     <use xlink:href="#C0_0_ca10a5c888" x="65.578282" y="129.652996" style="fill: #ffffff; stroke: #000000; stroke-width: 0.4"/>
    </g>
   </g>
   <g id="PathCollection_2">
    <defs>
     <path id="C1_0_106297b25b" d="M 0 2.5 
C 0.663008 2.5 1.29895 2.236584 1.767767 1.767767 
C 2.236584 1.29895 2.5 0.663008 2.5 -0 
C 2.5 -0.663008 2.236584 -1.29895 1.767767 -1.767767 
C 1.29895 -2.236584 0.663008 -2.5 0 -2.5 
C -0.663008 -2.5 -1.29895 -2.236584 -1.767767 -1.767767 
C -2.236584 -1.29895 -2.5 -0.663008 -2.5 0 
C -2.5 0.663008 -2.236584 1.29895 -1.767767 1.767767 
C -1.29895 2.236584 -0.663008 2.5 0 2.5 
z
"/>
    </defs>
    <g clip-path="url(#pf925705314)">
     <use xlink:href="#C1_0_106297b25b" x="77.051655" y="101.632005" style="fill: #ffffff; stroke: #000000; stroke-width: 0.4"/>
    </g>
    <g clip-path="url(#pf925705314)">
     <use xlink:href="#C1_0_106297b25b" x="79.317406" y="100.724337" style="fill: #ffffff; stroke: #000000; stroke-width: 0.4"/>
    </g>
    <g clip-path="url(#pf925705314)">
     <use xlink:href="#C1_0_106297b25b" x="77.10108" y="104.764011" style="fill: #ffffff; stroke: #000000; stroke-width: 0.4"/>
    </g>
   </g>
   <g id="PathCollection_3">
    <defs>
     <path id="C2_0_cff135fc01" d="M 0 2.5 
C 0.663008 2.5 1.29895 2.236584 1.767767 1.767767 
C 2.236584 1.29895 2.5 0.663008 2.5 -0 
C 2.5 -0.663008 2.236584 -1.29895 1.767767 -1.767767 
C 1.29895 -2.236584 0.663008 -2.5 0 -2.5 
C -0.663008 -2.5 -1.29895 -2.236584 -1.767767 -1.767767 
C -2.236584 -1.29895 -2.5 -0.663008 -2.5 0 
C -2.5 0.663008 -2.236584 1.29895 -1.767767 1.767767 
C -1.29895 2.236584 -0.663008 2.5 0 2.5 
z
"/>
    </defs>
    <g clip-path="url(#pf925705314)">
     <use xlink:href="#C2_0_cff135fc01" x="92.367205" y="81.296652" style="fill: #ffffff; stroke: #000000; stroke-width: 0.4"/>
    </g>
    <g clip-path="url(#pf925705314)">
     <use xlink:href="#C2_0_cff135fc01" x="89.526763" y="79.604808" style="fill: #ffffff; stroke: #000000; stroke-width: 0.4"/>
    </g>
    <g clip-path="url(#pf925705314)">
     <use xlink:href="#C2_0_cff135fc01" x="92.093028" y="96.412362" style="fill: #ffffff; stroke: #000000; stroke-width: 0.4"/>
    </g>
   </g>
   <g id="PathCollection_4">
    <defs>
     <path id="C3_0_41fd7e5af1" d="M 0 2.5 
C 0.663008 2.5 1.29895 2.236584 1.767767 1.767767 
C 2.236584 1.29895 2.5 0.663008 2.5 -0 
C 2.5 -0.663008 2.236584 -1.29895 1.767767 -1.767767 
C 1.29895 -2.236584 0.663008 -2.5 0 -2.5 
C -0.663008 -2.5 -1.29895 -2.236584 -1.767767 -1.767767 
C -2.236584 -1.29895 -2.5 -0.663008 -2.5 0 
C -2.5 0.663008 -2.236584 1.29895 -1.767767 1.767767 
C -1.29895 2.236584 -0.663008 2.5 0 2.5 
z
"/>
    </defs>
    <g clip-path="url(#pf925705314)">
     <use xlink:href="#C3_0_41fd7e5af1" x="103.394201" y="61.555808" style="fill: #ffffff; stroke: #000000; stroke-width: 0.4"/>
    </g>
    <g clip-path="url(#pf925705314)">
     <use xlink:href="#C3_0_41fd7e5af1" x="103.166242" y="71.687653" style="fill: #ffffff; stroke: #000000; stroke-width: 0.4"/>
    </g>
    <g clip-path="url(#pf925705314)">
     <use xlink:href="#C3_0_41fd7e5af1" x="102.185602" y="71.828476" style="fill: #ffffff; stroke: #000000; stroke-width: 0.4"/>
    </g>
   </g>
   <g id="PathCollection_5">
    <defs>
     <path id="C4_0_1197f4b5b8" d="M 0 2.5 
C 0.663008 2.5 1.29895 2.236584 1.767767 1.767767 
C 2.236584 1.29895 2.5 0.663008 2.5 -0 
C 2.5 -0.663008 2.236584 -1.29895 1.767767 -1.767767 
C 1.29895 -2.236584 0.663008 -2.5 0 -2.5 
C -0.663008 -2.5 -1.29895 -2.236584 -1.767767 -1.767767 
C -2.236584 -1.29895 -2.5 -0.663008 -2.5 0 
C -2.5 0.663008 -2.236584 1.29895 -1.767767 1.767767 
C -1.29895 2.236584 -0.663008 2.5 0 2.5 
z
"/>
    </defs>
    <g clip-path="url(#pf925705314)">
     <use xlink:href="#C4_0_1197f4b5b8" x="118.103128" y="42.745391" style="fill: #ffffff; stroke: #000000; stroke-width: 0.4"/>
    </g>
    <g clip-path="url(#pf925705314)">
     <use xlink:href="#C4_0_1197f4b5b8" x="115.53864" y="42.674758" style="fill: #ffffff; stroke: #000000; stroke-width: 0.4"/>
    </g>
    <g clip-path="url(#pf925705314)">
     <use xlink:href="#C4_0_1197f4b5b8" x="116.866905" y="46.927437" style="fill: #ffffff; stroke: #000000; stroke-width: 0.4"/>
    </g>
   </g>
   <g id="PathCollection_6">
    <defs>
     <path id="C5_0_d232bb5104" d="M 0 2.5 
C 0.663008 2.5 1.29895 2.236584 1.767767 1.767767 
C 2.236584 1.29895 2.5 0.663008 2.5 -0 
C 2.5 -0.663008 2.236584 -1.29895 1.767767 -1.767767 
C 1.29895 -2.236584 0.663008 -2.5 0 -2.5 
C -0.663008 -2.5 -1.29895 -2.236584 -1.767767 -1.767767 
C -2.236584 -1.29895 -2.5 -0.663008 -2.5 0 
C -2.5 0.663008 -2.236584 1.29895 -1.767767 1.767767 
C -1.29895 2.236584 -0.663008 2.5 0 2.5 
z
"/>
    </defs>
    <g clip-path="url(#pf925705314)">
     <use xlink:href="#C5_0_d232bb5104" x="145.452208" y="130.560417" style="fill: #ffffff; stroke: #000000; stroke-width: 0.4"/>
    </g>
    <g clip-path="url(#pf925705314)">
     <use xlink:href="#C5_0_d232bb5104" x="146.872385" y="129.828292" style="fill: #ffffff; stroke: #000000; stroke-width: 0.4"/>
    </g>
    <g clip-path="url(#pf925705314)">
     <use xlink:href="#C5_0_d232bb5104" x="144.468621" y="128.201578" style="fill: #ffffff; stroke: #000000; stroke-width: 0.4"/>
    </g>
   </g>
   <g id="PathCollection_7">
    <defs>
     <path id="C6_0_9d7e059331" d="M 0 2.5 
C 0.663008 2.5 1.29895 2.236584 1.767767 1.767767 
C 2.236584 1.29895 2.5 0.663008 2.5 -0 
C 2.5 -0.663008 2.236584 -1.29895 1.767767 -1.767767 
C 1.29895 -2.236584 0.663008 -2.5 0 -2.5 
C -0.663008 -2.5 -1.29895 -2.236584 -1.767767 -1.767767 
C -2.236584 -1.29895 -2.5 -0.663008 -2.5 0 
C -2.5 0.663008 -2.236584 1.29895 -1.767767 1.767767 
C -1.29895 2.236584 -0.663008 2.5 0 2.5 
z
"/>
    </defs>
    <g clip-path="url(#pf925705314)">
     <use xlink:href="#C6_0_9d7e059331" x="159.214989" y="101.404315" style="fill: #ffffff; stroke: #000000; stroke-width: 0.4"/>
    </g>
    <g clip-path="url(#pf925705314)">
     <use xlink:href="#C6_0_9d7e059331" x="158.960609" y="107.610122" style="fill: #ffffff; stroke: #000000; stroke-width: 0.4"/>
    </g>
    <g clip-path="url(#pf925705314)">
     <use xlink:href="#C6_0_9d7e059331" x="159.86179" y="108.620703" style="fill: #ffffff; stroke: #000000; stroke-width: 0.4"/>
    </g>
   </g>
   <g id="PathCollection_8">
    <defs>
     <path id="C7_0_0cd003d981" d="M 0 2.5 
C 0.663008 2.5 1.29895 2.236584 1.767767 1.767767 
C 2.236584 1.29895 2.5 0.663008 2.5 -0 
C 2.5 -0.663008 2.236584 -1.29895 1.767767 -1.767767 
C 1.29895 -2.236584 0.663008 -2.5 0 -2.5 
C -0.663008 -2.5 -1.29895 -2.236584 -1.767767 -1.767767 
C -2.236584 -1.29895 -2.5 -0.663008 -2.5 0 
C -2.5 0.663008 -2.236584 1.29895 -1.767767 1.767767 
C -1.29895 2.236584 -0.663008 2.5 0 2.5 
z
"/>
    </defs>
    <g clip-path="url(#pf925705314)">
     <use xlink:href="#C7_0_0cd003d981" x="173.213908" y="83.373233" style="fill: #ffffff; stroke: #000000; stroke-width: 0.4"/>
    </g>
    <g clip-path="url(#pf925705314)">
     <use xlink:href="#C7_0_0cd003d981" x="172.657472" y="81.260049" style="fill: #ffffff; stroke: #000000; stroke-width: 0.4"/>
    </g>
    <g clip-path="url(#pf925705314)">
     <use xlink:href="#C7_0_0cd003d981" x="172.664237" y="92.339452" style="fill: #ffffff; stroke: #000000; stroke-width: 0.4"/>
    </g>
   </g>
   <g id="PathCollection_9">
    <defs>
     <path id="C8_0_73b0437849" d="M 0 2.5 
C 0.663008 2.5 1.29895 2.236584 1.767767 1.767767 
C 2.236584 1.29895 2.5 0.663008 2.5 -0 
C 2.5 -0.663008 2.236584 -1.29895 1.767767 -1.767767 
C 1.29895 -2.236584 0.663008 -2.5 0 -2.5 
C -0.663008 -2.5 -1.29895 -2.236584 -1.767767 -1.767767 
C -2.236584 -1.29895 -2.5 -0.663008 -2.5 0 
C -2.5 0.663008 -2.236584 1.29895 -1.767767 1.767767 
C -1.29895 2.236584 -0.663008 2.5 0 2.5 
z
"/>
    </defs>
    <g clip-path="url(#pf925705314)">
     <use xlink:href="#C8_0_73b0437849" x="185.339808" y="70.81572" style="fill: #ffffff; stroke: #000000; stroke-width: 0.4"/>
    </g>
    <g clip-path="url(#pf925705314)">
     <use xlink:href="#C8_0_73b0437849" x="185.335923" y="69.281082" style="fill: #ffffff; stroke: #000000; stroke-width: 0.4"/>
    </g>
    <g clip-path="url(#pf925705314)">
     <use xlink:href="#C8_0_73b0437849" x="183.653313" y="75.179701" style="fill: #ffffff; stroke: #000000; stroke-width: 0.4"/>
    </g>
   </g>
   <g id="PathCollection_10">
    <defs>
     <path id="C9_0_bb514f1f62" d="M 0 2.5 
C 0.663008 2.5 1.29895 2.236584 1.767767 1.767767 
C 2.236584 1.29895 2.5 0.663008 2.5 -0 
C 2.5 -0.663008 2.236584 -1.29895 1.767767 -1.767767 
C 1.29895 -2.236584 0.663008 -2.5 0 -2.5 
C -0.663008 -2.5 -1.29895 -2.236584 -1.767767 -1.767767 
C -2.236584 -1.29895 -2.5 -0.663008 -2.5 0 
C -2.5 0.663008 -2.236584 1.29895 -1.767767 1.767767 
C -1.29895 2.236584 -0.663008 2.5 0 2.5 
z
"/>
    </defs>
    <g clip-path="url(#pf925705314)">
     <use xlink:href="#C9_0_bb514f1f62" x="198.977736" y="52.968189" style="fill: #ffffff; stroke: #000000; stroke-width: 0.4"/>
    </g>
    <g clip-path="url(#pf925705314)">
     <use xlink:href="#C9_0_bb514f1f62" x="197.614988" y="57.5586" style="fill: #ffffff; stroke: #000000; stroke-width: 0.4"/>
    </g>
    <g clip-path="url(#pf925705314)">
     <use xlink:href="#C9_0_bb514f1f62" x="199.011849" y="53.743945" style="fill: #ffffff; stroke: #000000; stroke-width: 0.4"/>
    </g>
   </g>
   <g id="PathCollection_11">
    <path d="M 64.349941 113.780684 
L 61.849941 118.780684 
L 66.849941 118.780684 
z
" clip-path="url(#pf925705314)" style="fill: #ffffff; stroke: #000000; stroke-width: 0.4"/>
    <path d="M 66.408991 112.372076 
L 63.908991 117.372076 
L 68.908991 117.372076 
z
" clip-path="url(#pf925705314)" style="fill: #ffffff; stroke: #000000; stroke-width: 0.4"/>
    <path d="M 64.301084 115.314161 
L 61.801084 120.314161 
L 66.801084 120.314161 
z
" clip-path="url(#pf925705314)" style="fill: #ffffff; stroke: #000000; stroke-width: 0.4"/>
   </g>
   <g id="PathCollection_12">
    <path d="M 76.7441 77.220911 
L 74.2441 82.220911 
L 79.2441 82.220911 
z
" clip-path="url(#pf925705314)" style="fill: #ffffff; stroke: #000000; stroke-width: 0.4"/>
    <path d="M 77.482471 80.246099 
L 74.982471 85.246099 
L 79.982471 85.246099 
z
" clip-path="url(#pf925705314)" style="fill: #ffffff; stroke: #000000; stroke-width: 0.4"/>
    <path d="M 79.263631 76.755199 
L 76.763631 81.755199 
L 81.763631 81.755199 
z
" clip-path="url(#pf925705314)" style="fill: #ffffff; stroke: #000000; stroke-width: 0.4"/>
   </g>
   <g id="PathCollection_13">
    <path d="M 92.055345 58.695105 
L 89.555345 63.695105 
L 94.555345 63.695105 
z
" clip-path="url(#pf925705314)" style="fill: #ffffff; stroke: #000000; stroke-width: 0.4"/>
    <path d="M 89.668746 63.408879 
L 87.168746 68.408879 
L 92.168746 68.408879 
z
" clip-path="url(#pf925705314)" style="fill: #ffffff; stroke: #000000; stroke-width: 0.4"/>
    <path d="M 89.262342 66.884709 
L 86.762342 71.884709 
L 91.762342 71.884709 
z
" clip-path="url(#pf925705314)" style="fill: #ffffff; stroke: #000000; stroke-width: 0.4"/>
   </g>
   <g id="PathCollection_14">
    <path d="M 105.048473 62.070426 
L 102.548473 67.070426 
L 107.548473 67.070426 
z
" clip-path="url(#pf925705314)" style="fill: #ffffff; stroke: #000000; stroke-width: 0.4"/>
    <path d="M 102.640815 55.620845 
L 100.140815 60.620845 
L 105.140815 60.620845 
z
" clip-path="url(#pf925705314)" style="fill: #ffffff; stroke: #000000; stroke-width: 0.4"/>
    <path d="M 104.883243 55.219498 
L 102.383243 60.219498 
L 107.383243 60.219498 
z
" clip-path="url(#pf925705314)" style="fill: #ffffff; stroke: #000000; stroke-width: 0.4"/>
   </g>
   <g id="PathCollection_15">
    <path d="M 117.573519 43.237217 
L 115.073519 48.237217 
L 120.073519 48.237217 
z
" clip-path="url(#pf925705314)" style="fill: #ffffff; stroke: #000000; stroke-width: 0.4"/>
    <path d="M 117.614535 44.991277 
L 115.114535 49.991277 
L 120.114535 49.991277 
z
" clip-path="url(#pf925705314)" style="fill: #ffffff; stroke: #000000; stroke-width: 0.4"/>
    <path d="M 117.117205 48.566794 
L 114.617205 53.566794 
L 119.617205 53.566794 
z
" clip-path="url(#pf925705314)" style="fill: #ffffff; stroke: #000000; stroke-width: 0.4"/>
   </g>
   <g id="PathCollection_16">
    <path d="M 145.710355 112.729958 
L 143.210355 117.729958 
L 148.210355 117.729958 
z
" clip-path="url(#pf925705314)" style="fill: #ffffff; stroke: #000000; stroke-width: 0.4"/>
    <path d="M 144.448361 108.962194 
L 141.948361 113.962194 
L 146.948361 113.962194 
z
" clip-path="url(#pf925705314)" style="fill: #ffffff; stroke: #000000; stroke-width: 0.4"/>
    <path d="M 147.216168 113.859647 
L 144.716168 118.859647 
L 149.716168 118.859647 
z
" clip-path="url(#pf925705314)" style="fill: #ffffff; stroke: #000000; stroke-width: 0.4"/>
   </g>
   <g id="PathCollection_17">
    <path d="M 157.866339 84.953762 
L 155.366339 89.953762 
L 160.366339 89.953762 
z
" clip-path="url(#pf925705314)" style="fill: #ffffff; stroke: #000000; stroke-width: 0.4"/>
    <path d="M 158.685184 85.076129 
L 156.185184 90.076129 
L 161.185184 90.076129 
z
" clip-path="url(#pf925705314)" style="fill: #ffffff; stroke: #000000; stroke-width: 0.4"/>
    <path d="M 157.669083 84.010533 
L 155.169083 89.010533 
L 160.169083 89.010533 
z
" clip-path="url(#pf925705314)" style="fill: #ffffff; stroke: #000000; stroke-width: 0.4"/>
   </g>
   <g id="PathCollection_18">
    <path d="M 172.826671 73.010218 
L 170.326671 78.010218 
L 175.326671 78.010218 
z
" clip-path="url(#pf925705314)" style="fill: #ffffff; stroke: #000000; stroke-width: 0.4"/>
    <path d="M 172.988402 72.71714 
L 170.488402 77.71714 
L 175.488402 77.71714 
z
" clip-path="url(#pf925705314)" style="fill: #ffffff; stroke: #000000; stroke-width: 0.4"/>
    <path d="M 172.925858 69.19879 
L 170.425858 74.19879 
L 175.425858 74.19879 
z
" clip-path="url(#pf925705314)" style="fill: #ffffff; stroke: #000000; stroke-width: 0.4"/>
   </g>
   <g id="PathCollection_19">
    <path d="M 184.699278 58.770854 
L 182.199278 63.770854 
L 187.199278 63.770854 
z
" clip-path="url(#pf925705314)" style="fill: #ffffff; stroke: #000000; stroke-width: 0.4"/>
    <path d="M 184.999823 64.22477 
L 182.499823 69.22477 
L 187.499823 69.22477 
z
" clip-path="url(#pf925705314)" style="fill: #ffffff; stroke: #000000; stroke-width: 0.4"/>
    <path d="M 183.665144 64.089393 
L 181.165144 69.089393 
L 186.165144 69.089393 
z
" clip-path="url(#pf925705314)" style="fill: #ffffff; stroke: #000000; stroke-width: 0.4"/>
   </g>
   <g id="PathCollection_20">
    <path d="M 197.258486 48.326033 
L 194.758486 53.326033 
L 199.758486 53.326033 
z
" clip-path="url(#pf925705314)" style="fill: #ffffff; stroke: #000000; stroke-width: 0.4"/>
    <path d="M 196.230703 52.156621 
L 193.730703 57.156621 
L 198.730703 57.156621 
z
" clip-path="url(#pf925705314)" style="fill: #ffffff; stroke: #000000; stroke-width: 0.4"/>
    <path d="M 196.524038 49.555211 
L 194.024038 54.555211 
L 199.024038 54.555211 
z
" clip-path="url(#pf925705314)" style="fill: #ffffff; stroke: #000000; stroke-width: 0.4"/>
   </g>
   <g id="PathCollection_21">
    <path d="M 61.025731 100.126037 
L 66.025731 100.126037 
L 66.025731 95.126037 
L 61.025731 95.126037 
z
" clip-path="url(#pf925705314)" style="fill: #ffffff; stroke: #000000; stroke-width: 0.4"/>
    <path d="M 62.490811 95.132477 
L 67.490811 95.132477 
L 67.490811 90.132477 
L 62.490811 90.132477 
z
" clip-path="url(#pf925705314)" style="fill: #ffffff; stroke: #000000; stroke-width: 0.4"/>
    <path d="M 63.076889 92.280405 
L 68.076889 92.280405 
L 68.076889 87.280405 
L 63.076889 87.280405 
z
" clip-path="url(#pf925705314)" style="fill: #ffffff; stroke: #000000; stroke-width: 0.4"/>
   </g>
   <g id="PathCollection_22">
    <path d="M 74.493421 52.865392 
L 79.493421 52.865392 
L 79.493421 47.865392 
L 74.493421 47.865392 
z
" clip-path="url(#pf925705314)" style="fill: #ffffff; stroke: #000000; stroke-width: 0.4"/>
    <path d="M 75.847733 45.98744 
L 80.847733 45.98744 
L 80.847733 40.98744 
L 75.847733 40.98744 
z
" clip-path="url(#pf925705314)" style="fill: #ffffff; stroke: #000000; stroke-width: 0.4"/>
    <path d="M 76.21188 45.844644 
L 81.21188 45.844644 
L 81.21188 40.844644 
L 76.21188 40.844644 
z
" clip-path="url(#pf925705314)" style="fill: #ffffff; stroke: #000000; stroke-width: 0.4"/>
   </g>
   <g id="PathCollection_23">
    <path d="M 89.37005 38.189188 
L 94.37005 38.189188 
L 94.37005 33.189188 
L 89.37005 33.189188 
z
" clip-path="url(#pf925705314)" style="fill: #ffffff; stroke: #000000; stroke-width: 0.4"/>
    <path d="M 87.551599 37.463891 
L 92.551599 37.463891 
L 92.551599 32.463891 
L 87.551599 32.463891 
z
" clip-path="url(#pf925705314)" style="fill: #ffffff; stroke: #000000; stroke-width: 0.4"/>
    <path d="M 89.187593 36.645105 
L 94.187593 36.645105 
L 94.187593 31.645105 
L 89.187593 31.645105 
z
" clip-path="url(#pf925705314)" style="fill: #ffffff; stroke: #000000; stroke-width: 0.4"/>
   </g>
   <g id="PathCollection_24">
    <path d="M 100.582595 33.369432 
L 105.582595 33.369432 
L 105.582595 28.369432 
L 100.582595 28.369432 
z
" clip-path="url(#pf925705314)" style="fill: #ffffff; stroke: #000000; stroke-width: 0.4"/>
    <path d="M 102.22454 33.767426 
L 107.22454 33.767426 
L 107.22454 28.767426 
L 102.22454 28.767426 
z
" clip-path="url(#pf925705314)" style="fill: #ffffff; stroke: #000000; stroke-width: 0.4"/>
    <path d="M 101.776377 34.202508 
L 106.776377 34.202508 
L 106.776377 29.202508 
L 101.776377 29.202508 
z
" clip-path="url(#pf925705314)" style="fill: #ffffff; stroke: #000000; stroke-width: 0.4"/>
   </g>
   <g id="PathCollection_25">
    <path d="M 114.704816 30.007054 
L 119.704816 30.007054 
L 119.704816 25.007054 
L 114.704816 25.007054 
z
" clip-path="url(#pf925705314)" style="fill: #ffffff; stroke: #000000; stroke-width: 0.4"/>
    <path d="M 113.196841 30.048722 
L 118.196841 30.048722 
L 118.196841 25.048722 
L 113.196841 25.048722 
z
" clip-path="url(#pf925705314)" style="fill: #ffffff; stroke: #000000; stroke-width: 0.4"/>
    <path d="M 115.205164 31.424684 
L 120.205164 31.424684 
L 120.205164 26.424684 
L 115.205164 26.424684 
z
" clip-path="url(#pf925705314)" style="fill: #ffffff; stroke: #000000; stroke-width: 0.4"/>
   </g>
   <g id="PathCollection_26">
    <path d="M 143.92397 94.275585 
L 148.92397 94.275585 
L 148.92397 89.275585 
L 143.92397 89.275585 
z
" clip-path="url(#pf925705314)" style="fill: #ffffff; stroke: #000000; stroke-width: 0.4"/>
    <path d="M 143.315884 96.400165 
L 148.315884 96.400165 
L 148.315884 91.400165 
L 143.315884 91.400165 
z
" clip-path="url(#pf925705314)" style="fill: #ffffff; stroke: #000000; stroke-width: 0.4"/>
    <path d="M 142.480434 94.915072 
L 147.480434 94.915072 
L 147.480434 89.915072 
L 142.480434 89.915072 
z
" clip-path="url(#pf925705314)" style="fill: #ffffff; stroke: #000000; stroke-width: 0.4"/>
   </g>
   <g id="PathCollection_27">
    <path d="M 155.090968 59.00053 
L 160.090968 59.00053 
L 160.090968 54.00053 
L 155.090968 54.00053 
z
" clip-path="url(#pf925705314)" style="fill: #ffffff; stroke: #000000; stroke-width: 0.4"/>
    <path d="M 156.056478 55.302742 
L 161.056478 55.302742 
L 161.056478 50.302742 
L 156.056478 50.302742 
z
" clip-path="url(#pf925705314)" style="fill: #ffffff; stroke: #000000; stroke-width: 0.4"/>
    <path d="M 155.293019 60.644633 
L 160.293019 60.644633 
L 160.293019 55.644633 
L 155.293019 55.644633 
z
" clip-path="url(#pf925705314)" style="fill: #ffffff; stroke: #000000; stroke-width: 0.4"/>
   </g>
   <g id="PathCollection_28">
    <path d="M 169.08898 55.159076 
L 174.08898 55.159076 
L 174.08898 50.159076 
L 169.08898 50.159076 
z
" clip-path="url(#pf925705314)" style="fill: #ffffff; stroke: #000000; stroke-width: 0.4"/>
    <path d="M 170.641201 52.692045 
L 175.641201 52.692045 
L 175.641201 47.692045 
L 170.641201 47.692045 
z
" clip-path="url(#pf925705314)" style="fill: #ffffff; stroke: #000000; stroke-width: 0.4"/>
    <path d="M 167.887406 55.18228 
L 172.887406 55.18228 
L 172.887406 50.18228 
L 167.887406 50.18228 
z
" clip-path="url(#pf925705314)" style="fill: #ffffff; stroke: #000000; stroke-width: 0.4"/>
   </g>
   <g id="PathCollection_29">
    <path d="M 182.722926 46.745904 
L 187.722926 46.745904 
L 187.722926 41.745904 
L 182.722926 41.745904 
z
" clip-path="url(#pf925705314)" style="fill: #ffffff; stroke: #000000; stroke-width: 0.4"/>
    <path d="M 181.705923 50.151559 
L 186.705923 50.151559 
L 186.705923 45.151559 
L 181.705923 45.151559 
z
" clip-path="url(#pf925705314)" style="fill: #ffffff; stroke: #000000; stroke-width: 0.4"/>
    <path d="M 182.763569 44.766609 
L 187.763569 44.766609 
L 187.763569 39.766609 
L 182.763569 39.766609 
z
" clip-path="url(#pf925705314)" style="fill: #ffffff; stroke: #000000; stroke-width: 0.4"/>
   </g>
   <g id="PathCollection_30">
    <path d="M 193.861424 41.566189 
L 198.861424 41.566189 
L 198.861424 36.566189 
L 193.861424 36.566189 
z
" clip-path="url(#pf925705314)" style="fill: #ffffff; stroke: #000000; stroke-width: 0.4"/>
    <path d="M 194.424869 39.344264 
L 199.424869 39.344264 
L 199.424869 34.344264 
L 194.424869 34.344264 
z
" clip-path="url(#pf925705314)" style="fill: #ffffff; stroke: #000000; stroke-width: 0.4"/>
    <path d="M 195.767494 38.099697 
L 200.767494 38.099697 
L 200.767494 33.099697 
L 195.767494 33.099697 
z
" clip-path="url(#pf925705314)" style="fill: #ffffff; stroke: #000000; stroke-width: 0.4"/>
   </g>
   <g id="PathCollection_31">
    <path d="M 65.647491 119.434164 
L 69.183025 115.89863 
L 65.647491 112.363097 
L 62.111957 115.89863 
z
" clip-path="url(#pf925705314)" style="fill: #ffffff; stroke: #000000; stroke-width: 0.4"/>
    <path d="M 64.002203 118.315039 
L 67.537736 114.779505 
L 64.002203 111.243971 
L 60.466669 114.779505 
z
" clip-path="url(#pf925705314)" style="fill: #ffffff; stroke: #000000; stroke-width: 0.4"/>
    <path d="M 65.983096 119.808355 
L 69.518629 116.272821 
L 65.983096 112.737287 
L 62.447562 116.272821 
z
" clip-path="url(#pf925705314)" style="fill: #ffffff; stroke: #000000; stroke-width: 0.4"/>
   </g>
   <g id="PathCollection_32">
    <path d="M 76.58502 91.825789 
L 80.120554 88.290255 
L 76.58502 84.754721 
L 73.049486 88.290255 
z
" clip-path="url(#pf925705314)" style="fill: #ffffff; stroke: #000000; stroke-width: 0.4"/>
    <path d="M 78.827547 88.468258 
L 82.363081 84.932724 
L 78.827547 81.39719 
L 75.292013 84.932724 
z
" clip-path="url(#pf925705314)" style="fill: #ffffff; stroke: #000000; stroke-width: 0.4"/>
    <path d="M 78.442875 91.456997 
L 81.978409 87.921463 
L 78.442875 84.385929 
L 74.907341 87.921463 
z
" clip-path="url(#pf925705314)" style="fill: #ffffff; stroke: #000000; stroke-width: 0.4"/>
   </g>
   <g id="PathCollection_33">
    <path d="M 91.250569 79.62758 
L 94.786103 76.092047 
L 91.250569 72.556513 
L 87.715035 76.092047 
z
" clip-path="url(#pf925705314)" style="fill: #ffffff; stroke: #000000; stroke-width: 0.4"/>
    <path d="M 90.543277 78.669121 
L 94.078811 75.133587 
L 90.543277 71.598053 
L 87.007743 75.133587 
z
" clip-path="url(#pf925705314)" style="fill: #ffffff; stroke: #000000; stroke-width: 0.4"/>
    <path d="M 90.716174 79.059679 
L 94.251708 75.524145 
L 90.716174 71.988611 
L 87.18064 75.524145 
z
" clip-path="url(#pf925705314)" style="fill: #ffffff; stroke: #000000; stroke-width: 0.4"/>
   </g>
   <g id="PathCollection_34">
    <path d="M 105.292984 68.324002 
L 108.828518 64.788468 
L 105.292984 61.252934 
L 101.75745 64.788468 
z
" clip-path="url(#pf925705314)" style="fill: #ffffff; stroke: #000000; stroke-width: 0.4"/>
    <path d="M 103.321812 65.455593 
L 106.857346 61.920059 
L 103.321812 58.384525 
L 99.786278 61.920059 
z
" clip-path="url(#pf925705314)" style="fill: #ffffff; stroke: #000000; stroke-width: 0.4"/>
    <path d="M 105.143132 68.641395 
L 108.678665 65.105862 
L 105.143132 61.570328 
L 101.607598 65.105862 
z
" clip-path="url(#pf925705314)" style="fill: #ffffff; stroke: #000000; stroke-width: 0.4"/>
   </g>
   <g id="PathCollection_35">
    <path d="M 115.733145 55.970945 
L 119.268679 52.435412 
L 115.733145 48.899878 
L 112.197611 52.435412 
z
" clip-path="url(#pf925705314)" style="fill: #ffffff; stroke: #000000; stroke-width: 0.4"/>
    <path d="M 115.216107 56.907833 
L 118.751641 53.372299 
L 115.216107 49.836765 
L 111.680573 53.372299 
z
" clip-path="url(#pf925705314)" style="fill: #ffffff; stroke: #000000; stroke-width: 0.4"/>
    <path d="M 118.110037 57.783601 
L 121.645571 54.248067 
L 118.110037 50.712533 
L 114.574503 54.248067 
z
" clip-path="url(#pf925705314)" style="fill: #ffffff; stroke: #000000; stroke-width: 0.4"/>
   </g>
   <g id="PathCollection_36">
    <path d="M 147.462938 119.328408 
L 150.998471 115.792874 
L 147.462938 112.25734 
L 143.927404 115.792874 
z
" clip-path="url(#pf925705314)" style="fill: #ffffff; stroke: #000000; stroke-width: 0.4"/>
    <path d="M 146.097688 119.845126 
L 149.633222 116.309592 
L 146.097688 112.774058 
L 142.562154 116.309592 
z
" clip-path="url(#pf925705314)" style="fill: #ffffff; stroke: #000000; stroke-width: 0.4"/>
    <path d="M 144.691621 120.516521 
L 148.227155 116.980987 
L 144.691621 113.445453 
L 141.156087 116.980987 
z
" clip-path="url(#pf925705314)" style="fill: #ffffff; stroke: #000000; stroke-width: 0.4"/>
   </g>
   <g id="PathCollection_37">
    <path d="M 157.464052 98.131288 
L 160.999586 94.595754 
L 157.464052 91.060221 
L 153.928518 94.595754 
z
" clip-path="url(#pf925705314)" style="fill: #ffffff; stroke: #000000; stroke-width: 0.4"/>
    <path d="M 158.293566 96.18655 
L 161.8291 92.651016 
L 158.293566 89.115482 
L 154.758032 92.651016 
z
" clip-path="url(#pf925705314)" style="fill: #ffffff; stroke: #000000; stroke-width: 0.4"/>
    <path d="M 157.945327 92.420157 
L 161.480861 88.884623 
L 157.945327 85.349089 
L 154.409793 88.884623 
z
" clip-path="url(#pf925705314)" style="fill: #ffffff; stroke: #000000; stroke-width: 0.4"/>
   </g>
   <g id="PathCollection_38">
    <path d="M 170.789942 86.4698 
L 174.325476 82.934266 
L 170.789942 79.398732 
L 167.254408 82.934266 
z
" clip-path="url(#pf925705314)" style="fill: #ffffff; stroke: #000000; stroke-width: 0.4"/>
    <path d="M 170.327059 87.495302 
L 173.862593 83.959768 
L 170.327059 80.424234 
L 166.791525 83.959768 
z
" clip-path="url(#pf925705314)" style="fill: #ffffff; stroke: #000000; stroke-width: 0.4"/>
    <path d="M 171.102794 78.823469 
L 174.638328 75.287935 
L 171.102794 71.752401 
L 167.56726 75.287935 
z
" clip-path="url(#pf925705314)" style="fill: #ffffff; stroke: #000000; stroke-width: 0.4"/>
   </g>
   <g id="PathCollection_39">
    <path d="M 183.710893 76.905664 
L 187.246427 73.37013 
L 183.710893 69.834596 
L 180.175359 73.37013 
z
" clip-path="url(#pf925705314)" style="fill: #ffffff; stroke: #000000; stroke-width: 0.4"/>
    <path d="M 186.35326 75.045929 
L 189.888794 71.510395 
L 186.35326 67.974861 
L 182.817726 71.510395 
z
" clip-path="url(#pf925705314)" style="fill: #ffffff; stroke: #000000; stroke-width: 0.4"/>
    <path d="M 185.276162 68.779808 
L 188.811696 65.244274 
L 185.276162 61.70874 
L 181.740628 65.244274 
z
" clip-path="url(#pf925705314)" style="fill: #ffffff; stroke: #000000; stroke-width: 0.4"/>
   </g>
   <g id="PathCollection_40">
    <path d="M 197.711138 64.265012 
L 201.246672 60.729478 
L 197.711138 57.193944 
L 194.175605 60.729478 
z
" clip-path="url(#pf925705314)" style="fill: #ffffff; stroke: #000000; stroke-width: 0.4"/>
    <path d="M 198.268362 65.586925 
L 201.803896 62.051391 
L 198.268362 58.515857 
L 194.732828 62.051391 
z
" clip-path="url(#pf925705314)" style="fill: #ffffff; stroke: #000000; stroke-width: 0.4"/>
    <path d="M 196.510978 59.208559 
L 200.046512 55.673025 
L 196.510978 52.137491 
L 192.975444 55.673025 
z
" clip-path="url(#pf925705314)" style="fill: #ffffff; stroke: #000000; stroke-width: 0.4"/>
   </g>
   <g id="text_9">
    <!-- (%) mRuby2+ at 4dpi -->
    <g style="fill: #262626" transform="translate(74.789531 15.935625) scale(0.12 -0.12)">
     <defs>
      <path id="ArialMT-61" d="M 2588 409 
Q 2275 144 1986 34 
Q 1697 -75 1366 -75 
Q 819 -75 525 192 
Q 231 459 231 875 
Q 231 1119 342 1320 
Q 453 1522 633 1644 
Q 813 1766 1038 1828 
Q 1203 1872 1538 1913 
Q 2219 1994 2541 2106 
Q 2544 2222 2544 2253 
Q 2544 2597 2384 2738 
Q 2169 2928 1744 2928 
Q 1347 2928 1158 2789 
Q 969 2650 878 2297 
L 328 2372 
Q 403 2725 575 2942 
Q 747 3159 1072 3276 
Q 1397 3394 1825 3394 
Q 2250 3394 2515 3294 
Q 2781 3194 2906 3042 
Q 3031 2891 3081 2659 
Q 3109 2516 3109 2141 
L 3109 1391 
Q 3109 606 3145 398 
Q 3181 191 3288 0 
L 2700 0 
Q 2613 175 2588 409 
z
M 2541 1666 
Q 2234 1541 1622 1453 
Q 1275 1403 1131 1340 
Q 988 1278 909 1158 
Q 831 1038 831 891 
Q 831 666 1001 516 
Q 1172 366 1500 366 
Q 1825 366 2078 508 
Q 2331 650 2450 897 
Q 2541 1088 2541 1459 
L 2541 1666 
z
" transform="scale(0.015625)"/>
      <path id="ArialMT-74" d="M 1650 503 
L 1731 6 
Q 1494 -44 1306 -44 
Q 1000 -44 831 53 
Q 663 150 594 308 
Q 525 466 525 972 
L 525 2881 
L 113 2881 
L 113 3319 
L 525 3319 
L 525 4141 
L 1084 4478 
L 1084 3319 
L 1650 3319 
L 1650 2881 
L 1084 2881 
L 1084 941 
Q 1084 700 1114 631 
Q 1144 563 1211 522 
Q 1278 481 1403 481 
Q 1497 481 1650 503 
z
" transform="scale(0.015625)"/>
      <path id="ArialMT-34" d="M 2069 0 
L 2069 1097 
L 81 1097 
L 81 1613 
L 2172 4581 
L 2631 4581 
L 2631 1613 
L 3250 1613 
L 3250 1097 
L 2631 1097 
L 2631 0 
L 2069 0 
z
M 2069 1613 
L 2069 3678 
L 634 1613 
L 2069 1613 
z
" transform="scale(0.015625)"/>
      <path id="ArialMT-64" d="M 2575 0 
L 2575 419 
Q 2259 -75 1647 -75 
Q 1250 -75 917 144 
Q 584 363 401 755 
Q 219 1147 219 1656 
Q 219 2153 384 2558 
Q 550 2963 881 3178 
Q 1213 3394 1622 3394 
Q 1922 3394 2156 3267 
Q 2391 3141 2538 2938 
L 2538 4581 
L 3097 4581 
L 3097 0 
L 2575 0 
z
M 797 1656 
Q 797 1019 1065 703 
Q 1334 388 1700 388 
Q 2069 388 2326 689 
Q 2584 991 2584 1609 
Q 2584 2291 2321 2609 
Q 2059 2928 1675 2928 
Q 1300 2928 1048 2622 
Q 797 2316 797 1656 
z
" transform="scale(0.015625)"/>
      <path id="ArialMT-70" d="M 422 -1272 
L 422 3319 
L 934 3319 
L 934 2888 
Q 1116 3141 1344 3267 
Q 1572 3394 1897 3394 
Q 2322 3394 2647 3175 
Q 2972 2956 3137 2557 
Q 3303 2159 3303 1684 
Q 3303 1175 3120 767 
Q 2938 359 2589 142 
Q 2241 -75 1856 -75 
Q 1575 -75 1351 44 
Q 1128 163 984 344 
L 984 -1272 
L 422 -1272 
z
M 931 1641 
Q 931 1000 1190 694 
Q 1450 388 1819 388 
Q 2194 388 2461 705 
Q 2728 1022 2728 1688 
Q 2728 2322 2467 2637 
Q 2206 2953 1844 2953 
Q 1484 2953 1207 2617 
Q 931 2281 931 1641 
z
" transform="scale(0.015625)"/>
      <path id="ArialMT-69" d="M 425 3934 
L 425 4581 
L 988 4581 
L 988 3934 
L 425 3934 
z
M 425 0 
L 425 3319 
L 988 3319 
L 988 0 
L 425 0 
z
" transform="scale(0.015625)"/>
     </defs>
     <use xlink:href="#ArialMT-28"/>
     <use xlink:href="#ArialMT-25" transform="translate(33.300781 0)"/>
     <use xlink:href="#ArialMT-29" transform="translate(122.216797 0)"/>
     <use xlink:href="#ArialMT-20" transform="translate(155.517578 0)"/>
     <use xlink:href="#ArialMT-6d" transform="translate(183.300781 0)"/>
     <use xlink:href="#ArialMT-52" transform="translate(266.601562 0)"/>
     <use xlink:href="#ArialMT-75" transform="translate(338.818359 0)"/>
     <use xlink:href="#ArialMT-62" transform="translate(394.433594 0)"/>
     <use xlink:href="#ArialMT-79" transform="translate(450.048828 0)"/>
     <use xlink:href="#ArialMT-32" transform="translate(500.048828 0)"/>
     <use xlink:href="#ArialMT-2b" transform="translate(555.664062 0)"/>
     <use xlink:href="#ArialMT-20" transform="translate(614.0625 0)"/>
     <use xlink:href="#ArialMT-61" transform="translate(641.845703 0)"/>
     <use xlink:href="#ArialMT-74" transform="translate(697.460938 0)"/>
     <use xlink:href="#ArialMT-20" transform="translate(725.244141 0)"/>
     <use xlink:href="#ArialMT-34" transform="translate(753.027344 0)"/>
     <use xlink:href="#ArialMT-64" transform="translate(808.642578 0)"/>
     <use xlink:href="#ArialMT-70" transform="translate(864.257812 0)"/>
     <use xlink:href="#ArialMT-69" transform="translate(919.873047 0)"/>
    </g>
   </g>
   <g id="legend_1">
    <g id="patch_17">
     <path d="M 224.812344 34.209219 
L 246.812344 34.209219 
L 246.812344 26.509219 
L 224.812344 26.509219 
z
" style="fill: #2f1b55; opacity: 0.8; stroke: #ffffff; stroke-linejoin: miter"/>
    </g>
    <g id="text_10">
     <!-- 1 -->
     <g style="fill: #262626" transform="translate(255.612344 34.209219) scale(0.11 -0.11)">
      <use xlink:href="#ArialMT-31"/>
     </g>
    </g>
    <g id="patch_18">
     <path d="M 224.812344 49.769062 
L 246.812344 49.769062 
L 246.812344 42.069062 
L 224.812344 42.069062 
z
" style="fill: #692c75; opacity: 0.8; stroke: #ffffff; stroke-linejoin: miter"/>
    </g>
    <g id="text_11">
     <!-- 5 -->
     <g style="fill: #262626" transform="translate(255.612344 49.769062) scale(0.11 -0.11)">
      <use xlink:href="#ArialMT-35"/>
     </g>
    </g>
    <g id="patch_19">
     <path d="M 224.812344 65.328906 
L 246.812344 65.328906 
L 246.812344 57.628906 
L 224.812344 57.628906 
z
" style="fill: #a74779; opacity: 0.8; stroke: #ffffff; stroke-linejoin: miter"/>
    </g>
    <g id="text_12">
     <!-- 10 -->
     <g style="fill: #262626" transform="translate(255.612344 65.328906) scale(0.11 -0.11)">
      <use xlink:href="#ArialMT-31"/>
      <use xlink:href="#ArialMT-30" transform="translate(55.615234 0)"/>
     </g>
    </g>
    <g id="patch_20">
     <path d="M 224.812344 80.88875 
L 246.812344 80.88875 
L 246.812344 73.18875 
L 224.812344 73.18875 
z
" style="fill: #de7270; opacity: 0.8; stroke: #ffffff; stroke-linejoin: miter"/>
    </g>
    <g id="text_13">
     <!-- 15 -->
     <g style="fill: #262626" transform="translate(255.612344 80.88875) scale(0.11 -0.11)">
      <use xlink:href="#ArialMT-31"/>
      <use xlink:href="#ArialMT-35" transform="translate(55.615234 0)"/>
     </g>
    </g>
    <g id="patch_21">
     <path d="M 224.812344 96.448594 
L 246.812344 96.448594 
L 246.812344 88.748594 
L 224.812344 88.748594 
z
" style="fill: #eeb389; opacity: 0.8; stroke: #ffffff; stroke-linejoin: miter"/>
    </g>
    <g id="text_14">
     <!-- 20 -->
     <g style="fill: #262626" transform="translate(255.612344 96.448594) scale(0.11 -0.11)">
      <use xlink:href="#ArialMT-32"/>
      <use xlink:href="#ArialMT-30" transform="translate(55.615234 0)"/>
     </g>
    </g>
   </g>
  </g>
 </g>
 <defs>
  <clipPath id="pf925705314">
   <rect x="50.312344" y="21.935625" width="162" height="117"/>
  </clipPath>
 </defs>
</svg>
