<?xml version="1.0" encoding="utf-8" standalone="no"?>
<!DOCTYPE svg PUBLIC "-//W3C//DTD SVG 1.1//EN"
  "http://www.w3.org/Graphics/SVG/1.1/DTD/svg11.dtd">
<svg xmlns:xlink="http://www.w3.org/1999/xlink" width="216pt" height="216pt" viewBox="0 0 216 216" xmlns="http://www.w3.org/2000/svg" version="1.1">
 <metadata>
  <rdf:RDF xmlns:dc="http://purl.org/dc/elements/1.1/" xmlns:cc="http://creativecommons.org/ns#" xmlns:rdf="http://www.w3.org/1999/02/22-rdf-syntax-ns#">
   <cc:Work>
    <dc:type rdf:resource="http://purl.org/dc/dcmitype/StillImage"/>
    <dc:date>2025-07-28T16:55:13.922511</dc:date>
    <dc:format>image/svg+xml</dc:format>
    <dc:creator>
     <cc:Agent>
      <dc:title>Matplotlib v3.10.3, https://matplotlib.org/</dc:title>
     </cc:Agent>
    </dc:creator>
   </cc:Work>
  </rdf:RDF>
 </metadata>
 <defs>
  <style type="text/css">*{stroke-linejoin: round; stroke-linecap: butt}</style>
 </defs>
 <g id="figure_1">
  <g id="patch_1">
   <path d="M 0 216 
L 216 216 
L 216 0 
L 0 0 
z
" style="fill: #ffffff"/>
  </g>
  <g id="axes_1">
   <g id="patch_2">
    <path d="M 43.2 162 
L 205.2 162 
L 205.2 21.6 
L 43.2 21.6 
z
" style="fill: #ffffff"/>
   </g>
   <g id="matplotlib.axis_1">
    <g id="xtick_1">
     <g id="line2d_1">
      <defs>
       <path id="mc8dcc5834e" d="M 0 0 
L 0 6 
" style="stroke: #262626; stroke-width: 1.25"/>
      </defs>
      <g>
       <use xlink:href="#mc8dcc5834e" x="70.665854" y="162" style="fill: #262626; stroke: #262626; stroke-width: 1.25"/>
      </g>
     </g>
     <g id="text_1">
      <!-- 0.5 -->
      <g style="fill: #262626" transform="translate(63.020854 179.373594) scale(0.11 -0.11)">
       <defs>
        <path id="ArialMT-30" d="M 266 2259 
Q 266 3072 433 3567 
Q 600 4063 929 4331 
Q 1259 4600 1759 4600 
Q 2128 4600 2406 4451 
Q 2684 4303 2865 4023 
Q 3047 3744 3150 3342 
Q 3253 2941 3253 2259 
Q 3253 1453 3087 958 
Q 2922 463 2592 192 
Q 2263 -78 1759 -78 
Q 1097 -78 719 397 
Q 266 969 266 2259 
z
M 844 2259 
Q 844 1131 1108 757 
Q 1372 384 1759 384 
Q 2147 384 2411 759 
Q 2675 1134 2675 2259 
Q 2675 3391 2411 3762 
Q 2147 4134 1753 4134 
Q 1366 4134 1134 3806 
Q 844 3388 844 2259 
z
" transform="scale(0.015625)"/>
        <path id="ArialMT-2e" d="M 581 0 
L 581 641 
L 1222 641 
L 1222 0 
L 581 0 
z
" transform="scale(0.015625)"/>
        <path id="ArialMT-35" d="M 266 1200 
L 856 1250 
Q 922 819 1161 601 
Q 1400 384 1738 384 
Q 2144 384 2425 690 
Q 2706 997 2706 1503 
Q 2706 1984 2436 2262 
Q 2166 2541 1728 2541 
Q 1456 2541 1237 2417 
Q 1019 2294 894 2097 
L 366 2166 
L 809 4519 
L 3088 4519 
L 3088 3981 
L 1259 3981 
L 1013 2750 
Q 1425 3038 1878 3038 
Q 2478 3038 2890 2622 
Q 3303 2206 3303 1553 
Q 3303 931 2941 478 
Q 2500 -78 1738 -78 
Q 1113 -78 717 272 
Q 322 622 266 1200 
z
" transform="scale(0.015625)"/>
       </defs>
       <use xlink:href="#ArialMT-30"/>
       <use xlink:href="#ArialMT-2e" transform="translate(55.615234 0)"/>
       <use xlink:href="#ArialMT-35" transform="translate(83.398438 0)"/>
      </g>
     </g>
    </g>
    <g id="xtick_2">
     <g id="line2d_2">
      <g>
       <use xlink:href="#mc8dcc5834e" x="128.780691" y="162" style="fill: #262626; stroke: #262626; stroke-width: 1.25"/>
      </g>
     </g>
     <g id="text_2">
      <!-- 1.0 -->
      <g style="fill: #262626" transform="translate(121.135691 179.373594) scale(0.11 -0.11)">
       <defs>
        <path id="ArialMT-31" d="M 2384 0 
L 1822 0 
L 1822 3584 
Q 1619 3391 1289 3197 
Q 959 3003 697 2906 
L 697 3450 
Q 1169 3672 1522 3987 
Q 1875 4303 2022 4600 
L 2384 4600 
L 2384 0 
z
" transform="scale(0.015625)"/>
       </defs>
       <use xlink:href="#ArialMT-31"/>
       <use xlink:href="#ArialMT-2e" transform="translate(55.615234 0)"/>
       <use xlink:href="#ArialMT-30" transform="translate(83.398438 0)"/>
      </g>
     </g>
    </g>
    <g id="xtick_3">
     <g id="line2d_3">
      <g>
       <use xlink:href="#mc8dcc5834e" x="186.895528" y="162" style="fill: #262626; stroke: #262626; stroke-width: 1.25"/>
      </g>
     </g>
     <g id="text_3">
      <!-- 1.5 -->
      <g style="fill: #262626" transform="translate(179.250528 179.373594) scale(0.11 -0.11)">
       <use xlink:href="#ArialMT-31"/>
       <use xlink:href="#ArialMT-2e" transform="translate(55.615234 0)"/>
       <use xlink:href="#ArialMT-35" transform="translate(83.398438 0)"/>
      </g>
     </g>
    </g>
    <g id="text_4">
     <!-- Normalized mRuby2+ MFI (yield) -->
     <g style="fill: #262626" transform="translate(36.34875 194.295469) scale(0.12 -0.12)">
      <defs>
       <path id="ArialMT-4e" d="M 488 0 
L 488 4581 
L 1109 4581 
L 3516 984 
L 3516 4581 
L 4097 4581 
L 4097 0 
L 3475 0 
L 1069 3600 
L 1069 0 
L 488 0 
z
" transform="scale(0.015625)"/>
       <path id="ArialMT-6f" d="M 213 1659 
Q 213 2581 725 3025 
Q 1153 3394 1769 3394 
Q 2453 3394 2887 2945 
Q 3322 2497 3322 1706 
Q 3322 1066 3130 698 
Q 2938 331 2570 128 
Q 2203 -75 1769 -75 
Q 1072 -75 642 372 
Q 213 819 213 1659 
z
M 791 1659 
Q 791 1022 1069 705 
Q 1347 388 1769 388 
Q 2188 388 2466 706 
Q 2744 1025 2744 1678 
Q 2744 2294 2464 2611 
Q 2184 2928 1769 2928 
Q 1347 2928 1069 2612 
Q 791 2297 791 1659 
z
" transform="scale(0.015625)"/>
       <path id="ArialMT-72" d="M 416 0 
L 416 3319 
L 922 3319 
L 922 2816 
Q 1116 3169 1280 3281 
Q 1444 3394 1641 3394 
Q 1925 3394 2219 3213 
L 2025 2691 
Q 1819 2813 1613 2813 
Q 1428 2813 1281 2702 
Q 1134 2591 1072 2394 
Q 978 2094 978 1738 
L 978 0 
L 416 0 
z
" transform="scale(0.015625)"/>
       <path id="ArialMT-6d" d="M 422 0 
L 422 3319 
L 925 3319 
L 925 2853 
Q 1081 3097 1340 3245 
Q 1600 3394 1931 3394 
Q 2300 3394 2536 3241 
Q 2772 3088 2869 2813 
Q 3263 3394 3894 3394 
Q 4388 3394 4653 3120 
Q 4919 2847 4919 2278 
L 4919 0 
L 4359 0 
L 4359 2091 
Q 4359 2428 4304 2576 
Q 4250 2725 4106 2815 
Q 3963 2906 3769 2906 
Q 3419 2906 3187 2673 
Q 2956 2441 2956 1928 
L 2956 0 
L 2394 0 
L 2394 2156 
Q 2394 2531 2256 2718 
Q 2119 2906 1806 2906 
Q 1569 2906 1367 2781 
Q 1166 2656 1075 2415 
Q 984 2175 984 1722 
L 984 0 
L 422 0 
z
" transform="scale(0.015625)"/>
       <path id="ArialMT-61" d="M 2588 409 
Q 2275 144 1986 34 
Q 1697 -75 1366 -75 
Q 819 -75 525 192 
Q 231 459 231 875 
Q 231 1119 342 1320 
Q 453 1522 633 1644 
Q 813 1766 1038 1828 
Q 1203 1872 1538 1913 
Q 2219 1994 2541 2106 
Q 2544 2222 2544 2253 
Q 2544 2597 2384 2738 
Q 2169 2928 1744 2928 
Q 1347 2928 1158 2789 
Q 969 2650 878 2297 
L 328 2372 
Q 403 2725 575 2942 
Q 747 3159 1072 3276 
Q 1397 3394 1825 3394 
Q 2250 3394 2515 3294 
Q 2781 3194 2906 3042 
Q 3031 2891 3081 2659 
Q 3109 2516 3109 2141 
L 3109 1391 
Q 3109 606 3145 398 
Q 3181 191 3288 0 
L 2700 0 
Q 2613 175 2588 409 
z
M 2541 1666 
Q 2234 1541 1622 1453 
Q 1275 1403 1131 1340 
Q 988 1278 909 1158 
Q 831 1038 831 891 
Q 831 666 1001 516 
Q 1172 366 1500 366 
Q 1825 366 2078 508 
Q 2331 650 2450 897 
Q 2541 1088 2541 1459 
L 2541 1666 
z
" transform="scale(0.015625)"/>
       <path id="ArialMT-6c" d="M 409 0 
L 409 4581 
L 972 4581 
L 972 0 
L 409 0 
z
" transform="scale(0.015625)"/>
       <path id="ArialMT-69" d="M 425 3934 
L 425 4581 
L 988 4581 
L 988 3934 
L 425 3934 
z
M 425 0 
L 425 3319 
L 988 3319 
L 988 0 
L 425 0 
z
" transform="scale(0.015625)"/>
       <path id="ArialMT-7a" d="M 125 0 
L 125 456 
L 2238 2881 
Q 1878 2863 1603 2863 
L 250 2863 
L 250 3319 
L 2963 3319 
L 2963 2947 
L 1166 841 
L 819 456 
Q 1197 484 1528 484 
L 3063 484 
L 3063 0 
L 125 0 
z
" transform="scale(0.015625)"/>
       <path id="ArialMT-65" d="M 2694 1069 
L 3275 997 
Q 3138 488 2766 206 
Q 2394 -75 1816 -75 
Q 1088 -75 661 373 
Q 234 822 234 1631 
Q 234 2469 665 2931 
Q 1097 3394 1784 3394 
Q 2450 3394 2872 2941 
Q 3294 2488 3294 1666 
Q 3294 1616 3291 1516 
L 816 1516 
Q 847 969 1125 678 
Q 1403 388 1819 388 
Q 2128 388 2347 550 
Q 2566 713 2694 1069 
z
M 847 1978 
L 2700 1978 
Q 2663 2397 2488 2606 
Q 2219 2931 1791 2931 
Q 1403 2931 1139 2672 
Q 875 2413 847 1978 
z
" transform="scale(0.015625)"/>
       <path id="ArialMT-64" d="M 2575 0 
L 2575 419 
Q 2259 -75 1647 -75 
Q 1250 -75 917 144 
Q 584 363 401 755 
Q 219 1147 219 1656 
Q 219 2153 384 2558 
Q 550 2963 881 3178 
Q 1213 3394 1622 3394 
Q 1922 3394 2156 3267 
Q 2391 3141 2538 2938 
L 2538 4581 
L 3097 4581 
L 3097 0 
L 2575 0 
z
M 797 1656 
Q 797 1019 1065 703 
Q 1334 388 1700 388 
Q 2069 388 2326 689 
Q 2584 991 2584 1609 
Q 2584 2291 2321 2609 
Q 2059 2928 1675 2928 
Q 1300 2928 1048 2622 
Q 797 2316 797 1656 
z
" transform="scale(0.015625)"/>
       <path id="ArialMT-20" transform="scale(0.015625)"/>
       <path id="ArialMT-52" d="M 503 0 
L 503 4581 
L 2534 4581 
Q 3147 4581 3465 4457 
Q 3784 4334 3975 4021 
Q 4166 3709 4166 3331 
Q 4166 2844 3850 2509 
Q 3534 2175 2875 2084 
Q 3116 1969 3241 1856 
Q 3506 1613 3744 1247 
L 4541 0 
L 3778 0 
L 3172 953 
Q 2906 1366 2734 1584 
Q 2563 1803 2427 1890 
Q 2291 1978 2150 2013 
Q 2047 2034 1813 2034 
L 1109 2034 
L 1109 0 
L 503 0 
z
M 1109 2559 
L 2413 2559 
Q 2828 2559 3062 2645 
Q 3297 2731 3419 2920 
Q 3541 3109 3541 3331 
Q 3541 3656 3305 3865 
Q 3069 4075 2559 4075 
L 1109 4075 
L 1109 2559 
z
" transform="scale(0.015625)"/>
       <path id="ArialMT-75" d="M 2597 0 
L 2597 488 
Q 2209 -75 1544 -75 
Q 1250 -75 995 37 
Q 741 150 617 320 
Q 494 491 444 738 
Q 409 903 409 1263 
L 409 3319 
L 972 3319 
L 972 1478 
Q 972 1038 1006 884 
Q 1059 663 1231 536 
Q 1403 409 1656 409 
Q 1909 409 2131 539 
Q 2353 669 2445 892 
Q 2538 1116 2538 1541 
L 2538 3319 
L 3100 3319 
L 3100 0 
L 2597 0 
z
" transform="scale(0.015625)"/>
       <path id="ArialMT-62" d="M 941 0 
L 419 0 
L 419 4581 
L 981 4581 
L 981 2947 
Q 1338 3394 1891 3394 
Q 2197 3394 2470 3270 
Q 2744 3147 2920 2923 
Q 3097 2700 3197 2384 
Q 3297 2069 3297 1709 
Q 3297 856 2875 390 
Q 2453 -75 1863 -75 
Q 1275 -75 941 416 
L 941 0 
z
M 934 1684 
Q 934 1088 1097 822 
Q 1363 388 1816 388 
Q 2184 388 2453 708 
Q 2722 1028 2722 1663 
Q 2722 2313 2464 2622 
Q 2206 2931 1841 2931 
Q 1472 2931 1203 2611 
Q 934 2291 934 1684 
z
" transform="scale(0.015625)"/>
       <path id="ArialMT-79" d="M 397 -1278 
L 334 -750 
Q 519 -800 656 -800 
Q 844 -800 956 -737 
Q 1069 -675 1141 -563 
Q 1194 -478 1313 -144 
Q 1328 -97 1363 -6 
L 103 3319 
L 709 3319 
L 1400 1397 
Q 1534 1031 1641 628 
Q 1738 1016 1872 1384 
L 2581 3319 
L 3144 3319 
L 1881 -56 
Q 1678 -603 1566 -809 
Q 1416 -1088 1222 -1217 
Q 1028 -1347 759 -1347 
Q 597 -1347 397 -1278 
z
" transform="scale(0.015625)"/>
       <path id="ArialMT-32" d="M 3222 541 
L 3222 0 
L 194 0 
Q 188 203 259 391 
Q 375 700 629 1000 
Q 884 1300 1366 1694 
Q 2113 2306 2375 2664 
Q 2638 3022 2638 3341 
Q 2638 3675 2398 3904 
Q 2159 4134 1775 4134 
Q 1369 4134 1125 3890 
Q 881 3647 878 3216 
L 300 3275 
Q 359 3922 746 4261 
Q 1134 4600 1788 4600 
Q 2447 4600 2831 4234 
Q 3216 3869 3216 3328 
Q 3216 3053 3103 2787 
Q 2991 2522 2730 2228 
Q 2469 1934 1863 1422 
Q 1356 997 1212 845 
Q 1069 694 975 541 
L 3222 541 
z
" transform="scale(0.015625)"/>
       <path id="ArialMT-2b" d="M 1603 741 
L 1603 1997 
L 356 1997 
L 356 2522 
L 1603 2522 
L 1603 3769 
L 2134 3769 
L 2134 2522 
L 3381 2522 
L 3381 1997 
L 2134 1997 
L 2134 741 
L 1603 741 
z
" transform="scale(0.015625)"/>
       <path id="ArialMT-4d" d="M 475 0 
L 475 4581 
L 1388 4581 
L 2472 1338 
Q 2622 884 2691 659 
Q 2769 909 2934 1394 
L 4031 4581 
L 4847 4581 
L 4847 0 
L 4263 0 
L 4263 3834 
L 2931 0 
L 2384 0 
L 1059 3900 
L 1059 0 
L 475 0 
z
" transform="scale(0.015625)"/>
       <path id="ArialMT-46" d="M 525 0 
L 525 4581 
L 3616 4581 
L 3616 4041 
L 1131 4041 
L 1131 2622 
L 3281 2622 
L 3281 2081 
L 1131 2081 
L 1131 0 
L 525 0 
z
" transform="scale(0.015625)"/>
       <path id="ArialMT-49" d="M 597 0 
L 597 4581 
L 1203 4581 
L 1203 0 
L 597 0 
z
" transform="scale(0.015625)"/>
       <path id="ArialMT-28" d="M 1497 -1347 
Q 1031 -759 709 28 
Q 388 816 388 1659 
Q 388 2403 628 3084 
Q 909 3875 1497 4659 
L 1900 4659 
Q 1522 4009 1400 3731 
Q 1209 3300 1100 2831 
Q 966 2247 966 1656 
Q 966 153 1900 -1347 
L 1497 -1347 
z
" transform="scale(0.015625)"/>
       <path id="ArialMT-29" d="M 791 -1347 
L 388 -1347 
Q 1322 153 1322 1656 
Q 1322 2244 1188 2822 
Q 1081 3291 891 3722 
Q 769 4003 388 4659 
L 791 4659 
Q 1378 3875 1659 3084 
Q 1900 2403 1900 1659 
Q 1900 816 1576 28 
Q 1253 -759 791 -1347 
z
" transform="scale(0.015625)"/>
      </defs>
      <use xlink:href="#ArialMT-4e"/>
      <use xlink:href="#ArialMT-6f" transform="translate(72.216797 0)"/>
      <use xlink:href="#ArialMT-72" transform="translate(127.832031 0)"/>
      <use xlink:href="#ArialMT-6d" transform="translate(161.132812 0)"/>
      <use xlink:href="#ArialMT-61" transform="translate(244.433594 0)"/>
      <use xlink:href="#ArialMT-6c" transform="translate(300.048828 0)"/>
      <use xlink:href="#ArialMT-69" transform="translate(322.265625 0)"/>
      <use xlink:href="#ArialMT-7a" transform="translate(344.482422 0)"/>
      <use xlink:href="#ArialMT-65" transform="translate(394.482422 0)"/>
      <use xlink:href="#ArialMT-64" transform="translate(450.097656 0)"/>
      <use xlink:href="#ArialMT-20" transform="translate(505.712891 0)"/>
      <use xlink:href="#ArialMT-6d" transform="translate(533.496094 0)"/>
      <use xlink:href="#ArialMT-52" transform="translate(616.796875 0)"/>
      <use xlink:href="#ArialMT-75" transform="translate(689.013672 0)"/>
      <use xlink:href="#ArialMT-62" transform="translate(744.628906 0)"/>
      <use xlink:href="#ArialMT-79" transform="translate(800.244141 0)"/>
      <use xlink:href="#ArialMT-32" transform="translate(850.244141 0)"/>
      <use xlink:href="#ArialMT-2b" transform="translate(905.859375 0)"/>
      <use xlink:href="#ArialMT-20" transform="translate(964.257812 0)"/>
      <use xlink:href="#ArialMT-4d" transform="translate(992.041016 0)"/>
      <use xlink:href="#ArialMT-46" transform="translate(1075.341797 0)"/>
      <use xlink:href="#ArialMT-49" transform="translate(1136.425781 0)"/>
      <use xlink:href="#ArialMT-20" transform="translate(1164.208984 0)"/>
      <use xlink:href="#ArialMT-28" transform="translate(1191.992188 0)"/>
      <use xlink:href="#ArialMT-79" transform="translate(1225.292969 0)"/>
      <use xlink:href="#ArialMT-69" transform="translate(1275.292969 0)"/>
      <use xlink:href="#ArialMT-65" transform="translate(1297.509766 0)"/>
      <use xlink:href="#ArialMT-6c" transform="translate(1353.125 0)"/>
      <use xlink:href="#ArialMT-64" transform="translate(1375.341797 0)"/>
      <use xlink:href="#ArialMT-29" transform="translate(1430.957031 0)"/>
     </g>
    </g>
   </g>
   <g id="matplotlib.axis_2">
    <g id="ytick_1">
     <g id="line2d_4">
      <defs>
       <path id="ma7c5c8a426" d="M 0 0 
L -6 0 
" style="stroke: #262626; stroke-width: 1.25"/>
      </defs>
      <g>
       <use xlink:href="#ma7c5c8a426" x="43.2" y="138.947194" style="fill: #262626; stroke: #262626; stroke-width: 1.25"/>
      </g>
     </g>
     <g id="text_5">
      <!-- 0.2 -->
      <g style="fill: #262626" transform="translate(18.41 142.883991) scale(0.11 -0.11)">
       <use xlink:href="#ArialMT-30"/>
       <use xlink:href="#ArialMT-2e" transform="translate(55.615234 0)"/>
       <use xlink:href="#ArialMT-32" transform="translate(83.398438 0)"/>
      </g>
     </g>
    </g>
    <g id="ytick_2">
     <g id="line2d_5">
      <g>
       <use xlink:href="#ma7c5c8a426" x="43.2" y="115.369563" style="fill: #262626; stroke: #262626; stroke-width: 1.25"/>
      </g>
     </g>
     <g id="text_6">
      <!-- 0.4 -->
      <g style="fill: #262626" transform="translate(18.41 119.306359) scale(0.11 -0.11)">
       <defs>
        <path id="ArialMT-34" d="M 2069 0 
L 2069 1097 
L 81 1097 
L 81 1613 
L 2172 4581 
L 2631 4581 
L 2631 1613 
L 3250 1613 
L 3250 1097 
L 2631 1097 
L 2631 0 
L 2069 0 
z
M 2069 1613 
L 2069 3678 
L 634 1613 
L 2069 1613 
z
" transform="scale(0.015625)"/>
       </defs>
       <use xlink:href="#ArialMT-30"/>
       <use xlink:href="#ArialMT-2e" transform="translate(55.615234 0)"/>
       <use xlink:href="#ArialMT-34" transform="translate(83.398438 0)"/>
      </g>
     </g>
    </g>
    <g id="ytick_3">
     <g id="line2d_6">
      <g>
       <use xlink:href="#ma7c5c8a426" x="43.2" y="91.791931" style="fill: #262626; stroke: #262626; stroke-width: 1.25"/>
      </g>
     </g>
     <g id="text_7">
      <!-- 0.6 -->
      <g style="fill: #262626" transform="translate(18.41 95.728728) scale(0.11 -0.11)">
       <defs>
        <path id="ArialMT-36" d="M 3184 3459 
L 2625 3416 
Q 2550 3747 2413 3897 
Q 2184 4138 1850 4138 
Q 1581 4138 1378 3988 
Q 1113 3794 959 3422 
Q 806 3050 800 2363 
Q 1003 2672 1297 2822 
Q 1591 2972 1913 2972 
Q 2475 2972 2870 2558 
Q 3266 2144 3266 1488 
Q 3266 1056 3080 686 
Q 2894 316 2569 119 
Q 2244 -78 1831 -78 
Q 1128 -78 684 439 
Q 241 956 241 2144 
Q 241 3472 731 4075 
Q 1159 4600 1884 4600 
Q 2425 4600 2770 4297 
Q 3116 3994 3184 3459 
z
M 888 1484 
Q 888 1194 1011 928 
Q 1134 663 1356 523 
Q 1578 384 1822 384 
Q 2178 384 2434 671 
Q 2691 959 2691 1453 
Q 2691 1928 2437 2201 
Q 2184 2475 1800 2475 
Q 1419 2475 1153 2201 
Q 888 1928 888 1484 
z
" transform="scale(0.015625)"/>
       </defs>
       <use xlink:href="#ArialMT-30"/>
       <use xlink:href="#ArialMT-2e" transform="translate(55.615234 0)"/>
       <use xlink:href="#ArialMT-36" transform="translate(83.398438 0)"/>
      </g>
     </g>
    </g>
    <g id="ytick_4">
     <g id="line2d_7">
      <g>
       <use xlink:href="#ma7c5c8a426" x="43.2" y="68.214299" style="fill: #262626; stroke: #262626; stroke-width: 1.25"/>
      </g>
     </g>
     <g id="text_8">
      <!-- 0.8 -->
      <g style="fill: #262626" transform="translate(18.41 72.151096) scale(0.11 -0.11)">
       <defs>
        <path id="ArialMT-38" d="M 1131 2484 
Q 781 2613 612 2850 
Q 444 3088 444 3419 
Q 444 3919 803 4259 
Q 1163 4600 1759 4600 
Q 2359 4600 2725 4251 
Q 3091 3903 3091 3403 
Q 3091 3084 2923 2848 
Q 2756 2613 2416 2484 
Q 2838 2347 3058 2040 
Q 3278 1734 3278 1309 
Q 3278 722 2862 322 
Q 2447 -78 1769 -78 
Q 1091 -78 675 323 
Q 259 725 259 1325 
Q 259 1772 486 2073 
Q 713 2375 1131 2484 
z
M 1019 3438 
Q 1019 3113 1228 2906 
Q 1438 2700 1772 2700 
Q 2097 2700 2305 2904 
Q 2513 3109 2513 3406 
Q 2513 3716 2298 3927 
Q 2084 4138 1766 4138 
Q 1444 4138 1231 3931 
Q 1019 3725 1019 3438 
z
M 838 1322 
Q 838 1081 952 856 
Q 1066 631 1291 507 
Q 1516 384 1775 384 
Q 2178 384 2440 643 
Q 2703 903 2703 1303 
Q 2703 1709 2433 1975 
Q 2163 2241 1756 2241 
Q 1359 2241 1098 1978 
Q 838 1716 838 1322 
z
" transform="scale(0.015625)"/>
       </defs>
       <use xlink:href="#ArialMT-30"/>
       <use xlink:href="#ArialMT-2e" transform="translate(55.615234 0)"/>
       <use xlink:href="#ArialMT-38" transform="translate(83.398438 0)"/>
      </g>
     </g>
    </g>
    <g id="ytick_5">
     <g id="line2d_8">
      <g>
       <use xlink:href="#ma7c5c8a426" x="43.2" y="44.636668" style="fill: #262626; stroke: #262626; stroke-width: 1.25"/>
      </g>
     </g>
     <g id="text_9">
      <!-- 1.0 -->
      <g style="fill: #262626" transform="translate(18.41 48.573465) scale(0.11 -0.11)">
       <use xlink:href="#ArialMT-31"/>
       <use xlink:href="#ArialMT-2e" transform="translate(55.615234 0)"/>
       <use xlink:href="#ArialMT-30" transform="translate(83.398438 0)"/>
      </g>
     </g>
    </g>
    <g id="text_10">
     <!-- Normalized (%) iMN yield -->
     <g style="fill: #262626" transform="translate(-0.807875 159.47625) rotate(-90) scale(0.12 -0.12)">
      <defs>
       <path id="ArialMT-25" d="M 372 3481 
Q 372 3972 619 4315 
Q 866 4659 1334 4659 
Q 1766 4659 2048 4351 
Q 2331 4044 2331 3447 
Q 2331 2866 2045 2552 
Q 1759 2238 1341 2238 
Q 925 2238 648 2547 
Q 372 2856 372 3481 
z
M 1350 4272 
Q 1141 4272 1002 4090 
Q 863 3909 863 3425 
Q 863 2984 1003 2804 
Q 1144 2625 1350 2625 
Q 1563 2625 1702 2806 
Q 1841 2988 1841 3469 
Q 1841 3913 1700 4092 
Q 1559 4272 1350 4272 
z
M 1353 -169 
L 3859 4659 
L 4316 4659 
L 1819 -169 
L 1353 -169 
z
M 3334 1075 
Q 3334 1569 3581 1911 
Q 3828 2253 4300 2253 
Q 4731 2253 5014 1945 
Q 5297 1638 5297 1041 
Q 5297 459 5011 145 
Q 4725 -169 4303 -169 
Q 3888 -169 3611 142 
Q 3334 453 3334 1075 
z
M 4316 1866 
Q 4103 1866 3964 1684 
Q 3825 1503 3825 1019 
Q 3825 581 3965 400 
Q 4106 219 4313 219 
Q 4528 219 4667 400 
Q 4806 581 4806 1063 
Q 4806 1506 4665 1686 
Q 4525 1866 4316 1866 
z
" transform="scale(0.015625)"/>
      </defs>
      <use xlink:href="#ArialMT-4e"/>
      <use xlink:href="#ArialMT-6f" transform="translate(72.216797 0)"/>
      <use xlink:href="#ArialMT-72" transform="translate(127.832031 0)"/>
      <use xlink:href="#ArialMT-6d" transform="translate(161.132812 0)"/>
      <use xlink:href="#ArialMT-61" transform="translate(244.433594 0)"/>
      <use xlink:href="#ArialMT-6c" transform="translate(300.048828 0)"/>
      <use xlink:href="#ArialMT-69" transform="translate(322.265625 0)"/>
      <use xlink:href="#ArialMT-7a" transform="translate(344.482422 0)"/>
      <use xlink:href="#ArialMT-65" transform="translate(394.482422 0)"/>
      <use xlink:href="#ArialMT-64" transform="translate(450.097656 0)"/>
      <use xlink:href="#ArialMT-20" transform="translate(505.712891 0)"/>
      <use xlink:href="#ArialMT-28" transform="translate(533.496094 0)"/>
      <use xlink:href="#ArialMT-25" transform="translate(566.796875 0)"/>
      <use xlink:href="#ArialMT-29" transform="translate(655.712891 0)"/>
      <use xlink:href="#ArialMT-20" transform="translate(689.013672 0)"/>
      <use xlink:href="#ArialMT-69" transform="translate(716.796875 0)"/>
      <use xlink:href="#ArialMT-4d" transform="translate(739.013672 0)"/>
      <use xlink:href="#ArialMT-4e" transform="translate(822.314453 0)"/>
      <use xlink:href="#ArialMT-20" transform="translate(894.53125 0)"/>
      <use xlink:href="#ArialMT-79" transform="translate(922.314453 0)"/>
      <use xlink:href="#ArialMT-69" transform="translate(972.314453 0)"/>
      <use xlink:href="#ArialMT-65" transform="translate(994.53125 0)"/>
      <use xlink:href="#ArialMT-6c" transform="translate(1050.146484 0)"/>
      <use xlink:href="#ArialMT-64" transform="translate(1072.363281 0)"/>
     </g>
     <!-- per MEF plated -->
     <g style="fill: #262626" transform="translate(12.025 132.815625) rotate(-90) scale(0.12 -0.12)">
      <defs>
       <path id="ArialMT-70" d="M 422 -1272 
L 422 3319 
L 934 3319 
L 934 2888 
Q 1116 3141 1344 3267 
Q 1572 3394 1897 3394 
Q 2322 3394 2647 3175 
Q 2972 2956 3137 2557 
Q 3303 2159 3303 1684 
Q 3303 1175 3120 767 
Q 2938 359 2589 142 
Q 2241 -75 1856 -75 
Q 1575 -75 1351 44 
Q 1128 163 984 344 
L 984 -1272 
L 422 -1272 
z
M 931 1641 
Q 931 1000 1190 694 
Q 1450 388 1819 388 
Q 2194 388 2461 705 
Q 2728 1022 2728 1688 
Q 2728 2322 2467 2637 
Q 2206 2953 1844 2953 
Q 1484 2953 1207 2617 
Q 931 2281 931 1641 
z
" transform="scale(0.015625)"/>
       <path id="ArialMT-45" d="M 506 0 
L 506 4581 
L 3819 4581 
L 3819 4041 
L 1113 4041 
L 1113 2638 
L 3647 2638 
L 3647 2100 
L 1113 2100 
L 1113 541 
L 3925 541 
L 3925 0 
L 506 0 
z
" transform="scale(0.015625)"/>
       <path id="ArialMT-74" d="M 1650 503 
L 1731 6 
Q 1494 -44 1306 -44 
Q 1000 -44 831 53 
Q 663 150 594 308 
Q 525 466 525 972 
L 525 2881 
L 113 2881 
L 113 3319 
L 525 3319 
L 525 4141 
L 1084 4478 
L 1084 3319 
L 1650 3319 
L 1650 2881 
L 1084 2881 
L 1084 941 
Q 1084 700 1114 631 
Q 1144 563 1211 522 
Q 1278 481 1403 481 
Q 1497 481 1650 503 
z
" transform="scale(0.015625)"/>
      </defs>
      <use xlink:href="#ArialMT-70"/>
      <use xlink:href="#ArialMT-65" transform="translate(55.615234 0)"/>
      <use xlink:href="#ArialMT-72" transform="translate(111.230469 0)"/>
      <use xlink:href="#ArialMT-20" transform="translate(144.53125 0)"/>
      <use xlink:href="#ArialMT-4d" transform="translate(172.314453 0)"/>
      <use xlink:href="#ArialMT-45" transform="translate(255.615234 0)"/>
      <use xlink:href="#ArialMT-46" transform="translate(322.314453 0)"/>
      <use xlink:href="#ArialMT-20" transform="translate(383.398438 0)"/>
      <use xlink:href="#ArialMT-70" transform="translate(411.181641 0)"/>
      <use xlink:href="#ArialMT-6c" transform="translate(466.796875 0)"/>
      <use xlink:href="#ArialMT-61" transform="translate(489.013672 0)"/>
      <use xlink:href="#ArialMT-74" transform="translate(544.628906 0)"/>
      <use xlink:href="#ArialMT-65" transform="translate(572.412109 0)"/>
      <use xlink:href="#ArialMT-64" transform="translate(628.027344 0)"/>
     </g>
    </g>
   </g>
   <g id="PathCollection_1"/>
   <g id="LineCollection_1">
    <path d="M 71.216857 154.260669 
L 75.372153 154.260669 
" clip-path="url(#p5a15bb46a8)" style="fill: none; stroke: #808080; stroke-width: 0.7"/>
    <path d="M 113.966509 90.760021 
L 116.777531 90.760021 
" clip-path="url(#p5a15bb46a8)" style="fill: none; stroke: #808080; stroke-width: 0.7"/>
    <path d="M 123.168079 64.976467 
L 126.150131 64.976467 
" clip-path="url(#p5a15bb46a8)" style="fill: none; stroke: #808080; stroke-width: 0.7"/>
    <path d="M 50.563636 149.572069 
L 52.285792 149.572069 
" clip-path="url(#p5a15bb46a8)" style="fill: none; stroke: #808080; stroke-width: 0.7"/>
    <path d="M 75.936755 113.761621 
L 79.510396 113.761621 
" clip-path="url(#p5a15bb46a8)" style="fill: none; stroke: #808080; stroke-width: 0.7"/>
    <path d="M 129.159021 44.636668 
L 133.701105 44.636668 
" clip-path="url(#p5a15bb46a8)" style="fill: none; stroke: #808080; stroke-width: 0.7"/>
    <path d="M 123.447124 44.636668 
L 127.003862 44.636668 
" clip-path="url(#p5a15bb46a8)" style="fill: none; stroke: #808080; stroke-width: 0.7"/>
    <path d="M 92.723583 138.214505 
L 94.166117 138.214505 
" clip-path="url(#p5a15bb46a8)" style="fill: none; stroke: #808080; stroke-width: 0.7"/>
    <path d="M 103.069244 116.974329 
L 110.095651 116.974329 
" clip-path="url(#p5a15bb46a8)" style="fill: none; stroke: #808080; stroke-width: 0.7"/>
    <path d="M 144.556079 74.288537 
L 151.376131 74.288537 
" clip-path="url(#p5a15bb46a8)" style="fill: none; stroke: #808080; stroke-width: 0.7"/>
    <path d="M 140.953341 75.140039 
L 144.743483 75.140039 
" clip-path="url(#p5a15bb46a8)" style="fill: none; stroke: #808080; stroke-width: 0.7"/>
    <path d="M 96.571353 84.79675 
L 98.425783 84.79675 
" clip-path="url(#p5a15bb46a8)" style="fill: none; stroke: #808080; stroke-width: 0.7"/>
    <path d="M 117.124574 44.636668 
L 124.896452 44.636668 
" clip-path="url(#p5a15bb46a8)" style="fill: none; stroke: #808080; stroke-width: 0.7"/>
    <path d="M 156.662313 100.835795 
L 158.359675 100.835795 
" clip-path="url(#p5a15bb46a8)" style="fill: none; stroke: #808080; stroke-width: 0.7"/>
    <path d="M 163.189241 99.615709 
L 168.469212 99.615709 
" clip-path="url(#p5a15bb46a8)" style="fill: none; stroke: #808080; stroke-width: 0.7"/>
    <path d="M 106.474474 61.198736 
L 109.704645 61.198736 
" clip-path="url(#p5a15bb46a8)" style="fill: none; stroke: #808080; stroke-width: 0.7"/>
    <path d="M 124.263548 44.636668 
L 132.818632 44.636668 
" clip-path="url(#p5a15bb46a8)" style="fill: none; stroke: #808080; stroke-width: 0.7"/>
    <path d="M 185.769781 114.634343 
L 189.756413 114.634343 
" clip-path="url(#p5a15bb46a8)" style="fill: none; stroke: #808080; stroke-width: 0.7"/>
    <path d="M 185.650459 114.229311 
L 197.836364 114.229311 
" clip-path="url(#p5a15bb46a8)" style="fill: none; stroke: #808080; stroke-width: 0.7"/>
    <path d="M 129.130159 58.018234 
L 139.765207 58.018234 
" clip-path="url(#p5a15bb46a8)" style="fill: none; stroke: #808080; stroke-width: 0.7"/>
   </g>
   <g id="LineCollection_2">
    <path d="M 73.294505 155.618182 
L 73.294505 152.903155 
" clip-path="url(#p5a15bb46a8)" style="fill: none; stroke: #808080; stroke-width: 0.7"/>
    <path d="M 115.37202 94.878913 
L 115.37202 86.641129 
" clip-path="url(#p5a15bb46a8)" style="fill: none; stroke: #808080; stroke-width: 0.7"/>
    <path d="M 124.659105 101.971115 
L 124.659105 27.981818 
" clip-path="url(#p5a15bb46a8)" style="fill: none; stroke: #808080; stroke-width: 0.7"/>
    <path d="M 51.424714 151.638637 
L 51.424714 147.505502 
" clip-path="url(#p5a15bb46a8)" style="fill: none; stroke: #808080; stroke-width: 0.7"/>
    <path d="M 77.723575 121.301879 
L 77.723575 106.221363 
" clip-path="url(#p5a15bb46a8)" style="fill: none; stroke: #808080; stroke-width: 0.7"/>
    <path d="M 131.430063 54.920748 
L 131.430063 34.352587 
" clip-path="url(#p5a15bb46a8)" style="fill: none; stroke: #808080; stroke-width: 0.7"/>
    <path d="M 125.225493 50.72771 
L 125.225493 38.545625 
" clip-path="url(#p5a15bb46a8)" style="fill: none; stroke: #808080; stroke-width: 0.7"/>
    <path d="M 93.44485 139.741376 
L 93.44485 136.687634 
" clip-path="url(#p5a15bb46a8)" style="fill: none; stroke: #808080; stroke-width: 0.7"/>
    <path d="M 106.582448 120.238198 
L 106.582448 113.71046 
" clip-path="url(#p5a15bb46a8)" style="fill: none; stroke: #808080; stroke-width: 0.7"/>
    <path d="M 147.966105 76.200186 
L 147.966105 72.376887 
" clip-path="url(#p5a15bb46a8)" style="fill: none; stroke: #808080; stroke-width: 0.7"/>
    <path d="M 142.848412 75.821977 
L 142.848412 74.4581 
" clip-path="url(#p5a15bb46a8)" style="fill: none; stroke: #808080; stroke-width: 0.7"/>
    <path d="M 97.498568 86.468257 
L 97.498568 83.125244 
" clip-path="url(#p5a15bb46a8)" style="fill: none; stroke: #808080; stroke-width: 0.7"/>
    <path d="M 121.010513 48.621687 
L 121.010513 40.651648 
" clip-path="url(#p5a15bb46a8)" style="fill: none; stroke: #808080; stroke-width: 0.7"/>
    <path d="M 157.510994 105.494156 
L 157.510994 96.177435 
" clip-path="url(#p5a15bb46a8)" style="fill: none; stroke: #808080; stroke-width: 0.7"/>
    <path d="M 165.829226 103.70029 
L 165.829226 95.531128 
" clip-path="url(#p5a15bb46a8)" style="fill: none; stroke: #808080; stroke-width: 0.7"/>
    <path d="M 108.08956 70.314601 
L 108.08956 52.08287 
" clip-path="url(#p5a15bb46a8)" style="fill: none; stroke: #808080; stroke-width: 0.7"/>
    <path d="M 128.54109 48.358637 
L 128.54109 40.914698 
" clip-path="url(#p5a15bb46a8)" style="fill: none; stroke: #808080; stroke-width: 0.7"/>
    <path d="M 187.763097 120.786766 
L 187.763097 108.481921 
" clip-path="url(#p5a15bb46a8)" style="fill: none; stroke: #808080; stroke-width: 0.7"/>
    <path d="M 191.743411 114.716093 
L 191.743411 113.742529 
" clip-path="url(#p5a15bb46a8)" style="fill: none; stroke: #808080; stroke-width: 0.7"/>
    <path d="M 134.447683 63.389368 
L 134.447683 52.647099 
" clip-path="url(#p5a15bb46a8)" style="fill: none; stroke: #808080; stroke-width: 0.7"/>
   </g>
   <g id="line2d_9">
    <defs>
     <path id="me81a0072d2" d="M 0 2 
L 0 -2 
" style="stroke: #808080; stroke-width: 0.7"/>
    </defs>
    <g clip-path="url(#p5a15bb46a8)">
     <use xlink:href="#me81a0072d2" x="71.216857" y="154.260669" style="fill: #808080; stroke: #808080; stroke-width: 0.7"/>
     <use xlink:href="#me81a0072d2" x="113.966509" y="90.760021" style="fill: #808080; stroke: #808080; stroke-width: 0.7"/>
     <use xlink:href="#me81a0072d2" x="123.168079" y="64.976467" style="fill: #808080; stroke: #808080; stroke-width: 0.7"/>
     <use xlink:href="#me81a0072d2" x="50.563636" y="149.572069" style="fill: #808080; stroke: #808080; stroke-width: 0.7"/>
     <use xlink:href="#me81a0072d2" x="75.936755" y="113.761621" style="fill: #808080; stroke: #808080; stroke-width: 0.7"/>
     <use xlink:href="#me81a0072d2" x="129.159021" y="44.636668" style="fill: #808080; stroke: #808080; stroke-width: 0.7"/>
     <use xlink:href="#me81a0072d2" x="123.447124" y="44.636668" style="fill: #808080; stroke: #808080; stroke-width: 0.7"/>
     <use xlink:href="#me81a0072d2" x="92.723583" y="138.214505" style="fill: #808080; stroke: #808080; stroke-width: 0.7"/>
     <use xlink:href="#me81a0072d2" x="103.069244" y="116.974329" style="fill: #808080; stroke: #808080; stroke-width: 0.7"/>
     <use xlink:href="#me81a0072d2" x="144.556079" y="74.288537" style="fill: #808080; stroke: #808080; stroke-width: 0.7"/>
     <use xlink:href="#me81a0072d2" x="140.953341" y="75.140039" style="fill: #808080; stroke: #808080; stroke-width: 0.7"/>
     <use xlink:href="#me81a0072d2" x="96.571353" y="84.79675" style="fill: #808080; stroke: #808080; stroke-width: 0.7"/>
     <use xlink:href="#me81a0072d2" x="117.124574" y="44.636668" style="fill: #808080; stroke: #808080; stroke-width: 0.7"/>
     <use xlink:href="#me81a0072d2" x="156.662313" y="100.835795" style="fill: #808080; stroke: #808080; stroke-width: 0.7"/>
     <use xlink:href="#me81a0072d2" x="163.189241" y="99.615709" style="fill: #808080; stroke: #808080; stroke-width: 0.7"/>
     <use xlink:href="#me81a0072d2" x="106.474474" y="61.198736" style="fill: #808080; stroke: #808080; stroke-width: 0.7"/>
     <use xlink:href="#me81a0072d2" x="124.263548" y="44.636668" style="fill: #808080; stroke: #808080; stroke-width: 0.7"/>
     <use xlink:href="#me81a0072d2" x="185.769781" y="114.634343" style="fill: #808080; stroke: #808080; stroke-width: 0.7"/>
     <use xlink:href="#me81a0072d2" x="185.650459" y="114.229311" style="fill: #808080; stroke: #808080; stroke-width: 0.7"/>
     <use xlink:href="#me81a0072d2" x="129.130159" y="58.018234" style="fill: #808080; stroke: #808080; stroke-width: 0.7"/>
    </g>
   </g>
   <g id="line2d_10">
    <g clip-path="url(#p5a15bb46a8)">
     <use xlink:href="#me81a0072d2" x="75.372153" y="154.260669" style="fill: #808080; stroke: #808080; stroke-width: 0.7"/>
     <use xlink:href="#me81a0072d2" x="116.777531" y="90.760021" style="fill: #808080; stroke: #808080; stroke-width: 0.7"/>
     <use xlink:href="#me81a0072d2" x="126.150131" y="64.976467" style="fill: #808080; stroke: #808080; stroke-width: 0.7"/>
     <use xlink:href="#me81a0072d2" x="52.285792" y="149.572069" style="fill: #808080; stroke: #808080; stroke-width: 0.7"/>
     <use xlink:href="#me81a0072d2" x="79.510396" y="113.761621" style="fill: #808080; stroke: #808080; stroke-width: 0.7"/>
     <use xlink:href="#me81a0072d2" x="133.701105" y="44.636668" style="fill: #808080; stroke: #808080; stroke-width: 0.7"/>
     <use xlink:href="#me81a0072d2" x="127.003862" y="44.636668" style="fill: #808080; stroke: #808080; stroke-width: 0.7"/>
     <use xlink:href="#me81a0072d2" x="94.166117" y="138.214505" style="fill: #808080; stroke: #808080; stroke-width: 0.7"/>
     <use xlink:href="#me81a0072d2" x="110.095651" y="116.974329" style="fill: #808080; stroke: #808080; stroke-width: 0.7"/>
     <use xlink:href="#me81a0072d2" x="151.376131" y="74.288537" style="fill: #808080; stroke: #808080; stroke-width: 0.7"/>
     <use xlink:href="#me81a0072d2" x="144.743483" y="75.140039" style="fill: #808080; stroke: #808080; stroke-width: 0.7"/>
     <use xlink:href="#me81a0072d2" x="98.425783" y="84.79675" style="fill: #808080; stroke: #808080; stroke-width: 0.7"/>
     <use xlink:href="#me81a0072d2" x="124.896452" y="44.636668" style="fill: #808080; stroke: #808080; stroke-width: 0.7"/>
     <use xlink:href="#me81a0072d2" x="158.359675" y="100.835795" style="fill: #808080; stroke: #808080; stroke-width: 0.7"/>
     <use xlink:href="#me81a0072d2" x="168.469212" y="99.615709" style="fill: #808080; stroke: #808080; stroke-width: 0.7"/>
     <use xlink:href="#me81a0072d2" x="109.704645" y="61.198736" style="fill: #808080; stroke: #808080; stroke-width: 0.7"/>
     <use xlink:href="#me81a0072d2" x="132.818632" y="44.636668" style="fill: #808080; stroke: #808080; stroke-width: 0.7"/>
     <use xlink:href="#me81a0072d2" x="189.756413" y="114.634343" style="fill: #808080; stroke: #808080; stroke-width: 0.7"/>
     <use xlink:href="#me81a0072d2" x="197.836364" y="114.229311" style="fill: #808080; stroke: #808080; stroke-width: 0.7"/>
     <use xlink:href="#me81a0072d2" x="139.765207" y="58.018234" style="fill: #808080; stroke: #808080; stroke-width: 0.7"/>
    </g>
   </g>
   <g id="line2d_11">
    <defs>
     <path id="m61efac96b1" d="M 2 0 
L -2 -0 
" style="stroke: #808080; stroke-width: 0.7"/>
    </defs>
    <g clip-path="url(#p5a15bb46a8)">
     <use xlink:href="#m61efac96b1" x="73.294505" y="155.618182" style="fill: #808080; stroke: #808080; stroke-width: 0.7"/>
     <use xlink:href="#m61efac96b1" x="115.37202" y="94.878913" style="fill: #808080; stroke: #808080; stroke-width: 0.7"/>
     <use xlink:href="#m61efac96b1" x="124.659105" y="101.971115" style="fill: #808080; stroke: #808080; stroke-width: 0.7"/>
     <use xlink:href="#m61efac96b1" x="51.424714" y="151.638637" style="fill: #808080; stroke: #808080; stroke-width: 0.7"/>
     <use xlink:href="#m61efac96b1" x="77.723575" y="121.301879" style="fill: #808080; stroke: #808080; stroke-width: 0.7"/>
     <use xlink:href="#m61efac96b1" x="131.430063" y="54.920748" style="fill: #808080; stroke: #808080; stroke-width: 0.7"/>
     <use xlink:href="#m61efac96b1" x="125.225493" y="50.72771" style="fill: #808080; stroke: #808080; stroke-width: 0.7"/>
     <use xlink:href="#m61efac96b1" x="93.44485" y="139.741376" style="fill: #808080; stroke: #808080; stroke-width: 0.7"/>
     <use xlink:href="#m61efac96b1" x="106.582448" y="120.238198" style="fill: #808080; stroke: #808080; stroke-width: 0.7"/>
     <use xlink:href="#m61efac96b1" x="147.966105" y="76.200186" style="fill: #808080; stroke: #808080; stroke-width: 0.7"/>
     <use xlink:href="#m61efac96b1" x="142.848412" y="75.821977" style="fill: #808080; stroke: #808080; stroke-width: 0.7"/>
     <use xlink:href="#m61efac96b1" x="97.498568" y="86.468257" style="fill: #808080; stroke: #808080; stroke-width: 0.7"/>
     <use xlink:href="#m61efac96b1" x="121.010513" y="48.621687" style="fill: #808080; stroke: #808080; stroke-width: 0.7"/>
     <use xlink:href="#m61efac96b1" x="157.510994" y="105.494156" style="fill: #808080; stroke: #808080; stroke-width: 0.7"/>
     <use xlink:href="#m61efac96b1" x="165.829226" y="103.70029" style="fill: #808080; stroke: #808080; stroke-width: 0.7"/>
     <use xlink:href="#m61efac96b1" x="108.08956" y="70.314601" style="fill: #808080; stroke: #808080; stroke-width: 0.7"/>
     <use xlink:href="#m61efac96b1" x="128.54109" y="48.358637" style="fill: #808080; stroke: #808080; stroke-width: 0.7"/>
     <use xlink:href="#m61efac96b1" x="187.763097" y="120.786766" style="fill: #808080; stroke: #808080; stroke-width: 0.7"/>
     <use xlink:href="#m61efac96b1" x="191.743411" y="114.716093" style="fill: #808080; stroke: #808080; stroke-width: 0.7"/>
     <use xlink:href="#m61efac96b1" x="134.447683" y="63.389368" style="fill: #808080; stroke: #808080; stroke-width: 0.7"/>
    </g>
   </g>
   <g id="line2d_12">
    <g clip-path="url(#p5a15bb46a8)">
     <use xlink:href="#m61efac96b1" x="73.294505" y="152.903155" style="fill: #808080; stroke: #808080; stroke-width: 0.7"/>
     <use xlink:href="#m61efac96b1" x="115.37202" y="86.641129" style="fill: #808080; stroke: #808080; stroke-width: 0.7"/>
     <use xlink:href="#m61efac96b1" x="124.659105" y="27.981818" style="fill: #808080; stroke: #808080; stroke-width: 0.7"/>
     <use xlink:href="#m61efac96b1" x="51.424714" y="147.505502" style="fill: #808080; stroke: #808080; stroke-width: 0.7"/>
     <use xlink:href="#m61efac96b1" x="77.723575" y="106.221363" style="fill: #808080; stroke: #808080; stroke-width: 0.7"/>
     <use xlink:href="#m61efac96b1" x="131.430063" y="34.352587" style="fill: #808080; stroke: #808080; stroke-width: 0.7"/>
     <use xlink:href="#m61efac96b1" x="125.225493" y="38.545625" style="fill: #808080; stroke: #808080; stroke-width: 0.7"/>
     <use xlink:href="#m61efac96b1" x="93.44485" y="136.687634" style="fill: #808080; stroke: #808080; stroke-width: 0.7"/>
     <use xlink:href="#m61efac96b1" x="106.582448" y="113.71046" style="fill: #808080; stroke: #808080; stroke-width: 0.7"/>
     <use xlink:href="#m61efac96b1" x="147.966105" y="72.376887" style="fill: #808080; stroke: #808080; stroke-width: 0.7"/>
     <use xlink:href="#m61efac96b1" x="142.848412" y="74.4581" style="fill: #808080; stroke: #808080; stroke-width: 0.7"/>
     <use xlink:href="#m61efac96b1" x="97.498568" y="83.125244" style="fill: #808080; stroke: #808080; stroke-width: 0.7"/>
     <use xlink:href="#m61efac96b1" x="121.010513" y="40.651648" style="fill: #808080; stroke: #808080; stroke-width: 0.7"/>
     <use xlink:href="#m61efac96b1" x="157.510994" y="96.177435" style="fill: #808080; stroke: #808080; stroke-width: 0.7"/>
     <use xlink:href="#m61efac96b1" x="165.829226" y="95.531128" style="fill: #808080; stroke: #808080; stroke-width: 0.7"/>
     <use xlink:href="#m61efac96b1" x="108.08956" y="52.08287" style="fill: #808080; stroke: #808080; stroke-width: 0.7"/>
     <use xlink:href="#m61efac96b1" x="128.54109" y="40.914698" style="fill: #808080; stroke: #808080; stroke-width: 0.7"/>
     <use xlink:href="#m61efac96b1" x="187.763097" y="108.481921" style="fill: #808080; stroke: #808080; stroke-width: 0.7"/>
     <use xlink:href="#m61efac96b1" x="191.743411" y="113.742529" style="fill: #808080; stroke: #808080; stroke-width: 0.7"/>
     <use xlink:href="#m61efac96b1" x="134.447683" y="52.647099" style="fill: #808080; stroke: #808080; stroke-width: 0.7"/>
    </g>
   </g>
   <g id="line2d_13"/>
   <g id="patch_3">
    <path d="M 43.2 162 
L 43.2 21.6 
" style="fill: none; stroke: #262626; stroke-width: 1.25; stroke-linejoin: miter; stroke-linecap: square"/>
   </g>
   <g id="patch_4">
    <path d="M 205.2 162 
L 205.2 21.6 
" style="fill: none; stroke: #262626; stroke-width: 1.25; stroke-linejoin: miter; stroke-linecap: square"/>
   </g>
   <g id="patch_5">
    <path d="M 43.2 162 
L 205.2 162 
" style="fill: none; stroke: #262626; stroke-width: 1.25; stroke-linejoin: miter; stroke-linecap: square"/>
   </g>
   <g id="patch_6">
    <path d="M 43.2 21.6 
L 205.2 21.6 
" style="fill: none; stroke: #262626; stroke-width: 1.25; stroke-linejoin: miter; stroke-linecap: square"/>
   </g>
   <g id="PathCollection_2">
    <defs>
     <path id="C0_0_afe779a435" d="M 0 5 
C 1.326016 5 2.597899 4.473168 3.535534 3.535534 
C 4.473168 2.597899 5 1.326016 5 -0 
C 5 -1.326016 4.473168 -2.597899 3.535534 -3.535534 
C 2.597899 -4.473168 1.326016 -5 0 -5 
C -1.326016 -5 -2.597899 -4.473168 -3.535534 -3.535534 
C -4.473168 -2.597899 -5 -1.326016 -5 0 
C -5 1.326016 -4.473168 2.597899 -3.535534 3.535534 
C -2.597899 4.473168 -1.326016 5 0 5 
z
"/>
    </defs>
    <g clip-path="url(#p5a15bb46a8)">
     <use xlink:href="#C0_0_afe779a435" x="73.294505" y="154.260669" style="stroke: #ffffff; stroke-width: 0.8"/>
    </g>
    <g clip-path="url(#p5a15bb46a8)">
     <use xlink:href="#C0_0_afe779a435" x="115.37202" y="90.760021" style="stroke: #ffffff; stroke-width: 0.8"/>
    </g>
    <g clip-path="url(#p5a15bb46a8)">
     <use xlink:href="#C0_0_afe779a435" x="124.659105" y="64.976467" style="stroke: #ffffff; stroke-width: 0.8"/>
    </g>
    <g clip-path="url(#p5a15bb46a8)">
     <use xlink:href="#C0_0_afe779a435" x="51.424714" y="149.572069" style="stroke: #ffffff; stroke-width: 0.8"/>
    </g>
    <g clip-path="url(#p5a15bb46a8)">
     <use xlink:href="#C0_0_afe779a435" x="77.723575" y="113.761621" style="stroke: #ffffff; stroke-width: 0.8"/>
    </g>
    <g clip-path="url(#p5a15bb46a8)">
     <use xlink:href="#C0_0_afe779a435" x="131.430063" y="44.636668" style="stroke: #ffffff; stroke-width: 0.8"/>
    </g>
    <g clip-path="url(#p5a15bb46a8)">
     <use xlink:href="#C0_0_afe779a435" x="125.225493" y="44.636668" style="stroke: #ffffff; stroke-width: 0.8"/>
    </g>
    <g clip-path="url(#p5a15bb46a8)">
     <use xlink:href="#C0_0_afe779a435" x="93.44485" y="138.214505" style="stroke: #ffffff; stroke-width: 0.8"/>
    </g>
    <g clip-path="url(#p5a15bb46a8)">
     <use xlink:href="#C0_0_afe779a435" x="106.582448" y="116.974329" style="stroke: #ffffff; stroke-width: 0.8"/>
    </g>
    <g clip-path="url(#p5a15bb46a8)">
     <use xlink:href="#C0_0_afe779a435" x="147.966105" y="74.288537" style="stroke: #ffffff; stroke-width: 0.8"/>
    </g>
    <g clip-path="url(#p5a15bb46a8)">
     <use xlink:href="#C0_0_afe779a435" x="142.848412" y="75.140039" style="stroke: #ffffff; stroke-width: 0.8"/>
    </g>
    <g clip-path="url(#p5a15bb46a8)">
     <use xlink:href="#C0_0_afe779a435" x="97.498568" y="84.79675" style="stroke: #ffffff; stroke-width: 0.8"/>
    </g>
    <g clip-path="url(#p5a15bb46a8)">
     <use xlink:href="#C0_0_afe779a435" x="121.010513" y="44.636668" style="stroke: #ffffff; stroke-width: 0.8"/>
    </g>
    <g clip-path="url(#p5a15bb46a8)">
     <use xlink:href="#C0_0_afe779a435" x="157.510994" y="100.835795" style="stroke: #ffffff; stroke-width: 0.8"/>
    </g>
    <g clip-path="url(#p5a15bb46a8)">
     <use xlink:href="#C0_0_afe779a435" x="165.829226" y="99.615709" style="stroke: #ffffff; stroke-width: 0.8"/>
    </g>
    <g clip-path="url(#p5a15bb46a8)">
     <use xlink:href="#C0_0_afe779a435" x="108.08956" y="61.198736" style="stroke: #ffffff; stroke-width: 0.8"/>
    </g>
    <g clip-path="url(#p5a15bb46a8)">
     <use xlink:href="#C0_0_afe779a435" x="128.54109" y="44.636668" style="stroke: #ffffff; stroke-width: 0.8"/>
    </g>
    <g clip-path="url(#p5a15bb46a8)">
     <use xlink:href="#C0_0_afe779a435" x="187.763097" y="114.634343" style="stroke: #ffffff; stroke-width: 0.8"/>
    </g>
    <g clip-path="url(#p5a15bb46a8)">
     <use xlink:href="#C0_0_afe779a435" x="191.743411" y="114.229311" style="stroke: #ffffff; stroke-width: 0.8"/>
    </g>
    <g clip-path="url(#p5a15bb46a8)">
     <use xlink:href="#C0_0_afe779a435" x="134.447683" y="58.018234" style="stroke: #ffffff; stroke-width: 0.8"/>
    </g>
   </g>
   <g id="legend_1">
    <g id="PathCollection_3">
     <defs>
      <path id="m9a5a8e2d6e" d="M 0 3 
C 0.795609 3 1.55874 2.683901 2.12132 2.12132 
C 2.683901 1.55874 3 0.795609 3 0 
C 3 -0.795609 2.683901 -1.55874 2.12132 -2.12132 
C 1.55874 -2.683901 0.795609 -3 0 -3 
C -0.795609 -3 -1.55874 -2.683901 -2.12132 -2.12132 
C -2.683901 -1.55874 -3 -0.795609 -3 0 
C -3 0.795609 -2.683901 1.55874 -2.12132 2.12132 
C -1.55874 2.683901 -0.795609 3 0 3 
z
" style="stroke: #000000"/>
     </defs>
     <g>
      <use xlink:href="#m9a5a8e2d6e" x="228.7" y="30.986094" style="stroke: #000000"/>
     </g>
    </g>
    <g id="text_11">
     <!-- NIL DD -->
     <g style="fill: #262626" transform="translate(248.5 33.873594) scale(0.11 -0.11)">
      <defs>
       <path id="ArialMT-4c" d="M 469 0 
L 469 4581 
L 1075 4581 
L 1075 541 
L 3331 541 
L 3331 0 
L 469 0 
z
" transform="scale(0.015625)"/>
       <path id="ArialMT-44" d="M 494 0 
L 494 4581 
L 2072 4581 
Q 2606 4581 2888 4516 
Q 3281 4425 3559 4188 
Q 3922 3881 4101 3404 
Q 4281 2928 4281 2316 
Q 4281 1794 4159 1391 
Q 4038 988 3847 723 
Q 3656 459 3429 307 
Q 3203 156 2883 78 
Q 2563 0 2147 0 
L 494 0 
z
M 1100 541 
L 2078 541 
Q 2531 541 2789 625 
Q 3047 709 3200 863 
Q 3416 1078 3536 1442 
Q 3656 1806 3656 2325 
Q 3656 3044 3420 3430 
Q 3184 3816 2847 3947 
Q 2603 4041 2063 4041 
L 1100 4041 
L 1100 541 
z
" transform="scale(0.015625)"/>
      </defs>
      <use xlink:href="#ArialMT-4e"/>
      <use xlink:href="#ArialMT-49" transform="translate(72.216797 0)"/>
      <use xlink:href="#ArialMT-4c" transform="translate(100 0)"/>
      <use xlink:href="#ArialMT-20" transform="translate(151.865234 0)"/>
      <use xlink:href="#ArialMT-44" transform="translate(179.648438 0)"/>
      <use xlink:href="#ArialMT-44" transform="translate(251.865234 0)"/>
     </g>
    </g>
   </g>
  </g>
 </g>
 <defs>
  <clipPath id="p5a15bb46a8">
   <rect x="43.2" y="21.6" width="162" height="140.4"/>
  </clipPath>
 </defs>
</svg>
