<?xml version="1.0" encoding="utf-8" standalone="no"?>
<!DOCTYPE svg PUBLIC "-//W3C//DTD SVG 1.1//EN"
  "http://www.w3.org/Graphics/SVG/1.1/DTD/svg11.dtd">
<svg xmlns:xlink="http://www.w3.org/1999/xlink" width="278.829375pt" height="177.330031pt" viewBox="0 0 278.829375 177.330031" xmlns="http://www.w3.org/2000/svg" version="1.1">
 <metadata>
  <rdf:RDF xmlns:dc="http://purl.org/dc/elements/1.1/" xmlns:cc="http://creativecommons.org/ns#" xmlns:rdf="http://www.w3.org/1999/02/22-rdf-syntax-ns#">
   <cc:Work>
    <dc:type rdf:resource="http://purl.org/dc/dcmitype/StillImage"/>
    <dc:date>2025-07-28T16:55:02.311707</dc:date>
    <dc:format>image/svg+xml</dc:format>
    <dc:creator>
     <cc:Agent>
      <dc:title>Matplotlib v3.10.3, https://matplotlib.org/</dc:title>
     </cc:Agent>
    </dc:creator>
   </cc:Work>
  </rdf:RDF>
 </metadata>
 <defs>
  <style type="text/css">*{stroke-linejoin: round; stroke-linecap: butt}</style>
 </defs>
 <g id="figure_1">
  <g id="patch_1">
   <path d="M 0 177.330031 
L 278.829375 177.330031 
L 278.829375 0 
L 0 0 
z
" style="fill: #ffffff"/>
  </g>
  <g id="axes_1">
   <g id="patch_2">
    <path d="M 49.695313 138.935625 
L 211.695312 138.935625 
L 211.695312 21.935625 
L 49.695313 21.935625 
z
" style="fill: #ffffff"/>
   </g>
   <g id="matplotlib.axis_1">
    <g id="xtick_1">
     <g id="line2d_1">
      <defs>
       <path id="m8eaf6242e0" d="M 0 0 
L 0 6 
" style="stroke: #262626; stroke-width: 1.25"/>
      </defs>
      <g>
       <use xlink:href="#m8eaf6242e0" x="90.195312" y="138.935625" style="fill: #262626; stroke: #262626; stroke-width: 1.25"/>
      </g>
     </g>
     <g id="text_1">
      <!-- NIL -->
      <g style="fill: #262626" transform="translate(81.636797 156.309219) scale(0.11 -0.11)">
       <defs>
        <path id="ArialMT-4e" d="M 488 0 
L 488 4581 
L 1109 4581 
L 3516 984 
L 3516 4581 
L 4097 4581 
L 4097 0 
L 3475 0 
L 1069 3600 
L 1069 0 
L 488 0 
z
" transform="scale(0.015625)"/>
        <path id="ArialMT-49" d="M 597 0 
L 597 4581 
L 1203 4581 
L 1203 0 
L 597 0 
z
" transform="scale(0.015625)"/>
        <path id="ArialMT-4c" d="M 469 0 
L 469 4581 
L 1075 4581 
L 1075 541 
L 3331 541 
L 3331 0 
L 469 0 
z
" transform="scale(0.015625)"/>
       </defs>
       <use xlink:href="#ArialMT-4e"/>
       <use xlink:href="#ArialMT-49" transform="translate(72.216797 0)"/>
       <use xlink:href="#ArialMT-4c" transform="translate(100 0)"/>
      </g>
      <!-- DD -->
      <g style="fill: #262626" transform="translate(82.25125 167.943781) scale(0.11 -0.11)">
       <defs>
        <path id="ArialMT-44" d="M 494 0 
L 494 4581 
L 2072 4581 
Q 2606 4581 2888 4516 
Q 3281 4425 3559 4188 
Q 3922 3881 4101 3404 
Q 4281 2928 4281 2316 
Q 4281 1794 4159 1391 
Q 4038 988 3847 723 
Q 3656 459 3429 307 
Q 3203 156 2883 78 
Q 2563 0 2147 0 
L 494 0 
z
M 1100 541 
L 2078 541 
Q 2531 541 2789 625 
Q 3047 709 3200 863 
Q 3416 1078 3536 1442 
Q 3656 1806 3656 2325 
Q 3656 3044 3420 3430 
Q 3184 3816 2847 3947 
Q 2603 4041 2063 4041 
L 1100 4041 
L 1100 541 
z
" transform="scale(0.015625)"/>
       </defs>
       <use xlink:href="#ArialMT-44"/>
       <use xlink:href="#ArialMT-44" transform="translate(72.216797 0)"/>
      </g>
     </g>
    </g>
    <g id="xtick_2">
     <g id="line2d_2">
      <g>
       <use xlink:href="#m8eaf6242e0" x="171.195312" y="138.935625" style="fill: #262626; stroke: #262626; stroke-width: 1.25"/>
      </g>
     </g>
     <g id="text_2">
      <!-- NIL -->
      <g style="fill: #262626" transform="translate(162.636797 156.309219) scale(0.11 -0.11)">
       <use xlink:href="#ArialMT-4e"/>
       <use xlink:href="#ArialMT-49" transform="translate(72.216797 0)"/>
       <use xlink:href="#ArialMT-4c" transform="translate(100 0)"/>
      </g>
      <!-- SNAP-DD -->
      <g style="fill: #262626" transform="translate(146.441875 167.943781) scale(0.11 -0.11)">
       <defs>
        <path id="ArialMT-53" d="M 288 1472 
L 859 1522 
Q 900 1178 1048 958 
Q 1197 738 1509 602 
Q 1822 466 2213 466 
Q 2559 466 2825 569 
Q 3091 672 3220 851 
Q 3350 1031 3350 1244 
Q 3350 1459 3225 1620 
Q 3100 1781 2813 1891 
Q 2628 1963 1997 2114 
Q 1366 2266 1113 2400 
Q 784 2572 623 2826 
Q 463 3081 463 3397 
Q 463 3744 659 4045 
Q 856 4347 1234 4503 
Q 1613 4659 2075 4659 
Q 2584 4659 2973 4495 
Q 3363 4331 3572 4012 
Q 3781 3694 3797 3291 
L 3216 3247 
Q 3169 3681 2898 3903 
Q 2628 4125 2100 4125 
Q 1550 4125 1298 3923 
Q 1047 3722 1047 3438 
Q 1047 3191 1225 3031 
Q 1400 2872 2139 2705 
Q 2878 2538 3153 2413 
Q 3553 2228 3743 1945 
Q 3934 1663 3934 1294 
Q 3934 928 3725 604 
Q 3516 281 3123 101 
Q 2731 -78 2241 -78 
Q 1619 -78 1198 103 
Q 778 284 539 648 
Q 300 1013 288 1472 
z
" transform="scale(0.015625)"/>
        <path id="ArialMT-41" d="M -9 0 
L 1750 4581 
L 2403 4581 
L 4278 0 
L 3588 0 
L 3053 1388 
L 1138 1388 
L 634 0 
L -9 0 
z
M 1313 1881 
L 2866 1881 
L 2388 3150 
Q 2169 3728 2063 4100 
Q 1975 3659 1816 3225 
L 1313 1881 
z
" transform="scale(0.015625)"/>
        <path id="ArialMT-50" d="M 494 0 
L 494 4581 
L 2222 4581 
Q 2678 4581 2919 4538 
Q 3256 4481 3484 4323 
Q 3713 4166 3852 3881 
Q 3991 3597 3991 3256 
Q 3991 2672 3619 2267 
Q 3247 1863 2275 1863 
L 1100 1863 
L 1100 0 
L 494 0 
z
M 1100 2403 
L 2284 2403 
Q 2872 2403 3119 2622 
Q 3366 2841 3366 3238 
Q 3366 3525 3220 3729 
Q 3075 3934 2838 4000 
Q 2684 4041 2272 4041 
L 1100 4041 
L 1100 2403 
z
" transform="scale(0.015625)"/>
        <path id="ArialMT-2d" d="M 203 1375 
L 203 1941 
L 1931 1941 
L 1931 1375 
L 203 1375 
z
" transform="scale(0.015625)"/>
       </defs>
       <use xlink:href="#ArialMT-53"/>
       <use xlink:href="#ArialMT-4e" transform="translate(66.699219 0)"/>
       <use xlink:href="#ArialMT-41" transform="translate(138.916016 0)"/>
       <use xlink:href="#ArialMT-50" transform="translate(205.615234 0)"/>
       <use xlink:href="#ArialMT-2d" transform="translate(272.314453 0)"/>
       <use xlink:href="#ArialMT-44" transform="translate(305.615234 0)"/>
       <use xlink:href="#ArialMT-44" transform="translate(377.832031 0)"/>
      </g>
     </g>
    </g>
   </g>
   <g id="matplotlib.axis_2">
    <g id="ytick_1">
     <g id="line2d_3">
      <defs>
       <path id="mf74e801d8b" d="M 0 0 
L -6 0 
" style="stroke: #262626; stroke-width: 1.25"/>
      </defs>
      <g>
       <use xlink:href="#mf74e801d8b" x="49.695313" y="138.935625" style="fill: #262626; stroke: #262626; stroke-width: 1.25"/>
      </g>
     </g>
     <g id="text_3">
      <!-- 0 -->
      <g style="fill: #262626" transform="translate(34.078281 142.872422) scale(0.11 -0.11)">
       <defs>
        <path id="ArialMT-30" d="M 266 2259 
Q 266 3072 433 3567 
Q 600 4063 929 4331 
Q 1259 4600 1759 4600 
Q 2128 4600 2406 4451 
Q 2684 4303 2865 4023 
Q 3047 3744 3150 3342 
Q 3253 2941 3253 2259 
Q 3253 1453 3087 958 
Q 2922 463 2592 192 
Q 2263 -78 1759 -78 
Q 1097 -78 719 397 
Q 266 969 266 2259 
z
M 844 2259 
Q 844 1131 1108 757 
Q 1372 384 1759 384 
Q 2147 384 2411 759 
Q 2675 1134 2675 2259 
Q 2675 3391 2411 3762 
Q 2147 4134 1753 4134 
Q 1366 4134 1134 3806 
Q 844 3388 844 2259 
z
" transform="scale(0.015625)"/>
       </defs>
       <use xlink:href="#ArialMT-30"/>
      </g>
     </g>
    </g>
    <g id="ytick_2">
     <g id="line2d_4">
      <g>
       <use xlink:href="#mf74e801d8b" x="49.695313" y="108.750042" style="fill: #262626; stroke: #262626; stroke-width: 1.25"/>
      </g>
     </g>
     <g id="text_4">
      <!-- 20k -->
      <g style="fill: #262626" transform="translate(22.46125 112.686839) scale(0.11 -0.11)">
       <defs>
        <path id="ArialMT-32" d="M 3222 541 
L 3222 0 
L 194 0 
Q 188 203 259 391 
Q 375 700 629 1000 
Q 884 1300 1366 1694 
Q 2113 2306 2375 2664 
Q 2638 3022 2638 3341 
Q 2638 3675 2398 3904 
Q 2159 4134 1775 4134 
Q 1369 4134 1125 3890 
Q 881 3647 878 3216 
L 300 3275 
Q 359 3922 746 4261 
Q 1134 4600 1788 4600 
Q 2447 4600 2831 4234 
Q 3216 3869 3216 3328 
Q 3216 3053 3103 2787 
Q 2991 2522 2730 2228 
Q 2469 1934 1863 1422 
Q 1356 997 1212 845 
Q 1069 694 975 541 
L 3222 541 
z
" transform="scale(0.015625)"/>
        <path id="ArialMT-6b" d="M 425 0 
L 425 4581 
L 988 4581 
L 988 1969 
L 2319 3319 
L 3047 3319 
L 1778 2088 
L 3175 0 
L 2481 0 
L 1384 1697 
L 988 1316 
L 988 0 
L 425 0 
z
" transform="scale(0.015625)"/>
       </defs>
       <use xlink:href="#ArialMT-32"/>
       <use xlink:href="#ArialMT-30" transform="translate(55.615234 0)"/>
       <use xlink:href="#ArialMT-6b" transform="translate(111.230469 0)"/>
      </g>
     </g>
    </g>
    <g id="ytick_3">
     <g id="line2d_5">
      <g>
       <use xlink:href="#mf74e801d8b" x="49.695313" y="78.564458" style="fill: #262626; stroke: #262626; stroke-width: 1.25"/>
      </g>
     </g>
     <g id="text_5">
      <!-- 40k -->
      <g style="fill: #262626" transform="translate(22.46125 82.501255) scale(0.11 -0.11)">
       <defs>
        <path id="ArialMT-34" d="M 2069 0 
L 2069 1097 
L 81 1097 
L 81 1613 
L 2172 4581 
L 2631 4581 
L 2631 1613 
L 3250 1613 
L 3250 1097 
L 2631 1097 
L 2631 0 
L 2069 0 
z
M 2069 1613 
L 2069 3678 
L 634 1613 
L 2069 1613 
z
" transform="scale(0.015625)"/>
       </defs>
       <use xlink:href="#ArialMT-34"/>
       <use xlink:href="#ArialMT-30" transform="translate(55.615234 0)"/>
       <use xlink:href="#ArialMT-6b" transform="translate(111.230469 0)"/>
      </g>
     </g>
    </g>
    <g id="ytick_4">
     <g id="line2d_6">
      <g>
       <use xlink:href="#mf74e801d8b" x="49.695313" y="48.378875" style="fill: #262626; stroke: #262626; stroke-width: 1.25"/>
      </g>
     </g>
     <g id="text_6">
      <!-- 60k -->
      <g style="fill: #262626" transform="translate(22.46125 52.315672) scale(0.11 -0.11)">
       <defs>
        <path id="ArialMT-36" d="M 3184 3459 
L 2625 3416 
Q 2550 3747 2413 3897 
Q 2184 4138 1850 4138 
Q 1581 4138 1378 3988 
Q 1113 3794 959 3422 
Q 806 3050 800 2363 
Q 1003 2672 1297 2822 
Q 1591 2972 1913 2972 
Q 2475 2972 2870 2558 
Q 3266 2144 3266 1488 
Q 3266 1056 3080 686 
Q 2894 316 2569 119 
Q 2244 -78 1831 -78 
Q 1128 -78 684 439 
Q 241 956 241 2144 
Q 241 3472 731 4075 
Q 1159 4600 1884 4600 
Q 2425 4600 2770 4297 
Q 3116 3994 3184 3459 
z
M 888 1484 
Q 888 1194 1011 928 
Q 1134 663 1356 523 
Q 1578 384 1822 384 
Q 2178 384 2434 671 
Q 2691 959 2691 1453 
Q 2691 1928 2437 2201 
Q 2184 2475 1800 2475 
Q 1419 2475 1153 2201 
Q 888 1928 888 1484 
z
" transform="scale(0.015625)"/>
       </defs>
       <use xlink:href="#ArialMT-36"/>
       <use xlink:href="#ArialMT-30" transform="translate(55.615234 0)"/>
       <use xlink:href="#ArialMT-6b" transform="translate(111.230469 0)"/>
      </g>
     </g>
    </g>
    <g id="text_7">
     <!-- Single Cells Count -->
     <g style="fill: #262626" transform="translate(15.935625 129.793125) rotate(-90) scale(0.12 -0.12)">
      <defs>
       <path id="ArialMT-69" d="M 425 3934 
L 425 4581 
L 988 4581 
L 988 3934 
L 425 3934 
z
M 425 0 
L 425 3319 
L 988 3319 
L 988 0 
L 425 0 
z
" transform="scale(0.015625)"/>
       <path id="ArialMT-6e" d="M 422 0 
L 422 3319 
L 928 3319 
L 928 2847 
Q 1294 3394 1984 3394 
Q 2284 3394 2536 3286 
Q 2788 3178 2913 3003 
Q 3038 2828 3088 2588 
Q 3119 2431 3119 2041 
L 3119 0 
L 2556 0 
L 2556 2019 
Q 2556 2363 2490 2533 
Q 2425 2703 2258 2804 
Q 2091 2906 1866 2906 
Q 1506 2906 1245 2678 
Q 984 2450 984 1813 
L 984 0 
L 422 0 
z
" transform="scale(0.015625)"/>
       <path id="ArialMT-67" d="M 319 -275 
L 866 -356 
Q 900 -609 1056 -725 
Q 1266 -881 1628 -881 
Q 2019 -881 2231 -725 
Q 2444 -569 2519 -288 
Q 2563 -116 2559 434 
Q 2191 0 1641 0 
Q 956 0 581 494 
Q 206 988 206 1678 
Q 206 2153 378 2554 
Q 550 2956 876 3175 
Q 1203 3394 1644 3394 
Q 2231 3394 2613 2919 
L 2613 3319 
L 3131 3319 
L 3131 450 
Q 3131 -325 2973 -648 
Q 2816 -972 2473 -1159 
Q 2131 -1347 1631 -1347 
Q 1038 -1347 672 -1080 
Q 306 -813 319 -275 
z
M 784 1719 
Q 784 1066 1043 766 
Q 1303 466 1694 466 
Q 2081 466 2343 764 
Q 2606 1063 2606 1700 
Q 2606 2309 2336 2618 
Q 2066 2928 1684 2928 
Q 1309 2928 1046 2623 
Q 784 2319 784 1719 
z
" transform="scale(0.015625)"/>
       <path id="ArialMT-6c" d="M 409 0 
L 409 4581 
L 972 4581 
L 972 0 
L 409 0 
z
" transform="scale(0.015625)"/>
       <path id="ArialMT-65" d="M 2694 1069 
L 3275 997 
Q 3138 488 2766 206 
Q 2394 -75 1816 -75 
Q 1088 -75 661 373 
Q 234 822 234 1631 
Q 234 2469 665 2931 
Q 1097 3394 1784 3394 
Q 2450 3394 2872 2941 
Q 3294 2488 3294 1666 
Q 3294 1616 3291 1516 
L 816 1516 
Q 847 969 1125 678 
Q 1403 388 1819 388 
Q 2128 388 2347 550 
Q 2566 713 2694 1069 
z
M 847 1978 
L 2700 1978 
Q 2663 2397 2488 2606 
Q 2219 2931 1791 2931 
Q 1403 2931 1139 2672 
Q 875 2413 847 1978 
z
" transform="scale(0.015625)"/>
       <path id="ArialMT-20" transform="scale(0.015625)"/>
       <path id="ArialMT-43" d="M 3763 1606 
L 4369 1453 
Q 4178 706 3683 314 
Q 3188 -78 2472 -78 
Q 1731 -78 1267 223 
Q 803 525 561 1097 
Q 319 1669 319 2325 
Q 319 3041 592 3573 
Q 866 4106 1370 4382 
Q 1875 4659 2481 4659 
Q 3169 4659 3637 4309 
Q 4106 3959 4291 3325 
L 3694 3184 
Q 3534 3684 3231 3912 
Q 2928 4141 2469 4141 
Q 1941 4141 1586 3887 
Q 1231 3634 1087 3207 
Q 944 2781 944 2328 
Q 944 1744 1114 1308 
Q 1284 872 1643 656 
Q 2003 441 2422 441 
Q 2931 441 3284 734 
Q 3638 1028 3763 1606 
z
" transform="scale(0.015625)"/>
       <path id="ArialMT-73" d="M 197 991 
L 753 1078 
Q 800 744 1014 566 
Q 1228 388 1613 388 
Q 2000 388 2187 545 
Q 2375 703 2375 916 
Q 2375 1106 2209 1216 
Q 2094 1291 1634 1406 
Q 1016 1563 777 1677 
Q 538 1791 414 1992 
Q 291 2194 291 2438 
Q 291 2659 392 2848 
Q 494 3038 669 3163 
Q 800 3259 1026 3326 
Q 1253 3394 1513 3394 
Q 1903 3394 2198 3281 
Q 2494 3169 2634 2976 
Q 2775 2784 2828 2463 
L 2278 2388 
Q 2241 2644 2061 2787 
Q 1881 2931 1553 2931 
Q 1166 2931 1000 2803 
Q 834 2675 834 2503 
Q 834 2394 903 2306 
Q 972 2216 1119 2156 
Q 1203 2125 1616 2013 
Q 2213 1853 2448 1751 
Q 2684 1650 2818 1456 
Q 2953 1263 2953 975 
Q 2953 694 2789 445 
Q 2625 197 2315 61 
Q 2006 -75 1616 -75 
Q 969 -75 630 194 
Q 291 463 197 991 
z
" transform="scale(0.015625)"/>
       <path id="ArialMT-6f" d="M 213 1659 
Q 213 2581 725 3025 
Q 1153 3394 1769 3394 
Q 2453 3394 2887 2945 
Q 3322 2497 3322 1706 
Q 3322 1066 3130 698 
Q 2938 331 2570 128 
Q 2203 -75 1769 -75 
Q 1072 -75 642 372 
Q 213 819 213 1659 
z
M 791 1659 
Q 791 1022 1069 705 
Q 1347 388 1769 388 
Q 2188 388 2466 706 
Q 2744 1025 2744 1678 
Q 2744 2294 2464 2611 
Q 2184 2928 1769 2928 
Q 1347 2928 1069 2612 
Q 791 2297 791 1659 
z
" transform="scale(0.015625)"/>
       <path id="ArialMT-75" d="M 2597 0 
L 2597 488 
Q 2209 -75 1544 -75 
Q 1250 -75 995 37 
Q 741 150 617 320 
Q 494 491 444 738 
Q 409 903 409 1263 
L 409 3319 
L 972 3319 
L 972 1478 
Q 972 1038 1006 884 
Q 1059 663 1231 536 
Q 1403 409 1656 409 
Q 1909 409 2131 539 
Q 2353 669 2445 892 
Q 2538 1116 2538 1541 
L 2538 3319 
L 3100 3319 
L 3100 0 
L 2597 0 
z
" transform="scale(0.015625)"/>
       <path id="ArialMT-74" d="M 1650 503 
L 1731 6 
Q 1494 -44 1306 -44 
Q 1000 -44 831 53 
Q 663 150 594 308 
Q 525 466 525 972 
L 525 2881 
L 113 2881 
L 113 3319 
L 525 3319 
L 525 4141 
L 1084 4478 
L 1084 3319 
L 1650 3319 
L 1650 2881 
L 1084 2881 
L 1084 941 
Q 1084 700 1114 631 
Q 1144 563 1211 522 
Q 1278 481 1403 481 
Q 1497 481 1650 503 
z
" transform="scale(0.015625)"/>
      </defs>
      <use xlink:href="#ArialMT-53"/>
      <use xlink:href="#ArialMT-69" transform="translate(66.699219 0)"/>
      <use xlink:href="#ArialMT-6e" transform="translate(88.916016 0)"/>
      <use xlink:href="#ArialMT-67" transform="translate(144.53125 0)"/>
      <use xlink:href="#ArialMT-6c" transform="translate(200.146484 0)"/>
      <use xlink:href="#ArialMT-65" transform="translate(222.363281 0)"/>
      <use xlink:href="#ArialMT-20" transform="translate(277.978516 0)"/>
      <use xlink:href="#ArialMT-43" transform="translate(305.761719 0)"/>
      <use xlink:href="#ArialMT-65" transform="translate(377.978516 0)"/>
      <use xlink:href="#ArialMT-6c" transform="translate(433.59375 0)"/>
      <use xlink:href="#ArialMT-6c" transform="translate(455.810547 0)"/>
      <use xlink:href="#ArialMT-73" transform="translate(478.027344 0)"/>
      <use xlink:href="#ArialMT-20" transform="translate(528.027344 0)"/>
      <use xlink:href="#ArialMT-43" transform="translate(555.810547 0)"/>
      <use xlink:href="#ArialMT-6f" transform="translate(628.027344 0)"/>
      <use xlink:href="#ArialMT-75" transform="translate(683.642578 0)"/>
      <use xlink:href="#ArialMT-6e" transform="translate(739.257812 0)"/>
      <use xlink:href="#ArialMT-74" transform="translate(794.873047 0)"/>
     </g>
    </g>
   </g>
   <g id="patch_3">
    <path d="M 57.795313 138.935625 
L 70.755313 138.935625 
L 70.755313 104.686056 
L 57.795313 104.686056 
z
" clip-path="url(#pb2fa250177)" style="fill: #2f1b55; opacity: 0.8; stroke: #ffffff; stroke-linejoin: miter"/>
   </g>
   <g id="patch_4">
    <path d="M 138.795312 138.935625 
L 151.755313 138.935625 
L 151.755313 60.716855 
L 138.795312 60.716855 
z
" clip-path="url(#pb2fa250177)" style="fill: #2f1b55; opacity: 0.8; stroke: #ffffff; stroke-linejoin: miter"/>
   </g>
   <g id="patch_5">
    <path d="M 70.755313 138.935625 
L 83.715313 138.935625 
L 83.715313 87.931548 
L 70.755313 87.931548 
z
" clip-path="url(#pb2fa250177)" style="fill: #692c75; opacity: 0.8; stroke: #ffffff; stroke-linejoin: miter"/>
   </g>
   <g id="patch_6">
    <path d="M 151.755313 138.935625 
L 164.715313 138.935625 
L 164.715313 42.147061 
L 151.755313 42.147061 
z
" clip-path="url(#pb2fa250177)" style="fill: #692c75; opacity: 0.8; stroke: #ffffff; stroke-linejoin: miter"/>
   </g>
   <g id="patch_7">
    <path d="M 83.715312 138.935625 
L 96.675312 138.935625 
L 96.675312 81.235002 
L 83.715312 81.235002 
z
" clip-path="url(#pb2fa250177)" style="fill: #a74779; opacity: 0.8; stroke: #ffffff; stroke-linejoin: miter"/>
   </g>
   <g id="patch_8">
    <path d="M 164.715313 138.935625 
L 177.675313 138.935625 
L 177.675313 40.419314 
L 164.715313 40.419314 
z
" clip-path="url(#pb2fa250177)" style="fill: #a74779; opacity: 0.8; stroke: #ffffff; stroke-linejoin: miter"/>
   </g>
   <g id="patch_9">
    <path d="M 96.675313 138.935625 
L 109.635312 138.935625 
L 109.635312 67.682807 
L 96.675313 67.682807 
z
" clip-path="url(#pb2fa250177)" style="fill: #de7270; opacity: 0.8; stroke: #ffffff; stroke-linejoin: miter"/>
   </g>
   <g id="patch_10">
    <path d="M 177.675312 138.935625 
L 190.635312 138.935625 
L 190.635312 42.380245 
L 177.675312 42.380245 
z
" clip-path="url(#pb2fa250177)" style="fill: #de7270; opacity: 0.8; stroke: #ffffff; stroke-linejoin: miter"/>
   </g>
   <g id="patch_11">
    <path d="M 109.635312 138.935625 
L 122.595313 138.935625 
L 122.595313 62.364988 
L 109.635312 62.364988 
z
" clip-path="url(#pb2fa250177)" style="fill: #eeb389; opacity: 0.8; stroke: #ffffff; stroke-linejoin: miter"/>
   </g>
   <g id="patch_12">
    <path d="M 190.635312 138.935625 
L 203.595312 138.935625 
L 203.595312 43.571444 
L 190.635312 43.571444 
z
" clip-path="url(#pb2fa250177)" style="fill: #eeb389; opacity: 0.8; stroke: #ffffff; stroke-linejoin: miter"/>
   </g>
   <g id="line2d_7">
    <path d="M 64.275312 117.169832 
L 64.275312 90.364116 
" clip-path="url(#pb2fa250177)" style="fill: none; stroke: #424242; stroke-width: 2.7; stroke-linecap: round"/>
   </g>
   <g id="line2d_8">
    <path d="M 145.275312 68.613888 
L 145.275312 53.628381 
" clip-path="url(#pb2fa250177)" style="fill: none; stroke: #424242; stroke-width: 2.7; stroke-linecap: round"/>
   </g>
   <g id="line2d_9">
    <path d="M 77.235312 100.188373 
L 77.235312 76.103444 
" clip-path="url(#pb2fa250177)" style="fill: none; stroke: #424242; stroke-width: 2.7; stroke-linecap: round"/>
   </g>
   <g id="line2d_10">
    <path d="M 158.235312 44.743129 
L 158.235312 39.354562 
" clip-path="url(#pb2fa250177)" style="fill: none; stroke: #424242; stroke-width: 2.7; stroke-linecap: round"/>
   </g>
   <g id="line2d_11">
    <path d="M 90.195312 88.451042 
L 90.195312 74.084415 
" clip-path="url(#pb2fa250177)" style="fill: none; stroke: #424242; stroke-width: 2.7; stroke-linecap: round"/>
   </g>
   <g id="line2d_12">
    <path d="M 171.195312 44.543699 
L 171.195312 36.746581 
" clip-path="url(#pb2fa250177)" style="fill: none; stroke: #424242; stroke-width: 2.7; stroke-linecap: round"/>
   </g>
   <g id="line2d_13">
    <path d="M 103.155312 72.853365 
L 103.155312 62.997561 
" clip-path="url(#pb2fa250177)" style="fill: none; stroke: #424242; stroke-width: 2.7; stroke-linecap: round"/>
   </g>
   <g id="line2d_14">
    <path d="M 184.155312 46.384209 
L 184.155312 38.168105 
" clip-path="url(#pb2fa250177)" style="fill: none; stroke: #424242; stroke-width: 2.7; stroke-linecap: round"/>
   </g>
   <g id="line2d_15">
    <path d="M 116.115313 67.843536 
L 116.115313 56.068483 
" clip-path="url(#pb2fa250177)" style="fill: none; stroke: #424242; stroke-width: 2.7; stroke-linecap: round"/>
   </g>
   <g id="line2d_16">
    <path d="M 197.115313 47.142342 
L 197.115313 39.647912 
" clip-path="url(#pb2fa250177)" style="fill: none; stroke: #424242; stroke-width: 2.7; stroke-linecap: round"/>
   </g>
   <g id="patch_13">
    <path d="M 49.695313 138.935625 
L 49.695313 21.935625 
" style="fill: none; stroke: #262626; stroke-width: 1.25; stroke-linejoin: miter; stroke-linecap: square"/>
   </g>
   <g id="patch_14">
    <path d="M 211.695312 138.935625 
L 211.695312 21.935625 
" style="fill: none; stroke: #262626; stroke-width: 1.25; stroke-linejoin: miter; stroke-linecap: square"/>
   </g>
   <g id="patch_15">
    <path d="M 49.695312 138.935625 
L 211.695312 138.935625 
" style="fill: none; stroke: #262626; stroke-width: 1.25; stroke-linejoin: miter; stroke-linecap: square"/>
   </g>
   <g id="patch_16">
    <path d="M 49.695312 21.935625 
L 211.695312 21.935625 
" style="fill: none; stroke: #262626; stroke-width: 1.25; stroke-linejoin: miter; stroke-linecap: square"/>
   </g>
   <g id="PathCollection_1">
    <defs>
     <path id="C0_0_361a5a3211" d="M 0 2.5 
C 0.663008 2.5 1.29895 2.236584 1.767767 1.767767 
C 2.236584 1.29895 2.5 0.663008 2.5 -0 
C 2.5 -0.663008 2.236584 -1.29895 1.767767 -1.767767 
C 1.29895 -2.236584 0.663008 -2.5 0 -2.5 
C -0.663008 -2.5 -1.29895 -2.236584 -1.767767 -1.767767 
C -2.236584 -1.29895 -2.5 -0.663008 -2.5 0 
C -2.5 0.663008 -2.236584 1.29895 -1.767767 1.767767 
C -1.29895 2.236584 -0.663008 2.5 0 2.5 
z
"/>
    </defs>
    <g clip-path="url(#pb2fa250177)">
     <use xlink:href="#C0_0_361a5a3211" x="64.644968" y="127.004773" style="fill: #ffffff; stroke: #000000; stroke-width: 0.4"/>
    </g>
    <g clip-path="url(#pb2fa250177)">
     <use xlink:href="#C0_0_361a5a3211" x="63.329621" y="122.703328" style="fill: #ffffff; stroke: #000000; stroke-width: 0.4"/>
    </g>
    <g clip-path="url(#pb2fa250177)">
     <use xlink:href="#C0_0_361a5a3211" x="63.16828" y="122.611262" style="fill: #ffffff; stroke: #000000; stroke-width: 0.4"/>
    </g>
   </g>
   <g id="PathCollection_2">
    <defs>
     <path id="C1_0_3cc2d96555" d="M 0 2.5 
C 0.663008 2.5 1.29895 2.236584 1.767767 1.767767 
C 2.236584 1.29895 2.5 0.663008 2.5 -0 
C 2.5 -0.663008 2.236584 -1.29895 1.767767 -1.767767 
C 1.29895 -2.236584 0.663008 -2.5 0 -2.5 
C -0.663008 -2.5 -1.29895 -2.236584 -1.767767 -1.767767 
C -2.236584 -1.29895 -2.5 -0.663008 -2.5 0 
C -2.5 0.663008 -2.236584 1.29895 -1.767767 1.767767 
C -1.29895 2.236584 -0.663008 2.5 0 2.5 
z
"/>
    </defs>
    <g clip-path="url(#pb2fa250177)">
     <use xlink:href="#C1_0_3cc2d96555" x="77.391062" y="108.582512" style="fill: #ffffff; stroke: #000000; stroke-width: 0.4"/>
    </g>
    <g clip-path="url(#pb2fa250177)">
     <use xlink:href="#C1_0_3cc2d96555" x="76.092172" y="112.237986" style="fill: #ffffff; stroke: #000000; stroke-width: 0.4"/>
    </g>
    <g clip-path="url(#pb2fa250177)">
     <use xlink:href="#C1_0_3cc2d96555" x="77.511096" y="111.647858" style="fill: #ffffff; stroke: #000000; stroke-width: 0.4"/>
    </g>
   </g>
   <g id="PathCollection_3">
    <defs>
     <path id="C2_0_9e802f0b38" d="M 0 2.5 
C 0.663008 2.5 1.29895 2.236584 1.767767 1.767767 
C 2.236584 1.29895 2.5 0.663008 2.5 -0 
C 2.5 -0.663008 2.236584 -1.29895 1.767767 -1.767767 
C 1.29895 -2.236584 0.663008 -2.5 0 -2.5 
C -0.663008 -2.5 -1.29895 -2.236584 -1.767767 -1.767767 
C -2.236584 -1.29895 -2.5 -0.663008 -2.5 0 
C -2.5 0.663008 -2.236584 1.29895 -1.767767 1.767767 
C -1.29895 2.236584 -0.663008 2.5 0 2.5 
z
"/>
    </defs>
    <g clip-path="url(#pb2fa250177)">
     <use xlink:href="#C2_0_9e802f0b38" x="89.690699" y="97.789656" style="fill: #ffffff; stroke: #000000; stroke-width: 0.4"/>
    </g>
    <g clip-path="url(#pb2fa250177)">
     <use xlink:href="#C2_0_9e802f0b38" x="89.872692" y="99.898119" style="fill: #ffffff; stroke: #000000; stroke-width: 0.4"/>
    </g>
    <g clip-path="url(#pb2fa250177)">
     <use xlink:href="#C2_0_9e802f0b38" x="90.145525" y="93.362941" style="fill: #ffffff; stroke: #000000; stroke-width: 0.4"/>
    </g>
   </g>
   <g id="PathCollection_4">
    <defs>
     <path id="C3_0_d569531aa9" d="M 0 2.5 
C 0.663008 2.5 1.29895 2.236584 1.767767 1.767767 
C 2.236584 1.29895 2.5 0.663008 2.5 -0 
C 2.5 -0.663008 2.236584 -1.29895 1.767767 -1.767767 
C 1.29895 -2.236584 0.663008 -2.5 0 -2.5 
C -0.663008 -2.5 -1.29895 -2.236584 -1.767767 -1.767767 
C -2.236584 -1.29895 -2.5 -0.663008 -2.5 0 
C -2.5 0.663008 -2.236584 1.29895 -1.767767 1.767767 
C -1.29895 2.236584 -0.663008 2.5 0 2.5 
z
"/>
    </defs>
    <g clip-path="url(#pb2fa250177)">
     <use xlink:href="#C3_0_d569531aa9" x="103.942276" y="58.002039" style="fill: #ffffff; stroke: #000000; stroke-width: 0.4"/>
    </g>
    <g clip-path="url(#pb2fa250177)">
     <use xlink:href="#C3_0_d569531aa9" x="104.521239" y="57.173445" style="fill: #ffffff; stroke: #000000; stroke-width: 0.4"/>
    </g>
    <g clip-path="url(#pb2fa250177)">
     <use xlink:href="#C3_0_d569531aa9" x="104.119737" y="54.791802" style="fill: #ffffff; stroke: #000000; stroke-width: 0.4"/>
    </g>
   </g>
   <g id="PathCollection_5">
    <defs>
     <path id="C4_0_849de8eabf" d="M 0 2.5 
C 0.663008 2.5 1.29895 2.236584 1.767767 1.767767 
C 2.236584 1.29895 2.5 0.663008 2.5 -0 
C 2.5 -0.663008 2.236584 -1.29895 1.767767 -1.767767 
C 1.29895 -2.236584 0.663008 -2.5 0 -2.5 
C -0.663008 -2.5 -1.29895 -2.236584 -1.767767 -1.767767 
C -2.236584 -1.29895 -2.5 -0.663008 -2.5 0 
C -2.5 0.663008 -2.236584 1.29895 -1.767767 1.767767 
C -1.29895 2.236584 -0.663008 2.5 0 2.5 
z
"/>
    </defs>
    <g clip-path="url(#pb2fa250177)">
     <use xlink:href="#C4_0_849de8eabf" x="117.591141" y="46.58887" style="fill: #ffffff; stroke: #000000; stroke-width: 0.4"/>
    </g>
    <g clip-path="url(#pb2fa250177)">
     <use xlink:href="#C4_0_849de8eabf" x="115.262759" y="49.516872" style="fill: #ffffff; stroke: #000000; stroke-width: 0.4"/>
    </g>
    <g clip-path="url(#pb2fa250177)">
     <use xlink:href="#C4_0_849de8eabf" x="116.620455" y="46.729233" style="fill: #ffffff; stroke: #000000; stroke-width: 0.4"/>
    </g>
   </g>
   <g id="PathCollection_6">
    <defs>
     <path id="C5_0_cee43970fe" d="M 0 2.5 
C 0.663008 2.5 1.29895 2.236584 1.767767 1.767767 
C 2.236584 1.29895 2.5 0.663008 2.5 -0 
C 2.5 -0.663008 2.236584 -1.29895 1.767767 -1.767767 
C 1.29895 -2.236584 0.663008 -2.5 0 -2.5 
C -0.663008 -2.5 -1.29895 -2.236584 -1.767767 -1.767767 
C -2.236584 -1.29895 -2.5 -0.663008 -2.5 0 
C -2.5 0.663008 -2.236584 1.29895 -1.767767 1.767767 
C -1.29895 2.236584 -0.663008 2.5 0 2.5 
z
"/>
    </defs>
    <g clip-path="url(#pb2fa250177)">
     <use xlink:href="#C5_0_cee43970fe" x="146.236623" y="81.475858" style="fill: #ffffff; stroke: #000000; stroke-width: 0.4"/>
    </g>
    <g clip-path="url(#pb2fa250177)">
     <use xlink:href="#C5_0_cee43970fe" x="143.936823" y="74.54072" style="fill: #ffffff; stroke: #000000; stroke-width: 0.4"/>
    </g>
    <g clip-path="url(#pb2fa250177)">
     <use xlink:href="#C5_0_cee43970fe" x="145.424542" y="86.068594" style="fill: #ffffff; stroke: #000000; stroke-width: 0.4"/>
    </g>
   </g>
   <g id="PathCollection_7">
    <defs>
     <path id="C6_0_5d2dff17a5" d="M 0 2.5 
C 0.663008 2.5 1.29895 2.236584 1.767767 1.767767 
C 2.236584 1.29895 2.5 0.663008 2.5 -0 
C 2.5 -0.663008 2.236584 -1.29895 1.767767 -1.767767 
C 1.29895 -2.236584 0.663008 -2.5 0 -2.5 
C -0.663008 -2.5 -1.29895 -2.236584 -1.767767 -1.767767 
C -2.236584 -1.29895 -2.5 -0.663008 -2.5 0 
C -2.5 0.663008 -2.236584 1.29895 -1.767767 1.767767 
C -1.29895 2.236584 -0.663008 2.5 0 2.5 
z
"/>
    </defs>
    <g clip-path="url(#pb2fa250177)">
     <use xlink:href="#C6_0_5d2dff17a5" x="159.086787" y="52.180749" style="fill: #ffffff; stroke: #000000; stroke-width: 0.4"/>
    </g>
    <g clip-path="url(#pb2fa250177)">
     <use xlink:href="#C6_0_5d2dff17a5" x="156.73947" y="36.565747" style="fill: #ffffff; stroke: #000000; stroke-width: 0.4"/>
    </g>
    <g clip-path="url(#pb2fa250177)">
     <use xlink:href="#C6_0_5d2dff17a5" x="156.954511" y="40.18198" style="fill: #ffffff; stroke: #000000; stroke-width: 0.4"/>
    </g>
   </g>
   <g id="PathCollection_8">
    <defs>
     <path id="C7_0_6df5613ad0" d="M 0 2.5 
C 0.663008 2.5 1.29895 2.236584 1.767767 1.767767 
C 2.236584 1.29895 2.5 0.663008 2.5 -0 
C 2.5 -0.663008 2.236584 -1.29895 1.767767 -1.767767 
C 1.29895 -2.236584 0.663008 -2.5 0 -2.5 
C -0.663008 -2.5 -1.29895 -2.236584 -1.767767 -1.767767 
C -2.236584 -1.29895 -2.5 -0.663008 -2.5 0 
C -2.5 0.663008 -2.236584 1.29895 -1.767767 1.767767 
C -1.29895 2.236584 -0.663008 2.5 0 2.5 
z
"/>
    </defs>
    <g clip-path="url(#pb2fa250177)">
     <use xlink:href="#C7_0_6df5613ad0" x="170.935734" y="28.762774" style="fill: #ffffff; stroke: #000000; stroke-width: 0.4"/>
    </g>
    <g clip-path="url(#pb2fa250177)">
     <use xlink:href="#C7_0_6df5613ad0" x="170.790973" y="31.248557" style="fill: #ffffff; stroke: #000000; stroke-width: 0.4"/>
    </g>
    <g clip-path="url(#pb2fa250177)">
     <use xlink:href="#C7_0_6df5613ad0" x="169.77053" y="29.538543" style="fill: #ffffff; stroke: #000000; stroke-width: 0.4"/>
    </g>
   </g>
   <g id="PathCollection_9">
    <defs>
     <path id="C8_0_19c6bff790" d="M 0 2.5 
C 0.663008 2.5 1.29895 2.236584 1.767767 1.767767 
C 2.236584 1.29895 2.5 0.663008 2.5 -0 
C 2.5 -0.663008 2.236584 -1.29895 1.767767 -1.767767 
C 1.29895 -2.236584 0.663008 -2.5 0 -2.5 
C -0.663008 -2.5 -1.29895 -2.236584 -1.767767 -1.767767 
C -2.236584 -1.29895 -2.5 -0.663008 -2.5 0 
C -2.5 0.663008 -2.236584 1.29895 -1.767767 1.767767 
C -1.29895 2.236584 -0.663008 2.5 0 2.5 
z
"/>
    </defs>
    <g clip-path="url(#pb2fa250177)">
     <use xlink:href="#C8_0_19c6bff790" x="183.070963" y="27.507054" style="fill: #ffffff; stroke: #000000; stroke-width: 0.4"/>
    </g>
    <g clip-path="url(#pb2fa250177)">
     <use xlink:href="#C8_0_19c6bff790" x="183.967388" y="33.989408" style="fill: #ffffff; stroke: #000000; stroke-width: 0.4"/>
    </g>
    <g clip-path="url(#pb2fa250177)">
     <use xlink:href="#C8_0_19c6bff790" x="185.333316" y="35.421714" style="fill: #ffffff; stroke: #000000; stroke-width: 0.4"/>
    </g>
   </g>
   <g id="PathCollection_10">
    <defs>
     <path id="C9_0_b557b4ec5e" d="M 0 2.5 
C 0.663008 2.5 1.29895 2.236584 1.767767 1.767767 
C 2.236584 1.29895 2.5 0.663008 2.5 -0 
C 2.5 -0.663008 2.236584 -1.29895 1.767767 -1.767767 
C 1.29895 -2.236584 0.663008 -2.5 0 -2.5 
C -0.663008 -2.5 -1.29895 -2.236584 -1.767767 -1.767767 
C -2.236584 -1.29895 -2.5 -0.663008 -2.5 0 
C -2.5 0.663008 -2.236584 1.29895 -1.767767 1.767767 
C -1.29895 2.236584 -0.663008 2.5 0 2.5 
z
"/>
    </defs>
    <g clip-path="url(#pb2fa250177)">
     <use xlink:href="#C9_0_b557b4ec5e" x="197.052519" y="39.087753" style="fill: #ffffff; stroke: #000000; stroke-width: 0.4"/>
    </g>
    <g clip-path="url(#pb2fa250177)">
     <use xlink:href="#C9_0_b557b4ec5e" x="196.083626" y="35.015717" style="fill: #ffffff; stroke: #000000; stroke-width: 0.4"/>
    </g>
    <g clip-path="url(#pb2fa250177)">
     <use xlink:href="#C9_0_b557b4ec5e" x="197.41419" y="31.755674" style="fill: #ffffff; stroke: #000000; stroke-width: 0.4"/>
    </g>
   </g>
   <g id="PathCollection_11">
    <path d="M 63.503883 88.319805 
L 61.003883 93.319805 
L 66.003883 93.319805 
z
" clip-path="url(#pb2fa250177)" style="fill: #ffffff; stroke: #000000; stroke-width: 0.4"/>
    <path d="M 65.723166 81.230721 
L 63.223166 86.230721 
L 68.223166 86.230721 
z
" clip-path="url(#pb2fa250177)" style="fill: #ffffff; stroke: #000000; stroke-width: 0.4"/>
    <path d="M 62.955431 85.752521 
L 60.455431 90.752521 
L 65.455431 90.752521 
z
" clip-path="url(#pb2fa250177)" style="fill: #ffffff; stroke: #000000; stroke-width: 0.4"/>
   </g>
   <g id="PathCollection_12">
    <path d="M 77.018483 53.185296 
L 74.518483 58.185296 
L 79.518483 58.185296 
z
" clip-path="url(#pb2fa250177)" style="fill: #ffffff; stroke: #000000; stroke-width: 0.4"/>
    <path d="M 77.454607 65.297261 
L 74.954607 70.297261 
L 79.954607 70.297261 
z
" clip-path="url(#pb2fa250177)" style="fill: #ffffff; stroke: #000000; stroke-width: 0.4"/>
    <path d="M 78.393442 65.836074 
L 75.893442 70.836074 
L 80.893442 70.836074 
z
" clip-path="url(#pb2fa250177)" style="fill: #ffffff; stroke: #000000; stroke-width: 0.4"/>
   </g>
   <g id="PathCollection_13">
    <path d="M 91.041659 62.296814 
L 88.541659 67.296814 
L 93.541659 67.296814 
z
" clip-path="url(#pb2fa250177)" style="fill: #ffffff; stroke: #000000; stroke-width: 0.4"/>
    <path d="M 89.111749 67.242722 
L 86.611749 72.242722 
L 91.611749 72.242722 
z
" clip-path="url(#pb2fa250177)" style="fill: #ffffff; stroke: #000000; stroke-width: 0.4"/>
    <path d="M 89.344467 59.640483 
L 86.844467 64.640483 
L 91.844467 64.640483 
z
" clip-path="url(#pb2fa250177)" style="fill: #ffffff; stroke: #000000; stroke-width: 0.4"/>
   </g>
   <g id="PathCollection_14">
    <path d="M 103.553849 57.415805 
L 101.053849 62.415805 
L 106.053849 62.415805 
z
" clip-path="url(#pb2fa250177)" style="fill: #ffffff; stroke: #000000; stroke-width: 0.4"/>
    <path d="M 102.648865 61.878744 
L 100.148865 66.878744 
L 105.148865 66.878744 
z
" clip-path="url(#pb2fa250177)" style="fill: #ffffff; stroke: #000000; stroke-width: 0.4"/>
    <path d="M 104.393327 68.937642 
L 101.893327 73.937642 
L 106.893327 73.937642 
z
" clip-path="url(#pb2fa250177)" style="fill: #ffffff; stroke: #000000; stroke-width: 0.4"/>
   </g>
   <g id="PathCollection_15">
    <path d="M 117.574247 57.015846 
L 115.074247 62.015846 
L 120.074247 62.015846 
z
" clip-path="url(#pb2fa250177)" style="fill: #ffffff; stroke: #000000; stroke-width: 0.4"/>
    <path d="M 114.635373 57.661818 
L 112.135373 62.661818 
L 117.135373 62.661818 
z
" clip-path="url(#pb2fa250177)" style="fill: #ffffff; stroke: #000000; stroke-width: 0.4"/>
    <path d="M 115.222484 57.127533 
L 112.722484 62.127533 
L 117.722484 62.127533 
z
" clip-path="url(#pb2fa250177)" style="fill: #ffffff; stroke: #000000; stroke-width: 0.4"/>
   </g>
   <g id="PathCollection_16">
    <path d="M 145.936685 43.044449 
L 143.436685 48.044449 
L 148.436685 48.044449 
z
" clip-path="url(#pb2fa250177)" style="fill: #ffffff; stroke: #000000; stroke-width: 0.4"/>
    <path d="M 143.978131 39.636497 
L 141.478131 44.636497 
L 146.478131 44.636497 
z
" clip-path="url(#pb2fa250177)" style="fill: #ffffff; stroke: #000000; stroke-width: 0.4"/>
    <path d="M 144.317382 65.350086 
L 141.817382 70.350086 
L 146.817382 70.350086 
z
" clip-path="url(#pb2fa250177)" style="fill: #ffffff; stroke: #000000; stroke-width: 0.4"/>
   </g>
   <g id="PathCollection_17">
    <path d="M 158.726335 38.856199 
L 156.226335 43.856199 
L 161.226335 43.856199 
z
" clip-path="url(#pb2fa250177)" style="fill: #ffffff; stroke: #000000; stroke-width: 0.4"/>
    <path d="M 156.885377 41.773636 
L 154.385377 46.773636 
L 159.385377 46.773636 
z
" clip-path="url(#pb2fa250177)" style="fill: #ffffff; stroke: #000000; stroke-width: 0.4"/>
    <path d="M 156.801258 39.819119 
L 154.301258 44.819119 
L 159.301258 44.819119 
z
" clip-path="url(#pb2fa250177)" style="fill: #ffffff; stroke: #000000; stroke-width: 0.4"/>
   </g>
   <g id="PathCollection_18">
    <path d="M 170.598359 41.13672 
L 168.098359 46.13672 
L 173.098359 46.13672 
z
" clip-path="url(#pb2fa250177)" style="fill: #ffffff; stroke: #000000; stroke-width: 0.4"/>
    <path d="M 171.667271 48.877813 
L 169.167271 53.877813 
L 174.167271 53.877813 
z
" clip-path="url(#pb2fa250177)" style="fill: #ffffff; stroke: #000000; stroke-width: 0.4"/>
    <path d="M 171.878856 45.611733 
L 169.378856 50.611733 
L 174.378856 50.611733 
z
" clip-path="url(#pb2fa250177)" style="fill: #ffffff; stroke: #000000; stroke-width: 0.4"/>
   </g>
   <g id="PathCollection_19">
    <path d="M 184.242985 46.553523 
L 181.742985 51.553523 
L 186.742985 51.553523 
z
" clip-path="url(#pb2fa250177)" style="fill: #ffffff; stroke: #000000; stroke-width: 0.4"/>
    <path d="M 184.946125 43.500251 
L 182.446125 48.500251 
L 187.446125 48.500251 
z
" clip-path="url(#pb2fa250177)" style="fill: #ffffff; stroke: #000000; stroke-width: 0.4"/>
    <path d="M 183.541583 38.83356 
L 181.041583 43.83356 
L 186.041583 43.83356 
z
" clip-path="url(#pb2fa250177)" style="fill: #ffffff; stroke: #000000; stroke-width: 0.4"/>
   </g>
   <g id="PathCollection_20">
    <path d="M 198.155191 34.566828 
L 195.655191 39.566828 
L 200.655191 39.566828 
z
" clip-path="url(#pb2fa250177)" style="fill: #ffffff; stroke: #000000; stroke-width: 0.4"/>
    <path d="M 197.364625 47.783585 
L 194.864625 52.783585 
L 199.864625 52.783585 
z
" clip-path="url(#pb2fa250177)" style="fill: #ffffff; stroke: #000000; stroke-width: 0.4"/>
    <path d="M 197.294309 41.068802 
L 194.794309 46.068802 
L 199.794309 46.068802 
z
" clip-path="url(#pb2fa250177)" style="fill: #ffffff; stroke: #000000; stroke-width: 0.4"/>
   </g>
   <g id="PathCollection_21">
    <path d="M 62.036092 126.26586 
L 67.036092 126.26586 
L 67.036092 121.26586 
L 62.036092 121.26586 
z
" clip-path="url(#pb2fa250177)" style="fill: #ffffff; stroke: #000000; stroke-width: 0.4"/>
    <path d="M 60.955034 129.898695 
L 65.955034 129.898695 
L 65.955034 124.898695 
L 60.955034 124.898695 
z
" clip-path="url(#pb2fa250177)" style="fill: #ffffff; stroke: #000000; stroke-width: 0.4"/>
    <path d="M 60.8672 126.637143 
L 65.8672 126.637143 
L 65.8672 121.637143 
L 60.8672 121.637143 
z
" clip-path="url(#pb2fa250177)" style="fill: #ffffff; stroke: #000000; stroke-width: 0.4"/>
   </g>
   <g id="PathCollection_22">
    <path d="M 74.802496 102.579233 
L 79.802496 102.579233 
L 79.802496 97.579233 
L 74.802496 97.579233 
z
" clip-path="url(#pb2fa250177)" style="fill: #ffffff; stroke: #000000; stroke-width: 0.4"/>
    <path d="M 75.476739 114.632336 
L 80.476739 114.632336 
L 80.476739 109.632336 
L 75.476739 109.632336 
z
" clip-path="url(#pb2fa250177)" style="fill: #ffffff; stroke: #000000; stroke-width: 0.4"/>
    <path d="M 74.986993 111.873374 
L 79.986993 111.873374 
L 79.986993 106.873374 
L 74.986993 106.873374 
z
" clip-path="url(#pb2fa250177)" style="fill: #ffffff; stroke: #000000; stroke-width: 0.4"/>
   </g>
   <g id="PathCollection_23">
    <path d="M 86.403974 96.090842 
L 91.403974 96.090842 
L 91.403974 91.090842 
L 86.403974 91.090842 
z
" clip-path="url(#pb2fa250177)" style="fill: #ffffff; stroke: #000000; stroke-width: 0.4"/>
    <path d="M 87.066273 93.182461 
L 92.066273 93.182461 
L 92.066273 88.182461 
L 87.066273 88.182461 
z
" clip-path="url(#pb2fa250177)" style="fill: #ffffff; stroke: #000000; stroke-width: 0.4"/>
    <path d="M 88.509177 90.829495 
L 93.509177 90.829495 
L 93.509177 85.829495 
L 88.509177 85.829495 
z
" clip-path="url(#pb2fa250177)" style="fill: #ffffff; stroke: #000000; stroke-width: 0.4"/>
   </g>
   <g id="PathCollection_24">
    <path d="M 100.477519 73.664463 
L 105.477519 73.664463 
L 105.477519 68.664463 
L 100.477519 68.664463 
z
" clip-path="url(#pb2fa250177)" style="fill: #ffffff; stroke: #000000; stroke-width: 0.4"/>
    <path d="M 101.881312 83.082365 
L 106.881312 83.082365 
L 106.881312 78.082365 
L 101.881312 78.082365 
z
" clip-path="url(#pb2fa250177)" style="fill: #ffffff; stroke: #000000; stroke-width: 0.4"/>
    <path d="M 100.817847 85.803595 
L 105.817847 85.803595 
L 105.817847 80.803595 
L 100.817847 80.803595 
z
" clip-path="url(#pb2fa250177)" style="fill: #ffffff; stroke: #000000; stroke-width: 0.4"/>
   </g>
   <g id="PathCollection_25">
    <path d="M 114.712669 75.003193 
L 119.712669 75.003193 
L 119.712669 70.003193 
L 114.712669 70.003193 
z
" clip-path="url(#pb2fa250177)" style="fill: #ffffff; stroke: #000000; stroke-width: 0.4"/>
    <path d="M 114.208661 69.159264 
L 119.208661 69.159264 
L 119.208661 64.159264 
L 114.208661 64.159264 
z
" clip-path="url(#pb2fa250177)" style="fill: #ffffff; stroke: #000000; stroke-width: 0.4"/>
    <path d="M 113.272236 68.151066 
L 118.272236 68.151066 
L 118.272236 63.151066 
L 113.272236 63.151066 
z
" clip-path="url(#pb2fa250177)" style="fill: #ffffff; stroke: #000000; stroke-width: 0.4"/>
   </g>
   <g id="PathCollection_26">
    <path d="M 141.849777 58.681848 
L 146.849777 58.681848 
L 146.849777 53.681848 
L 141.849777 53.681848 
z
" clip-path="url(#pb2fa250177)" style="fill: #ffffff; stroke: #000000; stroke-width: 0.4"/>
    <path d="M 141.186899 48.243674 
L 146.186899 48.243674 
L 146.186899 43.243674 
L 141.186899 43.243674 
z
" clip-path="url(#pb2fa250177)" style="fill: #ffffff; stroke: #000000; stroke-width: 0.4"/>
    <path d="M 143.508719 55.960618 
L 148.508719 55.960618 
L 148.508719 50.960618 
L 143.508719 50.960618 
z
" clip-path="url(#pb2fa250177)" style="fill: #ffffff; stroke: #000000; stroke-width: 0.4"/>
   </g>
   <g id="PathCollection_27">
    <path d="M 157.221892 34.791469 
L 162.221892 34.791469 
L 162.221892 29.791469 
L 157.221892 29.791469 
z
" clip-path="url(#pb2fa250177)" style="fill: #ffffff; stroke: #000000; stroke-width: 0.4"/>
    <path d="M 154.583257 43.208718 
L 159.583257 43.208718 
L 159.583257 38.208718 
L 154.583257 38.208718 
z
" clip-path="url(#pb2fa250177)" style="fill: #ffffff; stroke: #000000; stroke-width: 0.4"/>
    <path d="M 157.066906 44.625932 
L 162.066906 44.625932 
L 162.066906 39.625932 
L 157.066906 39.625932 
z
" clip-path="url(#pb2fa250177)" style="fill: #ffffff; stroke: #000000; stroke-width: 0.4"/>
   </g>
   <g id="PathCollection_28">
    <path d="M 167.476221 40.564461 
L 172.476221 40.564461 
L 172.476221 35.564461 
L 167.476221 35.564461 
z
" clip-path="url(#pb2fa250177)" style="fill: #ffffff; stroke: #000000; stroke-width: 0.4"/>
    <path d="M 168.816062 41.281369 
L 173.816062 41.281369 
L 173.816062 36.281369 
L 168.816062 36.281369 
z
" clip-path="url(#pb2fa250177)" style="fill: #ffffff; stroke: #000000; stroke-width: 0.4"/>
    <path d="M 167.122857 41.243637 
L 172.122857 41.243637 
L 172.122857 36.243637 
L 167.122857 36.243637 
z
" clip-path="url(#pb2fa250177)" style="fill: #ffffff; stroke: #000000; stroke-width: 0.4"/>
   </g>
   <g id="PathCollection_29">
    <path d="M 183.031314 45.533008 
L 188.031314 45.533008 
L 188.031314 40.533008 
L 183.031314 40.533008 
z
" clip-path="url(#pb2fa250177)" style="fill: #ffffff; stroke: #000000; stroke-width: 0.4"/>
    <path d="M 181.724881 54.230984 
L 186.724881 54.230984 
L 186.724881 49.230984 
L 181.724881 49.230984 
z
" clip-path="url(#pb2fa250177)" style="fill: #ffffff; stroke: #000000; stroke-width: 0.4"/>
    <path d="M 181.509232 46.316324 
L 186.509232 46.316324 
L 186.509232 41.316324 
L 181.509232 41.316324 
z
" clip-path="url(#pb2fa250177)" style="fill: #ffffff; stroke: #000000; stroke-width: 0.4"/>
   </g>
   <g id="PathCollection_30">
    <path d="M 193.981737 55.604428 
L 198.981737 55.604428 
L 198.981737 50.604428 
L 193.981737 50.604428 
z
" clip-path="url(#pb2fa250177)" style="fill: #ffffff; stroke: #000000; stroke-width: 0.4"/>
    <path d="M 194.635069 47.208308 
L 199.635069 47.208308 
L 199.635069 42.208308 
L 194.635069 42.208308 
z
" clip-path="url(#pb2fa250177)" style="fill: #ffffff; stroke: #000000; stroke-width: 0.4"/>
    <path d="M 195.596207 50.299312 
L 200.596207 50.299312 
L 200.596207 45.299312 
L 195.596207 45.299312 
z
" clip-path="url(#pb2fa250177)" style="fill: #ffffff; stroke: #000000; stroke-width: 0.4"/>
   </g>
   <g id="PathCollection_31">
    <path d="M 64.708229 102.239813 
L 68.243763 98.70428 
L 64.708229 95.168746 
L 61.172695 98.70428 
z
" clip-path="url(#pb2fa250177)" style="fill: #ffffff; stroke: #000000; stroke-width: 0.4"/>
    <path d="M 65.597532 100.217379 
L 69.133066 96.681846 
L 65.597532 93.146312 
L 62.061998 96.681846 
z
" clip-path="url(#pb2fa250177)" style="fill: #ffffff; stroke: #000000; stroke-width: 0.4"/>
    <path d="M 64.989373 53.957973 
L 68.524907 50.422439 
L 64.989373 46.886905 
L 61.453839 50.422439 
z
" clip-path="url(#pb2fa250177)" style="fill: #ffffff; stroke: #000000; stroke-width: 0.4"/>
   </g>
   <g id="PathCollection_32">
    <path d="M 77.358369 74.743766 
L 80.893903 71.208232 
L 77.358369 67.672698 
L 73.822835 71.208232 
z
" clip-path="url(#pb2fa250177)" style="fill: #ffffff; stroke: #000000; stroke-width: 0.4"/>
    <path d="M 78.27615 76.47189 
L 81.811684 72.936356 
L 78.27615 69.400823 
L 74.740616 72.936356 
z
" clip-path="url(#pb2fa250177)" style="fill: #ffffff; stroke: #000000; stroke-width: 0.4"/>
    <path d="M 77.167794 68.697593 
L 80.703328 65.162059 
L 77.167794 61.626526 
L 73.632261 65.162059 
z
" clip-path="url(#pb2fa250177)" style="fill: #ffffff; stroke: #000000; stroke-width: 0.4"/>
   </g>
   <g id="PathCollection_33">
    <path d="M 91.325549 74.141563 
L 94.861083 70.606029 
L 91.325549 67.070495 
L 87.790015 70.606029 
z
" clip-path="url(#pb2fa250177)" style="fill: #ffffff; stroke: #000000; stroke-width: 0.4"/>
    <path d="M 89.711447 72.715294 
L 93.24698 69.179761 
L 89.711447 65.644227 
L 86.175913 69.179761 
z
" clip-path="url(#pb2fa250177)" style="fill: #ffffff; stroke: #000000; stroke-width: 0.4"/>
    <path d="M 89.310635 78.236238 
L 92.846169 74.700704 
L 89.310635 71.16517 
L 85.775101 74.700704 
z
" clip-path="url(#pb2fa250177)" style="fill: #ffffff; stroke: #000000; stroke-width: 0.4"/>
   </g>
   <g id="PathCollection_34">
    <path d="M 103.728585 69.628819 
L 107.264119 66.093285 
L 103.728585 62.557751 
L 100.193051 66.093285 
z
" clip-path="url(#pb2fa250177)" style="fill: #ffffff; stroke: #000000; stroke-width: 0.4"/>
    <path d="M 103.164477 79.359141 
L 106.700011 75.823607 
L 103.164477 72.288074 
L 99.628943 75.823607 
z
" clip-path="url(#pb2fa250177)" style="fill: #ffffff; stroke: #000000; stroke-width: 0.4"/>
    <path d="M 103.959224 73.062429 
L 107.494758 69.526895 
L 103.959224 65.991361 
L 100.42369 69.526895 
z
" clip-path="url(#pb2fa250177)" style="fill: #ffffff; stroke: #000000; stroke-width: 0.4"/>
   </g>
   <g id="PathCollection_35">
    <path d="M 117.701776 74.490207 
L 121.23731 70.954673 
L 117.701776 67.419139 
L 114.166242 70.954673 
z
" clip-path="url(#pb2fa250177)" style="fill: #ffffff; stroke: #000000; stroke-width: 0.4"/>
    <path d="M 117.341816 79.187084 
L 120.87735 75.65155 
L 117.341816 72.116016 
L 113.806282 75.65155 
z
" clip-path="url(#pb2fa250177)" style="fill: #ffffff; stroke: #000000; stroke-width: 0.4"/>
    <path d="M 114.786154 78.355471 
L 118.321688 74.819937 
L 114.786154 71.284403 
L 111.25062 74.819937 
z
" clip-path="url(#pb2fa250177)" style="fill: #ffffff; stroke: #000000; stroke-width: 0.4"/>
   </g>
   <g id="PathCollection_36">
    <path d="M 144.408748 62.412955 
L 147.944282 58.877421 
L 144.408748 55.341887 
L 140.873214 58.877421 
z
" clip-path="url(#pb2fa250177)" style="fill: #ffffff; stroke: #000000; stroke-width: 0.4"/>
    <path d="M 144.378299 65.353031 
L 147.913833 61.817497 
L 144.378299 58.281963 
L 140.842765 61.817497 
z
" clip-path="url(#pb2fa250177)" style="fill: #ffffff; stroke: #000000; stroke-width: 0.4"/>
    <path d="M 144.281314 58.440532 
L 147.816848 54.904998 
L 144.281314 51.369464 
L 140.74578 54.904998 
z
" clip-path="url(#pb2fa250177)" style="fill: #ffffff; stroke: #000000; stroke-width: 0.4"/>
   </g>
   <g id="PathCollection_37">
    <path d="M 159.772459 45.899932 
L 163.307993 42.364398 
L 159.772459 38.828864 
L 156.236925 42.364398 
z
" clip-path="url(#pb2fa250177)" style="fill: #ffffff; stroke: #000000; stroke-width: 0.4"/>
    <path d="M 156.856847 50.448899 
L 160.392381 46.913365 
L 156.856847 43.377831 
L 153.321313 46.913365 
z
" clip-path="url(#pb2fa250177)" style="fill: #ffffff; stroke: #000000; stroke-width: 0.4"/>
    <path d="M 159.703889 48.01896 
L 163.239422 44.483426 
L 159.703889 40.947892 
L 156.168355 44.483426 
z
" clip-path="url(#pb2fa250177)" style="fill: #ffffff; stroke: #000000; stroke-width: 0.4"/>
   </g>
   <g id="PathCollection_38">
    <path d="M 172.80546 48.052164 
L 176.340994 44.51663 
L 172.80546 40.981096 
L 169.269926 44.51663 
z
" clip-path="url(#pb2fa250177)" style="fill: #ffffff; stroke: #000000; stroke-width: 0.4"/>
    <path d="M 170.910857 51.739333 
L 174.446391 48.203799 
L 170.910857 44.668265 
L 167.375323 48.203799 
z
" clip-path="url(#pb2fa250177)" style="fill: #ffffff; stroke: #000000; stroke-width: 0.4"/>
    <path d="M 169.844194 47.581269 
L 173.379728 44.045735 
L 169.844194 40.510201 
L 166.30866 44.045735 
z
" clip-path="url(#pb2fa250177)" style="fill: #ffffff; stroke: #000000; stroke-width: 0.4"/>
   </g>
   <g id="PathCollection_39">
    <path d="M 185.010533 49.06489 
L 188.546067 45.529356 
L 185.010533 41.993822 
L 181.474999 45.529356 
z
" clip-path="url(#pb2fa250177)" style="fill: #ffffff; stroke: #000000; stroke-width: 0.4"/>
    <path d="M 184.632967 55.020506 
L 188.1685 51.484972 
L 184.632967 47.949438 
L 181.097433 51.484972 
z
" clip-path="url(#pb2fa250177)" style="fill: #ffffff; stroke: #000000; stroke-width: 0.4"/>
    <path d="M 185.028168 43.198322 
L 188.563702 39.662788 
L 185.028168 36.127254 
L 181.492634 39.662788 
z
" clip-path="url(#pb2fa250177)" style="fill: #ffffff; stroke: #000000; stroke-width: 0.4"/>
   </g>
   <g id="PathCollection_40">
    <path d="M 198.683546 52.178533 
L 202.21908 48.642999 
L 198.683546 45.107465 
L 195.148012 48.642999 
z
" clip-path="url(#pb2fa250177)" style="fill: #ffffff; stroke: #000000; stroke-width: 0.4"/>
    <path d="M 197.532238 53.591218 
L 201.067772 50.055684 
L 197.532238 46.52015 
L 193.996704 50.055684 
z
" clip-path="url(#pb2fa250177)" style="fill: #ffffff; stroke: #000000; stroke-width: 0.4"/>
    <path d="M 197.199643 45.303766 
L 200.735177 41.768232 
L 197.199643 38.232698 
L 193.664109 41.768232 
z
" clip-path="url(#pb2fa250177)" style="fill: #ffffff; stroke: #000000; stroke-width: 0.4"/>
   </g>
   <g id="text_8">
    <!-- Single Cells Count at 14dpi -->
    <g style="fill: #262626" transform="translate(58.32125 15.935625) scale(0.12 -0.12)">
     <defs>
      <path id="ArialMT-61" d="M 2588 409 
Q 2275 144 1986 34 
Q 1697 -75 1366 -75 
Q 819 -75 525 192 
Q 231 459 231 875 
Q 231 1119 342 1320 
Q 453 1522 633 1644 
Q 813 1766 1038 1828 
Q 1203 1872 1538 1913 
Q 2219 1994 2541 2106 
Q 2544 2222 2544 2253 
Q 2544 2597 2384 2738 
Q 2169 2928 1744 2928 
Q 1347 2928 1158 2789 
Q 969 2650 878 2297 
L 328 2372 
Q 403 2725 575 2942 
Q 747 3159 1072 3276 
Q 1397 3394 1825 3394 
Q 2250 3394 2515 3294 
Q 2781 3194 2906 3042 
Q 3031 2891 3081 2659 
Q 3109 2516 3109 2141 
L 3109 1391 
Q 3109 606 3145 398 
Q 3181 191 3288 0 
L 2700 0 
Q 2613 175 2588 409 
z
M 2541 1666 
Q 2234 1541 1622 1453 
Q 1275 1403 1131 1340 
Q 988 1278 909 1158 
Q 831 1038 831 891 
Q 831 666 1001 516 
Q 1172 366 1500 366 
Q 1825 366 2078 508 
Q 2331 650 2450 897 
Q 2541 1088 2541 1459 
L 2541 1666 
z
" transform="scale(0.015625)"/>
      <path id="ArialMT-31" d="M 2384 0 
L 1822 0 
L 1822 3584 
Q 1619 3391 1289 3197 
Q 959 3003 697 2906 
L 697 3450 
Q 1169 3672 1522 3987 
Q 1875 4303 2022 4600 
L 2384 4600 
L 2384 0 
z
" transform="scale(0.015625)"/>
      <path id="ArialMT-64" d="M 2575 0 
L 2575 419 
Q 2259 -75 1647 -75 
Q 1250 -75 917 144 
Q 584 363 401 755 
Q 219 1147 219 1656 
Q 219 2153 384 2558 
Q 550 2963 881 3178 
Q 1213 3394 1622 3394 
Q 1922 3394 2156 3267 
Q 2391 3141 2538 2938 
L 2538 4581 
L 3097 4581 
L 3097 0 
L 2575 0 
z
M 797 1656 
Q 797 1019 1065 703 
Q 1334 388 1700 388 
Q 2069 388 2326 689 
Q 2584 991 2584 1609 
Q 2584 2291 2321 2609 
Q 2059 2928 1675 2928 
Q 1300 2928 1048 2622 
Q 797 2316 797 1656 
z
" transform="scale(0.015625)"/>
      <path id="ArialMT-70" d="M 422 -1272 
L 422 3319 
L 934 3319 
L 934 2888 
Q 1116 3141 1344 3267 
Q 1572 3394 1897 3394 
Q 2322 3394 2647 3175 
Q 2972 2956 3137 2557 
Q 3303 2159 3303 1684 
Q 3303 1175 3120 767 
Q 2938 359 2589 142 
Q 2241 -75 1856 -75 
Q 1575 -75 1351 44 
Q 1128 163 984 344 
L 984 -1272 
L 422 -1272 
z
M 931 1641 
Q 931 1000 1190 694 
Q 1450 388 1819 388 
Q 2194 388 2461 705 
Q 2728 1022 2728 1688 
Q 2728 2322 2467 2637 
Q 2206 2953 1844 2953 
Q 1484 2953 1207 2617 
Q 931 2281 931 1641 
z
" transform="scale(0.015625)"/>
     </defs>
     <use xlink:href="#ArialMT-53"/>
     <use xlink:href="#ArialMT-69" transform="translate(66.699219 0)"/>
     <use xlink:href="#ArialMT-6e" transform="translate(88.916016 0)"/>
     <use xlink:href="#ArialMT-67" transform="translate(144.53125 0)"/>
     <use xlink:href="#ArialMT-6c" transform="translate(200.146484 0)"/>
     <use xlink:href="#ArialMT-65" transform="translate(222.363281 0)"/>
     <use xlink:href="#ArialMT-20" transform="translate(277.978516 0)"/>
     <use xlink:href="#ArialMT-43" transform="translate(305.761719 0)"/>
     <use xlink:href="#ArialMT-65" transform="translate(377.978516 0)"/>
     <use xlink:href="#ArialMT-6c" transform="translate(433.59375 0)"/>
     <use xlink:href="#ArialMT-6c" transform="translate(455.810547 0)"/>
     <use xlink:href="#ArialMT-73" transform="translate(478.027344 0)"/>
     <use xlink:href="#ArialMT-20" transform="translate(528.027344 0)"/>
     <use xlink:href="#ArialMT-43" transform="translate(555.810547 0)"/>
     <use xlink:href="#ArialMT-6f" transform="translate(628.027344 0)"/>
     <use xlink:href="#ArialMT-75" transform="translate(683.642578 0)"/>
     <use xlink:href="#ArialMT-6e" transform="translate(739.257812 0)"/>
     <use xlink:href="#ArialMT-74" transform="translate(794.873047 0)"/>
     <use xlink:href="#ArialMT-20" transform="translate(822.65625 0)"/>
     <use xlink:href="#ArialMT-61" transform="translate(850.439453 0)"/>
     <use xlink:href="#ArialMT-74" transform="translate(906.054688 0)"/>
     <use xlink:href="#ArialMT-20" transform="translate(933.837891 0)"/>
     <use xlink:href="#ArialMT-31" transform="translate(961.621094 0)"/>
     <use xlink:href="#ArialMT-34" transform="translate(1017.236328 0)"/>
     <use xlink:href="#ArialMT-64" transform="translate(1072.851562 0)"/>
     <use xlink:href="#ArialMT-70" transform="translate(1128.466797 0)"/>
     <use xlink:href="#ArialMT-69" transform="translate(1184.082031 0)"/>
    </g>
   </g>
   <g id="legend_1">
    <g id="patch_17">
     <path d="M 224.195312 34.209219 
L 246.195312 34.209219 
L 246.195312 26.509219 
L 224.195312 26.509219 
z
" style="fill: #2f1b55; opacity: 0.8; stroke: #ffffff; stroke-linejoin: miter"/>
    </g>
    <g id="text_9">
     <!-- 1 -->
     <g style="fill: #262626" transform="translate(254.995313 34.209219) scale(0.11 -0.11)">
      <use xlink:href="#ArialMT-31"/>
     </g>
    </g>
    <g id="patch_18">
     <path d="M 224.195312 49.769062 
L 246.195312 49.769062 
L 246.195312 42.069062 
L 224.195312 42.069062 
z
" style="fill: #692c75; opacity: 0.8; stroke: #ffffff; stroke-linejoin: miter"/>
    </g>
    <g id="text_10">
     <!-- 5 -->
     <g style="fill: #262626" transform="translate(254.995313 49.769062) scale(0.11 -0.11)">
      <defs>
       <path id="ArialMT-35" d="M 266 1200 
L 856 1250 
Q 922 819 1161 601 
Q 1400 384 1738 384 
Q 2144 384 2425 690 
Q 2706 997 2706 1503 
Q 2706 1984 2436 2262 
Q 2166 2541 1728 2541 
Q 1456 2541 1237 2417 
Q 1019 2294 894 2097 
L 366 2166 
L 809 4519 
L 3088 4519 
L 3088 3981 
L 1259 3981 
L 1013 2750 
Q 1425 3038 1878 3038 
Q 2478 3038 2890 2622 
Q 3303 2206 3303 1553 
Q 3303 931 2941 478 
Q 2500 -78 1738 -78 
Q 1113 -78 717 272 
Q 322 622 266 1200 
z
" transform="scale(0.015625)"/>
      </defs>
      <use xlink:href="#ArialMT-35"/>
     </g>
    </g>
    <g id="patch_19">
     <path d="M 224.195312 65.328906 
L 246.195312 65.328906 
L 246.195312 57.628906 
L 224.195312 57.628906 
z
" style="fill: #a74779; opacity: 0.8; stroke: #ffffff; stroke-linejoin: miter"/>
    </g>
    <g id="text_11">
     <!-- 10 -->
     <g style="fill: #262626" transform="translate(254.995313 65.328906) scale(0.11 -0.11)">
      <use xlink:href="#ArialMT-31"/>
      <use xlink:href="#ArialMT-30" transform="translate(55.615234 0)"/>
     </g>
    </g>
    <g id="patch_20">
     <path d="M 224.195312 80.88875 
L 246.195312 80.88875 
L 246.195312 73.18875 
L 224.195312 73.18875 
z
" style="fill: #de7270; opacity: 0.8; stroke: #ffffff; stroke-linejoin: miter"/>
    </g>
    <g id="text_12">
     <!-- 15 -->
     <g style="fill: #262626" transform="translate(254.995313 80.88875) scale(0.11 -0.11)">
      <use xlink:href="#ArialMT-31"/>
      <use xlink:href="#ArialMT-35" transform="translate(55.615234 0)"/>
     </g>
    </g>
    <g id="patch_21">
     <path d="M 224.195312 96.448594 
L 246.195312 96.448594 
L 246.195312 88.748594 
L 224.195312 88.748594 
z
" style="fill: #eeb389; opacity: 0.8; stroke: #ffffff; stroke-linejoin: miter"/>
    </g>
    <g id="text_13">
     <!-- 20 -->
     <g style="fill: #262626" transform="translate(254.995313 96.448594) scale(0.11 -0.11)">
      <use xlink:href="#ArialMT-32"/>
      <use xlink:href="#ArialMT-30" transform="translate(55.615234 0)"/>
     </g>
    </g>
   </g>
  </g>
 </g>
 <defs>
  <clipPath id="pb2fa250177">
   <rect x="49.695313" y="21.935625" width="162" height="117"/>
  </clipPath>
 </defs>
</svg>
