<?xml version="1.0" encoding="utf-8" standalone="no"?>
<!DOCTYPE svg PUBLIC "-//W3C//DTD SVG 1.1//EN"
  "http://www.w3.org/Graphics/SVG/1.1/DTD/svg11.dtd">
<svg xmlns:xlink="http://www.w3.org/1999/xlink" width="278.829375pt" height="177.330031pt" viewBox="0 0 278.829375 177.330031" xmlns="http://www.w3.org/2000/svg" version="1.1">
 <metadata>
  <rdf:RDF xmlns:dc="http://purl.org/dc/elements/1.1/" xmlns:cc="http://creativecommons.org/ns#" xmlns:rdf="http://www.w3.org/1999/02/22-rdf-syntax-ns#">
   <cc:Work>
    <dc:type rdf:resource="http://purl.org/dc/dcmitype/StillImage"/>
    <dc:date>2025-07-28T16:54:57.848803</dc:date>
    <dc:format>image/svg+xml</dc:format>
    <dc:creator>
     <cc:Agent>
      <dc:title>Matplotlib v3.10.3, https://matplotlib.org/</dc:title>
     </cc:Agent>
    </dc:creator>
   </cc:Work>
  </rdf:RDF>
 </metadata>
 <defs>
  <style type="text/css">*{stroke-linejoin: round; stroke-linecap: butt}</style>
 </defs>
 <g id="figure_1">
  <g id="patch_1">
   <path d="M 0 177.330031 
L 278.829375 177.330031 
L 278.829375 0 
L 0 0 
z
" style="fill: #ffffff"/>
  </g>
  <g id="axes_1">
   <g id="patch_2">
    <path d="M 49.695313 138.935625 
L 211.695312 138.935625 
L 211.695312 21.935625 
L 49.695313 21.935625 
z
" style="fill: #ffffff"/>
   </g>
   <g id="matplotlib.axis_1">
    <g id="xtick_1">
     <g id="line2d_1">
      <defs>
       <path id="meeb1d56be6" d="M 0 0 
L 0 6 
" style="stroke: #262626; stroke-width: 1.25"/>
      </defs>
      <g>
       <use xlink:href="#meeb1d56be6" x="90.195312" y="138.935625" style="fill: #262626; stroke: #262626; stroke-width: 1.25"/>
      </g>
     </g>
     <g id="text_1">
      <!-- NIL -->
      <g style="fill: #262626" transform="translate(81.636797 156.309219) scale(0.11 -0.11)">
       <defs>
        <path id="ArialMT-4e" d="M 488 0 
L 488 4581 
L 1109 4581 
L 3516 984 
L 3516 4581 
L 4097 4581 
L 4097 0 
L 3475 0 
L 1069 3600 
L 1069 0 
L 488 0 
z
" transform="scale(0.015625)"/>
        <path id="ArialMT-49" d="M 597 0 
L 597 4581 
L 1203 4581 
L 1203 0 
L 597 0 
z
" transform="scale(0.015625)"/>
        <path id="ArialMT-4c" d="M 469 0 
L 469 4581 
L 1075 4581 
L 1075 541 
L 3331 541 
L 3331 0 
L 469 0 
z
" transform="scale(0.015625)"/>
       </defs>
       <use xlink:href="#ArialMT-4e"/>
       <use xlink:href="#ArialMT-49" transform="translate(72.216797 0)"/>
       <use xlink:href="#ArialMT-4c" transform="translate(100 0)"/>
      </g>
      <!-- DD -->
      <g style="fill: #262626" transform="translate(82.25125 167.943781) scale(0.11 -0.11)">
       <defs>
        <path id="ArialMT-44" d="M 494 0 
L 494 4581 
L 2072 4581 
Q 2606 4581 2888 4516 
Q 3281 4425 3559 4188 
Q 3922 3881 4101 3404 
Q 4281 2928 4281 2316 
Q 4281 1794 4159 1391 
Q 4038 988 3847 723 
Q 3656 459 3429 307 
Q 3203 156 2883 78 
Q 2563 0 2147 0 
L 494 0 
z
M 1100 541 
L 2078 541 
Q 2531 541 2789 625 
Q 3047 709 3200 863 
Q 3416 1078 3536 1442 
Q 3656 1806 3656 2325 
Q 3656 3044 3420 3430 
Q 3184 3816 2847 3947 
Q 2603 4041 2063 4041 
L 1100 4041 
L 1100 541 
z
" transform="scale(0.015625)"/>
       </defs>
       <use xlink:href="#ArialMT-44"/>
       <use xlink:href="#ArialMT-44" transform="translate(72.216797 0)"/>
      </g>
     </g>
    </g>
    <g id="xtick_2">
     <g id="line2d_2">
      <g>
       <use xlink:href="#meeb1d56be6" x="171.195312" y="138.935625" style="fill: #262626; stroke: #262626; stroke-width: 1.25"/>
      </g>
     </g>
     <g id="text_2">
      <!-- NIL -->
      <g style="fill: #262626" transform="translate(162.636797 156.309219) scale(0.11 -0.11)">
       <use xlink:href="#ArialMT-4e"/>
       <use xlink:href="#ArialMT-49" transform="translate(72.216797 0)"/>
       <use xlink:href="#ArialMT-4c" transform="translate(100 0)"/>
      </g>
      <!-- SNAP-DD -->
      <g style="fill: #262626" transform="translate(146.441875 167.943781) scale(0.11 -0.11)">
       <defs>
        <path id="ArialMT-53" d="M 288 1472 
L 859 1522 
Q 900 1178 1048 958 
Q 1197 738 1509 602 
Q 1822 466 2213 466 
Q 2559 466 2825 569 
Q 3091 672 3220 851 
Q 3350 1031 3350 1244 
Q 3350 1459 3225 1620 
Q 3100 1781 2813 1891 
Q 2628 1963 1997 2114 
Q 1366 2266 1113 2400 
Q 784 2572 623 2826 
Q 463 3081 463 3397 
Q 463 3744 659 4045 
Q 856 4347 1234 4503 
Q 1613 4659 2075 4659 
Q 2584 4659 2973 4495 
Q 3363 4331 3572 4012 
Q 3781 3694 3797 3291 
L 3216 3247 
Q 3169 3681 2898 3903 
Q 2628 4125 2100 4125 
Q 1550 4125 1298 3923 
Q 1047 3722 1047 3438 
Q 1047 3191 1225 3031 
Q 1400 2872 2139 2705 
Q 2878 2538 3153 2413 
Q 3553 2228 3743 1945 
Q 3934 1663 3934 1294 
Q 3934 928 3725 604 
Q 3516 281 3123 101 
Q 2731 -78 2241 -78 
Q 1619 -78 1198 103 
Q 778 284 539 648 
Q 300 1013 288 1472 
z
" transform="scale(0.015625)"/>
        <path id="ArialMT-41" d="M -9 0 
L 1750 4581 
L 2403 4581 
L 4278 0 
L 3588 0 
L 3053 1388 
L 1138 1388 
L 634 0 
L -9 0 
z
M 1313 1881 
L 2866 1881 
L 2388 3150 
Q 2169 3728 2063 4100 
Q 1975 3659 1816 3225 
L 1313 1881 
z
" transform="scale(0.015625)"/>
        <path id="ArialMT-50" d="M 494 0 
L 494 4581 
L 2222 4581 
Q 2678 4581 2919 4538 
Q 3256 4481 3484 4323 
Q 3713 4166 3852 3881 
Q 3991 3597 3991 3256 
Q 3991 2672 3619 2267 
Q 3247 1863 2275 1863 
L 1100 1863 
L 1100 0 
L 494 0 
z
M 1100 2403 
L 2284 2403 
Q 2872 2403 3119 2622 
Q 3366 2841 3366 3238 
Q 3366 3525 3220 3729 
Q 3075 3934 2838 4000 
Q 2684 4041 2272 4041 
L 1100 4041 
L 1100 2403 
z
" transform="scale(0.015625)"/>
        <path id="ArialMT-2d" d="M 203 1375 
L 203 1941 
L 1931 1941 
L 1931 1375 
L 203 1375 
z
" transform="scale(0.015625)"/>
       </defs>
       <use xlink:href="#ArialMT-53"/>
       <use xlink:href="#ArialMT-4e" transform="translate(66.699219 0)"/>
       <use xlink:href="#ArialMT-41" transform="translate(138.916016 0)"/>
       <use xlink:href="#ArialMT-50" transform="translate(205.615234 0)"/>
       <use xlink:href="#ArialMT-2d" transform="translate(272.314453 0)"/>
       <use xlink:href="#ArialMT-44" transform="translate(305.615234 0)"/>
       <use xlink:href="#ArialMT-44" transform="translate(377.832031 0)"/>
      </g>
     </g>
    </g>
   </g>
   <g id="matplotlib.axis_2">
    <g id="ytick_1">
     <g id="line2d_3">
      <defs>
       <path id="mbc52430f0c" d="M 0 0 
L -6 0 
" style="stroke: #262626; stroke-width: 1.25"/>
      </defs>
      <g>
       <use xlink:href="#mbc52430f0c" x="49.695313" y="138.935625" style="fill: #262626; stroke: #262626; stroke-width: 1.25"/>
      </g>
     </g>
     <g id="text_3">
      <!-- 0 -->
      <g style="fill: #262626" transform="translate(34.078281 142.872422) scale(0.11 -0.11)">
       <defs>
        <path id="ArialMT-30" d="M 266 2259 
Q 266 3072 433 3567 
Q 600 4063 929 4331 
Q 1259 4600 1759 4600 
Q 2128 4600 2406 4451 
Q 2684 4303 2865 4023 
Q 3047 3744 3150 3342 
Q 3253 2941 3253 2259 
Q 3253 1453 3087 958 
Q 2922 463 2592 192 
Q 2263 -78 1759 -78 
Q 1097 -78 719 397 
Q 266 969 266 2259 
z
M 844 2259 
Q 844 1131 1108 757 
Q 1372 384 1759 384 
Q 2147 384 2411 759 
Q 2675 1134 2675 2259 
Q 2675 3391 2411 3762 
Q 2147 4134 1753 4134 
Q 1366 4134 1134 3806 
Q 844 3388 844 2259 
z
" transform="scale(0.015625)"/>
       </defs>
       <use xlink:href="#ArialMT-30"/>
      </g>
     </g>
    </g>
    <g id="ytick_2">
     <g id="line2d_4">
      <g>
       <use xlink:href="#mbc52430f0c" x="49.695313" y="114.982279" style="fill: #262626; stroke: #262626; stroke-width: 1.25"/>
      </g>
     </g>
     <g id="text_4">
      <!-- 20k -->
      <g style="fill: #262626" transform="translate(22.46125 118.919076) scale(0.11 -0.11)">
       <defs>
        <path id="ArialMT-32" d="M 3222 541 
L 3222 0 
L 194 0 
Q 188 203 259 391 
Q 375 700 629 1000 
Q 884 1300 1366 1694 
Q 2113 2306 2375 2664 
Q 2638 3022 2638 3341 
Q 2638 3675 2398 3904 
Q 2159 4134 1775 4134 
Q 1369 4134 1125 3890 
Q 881 3647 878 3216 
L 300 3275 
Q 359 3922 746 4261 
Q 1134 4600 1788 4600 
Q 2447 4600 2831 4234 
Q 3216 3869 3216 3328 
Q 3216 3053 3103 2787 
Q 2991 2522 2730 2228 
Q 2469 1934 1863 1422 
Q 1356 997 1212 845 
Q 1069 694 975 541 
L 3222 541 
z
" transform="scale(0.015625)"/>
        <path id="ArialMT-6b" d="M 425 0 
L 425 4581 
L 988 4581 
L 988 1969 
L 2319 3319 
L 3047 3319 
L 1778 2088 
L 3175 0 
L 2481 0 
L 1384 1697 
L 988 1316 
L 988 0 
L 425 0 
z
" transform="scale(0.015625)"/>
       </defs>
       <use xlink:href="#ArialMT-32"/>
       <use xlink:href="#ArialMT-30" transform="translate(55.615234 0)"/>
       <use xlink:href="#ArialMT-6b" transform="translate(111.230469 0)"/>
      </g>
     </g>
    </g>
    <g id="ytick_3">
     <g id="line2d_5">
      <g>
       <use xlink:href="#mbc52430f0c" x="49.695313" y="91.028932" style="fill: #262626; stroke: #262626; stroke-width: 1.25"/>
      </g>
     </g>
     <g id="text_5">
      <!-- 40k -->
      <g style="fill: #262626" transform="translate(22.46125 94.965729) scale(0.11 -0.11)">
       <defs>
        <path id="ArialMT-34" d="M 2069 0 
L 2069 1097 
L 81 1097 
L 81 1613 
L 2172 4581 
L 2631 4581 
L 2631 1613 
L 3250 1613 
L 3250 1097 
L 2631 1097 
L 2631 0 
L 2069 0 
z
M 2069 1613 
L 2069 3678 
L 634 1613 
L 2069 1613 
z
" transform="scale(0.015625)"/>
       </defs>
       <use xlink:href="#ArialMT-34"/>
       <use xlink:href="#ArialMT-30" transform="translate(55.615234 0)"/>
       <use xlink:href="#ArialMT-6b" transform="translate(111.230469 0)"/>
      </g>
     </g>
    </g>
    <g id="ytick_4">
     <g id="line2d_6">
      <g>
       <use xlink:href="#mbc52430f0c" x="49.695313" y="67.075586" style="fill: #262626; stroke: #262626; stroke-width: 1.25"/>
      </g>
     </g>
     <g id="text_6">
      <!-- 60k -->
      <g style="fill: #262626" transform="translate(22.46125 71.012383) scale(0.11 -0.11)">
       <defs>
        <path id="ArialMT-36" d="M 3184 3459 
L 2625 3416 
Q 2550 3747 2413 3897 
Q 2184 4138 1850 4138 
Q 1581 4138 1378 3988 
Q 1113 3794 959 3422 
Q 806 3050 800 2363 
Q 1003 2672 1297 2822 
Q 1591 2972 1913 2972 
Q 2475 2972 2870 2558 
Q 3266 2144 3266 1488 
Q 3266 1056 3080 686 
Q 2894 316 2569 119 
Q 2244 -78 1831 -78 
Q 1128 -78 684 439 
Q 241 956 241 2144 
Q 241 3472 731 4075 
Q 1159 4600 1884 4600 
Q 2425 4600 2770 4297 
Q 3116 3994 3184 3459 
z
M 888 1484 
Q 888 1194 1011 928 
Q 1134 663 1356 523 
Q 1578 384 1822 384 
Q 2178 384 2434 671 
Q 2691 959 2691 1453 
Q 2691 1928 2437 2201 
Q 2184 2475 1800 2475 
Q 1419 2475 1153 2201 
Q 888 1928 888 1484 
z
" transform="scale(0.015625)"/>
       </defs>
       <use xlink:href="#ArialMT-36"/>
       <use xlink:href="#ArialMT-30" transform="translate(55.615234 0)"/>
       <use xlink:href="#ArialMT-6b" transform="translate(111.230469 0)"/>
      </g>
     </g>
    </g>
    <g id="ytick_5">
     <g id="line2d_7">
      <g>
       <use xlink:href="#mbc52430f0c" x="49.695313" y="43.12224" style="fill: #262626; stroke: #262626; stroke-width: 1.25"/>
      </g>
     </g>
     <g id="text_7">
      <!-- 80k -->
      <g style="fill: #262626" transform="translate(22.46125 47.059037) scale(0.11 -0.11)">
       <defs>
        <path id="ArialMT-38" d="M 1131 2484 
Q 781 2613 612 2850 
Q 444 3088 444 3419 
Q 444 3919 803 4259 
Q 1163 4600 1759 4600 
Q 2359 4600 2725 4251 
Q 3091 3903 3091 3403 
Q 3091 3084 2923 2848 
Q 2756 2613 2416 2484 
Q 2838 2347 3058 2040 
Q 3278 1734 3278 1309 
Q 3278 722 2862 322 
Q 2447 -78 1769 -78 
Q 1091 -78 675 323 
Q 259 725 259 1325 
Q 259 1772 486 2073 
Q 713 2375 1131 2484 
z
M 1019 3438 
Q 1019 3113 1228 2906 
Q 1438 2700 1772 2700 
Q 2097 2700 2305 2904 
Q 2513 3109 2513 3406 
Q 2513 3716 2298 3927 
Q 2084 4138 1766 4138 
Q 1444 4138 1231 3931 
Q 1019 3725 1019 3438 
z
M 838 1322 
Q 838 1081 952 856 
Q 1066 631 1291 507 
Q 1516 384 1775 384 
Q 2178 384 2440 643 
Q 2703 903 2703 1303 
Q 2703 1709 2433 1975 
Q 2163 2241 1756 2241 
Q 1359 2241 1098 1978 
Q 838 1716 838 1322 
z
" transform="scale(0.015625)"/>
       </defs>
       <use xlink:href="#ArialMT-38"/>
       <use xlink:href="#ArialMT-30" transform="translate(55.615234 0)"/>
       <use xlink:href="#ArialMT-6b" transform="translate(111.230469 0)"/>
      </g>
     </g>
    </g>
    <g id="text_8">
     <!-- Single Cells Count -->
     <g style="fill: #262626" transform="translate(15.935625 129.793125) rotate(-90) scale(0.12 -0.12)">
      <defs>
       <path id="ArialMT-69" d="M 425 3934 
L 425 4581 
L 988 4581 
L 988 3934 
L 425 3934 
z
M 425 0 
L 425 3319 
L 988 3319 
L 988 0 
L 425 0 
z
" transform="scale(0.015625)"/>
       <path id="ArialMT-6e" d="M 422 0 
L 422 3319 
L 928 3319 
L 928 2847 
Q 1294 3394 1984 3394 
Q 2284 3394 2536 3286 
Q 2788 3178 2913 3003 
Q 3038 2828 3088 2588 
Q 3119 2431 3119 2041 
L 3119 0 
L 2556 0 
L 2556 2019 
Q 2556 2363 2490 2533 
Q 2425 2703 2258 2804 
Q 2091 2906 1866 2906 
Q 1506 2906 1245 2678 
Q 984 2450 984 1813 
L 984 0 
L 422 0 
z
" transform="scale(0.015625)"/>
       <path id="ArialMT-67" d="M 319 -275 
L 866 -356 
Q 900 -609 1056 -725 
Q 1266 -881 1628 -881 
Q 2019 -881 2231 -725 
Q 2444 -569 2519 -288 
Q 2563 -116 2559 434 
Q 2191 0 1641 0 
Q 956 0 581 494 
Q 206 988 206 1678 
Q 206 2153 378 2554 
Q 550 2956 876 3175 
Q 1203 3394 1644 3394 
Q 2231 3394 2613 2919 
L 2613 3319 
L 3131 3319 
L 3131 450 
Q 3131 -325 2973 -648 
Q 2816 -972 2473 -1159 
Q 2131 -1347 1631 -1347 
Q 1038 -1347 672 -1080 
Q 306 -813 319 -275 
z
M 784 1719 
Q 784 1066 1043 766 
Q 1303 466 1694 466 
Q 2081 466 2343 764 
Q 2606 1063 2606 1700 
Q 2606 2309 2336 2618 
Q 2066 2928 1684 2928 
Q 1309 2928 1046 2623 
Q 784 2319 784 1719 
z
" transform="scale(0.015625)"/>
       <path id="ArialMT-6c" d="M 409 0 
L 409 4581 
L 972 4581 
L 972 0 
L 409 0 
z
" transform="scale(0.015625)"/>
       <path id="ArialMT-65" d="M 2694 1069 
L 3275 997 
Q 3138 488 2766 206 
Q 2394 -75 1816 -75 
Q 1088 -75 661 373 
Q 234 822 234 1631 
Q 234 2469 665 2931 
Q 1097 3394 1784 3394 
Q 2450 3394 2872 2941 
Q 3294 2488 3294 1666 
Q 3294 1616 3291 1516 
L 816 1516 
Q 847 969 1125 678 
Q 1403 388 1819 388 
Q 2128 388 2347 550 
Q 2566 713 2694 1069 
z
M 847 1978 
L 2700 1978 
Q 2663 2397 2488 2606 
Q 2219 2931 1791 2931 
Q 1403 2931 1139 2672 
Q 875 2413 847 1978 
z
" transform="scale(0.015625)"/>
       <path id="ArialMT-20" transform="scale(0.015625)"/>
       <path id="ArialMT-43" d="M 3763 1606 
L 4369 1453 
Q 4178 706 3683 314 
Q 3188 -78 2472 -78 
Q 1731 -78 1267 223 
Q 803 525 561 1097 
Q 319 1669 319 2325 
Q 319 3041 592 3573 
Q 866 4106 1370 4382 
Q 1875 4659 2481 4659 
Q 3169 4659 3637 4309 
Q 4106 3959 4291 3325 
L 3694 3184 
Q 3534 3684 3231 3912 
Q 2928 4141 2469 4141 
Q 1941 4141 1586 3887 
Q 1231 3634 1087 3207 
Q 944 2781 944 2328 
Q 944 1744 1114 1308 
Q 1284 872 1643 656 
Q 2003 441 2422 441 
Q 2931 441 3284 734 
Q 3638 1028 3763 1606 
z
" transform="scale(0.015625)"/>
       <path id="ArialMT-73" d="M 197 991 
L 753 1078 
Q 800 744 1014 566 
Q 1228 388 1613 388 
Q 2000 388 2187 545 
Q 2375 703 2375 916 
Q 2375 1106 2209 1216 
Q 2094 1291 1634 1406 
Q 1016 1563 777 1677 
Q 538 1791 414 1992 
Q 291 2194 291 2438 
Q 291 2659 392 2848 
Q 494 3038 669 3163 
Q 800 3259 1026 3326 
Q 1253 3394 1513 3394 
Q 1903 3394 2198 3281 
Q 2494 3169 2634 2976 
Q 2775 2784 2828 2463 
L 2278 2388 
Q 2241 2644 2061 2787 
Q 1881 2931 1553 2931 
Q 1166 2931 1000 2803 
Q 834 2675 834 2503 
Q 834 2394 903 2306 
Q 972 2216 1119 2156 
Q 1203 2125 1616 2013 
Q 2213 1853 2448 1751 
Q 2684 1650 2818 1456 
Q 2953 1263 2953 975 
Q 2953 694 2789 445 
Q 2625 197 2315 61 
Q 2006 -75 1616 -75 
Q 969 -75 630 194 
Q 291 463 197 991 
z
" transform="scale(0.015625)"/>
       <path id="ArialMT-6f" d="M 213 1659 
Q 213 2581 725 3025 
Q 1153 3394 1769 3394 
Q 2453 3394 2887 2945 
Q 3322 2497 3322 1706 
Q 3322 1066 3130 698 
Q 2938 331 2570 128 
Q 2203 -75 1769 -75 
Q 1072 -75 642 372 
Q 213 819 213 1659 
z
M 791 1659 
Q 791 1022 1069 705 
Q 1347 388 1769 388 
Q 2188 388 2466 706 
Q 2744 1025 2744 1678 
Q 2744 2294 2464 2611 
Q 2184 2928 1769 2928 
Q 1347 2928 1069 2612 
Q 791 2297 791 1659 
z
" transform="scale(0.015625)"/>
       <path id="ArialMT-75" d="M 2597 0 
L 2597 488 
Q 2209 -75 1544 -75 
Q 1250 -75 995 37 
Q 741 150 617 320 
Q 494 491 444 738 
Q 409 903 409 1263 
L 409 3319 
L 972 3319 
L 972 1478 
Q 972 1038 1006 884 
Q 1059 663 1231 536 
Q 1403 409 1656 409 
Q 1909 409 2131 539 
Q 2353 669 2445 892 
Q 2538 1116 2538 1541 
L 2538 3319 
L 3100 3319 
L 3100 0 
L 2597 0 
z
" transform="scale(0.015625)"/>
       <path id="ArialMT-74" d="M 1650 503 
L 1731 6 
Q 1494 -44 1306 -44 
Q 1000 -44 831 53 
Q 663 150 594 308 
Q 525 466 525 972 
L 525 2881 
L 113 2881 
L 113 3319 
L 525 3319 
L 525 4141 
L 1084 4478 
L 1084 3319 
L 1650 3319 
L 1650 2881 
L 1084 2881 
L 1084 941 
Q 1084 700 1114 631 
Q 1144 563 1211 522 
Q 1278 481 1403 481 
Q 1497 481 1650 503 
z
" transform="scale(0.015625)"/>
      </defs>
      <use xlink:href="#ArialMT-53"/>
      <use xlink:href="#ArialMT-69" transform="translate(66.699219 0)"/>
      <use xlink:href="#ArialMT-6e" transform="translate(88.916016 0)"/>
      <use xlink:href="#ArialMT-67" transform="translate(144.53125 0)"/>
      <use xlink:href="#ArialMT-6c" transform="translate(200.146484 0)"/>
      <use xlink:href="#ArialMT-65" transform="translate(222.363281 0)"/>
      <use xlink:href="#ArialMT-20" transform="translate(277.978516 0)"/>
      <use xlink:href="#ArialMT-43" transform="translate(305.761719 0)"/>
      <use xlink:href="#ArialMT-65" transform="translate(377.978516 0)"/>
      <use xlink:href="#ArialMT-6c" transform="translate(433.59375 0)"/>
      <use xlink:href="#ArialMT-6c" transform="translate(455.810547 0)"/>
      <use xlink:href="#ArialMT-73" transform="translate(478.027344 0)"/>
      <use xlink:href="#ArialMT-20" transform="translate(528.027344 0)"/>
      <use xlink:href="#ArialMT-43" transform="translate(555.810547 0)"/>
      <use xlink:href="#ArialMT-6f" transform="translate(628.027344 0)"/>
      <use xlink:href="#ArialMT-75" transform="translate(683.642578 0)"/>
      <use xlink:href="#ArialMT-6e" transform="translate(739.257812 0)"/>
      <use xlink:href="#ArialMT-74" transform="translate(794.873047 0)"/>
     </g>
    </g>
   </g>
   <g id="patch_3">
    <path d="M 57.795313 138.935625 
L 70.755313 138.935625 
L 70.755313 107.173987 
L 57.795313 107.173987 
z
" clip-path="url(#p07686d6095)" style="fill: #2f1b55; opacity: 0.8; stroke: #ffffff; stroke-linejoin: miter"/>
   </g>
   <g id="patch_4">
    <path d="M 138.795312 138.935625 
L 151.755313 138.935625 
L 151.755313 96.428017 
L 138.795312 96.428017 
z
" clip-path="url(#p07686d6095)" style="fill: #2f1b55; opacity: 0.8; stroke: #ffffff; stroke-linejoin: miter"/>
   </g>
   <g id="patch_5">
    <path d="M 70.755313 138.935625 
L 83.715313 138.935625 
L 83.715313 91.893748 
L 70.755313 91.893748 
z
" clip-path="url(#p07686d6095)" style="fill: #692c75; opacity: 0.8; stroke: #ffffff; stroke-linejoin: miter"/>
   </g>
   <g id="patch_6">
    <path d="M 151.755313 138.935625 
L 164.715313 138.935625 
L 164.715313 74.164579 
L 151.755313 74.164579 
z
" clip-path="url(#p07686d6095)" style="fill: #692c75; opacity: 0.8; stroke: #ffffff; stroke-linejoin: miter"/>
   </g>
   <g id="patch_7">
    <path d="M 83.715312 138.935625 
L 96.675312 138.935625 
L 96.675312 87.220151 
L 83.715312 87.220151 
z
" clip-path="url(#p07686d6095)" style="fill: #a74779; opacity: 0.8; stroke: #ffffff; stroke-linejoin: miter"/>
   </g>
   <g id="patch_8">
    <path d="M 164.715313 138.935625 
L 177.675313 138.935625 
L 177.675313 63.728805 
L 164.715313 63.728805 
z
" clip-path="url(#p07686d6095)" style="fill: #a74779; opacity: 0.8; stroke: #ffffff; stroke-linejoin: miter"/>
   </g>
   <g id="patch_9">
    <path d="M 96.675313 138.935625 
L 109.635312 138.935625 
L 109.635312 82.769419 
L 96.675313 82.769419 
z
" clip-path="url(#p07686d6095)" style="fill: #de7270; opacity: 0.8; stroke: #ffffff; stroke-linejoin: miter"/>
   </g>
   <g id="patch_10">
    <path d="M 177.675312 138.935625 
L 190.635312 138.935625 
L 190.635312 59.153416 
L 177.675312 59.153416 
z
" clip-path="url(#p07686d6095)" style="fill: #de7270; opacity: 0.8; stroke: #ffffff; stroke-linejoin: miter"/>
   </g>
   <g id="patch_11">
    <path d="M 109.635312 138.935625 
L 122.595313 138.935625 
L 122.595313 79.542904 
L 109.635312 79.542904 
z
" clip-path="url(#p07686d6095)" style="fill: #eeb389; opacity: 0.8; stroke: #ffffff; stroke-linejoin: miter"/>
   </g>
   <g id="patch_12">
    <path d="M 190.635312 138.935625 
L 203.595312 138.935625 
L 203.595312 55.955844 
L 190.635312 55.955844 
z
" clip-path="url(#p07686d6095)" style="fill: #eeb389; opacity: 0.8; stroke: #ffffff; stroke-linejoin: miter"/>
   </g>
   <g id="line2d_8">
    <path d="M 64.275312 117.669123 
L 64.275312 96.232702 
" clip-path="url(#p07686d6095)" style="fill: none; stroke: #424242; stroke-width: 2.7; stroke-linecap: round"/>
   </g>
   <g id="line2d_9">
    <path d="M 145.275312 105.97599 
L 145.275312 85.964307 
" clip-path="url(#p07686d6095)" style="fill: none; stroke: #424242; stroke-width: 2.7; stroke-linecap: round"/>
   </g>
   <g id="line2d_10">
    <path d="M 77.235312 107.079359 
L 77.235312 76.005825 
" clip-path="url(#p07686d6095)" style="fill: none; stroke: #424242; stroke-width: 2.7; stroke-linecap: round"/>
   </g>
   <g id="line2d_11">
    <path d="M 158.235312 89.039258 
L 158.235312 59.9127 
" clip-path="url(#p07686d6095)" style="fill: none; stroke: #424242; stroke-width: 2.7; stroke-linecap: round"/>
   </g>
   <g id="line2d_12">
    <path d="M 90.195312 102.782503 
L 90.195312 70.846462 
" clip-path="url(#p07686d6095)" style="fill: none; stroke: #424242; stroke-width: 2.7; stroke-linecap: round"/>
   </g>
   <g id="line2d_13">
    <path d="M 171.195312 76.606825 
L 171.195312 50.645332 
" clip-path="url(#p07686d6095)" style="fill: none; stroke: #424242; stroke-width: 2.7; stroke-linecap: round"/>
   </g>
   <g id="line2d_14">
    <path d="M 103.155312 98.322939 
L 103.155312 66.028823 
" clip-path="url(#p07686d6095)" style="fill: none; stroke: #424242; stroke-width: 2.7; stroke-linecap: round"/>
   </g>
   <g id="line2d_15">
    <path d="M 184.155312 71.648405 
L 184.155312 46.543656 
" clip-path="url(#p07686d6095)" style="fill: none; stroke: #424242; stroke-width: 2.7; stroke-linecap: round"/>
   </g>
   <g id="line2d_16">
    <path d="M 116.115313 93.085347 
L 116.115313 66.828877 
" clip-path="url(#p07686d6095)" style="fill: none; stroke: #424242; stroke-width: 2.7; stroke-linecap: round"/>
   </g>
   <g id="line2d_17">
    <path d="M 197.115313 67.193299 
L 197.115313 45.58273 
" clip-path="url(#p07686d6095)" style="fill: none; stroke: #424242; stroke-width: 2.7; stroke-linecap: round"/>
   </g>
   <g id="patch_13">
    <path d="M 49.695313 138.935625 
L 49.695313 21.935625 
" style="fill: none; stroke: #262626; stroke-width: 1.25; stroke-linejoin: miter; stroke-linecap: square"/>
   </g>
   <g id="patch_14">
    <path d="M 211.695312 138.935625 
L 211.695312 21.935625 
" style="fill: none; stroke: #262626; stroke-width: 1.25; stroke-linejoin: miter; stroke-linecap: square"/>
   </g>
   <g id="patch_15">
    <path d="M 49.695312 138.935625 
L 211.695312 138.935625 
" style="fill: none; stroke: #262626; stroke-width: 1.25; stroke-linejoin: miter; stroke-linecap: square"/>
   </g>
   <g id="patch_16">
    <path d="M 49.695312 21.935625 
L 211.695312 21.935625 
" style="fill: none; stroke: #262626; stroke-width: 1.25; stroke-linejoin: miter; stroke-linecap: square"/>
   </g>
   <g id="PathCollection_1">
    <defs>
     <path id="C0_0_ca5771f247" d="M 0 2.5 
C 0.663008 2.5 1.29895 2.236584 1.767767 1.767767 
C 2.236584 1.29895 2.5 0.663008 2.5 -0 
C 2.5 -0.663008 2.236584 -1.29895 1.767767 -1.767767 
C 1.29895 -2.236584 0.663008 -2.5 0 -2.5 
C -0.663008 -2.5 -1.29895 -2.236584 -1.767767 -1.767767 
C -2.236584 -1.29895 -2.5 -0.663008 -2.5 0 
C -2.5 0.663008 -2.236584 1.29895 -1.767767 1.767767 
C -1.29895 2.236584 -0.663008 2.5 0 2.5 
z
"/>
    </defs>
    <g clip-path="url(#p07686d6095)">
     <use xlink:href="#C0_0_ca5771f247" x="62.861716" y="124.076167" style="fill: #ffffff; stroke: #000000; stroke-width: 0.4"/>
    </g>
    <g clip-path="url(#p07686d6095)">
     <use xlink:href="#C0_0_ca5771f247" x="64.577029" y="122.859337" style="fill: #ffffff; stroke: #000000; stroke-width: 0.4"/>
    </g>
    <g clip-path="url(#p07686d6095)">
     <use xlink:href="#C0_0_ca5771f247" x="62.878832" y="122.338351" style="fill: #ffffff; stroke: #000000; stroke-width: 0.4"/>
    </g>
   </g>
   <g id="PathCollection_2">
    <defs>
     <path id="C1_0_83a7d75e01" d="M 0 2.5 
C 0.663008 2.5 1.29895 2.236584 1.767767 1.767767 
C 2.236584 1.29895 2.5 0.663008 2.5 -0 
C 2.5 -0.663008 2.236584 -1.29895 1.767767 -1.767767 
C 1.29895 -2.236584 0.663008 -2.5 0 -2.5 
C -0.663008 -2.5 -1.29895 -2.236584 -1.767767 -1.767767 
C -2.236584 -1.29895 -2.5 -0.663008 -2.5 0 
C -2.5 0.663008 -2.236584 1.29895 -1.767767 1.767767 
C -1.29895 2.236584 -0.663008 2.5 0 2.5 
z
"/>
    </defs>
    <g clip-path="url(#p07686d6095)">
     <use xlink:href="#C1_0_83a7d75e01" x="78.089162" y="119.764564" style="fill: #ffffff; stroke: #000000; stroke-width: 0.4"/>
    </g>
    <g clip-path="url(#p07686d6095)">
     <use xlink:href="#C1_0_83a7d75e01" x="78.574374" y="122.156306" style="fill: #ffffff; stroke: #000000; stroke-width: 0.4"/>
    </g>
    <g clip-path="url(#p07686d6095)">
     <use xlink:href="#C1_0_83a7d75e01" x="78.623664" y="118.958534" style="fill: #ffffff; stroke: #000000; stroke-width: 0.4"/>
    </g>
   </g>
   <g id="PathCollection_3">
    <defs>
     <path id="C2_0_c5025555f5" d="M 0 2.5 
C 0.663008 2.5 1.29895 2.236584 1.767767 1.767767 
C 2.236584 1.29895 2.5 0.663008 2.5 -0 
C 2.5 -0.663008 2.236584 -1.29895 1.767767 -1.767767 
C 1.29895 -2.236584 0.663008 -2.5 0 -2.5 
C -0.663008 -2.5 -1.29895 -2.236584 -1.767767 -1.767767 
C -2.236584 -1.29895 -2.5 -0.663008 -2.5 0 
C -2.5 0.663008 -2.236584 1.29895 -1.767767 1.767767 
C -1.29895 2.236584 -0.663008 2.5 0 2.5 
z
"/>
    </defs>
    <g clip-path="url(#p07686d6095)">
     <use xlink:href="#C2_0_c5025555f5" x="90.473438" y="117.835122" style="fill: #ffffff; stroke: #000000; stroke-width: 0.4"/>
    </g>
    <g clip-path="url(#p07686d6095)">
     <use xlink:href="#C2_0_c5025555f5" x="91.018413" y="118.019563" style="fill: #ffffff; stroke: #000000; stroke-width: 0.4"/>
    </g>
    <g clip-path="url(#p07686d6095)">
     <use xlink:href="#C2_0_c5025555f5" x="91.241192" y="116.009877" style="fill: #ffffff; stroke: #000000; stroke-width: 0.4"/>
    </g>
   </g>
   <g id="PathCollection_4">
    <defs>
     <path id="C3_0_fbd3a98cd2" d="M 0 2.5 
C 0.663008 2.5 1.29895 2.236584 1.767767 1.767767 
C 2.236584 1.29895 2.5 0.663008 2.5 -0 
C 2.5 -0.663008 2.236584 -1.29895 1.767767 -1.767767 
C 1.29895 -2.236584 0.663008 -2.5 0 -2.5 
C -0.663008 -2.5 -1.29895 -2.236584 -1.767767 -1.767767 
C -2.236584 -1.29895 -2.5 -0.663008 -2.5 0 
C -2.5 0.663008 -2.236584 1.29895 -1.767767 1.767767 
C -1.29895 2.236584 -0.663008 2.5 0 2.5 
z
"/>
    </defs>
    <g clip-path="url(#p07686d6095)">
     <use xlink:href="#C3_0_fbd3a98cd2" x="102.67944" y="112.792943" style="fill: #ffffff; stroke: #000000; stroke-width: 0.4"/>
    </g>
    <g clip-path="url(#p07686d6095)">
     <use xlink:href="#C3_0_fbd3a98cd2" x="102.264919" y="115.61824" style="fill: #ffffff; stroke: #000000; stroke-width: 0.4"/>
    </g>
    <g clip-path="url(#p07686d6095)">
     <use xlink:href="#C3_0_fbd3a98cd2" x="103.196953" y="109.009512" style="fill: #ffffff; stroke: #000000; stroke-width: 0.4"/>
    </g>
   </g>
   <g id="PathCollection_5">
    <defs>
     <path id="C4_0_4045c8d182" d="M 0 2.5 
C 0.663008 2.5 1.29895 2.236584 1.767767 1.767767 
C 2.236584 1.29895 2.5 0.663008 2.5 -0 
C 2.5 -0.663008 2.236584 -1.29895 1.767767 -1.767767 
C 1.29895 -2.236584 0.663008 -2.5 0 -2.5 
C -0.663008 -2.5 -1.29895 -2.236584 -1.767767 -1.767767 
C -2.236584 -1.29895 -2.5 -0.663008 -2.5 0 
C -2.5 0.663008 -2.236584 1.29895 -1.767767 1.767767 
C -1.29895 2.236584 -0.663008 2.5 0 2.5 
z
"/>
    </defs>
    <g clip-path="url(#p07686d6095)">
     <use xlink:href="#C4_0_4045c8d182" x="117.231073" y="100.101262" style="fill: #ffffff; stroke: #000000; stroke-width: 0.4"/>
    </g>
    <g clip-path="url(#p07686d6095)">
     <use xlink:href="#C4_0_4045c8d182" x="115.17337" y="99.382662" style="fill: #ffffff; stroke: #000000; stroke-width: 0.4"/>
    </g>
    <g clip-path="url(#p07686d6095)">
     <use xlink:href="#C4_0_4045c8d182" x="114.702887" y="98.429319" style="fill: #ffffff; stroke: #000000; stroke-width: 0.4"/>
    </g>
   </g>
   <g id="PathCollection_6">
    <defs>
     <path id="C5_0_81ff5c2633" d="M 0 2.5 
C 0.663008 2.5 1.29895 2.236584 1.767767 1.767767 
C 2.236584 1.29895 2.5 0.663008 2.5 -0 
C 2.5 -0.663008 2.236584 -1.29895 1.767767 -1.767767 
C 1.29895 -2.236584 0.663008 -2.5 0 -2.5 
C -0.663008 -2.5 -1.29895 -2.236584 -1.767767 -1.767767 
C -2.236584 -1.29895 -2.5 -0.663008 -2.5 0 
C -2.5 0.663008 -2.236584 1.29895 -1.767767 1.767767 
C -1.29895 2.236584 -0.663008 2.5 0 2.5 
z
"/>
    </defs>
    <g clip-path="url(#p07686d6095)">
     <use xlink:href="#C5_0_81ff5c2633" x="145.601142" y="108.138808" style="fill: #ffffff; stroke: #000000; stroke-width: 0.4"/>
    </g>
    <g clip-path="url(#p07686d6095)">
     <use xlink:href="#C5_0_81ff5c2633" x="145.297245" y="111.282684" style="fill: #ffffff; stroke: #000000; stroke-width: 0.4"/>
    </g>
    <g clip-path="url(#p07686d6095)">
     <use xlink:href="#C5_0_81ff5c2633" x="144.89395" y="112.870791" style="fill: #ffffff; stroke: #000000; stroke-width: 0.4"/>
    </g>
   </g>
   <g id="PathCollection_7">
    <defs>
     <path id="C6_0_1fd1facf25" d="M 0 2.5 
C 0.663008 2.5 1.29895 2.236584 1.767767 1.767767 
C 2.236584 1.29895 2.5 0.663008 2.5 -0 
C 2.5 -0.663008 2.236584 -1.29895 1.767767 -1.767767 
C 1.29895 -2.236584 0.663008 -2.5 0 -2.5 
C -0.663008 -2.5 -1.29895 -2.236584 -1.767767 -1.767767 
C -2.236584 -1.29895 -2.5 -0.663008 -2.5 0 
C -2.5 0.663008 -2.236584 1.29895 -1.767767 1.767767 
C -1.29895 2.236584 -0.663008 2.5 0 2.5 
z
"/>
    </defs>
    <g clip-path="url(#p07686d6095)">
     <use xlink:href="#C6_0_1fd1facf25" x="158.87985" y="112.242016" style="fill: #ffffff; stroke: #000000; stroke-width: 0.4"/>
    </g>
    <g clip-path="url(#p07686d6095)">
     <use xlink:href="#C6_0_1fd1facf25" x="159.58643" y="107.722019" style="fill: #ffffff; stroke: #000000; stroke-width: 0.4"/>
    </g>
    <g clip-path="url(#p07686d6095)">
     <use xlink:href="#C6_0_1fd1facf25" x="159.29128" y="103.697857" style="fill: #ffffff; stroke: #000000; stroke-width: 0.4"/>
    </g>
   </g>
   <g id="PathCollection_8">
    <defs>
     <path id="C7_0_1b3cc954bc" d="M 0 2.5 
C 0.663008 2.5 1.29895 2.236584 1.767767 1.767767 
C 2.236584 1.29895 2.5 0.663008 2.5 -0 
C 2.5 -0.663008 2.236584 -1.29895 1.767767 -1.767767 
C 1.29895 -2.236584 0.663008 -2.5 0 -2.5 
C -0.663008 -2.5 -1.29895 -2.236584 -1.767767 -1.767767 
C -2.236584 -1.29895 -2.5 -0.663008 -2.5 0 
C -2.5 0.663008 -2.236584 1.29895 -1.767767 1.767767 
C -1.29895 2.236584 -0.663008 2.5 0 2.5 
z
"/>
    </defs>
    <g clip-path="url(#p07686d6095)">
     <use xlink:href="#C7_0_1b3cc954bc" x="170.095226" y="99.478475" style="fill: #ffffff; stroke: #000000; stroke-width: 0.4"/>
    </g>
    <g clip-path="url(#p07686d6095)">
     <use xlink:href="#C7_0_1b3cc954bc" x="171.866766" y="100.837828" style="fill: #ffffff; stroke: #000000; stroke-width: 0.4"/>
    </g>
    <g clip-path="url(#p07686d6095)">
     <use xlink:href="#C7_0_1b3cc954bc" x="172.231018" y="99.454522" style="fill: #ffffff; stroke: #000000; stroke-width: 0.4"/>
    </g>
   </g>
   <g id="PathCollection_9">
    <defs>
     <path id="C8_0_fb6b6be5a6" d="M 0 2.5 
C 0.663008 2.5 1.29895 2.236584 1.767767 1.767767 
C 2.236584 1.29895 2.5 0.663008 2.5 -0 
C 2.5 -0.663008 2.236584 -1.29895 1.767767 -1.767767 
C 1.29895 -2.236584 0.663008 -2.5 0 -2.5 
C -0.663008 -2.5 -1.29895 -2.236584 -1.767767 -1.767767 
C -2.236584 -1.29895 -2.5 -0.663008 -2.5 0 
C -2.5 0.663008 -2.236584 1.29895 -1.767767 1.767767 
C -1.29895 2.236584 -0.663008 2.5 0 2.5 
z
"/>
    </defs>
    <g clip-path="url(#p07686d6095)">
     <use xlink:href="#C8_0_fb6b6be5a6" x="185.086071" y="94.412343" style="fill: #ffffff; stroke: #000000; stroke-width: 0.4"/>
    </g>
    <g clip-path="url(#p07686d6095)">
     <use xlink:href="#C8_0_fb6b6be5a6" x="182.60744" y="90.391773" style="fill: #ffffff; stroke: #000000; stroke-width: 0.4"/>
    </g>
    <g clip-path="url(#p07686d6095)">
     <use xlink:href="#C8_0_fb6b6be5a6" x="184.658948" y="92.403855" style="fill: #ffffff; stroke: #000000; stroke-width: 0.4"/>
    </g>
   </g>
   <g id="PathCollection_10">
    <defs>
     <path id="C9_0_a61b2e4239" d="M 0 2.5 
C 0.663008 2.5 1.29895 2.236584 1.767767 1.767767 
C 2.236584 1.29895 2.5 0.663008 2.5 -0 
C 2.5 -0.663008 2.236584 -1.29895 1.767767 -1.767767 
C 1.29895 -2.236584 0.663008 -2.5 0 -2.5 
C -0.663008 -2.5 -1.29895 -2.236584 -1.767767 -1.767767 
C -2.236584 -1.29895 -2.5 -0.663008 -2.5 0 
C -2.5 0.663008 -2.236584 1.29895 -1.767767 1.767767 
C -1.29895 2.236584 -0.663008 2.5 0 2.5 
z
"/>
    </defs>
    <g clip-path="url(#p07686d6095)">
     <use xlink:href="#C9_0_a61b2e4239" x="198.051414" y="78.557623" style="fill: #ffffff; stroke: #000000; stroke-width: 0.4"/>
    </g>
    <g clip-path="url(#p07686d6095)">
     <use xlink:href="#C9_0_a61b2e4239" x="198.495115" y="80.602041" style="fill: #ffffff; stroke: #000000; stroke-width: 0.4"/>
    </g>
    <g clip-path="url(#p07686d6095)">
     <use xlink:href="#C9_0_a61b2e4239" x="197.072836" y="80.163695" style="fill: #ffffff; stroke: #000000; stroke-width: 0.4"/>
    </g>
   </g>
   <g id="PathCollection_11">
    <path d="M 64.224321 80.79799 
L 61.724321 85.79799 
L 66.724321 85.79799 
z
" clip-path="url(#p07686d6095)" style="fill: #ffffff; stroke: #000000; stroke-width: 0.4"/>
    <path d="M 62.902481 81.037523 
L 60.402481 86.037523 
L 65.402481 86.037523 
z
" clip-path="url(#p07686d6095)" style="fill: #ffffff; stroke: #000000; stroke-width: 0.4"/>
    <path d="M 64.700169 81.492637 
L 62.200169 86.492637 
L 67.200169 86.492637 
z
" clip-path="url(#p07686d6095)" style="fill: #ffffff; stroke: #000000; stroke-width: 0.4"/>
   </g>
   <g id="PathCollection_12">
    <path d="M 77.936505 55.370315 
L 75.436505 60.370315 
L 80.436505 60.370315 
z
" clip-path="url(#p07686d6095)" style="fill: #ffffff; stroke: #000000; stroke-width: 0.4"/>
    <path d="M 77.209958 56.999143 
L 74.709958 61.999143 
L 79.709958 61.999143 
z
" clip-path="url(#p07686d6095)" style="fill: #ffffff; stroke: #000000; stroke-width: 0.4"/>
    <path d="M 78.456847 51.738988 
L 75.956847 56.738988 
L 80.956847 56.738988 
z
" clip-path="url(#p07686d6095)" style="fill: #ffffff; stroke: #000000; stroke-width: 0.4"/>
   </g>
   <g id="PathCollection_13">
    <path d="M 88.944653 47.457327 
L 86.444653 52.457327 
L 91.444653 52.457327 
z
" clip-path="url(#p07686d6095)" style="fill: #ffffff; stroke: #000000; stroke-width: 0.4"/>
    <path d="M 89.572752 50.476647 
L 87.072752 55.476647 
L 92.072752 55.476647 
z
" clip-path="url(#p07686d6095)" style="fill: #ffffff; stroke: #000000; stroke-width: 0.4"/>
    <path d="M 91.287822 48.728052 
L 88.787822 53.728052 
L 93.787822 53.728052 
z
" clip-path="url(#p07686d6095)" style="fill: #ffffff; stroke: #000000; stroke-width: 0.4"/>
   </g>
   <g id="PathCollection_14">
    <path d="M 102.686644 43.614013 
L 100.186644 48.614013 
L 105.186644 48.614013 
z
" clip-path="url(#p07686d6095)" style="fill: #ffffff; stroke: #000000; stroke-width: 0.4"/>
    <path d="M 103.472033 46.743518 
L 100.972033 51.743518 
L 105.972033 51.743518 
z
" clip-path="url(#p07686d6095)" style="fill: #ffffff; stroke: #000000; stroke-width: 0.4"/>
    <path d="M 102.877534 44.433217 
L 100.377534 49.433217 
L 105.377534 49.433217 
z
" clip-path="url(#p07686d6095)" style="fill: #ffffff; stroke: #000000; stroke-width: 0.4"/>
   </g>
   <g id="PathCollection_15">
    <path d="M 115.217237 42.247475 
L 112.717237 47.247475 
L 117.717237 47.247475 
z
" clip-path="url(#p07686d6095)" style="fill: #ffffff; stroke: #000000; stroke-width: 0.4"/>
    <path d="M 116.899897 48.633437 
L 114.399897 53.633437 
L 119.399897 53.633437 
z
" clip-path="url(#p07686d6095)" style="fill: #ffffff; stroke: #000000; stroke-width: 0.4"/>
    <path d="M 117.176289 50.196392 
L 114.676289 55.196392 
L 119.676289 55.196392 
z
" clip-path="url(#p07686d6095)" style="fill: #ffffff; stroke: #000000; stroke-width: 0.4"/>
   </g>
   <g id="PathCollection_16">
    <path d="M 145.137543 68.276378 
L 142.637543 73.276378 
L 147.637543 73.276378 
z
" clip-path="url(#p07686d6095)" style="fill: #ffffff; stroke: #000000; stroke-width: 0.4"/>
    <path d="M 144.473183 67.420046 
L 141.973183 72.420046 
L 146.973183 72.420046 
z
" clip-path="url(#p07686d6095)" style="fill: #ffffff; stroke: #000000; stroke-width: 0.4"/>
    <path d="M 144.032252 73.540126 
L 141.532252 78.540126 
L 146.532252 78.540126 
z
" clip-path="url(#p07686d6095)" style="fill: #ffffff; stroke: #000000; stroke-width: 0.4"/>
   </g>
   <g id="PathCollection_17">
    <path d="M 158.400752 40.483311 
L 155.900752 45.483311 
L 160.900752 45.483311 
z
" clip-path="url(#p07686d6095)" style="fill: #ffffff; stroke: #000000; stroke-width: 0.4"/>
    <path d="M 159.335606 35.938163 
L 156.835606 40.938163 
L 161.835606 40.938163 
z
" clip-path="url(#p07686d6095)" style="fill: #ffffff; stroke: #000000; stroke-width: 0.4"/>
    <path d="M 156.861653 40.381509 
L 154.361653 45.381509 
L 159.361653 45.381509 
z
" clip-path="url(#p07686d6095)" style="fill: #ffffff; stroke: #000000; stroke-width: 0.4"/>
   </g>
   <g id="PathCollection_18">
    <path d="M 171.388476 31.107971 
L 168.888476 36.107971 
L 173.888476 36.107971 
z
" clip-path="url(#p07686d6095)" style="fill: #ffffff; stroke: #000000; stroke-width: 0.4"/>
    <path d="M 170.107736 32.777519 
L 167.607736 37.777519 
L 172.607736 37.777519 
z
" clip-path="url(#p07686d6095)" style="fill: #ffffff; stroke: #000000; stroke-width: 0.4"/>
    <path d="M 172.238478 35.515387 
L 169.738478 40.515387 
L 174.738478 40.515387 
z
" clip-path="url(#p07686d6095)" style="fill: #ffffff; stroke: #000000; stroke-width: 0.4"/>
   </g>
   <g id="PathCollection_19">
    <path d="M 183.572713 31.146296 
L 181.072713 36.146296 
L 186.072713 36.146296 
z
" clip-path="url(#p07686d6095)" style="fill: #ffffff; stroke: #000000; stroke-width: 0.4"/>
    <path d="M 185.60439 27.189203 
L 183.10439 32.189203 
L 188.10439 32.189203 
z
" clip-path="url(#p07686d6095)" style="fill: #ffffff; stroke: #000000; stroke-width: 0.4"/>
    <path d="M 185.032773 33.673374 
L 182.532773 38.673374 
L 187.532773 38.673374 
z
" clip-path="url(#p07686d6095)" style="fill: #ffffff; stroke: #000000; stroke-width: 0.4"/>
   </g>
   <g id="PathCollection_20">
    <path d="M 196.911961 25.007054 
L 194.411961 30.007054 
L 199.411961 30.007054 
z
" clip-path="url(#p07686d6095)" style="fill: #ffffff; stroke: #000000; stroke-width: 0.4"/>
    <path d="M 195.726341 26.511324 
L 193.226341 31.511324 
L 198.226341 31.511324 
z
" clip-path="url(#p07686d6095)" style="fill: #ffffff; stroke: #000000; stroke-width: 0.4"/>
    <path d="M 197.143884 33.144005 
L 194.643884 38.144005 
L 199.643884 38.144005 
z
" clip-path="url(#p07686d6095)" style="fill: #ffffff; stroke: #000000; stroke-width: 0.4"/>
   </g>
   <g id="PathCollection_21">
    <path d="M 63.03905 131.653078 
L 68.03905 131.653078 
L 68.03905 126.653078 
L 63.03905 126.653078 
z
" clip-path="url(#p07686d6095)" style="fill: #ffffff; stroke: #000000; stroke-width: 0.4"/>
    <path d="M 60.711345 129.96317 
L 65.711345 129.96317 
L 65.711345 124.96317 
L 60.711345 124.96317 
z
" clip-path="url(#p07686d6095)" style="fill: #ffffff; stroke: #000000; stroke-width: 0.4"/>
    <path d="M 61.797345 130.251808 
L 66.797345 130.251808 
L 66.797345 125.251808 
L 61.797345 125.251808 
z
" clip-path="url(#p07686d6095)" style="fill: #ffffff; stroke: #000000; stroke-width: 0.4"/>
   </g>
   <g id="PathCollection_22">
    <path d="M 76.301307 120.894433 
L 81.301307 120.894433 
L 81.301307 115.894433 
L 76.301307 115.894433 
z
" clip-path="url(#p07686d6095)" style="fill: #ffffff; stroke: #000000; stroke-width: 0.4"/>
    <path d="M 73.986169 123.335279 
L 78.986169 123.335279 
L 78.986169 118.335279 
L 73.986169 118.335279 
z
" clip-path="url(#p07686d6095)" style="fill: #ffffff; stroke: #000000; stroke-width: 0.4"/>
    <path d="M 74.779847 123.330488 
L 79.779847 123.330488 
L 79.779847 118.330488 
L 74.779847 118.330488 
z
" clip-path="url(#p07686d6095)" style="fill: #ffffff; stroke: #000000; stroke-width: 0.4"/>
   </g>
   <g id="PathCollection_23">
    <path d="M 88.106766 117.379279 
L 93.106766 117.379279 
L 93.106766 112.379279 
L 88.106766 112.379279 
z
" clip-path="url(#p07686d6095)" style="fill: #ffffff; stroke: #000000; stroke-width: 0.4"/>
    <path d="M 87.870648 120.046484 
L 92.870648 120.046484 
L 92.870648 115.046484 
L 87.870648 115.046484 
z
" clip-path="url(#p07686d6095)" style="fill: #ffffff; stroke: #000000; stroke-width: 0.4"/>
    <path d="M 86.88648 118.161356 
L 91.88648 118.161356 
L 91.88648 113.161356 
L 86.88648 113.161356 
z
" clip-path="url(#p07686d6095)" style="fill: #ffffff; stroke: #000000; stroke-width: 0.4"/>
   </g>
   <g id="PathCollection_24">
    <path d="M 99.778716 112.686819 
L 104.778716 112.686819 
L 104.778716 107.686819 
L 99.778716 107.686819 
z
" clip-path="url(#p07686d6095)" style="fill: #ffffff; stroke: #000000; stroke-width: 0.4"/>
    <path d="M 99.096071 112.770656 
L 104.096071 112.770656 
L 104.096071 107.770656 
L 99.096071 107.770656 
z
" clip-path="url(#p07686d6095)" style="fill: #ffffff; stroke: #000000; stroke-width: 0.4"/>
    <path d="M 100.882026 112.052055 
L 105.882026 112.052055 
L 105.882026 107.052055 
L 100.882026 107.052055 
z
" clip-path="url(#p07686d6095)" style="fill: #ffffff; stroke: #000000; stroke-width: 0.4"/>
   </g>
   <g id="PathCollection_25">
    <path d="M 112.255685 111.389745 
L 117.255685 111.389745 
L 117.255685 106.389745 
L 112.255685 106.389745 
z
" clip-path="url(#p07686d6095)" style="fill: #ffffff; stroke: #000000; stroke-width: 0.4"/>
    <path d="M 114.028139 110.241182 
L 119.028139 110.241182 
L 119.028139 105.241182 
L 114.028139 105.241182 
z
" clip-path="url(#p07686d6095)" style="fill: #ffffff; stroke: #000000; stroke-width: 0.4"/>
    <path d="M 114.967648 110.148962 
L 119.967648 110.148962 
L 119.967648 105.148962 
L 114.967648 105.148962 
z
" clip-path="url(#p07686d6095)" style="fill: #ffffff; stroke: #000000; stroke-width: 0.4"/>
   </g>
   <g id="PathCollection_26">
    <path d="M 143.042113 117.573301 
L 148.042113 117.573301 
L 148.042113 112.573301 
L 143.042113 112.573301 
z
" clip-path="url(#p07686d6095)" style="fill: #ffffff; stroke: #000000; stroke-width: 0.4"/>
    <path d="M 141.357211 115.581581 
L 146.357211 115.581581 
L 146.357211 110.581581 
L 141.357211 110.581581 
z
" clip-path="url(#p07686d6095)" style="fill: #ffffff; stroke: #000000; stroke-width: 0.4"/>
    <path d="M 143.514293 115.59236 
L 148.514293 115.59236 
L 148.514293 110.59236 
L 143.514293 110.59236 
z
" clip-path="url(#p07686d6095)" style="fill: #ffffff; stroke: #000000; stroke-width: 0.4"/>
   </g>
   <g id="PathCollection_27">
    <path d="M 154.450831 87.336992 
L 159.450831 87.336992 
L 159.450831 82.336992 
L 154.450831 82.336992 
z
" clip-path="url(#p07686d6095)" style="fill: #ffffff; stroke: #000000; stroke-width: 0.4"/>
    <path d="M 156.456501 86.618392 
L 161.456501 86.618392 
L 161.456501 81.618392 
L 156.456501 81.618392 
z
" clip-path="url(#p07686d6095)" style="fill: #ffffff; stroke: #000000; stroke-width: 0.4"/>
    <path d="M 154.450234 92.441451 
L 159.450234 92.441451 
L 159.450234 87.441451 
L 154.450234 87.441451 
z
" clip-path="url(#p07686d6095)" style="fill: #ffffff; stroke: #000000; stroke-width: 0.4"/>
   </g>
   <g id="PathCollection_28">
    <path d="M 167.136714 72.366151 
L 172.136714 72.366151 
L 172.136714 67.366151 
L 167.136714 67.366151 
z
" clip-path="url(#p07686d6095)" style="fill: #ffffff; stroke: #000000; stroke-width: 0.4"/>
    <path d="M 167.190977 73.390157 
L 172.190977 73.390157 
L 172.190977 68.390157 
L 167.190977 68.390157 
z
" clip-path="url(#p07686d6095)" style="fill: #ffffff; stroke: #000000; stroke-width: 0.4"/>
    <path d="M 168.123938 77.205925 
L 173.123938 77.205925 
L 173.123938 72.205925 
L 168.123938 72.205925 
z
" clip-path="url(#p07686d6095)" style="fill: #ffffff; stroke: #000000; stroke-width: 0.4"/>
   </g>
   <g id="PathCollection_29">
    <path d="M 182.943855 63.438739 
L 187.943855 63.438739 
L 187.943855 58.438739 
L 182.943855 58.438739 
z
" clip-path="url(#p07686d6095)" style="fill: #ffffff; stroke: #000000; stroke-width: 0.4"/>
    <path d="M 181.271915 67.690458 
L 186.271915 67.690458 
L 186.271915 62.690458 
L 181.271915 62.690458 
z
" clip-path="url(#p07686d6095)" style="fill: #ffffff; stroke: #000000; stroke-width: 0.4"/>
    <path d="M 182.819252 68.599487 
L 187.819252 68.599487 
L 187.819252 63.599487 
L 182.819252 63.599487 
z
" clip-path="url(#p07686d6095)" style="fill: #ffffff; stroke: #000000; stroke-width: 0.4"/>
   </g>
   <g id="PathCollection_30">
    <path d="M 193.818566 69.720504 
L 198.818566 69.720504 
L 198.818566 64.720504 
L 193.818566 64.720504 
z
" clip-path="url(#p07686d6095)" style="fill: #ffffff; stroke: #000000; stroke-width: 0.4"/>
    <path d="M 193.174123 66.174211 
L 198.174123 66.174211 
L 198.174123 61.174211 
L 193.174123 61.174211 
z
" clip-path="url(#p07686d6095)" style="fill: #ffffff; stroke: #000000; stroke-width: 0.4"/>
    <path d="M 194.089609 68.073711 
L 199.089609 68.073711 
L 199.089609 63.073711 
L 194.089609 63.073711 
z
" clip-path="url(#p07686d6095)" style="fill: #ffffff; stroke: #000000; stroke-width: 0.4"/>
   </g>
   <g id="PathCollection_31">
    <path d="M 64.049633 96.14898 
L 67.585167 92.613446 
L 64.049633 89.077912 
L 60.514099 92.613446 
z
" clip-path="url(#p07686d6095)" style="fill: #ffffff; stroke: #000000; stroke-width: 0.4"/>
    <path d="M 65.302821 98.604198 
L 68.838355 95.068664 
L 65.302821 91.53313 
L 61.767287 95.068664 
z
" clip-path="url(#p07686d6095)" style="fill: #ffffff; stroke: #000000; stroke-width: 0.4"/>
    <path d="M 64.013254 97.471205 
L 67.548788 93.935671 
L 64.013254 90.400137 
L 60.47772 93.935671 
z
" clip-path="url(#p07686d6095)" style="fill: #ffffff; stroke: #000000; stroke-width: 0.4"/>
   </g>
   <g id="PathCollection_32">
    <path d="M 77.570884 71.867473 
L 81.106418 68.331939 
L 77.570884 64.796405 
L 74.03535 68.331939 
z
" clip-path="url(#p07686d6095)" style="fill: #ffffff; stroke: #000000; stroke-width: 0.4"/>
    <path d="M 77.38799 76.272494 
L 80.923524 72.73696 
L 77.38799 69.201426 
L 73.852456 72.73696 
z
" clip-path="url(#p07686d6095)" style="fill: #ffffff; stroke: #000000; stroke-width: 0.4"/>
    <path d="M 78.142708 72.643562 
L 81.678242 69.108028 
L 78.142708 65.572494 
L 74.607174 69.108028 
z
" clip-path="url(#p07686d6095)" style="fill: #ffffff; stroke: #000000; stroke-width: 0.4"/>
   </g>
   <g id="PathCollection_33">
    <path d="M 89.076544 66.093519 
L 92.612078 62.557985 
L 89.076544 59.022451 
L 85.54101 62.557985 
z
" clip-path="url(#p07686d6095)" style="fill: #ffffff; stroke: #000000; stroke-width: 0.4"/>
    <path d="M 91.487284 69.738021 
L 95.022818 66.202487 
L 91.487284 62.666953 
L 87.95175 66.202487 
z
" clip-path="url(#p07686d6095)" style="fill: #ffffff; stroke: #000000; stroke-width: 0.4"/>
    <path d="M 89.596556 67.303163 
L 93.132089 63.767629 
L 89.596556 60.232095 
L 86.061022 63.767629 
z
" clip-path="url(#p07686d6095)" style="fill: #ffffff; stroke: #000000; stroke-width: 0.4"/>
   </g>
   <g id="PathCollection_34">
    <path d="M 104.699243 65.840811 
L 108.234777 62.305277 
L 104.699243 58.769743 
L 101.163709 62.305277 
z
" clip-path="url(#p07686d6095)" style="fill: #ffffff; stroke: #000000; stroke-width: 0.4"/>
    <path d="M 103.253236 65.907881 
L 106.78877 62.372347 
L 103.253236 58.836813 
L 99.717702 62.372347 
z
" clip-path="url(#p07686d6095)" style="fill: #ffffff; stroke: #000000; stroke-width: 0.4"/>
    <path d="M 104.389805 62.369971 
L 107.925339 58.834437 
L 104.389805 55.298904 
L 100.854271 58.834437 
z
" clip-path="url(#p07686d6095)" style="fill: #ffffff; stroke: #000000; stroke-width: 0.4"/>
   </g>
   <g id="PathCollection_35">
    <path d="M 114.515148 65.288687 
L 118.050682 61.753153 
L 114.515148 58.217619 
L 110.979614 61.753153 
z
" clip-path="url(#p07686d6095)" style="fill: #ffffff; stroke: #000000; stroke-width: 0.4"/>
    <path d="M 115.661868 63.910172 
L 119.197402 60.374638 
L 115.661868 56.839104 
L 112.126334 60.374638 
z
" clip-path="url(#p07686d6095)" style="fill: #ffffff; stroke: #000000; stroke-width: 0.4"/>
    <path d="M 116.303904 65.152153 
L 119.839437 61.616619 
L 116.303904 58.081085 
L 112.76837 61.616619 
z
" clip-path="url(#p07686d6095)" style="fill: #ffffff; stroke: #000000; stroke-width: 0.4"/>
   </g>
   <g id="PathCollection_36">
    <path d="M 146.506401 99.103626 
L 150.041935 95.568092 
L 146.506401 92.032558 
L 142.970867 95.568092 
z
" clip-path="url(#p07686d6095)" style="fill: #ffffff; stroke: #000000; stroke-width: 0.4"/>
    <path d="M 144.606802 97.1658 
L 148.142336 93.630266 
L 144.606802 90.094732 
L 141.071268 93.630266 
z
" clip-path="url(#p07686d6095)" style="fill: #ffffff; stroke: #000000; stroke-width: 0.4"/>
    <path d="M 144.228618 81.197302 
L 147.764152 77.661768 
L 144.228618 74.126234 
L 140.693084 77.661768 
z
" clip-path="url(#p07686d6095)" style="fill: #ffffff; stroke: #000000; stroke-width: 0.4"/>
   </g>
   <g id="PathCollection_37">
    <path d="M 159.580749 59.743487 
L 163.116283 56.207953 
L 159.580749 52.672419 
L 156.045215 56.207953 
z
" clip-path="url(#p07686d6095)" style="fill: #ffffff; stroke: #000000; stroke-width: 0.4"/>
    <path d="M 158.163614 79.725368 
L 161.699148 76.189834 
L 158.163614 72.654301 
L 154.62808 76.189834 
z
" clip-path="url(#p07686d6095)" style="fill: #ffffff; stroke: #000000; stroke-width: 0.4"/>
    <path d="M 158.674189 54.250985 
L 162.209723 50.715451 
L 158.674189 47.179917 
L 155.138655 50.715451 
z
" clip-path="url(#p07686d6095)" style="fill: #ffffff; stroke: #000000; stroke-width: 0.4"/>
   </g>
   <g id="PathCollection_38">
    <path d="M 171.109217 50.293892 
L 174.644751 46.758358 
L 171.109217 43.222824 
L 167.573683 46.758358 
z
" clip-path="url(#p07686d6095)" style="fill: #ffffff; stroke: #000000; stroke-width: 0.4"/>
    <path d="M 170.110206 56.028323 
L 173.64574 52.492789 
L 170.110206 48.957255 
L 166.574672 52.492789 
z
" clip-path="url(#p07686d6095)" style="fill: #ffffff; stroke: #000000; stroke-width: 0.4"/>
    <path d="M 170.936155 46.89611 
L 174.471689 43.360576 
L 170.936155 39.825042 
L 167.400621 43.360576 
z
" clip-path="url(#p07686d6095)" style="fill: #ffffff; stroke: #000000; stroke-width: 0.4"/>
   </g>
   <g id="PathCollection_39">
    <path d="M 185.372413 51.30113 
L 188.907947 47.765596 
L 185.372413 44.230062 
L 181.836879 47.765596 
z
" clip-path="url(#p07686d6095)" style="fill: #ffffff; stroke: #000000; stroke-width: 0.4"/>
    <path d="M 182.852916 54.783947 
L 186.38845 51.248413 
L 182.852916 47.712879 
L 179.317382 51.248413 
z
" clip-path="url(#p07686d6095)" style="fill: #ffffff; stroke: #000000; stroke-width: 0.4"/>
    <path d="M 183.688253 45.416991 
L 187.223787 41.881457 
L 183.688253 38.345923 
L 180.152719 41.881457 
z
" clip-path="url(#p07686d6095)" style="fill: #ffffff; stroke: #000000; stroke-width: 0.4"/>
   </g>
   <g id="PathCollection_40">
    <path d="M 196.635427 61.736405 
L 200.170961 58.200871 
L 196.635427 54.665338 
L 193.099893 58.200871 
z
" clip-path="url(#p07686d6095)" style="fill: #ffffff; stroke: #000000; stroke-width: 0.4"/>
    <path d="M 197.901631 51.03405 
L 201.437164 47.498516 
L 197.901631 43.962982 
L 194.366097 47.498516 
z
" clip-path="url(#p07686d6095)" style="fill: #ffffff; stroke: #000000; stroke-width: 0.4"/>
    <path d="M 196.058487 41.352108 
L 199.594021 37.816574 
L 196.058487 34.28104 
L 192.522954 37.816574 
z
" clip-path="url(#p07686d6095)" style="fill: #ffffff; stroke: #000000; stroke-width: 0.4"/>
   </g>
   <g id="text_9">
    <!-- Single Cells Count at 4dpi -->
    <g style="fill: #262626" transform="translate(61.657813 15.935625) scale(0.12 -0.12)">
     <defs>
      <path id="ArialMT-61" d="M 2588 409 
Q 2275 144 1986 34 
Q 1697 -75 1366 -75 
Q 819 -75 525 192 
Q 231 459 231 875 
Q 231 1119 342 1320 
Q 453 1522 633 1644 
Q 813 1766 1038 1828 
Q 1203 1872 1538 1913 
Q 2219 1994 2541 2106 
Q 2544 2222 2544 2253 
Q 2544 2597 2384 2738 
Q 2169 2928 1744 2928 
Q 1347 2928 1158 2789 
Q 969 2650 878 2297 
L 328 2372 
Q 403 2725 575 2942 
Q 747 3159 1072 3276 
Q 1397 3394 1825 3394 
Q 2250 3394 2515 3294 
Q 2781 3194 2906 3042 
Q 3031 2891 3081 2659 
Q 3109 2516 3109 2141 
L 3109 1391 
Q 3109 606 3145 398 
Q 3181 191 3288 0 
L 2700 0 
Q 2613 175 2588 409 
z
M 2541 1666 
Q 2234 1541 1622 1453 
Q 1275 1403 1131 1340 
Q 988 1278 909 1158 
Q 831 1038 831 891 
Q 831 666 1001 516 
Q 1172 366 1500 366 
Q 1825 366 2078 508 
Q 2331 650 2450 897 
Q 2541 1088 2541 1459 
L 2541 1666 
z
" transform="scale(0.015625)"/>
      <path id="ArialMT-64" d="M 2575 0 
L 2575 419 
Q 2259 -75 1647 -75 
Q 1250 -75 917 144 
Q 584 363 401 755 
Q 219 1147 219 1656 
Q 219 2153 384 2558 
Q 550 2963 881 3178 
Q 1213 3394 1622 3394 
Q 1922 3394 2156 3267 
Q 2391 3141 2538 2938 
L 2538 4581 
L 3097 4581 
L 3097 0 
L 2575 0 
z
M 797 1656 
Q 797 1019 1065 703 
Q 1334 388 1700 388 
Q 2069 388 2326 689 
Q 2584 991 2584 1609 
Q 2584 2291 2321 2609 
Q 2059 2928 1675 2928 
Q 1300 2928 1048 2622 
Q 797 2316 797 1656 
z
" transform="scale(0.015625)"/>
      <path id="ArialMT-70" d="M 422 -1272 
L 422 3319 
L 934 3319 
L 934 2888 
Q 1116 3141 1344 3267 
Q 1572 3394 1897 3394 
Q 2322 3394 2647 3175 
Q 2972 2956 3137 2557 
Q 3303 2159 3303 1684 
Q 3303 1175 3120 767 
Q 2938 359 2589 142 
Q 2241 -75 1856 -75 
Q 1575 -75 1351 44 
Q 1128 163 984 344 
L 984 -1272 
L 422 -1272 
z
M 931 1641 
Q 931 1000 1190 694 
Q 1450 388 1819 388 
Q 2194 388 2461 705 
Q 2728 1022 2728 1688 
Q 2728 2322 2467 2637 
Q 2206 2953 1844 2953 
Q 1484 2953 1207 2617 
Q 931 2281 931 1641 
z
" transform="scale(0.015625)"/>
     </defs>
     <use xlink:href="#ArialMT-53"/>
     <use xlink:href="#ArialMT-69" transform="translate(66.699219 0)"/>
     <use xlink:href="#ArialMT-6e" transform="translate(88.916016 0)"/>
     <use xlink:href="#ArialMT-67" transform="translate(144.53125 0)"/>
     <use xlink:href="#ArialMT-6c" transform="translate(200.146484 0)"/>
     <use xlink:href="#ArialMT-65" transform="translate(222.363281 0)"/>
     <use xlink:href="#ArialMT-20" transform="translate(277.978516 0)"/>
     <use xlink:href="#ArialMT-43" transform="translate(305.761719 0)"/>
     <use xlink:href="#ArialMT-65" transform="translate(377.978516 0)"/>
     <use xlink:href="#ArialMT-6c" transform="translate(433.59375 0)"/>
     <use xlink:href="#ArialMT-6c" transform="translate(455.810547 0)"/>
     <use xlink:href="#ArialMT-73" transform="translate(478.027344 0)"/>
     <use xlink:href="#ArialMT-20" transform="translate(528.027344 0)"/>
     <use xlink:href="#ArialMT-43" transform="translate(555.810547 0)"/>
     <use xlink:href="#ArialMT-6f" transform="translate(628.027344 0)"/>
     <use xlink:href="#ArialMT-75" transform="translate(683.642578 0)"/>
     <use xlink:href="#ArialMT-6e" transform="translate(739.257812 0)"/>
     <use xlink:href="#ArialMT-74" transform="translate(794.873047 0)"/>
     <use xlink:href="#ArialMT-20" transform="translate(822.65625 0)"/>
     <use xlink:href="#ArialMT-61" transform="translate(850.439453 0)"/>
     <use xlink:href="#ArialMT-74" transform="translate(906.054688 0)"/>
     <use xlink:href="#ArialMT-20" transform="translate(933.837891 0)"/>
     <use xlink:href="#ArialMT-34" transform="translate(961.621094 0)"/>
     <use xlink:href="#ArialMT-64" transform="translate(1017.236328 0)"/>
     <use xlink:href="#ArialMT-70" transform="translate(1072.851562 0)"/>
     <use xlink:href="#ArialMT-69" transform="translate(1128.466797 0)"/>
    </g>
   </g>
   <g id="legend_1">
    <g id="patch_17">
     <path d="M 224.195312 34.209219 
L 246.195312 34.209219 
L 246.195312 26.509219 
L 224.195312 26.509219 
z
" style="fill: #2f1b55; opacity: 0.8; stroke: #ffffff; stroke-linejoin: miter"/>
    </g>
    <g id="text_10">
     <!-- 1 -->
     <g style="fill: #262626" transform="translate(254.995313 34.209219) scale(0.11 -0.11)">
      <defs>
       <path id="ArialMT-31" d="M 2384 0 
L 1822 0 
L 1822 3584 
Q 1619 3391 1289 3197 
Q 959 3003 697 2906 
L 697 3450 
Q 1169 3672 1522 3987 
Q 1875 4303 2022 4600 
L 2384 4600 
L 2384 0 
z
" transform="scale(0.015625)"/>
      </defs>
      <use xlink:href="#ArialMT-31"/>
     </g>
    </g>
    <g id="patch_18">
     <path d="M 224.195312 49.769062 
L 246.195312 49.769062 
L 246.195312 42.069062 
L 224.195312 42.069062 
z
" style="fill: #692c75; opacity: 0.8; stroke: #ffffff; stroke-linejoin: miter"/>
    </g>
    <g id="text_11">
     <!-- 5 -->
     <g style="fill: #262626" transform="translate(254.995313 49.769062) scale(0.11 -0.11)">
      <defs>
       <path id="ArialMT-35" d="M 266 1200 
L 856 1250 
Q 922 819 1161 601 
Q 1400 384 1738 384 
Q 2144 384 2425 690 
Q 2706 997 2706 1503 
Q 2706 1984 2436 2262 
Q 2166 2541 1728 2541 
Q 1456 2541 1237 2417 
Q 1019 2294 894 2097 
L 366 2166 
L 809 4519 
L 3088 4519 
L 3088 3981 
L 1259 3981 
L 1013 2750 
Q 1425 3038 1878 3038 
Q 2478 3038 2890 2622 
Q 3303 2206 3303 1553 
Q 3303 931 2941 478 
Q 2500 -78 1738 -78 
Q 1113 -78 717 272 
Q 322 622 266 1200 
z
" transform="scale(0.015625)"/>
      </defs>
      <use xlink:href="#ArialMT-35"/>
     </g>
    </g>
    <g id="patch_19">
     <path d="M 224.195312 65.328906 
L 246.195312 65.328906 
L 246.195312 57.628906 
L 224.195312 57.628906 
z
" style="fill: #a74779; opacity: 0.8; stroke: #ffffff; stroke-linejoin: miter"/>
    </g>
    <g id="text_12">
     <!-- 10 -->
     <g style="fill: #262626" transform="translate(254.995313 65.328906) scale(0.11 -0.11)">
      <use xlink:href="#ArialMT-31"/>
      <use xlink:href="#ArialMT-30" transform="translate(55.615234 0)"/>
     </g>
    </g>
    <g id="patch_20">
     <path d="M 224.195312 80.88875 
L 246.195312 80.88875 
L 246.195312 73.18875 
L 224.195312 73.18875 
z
" style="fill: #de7270; opacity: 0.8; stroke: #ffffff; stroke-linejoin: miter"/>
    </g>
    <g id="text_13">
     <!-- 15 -->
     <g style="fill: #262626" transform="translate(254.995313 80.88875) scale(0.11 -0.11)">
      <use xlink:href="#ArialMT-31"/>
      <use xlink:href="#ArialMT-35" transform="translate(55.615234 0)"/>
     </g>
    </g>
    <g id="patch_21">
     <path d="M 224.195312 96.448594 
L 246.195312 96.448594 
L 246.195312 88.748594 
L 224.195312 88.748594 
z
" style="fill: #eeb389; opacity: 0.8; stroke: #ffffff; stroke-linejoin: miter"/>
    </g>
    <g id="text_14">
     <!-- 20 -->
     <g style="fill: #262626" transform="translate(254.995313 96.448594) scale(0.11 -0.11)">
      <use xlink:href="#ArialMT-32"/>
      <use xlink:href="#ArialMT-30" transform="translate(55.615234 0)"/>
     </g>
    </g>
   </g>
  </g>
 </g>
 <defs>
  <clipPath id="p07686d6095">
   <rect x="49.695313" y="21.935625" width="162" height="117"/>
  </clipPath>
 </defs>
</svg>
