<?xml version="1.0" encoding="utf-8" standalone="no"?>
<!DOCTYPE svg PUBLIC "-//W3C//DTD SVG 1.1//EN"
  "http://www.w3.org/Graphics/SVG/1.1/DTD/svg11.dtd">
<svg xmlns:xlink="http://www.w3.org/1999/xlink" width="216pt" height="216pt" viewBox="0 0 216 216" xmlns="http://www.w3.org/2000/svg" version="1.1">
 <metadata>
  <rdf:RDF xmlns:dc="http://purl.org/dc/elements/1.1/" xmlns:cc="http://creativecommons.org/ns#" xmlns:rdf="http://www.w3.org/1999/02/22-rdf-syntax-ns#">
   <cc:Work>
    <dc:type rdf:resource="http://purl.org/dc/dcmitype/StillImage"/>
    <dc:date>2025-07-28T16:55:08.184814</dc:date>
    <dc:format>image/svg+xml</dc:format>
    <dc:creator>
     <cc:Agent>
      <dc:title>Matplotlib v3.10.3, https://matplotlib.org/</dc:title>
     </cc:Agent>
    </dc:creator>
   </cc:Work>
  </rdf:RDF>
 </metadata>
 <defs>
  <style type="text/css">*{stroke-linejoin: round; stroke-linecap: butt}</style>
 </defs>
 <g id="figure_1">
  <g id="patch_1">
   <path d="M 0 216 
L 216 216 
L 216 0 
L 0 0 
z
" style="fill: #ffffff"/>
  </g>
  <g id="axes_1">
   <g id="patch_2">
    <path d="M 43.2 162 
L 205.2 162 
L 205.2 21.6 
L 43.2 21.6 
z
" style="fill: #ffffff"/>
   </g>
   <g id="matplotlib.axis_1">
    <g id="xtick_1">
     <g id="line2d_1">
      <defs>
       <path id="mbf74fb41bb" d="M 0 0 
L 0 6 
" style="stroke: #262626; stroke-width: 1.25"/>
      </defs>
      <g>
       <use xlink:href="#mbf74fb41bb" x="70.285589" y="162" style="fill: #262626; stroke: #262626; stroke-width: 1.25"/>
      </g>
     </g>
     <g id="text_1">
      <!-- 0.5 -->
      <g style="fill: #262626" transform="translate(62.640589 179.373594) scale(0.11 -0.11)">
       <defs>
        <path id="ArialMT-30" d="M 266 2259 
Q 266 3072 433 3567 
Q 600 4063 929 4331 
Q 1259 4600 1759 4600 
Q 2128 4600 2406 4451 
Q 2684 4303 2865 4023 
Q 3047 3744 3150 3342 
Q 3253 2941 3253 2259 
Q 3253 1453 3087 958 
Q 2922 463 2592 192 
Q 2263 -78 1759 -78 
Q 1097 -78 719 397 
Q 266 969 266 2259 
z
M 844 2259 
Q 844 1131 1108 757 
Q 1372 384 1759 384 
Q 2147 384 2411 759 
Q 2675 1134 2675 2259 
Q 2675 3391 2411 3762 
Q 2147 4134 1753 4134 
Q 1366 4134 1134 3806 
Q 844 3388 844 2259 
z
" transform="scale(0.015625)"/>
        <path id="ArialMT-2e" d="M 581 0 
L 581 641 
L 1222 641 
L 1222 0 
L 581 0 
z
" transform="scale(0.015625)"/>
        <path id="ArialMT-35" d="M 266 1200 
L 856 1250 
Q 922 819 1161 601 
Q 1400 384 1738 384 
Q 2144 384 2425 690 
Q 2706 997 2706 1503 
Q 2706 1984 2436 2262 
Q 2166 2541 1728 2541 
Q 1456 2541 1237 2417 
Q 1019 2294 894 2097 
L 366 2166 
L 809 4519 
L 3088 4519 
L 3088 3981 
L 1259 3981 
L 1013 2750 
Q 1425 3038 1878 3038 
Q 2478 3038 2890 2622 
Q 3303 2206 3303 1553 
Q 3303 931 2941 478 
Q 2500 -78 1738 -78 
Q 1113 -78 717 272 
Q 322 622 266 1200 
z
" transform="scale(0.015625)"/>
       </defs>
       <use xlink:href="#ArialMT-30"/>
       <use xlink:href="#ArialMT-2e" transform="translate(55.615234 0)"/>
       <use xlink:href="#ArialMT-35" transform="translate(83.398438 0)"/>
      </g>
     </g>
    </g>
    <g id="xtick_2">
     <g id="line2d_2">
      <g>
       <use xlink:href="#mbf74fb41bb" x="127.301094" y="162" style="fill: #262626; stroke: #262626; stroke-width: 1.25"/>
      </g>
     </g>
     <g id="text_2">
      <!-- 1.0 -->
      <g style="fill: #262626" transform="translate(119.656094 179.373594) scale(0.11 -0.11)">
       <defs>
        <path id="ArialMT-31" d="M 2384 0 
L 1822 0 
L 1822 3584 
Q 1619 3391 1289 3197 
Q 959 3003 697 2906 
L 697 3450 
Q 1169 3672 1522 3987 
Q 1875 4303 2022 4600 
L 2384 4600 
L 2384 0 
z
" transform="scale(0.015625)"/>
       </defs>
       <use xlink:href="#ArialMT-31"/>
       <use xlink:href="#ArialMT-2e" transform="translate(55.615234 0)"/>
       <use xlink:href="#ArialMT-30" transform="translate(83.398438 0)"/>
      </g>
     </g>
    </g>
    <g id="xtick_3">
     <g id="line2d_3">
      <g>
       <use xlink:href="#mbf74fb41bb" x="184.3166" y="162" style="fill: #262626; stroke: #262626; stroke-width: 1.25"/>
      </g>
     </g>
     <g id="text_3">
      <!-- 1.5 -->
      <g style="fill: #262626" transform="translate(176.6716 179.373594) scale(0.11 -0.11)">
       <use xlink:href="#ArialMT-31"/>
       <use xlink:href="#ArialMT-2e" transform="translate(55.615234 0)"/>
       <use xlink:href="#ArialMT-35" transform="translate(83.398438 0)"/>
      </g>
     </g>
    </g>
    <g id="text_4">
     <!-- Normalized mRuby2+ MFI (yield) -->
     <g style="fill: #262626" transform="translate(36.34875 194.295469) scale(0.12 -0.12)">
      <defs>
       <path id="ArialMT-4e" d="M 488 0 
L 488 4581 
L 1109 4581 
L 3516 984 
L 3516 4581 
L 4097 4581 
L 4097 0 
L 3475 0 
L 1069 3600 
L 1069 0 
L 488 0 
z
" transform="scale(0.015625)"/>
       <path id="ArialMT-6f" d="M 213 1659 
Q 213 2581 725 3025 
Q 1153 3394 1769 3394 
Q 2453 3394 2887 2945 
Q 3322 2497 3322 1706 
Q 3322 1066 3130 698 
Q 2938 331 2570 128 
Q 2203 -75 1769 -75 
Q 1072 -75 642 372 
Q 213 819 213 1659 
z
M 791 1659 
Q 791 1022 1069 705 
Q 1347 388 1769 388 
Q 2188 388 2466 706 
Q 2744 1025 2744 1678 
Q 2744 2294 2464 2611 
Q 2184 2928 1769 2928 
Q 1347 2928 1069 2612 
Q 791 2297 791 1659 
z
" transform="scale(0.015625)"/>
       <path id="ArialMT-72" d="M 416 0 
L 416 3319 
L 922 3319 
L 922 2816 
Q 1116 3169 1280 3281 
Q 1444 3394 1641 3394 
Q 1925 3394 2219 3213 
L 2025 2691 
Q 1819 2813 1613 2813 
Q 1428 2813 1281 2702 
Q 1134 2591 1072 2394 
Q 978 2094 978 1738 
L 978 0 
L 416 0 
z
" transform="scale(0.015625)"/>
       <path id="ArialMT-6d" d="M 422 0 
L 422 3319 
L 925 3319 
L 925 2853 
Q 1081 3097 1340 3245 
Q 1600 3394 1931 3394 
Q 2300 3394 2536 3241 
Q 2772 3088 2869 2813 
Q 3263 3394 3894 3394 
Q 4388 3394 4653 3120 
Q 4919 2847 4919 2278 
L 4919 0 
L 4359 0 
L 4359 2091 
Q 4359 2428 4304 2576 
Q 4250 2725 4106 2815 
Q 3963 2906 3769 2906 
Q 3419 2906 3187 2673 
Q 2956 2441 2956 1928 
L 2956 0 
L 2394 0 
L 2394 2156 
Q 2394 2531 2256 2718 
Q 2119 2906 1806 2906 
Q 1569 2906 1367 2781 
Q 1166 2656 1075 2415 
Q 984 2175 984 1722 
L 984 0 
L 422 0 
z
" transform="scale(0.015625)"/>
       <path id="ArialMT-61" d="M 2588 409 
Q 2275 144 1986 34 
Q 1697 -75 1366 -75 
Q 819 -75 525 192 
Q 231 459 231 875 
Q 231 1119 342 1320 
Q 453 1522 633 1644 
Q 813 1766 1038 1828 
Q 1203 1872 1538 1913 
Q 2219 1994 2541 2106 
Q 2544 2222 2544 2253 
Q 2544 2597 2384 2738 
Q 2169 2928 1744 2928 
Q 1347 2928 1158 2789 
Q 969 2650 878 2297 
L 328 2372 
Q 403 2725 575 2942 
Q 747 3159 1072 3276 
Q 1397 3394 1825 3394 
Q 2250 3394 2515 3294 
Q 2781 3194 2906 3042 
Q 3031 2891 3081 2659 
Q 3109 2516 3109 2141 
L 3109 1391 
Q 3109 606 3145 398 
Q 3181 191 3288 0 
L 2700 0 
Q 2613 175 2588 409 
z
M 2541 1666 
Q 2234 1541 1622 1453 
Q 1275 1403 1131 1340 
Q 988 1278 909 1158 
Q 831 1038 831 891 
Q 831 666 1001 516 
Q 1172 366 1500 366 
Q 1825 366 2078 508 
Q 2331 650 2450 897 
Q 2541 1088 2541 1459 
L 2541 1666 
z
" transform="scale(0.015625)"/>
       <path id="ArialMT-6c" d="M 409 0 
L 409 4581 
L 972 4581 
L 972 0 
L 409 0 
z
" transform="scale(0.015625)"/>
       <path id="ArialMT-69" d="M 425 3934 
L 425 4581 
L 988 4581 
L 988 3934 
L 425 3934 
z
M 425 0 
L 425 3319 
L 988 3319 
L 988 0 
L 425 0 
z
" transform="scale(0.015625)"/>
       <path id="ArialMT-7a" d="M 125 0 
L 125 456 
L 2238 2881 
Q 1878 2863 1603 2863 
L 250 2863 
L 250 3319 
L 2963 3319 
L 2963 2947 
L 1166 841 
L 819 456 
Q 1197 484 1528 484 
L 3063 484 
L 3063 0 
L 125 0 
z
" transform="scale(0.015625)"/>
       <path id="ArialMT-65" d="M 2694 1069 
L 3275 997 
Q 3138 488 2766 206 
Q 2394 -75 1816 -75 
Q 1088 -75 661 373 
Q 234 822 234 1631 
Q 234 2469 665 2931 
Q 1097 3394 1784 3394 
Q 2450 3394 2872 2941 
Q 3294 2488 3294 1666 
Q 3294 1616 3291 1516 
L 816 1516 
Q 847 969 1125 678 
Q 1403 388 1819 388 
Q 2128 388 2347 550 
Q 2566 713 2694 1069 
z
M 847 1978 
L 2700 1978 
Q 2663 2397 2488 2606 
Q 2219 2931 1791 2931 
Q 1403 2931 1139 2672 
Q 875 2413 847 1978 
z
" transform="scale(0.015625)"/>
       <path id="ArialMT-64" d="M 2575 0 
L 2575 419 
Q 2259 -75 1647 -75 
Q 1250 -75 917 144 
Q 584 363 401 755 
Q 219 1147 219 1656 
Q 219 2153 384 2558 
Q 550 2963 881 3178 
Q 1213 3394 1622 3394 
Q 1922 3394 2156 3267 
Q 2391 3141 2538 2938 
L 2538 4581 
L 3097 4581 
L 3097 0 
L 2575 0 
z
M 797 1656 
Q 797 1019 1065 703 
Q 1334 388 1700 388 
Q 2069 388 2326 689 
Q 2584 991 2584 1609 
Q 2584 2291 2321 2609 
Q 2059 2928 1675 2928 
Q 1300 2928 1048 2622 
Q 797 2316 797 1656 
z
" transform="scale(0.015625)"/>
       <path id="ArialMT-20" transform="scale(0.015625)"/>
       <path id="ArialMT-52" d="M 503 0 
L 503 4581 
L 2534 4581 
Q 3147 4581 3465 4457 
Q 3784 4334 3975 4021 
Q 4166 3709 4166 3331 
Q 4166 2844 3850 2509 
Q 3534 2175 2875 2084 
Q 3116 1969 3241 1856 
Q 3506 1613 3744 1247 
L 4541 0 
L 3778 0 
L 3172 953 
Q 2906 1366 2734 1584 
Q 2563 1803 2427 1890 
Q 2291 1978 2150 2013 
Q 2047 2034 1813 2034 
L 1109 2034 
L 1109 0 
L 503 0 
z
M 1109 2559 
L 2413 2559 
Q 2828 2559 3062 2645 
Q 3297 2731 3419 2920 
Q 3541 3109 3541 3331 
Q 3541 3656 3305 3865 
Q 3069 4075 2559 4075 
L 1109 4075 
L 1109 2559 
z
" transform="scale(0.015625)"/>
       <path id="ArialMT-75" d="M 2597 0 
L 2597 488 
Q 2209 -75 1544 -75 
Q 1250 -75 995 37 
Q 741 150 617 320 
Q 494 491 444 738 
Q 409 903 409 1263 
L 409 3319 
L 972 3319 
L 972 1478 
Q 972 1038 1006 884 
Q 1059 663 1231 536 
Q 1403 409 1656 409 
Q 1909 409 2131 539 
Q 2353 669 2445 892 
Q 2538 1116 2538 1541 
L 2538 3319 
L 3100 3319 
L 3100 0 
L 2597 0 
z
" transform="scale(0.015625)"/>
       <path id="ArialMT-62" d="M 941 0 
L 419 0 
L 419 4581 
L 981 4581 
L 981 2947 
Q 1338 3394 1891 3394 
Q 2197 3394 2470 3270 
Q 2744 3147 2920 2923 
Q 3097 2700 3197 2384 
Q 3297 2069 3297 1709 
Q 3297 856 2875 390 
Q 2453 -75 1863 -75 
Q 1275 -75 941 416 
L 941 0 
z
M 934 1684 
Q 934 1088 1097 822 
Q 1363 388 1816 388 
Q 2184 388 2453 708 
Q 2722 1028 2722 1663 
Q 2722 2313 2464 2622 
Q 2206 2931 1841 2931 
Q 1472 2931 1203 2611 
Q 934 2291 934 1684 
z
" transform="scale(0.015625)"/>
       <path id="ArialMT-79" d="M 397 -1278 
L 334 -750 
Q 519 -800 656 -800 
Q 844 -800 956 -737 
Q 1069 -675 1141 -563 
Q 1194 -478 1313 -144 
Q 1328 -97 1363 -6 
L 103 3319 
L 709 3319 
L 1400 1397 
Q 1534 1031 1641 628 
Q 1738 1016 1872 1384 
L 2581 3319 
L 3144 3319 
L 1881 -56 
Q 1678 -603 1566 -809 
Q 1416 -1088 1222 -1217 
Q 1028 -1347 759 -1347 
Q 597 -1347 397 -1278 
z
" transform="scale(0.015625)"/>
       <path id="ArialMT-32" d="M 3222 541 
L 3222 0 
L 194 0 
Q 188 203 259 391 
Q 375 700 629 1000 
Q 884 1300 1366 1694 
Q 2113 2306 2375 2664 
Q 2638 3022 2638 3341 
Q 2638 3675 2398 3904 
Q 2159 4134 1775 4134 
Q 1369 4134 1125 3890 
Q 881 3647 878 3216 
L 300 3275 
Q 359 3922 746 4261 
Q 1134 4600 1788 4600 
Q 2447 4600 2831 4234 
Q 3216 3869 3216 3328 
Q 3216 3053 3103 2787 
Q 2991 2522 2730 2228 
Q 2469 1934 1863 1422 
Q 1356 997 1212 845 
Q 1069 694 975 541 
L 3222 541 
z
" transform="scale(0.015625)"/>
       <path id="ArialMT-2b" d="M 1603 741 
L 1603 1997 
L 356 1997 
L 356 2522 
L 1603 2522 
L 1603 3769 
L 2134 3769 
L 2134 2522 
L 3381 2522 
L 3381 1997 
L 2134 1997 
L 2134 741 
L 1603 741 
z
" transform="scale(0.015625)"/>
       <path id="ArialMT-4d" d="M 475 0 
L 475 4581 
L 1388 4581 
L 2472 1338 
Q 2622 884 2691 659 
Q 2769 909 2934 1394 
L 4031 4581 
L 4847 4581 
L 4847 0 
L 4263 0 
L 4263 3834 
L 2931 0 
L 2384 0 
L 1059 3900 
L 1059 0 
L 475 0 
z
" transform="scale(0.015625)"/>
       <path id="ArialMT-46" d="M 525 0 
L 525 4581 
L 3616 4581 
L 3616 4041 
L 1131 4041 
L 1131 2622 
L 3281 2622 
L 3281 2081 
L 1131 2081 
L 1131 0 
L 525 0 
z
" transform="scale(0.015625)"/>
       <path id="ArialMT-49" d="M 597 0 
L 597 4581 
L 1203 4581 
L 1203 0 
L 597 0 
z
" transform="scale(0.015625)"/>
       <path id="ArialMT-28" d="M 1497 -1347 
Q 1031 -759 709 28 
Q 388 816 388 1659 
Q 388 2403 628 3084 
Q 909 3875 1497 4659 
L 1900 4659 
Q 1522 4009 1400 3731 
Q 1209 3300 1100 2831 
Q 966 2247 966 1656 
Q 966 153 1900 -1347 
L 1497 -1347 
z
" transform="scale(0.015625)"/>
       <path id="ArialMT-29" d="M 791 -1347 
L 388 -1347 
Q 1322 153 1322 1656 
Q 1322 2244 1188 2822 
Q 1081 3291 891 3722 
Q 769 4003 388 4659 
L 791 4659 
Q 1378 3875 1659 3084 
Q 1900 2403 1900 1659 
Q 1900 816 1576 28 
Q 1253 -759 791 -1347 
z
" transform="scale(0.015625)"/>
      </defs>
      <use xlink:href="#ArialMT-4e"/>
      <use xlink:href="#ArialMT-6f" transform="translate(72.216797 0)"/>
      <use xlink:href="#ArialMT-72" transform="translate(127.832031 0)"/>
      <use xlink:href="#ArialMT-6d" transform="translate(161.132812 0)"/>
      <use xlink:href="#ArialMT-61" transform="translate(244.433594 0)"/>
      <use xlink:href="#ArialMT-6c" transform="translate(300.048828 0)"/>
      <use xlink:href="#ArialMT-69" transform="translate(322.265625 0)"/>
      <use xlink:href="#ArialMT-7a" transform="translate(344.482422 0)"/>
      <use xlink:href="#ArialMT-65" transform="translate(394.482422 0)"/>
      <use xlink:href="#ArialMT-64" transform="translate(450.097656 0)"/>
      <use xlink:href="#ArialMT-20" transform="translate(505.712891 0)"/>
      <use xlink:href="#ArialMT-6d" transform="translate(533.496094 0)"/>
      <use xlink:href="#ArialMT-52" transform="translate(616.796875 0)"/>
      <use xlink:href="#ArialMT-75" transform="translate(689.013672 0)"/>
      <use xlink:href="#ArialMT-62" transform="translate(744.628906 0)"/>
      <use xlink:href="#ArialMT-79" transform="translate(800.244141 0)"/>
      <use xlink:href="#ArialMT-32" transform="translate(850.244141 0)"/>
      <use xlink:href="#ArialMT-2b" transform="translate(905.859375 0)"/>
      <use xlink:href="#ArialMT-20" transform="translate(964.257812 0)"/>
      <use xlink:href="#ArialMT-4d" transform="translate(992.041016 0)"/>
      <use xlink:href="#ArialMT-46" transform="translate(1075.341797 0)"/>
      <use xlink:href="#ArialMT-49" transform="translate(1136.425781 0)"/>
      <use xlink:href="#ArialMT-20" transform="translate(1164.208984 0)"/>
      <use xlink:href="#ArialMT-28" transform="translate(1191.992188 0)"/>
      <use xlink:href="#ArialMT-79" transform="translate(1225.292969 0)"/>
      <use xlink:href="#ArialMT-69" transform="translate(1275.292969 0)"/>
      <use xlink:href="#ArialMT-65" transform="translate(1297.509766 0)"/>
      <use xlink:href="#ArialMT-6c" transform="translate(1353.125 0)"/>
      <use xlink:href="#ArialMT-64" transform="translate(1375.341797 0)"/>
      <use xlink:href="#ArialMT-29" transform="translate(1430.957031 0)"/>
     </g>
    </g>
   </g>
   <g id="matplotlib.axis_2">
    <g id="ytick_1">
     <g id="line2d_4">
      <defs>
       <path id="m3a1422da1e" d="M 0 0 
L -6 0 
" style="stroke: #262626; stroke-width: 1.25"/>
      </defs>
      <g>
       <use xlink:href="#m3a1422da1e" x="43.2" y="160.763231" style="fill: #262626; stroke: #262626; stroke-width: 1.25"/>
      </g>
     </g>
     <g id="text_5">
      <!-- 0 -->
      <g style="fill: #262626" transform="translate(27.582969 164.700028) scale(0.11 -0.11)">
       <use xlink:href="#ArialMT-30"/>
      </g>
     </g>
    </g>
    <g id="ytick_2">
     <g id="line2d_5">
      <g>
       <use xlink:href="#m3a1422da1e" x="43.2" y="127.195524" style="fill: #262626; stroke: #262626; stroke-width: 1.25"/>
      </g>
     </g>
     <g id="text_6">
      <!-- 100 -->
      <g style="fill: #262626" transform="translate(15.348906 131.132321) scale(0.11 -0.11)">
       <use xlink:href="#ArialMT-31"/>
       <use xlink:href="#ArialMT-30" transform="translate(55.615234 0)"/>
       <use xlink:href="#ArialMT-30" transform="translate(111.230469 0)"/>
      </g>
     </g>
    </g>
    <g id="ytick_3">
     <g id="line2d_6">
      <g>
       <use xlink:href="#m3a1422da1e" x="43.2" y="93.627817" style="fill: #262626; stroke: #262626; stroke-width: 1.25"/>
      </g>
     </g>
     <g id="text_7">
      <!-- 200 -->
      <g style="fill: #262626" transform="translate(15.348906 97.564614) scale(0.11 -0.11)">
       <use xlink:href="#ArialMT-32"/>
       <use xlink:href="#ArialMT-30" transform="translate(55.615234 0)"/>
       <use xlink:href="#ArialMT-30" transform="translate(111.230469 0)"/>
      </g>
     </g>
    </g>
    <g id="ytick_4">
     <g id="line2d_7">
      <g>
       <use xlink:href="#m3a1422da1e" x="43.2" y="60.06011" style="fill: #262626; stroke: #262626; stroke-width: 1.25"/>
      </g>
     </g>
     <g id="text_8">
      <!-- 300 -->
      <g style="fill: #262626" transform="translate(15.348906 63.996907) scale(0.11 -0.11)">
       <defs>
        <path id="ArialMT-33" d="M 269 1209 
L 831 1284 
Q 928 806 1161 595 
Q 1394 384 1728 384 
Q 2125 384 2398 659 
Q 2672 934 2672 1341 
Q 2672 1728 2419 1979 
Q 2166 2231 1775 2231 
Q 1616 2231 1378 2169 
L 1441 2663 
Q 1497 2656 1531 2656 
Q 1891 2656 2178 2843 
Q 2466 3031 2466 3422 
Q 2466 3731 2256 3934 
Q 2047 4138 1716 4138 
Q 1388 4138 1169 3931 
Q 950 3725 888 3313 
L 325 3413 
Q 428 3978 793 4289 
Q 1159 4600 1703 4600 
Q 2078 4600 2393 4439 
Q 2709 4278 2876 4000 
Q 3044 3722 3044 3409 
Q 3044 3113 2884 2869 
Q 2725 2625 2413 2481 
Q 2819 2388 3044 2092 
Q 3269 1797 3269 1353 
Q 3269 753 2831 336 
Q 2394 -81 1725 -81 
Q 1122 -81 723 278 
Q 325 638 269 1209 
z
" transform="scale(0.015625)"/>
       </defs>
       <use xlink:href="#ArialMT-33"/>
       <use xlink:href="#ArialMT-30" transform="translate(55.615234 0)"/>
       <use xlink:href="#ArialMT-30" transform="translate(111.230469 0)"/>
      </g>
     </g>
    </g>
    <g id="ytick_5">
     <g id="line2d_8">
      <g>
       <use xlink:href="#m3a1422da1e" x="43.2" y="26.492404" style="fill: #262626; stroke: #262626; stroke-width: 1.25"/>
      </g>
     </g>
     <g id="text_9">
      <!-- 400 -->
      <g style="fill: #262626" transform="translate(15.348906 30.429201) scale(0.11 -0.11)">
       <defs>
        <path id="ArialMT-34" d="M 2069 0 
L 2069 1097 
L 81 1097 
L 81 1613 
L 2172 4581 
L 2631 4581 
L 2631 1613 
L 3250 1613 
L 3250 1097 
L 2631 1097 
L 2631 0 
L 2069 0 
z
M 2069 1613 
L 2069 3678 
L 634 1613 
L 2069 1613 
z
" transform="scale(0.015625)"/>
       </defs>
       <use xlink:href="#ArialMT-34"/>
       <use xlink:href="#ArialMT-30" transform="translate(55.615234 0)"/>
       <use xlink:href="#ArialMT-30" transform="translate(111.230469 0)"/>
      </g>
     </g>
    </g>
    <g id="text_10">
     <!-- (%) iMN yield -->
     <g style="fill: #262626" transform="translate(-3.868969 127.468125) rotate(-90) scale(0.12 -0.12)">
      <defs>
       <path id="ArialMT-25" d="M 372 3481 
Q 372 3972 619 4315 
Q 866 4659 1334 4659 
Q 1766 4659 2048 4351 
Q 2331 4044 2331 3447 
Q 2331 2866 2045 2552 
Q 1759 2238 1341 2238 
Q 925 2238 648 2547 
Q 372 2856 372 3481 
z
M 1350 4272 
Q 1141 4272 1002 4090 
Q 863 3909 863 3425 
Q 863 2984 1003 2804 
Q 1144 2625 1350 2625 
Q 1563 2625 1702 2806 
Q 1841 2988 1841 3469 
Q 1841 3913 1700 4092 
Q 1559 4272 1350 4272 
z
M 1353 -169 
L 3859 4659 
L 4316 4659 
L 1819 -169 
L 1353 -169 
z
M 3334 1075 
Q 3334 1569 3581 1911 
Q 3828 2253 4300 2253 
Q 4731 2253 5014 1945 
Q 5297 1638 5297 1041 
Q 5297 459 5011 145 
Q 4725 -169 4303 -169 
Q 3888 -169 3611 142 
Q 3334 453 3334 1075 
z
M 4316 1866 
Q 4103 1866 3964 1684 
Q 3825 1503 3825 1019 
Q 3825 581 3965 400 
Q 4106 219 4313 219 
Q 4528 219 4667 400 
Q 4806 581 4806 1063 
Q 4806 1506 4665 1686 
Q 4525 1866 4316 1866 
z
" transform="scale(0.015625)"/>
      </defs>
      <use xlink:href="#ArialMT-28"/>
      <use xlink:href="#ArialMT-25" transform="translate(33.300781 0)"/>
      <use xlink:href="#ArialMT-29" transform="translate(122.216797 0)"/>
      <use xlink:href="#ArialMT-20" transform="translate(155.517578 0)"/>
      <use xlink:href="#ArialMT-69" transform="translate(183.300781 0)"/>
      <use xlink:href="#ArialMT-4d" transform="translate(205.517578 0)"/>
      <use xlink:href="#ArialMT-4e" transform="translate(288.818359 0)"/>
      <use xlink:href="#ArialMT-20" transform="translate(361.035156 0)"/>
      <use xlink:href="#ArialMT-79" transform="translate(388.818359 0)"/>
      <use xlink:href="#ArialMT-69" transform="translate(438.818359 0)"/>
      <use xlink:href="#ArialMT-65" transform="translate(461.035156 0)"/>
      <use xlink:href="#ArialMT-6c" transform="translate(516.650391 0)"/>
      <use xlink:href="#ArialMT-64" transform="translate(538.867188 0)"/>
     </g>
     <!-- per MEF plated -->
     <g style="fill: #262626" transform="translate(8.963906 132.815625) rotate(-90) scale(0.12 -0.12)">
      <defs>
       <path id="ArialMT-70" d="M 422 -1272 
L 422 3319 
L 934 3319 
L 934 2888 
Q 1116 3141 1344 3267 
Q 1572 3394 1897 3394 
Q 2322 3394 2647 3175 
Q 2972 2956 3137 2557 
Q 3303 2159 3303 1684 
Q 3303 1175 3120 767 
Q 2938 359 2589 142 
Q 2241 -75 1856 -75 
Q 1575 -75 1351 44 
Q 1128 163 984 344 
L 984 -1272 
L 422 -1272 
z
M 931 1641 
Q 931 1000 1190 694 
Q 1450 388 1819 388 
Q 2194 388 2461 705 
Q 2728 1022 2728 1688 
Q 2728 2322 2467 2637 
Q 2206 2953 1844 2953 
Q 1484 2953 1207 2617 
Q 931 2281 931 1641 
z
" transform="scale(0.015625)"/>
       <path id="ArialMT-45" d="M 506 0 
L 506 4581 
L 3819 4581 
L 3819 4041 
L 1113 4041 
L 1113 2638 
L 3647 2638 
L 3647 2100 
L 1113 2100 
L 1113 541 
L 3925 541 
L 3925 0 
L 506 0 
z
" transform="scale(0.015625)"/>
       <path id="ArialMT-74" d="M 1650 503 
L 1731 6 
Q 1494 -44 1306 -44 
Q 1000 -44 831 53 
Q 663 150 594 308 
Q 525 466 525 972 
L 525 2881 
L 113 2881 
L 113 3319 
L 525 3319 
L 525 4141 
L 1084 4478 
L 1084 3319 
L 1650 3319 
L 1650 2881 
L 1084 2881 
L 1084 941 
Q 1084 700 1114 631 
Q 1144 563 1211 522 
Q 1278 481 1403 481 
Q 1497 481 1650 503 
z
" transform="scale(0.015625)"/>
      </defs>
      <use xlink:href="#ArialMT-70"/>
      <use xlink:href="#ArialMT-65" transform="translate(55.615234 0)"/>
      <use xlink:href="#ArialMT-72" transform="translate(111.230469 0)"/>
      <use xlink:href="#ArialMT-20" transform="translate(144.53125 0)"/>
      <use xlink:href="#ArialMT-4d" transform="translate(172.314453 0)"/>
      <use xlink:href="#ArialMT-45" transform="translate(255.615234 0)"/>
      <use xlink:href="#ArialMT-46" transform="translate(322.314453 0)"/>
      <use xlink:href="#ArialMT-20" transform="translate(383.398438 0)"/>
      <use xlink:href="#ArialMT-70" transform="translate(411.181641 0)"/>
      <use xlink:href="#ArialMT-6c" transform="translate(466.796875 0)"/>
      <use xlink:href="#ArialMT-61" transform="translate(489.013672 0)"/>
      <use xlink:href="#ArialMT-74" transform="translate(544.628906 0)"/>
      <use xlink:href="#ArialMT-65" transform="translate(572.412109 0)"/>
      <use xlink:href="#ArialMT-64" transform="translate(628.027344 0)"/>
     </g>
    </g>
   </g>
   <g id="FillBetweenPolyCollection_1"/>
   <g id="FillBetweenPolyCollection_2"/>
   <g id="FillBetweenPolyCollection_3"/>
   <g id="FillBetweenPolyCollection_4"/>
   <g id="FillBetweenPolyCollection_5"/>
   <g id="FillBetweenPolyCollection_6"/>
   <g id="FillBetweenPolyCollection_7"/>
   <g id="FillBetweenPolyCollection_8"/>
   <g id="PathCollection_1"/>
   <g id="PathCollection_2"/>
   <g id="PathCollection_3"/>
   <g id="PathCollection_4"/>
   <g id="PathCollection_5"/>
   <g id="PathCollection_6"/>
   <g id="PathCollection_7"/>
   <g id="PathCollection_8"/>
   <g id="PathCollection_9"/>
   <g id="PathCollection_10"/>
   <g id="PathCollection_11"/>
   <g id="PathCollection_12"/>
   <g id="PathCollection_13"/>
   <g id="LineCollection_1">
    <path d="M 70.826169 154.606913 
L 74.902861 154.606913 
" clip-path="url(#p7fb5d62ac7)" style="fill: none; stroke: #808080; stroke-width: 0.7"/>
    <path d="M 112.767146 115.552005 
L 115.524993 115.552005 
" clip-path="url(#p7fb5d62ac7)" style="fill: none; stroke: #808080; stroke-width: 0.7"/>
    <path d="M 121.794653 109.010778 
L 124.720295 109.010778 
" clip-path="url(#p7fb5d62ac7)" style="fill: none; stroke: #808080; stroke-width: 0.7"/>
    <path d="M 50.563636 153.226162 
L 52.253215 153.226162 
" clip-path="url(#p7fb5d62ac7)" style="fill: none; stroke: #808080; stroke-width: 0.7"/>
    <path d="M 101.462933 125.946805 
L 104.551831 125.946805 
" clip-path="url(#p7fb5d62ac7)" style="fill: none; stroke: #808080; stroke-width: 0.7"/>
    <path d="M 124.666646 71.530196 
L 127.290287 71.530196 
" clip-path="url(#p7fb5d62ac7)" style="fill: none; stroke: #808080; stroke-width: 0.7"/>
    <path d="M 126.552876 95.956297 
L 127.973973 95.956297 
" clip-path="url(#p7fb5d62ac7)" style="fill: none; stroke: #808080; stroke-width: 0.7"/>
    <path d="M 107.185497 78.757323 
L 111.90112 78.757323 
" clip-path="url(#p7fb5d62ac7)" style="fill: none; stroke: #808080; stroke-width: 0.7"/>
    <path d="M 127.9039 70.852128 
L 129.996057 70.852128 
" clip-path="url(#p7fb5d62ac7)" style="fill: none; stroke: #808080; stroke-width: 0.7"/>
    <path d="M 128.772764 77.223279 
L 132.316195 77.223279 
" clip-path="url(#p7fb5d62ac7)" style="fill: none; stroke: #808080; stroke-width: 0.7"/>
    <path d="M 132.458794 76.588849 
L 133.731936 76.588849 
" clip-path="url(#p7fb5d62ac7)" style="fill: none; stroke: #808080; stroke-width: 0.7"/>
    <path d="M 119.276134 60.417047 
L 122.030847 60.417047 
" clip-path="url(#p7fb5d62ac7)" style="fill: none; stroke: #808080; stroke-width: 0.7"/>
    <path d="M 75.456783 132.388448 
L 78.962823 132.388448 
" clip-path="url(#p7fb5d62ac7)" style="fill: none; stroke: #808080; stroke-width: 0.7"/>
    <path d="M 127.672267 98.219879 
L 132.128431 98.219879 
" clip-path="url(#p7fb5d62ac7)" style="fill: none; stroke: #808080; stroke-width: 0.7"/>
    <path d="M 122.06842 86.49468 
L 125.557877 86.49468 
" clip-path="url(#p7fb5d62ac7)" style="fill: none; stroke: #808080; stroke-width: 0.7"/>
    <path d="M 91.926063 142.653453 
L 93.341309 142.653453 
" clip-path="url(#p7fb5d62ac7)" style="fill: none; stroke: #808080; stroke-width: 0.7"/>
    <path d="M 102.076019 126.830755 
L 108.969511 126.830755 
" clip-path="url(#p7fb5d62ac7)" style="fill: none; stroke: #808080; stroke-width: 0.7"/>
    <path d="M 142.778067 105.175108 
L 149.469107 105.175108 
" clip-path="url(#p7fb5d62ac7)" style="fill: none; stroke: #808080; stroke-width: 0.7"/>
    <path d="M 139.24348 114.402871 
L 142.961926 114.402871 
" clip-path="url(#p7fb5d62ac7)" style="fill: none; stroke: #808080; stroke-width: 0.7"/>
    <path d="M 95.701046 115.534103 
L 97.520397 115.534103 
" clip-path="url(#p7fb5d62ac7)" style="fill: none; stroke: #808080; stroke-width: 0.7"/>
    <path d="M 120.195095 35.168537 
L 129.297131 35.168537 
" clip-path="url(#p7fb5d62ac7)" style="fill: none; stroke: #808080; stroke-width: 0.7"/>
    <path d="M 148.199327 106.322005 
L 155.185328 106.322005 
" clip-path="url(#p7fb5d62ac7)" style="fill: none; stroke: #808080; stroke-width: 0.7"/>
    <path d="M 136.849323 101.735537 
L 144.129802 101.735537 
" clip-path="url(#p7fb5d62ac7)" style="fill: none; stroke: #808080; stroke-width: 0.7"/>
    <path d="M 137.3847 84.96623 
L 141.627944 84.96623 
" clip-path="url(#p7fb5d62ac7)" style="fill: none; stroke: #808080; stroke-width: 0.7"/>
    <path d="M 115.86547 72.943396 
L 123.490332 72.943396 
" clip-path="url(#p7fb5d62ac7)" style="fill: none; stroke: #808080; stroke-width: 0.7"/>
    <path d="M 154.655292 121.899659 
L 156.320546 121.899659 
" clip-path="url(#p7fb5d62ac7)" style="fill: none; stroke: #808080; stroke-width: 0.7"/>
    <path d="M 161.058753 127.387979 
L 166.238845 127.387979 
" clip-path="url(#p7fb5d62ac7)" style="fill: none; stroke: #808080; stroke-width: 0.7"/>
    <path d="M 105.416834 101.802673 
L 108.585901 101.802673 
" clip-path="url(#p7fb5d62ac7)" style="fill: none; stroke: #808080; stroke-width: 0.7"/>
    <path d="M 124.702426 39.844519 
L 131.138105 39.844519 
" clip-path="url(#p7fb5d62ac7)" style="fill: none; stroke: #808080; stroke-width: 0.7"/>
    <path d="M 163.467965 113.315277 
L 171.336345 113.315277 
" clip-path="url(#p7fb5d62ac7)" style="fill: none; stroke: #808080; stroke-width: 0.7"/>
    <path d="M 155.104276 117.222558 
L 164.590444 117.222558 
" clip-path="url(#p7fb5d62ac7)" style="fill: none; stroke: #808080; stroke-width: 0.7"/>
    <path d="M 158.169644 106.089269 
L 168.412144 106.089269 
" clip-path="url(#p7fb5d62ac7)" style="fill: none; stroke: #808080; stroke-width: 0.7"/>
    <path d="M 191.580976 116.948422 
L 196.787579 116.948422 
" clip-path="url(#p7fb5d62ac7)" style="fill: none; stroke: #808080; stroke-width: 0.7"/>
    <path d="M 179.748859 124.26842 
L 186.763703 124.26842 
" clip-path="url(#p7fb5d62ac7)" style="fill: none; stroke: #808080; stroke-width: 0.7"/>
    <path d="M 192.08665 125.405246 
L 197.836364 125.405246 
" clip-path="url(#p7fb5d62ac7)" style="fill: none; stroke: #808080; stroke-width: 0.7"/>
    <path d="M 130.473603 70.966258 
L 131.693323 70.966258 
" clip-path="url(#p7fb5d62ac7)" style="fill: none; stroke: #808080; stroke-width: 0.7"/>
    <path d="M 122.8694 92.165384 
L 131.262651 92.165384 
" clip-path="url(#p7fb5d62ac7)" style="fill: none; stroke: #808080; stroke-width: 0.7"/>
    <path d="M 183.212147 135.355833 
L 187.123366 135.355833 
" clip-path="url(#p7fb5d62ac7)" style="fill: none; stroke: #808080; stroke-width: 0.7"/>
    <path d="M 183.095083 130.337461 
L 195.050472 130.337461 
" clip-path="url(#p7fb5d62ac7)" style="fill: none; stroke: #808080; stroke-width: 0.7"/>
    <path d="M 127.643951 82.911886 
L 138.077821 82.911886 
" clip-path="url(#p7fb5d62ac7)" style="fill: none; stroke: #808080; stroke-width: 0.7"/>
   </g>
   <g id="LineCollection_2">
    <path d="M 72.864515 155.618182 
L 72.864515 153.595645 
" clip-path="url(#p7fb5d62ac7)" style="fill: none; stroke: #808080; stroke-width: 0.7"/>
    <path d="M 114.146069 118.146873 
L 114.146069 112.957138 
" clip-path="url(#p7fb5d62ac7)" style="fill: none; stroke: #808080; stroke-width: 0.7"/>
    <path d="M 123.257474 128.637595 
L 123.257474 89.383961 
" clip-path="url(#p7fb5d62ac7)" style="fill: none; stroke: #808080; stroke-width: 0.7"/>
    <path d="M 51.408426 154.428675 
L 51.408426 152.023648 
" clip-path="url(#p7fb5d62ac7)" style="fill: none; stroke: #808080; stroke-width: 0.7"/>
    <path d="M 103.007382 127.355091 
L 103.007382 124.53852 
" clip-path="url(#p7fb5d62ac7)" style="fill: none; stroke: #808080; stroke-width: 0.7"/>
    <path d="M 125.978467 82.647871 
L 125.978467 60.412521 
" clip-path="url(#p7fb5d62ac7)" style="fill: none; stroke: #808080; stroke-width: 0.7"/>
    <path d="M 127.263425 98.817712 
L 127.263425 93.094883 
" clip-path="url(#p7fb5d62ac7)" style="fill: none; stroke: #808080; stroke-width: 0.7"/>
    <path d="M 109.543308 82.480272 
L 109.543308 75.034374 
" clip-path="url(#p7fb5d62ac7)" style="fill: none; stroke: #808080; stroke-width: 0.7"/>
    <path d="M 128.949978 78.387732 
L 128.949978 63.316525 
" clip-path="url(#p7fb5d62ac7)" style="fill: none; stroke: #808080; stroke-width: 0.7"/>
    <path d="M 130.54448 80.106276 
L 130.54448 74.340282 
" clip-path="url(#p7fb5d62ac7)" style="fill: none; stroke: #808080; stroke-width: 0.7"/>
    <path d="M 133.095365 79.904089 
L 133.095365 73.27361 
" clip-path="url(#p7fb5d62ac7)" style="fill: none; stroke: #808080; stroke-width: 0.7"/>
    <path d="M 120.65349 67.527644 
L 120.65349 53.306451 
" clip-path="url(#p7fb5d62ac7)" style="fill: none; stroke: #808080; stroke-width: 0.7"/>
    <path d="M 77.209803 136.776043 
L 77.209803 128.000854 
" clip-path="url(#p7fb5d62ac7)" style="fill: none; stroke: #808080; stroke-width: 0.7"/>
    <path d="M 129.900349 103.675906 
L 129.900349 92.763853 
" clip-path="url(#p7fb5d62ac7)" style="fill: none; stroke: #808080; stroke-width: 0.7"/>
    <path d="M 123.813148 90.331985 
L 123.813148 82.657374 
" clip-path="url(#p7fb5d62ac7)" style="fill: none; stroke: #808080; stroke-width: 0.7"/>
    <path d="M 92.633686 143.790883 
L 92.633686 141.516023 
" clip-path="url(#p7fb5d62ac7)" style="fill: none; stroke: #808080; stroke-width: 0.7"/>
    <path d="M 105.522765 129.262148 
L 105.522765 124.399362 
" clip-path="url(#p7fb5d62ac7)" style="fill: none; stroke: #808080; stroke-width: 0.7"/>
    <path d="M 146.123587 106.379431 
L 146.123587 103.970785 
" clip-path="url(#p7fb5d62ac7)" style="fill: none; stroke: #808080; stroke-width: 0.7"/>
    <path d="M 141.102703 114.764661 
L 141.102703 114.041081 
" clip-path="url(#p7fb5d62ac7)" style="fill: none; stroke: #808080; stroke-width: 0.7"/>
    <path d="M 96.610721 116.506734 
L 96.610721 114.561471 
" clip-path="url(#p7fb5d62ac7)" style="fill: none; stroke: #808080; stroke-width: 0.7"/>
    <path d="M 124.746113 42.355256 
L 124.746113 27.981818 
" clip-path="url(#p7fb5d62ac7)" style="fill: none; stroke: #808080; stroke-width: 0.7"/>
    <path d="M 151.692328 109.044003 
L 151.692328 103.600007 
" clip-path="url(#p7fb5d62ac7)" style="fill: none; stroke: #808080; stroke-width: 0.7"/>
    <path d="M 140.489562 107.844865 
L 140.489562 95.62621 
" clip-path="url(#p7fb5d62ac7)" style="fill: none; stroke: #808080; stroke-width: 0.7"/>
    <path d="M 139.506322 86.472625 
L 139.506322 83.459835 
" clip-path="url(#p7fb5d62ac7)" style="fill: none; stroke: #808080; stroke-width: 0.7"/>
    <path d="M 119.677901 75.912005 
L 119.677901 69.974788 
" clip-path="url(#p7fb5d62ac7)" style="fill: none; stroke: #808080; stroke-width: 0.7"/>
    <path d="M 155.487919 124.834387 
L 155.487919 118.964931 
" clip-path="url(#p7fb5d62ac7)" style="fill: none; stroke: #808080; stroke-width: 0.7"/>
    <path d="M 163.648799 129.554977 
L 163.648799 125.220981 
" clip-path="url(#p7fb5d62ac7)" style="fill: none; stroke: #808080; stroke-width: 0.7"/>
    <path d="M 107.001368 107.107096 
L 107.001368 96.498249 
" clip-path="url(#p7fb5d62ac7)" style="fill: none; stroke: #808080; stroke-width: 0.7"/>
    <path d="M 127.920266 44.019475 
L 127.920266 35.669562 
" clip-path="url(#p7fb5d62ac7)" style="fill: none; stroke: #808080; stroke-width: 0.7"/>
    <path d="M 167.402155 117.15153 
L 167.402155 109.479024 
" clip-path="url(#p7fb5d62ac7)" style="fill: none; stroke: #808080; stroke-width: 0.7"/>
    <path d="M 159.84736 121.427674 
L 159.84736 113.017442 
" clip-path="url(#p7fb5d62ac7)" style="fill: none; stroke: #808080; stroke-width: 0.7"/>
    <path d="M 163.290894 109.246247 
L 163.290894 102.932291 
" clip-path="url(#p7fb5d62ac7)" style="fill: none; stroke: #808080; stroke-width: 0.7"/>
    <path d="M 194.184278 120.031962 
L 194.184278 113.864882 
" clip-path="url(#p7fb5d62ac7)" style="fill: none; stroke: #808080; stroke-width: 0.7"/>
    <path d="M 183.256281 127.621114 
L 183.256281 120.915726 
" clip-path="url(#p7fb5d62ac7)" style="fill: none; stroke: #808080; stroke-width: 0.7"/>
    <path d="M 194.961507 129.137702 
L 194.961507 121.67279 
" clip-path="url(#p7fb5d62ac7)" style="fill: none; stroke: #808080; stroke-width: 0.7"/>
    <path d="M 131.083463 75.946599 
L 131.083463 65.985918 
" clip-path="url(#p7fb5d62ac7)" style="fill: none; stroke: #808080; stroke-width: 0.7"/>
    <path d="M 127.066026 94.331158 
L 127.066026 89.99961 
" clip-path="url(#p7fb5d62ac7)" style="fill: none; stroke: #808080; stroke-width: 0.7"/>
    <path d="M 185.167757 138.619886 
L 185.167757 132.091781 
" clip-path="url(#p7fb5d62ac7)" style="fill: none; stroke: #808080; stroke-width: 0.7"/>
    <path d="M 189.072777 130.64413 
L 189.072777 130.030793 
" clip-path="url(#p7fb5d62ac7)" style="fill: none; stroke: #808080; stroke-width: 0.7"/>
    <path d="M 132.860886 86.91307 
L 132.860886 78.910703 
" clip-path="url(#p7fb5d62ac7)" style="fill: none; stroke: #808080; stroke-width: 0.7"/>
   </g>
   <g id="line2d_9">
    <defs>
     <path id="m93fd5126fa" d="M 0 2 
L 0 -2 
" style="stroke: #808080; stroke-width: 0.7"/>
    </defs>
    <g clip-path="url(#p7fb5d62ac7)">
     <use xlink:href="#m93fd5126fa" x="70.826169" y="154.606913" style="fill: #808080; stroke: #808080; stroke-width: 0.7"/>
     <use xlink:href="#m93fd5126fa" x="112.767146" y="115.552005" style="fill: #808080; stroke: #808080; stroke-width: 0.7"/>
     <use xlink:href="#m93fd5126fa" x="121.794653" y="109.010778" style="fill: #808080; stroke: #808080; stroke-width: 0.7"/>
     <use xlink:href="#m93fd5126fa" x="50.563636" y="153.226162" style="fill: #808080; stroke: #808080; stroke-width: 0.7"/>
     <use xlink:href="#m93fd5126fa" x="101.462933" y="125.946805" style="fill: #808080; stroke: #808080; stroke-width: 0.7"/>
     <use xlink:href="#m93fd5126fa" x="124.666646" y="71.530196" style="fill: #808080; stroke: #808080; stroke-width: 0.7"/>
     <use xlink:href="#m93fd5126fa" x="126.552876" y="95.956297" style="fill: #808080; stroke: #808080; stroke-width: 0.7"/>
     <use xlink:href="#m93fd5126fa" x="107.185497" y="78.757323" style="fill: #808080; stroke: #808080; stroke-width: 0.7"/>
     <use xlink:href="#m93fd5126fa" x="127.9039" y="70.852128" style="fill: #808080; stroke: #808080; stroke-width: 0.7"/>
     <use xlink:href="#m93fd5126fa" x="128.772764" y="77.223279" style="fill: #808080; stroke: #808080; stroke-width: 0.7"/>
     <use xlink:href="#m93fd5126fa" x="132.458794" y="76.588849" style="fill: #808080; stroke: #808080; stroke-width: 0.7"/>
     <use xlink:href="#m93fd5126fa" x="119.276134" y="60.417047" style="fill: #808080; stroke: #808080; stroke-width: 0.7"/>
     <use xlink:href="#m93fd5126fa" x="75.456783" y="132.388448" style="fill: #808080; stroke: #808080; stroke-width: 0.7"/>
     <use xlink:href="#m93fd5126fa" x="127.672267" y="98.219879" style="fill: #808080; stroke: #808080; stroke-width: 0.7"/>
     <use xlink:href="#m93fd5126fa" x="122.06842" y="86.49468" style="fill: #808080; stroke: #808080; stroke-width: 0.7"/>
     <use xlink:href="#m93fd5126fa" x="91.926063" y="142.653453" style="fill: #808080; stroke: #808080; stroke-width: 0.7"/>
     <use xlink:href="#m93fd5126fa" x="102.076019" y="126.830755" style="fill: #808080; stroke: #808080; stroke-width: 0.7"/>
     <use xlink:href="#m93fd5126fa" x="142.778067" y="105.175108" style="fill: #808080; stroke: #808080; stroke-width: 0.7"/>
     <use xlink:href="#m93fd5126fa" x="139.24348" y="114.402871" style="fill: #808080; stroke: #808080; stroke-width: 0.7"/>
     <use xlink:href="#m93fd5126fa" x="95.701046" y="115.534103" style="fill: #808080; stroke: #808080; stroke-width: 0.7"/>
     <use xlink:href="#m93fd5126fa" x="120.195095" y="35.168537" style="fill: #808080; stroke: #808080; stroke-width: 0.7"/>
     <use xlink:href="#m93fd5126fa" x="148.199327" y="106.322005" style="fill: #808080; stroke: #808080; stroke-width: 0.7"/>
     <use xlink:href="#m93fd5126fa" x="136.849323" y="101.735537" style="fill: #808080; stroke: #808080; stroke-width: 0.7"/>
     <use xlink:href="#m93fd5126fa" x="137.3847" y="84.96623" style="fill: #808080; stroke: #808080; stroke-width: 0.7"/>
     <use xlink:href="#m93fd5126fa" x="115.86547" y="72.943396" style="fill: #808080; stroke: #808080; stroke-width: 0.7"/>
     <use xlink:href="#m93fd5126fa" x="154.655292" y="121.899659" style="fill: #808080; stroke: #808080; stroke-width: 0.7"/>
     <use xlink:href="#m93fd5126fa" x="161.058753" y="127.387979" style="fill: #808080; stroke: #808080; stroke-width: 0.7"/>
     <use xlink:href="#m93fd5126fa" x="105.416834" y="101.802673" style="fill: #808080; stroke: #808080; stroke-width: 0.7"/>
     <use xlink:href="#m93fd5126fa" x="124.702426" y="39.844519" style="fill: #808080; stroke: #808080; stroke-width: 0.7"/>
     <use xlink:href="#m93fd5126fa" x="163.467965" y="113.315277" style="fill: #808080; stroke: #808080; stroke-width: 0.7"/>
     <use xlink:href="#m93fd5126fa" x="155.104276" y="117.222558" style="fill: #808080; stroke: #808080; stroke-width: 0.7"/>
     <use xlink:href="#m93fd5126fa" x="158.169644" y="106.089269" style="fill: #808080; stroke: #808080; stroke-width: 0.7"/>
     <use xlink:href="#m93fd5126fa" x="191.580976" y="116.948422" style="fill: #808080; stroke: #808080; stroke-width: 0.7"/>
     <use xlink:href="#m93fd5126fa" x="179.748859" y="124.26842" style="fill: #808080; stroke: #808080; stroke-width: 0.7"/>
     <use xlink:href="#m93fd5126fa" x="192.08665" y="125.405246" style="fill: #808080; stroke: #808080; stroke-width: 0.7"/>
     <use xlink:href="#m93fd5126fa" x="130.473603" y="70.966258" style="fill: #808080; stroke: #808080; stroke-width: 0.7"/>
     <use xlink:href="#m93fd5126fa" x="122.8694" y="92.165384" style="fill: #808080; stroke: #808080; stroke-width: 0.7"/>
     <use xlink:href="#m93fd5126fa" x="183.212147" y="135.355833" style="fill: #808080; stroke: #808080; stroke-width: 0.7"/>
     <use xlink:href="#m93fd5126fa" x="183.095083" y="130.337461" style="fill: #808080; stroke: #808080; stroke-width: 0.7"/>
     <use xlink:href="#m93fd5126fa" x="127.643951" y="82.911886" style="fill: #808080; stroke: #808080; stroke-width: 0.7"/>
    </g>
   </g>
   <g id="line2d_10">
    <g clip-path="url(#p7fb5d62ac7)">
     <use xlink:href="#m93fd5126fa" x="74.902861" y="154.606913" style="fill: #808080; stroke: #808080; stroke-width: 0.7"/>
     <use xlink:href="#m93fd5126fa" x="115.524993" y="115.552005" style="fill: #808080; stroke: #808080; stroke-width: 0.7"/>
     <use xlink:href="#m93fd5126fa" x="124.720295" y="109.010778" style="fill: #808080; stroke: #808080; stroke-width: 0.7"/>
     <use xlink:href="#m93fd5126fa" x="52.253215" y="153.226162" style="fill: #808080; stroke: #808080; stroke-width: 0.7"/>
     <use xlink:href="#m93fd5126fa" x="104.551831" y="125.946805" style="fill: #808080; stroke: #808080; stroke-width: 0.7"/>
     <use xlink:href="#m93fd5126fa" x="127.290287" y="71.530196" style="fill: #808080; stroke: #808080; stroke-width: 0.7"/>
     <use xlink:href="#m93fd5126fa" x="127.973973" y="95.956297" style="fill: #808080; stroke: #808080; stroke-width: 0.7"/>
     <use xlink:href="#m93fd5126fa" x="111.90112" y="78.757323" style="fill: #808080; stroke: #808080; stroke-width: 0.7"/>
     <use xlink:href="#m93fd5126fa" x="129.996057" y="70.852128" style="fill: #808080; stroke: #808080; stroke-width: 0.7"/>
     <use xlink:href="#m93fd5126fa" x="132.316195" y="77.223279" style="fill: #808080; stroke: #808080; stroke-width: 0.7"/>
     <use xlink:href="#m93fd5126fa" x="133.731936" y="76.588849" style="fill: #808080; stroke: #808080; stroke-width: 0.7"/>
     <use xlink:href="#m93fd5126fa" x="122.030847" y="60.417047" style="fill: #808080; stroke: #808080; stroke-width: 0.7"/>
     <use xlink:href="#m93fd5126fa" x="78.962823" y="132.388448" style="fill: #808080; stroke: #808080; stroke-width: 0.7"/>
     <use xlink:href="#m93fd5126fa" x="132.128431" y="98.219879" style="fill: #808080; stroke: #808080; stroke-width: 0.7"/>
     <use xlink:href="#m93fd5126fa" x="125.557877" y="86.49468" style="fill: #808080; stroke: #808080; stroke-width: 0.7"/>
     <use xlink:href="#m93fd5126fa" x="93.341309" y="142.653453" style="fill: #808080; stroke: #808080; stroke-width: 0.7"/>
     <use xlink:href="#m93fd5126fa" x="108.969511" y="126.830755" style="fill: #808080; stroke: #808080; stroke-width: 0.7"/>
     <use xlink:href="#m93fd5126fa" x="149.469107" y="105.175108" style="fill: #808080; stroke: #808080; stroke-width: 0.7"/>
     <use xlink:href="#m93fd5126fa" x="142.961926" y="114.402871" style="fill: #808080; stroke: #808080; stroke-width: 0.7"/>
     <use xlink:href="#m93fd5126fa" x="97.520397" y="115.534103" style="fill: #808080; stroke: #808080; stroke-width: 0.7"/>
     <use xlink:href="#m93fd5126fa" x="129.297131" y="35.168537" style="fill: #808080; stroke: #808080; stroke-width: 0.7"/>
     <use xlink:href="#m93fd5126fa" x="155.185328" y="106.322005" style="fill: #808080; stroke: #808080; stroke-width: 0.7"/>
     <use xlink:href="#m93fd5126fa" x="144.129802" y="101.735537" style="fill: #808080; stroke: #808080; stroke-width: 0.7"/>
     <use xlink:href="#m93fd5126fa" x="141.627944" y="84.96623" style="fill: #808080; stroke: #808080; stroke-width: 0.7"/>
     <use xlink:href="#m93fd5126fa" x="123.490332" y="72.943396" style="fill: #808080; stroke: #808080; stroke-width: 0.7"/>
     <use xlink:href="#m93fd5126fa" x="156.320546" y="121.899659" style="fill: #808080; stroke: #808080; stroke-width: 0.7"/>
     <use xlink:href="#m93fd5126fa" x="166.238845" y="127.387979" style="fill: #808080; stroke: #808080; stroke-width: 0.7"/>
     <use xlink:href="#m93fd5126fa" x="108.585901" y="101.802673" style="fill: #808080; stroke: #808080; stroke-width: 0.7"/>
     <use xlink:href="#m93fd5126fa" x="131.138105" y="39.844519" style="fill: #808080; stroke: #808080; stroke-width: 0.7"/>
     <use xlink:href="#m93fd5126fa" x="171.336345" y="113.315277" style="fill: #808080; stroke: #808080; stroke-width: 0.7"/>
     <use xlink:href="#m93fd5126fa" x="164.590444" y="117.222558" style="fill: #808080; stroke: #808080; stroke-width: 0.7"/>
     <use xlink:href="#m93fd5126fa" x="168.412144" y="106.089269" style="fill: #808080; stroke: #808080; stroke-width: 0.7"/>
     <use xlink:href="#m93fd5126fa" x="196.787579" y="116.948422" style="fill: #808080; stroke: #808080; stroke-width: 0.7"/>
     <use xlink:href="#m93fd5126fa" x="186.763703" y="124.26842" style="fill: #808080; stroke: #808080; stroke-width: 0.7"/>
     <use xlink:href="#m93fd5126fa" x="197.836364" y="125.405246" style="fill: #808080; stroke: #808080; stroke-width: 0.7"/>
     <use xlink:href="#m93fd5126fa" x="131.693323" y="70.966258" style="fill: #808080; stroke: #808080; stroke-width: 0.7"/>
     <use xlink:href="#m93fd5126fa" x="131.262651" y="92.165384" style="fill: #808080; stroke: #808080; stroke-width: 0.7"/>
     <use xlink:href="#m93fd5126fa" x="187.123366" y="135.355833" style="fill: #808080; stroke: #808080; stroke-width: 0.7"/>
     <use xlink:href="#m93fd5126fa" x="195.050472" y="130.337461" style="fill: #808080; stroke: #808080; stroke-width: 0.7"/>
     <use xlink:href="#m93fd5126fa" x="138.077821" y="82.911886" style="fill: #808080; stroke: #808080; stroke-width: 0.7"/>
    </g>
   </g>
   <g id="line2d_11">
    <defs>
     <path id="mee5d09656a" d="M 2 0 
L -2 -0 
" style="stroke: #808080; stroke-width: 0.7"/>
    </defs>
    <g clip-path="url(#p7fb5d62ac7)">
     <use xlink:href="#mee5d09656a" x="72.864515" y="155.618182" style="fill: #808080; stroke: #808080; stroke-width: 0.7"/>
     <use xlink:href="#mee5d09656a" x="114.146069" y="118.146873" style="fill: #808080; stroke: #808080; stroke-width: 0.7"/>
     <use xlink:href="#mee5d09656a" x="123.257474" y="128.637595" style="fill: #808080; stroke: #808080; stroke-width: 0.7"/>
     <use xlink:href="#mee5d09656a" x="51.408426" y="154.428675" style="fill: #808080; stroke: #808080; stroke-width: 0.7"/>
     <use xlink:href="#mee5d09656a" x="103.007382" y="127.355091" style="fill: #808080; stroke: #808080; stroke-width: 0.7"/>
     <use xlink:href="#mee5d09656a" x="125.978467" y="82.647871" style="fill: #808080; stroke: #808080; stroke-width: 0.7"/>
     <use xlink:href="#mee5d09656a" x="127.263425" y="98.817712" style="fill: #808080; stroke: #808080; stroke-width: 0.7"/>
     <use xlink:href="#mee5d09656a" x="109.543308" y="82.480272" style="fill: #808080; stroke: #808080; stroke-width: 0.7"/>
     <use xlink:href="#mee5d09656a" x="128.949978" y="78.387732" style="fill: #808080; stroke: #808080; stroke-width: 0.7"/>
     <use xlink:href="#mee5d09656a" x="130.54448" y="80.106276" style="fill: #808080; stroke: #808080; stroke-width: 0.7"/>
     <use xlink:href="#mee5d09656a" x="133.095365" y="79.904089" style="fill: #808080; stroke: #808080; stroke-width: 0.7"/>
     <use xlink:href="#mee5d09656a" x="120.65349" y="67.527644" style="fill: #808080; stroke: #808080; stroke-width: 0.7"/>
     <use xlink:href="#mee5d09656a" x="77.209803" y="136.776043" style="fill: #808080; stroke: #808080; stroke-width: 0.7"/>
     <use xlink:href="#mee5d09656a" x="129.900349" y="103.675906" style="fill: #808080; stroke: #808080; stroke-width: 0.7"/>
     <use xlink:href="#mee5d09656a" x="123.813148" y="90.331985" style="fill: #808080; stroke: #808080; stroke-width: 0.7"/>
     <use xlink:href="#mee5d09656a" x="92.633686" y="143.790883" style="fill: #808080; stroke: #808080; stroke-width: 0.7"/>
     <use xlink:href="#mee5d09656a" x="105.522765" y="129.262148" style="fill: #808080; stroke: #808080; stroke-width: 0.7"/>
     <use xlink:href="#mee5d09656a" x="146.123587" y="106.379431" style="fill: #808080; stroke: #808080; stroke-width: 0.7"/>
     <use xlink:href="#mee5d09656a" x="141.102703" y="114.764661" style="fill: #808080; stroke: #808080; stroke-width: 0.7"/>
     <use xlink:href="#mee5d09656a" x="96.610721" y="116.506734" style="fill: #808080; stroke: #808080; stroke-width: 0.7"/>
     <use xlink:href="#mee5d09656a" x="124.746113" y="42.355256" style="fill: #808080; stroke: #808080; stroke-width: 0.7"/>
     <use xlink:href="#mee5d09656a" x="151.692328" y="109.044003" style="fill: #808080; stroke: #808080; stroke-width: 0.7"/>
     <use xlink:href="#mee5d09656a" x="140.489562" y="107.844865" style="fill: #808080; stroke: #808080; stroke-width: 0.7"/>
     <use xlink:href="#mee5d09656a" x="139.506322" y="86.472625" style="fill: #808080; stroke: #808080; stroke-width: 0.7"/>
     <use xlink:href="#mee5d09656a" x="119.677901" y="75.912005" style="fill: #808080; stroke: #808080; stroke-width: 0.7"/>
     <use xlink:href="#mee5d09656a" x="155.487919" y="124.834387" style="fill: #808080; stroke: #808080; stroke-width: 0.7"/>
     <use xlink:href="#mee5d09656a" x="163.648799" y="129.554977" style="fill: #808080; stroke: #808080; stroke-width: 0.7"/>
     <use xlink:href="#mee5d09656a" x="107.001368" y="107.107096" style="fill: #808080; stroke: #808080; stroke-width: 0.7"/>
     <use xlink:href="#mee5d09656a" x="127.920266" y="44.019475" style="fill: #808080; stroke: #808080; stroke-width: 0.7"/>
     <use xlink:href="#mee5d09656a" x="167.402155" y="117.15153" style="fill: #808080; stroke: #808080; stroke-width: 0.7"/>
     <use xlink:href="#mee5d09656a" x="159.84736" y="121.427674" style="fill: #808080; stroke: #808080; stroke-width: 0.7"/>
     <use xlink:href="#mee5d09656a" x="163.290894" y="109.246247" style="fill: #808080; stroke: #808080; stroke-width: 0.7"/>
     <use xlink:href="#mee5d09656a" x="194.184278" y="120.031962" style="fill: #808080; stroke: #808080; stroke-width: 0.7"/>
     <use xlink:href="#mee5d09656a" x="183.256281" y="127.621114" style="fill: #808080; stroke: #808080; stroke-width: 0.7"/>
     <use xlink:href="#mee5d09656a" x="194.961507" y="129.137702" style="fill: #808080; stroke: #808080; stroke-width: 0.7"/>
     <use xlink:href="#mee5d09656a" x="131.083463" y="75.946599" style="fill: #808080; stroke: #808080; stroke-width: 0.7"/>
     <use xlink:href="#mee5d09656a" x="127.066026" y="94.331158" style="fill: #808080; stroke: #808080; stroke-width: 0.7"/>
     <use xlink:href="#mee5d09656a" x="185.167757" y="138.619886" style="fill: #808080; stroke: #808080; stroke-width: 0.7"/>
     <use xlink:href="#mee5d09656a" x="189.072777" y="130.64413" style="fill: #808080; stroke: #808080; stroke-width: 0.7"/>
     <use xlink:href="#mee5d09656a" x="132.860886" y="86.91307" style="fill: #808080; stroke: #808080; stroke-width: 0.7"/>
    </g>
   </g>
   <g id="line2d_12">
    <g clip-path="url(#p7fb5d62ac7)">
     <use xlink:href="#mee5d09656a" x="72.864515" y="153.595645" style="fill: #808080; stroke: #808080; stroke-width: 0.7"/>
     <use xlink:href="#mee5d09656a" x="114.146069" y="112.957138" style="fill: #808080; stroke: #808080; stroke-width: 0.7"/>
     <use xlink:href="#mee5d09656a" x="123.257474" y="89.383961" style="fill: #808080; stroke: #808080; stroke-width: 0.7"/>
     <use xlink:href="#mee5d09656a" x="51.408426" y="152.023648" style="fill: #808080; stroke: #808080; stroke-width: 0.7"/>
     <use xlink:href="#mee5d09656a" x="103.007382" y="124.53852" style="fill: #808080; stroke: #808080; stroke-width: 0.7"/>
     <use xlink:href="#mee5d09656a" x="125.978467" y="60.412521" style="fill: #808080; stroke: #808080; stroke-width: 0.7"/>
     <use xlink:href="#mee5d09656a" x="127.263425" y="93.094883" style="fill: #808080; stroke: #808080; stroke-width: 0.7"/>
     <use xlink:href="#mee5d09656a" x="109.543308" y="75.034374" style="fill: #808080; stroke: #808080; stroke-width: 0.7"/>
     <use xlink:href="#mee5d09656a" x="128.949978" y="63.316525" style="fill: #808080; stroke: #808080; stroke-width: 0.7"/>
     <use xlink:href="#mee5d09656a" x="130.54448" y="74.340282" style="fill: #808080; stroke: #808080; stroke-width: 0.7"/>
     <use xlink:href="#mee5d09656a" x="133.095365" y="73.27361" style="fill: #808080; stroke: #808080; stroke-width: 0.7"/>
     <use xlink:href="#mee5d09656a" x="120.65349" y="53.306451" style="fill: #808080; stroke: #808080; stroke-width: 0.7"/>
     <use xlink:href="#mee5d09656a" x="77.209803" y="128.000854" style="fill: #808080; stroke: #808080; stroke-width: 0.7"/>
     <use xlink:href="#mee5d09656a" x="129.900349" y="92.763853" style="fill: #808080; stroke: #808080; stroke-width: 0.7"/>
     <use xlink:href="#mee5d09656a" x="123.813148" y="82.657374" style="fill: #808080; stroke: #808080; stroke-width: 0.7"/>
     <use xlink:href="#mee5d09656a" x="92.633686" y="141.516023" style="fill: #808080; stroke: #808080; stroke-width: 0.7"/>
     <use xlink:href="#mee5d09656a" x="105.522765" y="124.399362" style="fill: #808080; stroke: #808080; stroke-width: 0.7"/>
     <use xlink:href="#mee5d09656a" x="146.123587" y="103.970785" style="fill: #808080; stroke: #808080; stroke-width: 0.7"/>
     <use xlink:href="#mee5d09656a" x="141.102703" y="114.041081" style="fill: #808080; stroke: #808080; stroke-width: 0.7"/>
     <use xlink:href="#mee5d09656a" x="96.610721" y="114.561471" style="fill: #808080; stroke: #808080; stroke-width: 0.7"/>
     <use xlink:href="#mee5d09656a" x="124.746113" y="27.981818" style="fill: #808080; stroke: #808080; stroke-width: 0.7"/>
     <use xlink:href="#mee5d09656a" x="151.692328" y="103.600007" style="fill: #808080; stroke: #808080; stroke-width: 0.7"/>
     <use xlink:href="#mee5d09656a" x="140.489562" y="95.62621" style="fill: #808080; stroke: #808080; stroke-width: 0.7"/>
     <use xlink:href="#mee5d09656a" x="139.506322" y="83.459835" style="fill: #808080; stroke: #808080; stroke-width: 0.7"/>
     <use xlink:href="#mee5d09656a" x="119.677901" y="69.974788" style="fill: #808080; stroke: #808080; stroke-width: 0.7"/>
     <use xlink:href="#mee5d09656a" x="155.487919" y="118.964931" style="fill: #808080; stroke: #808080; stroke-width: 0.7"/>
     <use xlink:href="#mee5d09656a" x="163.648799" y="125.220981" style="fill: #808080; stroke: #808080; stroke-width: 0.7"/>
     <use xlink:href="#mee5d09656a" x="107.001368" y="96.498249" style="fill: #808080; stroke: #808080; stroke-width: 0.7"/>
     <use xlink:href="#mee5d09656a" x="127.920266" y="35.669562" style="fill: #808080; stroke: #808080; stroke-width: 0.7"/>
     <use xlink:href="#mee5d09656a" x="167.402155" y="109.479024" style="fill: #808080; stroke: #808080; stroke-width: 0.7"/>
     <use xlink:href="#mee5d09656a" x="159.84736" y="113.017442" style="fill: #808080; stroke: #808080; stroke-width: 0.7"/>
     <use xlink:href="#mee5d09656a" x="163.290894" y="102.932291" style="fill: #808080; stroke: #808080; stroke-width: 0.7"/>
     <use xlink:href="#mee5d09656a" x="194.184278" y="113.864882" style="fill: #808080; stroke: #808080; stroke-width: 0.7"/>
     <use xlink:href="#mee5d09656a" x="183.256281" y="120.915726" style="fill: #808080; stroke: #808080; stroke-width: 0.7"/>
     <use xlink:href="#mee5d09656a" x="194.961507" y="121.67279" style="fill: #808080; stroke: #808080; stroke-width: 0.7"/>
     <use xlink:href="#mee5d09656a" x="131.083463" y="65.985918" style="fill: #808080; stroke: #808080; stroke-width: 0.7"/>
     <use xlink:href="#mee5d09656a" x="127.066026" y="89.99961" style="fill: #808080; stroke: #808080; stroke-width: 0.7"/>
     <use xlink:href="#mee5d09656a" x="185.167757" y="132.091781" style="fill: #808080; stroke: #808080; stroke-width: 0.7"/>
     <use xlink:href="#mee5d09656a" x="189.072777" y="130.030793" style="fill: #808080; stroke: #808080; stroke-width: 0.7"/>
     <use xlink:href="#mee5d09656a" x="132.860886" y="78.910703" style="fill: #808080; stroke: #808080; stroke-width: 0.7"/>
    </g>
   </g>
   <g id="line2d_13">
    <path d="M 72.864515 154.606913 
L 92.633686 142.653453 
L 105.522765 126.830755 
L 119.677901 72.943396 
L 132.860886 82.911886 
" clip-path="url(#p7fb5d62ac7)" style="fill: none; stroke: #50a37f; stroke-width: 1.5; stroke-linecap: round"/>
   </g>
   <g id="line2d_14">
    <path d="M 103.007382 125.946805 
L 120.65349 60.417047 
L 124.746113 35.168537 
L 127.920266 39.844519 
L 131.083463 70.966258 
" clip-path="url(#p7fb5d62ac7)" style="fill: none; stroke: #74c7c4; stroke-width: 1.5; stroke-linecap: round"/>
   </g>
   <g id="line2d_15">
    <path d="M 114.146069 115.552005 
L 123.813148 86.49468 
L 146.123587 105.175108 
L 155.487919 121.899659 
L 189.072777 130.337461 
" clip-path="url(#p7fb5d62ac7)" style="fill: none; stroke: #4674b9; stroke-width: 1.5; stroke-linecap: round"/>
   </g>
   <g id="line2d_16">
    <path d="M 125.978467 71.530196 
L 133.095365 76.588849 
L 151.692328 106.322005 
L 167.402155 113.315277 
L 194.961507 125.405246 
" clip-path="url(#p7fb5d62ac7)" style="fill: none; stroke: #cc75ad; stroke-width: 1.5; stroke-linecap: round"/>
   </g>
   <g id="line2d_17">
    <path d="M 123.257474 109.010778 
L 129.900349 98.219879 
L 141.102703 114.402871 
L 163.648799 127.387979 
L 185.167757 135.355833 
" clip-path="url(#p7fb5d62ac7)" style="fill: none; stroke: #ee7776; stroke-width: 1.5; stroke-linecap: round"/>
   </g>
   <g id="line2d_18">
    <path d="M 127.263425 95.956297 
L 130.54448 77.223279 
L 140.489562 101.735537 
L 159.84736 117.222558 
L 183.256281 124.26842 
" clip-path="url(#p7fb5d62ac7)" style="fill: none; stroke: #e4bd67; stroke-width: 1.5; stroke-linecap: round"/>
   </g>
   <g id="line2d_19">
    <path d="M 51.408426 153.226162 
L 77.209803 132.388448 
L 96.610721 115.534103 
L 107.001368 101.802673 
L 127.066026 92.165384 
" clip-path="url(#p7fb5d62ac7)" style="fill: none; stroke: #987cb1; stroke-width: 1.5; stroke-linecap: round"/>
   </g>
   <g id="line2d_20">
    <path d="M 109.543308 78.757323 
L 128.949978 70.852128 
L 139.506322 84.96623 
L 163.290894 106.089269 
L 194.184278 116.948422 
" clip-path="url(#p7fb5d62ac7)" style="fill: none; stroke: #707070; stroke-width: 1.5; stroke-linecap: round"/>
   </g>
   <g id="line2d_21"/>
   <g id="patch_3">
    <path d="M 43.2 162 
L 43.2 21.6 
" style="fill: none; stroke: #262626; stroke-width: 1.25; stroke-linejoin: miter; stroke-linecap: square"/>
   </g>
   <g id="patch_4">
    <path d="M 205.2 162 
L 205.2 21.6 
" style="fill: none; stroke: #262626; stroke-width: 1.25; stroke-linejoin: miter; stroke-linecap: square"/>
   </g>
   <g id="patch_5">
    <path d="M 43.2 162 
L 205.2 162 
" style="fill: none; stroke: #262626; stroke-width: 1.25; stroke-linejoin: miter; stroke-linecap: square"/>
   </g>
   <g id="patch_6">
    <path d="M 43.2 21.6 
L 205.2 21.6 
" style="fill: none; stroke: #262626; stroke-width: 1.25; stroke-linejoin: miter; stroke-linecap: square"/>
   </g>
   <g id="PathCollection_14">
    <path d="M 72.864515 149.606913 
L 67.864515 159.606913 
L 77.864515 159.606913 
z
" clip-path="url(#p7fb5d62ac7)" style="fill: #50a37f; stroke: #ffffff; stroke-width: 0.8"/>
    <path d="M 114.146069 110.552005 
L 109.146069 120.552005 
L 119.146069 120.552005 
z
" clip-path="url(#p7fb5d62ac7)" style="fill: #4674b9; stroke: #ffffff; stroke-width: 0.8"/>
    <path d="M 123.257474 104.010778 
L 118.257474 114.010778 
L 128.257474 114.010778 
z
" clip-path="url(#p7fb5d62ac7)" style="fill: #ee7776; stroke: #ffffff; stroke-width: 0.8"/>
    <path d="M 51.408426 148.226162 
L 46.408426 158.226162 
L 56.408426 158.226162 
z
" clip-path="url(#p7fb5d62ac7)" style="fill: #987cb1; stroke: #ffffff; stroke-width: 0.8"/>
    <path d="M 103.007382 120.946805 
L 98.007382 130.946805 
L 108.007382 130.946805 
z
" clip-path="url(#p7fb5d62ac7)" style="fill: #74c7c4; stroke: #ffffff; stroke-width: 0.8"/>
    <path d="M 125.978467 66.530196 
L 120.978467 76.530196 
L 130.978467 76.530196 
z
" clip-path="url(#p7fb5d62ac7)" style="fill: #cc75ad; stroke: #ffffff; stroke-width: 0.8"/>
    <path d="M 127.263425 90.956297 
L 122.263425 100.956297 
L 132.263425 100.956297 
z
" clip-path="url(#p7fb5d62ac7)" style="fill: #e4bd67; stroke: #ffffff; stroke-width: 0.8"/>
    <path d="M 109.543308 73.757323 
L 104.543308 83.757323 
L 114.543308 83.757323 
z
" clip-path="url(#p7fb5d62ac7)" style="fill: #707070; stroke: #ffffff; stroke-width: 0.8"/>
    <path d="M 126.449978 75.852128 
L 128.949978 73.352128 
L 131.449978 75.852128 
L 133.949978 73.352128 
L 131.449978 70.852128 
L 133.949978 68.352128 
L 131.449978 65.852128 
L 128.949978 68.352128 
L 126.449978 65.852128 
L 123.949978 68.352128 
L 126.449978 70.852128 
L 123.949978 73.352128 
z
" clip-path="url(#p7fb5d62ac7)" style="fill: #707070; stroke: #ffffff; stroke-width: 0.8"/>
    <path d="M 128.04448 82.223279 
L 130.54448 79.723279 
L 133.04448 82.223279 
L 135.54448 79.723279 
L 133.04448 77.223279 
L 135.54448 74.723279 
L 133.04448 72.223279 
L 130.54448 74.723279 
L 128.04448 72.223279 
L 125.54448 74.723279 
L 128.04448 77.223279 
L 125.54448 79.723279 
z
" clip-path="url(#p7fb5d62ac7)" style="fill: #e4bd67; stroke: #ffffff; stroke-width: 0.8"/>
    <path d="M 130.595365 81.588849 
L 133.095365 79.088849 
L 135.595365 81.588849 
L 138.095365 79.088849 
L 135.595365 76.588849 
L 138.095365 74.088849 
L 135.595365 71.588849 
L 133.095365 74.088849 
L 130.595365 71.588849 
L 128.095365 74.088849 
L 130.595365 76.588849 
L 128.095365 79.088849 
z
" clip-path="url(#p7fb5d62ac7)" style="fill: #cc75ad; stroke: #ffffff; stroke-width: 0.8"/>
    <path d="M 118.15349 65.417047 
L 120.65349 62.917047 
L 123.15349 65.417047 
L 125.65349 62.917047 
L 123.15349 60.417047 
L 125.65349 57.917047 
L 123.15349 55.417047 
L 120.65349 57.917047 
L 118.15349 55.417047 
L 115.65349 57.917047 
L 118.15349 60.417047 
L 115.65349 62.917047 
z
" clip-path="url(#p7fb5d62ac7)" style="fill: #74c7c4; stroke: #ffffff; stroke-width: 0.8"/>
    <path d="M 74.709803 137.388448 
L 77.209803 134.888448 
L 79.709803 137.388448 
L 82.209803 134.888448 
L 79.709803 132.388448 
L 82.209803 129.888448 
L 79.709803 127.388448 
L 77.209803 129.888448 
L 74.709803 127.388448 
L 72.209803 129.888448 
L 74.709803 132.388448 
L 72.209803 134.888448 
z
" clip-path="url(#p7fb5d62ac7)" style="fill: #987cb1; stroke: #ffffff; stroke-width: 0.8"/>
    <path d="M 127.400349 103.219879 
L 129.900349 100.719879 
L 132.400349 103.219879 
L 134.900349 100.719879 
L 132.400349 98.219879 
L 134.900349 95.719879 
L 132.400349 93.219879 
L 129.900349 95.719879 
L 127.400349 93.219879 
L 124.900349 95.719879 
L 127.400349 98.219879 
L 124.900349 100.719879 
z
" clip-path="url(#p7fb5d62ac7)" style="fill: #ee7776; stroke: #ffffff; stroke-width: 0.8"/>
    <path d="M 121.313148 91.49468 
L 123.813148 88.99468 
L 126.313148 91.49468 
L 128.813148 88.99468 
L 126.313148 86.49468 
L 128.813148 83.99468 
L 126.313148 81.49468 
L 123.813148 83.99468 
L 121.313148 81.49468 
L 118.813148 83.99468 
L 121.313148 86.49468 
L 118.813148 88.99468 
z
" clip-path="url(#p7fb5d62ac7)" style="fill: #4674b9; stroke: #ffffff; stroke-width: 0.8"/>
    <path d="M 90.133686 147.653453 
L 92.633686 145.153453 
L 95.133686 147.653453 
L 97.633686 145.153453 
L 95.133686 142.653453 
L 97.633686 140.153453 
L 95.133686 137.653453 
L 92.633686 140.153453 
L 90.133686 137.653453 
L 87.633686 140.153453 
L 90.133686 142.653453 
L 87.633686 145.153453 
z
" clip-path="url(#p7fb5d62ac7)" style="fill: #50a37f; stroke: #ffffff; stroke-width: 0.8"/>
    <path d="M 105.522765 133.901823 
L 109.765406 126.830755 
L 105.522765 119.759687 
L 101.280124 126.830755 
z
" clip-path="url(#p7fb5d62ac7)" style="fill: #50a37f; stroke: #ffffff; stroke-width: 0.8"/>
    <path d="M 146.123587 112.246176 
L 150.366227 105.175108 
L 146.123587 98.10404 
L 141.880946 105.175108 
z
" clip-path="url(#p7fb5d62ac7)" style="fill: #4674b9; stroke: #ffffff; stroke-width: 0.8"/>
    <path d="M 141.102703 121.473939 
L 145.345343 114.402871 
L 141.102703 107.331803 
L 136.860062 114.402871 
z
" clip-path="url(#p7fb5d62ac7)" style="fill: #ee7776; stroke: #ffffff; stroke-width: 0.8"/>
    <path d="M 96.610721 122.60517 
L 100.853362 115.534103 
L 96.610721 108.463035 
L 92.36808 115.534103 
z
" clip-path="url(#p7fb5d62ac7)" style="fill: #987cb1; stroke: #ffffff; stroke-width: 0.8"/>
    <path d="M 124.746113 42.239605 
L 128.988754 35.168537 
L 124.746113 28.097469 
L 120.503472 35.168537 
z
" clip-path="url(#p7fb5d62ac7)" style="fill: #74c7c4; stroke: #ffffff; stroke-width: 0.8"/>
    <path d="M 151.692328 113.393073 
L 155.934968 106.322005 
L 151.692328 99.250937 
L 147.449687 106.322005 
z
" clip-path="url(#p7fb5d62ac7)" style="fill: #cc75ad; stroke: #ffffff; stroke-width: 0.8"/>
    <path d="M 140.489562 108.806605 
L 144.732203 101.735537 
L 140.489562 94.664469 
L 136.246922 101.735537 
z
" clip-path="url(#p7fb5d62ac7)" style="fill: #e4bd67; stroke: #ffffff; stroke-width: 0.8"/>
    <path d="M 139.506322 92.037298 
L 143.748963 84.96623 
L 139.506322 77.895162 
L 135.263681 84.96623 
z
" clip-path="url(#p7fb5d62ac7)" style="fill: #707070; stroke: #ffffff; stroke-width: 0.8"/>
    <path d="M 119.677901 77.943396 
C 121.003917 77.943396 122.2758 77.416565 123.213435 76.47893 
C 124.15107 75.541296 124.677901 74.269412 124.677901 72.943396 
C 124.677901 71.617381 124.15107 70.345497 123.213435 69.407862 
C 122.2758 68.470228 121.003917 67.943396 119.677901 67.943396 
C 118.351886 67.943396 117.080002 68.470228 116.142367 69.407862 
C 115.204733 70.345497 114.677901 71.617381 114.677901 72.943396 
C 114.677901 74.269412 115.204733 75.541296 116.142367 76.47893 
C 117.080002 77.416565 118.351886 77.943396 119.677901 77.943396 
z
" clip-path="url(#p7fb5d62ac7)" style="fill: #50a37f; stroke: #ffffff; stroke-width: 0.8"/>
    <path d="M 155.487919 126.899659 
C 156.813934 126.899659 158.085818 126.372827 159.023453 125.435193 
C 159.961087 124.497558 160.487919 123.225674 160.487919 121.899659 
C 160.487919 120.573643 159.961087 119.301759 159.023453 118.364125 
C 158.085818 117.42649 156.813934 116.899659 155.487919 116.899659 
C 154.161903 116.899659 152.89002 117.42649 151.952385 118.364125 
C 151.01475 119.301759 150.487919 120.573643 150.487919 121.899659 
C 150.487919 123.225674 151.01475 124.497558 151.952385 125.435193 
C 152.89002 126.372827 154.161903 126.899659 155.487919 126.899659 
z
" clip-path="url(#p7fb5d62ac7)" style="fill: #4674b9; stroke: #ffffff; stroke-width: 0.8"/>
    <path d="M 163.648799 132.387979 
C 164.974815 132.387979 166.246698 131.861147 167.184333 130.923513 
C 168.121968 129.985878 168.648799 128.713994 168.648799 127.387979 
C 168.648799 126.061963 168.121968 124.790079 167.184333 123.852445 
C 166.246698 122.91481 164.974815 122.387979 163.648799 122.387979 
C 162.322784 122.387979 161.0509 122.91481 160.113265 123.852445 
C 159.175631 124.790079 158.648799 126.061963 158.648799 127.387979 
C 158.648799 128.713994 159.175631 129.985878 160.113265 130.923513 
C 161.0509 131.861147 162.322784 132.387979 163.648799 132.387979 
z
" clip-path="url(#p7fb5d62ac7)" style="fill: #ee7776; stroke: #ffffff; stroke-width: 0.8"/>
    <path d="M 107.001368 106.802673 
C 108.327383 106.802673 109.599267 106.275841 110.536902 105.338207 
C 111.474536 104.400572 112.001368 103.128688 112.001368 101.802673 
C 112.001368 100.476657 111.474536 99.204773 110.536902 98.267139 
C 109.599267 97.329504 108.327383 96.802673 107.001368 96.802673 
C 105.675352 96.802673 104.403469 97.329504 103.465834 98.267139 
C 102.528199 99.204773 102.001368 100.476657 102.001368 101.802673 
C 102.001368 103.128688 102.528199 104.400572 103.465834 105.338207 
C 104.403469 106.275841 105.675352 106.802673 107.001368 106.802673 
z
" clip-path="url(#p7fb5d62ac7)" style="fill: #987cb1; stroke: #ffffff; stroke-width: 0.8"/>
    <path d="M 127.920266 44.844519 
C 129.246281 44.844519 130.518165 44.317687 131.455799 43.380052 
C 132.393434 42.442418 132.920266 41.170534 132.920266 39.844519 
C 132.920266 38.518503 132.393434 37.246619 131.455799 36.308985 
C 130.518165 35.37135 129.246281 34.844519 127.920266 34.844519 
C 126.59425 34.844519 125.322366 35.37135 124.384732 36.308985 
C 123.447097 37.246619 122.920266 38.518503 122.920266 39.844519 
C 122.920266 41.170534 123.447097 42.442418 124.384732 43.380052 
C 125.322366 44.317687 126.59425 44.844519 127.920266 44.844519 
z
" clip-path="url(#p7fb5d62ac7)" style="fill: #74c7c4; stroke: #ffffff; stroke-width: 0.8"/>
    <path d="M 167.402155 118.315277 
C 168.72817 118.315277 170.000054 117.788446 170.937689 116.850811 
C 171.875323 115.913177 172.402155 114.641293 172.402155 113.315277 
C 172.402155 111.989262 171.875323 110.717378 170.937689 109.779743 
C 170.000054 108.842109 168.72817 108.315277 167.402155 108.315277 
C 166.076139 108.315277 164.804255 108.842109 163.866621 109.779743 
C 162.928986 110.717378 162.402155 111.989262 162.402155 113.315277 
C 162.402155 114.641293 162.928986 115.913177 163.866621 116.850811 
C 164.804255 117.788446 166.076139 118.315277 167.402155 118.315277 
z
" clip-path="url(#p7fb5d62ac7)" style="fill: #cc75ad; stroke: #ffffff; stroke-width: 0.8"/>
    <path d="M 159.84736 122.222558 
C 161.173376 122.222558 162.44526 121.695727 163.382894 120.758092 
C 164.320529 119.820458 164.84736 118.548574 164.84736 117.222558 
C 164.84736 115.896543 164.320529 114.624659 163.382894 113.687024 
C 162.44526 112.74939 161.173376 112.222558 159.84736 112.222558 
C 158.521345 112.222558 157.249461 112.74939 156.311826 113.687024 
C 155.374192 114.624659 154.84736 115.896543 154.84736 117.222558 
C 154.84736 118.548574 155.374192 119.820458 156.311826 120.758092 
C 157.249461 121.695727 158.521345 122.222558 159.84736 122.222558 
z
" clip-path="url(#p7fb5d62ac7)" style="fill: #e4bd67; stroke: #ffffff; stroke-width: 0.8"/>
    <path d="M 163.290894 111.089269 
C 164.616909 111.089269 165.888793 110.562437 166.826428 109.624803 
C 167.764062 108.687168 168.290894 107.415284 168.290894 106.089269 
C 168.290894 104.763253 167.764062 103.491369 166.826428 102.553735 
C 165.888793 101.6161 164.616909 101.089269 163.290894 101.089269 
C 161.964878 101.089269 160.692994 101.6161 159.75536 102.553735 
C 158.817725 103.491369 158.290894 104.763253 158.290894 106.089269 
C 158.290894 107.415284 158.817725 108.687168 159.75536 109.624803 
C 160.692994 110.562437 161.964878 111.089269 163.290894 111.089269 
z
" clip-path="url(#p7fb5d62ac7)" style="fill: #707070; stroke: #ffffff; stroke-width: 0.8"/>
    <path d="M 194.184278 121.948422 
L 199.184278 111.948422 
L 189.184278 111.948422 
z
" clip-path="url(#p7fb5d62ac7)" style="fill: #707070; stroke: #ffffff; stroke-width: 0.8"/>
    <path d="M 183.256281 129.26842 
L 188.256281 119.26842 
L 178.256281 119.26842 
z
" clip-path="url(#p7fb5d62ac7)" style="fill: #e4bd67; stroke: #ffffff; stroke-width: 0.8"/>
    <path d="M 194.961507 130.405246 
L 199.961507 120.405246 
L 189.961507 120.405246 
z
" clip-path="url(#p7fb5d62ac7)" style="fill: #cc75ad; stroke: #ffffff; stroke-width: 0.8"/>
    <path d="M 131.083463 75.966258 
L 136.083463 65.966258 
L 126.083463 65.966258 
z
" clip-path="url(#p7fb5d62ac7)" style="fill: #74c7c4; stroke: #ffffff; stroke-width: 0.8"/>
    <path d="M 127.066026 97.165384 
L 132.066026 87.165384 
L 122.066026 87.165384 
z
" clip-path="url(#p7fb5d62ac7)" style="fill: #987cb1; stroke: #ffffff; stroke-width: 0.8"/>
    <path d="M 185.167757 140.355833 
L 190.167757 130.355833 
L 180.167757 130.355833 
z
" clip-path="url(#p7fb5d62ac7)" style="fill: #ee7776; stroke: #ffffff; stroke-width: 0.8"/>
    <path d="M 189.072777 135.337461 
L 194.072777 125.337461 
L 184.072777 125.337461 
z
" clip-path="url(#p7fb5d62ac7)" style="fill: #4674b9; stroke: #ffffff; stroke-width: 0.8"/>
    <path d="M 132.860886 87.911886 
L 137.860886 77.911886 
L 127.860886 77.911886 
z
" clip-path="url(#p7fb5d62ac7)" style="fill: #50a37f; stroke: #ffffff; stroke-width: 0.8"/>
   </g>
   <g id="legend_1">
    <g id="text_11">
     <!-- condition_2 -->
     <g style="fill: #262626" transform="translate(248.5 33.90625) scale(0.11 -0.11)">
      <defs>
       <path id="ArialMT-63" d="M 2588 1216 
L 3141 1144 
Q 3050 572 2676 248 
Q 2303 -75 1759 -75 
Q 1078 -75 664 370 
Q 250 816 250 1647 
Q 250 2184 428 2587 
Q 606 2991 970 3192 
Q 1334 3394 1763 3394 
Q 2303 3394 2647 3120 
Q 2991 2847 3088 2344 
L 2541 2259 
Q 2463 2594 2264 2762 
Q 2066 2931 1784 2931 
Q 1359 2931 1093 2626 
Q 828 2322 828 1663 
Q 828 994 1084 691 
Q 1341 388 1753 388 
Q 2084 388 2306 591 
Q 2528 794 2588 1216 
z
" transform="scale(0.015625)"/>
       <path id="ArialMT-6e" d="M 422 0 
L 422 3319 
L 928 3319 
L 928 2847 
Q 1294 3394 1984 3394 
Q 2284 3394 2536 3286 
Q 2788 3178 2913 3003 
Q 3038 2828 3088 2588 
Q 3119 2431 3119 2041 
L 3119 0 
L 2556 0 
L 2556 2019 
Q 2556 2363 2490 2533 
Q 2425 2703 2258 2804 
Q 2091 2906 1866 2906 
Q 1506 2906 1245 2678 
Q 984 2450 984 1813 
L 984 0 
L 422 0 
z
" transform="scale(0.015625)"/>
       <path id="ArialMT-5f" d="M -97 -1272 
L -97 -866 
L 3631 -866 
L 3631 -1272 
L -97 -1272 
z
" transform="scale(0.015625)"/>
      </defs>
      <use xlink:href="#ArialMT-63"/>
      <use xlink:href="#ArialMT-6f" transform="translate(50 0)"/>
      <use xlink:href="#ArialMT-6e" transform="translate(105.615234 0)"/>
      <use xlink:href="#ArialMT-64" transform="translate(161.230469 0)"/>
      <use xlink:href="#ArialMT-69" transform="translate(216.845703 0)"/>
      <use xlink:href="#ArialMT-74" transform="translate(239.0625 0)"/>
      <use xlink:href="#ArialMT-69" transform="translate(266.845703 0)"/>
      <use xlink:href="#ArialMT-6f" transform="translate(289.0625 0)"/>
      <use xlink:href="#ArialMT-6e" transform="translate(344.677734 0)"/>
      <use xlink:href="#ArialMT-5f" transform="translate(400.292969 0)"/>
      <use xlink:href="#ArialMT-32" transform="translate(455.908203 0)"/>
     </g>
    </g>
    <g id="PathCollection_15">
     <defs>
      <path id="md612bfc2df" d="M 0 3 
C 0.795609 3 1.55874 2.683901 2.12132 2.12132 
C 2.683901 1.55874 3 0.795609 3 0 
C 3 -0.795609 2.683901 -1.55874 2.12132 -2.12132 
C 1.55874 -2.683901 0.795609 -3 0 -3 
C -0.795609 -3 -1.55874 -2.683901 -2.12132 -2.12132 
C -2.683901 -1.55874 -3 -0.795609 -3 0 
C -3 0.795609 -2.683901 1.55874 -2.12132 2.12132 
C -1.55874 2.683901 -0.795609 3 0 3 
z
" style="stroke: #50a37f"/>
     </defs>
     <g>
      <use xlink:href="#md612bfc2df" x="228.7" y="46.578594" style="fill: #50a37f; stroke: #50a37f"/>
     </g>
    </g>
    <g id="text_12">
     <!-- NIL DD, rep A -->
     <g style="fill: #262626" transform="translate(248.5 49.466094) scale(0.11 -0.11)">
      <defs>
       <path id="ArialMT-4c" d="M 469 0 
L 469 4581 
L 1075 4581 
L 1075 541 
L 3331 541 
L 3331 0 
L 469 0 
z
" transform="scale(0.015625)"/>
       <path id="ArialMT-44" d="M 494 0 
L 494 4581 
L 2072 4581 
Q 2606 4581 2888 4516 
Q 3281 4425 3559 4188 
Q 3922 3881 4101 3404 
Q 4281 2928 4281 2316 
Q 4281 1794 4159 1391 
Q 4038 988 3847 723 
Q 3656 459 3429 307 
Q 3203 156 2883 78 
Q 2563 0 2147 0 
L 494 0 
z
M 1100 541 
L 2078 541 
Q 2531 541 2789 625 
Q 3047 709 3200 863 
Q 3416 1078 3536 1442 
Q 3656 1806 3656 2325 
Q 3656 3044 3420 3430 
Q 3184 3816 2847 3947 
Q 2603 4041 2063 4041 
L 1100 4041 
L 1100 541 
z
" transform="scale(0.015625)"/>
       <path id="ArialMT-2c" d="M 569 0 
L 569 641 
L 1209 641 
L 1209 0 
Q 1209 -353 1084 -570 
Q 959 -788 688 -906 
L 531 -666 
Q 709 -588 793 -436 
Q 878 -284 888 0 
L 569 0 
z
" transform="scale(0.015625)"/>
       <path id="ArialMT-41" d="M -9 0 
L 1750 4581 
L 2403 4581 
L 4278 0 
L 3588 0 
L 3053 1388 
L 1138 1388 
L 634 0 
L -9 0 
z
M 1313 1881 
L 2866 1881 
L 2388 3150 
Q 2169 3728 2063 4100 
Q 1975 3659 1816 3225 
L 1313 1881 
z
" transform="scale(0.015625)"/>
      </defs>
      <use xlink:href="#ArialMT-4e"/>
      <use xlink:href="#ArialMT-49" transform="translate(72.216797 0)"/>
      <use xlink:href="#ArialMT-4c" transform="translate(100 0)"/>
      <use xlink:href="#ArialMT-20" transform="translate(151.865234 0)"/>
      <use xlink:href="#ArialMT-44" transform="translate(179.648438 0)"/>
      <use xlink:href="#ArialMT-44" transform="translate(251.865234 0)"/>
      <use xlink:href="#ArialMT-2c" transform="translate(324.082031 0)"/>
      <use xlink:href="#ArialMT-20" transform="translate(351.865234 0)"/>
      <use xlink:href="#ArialMT-72" transform="translate(379.648438 0)"/>
      <use xlink:href="#ArialMT-65" transform="translate(412.949219 0)"/>
      <use xlink:href="#ArialMT-70" transform="translate(468.564453 0)"/>
      <use xlink:href="#ArialMT-20" transform="translate(524.179688 0)"/>
      <use xlink:href="#ArialMT-41" transform="translate(546.462891 0)"/>
     </g>
    </g>
    <g id="PathCollection_16">
     <defs>
      <path id="m009eb96dc8" d="M 0 3 
C 0.795609 3 1.55874 2.683901 2.12132 2.12132 
C 2.683901 1.55874 3 0.795609 3 0 
C 3 -0.795609 2.683901 -1.55874 2.12132 -2.12132 
C 1.55874 -2.683901 0.795609 -3 0 -3 
C -0.795609 -3 -1.55874 -2.683901 -2.12132 -2.12132 
C -2.683901 -1.55874 -3 -0.795609 -3 0 
C -3 0.795609 -2.683901 1.55874 -2.12132 2.12132 
C -1.55874 2.683901 -0.795609 3 0 3 
z
" style="stroke: #74c7c4"/>
     </defs>
     <g>
      <use xlink:href="#m009eb96dc8" x="228.7" y="62.2725" style="fill: #74c7c4; stroke: #74c7c4"/>
     </g>
    </g>
    <g id="text_13">
     <!-- NIL SNAP-DD, rep A -->
     <g style="fill: #262626" transform="translate(248.5 65.16) scale(0.11 -0.11)">
      <defs>
       <path id="ArialMT-53" d="M 288 1472 
L 859 1522 
Q 900 1178 1048 958 
Q 1197 738 1509 602 
Q 1822 466 2213 466 
Q 2559 466 2825 569 
Q 3091 672 3220 851 
Q 3350 1031 3350 1244 
Q 3350 1459 3225 1620 
Q 3100 1781 2813 1891 
Q 2628 1963 1997 2114 
Q 1366 2266 1113 2400 
Q 784 2572 623 2826 
Q 463 3081 463 3397 
Q 463 3744 659 4045 
Q 856 4347 1234 4503 
Q 1613 4659 2075 4659 
Q 2584 4659 2973 4495 
Q 3363 4331 3572 4012 
Q 3781 3694 3797 3291 
L 3216 3247 
Q 3169 3681 2898 3903 
Q 2628 4125 2100 4125 
Q 1550 4125 1298 3923 
Q 1047 3722 1047 3438 
Q 1047 3191 1225 3031 
Q 1400 2872 2139 2705 
Q 2878 2538 3153 2413 
Q 3553 2228 3743 1945 
Q 3934 1663 3934 1294 
Q 3934 928 3725 604 
Q 3516 281 3123 101 
Q 2731 -78 2241 -78 
Q 1619 -78 1198 103 
Q 778 284 539 648 
Q 300 1013 288 1472 
z
" transform="scale(0.015625)"/>
       <path id="ArialMT-50" d="M 494 0 
L 494 4581 
L 2222 4581 
Q 2678 4581 2919 4538 
Q 3256 4481 3484 4323 
Q 3713 4166 3852 3881 
Q 3991 3597 3991 3256 
Q 3991 2672 3619 2267 
Q 3247 1863 2275 1863 
L 1100 1863 
L 1100 0 
L 494 0 
z
M 1100 2403 
L 2284 2403 
Q 2872 2403 3119 2622 
Q 3366 2841 3366 3238 
Q 3366 3525 3220 3729 
Q 3075 3934 2838 4000 
Q 2684 4041 2272 4041 
L 1100 4041 
L 1100 2403 
z
" transform="scale(0.015625)"/>
       <path id="ArialMT-2d" d="M 203 1375 
L 203 1941 
L 1931 1941 
L 1931 1375 
L 203 1375 
z
" transform="scale(0.015625)"/>
      </defs>
      <use xlink:href="#ArialMT-4e"/>
      <use xlink:href="#ArialMT-49" transform="translate(72.216797 0)"/>
      <use xlink:href="#ArialMT-4c" transform="translate(100 0)"/>
      <use xlink:href="#ArialMT-20" transform="translate(151.865234 0)"/>
      <use xlink:href="#ArialMT-53" transform="translate(179.648438 0)"/>
      <use xlink:href="#ArialMT-4e" transform="translate(246.347656 0)"/>
      <use xlink:href="#ArialMT-41" transform="translate(318.564453 0)"/>
      <use xlink:href="#ArialMT-50" transform="translate(385.263672 0)"/>
      <use xlink:href="#ArialMT-2d" transform="translate(451.962891 0)"/>
      <use xlink:href="#ArialMT-44" transform="translate(485.263672 0)"/>
      <use xlink:href="#ArialMT-44" transform="translate(557.480469 0)"/>
      <use xlink:href="#ArialMT-2c" transform="translate(629.697266 0)"/>
      <use xlink:href="#ArialMT-20" transform="translate(657.480469 0)"/>
      <use xlink:href="#ArialMT-72" transform="translate(685.263672 0)"/>
      <use xlink:href="#ArialMT-65" transform="translate(718.564453 0)"/>
      <use xlink:href="#ArialMT-70" transform="translate(774.179688 0)"/>
      <use xlink:href="#ArialMT-20" transform="translate(829.794922 0)"/>
      <use xlink:href="#ArialMT-41" transform="translate(852.078125 0)"/>
     </g>
    </g>
    <g id="PathCollection_17">
     <defs>
      <path id="m18204d6a7b" d="M 0 3 
C 0.795609 3 1.55874 2.683901 2.12132 2.12132 
C 2.683901 1.55874 3 0.795609 3 0 
C 3 -0.795609 2.683901 -1.55874 2.12132 -2.12132 
C 1.55874 -2.683901 0.795609 -3 0 -3 
C -0.795609 -3 -1.55874 -2.683901 -2.12132 -2.12132 
C -2.683901 -1.55874 -3 -0.795609 -3 0 
C -3 0.795609 -2.683901 1.55874 -2.12132 2.12132 
C -1.55874 2.683901 -0.795609 3 0 3 
z
" style="stroke: #4674b9"/>
     </defs>
     <g>
      <use xlink:href="#m18204d6a7b" x="228.7" y="77.832344" style="fill: #4674b9; stroke: #4674b9"/>
     </g>
    </g>
    <g id="text_14">
     <!-- NIL DD, rep B -->
     <g style="fill: #262626" transform="translate(248.5 80.719844) scale(0.11 -0.11)">
      <defs>
       <path id="ArialMT-42" d="M 469 0 
L 469 4581 
L 2188 4581 
Q 2713 4581 3030 4442 
Q 3347 4303 3526 4014 
Q 3706 3725 3706 3409 
Q 3706 3116 3547 2856 
Q 3388 2597 3066 2438 
Q 3481 2316 3704 2022 
Q 3928 1728 3928 1328 
Q 3928 1006 3792 729 
Q 3656 453 3456 303 
Q 3256 153 2954 76 
Q 2653 0 2216 0 
L 469 0 
z
M 1075 2656 
L 2066 2656 
Q 2469 2656 2644 2709 
Q 2875 2778 2992 2937 
Q 3109 3097 3109 3338 
Q 3109 3566 3000 3739 
Q 2891 3913 2687 3977 
Q 2484 4041 1991 4041 
L 1075 4041 
L 1075 2656 
z
M 1075 541 
L 2216 541 
Q 2509 541 2628 563 
Q 2838 600 2978 687 
Q 3119 775 3209 942 
Q 3300 1109 3300 1328 
Q 3300 1584 3169 1773 
Q 3038 1963 2805 2039 
Q 2572 2116 2134 2116 
L 1075 2116 
L 1075 541 
z
" transform="scale(0.015625)"/>
      </defs>
      <use xlink:href="#ArialMT-4e"/>
      <use xlink:href="#ArialMT-49" transform="translate(72.216797 0)"/>
      <use xlink:href="#ArialMT-4c" transform="translate(100 0)"/>
      <use xlink:href="#ArialMT-20" transform="translate(151.865234 0)"/>
      <use xlink:href="#ArialMT-44" transform="translate(179.648438 0)"/>
      <use xlink:href="#ArialMT-44" transform="translate(251.865234 0)"/>
      <use xlink:href="#ArialMT-2c" transform="translate(324.082031 0)"/>
      <use xlink:href="#ArialMT-20" transform="translate(351.865234 0)"/>
      <use xlink:href="#ArialMT-72" transform="translate(379.648438 0)"/>
      <use xlink:href="#ArialMT-65" transform="translate(412.949219 0)"/>
      <use xlink:href="#ArialMT-70" transform="translate(468.564453 0)"/>
      <use xlink:href="#ArialMT-20" transform="translate(524.179688 0)"/>
      <use xlink:href="#ArialMT-42" transform="translate(551.962891 0)"/>
     </g>
    </g>
    <g id="PathCollection_18">
     <defs>
      <path id="m6ded5b5d89" d="M 0 3 
C 0.795609 3 1.55874 2.683901 2.12132 2.12132 
C 2.683901 1.55874 3 0.795609 3 0 
C 3 -0.795609 2.683901 -1.55874 2.12132 -2.12132 
C 1.55874 -2.683901 0.795609 -3 0 -3 
C -0.795609 -3 -1.55874 -2.683901 -2.12132 -2.12132 
C -2.683901 -1.55874 -3 -0.795609 -3 0 
C -3 0.795609 -2.683901 1.55874 -2.12132 2.12132 
C -1.55874 2.683901 -0.795609 3 0 3 
z
" style="stroke: #cc75ad"/>
     </defs>
     <g>
      <use xlink:href="#m6ded5b5d89" x="228.7" y="93.52625" style="fill: #cc75ad; stroke: #cc75ad"/>
     </g>
    </g>
    <g id="text_15">
     <!-- NIL SNAP-DD, rep B -->
     <g style="fill: #262626" transform="translate(248.5 96.41375) scale(0.11 -0.11)">
      <use xlink:href="#ArialMT-4e"/>
      <use xlink:href="#ArialMT-49" transform="translate(72.216797 0)"/>
      <use xlink:href="#ArialMT-4c" transform="translate(100 0)"/>
      <use xlink:href="#ArialMT-20" transform="translate(151.865234 0)"/>
      <use xlink:href="#ArialMT-53" transform="translate(179.648438 0)"/>
      <use xlink:href="#ArialMT-4e" transform="translate(246.347656 0)"/>
      <use xlink:href="#ArialMT-41" transform="translate(318.564453 0)"/>
      <use xlink:href="#ArialMT-50" transform="translate(385.263672 0)"/>
      <use xlink:href="#ArialMT-2d" transform="translate(451.962891 0)"/>
      <use xlink:href="#ArialMT-44" transform="translate(485.263672 0)"/>
      <use xlink:href="#ArialMT-44" transform="translate(557.480469 0)"/>
      <use xlink:href="#ArialMT-2c" transform="translate(629.697266 0)"/>
      <use xlink:href="#ArialMT-20" transform="translate(657.480469 0)"/>
      <use xlink:href="#ArialMT-72" transform="translate(685.263672 0)"/>
      <use xlink:href="#ArialMT-65" transform="translate(718.564453 0)"/>
      <use xlink:href="#ArialMT-70" transform="translate(774.179688 0)"/>
      <use xlink:href="#ArialMT-20" transform="translate(829.794922 0)"/>
      <use xlink:href="#ArialMT-42" transform="translate(857.578125 0)"/>
     </g>
    </g>
    <g id="PathCollection_19">
     <defs>
      <path id="m9743f41d31" d="M 0 3 
C 0.795609 3 1.55874 2.683901 2.12132 2.12132 
C 2.683901 1.55874 3 0.795609 3 0 
C 3 -0.795609 2.683901 -1.55874 2.12132 -2.12132 
C 1.55874 -2.683901 0.795609 -3 0 -3 
C -0.795609 -3 -1.55874 -2.683901 -2.12132 -2.12132 
C -2.683901 -1.55874 -3 -0.795609 -3 0 
C -3 0.795609 -2.683901 1.55874 -2.12132 2.12132 
C -1.55874 2.683901 -0.795609 3 0 3 
z
" style="stroke: #ee7776"/>
     </defs>
     <g>
      <use xlink:href="#m9743f41d31" x="228.7" y="109.220156" style="fill: #ee7776; stroke: #ee7776"/>
     </g>
    </g>
    <g id="text_16">
     <!-- NIL DD, rep C -->
     <g style="fill: #262626" transform="translate(248.5 112.107656) scale(0.11 -0.11)">
      <defs>
       <path id="ArialMT-43" d="M 3763 1606 
L 4369 1453 
Q 4178 706 3683 314 
Q 3188 -78 2472 -78 
Q 1731 -78 1267 223 
Q 803 525 561 1097 
Q 319 1669 319 2325 
Q 319 3041 592 3573 
Q 866 4106 1370 4382 
Q 1875 4659 2481 4659 
Q 3169 4659 3637 4309 
Q 4106 3959 4291 3325 
L 3694 3184 
Q 3534 3684 3231 3912 
Q 2928 4141 2469 4141 
Q 1941 4141 1586 3887 
Q 1231 3634 1087 3207 
Q 944 2781 944 2328 
Q 944 1744 1114 1308 
Q 1284 872 1643 656 
Q 2003 441 2422 441 
Q 2931 441 3284 734 
Q 3638 1028 3763 1606 
z
" transform="scale(0.015625)"/>
      </defs>
      <use xlink:href="#ArialMT-4e"/>
      <use xlink:href="#ArialMT-49" transform="translate(72.216797 0)"/>
      <use xlink:href="#ArialMT-4c" transform="translate(100 0)"/>
      <use xlink:href="#ArialMT-20" transform="translate(151.865234 0)"/>
      <use xlink:href="#ArialMT-44" transform="translate(179.648438 0)"/>
      <use xlink:href="#ArialMT-44" transform="translate(251.865234 0)"/>
      <use xlink:href="#ArialMT-2c" transform="translate(324.082031 0)"/>
      <use xlink:href="#ArialMT-20" transform="translate(351.865234 0)"/>
      <use xlink:href="#ArialMT-72" transform="translate(379.648438 0)"/>
      <use xlink:href="#ArialMT-65" transform="translate(412.949219 0)"/>
      <use xlink:href="#ArialMT-70" transform="translate(468.564453 0)"/>
      <use xlink:href="#ArialMT-20" transform="translate(524.179688 0)"/>
      <use xlink:href="#ArialMT-43" transform="translate(551.962891 0)"/>
     </g>
    </g>
    <g id="PathCollection_20">
     <defs>
      <path id="m2720862dab" d="M 0 3 
C 0.795609 3 1.55874 2.683901 2.12132 2.12132 
C 2.683901 1.55874 3 0.795609 3 0 
C 3 -0.795609 2.683901 -1.55874 2.12132 -2.12132 
C 1.55874 -2.683901 0.795609 -3 0 -3 
C -0.795609 -3 -1.55874 -2.683901 -2.12132 -2.12132 
C -2.683901 -1.55874 -3 -0.795609 -3 0 
C -3 0.795609 -2.683901 1.55874 -2.12132 2.12132 
C -1.55874 2.683901 -0.795609 3 0 3 
z
" style="stroke: #e4bd67"/>
     </defs>
     <g>
      <use xlink:href="#m2720862dab" x="228.7" y="124.914062" style="fill: #e4bd67; stroke: #e4bd67"/>
     </g>
    </g>
    <g id="text_17">
     <!-- NIL SNAP-DD, rep C -->
     <g style="fill: #262626" transform="translate(248.5 127.801562) scale(0.11 -0.11)">
      <use xlink:href="#ArialMT-4e"/>
      <use xlink:href="#ArialMT-49" transform="translate(72.216797 0)"/>
      <use xlink:href="#ArialMT-4c" transform="translate(100 0)"/>
      <use xlink:href="#ArialMT-20" transform="translate(151.865234 0)"/>
      <use xlink:href="#ArialMT-53" transform="translate(179.648438 0)"/>
      <use xlink:href="#ArialMT-4e" transform="translate(246.347656 0)"/>
      <use xlink:href="#ArialMT-41" transform="translate(318.564453 0)"/>
      <use xlink:href="#ArialMT-50" transform="translate(385.263672 0)"/>
      <use xlink:href="#ArialMT-2d" transform="translate(451.962891 0)"/>
      <use xlink:href="#ArialMT-44" transform="translate(485.263672 0)"/>
      <use xlink:href="#ArialMT-44" transform="translate(557.480469 0)"/>
      <use xlink:href="#ArialMT-2c" transform="translate(629.697266 0)"/>
      <use xlink:href="#ArialMT-20" transform="translate(657.480469 0)"/>
      <use xlink:href="#ArialMT-72" transform="translate(685.263672 0)"/>
      <use xlink:href="#ArialMT-65" transform="translate(718.564453 0)"/>
      <use xlink:href="#ArialMT-70" transform="translate(774.179688 0)"/>
      <use xlink:href="#ArialMT-20" transform="translate(829.794922 0)"/>
      <use xlink:href="#ArialMT-43" transform="translate(857.578125 0)"/>
     </g>
    </g>
    <g id="PathCollection_21">
     <defs>
      <path id="m5547819d19" d="M 0 3 
C 0.795609 3 1.55874 2.683901 2.12132 2.12132 
C 2.683901 1.55874 3 0.795609 3 0 
C 3 -0.795609 2.683901 -1.55874 2.12132 -2.12132 
C 1.55874 -2.683901 0.795609 -3 0 -3 
C -0.795609 -3 -1.55874 -2.683901 -2.12132 -2.12132 
C -2.683901 -1.55874 -3 -0.795609 -3 0 
C -3 0.795609 -2.683901 1.55874 -2.12132 2.12132 
C -1.55874 2.683901 -0.795609 3 0 3 
z
" style="stroke: #987cb1"/>
     </defs>
     <g>
      <use xlink:href="#m5547819d19" x="228.7" y="140.473906" style="fill: #987cb1; stroke: #987cb1"/>
     </g>
    </g>
    <g id="text_18">
     <!-- NIL DD, rep D -->
     <g style="fill: #262626" transform="translate(248.5 143.361406) scale(0.11 -0.11)">
      <use xlink:href="#ArialMT-4e"/>
      <use xlink:href="#ArialMT-49" transform="translate(72.216797 0)"/>
      <use xlink:href="#ArialMT-4c" transform="translate(100 0)"/>
      <use xlink:href="#ArialMT-20" transform="translate(151.865234 0)"/>
      <use xlink:href="#ArialMT-44" transform="translate(179.648438 0)"/>
      <use xlink:href="#ArialMT-44" transform="translate(251.865234 0)"/>
      <use xlink:href="#ArialMT-2c" transform="translate(324.082031 0)"/>
      <use xlink:href="#ArialMT-20" transform="translate(351.865234 0)"/>
      <use xlink:href="#ArialMT-72" transform="translate(379.648438 0)"/>
      <use xlink:href="#ArialMT-65" transform="translate(412.949219 0)"/>
      <use xlink:href="#ArialMT-70" transform="translate(468.564453 0)"/>
      <use xlink:href="#ArialMT-20" transform="translate(524.179688 0)"/>
      <use xlink:href="#ArialMT-44" transform="translate(551.962891 0)"/>
     </g>
    </g>
    <g id="PathCollection_22">
     <defs>
      <path id="mc0c031c349" d="M 0 3 
C 0.795609 3 1.55874 2.683901 2.12132 2.12132 
C 2.683901 1.55874 3 0.795609 3 0 
C 3 -0.795609 2.683901 -1.55874 2.12132 -2.12132 
C 1.55874 -2.683901 0.795609 -3 0 -3 
C -0.795609 -3 -1.55874 -2.683901 -2.12132 -2.12132 
C -2.683901 -1.55874 -3 -0.795609 -3 0 
C -3 0.795609 -2.683901 1.55874 -2.12132 2.12132 
C -1.55874 2.683901 -0.795609 3 0 3 
z
" style="stroke: #707070"/>
     </defs>
     <g>
      <use xlink:href="#mc0c031c349" x="228.7" y="156.167812" style="fill: #707070; stroke: #707070"/>
     </g>
    </g>
    <g id="text_19">
     <!-- NIL SNAP-DD, rep D -->
     <g style="fill: #262626" transform="translate(248.5 159.055312) scale(0.11 -0.11)">
      <use xlink:href="#ArialMT-4e"/>
      <use xlink:href="#ArialMT-49" transform="translate(72.216797 0)"/>
      <use xlink:href="#ArialMT-4c" transform="translate(100 0)"/>
      <use xlink:href="#ArialMT-20" transform="translate(151.865234 0)"/>
      <use xlink:href="#ArialMT-53" transform="translate(179.648438 0)"/>
      <use xlink:href="#ArialMT-4e" transform="translate(246.347656 0)"/>
      <use xlink:href="#ArialMT-41" transform="translate(318.564453 0)"/>
      <use xlink:href="#ArialMT-50" transform="translate(385.263672 0)"/>
      <use xlink:href="#ArialMT-2d" transform="translate(451.962891 0)"/>
      <use xlink:href="#ArialMT-44" transform="translate(485.263672 0)"/>
      <use xlink:href="#ArialMT-44" transform="translate(557.480469 0)"/>
      <use xlink:href="#ArialMT-2c" transform="translate(629.697266 0)"/>
      <use xlink:href="#ArialMT-20" transform="translate(657.480469 0)"/>
      <use xlink:href="#ArialMT-72" transform="translate(685.263672 0)"/>
      <use xlink:href="#ArialMT-65" transform="translate(718.564453 0)"/>
      <use xlink:href="#ArialMT-70" transform="translate(774.179688 0)"/>
      <use xlink:href="#ArialMT-20" transform="translate(829.794922 0)"/>
      <use xlink:href="#ArialMT-44" transform="translate(857.578125 0)"/>
     </g>
    </g>
    <g id="text_20">
     <!-- MOI_numeric -->
     <g style="fill: #262626" transform="translate(248.5 174.756094) scale(0.11 -0.11)">
      <defs>
       <path id="ArialMT-4f" d="M 309 2231 
Q 309 3372 921 4017 
Q 1534 4663 2503 4663 
Q 3138 4663 3647 4359 
Q 4156 4056 4423 3514 
Q 4691 2972 4691 2284 
Q 4691 1588 4409 1038 
Q 4128 488 3612 205 
Q 3097 -78 2500 -78 
Q 1853 -78 1343 234 
Q 834 547 571 1087 
Q 309 1628 309 2231 
z
M 934 2222 
Q 934 1394 1379 917 
Q 1825 441 2497 441 
Q 3181 441 3623 922 
Q 4066 1403 4066 2288 
Q 4066 2847 3877 3264 
Q 3688 3681 3323 3911 
Q 2959 4141 2506 4141 
Q 1863 4141 1398 3698 
Q 934 3256 934 2222 
z
" transform="scale(0.015625)"/>
      </defs>
      <use xlink:href="#ArialMT-4d"/>
      <use xlink:href="#ArialMT-4f" transform="translate(83.300781 0)"/>
      <use xlink:href="#ArialMT-49" transform="translate(161.083984 0)"/>
      <use xlink:href="#ArialMT-5f" transform="translate(188.867188 0)"/>
      <use xlink:href="#ArialMT-6e" transform="translate(244.482422 0)"/>
      <use xlink:href="#ArialMT-75" transform="translate(300.097656 0)"/>
      <use xlink:href="#ArialMT-6d" transform="translate(355.712891 0)"/>
      <use xlink:href="#ArialMT-65" transform="translate(439.013672 0)"/>
      <use xlink:href="#ArialMT-72" transform="translate(494.628906 0)"/>
      <use xlink:href="#ArialMT-69" transform="translate(527.929688 0)"/>
      <use xlink:href="#ArialMT-63" transform="translate(550.146484 0)"/>
     </g>
    </g>
    <g id="PathCollection_23">
     <defs>
      <path id="m8bddc0c931" d="M 0 -3 
L -3 3 
L 3 3 
z
" style="stroke: #333333"/>
     </defs>
     <g>
      <use xlink:href="#m8bddc0c931" x="228.7" y="187.428438" style="fill: #333333; stroke: #333333"/>
     </g>
    </g>
    <g id="text_21">
     <!-- 1 -->
     <g style="fill: #262626" transform="translate(248.5 190.315937) scale(0.11 -0.11)">
      <use xlink:href="#ArialMT-31"/>
     </g>
    </g>
    <g id="PathCollection_24">
     <defs>
      <path id="m25f2e27d09" d="M -1.5 3 
L 0 1.5 
L 1.5 3 
L 3 1.5 
L 1.5 0 
L 3 -1.5 
L 1.5 -3 
L 0 -1.5 
L -1.5 -3 
L -3 -1.5 
L -1.5 0 
L -3 1.5 
z
" style="stroke: #333333"/>
     </defs>
     <g>
      <use xlink:href="#m25f2e27d09" x="228.7" y="202.988281" style="fill: #333333; stroke: #333333"/>
     </g>
    </g>
    <g id="text_22">
     <!-- 5 -->
     <g style="fill: #262626" transform="translate(248.5 205.875781) scale(0.11 -0.11)">
      <use xlink:href="#ArialMT-35"/>
     </g>
    </g>
    <g id="PathCollection_25">
     <defs>
      <path id="mffefc27d47" d="M 0 4.242641 
L 2.545584 0 
L 0 -4.242641 
L -2.545584 0 
z
" style="stroke: #333333"/>
     </defs>
     <g>
      <use xlink:href="#mffefc27d47" x="228.7" y="218.548125" style="fill: #333333; stroke: #333333"/>
     </g>
    </g>
    <g id="text_23">
     <!-- 10 -->
     <g style="fill: #262626" transform="translate(248.5 221.435625) scale(0.11 -0.11)">
      <use xlink:href="#ArialMT-31"/>
      <use xlink:href="#ArialMT-30" transform="translate(55.615234 0)"/>
     </g>
    </g>
    <g id="PathCollection_26">
     <defs>
      <path id="m3acc17eb22" d="M 0 3 
C 0.795609 3 1.55874 2.683901 2.12132 2.12132 
C 2.683901 1.55874 3 0.795609 3 0 
C 3 -0.795609 2.683901 -1.55874 2.12132 -2.12132 
C 1.55874 -2.683901 0.795609 -3 0 -3 
C -0.795609 -3 -1.55874 -2.683901 -2.12132 -2.12132 
C -2.683901 -1.55874 -3 -0.795609 -3 0 
C -3 0.795609 -2.683901 1.55874 -2.12132 2.12132 
C -1.55874 2.683901 -0.795609 3 0 3 
z
" style="stroke: #333333"/>
     </defs>
     <g>
      <use xlink:href="#m3acc17eb22" x="228.7" y="234.107969" style="fill: #333333; stroke: #333333"/>
     </g>
    </g>
    <g id="text_24">
     <!-- 15 -->
     <g style="fill: #262626" transform="translate(248.5 236.995469) scale(0.11 -0.11)">
      <use xlink:href="#ArialMT-31"/>
      <use xlink:href="#ArialMT-35" transform="translate(55.615234 0)"/>
     </g>
    </g>
    <g id="PathCollection_27">
     <defs>
      <path id="mdd45f6c8ed" d="M -0 3 
L 3 -3 
L -3 -3 
z
" style="stroke: #333333"/>
     </defs>
     <g>
      <use xlink:href="#mdd45f6c8ed" x="228.7" y="249.667812" style="fill: #333333; stroke: #333333"/>
     </g>
    </g>
    <g id="text_25">
     <!-- 20 -->
     <g style="fill: #262626" transform="translate(248.5 252.555312) scale(0.11 -0.11)">
      <use xlink:href="#ArialMT-32"/>
      <use xlink:href="#ArialMT-30" transform="translate(55.615234 0)"/>
     </g>
    </g>
   </g>
  </g>
 </g>
 <defs>
  <clipPath id="p7fb5d62ac7">
   <rect x="43.2" y="21.6" width="162" height="140.4"/>
  </clipPath>
 </defs>
</svg>
