<?xml version="1.0" encoding="utf-8" standalone="no"?>
<!DOCTYPE svg PUBLIC "-//W3C//DTD SVG 1.1//EN"
  "http://www.w3.org/Graphics/SVG/1.1/DTD/svg11.dtd">
<svg xmlns:xlink="http://www.w3.org/1999/xlink" width="286.021625pt" height="190.162906pt" viewBox="0 0 286.021625 190.162906" xmlns="http://www.w3.org/2000/svg" version="1.1">
 <metadata>
  <rdf:RDF xmlns:dc="http://purl.org/dc/elements/1.1/" xmlns:cc="http://creativecommons.org/ns#" xmlns:rdf="http://www.w3.org/1999/02/22-rdf-syntax-ns#">
   <cc:Work>
    <dc:type rdf:resource="http://purl.org/dc/dcmitype/StillImage"/>
    <dc:date>2025-07-28T16:54:59.352571</dc:date>
    <dc:format>image/svg+xml</dc:format>
    <dc:creator>
     <cc:Agent>
      <dc:title>Matplotlib v3.10.3, https://matplotlib.org/</dc:title>
     </cc:Agent>
    </dc:creator>
   </cc:Work>
  </rdf:RDF>
 </metadata>
 <defs>
  <style type="text/css">*{stroke-linejoin: round; stroke-linecap: butt}</style>
 </defs>
 <g id="figure_1">
  <g id="patch_1">
   <path d="M 0 190.162906 
L 286.021625 190.162906 
L 286.021625 0 
L 0 0 
z
" style="fill: #ffffff"/>
  </g>
  <g id="axes_1">
   <g id="patch_2">
    <path d="M 56.887563 151.7685 
L 218.887563 151.7685 
L 218.887563 34.7685 
L 56.887563 34.7685 
z
" style="fill: #ffffff"/>
   </g>
   <g id="matplotlib.axis_1">
    <g id="xtick_1">
     <g id="line2d_1">
      <defs>
       <path id="m60978352ae" d="M 0 0 
L 0 6 
" style="stroke: #262626; stroke-width: 1.25"/>
      </defs>
      <g>
       <use xlink:href="#m60978352ae" x="97.387563" y="151.7685" style="fill: #262626; stroke: #262626; stroke-width: 1.25"/>
      </g>
     </g>
     <g id="text_1">
      <!-- NIL -->
      <g style="fill: #262626" transform="translate(88.829047 169.142094) scale(0.11 -0.11)">
       <defs>
        <path id="ArialMT-4e" d="M 488 0 
L 488 4581 
L 1109 4581 
L 3516 984 
L 3516 4581 
L 4097 4581 
L 4097 0 
L 3475 0 
L 1069 3600 
L 1069 0 
L 488 0 
z
" transform="scale(0.015625)"/>
        <path id="ArialMT-49" d="M 597 0 
L 597 4581 
L 1203 4581 
L 1203 0 
L 597 0 
z
" transform="scale(0.015625)"/>
        <path id="ArialMT-4c" d="M 469 0 
L 469 4581 
L 1075 4581 
L 1075 541 
L 3331 541 
L 3331 0 
L 469 0 
z
" transform="scale(0.015625)"/>
       </defs>
       <use xlink:href="#ArialMT-4e"/>
       <use xlink:href="#ArialMT-49" transform="translate(72.216797 0)"/>
       <use xlink:href="#ArialMT-4c" transform="translate(100 0)"/>
      </g>
      <!-- DD -->
      <g style="fill: #262626" transform="translate(89.4435 180.776656) scale(0.11 -0.11)">
       <defs>
        <path id="ArialMT-44" d="M 494 0 
L 494 4581 
L 2072 4581 
Q 2606 4581 2888 4516 
Q 3281 4425 3559 4188 
Q 3922 3881 4101 3404 
Q 4281 2928 4281 2316 
Q 4281 1794 4159 1391 
Q 4038 988 3847 723 
Q 3656 459 3429 307 
Q 3203 156 2883 78 
Q 2563 0 2147 0 
L 494 0 
z
M 1100 541 
L 2078 541 
Q 2531 541 2789 625 
Q 3047 709 3200 863 
Q 3416 1078 3536 1442 
Q 3656 1806 3656 2325 
Q 3656 3044 3420 3430 
Q 3184 3816 2847 3947 
Q 2603 4041 2063 4041 
L 1100 4041 
L 1100 541 
z
" transform="scale(0.015625)"/>
       </defs>
       <use xlink:href="#ArialMT-44"/>
       <use xlink:href="#ArialMT-44" transform="translate(72.216797 0)"/>
      </g>
     </g>
    </g>
    <g id="xtick_2">
     <g id="line2d_2">
      <g>
       <use xlink:href="#m60978352ae" x="178.387563" y="151.7685" style="fill: #262626; stroke: #262626; stroke-width: 1.25"/>
      </g>
     </g>
     <g id="text_2">
      <!-- NIL -->
      <g style="fill: #262626" transform="translate(169.829047 169.142094) scale(0.11 -0.11)">
       <use xlink:href="#ArialMT-4e"/>
       <use xlink:href="#ArialMT-49" transform="translate(72.216797 0)"/>
       <use xlink:href="#ArialMT-4c" transform="translate(100 0)"/>
      </g>
      <!-- SNAP-DD -->
      <g style="fill: #262626" transform="translate(153.634125 180.776656) scale(0.11 -0.11)">
       <defs>
        <path id="ArialMT-53" d="M 288 1472 
L 859 1522 
Q 900 1178 1048 958 
Q 1197 738 1509 602 
Q 1822 466 2213 466 
Q 2559 466 2825 569 
Q 3091 672 3220 851 
Q 3350 1031 3350 1244 
Q 3350 1459 3225 1620 
Q 3100 1781 2813 1891 
Q 2628 1963 1997 2114 
Q 1366 2266 1113 2400 
Q 784 2572 623 2826 
Q 463 3081 463 3397 
Q 463 3744 659 4045 
Q 856 4347 1234 4503 
Q 1613 4659 2075 4659 
Q 2584 4659 2973 4495 
Q 3363 4331 3572 4012 
Q 3781 3694 3797 3291 
L 3216 3247 
Q 3169 3681 2898 3903 
Q 2628 4125 2100 4125 
Q 1550 4125 1298 3923 
Q 1047 3722 1047 3438 
Q 1047 3191 1225 3031 
Q 1400 2872 2139 2705 
Q 2878 2538 3153 2413 
Q 3553 2228 3743 1945 
Q 3934 1663 3934 1294 
Q 3934 928 3725 604 
Q 3516 281 3123 101 
Q 2731 -78 2241 -78 
Q 1619 -78 1198 103 
Q 778 284 539 648 
Q 300 1013 288 1472 
z
" transform="scale(0.015625)"/>
        <path id="ArialMT-41" d="M -9 0 
L 1750 4581 
L 2403 4581 
L 4278 0 
L 3588 0 
L 3053 1388 
L 1138 1388 
L 634 0 
L -9 0 
z
M 1313 1881 
L 2866 1881 
L 2388 3150 
Q 2169 3728 2063 4100 
Q 1975 3659 1816 3225 
L 1313 1881 
z
" transform="scale(0.015625)"/>
        <path id="ArialMT-50" d="M 494 0 
L 494 4581 
L 2222 4581 
Q 2678 4581 2919 4538 
Q 3256 4481 3484 4323 
Q 3713 4166 3852 3881 
Q 3991 3597 3991 3256 
Q 3991 2672 3619 2267 
Q 3247 1863 2275 1863 
L 1100 1863 
L 1100 0 
L 494 0 
z
M 1100 2403 
L 2284 2403 
Q 2872 2403 3119 2622 
Q 3366 2841 3366 3238 
Q 3366 3525 3220 3729 
Q 3075 3934 2838 4000 
Q 2684 4041 2272 4041 
L 1100 4041 
L 1100 2403 
z
" transform="scale(0.015625)"/>
        <path id="ArialMT-2d" d="M 203 1375 
L 203 1941 
L 1931 1941 
L 1931 1375 
L 203 1375 
z
" transform="scale(0.015625)"/>
       </defs>
       <use xlink:href="#ArialMT-53"/>
       <use xlink:href="#ArialMT-4e" transform="translate(66.699219 0)"/>
       <use xlink:href="#ArialMT-41" transform="translate(138.916016 0)"/>
       <use xlink:href="#ArialMT-50" transform="translate(205.615234 0)"/>
       <use xlink:href="#ArialMT-2d" transform="translate(272.314453 0)"/>
       <use xlink:href="#ArialMT-44" transform="translate(305.615234 0)"/>
       <use xlink:href="#ArialMT-44" transform="translate(377.832031 0)"/>
      </g>
     </g>
    </g>
   </g>
   <g id="matplotlib.axis_2">
    <g id="ytick_1">
     <g id="line2d_3">
      <defs>
       <path id="m506d366402" d="M 0 0 
L -6 0 
" style="stroke: #262626; stroke-width: 1.25"/>
      </defs>
      <g>
       <use xlink:href="#m506d366402" x="56.887563" y="151.7685" style="fill: #262626; stroke: #262626; stroke-width: 1.25"/>
      </g>
     </g>
     <g id="text_3">
      <!-- 0 -->
      <g style="fill: #262626" transform="translate(41.270531 155.705297) scale(0.11 -0.11)">
       <defs>
        <path id="ArialMT-30" d="M 266 2259 
Q 266 3072 433 3567 
Q 600 4063 929 4331 
Q 1259 4600 1759 4600 
Q 2128 4600 2406 4451 
Q 2684 4303 2865 4023 
Q 3047 3744 3150 3342 
Q 3253 2941 3253 2259 
Q 3253 1453 3087 958 
Q 2922 463 2592 192 
Q 2263 -78 1759 -78 
Q 1097 -78 719 397 
Q 266 969 266 2259 
z
M 844 2259 
Q 844 1131 1108 757 
Q 1372 384 1759 384 
Q 2147 384 2411 759 
Q 2675 1134 2675 2259 
Q 2675 3391 2411 3762 
Q 2147 4134 1753 4134 
Q 1366 4134 1134 3806 
Q 844 3388 844 2259 
z
" transform="scale(0.015625)"/>
       </defs>
       <use xlink:href="#ArialMT-30"/>
      </g>
     </g>
    </g>
    <g id="ytick_2">
     <g id="line2d_4">
      <g>
       <use xlink:href="#m506d366402" x="56.887563" y="114.256778" style="fill: #262626; stroke: #262626; stroke-width: 1.25"/>
      </g>
     </g>
     <g id="text_4">
      <!-- 20 -->
      <g style="fill: #262626" transform="translate(35.1535 118.193574) scale(0.11 -0.11)">
       <defs>
        <path id="ArialMT-32" d="M 3222 541 
L 3222 0 
L 194 0 
Q 188 203 259 391 
Q 375 700 629 1000 
Q 884 1300 1366 1694 
Q 2113 2306 2375 2664 
Q 2638 3022 2638 3341 
Q 2638 3675 2398 3904 
Q 2159 4134 1775 4134 
Q 1369 4134 1125 3890 
Q 881 3647 878 3216 
L 300 3275 
Q 359 3922 746 4261 
Q 1134 4600 1788 4600 
Q 2447 4600 2831 4234 
Q 3216 3869 3216 3328 
Q 3216 3053 3103 2787 
Q 2991 2522 2730 2228 
Q 2469 1934 1863 1422 
Q 1356 997 1212 845 
Q 1069 694 975 541 
L 3222 541 
z
" transform="scale(0.015625)"/>
       </defs>
       <use xlink:href="#ArialMT-32"/>
       <use xlink:href="#ArialMT-30" transform="translate(55.615234 0)"/>
      </g>
     </g>
    </g>
    <g id="ytick_3">
     <g id="line2d_5">
      <g>
       <use xlink:href="#m506d366402" x="56.887563" y="76.745055" style="fill: #262626; stroke: #262626; stroke-width: 1.25"/>
      </g>
     </g>
     <g id="text_5">
      <!-- 40 -->
      <g style="fill: #262626" transform="translate(35.1535 80.681852) scale(0.11 -0.11)">
       <defs>
        <path id="ArialMT-34" d="M 2069 0 
L 2069 1097 
L 81 1097 
L 81 1613 
L 2172 4581 
L 2631 4581 
L 2631 1613 
L 3250 1613 
L 3250 1097 
L 2631 1097 
L 2631 0 
L 2069 0 
z
M 2069 1613 
L 2069 3678 
L 634 1613 
L 2069 1613 
z
" transform="scale(0.015625)"/>
       </defs>
       <use xlink:href="#ArialMT-34"/>
       <use xlink:href="#ArialMT-30" transform="translate(55.615234 0)"/>
      </g>
     </g>
    </g>
    <g id="ytick_4">
     <g id="line2d_6">
      <g>
       <use xlink:href="#m506d366402" x="56.887563" y="39.233333" style="fill: #262626; stroke: #262626; stroke-width: 1.25"/>
      </g>
     </g>
     <g id="text_6">
      <!-- 60 -->
      <g style="fill: #262626" transform="translate(35.1535 43.17013) scale(0.11 -0.11)">
       <defs>
        <path id="ArialMT-36" d="M 3184 3459 
L 2625 3416 
Q 2550 3747 2413 3897 
Q 2184 4138 1850 4138 
Q 1581 4138 1378 3988 
Q 1113 3794 959 3422 
Q 806 3050 800 2363 
Q 1003 2672 1297 2822 
Q 1591 2972 1913 2972 
Q 2475 2972 2870 2558 
Q 3266 2144 3266 1488 
Q 3266 1056 3080 686 
Q 2894 316 2569 119 
Q 2244 -78 1831 -78 
Q 1128 -78 684 439 
Q 241 956 241 2144 
Q 241 3472 731 4075 
Q 1159 4600 1884 4600 
Q 2425 4600 2770 4297 
Q 3116 3994 3184 3459 
z
M 888 1484 
Q 888 1194 1011 928 
Q 1134 663 1356 523 
Q 1578 384 1822 384 
Q 2178 384 2434 671 
Q 2691 959 2691 1453 
Q 2691 1928 2437 2201 
Q 2184 2475 1800 2475 
Q 1419 2475 1153 2201 
Q 888 1928 888 1484 
z
" transform="scale(0.015625)"/>
       </defs>
       <use xlink:href="#ArialMT-36"/>
       <use xlink:href="#ArialMT-30" transform="translate(55.615234 0)"/>
      </g>
     </g>
    </g>
    <g id="text_7">
     <!-- (%) iMN yield -->
     <g style="fill: #262626" transform="translate(15.935625 128.936625) rotate(-90) scale(0.12 -0.12)">
      <defs>
       <path id="ArialMT-28" d="M 1497 -1347 
Q 1031 -759 709 28 
Q 388 816 388 1659 
Q 388 2403 628 3084 
Q 909 3875 1497 4659 
L 1900 4659 
Q 1522 4009 1400 3731 
Q 1209 3300 1100 2831 
Q 966 2247 966 1656 
Q 966 153 1900 -1347 
L 1497 -1347 
z
" transform="scale(0.015625)"/>
       <path id="ArialMT-25" d="M 372 3481 
Q 372 3972 619 4315 
Q 866 4659 1334 4659 
Q 1766 4659 2048 4351 
Q 2331 4044 2331 3447 
Q 2331 2866 2045 2552 
Q 1759 2238 1341 2238 
Q 925 2238 648 2547 
Q 372 2856 372 3481 
z
M 1350 4272 
Q 1141 4272 1002 4090 
Q 863 3909 863 3425 
Q 863 2984 1003 2804 
Q 1144 2625 1350 2625 
Q 1563 2625 1702 2806 
Q 1841 2988 1841 3469 
Q 1841 3913 1700 4092 
Q 1559 4272 1350 4272 
z
M 1353 -169 
L 3859 4659 
L 4316 4659 
L 1819 -169 
L 1353 -169 
z
M 3334 1075 
Q 3334 1569 3581 1911 
Q 3828 2253 4300 2253 
Q 4731 2253 5014 1945 
Q 5297 1638 5297 1041 
Q 5297 459 5011 145 
Q 4725 -169 4303 -169 
Q 3888 -169 3611 142 
Q 3334 453 3334 1075 
z
M 4316 1866 
Q 4103 1866 3964 1684 
Q 3825 1503 3825 1019 
Q 3825 581 3965 400 
Q 4106 219 4313 219 
Q 4528 219 4667 400 
Q 4806 581 4806 1063 
Q 4806 1506 4665 1686 
Q 4525 1866 4316 1866 
z
" transform="scale(0.015625)"/>
       <path id="ArialMT-29" d="M 791 -1347 
L 388 -1347 
Q 1322 153 1322 1656 
Q 1322 2244 1188 2822 
Q 1081 3291 891 3722 
Q 769 4003 388 4659 
L 791 4659 
Q 1378 3875 1659 3084 
Q 1900 2403 1900 1659 
Q 1900 816 1576 28 
Q 1253 -759 791 -1347 
z
" transform="scale(0.015625)"/>
       <path id="ArialMT-20" transform="scale(0.015625)"/>
       <path id="ArialMT-69" d="M 425 3934 
L 425 4581 
L 988 4581 
L 988 3934 
L 425 3934 
z
M 425 0 
L 425 3319 
L 988 3319 
L 988 0 
L 425 0 
z
" transform="scale(0.015625)"/>
       <path id="ArialMT-4d" d="M 475 0 
L 475 4581 
L 1388 4581 
L 2472 1338 
Q 2622 884 2691 659 
Q 2769 909 2934 1394 
L 4031 4581 
L 4847 4581 
L 4847 0 
L 4263 0 
L 4263 3834 
L 2931 0 
L 2384 0 
L 1059 3900 
L 1059 0 
L 475 0 
z
" transform="scale(0.015625)"/>
       <path id="ArialMT-79" d="M 397 -1278 
L 334 -750 
Q 519 -800 656 -800 
Q 844 -800 956 -737 
Q 1069 -675 1141 -563 
Q 1194 -478 1313 -144 
Q 1328 -97 1363 -6 
L 103 3319 
L 709 3319 
L 1400 1397 
Q 1534 1031 1641 628 
Q 1738 1016 1872 1384 
L 2581 3319 
L 3144 3319 
L 1881 -56 
Q 1678 -603 1566 -809 
Q 1416 -1088 1222 -1217 
Q 1028 -1347 759 -1347 
Q 597 -1347 397 -1278 
z
" transform="scale(0.015625)"/>
       <path id="ArialMT-65" d="M 2694 1069 
L 3275 997 
Q 3138 488 2766 206 
Q 2394 -75 1816 -75 
Q 1088 -75 661 373 
Q 234 822 234 1631 
Q 234 2469 665 2931 
Q 1097 3394 1784 3394 
Q 2450 3394 2872 2941 
Q 3294 2488 3294 1666 
Q 3294 1616 3291 1516 
L 816 1516 
Q 847 969 1125 678 
Q 1403 388 1819 388 
Q 2128 388 2347 550 
Q 2566 713 2694 1069 
z
M 847 1978 
L 2700 1978 
Q 2663 2397 2488 2606 
Q 2219 2931 1791 2931 
Q 1403 2931 1139 2672 
Q 875 2413 847 1978 
z
" transform="scale(0.015625)"/>
       <path id="ArialMT-6c" d="M 409 0 
L 409 4581 
L 972 4581 
L 972 0 
L 409 0 
z
" transform="scale(0.015625)"/>
       <path id="ArialMT-64" d="M 2575 0 
L 2575 419 
Q 2259 -75 1647 -75 
Q 1250 -75 917 144 
Q 584 363 401 755 
Q 219 1147 219 1656 
Q 219 2153 384 2558 
Q 550 2963 881 3178 
Q 1213 3394 1622 3394 
Q 1922 3394 2156 3267 
Q 2391 3141 2538 2938 
L 2538 4581 
L 3097 4581 
L 3097 0 
L 2575 0 
z
M 797 1656 
Q 797 1019 1065 703 
Q 1334 388 1700 388 
Q 2069 388 2326 689 
Q 2584 991 2584 1609 
Q 2584 2291 2321 2609 
Q 2059 2928 1675 2928 
Q 1300 2928 1048 2622 
Q 797 2316 797 1656 
z
" transform="scale(0.015625)"/>
      </defs>
      <use xlink:href="#ArialMT-28"/>
      <use xlink:href="#ArialMT-25" transform="translate(33.300781 0)"/>
      <use xlink:href="#ArialMT-29" transform="translate(122.216797 0)"/>
      <use xlink:href="#ArialMT-20" transform="translate(155.517578 0)"/>
      <use xlink:href="#ArialMT-69" transform="translate(183.300781 0)"/>
      <use xlink:href="#ArialMT-4d" transform="translate(205.517578 0)"/>
      <use xlink:href="#ArialMT-4e" transform="translate(288.818359 0)"/>
      <use xlink:href="#ArialMT-20" transform="translate(361.035156 0)"/>
      <use xlink:href="#ArialMT-79" transform="translate(388.818359 0)"/>
      <use xlink:href="#ArialMT-69" transform="translate(438.818359 0)"/>
      <use xlink:href="#ArialMT-65" transform="translate(461.035156 0)"/>
      <use xlink:href="#ArialMT-6c" transform="translate(516.650391 0)"/>
      <use xlink:href="#ArialMT-64" transform="translate(538.867188 0)"/>
     </g>
     <!-- per MEF plated -->
     <g style="fill: #262626" transform="translate(28.7685 134.284125) rotate(-90) scale(0.12 -0.12)">
      <defs>
       <path id="ArialMT-70" d="M 422 -1272 
L 422 3319 
L 934 3319 
L 934 2888 
Q 1116 3141 1344 3267 
Q 1572 3394 1897 3394 
Q 2322 3394 2647 3175 
Q 2972 2956 3137 2557 
Q 3303 2159 3303 1684 
Q 3303 1175 3120 767 
Q 2938 359 2589 142 
Q 2241 -75 1856 -75 
Q 1575 -75 1351 44 
Q 1128 163 984 344 
L 984 -1272 
L 422 -1272 
z
M 931 1641 
Q 931 1000 1190 694 
Q 1450 388 1819 388 
Q 2194 388 2461 705 
Q 2728 1022 2728 1688 
Q 2728 2322 2467 2637 
Q 2206 2953 1844 2953 
Q 1484 2953 1207 2617 
Q 931 2281 931 1641 
z
" transform="scale(0.015625)"/>
       <path id="ArialMT-72" d="M 416 0 
L 416 3319 
L 922 3319 
L 922 2816 
Q 1116 3169 1280 3281 
Q 1444 3394 1641 3394 
Q 1925 3394 2219 3213 
L 2025 2691 
Q 1819 2813 1613 2813 
Q 1428 2813 1281 2702 
Q 1134 2591 1072 2394 
Q 978 2094 978 1738 
L 978 0 
L 416 0 
z
" transform="scale(0.015625)"/>
       <path id="ArialMT-45" d="M 506 0 
L 506 4581 
L 3819 4581 
L 3819 4041 
L 1113 4041 
L 1113 2638 
L 3647 2638 
L 3647 2100 
L 1113 2100 
L 1113 541 
L 3925 541 
L 3925 0 
L 506 0 
z
" transform="scale(0.015625)"/>
       <path id="ArialMT-46" d="M 525 0 
L 525 4581 
L 3616 4581 
L 3616 4041 
L 1131 4041 
L 1131 2622 
L 3281 2622 
L 3281 2081 
L 1131 2081 
L 1131 0 
L 525 0 
z
" transform="scale(0.015625)"/>
       <path id="ArialMT-61" d="M 2588 409 
Q 2275 144 1986 34 
Q 1697 -75 1366 -75 
Q 819 -75 525 192 
Q 231 459 231 875 
Q 231 1119 342 1320 
Q 453 1522 633 1644 
Q 813 1766 1038 1828 
Q 1203 1872 1538 1913 
Q 2219 1994 2541 2106 
Q 2544 2222 2544 2253 
Q 2544 2597 2384 2738 
Q 2169 2928 1744 2928 
Q 1347 2928 1158 2789 
Q 969 2650 878 2297 
L 328 2372 
Q 403 2725 575 2942 
Q 747 3159 1072 3276 
Q 1397 3394 1825 3394 
Q 2250 3394 2515 3294 
Q 2781 3194 2906 3042 
Q 3031 2891 3081 2659 
Q 3109 2516 3109 2141 
L 3109 1391 
Q 3109 606 3145 398 
Q 3181 191 3288 0 
L 2700 0 
Q 2613 175 2588 409 
z
M 2541 1666 
Q 2234 1541 1622 1453 
Q 1275 1403 1131 1340 
Q 988 1278 909 1158 
Q 831 1038 831 891 
Q 831 666 1001 516 
Q 1172 366 1500 366 
Q 1825 366 2078 508 
Q 2331 650 2450 897 
Q 2541 1088 2541 1459 
L 2541 1666 
z
" transform="scale(0.015625)"/>
       <path id="ArialMT-74" d="M 1650 503 
L 1731 6 
Q 1494 -44 1306 -44 
Q 1000 -44 831 53 
Q 663 150 594 308 
Q 525 466 525 972 
L 525 2881 
L 113 2881 
L 113 3319 
L 525 3319 
L 525 4141 
L 1084 4478 
L 1084 3319 
L 1650 3319 
L 1650 2881 
L 1084 2881 
L 1084 941 
Q 1084 700 1114 631 
Q 1144 563 1211 522 
Q 1278 481 1403 481 
Q 1497 481 1650 503 
z
" transform="scale(0.015625)"/>
      </defs>
      <use xlink:href="#ArialMT-70"/>
      <use xlink:href="#ArialMT-65" transform="translate(55.615234 0)"/>
      <use xlink:href="#ArialMT-72" transform="translate(111.230469 0)"/>
      <use xlink:href="#ArialMT-20" transform="translate(144.53125 0)"/>
      <use xlink:href="#ArialMT-4d" transform="translate(172.314453 0)"/>
      <use xlink:href="#ArialMT-45" transform="translate(255.615234 0)"/>
      <use xlink:href="#ArialMT-46" transform="translate(322.314453 0)"/>
      <use xlink:href="#ArialMT-20" transform="translate(383.398438 0)"/>
      <use xlink:href="#ArialMT-70" transform="translate(411.181641 0)"/>
      <use xlink:href="#ArialMT-6c" transform="translate(466.796875 0)"/>
      <use xlink:href="#ArialMT-61" transform="translate(489.013672 0)"/>
      <use xlink:href="#ArialMT-74" transform="translate(544.628906 0)"/>
      <use xlink:href="#ArialMT-65" transform="translate(572.412109 0)"/>
      <use xlink:href="#ArialMT-64" transform="translate(628.027344 0)"/>
     </g>
    </g>
   </g>
   <g id="patch_3">
    <path d="M 64.987562 151.7685 
L 77.947563 151.7685 
L 77.947563 134.223955 
L 64.987562 134.223955 
z
" clip-path="url(#pff2bd86f54)" style="fill: #2f1b55; opacity: 0.8; stroke: #ffffff; stroke-linejoin: miter"/>
   </g>
   <g id="patch_4">
    <path d="M 145.987562 151.7685 
L 158.947563 151.7685 
L 158.947563 118.709732 
L 145.987562 118.709732 
z
" clip-path="url(#pff2bd86f54)" style="fill: #2f1b55; opacity: 0.8; stroke: #ffffff; stroke-linejoin: miter"/>
   </g>
   <g id="patch_5">
    <path d="M 77.947563 151.7685 
L 90.907563 151.7685 
L 90.907563 120.613452 
L 77.947563 120.613452 
z
" clip-path="url(#pff2bd86f54)" style="fill: #692c75; opacity: 0.8; stroke: #ffffff; stroke-linejoin: miter"/>
   </g>
   <g id="patch_6">
    <path d="M 158.947563 151.7685 
L 171.907563 151.7685 
L 171.907563 90.171126 
L 158.947563 90.171126 
z
" clip-path="url(#pff2bd86f54)" style="fill: #692c75; opacity: 0.8; stroke: #ffffff; stroke-linejoin: miter"/>
   </g>
   <g id="patch_7">
    <path d="M 90.907562 151.7685 
L 103.867562 151.7685 
L 103.867562 128.140804 
L 90.907562 128.140804 
z
" clip-path="url(#pff2bd86f54)" style="fill: #a74779; opacity: 0.8; stroke: #ffffff; stroke-linejoin: miter"/>
   </g>
   <g id="patch_8">
    <path d="M 171.907563 151.7685 
L 184.867563 151.7685 
L 184.867563 108.517484 
L 171.907563 108.517484 
z
" clip-path="url(#pff2bd86f54)" style="fill: #a74779; opacity: 0.8; stroke: #ffffff; stroke-linejoin: miter"/>
   </g>
   <g id="patch_9">
    <path d="M 103.867563 151.7685 
L 116.827562 151.7685 
L 116.827562 131.54343 
L 103.867563 131.54343 
z
" clip-path="url(#pff2bd86f54)" style="fill: #de7270; opacity: 0.8; stroke: #ffffff; stroke-linejoin: miter"/>
   </g>
   <g id="patch_10">
    <path d="M 184.867562 151.7685 
L 197.827562 151.7685 
L 197.827562 119.197384 
L 184.867562 119.197384 
z
" clip-path="url(#pff2bd86f54)" style="fill: #de7270; opacity: 0.8; stroke: #ffffff; stroke-linejoin: miter"/>
   </g>
   <g id="patch_11">
    <path d="M 116.827562 151.7685 
L 129.787563 151.7685 
L 129.787563 134.205199 
L 116.827562 134.205199 
z
" clip-path="url(#pff2bd86f54)" style="fill: #eeb389; opacity: 0.8; stroke: #ffffff; stroke-linejoin: miter"/>
   </g>
   <g id="patch_12">
    <path d="M 197.827562 151.7685 
L 210.787562 151.7685 
L 210.787562 128.003261 
L 197.827562 128.003261 
z
" clip-path="url(#pff2bd86f54)" style="fill: #eeb389; opacity: 0.8; stroke: #ffffff; stroke-linejoin: miter"/>
   </g>
   <g id="line2d_7">
    <path d="M 71.467562 142.568008 
L 71.467562 125.997165 
" clip-path="url(#pff2bd86f54)" style="fill: none; stroke: #424242; stroke-width: 2.7; stroke-linecap: round"/>
   </g>
   <g id="line2d_8">
    <path d="M 152.467562 129.634943 
L 152.467562 106.016038 
" clip-path="url(#pff2bd86f54)" style="fill: none; stroke: #424242; stroke-width: 2.7; stroke-linecap: round"/>
   </g>
   <g id="line2d_9">
    <path d="M 84.427562 134.834927 
L 84.427562 103.482239 
" clip-path="url(#pff2bd86f54)" style="fill: none; stroke: #424242; stroke-width: 2.7; stroke-linecap: round"/>
   </g>
   <g id="line2d_10">
    <path d="M 165.427562 110.361185 
L 165.427562 69.225127 
" clip-path="url(#pff2bd86f54)" style="fill: none; stroke: #424242; stroke-width: 2.7; stroke-linecap: round"/>
   </g>
   <g id="line2d_11">
    <path d="M 97.387563 136.817656 
L 97.387563 117.31832 
" clip-path="url(#pff2bd86f54)" style="fill: none; stroke: #424242; stroke-width: 2.7; stroke-linecap: round"/>
   </g>
   <g id="line2d_12">
    <path d="M 178.387563 116.661084 
L 178.387563 101.02823 
" clip-path="url(#pff2bd86f54)" style="fill: none; stroke: #424242; stroke-width: 2.7; stroke-linecap: round"/>
   </g>
   <g id="line2d_13">
    <path d="M 110.347562 136.205902 
L 110.347562 126.748337 
" clip-path="url(#pff2bd86f54)" style="fill: none; stroke: #424242; stroke-width: 2.7; stroke-linecap: round"/>
   </g>
   <g id="line2d_14">
    <path d="M 191.347562 124.191679 
L 191.347562 115.132754 
" clip-path="url(#pff2bd86f54)" style="fill: none; stroke: #424242; stroke-width: 2.7; stroke-linecap: round"/>
   </g>
   <g id="line2d_15">
    <path d="M 123.307563 137.891585 
L 123.307563 130.306285 
" clip-path="url(#pff2bd86f54)" style="fill: none; stroke: #424242; stroke-width: 2.7; stroke-linecap: round"/>
   </g>
   <g id="line2d_16">
    <path d="M 204.307563 134.030222 
L 204.307563 121.571173 
" clip-path="url(#pff2bd86f54)" style="fill: none; stroke: #424242; stroke-width: 2.7; stroke-linecap: round"/>
   </g>
   <g id="patch_13">
    <path d="M 56.887563 151.7685 
L 56.887563 34.7685 
" style="fill: none; stroke: #262626; stroke-width: 1.25; stroke-linejoin: miter; stroke-linecap: square"/>
   </g>
   <g id="patch_14">
    <path d="M 218.887563 151.7685 
L 218.887563 34.7685 
" style="fill: none; stroke: #262626; stroke-width: 1.25; stroke-linejoin: miter; stroke-linecap: square"/>
   </g>
   <g id="patch_15">
    <path d="M 56.887563 151.7685 
L 218.887563 151.7685 
" style="fill: none; stroke: #262626; stroke-width: 1.25; stroke-linejoin: miter; stroke-linecap: square"/>
   </g>
   <g id="patch_16">
    <path d="M 56.887563 34.7685 
L 218.887563 34.7685 
" style="fill: none; stroke: #262626; stroke-width: 1.25; stroke-linejoin: miter; stroke-linecap: square"/>
   </g>
   <g id="PathCollection_1">
    <defs>
     <path id="C0_0_7e8961b997" d="M 0 2.5 
C 0.663008 2.5 1.29895 2.236584 1.767767 1.767767 
C 2.236584 1.29895 2.5 0.663008 2.5 -0 
C 2.5 -0.663008 2.236584 -1.29895 1.767767 -1.767767 
C 1.29895 -2.236584 0.663008 -2.5 0 -2.5 
C -0.663008 -2.5 -1.29895 -2.236584 -1.767767 -1.767767 
C -2.236584 -1.29895 -2.5 -0.663008 -2.5 0 
C -2.5 0.663008 -2.236584 1.29895 -1.767767 1.767767 
C -1.29895 2.236584 -0.663008 2.5 0 2.5 
z
"/>
    </defs>
    <g clip-path="url(#pff2bd86f54)">
     <use xlink:href="#C0_0_7e8961b997" x="72.398429" y="146.835709" style="fill: #ffffff; stroke: #000000; stroke-width: 0.4"/>
    </g>
    <g clip-path="url(#pff2bd86f54)">
     <use xlink:href="#C0_0_7e8961b997" x="71.804252" y="147.304605" style="fill: #ffffff; stroke: #000000; stroke-width: 0.4"/>
    </g>
    <g clip-path="url(#pff2bd86f54)">
     <use xlink:href="#C0_0_7e8961b997" x="72.755122" y="147.848525" style="fill: #ffffff; stroke: #000000; stroke-width: 0.4"/>
    </g>
   </g>
   <g id="PathCollection_2">
    <defs>
     <path id="C1_0_e193239c59" d="M 0 2.5 
C 0.663008 2.5 1.29895 2.236584 1.767767 1.767767 
C 2.236584 1.29895 2.5 0.663008 2.5 -0 
C 2.5 -0.663008 2.236584 -1.29895 1.767767 -1.767767 
C 1.29895 -2.236584 0.663008 -2.5 0 -2.5 
C -0.663008 -2.5 -1.29895 -2.236584 -1.767767 -1.767767 
C -2.236584 -1.29895 -2.5 -0.663008 -2.5 0 
C -2.5 0.663008 -2.236584 1.29895 -1.767767 1.767767 
C -1.29895 2.236584 -0.663008 2.5 0 2.5 
z
"/>
    </defs>
    <g clip-path="url(#pff2bd86f54)">
     <use xlink:href="#C1_0_e193239c59" x="83.996498" y="144.209888" style="fill: #ffffff; stroke: #000000; stroke-width: 0.4"/>
    </g>
    <g clip-path="url(#pff2bd86f54)">
     <use xlink:href="#C1_0_e193239c59" x="83.332068" y="147.492164" style="fill: #ffffff; stroke: #000000; stroke-width: 0.4"/>
    </g>
    <g clip-path="url(#pff2bd86f54)">
     <use xlink:href="#C1_0_e193239c59" x="83.698651" y="144.134864" style="fill: #ffffff; stroke: #000000; stroke-width: 0.4"/>
    </g>
   </g>
   <g id="PathCollection_3">
    <defs>
     <path id="C2_0_861419bd90" d="M 0 2.5 
C 0.663008 2.5 1.29895 2.236584 1.767767 1.767767 
C 2.236584 1.29895 2.5 0.663008 2.5 -0 
C 2.5 -0.663008 2.236584 -1.29895 1.767767 -1.767767 
C 1.29895 -2.236584 0.663008 -2.5 0 -2.5 
C -0.663008 -2.5 -1.29895 -2.236584 -1.767767 -1.767767 
C -2.236584 -1.29895 -2.5 -0.663008 -2.5 0 
C -2.5 0.663008 -2.236584 1.29895 -1.767767 1.767767 
C -1.29895 2.236584 -0.663008 2.5 0 2.5 
z
"/>
    </defs>
    <g clip-path="url(#pff2bd86f54)">
     <use xlink:href="#C2_0_861419bd90" x="98.618104" y="142.61564" style="fill: #ffffff; stroke: #000000; stroke-width: 0.4"/>
    </g>
    <g clip-path="url(#pff2bd86f54)">
     <use xlink:href="#C2_0_861419bd90" x="96.997249" y="144.641273" style="fill: #ffffff; stroke: #000000; stroke-width: 0.4"/>
    </g>
    <g clip-path="url(#pff2bd86f54)">
     <use xlink:href="#C2_0_861419bd90" x="97.229675" y="146.723173" style="fill: #ffffff; stroke: #000000; stroke-width: 0.4"/>
    </g>
   </g>
   <g id="PathCollection_4">
    <defs>
     <path id="C3_0_45ba08d011" d="M 0 2.5 
C 0.663008 2.5 1.29895 2.236584 1.767767 1.767767 
C 2.236584 1.29895 2.5 0.663008 2.5 -0 
C 2.5 -0.663008 2.236584 -1.29895 1.767767 -1.767767 
C 1.29895 -2.236584 0.663008 -2.5 0 -2.5 
C -0.663008 -2.5 -1.29895 -2.236584 -1.767767 -1.767767 
C -2.236584 -1.29895 -2.5 -0.663008 -2.5 0 
C -2.5 0.663008 -2.236584 1.29895 -1.767767 1.767767 
C -1.29895 2.236584 -0.663008 2.5 0 2.5 
z
"/>
    </defs>
    <g clip-path="url(#pff2bd86f54)">
     <use xlink:href="#C3_0_45ba08d011" x="109.793981" y="141.640335" style="fill: #ffffff; stroke: #000000; stroke-width: 0.4"/>
    </g>
    <g clip-path="url(#pff2bd86f54)">
     <use xlink:href="#C3_0_45ba08d011" x="110.401284" y="144.097353" style="fill: #ffffff; stroke: #000000; stroke-width: 0.4"/>
    </g>
    <g clip-path="url(#pff2bd86f54)">
     <use xlink:href="#C3_0_45ba08d011" x="109.974446" y="139.183317" style="fill: #ffffff; stroke: #000000; stroke-width: 0.4"/>
    </g>
   </g>
   <g id="PathCollection_5">
    <defs>
     <path id="C4_0_d07d8e7f6e" d="M 0 2.5 
C 0.663008 2.5 1.29895 2.236584 1.767767 1.767767 
C 2.236584 1.29895 2.5 0.663008 2.5 -0 
C 2.5 -0.663008 2.236584 -1.29895 1.767767 -1.767767 
C 1.29895 -2.236584 0.663008 -2.5 0 -2.5 
C -0.663008 -2.5 -1.29895 -2.236584 -1.767767 -1.767767 
C -2.236584 -1.29895 -2.5 -0.663008 -2.5 0 
C -2.5 0.663008 -2.236584 1.29895 -1.767767 1.767767 
C -1.29895 2.236584 -0.663008 2.5 0 2.5 
z
"/>
    </defs>
    <g clip-path="url(#pff2bd86f54)">
     <use xlink:href="#C4_0_d07d8e7f6e" x="124.060757" y="127.873533" style="fill: #ffffff; stroke: #000000; stroke-width: 0.4"/>
    </g>
    <g clip-path="url(#pff2bd86f54)">
     <use xlink:href="#C4_0_d07d8e7f6e" x="122.286062" y="129.467781" style="fill: #ffffff; stroke: #000000; stroke-width: 0.4"/>
    </g>
    <g clip-path="url(#pff2bd86f54)">
     <use xlink:href="#C4_0_d07d8e7f6e" x="122.022419" y="131.249588" style="fill: #ffffff; stroke: #000000; stroke-width: 0.4"/>
    </g>
   </g>
   <g id="PathCollection_6">
    <defs>
     <path id="C5_0_1c013739ea" d="M 0 2.5 
C 0.663008 2.5 1.29895 2.236584 1.767767 1.767767 
C 2.236584 1.29895 2.5 0.663008 2.5 -0 
C 2.5 -0.663008 2.236584 -1.29895 1.767767 -1.767767 
C 1.29895 -2.236584 0.663008 -2.5 0 -2.5 
C -0.663008 -2.5 -1.29895 -2.236584 -1.767767 -1.767767 
C -2.236584 -1.29895 -2.5 -0.663008 -2.5 0 
C -2.5 0.663008 -2.236584 1.29895 -1.767767 1.767767 
C -1.29895 2.236584 -0.663008 2.5 0 2.5 
z
"/>
    </defs>
    <g clip-path="url(#pff2bd86f54)">
     <use xlink:href="#C5_0_1c013739ea" x="153.334783" y="145.01639" style="fill: #ffffff; stroke: #000000; stroke-width: 0.4"/>
    </g>
    <g clip-path="url(#pff2bd86f54)">
     <use xlink:href="#C5_0_1c013739ea" x="153.496895" y="140.43996" style="fill: #ffffff; stroke: #000000; stroke-width: 0.4"/>
    </g>
    <g clip-path="url(#pff2bd86f54)">
     <use xlink:href="#C5_0_1c013739ea" x="153.587955" y="141.621579" style="fill: #ffffff; stroke: #000000; stroke-width: 0.4"/>
    </g>
   </g>
   <g id="PathCollection_7">
    <defs>
     <path id="C6_0_e7afbf4ddb" d="M 0 2.5 
C 0.663008 2.5 1.29895 2.236584 1.767767 1.767767 
C 2.236584 1.29895 2.5 0.663008 2.5 -0 
C 2.5 -0.663008 2.236584 -1.29895 1.767767 -1.767767 
C 1.29895 -2.236584 0.663008 -2.5 0 -2.5 
C -0.663008 -2.5 -1.29895 -2.236584 -1.767767 -1.767767 
C -2.236584 -1.29895 -2.5 -0.663008 -2.5 0 
C -2.5 0.663008 -2.236584 1.29895 -1.767767 1.767767 
C -1.29895 2.236584 -0.663008 2.5 0 2.5 
z
"/>
    </defs>
    <g clip-path="url(#pff2bd86f54)">
     <use xlink:href="#C6_0_e7afbf4ddb" x="166.64071" y="138.658153" style="fill: #ffffff; stroke: #000000; stroke-width: 0.4"/>
    </g>
    <g clip-path="url(#pff2bd86f54)">
     <use xlink:href="#C6_0_e7afbf4ddb" x="164.556807" y="139.727237" style="fill: #ffffff; stroke: #000000; stroke-width: 0.4"/>
    </g>
    <g clip-path="url(#pff2bd86f54)">
     <use xlink:href="#C6_0_e7afbf4ddb" x="164.442078" y="135.638459" style="fill: #ffffff; stroke: #000000; stroke-width: 0.4"/>
    </g>
   </g>
   <g id="PathCollection_8">
    <defs>
     <path id="C7_0_762b51fb08" d="M 0 2.5 
C 0.663008 2.5 1.29895 2.236584 1.767767 1.767767 
C 2.236584 1.29895 2.5 0.663008 2.5 -0 
C 2.5 -0.663008 2.236584 -1.29895 1.767767 -1.767767 
C 1.29895 -2.236584 0.663008 -2.5 0 -2.5 
C -0.663008 -2.5 -1.29895 -2.236584 -1.767767 -1.767767 
C -2.236584 -1.29895 -2.5 -0.663008 -2.5 0 
C -2.5 0.663008 -2.236584 1.29895 -1.767767 1.767767 
C -1.29895 2.236584 -0.663008 2.5 0 2.5 
z
"/>
    </defs>
    <g clip-path="url(#pff2bd86f54)">
     <use xlink:href="#C7_0_762b51fb08" x="177.310978" y="124.309919" style="fill: #ffffff; stroke: #000000; stroke-width: 0.4"/>
    </g>
    <g clip-path="url(#pff2bd86f54)">
     <use xlink:href="#C7_0_762b51fb08" x="177.807884" y="126.579378" style="fill: #ffffff; stroke: #000000; stroke-width: 0.4"/>
    </g>
    <g clip-path="url(#pff2bd86f54)">
     <use xlink:href="#C7_0_762b51fb08" x="177.749362" y="124.328675" style="fill: #ffffff; stroke: #000000; stroke-width: 0.4"/>
    </g>
   </g>
   <g id="PathCollection_9">
    <defs>
     <path id="C8_0_c1ac264d21" d="M 0 2.5 
C 0.663008 2.5 1.29895 2.236584 1.767767 1.767767 
C 2.236584 1.29895 2.5 0.663008 2.5 -0 
C 2.5 -0.663008 2.236584 -1.29895 1.767767 -1.767767 
C 1.29895 -2.236584 0.663008 -2.5 0 -2.5 
C -0.663008 -2.5 -1.29895 -2.236584 -1.767767 -1.767767 
C -2.236584 -1.29895 -2.5 -0.663008 -2.5 0 
C -2.5 0.663008 -2.236584 1.29895 -1.767767 1.767767 
C -1.29895 2.236584 -0.663008 2.5 0 2.5 
z
"/>
    </defs>
    <g clip-path="url(#pff2bd86f54)">
     <use xlink:href="#C8_0_c1ac264d21" x="192.881794" y="118.758184" style="fill: #ffffff; stroke: #000000; stroke-width: 0.4"/>
    </g>
    <g clip-path="url(#pff2bd86f54)">
     <use xlink:href="#C8_0_c1ac264d21" x="190.681158" y="111.030769" style="fill: #ffffff; stroke: #000000; stroke-width: 0.4"/>
    </g>
    <g clip-path="url(#pff2bd86f54)">
     <use xlink:href="#C8_0_c1ac264d21" x="192.144687" y="118.308044" style="fill: #ffffff; stroke: #000000; stroke-width: 0.4"/>
    </g>
   </g>
   <g id="PathCollection_10">
    <defs>
     <path id="C9_0_c7fb390808" d="M 0 2.5 
C 0.663008 2.5 1.29895 2.236584 1.767767 1.767767 
C 2.236584 1.29895 2.5 0.663008 2.5 -0 
C 2.5 -0.663008 2.236584 -1.29895 1.767767 -1.767767 
C 1.29895 -2.236584 0.663008 -2.5 0 -2.5 
C -0.663008 -2.5 -1.29895 -2.236584 -1.767767 -1.767767 
C -2.236584 -1.29895 -2.5 -0.663008 -2.5 0 
C -2.5 0.663008 -2.236584 1.29895 -1.767767 1.767767 
C -1.29895 2.236584 -0.663008 2.5 0 2.5 
z
"/>
    </defs>
    <g clip-path="url(#pff2bd86f54)">
     <use xlink:href="#C9_0_c7fb390808" x="203.276379" y="103.003261" style="fill: #ffffff; stroke: #000000; stroke-width: 0.4"/>
    </g>
    <g clip-path="url(#pff2bd86f54)">
     <use xlink:href="#C9_0_c7fb390808" x="203.63505" y="116.263655" style="fill: #ffffff; stroke: #000000; stroke-width: 0.4"/>
    </g>
    <g clip-path="url(#pff2bd86f54)">
     <use xlink:href="#C9_0_c7fb390808" x="202.964021" y="108.498728" style="fill: #ffffff; stroke: #000000; stroke-width: 0.4"/>
    </g>
   </g>
   <g id="PathCollection_11">
    <path d="M 70.343256 104.141898 
L 67.843256 109.141898 
L 72.843256 109.141898 
z
" clip-path="url(#pff2bd86f54)" style="fill: #ffffff; stroke: #000000; stroke-width: 0.4"/>
    <path d="M 71.925924 106.767719 
L 69.425924 111.767719 
L 74.425924 111.767719 
z
" clip-path="url(#pff2bd86f54)" style="fill: #ffffff; stroke: #000000; stroke-width: 0.4"/>
    <path d="M 71.349153 109.787412 
L 68.849153 114.787412 
L 73.849153 114.787412 
z
" clip-path="url(#pff2bd86f54)" style="fill: #ffffff; stroke: #000000; stroke-width: 0.4"/>
   </g>
   <g id="PathCollection_12">
    <path d="M 83.061797 77.602354 
L 80.561797 82.602354 
L 85.561797 82.602354 
z
" clip-path="url(#pff2bd86f54)" style="fill: #ffffff; stroke: #000000; stroke-width: 0.4"/>
    <path d="M 84.076643 73.90745 
L 81.576643 78.90745 
L 86.576643 78.90745 
z
" clip-path="url(#pff2bd86f54)" style="fill: #ffffff; stroke: #000000; stroke-width: 0.4"/>
    <path d="M 85.678511 71.938084 
L 83.178511 76.938084 
L 88.178511 76.938084 
z
" clip-path="url(#pff2bd86f54)" style="fill: #ffffff; stroke: #000000; stroke-width: 0.4"/>
   </g>
   <g id="PathCollection_13">
    <path d="M 97.277367 90.206293 
L 94.777367 95.206293 
L 99.777367 95.206293 
z
" clip-path="url(#pff2bd86f54)" style="fill: #ffffff; stroke: #000000; stroke-width: 0.4"/>
    <path d="M 96.911691 101.178472 
L 94.411691 106.178472 
L 99.411691 106.178472 
z
" clip-path="url(#pff2bd86f54)" style="fill: #ffffff; stroke: #000000; stroke-width: 0.4"/>
    <path d="M 96.603775 104.066874 
L 94.103775 109.066874 
L 99.103775 109.066874 
z
" clip-path="url(#pff2bd86f54)" style="fill: #ffffff; stroke: #000000; stroke-width: 0.4"/>
   </g>
   <g id="PathCollection_14">
    <path d="M 110.754962 111.981848 
L 108.254962 116.981848 
L 113.254962 116.981848 
z
" clip-path="url(#pff2bd86f54)" style="fill: #ffffff; stroke: #000000; stroke-width: 0.4"/>
    <path d="M 110.986809 117.252245 
L 108.486809 122.252245 
L 113.486809 122.252245 
z
" clip-path="url(#pff2bd86f54)" style="fill: #ffffff; stroke: #000000; stroke-width: 0.4"/>
    <path d="M 111.695799 123.272876 
L 109.195799 128.272876 
L 114.195799 128.272876 
z
" clip-path="url(#pff2bd86f54)" style="fill: #ffffff; stroke: #000000; stroke-width: 0.4"/>
   </g>
   <g id="PathCollection_15">
    <path d="M 122.875347 133.90745 
L 120.375347 138.90745 
L 125.375347 138.90745 
z
" clip-path="url(#pff2bd86f54)" style="fill: #ffffff; stroke: #000000; stroke-width: 0.4"/>
    <path d="M 122.188933 134.976534 
L 119.688933 139.976534 
L 124.688933 139.976534 
z
" clip-path="url(#pff2bd86f54)" style="fill: #ffffff; stroke: #000000; stroke-width: 0.4"/>
    <path d="M 124.863392 134.45137 
L 122.363392 139.45137 
L 127.363392 139.45137 
z
" clip-path="url(#pff2bd86f54)" style="fill: #ffffff; stroke: #000000; stroke-width: 0.4"/>
   </g>
   <g id="PathCollection_16">
    <path d="M 152.039193 82.066249 
L 149.539193 87.066249 
L 154.539193 87.066249 
z
" clip-path="url(#pff2bd86f54)" style="fill: #ffffff; stroke: #000000; stroke-width: 0.4"/>
    <path d="M 153.790799 76.908387 
L 151.290799 81.908387 
L 156.290799 81.908387 
z
" clip-path="url(#pff2bd86f54)" style="fill: #ffffff; stroke: #000000; stroke-width: 0.4"/>
    <path d="M 152.269031 92.794602 
L 149.769031 97.794602 
L 154.769031 97.794602 
z
" clip-path="url(#pff2bd86f54)" style="fill: #ffffff; stroke: #000000; stroke-width: 0.4"/>
   </g>
   <g id="PathCollection_17">
    <path d="M 164.986168 39.171595 
L 162.486168 44.171595 
L 167.486168 44.171595 
z
" clip-path="url(#pff2bd86f54)" style="fill: #ffffff; stroke: #000000; stroke-width: 0.4"/>
    <path d="M 166.6267 37.839929 
L 164.1267 42.839929 
L 169.1267 42.839929 
z
" clip-path="url(#pff2bd86f54)" style="fill: #ffffff; stroke: #000000; stroke-width: 0.4"/>
    <path d="M 164.476757 52.4695 
L 161.976757 57.4695 
L 166.976757 57.4695 
z
" clip-path="url(#pff2bd86f54)" style="fill: #ffffff; stroke: #000000; stroke-width: 0.4"/>
   </g>
   <g id="PathCollection_18">
    <path d="M 179.362276 93.657372 
L 176.862276 98.657372 
L 181.862276 98.657372 
z
" clip-path="url(#pff2bd86f54)" style="fill: #ffffff; stroke: #000000; stroke-width: 0.4"/>
    <path d="M 177.987822 94.520141 
L 175.487822 99.520141 
L 180.487822 99.520141 
z
" clip-path="url(#pff2bd86f54)" style="fill: #ffffff; stroke: #000000; stroke-width: 0.4"/>
    <path d="M 177.043929 80.134396 
L 174.543929 85.134396 
L 179.543929 85.134396 
z
" clip-path="url(#pff2bd86f54)" style="fill: #ffffff; stroke: #000000; stroke-width: 0.4"/>
   </g>
   <g id="PathCollection_19">
    <path d="M 191.233397 112.863373 
L 188.733397 117.863373 
L 193.733397 117.863373 
z
" clip-path="url(#pff2bd86f54)" style="fill: #ffffff; stroke: #000000; stroke-width: 0.4"/>
    <path d="M 190.884331 110.950276 
L 188.384331 115.950276 
L 193.384331 115.950276 
z
" clip-path="url(#pff2bd86f54)" style="fill: #ffffff; stroke: #000000; stroke-width: 0.4"/>
    <path d="M 190.285405 105.098447 
L 187.785405 110.098447 
L 192.785405 110.098447 
z
" clip-path="url(#pff2bd86f54)" style="fill: #ffffff; stroke: #000000; stroke-width: 0.4"/>
   </g>
   <g id="PathCollection_20">
    <path d="M 203.683465 128.430738 
L 201.183465 133.430738 
L 206.183465 133.430738 
z
" clip-path="url(#pff2bd86f54)" style="fill: #ffffff; stroke: #000000; stroke-width: 0.4"/>
    <path d="M 202.789676 133.457309 
L 200.289676 138.457309 
L 205.289676 138.457309 
z
" clip-path="url(#pff2bd86f54)" style="fill: #ffffff; stroke: #000000; stroke-width: 0.4"/>
    <path d="M 203.347267 128.712076 
L 200.847267 133.712076 
L 205.847267 133.712076 
z
" clip-path="url(#pff2bd86f54)" style="fill: #ffffff; stroke: #000000; stroke-width: 0.4"/>
   </g>
   <g id="PathCollection_21">
    <path d="M 69.826213 149.110638 
L 74.826213 149.110638 
L 74.826213 144.110638 
L 69.826213 144.110638 
z
" clip-path="url(#pff2bd86f54)" style="fill: #ffffff; stroke: #000000; stroke-width: 0.4"/>
    <path d="M 67.830227 148.791789 
L 72.830227 148.791789 
L 72.830227 143.791789 
L 67.830227 143.791789 
z
" clip-path="url(#pff2bd86f54)" style="fill: #ffffff; stroke: #000000; stroke-width: 0.4"/>
    <path d="M 69.677105 147.722704 
L 74.677105 147.722704 
L 74.677105 142.722704 
L 69.677105 142.722704 
z
" clip-path="url(#pff2bd86f54)" style="fill: #ffffff; stroke: #000000; stroke-width: 0.4"/>
   </g>
   <g id="PathCollection_22">
    <path d="M 82.428139 140.595477 
L 87.428139 140.595477 
L 87.428139 135.595477 
L 82.428139 135.595477 
z
" clip-path="url(#pff2bd86f54)" style="fill: #ffffff; stroke: #000000; stroke-width: 0.4"/>
    <path d="M 83.150556 145.303198 
L 88.150556 145.303198 
L 88.150556 140.303198 
L 83.150556 140.303198 
z
" clip-path="url(#pff2bd86f54)" style="fill: #ffffff; stroke: #000000; stroke-width: 0.4"/>
    <path d="M 81.101783 143.858997 
L 86.101783 143.858997 
L 86.101783 138.858997 
L 81.101783 138.858997 
z
" clip-path="url(#pff2bd86f54)" style="fill: #ffffff; stroke: #000000; stroke-width: 0.4"/>
   </g>
   <g id="PathCollection_23">
    <path d="M 95.347673 134.462311 
L 100.347673 134.462311 
L 100.347673 129.462311 
L 95.347673 129.462311 
z
" clip-path="url(#pff2bd86f54)" style="fill: #ffffff; stroke: #000000; stroke-width: 0.4"/>
    <path d="M 94.086696 140.970594 
L 99.086696 140.970594 
L 99.086696 135.970594 
L 94.086696 135.970594 
z
" clip-path="url(#pff2bd86f54)" style="fill: #ffffff; stroke: #000000; stroke-width: 0.4"/>
    <path d="M 95.127822 138.175971 
L 100.127822 138.175971 
L 100.127822 133.175971 
L 95.127822 133.175971 
z
" clip-path="url(#pff2bd86f54)" style="fill: #ffffff; stroke: #000000; stroke-width: 0.4"/>
   </g>
   <g id="PathCollection_24">
    <path d="M 108.563489 131.236302 
L 113.563489 131.236302 
L 113.563489 126.236302 
L 108.563489 126.236302 
z
" clip-path="url(#pff2bd86f54)" style="fill: #ffffff; stroke: #000000; stroke-width: 0.4"/>
    <path d="M 107.228872 134.424799 
L 112.228872 134.424799 
L 112.228872 129.424799 
L 107.228872 129.424799 
z
" clip-path="url(#pff2bd86f54)" style="fill: #ffffff; stroke: #000000; stroke-width: 0.4"/>
    <path d="M 107.608361 130.4298 
L 112.608361 130.4298 
L 112.608361 125.4298 
L 107.608361 125.4298 
z
" clip-path="url(#pff2bd86f54)" style="fill: #ffffff; stroke: #000000; stroke-width: 0.4"/>
   </g>
   <g id="PathCollection_25">
    <path d="M 120.770822 125.965905 
L 125.770822 125.965905 
L 125.770822 120.965905 
L 120.770822 120.965905 
z
" clip-path="url(#pff2bd86f54)" style="fill: #ffffff; stroke: #000000; stroke-width: 0.4"/>
    <path d="M 121.611547 131.555152 
L 126.611547 131.555152 
L 126.611547 126.555152 
L 121.611547 126.555152 
z
" clip-path="url(#pff2bd86f54)" style="fill: #ffffff; stroke: #000000; stroke-width: 0.4"/>
    <path d="M 121.773124 130.467312 
L 126.773124 130.467312 
L 126.773124 125.467312 
L 121.773124 125.467312 
z
" clip-path="url(#pff2bd86f54)" style="fill: #ffffff; stroke: #000000; stroke-width: 0.4"/>
   </g>
   <g id="PathCollection_26">
    <path d="M 149.989109 123.058747 
L 154.989109 123.058747 
L 154.989109 118.058747 
L 149.989109 118.058747 
z
" clip-path="url(#pff2bd86f54)" style="fill: #ffffff; stroke: #000000; stroke-width: 0.4"/>
    <path d="M 148.907694 133.130644 
L 153.907694 133.130644 
L 153.907694 128.130644 
L 148.907694 128.130644 
z
" clip-path="url(#pff2bd86f54)" style="fill: #ffffff; stroke: #000000; stroke-width: 0.4"/>
    <path d="M 148.638009 139.807731 
L 153.638009 139.807731 
L 153.638009 134.807731 
L 148.638009 134.807731 
z
" clip-path="url(#pff2bd86f54)" style="fill: #ffffff; stroke: #000000; stroke-width: 0.4"/>
   </g>
   <g id="PathCollection_27">
    <path d="M 164.219839 85.88463 
L 169.219839 85.88463 
L 169.219839 80.88463 
L 164.219839 80.88463 
z
" clip-path="url(#pff2bd86f54)" style="fill: #ffffff; stroke: #000000; stroke-width: 0.4"/>
    <path d="M 161.443299 50.567343 
L 166.443299 50.567343 
L 166.443299 45.567343 
L 161.443299 45.567343 
z
" clip-path="url(#pff2bd86f54)" style="fill: #ffffff; stroke: #000000; stroke-width: 0.4"/>
    <path d="M 161.646849 101.058122 
L 166.646849 101.058122 
L 166.646849 96.058122 
L 161.646849 96.058122 
z
" clip-path="url(#pff2bd86f54)" style="fill: #ffffff; stroke: #000000; stroke-width: 0.4"/>
   </g>
   <g id="PathCollection_28">
    <path d="M 177.274706 110.229738 
L 182.274706 110.229738 
L 182.274706 105.229738 
L 177.274706 105.229738 
z
" clip-path="url(#pff2bd86f54)" style="fill: #ffffff; stroke: #000000; stroke-width: 0.4"/>
    <path d="M 174.952386 92.449181 
L 179.952386 92.449181 
L 179.952386 87.449181 
L 174.952386 87.449181 
z
" clip-path="url(#pff2bd86f54)" style="fill: #ffffff; stroke: #000000; stroke-width: 0.4"/>
    <path d="M 177.447017 111.711451 
L 182.447017 111.711451 
L 182.447017 106.711451 
L 177.447017 106.711451 
z
" clip-path="url(#pff2bd86f54)" style="fill: #ffffff; stroke: #000000; stroke-width: 0.4"/>
   </g>
   <g id="PathCollection_29">
    <path d="M 188.365379 123.415108 
L 193.365379 123.415108 
L 193.365379 118.415108 
L 188.365379 118.415108 
z
" clip-path="url(#pff2bd86f54)" style="fill: #ffffff; stroke: #000000; stroke-width: 0.4"/>
    <path d="M 188.950006 119.307575 
L 193.950006 119.307575 
L 193.950006 114.307575 
L 188.950006 114.307575 
z
" clip-path="url(#pff2bd86f54)" style="fill: #ffffff; stroke: #000000; stroke-width: 0.4"/>
    <path d="M 187.356237 117.431989 
L 192.356237 117.431989 
L 192.356237 112.431989 
L 187.356237 112.431989 
z
" clip-path="url(#pff2bd86f54)" style="fill: #ffffff; stroke: #000000; stroke-width: 0.4"/>
   </g>
   <g id="PathCollection_30">
    <path d="M 201.451666 139.13252 
L 206.451666 139.13252 
L 206.451666 134.13252 
L 201.451666 134.13252 
z
" clip-path="url(#pff2bd86f54)" style="fill: #ffffff; stroke: #000000; stroke-width: 0.4"/>
    <path d="M 200.647232 135.024986 
L 205.647232 135.024986 
L 205.647232 130.024986 
L 200.647232 130.024986 
z
" clip-path="url(#pff2bd86f54)" style="fill: #ffffff; stroke: #000000; stroke-width: 0.4"/>
    <path d="M 200.677159 128.591726 
L 205.677159 128.591726 
L 205.677159 123.591726 
L 200.677159 123.591726 
z
" clip-path="url(#pff2bd86f54)" style="fill: #ffffff; stroke: #000000; stroke-width: 0.4"/>
   </g>
   <g id="PathCollection_31">
    <path d="M 72.961307 139.999251 
L 76.496841 136.463717 
L 72.961307 132.928183 
L 69.425773 136.463717 
z
" clip-path="url(#pff2bd86f54)" style="fill: #ffffff; stroke: #000000; stroke-width: 0.4"/>
    <path d="M 72.076506 138.292468 
L 75.612039 134.756934 
L 72.076506 131.2214 
L 68.540972 134.756934 
z
" clip-path="url(#pff2bd86f54)" style="fill: #ffffff; stroke: #000000; stroke-width: 0.4"/>
    <path d="M 70.67978 134.691342 
L 74.215314 131.155809 
L 70.67978 127.620275 
L 67.144246 131.155809 
z
" clip-path="url(#pff2bd86f54)" style="fill: #ffffff; stroke: #000000; stroke-width: 0.4"/>
   </g>
   <g id="PathCollection_32">
    <path d="M 84.867435 121.46846 
L 88.402969 117.932926 
L 84.867435 114.397392 
L 81.331901 117.932926 
z
" clip-path="url(#pff2bd86f54)" style="fill: #ffffff; stroke: #000000; stroke-width: 0.4"/>
    <path d="M 82.898819 124.975806 
L 86.434353 121.440272 
L 82.898819 117.904739 
L 79.363285 121.440272 
z
" clip-path="url(#pff2bd86f54)" style="fill: #ffffff; stroke: #000000; stroke-width: 0.4"/>
    <path d="M 85.478513 122.481277 
L 89.014047 118.945743 
L 85.478513 115.410209 
L 81.942979 118.945743 
z
" clip-path="url(#pff2bd86f54)" style="fill: #ffffff; stroke: #000000; stroke-width: 0.4"/>
   </g>
   <g id="PathCollection_33">
    <path d="M 97.727864 131.877963 
L 101.263398 128.342429 
L 97.727864 124.806895 
L 94.19233 128.342429 
z
" clip-path="url(#pff2bd86f54)" style="fill: #ffffff; stroke: #000000; stroke-width: 0.4"/>
    <path d="M 98.177928 139.09897 
L 101.713462 135.563436 
L 98.177928 132.027902 
L 94.642394 135.563436 
z
" clip-path="url(#pff2bd86f54)" style="fill: #ffffff; stroke: #000000; stroke-width: 0.4"/>
    <path d="M 96.693721 134.278713 
L 100.229255 130.74318 
L 96.693721 127.207646 
L 93.158187 130.74318 
z
" clip-path="url(#pff2bd86f54)" style="fill: #ffffff; stroke: #000000; stroke-width: 0.4"/>
   </g>
   <g id="PathCollection_34">
    <path d="M 110.233247 138.386247 
L 113.768781 134.850713 
L 110.233247 131.315179 
L 106.697713 134.850713 
z
" clip-path="url(#pff2bd86f54)" style="fill: #ffffff; stroke: #000000; stroke-width: 0.4"/>
    <path d="M 110.891222 143.487841 
L 114.426756 139.952307 
L 110.891222 136.416774 
L 107.355688 139.952307 
z
" clip-path="url(#pff2bd86f54)" style="fill: #ffffff; stroke: #000000; stroke-width: 0.4"/>
    <path d="M 109.435445 133.734794 
L 112.970979 130.19926 
L 109.435445 126.663726 
L 105.899911 130.19926 
z
" clip-path="url(#pff2bd86f54)" style="fill: #ffffff; stroke: #000000; stroke-width: 0.4"/>
   </g>
   <g id="PathCollection_35">
    <path d="M 123.49268 148.983309 
L 127.028214 145.447775 
L 123.49268 141.912241 
L 119.957146 145.447775 
z
" clip-path="url(#pff2bd86f54)" style="fill: #ffffff; stroke: #000000; stroke-width: 0.4"/>
    <path d="M 122.726198 147.726666 
L 126.261732 144.191132 
L 122.726198 140.655598 
L 119.190664 144.191132 
z
" clip-path="url(#pff2bd86f54)" style="fill: #ffffff; stroke: #000000; stroke-width: 0.4"/>
    <path d="M 123.092643 144.44439 
L 126.628177 140.908856 
L 123.092643 137.373322 
L 119.557109 140.908856 
z
" clip-path="url(#pff2bd86f54)" style="fill: #ffffff; stroke: #000000; stroke-width: 0.4"/>
   </g>
   <g id="PathCollection_36">
    <path d="M 153.836581 120.812005 
L 157.372115 117.276471 
L 153.836581 113.740937 
L 150.301047 117.276471 
z
" clip-path="url(#pff2bd86f54)" style="fill: #ffffff; stroke: #000000; stroke-width: 0.4"/>
    <path d="M 153.481962 129.495969 
L 157.017496 125.960435 
L 153.481962 122.424901 
L 149.946428 125.960435 
z
" clip-path="url(#pff2bd86f54)" style="fill: #ffffff; stroke: #000000; stroke-width: 0.4"/>
    <path d="M 152.841309 109.971117 
L 156.376843 106.435583 
L 152.841309 102.90005 
L 149.305775 106.435583 
z
" clip-path="url(#pff2bd86f54)" style="fill: #ffffff; stroke: #000000; stroke-width: 0.4"/>
   </g>
   <g id="PathCollection_37">
    <path d="M 165.768515 104.944547 
L 169.304049 101.409013 
L 165.768515 97.873479 
L 162.232981 101.409013 
z
" clip-path="url(#pff2bd86f54)" style="fill: #ffffff; stroke: #000000; stroke-width: 0.4"/>
    <path d="M 165.274206 113.703534 
L 168.809739 110.168 
L 165.274206 106.632466 
L 161.738672 110.168 
z
" clip-path="url(#pff2bd86f54)" style="fill: #ffffff; stroke: #000000; stroke-width: 0.4"/>
    <path d="M 166.883684 92.997063 
L 170.419218 89.461529 
L 166.883684 85.925995 
L 163.34815 89.461529 
z
" clip-path="url(#pff2bd86f54)" style="fill: #ffffff; stroke: #000000; stroke-width: 0.4"/>
   </g>
   <g id="PathCollection_38">
    <path d="M 179.433418 122.293718 
L 182.968952 118.758184 
L 179.433418 115.22265 
L 175.897884 118.758184 
z
" clip-path="url(#pff2bd86f54)" style="fill: #ffffff; stroke: #000000; stroke-width: 0.4"/>
    <path d="M 179.487171 125.519726 
L 183.022705 121.984192 
L 179.487171 118.448658 
L 175.951637 121.984192 
z
" clip-path="url(#pff2bd86f54)" style="fill: #ffffff; stroke: #000000; stroke-width: 0.4"/>
    <path d="M 179.870532 107.082715 
L 183.406066 103.547181 
L 179.870532 100.011647 
L 176.334998 103.547181 
z
" clip-path="url(#pff2bd86f54)" style="fill: #ffffff; stroke: #000000; stroke-width: 0.4"/>
   </g>
   <g id="PathCollection_39">
    <path d="M 190.246336 138.123665 
L 193.781869 134.588131 
L 190.246336 131.052597 
L 186.710802 134.588131 
z
" clip-path="url(#pff2bd86f54)" style="fill: #ffffff; stroke: #000000; stroke-width: 0.4"/>
    <path d="M 191.908378 130.865147 
L 195.443912 127.329613 
L 191.908378 123.794079 
L 188.372844 127.329613 
z
" clip-path="url(#pff2bd86f54)" style="fill: #ffffff; stroke: #000000; stroke-width: 0.4"/>
    <path d="M 191.19841 134.822633 
L 194.733944 131.2871 
L 191.19841 127.751566 
L 187.662876 131.2871 
z
" clip-path="url(#pff2bd86f54)" style="fill: #ffffff; stroke: #000000; stroke-width: 0.4"/>
   </g>
   <g id="PathCollection_40">
    <path d="M 205.112786 145.063334 
L 208.64832 141.5278 
L 205.112786 137.992266 
L 201.577252 141.5278 
z
" clip-path="url(#pff2bd86f54)" style="fill: #ffffff; stroke: #000000; stroke-width: 0.4"/>
    <path d="M 205.647573 140.63695 
L 209.183107 137.101417 
L 205.647573 133.565883 
L 202.112039 137.101417 
z
" clip-path="url(#pff2bd86f54)" style="fill: #ffffff; stroke: #000000; stroke-width: 0.4"/>
    <path d="M 205.253795 139.830448 
L 208.789329 136.294915 
L 205.253795 132.759381 
L 201.718261 136.294915 
z
" clip-path="url(#pff2bd86f54)" style="fill: #ffffff; stroke: #000000; stroke-width: 0.4"/>
   </g>
   <g id="text_8">
    <!-- (%) iMN yield -->
    <g style="fill: #262626" transform="translate(102.219437 15.935625) scale(0.12 -0.12)">
     <use xlink:href="#ArialMT-28"/>
     <use xlink:href="#ArialMT-25" transform="translate(33.300781 0)"/>
     <use xlink:href="#ArialMT-29" transform="translate(122.216797 0)"/>
     <use xlink:href="#ArialMT-20" transform="translate(155.517578 0)"/>
     <use xlink:href="#ArialMT-69" transform="translate(183.300781 0)"/>
     <use xlink:href="#ArialMT-4d" transform="translate(205.517578 0)"/>
     <use xlink:href="#ArialMT-4e" transform="translate(288.818359 0)"/>
     <use xlink:href="#ArialMT-20" transform="translate(361.035156 0)"/>
     <use xlink:href="#ArialMT-79" transform="translate(388.818359 0)"/>
     <use xlink:href="#ArialMT-69" transform="translate(438.818359 0)"/>
     <use xlink:href="#ArialMT-65" transform="translate(461.035156 0)"/>
     <use xlink:href="#ArialMT-6c" transform="translate(516.650391 0)"/>
     <use xlink:href="#ArialMT-64" transform="translate(538.867188 0)"/>
    </g>
    <!-- per MEF plated at 4dpi -->
    <g style="fill: #262626" transform="translate(77.191937 28.7685) scale(0.12 -0.12)">
     <use xlink:href="#ArialMT-70"/>
     <use xlink:href="#ArialMT-65" transform="translate(55.615234 0)"/>
     <use xlink:href="#ArialMT-72" transform="translate(111.230469 0)"/>
     <use xlink:href="#ArialMT-20" transform="translate(144.53125 0)"/>
     <use xlink:href="#ArialMT-4d" transform="translate(172.314453 0)"/>
     <use xlink:href="#ArialMT-45" transform="translate(255.615234 0)"/>
     <use xlink:href="#ArialMT-46" transform="translate(322.314453 0)"/>
     <use xlink:href="#ArialMT-20" transform="translate(383.398438 0)"/>
     <use xlink:href="#ArialMT-70" transform="translate(411.181641 0)"/>
     <use xlink:href="#ArialMT-6c" transform="translate(466.796875 0)"/>
     <use xlink:href="#ArialMT-61" transform="translate(489.013672 0)"/>
     <use xlink:href="#ArialMT-74" transform="translate(544.628906 0)"/>
     <use xlink:href="#ArialMT-65" transform="translate(572.412109 0)"/>
     <use xlink:href="#ArialMT-64" transform="translate(628.027344 0)"/>
     <use xlink:href="#ArialMT-20" transform="translate(683.642578 0)"/>
     <use xlink:href="#ArialMT-61" transform="translate(711.425781 0)"/>
     <use xlink:href="#ArialMT-74" transform="translate(767.041016 0)"/>
     <use xlink:href="#ArialMT-20" transform="translate(794.824219 0)"/>
     <use xlink:href="#ArialMT-34" transform="translate(822.607422 0)"/>
     <use xlink:href="#ArialMT-64" transform="translate(878.222656 0)"/>
     <use xlink:href="#ArialMT-70" transform="translate(933.837891 0)"/>
     <use xlink:href="#ArialMT-69" transform="translate(989.453125 0)"/>
    </g>
   </g>
   <g id="legend_1">
    <g id="patch_17">
     <path d="M 231.387563 47.042094 
L 253.387563 47.042094 
L 253.387563 39.342094 
L 231.387563 39.342094 
z
" style="fill: #2f1b55; opacity: 0.8; stroke: #ffffff; stroke-linejoin: miter"/>
    </g>
    <g id="text_9">
     <!-- 1 -->
     <g style="fill: #262626" transform="translate(262.187563 47.042094) scale(0.11 -0.11)">
      <defs>
       <path id="ArialMT-31" d="M 2384 0 
L 1822 0 
L 1822 3584 
Q 1619 3391 1289 3197 
Q 959 3003 697 2906 
L 697 3450 
Q 1169 3672 1522 3987 
Q 1875 4303 2022 4600 
L 2384 4600 
L 2384 0 
z
" transform="scale(0.015625)"/>
      </defs>
      <use xlink:href="#ArialMT-31"/>
     </g>
    </g>
    <g id="patch_18">
     <path d="M 231.387563 62.601937 
L 253.387563 62.601937 
L 253.387563 54.901937 
L 231.387563 54.901937 
z
" style="fill: #692c75; opacity: 0.8; stroke: #ffffff; stroke-linejoin: miter"/>
    </g>
    <g id="text_10">
     <!-- 5 -->
     <g style="fill: #262626" transform="translate(262.187563 62.601937) scale(0.11 -0.11)">
      <defs>
       <path id="ArialMT-35" d="M 266 1200 
L 856 1250 
Q 922 819 1161 601 
Q 1400 384 1738 384 
Q 2144 384 2425 690 
Q 2706 997 2706 1503 
Q 2706 1984 2436 2262 
Q 2166 2541 1728 2541 
Q 1456 2541 1237 2417 
Q 1019 2294 894 2097 
L 366 2166 
L 809 4519 
L 3088 4519 
L 3088 3981 
L 1259 3981 
L 1013 2750 
Q 1425 3038 1878 3038 
Q 2478 3038 2890 2622 
Q 3303 2206 3303 1553 
Q 3303 931 2941 478 
Q 2500 -78 1738 -78 
Q 1113 -78 717 272 
Q 322 622 266 1200 
z
" transform="scale(0.015625)"/>
      </defs>
      <use xlink:href="#ArialMT-35"/>
     </g>
    </g>
    <g id="patch_19">
     <path d="M 231.387563 78.161781 
L 253.387563 78.161781 
L 253.387563 70.461781 
L 231.387563 70.461781 
z
" style="fill: #a74779; opacity: 0.8; stroke: #ffffff; stroke-linejoin: miter"/>
    </g>
    <g id="text_11">
     <!-- 10 -->
     <g style="fill: #262626" transform="translate(262.187563 78.161781) scale(0.11 -0.11)">
      <use xlink:href="#ArialMT-31"/>
      <use xlink:href="#ArialMT-30" transform="translate(55.615234 0)"/>
     </g>
    </g>
    <g id="patch_20">
     <path d="M 231.387563 93.721625 
L 253.387563 93.721625 
L 253.387563 86.021625 
L 231.387563 86.021625 
z
" style="fill: #de7270; opacity: 0.8; stroke: #ffffff; stroke-linejoin: miter"/>
    </g>
    <g id="text_12">
     <!-- 15 -->
     <g style="fill: #262626" transform="translate(262.187563 93.721625) scale(0.11 -0.11)">
      <use xlink:href="#ArialMT-31"/>
      <use xlink:href="#ArialMT-35" transform="translate(55.615234 0)"/>
     </g>
    </g>
    <g id="patch_21">
     <path d="M 231.387563 109.281469 
L 253.387563 109.281469 
L 253.387563 101.581469 
L 231.387563 101.581469 
z
" style="fill: #eeb389; opacity: 0.8; stroke: #ffffff; stroke-linejoin: miter"/>
    </g>
    <g id="text_13">
     <!-- 20 -->
     <g style="fill: #262626" transform="translate(262.187563 109.281469) scale(0.11 -0.11)">
      <use xlink:href="#ArialMT-32"/>
      <use xlink:href="#ArialMT-30" transform="translate(55.615234 0)"/>
     </g>
    </g>
   </g>
  </g>
 </g>
 <defs>
  <clipPath id="pff2bd86f54">
   <rect x="56.887563" y="34.7685" width="162" height="117"/>
  </clipPath>
 </defs>
</svg>
