<?xml version="1.0" encoding="utf-8" standalone="no"?>
<!DOCTYPE svg PUBLIC "-//W3C//DTD SVG 1.1//EN"
  "http://www.w3.org/Graphics/SVG/1.1/DTD/svg11.dtd">
<svg xmlns:xlink="http://www.w3.org/1999/xlink" width="292.138656pt" height="190.205656pt" viewBox="0 0 292.138656 190.205656" xmlns="http://www.w3.org/2000/svg" version="1.1">
 <metadata>
  <rdf:RDF xmlns:dc="http://purl.org/dc/elements/1.1/" xmlns:cc="http://creativecommons.org/ns#" xmlns:rdf="http://www.w3.org/1999/02/22-rdf-syntax-ns#">
   <cc:Work>
    <dc:type rdf:resource="http://purl.org/dc/dcmitype/StillImage"/>
    <dc:date>2025-07-28T16:55:03.457596</dc:date>
    <dc:format>image/svg+xml</dc:format>
    <dc:creator>
     <cc:Agent>
      <dc:title>Matplotlib v3.10.3, https://matplotlib.org/</dc:title>
     </cc:Agent>
    </dc:creator>
   </cc:Work>
  </rdf:RDF>
 </metadata>
 <defs>
  <style type="text/css">*{stroke-linejoin: round; stroke-linecap: butt}</style>
 </defs>
 <g id="figure_1">
  <g id="patch_1">
   <path d="M 0 190.205656 
L 292.138656 190.205656 
L 292.138656 0 
L 0 0 
z
" style="fill: #ffffff"/>
  </g>
  <g id="axes_1">
   <g id="patch_2">
    <path d="M 63.004594 151.81125 
L 225.004594 151.81125 
L 225.004594 34.81125 
L 63.004594 34.81125 
z
" style="fill: #ffffff"/>
   </g>
   <g id="matplotlib.axis_1">
    <g id="xtick_1">
     <g id="line2d_1">
      <defs>
       <path id="m3600df6277" d="M 0 0 
L 0 6 
" style="stroke: #262626; stroke-width: 1.25"/>
      </defs>
      <g>
       <use xlink:href="#m3600df6277" x="103.504594" y="151.81125" style="fill: #262626; stroke: #262626; stroke-width: 1.25"/>
      </g>
     </g>
     <g id="text_1">
      <!-- NIL -->
      <g style="fill: #262626" transform="translate(94.946078 169.184844) scale(0.11 -0.11)">
       <defs>
        <path id="ArialMT-4e" d="M 488 0 
L 488 4581 
L 1109 4581 
L 3516 984 
L 3516 4581 
L 4097 4581 
L 4097 0 
L 3475 0 
L 1069 3600 
L 1069 0 
L 488 0 
z
" transform="scale(0.015625)"/>
        <path id="ArialMT-49" d="M 597 0 
L 597 4581 
L 1203 4581 
L 1203 0 
L 597 0 
z
" transform="scale(0.015625)"/>
        <path id="ArialMT-4c" d="M 469 0 
L 469 4581 
L 1075 4581 
L 1075 541 
L 3331 541 
L 3331 0 
L 469 0 
z
" transform="scale(0.015625)"/>
       </defs>
       <use xlink:href="#ArialMT-4e"/>
       <use xlink:href="#ArialMT-49" transform="translate(72.216797 0)"/>
       <use xlink:href="#ArialMT-4c" transform="translate(100 0)"/>
      </g>
      <!-- DD -->
      <g style="fill: #262626" transform="translate(95.560531 180.819406) scale(0.11 -0.11)">
       <defs>
        <path id="ArialMT-44" d="M 494 0 
L 494 4581 
L 2072 4581 
Q 2606 4581 2888 4516 
Q 3281 4425 3559 4188 
Q 3922 3881 4101 3404 
Q 4281 2928 4281 2316 
Q 4281 1794 4159 1391 
Q 4038 988 3847 723 
Q 3656 459 3429 307 
Q 3203 156 2883 78 
Q 2563 0 2147 0 
L 494 0 
z
M 1100 541 
L 2078 541 
Q 2531 541 2789 625 
Q 3047 709 3200 863 
Q 3416 1078 3536 1442 
Q 3656 1806 3656 2325 
Q 3656 3044 3420 3430 
Q 3184 3816 2847 3947 
Q 2603 4041 2063 4041 
L 1100 4041 
L 1100 541 
z
" transform="scale(0.015625)"/>
       </defs>
       <use xlink:href="#ArialMT-44"/>
       <use xlink:href="#ArialMT-44" transform="translate(72.216797 0)"/>
      </g>
     </g>
    </g>
    <g id="xtick_2">
     <g id="line2d_2">
      <g>
       <use xlink:href="#m3600df6277" x="184.504594" y="151.81125" style="fill: #262626; stroke: #262626; stroke-width: 1.25"/>
      </g>
     </g>
     <g id="text_2">
      <!-- NIL -->
      <g style="fill: #262626" transform="translate(175.946078 169.184844) scale(0.11 -0.11)">
       <use xlink:href="#ArialMT-4e"/>
       <use xlink:href="#ArialMT-49" transform="translate(72.216797 0)"/>
       <use xlink:href="#ArialMT-4c" transform="translate(100 0)"/>
      </g>
      <!-- SNAP-DD -->
      <g style="fill: #262626" transform="translate(159.751156 180.819406) scale(0.11 -0.11)">
       <defs>
        <path id="ArialMT-53" d="M 288 1472 
L 859 1522 
Q 900 1178 1048 958 
Q 1197 738 1509 602 
Q 1822 466 2213 466 
Q 2559 466 2825 569 
Q 3091 672 3220 851 
Q 3350 1031 3350 1244 
Q 3350 1459 3225 1620 
Q 3100 1781 2813 1891 
Q 2628 1963 1997 2114 
Q 1366 2266 1113 2400 
Q 784 2572 623 2826 
Q 463 3081 463 3397 
Q 463 3744 659 4045 
Q 856 4347 1234 4503 
Q 1613 4659 2075 4659 
Q 2584 4659 2973 4495 
Q 3363 4331 3572 4012 
Q 3781 3694 3797 3291 
L 3216 3247 
Q 3169 3681 2898 3903 
Q 2628 4125 2100 4125 
Q 1550 4125 1298 3923 
Q 1047 3722 1047 3438 
Q 1047 3191 1225 3031 
Q 1400 2872 2139 2705 
Q 2878 2538 3153 2413 
Q 3553 2228 3743 1945 
Q 3934 1663 3934 1294 
Q 3934 928 3725 604 
Q 3516 281 3123 101 
Q 2731 -78 2241 -78 
Q 1619 -78 1198 103 
Q 778 284 539 648 
Q 300 1013 288 1472 
z
" transform="scale(0.015625)"/>
        <path id="ArialMT-41" d="M -9 0 
L 1750 4581 
L 2403 4581 
L 4278 0 
L 3588 0 
L 3053 1388 
L 1138 1388 
L 634 0 
L -9 0 
z
M 1313 1881 
L 2866 1881 
L 2388 3150 
Q 2169 3728 2063 4100 
Q 1975 3659 1816 3225 
L 1313 1881 
z
" transform="scale(0.015625)"/>
        <path id="ArialMT-50" d="M 494 0 
L 494 4581 
L 2222 4581 
Q 2678 4581 2919 4538 
Q 3256 4481 3484 4323 
Q 3713 4166 3852 3881 
Q 3991 3597 3991 3256 
Q 3991 2672 3619 2267 
Q 3247 1863 2275 1863 
L 1100 1863 
L 1100 0 
L 494 0 
z
M 1100 2403 
L 2284 2403 
Q 2872 2403 3119 2622 
Q 3366 2841 3366 3238 
Q 3366 3525 3220 3729 
Q 3075 3934 2838 4000 
Q 2684 4041 2272 4041 
L 1100 4041 
L 1100 2403 
z
" transform="scale(0.015625)"/>
        <path id="ArialMT-2d" d="M 203 1375 
L 203 1941 
L 1931 1941 
L 1931 1375 
L 203 1375 
z
" transform="scale(0.015625)"/>
       </defs>
       <use xlink:href="#ArialMT-53"/>
       <use xlink:href="#ArialMT-4e" transform="translate(66.699219 0)"/>
       <use xlink:href="#ArialMT-41" transform="translate(138.916016 0)"/>
       <use xlink:href="#ArialMT-50" transform="translate(205.615234 0)"/>
       <use xlink:href="#ArialMT-2d" transform="translate(272.314453 0)"/>
       <use xlink:href="#ArialMT-44" transform="translate(305.615234 0)"/>
       <use xlink:href="#ArialMT-44" transform="translate(377.832031 0)"/>
      </g>
     </g>
    </g>
   </g>
   <g id="matplotlib.axis_2">
    <g id="ytick_1">
     <g id="line2d_3">
      <defs>
       <path id="m82f9dbc3f6" d="M 0 0 
L -6 0 
" style="stroke: #262626; stroke-width: 1.25"/>
      </defs>
      <g>
       <use xlink:href="#m82f9dbc3f6" x="63.004594" y="151.81125" style="fill: #262626; stroke: #262626; stroke-width: 1.25"/>
      </g>
     </g>
     <g id="text_3">
      <!-- 0 -->
      <g style="fill: #262626" transform="translate(47.387563 155.748047) scale(0.11 -0.11)">
       <defs>
        <path id="ArialMT-30" d="M 266 2259 
Q 266 3072 433 3567 
Q 600 4063 929 4331 
Q 1259 4600 1759 4600 
Q 2128 4600 2406 4451 
Q 2684 4303 2865 4023 
Q 3047 3744 3150 3342 
Q 3253 2941 3253 2259 
Q 3253 1453 3087 958 
Q 2922 463 2592 192 
Q 2263 -78 1759 -78 
Q 1097 -78 719 397 
Q 266 969 266 2259 
z
M 844 2259 
Q 844 1131 1108 757 
Q 1372 384 1759 384 
Q 2147 384 2411 759 
Q 2675 1134 2675 2259 
Q 2675 3391 2411 3762 
Q 2147 4134 1753 4134 
Q 1366 4134 1134 3806 
Q 844 3388 844 2259 
z
" transform="scale(0.015625)"/>
       </defs>
       <use xlink:href="#ArialMT-30"/>
      </g>
     </g>
    </g>
    <g id="ytick_2">
     <g id="line2d_4">
      <g>
       <use xlink:href="#m82f9dbc3f6" x="63.004594" y="124.499656" style="fill: #262626; stroke: #262626; stroke-width: 1.25"/>
      </g>
     </g>
     <g id="text_4">
      <!-- 100 -->
      <g style="fill: #262626" transform="translate(35.1535 128.436453) scale(0.11 -0.11)">
       <defs>
        <path id="ArialMT-31" d="M 2384 0 
L 1822 0 
L 1822 3584 
Q 1619 3391 1289 3197 
Q 959 3003 697 2906 
L 697 3450 
Q 1169 3672 1522 3987 
Q 1875 4303 2022 4600 
L 2384 4600 
L 2384 0 
z
" transform="scale(0.015625)"/>
       </defs>
       <use xlink:href="#ArialMT-31"/>
       <use xlink:href="#ArialMT-30" transform="translate(55.615234 0)"/>
       <use xlink:href="#ArialMT-30" transform="translate(111.230469 0)"/>
      </g>
     </g>
    </g>
    <g id="ytick_3">
     <g id="line2d_5">
      <g>
       <use xlink:href="#m82f9dbc3f6" x="63.004594" y="97.188062" style="fill: #262626; stroke: #262626; stroke-width: 1.25"/>
      </g>
     </g>
     <g id="text_5">
      <!-- 200 -->
      <g style="fill: #262626" transform="translate(35.1535 101.124859) scale(0.11 -0.11)">
       <defs>
        <path id="ArialMT-32" d="M 3222 541 
L 3222 0 
L 194 0 
Q 188 203 259 391 
Q 375 700 629 1000 
Q 884 1300 1366 1694 
Q 2113 2306 2375 2664 
Q 2638 3022 2638 3341 
Q 2638 3675 2398 3904 
Q 2159 4134 1775 4134 
Q 1369 4134 1125 3890 
Q 881 3647 878 3216 
L 300 3275 
Q 359 3922 746 4261 
Q 1134 4600 1788 4600 
Q 2447 4600 2831 4234 
Q 3216 3869 3216 3328 
Q 3216 3053 3103 2787 
Q 2991 2522 2730 2228 
Q 2469 1934 1863 1422 
Q 1356 997 1212 845 
Q 1069 694 975 541 
L 3222 541 
z
" transform="scale(0.015625)"/>
       </defs>
       <use xlink:href="#ArialMT-32"/>
       <use xlink:href="#ArialMT-30" transform="translate(55.615234 0)"/>
       <use xlink:href="#ArialMT-30" transform="translate(111.230469 0)"/>
      </g>
     </g>
    </g>
    <g id="ytick_4">
     <g id="line2d_6">
      <g>
       <use xlink:href="#m82f9dbc3f6" x="63.004594" y="69.876469" style="fill: #262626; stroke: #262626; stroke-width: 1.25"/>
      </g>
     </g>
     <g id="text_6">
      <!-- 300 -->
      <g style="fill: #262626" transform="translate(35.1535 73.813266) scale(0.11 -0.11)">
       <defs>
        <path id="ArialMT-33" d="M 269 1209 
L 831 1284 
Q 928 806 1161 595 
Q 1394 384 1728 384 
Q 2125 384 2398 659 
Q 2672 934 2672 1341 
Q 2672 1728 2419 1979 
Q 2166 2231 1775 2231 
Q 1616 2231 1378 2169 
L 1441 2663 
Q 1497 2656 1531 2656 
Q 1891 2656 2178 2843 
Q 2466 3031 2466 3422 
Q 2466 3731 2256 3934 
Q 2047 4138 1716 4138 
Q 1388 4138 1169 3931 
Q 950 3725 888 3313 
L 325 3413 
Q 428 3978 793 4289 
Q 1159 4600 1703 4600 
Q 2078 4600 2393 4439 
Q 2709 4278 2876 4000 
Q 3044 3722 3044 3409 
Q 3044 3113 2884 2869 
Q 2725 2625 2413 2481 
Q 2819 2388 3044 2092 
Q 3269 1797 3269 1353 
Q 3269 753 2831 336 
Q 2394 -81 1725 -81 
Q 1122 -81 723 278 
Q 325 638 269 1209 
z
" transform="scale(0.015625)"/>
       </defs>
       <use xlink:href="#ArialMT-33"/>
       <use xlink:href="#ArialMT-30" transform="translate(55.615234 0)"/>
       <use xlink:href="#ArialMT-30" transform="translate(111.230469 0)"/>
      </g>
     </g>
    </g>
    <g id="ytick_5">
     <g id="line2d_7">
      <g>
       <use xlink:href="#m82f9dbc3f6" x="63.004594" y="42.564875" style="fill: #262626; stroke: #262626; stroke-width: 1.25"/>
      </g>
     </g>
     <g id="text_7">
      <!-- 400 -->
      <g style="fill: #262626" transform="translate(35.1535 46.501672) scale(0.11 -0.11)">
       <defs>
        <path id="ArialMT-34" d="M 2069 0 
L 2069 1097 
L 81 1097 
L 81 1613 
L 2172 4581 
L 2631 4581 
L 2631 1613 
L 3250 1613 
L 3250 1097 
L 2631 1097 
L 2631 0 
L 2069 0 
z
M 2069 1613 
L 2069 3678 
L 634 1613 
L 2069 1613 
z
" transform="scale(0.015625)"/>
       </defs>
       <use xlink:href="#ArialMT-34"/>
       <use xlink:href="#ArialMT-30" transform="translate(55.615234 0)"/>
       <use xlink:href="#ArialMT-30" transform="translate(111.230469 0)"/>
      </g>
     </g>
    </g>
    <g id="text_8">
     <!-- (%) iMN yield -->
     <g style="fill: #262626" transform="translate(15.935625 128.979375) rotate(-90) scale(0.12 -0.12)">
      <defs>
       <path id="ArialMT-28" d="M 1497 -1347 
Q 1031 -759 709 28 
Q 388 816 388 1659 
Q 388 2403 628 3084 
Q 909 3875 1497 4659 
L 1900 4659 
Q 1522 4009 1400 3731 
Q 1209 3300 1100 2831 
Q 966 2247 966 1656 
Q 966 153 1900 -1347 
L 1497 -1347 
z
" transform="scale(0.015625)"/>
       <path id="ArialMT-25" d="M 372 3481 
Q 372 3972 619 4315 
Q 866 4659 1334 4659 
Q 1766 4659 2048 4351 
Q 2331 4044 2331 3447 
Q 2331 2866 2045 2552 
Q 1759 2238 1341 2238 
Q 925 2238 648 2547 
Q 372 2856 372 3481 
z
M 1350 4272 
Q 1141 4272 1002 4090 
Q 863 3909 863 3425 
Q 863 2984 1003 2804 
Q 1144 2625 1350 2625 
Q 1563 2625 1702 2806 
Q 1841 2988 1841 3469 
Q 1841 3913 1700 4092 
Q 1559 4272 1350 4272 
z
M 1353 -169 
L 3859 4659 
L 4316 4659 
L 1819 -169 
L 1353 -169 
z
M 3334 1075 
Q 3334 1569 3581 1911 
Q 3828 2253 4300 2253 
Q 4731 2253 5014 1945 
Q 5297 1638 5297 1041 
Q 5297 459 5011 145 
Q 4725 -169 4303 -169 
Q 3888 -169 3611 142 
Q 3334 453 3334 1075 
z
M 4316 1866 
Q 4103 1866 3964 1684 
Q 3825 1503 3825 1019 
Q 3825 581 3965 400 
Q 4106 219 4313 219 
Q 4528 219 4667 400 
Q 4806 581 4806 1063 
Q 4806 1506 4665 1686 
Q 4525 1866 4316 1866 
z
" transform="scale(0.015625)"/>
       <path id="ArialMT-29" d="M 791 -1347 
L 388 -1347 
Q 1322 153 1322 1656 
Q 1322 2244 1188 2822 
Q 1081 3291 891 3722 
Q 769 4003 388 4659 
L 791 4659 
Q 1378 3875 1659 3084 
Q 1900 2403 1900 1659 
Q 1900 816 1576 28 
Q 1253 -759 791 -1347 
z
" transform="scale(0.015625)"/>
       <path id="ArialMT-20" transform="scale(0.015625)"/>
       <path id="ArialMT-69" d="M 425 3934 
L 425 4581 
L 988 4581 
L 988 3934 
L 425 3934 
z
M 425 0 
L 425 3319 
L 988 3319 
L 988 0 
L 425 0 
z
" transform="scale(0.015625)"/>
       <path id="ArialMT-4d" d="M 475 0 
L 475 4581 
L 1388 4581 
L 2472 1338 
Q 2622 884 2691 659 
Q 2769 909 2934 1394 
L 4031 4581 
L 4847 4581 
L 4847 0 
L 4263 0 
L 4263 3834 
L 2931 0 
L 2384 0 
L 1059 3900 
L 1059 0 
L 475 0 
z
" transform="scale(0.015625)"/>
       <path id="ArialMT-79" d="M 397 -1278 
L 334 -750 
Q 519 -800 656 -800 
Q 844 -800 956 -737 
Q 1069 -675 1141 -563 
Q 1194 -478 1313 -144 
Q 1328 -97 1363 -6 
L 103 3319 
L 709 3319 
L 1400 1397 
Q 1534 1031 1641 628 
Q 1738 1016 1872 1384 
L 2581 3319 
L 3144 3319 
L 1881 -56 
Q 1678 -603 1566 -809 
Q 1416 -1088 1222 -1217 
Q 1028 -1347 759 -1347 
Q 597 -1347 397 -1278 
z
" transform="scale(0.015625)"/>
       <path id="ArialMT-65" d="M 2694 1069 
L 3275 997 
Q 3138 488 2766 206 
Q 2394 -75 1816 -75 
Q 1088 -75 661 373 
Q 234 822 234 1631 
Q 234 2469 665 2931 
Q 1097 3394 1784 3394 
Q 2450 3394 2872 2941 
Q 3294 2488 3294 1666 
Q 3294 1616 3291 1516 
L 816 1516 
Q 847 969 1125 678 
Q 1403 388 1819 388 
Q 2128 388 2347 550 
Q 2566 713 2694 1069 
z
M 847 1978 
L 2700 1978 
Q 2663 2397 2488 2606 
Q 2219 2931 1791 2931 
Q 1403 2931 1139 2672 
Q 875 2413 847 1978 
z
" transform="scale(0.015625)"/>
       <path id="ArialMT-6c" d="M 409 0 
L 409 4581 
L 972 4581 
L 972 0 
L 409 0 
z
" transform="scale(0.015625)"/>
       <path id="ArialMT-64" d="M 2575 0 
L 2575 419 
Q 2259 -75 1647 -75 
Q 1250 -75 917 144 
Q 584 363 401 755 
Q 219 1147 219 1656 
Q 219 2153 384 2558 
Q 550 2963 881 3178 
Q 1213 3394 1622 3394 
Q 1922 3394 2156 3267 
Q 2391 3141 2538 2938 
L 2538 4581 
L 3097 4581 
L 3097 0 
L 2575 0 
z
M 797 1656 
Q 797 1019 1065 703 
Q 1334 388 1700 388 
Q 2069 388 2326 689 
Q 2584 991 2584 1609 
Q 2584 2291 2321 2609 
Q 2059 2928 1675 2928 
Q 1300 2928 1048 2622 
Q 797 2316 797 1656 
z
" transform="scale(0.015625)"/>
      </defs>
      <use xlink:href="#ArialMT-28"/>
      <use xlink:href="#ArialMT-25" transform="translate(33.300781 0)"/>
      <use xlink:href="#ArialMT-29" transform="translate(122.216797 0)"/>
      <use xlink:href="#ArialMT-20" transform="translate(155.517578 0)"/>
      <use xlink:href="#ArialMT-69" transform="translate(183.300781 0)"/>
      <use xlink:href="#ArialMT-4d" transform="translate(205.517578 0)"/>
      <use xlink:href="#ArialMT-4e" transform="translate(288.818359 0)"/>
      <use xlink:href="#ArialMT-20" transform="translate(361.035156 0)"/>
      <use xlink:href="#ArialMT-79" transform="translate(388.818359 0)"/>
      <use xlink:href="#ArialMT-69" transform="translate(438.818359 0)"/>
      <use xlink:href="#ArialMT-65" transform="translate(461.035156 0)"/>
      <use xlink:href="#ArialMT-6c" transform="translate(516.650391 0)"/>
      <use xlink:href="#ArialMT-64" transform="translate(538.867188 0)"/>
     </g>
     <!-- per MEF plated -->
     <g style="fill: #262626" transform="translate(28.7685 134.326875) rotate(-90) scale(0.12 -0.12)">
      <defs>
       <path id="ArialMT-70" d="M 422 -1272 
L 422 3319 
L 934 3319 
L 934 2888 
Q 1116 3141 1344 3267 
Q 1572 3394 1897 3394 
Q 2322 3394 2647 3175 
Q 2972 2956 3137 2557 
Q 3303 2159 3303 1684 
Q 3303 1175 3120 767 
Q 2938 359 2589 142 
Q 2241 -75 1856 -75 
Q 1575 -75 1351 44 
Q 1128 163 984 344 
L 984 -1272 
L 422 -1272 
z
M 931 1641 
Q 931 1000 1190 694 
Q 1450 388 1819 388 
Q 2194 388 2461 705 
Q 2728 1022 2728 1688 
Q 2728 2322 2467 2637 
Q 2206 2953 1844 2953 
Q 1484 2953 1207 2617 
Q 931 2281 931 1641 
z
" transform="scale(0.015625)"/>
       <path id="ArialMT-72" d="M 416 0 
L 416 3319 
L 922 3319 
L 922 2816 
Q 1116 3169 1280 3281 
Q 1444 3394 1641 3394 
Q 1925 3394 2219 3213 
L 2025 2691 
Q 1819 2813 1613 2813 
Q 1428 2813 1281 2702 
Q 1134 2591 1072 2394 
Q 978 2094 978 1738 
L 978 0 
L 416 0 
z
" transform="scale(0.015625)"/>
       <path id="ArialMT-45" d="M 506 0 
L 506 4581 
L 3819 4581 
L 3819 4041 
L 1113 4041 
L 1113 2638 
L 3647 2638 
L 3647 2100 
L 1113 2100 
L 1113 541 
L 3925 541 
L 3925 0 
L 506 0 
z
" transform="scale(0.015625)"/>
       <path id="ArialMT-46" d="M 525 0 
L 525 4581 
L 3616 4581 
L 3616 4041 
L 1131 4041 
L 1131 2622 
L 3281 2622 
L 3281 2081 
L 1131 2081 
L 1131 0 
L 525 0 
z
" transform="scale(0.015625)"/>
       <path id="ArialMT-61" d="M 2588 409 
Q 2275 144 1986 34 
Q 1697 -75 1366 -75 
Q 819 -75 525 192 
Q 231 459 231 875 
Q 231 1119 342 1320 
Q 453 1522 633 1644 
Q 813 1766 1038 1828 
Q 1203 1872 1538 1913 
Q 2219 1994 2541 2106 
Q 2544 2222 2544 2253 
Q 2544 2597 2384 2738 
Q 2169 2928 1744 2928 
Q 1347 2928 1158 2789 
Q 969 2650 878 2297 
L 328 2372 
Q 403 2725 575 2942 
Q 747 3159 1072 3276 
Q 1397 3394 1825 3394 
Q 2250 3394 2515 3294 
Q 2781 3194 2906 3042 
Q 3031 2891 3081 2659 
Q 3109 2516 3109 2141 
L 3109 1391 
Q 3109 606 3145 398 
Q 3181 191 3288 0 
L 2700 0 
Q 2613 175 2588 409 
z
M 2541 1666 
Q 2234 1541 1622 1453 
Q 1275 1403 1131 1340 
Q 988 1278 909 1158 
Q 831 1038 831 891 
Q 831 666 1001 516 
Q 1172 366 1500 366 
Q 1825 366 2078 508 
Q 2331 650 2450 897 
Q 2541 1088 2541 1459 
L 2541 1666 
z
" transform="scale(0.015625)"/>
       <path id="ArialMT-74" d="M 1650 503 
L 1731 6 
Q 1494 -44 1306 -44 
Q 1000 -44 831 53 
Q 663 150 594 308 
Q 525 466 525 972 
L 525 2881 
L 113 2881 
L 113 3319 
L 525 3319 
L 525 4141 
L 1084 4478 
L 1084 3319 
L 1650 3319 
L 1650 2881 
L 1084 2881 
L 1084 941 
Q 1084 700 1114 631 
Q 1144 563 1211 522 
Q 1278 481 1403 481 
Q 1497 481 1650 503 
z
" transform="scale(0.015625)"/>
      </defs>
      <use xlink:href="#ArialMT-70"/>
      <use xlink:href="#ArialMT-65" transform="translate(55.615234 0)"/>
      <use xlink:href="#ArialMT-72" transform="translate(111.230469 0)"/>
      <use xlink:href="#ArialMT-20" transform="translate(144.53125 0)"/>
      <use xlink:href="#ArialMT-4d" transform="translate(172.314453 0)"/>
      <use xlink:href="#ArialMT-45" transform="translate(255.615234 0)"/>
      <use xlink:href="#ArialMT-46" transform="translate(322.314453 0)"/>
      <use xlink:href="#ArialMT-20" transform="translate(383.398438 0)"/>
      <use xlink:href="#ArialMT-70" transform="translate(411.181641 0)"/>
      <use xlink:href="#ArialMT-6c" transform="translate(466.796875 0)"/>
      <use xlink:href="#ArialMT-61" transform="translate(489.013672 0)"/>
      <use xlink:href="#ArialMT-74" transform="translate(544.628906 0)"/>
      <use xlink:href="#ArialMT-65" transform="translate(572.412109 0)"/>
      <use xlink:href="#ArialMT-64" transform="translate(628.027344 0)"/>
     </g>
    </g>
   </g>
   <g id="patch_3">
    <path d="M 71.104594 151.81125 
L 84.064594 151.81125 
L 84.064594 129.302855 
L 71.104594 129.302855 
z
" clip-path="url(#p5f4d4536f8)" style="fill: #2f1b55; opacity: 0.8; stroke: #ffffff; stroke-linejoin: miter"/>
   </g>
   <g id="patch_4">
    <path d="M 152.104594 151.81125 
L 165.064594 151.81125 
L 165.064594 96.716027 
L 152.104594 96.716027 
z
" clip-path="url(#p5f4d4536f8)" style="fill: #2f1b55; opacity: 0.8; stroke: #ffffff; stroke-linejoin: miter"/>
   </g>
   <g id="patch_5">
    <path d="M 84.064594 151.81125 
L 97.024594 151.81125 
L 97.024594 114.527511 
L 84.064594 114.527511 
z
" clip-path="url(#p5f4d4536f8)" style="fill: #692c75; opacity: 0.8; stroke: #ffffff; stroke-linejoin: miter"/>
   </g>
   <g id="patch_6">
    <path d="M 165.064594 151.81125 
L 178.024594 151.81125 
L 178.024594 78.997403 
L 165.064594 78.997403 
z
" clip-path="url(#p5f4d4536f8)" style="fill: #692c75; opacity: 0.8; stroke: #ffffff; stroke-linejoin: miter"/>
   </g>
   <g id="patch_7">
    <path d="M 97.024594 151.81125 
L 109.984594 151.81125 
L 109.984594 114.972234 
L 97.024594 114.972234 
z
" clip-path="url(#p5f4d4536f8)" style="fill: #a74779; opacity: 0.8; stroke: #ffffff; stroke-linejoin: miter"/>
   </g>
   <g id="patch_8">
    <path d="M 178.024594 151.81125 
L 190.984594 151.81125 
L 190.984594 87.766473 
L 178.024594 87.766473 
z
" clip-path="url(#p5f4d4536f8)" style="fill: #a74779; opacity: 0.8; stroke: #ffffff; stroke-linejoin: miter"/>
   </g>
   <g id="patch_9">
    <path d="M 109.984594 151.81125 
L 122.944594 151.81125 
L 122.944594 107.261261 
L 109.984594 107.261261 
z
" clip-path="url(#p5f4d4536f8)" style="fill: #de7270; opacity: 0.8; stroke: #ffffff; stroke-linejoin: miter"/>
   </g>
   <g id="patch_10">
    <path d="M 190.984594 151.81125 
L 203.944594 151.81125 
L 203.944594 97.586812 
L 190.984594 97.586812 
z
" clip-path="url(#p5f4d4536f8)" style="fill: #de7270; opacity: 0.8; stroke: #ffffff; stroke-linejoin: miter"/>
   </g>
   <g id="patch_11">
    <path d="M 122.944594 151.81125 
L 135.904594 151.81125 
L 135.904594 110.665651 
L 122.944594 110.665651 
z
" clip-path="url(#p5f4d4536f8)" style="fill: #eeb389; opacity: 0.8; stroke: #ffffff; stroke-linejoin: miter"/>
   </g>
   <g id="patch_12">
    <path d="M 203.944594 151.81125 
L 216.904594 151.81125 
L 216.904594 110.018366 
L 203.944594 110.018366 
z
" clip-path="url(#p5f4d4536f8)" style="fill: #eeb389; opacity: 0.8; stroke: #ffffff; stroke-linejoin: miter"/>
   </g>
   <g id="line2d_8">
    <path d="M 77.584594 139.739332 
L 77.584594 116.881628 
" clip-path="url(#p5f4d4536f8)" style="fill: none; stroke: #424242; stroke-width: 2.7; stroke-linecap: round"/>
   </g>
   <g id="line2d_9">
    <path d="M 158.584594 107.387452 
L 158.584594 85.724698 
" clip-path="url(#p5f4d4536f8)" style="fill: none; stroke: #424242; stroke-width: 2.7; stroke-linecap: round"/>
   </g>
   <g id="line2d_10">
    <path d="M 90.544594 126.215513 
L 90.544594 103.267845 
" clip-path="url(#p5f4d4536f8)" style="fill: none; stroke: #424242; stroke-width: 2.7; stroke-linecap: round"/>
   </g>
   <g id="line2d_11">
    <path d="M 171.544594 83.426052 
L 171.544594 73.761042 
" clip-path="url(#p5f4d4536f8)" style="fill: none; stroke: #424242; stroke-width: 2.7; stroke-linecap: round"/>
   </g>
   <g id="line2d_12">
    <path d="M 103.504594 118.484636 
L 103.504594 111.435121 
" clip-path="url(#p5f4d4536f8)" style="fill: none; stroke: #424242; stroke-width: 2.7; stroke-linecap: round"/>
   </g>
   <g id="line2d_13">
    <path d="M 184.504594 99.507642 
L 184.504594 73.83991 
" clip-path="url(#p5f4d4536f8)" style="fill: none; stroke: #424242; stroke-width: 2.7; stroke-linecap: round"/>
   </g>
   <g id="line2d_14">
    <path d="M 116.464594 117.17871 
L 116.464594 97.067192 
" clip-path="url(#p5f4d4536f8)" style="fill: none; stroke: #424242; stroke-width: 2.7; stroke-linecap: round"/>
   </g>
   <g id="line2d_15">
    <path d="M 197.464594 110.949715 
L 197.464594 82.467062 
" clip-path="url(#p5f4d4536f8)" style="fill: none; stroke: #424242; stroke-width: 2.7; stroke-linecap: round"/>
   </g>
   <g id="line2d_16">
    <path d="M 129.424594 120.972415 
L 129.424594 100.49808 
" clip-path="url(#p5f4d4536f8)" style="fill: none; stroke: #424242; stroke-width: 2.7; stroke-linecap: round"/>
   </g>
   <g id="line2d_17">
    <path d="M 210.424594 119.792531 
L 210.424594 98.483485 
" clip-path="url(#p5f4d4536f8)" style="fill: none; stroke: #424242; stroke-width: 2.7; stroke-linecap: round"/>
   </g>
   <g id="patch_13">
    <path d="M 63.004594 151.81125 
L 63.004594 34.81125 
" style="fill: none; stroke: #262626; stroke-width: 1.25; stroke-linejoin: miter; stroke-linecap: square"/>
   </g>
   <g id="patch_14">
    <path d="M 225.004594 151.81125 
L 225.004594 34.81125 
" style="fill: none; stroke: #262626; stroke-width: 1.25; stroke-linejoin: miter; stroke-linecap: square"/>
   </g>
   <g id="patch_15">
    <path d="M 63.004594 151.81125 
L 225.004594 151.81125 
" style="fill: none; stroke: #262626; stroke-width: 1.25; stroke-linejoin: miter; stroke-linecap: square"/>
   </g>
   <g id="patch_16">
    <path d="M 63.004594 34.81125 
L 225.004594 34.81125 
" style="fill: none; stroke: #262626; stroke-width: 1.25; stroke-linejoin: miter; stroke-linecap: square"/>
   </g>
   <g id="PathCollection_1">
    <defs>
     <path id="C0_0_3ff142ad14" d="M 0 2.5 
C 0.663008 2.5 1.29895 2.236584 1.767767 1.767767 
C 2.236584 1.29895 2.5 0.663008 2.5 -0 
C 2.5 -0.663008 2.236584 -1.29895 1.767767 -1.767767 
C 1.29895 -2.236584 0.663008 -2.5 0 -2.5 
C -0.663008 -2.5 -1.29895 -2.236584 -1.767767 -1.767767 
C -2.236584 -1.29895 -2.5 -0.663008 -2.5 0 
C -2.5 0.663008 -2.236584 1.29895 -1.767767 1.767767 
C -1.29895 2.236584 -0.663008 2.5 0 2.5 
z
"/>
    </defs>
    <g clip-path="url(#p5f4d4536f8)">
     <use xlink:href="#C0_0_3ff142ad14" x="76.17222" y="147.810102" style="fill: #ffffff; stroke: #000000; stroke-width: 0.4"/>
    </g>
    <g clip-path="url(#p5f4d4536f8)">
     <use xlink:href="#C0_0_3ff142ad14" x="77.517619" y="145.171802" style="fill: #ffffff; stroke: #000000; stroke-width: 0.4"/>
    </g>
    <g clip-path="url(#p5f4d4536f8)">
     <use xlink:href="#C0_0_3ff142ad14" x="76.242427" y="147.425008" style="fill: #ffffff; stroke: #000000; stroke-width: 0.4"/>
    </g>
   </g>
   <g id="PathCollection_2">
    <defs>
     <path id="C1_0_02cb56484a" d="M 0 2.5 
C 0.663008 2.5 1.29895 2.236584 1.767767 1.767767 
C 2.236584 1.29895 2.5 0.663008 2.5 -0 
C 2.5 -0.663008 2.236584 -1.29895 1.767767 -1.767767 
C 1.29895 -2.236584 0.663008 -2.5 0 -2.5 
C -0.663008 -2.5 -1.29895 -2.236584 -1.767767 -1.767767 
C -2.236584 -1.29895 -2.5 -0.663008 -2.5 0 
C -2.5 0.663008 -2.236584 1.29895 -1.767767 1.767767 
C -1.29895 2.236584 -0.663008 2.5 0 2.5 
z
"/>
    </defs>
    <g clip-path="url(#p5f4d4536f8)">
     <use xlink:href="#C1_0_02cb56484a" x="91.656806" y="135.681023" style="fill: #ffffff; stroke: #000000; stroke-width: 0.4"/>
    </g>
    <g clip-path="url(#p5f4d4536f8)">
     <use xlink:href="#C1_0_02cb56484a" x="91.443803" y="138.827318" style="fill: #ffffff; stroke: #000000; stroke-width: 0.4"/>
    </g>
    <g clip-path="url(#p5f4d4536f8)">
     <use xlink:href="#C1_0_02cb56484a" x="89.404189" y="136.721594" style="fill: #ffffff; stroke: #000000; stroke-width: 0.4"/>
    </g>
   </g>
   <g id="PathCollection_3">
    <defs>
     <path id="C2_0_79f86283ff" d="M 0 2.5 
C 0.663008 2.5 1.29895 2.236584 1.767767 1.767767 
C 2.236584 1.29895 2.5 0.663008 2.5 -0 
C 2.5 -0.663008 2.236584 -1.29895 1.767767 -1.767767 
C 1.29895 -2.236584 0.663008 -2.5 0 -2.5 
C -0.663008 -2.5 -1.29895 -2.236584 -1.767767 -1.767767 
C -2.236584 -1.29895 -2.5 -0.663008 -2.5 0 
C -2.5 0.663008 -2.236584 1.29895 -1.767767 1.767767 
C -1.29895 2.236584 -0.663008 2.5 0 2.5 
z
"/>
    </defs>
    <g clip-path="url(#p5f4d4536f8)">
     <use xlink:href="#C2_0_79f86283ff" x="104.052439" y="122.617887" style="fill: #ffffff; stroke: #000000; stroke-width: 0.4"/>
    </g>
    <g clip-path="url(#p5f4d4536f8)">
     <use xlink:href="#C2_0_79f86283ff" x="104.803912" y="128.134829" style="fill: #ffffff; stroke: #000000; stroke-width: 0.4"/>
    </g>
    <g clip-path="url(#p5f4d4536f8)">
     <use xlink:href="#C2_0_79f86283ff" x="102.122825" y="121.855894" style="fill: #ffffff; stroke: #000000; stroke-width: 0.4"/>
    </g>
   </g>
   <g id="PathCollection_4">
    <defs>
     <path id="C3_0_3097c1ffcf" d="M 0 2.5 
C 0.663008 2.5 1.29895 2.236584 1.767767 1.767767 
C 2.236584 1.29895 2.5 0.663008 2.5 -0 
C 2.5 -0.663008 2.236584 -1.29895 1.767767 -1.767767 
C 1.29895 -2.236584 0.663008 -2.5 0 -2.5 
C -0.663008 -2.5 -1.29895 -2.236584 -1.767767 -1.767767 
C -2.236584 -1.29895 -2.5 -0.663008 -2.5 0 
C -2.5 0.663008 -2.236584 1.29895 -1.767767 1.767767 
C -1.29895 2.236584 -0.663008 2.5 0 2.5 
z
"/>
    </defs>
    <g clip-path="url(#p5f4d4536f8)">
     <use xlink:href="#C3_0_3097c1ffcf" x="116.544443" y="85.069908" style="fill: #ffffff; stroke: #000000; stroke-width: 0.4"/>
    </g>
    <g clip-path="url(#p5f4d4536f8)">
     <use xlink:href="#C3_0_3097c1ffcf" x="116.773458" y="77.078536" style="fill: #ffffff; stroke: #000000; stroke-width: 0.4"/>
    </g>
    <g clip-path="url(#p5f4d4536f8)">
     <use xlink:href="#C3_0_3097c1ffcf" x="116.175952" y="78.927531" style="fill: #ffffff; stroke: #000000; stroke-width: 0.4"/>
    </g>
   </g>
   <g id="PathCollection_5">
    <defs>
     <path id="C4_0_5aa89167a7" d="M 0 2.5 
C 0.663008 2.5 1.29895 2.236584 1.767767 1.767767 
C 2.236584 1.29895 2.5 0.663008 2.5 -0 
C 2.5 -0.663008 2.236584 -1.29895 1.767767 -1.767767 
C 1.29895 -2.236584 0.663008 -2.5 0 -2.5 
C -0.663008 -2.5 -1.29895 -2.236584 -1.767767 -1.767767 
C -2.236584 -1.29895 -2.5 -0.663008 -2.5 0 
C -2.5 0.663008 -2.236584 1.29895 -1.767767 1.767767 
C -1.29895 2.236584 -0.663008 2.5 0 2.5 
z
"/>
    </defs>
    <g clip-path="url(#p5f4d4536f8)">
     <use xlink:href="#C4_0_5aa89167a7" x="129.342481" y="89.969608" style="fill: #ffffff; stroke: #000000; stroke-width: 0.4"/>
    </g>
    <g clip-path="url(#p5f4d4536f8)">
     <use xlink:href="#C4_0_5aa89167a7" x="129.130428" y="93.206032" style="fill: #ffffff; stroke: #000000; stroke-width: 0.4"/>
    </g>
    <g clip-path="url(#p5f4d4536f8)">
     <use xlink:href="#C4_0_5aa89167a7" x="129.831967" y="82.232234" style="fill: #ffffff; stroke: #000000; stroke-width: 0.4"/>
    </g>
   </g>
   <g id="PathCollection_6">
    <defs>
     <path id="C5_0_bf25f3d6e6" d="M 0 2.5 
C 0.663008 2.5 1.29895 2.236584 1.767767 1.767767 
C 2.236584 1.29895 2.5 0.663008 2.5 -0 
C 2.5 -0.663008 2.236584 -1.29895 1.767767 -1.767767 
C 1.29895 -2.236584 0.663008 -2.5 0 -2.5 
C -0.663008 -2.5 -1.29895 -2.236584 -1.767767 -1.767767 
C -2.236584 -1.29895 -2.5 -0.663008 -2.5 0 
C -2.5 0.663008 -2.236584 1.29895 -1.767767 1.767767 
C -1.29895 2.236584 -0.663008 2.5 0 2.5 
z
"/>
    </defs>
    <g clip-path="url(#p5f4d4536f8)">
     <use xlink:href="#C5_0_bf25f3d6e6" x="159.35756" y="124.032628" style="fill: #ffffff; stroke: #000000; stroke-width: 0.4"/>
    </g>
    <g clip-path="url(#p5f4d4536f8)">
     <use xlink:href="#C5_0_bf25f3d6e6" x="160.053121" y="121.28235" style="fill: #ffffff; stroke: #000000; stroke-width: 0.4"/>
    </g>
    <g clip-path="url(#p5f4d4536f8)">
     <use xlink:href="#C5_0_bf25f3d6e6" x="157.198039" y="125.136016" style="fill: #ffffff; stroke: #000000; stroke-width: 0.4"/>
    </g>
   </g>
   <g id="PathCollection_7">
    <defs>
     <path id="C6_0_16f663d88b" d="M 0 2.5 
C 0.663008 2.5 1.29895 2.236584 1.767767 1.767767 
C 2.236584 1.29895 2.5 0.663008 2.5 -0 
C 2.5 -0.663008 2.236584 -1.29895 1.767767 -1.767767 
C 1.29895 -2.236584 0.663008 -2.5 0 -2.5 
C -0.663008 -2.5 -1.29895 -2.236584 -1.767767 -1.767767 
C -2.236584 -1.29895 -2.5 -0.663008 -2.5 0 
C -2.5 0.663008 -2.236584 1.29895 -1.767767 1.767767 
C -1.29895 2.236584 -0.663008 2.5 0 2.5 
z
"/>
    </defs>
    <g clip-path="url(#p5f4d4536f8)">
     <use xlink:href="#C6_0_16f663d88b" x="172.661682" y="81.005943" style="fill: #ffffff; stroke: #000000; stroke-width: 0.4"/>
    </g>
    <g clip-path="url(#p5f4d4536f8)">
     <use xlink:href="#C6_0_16f663d88b" x="171.447957" y="68.25416" style="fill: #ffffff; stroke: #000000; stroke-width: 0.4"/>
    </g>
    <g clip-path="url(#p5f4d4536f8)">
     <use xlink:href="#C6_0_16f663d88b" x="170.848742" y="61.240543" style="fill: #ffffff; stroke: #000000; stroke-width: 0.4"/>
    </g>
   </g>
   <g id="PathCollection_8">
    <defs>
     <path id="C7_0_cb7b596a9a" d="M 0 2.5 
C 0.663008 2.5 1.29895 2.236584 1.767767 1.767767 
C 2.236584 1.29895 2.5 0.663008 2.5 -0 
C 2.5 -0.663008 2.236584 -1.29895 1.767767 -1.767767 
C 1.29895 -2.236584 0.663008 -2.5 0 -2.5 
C -0.663008 -2.5 -1.29895 -2.236584 -1.767767 -1.767767 
C -2.236584 -1.29895 -2.5 -0.663008 -2.5 0 
C -2.5 0.663008 -2.236584 1.29895 -1.767767 1.767767 
C -1.29895 2.236584 -0.663008 2.5 0 2.5 
z
"/>
    </defs>
    <g clip-path="url(#p5f4d4536f8)">
     <use xlink:href="#C7_0_cb7b596a9a" x="182.948032" y="40.382679" style="fill: #ffffff; stroke: #000000; stroke-width: 0.4"/>
    </g>
    <g clip-path="url(#p5f4d4536f8)">
     <use xlink:href="#C7_0_cb7b596a9a" x="182.985777" y="48.038118" style="fill: #ffffff; stroke: #000000; stroke-width: 0.4"/>
    </g>
    <g clip-path="url(#p5f4d4536f8)">
     <use xlink:href="#C7_0_cb7b596a9a" x="183.873548" y="60.451238" style="fill: #ffffff; stroke: #000000; stroke-width: 0.4"/>
    </g>
   </g>
   <g id="PathCollection_9">
    <defs>
     <path id="C8_0_1989fb8f40" d="M 0 2.5 
C 0.663008 2.5 1.29895 2.236584 1.767767 1.767767 
C 2.236584 1.29895 2.5 0.663008 2.5 -0 
C 2.5 -0.663008 2.236584 -1.29895 1.767767 -1.767767 
C 1.29895 -2.236584 0.663008 -2.5 0 -2.5 
C -0.663008 -2.5 -1.29895 -2.236584 -1.767767 -1.767767 
C -2.236584 -1.29895 -2.5 -0.663008 -2.5 0 
C -2.5 0.663008 -2.236584 1.29895 -1.767767 1.767767 
C -1.29895 2.236584 -0.663008 2.5 0 2.5 
z
"/>
    </defs>
    <g clip-path="url(#p5f4d4536f8)">
     <use xlink:href="#C8_0_1989fb8f40" x="197.767466" y="46.647958" style="fill: #ffffff; stroke: #000000; stroke-width: 0.4"/>
    </g>
    <g clip-path="url(#p5f4d4536f8)">
     <use xlink:href="#C8_0_1989fb8f40" x="197.949588" y="57.184771" style="fill: #ffffff; stroke: #000000; stroke-width: 0.4"/>
    </g>
    <g clip-path="url(#p5f4d4536f8)">
     <use xlink:href="#C8_0_1989fb8f40" x="197.106655" y="56.45282" style="fill: #ffffff; stroke: #000000; stroke-width: 0.4"/>
    </g>
   </g>
   <g id="PathCollection_10">
    <defs>
     <path id="C9_0_0fa03efa0a" d="M 0 2.5 
C 0.663008 2.5 1.29895 2.236584 1.767767 1.767767 
C 2.236584 1.29895 2.5 0.663008 2.5 -0 
C 2.5 -0.663008 2.236584 -1.29895 1.767767 -1.767767 
C 1.29895 -2.236584 0.663008 -2.5 0 -2.5 
C -0.663008 -2.5 -1.29895 -2.236584 -1.767767 -1.767767 
C -2.236584 -1.29895 -2.5 -0.663008 -2.5 0 
C -2.5 0.663008 -2.236584 1.29895 -1.767767 1.767767 
C -1.29895 2.236584 -0.663008 2.5 0 2.5 
z
"/>
    </defs>
    <g clip-path="url(#p5f4d4536f8)">
     <use xlink:href="#C9_0_0fa03efa0a" x="211.561889" y="84.444473" style="fill: #ffffff; stroke: #000000; stroke-width: 0.4"/>
    </g>
    <g clip-path="url(#p5f4d4536f8)">
     <use xlink:href="#C9_0_0fa03efa0a" x="211.534117" y="80.896697" style="fill: #ffffff; stroke: #000000; stroke-width: 0.4"/>
    </g>
    <g clip-path="url(#p5f4d4536f8)">
     <use xlink:href="#C9_0_0fa03efa0a" x="211.158411" y="70.908847" style="fill: #ffffff; stroke: #000000; stroke-width: 0.4"/>
    </g>
   </g>
   <g id="PathCollection_11">
    <path d="M 76.722837 116.578305 
L 74.222837 121.578305 
L 79.222837 121.578305 
z
" clip-path="url(#p5f4d4536f8)" style="fill: #ffffff; stroke: #000000; stroke-width: 0.4"/>
    <path d="M 77.49408 109.471828 
L 74.99408 114.471828 
L 79.99408 114.471828 
z
" clip-path="url(#p5f4d4536f8)" style="fill: #ffffff; stroke: #000000; stroke-width: 0.4"/>
    <path d="M 77.282762 111.528391 
L 74.782762 116.528391 
L 79.782762 116.528391 
z
" clip-path="url(#p5f4d4536f8)" style="fill: #ffffff; stroke: #000000; stroke-width: 0.4"/>
   </g>
   <g id="PathCollection_12">
    <path d="M 90.832395 82.905841 
L 88.332395 87.905841 
L 93.332395 87.905841 
z
" clip-path="url(#p5f4d4536f8)" style="fill: #ffffff; stroke: #000000; stroke-width: 0.4"/>
    <path d="M 89.114893 90.312745 
L 86.614893 95.312745 
L 91.614893 95.312745 
z
" clip-path="url(#p5f4d4536f8)" style="fill: #ffffff; stroke: #000000; stroke-width: 0.4"/>
    <path d="M 91.971661 93.43446 
L 89.471661 98.43446 
L 94.471661 98.43446 
z
" clip-path="url(#p5f4d4536f8)" style="fill: #ffffff; stroke: #000000; stroke-width: 0.4"/>
   </g>
   <g id="PathCollection_13">
    <path d="M 104.328208 102.783219 
L 101.828208 107.783219 
L 106.828208 107.783219 
z
" clip-path="url(#p5f4d4536f8)" style="fill: #ffffff; stroke: #000000; stroke-width: 0.4"/>
    <path d="M 102.893741 103.463278 
L 100.393741 108.463278 
L 105.393741 108.463278 
z
" clip-path="url(#p5f4d4536f8)" style="fill: #ffffff; stroke: #000000; stroke-width: 0.4"/>
    <path d="M 103.476865 106.003256 
L 100.976865 111.003256 
L 105.976865 111.003256 
z
" clip-path="url(#p5f4d4536f8)" style="fill: #ffffff; stroke: #000000; stroke-width: 0.4"/>
   </g>
   <g id="PathCollection_14">
    <path d="M 115.330944 112.932207 
L 112.830944 117.932207 
L 117.830944 117.932207 
z
" clip-path="url(#p5f4d4536f8)" style="fill: #ffffff; stroke: #000000; stroke-width: 0.4"/>
    <path d="M 116.808042 120.418315 
L 114.308042 125.418315 
L 119.308042 125.418315 
z
" clip-path="url(#p5f4d4536f8)" style="fill: #ffffff; stroke: #000000; stroke-width: 0.4"/>
    <path d="M 117.59554 119.721869 
L 115.09554 124.721869 
L 120.09554 124.721869 
z
" clip-path="url(#p5f4d4536f8)" style="fill: #ffffff; stroke: #000000; stroke-width: 0.4"/>
   </g>
   <g id="PathCollection_15">
    <path d="M 127.810113 124.441313 
L 125.310113 129.441313 
L 130.310113 129.441313 
z
" clip-path="url(#p5f4d4536f8)" style="fill: #ffffff; stroke: #000000; stroke-width: 0.4"/>
    <path d="M 130.097921 124.192777 
L 127.597921 129.192777 
L 132.597921 129.192777 
z
" clip-path="url(#p5f4d4536f8)" style="fill: #ffffff; stroke: #000000; stroke-width: 0.4"/>
    <path d="M 128.208215 125.033974 
L 125.708215 130.033974 
L 130.708215 130.033974 
z
" clip-path="url(#p5f4d4536f8)" style="fill: #ffffff; stroke: #000000; stroke-width: 0.4"/>
   </g>
   <g id="PathCollection_16">
    <path d="M 157.084822 68.141193 
L 154.584822 73.141193 
L 159.584822 73.141193 
z
" clip-path="url(#p5f4d4536f8)" style="fill: #ffffff; stroke: #000000; stroke-width: 0.4"/>
    <path d="M 157.509572 67.193481 
L 155.009572 72.193481 
L 160.009572 72.193481 
z
" clip-path="url(#p5f4d4536f8)" style="fill: #ffffff; stroke: #000000; stroke-width: 0.4"/>
    <path d="M 157.986985 94.791847 
L 155.486985 99.791847 
L 160.486985 99.791847 
z
" clip-path="url(#p5f4d4536f8)" style="fill: #ffffff; stroke: #000000; stroke-width: 0.4"/>
   </g>
   <g id="PathCollection_17">
    <path d="M 171.477501 80.387712 
L 168.977501 85.387712 
L 173.977501 85.387712 
z
" clip-path="url(#p5f4d4536f8)" style="fill: #ffffff; stroke: #000000; stroke-width: 0.4"/>
    <path d="M 172.136292 85.699817 
L 169.636292 90.699817 
L 174.636292 90.699817 
z
" clip-path="url(#p5f4d4536f8)" style="fill: #ffffff; stroke: #000000; stroke-width: 0.4"/>
    <path d="M 170.402568 76.386563 
L 167.902568 81.386563 
L 172.902568 81.386563 
z
" clip-path="url(#p5f4d4536f8)" style="fill: #ffffff; stroke: #000000; stroke-width: 0.4"/>
   </g>
   <g id="PathCollection_18">
    <path d="M 185.02772 100.879601 
L 182.52772 105.879601 
L 187.52772 105.879601 
z
" clip-path="url(#p5f4d4536f8)" style="fill: #ffffff; stroke: #000000; stroke-width: 0.4"/>
    <path d="M 185.913315 108.455837 
L 183.413315 113.455837 
L 188.413315 113.455837 
z
" clip-path="url(#p5f4d4536f8)" style="fill: #ffffff; stroke: #000000; stroke-width: 0.4"/>
    <path d="M 185.699617 105.713753 
L 183.199617 110.713753 
L 188.199617 110.713753 
z
" clip-path="url(#p5f4d4536f8)" style="fill: #ffffff; stroke: #000000; stroke-width: 0.4"/>
   </g>
   <g id="PathCollection_19">
    <path d="M 196.754104 116.698476 
L 194.254104 121.698476 
L 199.254104 121.698476 
z
" clip-path="url(#p5f4d4536f8)" style="fill: #ffffff; stroke: #000000; stroke-width: 0.4"/>
    <path d="M 196.579674 109.226024 
L 194.079674 114.226024 
L 199.079674 114.226024 
z
" clip-path="url(#p5f4d4536f8)" style="fill: #ffffff; stroke: #000000; stroke-width: 0.4"/>
    <path d="M 198.523022 106.194437 
L 196.023022 111.194437 
L 201.023022 111.194437 
z
" clip-path="url(#p5f4d4536f8)" style="fill: #ffffff; stroke: #000000; stroke-width: 0.4"/>
   </g>
   <g id="PathCollection_20">
    <path d="M 209.409455 117.394922 
L 206.909455 122.394922 
L 211.909455 122.394922 
z
" clip-path="url(#p5f4d4536f8)" style="fill: #ffffff; stroke: #000000; stroke-width: 0.4"/>
    <path d="M 209.724051 117.618877 
L 207.224051 122.618877 
L 212.224051 122.618877 
z
" clip-path="url(#p5f4d4536f8)" style="fill: #ffffff; stroke: #000000; stroke-width: 0.4"/>
    <path d="M 210.012385 126.615316 
L 207.512385 131.615316 
L 212.512385 131.615316 
z
" clip-path="url(#p5f4d4536f8)" style="fill: #ffffff; stroke: #000000; stroke-width: 0.4"/>
   </g>
   <g id="PathCollection_21">
    <path d="M 74.453862 147.046366 
L 79.453862 147.046366 
L 79.453862 142.046366 
L 74.453862 142.046366 
z
" clip-path="url(#p5f4d4536f8)" style="fill: #ffffff; stroke: #000000; stroke-width: 0.4"/>
    <path d="M 73.709572 150.127114 
L 78.709572 150.127114 
L 78.709572 145.127114 
L 73.709572 145.127114 
z
" clip-path="url(#p5f4d4536f8)" style="fill: #ffffff; stroke: #000000; stroke-width: 0.4"/>
    <path d="M 76.043949 147.363181 
L 81.043949 147.363181 
L 81.043949 142.363181 
L 76.043949 142.363181 
z
" clip-path="url(#p5f4d4536f8)" style="fill: #ffffff; stroke: #000000; stroke-width: 0.4"/>
   </g>
   <g id="PathCollection_22">
    <path d="M 89.214112 124.637203 
L 94.214112 124.637203 
L 94.214112 119.637203 
L 89.214112 119.637203 
z
" clip-path="url(#p5f4d4536f8)" style="fill: #ffffff; stroke: #000000; stroke-width: 0.4"/>
    <path d="M 89.343052 136.90284 
L 94.343052 136.90284 
L 94.343052 131.90284 
L 89.343052 131.90284 
z
" clip-path="url(#p5f4d4536f8)" style="fill: #ffffff; stroke: #000000; stroke-width: 0.4"/>
    <path d="M 87.326164 132.134236 
L 92.326164 132.134236 
L 92.326164 127.134236 
L 87.326164 127.134236 
z
" clip-path="url(#p5f4d4536f8)" style="fill: #ffffff; stroke: #000000; stroke-width: 0.4"/>
   </g>
   <g id="PathCollection_23">
    <path d="M 102.483012 117.893971 
L 107.483012 117.893971 
L 107.483012 112.893971 
L 102.483012 112.893971 
z
" clip-path="url(#p5f4d4536f8)" style="fill: #ffffff; stroke: #000000; stroke-width: 0.4"/>
    <path d="M 101.006578 118.650502 
L 106.006578 118.650502 
L 106.006578 113.650502 
L 101.006578 113.650502 
z
" clip-path="url(#p5f4d4536f8)" style="fill: #ffffff; stroke: #000000; stroke-width: 0.4"/>
    <path d="M 100.916395 115.990353 
L 105.916395 115.990353 
L 105.916395 110.990353 
L 100.916395 110.990353 
z
" clip-path="url(#p5f4d4536f8)" style="fill: #ffffff; stroke: #000000; stroke-width: 0.4"/>
   </g>
   <g id="PathCollection_24">
    <path d="M 112.835297 97.757133 
L 117.835297 97.757133 
L 117.835297 92.757133 
L 112.835297 92.757133 
z
" clip-path="url(#p5f4d4536f8)" style="fill: #ffffff; stroke: #000000; stroke-width: 0.4"/>
    <path d="M 112.543077 109.831588 
L 117.543077 109.831588 
L 117.543077 104.831588 
L 112.543077 104.831588 
z
" clip-path="url(#p5f4d4536f8)" style="fill: #ffffff; stroke: #000000; stroke-width: 0.4"/>
    <path d="M 114.988358 111.429317 
L 119.988358 111.429317 
L 119.988358 106.429317 
L 114.988358 106.429317 
z
" clip-path="url(#p5f4d4536f8)" style="fill: #ffffff; stroke: #000000; stroke-width: 0.4"/>
   </g>
   <g id="PathCollection_25">
    <path d="M 125.322177 101.351339 
L 130.322177 101.351339 
L 130.322177 96.351339 
L 125.322177 96.351339 
z
" clip-path="url(#p5f4d4536f8)" style="fill: #ffffff; stroke: #000000; stroke-width: 0.4"/>
    <path d="M 128.390282 98.863252 
L 133.390282 98.863252 
L 133.390282 93.863252 
L 128.390282 93.863252 
z
" clip-path="url(#p5f4d4536f8)" style="fill: #ffffff; stroke: #000000; stroke-width: 0.4"/>
    <path d="M 128.44715 95.279971 
L 133.44715 95.279971 
L 133.44715 90.279971 
L 128.44715 90.279971 
z
" clip-path="url(#p5f4d4536f8)" style="fill: #ffffff; stroke: #000000; stroke-width: 0.4"/>
   </g>
   <g id="PathCollection_26">
    <path d="M 157.616584 87.280405 
L 162.616584 87.280405 
L 162.616584 82.280405 
L 157.616584 82.280405 
z
" clip-path="url(#p5f4d4536f8)" style="fill: #ffffff; stroke: #000000; stroke-width: 0.4"/>
    <path d="M 155.778387 92.983066 
L 160.778387 92.983066 
L 160.778387 87.983066 
L 155.778387 87.983066 
z
" clip-path="url(#p5f4d4536f8)" style="fill: #ffffff; stroke: #000000; stroke-width: 0.4"/>
    <path d="M 157.017733 82.503608 
L 162.017733 82.503608 
L 162.017733 77.503608 
L 157.017733 77.503608 
z
" clip-path="url(#p5f4d4536f8)" style="fill: #ffffff; stroke: #000000; stroke-width: 0.4"/>
   </g>
   <g id="PathCollection_27">
    <path d="M 167.942499 69.440472 
L 172.942499 69.440472 
L 172.942499 64.440472 
L 167.942499 64.440472 
z
" clip-path="url(#p5f4d4536f8)" style="fill: #ffffff; stroke: #000000; stroke-width: 0.4"/>
    <path d="M 170.136065 90.148123 
L 175.136065 90.148123 
L 175.136065 85.148123 
L 170.136065 85.148123 
z
" clip-path="url(#p5f4d4536f8)" style="fill: #ffffff; stroke: #000000; stroke-width: 0.4"/>
    <path d="M 168.888667 83.882843 
L 173.888667 83.882843 
L 173.888667 78.882843 
L 168.888667 78.882843 
z
" clip-path="url(#p5f4d4536f8)" style="fill: #ffffff; stroke: #000000; stroke-width: 0.4"/>
   </g>
   <g id="PathCollection_28">
    <path d="M 180.978806 93.693168 
L 185.978806 93.693168 
L 185.978806 88.693168 
L 180.978806 88.693168 
z
" clip-path="url(#p5f4d4536f8)" style="fill: #ffffff; stroke: #000000; stroke-width: 0.4"/>
    <path d="M 180.445401 90.197284 
L 185.445401 90.197284 
L 185.445401 85.197284 
L 180.445401 85.197284 
z
" clip-path="url(#p5f4d4536f8)" style="fill: #ffffff; stroke: #000000; stroke-width: 0.4"/>
    <path d="M 180.639572 94.031831 
L 185.639572 94.031831 
L 185.639572 89.031831 
L 180.639572 89.031831 
z
" clip-path="url(#p5f4d4536f8)" style="fill: #ffffff; stroke: #000000; stroke-width: 0.4"/>
   </g>
   <g id="PathCollection_29">
    <path d="M 195.518756 106.540541 
L 200.518756 106.540541 
L 200.518756 101.540541 
L 195.518756 101.540541 
z
" clip-path="url(#p5f4d4536f8)" style="fill: #ffffff; stroke: #000000; stroke-width: 0.4"/>
    <path d="M 196.573756 108.050872 
L 201.573756 108.050872 
L 201.573756 103.050872 
L 196.573756 103.050872 
z
" clip-path="url(#p5f4d4536f8)" style="fill: #ffffff; stroke: #000000; stroke-width: 0.4"/>
    <path d="M 195.82864 114.889696 
L 200.82864 114.889696 
L 200.82864 109.889696 
L 195.82864 109.889696 
z
" clip-path="url(#p5f4d4536f8)" style="fill: #ffffff; stroke: #000000; stroke-width: 0.4"/>
   </g>
   <g id="PathCollection_30">
    <path d="M 207.605214 123.637599 
L 212.605214 123.637599 
L 212.605214 118.637599 
L 207.605214 118.637599 
z
" clip-path="url(#p5f4d4536f8)" style="fill: #ffffff; stroke: #000000; stroke-width: 0.4"/>
    <path d="M 208.339681 115.610722 
L 213.339681 115.610722 
L 213.339681 110.610722 
L 208.339681 110.610722 
z
" clip-path="url(#p5f4d4536f8)" style="fill: #ffffff; stroke: #000000; stroke-width: 0.4"/>
    <path d="M 209.457236 116.73869 
L 214.457236 116.73869 
L 214.457236 111.73869 
L 209.457236 111.73869 
z
" clip-path="url(#p5f4d4536f8)" style="fill: #ffffff; stroke: #000000; stroke-width: 0.4"/>
   </g>
   <g id="PathCollection_31">
    <path d="M 76.527788 129.742165 
L 80.063322 126.206631 
L 76.527788 122.671097 
L 72.992254 126.206631 
z
" clip-path="url(#p5f4d4536f8)" style="fill: #ffffff; stroke: #000000; stroke-width: 0.4"/>
    <path d="M 78.785851 128.668819 
L 82.321385 125.133285 
L 78.785851 121.597751 
L 75.250317 125.133285 
z
" clip-path="url(#p5f4d4536f8)" style="fill: #ffffff; stroke: #000000; stroke-width: 0.4"/>
    <path d="M 77.688643 81.307784 
L 81.224177 77.77225 
L 77.688643 74.236717 
L 74.153109 77.77225 
z
" clip-path="url(#p5f4d4536f8)" style="fill: #ffffff; stroke: #000000; stroke-width: 0.4"/>
   </g>
   <g id="PathCollection_32">
    <path d="M 91.699923 111.09654 
L 95.235457 107.561006 
L 91.699923 104.025472 
L 88.164389 107.561006 
z
" clip-path="url(#p5f4d4536f8)" style="fill: #ffffff; stroke: #000000; stroke-width: 0.4"/>
    <path d="M 90.935328 106.248732 
L 94.470862 102.713198 
L 90.935328 99.177664 
L 87.399794 102.713198 
z
" clip-path="url(#p5f4d4536f8)" style="fill: #ffffff; stroke: #000000; stroke-width: 0.4"/>
    <path d="M 90.66728 96.034196 
L 94.202813 92.498662 
L 90.66728 88.963128 
L 87.131746 92.498662 
z
" clip-path="url(#p5f4d4536f8)" style="fill: #ffffff; stroke: #000000; stroke-width: 0.4"/>
   </g>
   <g id="PathCollection_33">
    <path d="M 102.910353 117.058661 
L 106.445887 113.523127 
L 102.910353 109.987593 
L 99.37482 113.523127 
z
" clip-path="url(#p5f4d4536f8)" style="fill: #ffffff; stroke: #000000; stroke-width: 0.4"/>
    <path d="M 104.383974 118.044609 
L 107.919508 114.509075 
L 104.383974 110.973541 
L 100.84844 114.509075 
z
" clip-path="url(#p5f4d4536f8)" style="fill: #ffffff; stroke: #000000; stroke-width: 0.4"/>
    <path d="M 102.137939 117.776956 
L 105.673473 114.241422 
L 102.137939 110.705888 
L 98.602405 114.241422 
z
" clip-path="url(#p5f4d4536f8)" style="fill: #ffffff; stroke: #000000; stroke-width: 0.4"/>
   </g>
   <g id="PathCollection_34">
    <path d="M 115.13955 130.258354 
L 118.675084 126.72282 
L 115.13955 123.187286 
L 111.604016 126.72282 
z
" clip-path="url(#p5f4d4536f8)" style="fill: #ffffff; stroke: #000000; stroke-width: 0.4"/>
    <path d="M 114.961288 124.684058 
L 118.496822 121.148524 
L 114.961288 117.61299 
L 111.425754 121.148524 
z
" clip-path="url(#p5f4d4536f8)" style="fill: #ffffff; stroke: #000000; stroke-width: 0.4"/>
    <path d="M 116.816152 129.632918 
L 120.351686 126.097384 
L 116.816152 122.561851 
L 113.280618 126.097384 
z
" clip-path="url(#p5f4d4536f8)" style="fill: #ffffff; stroke: #000000; stroke-width: 0.4"/>
   </g>
   <g id="PathCollection_35">
    <path d="M 128.953834 133.284478 
L 132.489368 129.748945 
L 128.953834 126.213411 
L 125.4183 129.748945 
z
" clip-path="url(#p5f4d4536f8)" style="fill: #ffffff; stroke: #000000; stroke-width: 0.4"/>
    <path d="M 129.205059 130.930219 
L 132.740593 127.394685 
L 129.205059 123.859151 
L 125.669525 127.394685 
z
" clip-path="url(#p5f4d4536f8)" style="fill: #ffffff; stroke: #000000; stroke-width: 0.4"/>
    <path d="M 128.989529 139.809218 
L 132.525063 136.273684 
L 128.989529 132.73815 
L 125.453995 136.273684 
z
" clip-path="url(#p5f4d4536f8)" style="fill: #ffffff; stroke: #000000; stroke-width: 0.4"/>
   </g>
   <g id="PathCollection_36">
    <path d="M 157.084535 106.999801 
L 160.620069 103.464267 
L 157.084535 99.928733 
L 153.549001 103.464267 
z
" clip-path="url(#p5f4d4536f8)" style="fill: #ffffff; stroke: #000000; stroke-width: 0.4"/>
    <path d="M 159.58383 101.79148 
L 163.119363 98.255946 
L 159.58383 94.720412 
L 156.048296 98.255946 
z
" clip-path="url(#p5f4d4536f8)" style="fill: #ffffff; stroke: #000000; stroke-width: 0.4"/>
    <path d="M 157.353677 99.063051 
L 160.889211 95.527518 
L 157.353677 91.991984 
L 153.818144 95.527518 
z
" clip-path="url(#p5f4d4536f8)" style="fill: #ffffff; stroke: #000000; stroke-width: 0.4"/>
   </g>
   <g id="PathCollection_37">
    <path d="M 170.862959 91.699846 
L 174.398493 88.164312 
L 170.862959 84.628778 
L 167.327425 88.164312 
z
" clip-path="url(#p5f4d4536f8)" style="fill: #ffffff; stroke: #000000; stroke-width: 0.4"/>
    <path d="M 172.2327 86.791952 
L 175.768234 83.256418 
L 172.2327 79.720885 
L 168.697166 83.256418 
z
" clip-path="url(#p5f4d4536f8)" style="fill: #ffffff; stroke: #000000; stroke-width: 0.4"/>
    <path d="M 171.28459 83.637463 
L 174.820124 80.101929 
L 171.28459 76.566395 
L 167.749056 80.101929 
z
" clip-path="url(#p5f4d4536f8)" style="fill: #ffffff; stroke: #000000; stroke-width: 0.4"/>
   </g>
   <g id="PathCollection_38">
    <path d="M 185.70295 106.576471 
L 189.238484 103.040937 
L 185.70295 99.505403 
L 182.167416 103.040937 
z
" clip-path="url(#p5f4d4536f8)" style="fill: #ffffff; stroke: #000000; stroke-width: 0.4"/>
    <path d="M 184.756687 116.277549 
L 188.292221 112.742015 
L 184.756687 109.206481 
L 181.221153 112.742015 
z
" clip-path="url(#p5f4d4536f8)" style="fill: #ffffff; stroke: #000000; stroke-width: 0.4"/>
    <path d="M 185.122279 99.10675 
L 188.657813 95.571216 
L 185.122279 92.035682 
L 181.586745 95.571216 
z
" clip-path="url(#p5f4d4536f8)" style="fill: #ffffff; stroke: #000000; stroke-width: 0.4"/>
   </g>
   <g id="PathCollection_39">
    <path d="M 196.151484 122.002059 
L 199.687018 118.466525 
L 196.151484 114.930991 
L 192.61595 118.466525 
z
" clip-path="url(#p5f4d4536f8)" style="fill: #ffffff; stroke: #000000; stroke-width: 0.4"/>
    <path d="M 197.90616 124.52565 
L 201.441694 120.990116 
L 197.90616 117.454583 
L 194.370626 120.990116 
z
" clip-path="url(#p5f4d4536f8)" style="fill: #ffffff; stroke: #000000; stroke-width: 0.4"/>
    <path d="M 197.32374 113.235037 
L 200.859274 109.699504 
L 197.32374 106.16397 
L 193.788206 109.699504 
z
" clip-path="url(#p5f4d4536f8)" style="fill: #ffffff; stroke: #000000; stroke-width: 0.4"/>
   </g>
   <g id="PathCollection_40">
    <path d="M 211.236477 126.713309 
L 214.772011 123.177775 
L 211.236477 119.642241 
L 207.700944 123.177775 
z
" clip-path="url(#p5f4d4536f8)" style="fill: #ffffff; stroke: #000000; stroke-width: 0.4"/>
    <path d="M 212.006434 129.758552 
L 215.541968 126.223018 
L 212.006434 122.687484 
L 208.4709 126.223018 
z
" clip-path="url(#p5f4d4536f8)" style="fill: #ffffff; stroke: #000000; stroke-width: 0.4"/>
    <path d="M 209.894828 120.488997 
L 213.430362 116.953463 
L 209.894828 113.417929 
L 206.359294 116.953463 
z
" clip-path="url(#p5f4d4536f8)" style="fill: #ffffff; stroke: #000000; stroke-width: 0.4"/>
   </g>
   <g id="text_9">
    <!-- (%) iMN yield -->
    <g style="fill: #262626" transform="translate(108.336469 15.935625) scale(0.12 -0.12)">
     <use xlink:href="#ArialMT-28"/>
     <use xlink:href="#ArialMT-25" transform="translate(33.300781 0)"/>
     <use xlink:href="#ArialMT-29" transform="translate(122.216797 0)"/>
     <use xlink:href="#ArialMT-20" transform="translate(155.517578 0)"/>
     <use xlink:href="#ArialMT-69" transform="translate(183.300781 0)"/>
     <use xlink:href="#ArialMT-4d" transform="translate(205.517578 0)"/>
     <use xlink:href="#ArialMT-4e" transform="translate(288.818359 0)"/>
     <use xlink:href="#ArialMT-20" transform="translate(361.035156 0)"/>
     <use xlink:href="#ArialMT-79" transform="translate(388.818359 0)"/>
     <use xlink:href="#ArialMT-69" transform="translate(438.818359 0)"/>
     <use xlink:href="#ArialMT-65" transform="translate(461.035156 0)"/>
     <use xlink:href="#ArialMT-6c" transform="translate(516.650391 0)"/>
     <use xlink:href="#ArialMT-64" transform="translate(538.867188 0)"/>
    </g>
    <!-- per MEF plated at 14dpi -->
    <g style="fill: #262626" transform="translate(79.972406 28.81125) scale(0.12 -0.12)">
     <use xlink:href="#ArialMT-70"/>
     <use xlink:href="#ArialMT-65" transform="translate(55.615234 0)"/>
     <use xlink:href="#ArialMT-72" transform="translate(111.230469 0)"/>
     <use xlink:href="#ArialMT-20" transform="translate(144.53125 0)"/>
     <use xlink:href="#ArialMT-4d" transform="translate(172.314453 0)"/>
     <use xlink:href="#ArialMT-45" transform="translate(255.615234 0)"/>
     <use xlink:href="#ArialMT-46" transform="translate(322.314453 0)"/>
     <use xlink:href="#ArialMT-20" transform="translate(383.398438 0)"/>
     <use xlink:href="#ArialMT-70" transform="translate(411.181641 0)"/>
     <use xlink:href="#ArialMT-6c" transform="translate(466.796875 0)"/>
     <use xlink:href="#ArialMT-61" transform="translate(489.013672 0)"/>
     <use xlink:href="#ArialMT-74" transform="translate(544.628906 0)"/>
     <use xlink:href="#ArialMT-65" transform="translate(572.412109 0)"/>
     <use xlink:href="#ArialMT-64" transform="translate(628.027344 0)"/>
     <use xlink:href="#ArialMT-20" transform="translate(683.642578 0)"/>
     <use xlink:href="#ArialMT-61" transform="translate(711.425781 0)"/>
     <use xlink:href="#ArialMT-74" transform="translate(767.041016 0)"/>
     <use xlink:href="#ArialMT-20" transform="translate(794.824219 0)"/>
     <use xlink:href="#ArialMT-31" transform="translate(822.607422 0)"/>
     <use xlink:href="#ArialMT-34" transform="translate(878.222656 0)"/>
     <use xlink:href="#ArialMT-64" transform="translate(933.837891 0)"/>
     <use xlink:href="#ArialMT-70" transform="translate(989.453125 0)"/>
     <use xlink:href="#ArialMT-69" transform="translate(1045.068359 0)"/>
    </g>
   </g>
   <g id="legend_1">
    <g id="patch_17">
     <path d="M 237.504594 47.084844 
L 259.504594 47.084844 
L 259.504594 39.384844 
L 237.504594 39.384844 
z
" style="fill: #2f1b55; opacity: 0.8; stroke: #ffffff; stroke-linejoin: miter"/>
    </g>
    <g id="text_10">
     <!-- 1 -->
     <g style="fill: #262626" transform="translate(268.304594 47.084844) scale(0.11 -0.11)">
      <use xlink:href="#ArialMT-31"/>
     </g>
    </g>
    <g id="patch_18">
     <path d="M 237.504594 62.644687 
L 259.504594 62.644687 
L 259.504594 54.944687 
L 237.504594 54.944687 
z
" style="fill: #692c75; opacity: 0.8; stroke: #ffffff; stroke-linejoin: miter"/>
    </g>
    <g id="text_11">
     <!-- 5 -->
     <g style="fill: #262626" transform="translate(268.304594 62.644687) scale(0.11 -0.11)">
      <defs>
       <path id="ArialMT-35" d="M 266 1200 
L 856 1250 
Q 922 819 1161 601 
Q 1400 384 1738 384 
Q 2144 384 2425 690 
Q 2706 997 2706 1503 
Q 2706 1984 2436 2262 
Q 2166 2541 1728 2541 
Q 1456 2541 1237 2417 
Q 1019 2294 894 2097 
L 366 2166 
L 809 4519 
L 3088 4519 
L 3088 3981 
L 1259 3981 
L 1013 2750 
Q 1425 3038 1878 3038 
Q 2478 3038 2890 2622 
Q 3303 2206 3303 1553 
Q 3303 931 2941 478 
Q 2500 -78 1738 -78 
Q 1113 -78 717 272 
Q 322 622 266 1200 
z
" transform="scale(0.015625)"/>
      </defs>
      <use xlink:href="#ArialMT-35"/>
     </g>
    </g>
    <g id="patch_19">
     <path d="M 237.504594 78.204531 
L 259.504594 78.204531 
L 259.504594 70.504531 
L 237.504594 70.504531 
z
" style="fill: #a74779; opacity: 0.8; stroke: #ffffff; stroke-linejoin: miter"/>
    </g>
    <g id="text_12">
     <!-- 10 -->
     <g style="fill: #262626" transform="translate(268.304594 78.204531) scale(0.11 -0.11)">
      <use xlink:href="#ArialMT-31"/>
      <use xlink:href="#ArialMT-30" transform="translate(55.615234 0)"/>
     </g>
    </g>
    <g id="patch_20">
     <path d="M 237.504594 93.764375 
L 259.504594 93.764375 
L 259.504594 86.064375 
L 237.504594 86.064375 
z
" style="fill: #de7270; opacity: 0.8; stroke: #ffffff; stroke-linejoin: miter"/>
    </g>
    <g id="text_13">
     <!-- 15 -->
     <g style="fill: #262626" transform="translate(268.304594 93.764375) scale(0.11 -0.11)">
      <use xlink:href="#ArialMT-31"/>
      <use xlink:href="#ArialMT-35" transform="translate(55.615234 0)"/>
     </g>
    </g>
    <g id="patch_21">
     <path d="M 237.504594 109.324219 
L 259.504594 109.324219 
L 259.504594 101.624219 
L 237.504594 101.624219 
z
" style="fill: #eeb389; opacity: 0.8; stroke: #ffffff; stroke-linejoin: miter"/>
    </g>
    <g id="text_14">
     <!-- 20 -->
     <g style="fill: #262626" transform="translate(268.304594 109.324219) scale(0.11 -0.11)">
      <use xlink:href="#ArialMT-32"/>
      <use xlink:href="#ArialMT-30" transform="translate(55.615234 0)"/>
     </g>
    </g>
   </g>
  </g>
 </g>
 <defs>
  <clipPath id="p5f4d4536f8">
   <rect x="63.004594" y="34.81125" width="162" height="117"/>
  </clipPath>
 </defs>
</svg>
