<?xml version="1.0" encoding="utf-8" standalone="no"?>
<!DOCTYPE svg PUBLIC "-//W3C//DTD SVG 1.1//EN"
  "http://www.w3.org/Graphics/SVG/1.1/DTD/svg11.dtd">
<svg xmlns:xlink="http://www.w3.org/1999/xlink" width="310.474281pt" height="180.523594pt" viewBox="0 0 310.474281 180.523594" xmlns="http://www.w3.org/2000/svg" version="1.1">
 <metadata>
  <rdf:RDF xmlns:dc="http://purl.org/dc/elements/1.1/" xmlns:cc="http://creativecommons.org/ns#" xmlns:rdf="http://www.w3.org/1999/02/22-rdf-syntax-ns#">
   <cc:Work>
    <dc:type rdf:resource="http://purl.org/dc/dcmitype/StillImage"/>
    <dc:date>2025-07-28T17:38:03.729775</dc:date>
    <dc:format>image/svg+xml</dc:format>
    <dc:creator>
     <cc:Agent>
      <dc:title>Matplotlib v3.10.3, https://matplotlib.org/</dc:title>
     </cc:Agent>
    </dc:creator>
   </cc:Work>
  </rdf:RDF>
 </metadata>
 <defs>
  <style type="text/css">*{stroke-linejoin: round; stroke-linecap: butt}</style>
 </defs>
 <g id="figure_1">
  <g id="patch_1">
   <path d="M 0 180.523594 
L 310.474281 180.523594 
L 310.474281 0 
L 0 0 
z
" style="fill: #ffffff"/>
  </g>
  <g id="axes_1">
   <g id="patch_2">
    <path d="M 56.887563 138.789375 
L 218.887562 138.789375 
L 218.887562 21.789375 
L 56.887563 21.789375 
z
" style="fill: #ffffff"/>
   </g>
   <g id="matplotlib.axis_1">
    <g id="xtick_1">
     <g id="line2d_1">
      <defs>
       <path id="m34f59f1e2c" d="M 0 0 
L 0 6 
" style="stroke: #262626; stroke-width: 1.25"/>
      </defs>
      <g>
       <use xlink:href="#m34f59f1e2c" x="85.29016" y="138.789375" style="fill: #262626; stroke: #262626; stroke-width: 1.25"/>
      </g>
     </g>
     <g id="text_1">
      <!-- 0 uM -->
      <g style="fill: #262626" transform="translate(73.063832 156.162969) scale(0.11 -0.11)">
       <defs>
        <path id="ArialMT-30" d="M 266 2259 
Q 266 3072 433 3567 
Q 600 4063 929 4331 
Q 1259 4600 1759 4600 
Q 2128 4600 2406 4451 
Q 2684 4303 2865 4023 
Q 3047 3744 3150 3342 
Q 3253 2941 3253 2259 
Q 3253 1453 3087 958 
Q 2922 463 2592 192 
Q 2263 -78 1759 -78 
Q 1097 -78 719 397 
Q 266 969 266 2259 
z
M 844 2259 
Q 844 1131 1108 757 
Q 1372 384 1759 384 
Q 2147 384 2411 759 
Q 2675 1134 2675 2259 
Q 2675 3391 2411 3762 
Q 2147 4134 1753 4134 
Q 1366 4134 1134 3806 
Q 844 3388 844 2259 
z
" transform="scale(0.015625)"/>
        <path id="ArialMT-20" transform="scale(0.015625)"/>
        <path id="ArialMT-75" d="M 2597 0 
L 2597 488 
Q 2209 -75 1544 -75 
Q 1250 -75 995 37 
Q 741 150 617 320 
Q 494 491 444 738 
Q 409 903 409 1263 
L 409 3319 
L 972 3319 
L 972 1478 
Q 972 1038 1006 884 
Q 1059 663 1231 536 
Q 1403 409 1656 409 
Q 1909 409 2131 539 
Q 2353 669 2445 892 
Q 2538 1116 2538 1541 
L 2538 3319 
L 3100 3319 
L 3100 0 
L 2597 0 
z
" transform="scale(0.015625)"/>
        <path id="ArialMT-4d" d="M 475 0 
L 475 4581 
L 1388 4581 
L 2472 1338 
Q 2622 884 2691 659 
Q 2769 909 2934 1394 
L 4031 4581 
L 4847 4581 
L 4847 0 
L 4263 0 
L 4263 3834 
L 2931 0 
L 2384 0 
L 1059 3900 
L 1059 0 
L 475 0 
z
" transform="scale(0.015625)"/>
       </defs>
       <use xlink:href="#ArialMT-30"/>
       <use xlink:href="#ArialMT-20" transform="translate(55.615234 0)"/>
       <use xlink:href="#ArialMT-75" transform="translate(83.398438 0)"/>
       <use xlink:href="#ArialMT-4d" transform="translate(139.013672 0)"/>
      </g>
     </g>
    </g>
    <g id="xtick_2">
     <g id="line2d_2">
      <g>
       <use xlink:href="#m34f59f1e2c" x="137.887562" y="138.789375" style="fill: #262626; stroke: #262626; stroke-width: 1.25"/>
      </g>
     </g>
     <g id="text_2">
      <!-- 0.1 uM -->
      <g style="fill: #262626" transform="translate(121.07475 156.162969) scale(0.11 -0.11)">
       <defs>
        <path id="ArialMT-2e" d="M 581 0 
L 581 641 
L 1222 641 
L 1222 0 
L 581 0 
z
" transform="scale(0.015625)"/>
        <path id="ArialMT-31" d="M 2384 0 
L 1822 0 
L 1822 3584 
Q 1619 3391 1289 3197 
Q 959 3003 697 2906 
L 697 3450 
Q 1169 3672 1522 3987 
Q 1875 4303 2022 4600 
L 2384 4600 
L 2384 0 
z
" transform="scale(0.015625)"/>
       </defs>
       <use xlink:href="#ArialMT-30"/>
       <use xlink:href="#ArialMT-2e" transform="translate(55.615234 0)"/>
       <use xlink:href="#ArialMT-31" transform="translate(83.398438 0)"/>
       <use xlink:href="#ArialMT-20" transform="translate(139.013672 0)"/>
       <use xlink:href="#ArialMT-75" transform="translate(166.796875 0)"/>
       <use xlink:href="#ArialMT-4d" transform="translate(222.412109 0)"/>
      </g>
     </g>
    </g>
    <g id="xtick_3">
     <g id="line2d_3">
      <g>
       <use xlink:href="#m34f59f1e2c" x="190.484965" y="138.789375" style="fill: #262626; stroke: #262626; stroke-width: 1.25"/>
      </g>
     </g>
     <g id="text_3">
      <!-- 1 uM -->
      <g style="fill: #262626" transform="translate(178.258637 156.162969) scale(0.11 -0.11)">
       <use xlink:href="#ArialMT-31"/>
       <use xlink:href="#ArialMT-20" transform="translate(55.615234 0)"/>
       <use xlink:href="#ArialMT-75" transform="translate(83.398438 0)"/>
       <use xlink:href="#ArialMT-4d" transform="translate(139.013672 0)"/>
      </g>
     </g>
    </g>
    <g id="text_4">
     <!-- MEKi -->
     <g style="fill: #262626" transform="translate(123.55225 170.938594) scale(0.12 -0.12)">
      <defs>
       <path id="ArialMT-45" d="M 506 0 
L 506 4581 
L 3819 4581 
L 3819 4041 
L 1113 4041 
L 1113 2638 
L 3647 2638 
L 3647 2100 
L 1113 2100 
L 1113 541 
L 3925 541 
L 3925 0 
L 506 0 
z
" transform="scale(0.015625)"/>
       <path id="ArialMT-4b" d="M 469 0 
L 469 4581 
L 1075 4581 
L 1075 2309 
L 3350 4581 
L 4172 4581 
L 2250 2725 
L 4256 0 
L 3456 0 
L 1825 2319 
L 1075 1588 
L 1075 0 
L 469 0 
z
" transform="scale(0.015625)"/>
       <path id="ArialMT-69" d="M 425 3934 
L 425 4581 
L 988 4581 
L 988 3934 
L 425 3934 
z
M 425 0 
L 425 3319 
L 988 3319 
L 988 0 
L 425 0 
z
" transform="scale(0.015625)"/>
      </defs>
      <use xlink:href="#ArialMT-4d"/>
      <use xlink:href="#ArialMT-45" transform="translate(83.300781 0)"/>
      <use xlink:href="#ArialMT-4b" transform="translate(150 0)"/>
      <use xlink:href="#ArialMT-69" transform="translate(216.699219 0)"/>
     </g>
    </g>
   </g>
   <g id="matplotlib.axis_2">
    <g id="ytick_1">
     <g id="line2d_4">
      <defs>
       <path id="mb302b56ebf" d="M 0 0 
L -6 0 
" style="stroke: #262626; stroke-width: 1.25"/>
      </defs>
      <g>
       <use xlink:href="#mb302b56ebf" x="56.887563" y="138.789375" style="fill: #262626; stroke: #262626; stroke-width: 1.25"/>
      </g>
     </g>
     <g id="text_5">
      <!-- 0 -->
      <g style="fill: #262626" transform="translate(41.270531 142.726172) scale(0.11 -0.11)">
       <use xlink:href="#ArialMT-30"/>
      </g>
     </g>
    </g>
    <g id="ytick_2">
     <g id="line2d_5">
      <g>
       <use xlink:href="#mb302b56ebf" x="56.887563" y="107.549866" style="fill: #262626; stroke: #262626; stroke-width: 1.25"/>
      </g>
     </g>
     <g id="text_6">
      <!-- 10 -->
      <g style="fill: #262626" transform="translate(35.1535 111.486663) scale(0.11 -0.11)">
       <use xlink:href="#ArialMT-31"/>
       <use xlink:href="#ArialMT-30" transform="translate(55.615234 0)"/>
      </g>
     </g>
    </g>
    <g id="ytick_3">
     <g id="line2d_6">
      <g>
       <use xlink:href="#mb302b56ebf" x="56.887563" y="76.310357" style="fill: #262626; stroke: #262626; stroke-width: 1.25"/>
      </g>
     </g>
     <g id="text_7">
      <!-- 20 -->
      <g style="fill: #262626" transform="translate(35.1535 80.247154) scale(0.11 -0.11)">
       <defs>
        <path id="ArialMT-32" d="M 3222 541 
L 3222 0 
L 194 0 
Q 188 203 259 391 
Q 375 700 629 1000 
Q 884 1300 1366 1694 
Q 2113 2306 2375 2664 
Q 2638 3022 2638 3341 
Q 2638 3675 2398 3904 
Q 2159 4134 1775 4134 
Q 1369 4134 1125 3890 
Q 881 3647 878 3216 
L 300 3275 
Q 359 3922 746 4261 
Q 1134 4600 1788 4600 
Q 2447 4600 2831 4234 
Q 3216 3869 3216 3328 
Q 3216 3053 3103 2787 
Q 2991 2522 2730 2228 
Q 2469 1934 1863 1422 
Q 1356 997 1212 845 
Q 1069 694 975 541 
L 3222 541 
z
" transform="scale(0.015625)"/>
       </defs>
       <use xlink:href="#ArialMT-32"/>
       <use xlink:href="#ArialMT-30" transform="translate(55.615234 0)"/>
      </g>
     </g>
    </g>
    <g id="ytick_4">
     <g id="line2d_7">
      <g>
       <use xlink:href="#mb302b56ebf" x="56.887563" y="45.070848" style="fill: #262626; stroke: #262626; stroke-width: 1.25"/>
      </g>
     </g>
     <g id="text_8">
      <!-- 30 -->
      <g style="fill: #262626" transform="translate(35.1535 49.007645) scale(0.11 -0.11)">
       <defs>
        <path id="ArialMT-33" d="M 269 1209 
L 831 1284 
Q 928 806 1161 595 
Q 1394 384 1728 384 
Q 2125 384 2398 659 
Q 2672 934 2672 1341 
Q 2672 1728 2419 1979 
Q 2166 2231 1775 2231 
Q 1616 2231 1378 2169 
L 1441 2663 
Q 1497 2656 1531 2656 
Q 1891 2656 2178 2843 
Q 2466 3031 2466 3422 
Q 2466 3731 2256 3934 
Q 2047 4138 1716 4138 
Q 1388 4138 1169 3931 
Q 950 3725 888 3313 
L 325 3413 
Q 428 3978 793 4289 
Q 1159 4600 1703 4600 
Q 2078 4600 2393 4439 
Q 2709 4278 2876 4000 
Q 3044 3722 3044 3409 
Q 3044 3113 2884 2869 
Q 2725 2625 2413 2481 
Q 2819 2388 3044 2092 
Q 3269 1797 3269 1353 
Q 3269 753 2831 336 
Q 2394 -81 1725 -81 
Q 1122 -81 723 278 
Q 325 638 269 1209 
z
" transform="scale(0.015625)"/>
       </defs>
       <use xlink:href="#ArialMT-33"/>
       <use xlink:href="#ArialMT-30" transform="translate(55.615234 0)"/>
      </g>
     </g>
    </g>
    <g id="text_9">
     <!-- (%) iMN -->
     <g style="fill: #262626" transform="translate(15.935625 101.95125) rotate(-90) scale(0.12 -0.12)">
      <defs>
       <path id="ArialMT-28" d="M 1497 -1347 
Q 1031 -759 709 28 
Q 388 816 388 1659 
Q 388 2403 628 3084 
Q 909 3875 1497 4659 
L 1900 4659 
Q 1522 4009 1400 3731 
Q 1209 3300 1100 2831 
Q 966 2247 966 1656 
Q 966 153 1900 -1347 
L 1497 -1347 
z
" transform="scale(0.015625)"/>
       <path id="ArialMT-25" d="M 372 3481 
Q 372 3972 619 4315 
Q 866 4659 1334 4659 
Q 1766 4659 2048 4351 
Q 2331 4044 2331 3447 
Q 2331 2866 2045 2552 
Q 1759 2238 1341 2238 
Q 925 2238 648 2547 
Q 372 2856 372 3481 
z
M 1350 4272 
Q 1141 4272 1002 4090 
Q 863 3909 863 3425 
Q 863 2984 1003 2804 
Q 1144 2625 1350 2625 
Q 1563 2625 1702 2806 
Q 1841 2988 1841 3469 
Q 1841 3913 1700 4092 
Q 1559 4272 1350 4272 
z
M 1353 -169 
L 3859 4659 
L 4316 4659 
L 1819 -169 
L 1353 -169 
z
M 3334 1075 
Q 3334 1569 3581 1911 
Q 3828 2253 4300 2253 
Q 4731 2253 5014 1945 
Q 5297 1638 5297 1041 
Q 5297 459 5011 145 
Q 4725 -169 4303 -169 
Q 3888 -169 3611 142 
Q 3334 453 3334 1075 
z
M 4316 1866 
Q 4103 1866 3964 1684 
Q 3825 1503 3825 1019 
Q 3825 581 3965 400 
Q 4106 219 4313 219 
Q 4528 219 4667 400 
Q 4806 581 4806 1063 
Q 4806 1506 4665 1686 
Q 4525 1866 4316 1866 
z
" transform="scale(0.015625)"/>
       <path id="ArialMT-29" d="M 791 -1347 
L 388 -1347 
Q 1322 153 1322 1656 
Q 1322 2244 1188 2822 
Q 1081 3291 891 3722 
Q 769 4003 388 4659 
L 791 4659 
Q 1378 3875 1659 3084 
Q 1900 2403 1900 1659 
Q 1900 816 1576 28 
Q 1253 -759 791 -1347 
z
" transform="scale(0.015625)"/>
       <path id="ArialMT-4e" d="M 488 0 
L 488 4581 
L 1109 4581 
L 3516 984 
L 3516 4581 
L 4097 4581 
L 4097 0 
L 3475 0 
L 1069 3600 
L 1069 0 
L 488 0 
z
" transform="scale(0.015625)"/>
      </defs>
      <use xlink:href="#ArialMT-28"/>
      <use xlink:href="#ArialMT-25" transform="translate(33.300781 0)"/>
      <use xlink:href="#ArialMT-29" transform="translate(122.216797 0)"/>
      <use xlink:href="#ArialMT-20" transform="translate(155.517578 0)"/>
      <use xlink:href="#ArialMT-69" transform="translate(183.300781 0)"/>
      <use xlink:href="#ArialMT-4d" transform="translate(205.517578 0)"/>
      <use xlink:href="#ArialMT-4e" transform="translate(288.818359 0)"/>
     </g>
     <!-- of all cells -->
     <g style="fill: #262626" transform="translate(28.7685 106.632187) rotate(-90) scale(0.12 -0.12)">
      <defs>
       <path id="ArialMT-6f" d="M 213 1659 
Q 213 2581 725 3025 
Q 1153 3394 1769 3394 
Q 2453 3394 2887 2945 
Q 3322 2497 3322 1706 
Q 3322 1066 3130 698 
Q 2938 331 2570 128 
Q 2203 -75 1769 -75 
Q 1072 -75 642 372 
Q 213 819 213 1659 
z
M 791 1659 
Q 791 1022 1069 705 
Q 1347 388 1769 388 
Q 2188 388 2466 706 
Q 2744 1025 2744 1678 
Q 2744 2294 2464 2611 
Q 2184 2928 1769 2928 
Q 1347 2928 1069 2612 
Q 791 2297 791 1659 
z
" transform="scale(0.015625)"/>
       <path id="ArialMT-66" d="M 556 0 
L 556 2881 
L 59 2881 
L 59 3319 
L 556 3319 
L 556 3672 
Q 556 4006 616 4169 
Q 697 4388 901 4523 
Q 1106 4659 1475 4659 
Q 1713 4659 2000 4603 
L 1916 4113 
Q 1741 4144 1584 4144 
Q 1328 4144 1222 4034 
Q 1116 3925 1116 3625 
L 1116 3319 
L 1763 3319 
L 1763 2881 
L 1116 2881 
L 1116 0 
L 556 0 
z
" transform="scale(0.015625)"/>
       <path id="ArialMT-61" d="M 2588 409 
Q 2275 144 1986 34 
Q 1697 -75 1366 -75 
Q 819 -75 525 192 
Q 231 459 231 875 
Q 231 1119 342 1320 
Q 453 1522 633 1644 
Q 813 1766 1038 1828 
Q 1203 1872 1538 1913 
Q 2219 1994 2541 2106 
Q 2544 2222 2544 2253 
Q 2544 2597 2384 2738 
Q 2169 2928 1744 2928 
Q 1347 2928 1158 2789 
Q 969 2650 878 2297 
L 328 2372 
Q 403 2725 575 2942 
Q 747 3159 1072 3276 
Q 1397 3394 1825 3394 
Q 2250 3394 2515 3294 
Q 2781 3194 2906 3042 
Q 3031 2891 3081 2659 
Q 3109 2516 3109 2141 
L 3109 1391 
Q 3109 606 3145 398 
Q 3181 191 3288 0 
L 2700 0 
Q 2613 175 2588 409 
z
M 2541 1666 
Q 2234 1541 1622 1453 
Q 1275 1403 1131 1340 
Q 988 1278 909 1158 
Q 831 1038 831 891 
Q 831 666 1001 516 
Q 1172 366 1500 366 
Q 1825 366 2078 508 
Q 2331 650 2450 897 
Q 2541 1088 2541 1459 
L 2541 1666 
z
" transform="scale(0.015625)"/>
       <path id="ArialMT-6c" d="M 409 0 
L 409 4581 
L 972 4581 
L 972 0 
L 409 0 
z
" transform="scale(0.015625)"/>
       <path id="ArialMT-63" d="M 2588 1216 
L 3141 1144 
Q 3050 572 2676 248 
Q 2303 -75 1759 -75 
Q 1078 -75 664 370 
Q 250 816 250 1647 
Q 250 2184 428 2587 
Q 606 2991 970 3192 
Q 1334 3394 1763 3394 
Q 2303 3394 2647 3120 
Q 2991 2847 3088 2344 
L 2541 2259 
Q 2463 2594 2264 2762 
Q 2066 2931 1784 2931 
Q 1359 2931 1093 2626 
Q 828 2322 828 1663 
Q 828 994 1084 691 
Q 1341 388 1753 388 
Q 2084 388 2306 591 
Q 2528 794 2588 1216 
z
" transform="scale(0.015625)"/>
       <path id="ArialMT-65" d="M 2694 1069 
L 3275 997 
Q 3138 488 2766 206 
Q 2394 -75 1816 -75 
Q 1088 -75 661 373 
Q 234 822 234 1631 
Q 234 2469 665 2931 
Q 1097 3394 1784 3394 
Q 2450 3394 2872 2941 
Q 3294 2488 3294 1666 
Q 3294 1616 3291 1516 
L 816 1516 
Q 847 969 1125 678 
Q 1403 388 1819 388 
Q 2128 388 2347 550 
Q 2566 713 2694 1069 
z
M 847 1978 
L 2700 1978 
Q 2663 2397 2488 2606 
Q 2219 2931 1791 2931 
Q 1403 2931 1139 2672 
Q 875 2413 847 1978 
z
" transform="scale(0.015625)"/>
       <path id="ArialMT-73" d="M 197 991 
L 753 1078 
Q 800 744 1014 566 
Q 1228 388 1613 388 
Q 2000 388 2187 545 
Q 2375 703 2375 916 
Q 2375 1106 2209 1216 
Q 2094 1291 1634 1406 
Q 1016 1563 777 1677 
Q 538 1791 414 1992 
Q 291 2194 291 2438 
Q 291 2659 392 2848 
Q 494 3038 669 3163 
Q 800 3259 1026 3326 
Q 1253 3394 1513 3394 
Q 1903 3394 2198 3281 
Q 2494 3169 2634 2976 
Q 2775 2784 2828 2463 
L 2278 2388 
Q 2241 2644 2061 2787 
Q 1881 2931 1553 2931 
Q 1166 2931 1000 2803 
Q 834 2675 834 2503 
Q 834 2394 903 2306 
Q 972 2216 1119 2156 
Q 1203 2125 1616 2013 
Q 2213 1853 2448 1751 
Q 2684 1650 2818 1456 
Q 2953 1263 2953 975 
Q 2953 694 2789 445 
Q 2625 197 2315 61 
Q 2006 -75 1616 -75 
Q 969 -75 630 194 
Q 291 463 197 991 
z
" transform="scale(0.015625)"/>
      </defs>
      <use xlink:href="#ArialMT-6f"/>
      <use xlink:href="#ArialMT-66" transform="translate(55.615234 0)"/>
      <use xlink:href="#ArialMT-20" transform="translate(83.398438 0)"/>
      <use xlink:href="#ArialMT-61" transform="translate(111.181641 0)"/>
      <use xlink:href="#ArialMT-6c" transform="translate(166.796875 0)"/>
      <use xlink:href="#ArialMT-6c" transform="translate(189.013672 0)"/>
      <use xlink:href="#ArialMT-20" transform="translate(211.230469 0)"/>
      <use xlink:href="#ArialMT-63" transform="translate(239.013672 0)"/>
      <use xlink:href="#ArialMT-65" transform="translate(289.013672 0)"/>
      <use xlink:href="#ArialMT-6c" transform="translate(344.628906 0)"/>
      <use xlink:href="#ArialMT-6c" transform="translate(366.845703 0)"/>
      <use xlink:href="#ArialMT-73" transform="translate(389.0625 0)"/>
     </g>
    </g>
   </g>
   <g id="patch_3">
    <path d="M 64.251199 138.789375 
L 85.29016 138.789375 
L 85.29016 93.462582 
L 64.251199 93.462582 
z
" clip-path="url(#p076f288c78)" style="fill: #999999; opacity: 0.8; stroke: #ffffff; stroke-linejoin: miter"/>
   </g>
   <g id="patch_4">
    <path d="M 116.848601 138.789375 
L 137.887562 138.789375 
L 137.887562 97.366325 
L 116.848601 97.366325 
z
" clip-path="url(#p076f288c78)" style="fill: #999999; opacity: 0.8; stroke: #ffffff; stroke-linejoin: miter"/>
   </g>
   <g id="patch_5">
    <path d="M 169.446004 138.789375 
L 190.484965 138.789375 
L 190.484965 110.713405 
L 169.446004 110.713405 
z
" clip-path="url(#p076f288c78)" style="fill: #999999; opacity: 0.8; stroke: #ffffff; stroke-linejoin: miter"/>
   </g>
   <g id="patch_6">
    <path d="M 85.29016 138.789375 
L 106.329121 138.789375 
L 106.329121 57.614233 
L 85.29016 57.614233 
z
" clip-path="url(#p076f288c78)" style="fill: #c180a8; opacity: 0.8; stroke: #ffffff; stroke-linejoin: miter"/>
   </g>
   <g id="patch_7">
    <path d="M 137.887562 138.789375 
L 158.926524 138.789375 
L 158.926524 80.455193 
L 137.887562 80.455193 
z
" clip-path="url(#p076f288c78)" style="fill: #c180a8; opacity: 0.8; stroke: #ffffff; stroke-linejoin: miter"/>
   </g>
   <g id="patch_8">
    <path d="M 190.484965 138.789375 
L 211.523926 138.789375 
L 211.523926 116.491458 
L 190.484965 116.491458 
z
" clip-path="url(#p076f288c78)" style="fill: #c180a8; opacity: 0.8; stroke: #ffffff; stroke-linejoin: miter"/>
   </g>
   <g id="line2d_8">
    <path d="M 74.770679 98.077327 
L 74.770679 88.735229 
" clip-path="url(#p076f288c78)" style="fill: none; stroke: #424242; stroke-width: 2.7; stroke-linecap: round"/>
   </g>
   <g id="line2d_9">
    <path d="M 127.368082 104.911927 
L 127.368082 89.151002 
" clip-path="url(#p076f288c78)" style="fill: none; stroke: #424242; stroke-width: 2.7; stroke-linecap: round"/>
   </g>
   <g id="line2d_10">
    <path d="M 179.965485 113.870262 
L 179.965485 106.946822 
" clip-path="url(#p076f288c78)" style="fill: none; stroke: #424242; stroke-width: 2.7; stroke-linecap: round"/>
   </g>
   <g id="line2d_11">
    <path d="M 95.80964 62.540647 
L 95.80964 52.802711 
" clip-path="url(#p076f288c78)" style="fill: none; stroke: #424242; stroke-width: 2.7; stroke-linecap: round"/>
   </g>
   <g id="line2d_12">
    <path d="M 148.407043 86.756263 
L 148.407043 73.235218 
" clip-path="url(#p076f288c78)" style="fill: none; stroke: #424242; stroke-width: 2.7; stroke-linecap: round"/>
   </g>
   <g id="line2d_13">
    <path d="M 201.004446 119.074874 
L 201.004446 114.178736 
" clip-path="url(#p076f288c78)" style="fill: none; stroke: #424242; stroke-width: 2.7; stroke-linecap: round"/>
   </g>
   <g id="line2d_14">
    <path d="M 127.368082 48.548095 
L 127.368082 46.558636 
L 148.407043 46.558636 
L 148.407043 48.548095 
" clip-path="url(#p076f288c78)" style="fill: none; stroke: #333333; stroke-width: 1.5; stroke-linecap: round"/>
   </g>
   <g id="line2d_15">
    <path d="M 74.770679 38.084856 
L 74.770679 36.095397 
L 95.80964 36.095397 
L 95.80964 38.084856 
" clip-path="url(#p076f288c78)" style="fill: none; stroke: #333333; stroke-width: 1.5; stroke-linecap: round"/>
   </g>
   <g id="line2d_16">
    <path d="M 179.965485 90.064891 
L 179.965485 88.075432 
L 201.004446 88.075432 
L 201.004446 90.064891 
" clip-path="url(#p076f288c78)" style="fill: none; stroke: #333333; stroke-width: 1.5; stroke-linecap: round"/>
   </g>
   <g id="patch_9">
    <path d="M 56.887563 138.789375 
L 56.887563 21.789375 
" style="fill: none; stroke: #262626; stroke-width: 1.25; stroke-linejoin: miter; stroke-linecap: square"/>
   </g>
   <g id="patch_10">
    <path d="M 218.887562 138.789375 
L 218.887562 21.789375 
" style="fill: none; stroke: #262626; stroke-width: 1.25; stroke-linejoin: miter; stroke-linecap: square"/>
   </g>
   <g id="patch_11">
    <path d="M 56.887563 138.789375 
L 218.887562 138.789375 
" style="fill: none; stroke: #262626; stroke-width: 1.25; stroke-linejoin: miter; stroke-linecap: square"/>
   </g>
   <g id="patch_12">
    <path d="M 56.887563 21.789375 
L 218.887562 21.789375 
" style="fill: none; stroke: #262626; stroke-width: 1.25; stroke-linejoin: miter; stroke-linecap: square"/>
   </g>
   <g id="PathCollection_1">
    <defs>
     <path id="C0_0_3e0bfc3c50" d="M 0 2.5 
C 0.663008 2.5 1.29895 2.236584 1.767767 1.767767 
C 2.236584 1.29895 2.5 0.663008 2.5 -0 
C 2.5 -0.663008 2.236584 -1.29895 1.767767 -1.767767 
C 1.29895 -2.236584 0.663008 -2.5 0 -2.5 
C -0.663008 -2.5 -1.29895 -2.236584 -1.767767 -1.767767 
C -2.236584 -1.29895 -2.5 -0.663008 -2.5 0 
C -2.5 0.663008 -2.236584 1.29895 -1.767767 1.767767 
C -1.29895 2.236584 -0.663008 2.5 0 2.5 
z
"/>
    </defs>
    <g clip-path="url(#p076f288c78)">
     <use xlink:href="#C0_0_3e0bfc3c50" x="75.744997" y="100.009419" style="fill: #ffffff; stroke: #000000; stroke-width: 0.4"/>
    </g>
    <g clip-path="url(#p076f288c78)">
     <use xlink:href="#C0_0_3e0bfc3c50" x="76.452584" y="104.898019" style="fill: #ffffff; stroke: #000000; stroke-width: 0.4"/>
    </g>
    <g clip-path="url(#p076f288c78)">
     <use xlink:href="#C0_0_3e0bfc3c50" x="77.166175" y="87.290766" style="fill: #ffffff; stroke: #000000; stroke-width: 0.4"/>
    </g>
   </g>
   <g id="PathCollection_2">
    <defs>
     <path id="C1_0_ffde2bd1de" d="M 0 2.5 
C 0.663008 2.5 1.29895 2.236584 1.767767 1.767767 
C 2.236584 1.29895 2.5 0.663008 2.5 -0 
C 2.5 -0.663008 2.236584 -1.29895 1.767767 -1.767767 
C 1.29895 -2.236584 0.663008 -2.5 0 -2.5 
C -0.663008 -2.5 -1.29895 -2.236584 -1.767767 -1.767767 
C -2.236584 -1.29895 -2.5 -0.663008 -2.5 0 
C -2.5 0.663008 -2.236584 1.29895 -1.767767 1.767767 
C -1.29895 2.236584 -0.663008 2.5 0 2.5 
z
"/>
    </defs>
    <g clip-path="url(#p076f288c78)">
     <use xlink:href="#C1_0_ffde2bd1de" x="98.343833" y="66.510896" style="fill: #ffffff; stroke: #000000; stroke-width: 0.4"/>
    </g>
    <g clip-path="url(#p076f288c78)">
     <use xlink:href="#C1_0_ffde2bd1de" x="93.612664" y="61.195234" style="fill: #ffffff; stroke: #000000; stroke-width: 0.4"/>
    </g>
    <g clip-path="url(#p076f288c78)">
     <use xlink:href="#C1_0_ffde2bd1de" x="93.678704" y="63.057585" style="fill: #ffffff; stroke: #000000; stroke-width: 0.4"/>
    </g>
   </g>
   <g id="PathCollection_3">
    <defs>
     <path id="C2_0_26bf2af0af" d="M 0 2.5 
C 0.663008 2.5 1.29895 2.236584 1.767767 1.767767 
C 2.236584 1.29895 2.5 0.663008 2.5 -0 
C 2.5 -0.663008 2.236584 -1.29895 1.767767 -1.767767 
C 1.29895 -2.236584 0.663008 -2.5 0 -2.5 
C -0.663008 -2.5 -1.29895 -2.236584 -1.767767 -1.767767 
C -2.236584 -1.29895 -2.5 -0.663008 -2.5 0 
C -2.5 0.663008 -2.236584 1.29895 -1.767767 1.767767 
C -1.29895 2.236584 -0.663008 2.5 0 2.5 
z
"/>
    </defs>
    <g clip-path="url(#p076f288c78)">
     <use xlink:href="#C2_0_26bf2af0af" x="126.285989" y="94.99735" style="fill: #ffffff; stroke: #000000; stroke-width: 0.4"/>
    </g>
    <g clip-path="url(#p076f288c78)">
     <use xlink:href="#C2_0_26bf2af0af" x="128.592789" y="105.056036" style="fill: #ffffff; stroke: #000000; stroke-width: 0.4"/>
    </g>
    <g clip-path="url(#p076f288c78)">
     <use xlink:href="#C2_0_26bf2af0af" x="129.778622" y="106.848364" style="fill: #ffffff; stroke: #000000; stroke-width: 0.4"/>
    </g>
   </g>
   <g id="PathCollection_4">
    <defs>
     <path id="C3_0_55bef1d4c1" d="M 0 2.5 
C 0.663008 2.5 1.29895 2.236584 1.767767 1.767767 
C 2.236584 1.29895 2.5 0.663008 2.5 -0 
C 2.5 -0.663008 2.236584 -1.29895 1.767767 -1.767767 
C 1.29895 -2.236584 0.663008 -2.5 0 -2.5 
C -0.663008 -2.5 -1.29895 -2.236584 -1.767767 -1.767767 
C -2.236584 -1.29895 -2.5 -0.663008 -2.5 0 
C -2.5 0.663008 -2.236584 1.29895 -1.767767 1.767767 
C -1.29895 2.236584 -0.663008 2.5 0 2.5 
z
"/>
    </defs>
    <g clip-path="url(#p076f288c78)">
     <use xlink:href="#C3_0_55bef1d4c1" x="149.914482" y="78.851565" style="fill: #ffffff; stroke: #000000; stroke-width: 0.4"/>
    </g>
    <g clip-path="url(#p076f288c78)">
     <use xlink:href="#C3_0_55bef1d4c1" x="146.586133" y="77.659083" style="fill: #ffffff; stroke: #000000; stroke-width: 0.4"/>
    </g>
    <g clip-path="url(#p076f288c78)">
     <use xlink:href="#C3_0_55bef1d4c1" x="148.392674" y="94.041564" style="fill: #ffffff; stroke: #000000; stroke-width: 0.4"/>
    </g>
   </g>
   <g id="PathCollection_5">
    <defs>
     <path id="C4_0_3adaf19d5f" d="M 0 2.5 
C 0.663008 2.5 1.29895 2.236584 1.767767 1.767767 
C 2.236584 1.29895 2.5 0.663008 2.5 -0 
C 2.5 -0.663008 2.236584 -1.29895 1.767767 -1.767767 
C 1.29895 -2.236584 0.663008 -2.5 0 -2.5 
C -0.663008 -2.5 -1.29895 -2.236584 -1.767767 -1.767767 
C -2.236584 -1.29895 -2.5 -0.663008 -2.5 0 
C -2.5 0.663008 -2.236584 1.29895 -1.767767 1.767767 
C -1.29895 2.236584 -0.663008 2.5 0 2.5 
z
"/>
    </defs>
    <g clip-path="url(#p076f288c78)">
     <use xlink:href="#C4_0_3adaf19d5f" x="180.073813" y="110.650132" style="fill: #ffffff; stroke: #000000; stroke-width: 0.4"/>
    </g>
    <g clip-path="url(#p076f288c78)">
     <use xlink:href="#C4_0_3adaf19d5f" x="180.950891" y="113.796118" style="fill: #ffffff; stroke: #000000; stroke-width: 0.4"/>
    </g>
    <g clip-path="url(#p076f288c78)">
     <use xlink:href="#C4_0_3adaf19d5f" x="178.820046" y="108.768671" style="fill: #ffffff; stroke: #000000; stroke-width: 0.4"/>
    </g>
   </g>
   <g id="PathCollection_6">
    <defs>
     <path id="C5_0_7109fba322" d="M 0 2.5 
C 0.663008 2.5 1.29895 2.236584 1.767767 1.767767 
C 2.236584 1.29895 2.5 0.663008 2.5 -0 
C 2.5 -0.663008 2.236584 -1.29895 1.767767 -1.767767 
C 1.29895 -2.236584 0.663008 -2.5 0 -2.5 
C -0.663008 -2.5 -1.29895 -2.236584 -1.767767 -1.767767 
C -2.236584 -1.29895 -2.5 -0.663008 -2.5 0 
C -2.5 0.663008 -2.236584 1.29895 -1.767767 1.767767 
C -1.29895 2.236584 -0.663008 2.5 0 2.5 
z
"/>
    </defs>
    <g clip-path="url(#p076f288c78)">
     <use xlink:href="#C5_0_7109fba322" x="200.841412" y="110.222499" style="fill: #ffffff; stroke: #000000; stroke-width: 0.4"/>
    </g>
    <g clip-path="url(#p076f288c78)">
     <use xlink:href="#C5_0_7109fba322" x="199.86176" y="115.96404" style="fill: #ffffff; stroke: #000000; stroke-width: 0.4"/>
    </g>
    <g clip-path="url(#p076f288c78)">
     <use xlink:href="#C5_0_7109fba322" x="202.780466" y="116.449281" style="fill: #ffffff; stroke: #000000; stroke-width: 0.4"/>
    </g>
   </g>
   <g id="PathCollection_7">
    <path d="M 75.769198 93.378775 
L 73.269198 98.378775 
L 78.269198 98.378775 
z
" clip-path="url(#p076f288c78)" style="fill: #ffffff; stroke: #000000; stroke-width: 0.4"/>
    <path d="M 77.01754 93.241691 
L 74.51754 98.241691 
L 79.51754 98.241691 
z
" clip-path="url(#p076f288c78)" style="fill: #ffffff; stroke: #000000; stroke-width: 0.4"/>
    <path d="M 76.23834 95.812303 
L 73.73834 100.812303 
L 78.73834 100.812303 
z
" clip-path="url(#p076f288c78)" style="fill: #ffffff; stroke: #000000; stroke-width: 0.4"/>
   </g>
   <g id="PathCollection_8">
    <path d="M 94.438404 41.553233 
L 91.938404 46.553233 
L 96.938404 46.553233 
z
" clip-path="url(#p076f288c78)" style="fill: #ffffff; stroke: #000000; stroke-width: 0.4"/>
    <path d="M 96.386278 43.702103 
L 93.886278 48.702103 
L 98.886278 48.702103 
z
" clip-path="url(#p076f288c78)" style="fill: #ffffff; stroke: #000000; stroke-width: 0.4"/>
    <path d="M 96.546066 43.388068 
L 94.046066 48.388068 
L 99.046066 48.388068 
z
" clip-path="url(#p076f288c78)" style="fill: #ffffff; stroke: #000000; stroke-width: 0.4"/>
   </g>
   <g id="PathCollection_9">
    <path d="M 126.172526 112.519895 
L 123.672526 117.519895 
L 128.672526 117.519895 
z
" clip-path="url(#p076f288c78)" style="fill: #ffffff; stroke: #000000; stroke-width: 0.4"/>
    <path d="M 129.583854 110.005413 
L 127.083854 115.005413 
L 132.083854 115.005413 
z
" clip-path="url(#p076f288c78)" style="fill: #ffffff; stroke: #000000; stroke-width: 0.4"/>
    <path d="M 127.115893 111.534099 
L 124.615893 116.534099 
L 129.615893 116.534099 
z
" clip-path="url(#p076f288c78)" style="fill: #ffffff; stroke: #000000; stroke-width: 0.4"/>
   </g>
   <g id="PathCollection_10">
    <path d="M 148.314369 91.881027 
L 145.814369 96.881027 
L 150.814369 96.881027 
z
" clip-path="url(#p076f288c78)" style="fill: #ffffff; stroke: #000000; stroke-width: 0.4"/>
    <path d="M 150.847364 88.881875 
L 148.347364 93.881875 
L 153.347364 93.881875 
z
" clip-path="url(#p076f288c78)" style="fill: #ffffff; stroke: #000000; stroke-width: 0.4"/>
    <path d="M 147.514687 82.25664 
L 145.014687 87.25664 
L 150.014687 87.25664 
z
" clip-path="url(#p076f288c78)" style="fill: #ffffff; stroke: #000000; stroke-width: 0.4"/>
   </g>
   <g id="PathCollection_11">
    <path d="M 181.640698 111.090212 
L 179.140698 116.090212 
L 184.140698 116.090212 
z
" clip-path="url(#p076f288c78)" style="fill: #ffffff; stroke: #000000; stroke-width: 0.4"/>
    <path d="M 179.953856 111.057962 
L 177.453856 116.057962 
L 182.453856 116.057962 
z
" clip-path="url(#p076f288c78)" style="fill: #ffffff; stroke: #000000; stroke-width: 0.4"/>
    <path d="M 178.511929 109.607462 
L 176.011929 114.607462 
L 181.011929 114.607462 
z
" clip-path="url(#p076f288c78)" style="fill: #ffffff; stroke: #000000; stroke-width: 0.4"/>
   </g>
   <g id="PathCollection_12">
    <path d="M 202.767668 120.222104 
L 200.267668 125.222104 
L 205.267668 125.222104 
z
" clip-path="url(#p076f288c78)" style="fill: #ffffff; stroke: #000000; stroke-width: 0.4"/>
    <path d="M 198.643522 121.101671 
L 196.143522 126.101671 
L 201.143522 126.101671 
z
" clip-path="url(#p076f288c78)" style="fill: #ffffff; stroke: #000000; stroke-width: 0.4"/>
    <path d="M 202.698676 113.890488 
L 200.198676 118.890488 
L 205.198676 118.890488 
z
" clip-path="url(#p076f288c78)" style="fill: #ffffff; stroke: #000000; stroke-width: 0.4"/>
   </g>
   <g id="PathCollection_13">
    <path d="M 71.539153 81.422454 
L 76.539153 81.422454 
L 76.539153 76.422454 
L 71.539153 76.422454 
z
" clip-path="url(#p076f288c78)" style="fill: #ffffff; stroke: #000000; stroke-width: 0.4"/>
    <path d="M 72.076897 85.866866 
L 77.076897 85.866866 
L 77.076897 80.866866 
L 72.076897 80.866866 
z
" clip-path="url(#p076f288c78)" style="fill: #ffffff; stroke: #000000; stroke-width: 0.4"/>
    <path d="M 73.436873 82.901346 
L 78.436873 82.901346 
L 78.436873 77.901346 
L 73.436873 77.901346 
z
" clip-path="url(#p076f288c78)" style="fill: #ffffff; stroke: #000000; stroke-width: 0.4"/>
   </g>
   <g id="PathCollection_14">
    <path d="M 91.296017 57.198153 
L 96.296017 57.198153 
L 96.296017 52.198153 
L 91.296017 52.198153 
z
" clip-path="url(#p076f288c78)" style="fill: #ffffff; stroke: #000000; stroke-width: 0.4"/>
    <path d="M 92.63563 70.587882 
L 97.63563 70.587882 
L 97.63563 65.587882 
L 92.63563 65.587882 
z
" clip-path="url(#p076f288c78)" style="fill: #ffffff; stroke: #000000; stroke-width: 0.4"/>
    <path d="M 93.569406 72.990394 
L 98.569406 72.990394 
L 98.569406 67.990394 
L 93.569406 67.990394 
z
" clip-path="url(#p076f288c78)" style="fill: #ffffff; stroke: #000000; stroke-width: 0.4"/>
   </g>
   <g id="PathCollection_15">
    <path d="M 122.613297 92.978417 
L 127.613297 92.978417 
L 127.613297 87.978417 
L 122.613297 87.978417 
z
" clip-path="url(#p076f288c78)" style="fill: #ffffff; stroke: #000000; stroke-width: 0.4"/>
    <path d="M 124.03617 89.875832 
L 129.03617 89.875832 
L 129.03617 84.875832 
L 124.03617 84.875832 
z
" clip-path="url(#p076f288c78)" style="fill: #ffffff; stroke: #000000; stroke-width: 0.4"/>
    <path d="M 127.344838 89.585304 
L 132.344838 89.585304 
L 132.344838 84.585304 
L 127.344838 84.585304 
z
" clip-path="url(#p076f288c78)" style="fill: #ffffff; stroke: #000000; stroke-width: 0.4"/>
   </g>
   <g id="PathCollection_16">
    <path d="M 144.088946 82.674017 
L 149.088946 82.674017 
L 149.088946 77.674017 
L 144.088946 77.674017 
z
" clip-path="url(#p076f288c78)" style="fill: #ffffff; stroke: #000000; stroke-width: 0.4"/>
    <path d="M 148.10436 66.138598 
L 153.10436 66.138598 
L 153.10436 61.138598 
L 148.10436 61.138598 
z
" clip-path="url(#p076f288c78)" style="fill: #ffffff; stroke: #000000; stroke-width: 0.4"/>
    <path d="M 147.347794 57.016472 
L 152.347794 57.016472 
L 152.347794 52.016472 
L 147.347794 52.016472 
z
" clip-path="url(#p076f288c78)" style="fill: #ffffff; stroke: #000000; stroke-width: 0.4"/>
   </g>
   <g id="PathCollection_17">
    <path d="M 178.847631 98.533268 
L 183.847631 98.533268 
L 183.847631 93.533268 
L 178.847631 93.533268 
z
" clip-path="url(#p076f288c78)" style="fill: #ffffff; stroke: #000000; stroke-width: 0.4"/>
    <path d="M 177.4507 109.917254 
L 182.4507 109.917254 
L 182.4507 104.917254 
L 177.4507 104.917254 
z
" clip-path="url(#p076f288c78)" style="fill: #ffffff; stroke: #000000; stroke-width: 0.4"/>
    <path d="M 179.268524 104.528076 
L 184.268524 104.528076 
L 184.268524 99.528076 
L 179.268524 99.528076 
z
" clip-path="url(#p076f288c78)" style="fill: #ffffff; stroke: #000000; stroke-width: 0.4"/>
   </g>
   <g id="PathCollection_18">
    <path d="M 197.883995 114.021729 
L 202.883995 114.021729 
L 202.883995 109.021729 
L 197.883995 109.021729 
z
" clip-path="url(#p076f288c78)" style="fill: #ffffff; stroke: #000000; stroke-width: 0.4"/>
    <path d="M 195.994253 115.30918 
L 200.994253 115.30918 
L 200.994253 110.30918 
L 195.994253 110.30918 
z
" clip-path="url(#p076f288c78)" style="fill: #ffffff; stroke: #000000; stroke-width: 0.4"/>
    <path d="M 198.543471 113.175544 
L 203.543471 113.175544 
L 203.543471 108.175544 
L 198.543471 108.175544 
z
" clip-path="url(#p076f288c78)" style="fill: #ffffff; stroke: #000000; stroke-width: 0.4"/>
   </g>
   <g id="PathCollection_19">
    <path d="M 77.112576 99.090615 
L 80.64811 95.555081 
L 77.112576 92.019547 
L 73.577042 95.555081 
z
" clip-path="url(#p076f288c78)" style="fill: #ffffff; stroke: #000000; stroke-width: 0.4"/>
    <path d="M 77.378154 103.646657 
L 80.913688 100.111123 
L 77.378154 96.575589 
L 73.84262 100.111123 
z
" clip-path="url(#p076f288c78)" style="fill: #ffffff; stroke: #000000; stroke-width: 0.4"/>
    <path d="M 72.988435 104.598674 
L 76.523968 101.06314 
L 72.988435 97.527606 
L 69.452901 101.06314 
z
" clip-path="url(#p076f288c78)" style="fill: #ffffff; stroke: #000000; stroke-width: 0.4"/>
   </g>
   <g id="PathCollection_20">
    <path d="M 97.963805 61.589177 
L 101.499339 58.053643 
L 97.963805 54.518109 
L 94.428271 58.053643 
z
" clip-path="url(#p076f288c78)" style="fill: #ffffff; stroke: #000000; stroke-width: 0.4"/>
    <path d="M 93.505727 65.302591 
L 97.041261 61.767057 
L 93.505727 58.231523 
L 89.970193 61.767057 
z
" clip-path="url(#p076f288c78)" style="fill: #ffffff; stroke: #000000; stroke-width: 0.4"/>
    <path d="M 97.340558 54.90208 
L 100.876092 51.366546 
L 97.340558 47.831012 
L 93.805024 51.366546 
z
" clip-path="url(#p076f288c78)" style="fill: #ffffff; stroke: #000000; stroke-width: 0.4"/>
   </g>
   <g id="PathCollection_21">
    <path d="M 125.811076 103.603731 
L 129.34661 100.068197 
L 125.811076 96.532663 
L 122.275542 100.068197 
z
" clip-path="url(#p076f288c78)" style="fill: #ffffff; stroke: #000000; stroke-width: 0.4"/>
    <path d="M 127.95409 95.357903 
L 131.489624 91.822369 
L 127.95409 88.286836 
L 124.418556 91.822369 
z
" clip-path="url(#p076f288c78)" style="fill: #ffffff; stroke: #000000; stroke-width: 0.4"/>
    <path d="M 126.877784 66.64016 
L 130.413318 63.104626 
L 126.877784 59.569092 
L 123.34225 63.104626 
z
" clip-path="url(#p076f288c78)" style="fill: #ffffff; stroke: #000000; stroke-width: 0.4"/>
   </g>
   <g id="PathCollection_22">
    <path d="M 150.118017 94.941139 
L 153.653551 91.405605 
L 150.118017 87.870071 
L 146.582483 91.405605 
z
" clip-path="url(#p076f288c78)" style="fill: #ffffff; stroke: #000000; stroke-width: 0.4"/>
    <path d="M 149.751685 88.394443 
L 153.287219 84.858909 
L 149.751685 81.323376 
L 146.216151 84.858909 
z
" clip-path="url(#p076f288c78)" style="fill: #ffffff; stroke: #000000; stroke-width: 0.4"/>
    <path d="M 146.264787 73.332496 
L 149.800321 69.796962 
L 146.264787 66.261428 
L 142.729253 69.796962 
z
" clip-path="url(#p076f288c78)" style="fill: #ffffff; stroke: #000000; stroke-width: 0.4"/>
   </g>
   <g id="PathCollection_23">
    <path d="M 181.461001 119.802231 
L 184.996535 116.266697 
L 181.461001 112.731163 
L 177.925467 116.266697 
z
" clip-path="url(#p076f288c78)" style="fill: #ffffff; stroke: #000000; stroke-width: 0.4"/>
    <path d="M 177.42255 119.842856 
L 180.958083 116.307322 
L 177.42255 112.771788 
L 173.887016 116.307322 
z
" clip-path="url(#p076f288c78)" style="fill: #ffffff; stroke: #000000; stroke-width: 0.4"/>
    <path d="M 179.893942 121.573216 
L 183.429476 118.037682 
L 179.893942 114.502148 
L 176.358408 118.037682 
z
" clip-path="url(#p076f288c78)" style="fill: #ffffff; stroke: #000000; stroke-width: 0.4"/>
   </g>
   <g id="PathCollection_24">
    <path d="M 200.098524 120.871044 
L 203.634057 117.33551 
L 200.098524 113.799976 
L 196.56299 117.33551 
z
" clip-path="url(#p076f288c78)" style="fill: #ffffff; stroke: #000000; stroke-width: 0.4"/>
    <path d="M 200.300627 121.464048 
L 203.836161 117.928514 
L 200.300627 114.39298 
L 196.765093 117.928514 
z
" clip-path="url(#p076f288c78)" style="fill: #ffffff; stroke: #000000; stroke-width: 0.4"/>
    <path d="M 202.48286 125.812469 
L 206.018394 122.276935 
L 202.48286 118.741401 
L 198.947326 122.276935 
z
" clip-path="url(#p076f288c78)" style="fill: #ffffff; stroke: #000000; stroke-width: 0.4"/>
   </g>
   <g id="text_10">
    <!-- ** -->
    <g style="fill: #262626" transform="translate(133.216937 43.173636) scale(0.12 -0.12)">
     <defs>
      <path id="ArialMT-2a" d="M 200 3741 
L 344 4184 
Q 841 4009 1066 3881 
Q 1006 4447 1003 4659 
L 1456 4659 
Q 1447 4350 1384 3884 
Q 1706 4047 2122 4184 
L 2266 3741 
Q 1869 3609 1488 3566 
Q 1678 3400 2025 2975 
L 1650 2709 
Q 1469 2956 1222 3381 
Q 991 2941 816 2709 
L 447 2975 
Q 809 3422 966 3566 
Q 563 3644 200 3741 
z
" transform="scale(0.015625)"/>
     </defs>
     <use xlink:href="#ArialMT-2a"/>
     <use xlink:href="#ArialMT-2a" transform="translate(38.916016 0)"/>
    </g>
   </g>
   <g id="text_11">
    <!-- **** -->
    <g style="fill: #262626" transform="translate(75.94891 32.710397) scale(0.12 -0.12)">
     <use xlink:href="#ArialMT-2a"/>
     <use xlink:href="#ArialMT-2a" transform="translate(38.916016 0)"/>
     <use xlink:href="#ArialMT-2a" transform="translate(77.832031 0)"/>
     <use xlink:href="#ArialMT-2a" transform="translate(116.748047 0)"/>
    </g>
   </g>
   <g id="text_12">
    <!-- * -->
    <g style="fill: #262626" transform="translate(188.149653 84.690432) scale(0.12 -0.12)">
     <use xlink:href="#ArialMT-2a"/>
    </g>
   </g>
   <g id="text_13">
    <!-- NIL SNAP-DD -->
    <g style="fill: #262626" transform="translate(100.105375 15.789375) scale(0.12 -0.12)">
     <defs>
      <path id="ArialMT-49" d="M 597 0 
L 597 4581 
L 1203 4581 
L 1203 0 
L 597 0 
z
" transform="scale(0.015625)"/>
      <path id="ArialMT-4c" d="M 469 0 
L 469 4581 
L 1075 4581 
L 1075 541 
L 3331 541 
L 3331 0 
L 469 0 
z
" transform="scale(0.015625)"/>
      <path id="ArialMT-53" d="M 288 1472 
L 859 1522 
Q 900 1178 1048 958 
Q 1197 738 1509 602 
Q 1822 466 2213 466 
Q 2559 466 2825 569 
Q 3091 672 3220 851 
Q 3350 1031 3350 1244 
Q 3350 1459 3225 1620 
Q 3100 1781 2813 1891 
Q 2628 1963 1997 2114 
Q 1366 2266 1113 2400 
Q 784 2572 623 2826 
Q 463 3081 463 3397 
Q 463 3744 659 4045 
Q 856 4347 1234 4503 
Q 1613 4659 2075 4659 
Q 2584 4659 2973 4495 
Q 3363 4331 3572 4012 
Q 3781 3694 3797 3291 
L 3216 3247 
Q 3169 3681 2898 3903 
Q 2628 4125 2100 4125 
Q 1550 4125 1298 3923 
Q 1047 3722 1047 3438 
Q 1047 3191 1225 3031 
Q 1400 2872 2139 2705 
Q 2878 2538 3153 2413 
Q 3553 2228 3743 1945 
Q 3934 1663 3934 1294 
Q 3934 928 3725 604 
Q 3516 281 3123 101 
Q 2731 -78 2241 -78 
Q 1619 -78 1198 103 
Q 778 284 539 648 
Q 300 1013 288 1472 
z
" transform="scale(0.015625)"/>
      <path id="ArialMT-41" d="M -9 0 
L 1750 4581 
L 2403 4581 
L 4278 0 
L 3588 0 
L 3053 1388 
L 1138 1388 
L 634 0 
L -9 0 
z
M 1313 1881 
L 2866 1881 
L 2388 3150 
Q 2169 3728 2063 4100 
Q 1975 3659 1816 3225 
L 1313 1881 
z
" transform="scale(0.015625)"/>
      <path id="ArialMT-50" d="M 494 0 
L 494 4581 
L 2222 4581 
Q 2678 4581 2919 4538 
Q 3256 4481 3484 4323 
Q 3713 4166 3852 3881 
Q 3991 3597 3991 3256 
Q 3991 2672 3619 2267 
Q 3247 1863 2275 1863 
L 1100 1863 
L 1100 0 
L 494 0 
z
M 1100 2403 
L 2284 2403 
Q 2872 2403 3119 2622 
Q 3366 2841 3366 3238 
Q 3366 3525 3220 3729 
Q 3075 3934 2838 4000 
Q 2684 4041 2272 4041 
L 1100 4041 
L 1100 2403 
z
" transform="scale(0.015625)"/>
      <path id="ArialMT-2d" d="M 203 1375 
L 203 1941 
L 1931 1941 
L 1931 1375 
L 203 1375 
z
" transform="scale(0.015625)"/>
      <path id="ArialMT-44" d="M 494 0 
L 494 4581 
L 2072 4581 
Q 2606 4581 2888 4516 
Q 3281 4425 3559 4188 
Q 3922 3881 4101 3404 
Q 4281 2928 4281 2316 
Q 4281 1794 4159 1391 
Q 4038 988 3847 723 
Q 3656 459 3429 307 
Q 3203 156 2883 78 
Q 2563 0 2147 0 
L 494 0 
z
M 1100 541 
L 2078 541 
Q 2531 541 2789 625 
Q 3047 709 3200 863 
Q 3416 1078 3536 1442 
Q 3656 1806 3656 2325 
Q 3656 3044 3420 3430 
Q 3184 3816 2847 3947 
Q 2603 4041 2063 4041 
L 1100 4041 
L 1100 541 
z
" transform="scale(0.015625)"/>
     </defs>
     <use xlink:href="#ArialMT-4e"/>
     <use xlink:href="#ArialMT-49" transform="translate(72.216797 0)"/>
     <use xlink:href="#ArialMT-4c" transform="translate(100 0)"/>
     <use xlink:href="#ArialMT-20" transform="translate(151.865234 0)"/>
     <use xlink:href="#ArialMT-53" transform="translate(179.648438 0)"/>
     <use xlink:href="#ArialMT-4e" transform="translate(246.347656 0)"/>
     <use xlink:href="#ArialMT-41" transform="translate(318.564453 0)"/>
     <use xlink:href="#ArialMT-50" transform="translate(385.263672 0)"/>
     <use xlink:href="#ArialMT-2d" transform="translate(451.962891 0)"/>
     <use xlink:href="#ArialMT-44" transform="translate(485.263672 0)"/>
     <use xlink:href="#ArialMT-44" transform="translate(557.480469 0)"/>
    </g>
   </g>
   <g id="legend_1">
    <g id="patch_13">
     <path d="M 231.387562 34.062969 
L 253.387562 34.062969 
L 253.387562 26.362969 
L 231.387562 26.362969 
z
" style="fill: #999999; opacity: 0.8; stroke: #ffffff; stroke-linejoin: miter"/>
    </g>
    <g id="text_14">
     <!-- 0 nM -->
     <g style="fill: #262626" transform="translate(262.187562 34.062969) scale(0.11 -0.11)">
      <defs>
       <path id="ArialMT-6e" d="M 422 0 
L 422 3319 
L 928 3319 
L 928 2847 
Q 1294 3394 1984 3394 
Q 2284 3394 2536 3286 
Q 2788 3178 2913 3003 
Q 3038 2828 3088 2588 
Q 3119 2431 3119 2041 
L 3119 0 
L 2556 0 
L 2556 2019 
Q 2556 2363 2490 2533 
Q 2425 2703 2258 2804 
Q 2091 2906 1866 2906 
Q 1506 2906 1245 2678 
Q 984 2450 984 1813 
L 984 0 
L 422 0 
z
" transform="scale(0.015625)"/>
      </defs>
      <use xlink:href="#ArialMT-30"/>
      <use xlink:href="#ArialMT-20" transform="translate(55.615234 0)"/>
      <use xlink:href="#ArialMT-6e" transform="translate(83.398438 0)"/>
      <use xlink:href="#ArialMT-4d" transform="translate(139.013672 0)"/>
     </g>
    </g>
    <g id="patch_14">
     <path d="M 231.387562 49.622812 
L 253.387562 49.622812 
L 253.387562 41.922812 
L 231.387562 41.922812 
z
" style="fill: #c180a8; opacity: 0.8; stroke: #ffffff; stroke-linejoin: miter"/>
    </g>
    <g id="text_15">
     <!-- 100 nM -->
     <g style="fill: #262626" transform="translate(262.187562 49.622812) scale(0.11 -0.11)">
      <use xlink:href="#ArialMT-31"/>
      <use xlink:href="#ArialMT-30" transform="translate(55.615234 0)"/>
      <use xlink:href="#ArialMT-30" transform="translate(111.230469 0)"/>
      <use xlink:href="#ArialMT-20" transform="translate(166.845703 0)"/>
      <use xlink:href="#ArialMT-6e" transform="translate(194.628906 0)"/>
      <use xlink:href="#ArialMT-4d" transform="translate(250.244141 0)"/>
     </g>
    </g>
   </g>
  </g>
 </g>
 <defs>
  <clipPath id="p076f288c78">
   <rect x="56.887563" y="21.789375" width="162" height="117"/>
  </clipPath>
 </defs>
</svg>
