<?xml version="1.0" encoding="utf-8" standalone="no"?>
<!DOCTYPE svg PUBLIC "-//W3C//DTD SVG 1.1//EN"
  "http://www.w3.org/Graphics/SVG/1.1/DTD/svg11.dtd">
<svg xmlns:xlink="http://www.w3.org/1999/xlink" width="328.570937pt" height="203.923594pt" viewBox="0 0 328.570937 203.923594" xmlns="http://www.w3.org/2000/svg" version="1.1">
 <metadata>
  <rdf:RDF xmlns:dc="http://purl.org/dc/elements/1.1/" xmlns:cc="http://creativecommons.org/ns#" xmlns:rdf="http://www.w3.org/1999/02/22-rdf-syntax-ns#">
   <cc:Work>
    <dc:type rdf:resource="http://purl.org/dc/dcmitype/StillImage"/>
    <dc:date>2025-07-28T17:38:02.123024</dc:date>
    <dc:format>image/svg+xml</dc:format>
    <dc:creator>
     <cc:Agent>
      <dc:title>Matplotlib v3.10.3, https://matplotlib.org/</dc:title>
     </cc:Agent>
    </dc:creator>
   </cc:Work>
  </rdf:RDF>
 </metadata>
 <defs>
  <style type="text/css">*{stroke-linejoin: round; stroke-linecap: butt}</style>
 </defs>
 <g id="figure_1">
  <g id="patch_1">
   <path d="M 0 203.923594 
L 328.570937 203.923594 
L 328.570937 0 
L 0 0 
z
" style="fill: #ffffff"/>
  </g>
  <g id="axes_1">
   <g id="patch_2">
    <path d="M 49.695313 162.189375 
L 238.695312 162.189375 
L 238.695312 21.789375 
L 49.695313 21.789375 
z
" style="fill: #ffffff"/>
   </g>
   <g id="matplotlib.axis_1">
    <g id="xtick_1">
     <g id="line2d_1">
      <defs>
       <path id="m4e8dcd2732" d="M 0 0 
L 0 6 
" style="stroke: #262626; stroke-width: 1.25"/>
      </defs>
      <g>
       <use xlink:href="#m4e8dcd2732" x="96.945312" y="162.189375" style="fill: #262626; stroke: #262626; stroke-width: 1.25"/>
      </g>
     </g>
     <g id="text_1">
      <!-- 0 nM -->
      <g style="fill: #262626" transform="translate(84.718984 179.562969) scale(0.11 -0.11)">
       <defs>
        <path id="ArialMT-30" d="M 266 2259 
Q 266 3072 433 3567 
Q 600 4063 929 4331 
Q 1259 4600 1759 4600 
Q 2128 4600 2406 4451 
Q 2684 4303 2865 4023 
Q 3047 3744 3150 3342 
Q 3253 2941 3253 2259 
Q 3253 1453 3087 958 
Q 2922 463 2592 192 
Q 2263 -78 1759 -78 
Q 1097 -78 719 397 
Q 266 969 266 2259 
z
M 844 2259 
Q 844 1131 1108 757 
Q 1372 384 1759 384 
Q 2147 384 2411 759 
Q 2675 1134 2675 2259 
Q 2675 3391 2411 3762 
Q 2147 4134 1753 4134 
Q 1366 4134 1134 3806 
Q 844 3388 844 2259 
z
" transform="scale(0.015625)"/>
        <path id="ArialMT-20" transform="scale(0.015625)"/>
        <path id="ArialMT-6e" d="M 422 0 
L 422 3319 
L 928 3319 
L 928 2847 
Q 1294 3394 1984 3394 
Q 2284 3394 2536 3286 
Q 2788 3178 2913 3003 
Q 3038 2828 3088 2588 
Q 3119 2431 3119 2041 
L 3119 0 
L 2556 0 
L 2556 2019 
Q 2556 2363 2490 2533 
Q 2425 2703 2258 2804 
Q 2091 2906 1866 2906 
Q 1506 2906 1245 2678 
Q 984 2450 984 1813 
L 984 0 
L 422 0 
z
" transform="scale(0.015625)"/>
        <path id="ArialMT-4d" d="M 475 0 
L 475 4581 
L 1388 4581 
L 2472 1338 
Q 2622 884 2691 659 
Q 2769 909 2934 1394 
L 4031 4581 
L 4847 4581 
L 4847 0 
L 4263 0 
L 4263 3834 
L 2931 0 
L 2384 0 
L 1059 3900 
L 1059 0 
L 475 0 
z
" transform="scale(0.015625)"/>
       </defs>
       <use xlink:href="#ArialMT-30"/>
       <use xlink:href="#ArialMT-20" transform="translate(55.615234 0)"/>
       <use xlink:href="#ArialMT-6e" transform="translate(83.398438 0)"/>
       <use xlink:href="#ArialMT-4d" transform="translate(139.013672 0)"/>
      </g>
     </g>
    </g>
    <g id="xtick_2">
     <g id="line2d_2">
      <g>
       <use xlink:href="#m4e8dcd2732" x="191.445312" y="162.189375" style="fill: #262626; stroke: #262626; stroke-width: 1.25"/>
      </g>
     </g>
     <g id="text_2">
      <!-- 100 nM -->
      <g style="fill: #262626" transform="translate(173.101953 179.562969) scale(0.11 -0.11)">
       <defs>
        <path id="ArialMT-31" d="M 2384 0 
L 1822 0 
L 1822 3584 
Q 1619 3391 1289 3197 
Q 959 3003 697 2906 
L 697 3450 
Q 1169 3672 1522 3987 
Q 1875 4303 2022 4600 
L 2384 4600 
L 2384 0 
z
" transform="scale(0.015625)"/>
       </defs>
       <use xlink:href="#ArialMT-31"/>
       <use xlink:href="#ArialMT-30" transform="translate(55.615234 0)"/>
       <use xlink:href="#ArialMT-30" transform="translate(111.230469 0)"/>
       <use xlink:href="#ArialMT-20" transform="translate(166.845703 0)"/>
       <use xlink:href="#ArialMT-6e" transform="translate(194.628906 0)"/>
       <use xlink:href="#ArialMT-4d" transform="translate(250.244141 0)"/>
      </g>
     </g>
    </g>
    <g id="text_3">
     <!-- PMA -->
     <g style="fill: #262626" transform="translate(131.193125 194.338594) scale(0.12 -0.12)">
      <defs>
       <path id="ArialMT-50" d="M 494 0 
L 494 4581 
L 2222 4581 
Q 2678 4581 2919 4538 
Q 3256 4481 3484 4323 
Q 3713 4166 3852 3881 
Q 3991 3597 3991 3256 
Q 3991 2672 3619 2267 
Q 3247 1863 2275 1863 
L 1100 1863 
L 1100 0 
L 494 0 
z
M 1100 2403 
L 2284 2403 
Q 2872 2403 3119 2622 
Q 3366 2841 3366 3238 
Q 3366 3525 3220 3729 
Q 3075 3934 2838 4000 
Q 2684 4041 2272 4041 
L 1100 4041 
L 1100 2403 
z
" transform="scale(0.015625)"/>
       <path id="ArialMT-41" d="M -9 0 
L 1750 4581 
L 2403 4581 
L 4278 0 
L 3588 0 
L 3053 1388 
L 1138 1388 
L 634 0 
L -9 0 
z
M 1313 1881 
L 2866 1881 
L 2388 3150 
Q 2169 3728 2063 4100 
Q 1975 3659 1816 3225 
L 1313 1881 
z
" transform="scale(0.015625)"/>
      </defs>
      <use xlink:href="#ArialMT-50"/>
      <use xlink:href="#ArialMT-4d" transform="translate(66.699219 0)"/>
      <use xlink:href="#ArialMT-41" transform="translate(150 0)"/>
     </g>
    </g>
   </g>
   <g id="matplotlib.axis_2">
    <g id="ytick_1">
     <g id="line2d_3">
      <defs>
       <path id="md90b1e6cf7" d="M 0 0 
L -6 0 
" style="stroke: #262626; stroke-width: 1.25"/>
      </defs>
      <g>
       <use xlink:href="#md90b1e6cf7" x="49.695313" y="162.189375" style="fill: #262626; stroke: #262626; stroke-width: 1.25"/>
      </g>
     </g>
     <g id="text_4">
      <!-- 0 -->
      <g style="fill: #262626" transform="translate(34.078281 166.126172) scale(0.11 -0.11)">
       <use xlink:href="#ArialMT-30"/>
      </g>
     </g>
    </g>
    <g id="ytick_2">
     <g id="line2d_4">
      <g>
       <use xlink:href="#md90b1e6cf7" x="49.695313" y="138.744713" style="fill: #262626; stroke: #262626; stroke-width: 1.25"/>
      </g>
     </g>
     <g id="text_5">
      <!-- 10k -->
      <g style="fill: #262626" transform="translate(22.46125 142.68151) scale(0.11 -0.11)">
       <defs>
        <path id="ArialMT-6b" d="M 425 0 
L 425 4581 
L 988 4581 
L 988 1969 
L 2319 3319 
L 3047 3319 
L 1778 2088 
L 3175 0 
L 2481 0 
L 1384 1697 
L 988 1316 
L 988 0 
L 425 0 
z
" transform="scale(0.015625)"/>
       </defs>
       <use xlink:href="#ArialMT-31"/>
       <use xlink:href="#ArialMT-30" transform="translate(55.615234 0)"/>
       <use xlink:href="#ArialMT-6b" transform="translate(111.230469 0)"/>
      </g>
     </g>
    </g>
    <g id="ytick_3">
     <g id="line2d_5">
      <g>
       <use xlink:href="#md90b1e6cf7" x="49.695313" y="115.300051" style="fill: #262626; stroke: #262626; stroke-width: 1.25"/>
      </g>
     </g>
     <g id="text_6">
      <!-- 20k -->
      <g style="fill: #262626" transform="translate(22.46125 119.236848) scale(0.11 -0.11)">
       <defs>
        <path id="ArialMT-32" d="M 3222 541 
L 3222 0 
L 194 0 
Q 188 203 259 391 
Q 375 700 629 1000 
Q 884 1300 1366 1694 
Q 2113 2306 2375 2664 
Q 2638 3022 2638 3341 
Q 2638 3675 2398 3904 
Q 2159 4134 1775 4134 
Q 1369 4134 1125 3890 
Q 881 3647 878 3216 
L 300 3275 
Q 359 3922 746 4261 
Q 1134 4600 1788 4600 
Q 2447 4600 2831 4234 
Q 3216 3869 3216 3328 
Q 3216 3053 3103 2787 
Q 2991 2522 2730 2228 
Q 2469 1934 1863 1422 
Q 1356 997 1212 845 
Q 1069 694 975 541 
L 3222 541 
z
" transform="scale(0.015625)"/>
       </defs>
       <use xlink:href="#ArialMT-32"/>
       <use xlink:href="#ArialMT-30" transform="translate(55.615234 0)"/>
       <use xlink:href="#ArialMT-6b" transform="translate(111.230469 0)"/>
      </g>
     </g>
    </g>
    <g id="ytick_4">
     <g id="line2d_6">
      <g>
       <use xlink:href="#md90b1e6cf7" x="49.695313" y="91.855389" style="fill: #262626; stroke: #262626; stroke-width: 1.25"/>
      </g>
     </g>
     <g id="text_7">
      <!-- 30k -->
      <g style="fill: #262626" transform="translate(22.46125 95.792186) scale(0.11 -0.11)">
       <defs>
        <path id="ArialMT-33" d="M 269 1209 
L 831 1284 
Q 928 806 1161 595 
Q 1394 384 1728 384 
Q 2125 384 2398 659 
Q 2672 934 2672 1341 
Q 2672 1728 2419 1979 
Q 2166 2231 1775 2231 
Q 1616 2231 1378 2169 
L 1441 2663 
Q 1497 2656 1531 2656 
Q 1891 2656 2178 2843 
Q 2466 3031 2466 3422 
Q 2466 3731 2256 3934 
Q 2047 4138 1716 4138 
Q 1388 4138 1169 3931 
Q 950 3725 888 3313 
L 325 3413 
Q 428 3978 793 4289 
Q 1159 4600 1703 4600 
Q 2078 4600 2393 4439 
Q 2709 4278 2876 4000 
Q 3044 3722 3044 3409 
Q 3044 3113 2884 2869 
Q 2725 2625 2413 2481 
Q 2819 2388 3044 2092 
Q 3269 1797 3269 1353 
Q 3269 753 2831 336 
Q 2394 -81 1725 -81 
Q 1122 -81 723 278 
Q 325 638 269 1209 
z
" transform="scale(0.015625)"/>
       </defs>
       <use xlink:href="#ArialMT-33"/>
       <use xlink:href="#ArialMT-30" transform="translate(55.615234 0)"/>
       <use xlink:href="#ArialMT-6b" transform="translate(111.230469 0)"/>
      </g>
     </g>
    </g>
    <g id="ytick_5">
     <g id="line2d_7">
      <g>
       <use xlink:href="#md90b1e6cf7" x="49.695313" y="68.410727" style="fill: #262626; stroke: #262626; stroke-width: 1.25"/>
      </g>
     </g>
     <g id="text_8">
      <!-- 40k -->
      <g style="fill: #262626" transform="translate(22.46125 72.347524) scale(0.11 -0.11)">
       <defs>
        <path id="ArialMT-34" d="M 2069 0 
L 2069 1097 
L 81 1097 
L 81 1613 
L 2172 4581 
L 2631 4581 
L 2631 1613 
L 3250 1613 
L 3250 1097 
L 2631 1097 
L 2631 0 
L 2069 0 
z
M 2069 1613 
L 2069 3678 
L 634 1613 
L 2069 1613 
z
" transform="scale(0.015625)"/>
       </defs>
       <use xlink:href="#ArialMT-34"/>
       <use xlink:href="#ArialMT-30" transform="translate(55.615234 0)"/>
       <use xlink:href="#ArialMT-6b" transform="translate(111.230469 0)"/>
      </g>
     </g>
    </g>
    <g id="ytick_6">
     <g id="line2d_8">
      <g>
       <use xlink:href="#md90b1e6cf7" x="49.695313" y="44.966065" style="fill: #262626; stroke: #262626; stroke-width: 1.25"/>
      </g>
     </g>
     <g id="text_9">
      <!-- 50k -->
      <g style="fill: #262626" transform="translate(22.46125 48.902861) scale(0.11 -0.11)">
       <defs>
        <path id="ArialMT-35" d="M 266 1200 
L 856 1250 
Q 922 819 1161 601 
Q 1400 384 1738 384 
Q 2144 384 2425 690 
Q 2706 997 2706 1503 
Q 2706 1984 2436 2262 
Q 2166 2541 1728 2541 
Q 1456 2541 1237 2417 
Q 1019 2294 894 2097 
L 366 2166 
L 809 4519 
L 3088 4519 
L 3088 3981 
L 1259 3981 
L 1013 2750 
Q 1425 3038 1878 3038 
Q 2478 3038 2890 2622 
Q 3303 2206 3303 1553 
Q 3303 931 2941 478 
Q 2500 -78 1738 -78 
Q 1113 -78 717 272 
Q 322 622 266 1200 
z
" transform="scale(0.015625)"/>
       </defs>
       <use xlink:href="#ArialMT-35"/>
       <use xlink:href="#ArialMT-30" transform="translate(55.615234 0)"/>
       <use xlink:href="#ArialMT-6b" transform="translate(111.230469 0)"/>
      </g>
     </g>
    </g>
    <g id="text_10">
     <!-- Single Cells Count -->
     <g style="fill: #262626" transform="translate(15.935625 141.346875) rotate(-90) scale(0.12 -0.12)">
      <defs>
       <path id="ArialMT-53" d="M 288 1472 
L 859 1522 
Q 900 1178 1048 958 
Q 1197 738 1509 602 
Q 1822 466 2213 466 
Q 2559 466 2825 569 
Q 3091 672 3220 851 
Q 3350 1031 3350 1244 
Q 3350 1459 3225 1620 
Q 3100 1781 2813 1891 
Q 2628 1963 1997 2114 
Q 1366 2266 1113 2400 
Q 784 2572 623 2826 
Q 463 3081 463 3397 
Q 463 3744 659 4045 
Q 856 4347 1234 4503 
Q 1613 4659 2075 4659 
Q 2584 4659 2973 4495 
Q 3363 4331 3572 4012 
Q 3781 3694 3797 3291 
L 3216 3247 
Q 3169 3681 2898 3903 
Q 2628 4125 2100 4125 
Q 1550 4125 1298 3923 
Q 1047 3722 1047 3438 
Q 1047 3191 1225 3031 
Q 1400 2872 2139 2705 
Q 2878 2538 3153 2413 
Q 3553 2228 3743 1945 
Q 3934 1663 3934 1294 
Q 3934 928 3725 604 
Q 3516 281 3123 101 
Q 2731 -78 2241 -78 
Q 1619 -78 1198 103 
Q 778 284 539 648 
Q 300 1013 288 1472 
z
" transform="scale(0.015625)"/>
       <path id="ArialMT-69" d="M 425 3934 
L 425 4581 
L 988 4581 
L 988 3934 
L 425 3934 
z
M 425 0 
L 425 3319 
L 988 3319 
L 988 0 
L 425 0 
z
" transform="scale(0.015625)"/>
       <path id="ArialMT-67" d="M 319 -275 
L 866 -356 
Q 900 -609 1056 -725 
Q 1266 -881 1628 -881 
Q 2019 -881 2231 -725 
Q 2444 -569 2519 -288 
Q 2563 -116 2559 434 
Q 2191 0 1641 0 
Q 956 0 581 494 
Q 206 988 206 1678 
Q 206 2153 378 2554 
Q 550 2956 876 3175 
Q 1203 3394 1644 3394 
Q 2231 3394 2613 2919 
L 2613 3319 
L 3131 3319 
L 3131 450 
Q 3131 -325 2973 -648 
Q 2816 -972 2473 -1159 
Q 2131 -1347 1631 -1347 
Q 1038 -1347 672 -1080 
Q 306 -813 319 -275 
z
M 784 1719 
Q 784 1066 1043 766 
Q 1303 466 1694 466 
Q 2081 466 2343 764 
Q 2606 1063 2606 1700 
Q 2606 2309 2336 2618 
Q 2066 2928 1684 2928 
Q 1309 2928 1046 2623 
Q 784 2319 784 1719 
z
" transform="scale(0.015625)"/>
       <path id="ArialMT-6c" d="M 409 0 
L 409 4581 
L 972 4581 
L 972 0 
L 409 0 
z
" transform="scale(0.015625)"/>
       <path id="ArialMT-65" d="M 2694 1069 
L 3275 997 
Q 3138 488 2766 206 
Q 2394 -75 1816 -75 
Q 1088 -75 661 373 
Q 234 822 234 1631 
Q 234 2469 665 2931 
Q 1097 3394 1784 3394 
Q 2450 3394 2872 2941 
Q 3294 2488 3294 1666 
Q 3294 1616 3291 1516 
L 816 1516 
Q 847 969 1125 678 
Q 1403 388 1819 388 
Q 2128 388 2347 550 
Q 2566 713 2694 1069 
z
M 847 1978 
L 2700 1978 
Q 2663 2397 2488 2606 
Q 2219 2931 1791 2931 
Q 1403 2931 1139 2672 
Q 875 2413 847 1978 
z
" transform="scale(0.015625)"/>
       <path id="ArialMT-43" d="M 3763 1606 
L 4369 1453 
Q 4178 706 3683 314 
Q 3188 -78 2472 -78 
Q 1731 -78 1267 223 
Q 803 525 561 1097 
Q 319 1669 319 2325 
Q 319 3041 592 3573 
Q 866 4106 1370 4382 
Q 1875 4659 2481 4659 
Q 3169 4659 3637 4309 
Q 4106 3959 4291 3325 
L 3694 3184 
Q 3534 3684 3231 3912 
Q 2928 4141 2469 4141 
Q 1941 4141 1586 3887 
Q 1231 3634 1087 3207 
Q 944 2781 944 2328 
Q 944 1744 1114 1308 
Q 1284 872 1643 656 
Q 2003 441 2422 441 
Q 2931 441 3284 734 
Q 3638 1028 3763 1606 
z
" transform="scale(0.015625)"/>
       <path id="ArialMT-73" d="M 197 991 
L 753 1078 
Q 800 744 1014 566 
Q 1228 388 1613 388 
Q 2000 388 2187 545 
Q 2375 703 2375 916 
Q 2375 1106 2209 1216 
Q 2094 1291 1634 1406 
Q 1016 1563 777 1677 
Q 538 1791 414 1992 
Q 291 2194 291 2438 
Q 291 2659 392 2848 
Q 494 3038 669 3163 
Q 800 3259 1026 3326 
Q 1253 3394 1513 3394 
Q 1903 3394 2198 3281 
Q 2494 3169 2634 2976 
Q 2775 2784 2828 2463 
L 2278 2388 
Q 2241 2644 2061 2787 
Q 1881 2931 1553 2931 
Q 1166 2931 1000 2803 
Q 834 2675 834 2503 
Q 834 2394 903 2306 
Q 972 2216 1119 2156 
Q 1203 2125 1616 2013 
Q 2213 1853 2448 1751 
Q 2684 1650 2818 1456 
Q 2953 1263 2953 975 
Q 2953 694 2789 445 
Q 2625 197 2315 61 
Q 2006 -75 1616 -75 
Q 969 -75 630 194 
Q 291 463 197 991 
z
" transform="scale(0.015625)"/>
       <path id="ArialMT-6f" d="M 213 1659 
Q 213 2581 725 3025 
Q 1153 3394 1769 3394 
Q 2453 3394 2887 2945 
Q 3322 2497 3322 1706 
Q 3322 1066 3130 698 
Q 2938 331 2570 128 
Q 2203 -75 1769 -75 
Q 1072 -75 642 372 
Q 213 819 213 1659 
z
M 791 1659 
Q 791 1022 1069 705 
Q 1347 388 1769 388 
Q 2188 388 2466 706 
Q 2744 1025 2744 1678 
Q 2744 2294 2464 2611 
Q 2184 2928 1769 2928 
Q 1347 2928 1069 2612 
Q 791 2297 791 1659 
z
" transform="scale(0.015625)"/>
       <path id="ArialMT-75" d="M 2597 0 
L 2597 488 
Q 2209 -75 1544 -75 
Q 1250 -75 995 37 
Q 741 150 617 320 
Q 494 491 444 738 
Q 409 903 409 1263 
L 409 3319 
L 972 3319 
L 972 1478 
Q 972 1038 1006 884 
Q 1059 663 1231 536 
Q 1403 409 1656 409 
Q 1909 409 2131 539 
Q 2353 669 2445 892 
Q 2538 1116 2538 1541 
L 2538 3319 
L 3100 3319 
L 3100 0 
L 2597 0 
z
" transform="scale(0.015625)"/>
       <path id="ArialMT-74" d="M 1650 503 
L 1731 6 
Q 1494 -44 1306 -44 
Q 1000 -44 831 53 
Q 663 150 594 308 
Q 525 466 525 972 
L 525 2881 
L 113 2881 
L 113 3319 
L 525 3319 
L 525 4141 
L 1084 4478 
L 1084 3319 
L 1650 3319 
L 1650 2881 
L 1084 2881 
L 1084 941 
Q 1084 700 1114 631 
Q 1144 563 1211 522 
Q 1278 481 1403 481 
Q 1497 481 1650 503 
z
" transform="scale(0.015625)"/>
      </defs>
      <use xlink:href="#ArialMT-53"/>
      <use xlink:href="#ArialMT-69" transform="translate(66.699219 0)"/>
      <use xlink:href="#ArialMT-6e" transform="translate(88.916016 0)"/>
      <use xlink:href="#ArialMT-67" transform="translate(144.53125 0)"/>
      <use xlink:href="#ArialMT-6c" transform="translate(200.146484 0)"/>
      <use xlink:href="#ArialMT-65" transform="translate(222.363281 0)"/>
      <use xlink:href="#ArialMT-20" transform="translate(277.978516 0)"/>
      <use xlink:href="#ArialMT-43" transform="translate(305.761719 0)"/>
      <use xlink:href="#ArialMT-65" transform="translate(377.978516 0)"/>
      <use xlink:href="#ArialMT-6c" transform="translate(433.59375 0)"/>
      <use xlink:href="#ArialMT-6c" transform="translate(455.810547 0)"/>
      <use xlink:href="#ArialMT-73" transform="translate(478.027344 0)"/>
      <use xlink:href="#ArialMT-20" transform="translate(528.027344 0)"/>
      <use xlink:href="#ArialMT-43" transform="translate(555.810547 0)"/>
      <use xlink:href="#ArialMT-6f" transform="translate(628.027344 0)"/>
      <use xlink:href="#ArialMT-75" transform="translate(683.642578 0)"/>
      <use xlink:href="#ArialMT-6e" transform="translate(739.257812 0)"/>
      <use xlink:href="#ArialMT-74" transform="translate(794.873047 0)"/>
     </g>
    </g>
   </g>
   <g id="patch_3">
    <path d="M 59.145313 162.189375 
L 84.345313 162.189375 
L 84.345313 83.295938 
L 59.145313 83.295938 
z
" clip-path="url(#pacb9302209)" style="fill: #455681; opacity: 0.8; stroke: #ffffff; stroke-linejoin: miter"/>
   </g>
   <g id="patch_4">
    <path d="M 153.645312 162.189375 
L 178.845312 162.189375 
L 178.845312 49.570987 
L 153.645312 49.570987 
z
" clip-path="url(#pacb9302209)" style="fill: #455681; opacity: 0.8; stroke: #ffffff; stroke-linejoin: miter"/>
   </g>
   <g id="patch_5">
    <path d="M 84.345313 162.189375 
L 109.545312 162.189375 
L 109.545312 106.902564 
L 84.345313 106.902564 
z
" clip-path="url(#pacb9302209)" style="fill: #2f837f; opacity: 0.8; stroke: #ffffff; stroke-linejoin: miter"/>
   </g>
   <g id="patch_6">
    <path d="M 178.845312 162.189375 
L 204.045312 162.189375 
L 204.045312 96.828002 
L 178.845312 96.828002 
z
" clip-path="url(#pacb9302209)" style="fill: #2f837f; opacity: 0.8; stroke: #ffffff; stroke-linejoin: miter"/>
   </g>
   <g id="patch_7">
    <path d="M 109.545312 162.189375 
L 134.745313 162.189375 
L 134.745313 119.888171 
L 109.545312 119.888171 
z
" clip-path="url(#pacb9302209)" style="fill: #6cbc6e; opacity: 0.8; stroke: #ffffff; stroke-linejoin: miter"/>
   </g>
   <g id="patch_8">
    <path d="M 204.045312 162.189375 
L 229.245312 162.189375 
L 229.245312 129.414714 
L 204.045312 129.414714 
z
" clip-path="url(#pacb9302209)" style="fill: #6cbc6e; opacity: 0.8; stroke: #ffffff; stroke-linejoin: miter"/>
   </g>
   <g id="line2d_9">
    <path d="M 71.745312 88.623493 
L 71.745312 77.764995 
" clip-path="url(#pacb9302209)" style="fill: none; stroke: #424242; stroke-width: 2.7; stroke-linecap: round"/>
   </g>
   <g id="line2d_10">
    <path d="M 166.245312 55.632863 
L 166.245312 42.888985 
" clip-path="url(#pacb9302209)" style="fill: none; stroke: #424242; stroke-width: 2.7; stroke-linecap: round"/>
   </g>
   <g id="line2d_11">
    <path d="M 96.945312 110.111449 
L 96.945312 103.891439 
" clip-path="url(#pacb9302209)" style="fill: none; stroke: #424242; stroke-width: 2.7; stroke-linecap: round"/>
   </g>
   <g id="line2d_12">
    <path d="M 191.445312 102.692562 
L 191.445312 91.426527 
" clip-path="url(#pacb9302209)" style="fill: none; stroke: #424242; stroke-width: 2.7; stroke-linecap: round"/>
   </g>
   <g id="line2d_13">
    <path d="M 122.145313 123.067028 
L 122.145313 116.399034 
" clip-path="url(#pacb9302209)" style="fill: none; stroke: #424242; stroke-width: 2.7; stroke-linecap: round"/>
   </g>
   <g id="line2d_14">
    <path d="M 216.645312 136.210379 
L 216.645312 122.937042 
" clip-path="url(#pacb9302209)" style="fill: none; stroke: #424242; stroke-width: 2.7; stroke-linecap: round"/>
   </g>
   <g id="patch_9">
    <path d="M 49.695313 162.189375 
L 49.695313 21.789375 
" style="fill: none; stroke: #262626; stroke-width: 1.25; stroke-linejoin: miter; stroke-linecap: square"/>
   </g>
   <g id="patch_10">
    <path d="M 238.695312 162.189375 
L 238.695312 21.789375 
" style="fill: none; stroke: #262626; stroke-width: 1.25; stroke-linejoin: miter; stroke-linecap: square"/>
   </g>
   <g id="patch_11">
    <path d="M 49.695313 162.189375 
L 238.695312 162.189375 
" style="fill: none; stroke: #262626; stroke-width: 1.25; stroke-linejoin: miter; stroke-linecap: square"/>
   </g>
   <g id="patch_12">
    <path d="M 49.695313 21.789375 
L 238.695312 21.789375 
" style="fill: none; stroke: #262626; stroke-width: 1.25; stroke-linejoin: miter; stroke-linecap: square"/>
   </g>
   <g id="PathCollection_1">
    <defs>
     <path id="C0_0_5c4ff631ec" d="M 0 2.5 
C 0.663008 2.5 1.29895 2.236584 1.767767 1.767767 
C 2.236584 1.29895 2.5 0.663008 2.5 -0 
C 2.5 -0.663008 2.236584 -1.29895 1.767767 -1.767767 
C 1.29895 -2.236584 0.663008 -2.5 0 -2.5 
C -0.663008 -2.5 -1.29895 -2.236584 -1.767767 -1.767767 
C -2.236584 -1.29895 -2.5 -0.663008 -2.5 0 
C -2.5 0.663008 -2.236584 1.29895 -1.767767 1.767767 
C -1.29895 2.236584 -0.663008 2.5 0 2.5 
z
"/>
    </defs>
    <g clip-path="url(#pacb9302209)">
     <use xlink:href="#C0_0_5c4ff631ec" x="73.682986" y="80.639462" style="fill: #ffffff; stroke: #000000; stroke-width: 0.4"/>
    </g>
    <g clip-path="url(#pacb9302209)">
     <use xlink:href="#C0_0_5c4ff631ec" x="71.246806" y="82.620536" style="fill: #ffffff; stroke: #000000; stroke-width: 0.4"/>
    </g>
    <g clip-path="url(#pacb9302209)">
     <use xlink:href="#C0_0_5c4ff631ec" x="71.072052" y="81.921885" style="fill: #ffffff; stroke: #000000; stroke-width: 0.4"/>
    </g>
   </g>
   <g id="PathCollection_2">
    <defs>
     <path id="C1_0_78bdc2ce74" d="M 0 2.5 
C 0.663008 2.5 1.29895 2.236584 1.767767 1.767767 
C 2.236584 1.29895 2.5 0.663008 2.5 -0 
C 2.5 -0.663008 2.236584 -1.29895 1.767767 -1.767767 
C 1.29895 -2.236584 0.663008 -2.5 0 -2.5 
C -0.663008 -2.5 -1.29895 -2.236584 -1.767767 -1.767767 
C -2.236584 -1.29895 -2.5 -0.663008 -2.5 0 
C -2.5 0.663008 -2.236584 1.29895 -1.767767 1.767767 
C -1.29895 2.236584 -0.663008 2.5 0 2.5 
z
"/>
    </defs>
    <g clip-path="url(#pacb9302209)">
     <use xlink:href="#C1_0_78bdc2ce74" x="95.243624" y="105.108656" style="fill: #ffffff; stroke: #000000; stroke-width: 0.4"/>
    </g>
    <g clip-path="url(#pacb9302209)">
     <use xlink:href="#C1_0_78bdc2ce74" x="99.849837" y="104.480339" style="fill: #ffffff; stroke: #000000; stroke-width: 0.4"/>
    </g>
    <g clip-path="url(#pacb9302209)">
     <use xlink:href="#C1_0_78bdc2ce74" x="98.201592" y="107.272599" style="fill: #ffffff; stroke: #000000; stroke-width: 0.4"/>
    </g>
   </g>
   <g id="PathCollection_3">
    <defs>
     <path id="C2_0_cbd0ec7866" d="M 0 2.5 
C 0.663008 2.5 1.29895 2.236584 1.767767 1.767767 
C 2.236584 1.29895 2.5 0.663008 2.5 -0 
C 2.5 -0.663008 2.236584 -1.29895 1.767767 -1.767767 
C 1.29895 -2.236584 0.663008 -2.5 0 -2.5 
C -0.663008 -2.5 -1.29895 -2.236584 -1.767767 -1.767767 
C -2.236584 -1.29895 -2.5 -0.663008 -2.5 0 
C -2.5 0.663008 -2.236584 1.29895 -1.767767 1.767767 
C -1.29895 2.236584 -0.663008 2.5 0 2.5 
z
"/>
    </defs>
    <g clip-path="url(#pacb9302209)">
     <use xlink:href="#C2_0_cbd0ec7866" x="124.528617" y="120.753279" style="fill: #ffffff; stroke: #000000; stroke-width: 0.4"/>
    </g>
    <g clip-path="url(#pacb9302209)">
     <use xlink:href="#C2_0_cbd0ec7866" x="123.811531" y="126.673056" style="fill: #ffffff; stroke: #000000; stroke-width: 0.4"/>
    </g>
    <g clip-path="url(#pacb9302209)">
     <use xlink:href="#C2_0_cbd0ec7866" x="119.146663" y="121.447241" style="fill: #ffffff; stroke: #000000; stroke-width: 0.4"/>
    </g>
   </g>
   <g id="PathCollection_4">
    <defs>
     <path id="C3_0_9e90b365e4" d="M 0 2.5 
C 0.663008 2.5 1.29895 2.236584 1.767767 1.767767 
C 2.236584 1.29895 2.5 0.663008 2.5 -0 
C 2.5 -0.663008 2.236584 -1.29895 1.767767 -1.767767 
C 1.29895 -2.236584 0.663008 -2.5 0 -2.5 
C -0.663008 -2.5 -1.29895 -2.236584 -1.767767 -1.767767 
C -2.236584 -1.29895 -2.5 -0.663008 -2.5 0 
C -2.5 0.663008 -2.236584 1.29895 -1.767767 1.767767 
C -1.29895 2.236584 -0.663008 2.5 0 2.5 
z
"/>
    </defs>
    <g clip-path="url(#pacb9302209)">
     <use xlink:href="#C3_0_9e90b365e4" x="167.748651" y="44.28148" style="fill: #ffffff; stroke: #000000; stroke-width: 0.4"/>
    </g>
    <g clip-path="url(#pacb9302209)">
     <use xlink:href="#C3_0_9e90b365e4" x="168.477701" y="45.355246" style="fill: #ffffff; stroke: #000000; stroke-width: 0.4"/>
    </g>
    <g clip-path="url(#pacb9302209)">
     <use xlink:href="#C3_0_9e90b365e4" x="167.159573" y="36.640865" style="fill: #ffffff; stroke: #000000; stroke-width: 0.4"/>
    </g>
   </g>
   <g id="PathCollection_5">
    <defs>
     <path id="C4_0_e7f6a0aed5" d="M 0 2.5 
C 0.663008 2.5 1.29895 2.236584 1.767767 1.767767 
C 2.236584 1.29895 2.5 0.663008 2.5 -0 
C 2.5 -0.663008 2.236584 -1.29895 1.767767 -1.767767 
C 1.29895 -2.236584 0.663008 -2.5 0 -2.5 
C -0.663008 -2.5 -1.29895 -2.236584 -1.767767 -1.767767 
C -2.236584 -1.29895 -2.5 -0.663008 -2.5 0 
C -2.5 0.663008 -2.236584 1.29895 -1.767767 1.767767 
C -1.29895 2.236584 -0.663008 2.5 0 2.5 
z
"/>
    </defs>
    <g clip-path="url(#pacb9302209)">
     <use xlink:href="#C4_0_e7f6a0aed5" x="194.225159" y="90.425264" style="fill: #ffffff; stroke: #000000; stroke-width: 0.4"/>
    </g>
    <g clip-path="url(#pacb9302209)">
     <use xlink:href="#C4_0_e7f6a0aed5" x="191.779518" y="88.55438" style="fill: #ffffff; stroke: #000000; stroke-width: 0.4"/>
    </g>
    <g clip-path="url(#pacb9302209)">
     <use xlink:href="#C4_0_e7f6a0aed5" x="190.710175" y="88.913084" style="fill: #ffffff; stroke: #000000; stroke-width: 0.4"/>
    </g>
   </g>
   <g id="PathCollection_6">
    <defs>
     <path id="C5_0_a5fa97160d" d="M 0 2.5 
C 0.663008 2.5 1.29895 2.236584 1.767767 1.767767 
C 2.236584 1.29895 2.5 0.663008 2.5 -0 
C 2.5 -0.663008 2.236584 -1.29895 1.767767 -1.767767 
C 1.29895 -2.236584 0.663008 -2.5 0 -2.5 
C -0.663008 -2.5 -1.29895 -2.236584 -1.767767 -1.767767 
C -2.236584 -1.29895 -2.5 -0.663008 -2.5 0 
C -2.5 0.663008 -2.236584 1.29895 -1.767767 1.767767 
C -1.29895 2.236584 -0.663008 2.5 0 2.5 
z
"/>
    </defs>
    <g clip-path="url(#pacb9302209)">
     <use xlink:href="#C5_0_a5fa97160d" x="218.245437" y="123.988643" style="fill: #ffffff; stroke: #000000; stroke-width: 0.4"/>
    </g>
    <g clip-path="url(#pacb9302209)">
     <use xlink:href="#C5_0_a5fa97160d" x="216.720798" y="117.58825" style="fill: #ffffff; stroke: #000000; stroke-width: 0.4"/>
    </g>
    <g clip-path="url(#pacb9302209)">
     <use xlink:href="#C5_0_a5fa97160d" x="218.241576" y="124.192611" style="fill: #ffffff; stroke: #000000; stroke-width: 0.4"/>
    </g>
   </g>
   <g id="PathCollection_7">
    <path d="M 71.393257 65.678625 
L 68.893257 70.678625 
L 73.893257 70.678625 
z
" clip-path="url(#pacb9302209)" style="fill: #ffffff; stroke: #000000; stroke-width: 0.4"/>
    <path d="M 70.196585 66.726601 
L 67.696585 71.726601 
L 72.696585 71.726601 
z
" clip-path="url(#pacb9302209)" style="fill: #ffffff; stroke: #000000; stroke-width: 0.4"/>
    <path d="M 73.440807 63.374014 
L 70.940807 68.374014 
L 75.940807 68.374014 
z
" clip-path="url(#pacb9302209)" style="fill: #ffffff; stroke: #000000; stroke-width: 0.4"/>
   </g>
   <g id="PathCollection_8">
    <path d="M 95.967659 104.411551 
L 93.467659 109.411551 
L 98.467659 109.411551 
z
" clip-path="url(#pacb9302209)" style="fill: #ffffff; stroke: #000000; stroke-width: 0.4"/>
    <path d="M 96.093587 98.665264 
L 93.593587 103.665264 
L 98.593587 103.665264 
z
" clip-path="url(#pacb9302209)" style="fill: #ffffff; stroke: #000000; stroke-width: 0.4"/>
    <path d="M 94.789124 95.725303 
L 92.289124 100.725303 
L 97.289124 100.725303 
z
" clip-path="url(#pacb9302209)" style="fill: #ffffff; stroke: #000000; stroke-width: 0.4"/>
   </g>
   <g id="PathCollection_9">
    <path d="M 120.314718 108.594078 
L 117.814718 113.594078 
L 122.814718 113.594078 
z
" clip-path="url(#pacb9302209)" style="fill: #ffffff; stroke: #000000; stroke-width: 0.4"/>
    <path d="M 121.520011 108.746469 
L 119.020011 113.746469 
L 124.020011 113.746469 
z
" clip-path="url(#pacb9302209)" style="fill: #ffffff; stroke: #000000; stroke-width: 0.4"/>
    <path d="M 120.30505 105.614262 
L 117.80505 110.614262 
L 122.80505 110.614262 
z
" clip-path="url(#pacb9302209)" style="fill: #ffffff; stroke: #000000; stroke-width: 0.4"/>
   </g>
   <g id="PathCollection_10">
    <path d="M 169.25167 39.279935 
L 166.75167 44.279935 
L 171.75167 44.279935 
z
" clip-path="url(#pacb9302209)" style="fill: #ffffff; stroke: #000000; stroke-width: 0.4"/>
    <path d="M 169.327136 35.449077 
L 166.827136 40.449077 
L 171.827136 40.449077 
z
" clip-path="url(#pacb9302209)" style="fill: #ffffff; stroke: #000000; stroke-width: 0.4"/>
    <path d="M 165.687219 25.975089 
L 163.187219 30.975089 
L 168.187219 30.975089 
z
" clip-path="url(#pacb9302209)" style="fill: #ffffff; stroke: #000000; stroke-width: 0.4"/>
   </g>
   <g id="PathCollection_11">
    <path d="M 192.069614 88.673149 
L 189.569614 93.673149 
L 194.569614 93.673149 
z
" clip-path="url(#pacb9302209)" style="fill: #ffffff; stroke: #000000; stroke-width: 0.4"/>
    <path d="M 189.40721 86.213804 
L 186.90721 91.213804 
L 191.90721 91.213804 
z
" clip-path="url(#pacb9302209)" style="fill: #ffffff; stroke: #000000; stroke-width: 0.4"/>
    <path d="M 192.541664 88.567648 
L 190.041664 93.567648 
L 195.041664 93.567648 
z
" clip-path="url(#pacb9302209)" style="fill: #ffffff; stroke: #000000; stroke-width: 0.4"/>
   </g>
   <g id="PathCollection_12">
    <path d="M 218.948487 108.955126 
L 216.448487 113.955126 
L 221.448487 113.955126 
z
" clip-path="url(#pacb9302209)" style="fill: #ffffff; stroke: #000000; stroke-width: 0.4"/>
    <path d="M 214.965753 112.478859 
L 212.465753 117.478859 
L 217.465753 117.478859 
z
" clip-path="url(#pacb9302209)" style="fill: #ffffff; stroke: #000000; stroke-width: 0.4"/>
    <path d="M 219.08446 115.35083 
L 216.58446 120.35083 
L 221.58446 120.35083 
z
" clip-path="url(#pacb9302209)" style="fill: #ffffff; stroke: #000000; stroke-width: 0.4"/>
   </g>
   <g id="PathCollection_13">
    <path d="M 69.006365 97.452429 
L 74.006365 97.452429 
L 74.006365 92.452429 
L 69.006365 92.452429 
z
" clip-path="url(#pacb9302209)" style="fill: #ffffff; stroke: #000000; stroke-width: 0.4"/>
    <path d="M 67.881984 96.540431 
L 72.881984 96.540431 
L 72.881984 91.540431 
L 67.881984 91.540431 
z
" clip-path="url(#pacb9302209)" style="fill: #ffffff; stroke: #000000; stroke-width: 0.4"/>
    <path d="M 66.306254 95.79958 
L 71.306254 95.79958 
L 71.306254 90.79958 
L 66.306254 90.79958 
z
" clip-path="url(#pacb9302209)" style="fill: #ffffff; stroke: #000000; stroke-width: 0.4"/>
   </g>
   <g id="PathCollection_14">
    <path d="M 97.377301 115.146115 
L 102.377301 115.146115 
L 102.377301 110.146115 
L 97.377301 110.146115 
z
" clip-path="url(#pacb9302209)" style="fill: #ffffff; stroke: #000000; stroke-width: 0.4"/>
    <path d="M 97.433762 115.286783 
L 102.433762 115.286783 
L 102.433762 110.286783 
L 97.433762 110.286783 
z
" clip-path="url(#pacb9302209)" style="fill: #ffffff; stroke: #000000; stroke-width: 0.4"/>
    <path d="M 93.208665 116.102657 
L 98.208665 116.102657 
L 98.208665 111.102657 
L 93.208665 111.102657 
z
" clip-path="url(#pacb9302209)" style="fill: #ffffff; stroke: #000000; stroke-width: 0.4"/>
   </g>
   <g id="PathCollection_15">
    <path d="M 122.718333 129.864674 
L 127.718333 129.864674 
L 127.718333 124.864674 
L 122.718333 124.864674 
z
" clip-path="url(#pacb9302209)" style="fill: #ffffff; stroke: #000000; stroke-width: 0.4"/>
    <path d="M 116.921372 126.029127 
L 121.921372 126.029127 
L 121.921372 121.029127 
L 116.921372 121.029127 
z
" clip-path="url(#pacb9302209)" style="fill: #ffffff; stroke: #000000; stroke-width: 0.4"/>
    <path d="M 121.328632 126.118217 
L 126.328632 126.118217 
L 126.328632 121.118217 
L 121.328632 121.118217 
z
" clip-path="url(#pacb9302209)" style="fill: #ffffff; stroke: #000000; stroke-width: 0.4"/>
   </g>
   <g id="PathCollection_16">
    <path d="M 161.28463 58.693713 
L 166.28463 58.693713 
L 166.28463 53.693713 
L 161.28463 53.693713 
z
" clip-path="url(#pacb9302209)" style="fill: #ffffff; stroke: #000000; stroke-width: 0.4"/>
    <path d="M 160.675359 65.284008 
L 165.675359 65.284008 
L 165.675359 60.284008 
L 160.675359 60.284008 
z
" clip-path="url(#pacb9302209)" style="fill: #ffffff; stroke: #000000; stroke-width: 0.4"/>
    <path d="M 166.443562 57.723104 
L 171.443562 57.723104 
L 171.443562 52.723104 
L 166.443562 52.723104 
z
" clip-path="url(#pacb9302209)" style="fill: #ffffff; stroke: #000000; stroke-width: 0.4"/>
   </g>
   <g id="PathCollection_17">
    <path d="M 191.875488 115.896344 
L 196.875488 115.896344 
L 196.875488 110.896344 
L 191.875488 110.896344 
z
" clip-path="url(#pacb9302209)" style="fill: #ffffff; stroke: #000000; stroke-width: 0.4"/>
    <path d="M 187.142826 105.250123 
L 192.142826 105.250123 
L 192.142826 100.250123 
L 187.142826 100.250123 
z
" clip-path="url(#pacb9302209)" style="fill: #ffffff; stroke: #000000; stroke-width: 0.4"/>
    <path d="M 188.860074 88.740392 
L 193.860074 88.740392 
L 193.860074 83.740392 
L 188.860074 83.740392 
z
" clip-path="url(#pacb9302209)" style="fill: #ffffff; stroke: #000000; stroke-width: 0.4"/>
   </g>
   <g id="PathCollection_18">
    <path d="M 211.533561 147.042578 
L 216.533561 147.042578 
L 216.533561 142.042578 
L 211.533561 142.042578 
z
" clip-path="url(#pacb9302209)" style="fill: #ffffff; stroke: #000000; stroke-width: 0.4"/>
    <path d="M 211.01093 145.01227 
L 216.01093 145.01227 
L 216.01093 140.01227 
L 211.01093 140.01227 
z
" clip-path="url(#pacb9302209)" style="fill: #ffffff; stroke: #000000; stroke-width: 0.4"/>
    <path d="M 216.357764 143.483678 
L 221.357764 143.483678 
L 221.357764 138.483678 
L 216.357764 138.483678 
z
" clip-path="url(#pacb9302209)" style="fill: #ffffff; stroke: #000000; stroke-width: 0.4"/>
   </g>
   <g id="PathCollection_19">
    <path d="M 72.770432 90.645723 
L 76.305966 87.110189 
L 72.770432 83.574655 
L 69.234898 87.110189 
z
" clip-path="url(#pacb9302209)" style="fill: #ffffff; stroke: #000000; stroke-width: 0.4"/>
    <path d="M 73.006401 92.708853 
L 76.541935 89.173319 
L 73.006401 85.637786 
L 69.470867 89.173319 
z
" clip-path="url(#pacb9302209)" style="fill: #ffffff; stroke: #000000; stroke-width: 0.4"/>
    <path d="M 69.611163 96.049718 
L 73.146697 92.514184 
L 69.611163 88.97865 
L 66.075629 92.514184 
z
" clip-path="url(#pacb9302209)" style="fill: #ffffff; stroke: #000000; stroke-width: 0.4"/>
   </g>
   <g id="PathCollection_20">
    <path d="M 96.632691 116.073804 
L 100.168225 112.53827 
L 96.632691 109.002736 
L 93.097158 112.53827 
z
" clip-path="url(#pacb9302209)" style="fill: #ffffff; stroke: #000000; stroke-width: 0.4"/>
    <path d="M 95.368818 114.062252 
L 98.904352 110.526718 
L 95.368818 106.991184 
L 91.833284 110.526718 
z
" clip-path="url(#pacb9302209)" style="fill: #ffffff; stroke: #000000; stroke-width: 0.4"/>
    <path d="M 98.13913 101.102042 
L 101.674664 97.566508 
L 98.13913 94.030975 
L 94.603596 97.566508 
z
" clip-path="url(#pacb9302209)" style="fill: #ffffff; stroke: #000000; stroke-width: 0.4"/>
   </g>
   <g id="PathCollection_21">
    <path d="M 120.36804 122.117837 
L 123.903574 118.582304 
L 120.36804 115.04677 
L 116.832506 118.582304 
z
" clip-path="url(#pacb9302209)" style="fill: #ffffff; stroke: #000000; stroke-width: 0.4"/>
    <path d="M 123.929384 126.82787 
L 127.464918 123.292336 
L 123.929384 119.756802 
L 120.393851 123.292336 
z
" clip-path="url(#pacb9302209)" style="fill: #ffffff; stroke: #000000; stroke-width: 0.4"/>
    <path d="M 119.196548 126.478545 
L 122.732082 122.943011 
L 119.196548 119.407477 
L 115.661014 122.943011 
z
" clip-path="url(#pacb9302209)" style="fill: #ffffff; stroke: #000000; stroke-width: 0.4"/>
   </g>
   <g id="PathCollection_22">
    <path d="M 164.534251 65.112142 
L 168.069785 61.576608 
L 164.534251 58.041074 
L 160.998717 61.576608 
z
" clip-path="url(#pacb9302209)" style="fill: #ffffff; stroke: #000000; stroke-width: 0.4"/>
    <path d="M 166.618398 64.007898 
L 170.153932 60.472364 
L 166.618398 56.93683 
L 163.082864 60.472364 
z
" clip-path="url(#pacb9302209)" style="fill: #ffffff; stroke: #000000; stroke-width: 0.4"/>
    <path d="M 164.435625 67.655887 
L 167.971159 64.120354 
L 164.435625 60.58482 
L 160.900092 64.120354 
z
" clip-path="url(#pacb9302209)" style="fill: #ffffff; stroke: #000000; stroke-width: 0.4"/>
   </g>
   <g id="PathCollection_23">
    <path d="M 188.653892 118.458126 
L 192.189426 114.922592 
L 188.653892 111.387058 
L 185.118358 114.922592 
z
" clip-path="url(#pacb9302209)" style="fill: #ffffff; stroke: #000000; stroke-width: 0.4"/>
    <path d="M 193.951176 104.44994 
L 197.48671 100.914406 
L 193.951176 97.378872 
L 190.415643 100.914406 
z
" clip-path="url(#pacb9302209)" style="fill: #ffffff; stroke: #000000; stroke-width: 0.4"/>
    <path d="M 188.830293 108.400366 
L 192.365827 104.864832 
L 188.830293 101.329298 
L 185.294759 104.864832 
z
" clip-path="url(#pacb9302209)" style="fill: #ffffff; stroke: #000000; stroke-width: 0.4"/>
   </g>
   <g id="PathCollection_24">
    <path d="M 216.208282 138.414222 
L 219.743816 134.878688 
L 216.208282 131.343154 
L 212.672748 134.878688 
z
" clip-path="url(#pacb9302209)" style="fill: #ffffff; stroke: #000000; stroke-width: 0.4"/>
    <path d="M 214.291678 145.923547 
L 217.827212 142.388013 
L 214.291678 138.85248 
L 210.756144 142.388013 
z
" clip-path="url(#pacb9302209)" style="fill: #ffffff; stroke: #000000; stroke-width: 0.4"/>
    <path d="M 218.318932 141.152559 
L 221.854466 137.617025 
L 218.318932 134.081491 
L 214.783398 137.617025 
z
" clip-path="url(#pacb9302209)" style="fill: #ffffff; stroke: #000000; stroke-width: 0.4"/>
   </g>
   <g id="text_11">
    <!-- NIL SNAP-DD -->
    <g style="fill: #262626" transform="translate(106.413125 15.789375) scale(0.12 -0.12)">
     <defs>
      <path id="ArialMT-4e" d="M 488 0 
L 488 4581 
L 1109 4581 
L 3516 984 
L 3516 4581 
L 4097 4581 
L 4097 0 
L 3475 0 
L 1069 3600 
L 1069 0 
L 488 0 
z
" transform="scale(0.015625)"/>
      <path id="ArialMT-49" d="M 597 0 
L 597 4581 
L 1203 4581 
L 1203 0 
L 597 0 
z
" transform="scale(0.015625)"/>
      <path id="ArialMT-4c" d="M 469 0 
L 469 4581 
L 1075 4581 
L 1075 541 
L 3331 541 
L 3331 0 
L 469 0 
z
" transform="scale(0.015625)"/>
      <path id="ArialMT-2d" d="M 203 1375 
L 203 1941 
L 1931 1941 
L 1931 1375 
L 203 1375 
z
" transform="scale(0.015625)"/>
      <path id="ArialMT-44" d="M 494 0 
L 494 4581 
L 2072 4581 
Q 2606 4581 2888 4516 
Q 3281 4425 3559 4188 
Q 3922 3881 4101 3404 
Q 4281 2928 4281 2316 
Q 4281 1794 4159 1391 
Q 4038 988 3847 723 
Q 3656 459 3429 307 
Q 3203 156 2883 78 
Q 2563 0 2147 0 
L 494 0 
z
M 1100 541 
L 2078 541 
Q 2531 541 2789 625 
Q 3047 709 3200 863 
Q 3416 1078 3536 1442 
Q 3656 1806 3656 2325 
Q 3656 3044 3420 3430 
Q 3184 3816 2847 3947 
Q 2603 4041 2063 4041 
L 1100 4041 
L 1100 541 
z
" transform="scale(0.015625)"/>
     </defs>
     <use xlink:href="#ArialMT-4e"/>
     <use xlink:href="#ArialMT-49" transform="translate(72.216797 0)"/>
     <use xlink:href="#ArialMT-4c" transform="translate(100 0)"/>
     <use xlink:href="#ArialMT-20" transform="translate(151.865234 0)"/>
     <use xlink:href="#ArialMT-53" transform="translate(179.648438 0)"/>
     <use xlink:href="#ArialMT-4e" transform="translate(246.347656 0)"/>
     <use xlink:href="#ArialMT-41" transform="translate(318.564453 0)"/>
     <use xlink:href="#ArialMT-50" transform="translate(385.263672 0)"/>
     <use xlink:href="#ArialMT-2d" transform="translate(451.962891 0)"/>
     <use xlink:href="#ArialMT-44" transform="translate(485.263672 0)"/>
     <use xlink:href="#ArialMT-44" transform="translate(557.480469 0)"/>
    </g>
   </g>
   <g id="legend_1">
    <g id="patch_13">
     <path d="M 252.545312 34.062969 
L 274.545313 34.062969 
L 274.545313 26.362969 
L 252.545312 26.362969 
z
" style="fill: #455681; opacity: 0.8; stroke: #ffffff; stroke-linejoin: miter"/>
    </g>
    <g id="text_12">
     <!-- 0 uM -->
     <g style="fill: #262626" transform="translate(283.345312 34.062969) scale(0.11 -0.11)">
      <use xlink:href="#ArialMT-30"/>
      <use xlink:href="#ArialMT-20" transform="translate(55.615234 0)"/>
      <use xlink:href="#ArialMT-75" transform="translate(83.398438 0)"/>
      <use xlink:href="#ArialMT-4d" transform="translate(139.013672 0)"/>
     </g>
    </g>
    <g id="patch_14">
     <path d="M 252.545312 49.622812 
L 274.545313 49.622812 
L 274.545313 41.922812 
L 252.545312 41.922812 
z
" style="fill: #2f837f; opacity: 0.8; stroke: #ffffff; stroke-linejoin: miter"/>
    </g>
    <g id="text_13">
     <!-- 0.1 uM -->
     <g style="fill: #262626" transform="translate(283.345312 49.622812) scale(0.11 -0.11)">
      <defs>
       <path id="ArialMT-2e" d="M 581 0 
L 581 641 
L 1222 641 
L 1222 0 
L 581 0 
z
" transform="scale(0.015625)"/>
      </defs>
      <use xlink:href="#ArialMT-30"/>
      <use xlink:href="#ArialMT-2e" transform="translate(55.615234 0)"/>
      <use xlink:href="#ArialMT-31" transform="translate(83.398438 0)"/>
      <use xlink:href="#ArialMT-20" transform="translate(139.013672 0)"/>
      <use xlink:href="#ArialMT-75" transform="translate(166.796875 0)"/>
      <use xlink:href="#ArialMT-4d" transform="translate(222.412109 0)"/>
     </g>
    </g>
    <g id="patch_15">
     <path d="M 252.545312 65.182656 
L 274.545313 65.182656 
L 274.545313 57.482656 
L 252.545312 57.482656 
z
" style="fill: #6cbc6e; opacity: 0.8; stroke: #ffffff; stroke-linejoin: miter"/>
    </g>
    <g id="text_14">
     <!-- 1 uM -->
     <g style="fill: #262626" transform="translate(283.345312 65.182656) scale(0.11 -0.11)">
      <use xlink:href="#ArialMT-31"/>
      <use xlink:href="#ArialMT-20" transform="translate(55.615234 0)"/>
      <use xlink:href="#ArialMT-75" transform="translate(83.398438 0)"/>
      <use xlink:href="#ArialMT-4d" transform="translate(139.013672 0)"/>
     </g>
    </g>
   </g>
  </g>
 </g>
 <defs>
  <clipPath id="pacb9302209">
   <rect x="49.695313" y="21.789375" width="189" height="140.4"/>
  </clipPath>
 </defs>
</svg>
