<?xml version="1.0" encoding="utf-8" standalone="no"?>
<!DOCTYPE svg PUBLIC "-//W3C//DTD SVG 1.1//EN"
  "http://www.w3.org/Graphics/SVG/1.1/DTD/svg11.dtd">
<svg xmlns:xlink="http://www.w3.org/1999/xlink" width="303.282031pt" height="180.523594pt" viewBox="0 0 303.282031 180.523594" xmlns="http://www.w3.org/2000/svg" version="1.1">
 <metadata>
  <rdf:RDF xmlns:dc="http://purl.org/dc/elements/1.1/" xmlns:cc="http://creativecommons.org/ns#" xmlns:rdf="http://www.w3.org/1999/02/22-rdf-syntax-ns#">
   <cc:Work>
    <dc:type rdf:resource="http://purl.org/dc/dcmitype/StillImage"/>
    <dc:date>2025-07-28T17:38:04.538144</dc:date>
    <dc:format>image/svg+xml</dc:format>
    <dc:creator>
     <cc:Agent>
      <dc:title>Matplotlib v3.10.3, https://matplotlib.org/</dc:title>
     </cc:Agent>
    </dc:creator>
   </cc:Work>
  </rdf:RDF>
 </metadata>
 <defs>
  <style type="text/css">*{stroke-linejoin: round; stroke-linecap: butt}</style>
 </defs>
 <g id="figure_1">
  <g id="patch_1">
   <path d="M 0 180.523594 
L 303.282031 180.523594 
L 303.282031 0 
L 0 0 
z
" style="fill: #ffffff"/>
  </g>
  <g id="axes_1">
   <g id="patch_2">
    <path d="M 49.695313 138.789375 
L 211.695312 138.789375 
L 211.695312 21.789375 
L 49.695313 21.789375 
z
" style="fill: #ffffff"/>
   </g>
   <g id="matplotlib.axis_1">
    <g id="xtick_1">
     <g id="line2d_1">
      <defs>
       <path id="mf0ec17f017" d="M 0 0 
L 0 6 
" style="stroke: #262626; stroke-width: 1.25"/>
      </defs>
      <g>
       <use xlink:href="#mf0ec17f017" x="78.09791" y="138.789375" style="fill: #262626; stroke: #262626; stroke-width: 1.25"/>
      </g>
     </g>
     <g id="text_1">
      <!-- 0 uM -->
      <g style="fill: #262626" transform="translate(65.871582 156.162969) scale(0.11 -0.11)">
       <defs>
        <path id="ArialMT-30" d="M 266 2259 
Q 266 3072 433 3567 
Q 600 4063 929 4331 
Q 1259 4600 1759 4600 
Q 2128 4600 2406 4451 
Q 2684 4303 2865 4023 
Q 3047 3744 3150 3342 
Q 3253 2941 3253 2259 
Q 3253 1453 3087 958 
Q 2922 463 2592 192 
Q 2263 -78 1759 -78 
Q 1097 -78 719 397 
Q 266 969 266 2259 
z
M 844 2259 
Q 844 1131 1108 757 
Q 1372 384 1759 384 
Q 2147 384 2411 759 
Q 2675 1134 2675 2259 
Q 2675 3391 2411 3762 
Q 2147 4134 1753 4134 
Q 1366 4134 1134 3806 
Q 844 3388 844 2259 
z
" transform="scale(0.015625)"/>
        <path id="ArialMT-20" transform="scale(0.015625)"/>
        <path id="ArialMT-75" d="M 2597 0 
L 2597 488 
Q 2209 -75 1544 -75 
Q 1250 -75 995 37 
Q 741 150 617 320 
Q 494 491 444 738 
Q 409 903 409 1263 
L 409 3319 
L 972 3319 
L 972 1478 
Q 972 1038 1006 884 
Q 1059 663 1231 536 
Q 1403 409 1656 409 
Q 1909 409 2131 539 
Q 2353 669 2445 892 
Q 2538 1116 2538 1541 
L 2538 3319 
L 3100 3319 
L 3100 0 
L 2597 0 
z
" transform="scale(0.015625)"/>
        <path id="ArialMT-4d" d="M 475 0 
L 475 4581 
L 1388 4581 
L 2472 1338 
Q 2622 884 2691 659 
Q 2769 909 2934 1394 
L 4031 4581 
L 4847 4581 
L 4847 0 
L 4263 0 
L 4263 3834 
L 2931 0 
L 2384 0 
L 1059 3900 
L 1059 0 
L 475 0 
z
" transform="scale(0.015625)"/>
       </defs>
       <use xlink:href="#ArialMT-30"/>
       <use xlink:href="#ArialMT-20" transform="translate(55.615234 0)"/>
       <use xlink:href="#ArialMT-75" transform="translate(83.398438 0)"/>
       <use xlink:href="#ArialMT-4d" transform="translate(139.013672 0)"/>
      </g>
     </g>
    </g>
    <g id="xtick_2">
     <g id="line2d_2">
      <g>
       <use xlink:href="#mf0ec17f017" x="130.695312" y="138.789375" style="fill: #262626; stroke: #262626; stroke-width: 1.25"/>
      </g>
     </g>
     <g id="text_2">
      <!-- 0.1 uM -->
      <g style="fill: #262626" transform="translate(113.8825 156.162969) scale(0.11 -0.11)">
       <defs>
        <path id="ArialMT-2e" d="M 581 0 
L 581 641 
L 1222 641 
L 1222 0 
L 581 0 
z
" transform="scale(0.015625)"/>
        <path id="ArialMT-31" d="M 2384 0 
L 1822 0 
L 1822 3584 
Q 1619 3391 1289 3197 
Q 959 3003 697 2906 
L 697 3450 
Q 1169 3672 1522 3987 
Q 1875 4303 2022 4600 
L 2384 4600 
L 2384 0 
z
" transform="scale(0.015625)"/>
       </defs>
       <use xlink:href="#ArialMT-30"/>
       <use xlink:href="#ArialMT-2e" transform="translate(55.615234 0)"/>
       <use xlink:href="#ArialMT-31" transform="translate(83.398438 0)"/>
       <use xlink:href="#ArialMT-20" transform="translate(139.013672 0)"/>
       <use xlink:href="#ArialMT-75" transform="translate(166.796875 0)"/>
       <use xlink:href="#ArialMT-4d" transform="translate(222.412109 0)"/>
      </g>
     </g>
    </g>
    <g id="xtick_3">
     <g id="line2d_3">
      <g>
       <use xlink:href="#mf0ec17f017" x="183.292715" y="138.789375" style="fill: #262626; stroke: #262626; stroke-width: 1.25"/>
      </g>
     </g>
     <g id="text_3">
      <!-- 1 uM -->
      <g style="fill: #262626" transform="translate(171.066387 156.162969) scale(0.11 -0.11)">
       <use xlink:href="#ArialMT-31"/>
       <use xlink:href="#ArialMT-20" transform="translate(55.615234 0)"/>
       <use xlink:href="#ArialMT-75" transform="translate(83.398438 0)"/>
       <use xlink:href="#ArialMT-4d" transform="translate(139.013672 0)"/>
      </g>
     </g>
    </g>
    <g id="text_4">
     <!-- MEKi -->
     <g style="fill: #262626" transform="translate(116.36 170.938594) scale(0.12 -0.12)">
      <defs>
       <path id="ArialMT-45" d="M 506 0 
L 506 4581 
L 3819 4581 
L 3819 4041 
L 1113 4041 
L 1113 2638 
L 3647 2638 
L 3647 2100 
L 1113 2100 
L 1113 541 
L 3925 541 
L 3925 0 
L 506 0 
z
" transform="scale(0.015625)"/>
       <path id="ArialMT-4b" d="M 469 0 
L 469 4581 
L 1075 4581 
L 1075 2309 
L 3350 4581 
L 4172 4581 
L 2250 2725 
L 4256 0 
L 3456 0 
L 1825 2319 
L 1075 1588 
L 1075 0 
L 469 0 
z
" transform="scale(0.015625)"/>
       <path id="ArialMT-69" d="M 425 3934 
L 425 4581 
L 988 4581 
L 988 3934 
L 425 3934 
z
M 425 0 
L 425 3319 
L 988 3319 
L 988 0 
L 425 0 
z
" transform="scale(0.015625)"/>
      </defs>
      <use xlink:href="#ArialMT-4d"/>
      <use xlink:href="#ArialMT-45" transform="translate(83.300781 0)"/>
      <use xlink:href="#ArialMT-4b" transform="translate(150 0)"/>
      <use xlink:href="#ArialMT-69" transform="translate(216.699219 0)"/>
     </g>
    </g>
   </g>
   <g id="matplotlib.axis_2">
    <g id="ytick_1">
     <g id="line2d_4">
      <defs>
       <path id="mec5a155036" d="M 0 0 
L -6 0 
" style="stroke: #262626; stroke-width: 1.25"/>
      </defs>
      <g>
       <use xlink:href="#mec5a155036" x="49.695313" y="138.789375" style="fill: #262626; stroke: #262626; stroke-width: 1.25"/>
      </g>
     </g>
     <g id="text_5">
      <!-- 0 -->
      <g style="fill: #262626" transform="translate(34.078281 142.726172) scale(0.11 -0.11)">
       <use xlink:href="#ArialMT-30"/>
      </g>
     </g>
    </g>
    <g id="ytick_2">
     <g id="line2d_5">
      <g>
       <use xlink:href="#mec5a155036" x="49.695313" y="105.568439" style="fill: #262626; stroke: #262626; stroke-width: 1.25"/>
      </g>
     </g>
     <g id="text_6">
      <!-- 20k -->
      <g style="fill: #262626" transform="translate(22.46125 109.505236) scale(0.11 -0.11)">
       <defs>
        <path id="ArialMT-32" d="M 3222 541 
L 3222 0 
L 194 0 
Q 188 203 259 391 
Q 375 700 629 1000 
Q 884 1300 1366 1694 
Q 2113 2306 2375 2664 
Q 2638 3022 2638 3341 
Q 2638 3675 2398 3904 
Q 2159 4134 1775 4134 
Q 1369 4134 1125 3890 
Q 881 3647 878 3216 
L 300 3275 
Q 359 3922 746 4261 
Q 1134 4600 1788 4600 
Q 2447 4600 2831 4234 
Q 3216 3869 3216 3328 
Q 3216 3053 3103 2787 
Q 2991 2522 2730 2228 
Q 2469 1934 1863 1422 
Q 1356 997 1212 845 
Q 1069 694 975 541 
L 3222 541 
z
" transform="scale(0.015625)"/>
        <path id="ArialMT-6b" d="M 425 0 
L 425 4581 
L 988 4581 
L 988 1969 
L 2319 3319 
L 3047 3319 
L 1778 2088 
L 3175 0 
L 2481 0 
L 1384 1697 
L 988 1316 
L 988 0 
L 425 0 
z
" transform="scale(0.015625)"/>
       </defs>
       <use xlink:href="#ArialMT-32"/>
       <use xlink:href="#ArialMT-30" transform="translate(55.615234 0)"/>
       <use xlink:href="#ArialMT-6b" transform="translate(111.230469 0)"/>
      </g>
     </g>
    </g>
    <g id="ytick_3">
     <g id="line2d_6">
      <g>
       <use xlink:href="#mec5a155036" x="49.695313" y="72.347504" style="fill: #262626; stroke: #262626; stroke-width: 1.25"/>
      </g>
     </g>
     <g id="text_7">
      <!-- 40k -->
      <g style="fill: #262626" transform="translate(22.46125 76.284301) scale(0.11 -0.11)">
       <defs>
        <path id="ArialMT-34" d="M 2069 0 
L 2069 1097 
L 81 1097 
L 81 1613 
L 2172 4581 
L 2631 4581 
L 2631 1613 
L 3250 1613 
L 3250 1097 
L 2631 1097 
L 2631 0 
L 2069 0 
z
M 2069 1613 
L 2069 3678 
L 634 1613 
L 2069 1613 
z
" transform="scale(0.015625)"/>
       </defs>
       <use xlink:href="#ArialMT-34"/>
       <use xlink:href="#ArialMT-30" transform="translate(55.615234 0)"/>
       <use xlink:href="#ArialMT-6b" transform="translate(111.230469 0)"/>
      </g>
     </g>
    </g>
    <g id="ytick_4">
     <g id="line2d_7">
      <g>
       <use xlink:href="#mec5a155036" x="49.695313" y="39.126568" style="fill: #262626; stroke: #262626; stroke-width: 1.25"/>
      </g>
     </g>
     <g id="text_8">
      <!-- 60k -->
      <g style="fill: #262626" transform="translate(22.46125 43.063365) scale(0.11 -0.11)">
       <defs>
        <path id="ArialMT-36" d="M 3184 3459 
L 2625 3416 
Q 2550 3747 2413 3897 
Q 2184 4138 1850 4138 
Q 1581 4138 1378 3988 
Q 1113 3794 959 3422 
Q 806 3050 800 2363 
Q 1003 2672 1297 2822 
Q 1591 2972 1913 2972 
Q 2475 2972 2870 2558 
Q 3266 2144 3266 1488 
Q 3266 1056 3080 686 
Q 2894 316 2569 119 
Q 2244 -78 1831 -78 
Q 1128 -78 684 439 
Q 241 956 241 2144 
Q 241 3472 731 4075 
Q 1159 4600 1884 4600 
Q 2425 4600 2770 4297 
Q 3116 3994 3184 3459 
z
M 888 1484 
Q 888 1194 1011 928 
Q 1134 663 1356 523 
Q 1578 384 1822 384 
Q 2178 384 2434 671 
Q 2691 959 2691 1453 
Q 2691 1928 2437 2201 
Q 2184 2475 1800 2475 
Q 1419 2475 1153 2201 
Q 888 1928 888 1484 
z
" transform="scale(0.015625)"/>
       </defs>
       <use xlink:href="#ArialMT-36"/>
       <use xlink:href="#ArialMT-30" transform="translate(55.615234 0)"/>
       <use xlink:href="#ArialMT-6b" transform="translate(111.230469 0)"/>
      </g>
     </g>
    </g>
    <g id="text_9">
     <!-- Single Cells Count -->
     <g style="fill: #262626" transform="translate(15.935625 129.646875) rotate(-90) scale(0.12 -0.12)">
      <defs>
       <path id="ArialMT-53" d="M 288 1472 
L 859 1522 
Q 900 1178 1048 958 
Q 1197 738 1509 602 
Q 1822 466 2213 466 
Q 2559 466 2825 569 
Q 3091 672 3220 851 
Q 3350 1031 3350 1244 
Q 3350 1459 3225 1620 
Q 3100 1781 2813 1891 
Q 2628 1963 1997 2114 
Q 1366 2266 1113 2400 
Q 784 2572 623 2826 
Q 463 3081 463 3397 
Q 463 3744 659 4045 
Q 856 4347 1234 4503 
Q 1613 4659 2075 4659 
Q 2584 4659 2973 4495 
Q 3363 4331 3572 4012 
Q 3781 3694 3797 3291 
L 3216 3247 
Q 3169 3681 2898 3903 
Q 2628 4125 2100 4125 
Q 1550 4125 1298 3923 
Q 1047 3722 1047 3438 
Q 1047 3191 1225 3031 
Q 1400 2872 2139 2705 
Q 2878 2538 3153 2413 
Q 3553 2228 3743 1945 
Q 3934 1663 3934 1294 
Q 3934 928 3725 604 
Q 3516 281 3123 101 
Q 2731 -78 2241 -78 
Q 1619 -78 1198 103 
Q 778 284 539 648 
Q 300 1013 288 1472 
z
" transform="scale(0.015625)"/>
       <path id="ArialMT-6e" d="M 422 0 
L 422 3319 
L 928 3319 
L 928 2847 
Q 1294 3394 1984 3394 
Q 2284 3394 2536 3286 
Q 2788 3178 2913 3003 
Q 3038 2828 3088 2588 
Q 3119 2431 3119 2041 
L 3119 0 
L 2556 0 
L 2556 2019 
Q 2556 2363 2490 2533 
Q 2425 2703 2258 2804 
Q 2091 2906 1866 2906 
Q 1506 2906 1245 2678 
Q 984 2450 984 1813 
L 984 0 
L 422 0 
z
" transform="scale(0.015625)"/>
       <path id="ArialMT-67" d="M 319 -275 
L 866 -356 
Q 900 -609 1056 -725 
Q 1266 -881 1628 -881 
Q 2019 -881 2231 -725 
Q 2444 -569 2519 -288 
Q 2563 -116 2559 434 
Q 2191 0 1641 0 
Q 956 0 581 494 
Q 206 988 206 1678 
Q 206 2153 378 2554 
Q 550 2956 876 3175 
Q 1203 3394 1644 3394 
Q 2231 3394 2613 2919 
L 2613 3319 
L 3131 3319 
L 3131 450 
Q 3131 -325 2973 -648 
Q 2816 -972 2473 -1159 
Q 2131 -1347 1631 -1347 
Q 1038 -1347 672 -1080 
Q 306 -813 319 -275 
z
M 784 1719 
Q 784 1066 1043 766 
Q 1303 466 1694 466 
Q 2081 466 2343 764 
Q 2606 1063 2606 1700 
Q 2606 2309 2336 2618 
Q 2066 2928 1684 2928 
Q 1309 2928 1046 2623 
Q 784 2319 784 1719 
z
" transform="scale(0.015625)"/>
       <path id="ArialMT-6c" d="M 409 0 
L 409 4581 
L 972 4581 
L 972 0 
L 409 0 
z
" transform="scale(0.015625)"/>
       <path id="ArialMT-65" d="M 2694 1069 
L 3275 997 
Q 3138 488 2766 206 
Q 2394 -75 1816 -75 
Q 1088 -75 661 373 
Q 234 822 234 1631 
Q 234 2469 665 2931 
Q 1097 3394 1784 3394 
Q 2450 3394 2872 2941 
Q 3294 2488 3294 1666 
Q 3294 1616 3291 1516 
L 816 1516 
Q 847 969 1125 678 
Q 1403 388 1819 388 
Q 2128 388 2347 550 
Q 2566 713 2694 1069 
z
M 847 1978 
L 2700 1978 
Q 2663 2397 2488 2606 
Q 2219 2931 1791 2931 
Q 1403 2931 1139 2672 
Q 875 2413 847 1978 
z
" transform="scale(0.015625)"/>
       <path id="ArialMT-43" d="M 3763 1606 
L 4369 1453 
Q 4178 706 3683 314 
Q 3188 -78 2472 -78 
Q 1731 -78 1267 223 
Q 803 525 561 1097 
Q 319 1669 319 2325 
Q 319 3041 592 3573 
Q 866 4106 1370 4382 
Q 1875 4659 2481 4659 
Q 3169 4659 3637 4309 
Q 4106 3959 4291 3325 
L 3694 3184 
Q 3534 3684 3231 3912 
Q 2928 4141 2469 4141 
Q 1941 4141 1586 3887 
Q 1231 3634 1087 3207 
Q 944 2781 944 2328 
Q 944 1744 1114 1308 
Q 1284 872 1643 656 
Q 2003 441 2422 441 
Q 2931 441 3284 734 
Q 3638 1028 3763 1606 
z
" transform="scale(0.015625)"/>
       <path id="ArialMT-73" d="M 197 991 
L 753 1078 
Q 800 744 1014 566 
Q 1228 388 1613 388 
Q 2000 388 2187 545 
Q 2375 703 2375 916 
Q 2375 1106 2209 1216 
Q 2094 1291 1634 1406 
Q 1016 1563 777 1677 
Q 538 1791 414 1992 
Q 291 2194 291 2438 
Q 291 2659 392 2848 
Q 494 3038 669 3163 
Q 800 3259 1026 3326 
Q 1253 3394 1513 3394 
Q 1903 3394 2198 3281 
Q 2494 3169 2634 2976 
Q 2775 2784 2828 2463 
L 2278 2388 
Q 2241 2644 2061 2787 
Q 1881 2931 1553 2931 
Q 1166 2931 1000 2803 
Q 834 2675 834 2503 
Q 834 2394 903 2306 
Q 972 2216 1119 2156 
Q 1203 2125 1616 2013 
Q 2213 1853 2448 1751 
Q 2684 1650 2818 1456 
Q 2953 1263 2953 975 
Q 2953 694 2789 445 
Q 2625 197 2315 61 
Q 2006 -75 1616 -75 
Q 969 -75 630 194 
Q 291 463 197 991 
z
" transform="scale(0.015625)"/>
       <path id="ArialMT-6f" d="M 213 1659 
Q 213 2581 725 3025 
Q 1153 3394 1769 3394 
Q 2453 3394 2887 2945 
Q 3322 2497 3322 1706 
Q 3322 1066 3130 698 
Q 2938 331 2570 128 
Q 2203 -75 1769 -75 
Q 1072 -75 642 372 
Q 213 819 213 1659 
z
M 791 1659 
Q 791 1022 1069 705 
Q 1347 388 1769 388 
Q 2188 388 2466 706 
Q 2744 1025 2744 1678 
Q 2744 2294 2464 2611 
Q 2184 2928 1769 2928 
Q 1347 2928 1069 2612 
Q 791 2297 791 1659 
z
" transform="scale(0.015625)"/>
       <path id="ArialMT-74" d="M 1650 503 
L 1731 6 
Q 1494 -44 1306 -44 
Q 1000 -44 831 53 
Q 663 150 594 308 
Q 525 466 525 972 
L 525 2881 
L 113 2881 
L 113 3319 
L 525 3319 
L 525 4141 
L 1084 4478 
L 1084 3319 
L 1650 3319 
L 1650 2881 
L 1084 2881 
L 1084 941 
Q 1084 700 1114 631 
Q 1144 563 1211 522 
Q 1278 481 1403 481 
Q 1497 481 1650 503 
z
" transform="scale(0.015625)"/>
      </defs>
      <use xlink:href="#ArialMT-53"/>
      <use xlink:href="#ArialMT-69" transform="translate(66.699219 0)"/>
      <use xlink:href="#ArialMT-6e" transform="translate(88.916016 0)"/>
      <use xlink:href="#ArialMT-67" transform="translate(144.53125 0)"/>
      <use xlink:href="#ArialMT-6c" transform="translate(200.146484 0)"/>
      <use xlink:href="#ArialMT-65" transform="translate(222.363281 0)"/>
      <use xlink:href="#ArialMT-20" transform="translate(277.978516 0)"/>
      <use xlink:href="#ArialMT-43" transform="translate(305.761719 0)"/>
      <use xlink:href="#ArialMT-65" transform="translate(377.978516 0)"/>
      <use xlink:href="#ArialMT-6c" transform="translate(433.59375 0)"/>
      <use xlink:href="#ArialMT-6c" transform="translate(455.810547 0)"/>
      <use xlink:href="#ArialMT-73" transform="translate(478.027344 0)"/>
      <use xlink:href="#ArialMT-20" transform="translate(528.027344 0)"/>
      <use xlink:href="#ArialMT-43" transform="translate(555.810547 0)"/>
      <use xlink:href="#ArialMT-6f" transform="translate(628.027344 0)"/>
      <use xlink:href="#ArialMT-75" transform="translate(683.642578 0)"/>
      <use xlink:href="#ArialMT-6e" transform="translate(739.257812 0)"/>
      <use xlink:href="#ArialMT-74" transform="translate(794.873047 0)"/>
     </g>
    </g>
   </g>
   <g id="patch_3">
    <path d="M 57.058949 138.789375 
L 78.09791 138.789375 
L 78.09791 82.893628 
L 57.058949 82.893628 
z
" clip-path="url(#p6ec578c652)" style="fill: #999999; opacity: 0.8; stroke: #ffffff; stroke-linejoin: miter"/>
   </g>
   <g id="patch_4">
    <path d="M 109.656351 138.789375 
L 130.695312 138.789375 
L 130.695312 99.618847 
L 109.656351 99.618847 
z
" clip-path="url(#p6ec578c652)" style="fill: #999999; opacity: 0.8; stroke: #ffffff; stroke-linejoin: miter"/>
   </g>
   <g id="patch_5">
    <path d="M 162.253754 138.789375 
L 183.292715 138.789375 
L 183.292715 108.819108 
L 162.253754 108.819108 
z
" clip-path="url(#p6ec578c652)" style="fill: #999999; opacity: 0.8; stroke: #ffffff; stroke-linejoin: miter"/>
   </g>
   <g id="patch_6">
    <path d="M 78.09791 138.789375 
L 99.136871 138.789375 
L 99.136871 58.999609 
L 78.09791 58.999609 
z
" clip-path="url(#p6ec578c652)" style="fill: #c180a8; opacity: 0.8; stroke: #ffffff; stroke-linejoin: miter"/>
   </g>
   <g id="patch_7">
    <path d="M 130.695312 138.789375 
L 151.734274 138.789375 
L 151.734274 92.481052 
L 130.695312 92.481052 
z
" clip-path="url(#p6ec578c652)" style="fill: #c180a8; opacity: 0.8; stroke: #ffffff; stroke-linejoin: miter"/>
   </g>
   <g id="patch_8">
    <path d="M 183.292715 138.789375 
L 204.331676 138.789375 
L 204.331676 115.568633 
L 183.292715 115.568633 
z
" clip-path="url(#p6ec578c652)" style="fill: #c180a8; opacity: 0.8; stroke: #ffffff; stroke-linejoin: miter"/>
   </g>
   <g id="line2d_8">
    <path d="M 67.578429 86.739727 
L 67.578429 78.916155 
" clip-path="url(#p6ec578c652)" style="fill: none; stroke: #424242; stroke-width: 2.7; stroke-linecap: round"/>
   </g>
   <g id="line2d_9">
    <path d="M 120.175832 101.809906 
L 120.175832 97.591082 
" clip-path="url(#p6ec578c652)" style="fill: none; stroke: #424242; stroke-width: 2.7; stroke-linecap: round"/>
   </g>
   <g id="line2d_10">
    <path d="M 172.773235 111.167582 
L 172.773235 106.402195 
" clip-path="url(#p6ec578c652)" style="fill: none; stroke: #424242; stroke-width: 2.7; stroke-linecap: round"/>
   </g>
   <g id="line2d_11">
    <path d="M 88.61739 63.716563 
L 88.61739 54.731324 
" clip-path="url(#p6ec578c652)" style="fill: none; stroke: #424242; stroke-width: 2.7; stroke-linecap: round"/>
   </g>
   <g id="line2d_12">
    <path d="M 141.214793 96.302795 
L 141.214793 88.830407 
" clip-path="url(#p6ec578c652)" style="fill: none; stroke: #424242; stroke-width: 2.7; stroke-linecap: round"/>
   </g>
   <g id="line2d_13">
    <path d="M 193.812196 120.191181 
L 193.812196 110.938022 
" clip-path="url(#p6ec578c652)" style="fill: none; stroke: #424242; stroke-width: 2.7; stroke-linecap: round"/>
   </g>
   <g id="line2d_14">
    <path d="M 120.175832 79.011387 
L 120.175832 77.021928 
L 141.214793 77.021928 
L 141.214793 79.011387 
" clip-path="url(#p6ec578c652)" style="fill: none; stroke: #333333; stroke-width: 1.5; stroke-linecap: round"/>
   </g>
   <g id="line2d_15">
    <path d="M 67.578429 38.084856 
L 67.578429 36.095397 
L 88.61739 36.095397 
L 88.61739 38.084856 
" clip-path="url(#p6ec578c652)" style="fill: none; stroke: #333333; stroke-width: 1.5; stroke-linecap: round"/>
   </g>
   <g id="line2d_16">
    <path d="M 172.773235 94.508954 
L 172.773235 92.519495 
L 193.812196 92.519495 
L 193.812196 94.508954 
" clip-path="url(#p6ec578c652)" style="fill: none; stroke: #333333; stroke-width: 1.5; stroke-linecap: round"/>
   </g>
   <g id="patch_9">
    <path d="M 49.695313 138.789375 
L 49.695313 21.789375 
" style="fill: none; stroke: #262626; stroke-width: 1.25; stroke-linejoin: miter; stroke-linecap: square"/>
   </g>
   <g id="patch_10">
    <path d="M 211.695312 138.789375 
L 211.695312 21.789375 
" style="fill: none; stroke: #262626; stroke-width: 1.25; stroke-linejoin: miter; stroke-linecap: square"/>
   </g>
   <g id="patch_11">
    <path d="M 49.695312 138.789375 
L 211.695312 138.789375 
" style="fill: none; stroke: #262626; stroke-width: 1.25; stroke-linejoin: miter; stroke-linecap: square"/>
   </g>
   <g id="patch_12">
    <path d="M 49.695312 21.789375 
L 211.695312 21.789375 
" style="fill: none; stroke: #262626; stroke-width: 1.25; stroke-linejoin: miter; stroke-linecap: square"/>
   </g>
   <g id="PathCollection_1">
    <defs>
     <path id="C0_0_87135bac00" d="M 0 2.5 
C 0.663008 2.5 1.29895 2.236584 1.767767 1.767767 
C 2.236584 1.29895 2.5 0.663008 2.5 -0 
C 2.5 -0.663008 2.236584 -1.29895 1.767767 -1.767767 
C 1.29895 -2.236584 0.663008 -2.5 0 -2.5 
C -0.663008 -2.5 -1.29895 -2.236584 -1.767767 -1.767767 
C -2.236584 -1.29895 -2.5 -0.663008 -2.5 0 
C -2.5 0.663008 -2.236584 1.29895 -1.767767 1.767767 
C -1.29895 2.236584 -0.663008 2.5 0 2.5 
z
"/>
    </defs>
    <g clip-path="url(#p6ec578c652)">
     <use xlink:href="#C0_0_87135bac00" x="65.277352" y="81.011524" style="fill: #ffffff; stroke: #000000; stroke-width: 0.4"/>
    </g>
    <g clip-path="url(#p6ec578c652)">
     <use xlink:href="#C0_0_87135bac00" x="69.256816" y="82.415108" style="fill: #ffffff; stroke: #000000; stroke-width: 0.4"/>
    </g>
    <g clip-path="url(#p6ec578c652)">
     <use xlink:href="#C0_0_87135bac00" x="66.773707" y="81.920116" style="fill: #ffffff; stroke: #000000; stroke-width: 0.4"/>
    </g>
   </g>
   <g id="PathCollection_2">
    <defs>
     <path id="C1_0_ce264c71ec" d="M 0 2.5 
C 0.663008 2.5 1.29895 2.236584 1.767767 1.767767 
C 2.236584 1.29895 2.5 0.663008 2.5 -0 
C 2.5 -0.663008 2.236584 -1.29895 1.767767 -1.767767 
C 1.29895 -2.236584 0.663008 -2.5 0 -2.5 
C -0.663008 -2.5 -1.29895 -2.236584 -1.767767 -1.767767 
C -2.236584 -1.29895 -2.5 -0.663008 -2.5 0 
C -2.5 0.663008 -2.236584 1.29895 -1.767767 1.767767 
C -1.29895 2.236584 -0.663008 2.5 0 2.5 
z
"/>
    </defs>
    <g clip-path="url(#p6ec578c652)">
     <use xlink:href="#C1_0_ce264c71ec" x="87.585956" y="55.25201" style="fill: #ffffff; stroke: #000000; stroke-width: 0.4"/>
    </g>
    <g clip-path="url(#p6ec578c652)">
     <use xlink:href="#C1_0_ce264c71ec" x="90.589399" y="56.01277" style="fill: #ffffff; stroke: #000000; stroke-width: 0.4"/>
    </g>
    <g clip-path="url(#p6ec578c652)">
     <use xlink:href="#C1_0_ce264c71ec" x="88.554886" y="49.838659" style="fill: #ffffff; stroke: #000000; stroke-width: 0.4"/>
    </g>
   </g>
   <g id="PathCollection_3">
    <defs>
     <path id="C2_0_d038b0c1a9" d="M 0 2.5 
C 0.663008 2.5 1.29895 2.236584 1.767767 1.767767 
C 2.236584 1.29895 2.5 0.663008 2.5 -0 
C 2.5 -0.663008 2.236584 -1.29895 1.767767 -1.767767 
C 1.29895 -2.236584 0.663008 -2.5 0 -2.5 
C -0.663008 -2.5 -1.29895 -2.236584 -1.767767 -1.767767 
C -2.236584 -1.29895 -2.5 -0.663008 -2.5 0 
C -2.5 0.663008 -2.236584 1.29895 -1.767767 1.767767 
C -1.29895 2.236584 -0.663008 2.5 0 2.5 
z
"/>
    </defs>
    <g clip-path="url(#p6ec578c652)">
     <use xlink:href="#C2_0_d038b0c1a9" x="122.022004" y="98.347869" style="fill: #ffffff; stroke: #000000; stroke-width: 0.4"/>
    </g>
    <g clip-path="url(#p6ec578c652)">
     <use xlink:href="#C2_0_d038b0c1a9" x="118.20693" y="97.902708" style="fill: #ffffff; stroke: #000000; stroke-width: 0.4"/>
    </g>
    <g clip-path="url(#p6ec578c652)">
     <use xlink:href="#C2_0_d038b0c1a9" x="118.394228" y="99.881015" style="fill: #ffffff; stroke: #000000; stroke-width: 0.4"/>
    </g>
   </g>
   <g id="PathCollection_4">
    <defs>
     <path id="C3_0_b121997ac6" d="M 0 2.5 
C 0.663008 2.5 1.29895 2.236584 1.767767 1.767767 
C 2.236584 1.29895 2.5 0.663008 2.5 -0 
C 2.5 -0.663008 2.236584 -1.29895 1.767767 -1.767767 
C 1.29895 -2.236584 0.663008 -2.5 0 -2.5 
C -0.663008 -2.5 -1.29895 -2.236584 -1.767767 -1.767767 
C -2.236584 -1.29895 -2.5 -0.663008 -2.5 0 
C -2.5 0.663008 -2.236584 1.29895 -1.767767 1.767767 
C -1.29895 2.236584 -0.663008 2.5 0 2.5 
z
"/>
    </defs>
    <g clip-path="url(#p6ec578c652)">
     <use xlink:href="#C3_0_b121997ac6" x="140.878444" y="87.944733" style="fill: #ffffff; stroke: #000000; stroke-width: 0.4"/>
    </g>
    <g clip-path="url(#p6ec578c652)">
     <use xlink:href="#C3_0_b121997ac6" x="139.189482" y="86.619218" style="fill: #ffffff; stroke: #000000; stroke-width: 0.4"/>
    </g>
    <g clip-path="url(#p6ec578c652)">
     <use xlink:href="#C3_0_b121997ac6" x="140.120171" y="86.873358" style="fill: #ffffff; stroke: #000000; stroke-width: 0.4"/>
    </g>
   </g>
   <g id="PathCollection_5">
    <defs>
     <path id="C4_0_86a6e27767" d="M 0 2.5 
C 0.663008 2.5 1.29895 2.236584 1.767767 1.767767 
C 2.236584 1.29895 2.5 0.663008 2.5 -0 
C 2.5 -0.663008 2.236584 -1.29895 1.767767 -1.767767 
C 1.29895 -2.236584 0.663008 -2.5 0 -2.5 
C -0.663008 -2.5 -1.29895 -2.236584 -1.767767 -1.767767 
C -2.236584 -1.29895 -2.5 -0.663008 -2.5 0 
C -2.5 0.663008 -2.236584 1.29895 -1.767767 1.767767 
C -1.29895 2.236584 -0.663008 2.5 0 2.5 
z
"/>
    </defs>
    <g clip-path="url(#p6ec578c652)">
     <use xlink:href="#C4_0_86a6e27767" x="170.903407" y="109.432034" style="fill: #ffffff; stroke: #000000; stroke-width: 0.4"/>
    </g>
    <g clip-path="url(#p6ec578c652)">
     <use xlink:href="#C4_0_86a6e27767" x="175.29535" y="113.626177" style="fill: #ffffff; stroke: #000000; stroke-width: 0.4"/>
    </g>
    <g clip-path="url(#p6ec578c652)">
     <use xlink:href="#C4_0_86a6e27767" x="172.638767" y="109.923704" style="fill: #ffffff; stroke: #000000; stroke-width: 0.4"/>
    </g>
   </g>
   <g id="PathCollection_6">
    <defs>
     <path id="C5_0_0b540ec9fc" d="M 0 2.5 
C 0.663008 2.5 1.29895 2.236584 1.767767 1.767767 
C 2.236584 1.29895 2.5 0.663008 2.5 -0 
C 2.5 -0.663008 2.236584 -1.29895 1.767767 -1.767767 
C 1.29895 -2.236584 0.663008 -2.5 0 -2.5 
C -0.663008 -2.5 -1.29895 -2.236584 -1.767767 -1.767767 
C -2.236584 -1.29895 -2.5 -0.663008 -2.5 0 
C -2.5 0.663008 -2.236584 1.29895 -1.767767 1.767767 
C -1.29895 2.236584 -0.663008 2.5 0 2.5 
z
"/>
    </defs>
    <g clip-path="url(#p6ec578c652)">
     <use xlink:href="#C5_0_0b540ec9fc" x="195.9403" y="111.724279" style="fill: #ffffff; stroke: #000000; stroke-width: 0.4"/>
    </g>
    <g clip-path="url(#p6ec578c652)">
     <use xlink:href="#C5_0_0b540ec9fc" x="192.980733" y="107.189621" style="fill: #ffffff; stroke: #000000; stroke-width: 0.4"/>
    </g>
    <g clip-path="url(#p6ec578c652)">
     <use xlink:href="#C5_0_0b540ec9fc" x="192.953335" y="111.86879" style="fill: #ffffff; stroke: #000000; stroke-width: 0.4"/>
    </g>
   </g>
   <g id="PathCollection_7">
    <path d="M 66.041219 69.68306 
L 63.541219 74.68306 
L 68.541219 74.68306 
z
" clip-path="url(#p6ec578c652)" style="fill: #ffffff; stroke: #000000; stroke-width: 0.4"/>
    <path d="M 66.5419 70.425548 
L 64.0419 75.425548 
L 69.0419 75.425548 
z
" clip-path="url(#p6ec578c652)" style="fill: #ffffff; stroke: #000000; stroke-width: 0.4"/>
    <path d="M 67.230351 68.050251 
L 64.730351 73.050251 
L 69.730351 73.050251 
z
" clip-path="url(#p6ec578c652)" style="fill: #ffffff; stroke: #000000; stroke-width: 0.4"/>
   </g>
   <g id="PathCollection_8">
    <path d="M 88.517855 50.979673 
L 86.017855 55.979673 
L 91.017855 55.979673 
z
" clip-path="url(#p6ec578c652)" style="fill: #ffffff; stroke: #000000; stroke-width: 0.4"/>
    <path d="M 88.305336 48.265523 
L 85.805336 53.265523 
L 90.805336 53.265523 
z
" clip-path="url(#p6ec578c652)" style="fill: #ffffff; stroke: #000000; stroke-width: 0.4"/>
    <path d="M 87.77287 41.553233 
L 85.27287 46.553233 
L 90.27287 46.553233 
z
" clip-path="url(#p6ec578c652)" style="fill: #ffffff; stroke: #000000; stroke-width: 0.4"/>
   </g>
   <g id="PathCollection_9">
    <path d="M 120.530293 97.125214 
L 118.030293 102.125214 
L 123.030293 102.125214 
z
" clip-path="url(#p6ec578c652)" style="fill: #ffffff; stroke: #000000; stroke-width: 0.4"/>
    <path d="M 122.550599 93.053988 
L 120.050599 98.053988 
L 125.050599 98.053988 
z
" clip-path="url(#p6ec578c652)" style="fill: #ffffff; stroke: #000000; stroke-width: 0.4"/>
    <path d="M 119.55394 90.971036 
L 117.05394 95.971036 
L 122.05394 95.971036 
z
" clip-path="url(#p6ec578c652)" style="fill: #ffffff; stroke: #000000; stroke-width: 0.4"/>
   </g>
   <g id="PathCollection_10">
    <path d="M 142.278033 85.974607 
L 139.778033 90.974607 
L 144.778033 90.974607 
z
" clip-path="url(#p6ec578c652)" style="fill: #ffffff; stroke: #000000; stroke-width: 0.4"/>
    <path d="M 139.468812 84.232169 
L 136.968812 89.232169 
L 141.968812 89.232169 
z
" clip-path="url(#p6ec578c652)" style="fill: #ffffff; stroke: #000000; stroke-width: 0.4"/>
    <path d="M 140.191506 85.89986 
L 137.691506 90.89986 
L 142.691506 90.89986 
z
" clip-path="url(#p6ec578c652)" style="fill: #ffffff; stroke: #000000; stroke-width: 0.4"/>
   </g>
   <g id="PathCollection_11">
    <path d="M 172.386176 100.088521 
L 169.886176 105.088521 
L 174.886176 105.088521 
z
" clip-path="url(#p6ec578c652)" style="fill: #ffffff; stroke: #000000; stroke-width: 0.4"/>
    <path d="M 175.238041 100.196489 
L 172.738041 105.196489 
L 177.738041 105.196489 
z
" clip-path="url(#p6ec578c652)" style="fill: #ffffff; stroke: #000000; stroke-width: 0.4"/>
    <path d="M 175.319903 97.977331 
L 172.819903 102.977331 
L 177.819903 102.977331 
z
" clip-path="url(#p6ec578c652)" style="fill: #ffffff; stroke: #000000; stroke-width: 0.4"/>
   </g>
   <g id="PathCollection_12">
    <path d="M 193.647485 100.344323 
L 191.147485 105.344323 
L 196.147485 105.344323 
z
" clip-path="url(#p6ec578c652)" style="fill: #ffffff; stroke: #000000; stroke-width: 0.4"/>
    <path d="M 194.21675 102.840876 
L 191.71675 107.840876 
L 196.71675 107.840876 
z
" clip-path="url(#p6ec578c652)" style="fill: #ffffff; stroke: #000000; stroke-width: 0.4"/>
    <path d="M 193.99181 104.875658 
L 191.49181 109.875658 
L 196.49181 109.875658 
z
" clip-path="url(#p6ec578c652)" style="fill: #ffffff; stroke: #000000; stroke-width: 0.4"/>
   </g>
   <g id="PathCollection_13">
    <path d="M 62.972049 93.652214 
L 67.972049 93.652214 
L 67.972049 88.652214 
L 62.972049 88.652214 
z
" clip-path="url(#p6ec578c652)" style="fill: #ffffff; stroke: #000000; stroke-width: 0.4"/>
    <path d="M 67.277392 93.006067 
L 72.277392 93.006067 
L 72.277392 88.006067 
L 67.277392 88.006067 
z
" clip-path="url(#p6ec578c652)" style="fill: #ffffff; stroke: #000000; stroke-width: 0.4"/>
    <path d="M 63.834525 92.481176 
L 68.834525 92.481176 
L 68.834525 87.481176 
L 63.834525 87.481176 
z
" clip-path="url(#p6ec578c652)" style="fill: #ffffff; stroke: #000000; stroke-width: 0.4"/>
   </g>
   <g id="PathCollection_14">
    <path d="M 85.102195 66.191789 
L 90.102195 66.191789 
L 90.102195 61.191789 
L 85.102195 61.191789 
z
" clip-path="url(#p6ec578c652)" style="fill: #ffffff; stroke: #000000; stroke-width: 0.4"/>
    <path d="M 87.857521 70.860991 
L 92.857521 70.860991 
L 92.857521 65.860991 
L 87.857521 65.860991 
z
" clip-path="url(#p6ec578c652)" style="fill: #ffffff; stroke: #000000; stroke-width: 0.4"/>
    <path d="M 84.345401 65.504115 
L 89.345401 65.504115 
L 89.345401 60.504115 
L 84.345401 60.504115 
z
" clip-path="url(#p6ec578c652)" style="fill: #ffffff; stroke: #000000; stroke-width: 0.4"/>
   </g>
   <g id="PathCollection_15">
    <path d="M 117.088197 106.188134 
L 122.088197 106.188134 
L 122.088197 101.188134 
L 117.088197 101.188134 
z
" clip-path="url(#p6ec578c652)" style="fill: #ffffff; stroke: #000000; stroke-width: 0.4"/>
    <path d="M 119.296118 106.287797 
L 124.296118 106.287797 
L 124.296118 101.287797 
L 119.296118 101.287797 
z
" clip-path="url(#p6ec578c652)" style="fill: #ffffff; stroke: #000000; stroke-width: 0.4"/>
    <path d="M 117.481284 106.865841 
L 122.481284 106.865841 
L 122.481284 101.865841 
L 117.481284 101.865841 
z
" clip-path="url(#p6ec578c652)" style="fill: #ffffff; stroke: #000000; stroke-width: 0.4"/>
   </g>
   <g id="PathCollection_16">
    <path d="M 139.262846 106.719669 
L 144.262846 106.719669 
L 144.262846 101.719669 
L 139.262846 101.719669 
z
" clip-path="url(#p6ec578c652)" style="fill: #ffffff; stroke: #000000; stroke-width: 0.4"/>
    <path d="M 136.975476 99.176856 
L 141.975476 99.176856 
L 141.975476 94.176856 
L 136.975476 94.176856 
z
" clip-path="url(#p6ec578c652)" style="fill: #ffffff; stroke: #000000; stroke-width: 0.4"/>
    <path d="M 139.499644 87.479764 
L 144.499644 87.479764 
L 144.499644 82.479764 
L 139.499644 82.479764 
z
" clip-path="url(#p6ec578c652)" style="fill: #ffffff; stroke: #000000; stroke-width: 0.4"/>
   </g>
   <g id="PathCollection_17">
    <path d="M 169.531636 116.616186 
L 174.531636 116.616186 
L 174.531636 111.616186 
L 169.531636 111.616186 
z
" clip-path="url(#p6ec578c652)" style="fill: #ffffff; stroke: #000000; stroke-width: 0.4"/>
    <path d="M 172.477029 113.898714 
L 177.477029 113.898714 
L 177.477029 108.898714 
L 172.477029 108.898714 
z
" clip-path="url(#p6ec578c652)" style="fill: #ffffff; stroke: #000000; stroke-width: 0.4"/>
    <path d="M 171.738463 113.961833 
L 176.738463 113.961833 
L 176.738463 108.961833 
L 171.738463 108.961833 
z
" clip-path="url(#p6ec578c652)" style="fill: #ffffff; stroke: #000000; stroke-width: 0.4"/>
   </g>
   <g id="PathCollection_18">
    <path d="M 189.129807 128.786676 
L 194.129807 128.786676 
L 194.129807 123.786676 
L 189.129807 123.786676 
z
" clip-path="url(#p6ec578c652)" style="fill: #ffffff; stroke: #000000; stroke-width: 0.4"/>
    <path d="M 190.561407 127.348209 
L 195.561407 127.348209 
L 195.561407 122.348209 
L 190.561407 122.348209 
z
" clip-path="url(#p6ec578c652)" style="fill: #ffffff; stroke: #000000; stroke-width: 0.4"/>
    <path d="M 189.924038 126.265207 
L 194.924038 126.265207 
L 194.924038 121.265207 
L 189.924038 121.265207 
z
" clip-path="url(#p6ec578c652)" style="fill: #ffffff; stroke: #000000; stroke-width: 0.4"/>
   </g>
   <g id="PathCollection_19">
    <path d="M 66.192264 89.131547 
L 69.727797 85.596013 
L 66.192264 82.060479 
L 62.65673 85.596013 
z
" clip-path="url(#p6ec578c652)" style="fill: #ffffff; stroke: #000000; stroke-width: 0.4"/>
    <path d="M 66.617946 90.593268 
L 70.15348 87.057734 
L 66.617946 83.5222 
L 63.082412 87.057734 
z
" clip-path="url(#p6ec578c652)" style="fill: #ffffff; stroke: #000000; stroke-width: 0.4"/>
    <path d="M 65.633963 92.96026 
L 69.169497 89.424726 
L 65.633963 85.889192 
L 62.098429 89.424726 
z
" clip-path="url(#p6ec578c652)" style="fill: #ffffff; stroke: #000000; stroke-width: 0.4"/>
   </g>
   <g id="PathCollection_20">
    <path d="M 88.690462 71.041086 
L 92.225996 67.505552 
L 88.690462 63.970018 
L 85.154928 67.505552 
z
" clip-path="url(#p6ec578c652)" style="fill: #ffffff; stroke: #000000; stroke-width: 0.4"/>
    <path d="M 90.749582 70.258733 
L 94.285116 66.723199 
L 90.749582 63.187665 
L 87.214048 66.723199 
z
" clip-path="url(#p6ec578c652)" style="fill: #ffffff; stroke: #000000; stroke-width: 0.4"/>
    <path d="M 89.082631 72.843322 
L 92.618164 69.307788 
L 89.082631 65.772254 
L 85.547097 69.307788 
z
" clip-path="url(#p6ec578c652)" style="fill: #ffffff; stroke: #000000; stroke-width: 0.4"/>
   </g>
   <g id="PathCollection_21">
    <path d="M 120.80075 107.14726 
L 124.336284 103.611726 
L 120.80075 100.076192 
L 117.265216 103.611726 
z
" clip-path="url(#p6ec578c652)" style="fill: #ffffff; stroke: #000000; stroke-width: 0.4"/>
    <path d="M 118.459005 105.722082 
L 121.994539 102.186548 
L 118.459005 98.651014 
L 114.923471 102.186548 
z
" clip-path="url(#p6ec578c652)" style="fill: #ffffff; stroke: #000000; stroke-width: 0.4"/>
    <path d="M 121.096977 96.539815 
L 124.632511 93.004281 
L 121.096977 89.468748 
L 117.561443 93.004281 
z
" clip-path="url(#p6ec578c652)" style="fill: #ffffff; stroke: #000000; stroke-width: 0.4"/>
   </g>
   <g id="PathCollection_22">
    <path d="M 139.539177 108.836545 
L 143.074711 105.301011 
L 139.539177 101.765477 
L 136.003643 105.301011 
z
" clip-path="url(#p6ec578c652)" style="fill: #ffffff; stroke: #000000; stroke-width: 0.4"/>
    <path d="M 142.100149 98.91179 
L 145.635683 95.376256 
L 142.100149 91.840722 
L 138.564615 95.376256 
z
" clip-path="url(#p6ec578c652)" style="fill: #ffffff; stroke: #000000; stroke-width: 0.4"/>
    <path d="M 139.251893 101.710654 
L 142.787427 98.17512 
L 139.251893 94.639586 
L 135.71636 98.17512 
z
" clip-path="url(#p6ec578c652)" style="fill: #ffffff; stroke: #000000; stroke-width: 0.4"/>
   </g>
   <g id="PathCollection_23">
    <path d="M 173.099285 111.429439 
L 176.634819 107.893905 
L 173.099285 104.358371 
L 169.563751 107.893905 
z
" clip-path="url(#p6ec578c652)" style="fill: #ffffff; stroke: #000000; stroke-width: 0.4"/>
    <path d="M 174.443089 114.766482 
L 177.978623 111.230948 
L 174.443089 107.695414 
L 170.907556 111.230948 
z
" clip-path="url(#p6ec578c652)" style="fill: #ffffff; stroke: #000000; stroke-width: 0.4"/>
    <path d="M 173.442527 114.518986 
L 176.978061 110.983452 
L 173.442527 107.447918 
L 169.906993 110.983452 
z
" clip-path="url(#p6ec578c652)" style="fill: #ffffff; stroke: #000000; stroke-width: 0.4"/>
   </g>
   <g id="PathCollection_24">
    <path d="M 193.46035 122.975375 
L 196.995884 119.439841 
L 193.46035 115.904307 
L 189.924816 119.439841 
z
" clip-path="url(#p6ec578c652)" style="fill: #ffffff; stroke: #000000; stroke-width: 0.4"/>
    <path d="M 193.766356 128.295708 
L 197.30189 124.760174 
L 193.766356 121.22464 
L 190.230822 124.760174 
z
" clip-path="url(#p6ec578c652)" style="fill: #ffffff; stroke: #000000; stroke-width: 0.4"/>
    <path d="M 193.73753 124.915478 
L 197.273064 121.379944 
L 193.73753 117.84441 
L 190.201996 121.379944 
z
" clip-path="url(#p6ec578c652)" style="fill: #ffffff; stroke: #000000; stroke-width: 0.4"/>
   </g>
   <g id="text_10">
    <!-- ** -->
    <g style="fill: #262626" transform="translate(126.024687 73.636928) scale(0.12 -0.12)">
     <defs>
      <path id="ArialMT-2a" d="M 200 3741 
L 344 4184 
Q 841 4009 1066 3881 
Q 1006 4447 1003 4659 
L 1456 4659 
Q 1447 4350 1384 3884 
Q 1706 4047 2122 4184 
L 2266 3741 
Q 1869 3609 1488 3566 
Q 1678 3400 2025 2975 
L 1650 2709 
Q 1469 2956 1222 3381 
Q 991 2941 816 2709 
L 447 2975 
Q 809 3422 966 3566 
Q 563 3644 200 3741 
z
" transform="scale(0.015625)"/>
     </defs>
     <use xlink:href="#ArialMT-2a"/>
     <use xlink:href="#ArialMT-2a" transform="translate(38.916016 0)"/>
    </g>
   </g>
   <g id="text_11">
    <!-- **** -->
    <g style="fill: #262626" transform="translate(68.75666 32.710397) scale(0.12 -0.12)">
     <use xlink:href="#ArialMT-2a"/>
     <use xlink:href="#ArialMT-2a" transform="translate(38.916016 0)"/>
     <use xlink:href="#ArialMT-2a" transform="translate(77.832031 0)"/>
     <use xlink:href="#ArialMT-2a" transform="translate(116.748047 0)"/>
    </g>
   </g>
   <g id="text_12">
    <!-- * -->
    <g style="fill: #262626" transform="translate(180.957403 89.134495) scale(0.12 -0.12)">
     <use xlink:href="#ArialMT-2a"/>
    </g>
   </g>
   <g id="text_13">
    <!-- NIL SNAP-DD -->
    <g style="fill: #262626" transform="translate(92.913125 15.789375) scale(0.12 -0.12)">
     <defs>
      <path id="ArialMT-4e" d="M 488 0 
L 488 4581 
L 1109 4581 
L 3516 984 
L 3516 4581 
L 4097 4581 
L 4097 0 
L 3475 0 
L 1069 3600 
L 1069 0 
L 488 0 
z
" transform="scale(0.015625)"/>
      <path id="ArialMT-49" d="M 597 0 
L 597 4581 
L 1203 4581 
L 1203 0 
L 597 0 
z
" transform="scale(0.015625)"/>
      <path id="ArialMT-4c" d="M 469 0 
L 469 4581 
L 1075 4581 
L 1075 541 
L 3331 541 
L 3331 0 
L 469 0 
z
" transform="scale(0.015625)"/>
      <path id="ArialMT-41" d="M -9 0 
L 1750 4581 
L 2403 4581 
L 4278 0 
L 3588 0 
L 3053 1388 
L 1138 1388 
L 634 0 
L -9 0 
z
M 1313 1881 
L 2866 1881 
L 2388 3150 
Q 2169 3728 2063 4100 
Q 1975 3659 1816 3225 
L 1313 1881 
z
" transform="scale(0.015625)"/>
      <path id="ArialMT-50" d="M 494 0 
L 494 4581 
L 2222 4581 
Q 2678 4581 2919 4538 
Q 3256 4481 3484 4323 
Q 3713 4166 3852 3881 
Q 3991 3597 3991 3256 
Q 3991 2672 3619 2267 
Q 3247 1863 2275 1863 
L 1100 1863 
L 1100 0 
L 494 0 
z
M 1100 2403 
L 2284 2403 
Q 2872 2403 3119 2622 
Q 3366 2841 3366 3238 
Q 3366 3525 3220 3729 
Q 3075 3934 2838 4000 
Q 2684 4041 2272 4041 
L 1100 4041 
L 1100 2403 
z
" transform="scale(0.015625)"/>
      <path id="ArialMT-2d" d="M 203 1375 
L 203 1941 
L 1931 1941 
L 1931 1375 
L 203 1375 
z
" transform="scale(0.015625)"/>
      <path id="ArialMT-44" d="M 494 0 
L 494 4581 
L 2072 4581 
Q 2606 4581 2888 4516 
Q 3281 4425 3559 4188 
Q 3922 3881 4101 3404 
Q 4281 2928 4281 2316 
Q 4281 1794 4159 1391 
Q 4038 988 3847 723 
Q 3656 459 3429 307 
Q 3203 156 2883 78 
Q 2563 0 2147 0 
L 494 0 
z
M 1100 541 
L 2078 541 
Q 2531 541 2789 625 
Q 3047 709 3200 863 
Q 3416 1078 3536 1442 
Q 3656 1806 3656 2325 
Q 3656 3044 3420 3430 
Q 3184 3816 2847 3947 
Q 2603 4041 2063 4041 
L 1100 4041 
L 1100 541 
z
" transform="scale(0.015625)"/>
     </defs>
     <use xlink:href="#ArialMT-4e"/>
     <use xlink:href="#ArialMT-49" transform="translate(72.216797 0)"/>
     <use xlink:href="#ArialMT-4c" transform="translate(100 0)"/>
     <use xlink:href="#ArialMT-20" transform="translate(151.865234 0)"/>
     <use xlink:href="#ArialMT-53" transform="translate(179.648438 0)"/>
     <use xlink:href="#ArialMT-4e" transform="translate(246.347656 0)"/>
     <use xlink:href="#ArialMT-41" transform="translate(318.564453 0)"/>
     <use xlink:href="#ArialMT-50" transform="translate(385.263672 0)"/>
     <use xlink:href="#ArialMT-2d" transform="translate(451.962891 0)"/>
     <use xlink:href="#ArialMT-44" transform="translate(485.263672 0)"/>
     <use xlink:href="#ArialMT-44" transform="translate(557.480469 0)"/>
    </g>
   </g>
   <g id="legend_1">
    <g id="patch_13">
     <path d="M 224.195312 34.062969 
L 246.195312 34.062969 
L 246.195312 26.362969 
L 224.195312 26.362969 
z
" style="fill: #999999; opacity: 0.8; stroke: #ffffff; stroke-linejoin: miter"/>
    </g>
    <g id="text_14">
     <!-- 0 nM -->
     <g style="fill: #262626" transform="translate(254.995313 34.062969) scale(0.11 -0.11)">
      <use xlink:href="#ArialMT-30"/>
      <use xlink:href="#ArialMT-20" transform="translate(55.615234 0)"/>
      <use xlink:href="#ArialMT-6e" transform="translate(83.398438 0)"/>
      <use xlink:href="#ArialMT-4d" transform="translate(139.013672 0)"/>
     </g>
    </g>
    <g id="patch_14">
     <path d="M 224.195312 49.622812 
L 246.195312 49.622812 
L 246.195312 41.922812 
L 224.195312 41.922812 
z
" style="fill: #c180a8; opacity: 0.8; stroke: #ffffff; stroke-linejoin: miter"/>
    </g>
    <g id="text_15">
     <!-- 100 nM -->
     <g style="fill: #262626" transform="translate(254.995313 49.622812) scale(0.11 -0.11)">
      <use xlink:href="#ArialMT-31"/>
      <use xlink:href="#ArialMT-30" transform="translate(55.615234 0)"/>
      <use xlink:href="#ArialMT-30" transform="translate(111.230469 0)"/>
      <use xlink:href="#ArialMT-20" transform="translate(166.845703 0)"/>
      <use xlink:href="#ArialMT-6e" transform="translate(194.628906 0)"/>
      <use xlink:href="#ArialMT-4d" transform="translate(250.244141 0)"/>
     </g>
    </g>
   </g>
  </g>
 </g>
 <defs>
  <clipPath id="p6ec578c652">
   <rect x="49.695313" y="21.789375" width="162" height="117"/>
  </clipPath>
 </defs>
</svg>
