<?xml version="1.0" encoding="utf-8" standalone="no"?>
<!DOCTYPE svg PUBLIC "-//W3C//DTD SVG 1.1//EN"
  "http://www.w3.org/Graphics/SVG/1.1/DTD/svg11.dtd">
<svg xmlns:xlink="http://www.w3.org/1999/xlink" width="316.591313pt" height="180.523594pt" viewBox="0 0 316.591313 180.523594" xmlns="http://www.w3.org/2000/svg" version="1.1">
 <metadata>
  <rdf:RDF xmlns:dc="http://purl.org/dc/elements/1.1/" xmlns:cc="http://creativecommons.org/ns#" xmlns:rdf="http://www.w3.org/1999/02/22-rdf-syntax-ns#">
   <cc:Work>
    <dc:type rdf:resource="http://purl.org/dc/dcmitype/StillImage"/>
    <dc:date>2025-07-28T17:38:03.149564</dc:date>
    <dc:format>image/svg+xml</dc:format>
    <dc:creator>
     <cc:Agent>
      <dc:title>Matplotlib v3.10.3, https://matplotlib.org/</dc:title>
     </cc:Agent>
    </dc:creator>
   </cc:Work>
  </rdf:RDF>
 </metadata>
 <defs>
  <style type="text/css">*{stroke-linejoin: round; stroke-linecap: butt}</style>
 </defs>
 <g id="figure_1">
  <g id="patch_1">
   <path d="M 0 180.523594 
L 316.591313 180.523594 
L 316.591313 0 
L 0 0 
z
" style="fill: #ffffff"/>
  </g>
  <g id="axes_1">
   <g id="patch_2">
    <path d="M 63.004594 138.789375 
L 225.004594 138.789375 
L 225.004594 21.789375 
L 63.004594 21.789375 
z
" style="fill: #ffffff"/>
   </g>
   <g id="matplotlib.axis_1">
    <g id="xtick_1">
     <g id="line2d_1">
      <defs>
       <path id="m111696564c" d="M 0 0 
L 0 6 
" style="stroke: #262626; stroke-width: 1.25"/>
      </defs>
      <g>
       <use xlink:href="#m111696564c" x="91.407191" y="138.789375" style="fill: #262626; stroke: #262626; stroke-width: 1.25"/>
      </g>
     </g>
     <g id="text_1">
      <!-- 0 uM -->
      <g style="fill: #262626" transform="translate(79.180863 156.162969) scale(0.11 -0.11)">
       <defs>
        <path id="ArialMT-30" d="M 266 2259 
Q 266 3072 433 3567 
Q 600 4063 929 4331 
Q 1259 4600 1759 4600 
Q 2128 4600 2406 4451 
Q 2684 4303 2865 4023 
Q 3047 3744 3150 3342 
Q 3253 2941 3253 2259 
Q 3253 1453 3087 958 
Q 2922 463 2592 192 
Q 2263 -78 1759 -78 
Q 1097 -78 719 397 
Q 266 969 266 2259 
z
M 844 2259 
Q 844 1131 1108 757 
Q 1372 384 1759 384 
Q 2147 384 2411 759 
Q 2675 1134 2675 2259 
Q 2675 3391 2411 3762 
Q 2147 4134 1753 4134 
Q 1366 4134 1134 3806 
Q 844 3388 844 2259 
z
" transform="scale(0.015625)"/>
        <path id="ArialMT-20" transform="scale(0.015625)"/>
        <path id="ArialMT-75" d="M 2597 0 
L 2597 488 
Q 2209 -75 1544 -75 
Q 1250 -75 995 37 
Q 741 150 617 320 
Q 494 491 444 738 
Q 409 903 409 1263 
L 409 3319 
L 972 3319 
L 972 1478 
Q 972 1038 1006 884 
Q 1059 663 1231 536 
Q 1403 409 1656 409 
Q 1909 409 2131 539 
Q 2353 669 2445 892 
Q 2538 1116 2538 1541 
L 2538 3319 
L 3100 3319 
L 3100 0 
L 2597 0 
z
" transform="scale(0.015625)"/>
        <path id="ArialMT-4d" d="M 475 0 
L 475 4581 
L 1388 4581 
L 2472 1338 
Q 2622 884 2691 659 
Q 2769 909 2934 1394 
L 4031 4581 
L 4847 4581 
L 4847 0 
L 4263 0 
L 4263 3834 
L 2931 0 
L 2384 0 
L 1059 3900 
L 1059 0 
L 475 0 
z
" transform="scale(0.015625)"/>
       </defs>
       <use xlink:href="#ArialMT-30"/>
       <use xlink:href="#ArialMT-20" transform="translate(55.615234 0)"/>
       <use xlink:href="#ArialMT-75" transform="translate(83.398438 0)"/>
       <use xlink:href="#ArialMT-4d" transform="translate(139.013672 0)"/>
      </g>
     </g>
    </g>
    <g id="xtick_2">
     <g id="line2d_2">
      <g>
       <use xlink:href="#m111696564c" x="144.004594" y="138.789375" style="fill: #262626; stroke: #262626; stroke-width: 1.25"/>
      </g>
     </g>
     <g id="text_2">
      <!-- 0.1 uM -->
      <g style="fill: #262626" transform="translate(127.191781 156.162969) scale(0.11 -0.11)">
       <defs>
        <path id="ArialMT-2e" d="M 581 0 
L 581 641 
L 1222 641 
L 1222 0 
L 581 0 
z
" transform="scale(0.015625)"/>
        <path id="ArialMT-31" d="M 2384 0 
L 1822 0 
L 1822 3584 
Q 1619 3391 1289 3197 
Q 959 3003 697 2906 
L 697 3450 
Q 1169 3672 1522 3987 
Q 1875 4303 2022 4600 
L 2384 4600 
L 2384 0 
z
" transform="scale(0.015625)"/>
       </defs>
       <use xlink:href="#ArialMT-30"/>
       <use xlink:href="#ArialMT-2e" transform="translate(55.615234 0)"/>
       <use xlink:href="#ArialMT-31" transform="translate(83.398438 0)"/>
       <use xlink:href="#ArialMT-20" transform="translate(139.013672 0)"/>
       <use xlink:href="#ArialMT-75" transform="translate(166.796875 0)"/>
       <use xlink:href="#ArialMT-4d" transform="translate(222.412109 0)"/>
      </g>
     </g>
    </g>
    <g id="xtick_3">
     <g id="line2d_3">
      <g>
       <use xlink:href="#m111696564c" x="196.601996" y="138.789375" style="fill: #262626; stroke: #262626; stroke-width: 1.25"/>
      </g>
     </g>
     <g id="text_3">
      <!-- 1 uM -->
      <g style="fill: #262626" transform="translate(184.375668 156.162969) scale(0.11 -0.11)">
       <use xlink:href="#ArialMT-31"/>
       <use xlink:href="#ArialMT-20" transform="translate(55.615234 0)"/>
       <use xlink:href="#ArialMT-75" transform="translate(83.398438 0)"/>
       <use xlink:href="#ArialMT-4d" transform="translate(139.013672 0)"/>
      </g>
     </g>
    </g>
    <g id="text_4">
     <!-- MEKi -->
     <g style="fill: #262626" transform="translate(129.669281 170.938594) scale(0.12 -0.12)">
      <defs>
       <path id="ArialMT-45" d="M 506 0 
L 506 4581 
L 3819 4581 
L 3819 4041 
L 1113 4041 
L 1113 2638 
L 3647 2638 
L 3647 2100 
L 1113 2100 
L 1113 541 
L 3925 541 
L 3925 0 
L 506 0 
z
" transform="scale(0.015625)"/>
       <path id="ArialMT-4b" d="M 469 0 
L 469 4581 
L 1075 4581 
L 1075 2309 
L 3350 4581 
L 4172 4581 
L 2250 2725 
L 4256 0 
L 3456 0 
L 1825 2319 
L 1075 1588 
L 1075 0 
L 469 0 
z
" transform="scale(0.015625)"/>
       <path id="ArialMT-69" d="M 425 3934 
L 425 4581 
L 988 4581 
L 988 3934 
L 425 3934 
z
M 425 0 
L 425 3319 
L 988 3319 
L 988 0 
L 425 0 
z
" transform="scale(0.015625)"/>
      </defs>
      <use xlink:href="#ArialMT-4d"/>
      <use xlink:href="#ArialMT-45" transform="translate(83.300781 0)"/>
      <use xlink:href="#ArialMT-4b" transform="translate(150 0)"/>
      <use xlink:href="#ArialMT-69" transform="translate(216.699219 0)"/>
     </g>
    </g>
   </g>
   <g id="matplotlib.axis_2">
    <g id="ytick_1">
     <g id="line2d_4">
      <defs>
       <path id="ma15d050e28" d="M 0 0 
L -6 0 
" style="stroke: #262626; stroke-width: 1.25"/>
      </defs>
      <g>
       <use xlink:href="#ma15d050e28" x="63.004594" y="138.789375" style="fill: #262626; stroke: #262626; stroke-width: 1.25"/>
      </g>
     </g>
     <g id="text_5">
      <!-- 0 -->
      <g style="fill: #262626" transform="translate(47.387563 142.726172) scale(0.11 -0.11)">
       <use xlink:href="#ArialMT-30"/>
      </g>
     </g>
    </g>
    <g id="ytick_2">
     <g id="line2d_5">
      <g>
       <use xlink:href="#ma15d050e28" x="63.004594" y="110.861734" style="fill: #262626; stroke: #262626; stroke-width: 1.25"/>
      </g>
     </g>
     <g id="text_6">
      <!-- 50 -->
      <g style="fill: #262626" transform="translate(41.270531 114.798531) scale(0.11 -0.11)">
       <defs>
        <path id="ArialMT-35" d="M 266 1200 
L 856 1250 
Q 922 819 1161 601 
Q 1400 384 1738 384 
Q 2144 384 2425 690 
Q 2706 997 2706 1503 
Q 2706 1984 2436 2262 
Q 2166 2541 1728 2541 
Q 1456 2541 1237 2417 
Q 1019 2294 894 2097 
L 366 2166 
L 809 4519 
L 3088 4519 
L 3088 3981 
L 1259 3981 
L 1013 2750 
Q 1425 3038 1878 3038 
Q 2478 3038 2890 2622 
Q 3303 2206 3303 1553 
Q 3303 931 2941 478 
Q 2500 -78 1738 -78 
Q 1113 -78 717 272 
Q 322 622 266 1200 
z
" transform="scale(0.015625)"/>
       </defs>
       <use xlink:href="#ArialMT-35"/>
       <use xlink:href="#ArialMT-30" transform="translate(55.615234 0)"/>
      </g>
     </g>
    </g>
    <g id="ytick_3">
     <g id="line2d_6">
      <g>
       <use xlink:href="#ma15d050e28" x="63.004594" y="82.934094" style="fill: #262626; stroke: #262626; stroke-width: 1.25"/>
      </g>
     </g>
     <g id="text_7">
      <!-- 100 -->
      <g style="fill: #262626" transform="translate(35.1535 86.870891) scale(0.11 -0.11)">
       <use xlink:href="#ArialMT-31"/>
       <use xlink:href="#ArialMT-30" transform="translate(55.615234 0)"/>
       <use xlink:href="#ArialMT-30" transform="translate(111.230469 0)"/>
      </g>
     </g>
    </g>
    <g id="ytick_4">
     <g id="line2d_7">
      <g>
       <use xlink:href="#ma15d050e28" x="63.004594" y="55.006453" style="fill: #262626; stroke: #262626; stroke-width: 1.25"/>
      </g>
     </g>
     <g id="text_8">
      <!-- 150 -->
      <g style="fill: #262626" transform="translate(35.1535 58.94325) scale(0.11 -0.11)">
       <use xlink:href="#ArialMT-31"/>
       <use xlink:href="#ArialMT-35" transform="translate(55.615234 0)"/>
       <use xlink:href="#ArialMT-30" transform="translate(111.230469 0)"/>
      </g>
     </g>
    </g>
    <g id="ytick_5">
     <g id="line2d_8">
      <g>
       <use xlink:href="#ma15d050e28" x="63.004594" y="27.078813" style="fill: #262626; stroke: #262626; stroke-width: 1.25"/>
      </g>
     </g>
     <g id="text_9">
      <!-- 200 -->
      <g style="fill: #262626" transform="translate(35.1535 31.01561) scale(0.11 -0.11)">
       <defs>
        <path id="ArialMT-32" d="M 3222 541 
L 3222 0 
L 194 0 
Q 188 203 259 391 
Q 375 700 629 1000 
Q 884 1300 1366 1694 
Q 2113 2306 2375 2664 
Q 2638 3022 2638 3341 
Q 2638 3675 2398 3904 
Q 2159 4134 1775 4134 
Q 1369 4134 1125 3890 
Q 881 3647 878 3216 
L 300 3275 
Q 359 3922 746 4261 
Q 1134 4600 1788 4600 
Q 2447 4600 2831 4234 
Q 3216 3869 3216 3328 
Q 3216 3053 3103 2787 
Q 2991 2522 2730 2228 
Q 2469 1934 1863 1422 
Q 1356 997 1212 845 
Q 1069 694 975 541 
L 3222 541 
z
" transform="scale(0.015625)"/>
       </defs>
       <use xlink:href="#ArialMT-32"/>
       <use xlink:href="#ArialMT-30" transform="translate(55.615234 0)"/>
       <use xlink:href="#ArialMT-30" transform="translate(111.230469 0)"/>
      </g>
     </g>
    </g>
    <g id="text_10">
     <!-- (%) iMN yield -->
     <g style="fill: #262626" transform="translate(15.935625 115.9575) rotate(-90) scale(0.12 -0.12)">
      <defs>
       <path id="ArialMT-28" d="M 1497 -1347 
Q 1031 -759 709 28 
Q 388 816 388 1659 
Q 388 2403 628 3084 
Q 909 3875 1497 4659 
L 1900 4659 
Q 1522 4009 1400 3731 
Q 1209 3300 1100 2831 
Q 966 2247 966 1656 
Q 966 153 1900 -1347 
L 1497 -1347 
z
" transform="scale(0.015625)"/>
       <path id="ArialMT-25" d="M 372 3481 
Q 372 3972 619 4315 
Q 866 4659 1334 4659 
Q 1766 4659 2048 4351 
Q 2331 4044 2331 3447 
Q 2331 2866 2045 2552 
Q 1759 2238 1341 2238 
Q 925 2238 648 2547 
Q 372 2856 372 3481 
z
M 1350 4272 
Q 1141 4272 1002 4090 
Q 863 3909 863 3425 
Q 863 2984 1003 2804 
Q 1144 2625 1350 2625 
Q 1563 2625 1702 2806 
Q 1841 2988 1841 3469 
Q 1841 3913 1700 4092 
Q 1559 4272 1350 4272 
z
M 1353 -169 
L 3859 4659 
L 4316 4659 
L 1819 -169 
L 1353 -169 
z
M 3334 1075 
Q 3334 1569 3581 1911 
Q 3828 2253 4300 2253 
Q 4731 2253 5014 1945 
Q 5297 1638 5297 1041 
Q 5297 459 5011 145 
Q 4725 -169 4303 -169 
Q 3888 -169 3611 142 
Q 3334 453 3334 1075 
z
M 4316 1866 
Q 4103 1866 3964 1684 
Q 3825 1503 3825 1019 
Q 3825 581 3965 400 
Q 4106 219 4313 219 
Q 4528 219 4667 400 
Q 4806 581 4806 1063 
Q 4806 1506 4665 1686 
Q 4525 1866 4316 1866 
z
" transform="scale(0.015625)"/>
       <path id="ArialMT-29" d="M 791 -1347 
L 388 -1347 
Q 1322 153 1322 1656 
Q 1322 2244 1188 2822 
Q 1081 3291 891 3722 
Q 769 4003 388 4659 
L 791 4659 
Q 1378 3875 1659 3084 
Q 1900 2403 1900 1659 
Q 1900 816 1576 28 
Q 1253 -759 791 -1347 
z
" transform="scale(0.015625)"/>
       <path id="ArialMT-4e" d="M 488 0 
L 488 4581 
L 1109 4581 
L 3516 984 
L 3516 4581 
L 4097 4581 
L 4097 0 
L 3475 0 
L 1069 3600 
L 1069 0 
L 488 0 
z
" transform="scale(0.015625)"/>
       <path id="ArialMT-79" d="M 397 -1278 
L 334 -750 
Q 519 -800 656 -800 
Q 844 -800 956 -737 
Q 1069 -675 1141 -563 
Q 1194 -478 1313 -144 
Q 1328 -97 1363 -6 
L 103 3319 
L 709 3319 
L 1400 1397 
Q 1534 1031 1641 628 
Q 1738 1016 1872 1384 
L 2581 3319 
L 3144 3319 
L 1881 -56 
Q 1678 -603 1566 -809 
Q 1416 -1088 1222 -1217 
Q 1028 -1347 759 -1347 
Q 597 -1347 397 -1278 
z
" transform="scale(0.015625)"/>
       <path id="ArialMT-65" d="M 2694 1069 
L 3275 997 
Q 3138 488 2766 206 
Q 2394 -75 1816 -75 
Q 1088 -75 661 373 
Q 234 822 234 1631 
Q 234 2469 665 2931 
Q 1097 3394 1784 3394 
Q 2450 3394 2872 2941 
Q 3294 2488 3294 1666 
Q 3294 1616 3291 1516 
L 816 1516 
Q 847 969 1125 678 
Q 1403 388 1819 388 
Q 2128 388 2347 550 
Q 2566 713 2694 1069 
z
M 847 1978 
L 2700 1978 
Q 2663 2397 2488 2606 
Q 2219 2931 1791 2931 
Q 1403 2931 1139 2672 
Q 875 2413 847 1978 
z
" transform="scale(0.015625)"/>
       <path id="ArialMT-6c" d="M 409 0 
L 409 4581 
L 972 4581 
L 972 0 
L 409 0 
z
" transform="scale(0.015625)"/>
       <path id="ArialMT-64" d="M 2575 0 
L 2575 419 
Q 2259 -75 1647 -75 
Q 1250 -75 917 144 
Q 584 363 401 755 
Q 219 1147 219 1656 
Q 219 2153 384 2558 
Q 550 2963 881 3178 
Q 1213 3394 1622 3394 
Q 1922 3394 2156 3267 
Q 2391 3141 2538 2938 
L 2538 4581 
L 3097 4581 
L 3097 0 
L 2575 0 
z
M 797 1656 
Q 797 1019 1065 703 
Q 1334 388 1700 388 
Q 2069 388 2326 689 
Q 2584 991 2584 1609 
Q 2584 2291 2321 2609 
Q 2059 2928 1675 2928 
Q 1300 2928 1048 2622 
Q 797 2316 797 1656 
z
" transform="scale(0.015625)"/>
      </defs>
      <use xlink:href="#ArialMT-28"/>
      <use xlink:href="#ArialMT-25" transform="translate(33.300781 0)"/>
      <use xlink:href="#ArialMT-29" transform="translate(122.216797 0)"/>
      <use xlink:href="#ArialMT-20" transform="translate(155.517578 0)"/>
      <use xlink:href="#ArialMT-69" transform="translate(183.300781 0)"/>
      <use xlink:href="#ArialMT-4d" transform="translate(205.517578 0)"/>
      <use xlink:href="#ArialMT-4e" transform="translate(288.818359 0)"/>
      <use xlink:href="#ArialMT-20" transform="translate(361.035156 0)"/>
      <use xlink:href="#ArialMT-79" transform="translate(388.818359 0)"/>
      <use xlink:href="#ArialMT-69" transform="translate(438.818359 0)"/>
      <use xlink:href="#ArialMT-65" transform="translate(461.035156 0)"/>
      <use xlink:href="#ArialMT-6c" transform="translate(516.650391 0)"/>
      <use xlink:href="#ArialMT-64" transform="translate(538.867188 0)"/>
     </g>
     <!-- per MEF plated -->
     <g style="fill: #262626" transform="translate(28.7685 121.305) rotate(-90) scale(0.12 -0.12)">
      <defs>
       <path id="ArialMT-70" d="M 422 -1272 
L 422 3319 
L 934 3319 
L 934 2888 
Q 1116 3141 1344 3267 
Q 1572 3394 1897 3394 
Q 2322 3394 2647 3175 
Q 2972 2956 3137 2557 
Q 3303 2159 3303 1684 
Q 3303 1175 3120 767 
Q 2938 359 2589 142 
Q 2241 -75 1856 -75 
Q 1575 -75 1351 44 
Q 1128 163 984 344 
L 984 -1272 
L 422 -1272 
z
M 931 1641 
Q 931 1000 1190 694 
Q 1450 388 1819 388 
Q 2194 388 2461 705 
Q 2728 1022 2728 1688 
Q 2728 2322 2467 2637 
Q 2206 2953 1844 2953 
Q 1484 2953 1207 2617 
Q 931 2281 931 1641 
z
" transform="scale(0.015625)"/>
       <path id="ArialMT-72" d="M 416 0 
L 416 3319 
L 922 3319 
L 922 2816 
Q 1116 3169 1280 3281 
Q 1444 3394 1641 3394 
Q 1925 3394 2219 3213 
L 2025 2691 
Q 1819 2813 1613 2813 
Q 1428 2813 1281 2702 
Q 1134 2591 1072 2394 
Q 978 2094 978 1738 
L 978 0 
L 416 0 
z
" transform="scale(0.015625)"/>
       <path id="ArialMT-46" d="M 525 0 
L 525 4581 
L 3616 4581 
L 3616 4041 
L 1131 4041 
L 1131 2622 
L 3281 2622 
L 3281 2081 
L 1131 2081 
L 1131 0 
L 525 0 
z
" transform="scale(0.015625)"/>
       <path id="ArialMT-61" d="M 2588 409 
Q 2275 144 1986 34 
Q 1697 -75 1366 -75 
Q 819 -75 525 192 
Q 231 459 231 875 
Q 231 1119 342 1320 
Q 453 1522 633 1644 
Q 813 1766 1038 1828 
Q 1203 1872 1538 1913 
Q 2219 1994 2541 2106 
Q 2544 2222 2544 2253 
Q 2544 2597 2384 2738 
Q 2169 2928 1744 2928 
Q 1347 2928 1158 2789 
Q 969 2650 878 2297 
L 328 2372 
Q 403 2725 575 2942 
Q 747 3159 1072 3276 
Q 1397 3394 1825 3394 
Q 2250 3394 2515 3294 
Q 2781 3194 2906 3042 
Q 3031 2891 3081 2659 
Q 3109 2516 3109 2141 
L 3109 1391 
Q 3109 606 3145 398 
Q 3181 191 3288 0 
L 2700 0 
Q 2613 175 2588 409 
z
M 2541 1666 
Q 2234 1541 1622 1453 
Q 1275 1403 1131 1340 
Q 988 1278 909 1158 
Q 831 1038 831 891 
Q 831 666 1001 516 
Q 1172 366 1500 366 
Q 1825 366 2078 508 
Q 2331 650 2450 897 
Q 2541 1088 2541 1459 
L 2541 1666 
z
" transform="scale(0.015625)"/>
       <path id="ArialMT-74" d="M 1650 503 
L 1731 6 
Q 1494 -44 1306 -44 
Q 1000 -44 831 53 
Q 663 150 594 308 
Q 525 466 525 972 
L 525 2881 
L 113 2881 
L 113 3319 
L 525 3319 
L 525 4141 
L 1084 4478 
L 1084 3319 
L 1650 3319 
L 1650 2881 
L 1084 2881 
L 1084 941 
Q 1084 700 1114 631 
Q 1144 563 1211 522 
Q 1278 481 1403 481 
Q 1497 481 1650 503 
z
" transform="scale(0.015625)"/>
      </defs>
      <use xlink:href="#ArialMT-70"/>
      <use xlink:href="#ArialMT-65" transform="translate(55.615234 0)"/>
      <use xlink:href="#ArialMT-72" transform="translate(111.230469 0)"/>
      <use xlink:href="#ArialMT-20" transform="translate(144.53125 0)"/>
      <use xlink:href="#ArialMT-4d" transform="translate(172.314453 0)"/>
      <use xlink:href="#ArialMT-45" transform="translate(255.615234 0)"/>
      <use xlink:href="#ArialMT-46" transform="translate(322.314453 0)"/>
      <use xlink:href="#ArialMT-20" transform="translate(383.398438 0)"/>
      <use xlink:href="#ArialMT-70" transform="translate(411.181641 0)"/>
      <use xlink:href="#ArialMT-6c" transform="translate(466.796875 0)"/>
      <use xlink:href="#ArialMT-61" transform="translate(489.013672 0)"/>
      <use xlink:href="#ArialMT-74" transform="translate(544.628906 0)"/>
      <use xlink:href="#ArialMT-65" transform="translate(572.412109 0)"/>
      <use xlink:href="#ArialMT-64" transform="translate(628.027344 0)"/>
     </g>
    </g>
   </g>
   <g id="patch_3">
    <path d="M 70.36823 138.789375 
L 91.407191 138.789375 
L 91.407191 111.810809 
L 70.36823 111.810809 
z
" clip-path="url(#p6fca3db217)" style="fill: #999999; opacity: 0.8; stroke: #ffffff; stroke-linejoin: miter"/>
   </g>
   <g id="patch_4">
    <path d="M 122.965633 138.789375 
L 144.004594 138.789375 
L 144.004594 121.383938 
L 122.965633 121.383938 
z
" clip-path="url(#p6fca3db217)" style="fill: #999999; opacity: 0.8; stroke: #ffffff; stroke-linejoin: miter"/>
   </g>
   <g id="patch_5">
    <path d="M 175.563035 138.789375 
L 196.601996 138.789375 
L 196.601996 129.839032 
L 175.563035 129.839032 
z
" clip-path="url(#p6fca3db217)" style="fill: #999999; opacity: 0.8; stroke: #ffffff; stroke-linejoin: miter"/>
   </g>
   <g id="patch_6">
    <path d="M 91.407191 138.789375 
L 112.446152 138.789375 
L 112.446152 68.750111 
L 91.407191 68.750111 
z
" clip-path="url(#p6fca3db217)" style="fill: #c180a8; opacity: 0.8; stroke: #ffffff; stroke-linejoin: miter"/>
   </g>
   <g id="patch_7">
    <path d="M 144.004594 138.789375 
L 165.043555 138.789375 
L 165.043555 109.689704 
L 144.004594 109.689704 
z
" clip-path="url(#p6fca3db217)" style="fill: #c180a8; opacity: 0.8; stroke: #ffffff; stroke-linejoin: miter"/>
   </g>
   <g id="patch_8">
    <path d="M 196.601996 138.789375 
L 217.640957 138.789375 
L 217.640957 133.402133 
L 196.601996 133.402133 
z
" clip-path="url(#p6fca3db217)" style="fill: #c180a8; opacity: 0.8; stroke: #ffffff; stroke-linejoin: miter"/>
   </g>
   <g id="line2d_9">
    <path d="M 80.887711 114.050431 
L 80.887711 109.5326 
" clip-path="url(#p6fca3db217)" style="fill: none; stroke: #424242; stroke-width: 2.7; stroke-linecap: round"/>
   </g>
   <g id="line2d_10">
    <path d="M 133.485113 124.48834 
L 133.485113 117.273932 
" clip-path="url(#p6fca3db217)" style="fill: none; stroke: #424242; stroke-width: 2.7; stroke-linecap: round"/>
   </g>
   <g id="line2d_11">
    <path d="M 186.082516 130.783335 
L 186.082516 128.942973 
" clip-path="url(#p6fca3db217)" style="fill: none; stroke: #424242; stroke-width: 2.7; stroke-linecap: round"/>
   </g>
   <g id="line2d_12">
    <path d="M 101.926672 75.270016 
L 101.926672 61.74779 
" clip-path="url(#p6fca3db217)" style="fill: none; stroke: #424242; stroke-width: 2.7; stroke-linecap: round"/>
   </g>
   <g id="line2d_13">
    <path d="M 154.524074 113.727529 
L 154.524074 105.00845 
" clip-path="url(#p6fca3db217)" style="fill: none; stroke: #424242; stroke-width: 2.7; stroke-linecap: round"/>
   </g>
   <g id="line2d_14">
    <path d="M 207.121477 134.399732 
L 207.121477 132.266025 
" clip-path="url(#p6fca3db217)" style="fill: none; stroke: #424242; stroke-width: 2.7; stroke-linecap: round"/>
   </g>
   <g id="line2d_15">
    <path d="M 133.485113 84.009068 
L 133.485113 82.019609 
L 154.524074 82.019609 
L 154.524074 84.009068 
" clip-path="url(#p6fca3db217)" style="fill: none; stroke: #333333; stroke-width: 1.5; stroke-linecap: round"/>
   </g>
   <g id="line2d_16">
    <path d="M 80.887711 38.084856 
L 80.887711 36.095397 
L 101.926672 36.095397 
L 101.926672 38.084856 
" clip-path="url(#p6fca3db217)" style="fill: none; stroke: #333333; stroke-width: 1.5; stroke-linecap: round"/>
   </g>
   <g id="line2d_17">
    <path d="M 186.082516 121.465619 
L 186.082516 119.47616 
L 207.121477 119.47616 
L 207.121477 121.465619 
" clip-path="url(#p6fca3db217)" style="fill: none; stroke: #333333; stroke-width: 1.5; stroke-linecap: round"/>
   </g>
   <g id="patch_9">
    <path d="M 63.004594 138.789375 
L 63.004594 21.789375 
" style="fill: none; stroke: #262626; stroke-width: 1.25; stroke-linejoin: miter; stroke-linecap: square"/>
   </g>
   <g id="patch_10">
    <path d="M 225.004594 138.789375 
L 225.004594 21.789375 
" style="fill: none; stroke: #262626; stroke-width: 1.25; stroke-linejoin: miter; stroke-linecap: square"/>
   </g>
   <g id="patch_11">
    <path d="M 63.004594 138.789375 
L 225.004594 138.789375 
" style="fill: none; stroke: #262626; stroke-width: 1.25; stroke-linejoin: miter; stroke-linecap: square"/>
   </g>
   <g id="patch_12">
    <path d="M 63.004594 21.789375 
L 225.004594 21.789375 
" style="fill: none; stroke: #262626; stroke-width: 1.25; stroke-linejoin: miter; stroke-linecap: square"/>
   </g>
   <g id="PathCollection_1">
    <defs>
     <path id="C0_0_1f5e9a95e6" d="M 0 2.5 
C 0.663008 2.5 1.29895 2.236584 1.767767 1.767767 
C 2.236584 1.29895 2.5 0.663008 2.5 -0 
C 2.5 -0.663008 2.236584 -1.29895 1.767767 -1.767767 
C 1.29895 -2.236584 0.663008 -2.5 0 -2.5 
C -0.663008 -2.5 -1.29895 -2.236584 -1.767767 -1.767767 
C -2.236584 -1.29895 -2.5 -0.663008 -2.5 0 
C -2.5 0.663008 -2.236584 1.29895 -1.767767 1.767767 
C -1.29895 2.236584 -0.663008 2.5 0 2.5 
z
"/>
    </defs>
    <g clip-path="url(#p6fca3db217)">
     <use xlink:href="#C0_0_1f5e9a95e6" x="83.115051" y="114.671065" style="fill: #ffffff; stroke: #000000; stroke-width: 0.4"/>
    </g>
    <g clip-path="url(#p6fca3db217)">
     <use xlink:href="#C0_0_1f5e9a95e6" x="79.403317" y="118.22346" style="fill: #ffffff; stroke: #000000; stroke-width: 0.4"/>
    </g>
    <g clip-path="url(#p6fca3db217)">
     <use xlink:href="#C0_0_1f5e9a95e6" x="78.468733" y="107.264654" style="fill: #ffffff; stroke: #000000; stroke-width: 0.4"/>
    </g>
   </g>
   <g id="PathCollection_2">
    <defs>
     <path id="C1_0_5b4b768b80" d="M 0 2.5 
C 0.663008 2.5 1.29895 2.236584 1.767767 1.767767 
C 2.236584 1.29895 2.5 0.663008 2.5 -0 
C 2.5 -0.663008 2.236584 -1.29895 1.767767 -1.767767 
C 1.29895 -2.236584 0.663008 -2.5 0 -2.5 
C -0.663008 -2.5 -1.29895 -2.236584 -1.767767 -1.767767 
C -2.236584 -1.29895 -2.5 -0.663008 -2.5 0 
C -2.5 0.663008 -2.236584 1.29895 -1.767767 1.767767 
C -1.29895 2.236584 -0.663008 2.5 0 2.5 
z
"/>
    </defs>
    <g clip-path="url(#p6fca3db217)">
     <use xlink:href="#C1_0_5b4b768b80" x="99.934222" y="73.79617" style="fill: #ffffff; stroke: #000000; stroke-width: 0.4"/>
    </g>
    <g clip-path="url(#p6fca3db217)">
     <use xlink:href="#C1_0_5b4b768b80" x="103.440935" y="69.651708" style="fill: #ffffff; stroke: #000000; stroke-width: 0.4"/>
    </g>
    <g clip-path="url(#p6fca3db217)">
     <use xlink:href="#C1_0_5b4b768b80" x="100.66924" y="66.278049" style="fill: #ffffff; stroke: #000000; stroke-width: 0.4"/>
    </g>
   </g>
   <g id="PathCollection_3">
    <defs>
     <path id="C2_0_6a4dc7ee1e" d="M 0 2.5 
C 0.663008 2.5 1.29895 2.236584 1.767767 1.767767 
C 2.236584 1.29895 2.5 0.663008 2.5 -0 
C 2.5 -0.663008 2.236584 -1.29895 1.767767 -1.767767 
C 1.29895 -2.236584 0.663008 -2.5 0 -2.5 
C -0.663008 -2.5 -1.29895 -2.236584 -1.767767 -1.767767 
C -2.236584 -1.29895 -2.5 -0.663008 -2.5 0 
C -2.5 0.663008 -2.236584 1.29895 -1.767767 1.767767 
C -1.29895 2.236584 -0.663008 2.5 0 2.5 
z
"/>
    </defs>
    <g clip-path="url(#p6fca3db217)">
     <use xlink:href="#C2_0_6a4dc7ee1e" x="135.731211" y="119.725968" style="fill: #ffffff; stroke: #000000; stroke-width: 0.4"/>
    </g>
    <g clip-path="url(#p6fca3db217)">
     <use xlink:href="#C2_0_6a4dc7ee1e" x="133.3012" y="123.943041" style="fill: #ffffff; stroke: #000000; stroke-width: 0.4"/>
    </g>
    <g clip-path="url(#p6fca3db217)">
     <use xlink:href="#C2_0_6a4dc7ee1e" x="133.172144" y="125.412035" style="fill: #ffffff; stroke: #000000; stroke-width: 0.4"/>
    </g>
   </g>
   <g id="PathCollection_4">
    <defs>
     <path id="C3_0_eb06058b6a" d="M 0 2.5 
C 0.663008 2.5 1.29895 2.236584 1.767767 1.767767 
C 2.236584 1.29895 2.5 0.663008 2.5 -0 
C 2.5 -0.663008 2.236584 -1.29895 1.767767 -1.767767 
C 1.29895 -2.236584 0.663008 -2.5 0 -2.5 
C -0.663008 -2.5 -1.29895 -2.236584 -1.767767 -1.767767 
C -2.236584 -1.29895 -2.5 -0.663008 -2.5 0 
C -2.5 0.663008 -2.236584 1.29895 -1.767767 1.767767 
C -1.29895 2.236584 -0.663008 2.5 0 2.5 
z
"/>
    </defs>
    <g clip-path="url(#p6fca3db217)">
     <use xlink:href="#C3_0_eb06058b6a" x="157.084832" y="105.985568" style="fill: #ffffff; stroke: #000000; stroke-width: 0.4"/>
    </g>
    <g clip-path="url(#p6fca3db217)">
     <use xlink:href="#C3_0_eb06058b6a" x="153.412243" y="104.460719" style="fill: #ffffff; stroke: #000000; stroke-width: 0.4"/>
    </g>
    <g clip-path="url(#p6fca3db217)">
     <use xlink:href="#C3_0_eb06058b6a" x="156.909591" y="113.782966" style="fill: #ffffff; stroke: #000000; stroke-width: 0.4"/>
    </g>
   </g>
   <g id="PathCollection_5">
    <defs>
     <path id="C4_0_2927a1dd71" d="M 0 2.5 
C 0.663008 2.5 1.29895 2.236584 1.767767 1.767767 
C 2.236584 1.29895 2.5 0.663008 2.5 -0 
C 2.5 -0.663008 2.236584 -1.29895 1.767767 -1.767767 
C 1.29895 -2.236584 0.663008 -2.5 0 -2.5 
C -0.663008 -2.5 -1.29895 -2.236584 -1.767767 -1.767767 
C -2.236584 -1.29895 -2.5 -0.663008 -2.5 0 
C -2.5 0.663008 -2.236584 1.29895 -1.767767 1.767767 
C -1.29895 2.236584 -0.663008 2.5 0 2.5 
z
"/>
    </defs>
    <g clip-path="url(#p6fca3db217)">
     <use xlink:href="#C4_0_2927a1dd71" x="184.760131" y="129.897214" style="fill: #ffffff; stroke: #000000; stroke-width: 0.4"/>
    </g>
    <g clip-path="url(#p6fca3db217)">
     <use xlink:href="#C4_0_2927a1dd71" x="185.22576" y="132.019715" style="fill: #ffffff; stroke: #000000; stroke-width: 0.4"/>
    </g>
    <g clip-path="url(#p6fca3db217)">
     <use xlink:href="#C4_0_2927a1dd71" x="184.816475" y="129.461543" style="fill: #ffffff; stroke: #000000; stroke-width: 0.4"/>
    </g>
   </g>
   <g id="PathCollection_6">
    <defs>
     <path id="C5_0_ae00f7d116" d="M 0 2.5 
C 0.663008 2.5 1.29895 2.236584 1.767767 1.767767 
C 2.236584 1.29895 2.5 0.663008 2.5 -0 
C 2.5 -0.663008 2.236584 -1.29895 1.767767 -1.767767 
C 1.29895 -2.236584 0.663008 -2.5 0 -2.5 
C -0.663008 -2.5 -1.29895 -2.236584 -1.767767 -1.767767 
C -2.236584 -1.29895 -2.5 -0.663008 -2.5 0 
C -2.5 0.663008 -2.236584 1.29895 -1.767767 1.767767 
C -1.29895 2.236584 -0.663008 2.5 0 2.5 
z
"/>
    </defs>
    <g clip-path="url(#p6fca3db217)">
     <use xlink:href="#C5_0_ae00f7d116" x="208.20178" y="130.466938" style="fill: #ffffff; stroke: #000000; stroke-width: 0.4"/>
    </g>
    <g clip-path="url(#p6fca3db217)">
     <use xlink:href="#C5_0_ae00f7d116" x="207.031693" y="131.025491" style="fill: #ffffff; stroke: #000000; stroke-width: 0.4"/>
    </g>
    <g clip-path="url(#p6fca3db217)">
     <use xlink:href="#C5_0_ae00f7d116" x="208.975018" y="132.315748" style="fill: #ffffff; stroke: #000000; stroke-width: 0.4"/>
    </g>
   </g>
   <g id="PathCollection_7">
    <path d="M 80.717506 105.524286 
L 78.217506 110.524286 
L 83.217506 110.524286 
z
" clip-path="url(#p6fca3db217)" style="fill: #ffffff; stroke: #000000; stroke-width: 0.4"/>
    <path d="M 82.253469 105.770049 
L 79.753469 110.770049 
L 84.753469 110.770049 
z
" clip-path="url(#p6fca3db217)" style="fill: #ffffff; stroke: #000000; stroke-width: 0.4"/>
    <path d="M 79.81016 106.557609 
L 77.31016 111.557609 
L 82.31016 111.557609 
z
" clip-path="url(#p6fca3db217)" style="fill: #ffffff; stroke: #000000; stroke-width: 0.4"/>
   </g>
   <g id="PathCollection_8">
    <path d="M 100.735363 49.294775 
L 98.235363 54.294775 
L 103.235363 54.294775 
z
" clip-path="url(#p6fca3db217)" style="fill: #ffffff; stroke: #000000; stroke-width: 0.4"/>
    <path d="M 103.543164 48.56307 
L 101.043164 53.56307 
L 106.043164 53.56307 
z
" clip-path="url(#p6fca3db217)" style="fill: #ffffff; stroke: #000000; stroke-width: 0.4"/>
    <path d="M 100.552412 41.553233 
L 98.052412 46.553233 
L 103.052412 46.553233 
z
" clip-path="url(#p6fca3db217)" style="fill: #ffffff; stroke: #000000; stroke-width: 0.4"/>
   </g>
   <g id="PathCollection_9">
    <path d="M 131.46951 126.268938 
L 128.96951 131.268938 
L 133.96951 131.268938 
z
" clip-path="url(#p6fca3db217)" style="fill: #ffffff; stroke: #000000; stroke-width: 0.4"/>
    <path d="M 132.683677 124.057068 
L 130.183677 129.057068 
L 135.183677 129.057068 
z
" clip-path="url(#p6fca3db217)" style="fill: #ffffff; stroke: #000000; stroke-width: 0.4"/>
    <path d="M 133.857085 124.213463 
L 131.357085 129.213463 
L 136.357085 129.213463 
z
" clip-path="url(#p6fca3db217)" style="fill: #ffffff; stroke: #000000; stroke-width: 0.4"/>
   </g>
   <g id="PathCollection_10">
    <path d="M 154.204188 112.238091 
L 151.704188 117.238091 
L 156.704188 117.238091 
z
" clip-path="url(#p6fca3db217)" style="fill: #ffffff; stroke: #000000; stroke-width: 0.4"/>
    <path d="M 153.141673 109.724603 
L 150.641673 114.724603 
L 155.641673 114.724603 
z
" clip-path="url(#p6fca3db217)" style="fill: #ffffff; stroke: #000000; stroke-width: 0.4"/>
    <path d="M 152.927789 106.982109 
L 150.427789 111.982109 
L 155.427789 111.982109 
z
" clip-path="url(#p6fca3db217)" style="fill: #ffffff; stroke: #000000; stroke-width: 0.4"/>
   </g>
   <g id="PathCollection_11">
    <path d="M 187.531413 126.470017 
L 185.031413 131.470017 
L 190.031413 131.470017 
z
" clip-path="url(#p6fca3db217)" style="fill: #ffffff; stroke: #000000; stroke-width: 0.4"/>
    <path d="M 187.898044 126.486773 
L 185.398044 131.486773 
L 190.398044 131.486773 
z
" clip-path="url(#p6fca3db217)" style="fill: #ffffff; stroke: #000000; stroke-width: 0.4"/>
    <path d="M 187.553472 125.285885 
L 185.053472 130.285885 
L 190.053472 130.285885 
z
" clip-path="url(#p6fca3db217)" style="fill: #ffffff; stroke: #000000; stroke-width: 0.4"/>
   </g>
   <g id="PathCollection_12">
    <path d="M 208.227474 130.072682 
L 205.727474 135.072682 
L 210.727474 135.072682 
z
" clip-path="url(#p6fca3db217)" style="fill: #ffffff; stroke: #000000; stroke-width: 0.4"/>
    <path d="M 207.278104 130.821143 
L 204.778104 135.821143 
L 209.778104 135.821143 
z
" clip-path="url(#p6fca3db217)" style="fill: #ffffff; stroke: #000000; stroke-width: 0.4"/>
    <path d="M 208.59774 128.715399 
L 206.09774 133.715399 
L 211.09774 133.715399 
z
" clip-path="url(#p6fca3db217)" style="fill: #ffffff; stroke: #000000; stroke-width: 0.4"/>
   </g>
   <g id="PathCollection_13">
    <path d="M 76.630831 110.591312 
L 81.630831 110.591312 
L 81.630831 105.591312 
L 76.630831 105.591312 
z
" clip-path="url(#p6fca3db217)" style="fill: #ffffff; stroke: #000000; stroke-width: 0.4"/>
    <path d="M 75.836696 112.484807 
L 80.836696 112.484807 
L 80.836696 107.484807 
L 75.836696 107.484807 
z
" clip-path="url(#p6fca3db217)" style="fill: #ffffff; stroke: #000000; stroke-width: 0.4"/>
    <path d="M 78.266219 110.613655 
L 83.266219 110.613655 
L 83.266219 105.613655 
L 78.266219 105.613655 
z
" clip-path="url(#p6fca3db217)" style="fill: #ffffff; stroke: #000000; stroke-width: 0.4"/>
   </g>
   <g id="PathCollection_14">
    <path d="M 99.029556 73.313498 
L 104.029556 73.313498 
L 104.029556 68.313498 
L 99.029556 68.313498 
z
" clip-path="url(#p6fca3db217)" style="fill: #ffffff; stroke: #000000; stroke-width: 0.4"/>
    <path d="M 97.898354 87.690647 
L 102.898354 87.690647 
L 102.898354 82.690647 
L 97.898354 82.690647 
z
" clip-path="url(#p6fca3db217)" style="fill: #ffffff; stroke: #000000; stroke-width: 0.4"/>
    <path d="M 97.750313 85.573732 
L 102.750313 85.573732 
L 102.750313 80.573732 
L 97.750313 80.573732 
z
" clip-path="url(#p6fca3db217)" style="fill: #ffffff; stroke: #000000; stroke-width: 0.4"/>
   </g>
   <g id="PathCollection_15">
    <path d="M 128.711929 123.035869 
L 133.711929 123.035869 
L 133.711929 118.035869 
L 128.711929 118.035869 
z
" clip-path="url(#p6fca3db217)" style="fill: #ffffff; stroke: #000000; stroke-width: 0.4"/>
    <path d="M 130.794281 121.918764 
L 135.794281 121.918764 
L 135.794281 116.918764 
L 130.794281 116.918764 
z
" clip-path="url(#p6fca3db217)" style="fill: #ffffff; stroke: #000000; stroke-width: 0.4"/>
    <path d="M 133.082942 122.131014 
L 138.082942 122.131014 
L 138.082942 117.131014 
L 133.082942 117.131014 
z
" clip-path="url(#p6fca3db217)" style="fill: #ffffff; stroke: #000000; stroke-width: 0.4"/>
   </g>
   <g id="PathCollection_16">
    <path d="M 149.723378 119.477888 
L 154.723378 119.477888 
L 154.723378 114.477888 
L 149.723378 114.477888 
z
" clip-path="url(#p6fca3db217)" style="fill: #ffffff; stroke: #000000; stroke-width: 0.4"/>
    <path d="M 154.615158 107.223239 
L 159.615158 107.223239 
L 159.615158 102.223239 
L 154.615158 102.223239 
z
" clip-path="url(#p6fca3db217)" style="fill: #ffffff; stroke: #000000; stroke-width: 0.4"/>
    <path d="M 151.765471 92.477445 
L 156.765471 92.477445 
L 156.765471 87.477445 
L 151.765471 87.477445 
z
" clip-path="url(#p6fca3db217)" style="fill: #ffffff; stroke: #000000; stroke-width: 0.4"/>
   </g>
   <g id="PathCollection_17">
    <path d="M 183.237072 129.933996 
L 188.237072 129.933996 
L 188.237072 124.933996 
L 183.237072 124.933996 
z
" clip-path="url(#p6fca3db217)" style="fill: #ffffff; stroke: #000000; stroke-width: 0.4"/>
    <path d="M 183.531339 132.03974 
L 188.531339 132.03974 
L 188.531339 127.03974 
L 183.531339 127.03974 
z
" clip-path="url(#p6fca3db217)" style="fill: #ffffff; stroke: #000000; stroke-width: 0.4"/>
    <path d="M 184.835729 130.475793 
L 189.835729 130.475793 
L 189.835729 125.475793 
L 184.835729 125.475793 
z
" clip-path="url(#p6fca3db217)" style="fill: #ffffff; stroke: #000000; stroke-width: 0.4"/>
   </g>
   <g id="PathCollection_18">
    <path d="M 205.165721 137.619683 
L 210.165721 137.619683 
L 210.165721 132.619683 
L 205.165721 132.619683 
z
" clip-path="url(#p6fca3db217)" style="fill: #ffffff; stroke: #000000; stroke-width: 0.4"/>
    <path d="M 203.10078 137.390676 
L 208.10078 137.390676 
L 208.10078 132.390676 
L 203.10078 132.390676 
z
" clip-path="url(#p6fca3db217)" style="fill: #ffffff; stroke: #000000; stroke-width: 0.4"/>
    <path d="M 202.24244 136.742755 
L 207.24244 136.742755 
L 207.24244 131.742755 
L 202.24244 131.742755 
z
" clip-path="url(#p6fca3db217)" style="fill: #ffffff; stroke: #000000; stroke-width: 0.4"/>
   </g>
   <g id="PathCollection_19">
    <path d="M 78.848961 117.569848 
L 82.384495 114.034314 
L 78.848961 110.498781 
L 75.313428 114.034314 
z
" clip-path="url(#p6fca3db217)" style="fill: #ffffff; stroke: #000000; stroke-width: 0.4"/>
    <path d="M 82.723878 120.787113 
L 86.259411 117.251579 
L 82.723878 113.716045 
L 79.188344 117.251579 
z
" clip-path="url(#p6fca3db217)" style="fill: #ffffff; stroke: #000000; stroke-width: 0.4"/>
    <path d="M 82.52793 122.278449 
L 86.063464 118.742915 
L 82.52793 115.207381 
L 78.992396 118.742915 
z
" clip-path="url(#p6fca3db217)" style="fill: #ffffff; stroke: #000000; stroke-width: 0.4"/>
   </g>
   <g id="PathCollection_20">
    <path d="M 102.648557 80.375817 
L 106.184091 76.840283 
L 102.648557 73.304749 
L 99.113023 76.840283 
z
" clip-path="url(#p6fca3db217)" style="fill: #ffffff; stroke: #000000; stroke-width: 0.4"/>
    <path d="M 101.437537 82.576515 
L 104.973071 79.040981 
L 101.437537 75.505447 
L 97.902003 79.040981 
z
" clip-path="url(#p6fca3db217)" style="fill: #ffffff; stroke: #000000; stroke-width: 0.4"/>
    <path d="M 99.962188 76.940717 
L 103.497722 73.405183 
L 99.962188 69.869649 
L 96.426655 73.405183 
z
" clip-path="url(#p6fca3db217)" style="fill: #ffffff; stroke: #000000; stroke-width: 0.4"/>
   </g>
   <g id="PathCollection_21">
    <path d="M 134.920096 127.662898 
L 138.45563 124.127364 
L 134.920096 120.59183 
L 131.384562 124.127364 
z
" clip-path="url(#p6fca3db217)" style="fill: #ffffff; stroke: #000000; stroke-width: 0.4"/>
    <path d="M 132.099735 123.820054 
L 135.635269 120.28452 
L 132.099735 116.748986 
L 128.564202 120.28452 
z
" clip-path="url(#p6fca3db217)" style="fill: #ffffff; stroke: #000000; stroke-width: 0.4"/>
    <path d="M 135.254223 105.024752 
L 138.789757 101.489218 
L 135.254223 97.953684 
L 131.718689 101.489218 
z
" clip-path="url(#p6fca3db217)" style="fill: #ffffff; stroke: #000000; stroke-width: 0.4"/>
   </g>
   <g id="PathCollection_22">
    <path d="M 156.632094 125.244364 
L 160.167628 121.70883 
L 156.632094 118.173296 
L 153.09656 121.70883 
z
" clip-path="url(#p6fca3db217)" style="fill: #ffffff; stroke: #000000; stroke-width: 0.4"/>
    <path d="M 156.855102 117.123006 
L 160.390636 113.587472 
L 156.855102 110.051938 
L 153.319568 113.587472 
z
" clip-path="url(#p6fca3db217)" style="fill: #ffffff; stroke: #000000; stroke-width: 0.4"/>
    <path d="M 152.557739 112.163057 
L 156.093273 108.627523 
L 152.557739 105.091989 
L 149.022205 108.627523 
z
" clip-path="url(#p6fca3db217)" style="fill: #ffffff; stroke: #000000; stroke-width: 0.4"/>
   </g>
   <g id="PathCollection_23">
    <path d="M 186.043761 134.834716 
L 189.579295 131.299182 
L 186.043761 127.763648 
L 182.508227 131.299182 
z
" clip-path="url(#p6fca3db217)" style="fill: #ffffff; stroke: #000000; stroke-width: 0.4"/>
    <path d="M 184.027435 135.655788 
L 187.562969 132.120254 
L 184.027435 128.584721 
L 180.491901 132.120254 
z
" clip-path="url(#p6fca3db217)" style="fill: #ffffff; stroke: #000000; stroke-width: 0.4"/>
    <path d="M 188.532853 136.113802 
L 192.068387 132.578268 
L 188.532853 129.042734 
L 184.997319 132.578268 
z
" clip-path="url(#p6fca3db217)" style="fill: #ffffff; stroke: #000000; stroke-width: 0.4"/>
   </g>
   <g id="PathCollection_24">
    <path d="M 206.94433 137.856486 
L 210.479864 134.320953 
L 206.94433 130.785419 
L 203.408796 134.320953 
z
" clip-path="url(#p6fca3db217)" style="fill: #ffffff; stroke: #000000; stroke-width: 0.4"/>
    <path d="M 206.766658 139.174671 
L 210.302191 135.639137 
L 206.766658 132.103603 
L 203.231124 135.639137 
z
" clip-path="url(#p6fca3db217)" style="fill: #ffffff; stroke: #000000; stroke-width: 0.4"/>
    <path d="M 208.264301 139.230526 
L 211.799835 135.694992 
L 208.264301 132.159459 
L 204.728767 135.694992 
z
" clip-path="url(#p6fca3db217)" style="fill: #ffffff; stroke: #000000; stroke-width: 0.4"/>
   </g>
   <g id="text_11">
    <!-- ** -->
    <g style="fill: #262626" transform="translate(139.333969 78.634609) scale(0.12 -0.12)">
     <defs>
      <path id="ArialMT-2a" d="M 200 3741 
L 344 4184 
Q 841 4009 1066 3881 
Q 1006 4447 1003 4659 
L 1456 4659 
Q 1447 4350 1384 3884 
Q 1706 4047 2122 4184 
L 2266 3741 
Q 1869 3609 1488 3566 
Q 1678 3400 2025 2975 
L 1650 2709 
Q 1469 2956 1222 3381 
Q 991 2941 816 2709 
L 447 2975 
Q 809 3422 966 3566 
Q 563 3644 200 3741 
z
" transform="scale(0.015625)"/>
     </defs>
     <use xlink:href="#ArialMT-2a"/>
     <use xlink:href="#ArialMT-2a" transform="translate(38.916016 0)"/>
    </g>
   </g>
   <g id="text_12">
    <!-- **** -->
    <g style="fill: #262626" transform="translate(82.065941 32.710397) scale(0.12 -0.12)">
     <use xlink:href="#ArialMT-2a"/>
     <use xlink:href="#ArialMT-2a" transform="translate(38.916016 0)"/>
     <use xlink:href="#ArialMT-2a" transform="translate(77.832031 0)"/>
     <use xlink:href="#ArialMT-2a" transform="translate(116.748047 0)"/>
    </g>
   </g>
   <g id="text_13">
    <!-- **** -->
    <g style="fill: #262626" transform="translate(187.260746 116.09116) scale(0.12 -0.12)">
     <use xlink:href="#ArialMT-2a"/>
     <use xlink:href="#ArialMT-2a" transform="translate(38.916016 0)"/>
     <use xlink:href="#ArialMT-2a" transform="translate(77.832031 0)"/>
     <use xlink:href="#ArialMT-2a" transform="translate(116.748047 0)"/>
    </g>
   </g>
   <g id="text_14">
    <!-- NIL SNAP-DD -->
    <g style="fill: #262626" transform="translate(106.222406 15.789375) scale(0.12 -0.12)">
     <defs>
      <path id="ArialMT-49" d="M 597 0 
L 597 4581 
L 1203 4581 
L 1203 0 
L 597 0 
z
" transform="scale(0.015625)"/>
      <path id="ArialMT-4c" d="M 469 0 
L 469 4581 
L 1075 4581 
L 1075 541 
L 3331 541 
L 3331 0 
L 469 0 
z
" transform="scale(0.015625)"/>
      <path id="ArialMT-53" d="M 288 1472 
L 859 1522 
Q 900 1178 1048 958 
Q 1197 738 1509 602 
Q 1822 466 2213 466 
Q 2559 466 2825 569 
Q 3091 672 3220 851 
Q 3350 1031 3350 1244 
Q 3350 1459 3225 1620 
Q 3100 1781 2813 1891 
Q 2628 1963 1997 2114 
Q 1366 2266 1113 2400 
Q 784 2572 623 2826 
Q 463 3081 463 3397 
Q 463 3744 659 4045 
Q 856 4347 1234 4503 
Q 1613 4659 2075 4659 
Q 2584 4659 2973 4495 
Q 3363 4331 3572 4012 
Q 3781 3694 3797 3291 
L 3216 3247 
Q 3169 3681 2898 3903 
Q 2628 4125 2100 4125 
Q 1550 4125 1298 3923 
Q 1047 3722 1047 3438 
Q 1047 3191 1225 3031 
Q 1400 2872 2139 2705 
Q 2878 2538 3153 2413 
Q 3553 2228 3743 1945 
Q 3934 1663 3934 1294 
Q 3934 928 3725 604 
Q 3516 281 3123 101 
Q 2731 -78 2241 -78 
Q 1619 -78 1198 103 
Q 778 284 539 648 
Q 300 1013 288 1472 
z
" transform="scale(0.015625)"/>
      <path id="ArialMT-41" d="M -9 0 
L 1750 4581 
L 2403 4581 
L 4278 0 
L 3588 0 
L 3053 1388 
L 1138 1388 
L 634 0 
L -9 0 
z
M 1313 1881 
L 2866 1881 
L 2388 3150 
Q 2169 3728 2063 4100 
Q 1975 3659 1816 3225 
L 1313 1881 
z
" transform="scale(0.015625)"/>
      <path id="ArialMT-50" d="M 494 0 
L 494 4581 
L 2222 4581 
Q 2678 4581 2919 4538 
Q 3256 4481 3484 4323 
Q 3713 4166 3852 3881 
Q 3991 3597 3991 3256 
Q 3991 2672 3619 2267 
Q 3247 1863 2275 1863 
L 1100 1863 
L 1100 0 
L 494 0 
z
M 1100 2403 
L 2284 2403 
Q 2872 2403 3119 2622 
Q 3366 2841 3366 3238 
Q 3366 3525 3220 3729 
Q 3075 3934 2838 4000 
Q 2684 4041 2272 4041 
L 1100 4041 
L 1100 2403 
z
" transform="scale(0.015625)"/>
      <path id="ArialMT-2d" d="M 203 1375 
L 203 1941 
L 1931 1941 
L 1931 1375 
L 203 1375 
z
" transform="scale(0.015625)"/>
      <path id="ArialMT-44" d="M 494 0 
L 494 4581 
L 2072 4581 
Q 2606 4581 2888 4516 
Q 3281 4425 3559 4188 
Q 3922 3881 4101 3404 
Q 4281 2928 4281 2316 
Q 4281 1794 4159 1391 
Q 4038 988 3847 723 
Q 3656 459 3429 307 
Q 3203 156 2883 78 
Q 2563 0 2147 0 
L 494 0 
z
M 1100 541 
L 2078 541 
Q 2531 541 2789 625 
Q 3047 709 3200 863 
Q 3416 1078 3536 1442 
Q 3656 1806 3656 2325 
Q 3656 3044 3420 3430 
Q 3184 3816 2847 3947 
Q 2603 4041 2063 4041 
L 1100 4041 
L 1100 541 
z
" transform="scale(0.015625)"/>
     </defs>
     <use xlink:href="#ArialMT-4e"/>
     <use xlink:href="#ArialMT-49" transform="translate(72.216797 0)"/>
     <use xlink:href="#ArialMT-4c" transform="translate(100 0)"/>
     <use xlink:href="#ArialMT-20" transform="translate(151.865234 0)"/>
     <use xlink:href="#ArialMT-53" transform="translate(179.648438 0)"/>
     <use xlink:href="#ArialMT-4e" transform="translate(246.347656 0)"/>
     <use xlink:href="#ArialMT-41" transform="translate(318.564453 0)"/>
     <use xlink:href="#ArialMT-50" transform="translate(385.263672 0)"/>
     <use xlink:href="#ArialMT-2d" transform="translate(451.962891 0)"/>
     <use xlink:href="#ArialMT-44" transform="translate(485.263672 0)"/>
     <use xlink:href="#ArialMT-44" transform="translate(557.480469 0)"/>
    </g>
   </g>
   <g id="legend_1">
    <g id="patch_13">
     <path d="M 237.504594 34.062969 
L 259.504594 34.062969 
L 259.504594 26.362969 
L 237.504594 26.362969 
z
" style="fill: #999999; opacity: 0.8; stroke: #ffffff; stroke-linejoin: miter"/>
    </g>
    <g id="text_15">
     <!-- 0 nM -->
     <g style="fill: #262626" transform="translate(268.304594 34.062969) scale(0.11 -0.11)">
      <defs>
       <path id="ArialMT-6e" d="M 422 0 
L 422 3319 
L 928 3319 
L 928 2847 
Q 1294 3394 1984 3394 
Q 2284 3394 2536 3286 
Q 2788 3178 2913 3003 
Q 3038 2828 3088 2588 
Q 3119 2431 3119 2041 
L 3119 0 
L 2556 0 
L 2556 2019 
Q 2556 2363 2490 2533 
Q 2425 2703 2258 2804 
Q 2091 2906 1866 2906 
Q 1506 2906 1245 2678 
Q 984 2450 984 1813 
L 984 0 
L 422 0 
z
" transform="scale(0.015625)"/>
      </defs>
      <use xlink:href="#ArialMT-30"/>
      <use xlink:href="#ArialMT-20" transform="translate(55.615234 0)"/>
      <use xlink:href="#ArialMT-6e" transform="translate(83.398438 0)"/>
      <use xlink:href="#ArialMT-4d" transform="translate(139.013672 0)"/>
     </g>
    </g>
    <g id="patch_14">
     <path d="M 237.504594 49.622812 
L 259.504594 49.622812 
L 259.504594 41.922812 
L 237.504594 41.922812 
z
" style="fill: #c180a8; opacity: 0.8; stroke: #ffffff; stroke-linejoin: miter"/>
    </g>
    <g id="text_16">
     <!-- 100 nM -->
     <g style="fill: #262626" transform="translate(268.304594 49.622812) scale(0.11 -0.11)">
      <use xlink:href="#ArialMT-31"/>
      <use xlink:href="#ArialMT-30" transform="translate(55.615234 0)"/>
      <use xlink:href="#ArialMT-30" transform="translate(111.230469 0)"/>
      <use xlink:href="#ArialMT-20" transform="translate(166.845703 0)"/>
      <use xlink:href="#ArialMT-6e" transform="translate(194.628906 0)"/>
      <use xlink:href="#ArialMT-4d" transform="translate(250.244141 0)"/>
     </g>
    </g>
   </g>
  </g>
 </g>
 <defs>
  <clipPath id="p6fca3db217">
   <rect x="63.004594" y="21.789375" width="162" height="117"/>
  </clipPath>
 </defs>
</svg>
