<?xml version="1.0" encoding="utf-8" standalone="no"?>
<!DOCTYPE svg PUBLIC "-//W3C//DTD SVG 1.1//EN"
  "http://www.w3.org/Graphics/SVG/1.1/DTD/svg11.dtd">
<svg xmlns:xlink="http://www.w3.org/1999/xlink" width="306.337969pt" height="150.959844pt" viewBox="0 0 306.337969 150.959844" xmlns="http://www.w3.org/2000/svg" version="1.1">
 <metadata>
  <rdf:RDF xmlns:dc="http://purl.org/dc/elements/1.1/" xmlns:cc="http://creativecommons.org/ns#" xmlns:rdf="http://www.w3.org/1999/02/22-rdf-syntax-ns#">
   <cc:Work>
    <dc:type rdf:resource="http://purl.org/dc/dcmitype/StillImage"/>
    <dc:date>2025-07-28T16:46:31.587030</dc:date>
    <dc:format>image/svg+xml</dc:format>
    <dc:creator>
     <cc:Agent>
      <dc:title>Matplotlib v3.10.3, https://matplotlib.org/</dc:title>
     </cc:Agent>
    </dc:creator>
   </cc:Work>
  </rdf:RDF>
 </metadata>
 <defs>
  <style type="text/css">*{stroke-linejoin: round; stroke-linecap: butt}</style>
 </defs>
 <g id="figure_1">
  <g id="patch_1">
   <path d="M 0 150.959844 
L 306.337969 150.959844 
L 306.337969 0 
L 0 0 
z
" style="fill: #ffffff"/>
  </g>
  <g id="axes_1">
   <g id="patch_2">
    <path d="M 55.812344 124.2 
L 217.812344 124.2 
L 217.812344 7.2 
L 55.812344 7.2 
z
" style="fill: #ffffff"/>
   </g>
   <g id="matplotlib.axis_1">
    <g id="xtick_1">
     <g id="line2d_1">
      <defs>
       <path id="m12ef6dfc22" d="M 0 0 
L 0 6 
" style="stroke: #262626; stroke-width: 1.25"/>
      </defs>
      <g>
       <use xlink:href="#m12ef6dfc22" x="96.312344" y="124.2" style="fill: #262626; stroke: #262626; stroke-width: 1.25"/>
      </g>
     </g>
     <g id="text_1">
      <!-- SDDIR -->
      <g style="fill: #262626" transform="translate(79.199609 141.573594) scale(0.11 -0.11)">
       <defs>
        <path id="ArialMT-53" d="M 288 1472 
L 859 1522 
Q 900 1178 1048 958 
Q 1197 738 1509 602 
Q 1822 466 2213 466 
Q 2559 466 2825 569 
Q 3091 672 3220 851 
Q 3350 1031 3350 1244 
Q 3350 1459 3225 1620 
Q 3100 1781 2813 1891 
Q 2628 1963 1997 2114 
Q 1366 2266 1113 2400 
Q 784 2572 623 2826 
Q 463 3081 463 3397 
Q 463 3744 659 4045 
Q 856 4347 1234 4503 
Q 1613 4659 2075 4659 
Q 2584 4659 2973 4495 
Q 3363 4331 3572 4012 
Q 3781 3694 3797 3291 
L 3216 3247 
Q 3169 3681 2898 3903 
Q 2628 4125 2100 4125 
Q 1550 4125 1298 3923 
Q 1047 3722 1047 3438 
Q 1047 3191 1225 3031 
Q 1400 2872 2139 2705 
Q 2878 2538 3153 2413 
Q 3553 2228 3743 1945 
Q 3934 1663 3934 1294 
Q 3934 928 3725 604 
Q 3516 281 3123 101 
Q 2731 -78 2241 -78 
Q 1619 -78 1198 103 
Q 778 284 539 648 
Q 300 1013 288 1472 
z
" transform="scale(0.015625)"/>
        <path id="ArialMT-44" d="M 494 0 
L 494 4581 
L 2072 4581 
Q 2606 4581 2888 4516 
Q 3281 4425 3559 4188 
Q 3922 3881 4101 3404 
Q 4281 2928 4281 2316 
Q 4281 1794 4159 1391 
Q 4038 988 3847 723 
Q 3656 459 3429 307 
Q 3203 156 2883 78 
Q 2563 0 2147 0 
L 494 0 
z
M 1100 541 
L 2078 541 
Q 2531 541 2789 625 
Q 3047 709 3200 863 
Q 3416 1078 3536 1442 
Q 3656 1806 3656 2325 
Q 3656 3044 3420 3430 
Q 3184 3816 2847 3947 
Q 2603 4041 2063 4041 
L 1100 4041 
L 1100 541 
z
" transform="scale(0.015625)"/>
        <path id="ArialMT-49" d="M 597 0 
L 597 4581 
L 1203 4581 
L 1203 0 
L 597 0 
z
" transform="scale(0.015625)"/>
        <path id="ArialMT-52" d="M 503 0 
L 503 4581 
L 2534 4581 
Q 3147 4581 3465 4457 
Q 3784 4334 3975 4021 
Q 4166 3709 4166 3331 
Q 4166 2844 3850 2509 
Q 3534 2175 2875 2084 
Q 3116 1969 3241 1856 
Q 3506 1613 3744 1247 
L 4541 0 
L 3778 0 
L 3172 953 
Q 2906 1366 2734 1584 
Q 2563 1803 2427 1890 
Q 2291 1978 2150 2013 
Q 2047 2034 1813 2034 
L 1109 2034 
L 1109 0 
L 503 0 
z
M 1109 2559 
L 2413 2559 
Q 2828 2559 3062 2645 
Q 3297 2731 3419 2920 
Q 3541 3109 3541 3331 
Q 3541 3656 3305 3865 
Q 3069 4075 2559 4075 
L 1109 4075 
L 1109 2559 
z
" transform="scale(0.015625)"/>
       </defs>
       <use xlink:href="#ArialMT-53"/>
       <use xlink:href="#ArialMT-44" transform="translate(66.699219 0)"/>
       <use xlink:href="#ArialMT-44" transform="translate(138.916016 0)"/>
       <use xlink:href="#ArialMT-49" transform="translate(211.132812 0)"/>
       <use xlink:href="#ArialMT-52" transform="translate(238.916016 0)"/>
      </g>
     </g>
    </g>
    <g id="xtick_2">
     <g id="line2d_2">
      <g>
       <use xlink:href="#m12ef6dfc22" x="177.312344" y="124.2" style="fill: #262626; stroke: #262626; stroke-width: 1.25"/>
      </g>
     </g>
     <g id="text_2">
      <!-- RISDD -->
      <g style="fill: #262626" transform="translate(160.199609 141.573594) scale(0.11 -0.11)">
       <use xlink:href="#ArialMT-52"/>
       <use xlink:href="#ArialMT-49" transform="translate(72.216797 0)"/>
       <use xlink:href="#ArialMT-53" transform="translate(100 0)"/>
       <use xlink:href="#ArialMT-44" transform="translate(166.699219 0)"/>
       <use xlink:href="#ArialMT-44" transform="translate(238.916016 0)"/>
      </g>
     </g>
    </g>
   </g>
   <g id="matplotlib.axis_2">
    <g id="ytick_1">
     <g id="line2d_3">
      <defs>
       <path id="m3fed67247a" d="M 0 0 
L -6 0 
" style="stroke: #262626; stroke-width: 1.25"/>
      </defs>
      <g>
       <use xlink:href="#m3fed67247a" x="55.812344" y="124.2" style="fill: #262626; stroke: #262626; stroke-width: 1.25"/>
      </g>
     </g>
     <g id="text_3">
      <!-- 0 -->
      <g style="fill: #262626" transform="translate(40.195312 128.136797) scale(0.11 -0.11)">
       <defs>
        <path id="ArialMT-30" d="M 266 2259 
Q 266 3072 433 3567 
Q 600 4063 929 4331 
Q 1259 4600 1759 4600 
Q 2128 4600 2406 4451 
Q 2684 4303 2865 4023 
Q 3047 3744 3150 3342 
Q 3253 2941 3253 2259 
Q 3253 1453 3087 958 
Q 2922 463 2592 192 
Q 2263 -78 1759 -78 
Q 1097 -78 719 397 
Q 266 969 266 2259 
z
M 844 2259 
Q 844 1131 1108 757 
Q 1372 384 1759 384 
Q 2147 384 2411 759 
Q 2675 1134 2675 2259 
Q 2675 3391 2411 3762 
Q 2147 4134 1753 4134 
Q 1366 4134 1134 3806 
Q 844 3388 844 2259 
z
" transform="scale(0.015625)"/>
       </defs>
       <use xlink:href="#ArialMT-30"/>
      </g>
     </g>
    </g>
    <g id="ytick_2">
     <g id="line2d_4">
      <g>
       <use xlink:href="#m3fed67247a" x="55.812344" y="77.688871" style="fill: #262626; stroke: #262626; stroke-width: 1.25"/>
      </g>
     </g>
     <g id="text_4">
      <!-- 50k -->
      <g style="fill: #262626" transform="translate(28.578281 81.625668) scale(0.11 -0.11)">
       <defs>
        <path id="ArialMT-35" d="M 266 1200 
L 856 1250 
Q 922 819 1161 601 
Q 1400 384 1738 384 
Q 2144 384 2425 690 
Q 2706 997 2706 1503 
Q 2706 1984 2436 2262 
Q 2166 2541 1728 2541 
Q 1456 2541 1237 2417 
Q 1019 2294 894 2097 
L 366 2166 
L 809 4519 
L 3088 4519 
L 3088 3981 
L 1259 3981 
L 1013 2750 
Q 1425 3038 1878 3038 
Q 2478 3038 2890 2622 
Q 3303 2206 3303 1553 
Q 3303 931 2941 478 
Q 2500 -78 1738 -78 
Q 1113 -78 717 272 
Q 322 622 266 1200 
z
" transform="scale(0.015625)"/>
        <path id="ArialMT-6b" d="M 425 0 
L 425 4581 
L 988 4581 
L 988 1969 
L 2319 3319 
L 3047 3319 
L 1778 2088 
L 3175 0 
L 2481 0 
L 1384 1697 
L 988 1316 
L 988 0 
L 425 0 
z
" transform="scale(0.015625)"/>
       </defs>
       <use xlink:href="#ArialMT-35"/>
       <use xlink:href="#ArialMT-30" transform="translate(55.615234 0)"/>
       <use xlink:href="#ArialMT-6b" transform="translate(111.230469 0)"/>
      </g>
     </g>
    </g>
    <g id="ytick_3">
     <g id="line2d_5">
      <g>
       <use xlink:href="#m3fed67247a" x="55.812344" y="31.177743" style="fill: #262626; stroke: #262626; stroke-width: 1.25"/>
      </g>
     </g>
     <g id="text_5">
      <!-- 100k -->
      <g style="fill: #262626" transform="translate(22.46125 35.11454) scale(0.11 -0.11)">
       <defs>
        <path id="ArialMT-31" d="M 2384 0 
L 1822 0 
L 1822 3584 
Q 1619 3391 1289 3197 
Q 959 3003 697 2906 
L 697 3450 
Q 1169 3672 1522 3987 
Q 1875 4303 2022 4600 
L 2384 4600 
L 2384 0 
z
" transform="scale(0.015625)"/>
       </defs>
       <use xlink:href="#ArialMT-31"/>
       <use xlink:href="#ArialMT-30" transform="translate(55.615234 0)"/>
       <use xlink:href="#ArialMT-30" transform="translate(111.230469 0)"/>
       <use xlink:href="#ArialMT-6b" transform="translate(166.845703 0)"/>
      </g>
     </g>
    </g>
    <g id="text_6">
     <!-- Single Cells Count -->
     <g style="fill: #262626" transform="translate(15.935625 115.0575) rotate(-90) scale(0.12 -0.12)">
      <defs>
       <path id="ArialMT-69" d="M 425 3934 
L 425 4581 
L 988 4581 
L 988 3934 
L 425 3934 
z
M 425 0 
L 425 3319 
L 988 3319 
L 988 0 
L 425 0 
z
" transform="scale(0.015625)"/>
       <path id="ArialMT-6e" d="M 422 0 
L 422 3319 
L 928 3319 
L 928 2847 
Q 1294 3394 1984 3394 
Q 2284 3394 2536 3286 
Q 2788 3178 2913 3003 
Q 3038 2828 3088 2588 
Q 3119 2431 3119 2041 
L 3119 0 
L 2556 0 
L 2556 2019 
Q 2556 2363 2490 2533 
Q 2425 2703 2258 2804 
Q 2091 2906 1866 2906 
Q 1506 2906 1245 2678 
Q 984 2450 984 1813 
L 984 0 
L 422 0 
z
" transform="scale(0.015625)"/>
       <path id="ArialMT-67" d="M 319 -275 
L 866 -356 
Q 900 -609 1056 -725 
Q 1266 -881 1628 -881 
Q 2019 -881 2231 -725 
Q 2444 -569 2519 -288 
Q 2563 -116 2559 434 
Q 2191 0 1641 0 
Q 956 0 581 494 
Q 206 988 206 1678 
Q 206 2153 378 2554 
Q 550 2956 876 3175 
Q 1203 3394 1644 3394 
Q 2231 3394 2613 2919 
L 2613 3319 
L 3131 3319 
L 3131 450 
Q 3131 -325 2973 -648 
Q 2816 -972 2473 -1159 
Q 2131 -1347 1631 -1347 
Q 1038 -1347 672 -1080 
Q 306 -813 319 -275 
z
M 784 1719 
Q 784 1066 1043 766 
Q 1303 466 1694 466 
Q 2081 466 2343 764 
Q 2606 1063 2606 1700 
Q 2606 2309 2336 2618 
Q 2066 2928 1684 2928 
Q 1309 2928 1046 2623 
Q 784 2319 784 1719 
z
" transform="scale(0.015625)"/>
       <path id="ArialMT-6c" d="M 409 0 
L 409 4581 
L 972 4581 
L 972 0 
L 409 0 
z
" transform="scale(0.015625)"/>
       <path id="ArialMT-65" d="M 2694 1069 
L 3275 997 
Q 3138 488 2766 206 
Q 2394 -75 1816 -75 
Q 1088 -75 661 373 
Q 234 822 234 1631 
Q 234 2469 665 2931 
Q 1097 3394 1784 3394 
Q 2450 3394 2872 2941 
Q 3294 2488 3294 1666 
Q 3294 1616 3291 1516 
L 816 1516 
Q 847 969 1125 678 
Q 1403 388 1819 388 
Q 2128 388 2347 550 
Q 2566 713 2694 1069 
z
M 847 1978 
L 2700 1978 
Q 2663 2397 2488 2606 
Q 2219 2931 1791 2931 
Q 1403 2931 1139 2672 
Q 875 2413 847 1978 
z
" transform="scale(0.015625)"/>
       <path id="ArialMT-20" transform="scale(0.015625)"/>
       <path id="ArialMT-43" d="M 3763 1606 
L 4369 1453 
Q 4178 706 3683 314 
Q 3188 -78 2472 -78 
Q 1731 -78 1267 223 
Q 803 525 561 1097 
Q 319 1669 319 2325 
Q 319 3041 592 3573 
Q 866 4106 1370 4382 
Q 1875 4659 2481 4659 
Q 3169 4659 3637 4309 
Q 4106 3959 4291 3325 
L 3694 3184 
Q 3534 3684 3231 3912 
Q 2928 4141 2469 4141 
Q 1941 4141 1586 3887 
Q 1231 3634 1087 3207 
Q 944 2781 944 2328 
Q 944 1744 1114 1308 
Q 1284 872 1643 656 
Q 2003 441 2422 441 
Q 2931 441 3284 734 
Q 3638 1028 3763 1606 
z
" transform="scale(0.015625)"/>
       <path id="ArialMT-73" d="M 197 991 
L 753 1078 
Q 800 744 1014 566 
Q 1228 388 1613 388 
Q 2000 388 2187 545 
Q 2375 703 2375 916 
Q 2375 1106 2209 1216 
Q 2094 1291 1634 1406 
Q 1016 1563 777 1677 
Q 538 1791 414 1992 
Q 291 2194 291 2438 
Q 291 2659 392 2848 
Q 494 3038 669 3163 
Q 800 3259 1026 3326 
Q 1253 3394 1513 3394 
Q 1903 3394 2198 3281 
Q 2494 3169 2634 2976 
Q 2775 2784 2828 2463 
L 2278 2388 
Q 2241 2644 2061 2787 
Q 1881 2931 1553 2931 
Q 1166 2931 1000 2803 
Q 834 2675 834 2503 
Q 834 2394 903 2306 
Q 972 2216 1119 2156 
Q 1203 2125 1616 2013 
Q 2213 1853 2448 1751 
Q 2684 1650 2818 1456 
Q 2953 1263 2953 975 
Q 2953 694 2789 445 
Q 2625 197 2315 61 
Q 2006 -75 1616 -75 
Q 969 -75 630 194 
Q 291 463 197 991 
z
" transform="scale(0.015625)"/>
       <path id="ArialMT-6f" d="M 213 1659 
Q 213 2581 725 3025 
Q 1153 3394 1769 3394 
Q 2453 3394 2887 2945 
Q 3322 2497 3322 1706 
Q 3322 1066 3130 698 
Q 2938 331 2570 128 
Q 2203 -75 1769 -75 
Q 1072 -75 642 372 
Q 213 819 213 1659 
z
M 791 1659 
Q 791 1022 1069 705 
Q 1347 388 1769 388 
Q 2188 388 2466 706 
Q 2744 1025 2744 1678 
Q 2744 2294 2464 2611 
Q 2184 2928 1769 2928 
Q 1347 2928 1069 2612 
Q 791 2297 791 1659 
z
" transform="scale(0.015625)"/>
       <path id="ArialMT-75" d="M 2597 0 
L 2597 488 
Q 2209 -75 1544 -75 
Q 1250 -75 995 37 
Q 741 150 617 320 
Q 494 491 444 738 
Q 409 903 409 1263 
L 409 3319 
L 972 3319 
L 972 1478 
Q 972 1038 1006 884 
Q 1059 663 1231 536 
Q 1403 409 1656 409 
Q 1909 409 2131 539 
Q 2353 669 2445 892 
Q 2538 1116 2538 1541 
L 2538 3319 
L 3100 3319 
L 3100 0 
L 2597 0 
z
" transform="scale(0.015625)"/>
       <path id="ArialMT-74" d="M 1650 503 
L 1731 6 
Q 1494 -44 1306 -44 
Q 1000 -44 831 53 
Q 663 150 594 308 
Q 525 466 525 972 
L 525 2881 
L 113 2881 
L 113 3319 
L 525 3319 
L 525 4141 
L 1084 4478 
L 1084 3319 
L 1650 3319 
L 1650 2881 
L 1084 2881 
L 1084 941 
Q 1084 700 1114 631 
Q 1144 563 1211 522 
Q 1278 481 1403 481 
Q 1497 481 1650 503 
z
" transform="scale(0.015625)"/>
      </defs>
      <use xlink:href="#ArialMT-53"/>
      <use xlink:href="#ArialMT-69" transform="translate(66.699219 0)"/>
      <use xlink:href="#ArialMT-6e" transform="translate(88.916016 0)"/>
      <use xlink:href="#ArialMT-67" transform="translate(144.53125 0)"/>
      <use xlink:href="#ArialMT-6c" transform="translate(200.146484 0)"/>
      <use xlink:href="#ArialMT-65" transform="translate(222.363281 0)"/>
      <use xlink:href="#ArialMT-20" transform="translate(277.978516 0)"/>
      <use xlink:href="#ArialMT-43" transform="translate(305.761719 0)"/>
      <use xlink:href="#ArialMT-65" transform="translate(377.978516 0)"/>
      <use xlink:href="#ArialMT-6c" transform="translate(433.59375 0)"/>
      <use xlink:href="#ArialMT-6c" transform="translate(455.810547 0)"/>
      <use xlink:href="#ArialMT-73" transform="translate(478.027344 0)"/>
      <use xlink:href="#ArialMT-20" transform="translate(528.027344 0)"/>
      <use xlink:href="#ArialMT-43" transform="translate(555.810547 0)"/>
      <use xlink:href="#ArialMT-6f" transform="translate(628.027344 0)"/>
      <use xlink:href="#ArialMT-75" transform="translate(683.642578 0)"/>
      <use xlink:href="#ArialMT-6e" transform="translate(739.257812 0)"/>
      <use xlink:href="#ArialMT-74" transform="translate(794.873047 0)"/>
     </g>
    </g>
   </g>
   <g id="patch_3">
    <path d="M 63.912344 124.2 
L 76.872344 124.2 
L 76.872344 35.560435 
L 63.912344 35.560435 
z
" clip-path="url(#p782772e065)" style="fill: #4b4279; opacity: 0.8; stroke: #ffffff; stroke-linejoin: miter"/>
   </g>
   <g id="patch_4">
    <path d="M 144.912344 124.2 
L 157.872344 124.2 
L 157.872344 108.65288 
L 144.912344 108.65288 
z
" clip-path="url(#p782772e065)" style="fill: #4b4279; opacity: 0.8; stroke: #ffffff; stroke-linejoin: miter"/>
   </g>
   <g id="patch_5">
    <path d="M 76.872344 124.2 
L 89.832344 124.2 
L 89.832344 36.441665 
L 76.872344 36.441665 
z
" clip-path="url(#p782772e065)" style="fill: #3c6682; opacity: 0.8; stroke: #ffffff; stroke-linejoin: miter"/>
   </g>
   <g id="patch_6">
    <path d="M 157.872344 124.2 
L 170.832344 124.2 
L 170.832344 109.518814 
L 157.872344 109.518814 
z
" clip-path="url(#p782772e065)" style="fill: #3c6682; opacity: 0.8; stroke: #ffffff; stroke-linejoin: miter"/>
   </g>
   <g id="patch_7">
    <path d="M 89.832344 124.2 
L 102.792344 124.2 
L 102.792344 54.97325 
L 89.832344 54.97325 
z
" clip-path="url(#p782772e065)" style="fill: #2f837f; opacity: 0.8; stroke: #ffffff; stroke-linejoin: miter"/>
   </g>
   <g id="patch_8">
    <path d="M 170.832344 124.2 
L 183.792344 124.2 
L 183.792344 112.700937 
L 170.832344 112.700937 
z
" clip-path="url(#p782772e065)" style="fill: #2f837f; opacity: 0.8; stroke: #ffffff; stroke-linejoin: miter"/>
   </g>
   <g id="patch_9">
    <path d="M 102.792344 124.2 
L 115.752344 124.2 
L 115.752344 67.103972 
L 102.792344 67.103972 
z
" clip-path="url(#p782772e065)" style="fill: #45a778; opacity: 0.8; stroke: #ffffff; stroke-linejoin: miter"/>
   </g>
   <g id="patch_10">
    <path d="M 183.792344 124.2 
L 196.752344 124.2 
L 196.752344 116.681011 
L 183.792344 116.681011 
z
" clip-path="url(#p782772e065)" style="fill: #45a778; opacity: 0.8; stroke: #ffffff; stroke-linejoin: miter"/>
   </g>
   <g id="patch_11">
    <path d="M 115.752344 124.2 
L 128.712344 124.2 
L 128.712344 85.297058 
L 115.752344 85.297058 
z
" clip-path="url(#p782772e065)" style="fill: #8fc456; opacity: 0.8; stroke: #ffffff; stroke-linejoin: miter"/>
   </g>
   <g id="patch_12">
    <path d="M 196.752344 124.2 
L 209.712344 124.2 
L 209.712344 123.513496 
L 196.752344 123.513496 
z
" clip-path="url(#p782772e065)" style="fill: #8fc456; opacity: 0.8; stroke: #ffffff; stroke-linejoin: miter"/>
   </g>
   <g id="line2d_6">
    <path d="M 70.392344 45.735323 
L 70.392344 25.393784 
" clip-path="url(#p782772e065)" style="fill: none; stroke: #424242; stroke-width: 2.7; stroke-linecap: round"/>
   </g>
   <g id="line2d_7">
    <path d="M 151.392344 109.519876 
L 151.392344 107.762251 
" clip-path="url(#p782772e065)" style="fill: none; stroke: #424242; stroke-width: 2.7; stroke-linecap: round"/>
   </g>
   <g id="line2d_8">
    <path d="M 83.352344 45.120539 
L 83.352344 27.594505 
" clip-path="url(#p782772e065)" style="fill: none; stroke: #424242; stroke-width: 2.7; stroke-linecap: round"/>
   </g>
   <g id="line2d_9">
    <path d="M 164.352344 110.950488 
L 164.352344 108.185684 
" clip-path="url(#p782772e065)" style="fill: none; stroke: #424242; stroke-width: 2.7; stroke-linecap: round"/>
   </g>
   <g id="line2d_10">
    <path d="M 96.312344 63.921159 
L 96.312344 45.66367 
" clip-path="url(#p782772e065)" style="fill: none; stroke: #424242; stroke-width: 2.7; stroke-linecap: round"/>
   </g>
   <g id="line2d_11">
    <path d="M 177.312344 113.941223 
L 177.312344 111.366074 
" clip-path="url(#p782772e065)" style="fill: none; stroke: #424242; stroke-width: 2.7; stroke-linecap: round"/>
   </g>
   <g id="line2d_12">
    <path d="M 109.272344 75.533039 
L 109.272344 58.145957 
" clip-path="url(#p782772e065)" style="fill: none; stroke: #424242; stroke-width: 2.7; stroke-linecap: round"/>
   </g>
   <g id="line2d_13">
    <path d="M 190.272344 117.391184 
L 190.272344 115.83979 
" clip-path="url(#p782772e065)" style="fill: none; stroke: #424242; stroke-width: 2.7; stroke-linecap: round"/>
   </g>
   <g id="line2d_14">
    <path d="M 122.232344 92.280751 
L 122.232344 78.543361 
" clip-path="url(#p782772e065)" style="fill: none; stroke: #424242; stroke-width: 2.7; stroke-linecap: round"/>
   </g>
   <g id="line2d_15">
    <path d="M 203.232344 123.636068 
L 203.232344 123.37829 
" clip-path="url(#p782772e065)" style="fill: none; stroke: #424242; stroke-width: 2.7; stroke-linecap: round"/>
   </g>
   <g id="patch_13">
    <path d="M 55.812344 124.2 
L 55.812344 7.2 
" style="fill: none; stroke: #262626; stroke-width: 1.25; stroke-linejoin: miter; stroke-linecap: square"/>
   </g>
   <g id="patch_14">
    <path d="M 217.812344 124.2 
L 217.812344 7.2 
" style="fill: none; stroke: #262626; stroke-width: 1.25; stroke-linejoin: miter; stroke-linecap: square"/>
   </g>
   <g id="patch_15">
    <path d="M 55.812344 124.2 
L 217.812344 124.2 
" style="fill: none; stroke: #262626; stroke-width: 1.25; stroke-linejoin: miter; stroke-linecap: square"/>
   </g>
   <g id="patch_16">
    <path d="M 55.812344 7.2 
L 217.812344 7.2 
" style="fill: none; stroke: #262626; stroke-width: 1.25; stroke-linejoin: miter; stroke-linecap: square"/>
   </g>
   <g id="PathCollection_1">
    <defs>
     <path id="C0_0_22da10a8a2" d="M 0 2.5 
C 0.663008 2.5 1.29895 2.236584 1.767767 1.767767 
C 2.236584 1.29895 2.5 0.663008 2.5 -0 
C 2.5 -0.663008 2.236584 -1.29895 1.767767 -1.767767 
C 1.29895 -2.236584 0.663008 -2.5 0 -2.5 
C -0.663008 -2.5 -1.29895 -2.236584 -1.767767 -1.767767 
C -2.236584 -1.29895 -2.5 -0.663008 -2.5 0 
C -2.5 0.663008 -2.236584 1.29895 -1.767767 1.767767 
C -1.29895 2.236584 -0.663008 2.5 0 2.5 
z
"/>
    </defs>
    <g clip-path="url(#p782772e065)">
     <use xlink:href="#C0_0_22da10a8a2" x="69.528338" y="12.771429" style="fill: #ffffff; stroke: #000000; stroke-width: 0.4"/>
    </g>
    <g clip-path="url(#p782772e065)">
     <use xlink:href="#C0_0_22da10a8a2" x="69.192179" y="14.098856" style="fill: #ffffff; stroke: #000000; stroke-width: 0.4"/>
    </g>
    <g clip-path="url(#p782772e065)">
     <use xlink:href="#C0_0_22da10a8a2" x="69.439646" y="19.38159" style="fill: #ffffff; stroke: #000000; stroke-width: 0.4"/>
    </g>
   </g>
   <g id="PathCollection_2">
    <defs>
     <path id="C1_0_ec734e449d" d="M 0 2.5 
C 0.663008 2.5 1.29895 2.236584 1.767767 1.767767 
C 2.236584 1.29895 2.5 0.663008 2.5 -0 
C 2.5 -0.663008 2.236584 -1.29895 1.767767 -1.767767 
C 1.29895 -2.236584 0.663008 -2.5 0 -2.5 
C -0.663008 -2.5 -1.29895 -2.236584 -1.767767 -1.767767 
C -2.236584 -1.29895 -2.5 -0.663008 -2.5 0 
C -2.5 0.663008 -2.236584 1.29895 -1.767767 1.767767 
C -1.29895 2.236584 -0.663008 2.5 0 2.5 
z
"/>
    </defs>
    <g clip-path="url(#p782772e065)">
     <use xlink:href="#C1_0_ec734e449d" x="82.375113" y="18.613226" style="fill: #ffffff; stroke: #000000; stroke-width: 0.4"/>
    </g>
    <g clip-path="url(#p782772e065)">
     <use xlink:href="#C1_0_ec734e449d" x="82.499591" y="18.527646" style="fill: #ffffff; stroke: #000000; stroke-width: 0.4"/>
    </g>
    <g clip-path="url(#p782772e065)">
     <use xlink:href="#C1_0_ec734e449d" x="84.542486" y="23.678288" style="fill: #ffffff; stroke: #000000; stroke-width: 0.4"/>
    </g>
   </g>
   <g id="PathCollection_3">
    <defs>
     <path id="C2_0_c79a32c81c" d="M 0 2.5 
C 0.663008 2.5 1.29895 2.236584 1.767767 1.767767 
C 2.236584 1.29895 2.5 0.663008 2.5 -0 
C 2.5 -0.663008 2.236584 -1.29895 1.767767 -1.767767 
C 1.29895 -2.236584 0.663008 -2.5 0 -2.5 
C -0.663008 -2.5 -1.29895 -2.236584 -1.767767 -1.767767 
C -2.236584 -1.29895 -2.5 -0.663008 -2.5 0 
C -2.5 0.663008 -2.236584 1.29895 -1.767767 1.767767 
C -1.29895 2.236584 -0.663008 2.5 0 2.5 
z
"/>
    </defs>
    <g clip-path="url(#p782772e065)">
     <use xlink:href="#C2_0_c79a32c81c" x="94.990924" y="31.506111" style="fill: #ffffff; stroke: #000000; stroke-width: 0.4"/>
    </g>
    <g clip-path="url(#p782772e065)">
     <use xlink:href="#C2_0_c79a32c81c" x="95.171685" y="40.332993" style="fill: #ffffff; stroke: #000000; stroke-width: 0.4"/>
    </g>
    <g clip-path="url(#p782772e065)">
     <use xlink:href="#C2_0_c79a32c81c" x="95.572483" y="38.572082" style="fill: #ffffff; stroke: #000000; stroke-width: 0.4"/>
    </g>
   </g>
   <g id="PathCollection_4">
    <defs>
     <path id="C3_0_31e6670905" d="M 0 2.5 
C 0.663008 2.5 1.29895 2.236584 1.767767 1.767767 
C 2.236584 1.29895 2.5 0.663008 2.5 -0 
C 2.5 -0.663008 2.236584 -1.29895 1.767767 -1.767767 
C 1.29895 -2.236584 0.663008 -2.5 0 -2.5 
C -0.663008 -2.5 -1.29895 -2.236584 -1.767767 -1.767767 
C -2.236584 -1.29895 -2.5 -0.663008 -2.5 0 
C -2.5 0.663008 -2.236584 1.29895 -1.767767 1.767767 
C -1.29895 2.236584 -0.663008 2.5 0 2.5 
z
"/>
    </defs>
    <g clip-path="url(#p782772e065)">
     <use xlink:href="#C3_0_31e6670905" x="108.817584" y="53.545875" style="fill: #ffffff; stroke: #000000; stroke-width: 0.4"/>
    </g>
    <g clip-path="url(#p782772e065)">
     <use xlink:href="#C3_0_31e6670905" x="109.387372" y="47.982213" style="fill: #ffffff; stroke: #000000; stroke-width: 0.4"/>
    </g>
    <g clip-path="url(#p782772e065)">
     <use xlink:href="#C3_0_31e6670905" x="109.271803" y="49.713358" style="fill: #ffffff; stroke: #000000; stroke-width: 0.4"/>
    </g>
   </g>
   <g id="PathCollection_5">
    <defs>
     <path id="C4_0_d2284b89a3" d="M 0 2.5 
C 0.663008 2.5 1.29895 2.236584 1.767767 1.767767 
C 2.236584 1.29895 2.5 0.663008 2.5 -0 
C 2.5 -0.663008 2.236584 -1.29895 1.767767 -1.767767 
C 1.29895 -2.236584 0.663008 -2.5 0 -2.5 
C -0.663008 -2.5 -1.29895 -2.236584 -1.767767 -1.767767 
C -2.236584 -1.29895 -2.5 -0.663008 -2.5 0 
C -2.5 0.663008 -2.236584 1.29895 -1.767767 1.767767 
C -1.29895 2.236584 -0.663008 2.5 0 2.5 
z
"/>
    </defs>
    <g clip-path="url(#p782772e065)">
     <use xlink:href="#C4_0_d2284b89a3" x="120.63617" y="77.511199" style="fill: #ffffff; stroke: #000000; stroke-width: 0.4"/>
    </g>
    <g clip-path="url(#p782772e065)">
     <use xlink:href="#C4_0_d2284b89a3" x="123.127356" y="74.803321" style="fill: #ffffff; stroke: #000000; stroke-width: 0.4"/>
    </g>
    <g clip-path="url(#p782772e065)">
     <use xlink:href="#C4_0_d2284b89a3" x="122.159039" y="67.301076" style="fill: #ffffff; stroke: #000000; stroke-width: 0.4"/>
    </g>
   </g>
   <g id="PathCollection_6">
    <defs>
     <path id="C5_0_c54df0ee46" d="M 0 2.5 
C 0.663008 2.5 1.29895 2.236584 1.767767 1.767767 
C 2.236584 1.29895 2.5 0.663008 2.5 -0 
C 2.5 -0.663008 2.236584 -1.29895 1.767767 -1.767767 
C 1.29895 -2.236584 0.663008 -2.5 0 -2.5 
C -0.663008 -2.5 -1.29895 -2.236584 -1.767767 -1.767767 
C -2.236584 -1.29895 -2.5 -0.663008 -2.5 0 
C -2.5 0.663008 -2.236584 1.29895 -1.767767 1.767767 
C -1.29895 2.236584 -0.663008 2.5 0 2.5 
z
"/>
    </defs>
    <g clip-path="url(#p782772e065)">
     <use xlink:href="#C5_0_c54df0ee46" x="150.96886" y="109.48853" style="fill: #ffffff; stroke: #000000; stroke-width: 0.4"/>
    </g>
    <g clip-path="url(#p782772e065)">
     <use xlink:href="#C5_0_c54df0ee46" x="152.269716" y="109.180626" style="fill: #ffffff; stroke: #000000; stroke-width: 0.4"/>
    </g>
    <g clip-path="url(#p782772e065)">
     <use xlink:href="#C5_0_c54df0ee46" x="152.798554" y="108.644818" style="fill: #ffffff; stroke: #000000; stroke-width: 0.4"/>
    </g>
   </g>
   <g id="PathCollection_7">
    <defs>
     <path id="C6_0_45dcede182" d="M 0 2.5 
C 0.663008 2.5 1.29895 2.236584 1.767767 1.767767 
C 2.236584 1.29895 2.5 0.663008 2.5 -0 
C 2.5 -0.663008 2.236584 -1.29895 1.767767 -1.767767 
C 1.29895 -2.236584 0.663008 -2.5 0 -2.5 
C -0.663008 -2.5 -1.29895 -2.236584 -1.767767 -1.767767 
C -2.236584 -1.29895 -2.5 -0.663008 -2.5 0 
C -2.5 0.663008 -2.236584 1.29895 -1.767767 1.767767 
C -1.29895 2.236584 -0.663008 2.5 0 2.5 
z
"/>
    </defs>
    <g clip-path="url(#p782772e065)">
     <use xlink:href="#C6_0_45dcede182" x="164.400871" y="110.244801" style="fill: #ffffff; stroke: #000000; stroke-width: 0.4"/>
    </g>
    <g clip-path="url(#p782772e065)">
     <use xlink:href="#C6_0_45dcede182" x="162.866333" y="108.355519" style="fill: #ffffff; stroke: #000000; stroke-width: 0.4"/>
    </g>
    <g clip-path="url(#p782772e065)">
     <use xlink:href="#C6_0_45dcede182" x="165.400185" y="107.761107" style="fill: #ffffff; stroke: #000000; stroke-width: 0.4"/>
    </g>
   </g>
   <g id="PathCollection_8">
    <defs>
     <path id="C7_0_60963fbda0" d="M 0 2.5 
C 0.663008 2.5 1.29895 2.236584 1.767767 1.767767 
C 2.236584 1.29895 2.5 0.663008 2.5 -0 
C 2.5 -0.663008 2.236584 -1.29895 1.767767 -1.767767 
C 1.29895 -2.236584 0.663008 -2.5 0 -2.5 
C -0.663008 -2.5 -1.29895 -2.236584 -1.767767 -1.767767 
C -2.236584 -1.29895 -2.5 -0.663008 -2.5 0 
C -2.5 0.663008 -2.236584 1.29895 -1.767767 1.767767 
C -1.29895 2.236584 -0.663008 2.5 0 2.5 
z
"/>
    </defs>
    <g clip-path="url(#p782772e065)">
     <use xlink:href="#C7_0_60963fbda0" x="178.366129" y="111.068978" style="fill: #ffffff; stroke: #000000; stroke-width: 0.4"/>
    </g>
    <g clip-path="url(#p782772e065)">
     <use xlink:href="#C7_0_60963fbda0" x="178.454236" y="114.140573" style="fill: #ffffff; stroke: #000000; stroke-width: 0.4"/>
    </g>
    <g clip-path="url(#p782772e065)">
     <use xlink:href="#C7_0_60963fbda0" x="176.604505" y="109.670854" style="fill: #ffffff; stroke: #000000; stroke-width: 0.4"/>
    </g>
   </g>
   <g id="PathCollection_9">
    <defs>
     <path id="C8_0_e732a4bffe" d="M 0 2.5 
C 0.663008 2.5 1.29895 2.236584 1.767767 1.767767 
C 2.236584 1.29895 2.5 0.663008 2.5 -0 
C 2.5 -0.663008 2.236584 -1.29895 1.767767 -1.767767 
C 1.29895 -2.236584 0.663008 -2.5 0 -2.5 
C -0.663008 -2.5 -1.29895 -2.236584 -1.767767 -1.767767 
C -2.236584 -1.29895 -2.5 -0.663008 -2.5 0 
C -2.5 0.663008 -2.236584 1.29895 -1.767767 1.767767 
C -1.29895 2.236584 -0.663008 2.5 0 2.5 
z
"/>
    </defs>
    <g clip-path="url(#p782772e065)">
     <use xlink:href="#C8_0_e732a4bffe" x="188.814665" y="116.936822" style="fill: #ffffff; stroke: #000000; stroke-width: 0.4"/>
    </g>
    <g clip-path="url(#p782772e065)">
     <use xlink:href="#C8_0_e732a4bffe" x="188.817574" y="115.602883" style="fill: #ffffff; stroke: #000000; stroke-width: 0.4"/>
    </g>
    <g clip-path="url(#p782772e065)">
     <use xlink:href="#C8_0_e732a4bffe" x="188.678342" y="114.072667" style="fill: #ffffff; stroke: #000000; stroke-width: 0.4"/>
    </g>
   </g>
   <g id="PathCollection_10">
    <defs>
     <path id="C9_0_7d52b51bd4" d="M 0 2.5 
C 0.663008 2.5 1.29895 2.236584 1.767767 1.767767 
C 2.236584 1.29895 2.5 0.663008 2.5 -0 
C 2.5 -0.663008 2.236584 -1.29895 1.767767 -1.767767 
C 1.29895 -2.236584 0.663008 -2.5 0 -2.5 
C -0.663008 -2.5 -1.29895 -2.236584 -1.767767 -1.767767 
C -2.236584 -1.29895 -2.5 -0.663008 -2.5 0 
C -2.5 0.663008 -2.236584 1.29895 -1.767767 1.767767 
C -1.29895 2.236584 -0.663008 2.5 0 2.5 
z
"/>
    </defs>
    <g clip-path="url(#p782772e065)">
     <use xlink:href="#C9_0_7d52b51bd4" x="201.894597" y="123.576751" style="fill: #ffffff; stroke: #000000; stroke-width: 0.4"/>
    </g>
    <g clip-path="url(#p782772e065)">
     <use xlink:href="#C9_0_7d52b51bd4" x="202.765586" y="123.7414" style="fill: #ffffff; stroke: #000000; stroke-width: 0.4"/>
    </g>
    <g clip-path="url(#p782772e065)">
     <use xlink:href="#C9_0_7d52b51bd4" x="202.844635" y="123.686517" style="fill: #ffffff; stroke: #000000; stroke-width: 0.4"/>
    </g>
   </g>
   <g id="PathCollection_11">
    <path d="M 69.920153 31.487945 
L 67.420153 36.487945 
L 72.420153 36.487945 
z
" clip-path="url(#p782772e065)" style="fill: #ffffff; stroke: #000000; stroke-width: 0.4"/>
    <path d="M 69.25429 35.546506 
L 66.75429 40.546506 
L 71.75429 40.546506 
z
" clip-path="url(#p782772e065)" style="fill: #ffffff; stroke: #000000; stroke-width: 0.4"/>
    <path d="M 71.157755 34.256287 
L 68.657755 39.256287 
L 73.657755 39.256287 
z
" clip-path="url(#p782772e065)" style="fill: #ffffff; stroke: #000000; stroke-width: 0.4"/>
   </g>
   <g id="PathCollection_12">
    <path d="M 83.52933 21.973629 
L 81.02933 26.973629 
L 86.02933 26.973629 
z
" clip-path="url(#p782772e065)" style="fill: #ffffff; stroke: #000000; stroke-width: 0.4"/>
    <path d="M 81.973537 40.443198 
L 79.473537 45.443198 
L 84.473537 45.443198 
z
" clip-path="url(#p782772e065)" style="fill: #ffffff; stroke: #000000; stroke-width: 0.4"/>
    <path d="M 82.073468 39.781809 
L 79.573468 44.781809 
L 84.573468 44.781809 
z
" clip-path="url(#p782772e065)" style="fill: #ffffff; stroke: #000000; stroke-width: 0.4"/>
   </g>
   <g id="PathCollection_13">
    <path d="M 97.628308 75.68375 
L 95.128308 80.68375 
L 100.128308 80.68375 
z
" clip-path="url(#p782772e065)" style="fill: #ffffff; stroke: #000000; stroke-width: 0.4"/>
    <path d="M 96.370259 62.846678 
L 93.870259 67.846678 
L 98.870259 67.846678 
z
" clip-path="url(#p782772e065)" style="fill: #ffffff; stroke: #000000; stroke-width: 0.4"/>
    <path d="M 95.76503 60.579726 
L 93.26503 65.579726 
L 98.26503 65.579726 
z
" clip-path="url(#p782772e065)" style="fill: #ffffff; stroke: #000000; stroke-width: 0.4"/>
   </g>
   <g id="PathCollection_14">
    <path d="M 110.086547 82.074379 
L 107.586547 87.074379 
L 112.586547 87.074379 
z
" clip-path="url(#p782772e065)" style="fill: #ffffff; stroke: #000000; stroke-width: 0.4"/>
    <path d="M 107.770979 79.831612 
L 105.270979 84.831612 
L 110.270979 84.831612 
z
" clip-path="url(#p782772e065)" style="fill: #ffffff; stroke: #000000; stroke-width: 0.4"/>
    <path d="M 110.888562 79.845566 
L 108.388562 84.845566 
L 113.388562 84.845566 
z
" clip-path="url(#p782772e065)" style="fill: #ffffff; stroke: #000000; stroke-width: 0.4"/>
   </g>
   <g id="PathCollection_15">
    <path d="M 122.775177 92.290083 
L 120.275177 97.290083 
L 125.275177 97.290083 
z
" clip-path="url(#p782772e065)" style="fill: #ffffff; stroke: #000000; stroke-width: 0.4"/>
    <path d="M 123.615974 97.272355 
L 121.115974 102.272355 
L 126.115974 102.272355 
z
" clip-path="url(#p782772e065)" style="fill: #ffffff; stroke: #000000; stroke-width: 0.4"/>
    <path d="M 121.470863 96.801663 
L 118.970863 101.801663 
L 123.970863 101.801663 
z
" clip-path="url(#p782772e065)" style="fill: #ffffff; stroke: #000000; stroke-width: 0.4"/>
   </g>
   <g id="PathCollection_16">
    <path d="M 152.25164 104.621114 
L 149.75164 109.621114 
L 154.75164 109.621114 
z
" clip-path="url(#p782772e065)" style="fill: #ffffff; stroke: #000000; stroke-width: 0.4"/>
    <path d="M 152.31813 102.988573 
L 149.81813 107.988573 
L 154.81813 107.988573 
z
" clip-path="url(#p782772e065)" style="fill: #ffffff; stroke: #000000; stroke-width: 0.4"/>
    <path d="M 150.785334 108.188517 
L 148.285334 113.188517 
L 153.285334 113.188517 
z
" clip-path="url(#p782772e065)" style="fill: #ffffff; stroke: #000000; stroke-width: 0.4"/>
   </g>
   <g id="PathCollection_17">
    <path d="M 163.297397 107.36341 
L 160.797397 112.36341 
L 165.797397 112.36341 
z
" clip-path="url(#p782772e065)" style="fill: #ffffff; stroke: #000000; stroke-width: 0.4"/>
    <path d="M 163.448127 110.117799 
L 160.948127 115.117799 
L 165.948127 115.117799 
z
" clip-path="url(#p782772e065)" style="fill: #ffffff; stroke: #000000; stroke-width: 0.4"/>
    <path d="M 164.624006 110.487097 
L 162.124006 115.487097 
L 167.124006 115.487097 
z
" clip-path="url(#p782772e065)" style="fill: #ffffff; stroke: #000000; stroke-width: 0.4"/>
   </g>
   <g id="PathCollection_18">
    <path d="M 177.054402 111.874059 
L 174.554402 116.874059 
L 179.554402 116.874059 
z
" clip-path="url(#p782772e065)" style="fill: #ffffff; stroke: #000000; stroke-width: 0.4"/>
    <path d="M 176.237017 108.168052 
L 173.737017 113.168052 
L 178.737017 113.168052 
z
" clip-path="url(#p782772e065)" style="fill: #ffffff; stroke: #000000; stroke-width: 0.4"/>
   </g>
   <g id="PathCollection_19">
    <path d="M 188.777861 114.516821 
L 186.277861 119.516821 
L 191.277861 119.516821 
z
" clip-path="url(#p782772e065)" style="fill: #ffffff; stroke: #000000; stroke-width: 0.4"/>
    <path d="M 189.735858 115.700995 
L 187.235858 120.700995 
L 192.235858 120.700995 
z
" clip-path="url(#p782772e065)" style="fill: #ffffff; stroke: #000000; stroke-width: 0.4"/>
    <path d="M 190.903841 114.493566 
L 188.403841 119.493566 
L 193.403841 119.493566 
z
" clip-path="url(#p782772e065)" style="fill: #ffffff; stroke: #000000; stroke-width: 0.4"/>
   </g>
   <g id="PathCollection_20">
    <path d="M 201.737349 120.844195 
L 199.237349 125.844195 
L 204.237349 125.844195 
z
" clip-path="url(#p782772e065)" style="fill: #ffffff; stroke: #000000; stroke-width: 0.4"/>
    <path d="M 202.584283 121.038612 
L 200.084283 126.038612 
L 205.084283 126.038612 
z
" clip-path="url(#p782772e065)" style="fill: #ffffff; stroke: #000000; stroke-width: 0.4"/>
    <path d="M 202.602917 120.620942 
L 200.102917 125.620942 
L 205.102917 125.620942 
z
" clip-path="url(#p782772e065)" style="fill: #ffffff; stroke: #000000; stroke-width: 0.4"/>
   </g>
   <g id="PathCollection_21">
    <path d="M 67.680976 58.520267 
L 72.680976 58.520267 
L 72.680976 53.520267 
L 67.680976 53.520267 
z
" clip-path="url(#p782772e065)" style="fill: #ffffff; stroke: #000000; stroke-width: 0.4"/>
    <path d="M 67.93788 54.139849 
L 72.93788 54.139849 
L 72.93788 49.139849 
L 67.93788 49.139849 
z
" clip-path="url(#p782772e065)" style="fill: #ffffff; stroke: #000000; stroke-width: 0.4"/>
    <path d="M 66.795526 59.841183 
L 71.795526 59.841183 
L 71.795526 54.841183 
L 66.795526 54.841183 
z
" clip-path="url(#p782772e065)" style="fill: #ffffff; stroke: #000000; stroke-width: 0.4"/>
   </g>
   <g id="PathCollection_22">
    <path d="M 81.804656 52.864513 
L 86.804656 52.864513 
L 86.804656 47.864513 
L 81.804656 47.864513 
z
" clip-path="url(#p782772e065)" style="fill: #ffffff; stroke: #000000; stroke-width: 0.4"/>
    <path d="M 82.409949 56.552846 
L 87.409949 56.552846 
L 87.409949 51.552846 
L 82.409949 51.552846 
z
" clip-path="url(#p782772e065)" style="fill: #ffffff; stroke: #000000; stroke-width: 0.4"/>
    <path d="M 81.568989 55.539834 
L 86.568989 55.539834 
L 86.568989 50.539834 
L 81.568989 50.539834 
z
" clip-path="url(#p782772e065)" style="fill: #ffffff; stroke: #000000; stroke-width: 0.4"/>
   </g>
   <g id="PathCollection_23">
    <path d="M 94.525456 60.225365 
L 99.525456 60.225365 
L 99.525456 55.225365 
L 94.525456 55.225365 
z
" clip-path="url(#p782772e065)" style="fill: #ffffff; stroke: #000000; stroke-width: 0.4"/>
    <path d="M 94.487137 63.515562 
L 99.487137 63.515562 
L 99.487137 58.515562 
L 94.487137 58.515562 
z
" clip-path="url(#p782772e065)" style="fill: #ffffff; stroke: #000000; stroke-width: 0.4"/>
    <path d="M 94.755132 61.496979 
L 99.755132 61.496979 
L 99.755132 56.496979 
L 94.755132 56.496979 
z
" clip-path="url(#p782772e065)" style="fill: #ffffff; stroke: #000000; stroke-width: 0.4"/>
   </g>
   <g id="PathCollection_24">
    <path d="M 107.726781 70.27828 
L 112.726781 70.27828 
L 112.726781 65.27828 
L 107.726781 65.27828 
z
" clip-path="url(#p782772e065)" style="fill: #ffffff; stroke: #000000; stroke-width: 0.4"/>
    <path d="M 105.20774 65.415076 
L 110.20774 65.415076 
L 110.20774 60.415076 
L 105.20774 60.415076 
z
" clip-path="url(#p782772e065)" style="fill: #ffffff; stroke: #000000; stroke-width: 0.4"/>
    <path d="M 106.325021 75.249389 
L 111.325021 75.249389 
L 111.325021 70.249389 
L 106.325021 70.249389 
z
" clip-path="url(#p782772e065)" style="fill: #ffffff; stroke: #000000; stroke-width: 0.4"/>
   </g>
   <g id="PathCollection_25">
    <path d="M 120.663045 84.357199 
L 125.663045 84.357199 
L 125.663045 79.357199 
L 120.663045 79.357199 
z
" clip-path="url(#p782772e065)" style="fill: #ffffff; stroke: #000000; stroke-width: 0.4"/>
    <path d="M 120.706924 88.972033 
L 125.706924 88.972033 
L 125.706924 83.972033 
L 120.706924 83.972033 
z
" clip-path="url(#p782772e065)" style="fill: #ffffff; stroke: #000000; stroke-width: 0.4"/>
    <path d="M 119.983275 88.364598 
L 124.983275 88.364598 
L 124.983275 83.364598 
L 119.983275 83.364598 
z
" clip-path="url(#p782772e065)" style="fill: #ffffff; stroke: #000000; stroke-width: 0.4"/>
   </g>
   <g id="PathCollection_26">
    <path d="M 149.130502 111.529 
L 154.130502 111.529 
L 154.130502 106.529 
L 149.130502 106.529 
z
" clip-path="url(#p782772e065)" style="fill: #ffffff; stroke: #000000; stroke-width: 0.4"/>
    <path d="M 148.809229 111.551325 
L 153.809229 111.551325 
L 153.809229 106.551325 
L 148.809229 106.551325 
z
" clip-path="url(#p782772e065)" style="fill: #ffffff; stroke: #000000; stroke-width: 0.4"/>
    <path d="M 147.533416 111.683417 
L 152.533416 111.683417 
L 152.533416 106.683417 
L 147.533416 106.683417 
z
" clip-path="url(#p782772e065)" style="fill: #ffffff; stroke: #000000; stroke-width: 0.4"/>
   </g>
   <g id="PathCollection_27">
    <path d="M 162.132725 108.032293 
L 167.132725 108.032293 
L 167.132725 103.032293 
L 162.132725 103.032293 
z
" clip-path="url(#p782772e065)" style="fill: #ffffff; stroke: #000000; stroke-width: 0.4"/>
    <path d="M 161.14663 111.717835 
L 166.14663 111.717835 
L 166.14663 106.717835 
L 161.14663 106.717835 
z
" clip-path="url(#p782772e065)" style="fill: #ffffff; stroke: #000000; stroke-width: 0.4"/>
    <path d="M 161.901104 111.589465 
L 166.901104 111.589465 
L 166.901104 106.589465 
L 161.901104 106.589465 
z
" clip-path="url(#p782772e065)" style="fill: #ffffff; stroke: #000000; stroke-width: 0.4"/>
   </g>
   <g id="PathCollection_28">
    <path d="M 174.754445 114.884313 
L 179.754445 114.884313 
L 179.754445 109.884313 
L 174.754445 109.884313 
z
" clip-path="url(#p782772e065)" style="fill: #ffffff; stroke: #000000; stroke-width: 0.4"/>
    <path d="M 175.902077 117.21173 
L 180.902077 117.21173 
L 180.902077 112.21173 
L 175.902077 112.21173 
z
" clip-path="url(#p782772e065)" style="fill: #ffffff; stroke: #000000; stroke-width: 0.4"/>
    <path d="M 173.672743 117.08894 
L 178.672743 117.08894 
L 178.672743 112.08894 
L 173.672743 112.08894 
z
" clip-path="url(#p782772e065)" style="fill: #ffffff; stroke: #000000; stroke-width: 0.4"/>
   </g>
   <g id="PathCollection_29">
    <path d="M 188.07792 119.924259 
L 193.07792 119.924259 
L 193.07792 114.924259 
L 188.07792 114.924259 
z
" clip-path="url(#p782772e065)" style="fill: #ffffff; stroke: #000000; stroke-width: 0.4"/>
    <path d="M 187.660568 118.55125 
L 192.660568 118.55125 
L 192.660568 113.55125 
L 187.660568 113.55125 
z
" clip-path="url(#p782772e065)" style="fill: #ffffff; stroke: #000000; stroke-width: 0.4"/>
    <path d="M 186.450766 120.329836 
L 191.450766 120.329836 
L 191.450766 115.329836 
L 186.450766 115.329836 
z
" clip-path="url(#p782772e065)" style="fill: #ffffff; stroke: #000000; stroke-width: 0.4"/>
   </g>
   <g id="PathCollection_30">
    <path d="M 200.650491 125.844195 
L 205.650491 125.844195 
L 205.650491 120.844195 
L 200.650491 120.844195 
z
" clip-path="url(#p782772e065)" style="fill: #ffffff; stroke: #000000; stroke-width: 0.4"/>
    <path d="M 199.156456 126.017217 
L 204.156456 126.017217 
L 204.156456 121.017217 
L 199.156456 121.017217 
z
" clip-path="url(#p782772e065)" style="fill: #ffffff; stroke: #000000; stroke-width: 0.4"/>
    <path d="M 199.596613 126.251633 
L 204.596613 126.251633 
L 204.596613 121.251633 
L 199.596613 121.251633 
z
" clip-path="url(#p782772e065)" style="fill: #ffffff; stroke: #000000; stroke-width: 0.4"/>
   </g>
   <g id="legend_1">
    <g id="patch_17">
     <path d="M 230.312344 19.473594 
L 252.312344 19.473594 
L 252.312344 11.773594 
L 230.312344 11.773594 
z
" style="fill: #4b4279; opacity: 0.8; stroke: #ffffff; stroke-linejoin: miter"/>
    </g>
    <g id="text_7">
     <!-- 0 uM -->
     <g style="fill: #262626" transform="translate(261.112344 19.473594) scale(0.11 -0.11)">
      <defs>
       <path id="ArialMT-4d" d="M 475 0 
L 475 4581 
L 1388 4581 
L 2472 1338 
Q 2622 884 2691 659 
Q 2769 909 2934 1394 
L 4031 4581 
L 4847 4581 
L 4847 0 
L 4263 0 
L 4263 3834 
L 2931 0 
L 2384 0 
L 1059 3900 
L 1059 0 
L 475 0 
z
" transform="scale(0.015625)"/>
      </defs>
      <use xlink:href="#ArialMT-30"/>
      <use xlink:href="#ArialMT-20" transform="translate(55.615234 0)"/>
      <use xlink:href="#ArialMT-75" transform="translate(83.398438 0)"/>
      <use xlink:href="#ArialMT-4d" transform="translate(139.013672 0)"/>
     </g>
    </g>
    <g id="patch_18">
     <path d="M 230.312344 35.033437 
L 252.312344 35.033437 
L 252.312344 27.333437 
L 230.312344 27.333437 
z
" style="fill: #3c6682; opacity: 0.8; stroke: #ffffff; stroke-linejoin: miter"/>
    </g>
    <g id="text_8">
     <!-- 0.1 uM -->
     <g style="fill: #262626" transform="translate(261.112344 35.033437) scale(0.11 -0.11)">
      <defs>
       <path id="ArialMT-2e" d="M 581 0 
L 581 641 
L 1222 641 
L 1222 0 
L 581 0 
z
" transform="scale(0.015625)"/>
      </defs>
      <use xlink:href="#ArialMT-30"/>
      <use xlink:href="#ArialMT-2e" transform="translate(55.615234 0)"/>
      <use xlink:href="#ArialMT-31" transform="translate(83.398438 0)"/>
      <use xlink:href="#ArialMT-20" transform="translate(139.013672 0)"/>
      <use xlink:href="#ArialMT-75" transform="translate(166.796875 0)"/>
      <use xlink:href="#ArialMT-4d" transform="translate(222.412109 0)"/>
     </g>
    </g>
    <g id="patch_19">
     <path d="M 230.312344 50.593281 
L 252.312344 50.593281 
L 252.312344 42.893281 
L 230.312344 42.893281 
z
" style="fill: #2f837f; opacity: 0.8; stroke: #ffffff; stroke-linejoin: miter"/>
    </g>
    <g id="text_9">
     <!-- 1 uM -->
     <g style="fill: #262626" transform="translate(261.112344 50.593281) scale(0.11 -0.11)">
      <use xlink:href="#ArialMT-31"/>
      <use xlink:href="#ArialMT-20" transform="translate(55.615234 0)"/>
      <use xlink:href="#ArialMT-75" transform="translate(83.398438 0)"/>
      <use xlink:href="#ArialMT-4d" transform="translate(139.013672 0)"/>
     </g>
    </g>
    <g id="patch_20">
     <path d="M 230.312344 66.153125 
L 252.312344 66.153125 
L 252.312344 58.453125 
L 230.312344 58.453125 
z
" style="fill: #45a778; opacity: 0.8; stroke: #ffffff; stroke-linejoin: miter"/>
    </g>
    <g id="text_10">
     <!-- 2 uM -->
     <g style="fill: #262626" transform="translate(261.112344 66.153125) scale(0.11 -0.11)">
      <defs>
       <path id="ArialMT-32" d="M 3222 541 
L 3222 0 
L 194 0 
Q 188 203 259 391 
Q 375 700 629 1000 
Q 884 1300 1366 1694 
Q 2113 2306 2375 2664 
Q 2638 3022 2638 3341 
Q 2638 3675 2398 3904 
Q 2159 4134 1775 4134 
Q 1369 4134 1125 3890 
Q 881 3647 878 3216 
L 300 3275 
Q 359 3922 746 4261 
Q 1134 4600 1788 4600 
Q 2447 4600 2831 4234 
Q 3216 3869 3216 3328 
Q 3216 3053 3103 2787 
Q 2991 2522 2730 2228 
Q 2469 1934 1863 1422 
Q 1356 997 1212 845 
Q 1069 694 975 541 
L 3222 541 
z
" transform="scale(0.015625)"/>
      </defs>
      <use xlink:href="#ArialMT-32"/>
      <use xlink:href="#ArialMT-20" transform="translate(55.615234 0)"/>
      <use xlink:href="#ArialMT-75" transform="translate(83.398438 0)"/>
      <use xlink:href="#ArialMT-4d" transform="translate(139.013672 0)"/>
     </g>
    </g>
    <g id="patch_21">
     <path d="M 230.312344 81.712969 
L 252.312344 81.712969 
L 252.312344 74.012969 
L 230.312344 74.012969 
z
" style="fill: #8fc456; opacity: 0.8; stroke: #ffffff; stroke-linejoin: miter"/>
    </g>
    <g id="text_11">
     <!-- 5 uM -->
     <g style="fill: #262626" transform="translate(261.112344 81.712969) scale(0.11 -0.11)">
      <use xlink:href="#ArialMT-35"/>
      <use xlink:href="#ArialMT-20" transform="translate(55.615234 0)"/>
      <use xlink:href="#ArialMT-75" transform="translate(83.398438 0)"/>
      <use xlink:href="#ArialMT-4d" transform="translate(139.013672 0)"/>
     </g>
    </g>
   </g>
  </g>
 </g>
 <defs>
  <clipPath id="p782772e065">
   <rect x="55.812344" y="7.2" width="162" height="117"/>
  </clipPath>
 </defs>
</svg>
