<?xml version="1.0" encoding="utf-8" standalone="no"?>
<!DOCTYPE svg PUBLIC "-//W3C//DTD SVG 1.1//EN"
  "http://www.w3.org/Graphics/SVG/1.1/DTD/svg11.dtd">
<svg xmlns:xlink="http://www.w3.org/1999/xlink" width="306.337969pt" height="150.959844pt" viewBox="0 0 306.337969 150.959844" xmlns="http://www.w3.org/2000/svg" version="1.1">
 <metadata>
  <rdf:RDF xmlns:dc="http://purl.org/dc/elements/1.1/" xmlns:cc="http://creativecommons.org/ns#" xmlns:rdf="http://www.w3.org/1999/02/22-rdf-syntax-ns#">
   <cc:Work>
    <dc:type rdf:resource="http://purl.org/dc/dcmitype/StillImage"/>
    <dc:date>2025-07-28T16:46:27.331424</dc:date>
    <dc:format>image/svg+xml</dc:format>
    <dc:creator>
     <cc:Agent>
      <dc:title>Matplotlib v3.10.3, https://matplotlib.org/</dc:title>
     </cc:Agent>
    </dc:creator>
   </cc:Work>
  </rdf:RDF>
 </metadata>
 <defs>
  <style type="text/css">*{stroke-linejoin: round; stroke-linecap: butt}</style>
 </defs>
 <g id="figure_1">
  <g id="patch_1">
   <path d="M 0 150.959844 
L 306.337969 150.959844 
L 306.337969 0 
L 0 0 
z
" style="fill: #ffffff"/>
  </g>
  <g id="axes_1">
   <g id="patch_2">
    <path d="M 55.812344 124.2 
L 217.812344 124.2 
L 217.812344 7.2 
L 55.812344 7.2 
z
" style="fill: #ffffff"/>
   </g>
   <g id="matplotlib.axis_1">
    <g id="xtick_1">
     <g id="line2d_1">
      <defs>
       <path id="m5d61ea10e2" d="M 0 0 
L 0 6 
" style="stroke: #262626; stroke-width: 1.25"/>
      </defs>
      <g>
       <use xlink:href="#m5d61ea10e2" x="96.312344" y="124.2" style="fill: #262626; stroke: #262626; stroke-width: 1.25"/>
      </g>
     </g>
     <g id="text_1">
      <!-- SDDIR -->
      <g style="fill: #262626" transform="translate(79.199609 141.573594) scale(0.11 -0.11)">
       <defs>
        <path id="ArialMT-53" d="M 288 1472 
L 859 1522 
Q 900 1178 1048 958 
Q 1197 738 1509 602 
Q 1822 466 2213 466 
Q 2559 466 2825 569 
Q 3091 672 3220 851 
Q 3350 1031 3350 1244 
Q 3350 1459 3225 1620 
Q 3100 1781 2813 1891 
Q 2628 1963 1997 2114 
Q 1366 2266 1113 2400 
Q 784 2572 623 2826 
Q 463 3081 463 3397 
Q 463 3744 659 4045 
Q 856 4347 1234 4503 
Q 1613 4659 2075 4659 
Q 2584 4659 2973 4495 
Q 3363 4331 3572 4012 
Q 3781 3694 3797 3291 
L 3216 3247 
Q 3169 3681 2898 3903 
Q 2628 4125 2100 4125 
Q 1550 4125 1298 3923 
Q 1047 3722 1047 3438 
Q 1047 3191 1225 3031 
Q 1400 2872 2139 2705 
Q 2878 2538 3153 2413 
Q 3553 2228 3743 1945 
Q 3934 1663 3934 1294 
Q 3934 928 3725 604 
Q 3516 281 3123 101 
Q 2731 -78 2241 -78 
Q 1619 -78 1198 103 
Q 778 284 539 648 
Q 300 1013 288 1472 
z
" transform="scale(0.015625)"/>
        <path id="ArialMT-44" d="M 494 0 
L 494 4581 
L 2072 4581 
Q 2606 4581 2888 4516 
Q 3281 4425 3559 4188 
Q 3922 3881 4101 3404 
Q 4281 2928 4281 2316 
Q 4281 1794 4159 1391 
Q 4038 988 3847 723 
Q 3656 459 3429 307 
Q 3203 156 2883 78 
Q 2563 0 2147 0 
L 494 0 
z
M 1100 541 
L 2078 541 
Q 2531 541 2789 625 
Q 3047 709 3200 863 
Q 3416 1078 3536 1442 
Q 3656 1806 3656 2325 
Q 3656 3044 3420 3430 
Q 3184 3816 2847 3947 
Q 2603 4041 2063 4041 
L 1100 4041 
L 1100 541 
z
" transform="scale(0.015625)"/>
        <path id="ArialMT-49" d="M 597 0 
L 597 4581 
L 1203 4581 
L 1203 0 
L 597 0 
z
" transform="scale(0.015625)"/>
        <path id="ArialMT-52" d="M 503 0 
L 503 4581 
L 2534 4581 
Q 3147 4581 3465 4457 
Q 3784 4334 3975 4021 
Q 4166 3709 4166 3331 
Q 4166 2844 3850 2509 
Q 3534 2175 2875 2084 
Q 3116 1969 3241 1856 
Q 3506 1613 3744 1247 
L 4541 0 
L 3778 0 
L 3172 953 
Q 2906 1366 2734 1584 
Q 2563 1803 2427 1890 
Q 2291 1978 2150 2013 
Q 2047 2034 1813 2034 
L 1109 2034 
L 1109 0 
L 503 0 
z
M 1109 2559 
L 2413 2559 
Q 2828 2559 3062 2645 
Q 3297 2731 3419 2920 
Q 3541 3109 3541 3331 
Q 3541 3656 3305 3865 
Q 3069 4075 2559 4075 
L 1109 4075 
L 1109 2559 
z
" transform="scale(0.015625)"/>
       </defs>
       <use xlink:href="#ArialMT-53"/>
       <use xlink:href="#ArialMT-44" transform="translate(66.699219 0)"/>
       <use xlink:href="#ArialMT-44" transform="translate(138.916016 0)"/>
       <use xlink:href="#ArialMT-49" transform="translate(211.132812 0)"/>
       <use xlink:href="#ArialMT-52" transform="translate(238.916016 0)"/>
      </g>
     </g>
    </g>
    <g id="xtick_2">
     <g id="line2d_2">
      <g>
       <use xlink:href="#m5d61ea10e2" x="177.312344" y="124.2" style="fill: #262626; stroke: #262626; stroke-width: 1.25"/>
      </g>
     </g>
     <g id="text_2">
      <!-- RISDD -->
      <g style="fill: #262626" transform="translate(160.199609 141.573594) scale(0.11 -0.11)">
       <use xlink:href="#ArialMT-52"/>
       <use xlink:href="#ArialMT-49" transform="translate(72.216797 0)"/>
       <use xlink:href="#ArialMT-53" transform="translate(100 0)"/>
       <use xlink:href="#ArialMT-44" transform="translate(166.699219 0)"/>
       <use xlink:href="#ArialMT-44" transform="translate(238.916016 0)"/>
      </g>
     </g>
    </g>
   </g>
   <g id="matplotlib.axis_2">
    <g id="ytick_1">
     <g id="line2d_3">
      <defs>
       <path id="m8c2d341fa0" d="M 0 0 
L -6 0 
" style="stroke: #262626; stroke-width: 1.25"/>
      </defs>
      <g>
       <use xlink:href="#m8c2d341fa0" x="55.812344" y="124.2" style="fill: #262626; stroke: #262626; stroke-width: 1.25"/>
      </g>
     </g>
     <g id="text_3">
      <!-- 0 -->
      <g style="fill: #262626" transform="translate(40.195312 128.136797) scale(0.11 -0.11)">
       <defs>
        <path id="ArialMT-30" d="M 266 2259 
Q 266 3072 433 3567 
Q 600 4063 929 4331 
Q 1259 4600 1759 4600 
Q 2128 4600 2406 4451 
Q 2684 4303 2865 4023 
Q 3047 3744 3150 3342 
Q 3253 2941 3253 2259 
Q 3253 1453 3087 958 
Q 2922 463 2592 192 
Q 2263 -78 1759 -78 
Q 1097 -78 719 397 
Q 266 969 266 2259 
z
M 844 2259 
Q 844 1131 1108 757 
Q 1372 384 1759 384 
Q 2147 384 2411 759 
Q 2675 1134 2675 2259 
Q 2675 3391 2411 3762 
Q 2147 4134 1753 4134 
Q 1366 4134 1134 3806 
Q 844 3388 844 2259 
z
" transform="scale(0.015625)"/>
       </defs>
       <use xlink:href="#ArialMT-30"/>
      </g>
     </g>
    </g>
    <g id="ytick_2">
     <g id="line2d_4">
      <g>
       <use xlink:href="#m8c2d341fa0" x="55.812344" y="77.688871" style="fill: #262626; stroke: #262626; stroke-width: 1.25"/>
      </g>
     </g>
     <g id="text_4">
      <!-- 50k -->
      <g style="fill: #262626" transform="translate(28.578281 81.625668) scale(0.11 -0.11)">
       <defs>
        <path id="ArialMT-35" d="M 266 1200 
L 856 1250 
Q 922 819 1161 601 
Q 1400 384 1738 384 
Q 2144 384 2425 690 
Q 2706 997 2706 1503 
Q 2706 1984 2436 2262 
Q 2166 2541 1728 2541 
Q 1456 2541 1237 2417 
Q 1019 2294 894 2097 
L 366 2166 
L 809 4519 
L 3088 4519 
L 3088 3981 
L 1259 3981 
L 1013 2750 
Q 1425 3038 1878 3038 
Q 2478 3038 2890 2622 
Q 3303 2206 3303 1553 
Q 3303 931 2941 478 
Q 2500 -78 1738 -78 
Q 1113 -78 717 272 
Q 322 622 266 1200 
z
" transform="scale(0.015625)"/>
        <path id="ArialMT-6b" d="M 425 0 
L 425 4581 
L 988 4581 
L 988 1969 
L 2319 3319 
L 3047 3319 
L 1778 2088 
L 3175 0 
L 2481 0 
L 1384 1697 
L 988 1316 
L 988 0 
L 425 0 
z
" transform="scale(0.015625)"/>
       </defs>
       <use xlink:href="#ArialMT-35"/>
       <use xlink:href="#ArialMT-30" transform="translate(55.615234 0)"/>
       <use xlink:href="#ArialMT-6b" transform="translate(111.230469 0)"/>
      </g>
     </g>
    </g>
    <g id="ytick_3">
     <g id="line2d_5">
      <g>
       <use xlink:href="#m8c2d341fa0" x="55.812344" y="31.177743" style="fill: #262626; stroke: #262626; stroke-width: 1.25"/>
      </g>
     </g>
     <g id="text_5">
      <!-- 100k -->
      <g style="fill: #262626" transform="translate(22.46125 35.11454) scale(0.11 -0.11)">
       <defs>
        <path id="ArialMT-31" d="M 2384 0 
L 1822 0 
L 1822 3584 
Q 1619 3391 1289 3197 
Q 959 3003 697 2906 
L 697 3450 
Q 1169 3672 1522 3987 
Q 1875 4303 2022 4600 
L 2384 4600 
L 2384 0 
z
" transform="scale(0.015625)"/>
       </defs>
       <use xlink:href="#ArialMT-31"/>
       <use xlink:href="#ArialMT-30" transform="translate(55.615234 0)"/>
       <use xlink:href="#ArialMT-30" transform="translate(111.230469 0)"/>
       <use xlink:href="#ArialMT-6b" transform="translate(166.845703 0)"/>
      </g>
     </g>
    </g>
    <g id="text_6">
     <!-- Single Cells Count -->
     <g style="fill: #262626" transform="translate(15.935625 115.0575) rotate(-90) scale(0.12 -0.12)">
      <defs>
       <path id="ArialMT-69" d="M 425 3934 
L 425 4581 
L 988 4581 
L 988 3934 
L 425 3934 
z
M 425 0 
L 425 3319 
L 988 3319 
L 988 0 
L 425 0 
z
" transform="scale(0.015625)"/>
       <path id="ArialMT-6e" d="M 422 0 
L 422 3319 
L 928 3319 
L 928 2847 
Q 1294 3394 1984 3394 
Q 2284 3394 2536 3286 
Q 2788 3178 2913 3003 
Q 3038 2828 3088 2588 
Q 3119 2431 3119 2041 
L 3119 0 
L 2556 0 
L 2556 2019 
Q 2556 2363 2490 2533 
Q 2425 2703 2258 2804 
Q 2091 2906 1866 2906 
Q 1506 2906 1245 2678 
Q 984 2450 984 1813 
L 984 0 
L 422 0 
z
" transform="scale(0.015625)"/>
       <path id="ArialMT-67" d="M 319 -275 
L 866 -356 
Q 900 -609 1056 -725 
Q 1266 -881 1628 -881 
Q 2019 -881 2231 -725 
Q 2444 -569 2519 -288 
Q 2563 -116 2559 434 
Q 2191 0 1641 0 
Q 956 0 581 494 
Q 206 988 206 1678 
Q 206 2153 378 2554 
Q 550 2956 876 3175 
Q 1203 3394 1644 3394 
Q 2231 3394 2613 2919 
L 2613 3319 
L 3131 3319 
L 3131 450 
Q 3131 -325 2973 -648 
Q 2816 -972 2473 -1159 
Q 2131 -1347 1631 -1347 
Q 1038 -1347 672 -1080 
Q 306 -813 319 -275 
z
M 784 1719 
Q 784 1066 1043 766 
Q 1303 466 1694 466 
Q 2081 466 2343 764 
Q 2606 1063 2606 1700 
Q 2606 2309 2336 2618 
Q 2066 2928 1684 2928 
Q 1309 2928 1046 2623 
Q 784 2319 784 1719 
z
" transform="scale(0.015625)"/>
       <path id="ArialMT-6c" d="M 409 0 
L 409 4581 
L 972 4581 
L 972 0 
L 409 0 
z
" transform="scale(0.015625)"/>
       <path id="ArialMT-65" d="M 2694 1069 
L 3275 997 
Q 3138 488 2766 206 
Q 2394 -75 1816 -75 
Q 1088 -75 661 373 
Q 234 822 234 1631 
Q 234 2469 665 2931 
Q 1097 3394 1784 3394 
Q 2450 3394 2872 2941 
Q 3294 2488 3294 1666 
Q 3294 1616 3291 1516 
L 816 1516 
Q 847 969 1125 678 
Q 1403 388 1819 388 
Q 2128 388 2347 550 
Q 2566 713 2694 1069 
z
M 847 1978 
L 2700 1978 
Q 2663 2397 2488 2606 
Q 2219 2931 1791 2931 
Q 1403 2931 1139 2672 
Q 875 2413 847 1978 
z
" transform="scale(0.015625)"/>
       <path id="ArialMT-20" transform="scale(0.015625)"/>
       <path id="ArialMT-43" d="M 3763 1606 
L 4369 1453 
Q 4178 706 3683 314 
Q 3188 -78 2472 -78 
Q 1731 -78 1267 223 
Q 803 525 561 1097 
Q 319 1669 319 2325 
Q 319 3041 592 3573 
Q 866 4106 1370 4382 
Q 1875 4659 2481 4659 
Q 3169 4659 3637 4309 
Q 4106 3959 4291 3325 
L 3694 3184 
Q 3534 3684 3231 3912 
Q 2928 4141 2469 4141 
Q 1941 4141 1586 3887 
Q 1231 3634 1087 3207 
Q 944 2781 944 2328 
Q 944 1744 1114 1308 
Q 1284 872 1643 656 
Q 2003 441 2422 441 
Q 2931 441 3284 734 
Q 3638 1028 3763 1606 
z
" transform="scale(0.015625)"/>
       <path id="ArialMT-73" d="M 197 991 
L 753 1078 
Q 800 744 1014 566 
Q 1228 388 1613 388 
Q 2000 388 2187 545 
Q 2375 703 2375 916 
Q 2375 1106 2209 1216 
Q 2094 1291 1634 1406 
Q 1016 1563 777 1677 
Q 538 1791 414 1992 
Q 291 2194 291 2438 
Q 291 2659 392 2848 
Q 494 3038 669 3163 
Q 800 3259 1026 3326 
Q 1253 3394 1513 3394 
Q 1903 3394 2198 3281 
Q 2494 3169 2634 2976 
Q 2775 2784 2828 2463 
L 2278 2388 
Q 2241 2644 2061 2787 
Q 1881 2931 1553 2931 
Q 1166 2931 1000 2803 
Q 834 2675 834 2503 
Q 834 2394 903 2306 
Q 972 2216 1119 2156 
Q 1203 2125 1616 2013 
Q 2213 1853 2448 1751 
Q 2684 1650 2818 1456 
Q 2953 1263 2953 975 
Q 2953 694 2789 445 
Q 2625 197 2315 61 
Q 2006 -75 1616 -75 
Q 969 -75 630 194 
Q 291 463 197 991 
z
" transform="scale(0.015625)"/>
       <path id="ArialMT-6f" d="M 213 1659 
Q 213 2581 725 3025 
Q 1153 3394 1769 3394 
Q 2453 3394 2887 2945 
Q 3322 2497 3322 1706 
Q 3322 1066 3130 698 
Q 2938 331 2570 128 
Q 2203 -75 1769 -75 
Q 1072 -75 642 372 
Q 213 819 213 1659 
z
M 791 1659 
Q 791 1022 1069 705 
Q 1347 388 1769 388 
Q 2188 388 2466 706 
Q 2744 1025 2744 1678 
Q 2744 2294 2464 2611 
Q 2184 2928 1769 2928 
Q 1347 2928 1069 2612 
Q 791 2297 791 1659 
z
" transform="scale(0.015625)"/>
       <path id="ArialMT-75" d="M 2597 0 
L 2597 488 
Q 2209 -75 1544 -75 
Q 1250 -75 995 37 
Q 741 150 617 320 
Q 494 491 444 738 
Q 409 903 409 1263 
L 409 3319 
L 972 3319 
L 972 1478 
Q 972 1038 1006 884 
Q 1059 663 1231 536 
Q 1403 409 1656 409 
Q 1909 409 2131 539 
Q 2353 669 2445 892 
Q 2538 1116 2538 1541 
L 2538 3319 
L 3100 3319 
L 3100 0 
L 2597 0 
z
" transform="scale(0.015625)"/>
       <path id="ArialMT-74" d="M 1650 503 
L 1731 6 
Q 1494 -44 1306 -44 
Q 1000 -44 831 53 
Q 663 150 594 308 
Q 525 466 525 972 
L 525 2881 
L 113 2881 
L 113 3319 
L 525 3319 
L 525 4141 
L 1084 4478 
L 1084 3319 
L 1650 3319 
L 1650 2881 
L 1084 2881 
L 1084 941 
Q 1084 700 1114 631 
Q 1144 563 1211 522 
Q 1278 481 1403 481 
Q 1497 481 1650 503 
z
" transform="scale(0.015625)"/>
      </defs>
      <use xlink:href="#ArialMT-53"/>
      <use xlink:href="#ArialMT-69" transform="translate(66.699219 0)"/>
      <use xlink:href="#ArialMT-6e" transform="translate(88.916016 0)"/>
      <use xlink:href="#ArialMT-67" transform="translate(144.53125 0)"/>
      <use xlink:href="#ArialMT-6c" transform="translate(200.146484 0)"/>
      <use xlink:href="#ArialMT-65" transform="translate(222.363281 0)"/>
      <use xlink:href="#ArialMT-20" transform="translate(277.978516 0)"/>
      <use xlink:href="#ArialMT-43" transform="translate(305.761719 0)"/>
      <use xlink:href="#ArialMT-65" transform="translate(377.978516 0)"/>
      <use xlink:href="#ArialMT-6c" transform="translate(433.59375 0)"/>
      <use xlink:href="#ArialMT-6c" transform="translate(455.810547 0)"/>
      <use xlink:href="#ArialMT-73" transform="translate(478.027344 0)"/>
      <use xlink:href="#ArialMT-20" transform="translate(528.027344 0)"/>
      <use xlink:href="#ArialMT-43" transform="translate(555.810547 0)"/>
      <use xlink:href="#ArialMT-6f" transform="translate(628.027344 0)"/>
      <use xlink:href="#ArialMT-75" transform="translate(683.642578 0)"/>
      <use xlink:href="#ArialMT-6e" transform="translate(739.257812 0)"/>
      <use xlink:href="#ArialMT-74" transform="translate(794.873047 0)"/>
     </g>
    </g>
   </g>
   <g id="patch_3">
    <path d="M 63.912344 124.2 
L 76.872344 124.2 
L 76.872344 35.560435 
L 63.912344 35.560435 
z
" clip-path="url(#p5f0f4928c8)" style="fill: #4b4279; opacity: 0.8; stroke: #ffffff; stroke-linejoin: miter"/>
   </g>
   <g id="patch_4">
    <path d="M 144.912344 124.2 
L 157.872344 124.2 
L 157.872344 108.65288 
L 144.912344 108.65288 
z
" clip-path="url(#p5f0f4928c8)" style="fill: #4b4279; opacity: 0.8; stroke: #ffffff; stroke-linejoin: miter"/>
   </g>
   <g id="patch_5">
    <path d="M 76.872344 124.2 
L 89.832344 124.2 
L 89.832344 43.392702 
L 76.872344 43.392702 
z
" clip-path="url(#p5f0f4928c8)" style="fill: #3c6682; opacity: 0.8; stroke: #ffffff; stroke-linejoin: miter"/>
   </g>
   <g id="patch_6">
    <path d="M 157.872344 124.2 
L 170.832344 124.2 
L 170.832344 109.250186 
L 157.872344 109.250186 
z
" clip-path="url(#p5f0f4928c8)" style="fill: #3c6682; opacity: 0.8; stroke: #ffffff; stroke-linejoin: miter"/>
   </g>
   <g id="patch_7">
    <path d="M 89.832344 124.2 
L 102.792344 124.2 
L 102.792344 43.73089 
L 89.832344 43.73089 
z
" clip-path="url(#p5f0f4928c8)" style="fill: #2f837f; opacity: 0.8; stroke: #ffffff; stroke-linejoin: miter"/>
   </g>
   <g id="patch_8">
    <path d="M 170.832344 124.2 
L 183.792344 124.2 
L 183.792344 111.25957 
L 170.832344 111.25957 
z
" clip-path="url(#p5f0f4928c8)" style="fill: #2f837f; opacity: 0.8; stroke: #ffffff; stroke-linejoin: miter"/>
   </g>
   <g id="patch_9">
    <path d="M 102.792344 124.2 
L 115.752344 124.2 
L 115.752344 52.139792 
L 102.792344 52.139792 
z
" clip-path="url(#p5f0f4928c8)" style="fill: #45a778; opacity: 0.8; stroke: #ffffff; stroke-linejoin: miter"/>
   </g>
   <g id="patch_10">
    <path d="M 183.792344 124.2 
L 196.752344 124.2 
L 196.752344 112.720227 
L 183.792344 112.720227 
z
" clip-path="url(#p5f0f4928c8)" style="fill: #45a778; opacity: 0.8; stroke: #ffffff; stroke-linejoin: miter"/>
   </g>
   <g id="patch_11">
    <path d="M 115.752344 124.2 
L 128.712344 124.2 
L 128.712344 53.144742 
L 115.752344 53.144742 
z
" clip-path="url(#p5f0f4928c8)" style="fill: #8fc456; opacity: 0.8; stroke: #ffffff; stroke-linejoin: miter"/>
   </g>
   <g id="patch_12">
    <path d="M 196.752344 124.2 
L 209.712344 124.2 
L 209.712344 116.100035 
L 196.752344 116.100035 
z
" clip-path="url(#p5f0f4928c8)" style="fill: #8fc456; opacity: 0.8; stroke: #ffffff; stroke-linejoin: miter"/>
   </g>
   <g id="line2d_6">
    <path d="M 70.392344 46.404086 
L 70.392344 25.088134 
" clip-path="url(#p5f0f4928c8)" style="fill: none; stroke: #424242; stroke-width: 2.7; stroke-linecap: round"/>
   </g>
   <g id="line2d_7">
    <path d="M 151.392344 109.490708 
L 151.392344 107.630669 
" clip-path="url(#p5f0f4928c8)" style="fill: none; stroke: #424242; stroke-width: 2.7; stroke-linecap: round"/>
   </g>
   <g id="line2d_8">
    <path d="M 83.352344 51.021623 
L 83.352344 35.022779 
" clip-path="url(#p5f0f4928c8)" style="fill: none; stroke: #424242; stroke-width: 2.7; stroke-linecap: round"/>
   </g>
   <g id="line2d_9">
    <path d="M 164.352344 109.619753 
L 164.352344 108.872451 
" clip-path="url(#p5f0f4928c8)" style="fill: none; stroke: #424242; stroke-width: 2.7; stroke-linecap: round"/>
   </g>
   <g id="line2d_10">
    <path d="M 96.312344 51.794216 
L 96.312344 33.863489 
" clip-path="url(#p5f0f4928c8)" style="fill: none; stroke: #424242; stroke-width: 2.7; stroke-linecap: round"/>
   </g>
   <g id="line2d_11">
    <path d="M 177.312344 112.17315 
L 177.312344 110.30247 
" clip-path="url(#p5f0f4928c8)" style="fill: none; stroke: #424242; stroke-width: 2.7; stroke-linecap: round"/>
   </g>
   <g id="line2d_12">
    <path d="M 109.272344 59.861654 
L 109.272344 43.914296 
" clip-path="url(#p5f0f4928c8)" style="fill: none; stroke: #424242; stroke-width: 2.7; stroke-linecap: round"/>
   </g>
   <g id="line2d_13">
    <path d="M 190.272344 113.60414 
L 190.272344 112.00726 
" clip-path="url(#p5f0f4928c8)" style="fill: none; stroke: #424242; stroke-width: 2.7; stroke-linecap: round"/>
   </g>
   <g id="line2d_14">
    <path d="M 122.232344 57.722122 
L 122.232344 48.452095 
" clip-path="url(#p5f0f4928c8)" style="fill: none; stroke: #424242; stroke-width: 2.7; stroke-linecap: round"/>
   </g>
   <g id="line2d_15">
    <path d="M 203.232344 116.865931 
L 203.232344 115.388379 
" clip-path="url(#p5f0f4928c8)" style="fill: none; stroke: #424242; stroke-width: 2.7; stroke-linecap: round"/>
   </g>
   <g id="patch_13">
    <path d="M 55.812344 124.2 
L 55.812344 7.2 
" style="fill: none; stroke: #262626; stroke-width: 1.25; stroke-linejoin: miter; stroke-linecap: square"/>
   </g>
   <g id="patch_14">
    <path d="M 217.812344 124.2 
L 217.812344 7.2 
" style="fill: none; stroke: #262626; stroke-width: 1.25; stroke-linejoin: miter; stroke-linecap: square"/>
   </g>
   <g id="patch_15">
    <path d="M 55.812344 124.2 
L 217.812344 124.2 
" style="fill: none; stroke: #262626; stroke-width: 1.25; stroke-linejoin: miter; stroke-linecap: square"/>
   </g>
   <g id="patch_16">
    <path d="M 55.812344 7.2 
L 217.812344 7.2 
" style="fill: none; stroke: #262626; stroke-width: 1.25; stroke-linejoin: miter; stroke-linecap: square"/>
   </g>
   <g id="PathCollection_1">
    <defs>
     <path id="C0_0_79867abd17" d="M 0 2.5 
C 0.663008 2.5 1.29895 2.236584 1.767767 1.767767 
C 2.236584 1.29895 2.5 0.663008 2.5 -0 
C 2.5 -0.663008 2.236584 -1.29895 1.767767 -1.767767 
C 1.29895 -2.236584 0.663008 -2.5 0 -2.5 
C -0.663008 -2.5 -1.29895 -2.236584 -1.767767 -1.767767 
C -2.236584 -1.29895 -2.5 -0.663008 -2.5 0 
C -2.5 0.663008 -2.236584 1.29895 -1.767767 1.767767 
C -1.29895 2.236584 -0.663008 2.5 0 2.5 
z
"/>
    </defs>
    <g clip-path="url(#p5f0f4928c8)">
     <use xlink:href="#C0_0_79867abd17" x="70.339334" y="12.771429" style="fill: #ffffff; stroke: #000000; stroke-width: 0.4"/>
    </g>
    <g clip-path="url(#p5f0f4928c8)">
     <use xlink:href="#C0_0_79867abd17" x="69.827606" y="14.098856" style="fill: #ffffff; stroke: #000000; stroke-width: 0.4"/>
    </g>
    <g clip-path="url(#p5f0f4928c8)">
     <use xlink:href="#C0_0_79867abd17" x="70.02797" y="19.38159" style="fill: #ffffff; stroke: #000000; stroke-width: 0.4"/>
    </g>
   </g>
   <g id="PathCollection_2">
    <defs>
     <path id="C1_0_230510a239" d="M 0 2.5 
C 0.663008 2.5 1.29895 2.236584 1.767767 1.767767 
C 2.236584 1.29895 2.5 0.663008 2.5 -0 
C 2.5 -0.663008 2.236584 -1.29895 1.767767 -1.767767 
C 1.29895 -2.236584 0.663008 -2.5 0 -2.5 
C -0.663008 -2.5 -1.29895 -2.236584 -1.767767 -1.767767 
C -2.236584 -1.29895 -2.5 -0.663008 -2.5 0 
C -2.5 0.663008 -2.236584 1.29895 -1.767767 1.767767 
C -1.29895 2.236584 -0.663008 2.5 0 2.5 
z
"/>
    </defs>
    <g clip-path="url(#p5f0f4928c8)">
     <use xlink:href="#C1_0_230510a239" x="82.805876" y="23.063411" style="fill: #ffffff; stroke: #000000; stroke-width: 0.4"/>
    </g>
    <g clip-path="url(#p5f0f4928c8)">
     <use xlink:href="#C1_0_230510a239" x="83.026296" y="25.452223" style="fill: #ffffff; stroke: #000000; stroke-width: 0.4"/>
    </g>
    <g clip-path="url(#p5f0f4928c8)">
     <use xlink:href="#C1_0_230510a239" x="82.203402" y="31.572157" style="fill: #ffffff; stroke: #000000; stroke-width: 0.4"/>
    </g>
   </g>
   <g id="PathCollection_3">
    <defs>
     <path id="C2_0_01097266a6" d="M 0 2.5 
C 0.663008 2.5 1.29895 2.236584 1.767767 1.767767 
C 2.236584 1.29895 2.5 0.663008 2.5 -0 
C 2.5 -0.663008 2.236584 -1.29895 1.767767 -1.767767 
C 1.29895 -2.236584 0.663008 -2.5 0 -2.5 
C -0.663008 -2.5 -1.29895 -2.236584 -1.767767 -1.767767 
C -2.236584 -1.29895 -2.5 -0.663008 -2.5 0 
C -2.5 0.663008 -2.236584 1.29895 -1.767767 1.767767 
C -1.29895 2.236584 -0.663008 2.5 0 2.5 
z
"/>
    </defs>
    <g clip-path="url(#p5f0f4928c8)">
     <use xlink:href="#C2_0_01097266a6" x="95.046343" y="13.510956" style="fill: #ffffff; stroke: #000000; stroke-width: 0.4"/>
    </g>
    <g clip-path="url(#p5f0f4928c8)">
     <use xlink:href="#C2_0_01097266a6" x="97.667" y="31.596343" style="fill: #ffffff; stroke: #000000; stroke-width: 0.4"/>
    </g>
    <g clip-path="url(#p5f0f4928c8)">
     <use xlink:href="#C2_0_01097266a6" x="95.199578" y="30.03822" style="fill: #ffffff; stroke: #000000; stroke-width: 0.4"/>
    </g>
   </g>
   <g id="PathCollection_4">
    <defs>
     <path id="C3_0_08b80c073c" d="M 0 2.5 
C 0.663008 2.5 1.29895 2.236584 1.767767 1.767767 
C 2.236584 1.29895 2.5 0.663008 2.5 -0 
C 2.5 -0.663008 2.236584 -1.29895 1.767767 -1.767767 
C 1.29895 -2.236584 0.663008 -2.5 0 -2.5 
C -0.663008 -2.5 -1.29895 -2.236584 -1.767767 -1.767767 
C -2.236584 -1.29895 -2.5 -0.663008 -2.5 0 
C -2.5 0.663008 -2.236584 1.29895 -1.767767 1.767767 
C -1.29895 2.236584 -0.663008 2.5 0 2.5 
z
"/>
    </defs>
    <g clip-path="url(#p5f0f4928c8)">
     <use xlink:href="#C3_0_08b80c073c" x="108.410646" y="36.622335" style="fill: #ffffff; stroke: #000000; stroke-width: 0.4"/>
    </g>
    <g clip-path="url(#p5f0f4928c8)">
     <use xlink:href="#C3_0_08b80c073c" x="110.77743" y="35.376767" style="fill: #ffffff; stroke: #000000; stroke-width: 0.4"/>
    </g>
    <g clip-path="url(#p5f0f4928c8)">
     <use xlink:href="#C3_0_08b80c073c" x="107.670778" y="35.934901" style="fill: #ffffff; stroke: #000000; stroke-width: 0.4"/>
    </g>
   </g>
   <g id="PathCollection_5">
    <defs>
     <path id="C4_0_4c41b38918" d="M 0 2.5 
C 0.663008 2.5 1.29895 2.236584 1.767767 1.767767 
C 2.236584 1.29895 2.5 0.663008 2.5 -0 
C 2.5 -0.663008 2.236584 -1.29895 1.767767 -1.767767 
C 1.29895 -2.236584 0.663008 -2.5 0 -2.5 
C -0.663008 -2.5 -1.29895 -2.236584 -1.767767 -1.767767 
C -2.236584 -1.29895 -2.5 -0.663008 -2.5 0 
C -2.5 0.663008 -2.236584 1.29895 -1.767767 1.767767 
C -1.29895 2.236584 -0.663008 2.5 0 2.5 
z
"/>
    </defs>
    <g clip-path="url(#p5f0f4928c8)">
     <use xlink:href="#C4_0_4c41b38918" x="120.816741" y="47.243617" style="fill: #ffffff; stroke: #000000; stroke-width: 0.4"/>
    </g>
    <g clip-path="url(#p5f0f4928c8)">
     <use xlink:href="#C4_0_4c41b38918" x="120.719844" y="49.126387" style="fill: #ffffff; stroke: #000000; stroke-width: 0.4"/>
    </g>
    <g clip-path="url(#p5f0f4928c8)">
     <use xlink:href="#C4_0_4c41b38918" x="121.176775" y="52.697512" style="fill: #ffffff; stroke: #000000; stroke-width: 0.4"/>
    </g>
   </g>
   <g id="PathCollection_6">
    <defs>
     <path id="C5_0_b11374722e" d="M 0 2.5 
C 0.663008 2.5 1.29895 2.236584 1.767767 1.767767 
C 2.236584 1.29895 2.5 0.663008 2.5 -0 
C 2.5 -0.663008 2.236584 -1.29895 1.767767 -1.767767 
C 1.29895 -2.236584 0.663008 -2.5 0 -2.5 
C -0.663008 -2.5 -1.29895 -2.236584 -1.767767 -1.767767 
C -2.236584 -1.29895 -2.5 -0.663008 -2.5 0 
C -2.5 0.663008 -2.236584 1.29895 -1.767767 1.767767 
C -1.29895 2.236584 -0.663008 2.5 0 2.5 
z
"/>
    </defs>
    <g clip-path="url(#p5f0f4928c8)">
     <use xlink:href="#C5_0_b11374722e" x="150.241039" y="109.48853" style="fill: #ffffff; stroke: #000000; stroke-width: 0.4"/>
    </g>
    <g clip-path="url(#p5f0f4928c8)">
     <use xlink:href="#C5_0_b11374722e" x="152.173305" y="109.180626" style="fill: #ffffff; stroke: #000000; stroke-width: 0.4"/>
    </g>
    <g clip-path="url(#p5f0f4928c8)">
     <use xlink:href="#C5_0_b11374722e" x="151.843266" y="108.644818" style="fill: #ffffff; stroke: #000000; stroke-width: 0.4"/>
    </g>
   </g>
   <g id="PathCollection_7">
    <defs>
     <path id="C6_0_41811d6a14" d="M 0 2.5 
C 0.663008 2.5 1.29895 2.236584 1.767767 1.767767 
C 2.236584 1.29895 2.5 0.663008 2.5 -0 
C 2.5 -0.663008 2.236584 -1.29895 1.767767 -1.767767 
C 1.29895 -2.236584 0.663008 -2.5 0 -2.5 
C -0.663008 -2.5 -1.29895 -2.236584 -1.767767 -1.767767 
C -2.236584 -1.29895 -2.5 -0.663008 -2.5 0 
C -2.5 0.663008 -2.236584 1.29895 -1.767767 1.767767 
C -1.29895 2.236584 -0.663008 2.5 0 2.5 
z
"/>
    </defs>
    <g clip-path="url(#p5f0f4928c8)">
     <use xlink:href="#C6_0_41811d6a14" x="162.884887" y="110.03364" style="fill: #ffffff; stroke: #000000; stroke-width: 0.4"/>
    </g>
    <g clip-path="url(#p5f0f4928c8)">
     <use xlink:href="#C6_0_41811d6a14" x="165.893764" y="108.36017" style="fill: #ffffff; stroke: #000000; stroke-width: 0.4"/>
    </g>
    <g clip-path="url(#p5f0f4928c8)">
     <use xlink:href="#C6_0_41811d6a14" x="165.196982" y="109.450391" style="fill: #ffffff; stroke: #000000; stroke-width: 0.4"/>
    </g>
   </g>
   <g id="PathCollection_8">
    <defs>
     <path id="C7_0_18b91c3eea" d="M 0 2.5 
C 0.663008 2.5 1.29895 2.236584 1.767767 1.767767 
C 2.236584 1.29895 2.5 0.663008 2.5 -0 
C 2.5 -0.663008 2.236584 -1.29895 1.767767 -1.767767 
C 1.29895 -2.236584 0.663008 -2.5 0 -2.5 
C -0.663008 -2.5 -1.29895 -2.236584 -1.767767 -1.767767 
C -2.236584 -1.29895 -2.5 -0.663008 -2.5 0 
C -2.5 0.663008 -2.236584 1.29895 -1.767767 1.767767 
C -1.29895 2.236584 -0.663008 2.5 0 2.5 
z
"/>
    </defs>
    <g clip-path="url(#p5f0f4928c8)">
     <use xlink:href="#C7_0_18b91c3eea" x="177.109544" y="111.4113" style="fill: #ffffff; stroke: #000000; stroke-width: 0.4"/>
    </g>
    <g clip-path="url(#p5f0f4928c8)">
     <use xlink:href="#C7_0_18b91c3eea" x="176.567113" y="109.085744" style="fill: #ffffff; stroke: #000000; stroke-width: 0.4"/>
    </g>
    <g clip-path="url(#p5f0f4928c8)">
     <use xlink:href="#C7_0_18b91c3eea" x="176.356633" y="113.371279" style="fill: #ffffff; stroke: #000000; stroke-width: 0.4"/>
    </g>
   </g>
   <g id="PathCollection_9">
    <defs>
     <path id="C8_0_8717c63608" d="M 0 2.5 
C 0.663008 2.5 1.29895 2.236584 1.767767 1.767767 
C 2.236584 1.29895 2.5 0.663008 2.5 -0 
C 2.5 -0.663008 2.236584 -1.29895 1.767767 -1.767767 
C 1.29895 -2.236584 0.663008 -2.5 0 -2.5 
C -0.663008 -2.5 -1.29895 -2.236584 -1.767767 -1.767767 
C -2.236584 -1.29895 -2.5 -0.663008 -2.5 0 
C -2.5 0.663008 -2.236584 1.29895 -1.767767 1.767767 
C -1.29895 2.236584 -0.663008 2.5 0 2.5 
z
"/>
    </defs>
    <g clip-path="url(#p5f0f4928c8)">
     <use xlink:href="#C8_0_8717c63608" x="191.787021" y="111.254092" style="fill: #ffffff; stroke: #000000; stroke-width: 0.4"/>
    </g>
    <g clip-path="url(#p5f0f4928c8)">
     <use xlink:href="#C8_0_8717c63608" x="189.825757" y="112.443847" style="fill: #ffffff; stroke: #000000; stroke-width: 0.4"/>
    </g>
    <g clip-path="url(#p5f0f4928c8)">
     <use xlink:href="#C8_0_8717c63608" x="189.139395" y="115.365676" style="fill: #ffffff; stroke: #000000; stroke-width: 0.4"/>
    </g>
   </g>
   <g id="PathCollection_10">
    <defs>
     <path id="C9_0_33887b66dd" d="M 0 2.5 
C 0.663008 2.5 1.29895 2.236584 1.767767 1.767767 
C 2.236584 1.29895 2.5 0.663008 2.5 -0 
C 2.5 -0.663008 2.236584 -1.29895 1.767767 -1.767767 
C 1.29895 -2.236584 0.663008 -2.5 0 -2.5 
C -0.663008 -2.5 -1.29895 -2.236584 -1.767767 -1.767767 
C -2.236584 -1.29895 -2.5 -0.663008 -2.5 0 
C -2.5 0.663008 -2.236584 1.29895 -1.767767 1.767767 
C -1.29895 2.236584 -0.663008 2.5 0 2.5 
z
"/>
    </defs>
    <g clip-path="url(#p5f0f4928c8)">
     <use xlink:href="#C9_0_33887b66dd" x="204.18693" y="117.614954" style="fill: #ffffff; stroke: #000000; stroke-width: 0.4"/>
    </g>
    <g clip-path="url(#p5f0f4928c8)">
     <use xlink:href="#C9_0_33887b66dd" x="202.204946" y="118.084717" style="fill: #ffffff; stroke: #000000; stroke-width: 0.4"/>
    </g>
    <g clip-path="url(#p5f0f4928c8)">
     <use xlink:href="#C9_0_33887b66dd" x="202.353127" y="115.625208" style="fill: #ffffff; stroke: #000000; stroke-width: 0.4"/>
    </g>
   </g>
   <g id="PathCollection_11">
    <path d="M 71.047623 31.487945 
L 68.547623 36.487945 
L 73.547623 36.487945 
z
" clip-path="url(#p5f0f4928c8)" style="fill: #ffffff; stroke: #000000; stroke-width: 0.4"/>
    <path d="M 70.558224 35.546506 
L 68.058224 40.546506 
L 73.058224 40.546506 
z
" clip-path="url(#p5f0f4928c8)" style="fill: #ffffff; stroke: #000000; stroke-width: 0.4"/>
    <path d="M 70.535789 34.256287 
L 68.035789 39.256287 
L 73.035789 39.256287 
z
" clip-path="url(#p5f0f4928c8)" style="fill: #ffffff; stroke: #000000; stroke-width: 0.4"/>
   </g>
   <g id="PathCollection_12">
    <path d="M 84.054905 41.343653 
L 81.554905 46.343653 
L 86.554905 46.343653 
z
" clip-path="url(#p5f0f4928c8)" style="fill: #ffffff; stroke: #000000; stroke-width: 0.4"/>
    <path d="M 82.425096 51.835634 
L 79.925096 56.835634 
L 84.925096 56.835634 
z
" clip-path="url(#p5f0f4928c8)" style="fill: #ffffff; stroke: #000000; stroke-width: 0.4"/>
    <path d="M 84.105124 47.22452 
L 81.605124 52.22452 
L 86.605124 52.22452 
z
" clip-path="url(#p5f0f4928c8)" style="fill: #ffffff; stroke: #000000; stroke-width: 0.4"/>
   </g>
   <g id="PathCollection_13">
    <path d="M 96.226626 46.334297 
L 93.726626 51.334297 
L 98.726626 51.334297 
z
" clip-path="url(#p5f0f4928c8)" style="fill: #ffffff; stroke: #000000; stroke-width: 0.4"/>
    <path d="M 94.889401 50.193791 
L 92.389401 55.193791 
L 97.389401 55.193791 
z
" clip-path="url(#p5f0f4928c8)" style="fill: #ffffff; stroke: #000000; stroke-width: 0.4"/>
    <path d="M 97.419058 49.178918 
L 94.919058 54.178918 
L 99.919058 54.178918 
z
" clip-path="url(#p5f0f4928c8)" style="fill: #ffffff; stroke: #000000; stroke-width: 0.4"/>
   </g>
   <g id="PathCollection_14">
    <path d="M 108.019326 65.015957 
L 105.519326 70.015957 
L 110.519326 70.015957 
z
" clip-path="url(#p5f0f4928c8)" style="fill: #ffffff; stroke: #000000; stroke-width: 0.4"/>
    <path d="M 108.030603 62.034594 
L 105.530603 67.034594 
L 110.530603 67.034594 
z
" clip-path="url(#p5f0f4928c8)" style="fill: #ffffff; stroke: #000000; stroke-width: 0.4"/>
    <path d="M 109.539949 55.592803 
L 107.039949 60.592803 
L 112.039949 60.592803 
z
" clip-path="url(#p5f0f4928c8)" style="fill: #ffffff; stroke: #000000; stroke-width: 0.4"/>
   </g>
   <g id="PathCollection_15">
    <path d="M 123.145222 38.247872 
L 120.645222 43.247872 
L 125.645222 43.247872 
z
" clip-path="url(#p5f0f4928c8)" style="fill: #ffffff; stroke: #000000; stroke-width: 0.4"/>
    <path d="M 123.042847 53.871891 
L 120.542847 58.871891 
L 125.542847 58.871891 
z
" clip-path="url(#p5f0f4928c8)" style="fill: #ffffff; stroke: #000000; stroke-width: 0.4"/>
    <path d="M 123.409665 44.815244 
L 120.909665 49.815244 
L 125.909665 49.815244 
z
" clip-path="url(#p5f0f4928c8)" style="fill: #ffffff; stroke: #000000; stroke-width: 0.4"/>
   </g>
   <g id="PathCollection_16">
    <path d="M 150.775169 104.621114 
L 148.275169 109.621114 
L 153.275169 109.621114 
z
" clip-path="url(#p5f0f4928c8)" style="fill: #ffffff; stroke: #000000; stroke-width: 0.4"/>
    <path d="M 151.682609 102.988573 
L 149.182609 107.988573 
L 154.182609 107.988573 
z
" clip-path="url(#p5f0f4928c8)" style="fill: #ffffff; stroke: #000000; stroke-width: 0.4"/>
    <path d="M 151.393264 108.188517 
L 148.893264 113.188517 
L 153.893264 113.188517 
z
" clip-path="url(#p5f0f4928c8)" style="fill: #ffffff; stroke: #000000; stroke-width: 0.4"/>
   </g>
   <g id="PathCollection_17">
    <path d="M 165.311921 105.849007 
L 162.811921 110.849007 
L 167.811921 110.849007 
z
" clip-path="url(#p5f0f4928c8)" style="fill: #ffffff; stroke: #000000; stroke-width: 0.4"/>
    <path d="M 164.22307 107.120622 
L 161.72307 112.120622 
L 166.72307 112.120622 
z
" clip-path="url(#p5f0f4928c8)" style="fill: #ffffff; stroke: #000000; stroke-width: 0.4"/>
    <path d="M 164.87367 107.249923 
L 162.37367 112.249923 
L 167.37367 112.249923 
z
" clip-path="url(#p5f0f4928c8)" style="fill: #ffffff; stroke: #000000; stroke-width: 0.4"/>
   </g>
   <g id="PathCollection_18">
    <path d="M 178.338203 109.07781 
L 175.838203 114.07781 
L 180.838203 114.07781 
z
" clip-path="url(#p5f0f4928c8)" style="fill: #ffffff; stroke: #000000; stroke-width: 0.4"/>
    <path d="M 178.449765 110.109427 
L 175.949765 115.109427 
L 180.949765 115.109427 
z
" clip-path="url(#p5f0f4928c8)" style="fill: #ffffff; stroke: #000000; stroke-width: 0.4"/>
    <path d="M 178.046752 109.887104 
L 175.546752 114.887104 
L 180.546752 114.887104 
z
" clip-path="url(#p5f0f4928c8)" style="fill: #ffffff; stroke: #000000; stroke-width: 0.4"/>
   </g>
   <g id="PathCollection_19">
    <path d="M 188.805818 111.137323 
L 186.305818 116.137323 
L 191.305818 116.137323 
z
" clip-path="url(#p5f0f4928c8)" style="fill: #ffffff; stroke: #000000; stroke-width: 0.4"/>
    <path d="M 191.738406 110.495469 
L 189.238406 115.495469 
L 194.238406 115.495469 
z
" clip-path="url(#p5f0f4928c8)" style="fill: #ffffff; stroke: #000000; stroke-width: 0.4"/>
    <path d="M 190.53715 110.198728 
L 188.03715 115.198728 
L 193.03715 115.198728 
z
" clip-path="url(#p5f0f4928c8)" style="fill: #ffffff; stroke: #000000; stroke-width: 0.4"/>
   </g>
   <g id="PathCollection_20">
    <path d="M 202.222746 113.387531 
L 199.722746 118.387531 
L 204.722746 118.387531 
z
" clip-path="url(#p5f0f4928c8)" style="fill: #ffffff; stroke: #000000; stroke-width: 0.4"/>
    <path d="M 203.963641 111.965221 
L 201.463641 116.965221 
L 206.463641 116.965221 
z
" clip-path="url(#p5f0f4928c8)" style="fill: #ffffff; stroke: #000000; stroke-width: 0.4"/>
    <path d="M 203.637788 114.078686 
L 201.137788 119.078686 
L 206.137788 119.078686 
z
" clip-path="url(#p5f0f4928c8)" style="fill: #ffffff; stroke: #000000; stroke-width: 0.4"/>
   </g>
   <g id="PathCollection_21">
    <path d="M 66.856882 58.520267 
L 71.856882 58.520267 
L 71.856882 53.520267 
L 66.856882 53.520267 
z
" clip-path="url(#p5f0f4928c8)" style="fill: #ffffff; stroke: #000000; stroke-width: 0.4"/>
    <path d="M 66.92463 54.139849 
L 71.92463 54.139849 
L 71.92463 49.139849 
L 66.92463 49.139849 
z
" clip-path="url(#p5f0f4928c8)" style="fill: #ffffff; stroke: #000000; stroke-width: 0.4"/>
    <path d="M 68.872979 59.841183 
L 73.872979 59.841183 
L 73.872979 54.841183 
L 68.872979 54.841183 
z
" clip-path="url(#p5f0f4928c8)" style="fill: #ffffff; stroke: #000000; stroke-width: 0.4"/>
   </g>
   <g id="PathCollection_22">
    <path d="M 79.702859 53.924967 
L 84.702859 53.924967 
L 84.702859 48.924967 
L 79.702859 48.924967 
z
" clip-path="url(#p5f0f4928c8)" style="fill: #ffffff; stroke: #000000; stroke-width: 0.4"/>
    <path d="M 80.244592 57.617951 
L 85.244592 57.617951 
L 85.244592 52.617951 
L 80.244592 52.617951 
z
" clip-path="url(#p5f0f4928c8)" style="fill: #ffffff; stroke: #000000; stroke-width: 0.4"/>
    <path d="M 79.345015 58.499802 
L 84.345015 58.499802 
L 84.345015 53.499802 
L 79.345015 53.499802 
z
" clip-path="url(#p5f0f4928c8)" style="fill: #ffffff; stroke: #000000; stroke-width: 0.4"/>
   </g>
   <g id="PathCollection_23">
    <path d="M 92.309365 53.381717 
L 97.309365 53.381717 
L 97.309365 48.381717 
L 92.309365 48.381717 
z
" clip-path="url(#p5f0f4928c8)" style="fill: #ffffff; stroke: #000000; stroke-width: 0.4"/>
    <path d="M 94.059013 59.543512 
L 99.059013 59.543512 
L 99.059013 54.543512 
L 94.059013 54.543512 
z
" clip-path="url(#p5f0f4928c8)" style="fill: #ffffff; stroke: #000000; stroke-width: 0.4"/>
    <path d="M 92.376604 59.800253 
L 97.376604 59.800253 
L 97.376604 54.800253 
L 92.376604 54.800253 
z
" clip-path="url(#p5f0f4928c8)" style="fill: #ffffff; stroke: #000000; stroke-width: 0.4"/>
   </g>
   <g id="PathCollection_24">
    <path d="M 107.858065 57.440278 
L 112.858065 57.440278 
L 112.858065 52.440278 
L 107.858065 52.440278 
z
" clip-path="url(#p5f0f4928c8)" style="fill: #ffffff; stroke: #000000; stroke-width: 0.4"/>
    <path d="M 105.642723 59.393746 
L 110.642723 59.393746 
L 110.642723 54.393746 
L 105.642723 54.393746 
z
" clip-path="url(#p5f0f4928c8)" style="fill: #ffffff; stroke: #000000; stroke-width: 0.4"/>
    <path d="M 107.726904 61.846743 
L 112.726904 61.846743 
L 112.726904 56.846743 
L 107.726904 56.846743 
z
" clip-path="url(#p5f0f4928c8)" style="fill: #ffffff; stroke: #000000; stroke-width: 0.4"/>
   </g>
   <g id="PathCollection_25">
    <path d="M 119.641036 61.916509 
L 124.641036 61.916509 
L 124.641036 56.916509 
L 119.641036 56.916509 
z
" clip-path="url(#p5f0f4928c8)" style="fill: #ffffff; stroke: #000000; stroke-width: 0.4"/>
    <path d="M 120.587591 65.919257 
L 125.587591 65.919257 
L 125.587591 60.919257 
L 120.587591 60.919257 
z
" clip-path="url(#p5f0f4928c8)" style="fill: #ffffff; stroke: #000000; stroke-width: 0.4"/>
    <path d="M 120.549077 64.464389 
L 125.549077 64.464389 
L 125.549077 59.464389 
L 120.549077 59.464389 
z
" clip-path="url(#p5f0f4928c8)" style="fill: #ffffff; stroke: #000000; stroke-width: 0.4"/>
   </g>
   <g id="PathCollection_26">
    <path d="M 149.777445 111.529 
L 154.777445 111.529 
L 154.777445 106.529 
L 149.777445 106.529 
z
" clip-path="url(#p5f0f4928c8)" style="fill: #ffffff; stroke: #000000; stroke-width: 0.4"/>
    <path d="M 149.715097 111.551325 
L 154.715097 111.551325 
L 154.715097 106.551325 
L 149.715097 106.551325 
z
" clip-path="url(#p5f0f4928c8)" style="fill: #ffffff; stroke: #000000; stroke-width: 0.4"/>
    <path d="M 147.879611 111.683417 
L 152.879611 111.683417 
L 152.879611 106.683417 
L 147.879611 106.683417 
z
" clip-path="url(#p5f0f4928c8)" style="fill: #ffffff; stroke: #000000; stroke-width: 0.4"/>
   </g>
   <g id="PathCollection_27">
    <path d="M 163.3372 111.640627 
L 168.3372 111.640627 
L 168.3372 106.640627 
L 163.3372 106.640627 
z
" clip-path="url(#p5f0f4928c8)" style="fill: #ffffff; stroke: #000000; stroke-width: 0.4"/>
    <path d="M 160.828002 112.247132 
L 165.828002 112.247132 
L 165.828002 107.247132 
L 160.828002 107.247132 
z
" clip-path="url(#p5f0f4928c8)" style="fill: #ffffff; stroke: #000000; stroke-width: 0.4"/>
    <path d="M 162.089594 111.300165 
L 167.089594 111.300165 
L 167.089594 106.300165 
L 162.089594 106.300165 
z
" clip-path="url(#p5f0f4928c8)" style="fill: #ffffff; stroke: #000000; stroke-width: 0.4"/>
   </g>
   <g id="PathCollection_28">
    <path d="M 175.101807 113.435026 
L 180.101807 113.435026 
L 180.101807 108.435026 
L 175.101807 108.435026 
z
" clip-path="url(#p5f0f4928c8)" style="fill: #ffffff; stroke: #000000; stroke-width: 0.4"/>
    <path d="M 174.345554 113.441538 
L 179.345554 113.441538 
L 179.345554 108.441538 
L 174.345554 108.441538 
z
" clip-path="url(#p5f0f4928c8)" style="fill: #ffffff; stroke: #000000; stroke-width: 0.4"/>
    <path d="M 173.927655 111.516907 
L 178.927655 111.516907 
L 178.927655 106.516907 
L 173.927655 106.516907 
z
" clip-path="url(#p5f0f4928c8)" style="fill: #ffffff; stroke: #000000; stroke-width: 0.4"/>
   </g>
   <g id="PathCollection_29">
    <path d="M 187.509658 113.913161 
L 192.509658 113.913161 
L 192.509658 108.913161 
L 187.509658 108.913161 
z
" clip-path="url(#p5f0f4928c8)" style="fill: #ffffff; stroke: #000000; stroke-width: 0.4"/>
    <path d="M 186.472605 115.649886 
L 191.472605 115.649886 
L 191.472605 110.649886 
L 186.472605 110.649886 
z
" clip-path="url(#p5f0f4928c8)" style="fill: #ffffff; stroke: #000000; stroke-width: 0.4"/>
    <path d="M 187.43847 114.023857 
L 192.43847 114.023857 
L 192.43847 109.023857 
L 187.43847 109.023857 
z
" clip-path="url(#p5f0f4928c8)" style="fill: #ffffff; stroke: #000000; stroke-width: 0.4"/>
   </g>
   <g id="PathCollection_30">
    <path d="M 199.662339 118.181022 
L 204.662339 118.181022 
L 204.662339 113.181022 
L 199.662339 113.181022 
z
" clip-path="url(#p5f0f4928c8)" style="fill: #ffffff; stroke: #000000; stroke-width: 0.4"/>
    <path d="M 200.544535 117.745678 
L 205.544535 117.745678 
L 205.544535 112.745678 
L 200.544535 112.745678 
z
" clip-path="url(#p5f0f4928c8)" style="fill: #ffffff; stroke: #000000; stroke-width: 0.4"/>
    <path d="M 199.864665 118.2173 
L 204.864665 118.2173 
L 204.864665 113.2173 
L 199.864665 113.2173 
z
" clip-path="url(#p5f0f4928c8)" style="fill: #ffffff; stroke: #000000; stroke-width: 0.4"/>
   </g>
   <g id="legend_1">
    <g id="patch_17">
     <path d="M 230.312344 19.473594 
L 252.312344 19.473594 
L 252.312344 11.773594 
L 230.312344 11.773594 
z
" style="fill: #4b4279; opacity: 0.8; stroke: #ffffff; stroke-linejoin: miter"/>
    </g>
    <g id="text_7">
     <!-- 0 uM -->
     <g style="fill: #262626" transform="translate(261.112344 19.473594) scale(0.11 -0.11)">
      <defs>
       <path id="ArialMT-4d" d="M 475 0 
L 475 4581 
L 1388 4581 
L 2472 1338 
Q 2622 884 2691 659 
Q 2769 909 2934 1394 
L 4031 4581 
L 4847 4581 
L 4847 0 
L 4263 0 
L 4263 3834 
L 2931 0 
L 2384 0 
L 1059 3900 
L 1059 0 
L 475 0 
z
" transform="scale(0.015625)"/>
      </defs>
      <use xlink:href="#ArialMT-30"/>
      <use xlink:href="#ArialMT-20" transform="translate(55.615234 0)"/>
      <use xlink:href="#ArialMT-75" transform="translate(83.398438 0)"/>
      <use xlink:href="#ArialMT-4d" transform="translate(139.013672 0)"/>
     </g>
    </g>
    <g id="patch_18">
     <path d="M 230.312344 35.033437 
L 252.312344 35.033437 
L 252.312344 27.333437 
L 230.312344 27.333437 
z
" style="fill: #3c6682; opacity: 0.8; stroke: #ffffff; stroke-linejoin: miter"/>
    </g>
    <g id="text_8">
     <!-- 0.1 uM -->
     <g style="fill: #262626" transform="translate(261.112344 35.033437) scale(0.11 -0.11)">
      <defs>
       <path id="ArialMT-2e" d="M 581 0 
L 581 641 
L 1222 641 
L 1222 0 
L 581 0 
z
" transform="scale(0.015625)"/>
      </defs>
      <use xlink:href="#ArialMT-30"/>
      <use xlink:href="#ArialMT-2e" transform="translate(55.615234 0)"/>
      <use xlink:href="#ArialMT-31" transform="translate(83.398438 0)"/>
      <use xlink:href="#ArialMT-20" transform="translate(139.013672 0)"/>
      <use xlink:href="#ArialMT-75" transform="translate(166.796875 0)"/>
      <use xlink:href="#ArialMT-4d" transform="translate(222.412109 0)"/>
     </g>
    </g>
    <g id="patch_19">
     <path d="M 230.312344 50.593281 
L 252.312344 50.593281 
L 252.312344 42.893281 
L 230.312344 42.893281 
z
" style="fill: #2f837f; opacity: 0.8; stroke: #ffffff; stroke-linejoin: miter"/>
    </g>
    <g id="text_9">
     <!-- 0.5 uM -->
     <g style="fill: #262626" transform="translate(261.112344 50.593281) scale(0.11 -0.11)">
      <use xlink:href="#ArialMT-30"/>
      <use xlink:href="#ArialMT-2e" transform="translate(55.615234 0)"/>
      <use xlink:href="#ArialMT-35" transform="translate(83.398438 0)"/>
      <use xlink:href="#ArialMT-20" transform="translate(139.013672 0)"/>
      <use xlink:href="#ArialMT-75" transform="translate(166.796875 0)"/>
      <use xlink:href="#ArialMT-4d" transform="translate(222.412109 0)"/>
     </g>
    </g>
    <g id="patch_20">
     <path d="M 230.312344 66.153125 
L 252.312344 66.153125 
L 252.312344 58.453125 
L 230.312344 58.453125 
z
" style="fill: #45a778; opacity: 0.8; stroke: #ffffff; stroke-linejoin: miter"/>
    </g>
    <g id="text_10">
     <!-- 1 uM -->
     <g style="fill: #262626" transform="translate(261.112344 66.153125) scale(0.11 -0.11)">
      <use xlink:href="#ArialMT-31"/>
      <use xlink:href="#ArialMT-20" transform="translate(55.615234 0)"/>
      <use xlink:href="#ArialMT-75" transform="translate(83.398438 0)"/>
      <use xlink:href="#ArialMT-4d" transform="translate(139.013672 0)"/>
     </g>
    </g>
    <g id="patch_21">
     <path d="M 230.312344 81.712969 
L 252.312344 81.712969 
L 252.312344 74.012969 
L 230.312344 74.012969 
z
" style="fill: #8fc456; opacity: 0.8; stroke: #ffffff; stroke-linejoin: miter"/>
    </g>
    <g id="text_11">
     <!-- 2.5 uM -->
     <g style="fill: #262626" transform="translate(261.112344 81.712969) scale(0.11 -0.11)">
      <defs>
       <path id="ArialMT-32" d="M 3222 541 
L 3222 0 
L 194 0 
Q 188 203 259 391 
Q 375 700 629 1000 
Q 884 1300 1366 1694 
Q 2113 2306 2375 2664 
Q 2638 3022 2638 3341 
Q 2638 3675 2398 3904 
Q 2159 4134 1775 4134 
Q 1369 4134 1125 3890 
Q 881 3647 878 3216 
L 300 3275 
Q 359 3922 746 4261 
Q 1134 4600 1788 4600 
Q 2447 4600 2831 4234 
Q 3216 3869 3216 3328 
Q 3216 3053 3103 2787 
Q 2991 2522 2730 2228 
Q 2469 1934 1863 1422 
Q 1356 997 1212 845 
Q 1069 694 975 541 
L 3222 541 
z
" transform="scale(0.015625)"/>
      </defs>
      <use xlink:href="#ArialMT-32"/>
      <use xlink:href="#ArialMT-2e" transform="translate(55.615234 0)"/>
      <use xlink:href="#ArialMT-35" transform="translate(83.398438 0)"/>
      <use xlink:href="#ArialMT-20" transform="translate(139.013672 0)"/>
      <use xlink:href="#ArialMT-75" transform="translate(166.796875 0)"/>
      <use xlink:href="#ArialMT-4d" transform="translate(222.412109 0)"/>
     </g>
    </g>
   </g>
  </g>
 </g>
 <defs>
  <clipPath id="p5f0f4928c8">
   <rect x="55.812344" y="7.2" width="162" height="117"/>
  </clipPath>
 </defs>
</svg>
