<?xml version="1.0" encoding="utf-8" standalone="no"?>
<!DOCTYPE svg PUBLIC "-//W3C//DTD SVG 1.1//EN"
  "http://www.w3.org/Graphics/SVG/1.1/DTD/svg11.dtd">
<svg xmlns:xlink="http://www.w3.org/1999/xlink" width="307.413187pt" height="150.959844pt" viewBox="0 0 307.413187 150.959844" xmlns="http://www.w3.org/2000/svg" version="1.1">
 <metadata>
  <rdf:RDF xmlns:dc="http://purl.org/dc/elements/1.1/" xmlns:cc="http://creativecommons.org/ns#" xmlns:rdf="http://www.w3.org/1999/02/22-rdf-syntax-ns#">
   <cc:Work>
    <dc:type rdf:resource="http://purl.org/dc/dcmitype/StillImage"/>
    <dc:date>2025-07-28T16:46:30.423710</dc:date>
    <dc:format>image/svg+xml</dc:format>
    <dc:creator>
     <cc:Agent>
      <dc:title>Matplotlib v3.10.3, https://matplotlib.org/</dc:title>
     </cc:Agent>
    </dc:creator>
   </cc:Work>
  </rdf:RDF>
 </metadata>
 <defs>
  <style type="text/css">*{stroke-linejoin: round; stroke-linecap: butt}</style>
 </defs>
 <g id="figure_1">
  <g id="patch_1">
   <path d="M 0 150.959844 
L 307.413187 150.959844 
L 307.413187 0 
L 0 0 
z
" style="fill: #ffffff"/>
  </g>
  <g id="axes_1">
   <g id="patch_2">
    <path d="M 56.887563 124.2 
L 218.887562 124.2 
L 218.887562 7.2 
L 56.887563 7.2 
z
" style="fill: #ffffff"/>
   </g>
   <g id="matplotlib.axis_1">
    <g id="xtick_1">
     <g id="line2d_1">
      <defs>
       <path id="m85059e764f" d="M 0 0 
L 0 6 
" style="stroke: #262626; stroke-width: 1.25"/>
      </defs>
      <g>
       <use xlink:href="#m85059e764f" x="97.387563" y="124.2" style="fill: #262626; stroke: #262626; stroke-width: 1.25"/>
      </g>
     </g>
     <g id="text_1">
      <!-- SDDIR -->
      <g style="fill: #262626" transform="translate(80.274828 141.573594) scale(0.11 -0.11)">
       <defs>
        <path id="ArialMT-53" d="M 288 1472 
L 859 1522 
Q 900 1178 1048 958 
Q 1197 738 1509 602 
Q 1822 466 2213 466 
Q 2559 466 2825 569 
Q 3091 672 3220 851 
Q 3350 1031 3350 1244 
Q 3350 1459 3225 1620 
Q 3100 1781 2813 1891 
Q 2628 1963 1997 2114 
Q 1366 2266 1113 2400 
Q 784 2572 623 2826 
Q 463 3081 463 3397 
Q 463 3744 659 4045 
Q 856 4347 1234 4503 
Q 1613 4659 2075 4659 
Q 2584 4659 2973 4495 
Q 3363 4331 3572 4012 
Q 3781 3694 3797 3291 
L 3216 3247 
Q 3169 3681 2898 3903 
Q 2628 4125 2100 4125 
Q 1550 4125 1298 3923 
Q 1047 3722 1047 3438 
Q 1047 3191 1225 3031 
Q 1400 2872 2139 2705 
Q 2878 2538 3153 2413 
Q 3553 2228 3743 1945 
Q 3934 1663 3934 1294 
Q 3934 928 3725 604 
Q 3516 281 3123 101 
Q 2731 -78 2241 -78 
Q 1619 -78 1198 103 
Q 778 284 539 648 
Q 300 1013 288 1472 
z
" transform="scale(0.015625)"/>
        <path id="ArialMT-44" d="M 494 0 
L 494 4581 
L 2072 4581 
Q 2606 4581 2888 4516 
Q 3281 4425 3559 4188 
Q 3922 3881 4101 3404 
Q 4281 2928 4281 2316 
Q 4281 1794 4159 1391 
Q 4038 988 3847 723 
Q 3656 459 3429 307 
Q 3203 156 2883 78 
Q 2563 0 2147 0 
L 494 0 
z
M 1100 541 
L 2078 541 
Q 2531 541 2789 625 
Q 3047 709 3200 863 
Q 3416 1078 3536 1442 
Q 3656 1806 3656 2325 
Q 3656 3044 3420 3430 
Q 3184 3816 2847 3947 
Q 2603 4041 2063 4041 
L 1100 4041 
L 1100 541 
z
" transform="scale(0.015625)"/>
        <path id="ArialMT-49" d="M 597 0 
L 597 4581 
L 1203 4581 
L 1203 0 
L 597 0 
z
" transform="scale(0.015625)"/>
        <path id="ArialMT-52" d="M 503 0 
L 503 4581 
L 2534 4581 
Q 3147 4581 3465 4457 
Q 3784 4334 3975 4021 
Q 4166 3709 4166 3331 
Q 4166 2844 3850 2509 
Q 3534 2175 2875 2084 
Q 3116 1969 3241 1856 
Q 3506 1613 3744 1247 
L 4541 0 
L 3778 0 
L 3172 953 
Q 2906 1366 2734 1584 
Q 2563 1803 2427 1890 
Q 2291 1978 2150 2013 
Q 2047 2034 1813 2034 
L 1109 2034 
L 1109 0 
L 503 0 
z
M 1109 2559 
L 2413 2559 
Q 2828 2559 3062 2645 
Q 3297 2731 3419 2920 
Q 3541 3109 3541 3331 
Q 3541 3656 3305 3865 
Q 3069 4075 2559 4075 
L 1109 4075 
L 1109 2559 
z
" transform="scale(0.015625)"/>
       </defs>
       <use xlink:href="#ArialMT-53"/>
       <use xlink:href="#ArialMT-44" transform="translate(66.699219 0)"/>
       <use xlink:href="#ArialMT-44" transform="translate(138.916016 0)"/>
       <use xlink:href="#ArialMT-49" transform="translate(211.132812 0)"/>
       <use xlink:href="#ArialMT-52" transform="translate(238.916016 0)"/>
      </g>
     </g>
    </g>
    <g id="xtick_2">
     <g id="line2d_2">
      <g>
       <use xlink:href="#m85059e764f" x="178.387563" y="124.2" style="fill: #262626; stroke: #262626; stroke-width: 1.25"/>
      </g>
     </g>
     <g id="text_2">
      <!-- RISDD -->
      <g style="fill: #262626" transform="translate(161.274828 141.573594) scale(0.11 -0.11)">
       <use xlink:href="#ArialMT-52"/>
       <use xlink:href="#ArialMT-49" transform="translate(72.216797 0)"/>
       <use xlink:href="#ArialMT-53" transform="translate(100 0)"/>
       <use xlink:href="#ArialMT-44" transform="translate(166.699219 0)"/>
       <use xlink:href="#ArialMT-44" transform="translate(238.916016 0)"/>
      </g>
     </g>
    </g>
   </g>
   <g id="matplotlib.axis_2">
    <g id="ytick_1">
     <g id="line2d_3">
      <defs>
       <path id="mf2182f6f4f" d="M 0 0 
L -6 0 
" style="stroke: #262626; stroke-width: 1.25"/>
      </defs>
      <g>
       <use xlink:href="#mf2182f6f4f" x="56.887563" y="124.2" style="fill: #262626; stroke: #262626; stroke-width: 1.25"/>
      </g>
     </g>
     <g id="text_3">
      <!-- 0 -->
      <g style="fill: #262626" transform="translate(41.270531 128.136797) scale(0.11 -0.11)">
       <defs>
        <path id="ArialMT-30" d="M 266 2259 
Q 266 3072 433 3567 
Q 600 4063 929 4331 
Q 1259 4600 1759 4600 
Q 2128 4600 2406 4451 
Q 2684 4303 2865 4023 
Q 3047 3744 3150 3342 
Q 3253 2941 3253 2259 
Q 3253 1453 3087 958 
Q 2922 463 2592 192 
Q 2263 -78 1759 -78 
Q 1097 -78 719 397 
Q 266 969 266 2259 
z
M 844 2259 
Q 844 1131 1108 757 
Q 1372 384 1759 384 
Q 2147 384 2411 759 
Q 2675 1134 2675 2259 
Q 2675 3391 2411 3762 
Q 2147 4134 1753 4134 
Q 1366 4134 1134 3806 
Q 844 3388 844 2259 
z
" transform="scale(0.015625)"/>
       </defs>
       <use xlink:href="#ArialMT-30"/>
      </g>
     </g>
    </g>
    <g id="ytick_2">
     <g id="line2d_4">
      <g>
       <use xlink:href="#mf2182f6f4f" x="56.887563" y="91.427703" style="fill: #262626; stroke: #262626; stroke-width: 1.25"/>
      </g>
     </g>
     <g id="text_4">
      <!-- 20 -->
      <g style="fill: #262626" transform="translate(35.1535 95.3645) scale(0.11 -0.11)">
       <defs>
        <path id="ArialMT-32" d="M 3222 541 
L 3222 0 
L 194 0 
Q 188 203 259 391 
Q 375 700 629 1000 
Q 884 1300 1366 1694 
Q 2113 2306 2375 2664 
Q 2638 3022 2638 3341 
Q 2638 3675 2398 3904 
Q 2159 4134 1775 4134 
Q 1369 4134 1125 3890 
Q 881 3647 878 3216 
L 300 3275 
Q 359 3922 746 4261 
Q 1134 4600 1788 4600 
Q 2447 4600 2831 4234 
Q 3216 3869 3216 3328 
Q 3216 3053 3103 2787 
Q 2991 2522 2730 2228 
Q 2469 1934 1863 1422 
Q 1356 997 1212 845 
Q 1069 694 975 541 
L 3222 541 
z
" transform="scale(0.015625)"/>
       </defs>
       <use xlink:href="#ArialMT-32"/>
       <use xlink:href="#ArialMT-30" transform="translate(55.615234 0)"/>
      </g>
     </g>
    </g>
    <g id="ytick_3">
     <g id="line2d_5">
      <g>
       <use xlink:href="#mf2182f6f4f" x="56.887563" y="58.655406" style="fill: #262626; stroke: #262626; stroke-width: 1.25"/>
      </g>
     </g>
     <g id="text_5">
      <!-- 40 -->
      <g style="fill: #262626" transform="translate(35.1535 62.592203) scale(0.11 -0.11)">
       <defs>
        <path id="ArialMT-34" d="M 2069 0 
L 2069 1097 
L 81 1097 
L 81 1613 
L 2172 4581 
L 2631 4581 
L 2631 1613 
L 3250 1613 
L 3250 1097 
L 2631 1097 
L 2631 0 
L 2069 0 
z
M 2069 1613 
L 2069 3678 
L 634 1613 
L 2069 1613 
z
" transform="scale(0.015625)"/>
       </defs>
       <use xlink:href="#ArialMT-34"/>
       <use xlink:href="#ArialMT-30" transform="translate(55.615234 0)"/>
      </g>
     </g>
    </g>
    <g id="ytick_4">
     <g id="line2d_6">
      <g>
       <use xlink:href="#mf2182f6f4f" x="56.887563" y="25.883109" style="fill: #262626; stroke: #262626; stroke-width: 1.25"/>
      </g>
     </g>
     <g id="text_6">
      <!-- 60 -->
      <g style="fill: #262626" transform="translate(35.1535 29.819906) scale(0.11 -0.11)">
       <defs>
        <path id="ArialMT-36" d="M 3184 3459 
L 2625 3416 
Q 2550 3747 2413 3897 
Q 2184 4138 1850 4138 
Q 1581 4138 1378 3988 
Q 1113 3794 959 3422 
Q 806 3050 800 2363 
Q 1003 2672 1297 2822 
Q 1591 2972 1913 2972 
Q 2475 2972 2870 2558 
Q 3266 2144 3266 1488 
Q 3266 1056 3080 686 
Q 2894 316 2569 119 
Q 2244 -78 1831 -78 
Q 1128 -78 684 439 
Q 241 956 241 2144 
Q 241 3472 731 4075 
Q 1159 4600 1884 4600 
Q 2425 4600 2770 4297 
Q 3116 3994 3184 3459 
z
M 888 1484 
Q 888 1194 1011 928 
Q 1134 663 1356 523 
Q 1578 384 1822 384 
Q 2178 384 2434 671 
Q 2691 959 2691 1453 
Q 2691 1928 2437 2201 
Q 2184 2475 1800 2475 
Q 1419 2475 1153 2201 
Q 888 1928 888 1484 
z
" transform="scale(0.015625)"/>
       </defs>
       <use xlink:href="#ArialMT-36"/>
       <use xlink:href="#ArialMT-30" transform="translate(55.615234 0)"/>
      </g>
     </g>
    </g>
    <g id="text_7">
     <!-- (%) iMN -->
     <g style="fill: #262626" transform="translate(15.935625 87.361875) rotate(-90) scale(0.12 -0.12)">
      <defs>
       <path id="ArialMT-28" d="M 1497 -1347 
Q 1031 -759 709 28 
Q 388 816 388 1659 
Q 388 2403 628 3084 
Q 909 3875 1497 4659 
L 1900 4659 
Q 1522 4009 1400 3731 
Q 1209 3300 1100 2831 
Q 966 2247 966 1656 
Q 966 153 1900 -1347 
L 1497 -1347 
z
" transform="scale(0.015625)"/>
       <path id="ArialMT-25" d="M 372 3481 
Q 372 3972 619 4315 
Q 866 4659 1334 4659 
Q 1766 4659 2048 4351 
Q 2331 4044 2331 3447 
Q 2331 2866 2045 2552 
Q 1759 2238 1341 2238 
Q 925 2238 648 2547 
Q 372 2856 372 3481 
z
M 1350 4272 
Q 1141 4272 1002 4090 
Q 863 3909 863 3425 
Q 863 2984 1003 2804 
Q 1144 2625 1350 2625 
Q 1563 2625 1702 2806 
Q 1841 2988 1841 3469 
Q 1841 3913 1700 4092 
Q 1559 4272 1350 4272 
z
M 1353 -169 
L 3859 4659 
L 4316 4659 
L 1819 -169 
L 1353 -169 
z
M 3334 1075 
Q 3334 1569 3581 1911 
Q 3828 2253 4300 2253 
Q 4731 2253 5014 1945 
Q 5297 1638 5297 1041 
Q 5297 459 5011 145 
Q 4725 -169 4303 -169 
Q 3888 -169 3611 142 
Q 3334 453 3334 1075 
z
M 4316 1866 
Q 4103 1866 3964 1684 
Q 3825 1503 3825 1019 
Q 3825 581 3965 400 
Q 4106 219 4313 219 
Q 4528 219 4667 400 
Q 4806 581 4806 1063 
Q 4806 1506 4665 1686 
Q 4525 1866 4316 1866 
z
" transform="scale(0.015625)"/>
       <path id="ArialMT-29" d="M 791 -1347 
L 388 -1347 
Q 1322 153 1322 1656 
Q 1322 2244 1188 2822 
Q 1081 3291 891 3722 
Q 769 4003 388 4659 
L 791 4659 
Q 1378 3875 1659 3084 
Q 1900 2403 1900 1659 
Q 1900 816 1576 28 
Q 1253 -759 791 -1347 
z
" transform="scale(0.015625)"/>
       <path id="ArialMT-20" transform="scale(0.015625)"/>
       <path id="ArialMT-69" d="M 425 3934 
L 425 4581 
L 988 4581 
L 988 3934 
L 425 3934 
z
M 425 0 
L 425 3319 
L 988 3319 
L 988 0 
L 425 0 
z
" transform="scale(0.015625)"/>
       <path id="ArialMT-4d" d="M 475 0 
L 475 4581 
L 1388 4581 
L 2472 1338 
Q 2622 884 2691 659 
Q 2769 909 2934 1394 
L 4031 4581 
L 4847 4581 
L 4847 0 
L 4263 0 
L 4263 3834 
L 2931 0 
L 2384 0 
L 1059 3900 
L 1059 0 
L 475 0 
z
" transform="scale(0.015625)"/>
       <path id="ArialMT-4e" d="M 488 0 
L 488 4581 
L 1109 4581 
L 3516 984 
L 3516 4581 
L 4097 4581 
L 4097 0 
L 3475 0 
L 1069 3600 
L 1069 0 
L 488 0 
z
" transform="scale(0.015625)"/>
      </defs>
      <use xlink:href="#ArialMT-28"/>
      <use xlink:href="#ArialMT-25" transform="translate(33.300781 0)"/>
      <use xlink:href="#ArialMT-29" transform="translate(122.216797 0)"/>
      <use xlink:href="#ArialMT-20" transform="translate(155.517578 0)"/>
      <use xlink:href="#ArialMT-69" transform="translate(183.300781 0)"/>
      <use xlink:href="#ArialMT-4d" transform="translate(205.517578 0)"/>
      <use xlink:href="#ArialMT-4e" transform="translate(288.818359 0)"/>
     </g>
     <!-- of all cells -->
     <g style="fill: #262626" transform="translate(28.7685 92.042812) rotate(-90) scale(0.12 -0.12)">
      <defs>
       <path id="ArialMT-6f" d="M 213 1659 
Q 213 2581 725 3025 
Q 1153 3394 1769 3394 
Q 2453 3394 2887 2945 
Q 3322 2497 3322 1706 
Q 3322 1066 3130 698 
Q 2938 331 2570 128 
Q 2203 -75 1769 -75 
Q 1072 -75 642 372 
Q 213 819 213 1659 
z
M 791 1659 
Q 791 1022 1069 705 
Q 1347 388 1769 388 
Q 2188 388 2466 706 
Q 2744 1025 2744 1678 
Q 2744 2294 2464 2611 
Q 2184 2928 1769 2928 
Q 1347 2928 1069 2612 
Q 791 2297 791 1659 
z
" transform="scale(0.015625)"/>
       <path id="ArialMT-66" d="M 556 0 
L 556 2881 
L 59 2881 
L 59 3319 
L 556 3319 
L 556 3672 
Q 556 4006 616 4169 
Q 697 4388 901 4523 
Q 1106 4659 1475 4659 
Q 1713 4659 2000 4603 
L 1916 4113 
Q 1741 4144 1584 4144 
Q 1328 4144 1222 4034 
Q 1116 3925 1116 3625 
L 1116 3319 
L 1763 3319 
L 1763 2881 
L 1116 2881 
L 1116 0 
L 556 0 
z
" transform="scale(0.015625)"/>
       <path id="ArialMT-61" d="M 2588 409 
Q 2275 144 1986 34 
Q 1697 -75 1366 -75 
Q 819 -75 525 192 
Q 231 459 231 875 
Q 231 1119 342 1320 
Q 453 1522 633 1644 
Q 813 1766 1038 1828 
Q 1203 1872 1538 1913 
Q 2219 1994 2541 2106 
Q 2544 2222 2544 2253 
Q 2544 2597 2384 2738 
Q 2169 2928 1744 2928 
Q 1347 2928 1158 2789 
Q 969 2650 878 2297 
L 328 2372 
Q 403 2725 575 2942 
Q 747 3159 1072 3276 
Q 1397 3394 1825 3394 
Q 2250 3394 2515 3294 
Q 2781 3194 2906 3042 
Q 3031 2891 3081 2659 
Q 3109 2516 3109 2141 
L 3109 1391 
Q 3109 606 3145 398 
Q 3181 191 3288 0 
L 2700 0 
Q 2613 175 2588 409 
z
M 2541 1666 
Q 2234 1541 1622 1453 
Q 1275 1403 1131 1340 
Q 988 1278 909 1158 
Q 831 1038 831 891 
Q 831 666 1001 516 
Q 1172 366 1500 366 
Q 1825 366 2078 508 
Q 2331 650 2450 897 
Q 2541 1088 2541 1459 
L 2541 1666 
z
" transform="scale(0.015625)"/>
       <path id="ArialMT-6c" d="M 409 0 
L 409 4581 
L 972 4581 
L 972 0 
L 409 0 
z
" transform="scale(0.015625)"/>
       <path id="ArialMT-63" d="M 2588 1216 
L 3141 1144 
Q 3050 572 2676 248 
Q 2303 -75 1759 -75 
Q 1078 -75 664 370 
Q 250 816 250 1647 
Q 250 2184 428 2587 
Q 606 2991 970 3192 
Q 1334 3394 1763 3394 
Q 2303 3394 2647 3120 
Q 2991 2847 3088 2344 
L 2541 2259 
Q 2463 2594 2264 2762 
Q 2066 2931 1784 2931 
Q 1359 2931 1093 2626 
Q 828 2322 828 1663 
Q 828 994 1084 691 
Q 1341 388 1753 388 
Q 2084 388 2306 591 
Q 2528 794 2588 1216 
z
" transform="scale(0.015625)"/>
       <path id="ArialMT-65" d="M 2694 1069 
L 3275 997 
Q 3138 488 2766 206 
Q 2394 -75 1816 -75 
Q 1088 -75 661 373 
Q 234 822 234 1631 
Q 234 2469 665 2931 
Q 1097 3394 1784 3394 
Q 2450 3394 2872 2941 
Q 3294 2488 3294 1666 
Q 3294 1616 3291 1516 
L 816 1516 
Q 847 969 1125 678 
Q 1403 388 1819 388 
Q 2128 388 2347 550 
Q 2566 713 2694 1069 
z
M 847 1978 
L 2700 1978 
Q 2663 2397 2488 2606 
Q 2219 2931 1791 2931 
Q 1403 2931 1139 2672 
Q 875 2413 847 1978 
z
" transform="scale(0.015625)"/>
       <path id="ArialMT-73" d="M 197 991 
L 753 1078 
Q 800 744 1014 566 
Q 1228 388 1613 388 
Q 2000 388 2187 545 
Q 2375 703 2375 916 
Q 2375 1106 2209 1216 
Q 2094 1291 1634 1406 
Q 1016 1563 777 1677 
Q 538 1791 414 1992 
Q 291 2194 291 2438 
Q 291 2659 392 2848 
Q 494 3038 669 3163 
Q 800 3259 1026 3326 
Q 1253 3394 1513 3394 
Q 1903 3394 2198 3281 
Q 2494 3169 2634 2976 
Q 2775 2784 2828 2463 
L 2278 2388 
Q 2241 2644 2061 2787 
Q 1881 2931 1553 2931 
Q 1166 2931 1000 2803 
Q 834 2675 834 2503 
Q 834 2394 903 2306 
Q 972 2216 1119 2156 
Q 1203 2125 1616 2013 
Q 2213 1853 2448 1751 
Q 2684 1650 2818 1456 
Q 2953 1263 2953 975 
Q 2953 694 2789 445 
Q 2625 197 2315 61 
Q 2006 -75 1616 -75 
Q 969 -75 630 194 
Q 291 463 197 991 
z
" transform="scale(0.015625)"/>
      </defs>
      <use xlink:href="#ArialMT-6f"/>
      <use xlink:href="#ArialMT-66" transform="translate(55.615234 0)"/>
      <use xlink:href="#ArialMT-20" transform="translate(83.398438 0)"/>
      <use xlink:href="#ArialMT-61" transform="translate(111.181641 0)"/>
      <use xlink:href="#ArialMT-6c" transform="translate(166.796875 0)"/>
      <use xlink:href="#ArialMT-6c" transform="translate(189.013672 0)"/>
      <use xlink:href="#ArialMT-20" transform="translate(211.230469 0)"/>
      <use xlink:href="#ArialMT-63" transform="translate(239.013672 0)"/>
      <use xlink:href="#ArialMT-65" transform="translate(289.013672 0)"/>
      <use xlink:href="#ArialMT-6c" transform="translate(344.628906 0)"/>
      <use xlink:href="#ArialMT-6c" transform="translate(366.845703 0)"/>
      <use xlink:href="#ArialMT-73" transform="translate(389.0625 0)"/>
     </g>
    </g>
   </g>
   <g id="patch_3">
    <path d="M 64.987562 124.2 
L 77.947562 124.2 
L 77.947562 35.507918 
L 64.987562 35.507918 
z
" clip-path="url(#p369949f411)" style="fill: #4b4279; opacity: 0.8; stroke: #ffffff; stroke-linejoin: miter"/>
   </g>
   <g id="patch_4">
    <path d="M 145.987562 124.2 
L 158.947563 124.2 
L 158.947563 89.14002 
L 145.987562 89.14002 
z
" clip-path="url(#p369949f411)" style="fill: #4b4279; opacity: 0.8; stroke: #ffffff; stroke-linejoin: miter"/>
   </g>
   <g id="patch_5">
    <path d="M 77.947563 124.2 
L 90.907562 124.2 
L 90.907562 39.248945 
L 77.947563 39.248945 
z
" clip-path="url(#p369949f411)" style="fill: #3c6682; opacity: 0.8; stroke: #ffffff; stroke-linejoin: miter"/>
   </g>
   <g id="patch_6">
    <path d="M 158.947563 124.2 
L 171.907563 124.2 
L 171.907563 96.264497 
L 158.947563 96.264497 
z
" clip-path="url(#p369949f411)" style="fill: #3c6682; opacity: 0.8; stroke: #ffffff; stroke-linejoin: miter"/>
   </g>
   <g id="patch_7">
    <path d="M 90.907562 124.2 
L 103.867562 124.2 
L 103.867562 31.245567 
L 90.907562 31.245567 
z
" clip-path="url(#p369949f411)" style="fill: #2f837f; opacity: 0.8; stroke: #ffffff; stroke-linejoin: miter"/>
   </g>
   <g id="patch_8">
    <path d="M 171.907562 124.2 
L 184.867562 124.2 
L 184.867562 95.390022 
L 171.907562 95.390022 
z
" clip-path="url(#p369949f411)" style="fill: #2f837f; opacity: 0.8; stroke: #ffffff; stroke-linejoin: miter"/>
   </g>
   <g id="patch_9">
    <path d="M 103.867563 124.2 
L 116.827562 124.2 
L 116.827562 33.896813 
L 103.867563 33.896813 
z
" clip-path="url(#p369949f411)" style="fill: #45a778; opacity: 0.8; stroke: #ffffff; stroke-linejoin: miter"/>
   </g>
   <g id="patch_10">
    <path d="M 184.867562 124.2 
L 197.827562 124.2 
L 197.827562 102.755194 
L 184.867562 102.755194 
z
" clip-path="url(#p369949f411)" style="fill: #45a778; opacity: 0.8; stroke: #ffffff; stroke-linejoin: miter"/>
   </g>
   <g id="patch_11">
    <path d="M 116.827562 124.2 
L 129.787563 124.2 
L 129.787563 43.709658 
L 116.827562 43.709658 
z
" clip-path="url(#p369949f411)" style="fill: #8fc456; opacity: 0.8; stroke: #ffffff; stroke-linejoin: miter"/>
   </g>
   <g id="patch_12">
    <path d="M 197.827562 124.2 
L 210.787562 124.2 
L 210.787562 122.475621 
L 197.827562 122.475621 
z
" clip-path="url(#p369949f411)" style="fill: #8fc456; opacity: 0.8; stroke: #ffffff; stroke-linejoin: miter"/>
   </g>
   <g id="line2d_7">
    <path d="M 71.467563 49.281001 
L 71.467563 22.830747 
" clip-path="url(#p369949f411)" style="fill: none; stroke: #424242; stroke-width: 2.7; stroke-linecap: round"/>
   </g>
   <g id="line2d_8">
    <path d="M 152.467562 95.689992 
L 152.467562 82.125351 
" clip-path="url(#p369949f411)" style="fill: none; stroke: #424242; stroke-width: 2.7; stroke-linecap: round"/>
   </g>
   <g id="line2d_9">
    <path d="M 84.427563 55.838906 
L 84.427563 24.973072 
" clip-path="url(#p369949f411)" style="fill: none; stroke: #424242; stroke-width: 2.7; stroke-linecap: round"/>
   </g>
   <g id="line2d_10">
    <path d="M 165.427562 103.869311 
L 165.427562 87.730678 
" clip-path="url(#p369949f411)" style="fill: none; stroke: #424242; stroke-width: 2.7; stroke-linecap: round"/>
   </g>
   <g id="line2d_11">
    <path d="M 97.387563 39.258692 
L 97.387563 24.40956 
" clip-path="url(#p369949f411)" style="fill: none; stroke: #424242; stroke-width: 2.7; stroke-linecap: round"/>
   </g>
   <g id="line2d_12">
    <path d="M 178.387563 105.180037 
L 178.387563 85.708117 
" clip-path="url(#p369949f411)" style="fill: none; stroke: #424242; stroke-width: 2.7; stroke-linecap: round"/>
   </g>
   <g id="line2d_13">
    <path d="M 110.347562 42.459868 
L 110.347562 24.909408 
" clip-path="url(#p369949f411)" style="fill: none; stroke: #424242; stroke-width: 2.7; stroke-linecap: round"/>
   </g>
   <g id="line2d_14">
    <path d="M 191.347562 107.366206 
L 191.347562 98.395884 
" clip-path="url(#p369949f411)" style="fill: none; stroke: #424242; stroke-width: 2.7; stroke-linecap: round"/>
   </g>
   <g id="line2d_15">
    <path d="M 123.307562 51.439393 
L 123.307562 35.112168 
" clip-path="url(#p369949f411)" style="fill: none; stroke: #424242; stroke-width: 2.7; stroke-linecap: round"/>
   </g>
   <g id="line2d_16">
    <path d="M 204.307562 123.518935 
L 204.307562 120.831686 
" clip-path="url(#p369949f411)" style="fill: none; stroke: #424242; stroke-width: 2.7; stroke-linecap: round"/>
   </g>
   <g id="patch_13">
    <path d="M 56.887563 124.2 
L 56.887563 7.2 
" style="fill: none; stroke: #262626; stroke-width: 1.25; stroke-linejoin: miter; stroke-linecap: square"/>
   </g>
   <g id="patch_14">
    <path d="M 218.887562 124.2 
L 218.887562 7.2 
" style="fill: none; stroke: #262626; stroke-width: 1.25; stroke-linejoin: miter; stroke-linecap: square"/>
   </g>
   <g id="patch_15">
    <path d="M 56.887563 124.2 
L 218.887562 124.2 
" style="fill: none; stroke: #262626; stroke-width: 1.25; stroke-linejoin: miter; stroke-linecap: square"/>
   </g>
   <g id="patch_16">
    <path d="M 56.887563 7.2 
L 218.887562 7.2 
" style="fill: none; stroke: #262626; stroke-width: 1.25; stroke-linejoin: miter; stroke-linecap: square"/>
   </g>
   <g id="PathCollection_1">
    <defs>
     <path id="C0_0_7868f80ba0" d="M 0 2.5 
C 0.663008 2.5 1.29895 2.236584 1.767767 1.767767 
C 2.236584 1.29895 2.5 0.663008 2.5 -0 
C 2.5 -0.663008 2.236584 -1.29895 1.767767 -1.767767 
C 1.29895 -2.236584 0.663008 -2.5 0 -2.5 
C -0.663008 -2.5 -1.29895 -2.236584 -1.767767 -1.767767 
C -2.236584 -1.29895 -2.5 -0.663008 -2.5 0 
C -2.5 0.663008 -2.236584 1.29895 -1.767767 1.767767 
C -1.29895 2.236584 -0.663008 2.5 0 2.5 
z
"/>
    </defs>
    <g clip-path="url(#p369949f411)">
     <use xlink:href="#C0_0_7868f80ba0" x="71.09834" y="22.224142" style="fill: #ffffff; stroke: #000000; stroke-width: 0.4"/>
    </g>
    <g clip-path="url(#p369949f411)">
     <use xlink:href="#C0_0_7868f80ba0" x="71.381393" y="28.65059" style="fill: #ffffff; stroke: #000000; stroke-width: 0.4"/>
    </g>
    <g clip-path="url(#p369949f411)">
     <use xlink:href="#C0_0_7868f80ba0" x="72.287122" y="24.534477" style="fill: #ffffff; stroke: #000000; stroke-width: 0.4"/>
    </g>
   </g>
   <g id="PathCollection_2">
    <defs>
     <path id="C1_0_6b17aa4f30" d="M 0 2.5 
C 0.663008 2.5 1.29895 2.236584 1.767767 1.767767 
C 2.236584 1.29895 2.5 0.663008 2.5 -0 
C 2.5 -0.663008 2.236584 -1.29895 1.767767 -1.767767 
C 1.29895 -2.236584 0.663008 -2.5 0 -2.5 
C -0.663008 -2.5 -1.29895 -2.236584 -1.767767 -1.767767 
C -2.236584 -1.29895 -2.5 -0.663008 -2.5 0 
C -2.5 0.663008 -2.236584 1.29895 -1.767767 1.767767 
C -1.29895 2.236584 -0.663008 2.5 0 2.5 
z
"/>
    </defs>
    <g clip-path="url(#p369949f411)">
     <use xlink:href="#C1_0_6b17aa4f30" x="84.975546" y="24.488856" style="fill: #ffffff; stroke: #000000; stroke-width: 0.4"/>
    </g>
    <g clip-path="url(#p369949f411)">
     <use xlink:href="#C1_0_6b17aa4f30" x="82.999563" y="29.935543" style="fill: #ffffff; stroke: #000000; stroke-width: 0.4"/>
    </g>
    <g clip-path="url(#p369949f411)">
     <use xlink:href="#C1_0_6b17aa4f30" x="83.483904" y="29.157245" style="fill: #ffffff; stroke: #000000; stroke-width: 0.4"/>
    </g>
   </g>
   <g id="PathCollection_3">
    <defs>
     <path id="C2_0_81aa6e1813" d="M 0 2.5 
C 0.663008 2.5 1.29895 2.236584 1.767767 1.767767 
C 2.236584 1.29895 2.5 0.663008 2.5 -0 
C 2.5 -0.663008 2.236584 -1.29895 1.767767 -1.767767 
C 1.29895 -2.236584 0.663008 -2.5 0 -2.5 
C -0.663008 -2.5 -1.29895 -2.236584 -1.767767 -1.767767 
C -2.236584 -1.29895 -2.5 -0.663008 -2.5 0 
C -2.5 0.663008 -2.236584 1.29895 -1.767767 1.767767 
C -1.29895 2.236584 -0.663008 2.5 0 2.5 
z
"/>
    </defs>
    <g clip-path="url(#p369949f411)">
     <use xlink:href="#C2_0_81aa6e1813" x="97.973871" y="20.006282" style="fill: #ffffff; stroke: #000000; stroke-width: 0.4"/>
    </g>
    <g clip-path="url(#p369949f411)">
     <use xlink:href="#C2_0_81aa6e1813" x="98.594238" y="25.631931" style="fill: #ffffff; stroke: #000000; stroke-width: 0.4"/>
    </g>
    <g clip-path="url(#p369949f411)">
     <use xlink:href="#C2_0_81aa6e1813" x="98.279016" y="28.969118" style="fill: #ffffff; stroke: #000000; stroke-width: 0.4"/>
    </g>
   </g>
   <g id="PathCollection_4">
    <defs>
     <path id="C3_0_2199a6584c" d="M 0 2.5 
C 0.663008 2.5 1.29895 2.236584 1.767767 1.767767 
C 2.236584 1.29895 2.5 0.663008 2.5 -0 
C 2.5 -0.663008 2.236584 -1.29895 1.767767 -1.767767 
C 1.29895 -2.236584 0.663008 -2.5 0 -2.5 
C -0.663008 -2.5 -1.29895 -2.236584 -1.767767 -1.767767 
C -2.236584 -1.29895 -2.5 -0.663008 -2.5 0 
C -2.5 0.663008 -2.236584 1.29895 -1.767767 1.767767 
C -1.29895 2.236584 -0.663008 2.5 0 2.5 
z
"/>
    </defs>
    <g clip-path="url(#p369949f411)">
     <use xlink:href="#C3_0_2199a6584c" x="111.681256" y="12.771429" style="fill: #ffffff; stroke: #000000; stroke-width: 0.4"/>
    </g>
    <g clip-path="url(#p369949f411)">
     <use xlink:href="#C3_0_2199a6584c" x="111.101558" y="20.129408" style="fill: #ffffff; stroke: #000000; stroke-width: 0.4"/>
    </g>
    <g clip-path="url(#p369949f411)">
     <use xlink:href="#C3_0_2199a6584c" x="110.737229" y="22.558567" style="fill: #ffffff; stroke: #000000; stroke-width: 0.4"/>
    </g>
   </g>
   <g id="PathCollection_5">
    <defs>
     <path id="C4_0_d0d900e347" d="M 0 2.5 
C 0.663008 2.5 1.29895 2.236584 1.767767 1.767767 
C 2.236584 1.29895 2.5 0.663008 2.5 -0 
C 2.5 -0.663008 2.236584 -1.29895 1.767767 -1.767767 
C 1.29895 -2.236584 0.663008 -2.5 0 -2.5 
C -0.663008 -2.5 -1.29895 -2.236584 -1.767767 -1.767767 
C -2.236584 -1.29895 -2.5 -0.663008 -2.5 0 
C -2.5 0.663008 -2.236584 1.29895 -1.767767 1.767767 
C -1.29895 2.236584 -0.663008 2.5 0 2.5 
z
"/>
    </defs>
    <g clip-path="url(#p369949f411)">
     <use xlink:href="#C4_0_d0d900e347" x="124.701473" y="20.436186" style="fill: #ffffff; stroke: #000000; stroke-width: 0.4"/>
    </g>
    <g clip-path="url(#p369949f411)">
     <use xlink:href="#C4_0_d0d900e347" x="123.258314" y="23.572471" style="fill: #ffffff; stroke: #000000; stroke-width: 0.4"/>
    </g>
    <g clip-path="url(#p369949f411)">
     <use xlink:href="#C4_0_d0d900e347" x="122.819803" y="41.520499" style="fill: #ffffff; stroke: #000000; stroke-width: 0.4"/>
    </g>
   </g>
   <g id="PathCollection_6">
    <defs>
     <path id="C5_0_85704ac580" d="M 0 2.5 
C 0.663008 2.5 1.29895 2.236584 1.767767 1.767767 
C 2.236584 1.29895 2.5 0.663008 2.5 -0 
C 2.5 -0.663008 2.236584 -1.29895 1.767767 -1.767767 
C 1.29895 -2.236584 0.663008 -2.5 0 -2.5 
C -0.663008 -2.5 -1.29895 -2.236584 -1.767767 -1.767767 
C -2.236584 -1.29895 -2.5 -0.663008 -2.5 0 
C -2.5 0.663008 -2.236584 1.29895 -1.767767 1.767767 
C -1.29895 2.236584 -0.663008 2.5 0 2.5 
z
"/>
    </defs>
    <g clip-path="url(#p369949f411)">
     <use xlink:href="#C5_0_85704ac580" x="153.72045" y="80.16514" style="fill: #ffffff; stroke: #000000; stroke-width: 0.4"/>
    </g>
    <g clip-path="url(#p369949f411)">
     <use xlink:href="#C5_0_85704ac580" x="152.533282" y="82.478548" style="fill: #ffffff; stroke: #000000; stroke-width: 0.4"/>
    </g>
    <g clip-path="url(#p369949f411)">
     <use xlink:href="#C5_0_85704ac580" x="152.649284" y="85.454137" style="fill: #ffffff; stroke: #000000; stroke-width: 0.4"/>
    </g>
   </g>
   <g id="PathCollection_7">
    <defs>
     <path id="C6_0_3ecea11de1" d="M 0 2.5 
C 0.663008 2.5 1.29895 2.236584 1.767767 1.767767 
C 2.236584 1.29895 2.5 0.663008 2.5 -0 
C 2.5 -0.663008 2.236584 -1.29895 1.767767 -1.767767 
C 1.29895 -2.236584 0.663008 -2.5 0 -2.5 
C -0.663008 -2.5 -1.29895 -2.236584 -1.767767 -1.767767 
C -2.236584 -1.29895 -2.5 -0.663008 -2.5 0 
C -2.5 0.663008 -2.236584 1.29895 -1.767767 1.767767 
C -1.29895 2.236584 -0.663008 2.5 0 2.5 
z
"/>
    </defs>
    <g clip-path="url(#p369949f411)">
     <use xlink:href="#C6_0_3ecea11de1" x="166.062971" y="84.878486" style="fill: #ffffff; stroke: #000000; stroke-width: 0.4"/>
    </g>
    <g clip-path="url(#p369949f411)">
     <use xlink:href="#C6_0_3ecea11de1" x="166.313652" y="74.020847" style="fill: #ffffff; stroke: #000000; stroke-width: 0.4"/>
    </g>
    <g clip-path="url(#p369949f411)">
     <use xlink:href="#C6_0_3ecea11de1" x="164.022308" y="82.678286" style="fill: #ffffff; stroke: #000000; stroke-width: 0.4"/>
    </g>
   </g>
   <g id="PathCollection_8">
    <defs>
     <path id="C7_0_5af55e7e88" d="M 0 2.5 
C 0.663008 2.5 1.29895 2.236584 1.767767 1.767767 
C 2.236584 1.29895 2.5 0.663008 2.5 -0 
C 2.5 -0.663008 2.236584 -1.29895 1.767767 -1.767767 
C 1.29895 -2.236584 0.663008 -2.5 0 -2.5 
C -0.663008 -2.5 -1.29895 -2.236584 -1.767767 -1.767767 
C -2.236584 -1.29895 -2.5 -0.663008 -2.5 0 
C -2.5 0.663008 -2.236584 1.29895 -1.767767 1.767767 
C -1.29895 2.236584 -0.663008 2.5 0 2.5 
z
"/>
    </defs>
    <g clip-path="url(#p369949f411)">
     <use xlink:href="#C7_0_5af55e7e88" x="178.664574" y="74.029319" style="fill: #ffffff; stroke: #000000; stroke-width: 0.4"/>
    </g>
    <g clip-path="url(#p369949f411)">
     <use xlink:href="#C7_0_5af55e7e88" x="179.665181" y="87.666799" style="fill: #ffffff; stroke: #000000; stroke-width: 0.4"/>
    </g>
    <g clip-path="url(#p369949f411)">
     <use xlink:href="#C7_0_5af55e7e88" x="178.409191" y="73.905361" style="fill: #ffffff; stroke: #000000; stroke-width: 0.4"/>
    </g>
   </g>
   <g id="PathCollection_9">
    <defs>
     <path id="C8_0_53e21ee37e" d="M 0 2.5 
C 0.663008 2.5 1.29895 2.236584 1.767767 1.767767 
C 2.236584 1.29895 2.5 0.663008 2.5 -0 
C 2.5 -0.663008 2.236584 -1.29895 1.767767 -1.767767 
C 1.29895 -2.236584 0.663008 -2.5 0 -2.5 
C -0.663008 -2.5 -1.29895 -2.236584 -1.767767 -1.767767 
C -2.236584 -1.29895 -2.5 -0.663008 -2.5 0 
C -2.5 0.663008 -2.236584 1.29895 -1.767767 1.767767 
C -1.29895 2.236584 -0.663008 2.5 0 2.5 
z
"/>
    </defs>
    <g clip-path="url(#p369949f411)">
     <use xlink:href="#C8_0_53e21ee37e" x="190.153117" y="98.09297" style="fill: #ffffff; stroke: #000000; stroke-width: 0.4"/>
    </g>
    <g clip-path="url(#p369949f411)">
     <use xlink:href="#C8_0_53e21ee37e" x="192.241742" y="90.44191" style="fill: #ffffff; stroke: #000000; stroke-width: 0.4"/>
    </g>
    <g clip-path="url(#p369949f411)">
     <use xlink:href="#C8_0_53e21ee37e" x="190.064256" y="94.127873" style="fill: #ffffff; stroke: #000000; stroke-width: 0.4"/>
    </g>
   </g>
   <g id="PathCollection_10">
    <defs>
     <path id="C9_0_1030365180" d="M 0 2.5 
C 0.663008 2.5 1.29895 2.236584 1.767767 1.767767 
C 2.236584 1.29895 2.5 0.663008 2.5 -0 
C 2.5 -0.663008 2.236584 -1.29895 1.767767 -1.767767 
C 1.29895 -2.236584 0.663008 -2.5 0 -2.5 
C -0.663008 -2.5 -1.29895 -2.236584 -1.767767 -1.767767 
C -2.236584 -1.29895 -2.5 -0.663008 -2.5 0 
C -2.5 0.663008 -2.236584 1.29895 -1.767767 1.767767 
C -1.29895 2.236584 -0.663008 2.5 0 2.5 
z
"/>
    </defs>
    <g clip-path="url(#p369949f411)">
     <use xlink:href="#C9_0_1030365180" x="205.20161" y="123.221722" style="fill: #ffffff; stroke: #000000; stroke-width: 0.4"/>
    </g>
    <g clip-path="url(#p369949f411)">
     <use xlink:href="#C9_0_1030365180" x="204.46554" y="123.535248" style="fill: #ffffff; stroke: #000000; stroke-width: 0.4"/>
    </g>
    <g clip-path="url(#p369949f411)">
     <use xlink:href="#C9_0_1030365180" x="204.221838" y="123.606299" style="fill: #ffffff; stroke: #000000; stroke-width: 0.4"/>
    </g>
   </g>
   <g id="PathCollection_11">
    <path d="M 71.637509 13.538139 
L 69.137509 18.538139 
L 74.137509 18.538139 
z
" clip-path="url(#p369949f411)" style="fill: #ffffff; stroke: #000000; stroke-width: 0.4"/>
    <path d="M 71.316333 16.404452 
L 68.816333 21.404452 
L 73.816333 21.404452 
z
" clip-path="url(#p369949f411)" style="fill: #ffffff; stroke: #000000; stroke-width: 0.4"/>
    <path d="M 71.386323 17.802932 
L 68.886323 22.802932 
L 73.886323 22.802932 
z
" clip-path="url(#p369949f411)" style="fill: #ffffff; stroke: #000000; stroke-width: 0.4"/>
   </g>
   <g id="PathCollection_12">
    <path d="M 85.320473 17.622653 
L 82.820473 22.622653 
L 87.820473 22.622653 
z
" clip-path="url(#p369949f411)" style="fill: #ffffff; stroke: #000000; stroke-width: 0.4"/>
    <path d="M 85.130545 17.693953 
L 82.630545 22.693953 
L 87.630545 22.693953 
z
" clip-path="url(#p369949f411)" style="fill: #ffffff; stroke: #000000; stroke-width: 0.4"/>
    <path d="M 86.009834 15.078298 
L 83.509834 20.078298 
L 88.509834 20.078298 
z
" clip-path="url(#p369949f411)" style="fill: #ffffff; stroke: #000000; stroke-width: 0.4"/>
   </g>
   <g id="PathCollection_13">
    <path d="M 97.890496 18.364048 
L 95.390496 23.364048 
L 100.390496 23.364048 
z
" clip-path="url(#p369949f411)" style="fill: #ffffff; stroke: #000000; stroke-width: 0.4"/>
    <path d="M 95.948151 20.202122 
L 93.448151 25.202122 
L 98.448151 25.202122 
z
" clip-path="url(#p369949f411)" style="fill: #ffffff; stroke: #000000; stroke-width: 0.4"/>
    <path d="M 96.985442 20.781975 
L 94.485442 25.781975 
L 99.485442 25.781975 
z
" clip-path="url(#p369949f411)" style="fill: #ffffff; stroke: #000000; stroke-width: 0.4"/>
   </g>
   <g id="PathCollection_14">
    <path d="M 111.435004 28.60615 
L 108.935004 33.60615 
L 113.935004 33.60615 
z
" clip-path="url(#p369949f411)" style="fill: #ffffff; stroke: #000000; stroke-width: 0.4"/>
    <path d="M 108.944596 30.400075 
L 106.444596 35.400075 
L 111.444596 35.400075 
z
" clip-path="url(#p369949f411)" style="fill: #ffffff; stroke: #000000; stroke-width: 0.4"/>
    <path d="M 110.040347 31.10165 
L 107.540347 36.10165 
L 112.540347 36.10165 
z
" clip-path="url(#p369949f411)" style="fill: #ffffff; stroke: #000000; stroke-width: 0.4"/>
   </g>
   <g id="PathCollection_15">
    <path d="M 123.473382 49.741091 
L 120.973382 54.741091 
L 125.973382 54.741091 
z
" clip-path="url(#p369949f411)" style="fill: #ffffff; stroke: #000000; stroke-width: 0.4"/>
    <path d="M 123.987857 53.497181 
L 121.487857 58.497181 
L 126.487857 58.497181 
z
" clip-path="url(#p369949f411)" style="fill: #ffffff; stroke: #000000; stroke-width: 0.4"/>
    <path d="M 122.669819 49.527727 
L 120.169819 54.527727 
L 125.169819 54.527727 
z
" clip-path="url(#p369949f411)" style="fill: #ffffff; stroke: #000000; stroke-width: 0.4"/>
   </g>
   <g id="PathCollection_16">
    <path d="M 153.695614 98.861136 
L 151.195614 103.861136 
L 156.195614 103.861136 
z
" clip-path="url(#p369949f411)" style="fill: #ffffff; stroke: #000000; stroke-width: 0.4"/>
    <path d="M 153.078869 94.426411 
L 150.578869 99.426411 
L 155.578869 99.426411 
z
" clip-path="url(#p369949f411)" style="fill: #ffffff; stroke: #000000; stroke-width: 0.4"/>
    <path d="M 153.759166 103.480633 
L 151.259166 108.480633 
L 156.259166 108.480633 
z
" clip-path="url(#p369949f411)" style="fill: #ffffff; stroke: #000000; stroke-width: 0.4"/>
   </g>
   <g id="PathCollection_17">
    <path d="M 165.121366 108.144109 
L 162.621366 113.144109 
L 167.621366 113.144109 
z
" clip-path="url(#p369949f411)" style="fill: #ffffff; stroke: #000000; stroke-width: 0.4"/>
    <path d="M 164.375083 101.406497 
L 161.875083 106.406497 
L 166.875083 106.406497 
z
" clip-path="url(#p369949f411)" style="fill: #ffffff; stroke: #000000; stroke-width: 0.4"/>
    <path d="M 166.981758 110.729682 
L 164.481758 115.729682 
L 169.481758 115.729682 
z
" clip-path="url(#p369949f411)" style="fill: #ffffff; stroke: #000000; stroke-width: 0.4"/>
   </g>
   <g id="PathCollection_18">
    <path d="M 179.258775 107.273115 
L 176.758775 112.273115 
L 181.758775 112.273115 
z
" clip-path="url(#p369949f411)" style="fill: #ffffff; stroke: #000000; stroke-width: 0.4"/>
    <path d="M 179.835892 100.500625 
L 177.335892 105.500625 
L 182.335892 105.500625 
z
" clip-path="url(#p369949f411)" style="fill: #ffffff; stroke: #000000; stroke-width: 0.4"/>
   </g>
   <g id="PathCollection_19">
    <path d="M 191.84648 105.148335 
L 189.34648 110.148335 
L 194.34648 110.148335 
z
" clip-path="url(#p369949f411)" style="fill: #ffffff; stroke: #000000; stroke-width: 0.4"/>
    <path d="M 190.204082 101.88112 
L 187.704082 106.88112 
L 192.704082 106.88112 
z
" clip-path="url(#p369949f411)" style="fill: #ffffff; stroke: #000000; stroke-width: 0.4"/>
    <path d="M 189.945259 111.864504 
L 187.445259 116.864504 
L 192.445259 116.864504 
z
" clip-path="url(#p369949f411)" style="fill: #ffffff; stroke: #000000; stroke-width: 0.4"/>
   </g>
   <g id="PathCollection_20">
    <path d="M 204.991552 121.165669 
L 202.491552 126.165669 
L 207.491552 126.165669 
z
" clip-path="url(#p369949f411)" style="fill: #ffffff; stroke: #000000; stroke-width: 0.4"/>
    <path d="M 204.719897 119.395338 
L 202.219897 124.395338 
L 207.219897 124.395338 
z
" clip-path="url(#p369949f411)" style="fill: #ffffff; stroke: #000000; stroke-width: 0.4"/>
    <path d="M 204.457562 113.648186 
L 201.957562 118.648186 
L 206.957562 118.648186 
z
" clip-path="url(#p369949f411)" style="fill: #ffffff; stroke: #000000; stroke-width: 0.4"/>
   </g>
   <g id="PathCollection_21">
    <path d="M 68.67733 62.918458 
L 73.67733 62.918458 
L 73.67733 57.918458 
L 68.67733 57.918458 
z
" clip-path="url(#p369949f411)" style="fill: #ffffff; stroke: #000000; stroke-width: 0.4"/>
    <path d="M 69.070746 72.003879 
L 74.070746 72.003879 
L 74.070746 67.003879 
L 69.070746 67.003879 
z
" clip-path="url(#p369949f411)" style="fill: #ffffff; stroke: #000000; stroke-width: 0.4"/>
    <path d="M 67.503409 61.494191 
L 72.503409 61.494191 
L 72.503409 56.494191 
L 67.503409 56.494191 
z
" clip-path="url(#p369949f411)" style="fill: #ffffff; stroke: #000000; stroke-width: 0.4"/>
   </g>
   <g id="PathCollection_22">
    <path d="M 82.708773 59.67026 
L 87.708773 59.67026 
L 87.708773 54.67026 
L 82.708773 54.67026 
z
" clip-path="url(#p369949f411)" style="fill: #ffffff; stroke: #000000; stroke-width: 0.4"/>
    <path d="M 82.475575 75.683013 
L 87.475575 75.683013 
L 87.475575 70.683013 
L 82.475575 70.683013 
z
" clip-path="url(#p369949f411)" style="fill: #ffffff; stroke: #000000; stroke-width: 0.4"/>
    <path d="M 82.148878 83.910685 
L 87.148878 83.910685 
L 87.148878 78.910685 
L 82.148878 78.910685 
z
" clip-path="url(#p369949f411)" style="fill: #ffffff; stroke: #000000; stroke-width: 0.4"/>
   </g>
   <g id="PathCollection_23">
    <path d="M 93.732026 38.934669 
L 98.732026 38.934669 
L 98.732026 33.934669 
L 93.732026 33.934669 
z
" clip-path="url(#p369949f411)" style="fill: #ffffff; stroke: #000000; stroke-width: 0.4"/>
    <path d="M 94.168352 53.379198 
L 99.168352 53.379198 
L 99.168352 48.379198 
L 94.168352 48.379198 
z
" clip-path="url(#p369949f411)" style="fill: #ffffff; stroke: #000000; stroke-width: 0.4"/>
    <path d="M 93.911318 54.94076 
L 98.911318 54.94076 
L 98.911318 49.94076 
L 93.911318 49.94076 
z
" clip-path="url(#p369949f411)" style="fill: #ffffff; stroke: #000000; stroke-width: 0.4"/>
   </g>
   <g id="PathCollection_24">
    <path d="M 106.946701 43.307704 
L 111.946701 43.307704 
L 111.946701 38.307704 
L 106.946701 38.307704 
z
" clip-path="url(#p369949f411)" style="fill: #ffffff; stroke: #000000; stroke-width: 0.4"/>
    <path d="M 108.725142 50.967351 
L 113.725142 50.967351 
L 113.725142 45.967351 
L 108.725142 45.967351 
z
" clip-path="url(#p369949f411)" style="fill: #ffffff; stroke: #000000; stroke-width: 0.4"/>
    <path d="M 106.241483 65.228983 
L 111.241483 65.228983 
L 111.241483 60.228983 
L 106.241483 60.228983 
z
" clip-path="url(#p369949f411)" style="fill: #ffffff; stroke: #000000; stroke-width: 0.4"/>
   </g>
   <g id="PathCollection_25">
    <path d="M 119.293976 45.998605 
L 124.293976 45.998605 
L 124.293976 40.998605 
L 119.293976 40.998605 
z
" clip-path="url(#p369949f411)" style="fill: #ffffff; stroke: #000000; stroke-width: 0.4"/>
    <path d="M 120.177074 57.685702 
L 125.177074 57.685702 
L 125.177074 52.685702 
L 120.177074 52.685702 
z
" clip-path="url(#p369949f411)" style="fill: #ffffff; stroke: #000000; stroke-width: 0.4"/>
    <path d="M 121.693236 51.407455 
L 126.693236 51.407455 
L 126.693236 46.407455 
L 121.693236 46.407455 
z
" clip-path="url(#p369949f411)" style="fill: #ffffff; stroke: #000000; stroke-width: 0.4"/>
   </g>
   <g id="PathCollection_26">
    <path d="M 150.267984 72.183327 
L 155.267984 72.183327 
L 155.267984 67.183327 
L 150.267984 67.183327 
z
" clip-path="url(#p369949f411)" style="fill: #ffffff; stroke: #000000; stroke-width: 0.4"/>
    <path d="M 151.505173 90.617268 
L 156.505173 90.617268 
L 156.505173 85.617268 
L 151.505173 85.617268 
z
" clip-path="url(#p369949f411)" style="fill: #ffffff; stroke: #000000; stroke-width: 0.4"/>
    <path d="M 149.31661 94.593584 
L 154.31661 94.593584 
L 154.31661 89.593584 
L 149.31661 89.593584 
z
" clip-path="url(#p369949f411)" style="fill: #ffffff; stroke: #000000; stroke-width: 0.4"/>
   </g>
   <g id="PathCollection_27">
    <path d="M 164.044808 103.739142 
L 169.044808 103.739142 
L 169.044808 98.739142 
L 164.044808 98.739142 
z
" clip-path="url(#p369949f411)" style="fill: #ffffff; stroke: #000000; stroke-width: 0.4"/>
    <path d="M 163.517029 95.811917 
L 168.517029 95.811917 
L 168.517029 90.811917 
L 163.517029 90.811917 
z
" clip-path="url(#p369949f411)" style="fill: #ffffff; stroke: #000000; stroke-width: 0.4"/>
    <path d="M 163.558426 104.971507 
L 168.558426 104.971507 
L 168.558426 99.971507 
L 163.558426 99.971507 
z
" clip-path="url(#p369949f411)" style="fill: #ffffff; stroke: #000000; stroke-width: 0.4"/>
   </g>
   <g id="PathCollection_28">
    <path d="M 174.988688 110.419635 
L 179.988688 110.419635 
L 179.988688 105.419635 
L 174.988688 105.419635 
z
" clip-path="url(#p369949f411)" style="fill: #ffffff; stroke: #000000; stroke-width: 0.4"/>
    <path d="M 175.418544 105.07671 
L 180.418544 105.07671 
L 180.418544 100.07671 
L 175.418544 100.07671 
z
" clip-path="url(#p369949f411)" style="fill: #ffffff; stroke: #000000; stroke-width: 0.4"/>
    <path d="M 174.27896 106.748611 
L 179.27896 106.748611 
L 179.27896 101.748611 
L 174.27896 101.748611 
z
" clip-path="url(#p369949f411)" style="fill: #ffffff; stroke: #000000; stroke-width: 0.4"/>
   </g>
   <g id="PathCollection_29">
    <path d="M 189.169867 107.398359 
L 194.169867 107.398359 
L 194.169867 102.398359 
L 189.169867 102.398359 
z
" clip-path="url(#p369949f411)" style="fill: #ffffff; stroke: #000000; stroke-width: 0.4"/>
    <path d="M 189.72404 105.412971 
L 194.72404 105.412971 
L 194.72404 100.412971 
L 189.72404 100.412971 
z
" clip-path="url(#p369949f411)" style="fill: #ffffff; stroke: #000000; stroke-width: 0.4"/>
    <path d="M 188.299473 110.428708 
L 193.299473 110.428708 
L 193.299473 105.428708 
L 188.299473 105.428708 
z
" clip-path="url(#p369949f411)" style="fill: #ffffff; stroke: #000000; stroke-width: 0.4"/>
   </g>
   <g id="PathCollection_30">
    <path d="M 201.642403 125.987559 
L 206.642403 125.987559 
L 206.642403 120.987559 
L 201.642403 120.987559 
z
" clip-path="url(#p369949f411)" style="fill: #ffffff; stroke: #000000; stroke-width: 0.4"/>
    <path d="M 200.598601 125.360533 
L 205.598601 125.360533 
L 205.598601 120.360533 
L 200.598601 120.360533 
z
" clip-path="url(#p369949f411)" style="fill: #ffffff; stroke: #000000; stroke-width: 0.4"/>
    <path d="M 202.02941 126.360038 
L 207.02941 126.360038 
L 207.02941 121.360038 
L 202.02941 121.360038 
z
" clip-path="url(#p369949f411)" style="fill: #ffffff; stroke: #000000; stroke-width: 0.4"/>
   </g>
   <g id="legend_1">
    <g id="patch_17">
     <path d="M 231.387562 19.473594 
L 253.387562 19.473594 
L 253.387562 11.773594 
L 231.387562 11.773594 
z
" style="fill: #4b4279; opacity: 0.8; stroke: #ffffff; stroke-linejoin: miter"/>
    </g>
    <g id="text_8">
     <!-- 0 uM -->
     <g style="fill: #262626" transform="translate(262.187562 19.473594) scale(0.11 -0.11)">
      <defs>
       <path id="ArialMT-75" d="M 2597 0 
L 2597 488 
Q 2209 -75 1544 -75 
Q 1250 -75 995 37 
Q 741 150 617 320 
Q 494 491 444 738 
Q 409 903 409 1263 
L 409 3319 
L 972 3319 
L 972 1478 
Q 972 1038 1006 884 
Q 1059 663 1231 536 
Q 1403 409 1656 409 
Q 1909 409 2131 539 
Q 2353 669 2445 892 
Q 2538 1116 2538 1541 
L 2538 3319 
L 3100 3319 
L 3100 0 
L 2597 0 
z
" transform="scale(0.015625)"/>
      </defs>
      <use xlink:href="#ArialMT-30"/>
      <use xlink:href="#ArialMT-20" transform="translate(55.615234 0)"/>
      <use xlink:href="#ArialMT-75" transform="translate(83.398438 0)"/>
      <use xlink:href="#ArialMT-4d" transform="translate(139.013672 0)"/>
     </g>
    </g>
    <g id="patch_18">
     <path d="M 231.387562 35.033437 
L 253.387562 35.033437 
L 253.387562 27.333437 
L 231.387562 27.333437 
z
" style="fill: #3c6682; opacity: 0.8; stroke: #ffffff; stroke-linejoin: miter"/>
    </g>
    <g id="text_9">
     <!-- 0.1 uM -->
     <g style="fill: #262626" transform="translate(262.187562 35.033437) scale(0.11 -0.11)">
      <defs>
       <path id="ArialMT-2e" d="M 581 0 
L 581 641 
L 1222 641 
L 1222 0 
L 581 0 
z
" transform="scale(0.015625)"/>
       <path id="ArialMT-31" d="M 2384 0 
L 1822 0 
L 1822 3584 
Q 1619 3391 1289 3197 
Q 959 3003 697 2906 
L 697 3450 
Q 1169 3672 1522 3987 
Q 1875 4303 2022 4600 
L 2384 4600 
L 2384 0 
z
" transform="scale(0.015625)"/>
      </defs>
      <use xlink:href="#ArialMT-30"/>
      <use xlink:href="#ArialMT-2e" transform="translate(55.615234 0)"/>
      <use xlink:href="#ArialMT-31" transform="translate(83.398438 0)"/>
      <use xlink:href="#ArialMT-20" transform="translate(139.013672 0)"/>
      <use xlink:href="#ArialMT-75" transform="translate(166.796875 0)"/>
      <use xlink:href="#ArialMT-4d" transform="translate(222.412109 0)"/>
     </g>
    </g>
    <g id="patch_19">
     <path d="M 231.387562 50.593281 
L 253.387562 50.593281 
L 253.387562 42.893281 
L 231.387562 42.893281 
z
" style="fill: #2f837f; opacity: 0.8; stroke: #ffffff; stroke-linejoin: miter"/>
    </g>
    <g id="text_10">
     <!-- 1 uM -->
     <g style="fill: #262626" transform="translate(262.187562 50.593281) scale(0.11 -0.11)">
      <use xlink:href="#ArialMT-31"/>
      <use xlink:href="#ArialMT-20" transform="translate(55.615234 0)"/>
      <use xlink:href="#ArialMT-75" transform="translate(83.398438 0)"/>
      <use xlink:href="#ArialMT-4d" transform="translate(139.013672 0)"/>
     </g>
    </g>
    <g id="patch_20">
     <path d="M 231.387562 66.153125 
L 253.387562 66.153125 
L 253.387562 58.453125 
L 231.387562 58.453125 
z
" style="fill: #45a778; opacity: 0.8; stroke: #ffffff; stroke-linejoin: miter"/>
    </g>
    <g id="text_11">
     <!-- 2 uM -->
     <g style="fill: #262626" transform="translate(262.187562 66.153125) scale(0.11 -0.11)">
      <use xlink:href="#ArialMT-32"/>
      <use xlink:href="#ArialMT-20" transform="translate(55.615234 0)"/>
      <use xlink:href="#ArialMT-75" transform="translate(83.398438 0)"/>
      <use xlink:href="#ArialMT-4d" transform="translate(139.013672 0)"/>
     </g>
    </g>
    <g id="patch_21">
     <path d="M 231.387562 81.712969 
L 253.387562 81.712969 
L 253.387562 74.012969 
L 231.387562 74.012969 
z
" style="fill: #8fc456; opacity: 0.8; stroke: #ffffff; stroke-linejoin: miter"/>
    </g>
    <g id="text_12">
     <!-- 5 uM -->
     <g style="fill: #262626" transform="translate(262.187562 81.712969) scale(0.11 -0.11)">
      <defs>
       <path id="ArialMT-35" d="M 266 1200 
L 856 1250 
Q 922 819 1161 601 
Q 1400 384 1738 384 
Q 2144 384 2425 690 
Q 2706 997 2706 1503 
Q 2706 1984 2436 2262 
Q 2166 2541 1728 2541 
Q 1456 2541 1237 2417 
Q 1019 2294 894 2097 
L 366 2166 
L 809 4519 
L 3088 4519 
L 3088 3981 
L 1259 3981 
L 1013 2750 
Q 1425 3038 1878 3038 
Q 2478 3038 2890 2622 
Q 3303 2206 3303 1553 
Q 3303 931 2941 478 
Q 2500 -78 1738 -78 
Q 1113 -78 717 272 
Q 322 622 266 1200 
z
" transform="scale(0.015625)"/>
      </defs>
      <use xlink:href="#ArialMT-35"/>
      <use xlink:href="#ArialMT-20" transform="translate(55.615234 0)"/>
      <use xlink:href="#ArialMT-75" transform="translate(83.398438 0)"/>
      <use xlink:href="#ArialMT-4d" transform="translate(139.013672 0)"/>
     </g>
    </g>
   </g>
  </g>
 </g>
 <defs>
  <clipPath id="p369949f411">
   <rect x="56.887563" y="7.2" width="162" height="117"/>
  </clipPath>
 </defs>
</svg>
