<?xml version="1.0" encoding="utf-8" standalone="no"?>
<!DOCTYPE svg PUBLIC "-//W3C//DTD SVG 1.1//EN"
  "http://www.w3.org/Graphics/SVG/1.1/DTD/svg11.dtd">
<svg xmlns:xlink="http://www.w3.org/1999/xlink" width="313.530219pt" height="150.959844pt" viewBox="0 0 313.530219 150.959844" xmlns="http://www.w3.org/2000/svg" version="1.1">
 <metadata>
  <rdf:RDF xmlns:dc="http://purl.org/dc/elements/1.1/" xmlns:cc="http://creativecommons.org/ns#" xmlns:rdf="http://www.w3.org/1999/02/22-rdf-syntax-ns#">
   <cc:Work>
    <dc:type rdf:resource="http://purl.org/dc/dcmitype/StillImage"/>
    <dc:date>2025-07-28T16:46:29.788562</dc:date>
    <dc:format>image/svg+xml</dc:format>
    <dc:creator>
     <cc:Agent>
      <dc:title>Matplotlib v3.10.3, https://matplotlib.org/</dc:title>
     </cc:Agent>
    </dc:creator>
   </cc:Work>
  </rdf:RDF>
 </metadata>
 <defs>
  <style type="text/css">*{stroke-linejoin: round; stroke-linecap: butt}</style>
 </defs>
 <g id="figure_1">
  <g id="patch_1">
   <path d="M 0 150.959844 
L 313.530219 150.959844 
L 313.530219 0 
L 0 0 
z
" style="fill: #ffffff"/>
  </g>
  <g id="axes_1">
   <g id="patch_2">
    <path d="M 63.004594 124.2 
L 225.004594 124.2 
L 225.004594 7.2 
L 63.004594 7.2 
z
" style="fill: #ffffff"/>
   </g>
   <g id="matplotlib.axis_1">
    <g id="xtick_1">
     <g id="line2d_1">
      <defs>
       <path id="mde0940b8cf" d="M 0 0 
L 0 6 
" style="stroke: #262626; stroke-width: 1.25"/>
      </defs>
      <g>
       <use xlink:href="#mde0940b8cf" x="103.504594" y="124.2" style="fill: #262626; stroke: #262626; stroke-width: 1.25"/>
      </g>
     </g>
     <g id="text_1">
      <!-- SDDIR -->
      <g style="fill: #262626" transform="translate(86.391859 141.573594) scale(0.11 -0.11)">
       <defs>
        <path id="ArialMT-53" d="M 288 1472 
L 859 1522 
Q 900 1178 1048 958 
Q 1197 738 1509 602 
Q 1822 466 2213 466 
Q 2559 466 2825 569 
Q 3091 672 3220 851 
Q 3350 1031 3350 1244 
Q 3350 1459 3225 1620 
Q 3100 1781 2813 1891 
Q 2628 1963 1997 2114 
Q 1366 2266 1113 2400 
Q 784 2572 623 2826 
Q 463 3081 463 3397 
Q 463 3744 659 4045 
Q 856 4347 1234 4503 
Q 1613 4659 2075 4659 
Q 2584 4659 2973 4495 
Q 3363 4331 3572 4012 
Q 3781 3694 3797 3291 
L 3216 3247 
Q 3169 3681 2898 3903 
Q 2628 4125 2100 4125 
Q 1550 4125 1298 3923 
Q 1047 3722 1047 3438 
Q 1047 3191 1225 3031 
Q 1400 2872 2139 2705 
Q 2878 2538 3153 2413 
Q 3553 2228 3743 1945 
Q 3934 1663 3934 1294 
Q 3934 928 3725 604 
Q 3516 281 3123 101 
Q 2731 -78 2241 -78 
Q 1619 -78 1198 103 
Q 778 284 539 648 
Q 300 1013 288 1472 
z
" transform="scale(0.015625)"/>
        <path id="ArialMT-44" d="M 494 0 
L 494 4581 
L 2072 4581 
Q 2606 4581 2888 4516 
Q 3281 4425 3559 4188 
Q 3922 3881 4101 3404 
Q 4281 2928 4281 2316 
Q 4281 1794 4159 1391 
Q 4038 988 3847 723 
Q 3656 459 3429 307 
Q 3203 156 2883 78 
Q 2563 0 2147 0 
L 494 0 
z
M 1100 541 
L 2078 541 
Q 2531 541 2789 625 
Q 3047 709 3200 863 
Q 3416 1078 3536 1442 
Q 3656 1806 3656 2325 
Q 3656 3044 3420 3430 
Q 3184 3816 2847 3947 
Q 2603 4041 2063 4041 
L 1100 4041 
L 1100 541 
z
" transform="scale(0.015625)"/>
        <path id="ArialMT-49" d="M 597 0 
L 597 4581 
L 1203 4581 
L 1203 0 
L 597 0 
z
" transform="scale(0.015625)"/>
        <path id="ArialMT-52" d="M 503 0 
L 503 4581 
L 2534 4581 
Q 3147 4581 3465 4457 
Q 3784 4334 3975 4021 
Q 4166 3709 4166 3331 
Q 4166 2844 3850 2509 
Q 3534 2175 2875 2084 
Q 3116 1969 3241 1856 
Q 3506 1613 3744 1247 
L 4541 0 
L 3778 0 
L 3172 953 
Q 2906 1366 2734 1584 
Q 2563 1803 2427 1890 
Q 2291 1978 2150 2013 
Q 2047 2034 1813 2034 
L 1109 2034 
L 1109 0 
L 503 0 
z
M 1109 2559 
L 2413 2559 
Q 2828 2559 3062 2645 
Q 3297 2731 3419 2920 
Q 3541 3109 3541 3331 
Q 3541 3656 3305 3865 
Q 3069 4075 2559 4075 
L 1109 4075 
L 1109 2559 
z
" transform="scale(0.015625)"/>
       </defs>
       <use xlink:href="#ArialMT-53"/>
       <use xlink:href="#ArialMT-44" transform="translate(66.699219 0)"/>
       <use xlink:href="#ArialMT-44" transform="translate(138.916016 0)"/>
       <use xlink:href="#ArialMT-49" transform="translate(211.132812 0)"/>
       <use xlink:href="#ArialMT-52" transform="translate(238.916016 0)"/>
      </g>
     </g>
    </g>
    <g id="xtick_2">
     <g id="line2d_2">
      <g>
       <use xlink:href="#mde0940b8cf" x="184.504594" y="124.2" style="fill: #262626; stroke: #262626; stroke-width: 1.25"/>
      </g>
     </g>
     <g id="text_2">
      <!-- RISDD -->
      <g style="fill: #262626" transform="translate(167.391859 141.573594) scale(0.11 -0.11)">
       <use xlink:href="#ArialMT-52"/>
       <use xlink:href="#ArialMT-49" transform="translate(72.216797 0)"/>
       <use xlink:href="#ArialMT-53" transform="translate(100 0)"/>
       <use xlink:href="#ArialMT-44" transform="translate(166.699219 0)"/>
       <use xlink:href="#ArialMT-44" transform="translate(238.916016 0)"/>
      </g>
     </g>
    </g>
   </g>
   <g id="matplotlib.axis_2">
    <g id="ytick_1">
     <g id="line2d_3">
      <defs>
       <path id="m8cbdc78039" d="M 0 0 
L -6 0 
" style="stroke: #262626; stroke-width: 1.25"/>
      </defs>
      <g>
       <use xlink:href="#m8cbdc78039" x="63.004594" y="124.2" style="fill: #262626; stroke: #262626; stroke-width: 1.25"/>
      </g>
     </g>
     <g id="text_3">
      <!-- 0 -->
      <g style="fill: #262626" transform="translate(47.387563 128.136797) scale(0.11 -0.11)">
       <defs>
        <path id="ArialMT-30" d="M 266 2259 
Q 266 3072 433 3567 
Q 600 4063 929 4331 
Q 1259 4600 1759 4600 
Q 2128 4600 2406 4451 
Q 2684 4303 2865 4023 
Q 3047 3744 3150 3342 
Q 3253 2941 3253 2259 
Q 3253 1453 3087 958 
Q 2922 463 2592 192 
Q 2263 -78 1759 -78 
Q 1097 -78 719 397 
Q 266 969 266 2259 
z
M 844 2259 
Q 844 1131 1108 757 
Q 1372 384 1759 384 
Q 2147 384 2411 759 
Q 2675 1134 2675 2259 
Q 2675 3391 2411 3762 
Q 2147 4134 1753 4134 
Q 1366 4134 1134 3806 
Q 844 3388 844 2259 
z
" transform="scale(0.015625)"/>
       </defs>
       <use xlink:href="#ArialMT-30"/>
      </g>
     </g>
    </g>
    <g id="ytick_2">
     <g id="line2d_4">
      <g>
       <use xlink:href="#m8cbdc78039" x="63.004594" y="94.305149" style="fill: #262626; stroke: #262626; stroke-width: 1.25"/>
      </g>
     </g>
     <g id="text_4">
      <!-- 200 -->
      <g style="fill: #262626" transform="translate(35.1535 98.241946) scale(0.11 -0.11)">
       <defs>
        <path id="ArialMT-32" d="M 3222 541 
L 3222 0 
L 194 0 
Q 188 203 259 391 
Q 375 700 629 1000 
Q 884 1300 1366 1694 
Q 2113 2306 2375 2664 
Q 2638 3022 2638 3341 
Q 2638 3675 2398 3904 
Q 2159 4134 1775 4134 
Q 1369 4134 1125 3890 
Q 881 3647 878 3216 
L 300 3275 
Q 359 3922 746 4261 
Q 1134 4600 1788 4600 
Q 2447 4600 2831 4234 
Q 3216 3869 3216 3328 
Q 3216 3053 3103 2787 
Q 2991 2522 2730 2228 
Q 2469 1934 1863 1422 
Q 1356 997 1212 845 
Q 1069 694 975 541 
L 3222 541 
z
" transform="scale(0.015625)"/>
       </defs>
       <use xlink:href="#ArialMT-32"/>
       <use xlink:href="#ArialMT-30" transform="translate(55.615234 0)"/>
       <use xlink:href="#ArialMT-30" transform="translate(111.230469 0)"/>
      </g>
     </g>
    </g>
    <g id="ytick_3">
     <g id="line2d_5">
      <g>
       <use xlink:href="#m8cbdc78039" x="63.004594" y="64.410299" style="fill: #262626; stroke: #262626; stroke-width: 1.25"/>
      </g>
     </g>
     <g id="text_5">
      <!-- 400 -->
      <g style="fill: #262626" transform="translate(35.1535 68.347096) scale(0.11 -0.11)">
       <defs>
        <path id="ArialMT-34" d="M 2069 0 
L 2069 1097 
L 81 1097 
L 81 1613 
L 2172 4581 
L 2631 4581 
L 2631 1613 
L 3250 1613 
L 3250 1097 
L 2631 1097 
L 2631 0 
L 2069 0 
z
M 2069 1613 
L 2069 3678 
L 634 1613 
L 2069 1613 
z
" transform="scale(0.015625)"/>
       </defs>
       <use xlink:href="#ArialMT-34"/>
       <use xlink:href="#ArialMT-30" transform="translate(55.615234 0)"/>
       <use xlink:href="#ArialMT-30" transform="translate(111.230469 0)"/>
      </g>
     </g>
    </g>
    <g id="ytick_4">
     <g id="line2d_6">
      <g>
       <use xlink:href="#m8cbdc78039" x="63.004594" y="34.515448" style="fill: #262626; stroke: #262626; stroke-width: 1.25"/>
      </g>
     </g>
     <g id="text_6">
      <!-- 600 -->
      <g style="fill: #262626" transform="translate(35.1535 38.452245) scale(0.11 -0.11)">
       <defs>
        <path id="ArialMT-36" d="M 3184 3459 
L 2625 3416 
Q 2550 3747 2413 3897 
Q 2184 4138 1850 4138 
Q 1581 4138 1378 3988 
Q 1113 3794 959 3422 
Q 806 3050 800 2363 
Q 1003 2672 1297 2822 
Q 1591 2972 1913 2972 
Q 2475 2972 2870 2558 
Q 3266 2144 3266 1488 
Q 3266 1056 3080 686 
Q 2894 316 2569 119 
Q 2244 -78 1831 -78 
Q 1128 -78 684 439 
Q 241 956 241 2144 
Q 241 3472 731 4075 
Q 1159 4600 1884 4600 
Q 2425 4600 2770 4297 
Q 3116 3994 3184 3459 
z
M 888 1484 
Q 888 1194 1011 928 
Q 1134 663 1356 523 
Q 1578 384 1822 384 
Q 2178 384 2434 671 
Q 2691 959 2691 1453 
Q 2691 1928 2437 2201 
Q 2184 2475 1800 2475 
Q 1419 2475 1153 2201 
Q 888 1928 888 1484 
z
" transform="scale(0.015625)"/>
       </defs>
       <use xlink:href="#ArialMT-36"/>
       <use xlink:href="#ArialMT-30" transform="translate(55.615234 0)"/>
       <use xlink:href="#ArialMT-30" transform="translate(111.230469 0)"/>
      </g>
     </g>
    </g>
    <g id="text_7">
     <!-- (%) iMN yield -->
     <g style="fill: #262626" transform="translate(15.935625 101.368125) rotate(-90) scale(0.12 -0.12)">
      <defs>
       <path id="ArialMT-28" d="M 1497 -1347 
Q 1031 -759 709 28 
Q 388 816 388 1659 
Q 388 2403 628 3084 
Q 909 3875 1497 4659 
L 1900 4659 
Q 1522 4009 1400 3731 
Q 1209 3300 1100 2831 
Q 966 2247 966 1656 
Q 966 153 1900 -1347 
L 1497 -1347 
z
" transform="scale(0.015625)"/>
       <path id="ArialMT-25" d="M 372 3481 
Q 372 3972 619 4315 
Q 866 4659 1334 4659 
Q 1766 4659 2048 4351 
Q 2331 4044 2331 3447 
Q 2331 2866 2045 2552 
Q 1759 2238 1341 2238 
Q 925 2238 648 2547 
Q 372 2856 372 3481 
z
M 1350 4272 
Q 1141 4272 1002 4090 
Q 863 3909 863 3425 
Q 863 2984 1003 2804 
Q 1144 2625 1350 2625 
Q 1563 2625 1702 2806 
Q 1841 2988 1841 3469 
Q 1841 3913 1700 4092 
Q 1559 4272 1350 4272 
z
M 1353 -169 
L 3859 4659 
L 4316 4659 
L 1819 -169 
L 1353 -169 
z
M 3334 1075 
Q 3334 1569 3581 1911 
Q 3828 2253 4300 2253 
Q 4731 2253 5014 1945 
Q 5297 1638 5297 1041 
Q 5297 459 5011 145 
Q 4725 -169 4303 -169 
Q 3888 -169 3611 142 
Q 3334 453 3334 1075 
z
M 4316 1866 
Q 4103 1866 3964 1684 
Q 3825 1503 3825 1019 
Q 3825 581 3965 400 
Q 4106 219 4313 219 
Q 4528 219 4667 400 
Q 4806 581 4806 1063 
Q 4806 1506 4665 1686 
Q 4525 1866 4316 1866 
z
" transform="scale(0.015625)"/>
       <path id="ArialMT-29" d="M 791 -1347 
L 388 -1347 
Q 1322 153 1322 1656 
Q 1322 2244 1188 2822 
Q 1081 3291 891 3722 
Q 769 4003 388 4659 
L 791 4659 
Q 1378 3875 1659 3084 
Q 1900 2403 1900 1659 
Q 1900 816 1576 28 
Q 1253 -759 791 -1347 
z
" transform="scale(0.015625)"/>
       <path id="ArialMT-20" transform="scale(0.015625)"/>
       <path id="ArialMT-69" d="M 425 3934 
L 425 4581 
L 988 4581 
L 988 3934 
L 425 3934 
z
M 425 0 
L 425 3319 
L 988 3319 
L 988 0 
L 425 0 
z
" transform="scale(0.015625)"/>
       <path id="ArialMT-4d" d="M 475 0 
L 475 4581 
L 1388 4581 
L 2472 1338 
Q 2622 884 2691 659 
Q 2769 909 2934 1394 
L 4031 4581 
L 4847 4581 
L 4847 0 
L 4263 0 
L 4263 3834 
L 2931 0 
L 2384 0 
L 1059 3900 
L 1059 0 
L 475 0 
z
" transform="scale(0.015625)"/>
       <path id="ArialMT-4e" d="M 488 0 
L 488 4581 
L 1109 4581 
L 3516 984 
L 3516 4581 
L 4097 4581 
L 4097 0 
L 3475 0 
L 1069 3600 
L 1069 0 
L 488 0 
z
" transform="scale(0.015625)"/>
       <path id="ArialMT-79" d="M 397 -1278 
L 334 -750 
Q 519 -800 656 -800 
Q 844 -800 956 -737 
Q 1069 -675 1141 -563 
Q 1194 -478 1313 -144 
Q 1328 -97 1363 -6 
L 103 3319 
L 709 3319 
L 1400 1397 
Q 1534 1031 1641 628 
Q 1738 1016 1872 1384 
L 2581 3319 
L 3144 3319 
L 1881 -56 
Q 1678 -603 1566 -809 
Q 1416 -1088 1222 -1217 
Q 1028 -1347 759 -1347 
Q 597 -1347 397 -1278 
z
" transform="scale(0.015625)"/>
       <path id="ArialMT-65" d="M 2694 1069 
L 3275 997 
Q 3138 488 2766 206 
Q 2394 -75 1816 -75 
Q 1088 -75 661 373 
Q 234 822 234 1631 
Q 234 2469 665 2931 
Q 1097 3394 1784 3394 
Q 2450 3394 2872 2941 
Q 3294 2488 3294 1666 
Q 3294 1616 3291 1516 
L 816 1516 
Q 847 969 1125 678 
Q 1403 388 1819 388 
Q 2128 388 2347 550 
Q 2566 713 2694 1069 
z
M 847 1978 
L 2700 1978 
Q 2663 2397 2488 2606 
Q 2219 2931 1791 2931 
Q 1403 2931 1139 2672 
Q 875 2413 847 1978 
z
" transform="scale(0.015625)"/>
       <path id="ArialMT-6c" d="M 409 0 
L 409 4581 
L 972 4581 
L 972 0 
L 409 0 
z
" transform="scale(0.015625)"/>
       <path id="ArialMT-64" d="M 2575 0 
L 2575 419 
Q 2259 -75 1647 -75 
Q 1250 -75 917 144 
Q 584 363 401 755 
Q 219 1147 219 1656 
Q 219 2153 384 2558 
Q 550 2963 881 3178 
Q 1213 3394 1622 3394 
Q 1922 3394 2156 3267 
Q 2391 3141 2538 2938 
L 2538 4581 
L 3097 4581 
L 3097 0 
L 2575 0 
z
M 797 1656 
Q 797 1019 1065 703 
Q 1334 388 1700 388 
Q 2069 388 2326 689 
Q 2584 991 2584 1609 
Q 2584 2291 2321 2609 
Q 2059 2928 1675 2928 
Q 1300 2928 1048 2622 
Q 797 2316 797 1656 
z
" transform="scale(0.015625)"/>
      </defs>
      <use xlink:href="#ArialMT-28"/>
      <use xlink:href="#ArialMT-25" transform="translate(33.300781 0)"/>
      <use xlink:href="#ArialMT-29" transform="translate(122.216797 0)"/>
      <use xlink:href="#ArialMT-20" transform="translate(155.517578 0)"/>
      <use xlink:href="#ArialMT-69" transform="translate(183.300781 0)"/>
      <use xlink:href="#ArialMT-4d" transform="translate(205.517578 0)"/>
      <use xlink:href="#ArialMT-4e" transform="translate(288.818359 0)"/>
      <use xlink:href="#ArialMT-20" transform="translate(361.035156 0)"/>
      <use xlink:href="#ArialMT-79" transform="translate(388.818359 0)"/>
      <use xlink:href="#ArialMT-69" transform="translate(438.818359 0)"/>
      <use xlink:href="#ArialMT-65" transform="translate(461.035156 0)"/>
      <use xlink:href="#ArialMT-6c" transform="translate(516.650391 0)"/>
      <use xlink:href="#ArialMT-64" transform="translate(538.867188 0)"/>
     </g>
     <!-- per MEF plated -->
     <g style="fill: #262626" transform="translate(28.7685 106.715625) rotate(-90) scale(0.12 -0.12)">
      <defs>
       <path id="ArialMT-70" d="M 422 -1272 
L 422 3319 
L 934 3319 
L 934 2888 
Q 1116 3141 1344 3267 
Q 1572 3394 1897 3394 
Q 2322 3394 2647 3175 
Q 2972 2956 3137 2557 
Q 3303 2159 3303 1684 
Q 3303 1175 3120 767 
Q 2938 359 2589 142 
Q 2241 -75 1856 -75 
Q 1575 -75 1351 44 
Q 1128 163 984 344 
L 984 -1272 
L 422 -1272 
z
M 931 1641 
Q 931 1000 1190 694 
Q 1450 388 1819 388 
Q 2194 388 2461 705 
Q 2728 1022 2728 1688 
Q 2728 2322 2467 2637 
Q 2206 2953 1844 2953 
Q 1484 2953 1207 2617 
Q 931 2281 931 1641 
z
" transform="scale(0.015625)"/>
       <path id="ArialMT-72" d="M 416 0 
L 416 3319 
L 922 3319 
L 922 2816 
Q 1116 3169 1280 3281 
Q 1444 3394 1641 3394 
Q 1925 3394 2219 3213 
L 2025 2691 
Q 1819 2813 1613 2813 
Q 1428 2813 1281 2702 
Q 1134 2591 1072 2394 
Q 978 2094 978 1738 
L 978 0 
L 416 0 
z
" transform="scale(0.015625)"/>
       <path id="ArialMT-45" d="M 506 0 
L 506 4581 
L 3819 4581 
L 3819 4041 
L 1113 4041 
L 1113 2638 
L 3647 2638 
L 3647 2100 
L 1113 2100 
L 1113 541 
L 3925 541 
L 3925 0 
L 506 0 
z
" transform="scale(0.015625)"/>
       <path id="ArialMT-46" d="M 525 0 
L 525 4581 
L 3616 4581 
L 3616 4041 
L 1131 4041 
L 1131 2622 
L 3281 2622 
L 3281 2081 
L 1131 2081 
L 1131 0 
L 525 0 
z
" transform="scale(0.015625)"/>
       <path id="ArialMT-61" d="M 2588 409 
Q 2275 144 1986 34 
Q 1697 -75 1366 -75 
Q 819 -75 525 192 
Q 231 459 231 875 
Q 231 1119 342 1320 
Q 453 1522 633 1644 
Q 813 1766 1038 1828 
Q 1203 1872 1538 1913 
Q 2219 1994 2541 2106 
Q 2544 2222 2544 2253 
Q 2544 2597 2384 2738 
Q 2169 2928 1744 2928 
Q 1347 2928 1158 2789 
Q 969 2650 878 2297 
L 328 2372 
Q 403 2725 575 2942 
Q 747 3159 1072 3276 
Q 1397 3394 1825 3394 
Q 2250 3394 2515 3294 
Q 2781 3194 2906 3042 
Q 3031 2891 3081 2659 
Q 3109 2516 3109 2141 
L 3109 1391 
Q 3109 606 3145 398 
Q 3181 191 3288 0 
L 2700 0 
Q 2613 175 2588 409 
z
M 2541 1666 
Q 2234 1541 1622 1453 
Q 1275 1403 1131 1340 
Q 988 1278 909 1158 
Q 831 1038 831 891 
Q 831 666 1001 516 
Q 1172 366 1500 366 
Q 1825 366 2078 508 
Q 2331 650 2450 897 
Q 2541 1088 2541 1459 
L 2541 1666 
z
" transform="scale(0.015625)"/>
       <path id="ArialMT-74" d="M 1650 503 
L 1731 6 
Q 1494 -44 1306 -44 
Q 1000 -44 831 53 
Q 663 150 594 308 
Q 525 466 525 972 
L 525 2881 
L 113 2881 
L 113 3319 
L 525 3319 
L 525 4141 
L 1084 4478 
L 1084 3319 
L 1650 3319 
L 1650 2881 
L 1084 2881 
L 1084 941 
Q 1084 700 1114 631 
Q 1144 563 1211 522 
Q 1278 481 1403 481 
Q 1497 481 1650 503 
z
" transform="scale(0.015625)"/>
      </defs>
      <use xlink:href="#ArialMT-70"/>
      <use xlink:href="#ArialMT-65" transform="translate(55.615234 0)"/>
      <use xlink:href="#ArialMT-72" transform="translate(111.230469 0)"/>
      <use xlink:href="#ArialMT-20" transform="translate(144.53125 0)"/>
      <use xlink:href="#ArialMT-4d" transform="translate(172.314453 0)"/>
      <use xlink:href="#ArialMT-45" transform="translate(255.615234 0)"/>
      <use xlink:href="#ArialMT-46" transform="translate(322.314453 0)"/>
      <use xlink:href="#ArialMT-20" transform="translate(383.398438 0)"/>
      <use xlink:href="#ArialMT-70" transform="translate(411.181641 0)"/>
      <use xlink:href="#ArialMT-6c" transform="translate(466.796875 0)"/>
      <use xlink:href="#ArialMT-61" transform="translate(489.013672 0)"/>
      <use xlink:href="#ArialMT-74" transform="translate(544.628906 0)"/>
      <use xlink:href="#ArialMT-65" transform="translate(572.412109 0)"/>
      <use xlink:href="#ArialMT-64" transform="translate(628.027344 0)"/>
     </g>
    </g>
   </g>
   <g id="patch_3">
    <path d="M 71.104594 124.2 
L 84.064594 124.2 
L 84.064594 44.746463 
L 71.104594 44.746463 
z
" clip-path="url(#p9de8ef4f50)" style="fill: #4b4279; opacity: 0.8; stroke: #ffffff; stroke-linejoin: miter"/>
   </g>
   <g id="patch_4">
    <path d="M 152.104594 124.2 
L 165.064594 124.2 
L 165.064594 118.883367 
L 152.104594 118.883367 
z
" clip-path="url(#p9de8ef4f50)" style="fill: #4b4279; opacity: 0.8; stroke: #ffffff; stroke-linejoin: miter"/>
   </g>
   <g id="patch_5">
    <path d="M 84.064594 124.2 
L 97.024594 124.2 
L 97.024594 48.821961 
L 84.064594 48.821961 
z
" clip-path="url(#p9de8ef4f50)" style="fill: #3c6682; opacity: 0.8; stroke: #ffffff; stroke-linejoin: miter"/>
   </g>
   <g id="patch_6">
    <path d="M 165.064594 124.2 
L 178.024594 124.2 
L 178.024594 120.061224 
L 165.064594 120.061224 
z
" clip-path="url(#p9de8ef4f50)" style="fill: #3c6682; opacity: 0.8; stroke: #ffffff; stroke-linejoin: miter"/>
   </g>
   <g id="patch_7">
    <path d="M 97.024594 124.2 
L 109.984594 124.2 
L 109.984594 60.871579 
L 97.024594 60.871579 
z
" clip-path="url(#p9de8ef4f50)" style="fill: #2f837f; opacity: 0.8; stroke: #ffffff; stroke-linejoin: miter"/>
   </g>
   <g id="patch_8">
    <path d="M 178.024594 124.2 
L 190.984594 124.2 
L 190.984594 120.798527 
L 178.024594 120.798527 
z
" clip-path="url(#p9de8ef4f50)" style="fill: #2f837f; opacity: 0.8; stroke: #ffffff; stroke-linejoin: miter"/>
   </g>
   <g id="patch_9">
    <path d="M 109.984594 124.2 
L 122.944594 124.2 
L 122.944594 72.784345 
L 109.984594 72.784345 
z
" clip-path="url(#p9de8ef4f50)" style="fill: #45a778; opacity: 0.8; stroke: #ffffff; stroke-linejoin: miter"/>
   </g>
   <g id="patch_10">
    <path d="M 190.984594 124.2 
L 203.944594 124.2 
L 203.944594 122.564586 
L 190.984594 122.564586 
z
" clip-path="url(#p9de8ef4f50)" style="fill: #45a778; opacity: 0.8; stroke: #ffffff; stroke-linejoin: miter"/>
   </g>
   <g id="patch_11">
    <path d="M 122.944594 124.2 
L 135.904594 124.2 
L 135.904594 92.59533 
L 122.944594 92.59533 
z
" clip-path="url(#p9de8ef4f50)" style="fill: #8fc456; opacity: 0.8; stroke: #ffffff; stroke-linejoin: miter"/>
   </g>
   <g id="patch_12">
    <path d="M 203.944594 124.2 
L 216.904594 124.2 
L 216.904594 124.185219 
L 203.944594 124.185219 
z
" clip-path="url(#p9de8ef4f50)" style="fill: #8fc456; opacity: 0.8; stroke: #ffffff; stroke-linejoin: miter"/>
   </g>
   <g id="line2d_7">
    <path d="M 77.584594 63.770603 
L 77.584594 27.632034 
" clip-path="url(#p9de8ef4f50)" style="fill: none; stroke: #424242; stroke-width: 2.7; stroke-linecap: round"/>
   </g>
   <g id="line2d_8">
    <path d="M 158.584594 119.880452 
L 158.584594 117.880851 
" clip-path="url(#p9de8ef4f50)" style="fill: none; stroke: #424242; stroke-width: 2.7; stroke-linecap: round"/>
   </g>
   <g id="line2d_9">
    <path d="M 90.544594 68.365794 
L 90.544594 32.007553 
" clip-path="url(#p9de8ef4f50)" style="fill: none; stroke: #424242; stroke-width: 2.7; stroke-linecap: round"/>
   </g>
   <g id="line2d_10">
    <path d="M 171.544594 121.359101 
L 171.544594 118.723562 
" clip-path="url(#p9de8ef4f50)" style="fill: none; stroke: #424242; stroke-width: 2.7; stroke-linecap: round"/>
   </g>
   <g id="line2d_11">
    <path d="M 103.504594 71.251187 
L 103.504594 48.984817 
" clip-path="url(#p9de8ef4f50)" style="fill: none; stroke: #424242; stroke-width: 2.7; stroke-linecap: round"/>
   </g>
   <g id="line2d_12">
    <path d="M 184.504594 122.054806 
L 184.504594 119.188904 
" clip-path="url(#p9de8ef4f50)" style="fill: none; stroke: #424242; stroke-width: 2.7; stroke-linecap: round"/>
   </g>
   <g id="line2d_13">
    <path d="M 116.464594 83.780651 
L 116.464594 59.543484 
" clip-path="url(#p9de8ef4f50)" style="fill: none; stroke: #424242; stroke-width: 2.7; stroke-linecap: round"/>
   </g>
   <g id="line2d_14">
    <path d="M 197.464594 123.005954 
L 197.464594 122.030103 
" clip-path="url(#p9de8ef4f50)" style="fill: none; stroke: #424242; stroke-width: 2.7; stroke-linecap: round"/>
   </g>
   <g id="line2d_15">
    <path d="M 129.424594 99.802547 
L 129.424594 85.050463 
" clip-path="url(#p9de8ef4f50)" style="fill: none; stroke: #424242; stroke-width: 2.7; stroke-linecap: round"/>
   </g>
   <g id="line2d_16">
    <path d="M 210.424594 124.195848 
L 210.424594 124.166451 
" clip-path="url(#p9de8ef4f50)" style="fill: none; stroke: #424242; stroke-width: 2.7; stroke-linecap: round"/>
   </g>
   <g id="patch_13">
    <path d="M 63.004594 124.2 
L 63.004594 7.2 
" style="fill: none; stroke: #262626; stroke-width: 1.25; stroke-linejoin: miter; stroke-linecap: square"/>
   </g>
   <g id="patch_14">
    <path d="M 225.004594 124.2 
L 225.004594 7.2 
" style="fill: none; stroke: #262626; stroke-width: 1.25; stroke-linejoin: miter; stroke-linecap: square"/>
   </g>
   <g id="patch_15">
    <path d="M 63.004594 124.2 
L 225.004594 124.2 
" style="fill: none; stroke: #262626; stroke-width: 1.25; stroke-linejoin: miter; stroke-linecap: square"/>
   </g>
   <g id="patch_16">
    <path d="M 63.004594 7.2 
L 225.004594 7.2 
" style="fill: none; stroke: #262626; stroke-width: 1.25; stroke-linejoin: miter; stroke-linecap: square"/>
   </g>
   <g id="PathCollection_1">
    <defs>
     <path id="C0_0_cdb62fabe4" d="M 0 2.5 
C 0.663008 2.5 1.29895 2.236584 1.767767 1.767767 
C 2.236584 1.29895 2.5 0.663008 2.5 -0 
C 2.5 -0.663008 2.236584 -1.29895 1.767767 -1.767767 
C 1.29895 -2.236584 0.663008 -2.5 0 -2.5 
C -0.663008 -2.5 -1.29895 -2.236584 -1.767767 -1.767767 
C -2.236584 -1.29895 -2.5 -0.663008 -2.5 0 
C -2.5 0.663008 -2.236584 1.29895 -1.767767 1.767767 
C -1.29895 2.236584 -0.663008 2.5 0 2.5 
z
"/>
    </defs>
    <g clip-path="url(#p9de8ef4f50)">
     <use xlink:href="#C0_0_cdb62fabe4" x="77.588312" y="12.771429" style="fill: #ffffff; stroke: #000000; stroke-width: 0.4"/>
    </g>
    <g clip-path="url(#p9de8ef4f50)">
     <use xlink:href="#C0_0_cdb62fabe4" x="76.188541" y="21.037355" style="fill: #ffffff; stroke: #000000; stroke-width: 0.4"/>
    </g>
    <g clip-path="url(#p9de8ef4f50)">
     <use xlink:href="#C0_0_cdb62fabe4" x="78.789035" y="21.756326" style="fill: #ffffff; stroke: #000000; stroke-width: 0.4"/>
    </g>
   </g>
   <g id="PathCollection_2">
    <defs>
     <path id="C1_0_575a0d6942" d="M 0 2.5 
C 0.663008 2.5 1.29895 2.236584 1.767767 1.767767 
C 2.236584 1.29895 2.5 0.663008 2.5 -0 
C 2.5 -0.663008 2.236584 -1.29895 1.767767 -1.767767 
C 1.29895 -2.236584 0.663008 -2.5 0 -2.5 
C -0.663008 -2.5 -1.29895 -2.236584 -1.767767 -1.767767 
C -2.236584 -1.29895 -2.5 -0.663008 -2.5 0 
C -2.5 0.663008 -2.236584 1.29895 -1.767767 1.767767 
C -1.29895 2.236584 -0.663008 2.5 0 2.5 
z
"/>
    </defs>
    <g clip-path="url(#p9de8ef4f50)">
     <use xlink:href="#C1_0_575a0d6942" x="90.488467" y="20.958133" style="fill: #ffffff; stroke: #000000; stroke-width: 0.4"/>
    </g>
    <g clip-path="url(#p9de8ef4f50)">
     <use xlink:href="#C1_0_575a0d6942" x="91.779228" y="26.518576" style="fill: #ffffff; stroke: #000000; stroke-width: 0.4"/>
    </g>
    <g clip-path="url(#p9de8ef4f50)">
     <use xlink:href="#C1_0_575a0d6942" x="89.654423" y="30.512528" style="fill: #ffffff; stroke: #000000; stroke-width: 0.4"/>
    </g>
   </g>
   <g id="PathCollection_3">
    <defs>
     <path id="C2_0_87d39ba04e" d="M 0 2.5 
C 0.663008 2.5 1.29895 2.236584 1.767767 1.767767 
C 2.236584 1.29895 2.5 0.663008 2.5 -0 
C 2.5 -0.663008 2.236584 -1.29895 1.767767 -1.767767 
C 1.29895 -2.236584 0.663008 -2.5 0 -2.5 
C -0.663008 -2.5 -1.29895 -2.236584 -1.767767 -1.767767 
C -2.236584 -1.29895 -2.5 -0.663008 -2.5 0 
C -2.5 0.663008 -2.236584 1.29895 -1.767767 1.767767 
C -1.29895 2.236584 -0.663008 2.5 0 2.5 
z
"/>
    </defs>
    <g clip-path="url(#p9de8ef4f50)">
     <use xlink:href="#C2_0_87d39ba04e" x="102.74255" y="29.490124" style="fill: #ffffff; stroke: #000000; stroke-width: 0.4"/>
    </g>
    <g clip-path="url(#p9de8ef4f50)">
     <use xlink:href="#C2_0_87d39ba04e" x="103.200319" y="43.135628" style="fill: #ffffff; stroke: #000000; stroke-width: 0.4"/>
    </g>
    <g clip-path="url(#p9de8ef4f50)">
     <use xlink:href="#C2_0_87d39ba04e" x="104.229443" y="44.235759" style="fill: #ffffff; stroke: #000000; stroke-width: 0.4"/>
    </g>
   </g>
   <g id="PathCollection_4">
    <defs>
     <path id="C3_0_2a138c996f" d="M 0 2.5 
C 0.663008 2.5 1.29895 2.236584 1.767767 1.767767 
C 2.236584 1.29895 2.5 0.663008 2.5 -0 
C 2.5 -0.663008 2.236584 -1.29895 1.767767 -1.767767 
C 1.29895 -2.236584 0.663008 -2.5 0 -2.5 
C -0.663008 -2.5 -1.29895 -2.236584 -1.767767 -1.767767 
C -2.236584 -1.29895 -2.5 -0.663008 -2.5 0 
C -2.5 0.663008 -2.236584 1.29895 -1.767767 1.767767 
C -1.29895 2.236584 -0.663008 2.5 0 2.5 
z
"/>
    </defs>
    <g clip-path="url(#p9de8ef4f50)">
     <use xlink:href="#C3_0_2a138c996f" x="114.916939" y="46.996548" style="fill: #ffffff; stroke: #000000; stroke-width: 0.4"/>
    </g>
    <g clip-path="url(#p9de8ef4f50)">
     <use xlink:href="#C3_0_2a138c996f" x="114.947893" y="46.416588" style="fill: #ffffff; stroke: #000000; stroke-width: 0.4"/>
    </g>
    <g clip-path="url(#p9de8ef4f50)">
     <use xlink:href="#C3_0_2a138c996f" x="117.71705" y="49.957633" style="fill: #ffffff; stroke: #000000; stroke-width: 0.4"/>
    </g>
   </g>
   <g id="PathCollection_5">
    <defs>
     <path id="C4_0_8a53588090" d="M 0 2.5 
C 0.663008 2.5 1.29895 2.236584 1.767767 1.767767 
C 2.236584 1.29895 2.5 0.663008 2.5 -0 
C 2.5 -0.663008 2.236584 -1.29895 1.767767 -1.767767 
C 1.29895 -2.236584 0.663008 -2.5 0 -2.5 
C -0.663008 -2.5 -1.29895 -2.236584 -1.767767 -1.767767 
C -2.236584 -1.29895 -2.5 -0.663008 -2.5 0 
C -2.5 0.663008 -2.236584 1.29895 -1.767767 1.767767 
C -1.29895 2.236584 -0.663008 2.5 0 2.5 
z
"/>
    </defs>
    <g clip-path="url(#p9de8ef4f50)">
     <use xlink:href="#C4_0_8a53588090" x="130.754242" y="76.692598" style="fill: #ffffff; stroke: #000000; stroke-width: 0.4"/>
    </g>
    <g clip-path="url(#p9de8ef4f50)">
     <use xlink:href="#C4_0_8a53588090" x="129.79262" y="75.456446" style="fill: #ffffff; stroke: #000000; stroke-width: 0.4"/>
    </g>
    <g clip-path="url(#p9de8ef4f50)">
     <use xlink:href="#C4_0_8a53588090" x="128.109901" y="78.067761" style="fill: #ffffff; stroke: #000000; stroke-width: 0.4"/>
    </g>
   </g>
   <g id="PathCollection_6">
    <defs>
     <path id="C5_0_4d4732ef66" d="M 0 2.5 
C 0.663008 2.5 1.29895 2.236584 1.767767 1.767767 
C 2.236584 1.29895 2.5 0.663008 2.5 -0 
C 2.5 -0.663008 2.236584 -1.29895 1.767767 -1.767767 
C 1.29895 -2.236584 0.663008 -2.5 0 -2.5 
C -0.663008 -2.5 -1.29895 -2.236584 -1.767767 -1.767767 
C -2.236584 -1.29895 -2.5 -0.663008 -2.5 0 
C -2.5 0.663008 -2.236584 1.29895 -1.767767 1.767767 
C -1.29895 2.236584 -0.663008 2.5 0 2.5 
z
"/>
    </defs>
    <g clip-path="url(#p9de8ef4f50)">
     <use xlink:href="#C5_0_4d4732ef66" x="157.863905" y="117.847344" style="fill: #ffffff; stroke: #000000; stroke-width: 0.4"/>
    </g>
    <g clip-path="url(#p9de8ef4f50)">
     <use xlink:href="#C5_0_4d4732ef66" x="158.285654" y="118.055113" style="fill: #ffffff; stroke: #000000; stroke-width: 0.4"/>
    </g>
    <g clip-path="url(#p9de8ef4f50)">
     <use xlink:href="#C5_0_4d4732ef66" x="159.5277" y="118.289788" style="fill: #ffffff; stroke: #000000; stroke-width: 0.4"/>
    </g>
   </g>
   <g id="PathCollection_7">
    <defs>
     <path id="C6_0_4d4fba39e3" d="M 0 2.5 
C 0.663008 2.5 1.29895 2.236584 1.767767 1.767767 
C 2.236584 1.29895 2.5 0.663008 2.5 -0 
C 2.5 -0.663008 2.236584 -1.29895 1.767767 -1.767767 
C 1.29895 -2.236584 0.663008 -2.5 0 -2.5 
C -0.663008 -2.5 -1.29895 -2.236584 -1.767767 -1.767767 
C -2.236584 -1.29895 -2.5 -0.663008 -2.5 0 
C -2.5 0.663008 -2.236584 1.29895 -1.767767 1.767767 
C -1.29895 2.236584 -0.663008 2.5 0 2.5 
z
"/>
    </defs>
    <g clip-path="url(#p9de8ef4f50)">
     <use xlink:href="#C6_0_4d4fba39e3" x="171.812077" y="118.818927" style="fill: #ffffff; stroke: #000000; stroke-width: 0.4"/>
    </g>
    <g clip-path="url(#p9de8ef4f50)">
     <use xlink:href="#C6_0_4d4fba39e3" x="171.095641" y="116.403423" style="fill: #ffffff; stroke: #000000; stroke-width: 0.4"/>
    </g>
    <g clip-path="url(#p9de8ef4f50)">
     <use xlink:href="#C6_0_4d4fba39e3" x="170.143196" y="117.506543" style="fill: #ffffff; stroke: #000000; stroke-width: 0.4"/>
    </g>
   </g>
   <g id="PathCollection_8">
    <defs>
     <path id="C7_0_f47a9690db" d="M 0 2.5 
C 0.663008 2.5 1.29895 2.236584 1.767767 1.767767 
C 2.236584 1.29895 2.5 0.663008 2.5 -0 
C 2.5 -0.663008 2.236584 -1.29895 1.767767 -1.767767 
C 1.29895 -2.236584 0.663008 -2.5 0 -2.5 
C -0.663008 -2.5 -1.29895 -2.236584 -1.767767 -1.767767 
C -2.236584 -1.29895 -2.5 -0.663008 -2.5 0 
C -2.5 0.663008 -2.236584 1.29895 -1.767767 1.767767 
C -1.29895 2.236584 -0.663008 2.5 0 2.5 
z
"/>
    </defs>
    <g clip-path="url(#p9de8ef4f50)">
     <use xlink:href="#C7_0_f47a9690db" x="185.220083" y="117.739723" style="fill: #ffffff; stroke: #000000; stroke-width: 0.4"/>
    </g>
    <g clip-path="url(#p9de8ef4f50)">
     <use xlink:href="#C7_0_f47a9690db" x="183.954473" y="120.596176" style="fill: #ffffff; stroke: #000000; stroke-width: 0.4"/>
    </g>
    <g clip-path="url(#p9de8ef4f50)">
     <use xlink:href="#C7_0_f47a9690db" x="184.162786" y="117.034204" style="fill: #ffffff; stroke: #000000; stroke-width: 0.4"/>
    </g>
   </g>
   <g id="PathCollection_9">
    <defs>
     <path id="C8_0_13357c8209" d="M 0 2.5 
C 0.663008 2.5 1.29895 2.236584 1.767767 1.767767 
C 2.236584 1.29895 2.5 0.663008 2.5 -0 
C 2.5 -0.663008 2.236584 -1.29895 1.767767 -1.767767 
C 1.29895 -2.236584 0.663008 -2.5 0 -2.5 
C -0.663008 -2.5 -1.29895 -2.236584 -1.767767 -1.767767 
C -2.236584 -1.29895 -2.5 -0.663008 -2.5 0 
C -2.5 0.663008 -2.236584 1.29895 -1.767767 1.767767 
C -1.29895 2.236584 -0.663008 2.5 0 2.5 
z
"/>
    </defs>
    <g clip-path="url(#p9de8ef4f50)">
     <use xlink:href="#C8_0_13357c8209" x="196.776879" y="122.34054" style="fill: #ffffff; stroke: #000000; stroke-width: 0.4"/>
    </g>
    <g clip-path="url(#p9de8ef4f50)">
     <use xlink:href="#C8_0_13357c8209" x="198.173576" y="121.35401" style="fill: #ffffff; stroke: #000000; stroke-width: 0.4"/>
    </g>
    <g clip-path="url(#p9de8ef4f50)">
     <use xlink:href="#C8_0_13357c8209" x="199.028591" y="121.213504" style="fill: #ffffff; stroke: #000000; stroke-width: 0.4"/>
    </g>
   </g>
   <g id="PathCollection_10">
    <defs>
     <path id="C9_0_61f1b00584" d="M 0 2.5 
C 0.663008 2.5 1.29895 2.236584 1.767767 1.767767 
C 2.236584 1.29895 2.5 0.663008 2.5 -0 
C 2.5 -0.663008 2.236584 -1.29895 1.767767 -1.767767 
C 1.29895 -2.236584 0.663008 -2.5 0 -2.5 
C -0.663008 -2.5 -1.29895 -2.236584 -1.767767 -1.767767 
C -2.236584 -1.29895 -2.5 -0.663008 -2.5 0 
C -2.5 0.663008 -2.236584 1.29895 -1.767767 1.767767 
C -1.29895 2.236584 -0.663008 2.5 0 2.5 
z
"/>
    </defs>
    <g clip-path="url(#p9de8ef4f50)">
     <use xlink:href="#C9_0_61f1b00584" x="211.467319" y="124.194021" style="fill: #ffffff; stroke: #000000; stroke-width: 0.4"/>
    </g>
    <g clip-path="url(#p9de8ef4f50)">
     <use xlink:href="#C9_0_61f1b00584" x="211.427707" y="124.197011" style="fill: #ffffff; stroke: #000000; stroke-width: 0.4"/>
    </g>
    <g clip-path="url(#p9de8ef4f50)">
     <use xlink:href="#C9_0_61f1b00584" x="210.423214" y="124.197011" style="fill: #ffffff; stroke: #000000; stroke-width: 0.4"/>
    </g>
   </g>
   <g id="PathCollection_11">
    <path d="M 79.071977 26.015552 
L 76.571977 31.015552 
L 81.571977 31.015552 
z
" clip-path="url(#p9de8ef4f50)" style="fill: #ffffff; stroke: #000000; stroke-width: 0.4"/>
    <path d="M 78.142366 32.741893 
L 75.642366 37.741893 
L 80.642366 37.741893 
z
" clip-path="url(#p9de8ef4f50)" style="fill: #ffffff; stroke: #000000; stroke-width: 0.4"/>
    <path d="M 76.607994 32.608861 
L 74.107994 37.608861 
L 79.107994 37.608861 
z
" clip-path="url(#p9de8ef4f50)" style="fill: #ffffff; stroke: #000000; stroke-width: 0.4"/>
   </g>
   <g id="PathCollection_12">
    <path d="M 91.568533 19.918497 
L 89.068533 24.918497 
L 94.068533 24.918497 
z
" clip-path="url(#p9de8ef4f50)" style="fill: #ffffff; stroke: #000000; stroke-width: 0.4"/>
    <path d="M 89.669831 38.825495 
L 87.169831 43.825495 
L 92.169831 43.825495 
z
" clip-path="url(#p9de8ef4f50)" style="fill: #ffffff; stroke: #000000; stroke-width: 0.4"/>
    <path d="M 89.73107 36.049758 
L 87.23107 41.049758 
L 92.23107 41.049758 
z
" clip-path="url(#p9de8ef4f50)" style="fill: #ffffff; stroke: #000000; stroke-width: 0.4"/>
   </g>
   <g id="PathCollection_13">
    <path d="M 104.127022 75.070012 
L 101.627022 80.070012 
L 106.627022 80.070012 
z
" clip-path="url(#p9de8ef4f50)" style="fill: #ffffff; stroke: #000000; stroke-width: 0.4"/>
    <path d="M 102.659198 63.122535 
L 100.159198 68.122535 
L 105.159198 68.122535 
z
" clip-path="url(#p9de8ef4f50)" style="fill: #ffffff; stroke: #000000; stroke-width: 0.4"/>
    <path d="M 102.892252 61.213749 
L 100.392252 66.213749 
L 105.392252 66.213749 
z
" clip-path="url(#p9de8ef4f50)" style="fill: #ffffff; stroke: #000000; stroke-width: 0.4"/>
   </g>
   <g id="PathCollection_14">
    <path d="M 115.927553 85.525736 
L 113.427553 90.525736 
L 118.427553 90.525736 
z
" clip-path="url(#p9de8ef4f50)" style="fill: #ffffff; stroke: #000000; stroke-width: 0.4"/>
    <path d="M 115.956962 84.214847 
L 113.456962 89.214847 
L 118.456962 89.214847 
z
" clip-path="url(#p9de8ef4f50)" style="fill: #ffffff; stroke: #000000; stroke-width: 0.4"/>
    <path d="M 115.504478 84.51529 
L 113.004478 89.51529 
L 118.004478 89.51529 
z
" clip-path="url(#p9de8ef4f50)" style="fill: #ffffff; stroke: #000000; stroke-width: 0.4"/>
   </g>
   <g id="PathCollection_15">
    <path d="M 129.564854 100.946995 
L 127.064854 105.946995 
L 132.064854 105.946995 
z
" clip-path="url(#p9de8ef4f50)" style="fill: #ffffff; stroke: #000000; stroke-width: 0.4"/>
    <path d="M 128.863301 105.362464 
L 126.363301 110.362464 
L 131.363301 110.362464 
z
" clip-path="url(#p9de8ef4f50)" style="fill: #ffffff; stroke: #000000; stroke-width: 0.4"/>
    <path d="M 128.14141 104.07848 
L 125.64141 109.07848 
L 130.64141 109.07848 
z
" clip-path="url(#p9de8ef4f50)" style="fill: #ffffff; stroke: #000000; stroke-width: 0.4"/>
   </g>
   <g id="PathCollection_16">
    <path d="M 158.260337 117.874954 
L 155.760337 122.874954 
L 160.760337 122.874954 
z
" clip-path="url(#p9de8ef4f50)" style="fill: #ffffff; stroke: #000000; stroke-width: 0.4"/>
    <path d="M 157.951753 116.695602 
L 155.451753 121.695602 
L 160.451753 121.695602 
z
" clip-path="url(#p9de8ef4f50)" style="fill: #ffffff; stroke: #000000; stroke-width: 0.4"/>
    <path d="M 157.547334 119.285991 
L 155.047334 124.285991 
L 160.047334 124.285991 
z
" clip-path="url(#p9de8ef4f50)" style="fill: #ffffff; stroke: #000000; stroke-width: 0.4"/>
   </g>
   <g id="PathCollection_17">
    <path d="M 172.122278 119.794203 
L 169.622278 124.794203 
L 174.622278 124.794203 
z
" clip-path="url(#p9de8ef4f50)" style="fill: #ffffff; stroke: #000000; stroke-width: 0.4"/>
    <path d="M 170.955302 119.395107 
L 168.455302 124.395107 
L 173.455302 124.395107 
z
" clip-path="url(#p9de8ef4f50)" style="fill: #ffffff; stroke: #000000; stroke-width: 0.4"/>
    <path d="M 172.988315 120.493743 
L 170.488315 125.493743 
L 175.488315 125.493743 
z
" clip-path="url(#p9de8ef4f50)" style="fill: #ffffff; stroke: #000000; stroke-width: 0.4"/>
   </g>
   <g id="PathCollection_18">
    <path d="M 183.436522 120.309889 
L 180.936522 125.309889 
L 185.936522 125.309889 
z
" clip-path="url(#p9de8ef4f50)" style="fill: #ffffff; stroke: #000000; stroke-width: 0.4"/>
    <path d="M 183.143732 118.886895 
L 180.643732 123.886895 
L 185.643732 123.886895 
z
" clip-path="url(#p9de8ef4f50)" style="fill: #ffffff; stroke: #000000; stroke-width: 0.4"/>
   </g>
   <g id="PathCollection_19">
    <path d="M 196.463019 120.534101 
L 193.963019 125.534101 
L 198.963019 125.534101 
z
" clip-path="url(#p9de8ef4f50)" style="fill: #ffffff; stroke: #000000; stroke-width: 0.4"/>
    <path d="M 198.687364 120.534101 
L 196.187364 125.534101 
L 201.187364 125.534101 
z
" clip-path="url(#p9de8ef4f50)" style="fill: #ffffff; stroke: #000000; stroke-width: 0.4"/>
    <path d="M 198.354836 121.004945 
L 195.854836 126.004945 
L 200.854836 126.004945 
z
" clip-path="url(#p9de8ef4f50)" style="fill: #ffffff; stroke: #000000; stroke-width: 0.4"/>
   </g>
   <g id="PathCollection_20">
    <path d="M 211.136304 121.695516 
L 208.636304 126.695516 
L 213.636304 126.695516 
z
" clip-path="url(#p9de8ef4f50)" style="fill: #ffffff; stroke: #000000; stroke-width: 0.4"/>
    <path d="M 209.1331 121.685053 
L 206.6331 126.685053 
L 211.6331 126.685053 
z
" clip-path="url(#p9de8ef4f50)" style="fill: #ffffff; stroke: #000000; stroke-width: 0.4"/>
    <path d="M 209.876084 121.6148 
L 207.376084 126.6148 
L 212.376084 126.6148 
z
" clip-path="url(#p9de8ef4f50)" style="fill: #ffffff; stroke: #000000; stroke-width: 0.4"/>
   </g>
   <g id="PathCollection_21">
    <path d="M 73.55056 84.05649 
L 78.55056 84.05649 
L 78.55056 79.05649 
L 73.55056 79.05649 
z
" clip-path="url(#p9de8ef4f50)" style="fill: #ffffff; stroke: #000000; stroke-width: 0.4"/>
    <path d="M 74.164713 87.781389 
L 79.164713 87.781389 
L 79.164713 82.781389 
L 74.164713 82.781389 
z
" clip-path="url(#p9de8ef4f50)" style="fill: #ffffff; stroke: #000000; stroke-width: 0.4"/>
    <path d="M 76.599158 83.948869 
L 81.599158 83.948869 
L 81.599158 78.948869 
L 76.599158 78.948869 
z
" clip-path="url(#p9de8ef4f50)" style="fill: #ffffff; stroke: #000000; stroke-width: 0.4"/>
   </g>
   <g id="PathCollection_22">
    <path d="M 87.89514 78.167205 
L 92.89514 78.167205 
L 92.89514 73.167205 
L 87.89514 73.167205 
z
" clip-path="url(#p9de8ef4f50)" style="fill: #ffffff; stroke: #000000; stroke-width: 0.4"/>
    <path d="M 89.27166 91.606435 
L 94.27166 91.606435 
L 94.27166 86.606435 
L 89.27166 86.606435 
z
" clip-path="url(#p9de8ef4f50)" style="fill: #ffffff; stroke: #000000; stroke-width: 0.4"/>
    <path d="M 87.486438 96.841023 
L 92.486438 96.841023 
L 92.486438 91.841023 
L 87.486438 91.841023 
z
" clip-path="url(#p9de8ef4f50)" style="fill: #ffffff; stroke: #000000; stroke-width: 0.4"/>
   </g>
   <g id="PathCollection_23">
    <path d="M 100.341508 69.48873 
L 105.341508 69.48873 
L 105.341508 64.48873 
L 100.341508 64.48873 
z
" clip-path="url(#p9de8ef4f50)" style="fill: #ffffff; stroke: #000000; stroke-width: 0.4"/>
    <path d="M 100.079884 81.27029 
L 105.079884 81.27029 
L 105.079884 76.27029 
L 100.079884 76.27029 
z
" clip-path="url(#p9de8ef4f50)" style="fill: #ffffff; stroke: #000000; stroke-width: 0.4"/>
    <path d="M 100.550244 80.817383 
L 105.550244 80.817383 
L 105.550244 75.817383 
L 100.550244 75.817383 
z
" clip-path="url(#p9de8ef4f50)" style="fill: #ffffff; stroke: #000000; stroke-width: 0.4"/>
   </g>
   <g id="PathCollection_24">
    <path d="M 115.339522 80.560288 
L 120.339522 80.560288 
L 120.339522 75.560288 
L 115.339522 75.560288 
z
" clip-path="url(#p9de8ef4f50)" style="fill: #ffffff; stroke: #000000; stroke-width: 0.4"/>
    <path d="M 114.893728 81.186585 
L 119.893728 81.186585 
L 119.893728 76.186585 
L 114.893728 76.186585 
z
" clip-path="url(#p9de8ef4f50)" style="fill: #ffffff; stroke: #000000; stroke-width: 0.4"/>
    <path d="M 112.793627 95.685587 
L 117.793627 95.685587 
L 117.793627 90.685587 
L 112.793627 90.685587 
z
" clip-path="url(#p9de8ef4f50)" style="fill: #ffffff; stroke: #000000; stroke-width: 0.4"/>
   </g>
   <g id="PathCollection_25">
    <path d="M 126.372097 93.190862 
L 131.372097 93.190862 
L 131.372097 88.190862 
L 126.372097 88.190862 
z
" clip-path="url(#p9de8ef4f50)" style="fill: #ffffff; stroke: #000000; stroke-width: 0.4"/>
    <path d="M 127.109273 101.166808 
L 132.109273 101.166808 
L 132.109273 96.166808 
L 127.109273 96.166808 
z
" clip-path="url(#p9de8ef4f50)" style="fill: #ffffff; stroke: #000000; stroke-width: 0.4"/>
    <path d="M 127.952341 98.395555 
L 132.952341 98.395555 
L 132.952341 93.395555 
L 127.952341 93.395555 
z
" clip-path="url(#p9de8ef4f50)" style="fill: #ffffff; stroke: #000000; stroke-width: 0.4"/>
   </g>
   <g id="PathCollection_26">
    <path d="M 154.469396 118.589527 
L 159.469396 118.589527 
L 159.469396 113.589527 
L 154.469396 113.589527 
z
" clip-path="url(#p9de8ef4f50)" style="fill: #ffffff; stroke: #000000; stroke-width: 0.4"/>
    <path d="M 156.667874 121.339853 
L 161.667874 121.339853 
L 161.667874 116.339853 
L 156.667874 116.339853 
z
" clip-path="url(#p9de8ef4f50)" style="fill: #ffffff; stroke: #000000; stroke-width: 0.4"/>
    <path d="M 157.369746 121.972129 
L 162.369746 121.972129 
L 162.369746 116.972129 
L 157.369746 116.972129 
z
" clip-path="url(#p9de8ef4f50)" style="fill: #ffffff; stroke: #000000; stroke-width: 0.4"/>
   </g>
   <g id="PathCollection_27">
    <path d="M 170.012277 122.496784 
L 175.012277 122.496784 
L 175.012277 117.496784 
L 170.012277 117.496784 
z
" clip-path="url(#p9de8ef4f50)" style="fill: #ffffff; stroke: #000000; stroke-width: 0.4"/>
    <path d="M 168.183816 122.161962 
L 173.183816 122.161962 
L 173.183816 117.161962 
L 168.183816 117.161962 
z
" clip-path="url(#p9de8ef4f50)" style="fill: #ffffff; stroke: #000000; stroke-width: 0.4"/>
    <path d="M 168.630235 123.480325 
L 173.630235 123.480325 
L 173.630235 118.480325 
L 168.630235 118.480325 
z
" clip-path="url(#p9de8ef4f50)" style="fill: #ffffff; stroke: #000000; stroke-width: 0.4"/>
   </g>
   <g id="PathCollection_28">
    <path d="M 181.410371 124.813635 
L 186.410371 124.813635 
L 186.410371 119.813635 
L 181.410371 119.813635 
z
" clip-path="url(#p9de8ef4f50)" style="fill: #ffffff; stroke: #000000; stroke-width: 0.4"/>
    <path d="M 183.043264 124.688077 
L 188.043264 124.688077 
L 188.043264 119.688077 
L 183.043264 119.688077 
z
" clip-path="url(#p9de8ef4f50)" style="fill: #ffffff; stroke: #000000; stroke-width: 0.4"/>
    <path d="M 183.294716 124.819614 
L 188.294716 124.819614 
L 188.294716 119.819614 
L 183.294716 119.819614 
z
" clip-path="url(#p9de8ef4f50)" style="fill: #ffffff; stroke: #000000; stroke-width: 0.4"/>
   </g>
   <g id="PathCollection_29">
    <path d="M 195.074951 125.417511 
L 200.074951 125.417511 
L 200.074951 120.417511 
L 195.074951 120.417511 
z
" clip-path="url(#p9de8ef4f50)" style="fill: #ffffff; stroke: #000000; stroke-width: 0.4"/>
    <path d="M 194.302164 124.998983 
L 199.302164 124.998983 
L 199.302164 119.998983 
L 194.302164 119.998983 
z
" clip-path="url(#p9de8ef4f50)" style="fill: #ffffff; stroke: #000000; stroke-width: 0.4"/>
    <path d="M 194.979785 125.683575 
L 199.979785 125.683575 
L 199.979785 120.683575 
L 194.979785 120.683575 
z
" clip-path="url(#p9de8ef4f50)" style="fill: #ffffff; stroke: #000000; stroke-width: 0.4"/>
   </g>
   <g id="PathCollection_30">
    <path d="M 208.009638 126.694021 
L 213.009638 126.694021 
L 213.009638 121.694021 
L 208.009638 121.694021 
z
" clip-path="url(#p9de8ef4f50)" style="fill: #ffffff; stroke: #000000; stroke-width: 0.4"/>
    <path d="M 209.112736 126.691032 
L 214.112736 126.691032 
L 214.112736 121.691032 
L 209.112736 121.691032 
z
" clip-path="url(#p9de8ef4f50)" style="fill: #ffffff; stroke: #000000; stroke-width: 0.4"/>
    <path d="M 207.678276 126.698505 
L 212.678276 126.698505 
L 212.678276 121.698505 
L 207.678276 121.698505 
z
" clip-path="url(#p9de8ef4f50)" style="fill: #ffffff; stroke: #000000; stroke-width: 0.4"/>
   </g>
   <g id="legend_1">
    <g id="patch_17">
     <path d="M 237.504594 19.473594 
L 259.504594 19.473594 
L 259.504594 11.773594 
L 237.504594 11.773594 
z
" style="fill: #4b4279; opacity: 0.8; stroke: #ffffff; stroke-linejoin: miter"/>
    </g>
    <g id="text_8">
     <!-- 0 uM -->
     <g style="fill: #262626" transform="translate(268.304594 19.473594) scale(0.11 -0.11)">
      <defs>
       <path id="ArialMT-75" d="M 2597 0 
L 2597 488 
Q 2209 -75 1544 -75 
Q 1250 -75 995 37 
Q 741 150 617 320 
Q 494 491 444 738 
Q 409 903 409 1263 
L 409 3319 
L 972 3319 
L 972 1478 
Q 972 1038 1006 884 
Q 1059 663 1231 536 
Q 1403 409 1656 409 
Q 1909 409 2131 539 
Q 2353 669 2445 892 
Q 2538 1116 2538 1541 
L 2538 3319 
L 3100 3319 
L 3100 0 
L 2597 0 
z
" transform="scale(0.015625)"/>
      </defs>
      <use xlink:href="#ArialMT-30"/>
      <use xlink:href="#ArialMT-20" transform="translate(55.615234 0)"/>
      <use xlink:href="#ArialMT-75" transform="translate(83.398438 0)"/>
      <use xlink:href="#ArialMT-4d" transform="translate(139.013672 0)"/>
     </g>
    </g>
    <g id="patch_18">
     <path d="M 237.504594 35.033437 
L 259.504594 35.033437 
L 259.504594 27.333437 
L 237.504594 27.333437 
z
" style="fill: #3c6682; opacity: 0.8; stroke: #ffffff; stroke-linejoin: miter"/>
    </g>
    <g id="text_9">
     <!-- 0.1 uM -->
     <g style="fill: #262626" transform="translate(268.304594 35.033437) scale(0.11 -0.11)">
      <defs>
       <path id="ArialMT-2e" d="M 581 0 
L 581 641 
L 1222 641 
L 1222 0 
L 581 0 
z
" transform="scale(0.015625)"/>
       <path id="ArialMT-31" d="M 2384 0 
L 1822 0 
L 1822 3584 
Q 1619 3391 1289 3197 
Q 959 3003 697 2906 
L 697 3450 
Q 1169 3672 1522 3987 
Q 1875 4303 2022 4600 
L 2384 4600 
L 2384 0 
z
" transform="scale(0.015625)"/>
      </defs>
      <use xlink:href="#ArialMT-30"/>
      <use xlink:href="#ArialMT-2e" transform="translate(55.615234 0)"/>
      <use xlink:href="#ArialMT-31" transform="translate(83.398438 0)"/>
      <use xlink:href="#ArialMT-20" transform="translate(139.013672 0)"/>
      <use xlink:href="#ArialMT-75" transform="translate(166.796875 0)"/>
      <use xlink:href="#ArialMT-4d" transform="translate(222.412109 0)"/>
     </g>
    </g>
    <g id="patch_19">
     <path d="M 237.504594 50.593281 
L 259.504594 50.593281 
L 259.504594 42.893281 
L 237.504594 42.893281 
z
" style="fill: #2f837f; opacity: 0.8; stroke: #ffffff; stroke-linejoin: miter"/>
    </g>
    <g id="text_10">
     <!-- 1 uM -->
     <g style="fill: #262626" transform="translate(268.304594 50.593281) scale(0.11 -0.11)">
      <use xlink:href="#ArialMT-31"/>
      <use xlink:href="#ArialMT-20" transform="translate(55.615234 0)"/>
      <use xlink:href="#ArialMT-75" transform="translate(83.398438 0)"/>
      <use xlink:href="#ArialMT-4d" transform="translate(139.013672 0)"/>
     </g>
    </g>
    <g id="patch_20">
     <path d="M 237.504594 66.153125 
L 259.504594 66.153125 
L 259.504594 58.453125 
L 237.504594 58.453125 
z
" style="fill: #45a778; opacity: 0.8; stroke: #ffffff; stroke-linejoin: miter"/>
    </g>
    <g id="text_11">
     <!-- 2 uM -->
     <g style="fill: #262626" transform="translate(268.304594 66.153125) scale(0.11 -0.11)">
      <use xlink:href="#ArialMT-32"/>
      <use xlink:href="#ArialMT-20" transform="translate(55.615234 0)"/>
      <use xlink:href="#ArialMT-75" transform="translate(83.398438 0)"/>
      <use xlink:href="#ArialMT-4d" transform="translate(139.013672 0)"/>
     </g>
    </g>
    <g id="patch_21">
     <path d="M 237.504594 81.712969 
L 259.504594 81.712969 
L 259.504594 74.012969 
L 237.504594 74.012969 
z
" style="fill: #8fc456; opacity: 0.8; stroke: #ffffff; stroke-linejoin: miter"/>
    </g>
    <g id="text_12">
     <!-- 5 uM -->
     <g style="fill: #262626" transform="translate(268.304594 81.712969) scale(0.11 -0.11)">
      <defs>
       <path id="ArialMT-35" d="M 266 1200 
L 856 1250 
Q 922 819 1161 601 
Q 1400 384 1738 384 
Q 2144 384 2425 690 
Q 2706 997 2706 1503 
Q 2706 1984 2436 2262 
Q 2166 2541 1728 2541 
Q 1456 2541 1237 2417 
Q 1019 2294 894 2097 
L 366 2166 
L 809 4519 
L 3088 4519 
L 3088 3981 
L 1259 3981 
L 1013 2750 
Q 1425 3038 1878 3038 
Q 2478 3038 2890 2622 
Q 3303 2206 3303 1553 
Q 3303 931 2941 478 
Q 2500 -78 1738 -78 
Q 1113 -78 717 272 
Q 322 622 266 1200 
z
" transform="scale(0.015625)"/>
      </defs>
      <use xlink:href="#ArialMT-35"/>
      <use xlink:href="#ArialMT-20" transform="translate(55.615234 0)"/>
      <use xlink:href="#ArialMT-75" transform="translate(83.398438 0)"/>
      <use xlink:href="#ArialMT-4d" transform="translate(139.013672 0)"/>
     </g>
    </g>
   </g>
  </g>
 </g>
 <defs>
  <clipPath id="p9de8ef4f50">
   <rect x="63.004594" y="7.2" width="162" height="117"/>
  </clipPath>
 </defs>
</svg>
