<?xml version="1.0" encoding="utf-8" standalone="no"?>
<!DOCTYPE svg PUBLIC "-//W3C//DTD SVG 1.1//EN"
  "http://www.w3.org/Graphics/SVG/1.1/DTD/svg11.dtd">
<svg xmlns:xlink="http://www.w3.org/1999/xlink" width="453.6pt" height="180pt" viewBox="0 0 453.6 180" xmlns="http://www.w3.org/2000/svg" version="1.1">
 <metadata>
  <rdf:RDF xmlns:dc="http://purl.org/dc/elements/1.1/" xmlns:cc="http://creativecommons.org/ns#" xmlns:rdf="http://www.w3.org/1999/02/22-rdf-syntax-ns#">
   <cc:Work>
    <dc:type rdf:resource="http://purl.org/dc/dcmitype/StillImage"/>
    <dc:date>2025-07-29T11:34:27.398605</dc:date>
    <dc:format>image/svg+xml</dc:format>
    <dc:creator>
     <cc:Agent>
      <dc:title>Matplotlib v3.10.3, https://matplotlib.org/</dc:title>
     </cc:Agent>
    </dc:creator>
   </cc:Work>
  </rdf:RDF>
 </metadata>
 <defs>
  <style type="text/css">*{stroke-linejoin: round; stroke-linecap: butt}</style>
 </defs>
 <g id="figure_1">
  <g id="patch_1">
   <path d="M 0 180 
L 453.6 180 
L 453.6 0 
L 0 0 
z
" style="fill: #ffffff"/>
  </g>
  <g id="axes_1">
   <g id="patch_2">
    <path d="M 90.72 135 
L 430.92 135 
L 430.92 18 
L 90.72 18 
z
" style="fill: #ffffff"/>
   </g>
   <g id="line2d_1">
    <path d="M 90.72 109.171697 
L 430.92 109.171697 
" clip-path="url(#p2acf620a80)" style="fill: none; stroke-dasharray: 5.55,2.4; stroke-dashoffset: 0; stroke: #cccccc; stroke-width: 1.5"/>
   </g>
   <g id="matplotlib.axis_1">
    <g id="xtick_1">
     <g id="line2d_2">
      <defs>
       <path id="m146d72a1c4" d="M 0 0 
L 0 6 
" style="stroke: #262626; stroke-width: 1.25"/>
      </defs>
      <g>
       <use xlink:href="#m146d72a1c4" x="120.666196" y="135" style="fill: #262626; stroke: #262626; stroke-width: 1.25"/>
      </g>
     </g>
     <g id="text_1">
      <!-- p21 -->
      <g style="fill: #262626" transform="translate(111.490649 152.40625) scale(0.11 -0.11)">
       <defs>
        <path id="ArialMT-70" d="M 422 -1272 
L 422 3319 
L 934 3319 
L 934 2888 
Q 1116 3141 1344 3267 
Q 1572 3394 1897 3394 
Q 2322 3394 2647 3175 
Q 2972 2956 3137 2557 
Q 3303 2159 3303 1684 
Q 3303 1175 3120 767 
Q 2938 359 2589 142 
Q 2241 -75 1856 -75 
Q 1575 -75 1351 44 
Q 1128 163 984 344 
L 984 -1272 
L 422 -1272 
z
M 931 1641 
Q 931 1000 1190 694 
Q 1450 388 1819 388 
Q 2194 388 2461 705 
Q 2728 1022 2728 1688 
Q 2728 2322 2467 2637 
Q 2206 2953 1844 2953 
Q 1484 2953 1207 2617 
Q 931 2281 931 1641 
z
" transform="scale(0.015625)"/>
        <path id="ArialMT-32" d="M 3222 541 
L 3222 0 
L 194 0 
Q 188 203 259 391 
Q 375 700 629 1000 
Q 884 1300 1366 1694 
Q 2113 2306 2375 2664 
Q 2638 3022 2638 3341 
Q 2638 3675 2398 3904 
Q 2159 4134 1775 4134 
Q 1369 4134 1125 3890 
Q 881 3647 878 3216 
L 300 3275 
Q 359 3922 746 4261 
Q 1134 4600 1788 4600 
Q 2447 4600 2831 4234 
Q 3216 3869 3216 3328 
Q 3216 3053 3103 2787 
Q 2991 2522 2730 2228 
Q 2469 1934 1863 1422 
Q 1356 997 1212 845 
Q 1069 694 975 541 
L 3222 541 
z
" transform="scale(0.015625)"/>
        <path id="ArialMT-31" d="M 2384 0 
L 1822 0 
L 1822 3584 
Q 1619 3391 1289 3197 
Q 959 3003 697 2906 
L 697 3450 
Q 1169 3672 1522 3987 
Q 1875 4303 2022 4600 
L 2384 4600 
L 2384 0 
z
" transform="scale(0.015625)"/>
       </defs>
       <use xlink:href="#ArialMT-70"/>
       <use xlink:href="#ArialMT-32" transform="translate(55.615234 0)"/>
       <use xlink:href="#ArialMT-31" transform="translate(111.230469 0)"/>
      </g>
     </g>
    </g>
    <g id="xtick_2">
     <g id="line2d_3">
      <g>
       <use xlink:href="#m146d72a1c4" x="167.384131" y="135" style="fill: #262626; stroke: #262626; stroke-width: 1.25"/>
      </g>
     </g>
     <g id="text_2">
      <!-- p16 -->
      <g style="fill: #262626" transform="translate(158.208584 152.40625) scale(0.11 -0.11)">
       <defs>
        <path id="ArialMT-36" d="M 3184 3459 
L 2625 3416 
Q 2550 3747 2413 3897 
Q 2184 4138 1850 4138 
Q 1581 4138 1378 3988 
Q 1113 3794 959 3422 
Q 806 3050 800 2363 
Q 1003 2672 1297 2822 
Q 1591 2972 1913 2972 
Q 2475 2972 2870 2558 
Q 3266 2144 3266 1488 
Q 3266 1056 3080 686 
Q 2894 316 2569 119 
Q 2244 -78 1831 -78 
Q 1128 -78 684 439 
Q 241 956 241 2144 
Q 241 3472 731 4075 
Q 1159 4600 1884 4600 
Q 2425 4600 2770 4297 
Q 3116 3994 3184 3459 
z
M 888 1484 
Q 888 1194 1011 928 
Q 1134 663 1356 523 
Q 1578 384 1822 384 
Q 2178 384 2434 671 
Q 2691 959 2691 1453 
Q 2691 1928 2437 2201 
Q 2184 2475 1800 2475 
Q 1419 2475 1153 2201 
Q 888 1928 888 1484 
z
" transform="scale(0.015625)"/>
       </defs>
       <use xlink:href="#ArialMT-70"/>
       <use xlink:href="#ArialMT-31" transform="translate(55.615234 0)"/>
       <use xlink:href="#ArialMT-36" transform="translate(111.230469 0)"/>
      </g>
     </g>
    </g>
    <g id="xtick_3">
     <g id="line2d_4">
      <g>
       <use xlink:href="#m146d72a1c4" x="214.102065" y="135" style="fill: #262626; stroke: #262626; stroke-width: 1.25"/>
      </g>
     </g>
     <g id="text_3">
      <!-- β-gal -->
      <g style="fill: #262626" transform="translate(201.768315 152.507656) scale(0.11 -0.11)">
       <defs>
        <path id="ArialMT-3b2" d="M 997 422 
L 997 -1272 
L 438 -1272 
L 438 3144 
Q 438 3672 580 3970 
Q 722 4269 1069 4464 
Q 1416 4659 1841 4659 
Q 2469 4659 2792 4298 
Q 3116 3938 3116 3509 
Q 3116 3091 2855 2834 
Q 2594 2578 2256 2519 
Q 2800 2466 3095 2128 
Q 3391 1791 3391 1297 
Q 3391 766 3042 345 
Q 2694 -75 2034 -75 
Q 1359 -75 997 422 
z
M 1494 2700 
Q 2069 2700 2331 2900 
Q 2594 3100 2594 3478 
Q 2594 3784 2370 3990 
Q 2147 4197 1813 4197 
Q 1522 4197 1308 4044 
Q 1094 3891 1045 3703 
Q 997 3516 997 3047 
L 997 1788 
Q 997 1250 1072 997 
Q 1147 744 1394 541 
Q 1641 338 1963 338 
Q 2353 338 2579 605 
Q 2806 872 2806 1266 
Q 2806 1591 2639 1848 
Q 2472 2106 2226 2198 
Q 1981 2291 1575 2291 
L 1494 2291 
L 1494 2700 
z
" transform="scale(0.015625)"/>
        <path id="ArialMT-2d" d="M 203 1375 
L 203 1941 
L 1931 1941 
L 1931 1375 
L 203 1375 
z
" transform="scale(0.015625)"/>
        <path id="ArialMT-67" d="M 319 -275 
L 866 -356 
Q 900 -609 1056 -725 
Q 1266 -881 1628 -881 
Q 2019 -881 2231 -725 
Q 2444 -569 2519 -288 
Q 2563 -116 2559 434 
Q 2191 0 1641 0 
Q 956 0 581 494 
Q 206 988 206 1678 
Q 206 2153 378 2554 
Q 550 2956 876 3175 
Q 1203 3394 1644 3394 
Q 2231 3394 2613 2919 
L 2613 3319 
L 3131 3319 
L 3131 450 
Q 3131 -325 2973 -648 
Q 2816 -972 2473 -1159 
Q 2131 -1347 1631 -1347 
Q 1038 -1347 672 -1080 
Q 306 -813 319 -275 
z
M 784 1719 
Q 784 1066 1043 766 
Q 1303 466 1694 466 
Q 2081 466 2343 764 
Q 2606 1063 2606 1700 
Q 2606 2309 2336 2618 
Q 2066 2928 1684 2928 
Q 1309 2928 1046 2623 
Q 784 2319 784 1719 
z
" transform="scale(0.015625)"/>
        <path id="ArialMT-61" d="M 2588 409 
Q 2275 144 1986 34 
Q 1697 -75 1366 -75 
Q 819 -75 525 192 
Q 231 459 231 875 
Q 231 1119 342 1320 
Q 453 1522 633 1644 
Q 813 1766 1038 1828 
Q 1203 1872 1538 1913 
Q 2219 1994 2541 2106 
Q 2544 2222 2544 2253 
Q 2544 2597 2384 2738 
Q 2169 2928 1744 2928 
Q 1347 2928 1158 2789 
Q 969 2650 878 2297 
L 328 2372 
Q 403 2725 575 2942 
Q 747 3159 1072 3276 
Q 1397 3394 1825 3394 
Q 2250 3394 2515 3294 
Q 2781 3194 2906 3042 
Q 3031 2891 3081 2659 
Q 3109 2516 3109 2141 
L 3109 1391 
Q 3109 606 3145 398 
Q 3181 191 3288 0 
L 2700 0 
Q 2613 175 2588 409 
z
M 2541 1666 
Q 2234 1541 1622 1453 
Q 1275 1403 1131 1340 
Q 988 1278 909 1158 
Q 831 1038 831 891 
Q 831 666 1001 516 
Q 1172 366 1500 366 
Q 1825 366 2078 508 
Q 2331 650 2450 897 
Q 2541 1088 2541 1459 
L 2541 1666 
z
" transform="scale(0.015625)"/>
        <path id="ArialMT-6c" d="M 409 0 
L 409 4581 
L 972 4581 
L 972 0 
L 409 0 
z
" transform="scale(0.015625)"/>
       </defs>
       <use xlink:href="#ArialMT-3b2"/>
       <use xlink:href="#ArialMT-2d" transform="translate(57.519531 0)"/>
       <use xlink:href="#ArialMT-67" transform="translate(90.820312 0)"/>
       <use xlink:href="#ArialMT-61" transform="translate(146.435547 0)"/>
       <use xlink:href="#ArialMT-6c" transform="translate(202.050781 0)"/>
      </g>
     </g>
    </g>
    <g id="xtick_4">
     <g id="line2d_5">
      <g>
       <use xlink:href="#m146d72a1c4" x="260.82" y="135" style="fill: #262626; stroke: #262626; stroke-width: 1.25"/>
      </g>
     </g>
     <g id="text_4">
      <!-- Pai-1 -->
      <g style="fill: #262626" transform="translate(247.980937 152.373594) scale(0.11 -0.11)">
       <defs>
        <path id="ArialMT-50" d="M 494 0 
L 494 4581 
L 2222 4581 
Q 2678 4581 2919 4538 
Q 3256 4481 3484 4323 
Q 3713 4166 3852 3881 
Q 3991 3597 3991 3256 
Q 3991 2672 3619 2267 
Q 3247 1863 2275 1863 
L 1100 1863 
L 1100 0 
L 494 0 
z
M 1100 2403 
L 2284 2403 
Q 2872 2403 3119 2622 
Q 3366 2841 3366 3238 
Q 3366 3525 3220 3729 
Q 3075 3934 2838 4000 
Q 2684 4041 2272 4041 
L 1100 4041 
L 1100 2403 
z
" transform="scale(0.015625)"/>
        <path id="ArialMT-69" d="M 425 3934 
L 425 4581 
L 988 4581 
L 988 3934 
L 425 3934 
z
M 425 0 
L 425 3319 
L 988 3319 
L 988 0 
L 425 0 
z
" transform="scale(0.015625)"/>
       </defs>
       <use xlink:href="#ArialMT-50"/>
       <use xlink:href="#ArialMT-61" transform="translate(66.699219 0)"/>
       <use xlink:href="#ArialMT-69" transform="translate(122.314453 0)"/>
       <use xlink:href="#ArialMT-2d" transform="translate(144.53125 0)"/>
       <use xlink:href="#ArialMT-31" transform="translate(177.832031 0)"/>
      </g>
     </g>
    </g>
    <g id="xtick_5">
     <g id="line2d_6">
      <g>
       <use xlink:href="#m146d72a1c4" x="307.537935" y="135" style="fill: #262626; stroke: #262626; stroke-width: 1.25"/>
      </g>
     </g>
     <g id="text_5">
      <!-- PN-1 -->
      <g style="fill: #262626" transform="translate(295.007388 152.373594) scale(0.11 -0.11)">
       <defs>
        <path id="ArialMT-4e" d="M 488 0 
L 488 4581 
L 1109 4581 
L 3516 984 
L 3516 4581 
L 4097 4581 
L 4097 0 
L 3475 0 
L 1069 3600 
L 1069 0 
L 488 0 
z
" transform="scale(0.015625)"/>
       </defs>
       <use xlink:href="#ArialMT-50"/>
       <use xlink:href="#ArialMT-4e" transform="translate(66.699219 0)"/>
       <use xlink:href="#ArialMT-2d" transform="translate(138.916016 0)"/>
       <use xlink:href="#ArialMT-31" transform="translate(172.216797 0)"/>
      </g>
     </g>
    </g>
    <g id="xtick_6">
     <g id="line2d_7">
      <g>
       <use xlink:href="#m146d72a1c4" x="354.255869" y="135" style="fill: #262626; stroke: #262626; stroke-width: 1.25"/>
      </g>
     </g>
     <g id="text_6">
      <!-- Pml -->
      <g style="fill: #262626" transform="translate(344.783838 152.373594) scale(0.11 -0.11)">
       <defs>
        <path id="ArialMT-6d" d="M 422 0 
L 422 3319 
L 925 3319 
L 925 2853 
Q 1081 3097 1340 3245 
Q 1600 3394 1931 3394 
Q 2300 3394 2536 3241 
Q 2772 3088 2869 2813 
Q 3263 3394 3894 3394 
Q 4388 3394 4653 3120 
Q 4919 2847 4919 2278 
L 4919 0 
L 4359 0 
L 4359 2091 
Q 4359 2428 4304 2576 
Q 4250 2725 4106 2815 
Q 3963 2906 3769 2906 
Q 3419 2906 3187 2673 
Q 2956 2441 2956 1928 
L 2956 0 
L 2394 0 
L 2394 2156 
Q 2394 2531 2256 2718 
Q 2119 2906 1806 2906 
Q 1569 2906 1367 2781 
Q 1166 2656 1075 2415 
Q 984 2175 984 1722 
L 984 0 
L 422 0 
z
" transform="scale(0.015625)"/>
       </defs>
       <use xlink:href="#ArialMT-50"/>
       <use xlink:href="#ArialMT-6d" transform="translate(66.699219 0)"/>
       <use xlink:href="#ArialMT-6c" transform="translate(150 0)"/>
      </g>
     </g>
    </g>
    <g id="xtick_7">
     <g id="line2d_8">
      <g>
       <use xlink:href="#m146d72a1c4" x="400.973804" y="135" style="fill: #262626; stroke: #262626; stroke-width: 1.25"/>
      </g>
     </g>
     <g id="text_7">
      <!-- Lmnb1 -->
      <g style="fill: #262626" transform="translate(384.158413 152.373594) scale(0.11 -0.11)">
       <defs>
        <path id="ArialMT-4c" d="M 469 0 
L 469 4581 
L 1075 4581 
L 1075 541 
L 3331 541 
L 3331 0 
L 469 0 
z
" transform="scale(0.015625)"/>
        <path id="ArialMT-6e" d="M 422 0 
L 422 3319 
L 928 3319 
L 928 2847 
Q 1294 3394 1984 3394 
Q 2284 3394 2536 3286 
Q 2788 3178 2913 3003 
Q 3038 2828 3088 2588 
Q 3119 2431 3119 2041 
L 3119 0 
L 2556 0 
L 2556 2019 
Q 2556 2363 2490 2533 
Q 2425 2703 2258 2804 
Q 2091 2906 1866 2906 
Q 1506 2906 1245 2678 
Q 984 2450 984 1813 
L 984 0 
L 422 0 
z
" transform="scale(0.015625)"/>
        <path id="ArialMT-62" d="M 941 0 
L 419 0 
L 419 4581 
L 981 4581 
L 981 2947 
Q 1338 3394 1891 3394 
Q 2197 3394 2470 3270 
Q 2744 3147 2920 2923 
Q 3097 2700 3197 2384 
Q 3297 2069 3297 1709 
Q 3297 856 2875 390 
Q 2453 -75 1863 -75 
Q 1275 -75 941 416 
L 941 0 
z
M 934 1684 
Q 934 1088 1097 822 
Q 1363 388 1816 388 
Q 2184 388 2453 708 
Q 2722 1028 2722 1663 
Q 2722 2313 2464 2622 
Q 2206 2931 1841 2931 
Q 1472 2931 1203 2611 
Q 934 2291 934 1684 
z
" transform="scale(0.015625)"/>
       </defs>
       <use xlink:href="#ArialMT-4c"/>
       <use xlink:href="#ArialMT-6d" transform="translate(55.615234 0)"/>
       <use xlink:href="#ArialMT-6e" transform="translate(138.916016 0)"/>
       <use xlink:href="#ArialMT-62" transform="translate(194.53125 0)"/>
       <use xlink:href="#ArialMT-31" transform="translate(250.146484 0)"/>
      </g>
     </g>
    </g>
   </g>
   <g id="matplotlib.axis_2">
    <g id="ytick_1">
     <g id="line2d_9">
      <defs>
       <path id="m36d8455fbc" d="M 0 0 
L -6 0 
" style="stroke: #262626; stroke-width: 1.25"/>
      </defs>
      <g>
       <use xlink:href="#m36d8455fbc" x="90.72" y="133.328662" style="fill: #262626; stroke: #262626; stroke-width: 1.25"/>
      </g>
     </g>
     <g id="text_8">
      <!-- 0.5 -->
      <g style="fill: #262626" transform="translate(65.93 137.265459) scale(0.11 -0.11)">
       <defs>
        <path id="ArialMT-30" d="M 266 2259 
Q 266 3072 433 3567 
Q 600 4063 929 4331 
Q 1259 4600 1759 4600 
Q 2128 4600 2406 4451 
Q 2684 4303 2865 4023 
Q 3047 3744 3150 3342 
Q 3253 2941 3253 2259 
Q 3253 1453 3087 958 
Q 2922 463 2592 192 
Q 2263 -78 1759 -78 
Q 1097 -78 719 397 
Q 266 969 266 2259 
z
M 844 2259 
Q 844 1131 1108 757 
Q 1372 384 1759 384 
Q 2147 384 2411 759 
Q 2675 1134 2675 2259 
Q 2675 3391 2411 3762 
Q 2147 4134 1753 4134 
Q 1366 4134 1134 3806 
Q 844 3388 844 2259 
z
" transform="scale(0.015625)"/>
        <path id="ArialMT-2e" d="M 581 0 
L 581 641 
L 1222 641 
L 1222 0 
L 581 0 
z
" transform="scale(0.015625)"/>
        <path id="ArialMT-35" d="M 266 1200 
L 856 1250 
Q 922 819 1161 601 
Q 1400 384 1738 384 
Q 2144 384 2425 690 
Q 2706 997 2706 1503 
Q 2706 1984 2436 2262 
Q 2166 2541 1728 2541 
Q 1456 2541 1237 2417 
Q 1019 2294 894 2097 
L 366 2166 
L 809 4519 
L 3088 4519 
L 3088 3981 
L 1259 3981 
L 1013 2750 
Q 1425 3038 1878 3038 
Q 2478 3038 2890 2622 
Q 3303 2206 3303 1553 
Q 3303 931 2941 478 
Q 2500 -78 1738 -78 
Q 1113 -78 717 272 
Q 322 622 266 1200 
z
" transform="scale(0.015625)"/>
       </defs>
       <use xlink:href="#ArialMT-30"/>
       <use xlink:href="#ArialMT-2e" transform="translate(55.615234 0)"/>
       <use xlink:href="#ArialMT-35" transform="translate(83.398438 0)"/>
      </g>
     </g>
    </g>
    <g id="ytick_2">
     <g id="line2d_10">
      <g>
       <use xlink:href="#m36d8455fbc" x="90.72" y="109.171697" style="fill: #262626; stroke: #262626; stroke-width: 1.25"/>
      </g>
     </g>
     <g id="text_9">
      <!-- 1.0 -->
      <g style="fill: #262626" transform="translate(65.93 113.108493) scale(0.11 -0.11)">
       <use xlink:href="#ArialMT-31"/>
       <use xlink:href="#ArialMT-2e" transform="translate(55.615234 0)"/>
       <use xlink:href="#ArialMT-30" transform="translate(83.398438 0)"/>
      </g>
     </g>
    </g>
    <g id="ytick_3">
     <g id="line2d_11">
      <g>
       <use xlink:href="#m36d8455fbc" x="90.72" y="85.014731" style="fill: #262626; stroke: #262626; stroke-width: 1.25"/>
      </g>
     </g>
     <g id="text_10">
      <!-- 1.5 -->
      <g style="fill: #262626" transform="translate(65.93 88.951528) scale(0.11 -0.11)">
       <use xlink:href="#ArialMT-31"/>
       <use xlink:href="#ArialMT-2e" transform="translate(55.615234 0)"/>
       <use xlink:href="#ArialMT-35" transform="translate(83.398438 0)"/>
      </g>
     </g>
    </g>
    <g id="ytick_4">
     <g id="line2d_12">
      <g>
       <use xlink:href="#m36d8455fbc" x="90.72" y="60.857766" style="fill: #262626; stroke: #262626; stroke-width: 1.25"/>
      </g>
     </g>
     <g id="text_11">
      <!-- 2.0 -->
      <g style="fill: #262626" transform="translate(65.93 64.794563) scale(0.11 -0.11)">
       <use xlink:href="#ArialMT-32"/>
       <use xlink:href="#ArialMT-2e" transform="translate(55.615234 0)"/>
       <use xlink:href="#ArialMT-30" transform="translate(83.398438 0)"/>
      </g>
     </g>
    </g>
    <g id="ytick_5">
     <g id="line2d_13">
      <g>
       <use xlink:href="#m36d8455fbc" x="90.72" y="36.700801" style="fill: #262626; stroke: #262626; stroke-width: 1.25"/>
      </g>
     </g>
     <g id="text_12">
      <!-- 2.5 -->
      <g style="fill: #262626" transform="translate(65.93 40.637598) scale(0.11 -0.11)">
       <use xlink:href="#ArialMT-32"/>
       <use xlink:href="#ArialMT-2e" transform="translate(55.615234 0)"/>
       <use xlink:href="#ArialMT-35" transform="translate(83.398438 0)"/>
      </g>
     </g>
    </g>
    <g id="text_13">
     <!-- Normed count -->
     <g style="fill: #262626" transform="translate(46.85275 114.181875) rotate(-90) scale(0.12 -0.12)">
      <defs>
       <path id="ArialMT-6f" d="M 213 1659 
Q 213 2581 725 3025 
Q 1153 3394 1769 3394 
Q 2453 3394 2887 2945 
Q 3322 2497 3322 1706 
Q 3322 1066 3130 698 
Q 2938 331 2570 128 
Q 2203 -75 1769 -75 
Q 1072 -75 642 372 
Q 213 819 213 1659 
z
M 791 1659 
Q 791 1022 1069 705 
Q 1347 388 1769 388 
Q 2188 388 2466 706 
Q 2744 1025 2744 1678 
Q 2744 2294 2464 2611 
Q 2184 2928 1769 2928 
Q 1347 2928 1069 2612 
Q 791 2297 791 1659 
z
" transform="scale(0.015625)"/>
       <path id="ArialMT-72" d="M 416 0 
L 416 3319 
L 922 3319 
L 922 2816 
Q 1116 3169 1280 3281 
Q 1444 3394 1641 3394 
Q 1925 3394 2219 3213 
L 2025 2691 
Q 1819 2813 1613 2813 
Q 1428 2813 1281 2702 
Q 1134 2591 1072 2394 
Q 978 2094 978 1738 
L 978 0 
L 416 0 
z
" transform="scale(0.015625)"/>
       <path id="ArialMT-65" d="M 2694 1069 
L 3275 997 
Q 3138 488 2766 206 
Q 2394 -75 1816 -75 
Q 1088 -75 661 373 
Q 234 822 234 1631 
Q 234 2469 665 2931 
Q 1097 3394 1784 3394 
Q 2450 3394 2872 2941 
Q 3294 2488 3294 1666 
Q 3294 1616 3291 1516 
L 816 1516 
Q 847 969 1125 678 
Q 1403 388 1819 388 
Q 2128 388 2347 550 
Q 2566 713 2694 1069 
z
M 847 1978 
L 2700 1978 
Q 2663 2397 2488 2606 
Q 2219 2931 1791 2931 
Q 1403 2931 1139 2672 
Q 875 2413 847 1978 
z
" transform="scale(0.015625)"/>
       <path id="ArialMT-64" d="M 2575 0 
L 2575 419 
Q 2259 -75 1647 -75 
Q 1250 -75 917 144 
Q 584 363 401 755 
Q 219 1147 219 1656 
Q 219 2153 384 2558 
Q 550 2963 881 3178 
Q 1213 3394 1622 3394 
Q 1922 3394 2156 3267 
Q 2391 3141 2538 2938 
L 2538 4581 
L 3097 4581 
L 3097 0 
L 2575 0 
z
M 797 1656 
Q 797 1019 1065 703 
Q 1334 388 1700 388 
Q 2069 388 2326 689 
Q 2584 991 2584 1609 
Q 2584 2291 2321 2609 
Q 2059 2928 1675 2928 
Q 1300 2928 1048 2622 
Q 797 2316 797 1656 
z
" transform="scale(0.015625)"/>
       <path id="ArialMT-20" transform="scale(0.015625)"/>
       <path id="ArialMT-63" d="M 2588 1216 
L 3141 1144 
Q 3050 572 2676 248 
Q 2303 -75 1759 -75 
Q 1078 -75 664 370 
Q 250 816 250 1647 
Q 250 2184 428 2587 
Q 606 2991 970 3192 
Q 1334 3394 1763 3394 
Q 2303 3394 2647 3120 
Q 2991 2847 3088 2344 
L 2541 2259 
Q 2463 2594 2264 2762 
Q 2066 2931 1784 2931 
Q 1359 2931 1093 2626 
Q 828 2322 828 1663 
Q 828 994 1084 691 
Q 1341 388 1753 388 
Q 2084 388 2306 591 
Q 2528 794 2588 1216 
z
" transform="scale(0.015625)"/>
       <path id="ArialMT-75" d="M 2597 0 
L 2597 488 
Q 2209 -75 1544 -75 
Q 1250 -75 995 37 
Q 741 150 617 320 
Q 494 491 444 738 
Q 409 903 409 1263 
L 409 3319 
L 972 3319 
L 972 1478 
Q 972 1038 1006 884 
Q 1059 663 1231 536 
Q 1403 409 1656 409 
Q 1909 409 2131 539 
Q 2353 669 2445 892 
Q 2538 1116 2538 1541 
L 2538 3319 
L 3100 3319 
L 3100 0 
L 2597 0 
z
" transform="scale(0.015625)"/>
       <path id="ArialMT-74" d="M 1650 503 
L 1731 6 
Q 1494 -44 1306 -44 
Q 1000 -44 831 53 
Q 663 150 594 308 
Q 525 466 525 972 
L 525 2881 
L 113 2881 
L 113 3319 
L 525 3319 
L 525 4141 
L 1084 4478 
L 1084 3319 
L 1650 3319 
L 1650 2881 
L 1084 2881 
L 1084 941 
Q 1084 700 1114 631 
Q 1144 563 1211 522 
Q 1278 481 1403 481 
Q 1497 481 1650 503 
z
" transform="scale(0.015625)"/>
      </defs>
      <use xlink:href="#ArialMT-4e"/>
      <use xlink:href="#ArialMT-6f" transform="translate(72.216797 0)"/>
      <use xlink:href="#ArialMT-72" transform="translate(127.832031 0)"/>
      <use xlink:href="#ArialMT-6d" transform="translate(161.132812 0)"/>
      <use xlink:href="#ArialMT-65" transform="translate(244.433594 0)"/>
      <use xlink:href="#ArialMT-64" transform="translate(300.048828 0)"/>
      <use xlink:href="#ArialMT-20" transform="translate(355.664062 0)"/>
      <use xlink:href="#ArialMT-63" transform="translate(383.447266 0)"/>
      <use xlink:href="#ArialMT-6f" transform="translate(433.447266 0)"/>
      <use xlink:href="#ArialMT-75" transform="translate(489.0625 0)"/>
      <use xlink:href="#ArialMT-6e" transform="translate(544.677734 0)"/>
      <use xlink:href="#ArialMT-74" transform="translate(600.292969 0)"/>
     </g>
     <!-- rel. to SDDIR -->
     <g style="fill: #262626" transform="translate(59.545 111.84) rotate(-90) scale(0.12 -0.12)">
      <defs>
       <path id="ArialMT-53" d="M 288 1472 
L 859 1522 
Q 900 1178 1048 958 
Q 1197 738 1509 602 
Q 1822 466 2213 466 
Q 2559 466 2825 569 
Q 3091 672 3220 851 
Q 3350 1031 3350 1244 
Q 3350 1459 3225 1620 
Q 3100 1781 2813 1891 
Q 2628 1963 1997 2114 
Q 1366 2266 1113 2400 
Q 784 2572 623 2826 
Q 463 3081 463 3397 
Q 463 3744 659 4045 
Q 856 4347 1234 4503 
Q 1613 4659 2075 4659 
Q 2584 4659 2973 4495 
Q 3363 4331 3572 4012 
Q 3781 3694 3797 3291 
L 3216 3247 
Q 3169 3681 2898 3903 
Q 2628 4125 2100 4125 
Q 1550 4125 1298 3923 
Q 1047 3722 1047 3438 
Q 1047 3191 1225 3031 
Q 1400 2872 2139 2705 
Q 2878 2538 3153 2413 
Q 3553 2228 3743 1945 
Q 3934 1663 3934 1294 
Q 3934 928 3725 604 
Q 3516 281 3123 101 
Q 2731 -78 2241 -78 
Q 1619 -78 1198 103 
Q 778 284 539 648 
Q 300 1013 288 1472 
z
" transform="scale(0.015625)"/>
       <path id="ArialMT-44" d="M 494 0 
L 494 4581 
L 2072 4581 
Q 2606 4581 2888 4516 
Q 3281 4425 3559 4188 
Q 3922 3881 4101 3404 
Q 4281 2928 4281 2316 
Q 4281 1794 4159 1391 
Q 4038 988 3847 723 
Q 3656 459 3429 307 
Q 3203 156 2883 78 
Q 2563 0 2147 0 
L 494 0 
z
M 1100 541 
L 2078 541 
Q 2531 541 2789 625 
Q 3047 709 3200 863 
Q 3416 1078 3536 1442 
Q 3656 1806 3656 2325 
Q 3656 3044 3420 3430 
Q 3184 3816 2847 3947 
Q 2603 4041 2063 4041 
L 1100 4041 
L 1100 541 
z
" transform="scale(0.015625)"/>
       <path id="ArialMT-49" d="M 597 0 
L 597 4581 
L 1203 4581 
L 1203 0 
L 597 0 
z
" transform="scale(0.015625)"/>
       <path id="ArialMT-52" d="M 503 0 
L 503 4581 
L 2534 4581 
Q 3147 4581 3465 4457 
Q 3784 4334 3975 4021 
Q 4166 3709 4166 3331 
Q 4166 2844 3850 2509 
Q 3534 2175 2875 2084 
Q 3116 1969 3241 1856 
Q 3506 1613 3744 1247 
L 4541 0 
L 3778 0 
L 3172 953 
Q 2906 1366 2734 1584 
Q 2563 1803 2427 1890 
Q 2291 1978 2150 2013 
Q 2047 2034 1813 2034 
L 1109 2034 
L 1109 0 
L 503 0 
z
M 1109 2559 
L 2413 2559 
Q 2828 2559 3062 2645 
Q 3297 2731 3419 2920 
Q 3541 3109 3541 3331 
Q 3541 3656 3305 3865 
Q 3069 4075 2559 4075 
L 1109 4075 
L 1109 2559 
z
" transform="scale(0.015625)"/>
      </defs>
      <use xlink:href="#ArialMT-72"/>
      <use xlink:href="#ArialMT-65" transform="translate(33.300781 0)"/>
      <use xlink:href="#ArialMT-6c" transform="translate(88.916016 0)"/>
      <use xlink:href="#ArialMT-2e" transform="translate(111.132812 0)"/>
      <use xlink:href="#ArialMT-20" transform="translate(138.916016 0)"/>
      <use xlink:href="#ArialMT-74" transform="translate(166.699219 0)"/>
      <use xlink:href="#ArialMT-6f" transform="translate(194.482422 0)"/>
      <use xlink:href="#ArialMT-20" transform="translate(250.097656 0)"/>
      <use xlink:href="#ArialMT-53" transform="translate(277.880859 0)"/>
      <use xlink:href="#ArialMT-44" transform="translate(344.580078 0)"/>
      <use xlink:href="#ArialMT-44" transform="translate(416.796875 0)"/>
      <use xlink:href="#ArialMT-49" transform="translate(489.013672 0)"/>
      <use xlink:href="#ArialMT-52" transform="translate(516.796875 0)"/>
     </g>
    </g>
   </g>
   <g id="line2d_14">
    <path d="M 111.322609 112.814365 
L 111.322609 105.529028 
" clip-path="url(#p2acf620a80)" style="fill: none; stroke: #808080; stroke-width: 1.5; stroke-linecap: round"/>
   </g>
   <g id="line2d_15">
    <path d="M 106.183636 112.814365 
L 116.461582 112.814365 
" clip-path="url(#p2acf620a80)" style="fill: none; stroke: #808080; stroke-width: 1.5; stroke-linecap: round"/>
   </g>
   <g id="line2d_16">
    <path d="M 106.183636 105.529028 
L 116.461582 105.529028 
" clip-path="url(#p2acf620a80)" style="fill: none; stroke: #808080; stroke-width: 1.5; stroke-linecap: round"/>
   </g>
   <g id="line2d_17">
    <path d="M 158.040544 115.187472 
L 158.040544 103.155921 
" clip-path="url(#p2acf620a80)" style="fill: none; stroke: #808080; stroke-width: 1.5; stroke-linecap: round"/>
   </g>
   <g id="line2d_18">
    <path d="M 152.901571 115.187472 
L 163.179517 115.187472 
" clip-path="url(#p2acf620a80)" style="fill: none; stroke: #808080; stroke-width: 1.5; stroke-linecap: round"/>
   </g>
   <g id="line2d_19">
    <path d="M 152.901571 103.155921 
L 163.179517 103.155921 
" clip-path="url(#p2acf620a80)" style="fill: none; stroke: #808080; stroke-width: 1.5; stroke-linecap: round"/>
   </g>
   <g id="line2d_20">
    <path d="M 204.758478 111.082023 
L 204.758478 107.26137 
" clip-path="url(#p2acf620a80)" style="fill: none; stroke: #808080; stroke-width: 1.5; stroke-linecap: round"/>
   </g>
   <g id="line2d_21">
    <path d="M 199.619506 111.082023 
L 209.897451 111.082023 
" clip-path="url(#p2acf620a80)" style="fill: none; stroke: #808080; stroke-width: 1.5; stroke-linecap: round"/>
   </g>
   <g id="line2d_22">
    <path d="M 199.619506 107.26137 
L 209.897451 107.26137 
" clip-path="url(#p2acf620a80)" style="fill: none; stroke: #808080; stroke-width: 1.5; stroke-linecap: round"/>
   </g>
   <g id="line2d_23">
    <path d="M 251.476413 114.172662 
L 251.476413 104.170731 
" clip-path="url(#p2acf620a80)" style="fill: none; stroke: #808080; stroke-width: 1.5; stroke-linecap: round"/>
   </g>
   <g id="line2d_24">
    <path d="M 246.33744 114.172662 
L 256.615386 114.172662 
" clip-path="url(#p2acf620a80)" style="fill: none; stroke: #808080; stroke-width: 1.5; stroke-linecap: round"/>
   </g>
   <g id="line2d_25">
    <path d="M 246.33744 104.170731 
L 256.615386 104.170731 
" clip-path="url(#p2acf620a80)" style="fill: none; stroke: #808080; stroke-width: 1.5; stroke-linecap: round"/>
   </g>
   <g id="line2d_26">
    <path d="M 298.194348 112.534564 
L 298.194348 105.808829 
" clip-path="url(#p2acf620a80)" style="fill: none; stroke: #808080; stroke-width: 1.5; stroke-linecap: round"/>
   </g>
   <g id="line2d_27">
    <path d="M 293.055375 112.534564 
L 303.333321 112.534564 
" clip-path="url(#p2acf620a80)" style="fill: none; stroke: #808080; stroke-width: 1.5; stroke-linecap: round"/>
   </g>
   <g id="line2d_28">
    <path d="M 293.055375 105.808829 
L 303.333321 105.808829 
" clip-path="url(#p2acf620a80)" style="fill: none; stroke: #808080; stroke-width: 1.5; stroke-linecap: round"/>
   </g>
   <g id="line2d_29">
    <path d="M 344.912282 112.264773 
L 344.912282 106.07862 
" clip-path="url(#p2acf620a80)" style="fill: none; stroke: #808080; stroke-width: 1.5; stroke-linecap: round"/>
   </g>
   <g id="line2d_30">
    <path d="M 339.77331 112.264773 
L 350.051255 112.264773 
" clip-path="url(#p2acf620a80)" style="fill: none; stroke: #808080; stroke-width: 1.5; stroke-linecap: round"/>
   </g>
   <g id="line2d_31">
    <path d="M 339.77331 106.07862 
L 350.051255 106.07862 
" clip-path="url(#p2acf620a80)" style="fill: none; stroke: #808080; stroke-width: 1.5; stroke-linecap: round"/>
   </g>
   <g id="line2d_32">
    <path d="M 391.630217 110.901993 
L 391.630217 107.4414 
" clip-path="url(#p2acf620a80)" style="fill: none; stroke: #808080; stroke-width: 1.5; stroke-linecap: round"/>
   </g>
   <g id="line2d_33">
    <path d="M 386.491244 110.901993 
L 396.76919 110.901993 
" clip-path="url(#p2acf620a80)" style="fill: none; stroke: #808080; stroke-width: 1.5; stroke-linecap: round"/>
   </g>
   <g id="line2d_34">
    <path d="M 386.491244 107.4414 
L 396.76919 107.4414 
" clip-path="url(#p2acf620a80)" style="fill: none; stroke: #808080; stroke-width: 1.5; stroke-linecap: round"/>
   </g>
   <g id="PathCollection_1">
    <defs>
     <path id="ma175de8a5e" d="M 5.075922 0 
L -5.075922 -0 
" style="stroke: #808080; stroke-width: 3.0375"/>
    </defs>
    <g clip-path="url(#p2acf620a80)">
     <use xlink:href="#ma175de8a5e" x="111.322609" y="109.171697" style="fill: #808080; stroke: #808080; stroke-width: 3.0375"/>
     <use xlink:href="#ma175de8a5e" x="158.040544" y="109.171697" style="fill: #808080; stroke: #808080; stroke-width: 3.0375"/>
     <use xlink:href="#ma175de8a5e" x="204.758478" y="109.171697" style="fill: #808080; stroke: #808080; stroke-width: 3.0375"/>
     <use xlink:href="#ma175de8a5e" x="251.476413" y="109.171697" style="fill: #808080; stroke: #808080; stroke-width: 3.0375"/>
     <use xlink:href="#ma175de8a5e" x="298.194348" y="109.171697" style="fill: #808080; stroke: #808080; stroke-width: 3.0375"/>
     <use xlink:href="#ma175de8a5e" x="344.912282" y="109.171697" style="fill: #808080; stroke: #808080; stroke-width: 3.0375"/>
     <use xlink:href="#ma175de8a5e" x="391.630217" y="109.171697" style="fill: #808080; stroke: #808080; stroke-width: 3.0375"/>
    </g>
   </g>
   <g id="line2d_35">
    <path d="M 130.009783 45.652686 
L 130.009783 42.108779 
" clip-path="url(#p2acf620a80)" style="fill: none; stroke: #000000; stroke-width: 1.5; stroke-linecap: round"/>
   </g>
   <g id="line2d_36">
    <path d="M 124.87081 45.652686 
L 135.148756 45.652686 
" clip-path="url(#p2acf620a80)" style="fill: none; stroke: #000000; stroke-width: 1.5; stroke-linecap: round"/>
   </g>
   <g id="line2d_37">
    <path d="M 124.87081 42.108779 
L 135.148756 42.108779 
" clip-path="url(#p2acf620a80)" style="fill: none; stroke: #000000; stroke-width: 1.5; stroke-linecap: round"/>
   </g>
   <g id="line2d_38">
    <path d="M 176.727718 123.637768 
L 176.727718 117.887291 
" clip-path="url(#p2acf620a80)" style="fill: none; stroke: #000000; stroke-width: 1.5; stroke-linecap: round"/>
   </g>
   <g id="line2d_39">
    <path d="M 171.588745 123.637768 
L 181.86669 123.637768 
" clip-path="url(#p2acf620a80)" style="fill: none; stroke: #000000; stroke-width: 1.5; stroke-linecap: round"/>
   </g>
   <g id="line2d_40">
    <path d="M 171.588745 117.887291 
L 181.86669 117.887291 
" clip-path="url(#p2acf620a80)" style="fill: none; stroke: #000000; stroke-width: 1.5; stroke-linecap: round"/>
   </g>
   <g id="line2d_41">
    <path d="M 223.445652 104.262834 
L 223.445652 100.189884 
" clip-path="url(#p2acf620a80)" style="fill: none; stroke: #000000; stroke-width: 1.5; stroke-linecap: round"/>
   </g>
   <g id="line2d_42">
    <path d="M 218.306679 104.262834 
L 228.584625 104.262834 
" clip-path="url(#p2acf620a80)" style="fill: none; stroke: #000000; stroke-width: 1.5; stroke-linecap: round"/>
   </g>
   <g id="line2d_43">
    <path d="M 218.306679 100.189884 
L 228.584625 100.189884 
" clip-path="url(#p2acf620a80)" style="fill: none; stroke: #000000; stroke-width: 1.5; stroke-linecap: round"/>
   </g>
   <g id="line2d_44">
    <path d="M 270.163587 74.685509 
L 270.163587 56.899005 
" clip-path="url(#p2acf620a80)" style="fill: none; stroke: #000000; stroke-width: 1.5; stroke-linecap: round"/>
   </g>
   <g id="line2d_45">
    <path d="M 265.024614 74.685509 
L 275.30256 74.685509 
" clip-path="url(#p2acf620a80)" style="fill: none; stroke: #000000; stroke-width: 1.5; stroke-linecap: round"/>
   </g>
   <g id="line2d_46">
    <path d="M 265.024614 56.899005 
L 275.30256 56.899005 
" clip-path="url(#p2acf620a80)" style="fill: none; stroke: #000000; stroke-width: 1.5; stroke-linecap: round"/>
   </g>
   <g id="line2d_47">
    <path d="M 316.881522 92.461729 
L 316.881522 83.966608 
" clip-path="url(#p2acf620a80)" style="fill: none; stroke: #000000; stroke-width: 1.5; stroke-linecap: round"/>
   </g>
   <g id="line2d_48">
    <path d="M 311.742549 92.461729 
L 322.020494 92.461729 
" clip-path="url(#p2acf620a80)" style="fill: none; stroke: #000000; stroke-width: 1.5; stroke-linecap: round"/>
   </g>
   <g id="line2d_49">
    <path d="M 311.742549 83.966608 
L 322.020494 83.966608 
" clip-path="url(#p2acf620a80)" style="fill: none; stroke: #000000; stroke-width: 1.5; stroke-linecap: round"/>
   </g>
   <g id="line2d_50">
    <path d="M 363.599456 118.838589 
L 363.599456 114.937681 
" clip-path="url(#p2acf620a80)" style="fill: none; stroke: #000000; stroke-width: 1.5; stroke-linecap: round"/>
   </g>
   <g id="line2d_51">
    <path d="M 358.460483 118.838589 
L 368.738429 118.838589 
" clip-path="url(#p2acf620a80)" style="fill: none; stroke: #000000; stroke-width: 1.5; stroke-linecap: round"/>
   </g>
   <g id="line2d_52">
    <path d="M 358.460483 114.937681 
L 368.738429 114.937681 
" clip-path="url(#p2acf620a80)" style="fill: none; stroke: #000000; stroke-width: 1.5; stroke-linecap: round"/>
   </g>
   <g id="line2d_53">
    <path d="M 410.317391 124.507434 
L 410.317391 118.483977 
" clip-path="url(#p2acf620a80)" style="fill: none; stroke: #000000; stroke-width: 1.5; stroke-linecap: round"/>
   </g>
   <g id="line2d_54">
    <path d="M 405.178418 124.507434 
L 415.456364 124.507434 
" clip-path="url(#p2acf620a80)" style="fill: none; stroke: #000000; stroke-width: 1.5; stroke-linecap: round"/>
   </g>
   <g id="line2d_55">
    <path d="M 405.178418 118.483977 
L 415.456364 118.483977 
" clip-path="url(#p2acf620a80)" style="fill: none; stroke: #000000; stroke-width: 1.5; stroke-linecap: round"/>
   </g>
   <g id="PathCollection_2">
    <defs>
     <path id="m00e4be5aef" d="M 5.075922 0 
L -5.075922 -0 
" style="stroke: #000000; stroke-width: 3.0375"/>
    </defs>
    <g clip-path="url(#p2acf620a80)">
     <use xlink:href="#m00e4be5aef" x="130.009783" y="43.880733" style="stroke: #000000; stroke-width: 3.0375"/>
     <use xlink:href="#m00e4be5aef" x="176.727718" y="120.76253" style="stroke: #000000; stroke-width: 3.0375"/>
     <use xlink:href="#m00e4be5aef" x="223.445652" y="102.226359" style="stroke: #000000; stroke-width: 3.0375"/>
     <use xlink:href="#m00e4be5aef" x="270.163587" y="65.792257" style="stroke: #000000; stroke-width: 3.0375"/>
     <use xlink:href="#m00e4be5aef" x="316.881522" y="88.214169" style="stroke: #000000; stroke-width: 3.0375"/>
     <use xlink:href="#m00e4be5aef" x="363.599456" y="116.888135" style="stroke: #000000; stroke-width: 3.0375"/>
     <use xlink:href="#m00e4be5aef" x="410.317391" y="121.495706" style="stroke: #000000; stroke-width: 3.0375"/>
    </g>
   </g>
   <g id="line2d_56">
    <path d="M 158.040544 90.519254 
L 158.040544 88.305932 
L 176.727718 88.305932 
L 176.727718 90.519254 
" clip-path="url(#p2acf620a80)" style="fill: none; stroke: #333333; stroke-width: 1.5; stroke-linecap: round"/>
   </g>
   <g id="line2d_57">
    <path d="M 111.322609 34.135112 
L 111.322609 31.92179 
L 130.009783 31.92179 
L 130.009783 34.135112 
" clip-path="url(#p2acf620a80)" style="fill: none; stroke: #333333; stroke-width: 1.5; stroke-linecap: round"/>
   </g>
   <g id="line2d_58">
    <path d="M 204.758478 93.155885 
L 204.758478 90.942563 
L 223.445652 90.942563 
L 223.445652 93.155885 
" clip-path="url(#p2acf620a80)" style="fill: none; stroke: #333333; stroke-width: 1.5; stroke-linecap: round"/>
   </g>
   <g id="line2d_59">
    <path d="M 251.476413 37.240766 
L 251.476413 35.027444 
L 270.163587 35.027444 
L 270.163587 37.240766 
" clip-path="url(#p2acf620a80)" style="fill: none; stroke: #333333; stroke-width: 1.5; stroke-linecap: round"/>
   </g>
   <g id="line2d_60">
    <path d="M 298.194348 73.372223 
L 298.194348 71.158901 
L 316.881522 71.158901 
L 316.881522 73.372223 
" clip-path="url(#p2acf620a80)" style="fill: none; stroke: #333333; stroke-width: 1.5; stroke-linecap: round"/>
   </g>
   <g id="line2d_61">
    <path d="M 344.912282 96.666297 
L 344.912282 94.452975 
L 363.599456 94.452975 
L 363.599456 96.666297 
" clip-path="url(#p2acf620a80)" style="fill: none; stroke: #333333; stroke-width: 1.5; stroke-linecap: round"/>
   </g>
   <g id="line2d_62">
    <path d="M 391.630217 99.15728 
L 391.630217 96.943958 
L 410.317391 96.943958 
L 410.317391 99.15728 
" clip-path="url(#p2acf620a80)" style="fill: none; stroke: #333333; stroke-width: 1.5; stroke-linecap: round"/>
   </g>
   <g id="patch_3">
    <path d="M 90.72 135 
L 90.72 18 
" style="fill: none; stroke: #262626; stroke-width: 1.25; stroke-linejoin: miter; stroke-linecap: square"/>
   </g>
   <g id="patch_4">
    <path d="M 430.92 135 
L 430.92 18 
" style="fill: none; stroke: #262626; stroke-width: 1.25; stroke-linejoin: miter; stroke-linecap: square"/>
   </g>
   <g id="patch_5">
    <path d="M 90.72 135 
L 430.92 135 
" style="fill: none; stroke: #262626; stroke-width: 1.25; stroke-linejoin: miter; stroke-linecap: square"/>
   </g>
   <g id="patch_6">
    <path d="M 90.72 18 
L 430.92 18 
" style="fill: none; stroke: #262626; stroke-width: 1.25; stroke-linejoin: miter; stroke-linecap: square"/>
   </g>
   <g id="PathCollection_3">
    <defs>
     <path id="meffc25773c" d="M 0 3.5 
C 0.928211 3.5 1.81853 3.131218 2.474874 2.474874 
C 3.131218 1.81853 3.5 0.928211 3.5 0 
C 3.5 -0.928211 3.131218 -1.81853 2.474874 -2.474874 
C 1.81853 -3.131218 0.928211 -3.5 0 -3.5 
C -0.928211 -3.5 -1.81853 -3.131218 -2.474874 -2.474874 
C -3.131218 -1.81853 -3.5 -0.928211 -3.5 0 
C -3.5 0.928211 -3.131218 1.81853 -2.474874 2.474874 
C -1.81853 3.131218 -0.928211 3.5 0 3.5 
z
" style="stroke: #ffffff; stroke-width: 0.4"/>
    </defs>
    <g clip-path="url(#p2acf620a80)">
     <use xlink:href="#meffc25773c" x="111.322609" y="111.492428" style="fill: #808080; stroke: #ffffff; stroke-width: 0.4"/>
    </g>
   </g>
   <g id="PathCollection_4">
    <defs>
     <path id="mad25a85788" d="M 0 3.5 
C 0.928211 3.5 1.81853 3.131218 2.474874 2.474874 
C 3.131218 1.81853 3.5 0.928211 3.5 0 
C 3.5 -0.928211 3.131218 -1.81853 2.474874 -2.474874 
C 1.81853 -3.131218 0.928211 -3.5 0 -3.5 
C -0.928211 -3.5 -1.81853 -3.131218 -2.474874 -2.474874 
C -3.131218 -1.81853 -3.5 -0.928211 -3.5 0 
C -3.5 0.928211 -3.131218 1.81853 -2.474874 2.474874 
C -1.81853 3.131218 -0.928211 3.5 0 3.5 
z
" style="stroke: #ffffff; stroke-width: 0.4"/>
    </defs>
    <g clip-path="url(#p2acf620a80)">
     <use xlink:href="#mad25a85788" x="130.009783" y="46.911953" style="stroke: #ffffff; stroke-width: 0.4"/>
    </g>
   </g>
   <g id="PathCollection_5">
    <g clip-path="url(#p2acf620a80)">
     <use xlink:href="#meffc25773c" x="158.040544" y="114.591421" style="fill: #808080; stroke: #ffffff; stroke-width: 0.4"/>
    </g>
   </g>
   <g id="PathCollection_6">
    <g clip-path="url(#p2acf620a80)">
     <use xlink:href="#mad25a85788" x="176.727718" y="115.10735" style="stroke: #ffffff; stroke-width: 0.4"/>
    </g>
   </g>
   <g id="PathCollection_7">
    <g clip-path="url(#p2acf620a80)">
     <use xlink:href="#meffc25773c" x="204.758478" y="108.357435" style="fill: #808080; stroke: #ffffff; stroke-width: 0.4"/>
    </g>
   </g>
   <g id="PathCollection_8">
    <g clip-path="url(#p2acf620a80)">
     <use xlink:href="#mad25a85788" x="223.445652" y="100.611213" style="stroke: #ffffff; stroke-width: 0.4"/>
    </g>
   </g>
   <g id="PathCollection_9">
    <g clip-path="url(#p2acf620a80)">
     <use xlink:href="#meffc25773c" x="251.476413" y="112.834192" style="fill: #808080; stroke: #ffffff; stroke-width: 0.4"/>
    </g>
   </g>
   <g id="PathCollection_10">
    <g clip-path="url(#p2acf620a80)">
     <use xlink:href="#mad25a85788" x="270.163587" y="82.257946" style="stroke: #ffffff; stroke-width: 0.4"/>
    </g>
   </g>
   <g id="PathCollection_11">
    <g clip-path="url(#p2acf620a80)">
     <use xlink:href="#meffc25773c" x="298.194348" y="114.559133" style="fill: #808080; stroke: #ffffff; stroke-width: 0.4"/>
    </g>
   </g>
   <g id="PathCollection_12">
    <g clip-path="url(#p2acf620a80)">
     <use xlink:href="#mad25a85788" x="316.881522" y="94.231136" style="stroke: #ffffff; stroke-width: 0.4"/>
    </g>
   </g>
   <g id="PathCollection_13">
    <g clip-path="url(#p2acf620a80)">
     <use xlink:href="#meffc25773c" x="344.912282" y="110.401799" style="fill: #808080; stroke: #ffffff; stroke-width: 0.4"/>
    </g>
   </g>
   <g id="PathCollection_14">
    <g clip-path="url(#p2acf620a80)">
     <use xlink:href="#mad25a85788" x="363.599456" y="118.153698" style="stroke: #ffffff; stroke-width: 0.4"/>
    </g>
   </g>
   <g id="PathCollection_15">
    <g clip-path="url(#p2acf620a80)">
     <use xlink:href="#meffc25773c" x="391.630217" y="111.52345" style="fill: #808080; stroke: #ffffff; stroke-width: 0.4"/>
    </g>
   </g>
   <g id="PathCollection_16">
    <g clip-path="url(#p2acf620a80)">
     <use xlink:href="#mad25a85788" x="410.317391" y="118.13103" style="stroke: #ffffff; stroke-width: 0.4"/>
    </g>
   </g>
   <g id="PathCollection_17">
    <defs>
     <path id="mfba0d4df25" d="M 0 -3.5 
L -3.5 3.5 
L 3.5 3.5 
z
" style="stroke: #ffffff; stroke-width: 0.4"/>
    </defs>
    <g clip-path="url(#p2acf620a80)">
     <use xlink:href="#mfba0d4df25" x="111.322609" y="113.991945" style="fill: #808080; stroke: #ffffff; stroke-width: 0.4"/>
    </g>
   </g>
   <g id="PathCollection_18">
    <defs>
     <path id="ma4af381964" d="M 0 -3.5 
L -3.5 3.5 
L 3.5 3.5 
z
" style="stroke: #ffffff; stroke-width: 0.4"/>
    </defs>
    <g clip-path="url(#p2acf620a80)">
     <use xlink:href="#ma4af381964" x="130.009783" y="40.775079" style="stroke: #ffffff; stroke-width: 0.4"/>
    </g>
   </g>
   <g id="PathCollection_19">
    <g clip-path="url(#p2acf620a80)">
     <use xlink:href="#mfba0d4df25" x="158.040544" y="97.159221" style="fill: #808080; stroke: #ffffff; stroke-width: 0.4"/>
    </g>
   </g>
   <g id="PathCollection_20">
    <g clip-path="url(#p2acf620a80)">
     <use xlink:href="#ma4af381964" x="176.727718" y="122.687239" style="stroke: #ffffff; stroke-width: 0.4"/>
    </g>
   </g>
   <g id="PathCollection_21">
    <g clip-path="url(#p2acf620a80)">
     <use xlink:href="#mfba0d4df25" x="204.758478" y="112.811594" style="fill: #808080; stroke: #ffffff; stroke-width: 0.4"/>
    </g>
   </g>
   <g id="PathCollection_22">
    <g clip-path="url(#p2acf620a80)">
     <use xlink:href="#ma4af381964" x="223.445652" y="99.795851" style="stroke: #ffffff; stroke-width: 0.4"/>
    </g>
   </g>
   <g id="PathCollection_23">
    <g clip-path="url(#p2acf620a80)">
     <use xlink:href="#mfba0d4df25" x="251.476413" y="115.400756" style="fill: #808080; stroke: #ffffff; stroke-width: 0.4"/>
    </g>
   </g>
   <g id="PathCollection_24">
    <g clip-path="url(#p2acf620a80)">
     <use xlink:href="#ma4af381964" x="270.163587" y="51.734415" style="stroke: #ffffff; stroke-width: 0.4"/>
    </g>
   </g>
   <g id="PathCollection_25">
    <g clip-path="url(#p2acf620a80)">
     <use xlink:href="#mfba0d4df25" x="298.194348" y="102.991106" style="fill: #808080; stroke: #ffffff; stroke-width: 0.4"/>
    </g>
   </g>
   <g id="PathCollection_26">
    <g clip-path="url(#p2acf620a80)">
     <use xlink:href="#ma4af381964" x="316.881522" y="80.01219" style="stroke: #ffffff; stroke-width: 0.4"/>
    </g>
   </g>
   <g id="PathCollection_27">
    <g clip-path="url(#p2acf620a80)">
     <use xlink:href="#mfba0d4df25" x="344.912282" y="113.807027" style="fill: #808080; stroke: #ffffff; stroke-width: 0.4"/>
    </g>
   </g>
   <g id="PathCollection_28">
    <g clip-path="url(#p2acf620a80)">
     <use xlink:href="#ma4af381964" x="363.599456" y="119.450909" style="stroke: #ffffff; stroke-width: 0.4"/>
    </g>
   </g>
   <g id="PathCollection_29">
    <g clip-path="url(#p2acf620a80)">
     <use xlink:href="#mfba0d4df25" x="391.630217" y="110.194392" style="fill: #808080; stroke: #ffffff; stroke-width: 0.4"/>
    </g>
   </g>
   <g id="PathCollection_30">
    <g clip-path="url(#p2acf620a80)">
     <use xlink:href="#ma4af381964" x="410.317391" y="127.504791" style="stroke: #ffffff; stroke-width: 0.4"/>
    </g>
   </g>
   <g id="PathCollection_31">
    <defs>
     <path id="m62af775e0e" d="M -3.5 3.5 
L 3.5 3.5 
L 3.5 -3.5 
L -3.5 -3.5 
z
" style="stroke: #ffffff; stroke-width: 0.4"/>
    </defs>
    <g clip-path="url(#p2acf620a80)">
     <use xlink:href="#m62af775e0e" x="111.322609" y="102.030717" style="fill: #808080; stroke: #ffffff; stroke-width: 0.4"/>
    </g>
   </g>
   <g id="PathCollection_32">
    <defs>
     <path id="m207afe3f4e" d="M -3.5 3.5 
L 3.5 3.5 
L 3.5 -3.5 
L -3.5 -3.5 
z
" style="stroke: #ffffff; stroke-width: 0.4"/>
    </defs>
    <g clip-path="url(#p2acf620a80)">
     <use xlink:href="#m207afe3f4e" x="130.009783" y="43.955166" style="stroke: #ffffff; stroke-width: 0.4"/>
    </g>
   </g>
   <g id="PathCollection_33">
    <g clip-path="url(#p2acf620a80)">
     <use xlink:href="#m62af775e0e" x="158.040544" y="115.764448" style="fill: #808080; stroke: #ffffff; stroke-width: 0.4"/>
    </g>
   </g>
   <g id="PathCollection_34">
    <g clip-path="url(#p2acf620a80)">
     <use xlink:href="#m207afe3f4e" x="176.727718" y="124.493" style="stroke: #ffffff; stroke-width: 0.4"/>
    </g>
   </g>
   <g id="PathCollection_35">
    <g clip-path="url(#p2acf620a80)">
     <use xlink:href="#m62af775e0e" x="204.758478" y="106.346061" style="fill: #808080; stroke: #ffffff; stroke-width: 0.4"/>
    </g>
   </g>
   <g id="PathCollection_36">
    <g clip-path="url(#p2acf620a80)">
     <use xlink:href="#m207afe3f4e" x="223.445652" y="106.272013" style="stroke: #ffffff; stroke-width: 0.4"/>
    </g>
   </g>
   <g id="PathCollection_37">
    <g clip-path="url(#p2acf620a80)">
     <use xlink:href="#m62af775e0e" x="251.476413" y="99.280141" style="fill: #808080; stroke: #ffffff; stroke-width: 0.4"/>
    </g>
   </g>
   <g id="PathCollection_38">
    <g clip-path="url(#p2acf620a80)">
     <use xlink:href="#m207afe3f4e" x="270.163587" y="63.38441" style="stroke: #ffffff; stroke-width: 0.4"/>
    </g>
   </g>
   <g id="PathCollection_39">
    <g clip-path="url(#p2acf620a80)">
     <use xlink:href="#m62af775e0e" x="298.194348" y="109.96485" style="fill: #808080; stroke: #ffffff; stroke-width: 0.4"/>
    </g>
   </g>
   <g id="PathCollection_40">
    <g clip-path="url(#p2acf620a80)">
     <use xlink:href="#m207afe3f4e" x="316.881522" y="90.39918" style="stroke: #ffffff; stroke-width: 0.4"/>
    </g>
   </g>
   <g id="PathCollection_41">
    <g clip-path="url(#p2acf620a80)">
     <use xlink:href="#m62af775e0e" x="344.912282" y="103.306264" style="fill: #808080; stroke: #ffffff; stroke-width: 0.4"/>
    </g>
   </g>
   <g id="PathCollection_42">
    <g clip-path="url(#p2acf620a80)">
     <use xlink:href="#m207afe3f4e" x="363.599456" y="113.059798" style="stroke: #ffffff; stroke-width: 0.4"/>
    </g>
   </g>
   <g id="PathCollection_43">
    <g clip-path="url(#p2acf620a80)">
     <use xlink:href="#m62af775e0e" x="391.630217" y="105.797247" style="fill: #808080; stroke: #ffffff; stroke-width: 0.4"/>
    </g>
   </g>
   <g id="PathCollection_44">
    <g clip-path="url(#p2acf620a80)">
     <use xlink:href="#m207afe3f4e" x="410.317391" y="118.851296" style="stroke: #ffffff; stroke-width: 0.4"/>
    </g>
   </g>
   <g id="text_14">
    <!-- ns -->
    <g style="fill: #262626" transform="translate(161.047568 84.920932) scale(0.12 -0.12)">
     <defs>
      <path id="ArialMT-73" d="M 197 991 
L 753 1078 
Q 800 744 1014 566 
Q 1228 388 1613 388 
Q 2000 388 2187 545 
Q 2375 703 2375 916 
Q 2375 1106 2209 1216 
Q 2094 1291 1634 1406 
Q 1016 1563 777 1677 
Q 538 1791 414 1992 
Q 291 2194 291 2438 
Q 291 2659 392 2848 
Q 494 3038 669 3163 
Q 800 3259 1026 3326 
Q 1253 3394 1513 3394 
Q 1903 3394 2198 3281 
Q 2494 3169 2634 2976 
Q 2775 2784 2828 2463 
L 2278 2388 
Q 2241 2644 2061 2787 
Q 1881 2931 1553 2931 
Q 1166 2931 1000 2803 
Q 834 2675 834 2503 
Q 834 2394 903 2306 
Q 972 2216 1119 2156 
Q 1203 2125 1616 2013 
Q 2213 1853 2448 1751 
Q 2684 1650 2818 1456 
Q 2953 1263 2953 975 
Q 2953 694 2789 445 
Q 2625 197 2315 61 
Q 2006 -75 1616 -75 
Q 969 -75 630 194 
Q 291 463 197 991 
z
" transform="scale(0.015625)"/>
     </defs>
     <use xlink:href="#ArialMT-6e"/>
     <use xlink:href="#ArialMT-73" transform="translate(55.615234 0)"/>
    </g>
   </g>
   <g id="text_15">
    <!-- **** -->
    <g style="fill: #262626" transform="translate(111.324946 28.53679) scale(0.12 -0.12)">
     <defs>
      <path id="ArialMT-2a" d="M 200 3741 
L 344 4184 
Q 841 4009 1066 3881 
Q 1006 4447 1003 4659 
L 1456 4659 
Q 1447 4350 1384 3884 
Q 1706 4047 2122 4184 
L 2266 3741 
Q 1869 3609 1488 3566 
Q 1678 3400 2025 2975 
L 1650 2709 
Q 1469 2956 1222 3381 
Q 991 2941 816 2709 
L 447 2975 
Q 809 3422 966 3566 
Q 563 3644 200 3741 
z
" transform="scale(0.015625)"/>
     </defs>
     <use xlink:href="#ArialMT-2a"/>
     <use xlink:href="#ArialMT-2a" transform="translate(38.916016 0)"/>
     <use xlink:href="#ArialMT-2a" transform="translate(77.832031 0)"/>
     <use xlink:href="#ArialMT-2a" transform="translate(116.748047 0)"/>
    </g>
   </g>
   <g id="text_16">
    <!-- ns -->
    <g style="fill: #262626" transform="translate(207.765503 87.557563) scale(0.12 -0.12)">
     <use xlink:href="#ArialMT-6e"/>
     <use xlink:href="#ArialMT-73" transform="translate(55.615234 0)"/>
    </g>
   </g>
   <g id="text_17">
    <!-- * -->
    <g style="fill: #262626" transform="translate(258.484687 31.642444) scale(0.12 -0.12)">
     <use xlink:href="#ArialMT-2a"/>
    </g>
   </g>
   <g id="text_18">
    <!-- * -->
    <g style="fill: #262626" transform="translate(305.202622 67.773901) scale(0.12 -0.12)">
     <use xlink:href="#ArialMT-2a"/>
    </g>
   </g>
   <g id="text_19">
    <!-- ns -->
    <g style="fill: #262626" transform="translate(347.919307 91.067975) scale(0.12 -0.12)">
     <use xlink:href="#ArialMT-6e"/>
     <use xlink:href="#ArialMT-73" transform="translate(55.615234 0)"/>
    </g>
   </g>
   <g id="text_20">
    <!-- * -->
    <g style="fill: #262626" transform="translate(398.638491 93.558958) scale(0.12 -0.12)">
     <use xlink:href="#ArialMT-2a"/>
    </g>
   </g>
   <g id="text_21">
    <!-- senescence_marker_GOI -->
    <g style="fill: #262626" transform="translate(192.460312 12) scale(0.12 -0.12)">
     <defs>
      <path id="ArialMT-5f" d="M -97 -1272 
L -97 -866 
L 3631 -866 
L 3631 -1272 
L -97 -1272 
z
" transform="scale(0.015625)"/>
      <path id="ArialMT-6b" d="M 425 0 
L 425 4581 
L 988 4581 
L 988 1969 
L 2319 3319 
L 3047 3319 
L 1778 2088 
L 3175 0 
L 2481 0 
L 1384 1697 
L 988 1316 
L 988 0 
L 425 0 
z
" transform="scale(0.015625)"/>
      <path id="ArialMT-47" d="M 2638 1797 
L 2638 2334 
L 4578 2338 
L 4578 638 
Q 4131 281 3656 101 
Q 3181 -78 2681 -78 
Q 2006 -78 1454 211 
Q 903 500 622 1047 
Q 341 1594 341 2269 
Q 341 2938 620 3517 
Q 900 4097 1425 4378 
Q 1950 4659 2634 4659 
Q 3131 4659 3532 4498 
Q 3934 4338 4162 4050 
Q 4391 3763 4509 3300 
L 3963 3150 
Q 3859 3500 3706 3700 
Q 3553 3900 3268 4020 
Q 2984 4141 2638 4141 
Q 2222 4141 1919 4014 
Q 1616 3888 1430 3681 
Q 1244 3475 1141 3228 
Q 966 2803 966 2306 
Q 966 1694 1177 1281 
Q 1388 869 1791 669 
Q 2194 469 2647 469 
Q 3041 469 3416 620 
Q 3791 772 3984 944 
L 3984 1797 
L 2638 1797 
z
" transform="scale(0.015625)"/>
      <path id="ArialMT-4f" d="M 309 2231 
Q 309 3372 921 4017 
Q 1534 4663 2503 4663 
Q 3138 4663 3647 4359 
Q 4156 4056 4423 3514 
Q 4691 2972 4691 2284 
Q 4691 1588 4409 1038 
Q 4128 488 3612 205 
Q 3097 -78 2500 -78 
Q 1853 -78 1343 234 
Q 834 547 571 1087 
Q 309 1628 309 2231 
z
M 934 2222 
Q 934 1394 1379 917 
Q 1825 441 2497 441 
Q 3181 441 3623 922 
Q 4066 1403 4066 2288 
Q 4066 2847 3877 3264 
Q 3688 3681 3323 3911 
Q 2959 4141 2506 4141 
Q 1863 4141 1398 3698 
Q 934 3256 934 2222 
z
" transform="scale(0.015625)"/>
     </defs>
     <use xlink:href="#ArialMT-73"/>
     <use xlink:href="#ArialMT-65" transform="translate(50 0)"/>
     <use xlink:href="#ArialMT-6e" transform="translate(105.615234 0)"/>
     <use xlink:href="#ArialMT-65" transform="translate(161.230469 0)"/>
     <use xlink:href="#ArialMT-73" transform="translate(216.845703 0)"/>
     <use xlink:href="#ArialMT-63" transform="translate(266.845703 0)"/>
     <use xlink:href="#ArialMT-65" transform="translate(316.845703 0)"/>
     <use xlink:href="#ArialMT-6e" transform="translate(372.460938 0)"/>
     <use xlink:href="#ArialMT-63" transform="translate(428.076172 0)"/>
     <use xlink:href="#ArialMT-65" transform="translate(478.076172 0)"/>
     <use xlink:href="#ArialMT-5f" transform="translate(533.691406 0)"/>
     <use xlink:href="#ArialMT-6d" transform="translate(589.306641 0)"/>
     <use xlink:href="#ArialMT-61" transform="translate(672.607422 0)"/>
     <use xlink:href="#ArialMT-72" transform="translate(728.222656 0)"/>
     <use xlink:href="#ArialMT-6b" transform="translate(761.523438 0)"/>
     <use xlink:href="#ArialMT-65" transform="translate(811.523438 0)"/>
     <use xlink:href="#ArialMT-72" transform="translate(867.138672 0)"/>
     <use xlink:href="#ArialMT-5f" transform="translate(900.439453 0)"/>
     <use xlink:href="#ArialMT-47" transform="translate(956.054688 0)"/>
     <use xlink:href="#ArialMT-4f" transform="translate(1033.837891 0)"/>
     <use xlink:href="#ArialMT-49" transform="translate(1111.621094 0)"/>
    </g>
   </g>
   <g id="legend_1">
    <g id="PathCollection_45">
     <g>
      <use xlink:href="#ma175de8a5e" x="463.33" y="27.386094" style="fill: #808080; stroke: #808080; stroke-width: 3.0375"/>
     </g>
    </g>
    <g id="text_22">
     <!-- SDDIR -->
     <g style="fill: #262626" transform="translate(483.13 30.273594) scale(0.11 -0.11)">
      <use xlink:href="#ArialMT-53"/>
      <use xlink:href="#ArialMT-44" transform="translate(66.699219 0)"/>
      <use xlink:href="#ArialMT-44" transform="translate(138.916016 0)"/>
      <use xlink:href="#ArialMT-49" transform="translate(211.132812 0)"/>
      <use xlink:href="#ArialMT-52" transform="translate(238.916016 0)"/>
     </g>
    </g>
    <g id="PathCollection_46">
     <g>
      <use xlink:href="#m00e4be5aef" x="463.33" y="42.945937" style="stroke: #000000; stroke-width: 3.0375"/>
     </g>
    </g>
    <g id="text_23">
     <!-- RISDD -->
     <g style="fill: #262626" transform="translate(483.13 45.833438) scale(0.11 -0.11)">
      <use xlink:href="#ArialMT-52"/>
      <use xlink:href="#ArialMT-49" transform="translate(72.216797 0)"/>
      <use xlink:href="#ArialMT-53" transform="translate(100 0)"/>
      <use xlink:href="#ArialMT-44" transform="translate(166.699219 0)"/>
      <use xlink:href="#ArialMT-44" transform="translate(238.916016 0)"/>
     </g>
    </g>
   </g>
  </g>
 </g>
 <defs>
  <clipPath id="p2acf620a80">
   <rect x="90.72" y="18" width="340.2" height="117"/>
  </clipPath>
 </defs>
</svg>
